<?xml version="1.0" encoding="utf-8"?>
<!-- Generator: Adobe Illustrator 15.0.0, SVG Export Plug-In . SVG Version: 6.00 Build 0)  -->
<!DOCTYPE svg PUBLIC "-//W3C//DTD SVG 1.1//EN" "http://www.w3.org/Graphics/SVG/1.1/DTD/svg11.dtd">
<svg version="1.1" id="Layer_1" xmlns:svg="http://www.w3.org/2000/svg"
	 xmlns="http://www.w3.org/2000/svg" xmlns:xlink="http://www.w3.org/1999/xlink" x="0px" y="0px" width="568.929px"
	 height="116.145px" viewBox="0 0 568.929 116.145" enable-background="new 0 0 568.929 116.145" xml:space="preserve">
<g>
	<polygon fill="#FFFFFF" points="358.58,26.897 358.58,24.416 375.765,24.416 375.765,46.389 363.564,46.389 363.564,50.715 
		359.367,50.715 359.367,55.566 354.53,55.566 354.53,76.674 358.71,76.674 358.71,81.131 363.302,81.131 363.302,85.851 
		375.765,85.851 375.765,108.095 358.71,108.095 358.71,105.358 353.462,105.358 353.462,102.793 349.265,102.793 349.265,99.203 
		345.46,99.203 345.46,94.442 341,94.442 341,89.753 336.804,89.753 336.804,84.113 332.734,84.113 332.734,48.142 336.804,48.142 
		336.804,42.718 340.869,42.718 340.869,37.813 345.593,37.813 345.593,33.124 349.265,33.124 349.265,29.74 353.07,29.74 
		353.07,26.897 	"/>
	<path d="M376.515,108.845H357.96v-2.737h-5.248v-2.564h-4.197v-3.59h-3.805v-4.762h-4.461v-4.688h-4.195v-5.641h-4.07V47.392h4.07
		v-5.424h4.064v-4.905h4.725v-4.688h3.672V28.99h3.805v-2.844h5.51v-2.48h18.686v23.473h-12.201v4.326h-4.197v4.851h-4.837v19.608
		h4.181v4.457h4.592v4.72h12.463V108.845z M359.46,107.345h15.555V86.601h-12.463v-4.72h-4.592v-4.457h-4.181V54.816h4.837v-4.851
		h4.197v-4.326h12.201V25.166H359.33v2.48h-5.51v2.844h-3.805v3.384h-3.672v4.688h-4.725v4.905h-4.064v5.424h-4.07v34.471h4.07
		v5.641h4.195v4.688h4.461v4.762h3.805v3.59h4.197v2.564h5.248V107.345z"/>
</g>
<g>
	<polygon fill="#FFFFFF" points="405.199,26.488 405.199,24.311 423.564,24.311 423.564,26.488 428.812,26.488 428.812,29.242 
		432.75,29.242 432.75,33.179 436.947,33.179 436.947,37.378 441.277,37.378 441.277,42.23 445.738,42.23 445.738,108.041 
		425.468,108.041 425.468,51.019 421.074,51.019 421.074,46.955 410.449,46.955 410.449,50.757 405.726,50.757 405.726,55.35 
		400.869,55.35 400.869,76.603 405.46,76.603 405.46,81.324 409.66,81.324 409.66,85.128 420.941,85.128 420.941,108.041 
		405.199,108.041 405.199,106.251 399.689,106.251 399.689,103.496 396.146,103.496 396.146,99.692 391.949,99.692 391.949,95.232 
		387.88,95.232 387.88,90.115 383.814,90.115 383.814,84.474 379.353,84.474 379.353,48.265 383.158,48.265 383.158,42.718 
		387.751,42.718 387.751,37.901 391.949,37.901 391.949,33.047 395.884,33.047 395.884,29.504 399.951,29.504 399.951,26.481 	"/>
	<path d="M446.488,108.791h-21.77V51.769h-4.395v-4.063h-9.125v3.802h-4.723V56.1h-4.857v19.753h4.592v4.722h4.199v3.804h11.281
		v24.413h-17.242v-1.79h-5.51v-2.755h-3.543v-3.805h-4.197v-4.46h-4.068v-5.116h-4.066v-5.642h-4.461V47.515h3.805v-5.547h4.594
		v-4.817h4.197v-4.854h3.936v-3.543h4.066V25.73l5.248,0.007v-2.176h19.865v2.177h5.248v2.755h3.938v3.937h4.197v4.199h4.33v4.852
		h4.461V108.791z M426.218,107.291h18.77V42.98h-4.461v-4.852h-4.33v-4.199H432v-3.937h-3.938v-2.755h-5.248v-2.177h-16.865v2.178
		l-5.248-0.007v3.022h-4.066v3.543h-3.936v4.854h-4.197v4.817h-4.594v5.547h-3.805v34.709h4.461v5.642h4.066v5.116h4.068v4.46h4.197
		v3.805h3.543v2.755h5.51v1.79h14.242V85.878H408.91v-3.804h-4.199v-4.722h-4.592V54.6h4.857v-4.593h4.723v-3.802h12.125v4.063
		h4.395V107.291z"/>
</g>
<g>
	<polygon fill="#F2B101" points="29.042,26.488 29.042,24.311 47.408,24.311 47.408,26.488 52.656,26.488 52.656,29.242 
		56.593,29.242 56.593,33.179 60.791,33.179 60.791,37.378 65.121,37.378 65.121,42.231 69.582,42.231 69.582,108.041 
		49.312,108.041 49.312,51.02 44.917,51.02 44.917,46.955 34.292,46.955 34.292,50.757 29.57,50.757 29.57,55.351 24.712,55.351 
		24.712,76.602 29.304,76.602 29.304,81.324 33.503,81.324 33.503,85.129 44.785,85.129 44.785,108.041 29.042,108.041 
		29.042,106.252 23.533,106.252 23.533,103.496 19.99,103.496 19.99,99.692 15.792,99.692 15.792,95.233 11.725,95.233 
		11.725,90.115 7.658,90.115 7.658,84.475 3.197,84.475 3.197,48.265 7.001,48.265 7.001,42.718 11.596,42.718 11.596,37.901 
		15.792,37.901 15.792,33.047 19.728,33.047 19.728,29.504 23.794,29.504 23.794,26.481 	"/>
	<path d="M70.332,108.791h-21.77V51.77h-4.395v-4.064h-9.125v3.802H30.32v4.594h-4.858v19.751h4.592v4.723h4.199v3.805h11.282
		v24.412H28.292v-1.789h-5.509v-2.756H19.24v-3.805h-4.198v-4.459h-4.067v-5.117H6.908v-5.641H2.447v-37.71h3.804v-5.547h4.595
		v-4.817h4.196v-4.854h3.936v-3.543h4.066V25.73l5.248,0.007v-2.176h19.866v2.177h5.248v2.755h3.937v3.937h4.198v4.199h4.33v4.853
		h4.461V108.791z M50.062,107.291h18.77V42.981h-4.461v-4.853h-4.33v-4.199h-4.198v-3.937h-3.937v-2.755h-5.248v-2.177H29.792v2.178
		l-5.248-0.007v3.022h-4.066v3.543h-3.936v4.854h-4.196v4.817H7.751v5.547H3.947v34.71h4.461v5.641h4.067v5.117h4.067v4.459h4.198
		v3.805h3.543v2.756h5.509v1.789h14.243V85.879H32.753v-3.805h-4.199v-4.723h-4.592V54.601h4.858v-4.594h4.722v-3.802h12.125v4.064
		h4.395V107.291z"/>
</g>
<g>
	<polygon fill="#FFFFFF" points="491.369,46.077 491.369,24.31 475.423,24.31 475.423,26.595 470.388,26.608 470.388,29.293 
		466.027,29.293 466.027,32.986 461.662,32.986 461.662,37.685 457.802,37.685 457.802,42.385 453.605,42.385 453.605,48.259 
		449.242,48.259 449.242,84.177 453.773,84.177 453.773,89.884 457.802,89.884 457.802,95.086 462,95.086 462,99.954 
		466.195,99.954 466.195,103.647 470.388,103.647 470.388,106.163 476.097,106.163 476.097,108.042 495.228,108.042 
		495.228,106.332 500.433,106.332 500.433,103.31 503.958,103.31 503.958,99.115 507.82,99.115 507.82,94.247 512.517,94.247 
		512.517,89.547 516.714,89.547 516.714,7.138 495.06,7.138 495.06,81.323 491.369,81.323 491.369,85.185 479.955,85.185 
		479.955,81.323 476.097,81.323 476.097,76.288 471.564,76.288 471.564,55.31 476.431,55.31 476.431,50.945 480.628,50.945 
		480.628,46.077 	"/>
	<path d="M495.978,108.792h-20.631v-1.879h-5.709v-2.517h-4.193v-3.692h-4.195v-4.868h-4.197v-5.202h-4.029v-5.707h-4.531V47.509
		h4.363v-5.874h4.197v-4.7h3.859v-4.699h4.365v-3.692h4.361V25.86l5.035-0.013V23.56h17.445v23.268h-10.74v4.867h-4.197v4.365
		h-4.867v19.479h4.533v5.035h3.857v3.861h9.914v-3.861h3.691V6.388h23.154v83.909h-4.197v4.7h-4.697v4.868h-3.861v4.194h-3.525
		v3.022h-5.205V108.792z M476.847,107.292h17.631v-1.71h5.205v-3.022h3.525v-4.194h3.861v-4.868h4.697v-4.7h4.197V7.888H495.81
		v74.186h-3.691v3.861h-12.914v-3.861h-3.857v-5.035h-4.533V54.56h4.867v-4.365h4.197v-4.867h10.74V25.06h-14.445v2.283
		l-5.035,0.013v2.688h-4.361v3.692h-4.365v4.699h-3.859v4.7h-4.197v5.874h-4.363v34.418h4.531v5.707h4.029v5.202h4.197v4.868h4.195
		v3.692h4.193v2.517h5.709V107.292z"/>
</g>
<g>
	<polygon fill="#FFFFFF" points="525.328,47.705 525.328,42.423 528.984,42.423 528.984,37.819 533.318,37.819 533.318,33.077 
		537.113,33.077 537.113,29.284 541.447,29.284 541.447,26.17 546.322,26.17 546.322,24.31 566.095,24.31 566.095,46.486 
		552.281,46.486 552.281,49.872 547.812,49.872 547.812,52.446 543.746,52.446 543.746,55.426 566.095,55.426 566.095,76.148 
		543.882,76.148 543.882,79.399 548.083,79.399 548.083,81.971 552.009,81.971 552.009,85.223 566.095,85.223 566.095,108.042 
		546.322,108.042 546.322,106.214 541.714,106.214 541.714,103.372 537.515,103.372 537.515,99.579 533.591,99.579 533.591,95.379 
		528.984,95.379 528.984,89.963 525.328,89.963 525.328,84.003 520.451,84.003 520.451,47.69 	"/>
	<path d="M566.845,108.792h-21.273v-1.828h-4.607v-2.842h-4.199v-3.793h-3.924v-4.2h-4.607v-5.416h-3.656v-5.96h-4.877V46.937
		l4.877,0.016v-5.28h3.656v-4.604h4.334v-4.741h3.795v-3.793h4.334V25.42h4.875v-1.86h21.273v23.676h-13.814v3.387h-4.469v2.573
		h-4.066v1.48h22.35v22.222h-22.213v1.751h4.201v2.572h3.926v3.252h14.086V108.792z M547.072,107.292h18.273V85.973h-14.086v-3.252
		h-3.926v-2.572h-4.201v-4.751h22.213V56.176h-22.35v-4.48h4.066v-2.573h4.469v-3.387h13.814V25.06h-18.273v1.86h-4.875v3.114
		h-4.334v3.793h-3.795v4.741h-4.334v4.604h-3.656v5.285l-4.877-0.016v34.811h4.877v5.96h3.656v5.416h4.607v4.2h3.924v3.793h4.199
		v2.842h4.607V107.292z"/>
</g>
<g>
	<polygon fill="#F2B101" points="136.836,55.95 136.836,42.491 132.682,42.491 132.682,37.509 128.407,37.509 128.407,32.929 
		124.547,32.929 124.547,29.381 120.48,29.381 120.48,26.584 115.46,26.584 115.46,24.311 94.691,24.311 94.691,26.584 
		89.152,26.584 89.152,29.381 85.431,29.381 85.431,32.929 81.537,32.929 81.537,37.509 77.037,37.509 77.037,42.229 73.314,42.229 
		73.314,64.166 77.468,64.166 77.468,68.449 81.709,68.449 81.709,72.382 110.874,72.382 110.874,76.752 115.201,76.752 
		115.201,81.035 110.7,81.035 110.7,85.492 99.537,85.492 99.537,80.861 95.556,80.861 95.556,76.49 73.314,76.49 73.314,89.862 
		77.468,89.862 77.468,94.407 81.795,94.407 81.795,98.953 86.124,98.953 86.124,102.536 89.93,102.536 89.93,105.332 
		95.123,105.332 95.123,108.042 115.72,108.042 115.72,105.332 120.394,105.332 120.394,102.536 124.547,102.536 124.547,98.953 
		128.701,98.953 128.701,94.495 132.769,94.495 132.769,89.95 136.836,89.95 136.836,68.974 131.817,68.974 131.817,64.865 
		127.576,64.865 127.576,59.971 99.45,59.971 99.45,55.601 95.21,55.601 95.21,51.318 99.45,51.318 99.45,46.686 110.614,46.686 
		110.614,51.668 114.768,51.668 114.768,55.95 	"/>
	<path d="M116.47,108.792H94.373v-2.71H89.18v-2.796h-3.806v-3.583h-4.329v-4.546h-4.327v-4.546h-4.154V75.74h23.742v4.37h3.981
		v4.632h9.663v-4.457h4.501v-2.783h-4.327v-4.37H80.959v-3.933h-4.241v-4.283h-4.154V41.479h3.723v-4.72h4.5v-4.58h3.894v-3.548
		h3.721v-2.797h5.539v-2.273h22.269v2.273h5.02v2.797h4.067v3.548h3.86v4.58h4.275v4.982h4.154V56.7h-23.568v-4.282h-4.154v-4.982
		H100.2v4.632h-4.24v2.783h4.24v4.37h28.126v4.895h4.241v4.108h5.019V90.7h-4.067v4.545h-4.068v4.458h-4.154v3.583h-4.153v2.796
		h-4.674V108.792z M95.873,107.292h19.097v-2.71h4.674v-2.796h4.153v-3.583h4.154v-4.458h4.068V89.2h4.067V69.724h-5.019v-4.108
		h-4.241v-4.895H98.7v-4.37h-4.24v-5.783h4.24v-4.632h12.664v4.982h4.154V55.2h20.568V43.241h-4.154v-4.982h-4.275v-4.58h-3.86
		v-3.548h-4.067v-2.797h-5.02v-2.273H95.441v2.273h-5.539v2.797h-3.721v3.548h-3.894v4.58h-4.5v4.72h-3.723v20.438h4.154v4.283
		h4.241v3.933h29.165v4.37h4.327v5.783h-4.501v4.457H98.787v-4.632h-3.981v-4.37H74.064v11.871h4.154v4.546h4.327v4.546h4.329v3.583
		h3.806v2.796h5.193V107.292z"/>
</g>
<g>
	<polygon fill="#F2B101" points="183.471,86.1 183.471,81.475 179.239,81.475 179.239,77.115 175.353,77.115 175.353,46.836 
		188.221,46.836 188.221,39.071 183.212,39.071 183.212,34.272 178.547,34.272 178.547,30.608 175.353,30.608 175.353,16.909 
		153.241,16.909 153.241,30.608 150.39,30.608 150.39,34.272 146.072,34.272 146.072,39.071 140.631,39.071 140.631,46.836 
		153.241,46.836 153.241,84.093 157.56,84.093 157.56,89.327 161.187,89.327 161.187,94.389 165.419,94.389 165.419,99.536 
		169.134,99.536 169.134,103.375 172.847,103.375 172.847,106.168 178.461,106.168 178.461,108 194.095,108 194.095,86.1 	"/>
	<path d="M194.845,108.75h-17.134v-1.832h-5.614v-2.793h-3.713v-3.839h-3.715v-5.147h-4.232v-5.062h-3.627v-5.234h-4.319V47.586
		h-12.61v-9.266h5.441v-4.799h4.318v-3.664h2.851V16.159h23.612v13.698h3.194v3.664h4.665v4.799h5.009v9.266h-12.868v28.779h3.886
		v4.359h4.232v4.625h10.624V108.75z M179.211,107.25h14.134v-20.4h-10.624v-4.625h-4.232v-4.359h-3.886V46.086h12.868v-6.266h-5.009
		v-4.799h-4.665v-3.664h-3.194V17.659h-20.612v13.698h-2.851v3.664h-4.318v4.799h-5.441v6.266h12.61v37.257h4.319v5.234h3.627v5.062
		h4.232v5.147h3.715v3.839h3.713v2.793h5.614V107.25z"/>
</g>
<g>
	<polygon fill="#F2B101" points="243.015,72.016 247.726,72.016 247.726,67.298 251.659,67.298 251.659,61.968 254.019,61.968 
		254.019,42.309 251.134,42.309 251.134,37.94 247.464,37.94 247.464,33.309 243.181,33.309 243.181,29.639 238.461,29.639 
		238.461,26.844 233.917,26.844 233.917,24.31 219.846,24.31 219.846,26.844 215.914,26.844 215.914,29.639 211.544,29.639 
		211.544,33.309 206.825,33.309 206.825,37.94 202.63,37.94 202.63,42.221 197.911,42.221 197.911,108.015 219.41,108.015 
		219.41,46.677 233.917,46.677 233.917,58.386 229.46,58.386 229.46,61.531 222.73,61.531 222.73,77.171 235.839,108.015 
		258.038,108.015 	"/>
	<path d="M259.164,108.765h-23.821L221.98,77.323V60.781h6.73v-3.146h4.457V47.427H220.16v61.338h-22.999V41.471h4.719V37.19h4.195
		v-4.631h4.719v-3.67h4.37v-2.795h3.932V23.56h15.571v2.534h4.544v2.795h4.72v3.67h4.283v4.631h3.67v4.369h2.885v21.159h-2.36v5.33
		h-3.933v4.718h-4.335L259.164,108.765z M236.335,107.265h20.578L241.89,71.266h5.086v-4.718h3.933v-5.33h2.36V43.059h-2.885V38.69
		h-3.67v-4.631h-4.283v-3.67h-4.72v-2.795h-4.544V25.06h-12.571v2.534h-3.932v2.795h-4.37v3.67h-4.719v4.631h-4.195v4.281h-4.719
		v64.294h19.999V45.927h16.007v13.209h-4.457v3.146h-6.73v14.737L236.335,107.265z"/>
</g>
<g>
	<path fill="#F2B101" d="M325.389,48.171v-5.594h-4.326v-4.724h-4.409v-4.719h-3.893V29.74h-3.977V26.93h-5.02v-2.62h-20.84v2.622
		H278v2.622h-4.324v3.583h-3.544v4.719h-4.584v4.724h-3.977v5.594h-4.238v0.088v35.83v0.091h4.238v5.592h3.977v4.726h4.584v4.719
		h3.544v3.583H278v2.623h4.929v2.621h0.086h20.406h0.348v-2.621h5.016v-2.623h3.977v-3.583h3.896v-4.719h4.409v-4.726h4.326v-5.658
		h3.89v-0.093V48.259v-0.088H325.389z M303.166,76.402v4.724h-4.324v4.37h-11.063v-4.37h-3.979v-4.724h-4.669V55.949h4.669v-4.726
		h3.979V46.86h11.063v4.369h4.324v4.726h4.324v20.447H303.166z"/>
	<path d="M304.519,108.795h-22.254l-0.086-0.75v-1.871h-4.929v-2.623h-4.324v-3.583h-3.544v-4.719h-4.584v-4.726h-3.977v-5.592
		h-4.238V47.511l0.75-0.088h3.488v-5.594h3.977v-4.724h4.584v-4.719h3.544v-3.583h4.324v-2.622h4.925V23.56h22.34v2.62h5.02v2.811
		h3.977v3.395h3.893v4.719h4.409v4.724h4.326v5.594h3.894v37.352l-0.75,0.093h-3.14v5.658h-4.326v4.726h-4.409v4.719h-3.896v3.583
		h-3.977v2.623h-5.016V108.795z M283.679,107.295h19.34v-2.621h5.016v-2.623h3.977v-3.583h3.896v-4.719h4.409v-4.726h4.326v-5.658
		h3.89V48.921h-3.894v-5.594h-4.326v-4.724h-4.409v-4.719h-3.893V30.49h-3.977V27.68h-5.02v-2.62h-19.34v2.622h-4.925v2.622h-4.324
		v3.583h-3.544v4.719h-4.584v4.724h-3.977v5.594h-4.238v34.509h4.238v5.592h3.977v4.726h4.584v4.719h3.544v3.583h4.324v2.623h4.929
		V107.295z M299.591,86.245h-12.563v-4.37h-3.979v-4.724h-4.669V55.199h4.669v-4.726h3.979V46.11h12.563v4.369h4.324v4.726h4.324
		v21.947h-4.324v4.724h-4.324V86.245z M288.528,84.745h9.563v-4.37h4.324v-4.724h4.324V56.704h-4.324v-4.726h-4.324V47.61h-9.563
		v4.364h-3.979v4.726h-4.669v18.952h4.669v4.724h3.979V84.745z"/>
</g>
</svg>
