<?xml version="1.0" encoding="UTF-8" standalone="no"?>
<!-- Created with Inkscape (http://www.inkscape.org/) -->

<svg
   xmlns:dc="http://purl.org/dc/elements/1.1/"
   xmlns:cc="http://creativecommons.org/ns#"
   xmlns:rdf="http://www.w3.org/1999/02/22-rdf-syntax-ns#"
   xmlns:svg="http://www.w3.org/2000/svg"
   xmlns="http://www.w3.org/2000/svg"
   xmlns:sodipodi="http://sodipodi.sourceforge.net/DTD/sodipodi-0.dtd"
   xmlns:inkscape="http://www.inkscape.org/namespaces/inkscape"
   width="946.612"
   height="342.85715"
   id="svg14588"
   sodipodi:version="0.32"
   inkscape:version="0.91 r13725"
   version="1.0"
   sodipodi:docname="Atari_Logo1.svg">
  <defs
     id="defs14590" />
  <sodipodi:namedview
     id="base"
     pagecolor="#ffffff"
     bordercolor="#666666"
     borderopacity="1.0"
     inkscape:pageopacity="0.0"
     inkscape:pageshadow="2"
     inkscape:zoom="0.25"
     inkscape:cx="695.68928"
     inkscape:cy="-13.766182"
     inkscape:document-units="px"
     inkscape:current-layer="layer1"
     inkscape:window-width="1366"
     inkscape:window-height="705"
     inkscape:window-x="-8"
     inkscape:window-y="-8"
     width="240.43mm"
     height="40.61mm"
     units="mm"
     showgrid="false"
     inkscape:window-maximized="1" />
  <metadata
     id="metadata14593">
    <rdf:RDF>
      <cc:Work
         rdf:about="">
        <dc:format>image/svg+xml</dc:format>
        <dc:type
           rdf:resource="http://purl.org/dc/dcmitype/StillImage" />
        <dc:title></dc:title>
      </cc:Work>
    </rdf:RDF>
  </metadata>
  <g
     inkscape:label="Ebene 1"
     inkscape:groupmode="layer"
     id="layer1"
     transform="translate(1117.859,502.5878)">
    <g
       id="g2786"
       transform="translate(-18.122794,0)">
      <rect
         y="-502.58783"
         x="-1099.7362"
         height="342.85715"
         width="946.61066"
         id="rect1887"
         style="opacity:1;fill:#ca0d07;fill-opacity:1;stroke:none;stroke-width:3.56102371;stroke-miterlimit:4;stroke-dasharray:none" />
      <g
         transform="translate(-28.18922,4.961884)"
         id="g2776">
        <path
           style="fill:#ffffff;fill-opacity:1;fill-rule:nonzero;stroke:none;stroke-width:0.78369999;stroke-linecap:butt;stroke-linejoin:miter;stroke-miterlimit:4;stroke-dasharray:none"
           d="m -913.61214,-401.09392 c 0,0 8.9404,-18.72996 24.88398,-18.72996 15.94358,0 24.43693,18.72996 24.43693,18.72996 l 61.39026,155.60658 -35.61232,0 -16.83767,-41.24478 -67.49954,0 -16.53958,41.24478 -35.61232,0 61.39026,-155.60658 z m 2.38413,86.24446 43.65861,0 -17.43361,-50.61718 c 0,0 -0.596,-4.45531 -4.47017,-4.45531 -3.87416,0 -4.32121,4.45531 -4.32121,4.45531 l -17.43362,50.61718"
           class="ps02 ps10"
           id="path7031"
           inkscape:connector-curvature="0" />
        <path
           style="fill:#ffffff;fill-opacity:1;fill-rule:nonzero;stroke:none"
           d="m -771.46073,-245.48734 0,-146.26395 -54.53609,0 0,-18.67042 c 0,0 1.04305,-3.17377 4.17213,-6.30291 3.12915,-3.11424 9.08941,-3.09926 9.08941,-3.09926 l 116.9694,0 c 0,0 5.96026,0.20855 9.2383,2.53302 3.27823,2.33945 4.7682,6.86915 4.7682,6.86915 l 0,18.67042 -55.57914,0 0,146.26395 -34.12221,0"
           class="ps02"
           id="path7049"
           inkscape:connector-curvature="0" />
        <path
           style="fill:#ffffff;fill-opacity:1;fill-rule:nonzero;stroke:none"
           d="m -714.83867,-245.48734 0,-26.79117 c 0,0 36.65542,-7.42047 54.9832,-34.24159 6.40718,-9.20854 13.70846,-19.26636 16.53958,-29.93517 10.57938,-40.05271 6.70522,-83.36861 6.70522,-83.36861 l 14.00656,0 0,61.18165 c 0,0 -1.93708,52.18185 -26.07598,79.13688 -32.78126,36.67034 -66.15858,34.01801 -66.15858,34.01801"
           class="ps02"
           id="path7060"
           inkscape:connector-curvature="0" />
        <path
           style="fill:#ffffff;fill-opacity:1;fill-rule:nonzero;stroke:none"
           d="m -492.82028,-245.48734 0,-26.79117 c 0,0 -36.65529,-7.42047 -54.98307,-34.24159 -6.25817,-9.20854 -13.55939,-19.26636 -16.3905,-29.93517 -10.57945,-40.05271 -6.70528,-83.36861 -6.70528,-83.36861 l -14.00657,0 0,61.18165 c 0,0 1.93708,52.18185 26.07598,79.13688 32.78126,36.67034 66.00944,34.01801 66.00944,34.01801"
           class="ps02"
           id="path7078"
           inkscape:connector-curvature="0" />
        <path
           style="fill:#ffffff;fill-opacity:1;fill-rule:nonzero;stroke:none;stroke-width:0.50709999;stroke-linecap:butt;stroke-linejoin:miter;stroke-miterlimit:4;stroke-dasharray:none"
           d="m -616.34594,-245.48734 25.03305,0 0,-174.35152 -25.03305,0 0,174.35152 z"
           class="ps02 ps11"
           id="path7089"
           inkscape:connector-curvature="0" />
        <path
           style="fill:#ffffff;fill-opacity:1;fill-rule:nonzero;stroke:none;stroke-width:0.50709999;stroke-linecap:butt;stroke-linejoin:miter;stroke-miterlimit:4;stroke-dasharray:none"
           d="m -469.27738,-245.48734 0,-152.70096 c 0,0 2.23512,-7.49498 7.74833,-13.03796 5.51322,-5.55796 19.3707,-8.59762 19.3707,-8.59762 l 46.78776,0 c 0,0 55.87717,6.67545 55.87717,51.06423 0,39.06919 -43.36064,49.20159 -43.36064,49.20159 0,0 -3.72515,2.13084 -3.72515,6.24338 0,4.11248 3.72515,6.58603 3.72515,6.58603 l 49.17189,61.24131 -38.89054,0 -49.17177,-61.24131 c 0,0 -3.72515,-5.9602 -3.72515,-11.11579 0,-16.30133 29.50304,-24.43693 29.50304,-24.43693 0,0 23.39388,-7.16718 23.39388,-23.90045 0,-20.32446 -26.07598,-26.32934 -26.07598,-26.32934 l -29.80107,0 c 0,0 -4.02318,0.40225 -6.25836,2.71187 -2.384,2.30956 -2.384,8.68698 -2.384,8.68698 l 0,135.62497 -32.18526,0"
           class="ps02 ps11"
           id="path7093"
           inkscape:connector-curvature="0" />
        <path
           style="fill:#ffffff;fill-opacity:1;fill-rule:nonzero;stroke:none;stroke-width:0.50709999;stroke-linecap:butt;stroke-linejoin:miter;stroke-miterlimit:4;stroke-dasharray:none"
           d="m -307.75528,-245.48734 35.01638,0 0,-174.35152 -35.01638,0 0,174.35152 z"
           class="ps02 ps11"
           id="path7097"
           inkscape:connector-curvature="0" />
        <path
           style="fill:#ffffff;fill-rule:nonzero;stroke:none;stroke-width:0.50709999;stroke-linecap:butt;stroke-linejoin:miter;stroke-miterlimit:4;stroke-dasharray:none"
           d="m -238.61669,-426.7973 c 2.83112,0 5.66223,0.73004 8.34433,2.22014 2.83112,1.47505 4.91722,3.59098 6.40719,6.3625 1.49016,2.74163 2.38419,5.61749 2.38419,8.6126 0,2.96515 -0.74502,5.81112 -2.38419,8.5379 -1.48997,2.74176 -3.57607,4.85768 -6.25817,6.36263 -2.6821,1.5198 -5.66223,2.26488 -8.49335,2.26488 -2.98013,0 -5.96014,-0.74508 -8.64236,-2.26488 -2.68204,-1.50495 -4.76814,-3.62087 -6.25817,-6.36263 -1.63905,-2.72678 -2.38401,-5.57275 -2.38401,-8.5379 0,-2.99511 0.74496,-5.87097 2.38401,-8.6126 1.49003,-2.77152 3.57613,-4.88745 6.40725,-6.3625 2.68203,-1.4901 5.51315,-2.22014 8.49328,-2.22014 z m 0,2.86088 c -2.53302,0 -4.7682,0.62577 -7.1522,1.86258 -2.23512,1.22183 -4.02318,3.00989 -5.3642,5.28962 -1.19207,2.29471 -1.78813,4.69369 -1.78813,7.18216 0,2.47349 0.59606,4.84258 1.78813,7.10746 1.34102,2.26494 3.12908,4.03816 5.3642,5.28982 2.23499,1.28136 4.61918,1.90713 7.1522,1.90713 2.38419,0 4.7682,-0.62577 7.00331,-1.90713 2.23505,-1.25166 4.02312,-3.02488 5.3642,-5.28982 1.19207,-2.26488 1.78807,-4.63397 1.78807,-7.10746 0,-2.48847 -0.596,-4.88745 -1.78807,-7.18216 -1.34108,-2.27973 -3.12915,-4.06779 -5.3642,-5.28962 -2.38413,-1.23681 -4.61912,-1.86258 -7.00331,-1.86258 z m -7.59925,23.8408 0,-18.55117 6.40718,0 c 2.0861,0 3.72515,0.17884 4.61919,0.52162 1.04305,0.34265 1.78819,0.93865 2.38413,1.78806 0.596,0.84929 0.89403,1.74333 0.89403,2.71187 0,1.34095 -0.44705,2.50325 -1.48997,3.51654 -0.89403,0.9983 -2.23518,1.56448 -3.87417,1.68373 0.74496,0.28312 1.19194,0.61091 1.63899,0.98339 0.74502,0.73017 1.63905,1.952 2.6821,3.68053 l 2.23512,3.66543 -3.57607,0 -1.63918,-2.95024 c -1.34096,-2.29464 -2.384,-3.74006 -3.12902,-4.32121 -0.59613,-0.43214 -1.34115,-0.64068 -2.3842,-0.62577 l -1.788,0 0,7.89722 -2.98013,0 z m 2.98013,-10.44522 3.72509,0 c 1.63905,0 2.98013,-0.25335 3.57613,-0.7749 0.59613,-0.5215 0.89403,-1.20692 0.89403,-2.07119 0,-0.55119 -0.14901,-1.04305 -0.44692,-1.4602 -0.29809,-0.44705 -0.74502,-0.77479 -1.19213,-0.98346 -0.59594,-0.22346 -1.63898,-0.32773 -3.12915,-0.32773 l -3.42705,0 0,5.61748"
           class="ps02 ps11"
           id="path7101"
           inkscape:connector-curvature="0" />
      </g>
    </g>
  </g>
</svg>
