<?xml version="1.0" encoding="UTF-8" standalone="no"?>
<svg
   xmlns:dc="http://purl.org/dc/elements/1.1/"
   xmlns:cc="http://creativecommons.org/ns#"
   xmlns:rdf="http://www.w3.org/1999/02/22-rdf-syntax-ns#"
   xmlns:svg="http://www.w3.org/2000/svg"
   xmlns="http://www.w3.org/2000/svg"
   xmlns:sodipodi="http://sodipodi.sourceforge.net/DTD/sodipodi-0.dtd"
   xmlns:inkscape="http://www.inkscape.org/namespaces/inkscape"
   viewBox="0 0 1919.575 306.48"
   version="1.1"
   id="svg45"
   sodipodi:docname="atomiswave2.svg"
   inkscape:version="0.92.4 (5da689c313, 2019-01-14)">
  <metadata
     id="metadata51">
    <rdf:RDF>
      <cc:Work
         rdf:about="">
        <dc:format>image/svg+xml</dc:format>
        <dc:type
           rdf:resource="http://purl.org/dc/dcmitype/StillImage" />
      </cc:Work>
    </rdf:RDF>
  </metadata>
  <defs
     id="defs49" />
  <sodipodi:namedview
     pagecolor="#ffffff"
     bordercolor="#666666"
     borderopacity="1"
     objecttolerance="10"
     gridtolerance="10"
     guidetolerance="10"
     inkscape:pageopacity="0"
     inkscape:pageshadow="2"
     inkscape:window-width="640"
     inkscape:window-height="480"
     id="namedview47"
     showgrid="false"
     inkscape:zoom="0.52602712"
     inkscape:cx="1281.8724"
     inkscape:cy="-9.1878514"
     inkscape:current-layer="svg45" />
  <linearGradient
     id="a"
     gradientUnits="userSpaceOnUse"
     x1="317.84"
     y1="224.944"
     x2="317.84"
     y2="60.902">
    <stop
       offset="0"
       stop-color="#eb6101"
       id="stop2" />
    <stop
       offset="1"
       stop-color="#9a4400"
       id="stop4" />
  </linearGradient>
  <path
     fill="url(#a)"
     d="M336.482 224.944h-80.224l42.94-164.042h80.225z"
     id="path7" />
  <linearGradient
     id="b"
     gradientUnits="userSpaceOnUse"
     x1="216.145"
     y1="254.308"
     x2="216.145"
     y2="30.393">
    <stop
       offset="0"
       stop-color="#eb6101"
       id="stop9" />
    <stop
       offset="1"
       stop-color="#9a4400"
       id="stop11" />
  </linearGradient>
  <path
     fill="url(#b)"
     d="M226.951 254.307h-80.224l58.612-223.914h80.225z"
     id="path14" />
  <linearGradient
     id="c"
     gradientUnits="userSpaceOnUse"
     x1="80.225"
     y1="306.48"
     x2="80.225">
    <stop
       offset="0"
       stop-color="#eb6101"
       id="stop16" />
    <stop
       offset="1"
       stop-color="#9a4400"
       id="stop18" />
  </linearGradient>
  <path
     fill="url(#c)"
     d="M80.225 306.48H0L80.225 0h80.225z"
     id="path21" />
  <linearGradient
     id="d"
     gradientUnits="userSpaceOnUse"
     x1="270.914"
     y1="224.944"
     x2="270.914"
     y2="30.393">
    <stop
       offset="0"
       stop-color="#029205"
       id="stop23" />
    <stop
       offset="1"
       stop-color="#d6edd9"
       id="stop25" />
  </linearGradient>
  <path
     fill="url(#d)"
     d="M285.564 30.393h-80.225l50.926 194.551h80.225z"
     id="path28" />
  <linearGradient
     id="e"
     gradientUnits="userSpaceOnUse"
     x1="153.621"
     y1="254.308"
     x2="153.621">
    <stop
       offset="0"
       stop-color="#029205"
       id="stop30" />
    <stop
       offset="1"
       stop-color="#d6edd9"
       id="stop32" />
  </linearGradient>
  <path
     fill="url(#e)"
     d="M227.018 254.307L160.45 0H80.225l66.568 254.307z"
     id="path35" />
  <g
     id="g43"
     style="fill:#ffffff">
    <path
       d="m 956.903,109.502 c -11.134,-5.284 -13.855,0.505 -15.822,8.03 -7.866,30.099 -16.257,60.075 -23.576,90.298 -2.473,10.212 -7.424,13.78 -17.895,13.128 -12.012,-0.748 -24.11,-0.173 -39.508,-0.173 l 32.056,-111.079 c -11.87,-6.394 -15.269,-0.281 -17.428,8.516 -7.296,29.73 -15.071,59.355 -21.865,89.192 -2.287,10.044 -6.887,14.345 -17.551,13.517 -9.069,-0.704 -18.246,-0.375 -27.364,-0.12 -10.075,0.283 -12.138,-4.061 -9.561,-12.941 10.878,-37.478 21.088,-75.146 32.517,-112.461 1.35,-4.407 8.655,-10.013 13.29,-10.093 49.163,-0.845 98.345,-0.908 147.519,-0.665 15.301,0.076 21.683,7.502 18.181,22.011 -8.57,35.509 -17.906,70.854 -27.802,106.034 -0.99,3.518 -7.71,7.244 -12.151,7.758 -9.998,1.156 -20.244,0.085 -30.372,0.427 -10.66,0.36 -13.311,-3.918 -10.385,-13.619 8.275,-27.435 16.12,-54.994 24.043,-82.529 1.457,-5.057 2.48,-10.23 3.674,-15.231 z m 328.606,-24.442 -31.317,109.289 c 12.23,6.203 15.54,-0.285 17.822,-8.891 7.721,-29.114 15.893,-58.12 23.128,-87.346 2.451,-9.902 7.044,-14.096 17.712,-13.366 11.486,0.786 23.073,0.178 38.017,0.178 l -30.492,109.551 c 11.338,5.395 14.779,0.643 17.001,-8.167 7.483,-29.674 15.792,-59.153 23.063,-88.874 2.288,-9.352 6.631,-13.22 16.6,-12.665 12.013,0.668 24.095,0.158 38.02,0.158 -1.171,6.208 -1.652,10.377 -2.761,14.381 -10.023,36.172 -20.449,72.242 -30.054,108.517 -2.44,9.215 -6.553,12.828 -16.549,12.742 -47.641,-0.412 -95.289,-0.019 -142.933,-0.259 -18.008,-0.091 -24.31,-7.175 -20.015,-24.439 8.462,-34.004 17.963,-67.771 27.668,-101.463 1.064,-3.694 6.084,-8.666 9.589,-8.923 13.998,-1.026 28.123,-0.423 45.501,-0.423 z M 727.901,220.689 c -15.714,0 -31.439,0.379 -47.137,-0.105 -16.055,-0.495 -23.246,-9.305 -19.12,-24.549 A 3227.636,3227.636 0 0 1 691.216,93.551 c 1.155,-3.769 7.384,-8.562 11.337,-8.631 32.426,-0.563 64.871,-0.213 97.309,0.067 13.168,0.114 18.938,7.691 16.082,19.421 a 3235.773,3235.773 0 0 1 -28.519,108.864 c -0.946,3.37 -7.996,6.986 -12.404,7.232 -15.662,0.876 -31.407,0.342 -47.121,0.342 z M 716.355,195.24 c -0.877,3.411 7.367,1.967 11.327,1.818 14.433,-0.544 13.499,-0.647 16.077,-14.143 2.754,-14.417 16.835,-65.069 18.977,-73.812 -1.215,-1.453 -22.572,-2.635 -24.156,2.086 -8.051,24.001 -15.825,59.164 -22.225,84.051 z M 1697.727,84.93 c -6.92,25.782 -12.983,48.537 -19.143,71.266 -4.645,17.138 -9.967,34.124 -13.913,51.41 -2.666,11.68 -9.13,11.837 -23.695,11.837 -21.41,0 -36.148,0.252 -59.069,0.252 -15.879,0 -24.123,-4.426 -25.395,-17.535 -3.424,-35.295 -5.094,-71.054 -8.102,-106.387 -0.166,-1.946 1.312,-8.725 5.357,-8.818 15.975,-0.37 26.698,-0.059 40.032,-0.432 3.477,-0.097 3.312,5.445 3.819,9.459 3.646,28.826 6.166,68.832 9.366,97.717 0.761,7.708 10.854,5.785 11.791,2.405 7.906,-28.52 17.061,-70.237 24.001,-98.993 2.091,-8.665 5.791,-12.74 15.266,-12.312 12.024,0.542 24.097,0.131 39.685,0.131 z m -564.68,48.852 c 16.574,0 32.179,-0.054 47.784,0.014 19.301,0.084 25.266,6.77 21.094,24.531 -4.06,17.287 -8.334,34.561 -13.587,51.526 -1.277,4.122 -6.711,9.948 -10.329,10.014 -39.396,0.721 -78.811,0.451 -118.046,0.451 -1.917,-21.906 1.411,-25.767 20.615,-25.741 15.207,0.02 30.458,-0.597 45.607,0.329 11.904,0.728 17.802,-3.471 19.602,-14.894 1.13,-7.171 3.861,-14.103 6.904,-24.745 -17.583,0 -32.95,0.052 -48.316,-0.012 -22.949,-0.096 -28.018,-6.457 -22.515,-28.087 10.744,-42.231 10.744,-42.267 56.027,-42.232 24.328,0.019 48.656,0.162 72.983,0.358 1.383,0.011 2.758,1.008 4.062,1.517 -0.498,20.929 -1.615,22.053 -21.952,22.093 -11.659,0.023 -23.318,-0.004 -34.977,0.005 -21.727,0.016 -21.727,0.02 -24.956,24.873 z M 585.232,111.989 c -15.43,-9.917 -46.001,11.499 -45.907,-25.526 h 147.568 c -0.835,20.072 -3.219,22.375 -22.154,22.558 -32.283,0.311 -25.191,-3.233 -32.705,24.116 -6.788,24.705 -12.908,49.582 -19.513,74.335 -3.566,13.362 -16.304,17.563 -37.035,12.548 -11.775,-2.848 -17.075,-12.442 -13.393,-25.394 7.142,-25.126 14.628,-50.159 21.899,-75.251 0.663,-2.288 0.806,-4.72 1.24,-7.386 z m 493.987,-27.011 c -1.578,7.416 -2.374,12.188 -3.619,16.845 -9.308,34.793 -19.016,69.489 -27.88,104.388 -2.58,10.16 -6.715,15.946 -18.37,14.284 -4.464,-0.637 -9.109,0.03 -13.661,-0.145 -16.641,-0.639 -22.52,-8.406 -18.095,-24.31 9.26,-33.288 18.964,-66.461 27.882,-99.835 2.164,-8.1 5.82,-11.666 14.518,-11.344 12.46,0.46 24.952,0.117 39.225,0.117 z m -593.248,21.953 h -11.649 l -14.849,56.977 h 30.524 z m 57.712,93.323 2.255,20.632 c -4.555,-0.145 -47.357,-0.001 -51.918,0 l -2.428,-34.367 -38.004,-0.038 -8.95,34.341 c -20.032,0 -36.576,0.064 -53.292,0.064 3.288,-10.644 6.02,-20.336 8.394,-28.701 8.899,-31.352 18.058,-62.642 26.269,-94.165 2.363,-9.071 5.87,-13.509 16.057,-13.346 24.311,0.389 48.638,0.041 72.956,-0.198 10.987,-0.108 17.438,5.091 18.689,15.403 4.453,36.698 5.629,63.666 9.972,100.375 z m 942.829,-93.387 h -11.649 l -14.849,56.977 h 30.524 z m 57.713,93.323 2.255,20.632 c -4.555,-0.145 -47.357,-0.001 -51.918,0 l -2.428,-34.367 -38.004,-0.038 -8.95,34.341 c -20.032,0 -36.576,0.064 -53.292,0.064 3.288,-10.644 6.02,-20.336 8.394,-28.701 8.899,-31.352 18.058,-62.642 26.269,-94.165 2.363,-9.071 5.87,-13.509 16.057,-13.346 24.311,0.389 48.638,0.041 72.956,-0.198 10.987,-0.108 17.438,5.091 18.689,15.403 4.453,36.698 5.629,63.666 9.972,100.375 z m 257.518,16.678 2.808,-15.46 c 0.758,-2.216 -0.937,-4.503 -3.337,-4.503 l -67.243,0.025 c 2.356,-9.389 4.638,-15.889 5.514,-22.563 1.454,-11.076 7.346,-13.954 18.547,-14.064 10.018,-0.099 33.903,0.13 46.499,0.167 2.319,0.007 4.267,-1.66 4.576,-3.896 l 2.774,-20.032 c 0.235,-1.695 -1.12,-3.202 -2.878,-3.202 h -56.348 c 1.105,-21.713 1.866,-22.515 20.333,-22.583 11.74,-0.043 37.404,0.015 51.184,-0.01 1.813,-0.003 3.382,-1.166 3.894,-2.858 l 4.391,-19.2 c 0.538,-1.779 -0.811,-3.56 -2.717,-3.561 -36.596,-0.014 -74.815,-0.173 -111.375,0.476 -3.115,0.055 -7.769,5.821 -8.907,9.71 a 4233.756,4233.756 0 0 0 -27.925,99.839 c -4.43,16.63 2.003,24.466 19.556,24.621 27.308,0.241 68.037,0.172 96.357,0.128 1.959,-0.003 3.678,-1.225 4.297,-3.034 z"
       id="path37"
       inkscape:connector-curvature="0"
       style="fill:#ffffff" />
    <g
       id="g41"
       style="fill:#ffffff">
      <path
         d="m 1855.278,222.069 h -5.474 v -42.128 h -13.916 v -5.255 h 33.371 v 5.255 h -13.981 z m 64.297,0 h -5.474 v -39.853 l -14.904,39.853 h -2.243 l -14.968,-39.853 v 39.853 h -5.474 v -47.383 h 7.846 l 13.718,36.514 13.653,-36.514 h 7.846 z"
         id="path39"
         inkscape:connector-curvature="0"
         style="fill:#ffffff" />
    </g>
  </g>
</svg>
