<?xml version="1.0" encoding="UTF-8" standalone="no"?>
<!-- Created with Inkscape (http://www.inkscape.org/) -->

<svg
   xmlns:dc="http://purl.org/dc/elements/1.1/"
   xmlns:cc="http://creativecommons.org/ns#"
   xmlns:rdf="http://www.w3.org/1999/02/22-rdf-syntax-ns#"
   xmlns:svg="http://www.w3.org/2000/svg"
   xmlns="http://www.w3.org/2000/svg"
   xmlns:xlink="http://www.w3.org/1999/xlink"
   xmlns:sodipodi="http://sodipodi.sourceforge.net/DTD/sodipodi-0.dtd"
   xmlns:inkscape="http://www.inkscape.org/namespaces/inkscape"
   width="397.32849"
   height="103.70829"
   viewBox="0 0 105.12649 27.439486"
   version="1.1"
   id="svg9136"
   inkscape:version="0.92.4 (5da689c313, 2019-01-14)"
   sodipodi:docname="system-fr.svg">
  <defs
     id="defs9130">
    <linearGradient
       inkscape:collect="always"
       id="linearGradient853">
      <stop
         style="stop-color:#000000;stop-opacity:1;"
         offset="0"
         id="stop849" />
      <stop
         style="stop-color:#000000;stop-opacity:0;"
         offset="1"
         id="stop851" />
    </linearGradient>
    <radialGradient
       inkscape:collect="always"
       xlink:href="#linearGradient853"
       id="radialGradient857"
       cx="60.35236"
       cy="253.12825"
       fx="60.35236"
       fy="253.12825"
       r="52.697178"
       gradientTransform="matrix(1,0,0,0.19039974,0,204.9327)"
       gradientUnits="userSpaceOnUse" />
  </defs>
  <sodipodi:namedview
     id="base"
     pagecolor="#ffffff"
     bordercolor="#666666"
     borderopacity="1.0"
     inkscape:pageopacity="0.0"
     inkscape:pageshadow="2"
     inkscape:zoom="1.979899"
     inkscape:cx="250.25769"
     inkscape:cy="98.781551"
     inkscape:document-units="px"
     inkscape:current-layer="layer1"
     showgrid="false"
     units="px"
     inkscape:window-width="1920"
     inkscape:window-height="1017"
     inkscape:window-x="1912"
     inkscape:window-y="-8"
     inkscape:window-maximized="1"
     fit-margin-top="0"
     fit-margin-left="0"
     fit-margin-right="0"
     fit-margin-bottom="0"
     inkscape:snap-global="false" />
  <metadata
     id="metadata9133">
    <rdf:RDF>
      <cc:Work
         rdf:about="">
        <dc:format>image/svg+xml</dc:format>
        <dc:type
           rdf:resource="http://purl.org/dc/dcmitype/StillImage" />
        <dc:title />
      </cc:Work>
    </rdf:RDF>
  </metadata>
  <g
     inkscape:label="Layer 1"
     inkscape:groupmode="layer"
     id="layer1"
     transform="translate(-10.547501,-271.9401)">
    <g
       aria-label="Jamais joués"
       style="font-style:normal;font-variant:normal;font-weight:bold;font-stretch:normal;font-size:25.39999962px;line-height:1.25;font-family:'Caflisch Script Pro';-inkscape-font-specification:'Caflisch Script Pro Bold';letter-spacing:0px;word-spacing:0px;fill:#333333;fill-opacity:1;stroke:none;stroke-width:0.26458332"
       id="text4551"
       transform="translate(-2.1381562,42.09495)">
      <path
         style="font-size:24.34166718px;fill:#333333;fill-opacity:1;stroke-width:0.26458332"
         d="m 24.117188,235.23633 c -1.856067,0.43908 -5.720503,2.09704 -2.81836,4.15625 -1.322956,3.1362 -1.346285,7.85841 -3.888672,10.03711 -2.350258,-1.9825 -5.289241,1.80744 -2.457031,3.2207 5.064998,2.30903 8.802573,-3.96918 9.267578,-8.24805 -0.533666,-2.96921 3.340072,-5.75764 1.814453,-8.41211 -0.512558,-0.47704 -1.212449,-0.77654 -1.917968,-0.7539 z"
         id="path4563"
         inkscape:connector-curvature="0" />
      <path
         style="font-size:24.34166718px;fill:#333333;fill-opacity:1;stroke-width:0.26458332"
         d="m 30.541016,238.16602 c -3.911845,0.86333 -7.755661,5.56697 -6.791016,9.5957 1.269315,2.57058 4.263861,0.36838 5.392578,-0.38477 2.559011,4.20378 7.573292,-1.06067 8.542969,-4.08203 0.805601,-3.59381 -3.475786,-1.65546 -3.921875,0.65039 -2.974684,2.15318 2.626,-5.65453 -1.839844,-5.39648 -0.405317,-0.0171 -0.854749,-0.54214 -1.382812,-0.38281 z"
         id="path4565"
         inkscape:connector-curvature="0" />
      <path
         style="font-size:24.34166718px;fill:#333333;fill-opacity:1;stroke-width:0.26458332"
         d="m 36.833984,238.08594 c -2.833406,1.09336 -1.992618,5.45582 -3.085937,7.8457 -0.65848,2.8646 3.227554,4.10526 4.263672,1.22852 0.68036,-1.81139 1.04398,3.39057 3.322265,1.41992 1.798125,-1.46333 2.311646,-3.12871 3.191407,-0.39063 3.522794,2.75872 7.937839,-2.48996 8.339843,-5.80273 -1.615996,-3.60437 -4.796202,4.0005 -5.09375,1.97656 0.611657,-1.9707 3.357923,-5.23546 -0.28125,-5.98242 -2.220405,0.1332 -2.861203,3.44018 -3.675781,0.29297 -1.673877,-2.00768 -3.957587,1.98204 -4.548828,1.29492 -0.363625,-0.97496 -1.329498,-1.92848 -2.431641,-1.88281 z"
         id="path4567"
         inkscape:connector-curvature="0" />
      <path
         style="font-size:24.34166718px;fill:#333333;fill-opacity:1;stroke-width:0.26458332"
         d="m 55.859375,238.16602 c -3.910801,0.86493 -7.754187,5.56592 -6.791016,9.5957 1.268459,2.56828 4.262291,0.37395 5.392579,-0.38477 2.560172,4.20291 7.569575,-1.05885 8.542968,-4.07812 0.809723,-3.59659 -3.47502,-1.66327 -3.921875,0.64648 -2.726921,2.13252 1.093055,-3.33715 -0.257812,-4.64258 -0.792059,-0.81371 -1.946611,-0.87327 -2.964844,-1.13671 z"
         id="path4569"
         inkscape:connector-curvature="0" />
      <path
         style="font-size:24.34166718px;fill:#333333;fill-opacity:1;stroke-width:0.26458332"
         d="m 64.271484,233.72852 c -3.133396,0.0666 -0.753349,4.09971 -1.765625,4.76171 -2.294211,2.19185 -3.715832,5.97011 -3.199218,9.09375 2.994009,4.07526 8.674492,-1.81517 9.570312,-5.02343 -0.718168,-4.05356 -4.781211,2.16056 -5.181641,1.53711 0.977784,-1.4549 1.630165,-4.00477 1.763672,-5.01172 1.825024,-0.90426 1.804546,-5.83894 -1.1875,-5.35742 z"
         id="path4571"
         inkscape:connector-curvature="0" />
      <path
         style="font-size:24.34166718px;fill:#333333;fill-opacity:1;stroke-width:0.26458332"
         d="m 70.951172,238.13281 c -3.618284,-0.15314 -6.691225,4.31453 -4.404297,7.07422 -3.141388,0.44442 -2.287802,4.78704 0.804687,4.13477 3.847131,-0.19177 5.182138,-4.58979 2.486329,-6.9668 2.052145,0.1792 5.523913,-1.73155 2.955078,-3.76953 -0.53898,-0.35535 -1.204073,-0.48561 -1.841797,-0.47266 z"
         id="path4573"
         inkscape:connector-curvature="0" />
      <path
         style="font-size:24.34166718px;fill:#333333;fill-opacity:1;stroke-width:0.26458332"
         d="m 80.853516,232.85352 c -3.278603,0.15356 -2.271912,4.16977 -1.853516,5.57226 -3.695312,2.66523 -2.483589,8.60182 -4.736328,12.26367 -0.0061,2.81952 -3.65177,-1.16118 -4.144531,2.03125 -0.09511,4.11633 5.894381,4.1181 7.138671,0.63282 2.017298,-4.45826 3.244281,-9.52862 4.863282,-13.99414 -1.222752,-1.50652 2.483249,-5.68291 -1.267578,-6.50586 z"
         id="path4575"
         inkscape:connector-curvature="0" />
      <path
         style="font-size:24.34166718px;fill:#333333;fill-opacity:1;stroke-width:0.26458332"
         d="m 86.09375,237.74414 c -3.850423,0.71634 -5.791457,5.1601 -6,8.81055 0.97653,4.67227 7.246025,1.80278 8.585938,-1.21094 1.895628,-2.53278 0.303721,-7.01373 -2.585938,-7.59961 z m -0.947266,5.85156 c -1.369041,2.80991 0.462736,-1.34225 0,0 z"
         id="path4577"
         inkscape:connector-curvature="0" />
      <path
         style="font-size:24.34166718px;fill:#333333;fill-opacity:1;stroke-width:0.26458332"
         d="m 97.613281,238.0625 c -2.062041,-0.11328 -3.459769,5.64599 -2.853515,1.89453 -0.956364,-3.1091 -4.946121,-1.38008 -4.890625,1.47266 -1.284201,2.11323 -2.973778,7.91627 1.310547,7.38476 1.786841,-0.51303 2.867304,-2.94879 3.564453,-0.29297 3.551233,1.5351 7.379729,-2.61286 8.615239,-5.67968 0.19788,-3.02274 -3.387308,-1.12043 -3.98438,0.65039 -3.251695,2.16554 2.15446,-3.40232 -0.375,-4.90821 -0.396697,-0.30749 -0.867689,-0.56887 -1.386719,-0.52148 z"
         id="path4579"
         inkscape:connector-curvature="0" />
      <path
         style="font-size:24.34166718px;fill:#333333;fill-opacity:1;stroke-width:0.26458332"
         d="m 107.39453,233.48438 c -3.4046,0.93237 -3.61671,5.31853 -6.2168,7.15039 -2.521495,2.43538 -2.769042,8.82494 1.95118,8.35937 3.28271,-0.53476 8.20544,-2.82886 8.21484,-6.60352 -1.11813,-2.78684 -4.62862,2.97938 -3.01172,-0.33984 0.97826,-1.64323 -1.51948,-3.14638 -1.61133,-3.45898 2.56384,-1.14808 4.88781,-4.54531 0.67383,-5.10742 z"
         id="path4581"
         inkscape:connector-curvature="0" />
      <path
         style="font-size:24.34166718px;fill:#333333;fill-opacity:1;stroke-width:0.26458332"
         d="m 113.78711,238.13281 c -3.61608,-0.15247 -6.69342,4.30956 -4.4043,7.07422 -3.14247,0.4436 -2.28664,4.78731 0.80469,4.13477 3.33263,-0.14985 5.4798,-4.10481 2.66992,-6.46094 -0.041,-1.31727 5.34336,-0.68308 3.3457,-3.73828 -0.53787,-0.74954 -1.5309,-1.03186 -2.41601,-1.00977 z"
         id="path4583"
         inkscape:connector-curvature="0" />
    </g>
    <g
       aria-label="Jamais joués"
       style="font-style:normal;font-variant:normal;font-weight:bold;font-stretch:normal;font-size:25.39999962px;line-height:1.25;font-family:'Caflisch Script Pro';-inkscape-font-specification:'Caflisch Script Pro Bold';letter-spacing:0px;word-spacing:0px;fill:#f4c401;fill-opacity:1;stroke:none;stroke-width:0.26458332"
       id="text4551-3"
       transform="translate(-1.9399799,42.113248)">
      <path
         d="m 24.178051,236.23428 q 0.413808,0 0.803275,0.21907 0.413808,0.21908 0.535516,0.53552 0.121709,0.2921 0,0.51117 -0.09737,0.21908 -0.219075,0.34079 -0.121708,0.12171 -0.267758,0.36512 -0.121708,0.24342 -0.219075,0.51118 -0.09737,0.26776 -0.194733,0.55986 -0.09737,0.26775 -0.267759,0.82761 -0.14605,0.53552 -0.413808,1.48484 -0.243417,0.94933 -0.681567,2.55588 -0.608541,2.21509 -1.241425,3.7973 -0.608541,1.58221 -1.265766,2.31246 -0.559859,0.63288 -1.095375,0.94932 -0.535517,0.34079 -0.73025,0.43815 -0.243417,0.0974 -0.511175,0.19474 -0.267759,0.1217 -0.462492,0.17039 -0.267758,0.073 -0.511175,0.14605 -0.243417,0.073 -0.462492,0.073 -0.340783,0 -0.778933,-0.14605 -0.43815,-0.14605 -0.827617,-0.34078 -0.243417,-0.12171 -0.43815,-0.46249 -0.194733,-0.31644 -0.194733,-0.5842 0,-0.2921 0.340783,-0.51118 0.316442,-0.21907 0.632884,-0.21907 0.2921,0 0.705908,0.12171 0.389467,0.14605 0.559858,0.24341 0.121709,0.073 0.2921,0.12171 0.14605,0.073 0.340784,0.073 0.194733,0 0.43815,-0.14605 0.267758,-0.12171 0.5842,-0.41381 0.340783,-0.41381 0.608541,-0.94933 0.2921,-0.53551 0.559859,-1.29011 0.316441,-0.8763 0.5842,-1.70391 0.2921,-0.85196 0.5842,-1.84997 0.316441,-1.02235 0.657225,-2.26377 0.365125,-1.26577 0.851958,-2.99403 0.02434,-0.19473 -0.170392,-0.21907 -0.413808,-0.073 -0.754591,-0.31645 -0.316442,-0.26775 -0.316442,-0.5842 0,-0.21907 0.121708,-0.34078 0.14605,-0.14605 0.316442,-0.21907 0.194733,-0.0974 0.413808,-0.14605 0.243417,-0.0487 0.559859,-0.0974 0.267758,-0.0487 0.413808,-0.12171 0.14605,-0.073 0.365125,-0.2921 0.14605,-0.12171 0.316442,-0.21907 0.170391,-0.12171 0.43815,-0.12171 z"
         style="font-size:24.34166718px;fill:#f4c401;fill-opacity:1;stroke-width:0.26458332"
         id="path4563-2"
         inkscape:connector-curvature="0" />
      <path
         d="m 30.677296,239.15528 q 0.267759,0 0.43815,0.19473 0.194734,0.17039 0.316442,0.31644 0.07302,0.21908 0.316442,0.0487 0.2921,-0.26776 0.5842,-0.073 0.511175,0.2921 0.511175,0.51118 0.02434,0.21907 -0.02434,0.38946 -0.486833,1.09538 -0.778933,2.21509 -0.2921,1.09538 -0.2921,2.19075 0,0.63289 0.170391,0.92499 0.170392,0.26776 0.43815,0.26776 0.413809,0 1.533525,-0.94933 1.144059,-0.97367 2.507192,-2.89666 0.121708,-0.19473 0.267758,-0.17039 0.170392,0.0243 0.170392,0.24342 0,0.55986 -0.365125,1.24142 -0.413808,0.80328 -1.02235,1.58221 -0.608542,0.77893 -1.290108,1.41182 -0.681567,0.63288 -1.363134,1.02235 -0.681566,0.38946 -1.265766,0.38946 -0.681567,0 -1.144059,-0.51117 -0.43815,-0.51118 -0.511175,-1.26577 -0.04868,-0.26776 -0.04868,-0.46249 0,-0.19473 0,-0.38947 -0.02434,-0.26775 -0.219075,-0.073 -0.121708,0.12171 -0.389467,0.38947 -0.267758,0.26775 -0.608541,0.55985 -0.316442,0.2921 -0.681567,0.5842 -0.340783,0.2921 -0.5842,0.4625 -0.949325,0.7059 -1.679575,0.7059 -0.121709,0 -0.340784,-0.0974 -0.194733,-0.0974 -0.389466,-0.26776 -0.194734,-0.19473 -0.365125,-0.46249 -0.14605,-0.26776 -0.14605,-0.60854 0,-0.36513 0.170391,-0.99801 0.170392,-0.63289 0.754592,-1.7526 0.486833,-0.97367 1.192742,-1.82563 0.705908,-0.8763 1.484842,-1.58221 0.511175,-0.43815 0.949325,-0.68156 0.43815,-0.26776 0.778933,-0.38947 0.340783,-0.12171 0.5842,-0.14605 0.243417,-0.0487 0.340783,-0.0487 z m -0.900641,1.82562 q -0.170392,0 -0.486834,0.24342 -0.2921,0.24342 -0.827616,0.8763 -0.316442,0.36512 -0.608542,0.80327 -0.267758,0.41381 -0.486833,0.82762 -0.219075,0.38947 -0.365125,0.75459 -0.14605,0.36513 -0.194734,0.60854 -0.04868,0.24342 -0.02434,0.4625 0.04868,0.19473 0.194733,0.19473 0.14605,0 0.389467,-0.14605 0.267758,-0.17039 0.535516,-0.41381 0.316442,-0.26776 0.608542,-0.63288 0.316442,-0.38947 0.8763,-1.02235 0.267758,-0.2921 0.511175,-0.70591 0.243417,-0.41381 0.316442,-0.53552 0.121708,-0.19473 0.14605,-0.38946 0.04868,-0.21908 0,-0.41381 -0.04868,-0.17039 -0.194734,-0.34079 -0.14605,-0.17039 -0.389466,-0.17039 z"
         style="font-size:24.34166718px;fill:#f4c401;fill-opacity:1;stroke-width:0.26458332"
         id="path4565-9"
         inkscape:connector-curvature="0" />
      <path
         d="m 42.58986,239.15528 q 0.121708,0 0.316442,0.0974 0.219075,0.0974 0.365125,0.31645 0.14605,0.21907 0.170391,0.5842 0.04868,0.34078 -0.121708,0.85195 -0.07303,0.19474 -0.194733,0.51118 -0.121709,0.31644 -0.2921,0.68157 -0.14605,0.36512 -0.2921,0.73025 -0.14605,0.34078 -0.243417,0.60854 -0.219075,0.55986 -0.09737,0.60854 0.121709,0.0487 0.389467,-0.17039 0.2921,-0.2921 0.827617,-0.8763 0.559858,-0.5842 1.144058,-1.21709 0.5842,-0.63288 1.071033,-1.1684 0.511175,-0.53551 0.681567,-0.7059 0.632883,-0.63289 1.071033,-0.63289 0.413809,0 0.754592,0.36513 0.365125,0.36512 0.365125,0.77893 0,0.21908 -0.09737,0.36513 -0.07303,0.1217 -0.243416,0.26775 -0.121709,0.12171 -0.2921,0.2921 -0.170392,0.14605 -0.340784,0.48684 -0.194733,0.34078 -0.43815,1.04669 -0.243416,0.68157 -0.389466,1.72826 -0.121709,0.73025 0,1.19274 0.121708,0.43815 0.559858,0.43815 0.243417,0 0.608542,-0.17039 0.365125,-0.19474 0.851958,-0.63289 0.486833,-0.43815 1.119717,-1.14405 0.657225,-0.70591 1.484841,-1.7526 0.340784,-0.41381 0.511175,-0.14605 0.219075,0.2921 -0.316441,1.21708 -0.657225,1.14406 -1.363134,1.97167 -0.681566,0.82762 -1.338791,1.36314 -0.657225,0.53551 -1.241425,0.77893 -0.5842,0.24342 -1.02235,0.24342 -0.924984,0 -1.4605,-0.75459 -0.511175,-0.7546 -0.316442,-2.36115 0.04868,-0.31644 0.09737,-0.7059 0.07303,-0.38947 0.121708,-0.5842 0.07303,-0.26776 -0.02434,-0.26776 -0.07303,-0.0243 -0.267758,0.21907 -0.219075,0.26776 -0.681567,0.77894 -0.462491,0.51117 -0.973666,1.09537 -0.486834,0.55986 -0.949325,1.04669 -0.43815,0.48684 -0.632884,0.68157 -0.705908,0.68157 -1.192741,0.68157 -0.43815,0 -0.5842,-0.68157 -0.14605,-0.70591 0.121708,-1.67958 0.267758,-1.02235 0.632883,-2.11772 0.07303,-0.19473 0.09737,-0.34078 0.02434,-0.14605 -0.07303,-0.19474 -0.194733,-0.0974 -0.632883,0.41381 -0.14605,0.14605 -0.608542,0.73025 -0.43815,0.5842 -0.973667,1.24143 -0.535516,0.65722 -1.02235,1.26576 -0.462491,0.5842 -0.632883,0.77894 -0.340784,0.36512 -0.559859,0.48683 -0.194733,0.12171 -0.389466,0.12171 -0.14605,0 -0.340784,-0.12171 -0.170391,-0.12171 -0.316441,-0.38947 -0.14605,-0.26776 -0.219075,-0.68156 -0.07303,-0.43815 0,-1.07104 0.07303,-0.55986 0.316441,-1.41181 0.243417,-0.8763 0.5842,-2.11773 0.04868,-0.19473 0.07303,-0.2921 0.02434,-0.12171 0.07303,-0.26776 0.04868,-0.21907 0.07303,-0.46249 0.02434,-0.24342 0.121709,-0.65722 0.04868,-0.19474 0.09737,-0.43815 0.04868,-0.24342 0.14605,-0.43815 0.09737,-0.21908 0.243417,-0.34079 0.170392,-0.14605 0.413809,-0.14605 0.340783,0 0.681566,0.26776 0.389467,0.31644 0.608542,0.68157 0.219075,0.36512 -0.02434,0.85196 -0.219075,0.48683 -0.486833,1.19274 -0.267758,0.68156 -0.511175,1.4605 -0.170392,0.51117 -0.07303,0.63288 0.09737,0.12171 0.365125,-0.19473 0.778933,-0.85196 1.338792,-1.50919 0.5842,-0.65722 1.265766,-1.36313 0.2921,-0.2921 0.486834,-0.48683 0.194733,-0.21908 0.365125,-0.36513 0.170391,-0.17039 0.316441,-0.2921 0.14605,-0.12171 0.2921,-0.24341 0.632884,-0.55986 1.046692,-0.55986 z"
         style="font-size:24.34166718px;fill:#f4c401;fill-opacity:1;stroke-width:0.26458332"
         id="path4567-7"
         inkscape:connector-curvature="0" />
      <path
         d="m 55.996414,239.15528 q 0.267758,0 0.43815,0.19473 0.194733,0.17039 0.316441,0.31644 0.07303,0.21908 0.316442,0.0487 0.2921,-0.26776 0.5842,-0.073 0.511175,0.2921 0.511175,0.51118 0.02434,0.21907 -0.02434,0.38946 -0.486834,1.09538 -0.778934,2.21509 -0.2921,1.09538 -0.2921,2.19075 0,0.63289 0.170392,0.92499 0.170392,0.26776 0.43815,0.26776 0.413808,0 1.533525,-0.94933 1.144058,-0.97367 2.507192,-2.89666 0.121708,-0.19473 0.267758,-0.17039 0.170392,0.0243 0.170392,0.24342 0,0.55986 -0.365125,1.24142 -0.413809,0.80328 -1.02235,1.58221 -0.608542,0.77893 -1.290109,1.41182 -0.681566,0.63288 -1.363133,1.02235 -0.681567,0.38946 -1.265767,0.38946 -0.681567,0 -1.144058,-0.51117 -0.43815,-0.51118 -0.511175,-1.26577 -0.04868,-0.26776 -0.04868,-0.46249 0,-0.19473 0,-0.38947 -0.02434,-0.26775 -0.219075,-0.073 -0.121708,0.12171 -0.389466,0.38947 -0.267759,0.26775 -0.608542,0.55985 -0.316442,0.2921 -0.681567,0.5842 -0.340783,0.2921 -0.5842,0.4625 -0.949325,0.7059 -1.679575,0.7059 -0.121708,0 -0.340783,-0.0974 -0.194733,-0.0974 -0.389467,-0.26776 -0.194733,-0.19473 -0.365125,-0.46249 -0.14605,-0.26776 -0.14605,-0.60854 0,-0.36513 0.170392,-0.99801 0.170392,-0.63289 0.754592,-1.7526 0.486833,-0.97367 1.192741,-1.82563 0.705909,-0.8763 1.484842,-1.58221 0.511175,-0.43815 0.949325,-0.68156 0.43815,-0.26776 0.778933,-0.38947 0.340784,-0.12171 0.5842,-0.14605 0.243417,-0.0487 0.340784,-0.0487 z m -0.900642,1.82562 q -0.170392,0 -0.486833,0.24342 -0.2921,0.24342 -0.827617,0.8763 -0.316442,0.36512 -0.608542,0.80327 -0.267758,0.41381 -0.486833,0.82762 -0.219075,0.38947 -0.365125,0.75459 -0.14605,0.36513 -0.194733,0.60854 -0.04868,0.24342 -0.02434,0.4625 0.04868,0.19473 0.194733,0.19473 0.14605,0 0.389467,-0.14605 0.267758,-0.17039 0.535517,-0.41381 0.316441,-0.26776 0.608541,-0.63288 0.316442,-0.38947 0.8763,-1.02235 0.267759,-0.2921 0.511175,-0.70591 0.243417,-0.41381 0.316442,-0.53552 0.121708,-0.19473 0.14605,-0.38946 0.04868,-0.21908 0,-0.41381 -0.04868,-0.17039 -0.194733,-0.34079 -0.14605,-0.17039 -0.389467,-0.17039 z"
         style="font-size:24.34166718px;fill:#f4c401;fill-opacity:1;stroke-width:0.26458332"
         id="path4569-1"
         inkscape:connector-curvature="0" />
      <path
         d="m 64.351692,234.72509 q 0.535517,0 0.924984,0.24342 0.413808,0.24342 0.316441,0.70591 -0.121708,0.63288 -0.14605,1.11972 0,0.46249 0,0.90064 0,0.36512 -0.243416,0.41381 -0.219075,0.0487 -0.559859,-0.073 -0.413808,-0.14605 -0.681566,-0.43815 -0.267759,-0.2921 -0.365125,-0.63288 -0.04868,-0.19474 -0.09737,-0.48684 -0.04868,-0.31644 -0.02434,-0.73025 0.04868,-0.55985 0.243417,-0.77893 0.219075,-0.24342 0.632883,-0.24342 z m -2.969683,13.36358 q -0.267758,0 -0.608542,-0.21908 -0.316441,-0.19473 -0.5842,-0.75459 -0.2921,-0.60854 -0.04868,-1.4605 0.04868,-0.21907 0.14605,-0.53551 0.121708,-0.34079 0.219075,-0.68157 0.121708,-0.36513 0.219075,-0.65723 0.09737,-0.31644 0.170392,-0.48683 0.121708,-0.26776 0.121708,-0.38947 0,-0.14605 0.02434,-0.2921 0,-0.19473 0.04868,-0.36512 0.04868,-0.19473 0.170392,-0.46249 0.14605,-0.36513 0.413808,-0.82762 0.267758,-0.46249 0.5842,-0.85196 0.340783,-0.41381 0.657225,-0.68156 0.340783,-0.26776 0.608542,-0.26776 0.219075,0 0.413808,0.14605 0.243417,0.19473 0.365125,0.55986 0.14605,0.34078 -0.04868,0.68156 -0.559859,0.99801 -1.046692,2.06904 -0.462492,1.07104 -0.900642,2.48285 -0.365125,1.09538 0.267759,1.09538 0.2921,0 0.851958,-0.36513 0.559858,-0.36512 1.241425,-0.92498 0.681567,-0.5842 1.387475,-1.26577 0.73025,-0.7059 1.363133,-1.36313 0.170392,-0.19473 0.316442,-0.14605 0.14605,0.0243 0.14605,0.34078 0,0.1704 -0.07303,0.38947 -0.07303,0.21908 -0.316442,0.60854 -0.365125,0.5842 -0.924983,1.26577 -0.559858,0.65722 -1.217083,1.26577 -0.632884,0.60854 -1.290109,1.07103 -0.657225,0.46249 -1.192741,0.68157 -0.851959,0.34078 -1.484842,0.34078 z"
         style="font-size:24.34166718px;fill:#f4c401;fill-opacity:1;stroke-width:0.26458332"
         id="path4571-6"
         inkscape:connector-curvature="0" />
      <path
         d="m 71.006095,239.13094 q 0.462492,0 0.754592,0.0974 0.2921,0.073 0.535517,0.24342 0.243416,0.17039 0.316441,0.36512 0.09737,0.1704 0.09737,0.38947 0,0.34078 -0.243417,0.51118 -0.219075,0.14605 -0.535516,0.14605 -0.559859,0 -1.144059,0.1217 -0.559858,0.0974 -1.02235,0.2921 -0.462491,0.19474 -0.754591,0.43815 -0.267759,0.24342 -0.267759,0.53552 0,0.34078 0.194734,0.75459 0.219075,0.38947 0.535516,0.80328 0.413809,0.53551 0.657225,1.04669 0.267759,0.51117 0.267759,0.99801 0,0.26776 -0.194734,0.65722 -0.194733,0.38947 -0.413808,0.5842 -0.121708,0.12171 -0.340783,0.26776 -0.219075,0.12171 -0.486834,0.26776 -0.243416,0.14605 -0.511175,0.26776 -0.243416,0.14605 -0.43815,0.21907 -0.559858,0.21908 -0.924983,0.21908 -0.243417,0 -0.535517,-0.073 -0.267758,-0.0487 -0.511175,-0.17039 -0.243416,-0.12171 -0.43815,-0.2921 -0.170391,-0.17039 -0.194733,-0.36512 0,-0.12171 0.02434,-0.24342 0.04868,-0.14605 0.170391,-0.26776 0.267759,-0.2921 0.486834,-0.43815 0.219075,-0.17039 0.389466,-0.24342 0.316442,-0.17039 0.608542,0.0487 0.194733,0.073 0.316442,0.12171 0.14605,0.0243 0.413808,0.0243 0.243417,0 0.365125,-0.0974 0.14605,-0.12171 0.14605,-0.24342 0,-0.19473 -0.14605,-0.48683 -0.14605,-0.31644 -0.413808,-0.65722 -0.194734,-0.24342 -0.43815,-0.65723 -0.243417,-0.43815 -0.365125,-0.70591 -0.09737,-0.21907 -0.170392,-0.48683 -0.07303,-0.2921 -0.07303,-0.53552 0,-0.65722 0.462492,-1.31445 0.462491,-0.65722 0.998008,-1.07103 0.2921,-0.24342 0.632883,-0.43815 0.365125,-0.19473 0.754592,-0.34078 0.389467,-0.14605 0.754592,-0.21908 0.389466,-0.073 0.681566,-0.073 z"
         style="font-size:24.34166718px;fill:#f4c401;fill-opacity:1;stroke-width:0.26458332"
         id="path4573-1"
         inkscape:connector-curvature="0" />
      <path
         d="m 73.669226,253.5412 q 0.07303,0 0.267758,-0.12171 0.170392,-0.0974 0.365125,-0.4138 0.194734,-0.31645 0.413809,-0.77894 0.194733,-0.43815 0.486833,-1.19274 0.267758,-0.75459 0.608542,-1.87431 0.340783,-1.11971 0.827616,-2.77495 0.2921,-0.97366 0.511175,-1.72826 0.219075,-0.75459 0.365125,-1.33879 0.170392,-0.5842 0.2921,-1.04669 0.121709,-0.48683 0.219075,-0.92498 0.219075,-1.04669 0.754592,-1.58221 0.219075,-0.24342 0.657225,-0.43815 0.43815,-0.21908 1.046692,-0.21908 0.267758,0 0.413808,0.12171 0.170392,0.0974 0.219075,0.26776 0.07302,0.14605 0.04868,0.34078 0,0.1704 -0.09737,0.2921 -0.559859,0.80328 -0.851959,1.53353 -0.2921,0.73025 -0.559858,1.60655 -0.194733,0.63288 -0.511175,1.65523 -0.2921,1.02235 -0.632883,2.09339 -0.316442,1.07103 -0.608542,2.02035 -0.2921,0.97367 -0.43815,1.43616 -0.900642,2.79929 -2.48285,3.89467 -0.5842,0.41381 -0.973667,0.53552 -0.413808,0.1217 -0.681566,0.1217 -0.413809,0 -0.803275,-0.19473 -0.389467,-0.17039 -0.705909,-0.46249 -0.389466,-0.34078 -0.559858,-0.70591 -0.170392,-0.36512 -0.170392,-0.60854 0,-0.26776 0.219075,-0.53552 0.219075,-0.24341 0.486834,-0.24341 0.219075,0 0.462491,0.0974 0.243417,0.12171 0.462492,0.26776 0.219075,0.14605 0.389467,0.31644 0.14605,0.17039 0.194733,0.31644 0.09737,0.19474 0.170392,0.21908 0.04868,0.0487 0.194733,0.0487 z m 7.278158,-19.69241 q 0.121709,0 0.316442,0.26776 0.194733,0.26776 0.267758,0.38947 0.09737,0.17039 0,0.70591 -0.04868,0.17039 -0.09737,0.43815 -0.02434,0.26776 -0.07303,0.53551 -0.02434,0.26776 -0.07303,0.53552 -0.02434,0.24342 -0.04868,0.36513 0,0.24341 -0.267758,0.51117 -0.267758,0.24342 -0.608542,0.24342 -0.09737,0 -0.219075,-0.12171 -0.09737,-0.14605 -0.219075,-0.34078 -0.121708,-0.21908 -0.219075,-0.4625 -0.09737,-0.24341 -0.14605,-0.43815 -0.121708,-0.4138 -0.14605,-0.7059 0,-0.2921 0,-0.63289 0,-0.26776 0.194734,-0.48683 0.194733,-0.21908 0.43815,-0.41381 0.267758,-0.21907 0.43815,-0.2921 0.194733,-0.0974 0.462491,-0.0974 z"
         style="font-size:24.34166718px;fill:#f4c401;fill-opacity:1;stroke-width:0.26458332"
         id="path4575-0"
         inkscape:connector-curvature="0" />
      <path
         d="m 81.05806,246.01963 q 0,-0.48684 0.121709,-1.04669 0.121708,-0.55986 0.462491,-1.36314 0.14605,-0.31644 0.316442,-0.63288 0.170392,-0.31644 0.340783,-0.60854 0.194734,-0.2921 0.340784,-0.51118 0.170391,-0.24341 0.2921,-0.38946 0.14605,-0.19474 0.267758,-0.38947 0.121708,-0.19473 0.14605,-0.53552 0.02434,-0.21907 0.09737,-0.36512 0.09737,-0.14605 0.219075,-0.2921 0.2921,-0.2921 0.632883,-0.2921 0.243417,0 0.389467,-0.073 0.14605,-0.0974 0.340783,-0.2921 0.486833,-0.48683 1.119717,-0.48683 0.340783,0 0.535516,0.0974 0.194734,0.0974 0.2921,0.24341 0.09737,0.14605 0.121709,0.31644 0.02434,0.1704 0.02434,0.2921 0,0.12171 0.02434,0.19474 0.04868,0.0487 0.170392,0.0974 0.657225,0.34079 0.924983,1.0467 0.2921,0.7059 0.2921,1.41181 0,0.73025 -0.316442,1.58221 -0.2921,0.82762 -1.046691,1.67958 -0.8763,1.04669 -2.0447,1.70391 -1.144059,0.65723 -2.458509,0.65723 -0.657225,0 -1.144058,-0.5842 -0.462492,-0.60854 -0.462492,-1.4605 z m 2.288117,-0.41381 q 0,0.38947 0.170392,0.60854 0.170391,0.19473 0.340783,0.19473 0.243417,0 0.535517,-0.14605 0.316441,-0.17039 0.657225,-0.55985 0.267758,-0.2921 0.535516,-0.7546 0.267759,-0.46249 0.486834,-0.97366 0.219075,-0.51118 0.365125,-0.97367 0.14605,-0.48683 0.14605,-0.80327 0,-0.4625 -0.14605,-0.8763 -0.121709,-0.41381 -0.462492,-0.41381 -0.121708,0 -0.2921,0.14605 -0.14605,0.12171 -0.267758,0.26776 -0.413809,0.48683 -0.803275,1.07103 -0.365125,0.5842 -0.657225,1.1684 -0.267759,0.5842 -0.43815,1.11972 -0.170392,0.53551 -0.170392,0.92498 z"
         style="font-size:24.34166718px;fill:#f4c401;fill-opacity:1;stroke-width:0.26458332"
         id="path4577-0"
         inkscape:connector-curvature="0" />
      <path
         d="m 97.408437,245.92226 q 0.365125,0 0.8763,-0.31644 0.535517,-0.31644 1.144058,-0.82762 0.632885,-0.53551 1.290105,-1.19274 0.65723,-0.68157 1.29011,-1.36313 0.14605,-0.14605 0.26776,-0.073 0.12171,0.073 0.12171,0.31644 0,0.21908 -0.12171,0.5842 -0.12171,0.36513 -0.38947,0.70591 -0.7059,0.92499 -1.31445,1.55787 -0.608538,0.63288 -1.144055,1.07103 -0.511175,0.43815 -0.949325,0.70591 -0.413808,0.26776 -0.73025,0.41381 -0.511175,0.26776 -0.998008,0.38947 -0.462492,0.1217 -0.73025,0.1217 -0.559858,0 -0.851958,-0.5842 -0.267759,-0.5842 -0.04868,-1.65523 0.04868,-0.2921 0.09737,-0.51117 0.07303,-0.21908 0.121708,-0.41381 0.04868,-0.19474 -0.04868,-0.26776 -0.07303,-0.073 -0.194733,0.0487 -0.14605,0.14605 -0.511175,0.48684 -0.340784,0.34078 -0.827617,0.77893 -0.462492,0.41381 -1.02235,0.85196 -0.559858,0.43815 -1.095375,0.77893 -0.389467,0.24342 -0.705908,0.31644 -0.2921,0.0974 -0.559859,0.0974 -0.389466,0 -0.705908,-0.46249 -0.316442,-0.48684 -0.316442,-1.07104 0,-0.14605 0.02434,-0.34078 0.02434,-0.21907 0.09737,-0.53552 0.07303,-0.31644 0.219075,-0.77893 0.14605,-0.46249 0.413808,-1.14406 0.43815,-1.31445 0.924983,-2.31246 0.511175,-1.02235 0.803275,-1.5822 0.170392,-0.26776 0.340784,-0.36513 0.194733,-0.12171 0.413808,-0.12171 0.462492,0 0.827617,0.38947 0.389466,0.36512 0.389466,0.77893 0,0.24342 -0.219075,0.60854 -0.194733,0.36513 -0.365125,0.5842 -0.194733,0.24342 -0.389466,0.51118 -0.194734,0.26776 -0.316442,0.51117 -0.14605,0.26776 -0.316442,0.68157 -0.14605,0.38947 -0.365125,1.14406 -0.194733,0.5842 -0.121708,0.82762 0.07303,0.21907 0.2921,0.21907 0.389467,0 2.117725,-1.87431 0.43815,-0.51117 0.827617,-1.04669 0.389466,-0.55986 0.73025,-1.07103 0.340783,-0.53552 0.608541,-0.94933 0.267759,-0.43815 0.43815,-0.70591 0.2921,-0.43815 0.511175,-0.60854 0.243417,-0.17039 0.462492,-0.17039 0.219075,0 0.43815,0.14605 0.219075,0.12171 0.365125,0.31644 0.14605,0.19474 0.194733,0.43815 0.04868,0.24342 -0.04868,0.48684 -0.07303,0.17039 -0.194733,0.38946 -0.09737,0.21908 -0.2921,0.5842 -0.194734,0.38947 -0.389467,0.8763 -0.170392,0.46249 -0.316442,0.97367 -0.14605,0.48683 -0.267758,0.94932 -0.09737,0.4625 -0.14605,0.85196 -0.04868,0.41381 0.02434,0.63289 0.07303,0.21907 0.340783,0.21907 z"
         style="font-size:24.34166718px;fill:#f4c401;fill-opacity:1;stroke-width:0.26458332"
         id="path4579-3"
         inkscape:connector-curvature="0" />
      <path
         d="m 100.33704,245.60582 q 0,-0.82762 0.43815,-2.0447 0.43815,-1.21708 1.24143,-2.38548 0.17039,-0.24342 0.48683,-0.60855 0.31644,-0.38946 0.68157,-0.7059 0.38946,-0.34079 0.80327,-0.5842 0.41381,-0.24342 0.80328,-0.24342 0.34078,0 0.53551,0.14605 0.19474,0.12171 0.31644,0.34078 0.14605,0.19474 0.36513,0.21908 0.63288,0.0487 1.02235,0.43815 0.38947,0.36512 0.38947,1.07103 0,0.65723 -0.2921,1.19274 -0.26776,0.51118 -0.63289,0.92499 -0.38946,0.38946 -1.04669,0.77893 -0.63288,0.36512 -1.63089,0.36512 -0.19473,0 -0.38947,-0.0487 -0.19473,-0.073 -0.36512,-0.14605 -0.21908,-0.0974 -0.31644,0.12171 -0.0974,0.19473 -0.14605,0.36512 -0.0487,0.1704 -0.0487,0.43815 0,0.41381 0.26776,0.65723 0.2921,0.24342 0.82762,0.24342 0.53551,0 1.21708,-0.1704 0.70591,-0.17039 1.48484,-0.53551 0.80328,-0.38947 1.67958,-1.02235 0.8763,-0.63289 1.80128,-1.58221 0.19473,-0.19473 0.34078,-0.19473 0.1704,0 0.24342,0.1217 0.0974,0.1704 0,0.4625 -0.073,0.2921 -0.31644,0.60854 -0.63288,0.80327 -1.48484,1.55786 -0.85196,0.7546 -1.84997,1.3388 -0.97367,0.5842 -2.06904,0.94932 -1.07103,0.34078 -2.14207,0.34078 -0.41381,0 -0.82761,-0.17039 -0.38947,-0.14605 -0.70591,-0.46249 -0.31644,-0.31644 -0.51118,-0.75459 -0.17039,-0.43815 -0.17039,-1.02235 z m 3.28613,-2.50719 q 0.2921,0 0.60854,-0.17039 0.34078,-0.19474 0.60854,-0.4625 0.2921,-0.26775 0.46249,-0.55985 0.19473,-0.31645 0.19473,-0.5842 0,-0.26776 -0.17039,-0.38947 -0.14605,-0.14605 -0.38946,-0.14605 -0.19474,0 -0.41381,0.19473 -0.21908,0.19474 -0.46249,0.48684 -0.21908,0.2921 -0.41381,0.63288 -0.19474,0.34078 -0.2921,0.63288 -0.073,0.21908 -0.0243,0.2921 0.0487,0.073 0.2921,0.073 z m 0.68156,-4.94136 q 0,-0.0974 0.0487,-0.24342 0.073,-0.17039 0.17039,-0.2921 0.34078,-0.38946 0.75459,-0.97366 0.43815,-0.5842 1.14406,-1.50919 0.21907,-0.31644 0.41381,-0.48683 0.19473,-0.17039 0.60854,-0.17039 0.38946,0 0.68156,0.14605 0.2921,0.14605 0.48684,0.38946 0.36512,0.48684 -0.21908,0.99801 -1.41181,1.21709 -2.23943,1.7526 -0.80328,0.51118 -1.24143,0.60854 -0.21907,0.0487 -0.4138,0.0243 -0.19474,-0.0487 -0.19474,-0.24342 z"
         style="font-size:24.34166718px;fill:#f4c401;fill-opacity:1;stroke-width:0.26458332"
         id="path4581-1"
         inkscape:connector-curvature="0" />
      <path
         d="m 113.84172,239.13094 q 0.4625,0 0.7546,0.0974 0.2921,0.073 0.53551,0.24342 0.24342,0.17039 0.31644,0.36512 0.0974,0.1704 0.0974,0.38947 0,0.34078 -0.24342,0.51118 -0.21907,0.14605 -0.53551,0.14605 -0.55986,0 -1.14406,0.1217 -0.55986,0.0974 -1.02235,0.2921 -0.46249,0.19474 -0.75459,0.43815 -0.26776,0.24342 -0.26776,0.53552 0,0.34078 0.19473,0.75459 0.21908,0.38947 0.53552,0.80328 0.41381,0.53551 0.65722,1.04669 0.26776,0.51117 0.26776,0.99801 0,0.26776 -0.19473,0.65722 -0.19473,0.38947 -0.41381,0.5842 -0.12171,0.12171 -0.34078,0.26776 -0.21908,0.12171 -0.48684,0.26776 -0.24341,0.14605 -0.51117,0.26776 -0.24342,0.14605 -0.43815,0.21907 -0.55986,0.21908 -0.92498,0.21908 -0.24342,0 -0.53552,-0.073 -0.26776,-0.0487 -0.51118,-0.17039 -0.24341,-0.12171 -0.43815,-0.2921 -0.17039,-0.17039 -0.19473,-0.36512 0,-0.12171 0.0243,-0.24342 0.0487,-0.14605 0.17039,-0.26776 0.26776,-0.2921 0.48684,-0.43815 0.21907,-0.17039 0.38946,-0.24342 0.31645,-0.17039 0.60855,0.0487 0.19473,0.073 0.31644,0.12171 0.14605,0.0243 0.41381,0.0243 0.24341,0 0.36512,-0.0974 0.14605,-0.12171 0.14605,-0.24342 0,-0.19473 -0.14605,-0.48683 -0.14605,-0.31644 -0.41381,-0.65722 -0.19473,-0.24342 -0.43815,-0.65723 -0.24341,-0.43815 -0.36512,-0.70591 -0.0974,-0.21907 -0.17039,-0.48683 -0.073,-0.2921 -0.073,-0.53552 0,-0.65722 0.46249,-1.31445 0.46249,-0.65722 0.99801,-1.07103 0.2921,-0.24342 0.63288,-0.43815 0.36513,-0.19473 0.7546,-0.34078 0.38946,-0.14605 0.75459,-0.21908 0.38946,-0.073 0.68156,-0.073 z"
         style="font-size:24.34166718px;fill:#f4c401;fill-opacity:1;stroke-width:0.26458332"
         id="path4583-6"
         inkscape:connector-curvature="0" />
    </g>
  </g>
</svg>
