<?xml version="1.0" encoding="UTF-8" standalone="no"?>
<!-- Created with Inkscape (http://www.inkscape.org/) -->

<svg
   xmlns:dc="http://purl.org/dc/elements/1.1/"
   xmlns:cc="http://creativecommons.org/ns#"
   xmlns:rdf="http://www.w3.org/1999/02/22-rdf-syntax-ns#"
   xmlns:svg="http://www.w3.org/2000/svg"
   xmlns="http://www.w3.org/2000/svg"
   xmlns:sodipodi="http://sodipodi.sourceforge.net/DTD/sodipodi-0.dtd"
   xmlns:inkscape="http://www.inkscape.org/namespaces/inkscape"
   width="312.94241mm"
   height="31.0688mm"
   viewBox="0 0 312.94241 31.0688"
   version="1.1"
   id="svg5951"
   inkscape:version="0.91 r13725"
   sodipodi:docname="c128_ingo_udb.svg">
  <defs
     id="defs5945" />
  <sodipodi:namedview
     id="base"
     pagecolor="#ffffff"
     bordercolor="#666666"
     borderopacity="1.0"
     inkscape:pageopacity="0.0"
     inkscape:pageshadow="2"
     inkscape:zoom="0.49497475"
     inkscape:cx="386.71297"
     inkscape:cy="19.321841"
     inkscape:document-units="mm"
     inkscape:current-layer="layer1"
     showgrid="false"
     fit-margin-top="0"
     fit-margin-left="0"
     fit-margin-right="0"
     fit-margin-bottom="0"
     inkscape:window-width="1366"
     inkscape:window-height="723"
     inkscape:window-x="0"
     inkscape:window-y="1"
     inkscape:window-maximized="1"
     inkscape:snap-page="true"
     inkscape:snap-grids="false"
     inkscape:snap-to-guides="false"
     inkscape:snap-bbox="true"
     inkscape:bbox-nodes="true"
     inkscape:bbox-paths="true" />
  <metadata
     id="metadata5948">
    <rdf:RDF>
      <cc:Work
         rdf:about="">
        <dc:format>image/svg+xml</dc:format>
        <dc:type
           rdf:resource="http://purl.org/dc/dcmitype/StillImage" />
        <dc:title></dc:title>
      </cc:Work>
    </rdf:RDF>
  </metadata>
  <g
     inkscape:label="Layer 1"
     inkscape:groupmode="layer"
     id="layer1"
     transform="translate(42.32239,-121.95965)">
    <g
       id="g5293">
      <g
         transform="matrix(0.75371292,0,0,0.75371292,-18.759034,121.95965)"
         id="g3"
         style="clip-rule:evenodd;fill-rule:evenodd;stroke-linejoin:round;stroke-miterlimit:1.41420996">
        <g
           id="g4941">
          <path
             id="path4943"
             style="fill:#7a7b7d;fill-opacity:1"
             d="M 315.855,3.258 C 315.855,1.46 314.395,0 312.596,0 L 40.079,0 C 38.28,0 36.82,1.46 36.82,3.258 l 0,34.705 c 0,1.798 1.46,3.258 3.259,3.258 l 272.517,0 c 1.799,0 3.259,-1.46 3.259,-3.258 l 0,-34.705 z"
             inkscape:connector-curvature="0" />
          <g
             style="fill:#a5aeb7;fill-opacity:1"
             id="g4945">
            <path
               id="path4947"
               style="fill:#a5aeb7;fill-rule:nonzero;fill-opacity:1"
               d="m 238.813,7.2 7.064,0 0,14.654 -4.466,0 0,-10.832 -1.159,0 -4.326,3.65 -2.47,-2.877 5.357,-4.595 z"
               inkscape:connector-curvature="0" />
            <path
               id="path4949"
               style="fill:#a5aeb7;fill-rule:nonzero;fill-opacity:1"
               d="m 254.273,12.654 -4.327,0 c 0,-1.181 0.047,-2.079 0.14,-2.695 0.172,-1.088 0.665,-1.832 1.481,-2.233 0.544,-0.264 1.307,-0.449 2.287,-0.553 0.981,-0.103 2.462,-0.155 4.445,-0.155 2.984,0 4.895,0.034 5.732,0.102 0.838,0.068 1.496,0.245 1.976,0.531 0.529,0.315 0.896,0.762 1.1,1.342 0.204,0.58 0.306,1.467 0.306,2.663 0,0.858 -0.048,1.537 -0.145,2.034 -0.096,0.497 -0.263,0.918 -0.499,1.261 -0.315,0.466 -0.734,0.791 -1.256,0.977 -0.888,0.315 -1.965,0.512 -3.231,0.591 -3.064,0.179 -5.043,0.309 -5.937,0.392 -0.895,0.082 -1.439,0.188 -1.632,0.316 -0.179,0.122 -0.294,0.253 -0.344,0.392 -0.05,0.14 -0.086,0.428 -0.107,0.864 l 13.387,0 0,3.371 -17.488,0 c -0.029,-0.579 -0.043,-1.138 -0.043,-1.674 0,-1.682 0.054,-2.885 0.161,-3.607 0.215,-1.375 1.006,-2.233 2.373,-2.577 0.529,-0.129 1.014,-0.218 1.454,-0.268 0.44,-0.051 1.723,-0.158 3.849,-0.322 2.061,-0.158 3.285,-0.258 3.672,-0.301 0.386,-0.043 0.708,-0.107 0.966,-0.193 0.258,-0.086 0.429,-0.21 0.515,-0.371 0.086,-0.161 0.129,-0.438 0.129,-0.832 0,-0.422 -0.048,-0.726 -0.145,-0.912 -0.097,-0.186 -0.27,-0.319 -0.521,-0.397 -0.315,-0.108 -1.435,-0.161 -3.36,-0.161 -1.646,0 -2.795,0.026 -3.446,0.08 -0.651,0.054 -1.056,0.152 -1.213,0.295 -0.122,0.122 -0.199,0.29 -0.231,0.505 -0.032,0.215 -0.048,0.726 -0.048,1.535 z"
               inkscape:connector-curvature="0" />
            <path
               id="path4951"
               style="fill:#a5aeb7;fill-rule:nonzero;fill-opacity:1"
               d="m 272.91,14.361 c -0.752,-0.05 -1.306,-0.19 -1.664,-0.419 -0.68,-0.451 -1.02,-1.395 -1.02,-2.834 0,-1.245 0.229,-2.154 0.687,-2.727 0.286,-0.35 0.666,-0.615 1.138,-0.794 0.472,-0.179 1.152,-0.308 2.04,-0.387 1.209,-0.114 2.734,-0.171 4.573,-0.171 3.493,0 5.708,0.193 6.645,0.579 0.688,0.279 1.167,0.72 1.439,1.321 0.236,0.544 0.354,1.27 0.354,2.179 0,1.16 -0.193,1.974 -0.579,2.442 -0.387,0.469 -1.088,0.739 -2.105,0.811 0.859,0.15 1.443,0.329 1.75,0.537 0.401,0.265 0.686,0.637 0.854,1.116 0.168,0.48 0.252,1.149 0.252,2.008 0,1.209 -0.204,2.086 -0.612,2.63 -0.293,0.387 -0.708,0.678 -1.245,0.875 -0.537,0.197 -1.292,0.335 -2.265,0.413 -0.716,0.058 -2.212,0.086 -4.488,0.086 -2.304,0 -3.865,-0.03 -4.681,-0.091 -0.816,-0.061 -1.506,-0.199 -2.072,-0.413 -0.672,-0.258 -1.15,-0.652 -1.433,-1.181 -0.283,-0.53 -0.424,-1.303 -0.424,-2.319 0,-0.916 0.099,-1.621 0.295,-2.115 0.197,-0.494 0.528,-0.866 0.993,-1.117 0.294,-0.157 0.816,-0.3 1.568,-0.429 z m 5.303,-4.047 c -1.667,0 -2.707,0.071 -3.118,0.214 -0.412,0.144 -0.618,0.501 -0.618,1.074 0,0.601 0.19,0.961 0.569,1.079 0.38,0.118 1.532,0.177 3.457,0.177 1.703,0 2.727,-0.009 3.07,-0.027 0.344,-0.018 0.627,-0.077 0.849,-0.177 0.286,-0.129 0.429,-0.483 0.429,-1.063 0,-0.343 -0.064,-0.603 -0.193,-0.778 -0.129,-0.175 -0.337,-0.288 -0.623,-0.338 -0.53,-0.101 -1.803,-0.154 -3.822,-0.161 z m 0.451,5.69 c -2.183,0 -3.442,0.057 -3.779,0.171 -0.215,0.072 -0.365,0.199 -0.451,0.381 -0.086,0.183 -0.129,0.464 -0.129,0.843 0,0.401 0.051,0.684 0.151,0.848 0.1,0.165 0.297,0.283 0.59,0.355 0.329,0.085 1.392,0.128 3.189,0.128 1.954,0 3.249,-0.043 3.886,-0.128 0.344,-0.051 0.58,-0.167 0.709,-0.349 0.128,-0.183 0.193,-0.5 0.193,-0.95 0,-0.365 -0.047,-0.63 -0.14,-0.795 -0.093,-0.164 -0.265,-0.279 -0.515,-0.343 -0.236,-0.072 -1.471,-0.126 -3.704,-0.161 z"
               inkscape:connector-curvature="0" />
          </g>
          <g
             style="fill:#a5aeb7;fill-opacity:1"
             id="g4953">
            <path
               id="path4955"
               style="fill:#a5aeb7;fill-rule:nonzero;fill-opacity:1"
               d="m 63.782,34.401 0,-7.844 4.814,0 c 1.186,0 1.995,0.171 2.426,0.512 0.432,0.341 0.647,0.979 0.647,1.913 0,0.897 -0.224,1.508 -0.674,1.833 -0.449,0.326 -1.292,0.489 -2.53,0.489 l -0.462,0.005 -3.035,0 0,3.092 -1.186,0 z m 1.186,-3.839 2.812,0 c 1.176,0 1.929,-0.09 2.26,-0.27 0.332,-0.18 0.497,-0.593 0.497,-1.241 0,-0.758 -0.112,-1.238 -0.335,-1.439 -0.223,-0.201 -0.753,-0.302 -1.59,-0.302 l -0.455,-0.006 -3.189,0 0,3.258 z"
               inkscape:connector-curvature="0" />
            <path
               id="path4957"
               style="fill:#a5aeb7;fill-rule:nonzero;fill-opacity:1"
               d="m 78.266,27.304 0,2.672 5.338,0 0,0.747 -5.338,0 0,2.931 5.569,0 0,0.747 -6.755,0 0,-7.844 6.755,0 0,0.747 -5.569,0 z"
               inkscape:connector-curvature="0" />
            <path
               id="path4959"
               style="fill:#a5aeb7;fill-rule:nonzero;fill-opacity:1"
               d="m 89.777,34.401 0,-7.844 5.007,0 c 1.13,0 1.926,0.167 2.388,0.5 0.462,0.334 0.693,0.912 0.693,1.736 0,0.724 -0.126,1.228 -0.377,1.514 -0.252,0.285 -0.732,0.47 -1.441,0.554 l 0,0.017 c 1.115,0.062 1.672,0.567 1.672,1.517 l 0,2.006 -1.186,0 0,-1.805 c 0,-0.915 -0.532,-1.373 -1.595,-1.373 l -0.393,0 -3.581,0 0,3.178 -1.187,0 z m 1.187,-3.925 3.427,0 c 0.904,0 1.52,-0.102 1.849,-0.307 0.329,-0.205 0.493,-0.591 0.493,-1.158 0,-0.709 -0.122,-1.17 -0.366,-1.385 -0.244,-0.214 -0.766,-0.322 -1.568,-0.322 l -3.835,0 0,3.172 z"
               inkscape:connector-curvature="0" />
            <path
               id="path4961"
               style="fill:#a5aeb7;fill-rule:nonzero;fill-opacity:1"
               d="m 111.233,28.683 -1.179,0 c 0,-0.632 -0.141,-1.033 -0.424,-1.203 -0.282,-0.171 -0.947,-0.256 -1.995,-0.256 -1.242,0 -2.043,0.081 -2.403,0.244 -0.359,0.163 -0.539,0.526 -0.539,1.089 0,0.632 0.141,1.017 0.424,1.155 0.282,0.138 1.122,0.232 2.518,0.281 1.639,0.054 2.68,0.209 3.124,0.466 0.444,0.257 0.666,0.831 0.666,1.724 0,0.965 -0.255,1.589 -0.766,1.873 -0.511,0.283 -1.64,0.425 -3.386,0.425 -1.514,0 -2.522,-0.143 -3.023,-0.428 -0.501,-0.285 -0.751,-0.861 -0.751,-1.727 l -0.008,-0.35 1.179,0 0,0.195 c 0,0.701 0.144,1.137 0.431,1.307 0.288,0.171 1.025,0.256 2.211,0.256 1.361,0 2.198,-0.085 2.511,-0.256 0.313,-0.17 0.47,-0.625 0.47,-1.364 0,-0.479 -0.107,-0.798 -0.32,-0.957 -0.213,-0.159 -0.658,-0.254 -1.336,-0.284 l -1.233,-0.046 -1.17,-0.046 c -1.782,-0.092 -2.673,-0.782 -2.673,-2.069 0,-0.892 0.259,-1.488 0.778,-1.787 0.518,-0.299 1.553,-0.448 3.104,-0.448 1.571,0 2.596,0.139 3.073,0.417 0.478,0.277 0.717,0.874 0.717,1.789 z"
               inkscape:connector-curvature="0" />
            <path
               id="path4963"
               style="fill:#a5aeb7;fill-rule:nonzero;fill-opacity:1"
               d="m 121.111,26.477 c 1.987,0 3.23,0.216 3.728,0.649 0.498,0.433 0.747,1.515 0.747,3.247 0,1.865 -0.239,3.016 -0.716,3.453 -0.478,0.437 -1.731,0.655 -3.759,0.655 -2.018,0 -3.27,-0.216 -3.755,-0.649 -0.486,-0.433 -0.728,-1.552 -0.728,-3.356 l 0,-0.551 0.015,-0.742 c 0,-1.042 0.315,-1.753 0.944,-2.134 0.629,-0.381 1.803,-0.572 3.524,-0.572 z m -0.008,0.747 c -1.664,0 -2.637,0.138 -2.919,0.414 -0.283,0.275 -0.424,1.222 -0.424,2.838 0,1.621 0.141,2.569 0.424,2.844 0.282,0.276 1.255,0.414 2.919,0.414 1.669,0 2.645,-0.138 2.927,-0.414 0.282,-0.275 0.424,-1.223 0.424,-2.844 l 0,-0.511 -0.008,-0.741 c 0,-0.866 -0.195,-1.416 -0.585,-1.65 -0.391,-0.233 -1.31,-0.35 -2.758,-0.35 z"
               inkscape:connector-curvature="0" />
            <path
               id="path4965"
               style="fill:#a5aeb7;fill-rule:nonzero;fill-opacity:1"
               d="m 140.34,26.557 0,7.844 -1.949,0 -4.406,-5.338 -0.716,-0.88 -0.355,-0.436 -0.354,-0.437 -0.031,0 0.008,0.293 0.008,0.299 0,6.499 -1.186,0 0,-7.844 1.941,0 3.843,4.678 1.002,1.229 0.5,0.609 0.493,0.615 0.031,0 -0.008,-0.293 -0.007,-0.299 0,-0.586 0,-5.953 1.186,0 z"
               inkscape:connector-curvature="0" />
            <path
               id="path4967"
               style="fill:#a5aeb7;fill-rule:nonzero;fill-opacity:1"
               d="m 153.222,32.74 -5.323,0 -0.808,1.661 -1.256,0 3.851,-7.844 1.664,0 3.929,7.844 -1.241,0 -0.816,-1.661 z m -0.347,-0.666 -2.334,-4.793 -2.303,4.793 4.637,0 z"
               inkscape:connector-curvature="0" />
            <path
               id="path4969"
               style="fill:#a5aeb7;fill-rule:nonzero;fill-opacity:1"
               d="m 161.96,26.557 0,7.022 5.407,0 0,0.822 -6.593,0 0,-7.844 1.186,0 z"
               inkscape:connector-curvature="0" />
            <path
               id="path4971"
               style="fill:#a5aeb7;fill-rule:nonzero;fill-opacity:1"
               d="m 188.094,31.78 1.179,0 0,0.299 c 0,1.069 -0.244,1.737 -0.732,2.003 -0.488,0.266 -1.715,0.399 -3.682,0.399 -1.761,0 -2.881,-0.235 -3.358,-0.704 -0.478,-0.469 -0.717,-1.573 -0.717,-3.312 0,-1.36 0.054,-2.215 0.162,-2.566 0.108,-0.35 0.416,-0.664 0.924,-0.939 0.596,-0.322 1.882,-0.483 3.859,-0.483 1.341,0 2.243,0.155 2.708,0.465 0.465,0.311 0.697,0.91 0.697,1.799 l 0.008,0.212 -1.179,0 -0.007,-0.241 c 0,-0.632 -0.138,-1.038 -0.413,-1.218 -0.274,-0.18 -0.894,-0.27 -1.86,-0.27 -1.694,0 -2.729,0.105 -3.104,0.316 -0.375,0.211 -0.562,0.795 -0.562,1.752 0,2.203 0.126,3.494 0.377,3.873 0.252,0.38 1.112,0.569 2.581,0.569 1.396,0 2.268,-0.082 2.615,-0.247 0.346,-0.165 0.52,-0.578 0.52,-1.241 l -0.016,-0.466 z"
               inkscape:connector-curvature="0" />
            <path
               id="path4973"
               style="fill:#a5aeb7;fill-rule:nonzero;fill-opacity:1"
               d="m 198.874,26.477 c 1.987,0 3.229,0.216 3.728,0.649 0.498,0.433 0.747,1.515 0.747,3.247 0,1.865 -0.239,3.016 -0.717,3.453 -0.477,0.437 -1.73,0.655 -3.758,0.655 -2.019,0 -3.27,-0.216 -3.755,-0.649 -0.486,-0.433 -0.728,-1.552 -0.728,-3.356 l 0,-0.551 0.015,-0.742 c 0,-1.042 0.315,-1.753 0.944,-2.134 0.629,-0.381 1.803,-0.572 3.524,-0.572 z m -0.008,0.747 c -1.664,0 -2.637,0.138 -2.919,0.414 -0.283,0.275 -0.424,1.222 -0.424,2.838 0,1.621 0.141,2.569 0.424,2.844 0.282,0.276 1.255,0.414 2.919,0.414 1.669,0 2.644,-0.138 2.927,-0.414 0.282,-0.275 0.423,-1.223 0.423,-2.844 l 0,-0.511 -0.007,-0.741 c 0,-0.866 -0.195,-1.416 -0.586,-1.65 -0.39,-0.233 -1.309,-0.35 -2.757,-0.35 z"
               inkscape:connector-curvature="0" />
            <path
               id="path4975"
               style="fill:#a5aeb7;fill-rule:nonzero;fill-opacity:1"
               d="m 220.66,26.557 0,7.844 -1.186,0 0,-6.275 0,-0.471 0.007,-0.236 0.008,-0.235 -0.031,0 -0.092,0.184 c -0.046,0.092 -0.077,0.151 -0.093,0.178 l -0.2,0.367 -3.582,6.488 -1.186,0 -3.589,-6.413 -0.208,-0.362 -0.093,-0.184 c -0.025,-0.042 -0.056,-0.101 -0.092,-0.178 l -0.031,0 0.008,0.213 0.008,0.218 0,6.706 -1.187,0 0,-7.844 2.057,0 2.804,5.074 0.447,0.822 0.223,0.408 0.216,0.408 0.03,0 0.216,-0.408 c 0.108,-0.196 0.18,-0.332 0.216,-0.408 l 0.454,-0.816 2.789,-5.08 2.087,0 z"
               inkscape:connector-curvature="0" />
            <path
               id="path4977"
               style="fill:#a5aeb7;fill-rule:nonzero;fill-opacity:1"
               d="m 227.072,34.401 0,-7.844 4.814,0 c 1.186,0 1.995,0.171 2.426,0.512 0.432,0.341 0.647,0.979 0.647,1.913 0,0.897 -0.224,1.508 -0.674,1.833 -0.449,0.326 -1.292,0.489 -2.53,0.489 l -0.462,0.005 -3.035,0 0,3.092 -1.186,0 z m 1.186,-3.839 2.812,0 c 1.175,0 1.929,-0.09 2.26,-0.27 0.331,-0.18 0.497,-0.593 0.497,-1.241 0,-0.758 -0.112,-1.238 -0.335,-1.439 -0.223,-0.201 -0.754,-0.302 -1.591,-0.302 l -0.454,-0.006 -3.189,0 0,3.258 z"
               inkscape:connector-curvature="0" />
            <path
               id="path4979"
               style="fill:#a5aeb7;fill-rule:nonzero;fill-opacity:1"
               d="m 247.942,26.557 1.186,0 0,5.494 c 0,0.996 -0.268,1.65 -0.805,1.962 -0.537,0.312 -1.663,0.468 -3.378,0.468 -1.607,0 -2.699,-0.15 -3.277,-0.451 -0.578,-0.301 -0.867,-0.872 -0.867,-1.715 l 0,-0.264 0,-5.494 1.187,0 0,5.494 c 0,0.743 0.161,1.209 0.485,1.399 0.323,0.189 1.119,0.284 2.388,0.284 1.376,0 2.233,-0.093 2.572,-0.279 0.339,-0.185 0.509,-0.654 0.509,-1.404 l 0,-5.494 z"
               inkscape:connector-curvature="0" />
            <path
               id="path4981"
               style="fill:#a5aeb7;fill-rule:nonzero;fill-opacity:1"
               d="m 259.206,27.379 0,7.022 -1.186,0 0,-7.022 -3.428,0 0,-0.822 8.011,0 0,0.822 -3.397,0 z"
               inkscape:connector-curvature="0" />
            <path
               id="path4983"
               style="fill:#a5aeb7;fill-rule:nonzero;fill-opacity:1"
               d="m 268.838,27.304 0,2.672 5.338,0 0,0.747 -5.338,0 0,2.931 5.569,0 0,0.747 -6.755,0 0,-7.844 6.755,0 0,0.747 -5.569,0 z"
               inkscape:connector-curvature="0" />
            <path
               id="path4985"
               style="fill:#a5aeb7;fill-rule:nonzero;fill-opacity:1"
               d="m 280.349,34.401 0,-7.844 5.007,0 c 1.129,0 1.925,0.167 2.388,0.5 0.462,0.334 0.693,0.912 0.693,1.736 0,0.724 -0.126,1.228 -0.378,1.514 -0.251,0.285 -0.731,0.47 -1.44,0.554 l 0,0.017 c 1.114,0.062 1.671,0.567 1.671,1.517 l 0,2.006 -1.186,0 0,-1.805 c 0,-0.915 -0.531,-1.373 -1.594,-1.373 l -0.393,0 -3.582,0 0,3.178 -1.186,0 z m 1.186,-3.925 3.428,0 c 0.904,0 1.52,-0.102 1.849,-0.307 0.328,-0.205 0.493,-0.591 0.493,-1.158 0,-0.709 -0.122,-1.17 -0.366,-1.385 -0.244,-0.214 -0.767,-0.322 -1.568,-0.322 l -3.836,0 0,3.172 z"
               inkscape:connector-curvature="0" />
          </g>
          <path
             style="fill:#a5aeb7;fill-rule:nonzero;fill-opacity:1"
             d="m 198.051,11.186 -3.534,0 0,10.137 3.687,0 0,-5.298 c 0,-1.382 0.846,-2.074 2.383,-2.074 1.535,0 1.92,0.461 1.996,1.765 l 3.457,0 c 0,-3.456 -0.461,-4.762 -4.147,-4.762 -2.229,0 -2.997,0.462 -3.841,2.151 l -0.001,-1.919 z m 16.974,8.142 c -3.532,0 -4.07,-0.308 -4.07,-2.075 l 9.68,0 c -0.154,-4.913 -0.154,-6.067 -6.683,-6.067 -5.533,0 -6.762,0.999 -6.762,5.376 0,4.072 1.615,5.07 6.07,5.147 4.994,0 7.375,-0.231 7.375,-3.533 l -3.611,0 c -0.155,0.767 -0.461,1.152 -1.999,1.152 z m -4.146,-4.224 c 0.153,-1.076 0.46,-1.46 2.917,-1.46 2.691,0 3.073,0.154 3.227,1.46 l -6.144,0 z m -137.346,0.384 3.687,0 c -0.307,-3.458 -1.306,-4.302 -6.451,-4.302 -5.838,0 -7.144,0.92 -7.144,5.223 0,4.301 1.229,5.299 6.683,5.299 5.76,0 6.913,-0.768 6.913,-4.378 l -3.687,0 c 0,0.999 -0.383,1.461 -3.226,1.461 -2.459,0 -2.996,-0.614 -2.996,-2.612 0,-1.921 0.537,-1.921 3.458,-1.921 2.149,0 2.532,0.231 2.763,1.23 z m 85.648,0.612 c 0,-4.147 -1.228,-4.99 -7.144,-4.99 -6.375,0 -7.142,1.075 -7.142,5.375 0,4.302 1.074,5.223 7.142,5.223 6.454,0.001 7.144,-1.073 7.144,-5.608 z m -10.523,0.233 c 0,-2.075 0.461,-2.304 3.15,-2.304 2.995,0 3.532,0.076 3.532,2.304 0,2.074 -0.384,2.459 -3.226,2.459 -3.072,0 -3.456,-0.309 -3.456,-2.459 z M 192.287,16.1 c 0,-4.147 -1.152,-4.99 -7.064,-4.99 -6.3,0 -7.068,0.996 -7.068,5.299 0,4.378 1.075,5.299 7.068,5.299 6.45,0.001 7.064,-1.073 7.064,-5.608 z m -10.445,0.233 c 0,-2.075 0.46,-2.304 3.149,-2.304 2.996,0 3.533,0.076 3.533,2.304 0,2.074 -0.384,2.459 -3.225,2.459 -3.072,0 -3.457,-0.309 -3.457,-2.459 z M 93.582,16.1 c 0,-4.147 -1.152,-4.99 -7.066,-4.99 -6.376,0 -7.145,0.996 -7.145,5.299 0,4.378 1.077,5.299 7.145,5.299 6.452,0.001 7.066,-1.073 7.066,-5.608 z m -10.371,0.233 c 0,-2.075 0.461,-2.304 3.074,-2.304 2.995,0 3.533,0.076 3.533,2.304 0,2.074 -0.386,2.459 -3.227,2.459 -2.997,0 -3.38,-0.309 -3.38,-2.459 z m 88.798,-9.45 0,5.915 c -0.844,-1.152 -1.612,-1.765 -4.684,-1.765 -4.916,0 -5.839,1.306 -5.839,5.299 0,4.072 1.307,5.222 6.069,5.222 2.996,0 3.917,-0.767 4.609,-2.073 l 0,1.84 3.687,0 0,-14.439 -3.842,0.001 z m -2.688,7.069 c 2.073,0 2.766,0.306 2.766,1.918 0,2.46 -0.155,2.692 -3.072,2.692 -2.92,0 -3.688,-0.079 -3.688,-2.152 0,-2.382 0.922,-2.458 3.994,-2.458 z m -69.902,-2.766 -3.455,0 0,10.137 3.686,0 0,-5.223 c 0,-1.535 0.768,-2.072 2.843,-2.072 1.921,0 2.459,0.691 2.459,2.611 l 0,4.684 3.763,0 0,-5.375 c 0,-1.459 1.152,-1.92 2.918,-1.92 1.69,0 2.458,0.461 2.458,1.92 l 0,5.375 3.687,0 0,-5.991 c 0,-2.993 -1.844,-4.378 -5.223,-4.378 -2.919,0 -3.995,1.076 -4.38,2.228 -0.768,-1.306 -1.843,-2.228 -4.762,-2.228 -2.765,0 -3.533,0.922 -3.995,2.612 l 10e-4,-2.38 z m 24.812,0 -3.457,0 0,10.137 3.687,0 0,-5.223 c 0,-1.535 0.921,-2.072 2.764,-2.072 1.921,0 2.458,0.615 2.458,2.611 l 0,4.684 3.766,0 0,-5.375 c 0,-1.459 1.075,-1.92 2.842,-1.92 1.69,0 2.534,0.537 2.534,1.92 l 0,5.375 3.687,0 0,-5.991 c 0,-2.993 -1.843,-4.378 -5.222,-4.378 -2.919,0 -3.919,0.999 -4.378,2.228 -0.769,-1.306 -1.845,-2.228 -4.764,-2.228 -2.687,0 -3.379,0.922 -3.916,2.612 l -0.001,-2.38 z"
             id="path17"
             inkscape:connector-curvature="0" />
        </g>
      </g>
    </g>
  </g>
</svg>
