<?xml version="1.0" encoding="UTF-8" standalone="no"?>
<svg
   xmlns:dc="http://purl.org/dc/elements/1.1/"
   xmlns:cc="http://creativecommons.org/ns#"
   xmlns:rdf="http://www.w3.org/1999/02/22-rdf-syntax-ns#"
   xmlns:svg="http://www.w3.org/2000/svg"
   xmlns="http://www.w3.org/2000/svg"
   xmlns:sodipodi="http://sodipodi.sourceforge.net/DTD/sodipodi-0.dtd"
   xmlns:inkscape="http://www.inkscape.org/namespaces/inkscape"
   viewBox="94 357.6 603.12109 59.859771"
   version="1.1"
   id="svg16"
   sodipodi:docname="logoVIC20.svg"
   width="603.12109"
   height="59.859772"
   inkscape:version="0.92.4 (5da689c313, 2019-01-14)">
  <metadata
     id="metadata22">
    <rdf:RDF>
      <cc:Work
         rdf:about="">
        <dc:format>image/svg+xml</dc:format>
        <dc:type
           rdf:resource="http://purl.org/dc/dcmitype/StillImage" />
        <dc:title />
      </cc:Work>
    </rdf:RDF>
  </metadata>
  <defs
     id="defs20" />
  <sodipodi:namedview
     pagecolor="#ffffff"
     bordercolor="#666666"
     borderopacity="1"
     objecttolerance="10"
     gridtolerance="10"
     guidetolerance="10"
     inkscape:pageopacity="0"
     inkscape:pageshadow="2"
     inkscape:window-width="1920"
     inkscape:window-height="1016"
     id="namedview18"
     showgrid="false"
     inkscape:zoom="2.4607316"
     inkscape:cx="319.73688"
     inkscape:cy="15.75505"
     inkscape:window-x="0"
     inkscape:window-y="27"
     inkscape:window-maximized="1"
     inkscape:current-layer="g31" />
  <g
     id="g31"
     transform="matrix(0.75390139,0,0,0.75390139,23.133269,88.004863)">
    <path
       id="path2"
       d="m 133.7,357.6 h 720.6 c 21.8,0 39.7,17.9 39.7,39.7 0,21.8 -17.9,39.7 -39.7,39.7 H 133.7 C 111.9,437 94,419.1 94,397.3 c 0,-21.9 17.9,-39.7 39.7,-39.7 z"
       inkscape:connector-curvature="0"
       style="fill:#4e4e4e" />
    <path
       id="path4"
       d="m 535.5,371.1 h 65.05161 V 377 H 535.5"
       inkscape:connector-curvature="0"
       style="fill:#ff0000;stroke-width:0.5467636" />
    <path
       id="path6"
       d="m 535.5,382.8 h 65.05161 v 5.8 H 535.5"
       inkscape:connector-curvature="0"
       style="fill:#fd4120;stroke-width:0.5467636" />
    <path
       id="path8"
       d="m 535.5,394.4 h 65.05161 v 5.8 H 535.5"
       inkscape:connector-curvature="0"
       style="fill:#ffcc00;stroke-width:0.5467636" />
    <path
       id="path10"
       d="m 535.5,406 h 65.05161 v 5.8 H 535.5"
       inkscape:connector-curvature="0"
       style="fill:#4dac26;stroke-width:0.5467636" />
    <path
       id="path12"
       d="m 535.5,417.6 h 65.05161 v 5.8 H 535.5"
       inkscape:connector-curvature="0"
       style="fill:#00a0c6;stroke-width:0.5467636" />
    <path
       id="path14"
       d="m 467.8,385.6 h -7.5 v 21.5 h 7.8 v -11.2 c 0,-2.9 1.8,-4.4 5.1,-4.4 3.3,0 4.1,1 4.2,3.7 h 7.3 c 0,-7.3 -1,-10.1 -8.8,-10.1 -4.7,0 -6.4,1 -8.1,4.6 z m -307.6,12.9 h -12.6 v 10.3 h 22.6 z m 10,-12.5 h -22.6 v 10.3 H 160 Z m 333.6,16.8 c -7.5,0 -8.6,-0.7 -8.6,-4.4 h 20.5 c -0.3,-10.4 -0.3,-12.9 -14.2,-12.9 -11.7,0 -14.3,2.1 -14.3,11.4 0,8.6 3.4,10.8 12.9,10.9 10.6,0 15.6,-0.5 15.6,-7.5 H 508 c -0.3,1.7 -0.9,2.5 -4.2,2.5 z m -8.8,-8.9 c 0.3,-2.3 1,-3.1 6.2,-3.1 5.7,0 6.5,0.3 6.9,3.1 z m -291.4,0.8 h 7.8 c -0.7,-7.3 -2.8,-9.1 -13.7,-9.1 -12.4,0 -15.2,2 -15.2,11.1 0,9.1 2.6,11.2 14.2,11.2 12.2,0 14.7,-1.6 14.7,-9.3 h -7.8 c 0,2.1 -0.8,3.1 -6.8,3.1 -5.2,0 -6.4,-1.3 -6.4,-5.5 0,-4.1 1.1,-4.1 7.3,-4.1 4.6,0 5.4,0.5 5.9,2.6 z m 181.7,1.3 c 0,-8.8 -2.6,-10.6 -15.2,-10.6 -13.5,0 -15.2,2.3 -15.2,11.4 0,9.1 2.3,11.1 15.2,11.1 13.7,0 15.2,-2.3 15.2,-11.9 z m -22.3,0.5 c 0,-4.4 1,-4.9 6.7,-4.9 6.4,0 7.5,0.2 7.5,4.9 0,4.4 -0.8,5.2 -6.8,5.2 -6.6,0 -7.4,-0.7 -7.4,-5.2 z m 92.6,-0.5 c 0,-8.8 -2.4,-10.6 -15,-10.6 -13.4,0 -15,2.1 -15,11.2 0,9.3 2.3,11.2 15,11.2 13.7,0.1 15,-2.2 15,-11.8 z m -22.2,0.5 c 0,-4.4 1,-4.9 6.7,-4.9 6.4,0 7.5,0.2 7.5,4.9 0,4.4 -0.8,5.2 -6.8,5.2 -6.6,0 -7.4,-0.7 -7.4,-5.2 z M 246.1,396 c 0,-8.8 -2.4,-10.6 -15,-10.6 -13.5,0 -15.2,2.1 -15.2,11.2 0,9.3 2.3,11.2 15.2,11.2 13.7,0.1 15,-2.2 15,-11.8 z m -22,0.5 c 0,-4.4 1,-4.9 6.5,-4.9 6.4,0 7.5,0.2 7.5,4.9 0,4.4 -0.8,5.2 -6.8,5.2 -6.4,0 -7.2,-0.7 -7.2,-5.2 z M 412.5,376.4 V 389 c -1.8,-2.4 -3.4,-3.7 -9.9,-3.7 -10.4,0 -12.4,2.8 -12.4,11.2 0,8.6 2.8,11.1 12.9,11.1 6.4,0 8.3,-1.6 9.8,-4.4 v 3.9 h 7.8 v -30.6 h -8.2 z m -5.7,15 c 4.4,0 5.9,0.6 5.9,4.1 0,5.2 -0.3,5.7 -6.5,5.7 -6.2,0 -7.8,-0.2 -7.8,-4.6 0,-5 1.9,-5.2 8.4,-5.2 z M 146.9,385.3 V 372 c -2.7,-0.7 -4.5,-1 -7.2,-1 -14,0 -26.3,11.7 -26.3,26.3 0,15 12.4,26.2 26.4,26.2 2.5,0 4,-0.3 7.1,-1.1 v -13.6 c -3.1,1.6 -4.7,2 -7.2,2 -7.8,0 -13.7,-6.5 -13.7,-13.7 0,-7.5 5.8,-13.9 13.6,-13.9 2.6,0 4.9,0.7 7.3,2.1 z m 111.6,0.3 h -7.3 v 21.5 H 259 V 396 c 0,-3.3 1.6,-4.4 6,-4.4 4.1,0 5.2,1.5 5.2,5.5 v 9.9 h 8 v -11.4 c 0,-3.1 2.4,-4.1 6.2,-4.1 3.6,0 5.2,1 5.2,4.1 V 407 h 7.8 v -12.7 c 0,-6.4 -3.9,-9.3 -11.1,-9.3 -6.2,0 -8.5,2.3 -9.3,4.7 -1.6,-2.8 -3.9,-4.7 -10.1,-4.7 -5.9,0 -7.5,2 -8.5,5.5 z m 52.7,0 h -7.3 v 21.5 h 7.8 V 396 c 0,-3.3 2,-4.4 5.9,-4.4 4.1,0 5.2,1.3 5.2,5.5 v 9.9 h 8 v -11.4 c 0,-3.1 2.3,-4.1 6,-4.1 3.6,0 5.4,1.1 5.4,4.1 V 407 h 7.8 v -12.7 c 0,-6.4 -3.9,-9.3 -11.1,-9.3 -6.2,0 -8.3,2.1 -9.3,4.7 -1.6,-2.8 -3.9,-4.7 -10.1,-4.7 -5.7,0 -7.2,2 -8.3,5.5 z"
       inkscape:connector-curvature="0"
       style="fill:#ffffff"
       sodipodi:nodetypes="ccccssccsccccccccccccsccsscccscsccccsssccssscssssssssssssscssssssssscssssssccsssccccccsssssccsssccssscccccsssccsssccsscsccccccsssccsssccsscscc" />
    <g
       aria-label="VIC20"
       style="font-style:normal;font-variant:normal;font-weight:normal;font-stretch:normal;font-size:63.66880417px;line-height:1.25;font-family:'Microgramma D OT';-inkscape-font-specification:'Microgramma D OT';letter-spacing:0px;word-spacing:0px;fill:#ffffff;fill-opacity:1;stroke:none;stroke-width:1.32643342"
       id="text19">
      <path
         d="m 616.58045,375.12745 21.0107,42.46709 h 19.801 l 20.75603,-42.46709 h -14.13447 l -15.28052,31.77073 h -2.48308 l -15.47152,-31.77073 z"
         style="font-size:63.66880417px;fill:#ffffff;stroke-width:1.32643342"
         id="path21" />
      <path
         d="m 680.21443,375.12745 v 42.46709 h 13.56146 v -42.46709 z"
         style="font-size:63.66880417px;fill:#ffffff;stroke-width:1.32643342"
         id="path23" />
      <path
         d="m 740.04022,401.23166 c -0.0637,6.30321 -0.25467,6.36688 -14.38915,6.36688 -13.68879,0 -13.87979,-0.19101 -13.87979,-11.0147 0,-6.36688 0.50935,-8.91363 2.0374,-10.12334 1.33704,-1.08237 3.69279,-1.33705 11.71506,-1.33705 2.92876,0 6.74889,0.12734 8.78629,0.25468 2.80143,0.191 3.82013,0.50935 4.32948,1.20971 0.50935,0.70035 0.63669,1.27337 0.76403,3.75646 h 12.92476 v -2.10108 c 0,-7.00356 -1.40071,-10.12334 -5.28451,-11.96973 -2.86509,-1.40071 -6.9399,-1.78273 -17.82726,-1.78273 -21.77473,0 -26.61356,1.08237 -29.03298,6.43055 -1.0187,2.41942 -1.33704,5.98487 -1.33704,15.7262 0,4.90249 0.12734,8.53162 0.25467,10.44168 0.50935,4.77516 1.91007,7.25824 5.02984,8.84996 3.50178,1.78273 8.84996,2.29208 25.02184,2.29208 9.74133,0 14.45282,-0.44568 17.89093,-1.59172 4.39315,-1.59172 6.11221,-4.71149 6.11221,-11.39671 0,-0.63669 -0.0637,-1.59172 -0.12734,-4.01114 z"
         style="font-size:63.66880417px;fill:#ffffff;stroke-width:1.32643342"
         id="path25" />
      <path
         d="m 770.48684,390.91731 v -1.46438 c 0.0637,-3.31078 0.38201,-4.32948 1.52805,-4.77516 1.40072,-0.50935 4.9025,-0.70036 12.79743,-0.70036 6.7489,0 8.59529,0.0637 9.74133,0.44569 1.46438,0.50935 1.91006,1.40071 1.91006,3.75646 0,3.50178 -0.63668,3.82012 -8.08593,4.39314 -4.83883,0.38202 -8.40429,0.70036 -10.76003,0.8277 -4.01114,0.31834 -6.17588,0.50935 -6.62156,0.57302 -7.00357,0.76402 -9.996,2.35574 -11.46038,6.1122 -0.8277,2.10107 -1.08237,5.22084 -1.08237,12.67009 0,2.03741 0,2.67409 0.191,4.83883 h 50.6167 v -9.74132 h -38.7743 v -0.44569 c 0.0637,-2.10107 0.50935,-2.92876 2.10107,-3.56545 0.8277,-0.38201 3.31078,-0.57302 21.13805,-1.71906 7.19457,-0.38201 11.14204,-1.78272 12.98843,-4.52048 1.33705,-2.0374 1.8464,-4.58415 1.8464,-9.55032 0,-6.9399 -1.0187,-9.805 -4.07481,-11.58772 -2.80142,-1.65539 -5.02983,-1.8464 -22.34775,-1.8464 -21.52005,0 -24.19414,1.59172 -24.19414,14.38915 0,0.19101 0,1.14604 0.0637,1.91006 z"
         style="font-size:63.66880417px;fill:#ffffff;stroke-width:1.32643342"
         id="path27" />
      <path
         d="m 841.17514,374.6181 c -7.64026,0 -13.94347,0.25468 -17.12691,0.76403 -5.02984,0.70035 -8.21328,3.62912 -9.04097,8.21327 -0.44568,2.41942 -0.50935,3.8838 -0.50935,12.28808 0,9.61399 0.0637,10.69636 0.50935,13.24311 0.82769,4.58416 4.01113,7.51292 9.04097,8.21328 3.11977,0.50935 9.48665,0.76402 17.12691,0.76402 7.57659,0 13.94347,-0.25467 17.12691,-0.76402 4.96616,-0.70036 8.1496,-3.62912 8.9773,-8.21328 0.50935,-2.54675 0.50935,-3.24711 0.50935,-12.73376 0,-9.55032 0,-10.25068 -0.50935,-12.79743 -0.8277,-4.58415 -4.01114,-7.51292 -8.9773,-8.21327 -3.18344,-0.50935 -9.55032,-0.76403 -17.12691,-0.76403 z m -0.8277,11.0147 c 6.87623,0 10.44169,0.25468 11.8424,0.89137 2.10107,0.95503 2.67409,3.11977 2.67409,9.80499 0,6.23955 -0.50935,8.59529 -2.16474,9.61399 -1.46438,0.8277 -4.64782,1.14604 -12.41542,1.14604 -12.41541,0 -12.86109,-0.38201 -12.86109,-10.95103 0,-5.98487 0.57302,-8.34062 2.16474,-9.35932 1.33704,-0.82769 4.58415,-1.14604 10.76002,-1.14604 z"
         style="font-size:63.66880417px;fill:#ffffff;stroke-width:1.32643342"
         id="path29" />
    </g>
  </g>
</svg>
