<?xml version="1.0" encoding="utf-8"?>
<!DOCTYPE svg PUBLIC "-//W3C//DTD SVG 1.1//EN" "http://www.w3.org/Graphics/SVG/1.1/DTD/svg11.dtd">
<svg version="1.1" id="VARG" xmlns="http://www.w3.org/2000/svg" xmlns:xlink="http://www.w3.org/1999/xlink" x="0px" y="0px"
 width="371px" height="89px" viewBox="0 0 371 89" enable-background="new 0 0 371 89" xml:space="preserve">
<path d="M20.419,86.36h330.984c9.288,0,16.92-7.632,16.92-16.92V20.553c0-9.288-7.632-16.92-16.92-16.92H20.419
c-9.288,0-16.919,7.632-16.919,16.92V69.44C3.5,78.729,11.131,86.36,20.419,86.36z"/>
<path fill="#FFFFFF" d="M20.419,13.244h330.984c3.996,0,7.308,3.276,7.308,7.309V69.44c0,4.032-3.312,7.308-7.308,7.308H20.419
c-3.996,0-7.308-3.276-7.308-7.308V20.553C13.112,16.521,16.423,13.244,20.419,13.244z"/>
<path d="M289.627,40.316h-11.808c-0.828-2.88-3.528-5.04-6.66-5.04h-18c-3.816,0-6.912,3.132-6.912,6.912v7.74
c0,3.816,3.132,6.912,6.912,6.912h18c3.348,0,6.156-2.448,6.768-5.616h11.7v2.016c0,7.02-5.796,12.78-12.852,12.78h-29.232
c-7.056,0-12.852-5.76-12.852-12.78V38.913c0-7.092,5.796-12.852,12.852-12.852h29.232c7.056,0,12.852,5.796,12.852,12.852V40.316z"
/>
<path d="M79.136,40.316H67.328c-0.828-2.88-3.492-5.04-6.66-5.04h-18c-3.78,0-6.912,3.132-6.912,6.912v7.74
c0,3.816,3.132,6.912,6.912,6.912h18c3.348,0,6.192-2.448,6.804-5.616h11.664v2.016c0,7.02-5.796,12.78-12.852,12.78H37.051
c-7.056,0-12.816-5.76-12.816-12.78V38.913c0-7.092,5.76-12.852,12.816-12.852h29.232c7.056,0,12.852,5.796,12.852,12.852V40.316z"
/>
<path d="M304.567,26.061h30.996c7.056,0,12.852,5.76,12.852,12.852v14.328c0,7.02-5.796,12.78-12.852,12.78h-30.996
c-7.055,0-12.816-5.76-12.816-12.78V38.913C291.751,31.82,297.512,26.061,304.567,26.061z"/>
<path d="M94.363,26.061h30.996c7.056,0,12.816,5.76,12.816,12.852v14.328c0,7.02-5.76,12.78-12.816,12.78H94.363
c-7.056,0-12.851-5.76-12.851-12.78V38.913C81.512,31.82,87.308,26.061,94.363,26.061z"/>
<path d="M200.096,42.117h30.456v7.92h-30.456v6.804h32.472v9.18c-14.976,0-29.952,0-44.964,0v-39.96c15.012,0,29.988,0,44.964,0
v9.216h-32.472V42.117z"/>
<path d="M154.627,55.94h28.98v10.08c-13.824,0-27.648,0-41.472,0v-39.96h12.492V55.94z"/>
<path fill="#FFFFFF" d="M310.507,35.276h19.152c3.78,0,6.913,3.132,6.913,6.912v7.74c0,3.816-3.133,6.912-6.913,6.912h-19.152
c-3.816,0-6.947-3.096-6.947-6.912v-7.74C303.56,38.409,306.691,35.276,310.507,35.276z"/>
<path fill="#FFFFFF" d="M100.268,35.276h19.152c3.816,0,6.948,3.132,6.948,6.912v7.74c0,3.816-3.132,6.912-6.948,6.912h-19.152
c-3.78,0-6.912-3.096-6.912-6.912v-7.74C93.355,38.409,96.487,35.276,100.268,35.276z"/>
</svg>
