<?xml version="1.0" encoding="UTF-8" standalone="no"?>
<!-- Created with Inkscape (http://www.inkscape.org/) -->

<svg
   xmlns:dc="http://purl.org/dc/elements/1.1/"
   xmlns:cc="http://creativecommons.org/ns#"
   xmlns:rdf="http://www.w3.org/1999/02/22-rdf-syntax-ns#"
   xmlns:svg="http://www.w3.org/2000/svg"
   xmlns="http://www.w3.org/2000/svg"
   xmlns:xlink="http://www.w3.org/1999/xlink"
   xmlns:sodipodi="http://sodipodi.sourceforge.net/DTD/sodipodi-0.dtd"
   xmlns:inkscape="http://www.inkscape.org/namespaces/inkscape"
   width="302.34122"
   height="66.533737"
   viewBox="0 0 79.994444 17.603718"
   version="1.1"
   id="svg9136"
   inkscape:version="0.92.4 (5da689c313, 2019-01-14)"
   sodipodi:docname="custom-collections.svg"
   inkscape:export-filename="D:\EMU\artwork\svg\ES Custom Logos\custom systems\Collections_udb_new.png"
   inkscape:export-xdpi="380.91953"
   inkscape:export-ydpi="380.91953">
  <defs
     id="defs9130">
    <linearGradient
       inkscape:collect="always"
       id="linearGradient4549">
      <stop
         style="stop-color:#ffcf64;stop-opacity:1"
         offset="0"
         id="stop4545" />
      <stop
         style="stop-color:#d09236;stop-opacity:1"
         offset="1"
         id="stop4547" />
    </linearGradient>
    <radialGradient
       inkscape:collect="always"
       xlink:href="#linearGradient4549"
       id="radialGradient4553"
       cx="56.144241"
       cy="262.75497"
       fx="56.144241"
       fy="262.75497"
       r="39.814793"
       gradientTransform="matrix(1.2359333,-0.00469653,9.9852431e-4,0.26276895,-12.85409,202.79627)"
       gradientUnits="userSpaceOnUse" />
  </defs>
  <sodipodi:namedview
     id="base"
     pagecolor="#ffffff"
     bordercolor="#666666"
     borderopacity="1.0"
     inkscape:pageopacity="0.0"
     inkscape:pageshadow="2"
     inkscape:zoom="4"
     inkscape:cx="154.55967"
     inkscape:cy="70.586638"
     inkscape:document-units="px"
     inkscape:current-layer="text4594"
     showgrid="false"
     units="px"
     inkscape:window-width="1920"
     inkscape:window-height="1017"
     inkscape:window-x="1912"
     inkscape:window-y="-8"
     inkscape:window-maximized="1"
     fit-margin-top="0"
     fit-margin-left="0"
     fit-margin-right="0"
     fit-margin-bottom="0"
     inkscape:snap-global="true" />
  <metadata
     id="metadata9133">
    <rdf:RDF>
      <cc:Work
         rdf:about="">
        <dc:format>image/svg+xml</dc:format>
        <dc:type
           rdf:resource="http://purl.org/dc/dcmitype/StillImage" />
        <dc:title></dc:title>
      </cc:Work>
    </rdf:RDF>
  </metadata>
  <g
     inkscape:label="Layer 1"
     inkscape:groupmode="layer"
     id="layer1"
     transform="translate(-15.591072,-266.7455)">
    <g
       aria-label="All Games"
       style="font-style:normal;font-variant:normal;font-weight:normal;font-stretch:normal;font-size:20.44046021px;line-height:12.77528667px;font-family:'namco regular';-inkscape-font-specification:'namco regular, ';letter-spacing:0px;word-spacing:0px;fill:#fbe01b;fill-opacity:1;stroke:none;stroke-width:0.51101148px;stroke-linecap:butt;stroke-linejoin:miter;stroke-opacity:1"
       id="text4594">
      <g
         style="font-style:normal;font-variant:normal;font-weight:normal;font-stretch:normal;font-size:medium;line-height:4.55890989px;font-family:'namco regular';-inkscape-font-specification:'namco regular, ';letter-spacing:0px;word-spacing:0px;fill:#000000;fill-opacity:1;stroke:none;stroke-width:0.18235639px;stroke-linecap:butt;stroke-linejoin:miter;stroke-opacity:1"
         id="g5800"
         transform="matrix(1.0739809,0,0,1.0409275,-13.009456,-27.305019)">
        <path
           style="font-style:normal;font-variant:normal;font-weight:normal;font-stretch:normal;line-height:8.9508543px;font-family:Guardians;-inkscape-font-specification:Guardians;text-align:center;text-anchor:middle;stroke-width:0.18235639px"
           d="m 61.550781,286.39453 c -1.770371,0.0412 -3.55565,-0.013 -5.324219,0.0274 -0.479594,0.27533 -0.106654,0.9508 -0.230756,1.38671 0.01709,2.11556 -0.04311,4.25448 0.0374,6.35547 0.354013,0.38785 0.961447,0.0617 1.416016,0.17618 1.492667,-0.0172 3.012311,0.0435 4.488281,-0.0434 0.372895,-0.3728 0.05798,-0.97442 0.167337,-1.44206 0.05636,-0.42068 0.04426,-1.11298 -0.557962,-0.98959 -1.03117,0.0376 -2.069533,-0.003 -3.103516,0.0117 -0.04785,-0.53635 0.739674,-0.15692 1.043358,-0.27187 0.815248,-0.0145 1.65826,0.0423 2.456642,-0.0465 0.362269,-0.37824 0.0536,-0.97253 0.161478,-1.4401 0.05704,-0.41922 0.04307,-1.11352 -0.557962,-0.98763 -1.031465,0.0368 -2.069452,-0.003 -3.103516,0.0117 -0.04666,-0.5386 0.738148,-0.1556 1.043359,-0.27266 0.814734,-0.0186 1.661014,0.0468 2.456641,-0.0476 0.363497,-0.37707 0.05293,-0.97121 0.161478,-1.43816 0.01263,-0.44413 0.107998,-1.09312 -0.554056,-0.98958 z m 14.388672,0 c -2.074385,0.0403 -4.163733,-0.0123 -6.236328,0.0274 -0.472667,0.29646 -0.113641,0.97085 -0.231542,1.42839 -0.04496,0.42346 -0.06722,1.15282 0.555761,1.03059 0.572193,-0.0414 1.14951,0.006 1.724609,-0.0117 0.01952,1.76498 -0.04856,3.55561 0.04102,5.30469 0.377295,0.36969 0.975176,0.0569 1.443965,0.16658 0.420947,0.056 1.111608,0.0428 0.989628,-0.55916 -0.03417,-1.63327 9.96e-4,-3.27549 -0.01172,-4.91211 0.703358,-0.0208 1.4348,0.0521 2.121094,-0.0469 0.363885,-0.41401 0.04038,-1.0389 0.162954,-1.53802 0.02944,-0.42598 0.03905,-0.99325 -0.559439,-0.88972 z m -42.388672,0.0176 c -1.729113,-0.002 -3.472671,-0.0201 -5.195312,0.0137 -0.418842,0.31521 -0.821412,0.70422 -1.117188,1.12891 -0.05026,1.88281 -0.0195,3.78844 -0.0059,5.67969 0.505387,0.41199 0.866527,1.26906 1.636709,1.09298 1.714866,0.008 3.439708,0.0319 5.148447,-0.007 0.459853,-0.30596 0.102718,-0.96774 0.221776,-1.42449 0.0455,-0.42297 0.06607,-1.15446 -0.55576,-1.03059 -1.330664,0.036 -2.669946,-0.002 -4.003906,0.0117 0,-1.0026 -10e-7,-2.00521 0,-3.00781 1.150582,-0.0118 2.324138,0.0313 3.460937,-0.0332 0.457372,-0.54169 0.665566,-1.26747 1.014983,-1.88487 0.28581,-0.4516 -0.247676,-0.6388 -0.604827,-0.53896 z m 9.777344,0.004 c -0.530046,0.0379 -1.143599,-0.1345 -1.623047,0.0898 -0.249103,0.47605 -0.0061,1.08097 -0.100069,1.60273 0.01531,2.01556 -0.03942,4.05449 0.03952,6.05547 0.351712,0.38845 -0.235488,0.0389 0.218383,0.15331 1.485839,-0.0131 4.193104,0.05 5.66443,-0.0126 0.455091,-0.50298 0.620645,-1.21452 0.982422,-1.78907 0.355957,-0.42597 -0.170631,-0.7877 -0.574219,-0.63281 -1.287894,-0.0136 -2.578341,-0.002 -3.867188,-0.006 -0.01816,-1.76416 0.04625,-3.5553 -0.04297,-5.30273 -0.151341,-0.23777 -0.462716,-0.18226 -0.697266,-0.1582 z m 7.193359,0 c -0.529242,0.0379 -1.142792,-0.13458 -1.621093,0.0898 -0.25089,0.47498 -0.0053,1.08144 -0.10007,1.60273 0.01662,2.01556 -0.04203,4.05449 0.03757,6.05547 0.353992,0.38787 -0.247063,0.0731 0.207495,0.18701 1.486494,-0.0131 4.205289,0.0163 5.67727,-0.0463 0.453768,-0.50435 0.622313,-1.21491 0.982422,-1.79102 0.352534,-0.42658 -0.171088,-0.78644 -0.574219,-0.63086 -1.288531,-0.014 -2.579663,-0.002 -3.86914,-0.006 -0.01953,-1.76416 0.04858,-3.5553 -0.04102,-5.30273 -0.151814,-0.23846 -0.46414,-0.18181 -0.699219,-0.1582 z m 18.089844,-0.004 c -1.729113,-0.002 -3.472671,-0.0201 -5.195312,0.0137 -0.418425,0.31577 -0.818387,0.7071 -1.117188,1.12891 -0.04965,1.88281 -0.02119,3.78848 -0.0039,5.67969 0.505309,0.41127 0.864326,1.26992 1.634756,1.09298 1.714866,0.008 3.439708,0.0319 5.148447,-0.007 0.457929,-0.30737 0.103955,-0.96744 0.221776,-1.42449 0.0455,-0.42297 0.06607,-1.15446 -0.55576,-1.03059 -1.330638,0.036 -2.669948,-0.002 -4.003907,0.0117 v -3.00781 c 1.150583,-0.0118 2.324139,0.0313 3.460938,-0.0332 0.457372,-0.54169 0.665566,-1.26747 1.014983,-1.88487 0.28581,-0.4516 -0.247676,-0.6388 -0.604827,-0.53896 z m 9.777344,0.004 c -0.529801,0.037 -1.139523,-0.13219 -1.621094,0.0879 -0.254567,0.47412 -0.0049,1.08349 -0.102022,1.60468 0.01531,2.01556 -0.03942,4.05449 0.03952,6.05547 0.363943,0.38773 0.978106,0.0637 1.445918,0.17635 0.420047,0.0555 1.115282,0.0435 0.989629,-0.55916 -0.04839,-2.39346 0.04255,-4.81749 -0.05078,-7.19922 -0.143923,-0.2458 -0.466608,-0.18977 -0.701172,-0.16601 z m 14.388672,0 c -0.528142,0.0295 -1.113022,-0.1073 -1.607422,0.0684 -0.285123,0.4819 -0.0077,1.09868 -0.113281,1.62968 v 1.81563 c -0.586519,-1.14714 -1.136218,-2.34016 -1.765625,-3.44922 -0.752811,-0.18647 -1.566387,-0.006 -2.341011,-0.0708 -0.648941,-0.0687 -0.416895,0.71206 -0.452073,1.09889 0.01752,2.21556 -0.04411,4.45448 0.03722,6.65547 0.366149,0.38715 0.977557,0.0641 1.445919,0.17635 0.420912,0.0554 1.113712,0.0439 0.989628,-0.55916 -0.03797,-0.98499 0.0035,-1.97706 -0.01172,-2.96484 0.58788,1.14605 1.134314,2.34327 1.765625,3.44921 0.703361,0.18087 1.466281,0.0106 2.191407,0.0762 0.502613,0.15236 0.720454,-0.3462 0.59375,-0.74805 0.0015,-2.33276 0.04565,-4.69223 -0.03125,-7.01172 -0.143923,-0.2458 -0.466608,-0.18977 -0.701172,-0.16601 z m 7.318356,-0.002 c -1.751767,-0.007 -3.519683,-0.0208 -5.265622,0.0117 -0.418842,0.31521 -0.821411,0.70422 -1.117187,1.12891 -0.02755,0.98105 -0.06519,2.00572 0.02539,2.97656 0.492951,0.4074 0.849453,1.23376 1.603436,1.06752 0.975174,0.0154 1.95059,0.002 2.925861,0.005 -0.0121,0.56233 -0.882652,0.13616 -1.247265,0.27263 -1.052381,0.0184 -2.135435,-0.0466 -3.168751,0.0477 -0.359027,0.37915 -0.05423,0.97095 -0.161477,1.43815 -0.05414,0.42087 -0.04428,1.11026 0.557962,0.98958 1.485605,-0.055 3.008923,0.0529 4.478515,-0.0586 0.662591,-0.63903 1.344578,-1.28696 1.951168,-1.9668 0.0545,-0.99989 0.073,-2.03875 -0.0117,-3.02344 -0.39532,-0.3739 -1.02474,-0.0389 -1.508208,-0.16015 h -3.021093 c -0.01096,-0.55427 0.809862,-0.14245 1.147265,-0.27253 0.79037,-0.0253 1.629384,0.0602 2.389844,-0.0615 0.410102,-0.6768 0.759632,-1.41165 1.044922,-2.14843 -0.019,-0.29449 -0.40628,-0.28288 -0.62305,-0.2461 z m -64.490231,-0.004 c -0.458589,0.27539 -0.861518,0.72044 -1.173828,1.14453 -0.04485,1.88295 -0.02135,3.78855 -0.0039,5.67969 0.505722,0.41116 0.86494,1.26881 1.634752,1.09359 1.413297,0.002 2.847133,0.0416 4.248061,-0.0155 0.400537,-0.34073 0.840132,-0.70632 1.105469,-1.15039 0.0209,-1.88352 0.05647,-3.80861 -0.02734,-5.67773 -0.493878,-0.40756 -0.849614,-1.24181 -1.605435,-1.07031 -1.392492,-0.0187 -2.785206,-0.005 -4.177768,-0.004 z m 44.890625,0 c -0.458629,0.27376 -0.859218,0.72146 -1.173828,1.14648 -0.04408,1.8828 -0.02189,3.78713 -0.0039,5.67774 0.505386,0.4122 0.866531,1.26855 1.636705,1.09359 1.413297,0.002 2.847133,0.0416 4.248061,-0.0155 0.390914,-0.38058 0.959174,-0.71484 1.121262,-1.2488 -0.02261,-1.85398 0.05241,-3.74235 -0.04509,-5.57932 -0.493397,-0.40794 -0.84905,-1.24237 -1.605435,-1.07031 -1.392492,-0.0187 -2.785206,-0.005 -4.177768,-0.004 z m -41.525391,2.45898 v 3.00781 h -2.097656 v -3.00781 z m 44.890625,0 v 3.00781 h -2.097656 v -3.00781 z"
           id="path5798"
           inkscape:connector-curvature="0"
           sodipodi:nodetypes="cccccccccccccccccccccccccccccccccccccccccccccccccccccccccccccccccccccccccccccccccccccccccccccccccccccccccccccccccccccccccccccccccccccccccccccccccccccccccccccccc" />
      </g>
      <path
         id="path5742"
         style="font-style:normal;font-variant:normal;font-weight:normal;font-stretch:normal;font-size:medium;line-height:8.9508543px;font-family:Guardians;-inkscape-font-specification:Guardians;text-align:center;letter-spacing:0px;word-spacing:0px;text-anchor:middle;fill:url(#radialGradient4553);fill-opacity:1;stroke:none;stroke-width:0.19280998px;stroke-linecap:butt;stroke-linejoin:miter;stroke-opacity:1"
         d="m 17.580536,271.18604 -0.979012,0.94888 v 5.6949 l 0.979012,0.94887 h 5.875731 v -1.89829 h -4.896721 v -3.79606 h 3.917155 l 0.979566,-1.8983 z m 7.726639,0 -0.979012,0.94888 v 5.6949 l 0.979012,0.94887 h 4.896166 l 0.979567,-0.94887 v -5.6949 l -0.979567,-0.94888 z m 6.74763,0 v 7.59265 h 5.875734 l 0.979009,-1.89829 h -4.896166 v -5.69436 z m 7.726641,0 v 7.59265 h 5.875731 l 0.979013,-1.89829 h -4.896166 v -5.69436 z m 7.727195,0 v 7.59265 h 5.875178 V 276.8804 H 49.46722 v -0.94887 h 3.916599 v -1.8983 H 49.46722 v -0.94889 h 3.916599 v -1.8983 z m 7.72664,0 -0.979012,0.94888 v 5.6949 l 0.979012,0.94887 h 5.875178 v -1.89829 h -4.896166 v -3.79606 h 3.917154 l 0.979012,-1.8983 z m 6.74763,0 v 1.8983 h 2.448082 v 5.69435 h 1.958577 v -5.69435 h 2.448086 v -1.8983 z m 7.726639,0 v 7.59265 h 1.958578 v -7.59265 z m 3.810043,0 -0.979568,0.94888 v 5.6949 l 0.979568,0.94887 h 4.896166 l 0.979011,-0.94887 v -5.6949 l -0.979011,-0.94888 z m 6.747629,0 v 7.59265 h 1.958024 v -4.74546 l 2.448081,4.74546 h 2.448085 v -7.59265 h -1.958024 v 4.74549 l -2.448082,-4.74549 z m 8.705646,0 -0.979005,0.94888 v 2.84772 l 0.979005,0.94889 h 3.917162 v 0.94887 h -4.896167 v 1.89829 h 4.896167 l 1.958576,-1.89829 v -2.84717 h -4.896171 v -0.94889 h 3.917728 l 0.978443,-1.8983 z m -62.686126,1.8983 h 2.937588 v 3.79606 h -2.937588 z m 48.211861,0 h 2.937589 v 3.79606 h -2.937589 z"
         inkscape:connector-curvature="0"
         sodipodi:nodetypes="cccccccccccccccccccccccccccccccccccccccccccccccccccccccccccccccccccccccccccccccccccccccccccccccccccccccccccccccccccccc" />
      <g
         style="font-style:normal;font-variant:normal;font-weight:normal;font-stretch:normal;font-size:medium;line-height:4.55890989px;font-family:'namco regular';-inkscape-font-specification:'namco regular, ';letter-spacing:0px;word-spacing:0px;fill:#3aaae2;fill-opacity:1;stroke:none;stroke-width:0.18235639px;stroke-linecap:butt;stroke-linejoin:miter;stroke-opacity:1"
         transform="matrix(1.0739809,0,0,1.0409275,-12.030444,-28.586593)"
         id="g5777" />
      <g
         style="font-style:normal;font-variant:normal;font-weight:normal;font-stretch:normal;font-size:medium;line-height:4.55890989px;font-family:'namco regular';-inkscape-font-specification:'namco regular, ';letter-spacing:0px;word-spacing:0px;fill:#000000;fill-opacity:1;stroke:none;stroke-width:0.18235639px;stroke-linecap:butt;stroke-linejoin:miter;stroke-opacity:1"
         id="g5796"
         transform="matrix(1.0739809,0,0,1.0409275,-12.030444,-28.586593)" />
    </g>
  </g>
</svg>
