<?xml version="1.0" encoding="UTF-8" standalone="no"?>
<!-- Generator: Adobe Illustrator 13.0.0, SVG Export Plug-In . SVG Version: 6.00 Build 14948)  -->

<svg
   xmlns:dc="http://purl.org/dc/elements/1.1/"
   xmlns:cc="http://creativecommons.org/ns#"
   xmlns:rdf="http://www.w3.org/1999/02/22-rdf-syntax-ns#"
   xmlns:svg="http://www.w3.org/2000/svg"
   xmlns="http://www.w3.org/2000/svg"
   xmlns:sodipodi="http://sodipodi.sourceforge.net/DTD/sodipodi-0.dtd"
   xmlns:inkscape="http://www.inkscape.org/namespaces/inkscape"
   version="1.2"
   id="Layer_1"
   x="0px"
   y="0px"
   width="560.65277"
   height="60.919998"
   viewBox="0 0 560.65278 60.919997"
   xml:space="preserve"
   inkscape:version="0.91 r13725"
   sodipodi:docname="system.svg"><metadata
     id="metadata31"><rdf:RDF><cc:Work
         rdf:about=""><dc:format>image/svg+xml</dc:format><dc:type
           rdf:resource="http://purl.org/dc/dcmitype/StillImage" /><dc:title></dc:title></cc:Work></rdf:RDF></metadata><defs
     id="defs29" /><sodipodi:namedview
     pagecolor="#ffffff"
     bordercolor="#666666"
     borderopacity="1"
     objecttolerance="10"
     gridtolerance="10"
     guidetolerance="10"
     inkscape:pageopacity="0"
     inkscape:pageshadow="2"
     inkscape:window-width="1366"
     inkscape:window-height="706"
     id="namedview27"
     showgrid="false"
     fit-margin-top="0"
     fit-margin-left="0"
     fit-margin-right="0"
     fit-margin-bottom="0"
     inkscape:zoom="1.0159985"
     inkscape:cx="280.35687"
     inkscape:cy="32.577846"
     inkscape:window-x="-8"
     inkscape:window-y="-8"
     inkscape:window-maximized="1"
     inkscape:current-layer="Layer_1" /><g
     id="g3383"
     transform="matrix(1.9133916,0,0,1.9133916,-20.357702,-18.942079)"
     style="fill:#d70000;fill-opacity:1"><g
       transform="translate(-473.24219,-349.43433)"
       id="g3348"
       style="fill:#d70000;fill-opacity:1"><g
         id="g3361"
         style="fill:#d70000;fill-opacity:1"><path
           d="m 508.86523,368.85907 c -2.0075,-2.84625 -5.31875,-4.7025 -9.065,-4.7025 -6.13125,0 -11.09625,4.9675 -11.09625,11.095 0,6.12625 4.965,11.09375 11.09625,11.09375 4.4475,0 8.285,-2.62125 10.05625,-6.40125 l -9.79375,0 0,-5.045 15.64125,0 c 0.005,0.11875 0.009,0.235 0.009,0.3525 0,1.63125 -0.24375,3.20875 -0.70125,4.6925 -2.0012,6.49875 -8.0537,11.22875 -15.2112,11.22875 -8.79125,0 -15.91875,-7.13125 -15.91875,-15.92125 0,-8.7925 7.1275,-15.9175 15.91875,-15.9175 6.515,0 12.1125,3.91875 14.57625,9.525 l -5.51125,0 z"
           id="path68"
           style="fill:#d70000;fill-opacity:1;fill-rule:nonzero;stroke:none"
           inkscape:connector-curvature="0" /><path
           d="m 532.59898,359.64907 0,0.001 -20.1125,30.2875 6.22625,0 4.29625,-6.46875 9.59,0 0,6.48125 5.1875,0 0,-30.30125 -5.1875,0 z m -6.14625,18.63125 6.14625,-9.2525 0,9.2525 -6.14625,0 z"
           id="path70"
           style="fill:#d70000;fill-opacity:1;fill-rule:nonzero;stroke:none"
           inkscape:connector-curvature="0" /><path
           d="m 578.40773,359.64907 0,0.001 -13.87,20.87875 0,-20.88 -5.1875,0 0,10e-4 -20.11375,30.2875 6.2325,0 13.88125,-20.91 0,20.9225 5.1875,0 0,-0.0362 13.87,-20.88625 0,20.9225 5.18625,0 0,-30.30125 -5.18625,0 z"
           id="path72"
           style="fill:#d70000;fill-opacity:1;fill-rule:nonzero;stroke:none"
           inkscape:connector-curvature="0" /><path
           d="m 603.54773,364.83782 0,-5.18875 -15.7575,0 0,30.30875 5.18625,-0.02 10.57125,0 0,-5.18875 -10.57125,0 0,-7.0625 10.57125,0 0,-5.18625 -10.57125,0 0,-7.6625 10.57125,0 z"
           id="path74"
           style="fill:#d70000;fill-opacity:1;fill-rule:nonzero;stroke:none"
           inkscape:connector-curvature="0" /></g></g><path
       d="m 163.33335,30.546615 c 1.6625,-3.7425 4.16,-9.36875 4.16,-9.36875 l -5.08875,0 -2.67875,6.03875 -3.98875,-3.68375 c 1.82625,-1.4675 3.43,-3.32375 3.43,-6.42 0,-1.66125 -0.6575,-3.23125 -1.84125,-4.42125 -1.355,-1.35125 -3.26125,-2.12625 -5.2375,-2.12625 -3.42375,0 -6.96875,2.44875 -6.96875,6.5475 0,2.855 1.5725,4.7 3.13375,6.06625 -2.89125,2.0475 -5.40875,4.2275 -5.40875,8.72375 0,2.55125 0.92375,4.8725 2.59875,6.5475 1.68875,1.69125 4.0475,2.6225 6.645,2.6225 4.9175,0 7.3575,-2.38 9.22625,-6.06 l 6.0325,5.57625 3.16,-3.415 -7.17375,-6.6275 z M 150.2596,15.927865 c 0.43875,-0.44 1.1425,-0.71 1.82875,-0.71 0.73125,0 1.475,0.2925 1.94625,0.7625 0.32625,0.325 0.485,0.69375 0.485,1.1325 0,1.30625 -0.62625,2.0175 -2.3375,3.2825 -1.49625,-1.1975 -2.41125,-2.0325 -2.41125,-3.2825 0,-0.465 0.16,-0.855 0.48875,-1.185 m 7.37875,15.9875 c -1.605,3.57625 -2.745,4.5025 -5.55,4.5025 -1.3775,0 -2.535,-0.43625 -3.3575,-1.2525 -0.80875,-0.81125 -1.23375,-1.93875 -1.23375,-3.2625 0,-2.445 1.25625,-3.41375 4.35,-5.5575 0.0163,-0.01 0.0338,-0.0238 0.045,-0.0338 l 5.83875,5.39375 -0.0925,0.21 z"
       id="path86"
       style="fill:#d70000;fill-opacity:1;fill-rule:nonzero;stroke:none"
       inkscape:connector-curvature="0" /><g
       transform="translate(-473.24219,-346.60938)"
       id="g3354"
       style="fill:#d70000;fill-opacity:1"><path
         inkscape:connector-curvature="0"
         style="fill:#d70000;fill-opacity:1;fill-rule:nonzero;stroke:none"
         id="path76"
         d="m 702.97319,357.571 0,0 -20.11125,30.28875 6.22625,0 4.29625,-6.4675 9.58875,0 0,6.4825 5.19,0 0,-30.30375 -5.19,0 z m -6.14625,18.635 6.14625,-9.25125 0,9.25125 -6.14625,0 z" /><path
         inkscape:connector-curvature="0"
         style="fill:#d70000;fill-opacity:1;fill-rule:nonzero;stroke:none"
         id="path78"
         d="m 660.53569,387.87475 0,-0.001 13.86375,-20.885 0,20.88625 5.1875,0 0,-10e-4 0,0 20.11375,-30.28875 -6.22875,0 -13.885,20.90625 0,-20.92 -5.1875,0 0,0.04 -13.86375,20.88 0,-20.92 -5.19,0 0,30.30375 5.19,0 z" /><path
         inkscape:connector-curvature="0"
         style="fill:#d70000;fill-opacity:1;fill-rule:nonzero;stroke:none"
         id="path80"
         d="m 771.70819,357.571 0,12.2 -9.36625,0 0,-12.2 -5.18625,0 0,30.29875 5.18625,0 0,-12.9075 9.36625,0 0,12.9075 5.18875,0 0,-30.29875 -5.18875,0 z" /><path
         inkscape:connector-curvature="0"
         style="fill:#d70000;fill-opacity:1;fill-rule:nonzero;stroke:none"
         id="path82"
         d="m 727.12319,357.571 -16.9325,0 0,5.18625 5.87375,0 0,25.1125 5.18875,0 0,-25.1125 5.87,0 0,-5.18625 z" /><path
         inkscape:connector-curvature="0"
         style="fill:#d70000;fill-opacity:1;fill-rule:nonzero;stroke:none"
         id="path84"
         d="m 749.82444,379.7035 c -1.9925,2.21375 -4.87375,3.6025 -8.08625,3.6025 -6.0125,0 -10.885,-4.87125 -10.885,-10.87875 0,-6.01 4.8725,-10.88125 10.885,-10.88125 3.16125,0 6.01,1.42125 7.995,3.605 l 6.0775,0 c -2.65625,-5.0525 -7.9625,-8.6225 -14.0725,-8.6225 -8.78,0 -15.8975,7.11875 -15.8975,15.89875 0,8.77875 7.1175,15.90125 15.8975,15.90125 6.15375,0 11.48875,-3.51 14.13125,-8.625 l -6.045,0 z" /></g></g></svg>