<?xml version="1.0" encoding="UTF-8" standalone="no"?>
<svg
   xmlns:dc="http://purl.org/dc/elements/1.1/"
   xmlns:cc="http://creativecommons.org/ns#"
   xmlns:rdf="http://www.w3.org/1999/02/22-rdf-syntax-ns#"
   xmlns:svg="http://www.w3.org/2000/svg"
   xmlns="http://www.w3.org/2000/svg"
   xmlns:sodipodi="http://sodipodi.sourceforge.net/DTD/sodipodi-0.dtd"
   xmlns:inkscape="http://www.inkscape.org/namespaces/inkscape"
   viewBox="0 0 600.27198 171.83996"
   height="171.83997"
   width="600.27197"
   xml:space="preserve"
   version="1.1"
   id="svg2"
   sodipodi:docname="GBH.svg"
   inkscape:version="0.92.4 (5da689c313, 2019-01-14)"><sodipodi:namedview
     pagecolor="#ffffff"
     bordercolor="#666666"
     borderopacity="1"
     objecttolerance="10"
     gridtolerance="10"
     guidetolerance="10"
     inkscape:pageopacity="0"
     inkscape:pageshadow="2"
     inkscape:window-width="1920"
     inkscape:window-height="1018"
     id="namedview52"
     showgrid="false"
     inkscape:zoom="1.1421655"
     inkscape:cx="281.23759"
     inkscape:cy="34.838317"
     inkscape:window-x="-8"
     inkscape:window-y="-8"
     inkscape:window-maximized="1"
     inkscape:current-layer="svg2" /><metadata
     id="metadata8"><rdf:RDF><cc:Work
         rdf:about=""><dc:format>image/svg+xml</dc:format><dc:type
           rdf:resource="http://purl.org/dc/dcmitype/StillImage" /><dc:title></dc:title></cc:Work></rdf:RDF></metadata><defs
     id="defs6"><clipPath
       id="clipPath16"
       clipPathUnits="userSpaceOnUse"><path
         id="path18"
         d="M 0,618.062 H 1949.984 V 0 H 0 Z"
         inkscape:connector-curvature="0" /></clipPath></defs><g
     id="g955"><g
       aria-label="HACKS"
       style="font-style:normal;font-variant:normal;font-weight:normal;font-stretch:normal;font-size:157.88580322px;line-height:1.25;font-family:'Arabic Typesetting';-inkscape-font-specification:'Arabic Typesetting';letter-spacing:0px;word-spacing:0px;fill:#ff0000;fill-opacity:1;stroke:none;stroke-width:3.94714546"
       id="text913"><path
         d="M 187.37265,120.83693 V 97.709127 q 0,-1.850224 -0.30837,-3.083707 -0.23128,-1.233483 -1.23348,-2.00441 -0.92511,-0.848019 -2.77534,-1.233483 -1.85022,-0.385463 -5.08811,-0.539648 l 0.15418,-2.775337 q 1.23348,0 2.92952,0.07709 1.77313,0 3.70045,0 2.00441,0 4.08591,0.07709 2.08151,0 3.93173,0 1.46476,0 3.23789,0 1.77313,-0.07709 3.46917,-0.07709 1.77313,0 3.31499,0 1.54185,-0.07709 2.62115,-0.07709 l 0.15418,2.621151 q -3.00661,0.231278 -4.85683,0.770927 -1.77314,0.462556 -2.77534,1.541854 -1.00221,1.002204 -1.38767,2.852429 -0.30837,1.850224 -0.30837,4.702657 v 51.88337 q 0,1.85022 0.30837,3.0837 0.30837,1.23349 1.23348,2.08151 1.00221,0.77092 2.92953,1.15639 1.92731,0.38546 5.16521,0.53965 l -0.15419,2.77533 q -1.23348,0 -3.00661,0 -1.77314,-0.0771 -3.77755,-0.0771 -2.00441,0 -4.08591,0 -2.0815,-0.0771 -3.93172,-0.0771 -1.54186,0 -3.31499,0.0771 -1.69604,0 -3.39208,0 -1.69604,0 -3.23789,0.0771 -1.46476,0 -2.54406,0 l -0.23128,-2.62115 q 3.00662,-0.23128 4.77975,-0.69383 1.77313,-0.53965 2.77534,-1.54186 1.0022,-1.07929 1.31057,-2.85243 0.30837,-1.85022 0.30837,-4.77974 v -24.2071 h -41.24458 v 27.05953 q 0,1.85022 0.23128,3.0837 0.30837,1.23349 1.23348,2.08151 1.00221,0.77092 2.85243,1.15639 1.85022,0.38546 5.08812,0.53965 l -0.15419,2.77533 q -1.23348,0 -3.00661,0 -1.69604,-0.0771 -3.70045,-0.0771 -1.92732,-0.0771 -4.00882,-0.0771 -2.0815,-0.0771 -3.93173,-0.0771 -1.46476,0 -3.23789,0.0771 -1.77313,0 -3.54626,0 -1.69604,0 -3.2379,0.0771 -1.54185,0 -2.62115,0 l -0.15418,-2.62115 q 3.00661,-0.23128 4.77974,-0.69384 1.85023,-0.53964 2.85243,-1.54185 1.00221,-1.0793 1.31058,-2.85243 0.38546,-1.85022 0.38546,-4.77974 V 97.709127 q 0,-1.850224 -0.30837,-3.083707 -0.30837,-1.233483 -1.31057,-2.00441 -0.92512,-0.848019 -2.85243,-1.233483 -1.92732,-0.385463 -5.16521,-0.539648 l 0.15418,-2.775337 h 3.39208 q 1.92732,0 3.85463,0.07709 2.00441,0 3.85464,0 h 6.78415 q 1.77314,0 3.46917,0 1.77314,-0.07709 3.31499,-0.07709 h 2.62115 l 0.23128,2.621151 q -3.00662,0.231278 -4.77975,0.770927 -1.77313,0.462556 -2.77533,1.541854 -1.00221,1.002204 -1.31058,2.852429 -0.30837,1.850224 -0.30837,4.702657 v 20.27537 z"
         style="fill:#ff0000;stroke-width:3.94714546"
         id="path924"
         inkscape:connector-curvature="0" /><path
         d="m 258.22082,134.71361 h -25.67186 l -5.93614,15.18726 q -1.54185,4.39428 -1.54185,5.55067 0,2.00441 1.85022,2.77534 1.92732,0.77093 6.78416,1.0022 l -0.23128,2.77534 q -2.85243,0 -6.39869,-0.0771 -3.54627,-0.0771 -7.01544,-0.0771 -2.85242,0 -5.93613,0.0771 -3.00662,0.0771 -5.85905,0.0771 l -0.15418,-2.62115 q 3.00661,-0.23128 4.93393,-0.69384 1.92732,-0.53964 3.31499,-1.85022 1.46476,-1.38767 2.69824,-3.70045 1.31058,-2.38987 3.00661,-6.3216 l 22.1256,-52.19174 q 0.92511,-2.312781 1.54186,-4.008819 0.69383,-1.773132 1.46476,-3.777542 l 4.85684,-0.616741 q 0.84802,3.700448 1.77313,6.784156 1.0022,3.083707 1.85022,5.627765 l 17.34585,50.264421 q 1.15639,3.39208 2.08151,5.3194 0.92511,1.92732 2.15859,3.00661 1.23348,1.00221 3.08371,1.38767 1.92732,0.38547 4.93393,0.61674 l -0.23128,2.77534 q -3.23789,0 -7.16962,-0.0771 -3.85463,-0.0771 -7.78636,-0.0771 -3.23789,0 -6.55288,0.0771 -3.31498,0.0771 -6.55287,0.0771 l -0.23128,-2.62115 q 4.31719,-0.30837 6.16741,-1.00221 1.85023,-0.77092 1.85023,-2.77533 0,-0.84802 -0.30837,-1.92732 -0.30837,-1.15639 -0.77093,-2.54406 z m -23.89873,-4.47137 h 22.43397 L 246.42564,99.713536 Z"
         style="fill:#ff0000;stroke-width:3.94714546"
         id="path926"
         inkscape:connector-curvature="0" /><path
         d="m 300.85307,123.68936 q 0,7.4009 1.85023,13.95377 1.85022,6.47579 5.55067,11.33263 3.77754,4.77974 9.40531,7.63217 5.62776,2.77534 13.25994,2.77534 4.163,0 7.94054,-1.15639 3.85464,-1.15639 6.78416,-3.77754 2.77534,-2.46697 4.77975,-6.01323 2.0815,-3.62336 4.08591,-8.4802 l 3.0837,0.77093 q -1.31057,5.08812 -2.0815,9.55949 -0.77092,4.47138 -1.31057,9.55949 -6.09032,1.77314 -12.10355,2.77534 -5.93614,1.00221 -11.94937,1.00221 -8.71147,0 -16.11237,-2.69825 -7.3238,-2.69824 -12.72029,-7.63217 -5.31939,-4.93393 -8.32601,-11.87228 -3.00661,-7.01543 -3.00661,-15.57272 0,-9.86786 3.62335,-17.19166 3.62336,-7.4009 9.79077,-12.334831 6.24451,-4.933932 14.41633,-7.323805 8.17183,-2.466965 17.26876,-2.466965 4.70266,0 10.02205,0.693834 5.39649,0.693834 10.02205,1.927317 -0.46256,4.933931 -0.61674,9.405306 -0.0771,4.394284 -0.0771,9.328214 l -3.23789,0.30837 q -0.30837,-4.54847 -1.85022,-7.86345 -1.46476,-3.39208 -4.00882,-5.550675 -2.46697,-2.235688 -5.78195,-3.237892 -3.31499,-1.079298 -7.24671,-1.079298 -7.70927,0 -13.56831,2.466966 -5.85905,2.389873 -9.86787,6.784155 -3.93172,4.317194 -6.01323,10.484604 -2.00441,6.09032 -2.00441,13.49122 z"
         style="fill:#ff0000;stroke-width:3.94714546"
         id="path928"
         inkscape:connector-curvature="0" /><path
         d="m 395.83125,90.693693 q -3.0837,0.231278 -5.01102,0.770927 -1.85022,0.462556 -2.92952,1.541854 -1.0793,1.002204 -1.46476,2.852429 -0.38547,1.773131 -0.38547,4.625557 v 21.97142 q 2.23569,-0.38547 4.00882,-1.31058 1.85023,-0.92511 4.08592,-2.92952 2.38987,-2.23569 5.08811,-4.93393 2.69825,-2.69825 5.3194,-5.47358 2.69824,-2.85243 5.16521,-5.62777 2.46696,-2.775334 4.39428,-5.165207 1.0793,-1.387668 1.54185,-2.466966 0.53965,-1.079297 0,-1.850224 -0.53965,-0.84802 -2.23568,-1.310576 -1.61895,-0.462556 -4.77975,-0.616741 l 0.15418,-2.698244 q 1.0793,0 2.77534,0.07709 1.69604,0 3.54626,0 1.92732,0 3.85464,0.07709 2.00441,0 3.70045,0 1.46476,0 3.39207,0 2.00441,-0.07709 3.93173,-0.07709 2.00441,0 3.70045,0 1.69604,-0.07709 2.77534,-0.07709 l 0.23127,2.621151 q -2.77533,0.231278 -5.08811,0.770927 -2.23569,0.539649 -4.39429,1.541854 -2.0815,1.002204 -4.163,2.544058 -2.0815,1.464761 -4.39428,3.623356 -1.69604,1.541852 -4.16301,3.931722 -2.38987,2.38988 -5.2423,5.3194 -2.77534,2.85243 -5.85904,6.01323 -3.08371,3.0837 -6.01323,6.09032 3.23789,4.00882 6.86125,8.48019 3.70045,4.47138 7.24671,8.71148 3.62335,4.163 6.70706,7.78636 3.1608,3.54626 5.2423,5.70485 2.31278,2.38988 3.85464,3.85464 1.61894,1.46476 3.0837,2.38987 1.46477,0.84802 3.1608,1.23348 1.69604,0.38547 4.31719,0.61675 l -0.15418,2.77533 q -2.92952,0 -6.47579,-0.0771 -3.46917,-0.0771 -6.93834,-0.0771 -1.07929,0 -2.31278,0.0771 -1.15639,0 -2.23569,0.0771 -0.61674,-1.15639 -2.15859,-3.23789 -1.54185,-2.0815 -3.70045,-4.77975 -2.15859,-2.69824 -4.77974,-5.78195 -2.54406,-3.1608 -5.3194,-6.39869 -2.69824,-3.31498 -5.47358,-6.47578 -2.69824,-3.2379 -5.08812,-6.09033 -1.54185,-1.77313 -2.85243,-2.46696 -1.23348,-0.77093 -2.54405,-0.77093 -0.84802,0 -1.77314,0.23128 v 26.13442 q 0,1.85022 0.30838,3.0837 0.30837,1.23349 1.31057,2.08151 1.0793,0.77092 3.00662,1.15639 2.00441,0.38546 5.31939,0.53965 l -0.15419,2.77533 q -1.23348,0 -3.0837,0 -1.77313,-0.0771 -3.85464,-0.0771 -2.0815,0 -4.24009,0 -2.08151,-0.0771 -3.93173,-0.0771 -1.54185,0 -3.39208,0.0771 -1.77313,0 -3.62335,0 -1.85023,0 -3.46917,0.0771 -1.61895,0 -2.69825,0 l -0.23128,-2.62115 q 3.2379,-0.23128 5.16521,-0.69383 1.92732,-0.53965 2.92953,-1.54186 1.07929,-1.07929 1.38766,-2.85243 0.38547,-1.85022 0.38547,-4.77974 V 97.709127 q 0,-1.850224 -0.30837,-3.083707 -0.30837,-1.233483 -1.38767,-2.00441 -1.00221,-0.848019 -3.00662,-1.233483 -2.00441,-0.385463 -5.31939,-0.539648 l 0.15418,-2.775337 q 1.23349,0 3.08371,0.07709 1.85023,0 3.93173,0 2.0815,0 4.2401,0.07709 2.15859,0 4.00881,0 1.46477,0 3.2379,0 1.85022,-0.07709 3.62335,-0.07709 1.85023,0 3.46917,0 1.61895,-0.07709 2.69825,-0.07709 z"
         style="fill:#ff0000;stroke-width:3.94714546"
         id="path930"
         inkscape:connector-curvature="0" /><path
         d="m 445.86442,140.57266 q 1.54185,4.00881 3.23789,7.40089 1.77313,3.39208 4.16301,5.93614 2.46696,2.46696 5.70485,3.93173 3.2379,1.38766 7.78636,1.38766 3.00662,0 5.55068,-1.0022 2.54406,-1.00221 4.47137,-2.85243 1.92732,-1.85022 3.00662,-4.31719 1.07929,-2.54406 1.07929,-5.55067 0,-3.77754 -1.38766,-6.47579 -1.38767,-2.69824 -3.70045,-4.62556 -2.31278,-2.00441 -5.2423,-3.46917 -2.92953,-1.46476 -6.01323,-2.85243 -3.46917,-1.54185 -7.01544,-3.39208 -3.46917,-1.85022 -6.2445,-4.39428 -2.77534,-2.54406 -4.54847,-5.85904 -1.77313,-3.31499 -1.77313,-7.86346 0,-4.85683 1.92731,-8.557282 2.00441,-3.777542 5.3194,-6.3216 3.39208,-2.544058 7.78636,-3.854634 4.47137,-1.310575 9.4824,-1.310575 4.85684,0 8.94275,0.770926 4.163,0.693835 8.86566,1.927317 -0.23128,2.466966 -0.38547,4.625561 -0.15418,2.081502 -0.23128,4.163005 0,2.004412 -0.0771,4.163002 0,2.0815 0,4.54847 l -3.23789,0.30837 q -0.69383,-8.171823 -5.01102,-12.180642 -4.2401,-4.085912 -11.48681,-4.085912 -2.77534,0 -5.08812,0.848019 -2.31278,0.84802 -4.00882,2.466966 -1.69604,1.618946 -2.69824,3.854634 -0.92511,2.235685 -0.92511,5.011025 0,3.70045 1.15639,6.24451 1.23348,2.46696 3.31498,4.31719 2.0815,1.85022 4.77975,3.23789 2.77533,1.31057 5.78195,2.62115 3.70045,1.61895 7.40089,3.54626 3.77755,1.92732 6.70707,4.54847 3.00661,2.62115 4.85684,6.09032 1.85022,3.46917 1.85022,8.17183 0,5.2423 -2.15859,9.32821 -2.1586,4.00882 -5.70486,6.86125 -3.54627,2.77533 -8.17183,4.2401 -4.62556,1.46476 -9.4824,1.46476 -4.24009,0 -8.78856,-0.84802 -4.54847,-0.84802 -9.63659,-2.31278 -0.53964,-5.08812 -1.31057,-9.5595 -0.77093,-4.47137 -2.0815,-9.55949 z"
         style="fill:#ff0000;stroke-width:3.94714546"
         id="path932"
         inkscape:connector-curvature="0" /></g><g
       aria-label="H"
       style="font-style:normal;font-variant:normal;font-weight:normal;font-stretch:normal;font-size:137.26715088px;line-height:1.25;font-family:'Game Logos';-inkscape-font-specification:'Game Logos';letter-spacing:0px;word-spacing:0px;fill:#000080;fill-opacity:1;stroke:none;stroke-width:3.43167925"
       id="text945"><path
         d="m 152.62194,10.643699 h 2.9491 q 7.43977,0 14.47739,3.016124 -1.54157,12.734746 -2.9491,12.734746 -5.69712,-2.077775 -11.52829,-2.077775 -21.64907,0 -29.75909,18.699969 -0.87133,3.753398 -0.87133,5.965223 0,10.589946 10.65698,14.879544 l 5.49604,0.871325 q 6.83655,0 6.83655,-4.691748 0,-1.273475 0.40215,-2.949099 h -9.31647 l -0.87133,-0.469175 q 1.6086,-11.863421 2.54695,-11.863421 h 22.98957 q 0.87133,0.06703 0.87133,0.8043 l -3.01613,20.040468 v 0.402149 h 0.46918 q 17.02434,-39.61176 23.79386,-53.61998 h 15.34872 q 1.47455,0 4.2896,21.716092 0.40215,0.40215 5.0939,29.356939 h 0.40215 q 3.01612,-10.656971 16.62219,-51.073031 h 12.3326 q 1.27347,0 6.83655,34.450837 1.27347,-1.675624 15.28169,-34.450837 h 14.94657 q 0.93835,0 1.27347,2.077774 0,7.439772 2.54695,62.199178 l -0.87132,0.40215 h -11.93045 q -0.8043,0 -0.8043,-0.8043 -1.27347,-33.512488 -1.74265,-37.936137 h -0.40215 q -15.54979,37.399937 -17.02434,38.740437 h -7.70787 q -1.40753,0 -7.64085,-34.920013 h -0.87132 q -4.22258,14.81252 -11.05913,34.920013 h -21.71609 q -1.00537,0 -4.22257,-19.571293 h -14.4774 q -0.73727,0.134049 -8.11002,17.493518 -1.27347,2.077775 -1.67562,2.077775 h -12.39962 q -0.8043,0 -0.8043,-0.8043 1.27347,-2.144799 1.27347,-3.418274 -7.84192,4.691748 -16.62219,4.691748 h -1.27348 q -20.57666,0 -28.55264,-20.442617 -0.40215,-4.289599 -0.40215,-6.434398 v -2.949099 q 0,-25.469491 31.09959,-35.791337 5.96523,-1.273475 9.78565,-1.273475 z m 140.0822,1.74265 h 34.92001 q 0.8043,0.13405 0.8043,0.804299 -1.54157,13.203921 -2.9491,13.203921 h -22.11824 l -1.74265,11.126146 h 19.16914 q 0.87133,0.06702 0.87133,0.804299 -1.6086,13.203921 -2.54695,13.203921 h -19.63832 q 0,1.206449 -1.67562,11.059121 l 0.87132,0.469175 h 21.24692 l 0.87132,0.402149 q -1.94372,13.606071 -2.94909,13.606071 h -35.38919 q -0.8043,0 -0.8043,-0.8043 9.78564,-61.998103 10.18779,-63.472652 z m 127.28043,0 h 0.87132 q 16.42112,0 23.39172,19.571293 1.27347,3.083149 1.74265,10.656971 0,22.118242 -20.44262,33.646538 -4.89282,1.675624 -8.51217,1.675624 h -3.01612 q -14.2093,0 -21.7161,-18.766993 -1.67562,-4.289599 -1.67562,-10.187796 v -2.1448 q 0,-22.788492 22.58742,-33.646538 4.82579,-0.804299 6.76952,-0.804299 z m 19.16914,0 h 13.60607 q 1.27348,0 8.51217,20.442617 h 0.87133 q 10.92507,-18.632943 12.80177,-20.442617 h 14.87954 v 0.804299 q -21.98419,34.048688 -23.39171,37.936137 -3.88745,25.938666 -4.69175,25.938666 h -11.93045 l -0.87132,-0.40215 4.69175,-30.228265 -15.34872,-33.646537 z m -65.14827,0.40215 q 6.76952,0 13.20392,8.914321 2.14479,3.887449 2.14479,7.707873 0,6.568447 -6.83654,14.00822 v 0.469174 q 5.96522,6.635473 5.96522,12.332596 v 1.273475 q 0,11.796395 -16.15302,18.766993 -2.34587,0.40215 -3.82042,0.40215 h -29.42397 l -0.8043,-0.40215 q 9.78565,-61.931078 10.58995,-63.472652 z m 30.22826,38.338286 q 2.07777,14.00822 10.65697,14.00822 h 1.27347 q 9.71863,0 15.34872,-17.426494 0.8043,-5.361998 0.8043,-6.367373 -1.6086,-16.220044 -11.46127,-16.220044 h -0.40215 q -11.52829,0 -16.22004,20.442618 z M 359.93019,26.394569 q -1.67562,10.455896 -1.67562,11.930445 h 6.83654 q 9.31647,0 9.31647,-5.965222 v -1.273475 q 0,-4.691748 -7.23869,-4.691748 z m -169.84129,7.238697 -4.69175,11.126146 h 0.40215 q 0.46918,0 0.46918,0.40215 l 2.9491,-0.40215 h 2.1448 l 0.87132,0.40215 0.40215,-0.871325 q -1.6086,-10.656971 -2.54695,-10.656971 z m 163.94309,30.697439 h 8.51217 q 11.86342,0 11.86342,-7.238697 -0.87132,-5.563073 -8.04299,-5.563073 h -9.78565 q -1.00537,0 -2.54695,12.80177 z m 117.49479,3.820424 h 1.27347 q 4.22257,0.804299 4.22257,4.222573 v 1.273475 q 0,3.418274 -4.62472,4.289598 -5.16092,-0.5362 -5.16092,-4.691748 0.46917,-5.093898 4.2896,-5.093898 z m -3.01613,4.691748 v 0.40215 q 0,3.418274 3.41828,3.418274 h 1.74264 q 1.80968,-1.005375 2.54695,-3.418274 -0.73727,-4.222574 -4.28959,-4.222574 -2.74803,0 -3.41828,3.820424 z m 1.74265,-2.546949 h 3.41827 q 0.8043,0.13405 0.8043,0.8043 v 1.273474 q 0,0.871325 -1.27347,0.871325 l 1.27347,2.144799 v 0.40215 h -0.40215 q -0.2681,0 -2.54694,-2.546949 0,2.546949 -0.87133,2.546949 l -0.40215,-0.8043 z m 1.27348,0.8043 v 1.273474 h 1.67562 v -1.273474 z"
         style="fill:#000080;stroke-width:3.43167925"
         id="path957"
         inkscape:connector-curvature="0" /></g></g></svg>