<?xml version="1.0" encoding="UTF-8" standalone="no"?>
<svg
   xmlns:dc="http://purl.org/dc/elements/1.1/"
   xmlns:cc="http://creativecommons.org/ns#"
   xmlns:rdf="http://www.w3.org/1999/02/22-rdf-syntax-ns#"
   xmlns:svg="http://www.w3.org/2000/svg"
   xmlns="http://www.w3.org/2000/svg"
   xmlns:sodipodi="http://sodipodi.sourceforge.net/DTD/sodipodi-0.dtd"
   xmlns:inkscape="http://www.inkscape.org/namespaces/inkscape"
   viewBox="0 0 600.27198 171.83996"
   height="171.83997"
   width="600.27197"
   xml:space="preserve"
   version="1.1"
   id="svg2"
   sodipodi:docname="ggh.svg"
   inkscape:version="0.92.4 (5da689c313, 2019-01-14)"><sodipodi:namedview
     pagecolor="#ffffff"
     bordercolor="#666666"
     borderopacity="1"
     objecttolerance="10"
     gridtolerance="10"
     guidetolerance="10"
     inkscape:pageopacity="0"
     inkscape:pageshadow="2"
     inkscape:window-width="1920"
     inkscape:window-height="1018"
     id="namedview52"
     showgrid="false"
     inkscape:zoom="1.1421655"
     inkscape:cx="281.23759"
     inkscape:cy="34.838317"
     inkscape:window-x="-8"
     inkscape:window-y="-8"
     inkscape:window-maximized="1"
     inkscape:current-layer="svg2" /><metadata
     id="metadata8"><rdf:RDF><cc:Work
         rdf:about=""><dc:format>image/svg+xml</dc:format><dc:type
           rdf:resource="http://purl.org/dc/dcmitype/StillImage" /><dc:title></dc:title></cc:Work></rdf:RDF></metadata><defs
     id="defs6"><clipPath
       id="clipPath16"
       clipPathUnits="userSpaceOnUse"><path
         id="path18"
         d="M 0,618.062 H 1949.984 V 0 H 0 Z"
         inkscape:connector-curvature="0" /></clipPath></defs><g
     id="g1005"><g
       aria-label="HACKS"
       style="font-style:normal;font-variant:normal;font-weight:normal;font-stretch:normal;font-size:157.88580322px;line-height:1.25;font-family:'Arabic Typesetting';-inkscape-font-specification:'Arabic Typesetting';letter-spacing:0px;word-spacing:0px;fill:#ff0000;fill-opacity:1;stroke:none;stroke-width:3.94714546"
       id="text913"><path
         d="M 187.37265,120.83693 V 97.709127 q 0,-1.850224 -0.30837,-3.083707 -0.23128,-1.233483 -1.23348,-2.00441 -0.92511,-0.848019 -2.77534,-1.233483 -1.85022,-0.385463 -5.08811,-0.539648 l 0.15418,-2.775337 q 1.23348,0 2.92952,0.07709 1.77313,0 3.70045,0 2.00441,0 4.08591,0.07709 2.08151,0 3.93173,0 1.46476,0 3.23789,0 1.77313,-0.07709 3.46917,-0.07709 1.77313,0 3.31499,0 1.54185,-0.07709 2.62115,-0.07709 l 0.15418,2.621151 q -3.00661,0.231278 -4.85683,0.770927 -1.77314,0.462556 -2.77534,1.541854 -1.00221,1.002204 -1.38767,2.852429 -0.30837,1.850224 -0.30837,4.702657 v 51.88337 q 0,1.85022 0.30837,3.0837 0.30837,1.23349 1.23348,2.08151 1.00221,0.77092 2.92953,1.15639 1.92731,0.38546 5.16521,0.53965 l -0.15419,2.77533 q -1.23348,0 -3.00661,0 -1.77314,-0.0771 -3.77755,-0.0771 -2.00441,0 -4.08591,0 -2.0815,-0.0771 -3.93172,-0.0771 -1.54186,0 -3.31499,0.0771 -1.69604,0 -3.39208,0 -1.69604,0 -3.23789,0.0771 -1.46476,0 -2.54406,0 l -0.23128,-2.62115 q 3.00662,-0.23128 4.77975,-0.69383 1.77313,-0.53965 2.77534,-1.54186 1.0022,-1.07929 1.31057,-2.85243 0.30837,-1.85022 0.30837,-4.77974 v -24.2071 h -41.24458 v 27.05953 q 0,1.85022 0.23128,3.0837 0.30837,1.23349 1.23348,2.08151 1.00221,0.77092 2.85243,1.15639 1.85022,0.38546 5.08812,0.53965 l -0.15419,2.77533 q -1.23348,0 -3.00661,0 -1.69604,-0.0771 -3.70045,-0.0771 -1.92732,-0.0771 -4.00882,-0.0771 -2.0815,-0.0771 -3.93173,-0.0771 -1.46476,0 -3.23789,0.0771 -1.77313,0 -3.54626,0 -1.69604,0 -3.2379,0.0771 -1.54185,0 -2.62115,0 l -0.15418,-2.62115 q 3.00661,-0.23128 4.77974,-0.69384 1.85023,-0.53964 2.85243,-1.54185 1.00221,-1.0793 1.31058,-2.85243 0.38546,-1.85022 0.38546,-4.77974 V 97.709127 q 0,-1.850224 -0.30837,-3.083707 -0.30837,-1.233483 -1.31057,-2.00441 -0.92512,-0.848019 -2.85243,-1.233483 -1.92732,-0.385463 -5.16521,-0.539648 l 0.15418,-2.775337 h 3.39208 q 1.92732,0 3.85463,0.07709 2.00441,0 3.85464,0 h 6.78415 q 1.77314,0 3.46917,0 1.77314,-0.07709 3.31499,-0.07709 h 2.62115 l 0.23128,2.621151 q -3.00662,0.231278 -4.77975,0.770927 -1.77313,0.462556 -2.77533,1.541854 -1.00221,1.002204 -1.31058,2.852429 -0.30837,1.850224 -0.30837,4.702657 v 20.27537 z"
         style="fill:#ff0000;stroke-width:3.94714546"
         id="path924"
         inkscape:connector-curvature="0" /><path
         d="m 258.22082,134.71361 h -25.67186 l -5.93614,15.18726 q -1.54185,4.39428 -1.54185,5.55067 0,2.00441 1.85022,2.77534 1.92732,0.77093 6.78416,1.0022 l -0.23128,2.77534 q -2.85243,0 -6.39869,-0.0771 -3.54627,-0.0771 -7.01544,-0.0771 -2.85242,0 -5.93613,0.0771 -3.00662,0.0771 -5.85905,0.0771 l -0.15418,-2.62115 q 3.00661,-0.23128 4.93393,-0.69384 1.92732,-0.53964 3.31499,-1.85022 1.46476,-1.38767 2.69824,-3.70045 1.31058,-2.38987 3.00661,-6.3216 l 22.1256,-52.19174 q 0.92511,-2.312781 1.54186,-4.008819 0.69383,-1.773132 1.46476,-3.777542 l 4.85684,-0.616741 q 0.84802,3.700448 1.77313,6.784156 1.0022,3.083707 1.85022,5.627765 l 17.34585,50.264421 q 1.15639,3.39208 2.08151,5.3194 0.92511,1.92732 2.15859,3.00661 1.23348,1.00221 3.08371,1.38767 1.92732,0.38547 4.93393,0.61674 l -0.23128,2.77534 q -3.23789,0 -7.16962,-0.0771 -3.85463,-0.0771 -7.78636,-0.0771 -3.23789,0 -6.55288,0.0771 -3.31498,0.0771 -6.55287,0.0771 l -0.23128,-2.62115 q 4.31719,-0.30837 6.16741,-1.00221 1.85023,-0.77092 1.85023,-2.77533 0,-0.84802 -0.30837,-1.92732 -0.30837,-1.15639 -0.77093,-2.54406 z m -23.89873,-4.47137 h 22.43397 L 246.42564,99.713536 Z"
         style="fill:#ff0000;stroke-width:3.94714546"
         id="path926"
         inkscape:connector-curvature="0" /><path
         d="m 300.85307,123.68936 q 0,7.4009 1.85023,13.95377 1.85022,6.47579 5.55067,11.33263 3.77754,4.77974 9.40531,7.63217 5.62776,2.77534 13.25994,2.77534 4.163,0 7.94054,-1.15639 3.85464,-1.15639 6.78416,-3.77754 2.77534,-2.46697 4.77975,-6.01323 2.0815,-3.62336 4.08591,-8.4802 l 3.0837,0.77093 q -1.31057,5.08812 -2.0815,9.55949 -0.77092,4.47138 -1.31057,9.55949 -6.09032,1.77314 -12.10355,2.77534 -5.93614,1.00221 -11.94937,1.00221 -8.71147,0 -16.11237,-2.69825 -7.3238,-2.69824 -12.72029,-7.63217 -5.31939,-4.93393 -8.32601,-11.87228 -3.00661,-7.01543 -3.00661,-15.57272 0,-9.86786 3.62335,-17.19166 3.62336,-7.4009 9.79077,-12.334831 6.24451,-4.933932 14.41633,-7.323805 8.17183,-2.466965 17.26876,-2.466965 4.70266,0 10.02205,0.693834 5.39649,0.693834 10.02205,1.927317 -0.46256,4.933931 -0.61674,9.405306 -0.0771,4.394284 -0.0771,9.328214 l -3.23789,0.30837 q -0.30837,-4.54847 -1.85022,-7.86345 -1.46476,-3.39208 -4.00882,-5.550675 -2.46697,-2.235688 -5.78195,-3.237892 -3.31499,-1.079298 -7.24671,-1.079298 -7.70927,0 -13.56831,2.466966 -5.85905,2.389873 -9.86787,6.784155 -3.93172,4.317194 -6.01323,10.484604 -2.00441,6.09032 -2.00441,13.49122 z"
         style="fill:#ff0000;stroke-width:3.94714546"
         id="path928"
         inkscape:connector-curvature="0" /><path
         d="m 395.83125,90.693693 q -3.0837,0.231278 -5.01102,0.770927 -1.85022,0.462556 -2.92952,1.541854 -1.0793,1.002204 -1.46476,2.852429 -0.38547,1.773131 -0.38547,4.625557 v 21.97142 q 2.23569,-0.38547 4.00882,-1.31058 1.85023,-0.92511 4.08592,-2.92952 2.38987,-2.23569 5.08811,-4.93393 2.69825,-2.69825 5.3194,-5.47358 2.69824,-2.85243 5.16521,-5.62777 2.46696,-2.775334 4.39428,-5.165207 1.0793,-1.387668 1.54185,-2.466966 0.53965,-1.079297 0,-1.850224 -0.53965,-0.84802 -2.23568,-1.310576 -1.61895,-0.462556 -4.77975,-0.616741 l 0.15418,-2.698244 q 1.0793,0 2.77534,0.07709 1.69604,0 3.54626,0 1.92732,0 3.85464,0.07709 2.00441,0 3.70045,0 1.46476,0 3.39207,0 2.00441,-0.07709 3.93173,-0.07709 2.00441,0 3.70045,0 1.69604,-0.07709 2.77534,-0.07709 l 0.23127,2.621151 q -2.77533,0.231278 -5.08811,0.770927 -2.23569,0.539649 -4.39429,1.541854 -2.0815,1.002204 -4.163,2.544058 -2.0815,1.464761 -4.39428,3.623356 -1.69604,1.541852 -4.16301,3.931722 -2.38987,2.38988 -5.2423,5.3194 -2.77534,2.85243 -5.85904,6.01323 -3.08371,3.0837 -6.01323,6.09032 3.23789,4.00882 6.86125,8.48019 3.70045,4.47138 7.24671,8.71148 3.62335,4.163 6.70706,7.78636 3.1608,3.54626 5.2423,5.70485 2.31278,2.38988 3.85464,3.85464 1.61894,1.46476 3.0837,2.38987 1.46477,0.84802 3.1608,1.23348 1.69604,0.38547 4.31719,0.61675 l -0.15418,2.77533 q -2.92952,0 -6.47579,-0.0771 -3.46917,-0.0771 -6.93834,-0.0771 -1.07929,0 -2.31278,0.0771 -1.15639,0 -2.23569,0.0771 -0.61674,-1.15639 -2.15859,-3.23789 -1.54185,-2.0815 -3.70045,-4.77975 -2.15859,-2.69824 -4.77974,-5.78195 -2.54406,-3.1608 -5.3194,-6.39869 -2.69824,-3.31498 -5.47358,-6.47578 -2.69824,-3.2379 -5.08812,-6.09033 -1.54185,-1.77313 -2.85243,-2.46696 -1.23348,-0.77093 -2.54405,-0.77093 -0.84802,0 -1.77314,0.23128 v 26.13442 q 0,1.85022 0.30838,3.0837 0.30837,1.23349 1.31057,2.08151 1.0793,0.77092 3.00662,1.15639 2.00441,0.38546 5.31939,0.53965 l -0.15419,2.77533 q -1.23348,0 -3.0837,0 -1.77313,-0.0771 -3.85464,-0.0771 -2.0815,0 -4.24009,0 -2.08151,-0.0771 -3.93173,-0.0771 -1.54185,0 -3.39208,0.0771 -1.77313,0 -3.62335,0 -1.85023,0 -3.46917,0.0771 -1.61895,0 -2.69825,0 l -0.23128,-2.62115 q 3.2379,-0.23128 5.16521,-0.69383 1.92732,-0.53965 2.92953,-1.54186 1.07929,-1.07929 1.38766,-2.85243 0.38547,-1.85022 0.38547,-4.77974 V 97.709127 q 0,-1.850224 -0.30837,-3.083707 -0.30837,-1.233483 -1.38767,-2.00441 -1.00221,-0.848019 -3.00662,-1.233483 -2.00441,-0.385463 -5.31939,-0.539648 l 0.15418,-2.775337 q 1.23349,0 3.08371,0.07709 1.85023,0 3.93173,0 2.0815,0 4.2401,0.07709 2.15859,0 4.00881,0 1.46477,0 3.2379,0 1.85022,-0.07709 3.62335,-0.07709 1.85023,0 3.46917,0 1.61895,-0.07709 2.69825,-0.07709 z"
         style="fill:#ff0000;stroke-width:3.94714546"
         id="path930"
         inkscape:connector-curvature="0" /><path
         d="m 445.86442,140.57266 q 1.54185,4.00881 3.23789,7.40089 1.77313,3.39208 4.16301,5.93614 2.46696,2.46696 5.70485,3.93173 3.2379,1.38766 7.78636,1.38766 3.00662,0 5.55068,-1.0022 2.54406,-1.00221 4.47137,-2.85243 1.92732,-1.85022 3.00662,-4.31719 1.07929,-2.54406 1.07929,-5.55067 0,-3.77754 -1.38766,-6.47579 -1.38767,-2.69824 -3.70045,-4.62556 -2.31278,-2.00441 -5.2423,-3.46917 -2.92953,-1.46476 -6.01323,-2.85243 -3.46917,-1.54185 -7.01544,-3.39208 -3.46917,-1.85022 -6.2445,-4.39428 -2.77534,-2.54406 -4.54847,-5.85904 -1.77313,-3.31499 -1.77313,-7.86346 0,-4.85683 1.92731,-8.557282 2.00441,-3.777542 5.3194,-6.3216 3.39208,-2.544058 7.78636,-3.854634 4.47137,-1.310575 9.4824,-1.310575 4.85684,0 8.94275,0.770926 4.163,0.693835 8.86566,1.927317 -0.23128,2.466966 -0.38547,4.625561 -0.15418,2.081502 -0.23128,4.163005 0,2.004412 -0.0771,4.163002 0,2.0815 0,4.54847 l -3.23789,0.30837 q -0.69383,-8.171823 -5.01102,-12.180642 -4.2401,-4.085912 -11.48681,-4.085912 -2.77534,0 -5.08812,0.848019 -2.31278,0.84802 -4.00882,2.466966 -1.69604,1.618946 -2.69824,3.854634 -0.92511,2.235685 -0.92511,5.011025 0,3.70045 1.15639,6.24451 1.23348,2.46696 3.31498,4.31719 2.0815,1.85022 4.77975,3.23789 2.77533,1.31057 5.78195,2.62115 3.70045,1.61895 7.40089,3.54626 3.77755,1.92732 6.70707,4.54847 3.00661,2.62115 4.85684,6.09032 1.85022,3.46917 1.85022,8.17183 0,5.2423 -2.15859,9.32821 -2.1586,4.00882 -5.70486,6.86125 -3.54627,2.77533 -8.17183,4.2401 -4.62556,1.46476 -9.4824,1.46476 -4.24009,0 -8.78856,-0.84802 -4.54847,-0.84802 -9.63659,-2.31278 -0.53964,-5.08812 -1.31057,-9.5595 -0.77093,-4.47137 -2.0815,-9.55949 z"
         style="fill:#ff0000;stroke-width:3.94714546"
         id="path932"
         inkscape:connector-curvature="0" /></g><g
       aria-label="U"
       style="font-style:normal;font-variant:normal;font-weight:normal;font-stretch:normal;font-size:117.0161438px;line-height:1.25;font-family:'Game Logos';-inkscape-font-specification:'Game Logos';letter-spacing:0px;word-spacing:0px;fill:#0000ff;fill-opacity:1;stroke:none;stroke-width:2.92540359"
       id="text995"><path
         d="m 363.81574,4.9517609 h 3.14252 q 7.1421,0 10.34176,16.1125741 3.14252,7.427783 7.1421,21.140612 h 14.39847 l 0.85705,0.399958 q -1.14273,8.113424 -2.22833,8.113424 h -15.71262 q 0,2.514019 -0.91419,5.370858 l 0.91419,0.457094 h 15.25552 v 0.457095 q -0.74278,8.056287 -1.77124,8.056287 h -15.71262 q -0.91418,3.942438 -0.91418,6.285047 h 15.25552 l 0.91419,0.457094 q -1.37129,8.513382 -2.22834,8.513382 h -25.14018 v -0.457095 q 4.45666,-30.053951 5.37085,-30.053951 6.28505,-5.485132 6.28505,-5.827952 h -14.79843 q -0.91419,0 -0.91419,-0.914189 v -3.599618 q 0.17141,-0.857051 0.91419,-0.857051 h 13.42715 V 38.148235 Q 368.7295,11.979586 367.87245,10.322619 l -1.37128,-0.9141886 h -0.4571 q -3.71389,0 -5.37086,9.4275706 -1.77124,3.485344 -8.05628,23.368946 h 1.31414 q 9.88467,-31.425234 11.25595,-31.425234 h 1.31415 q 0.74277,0.285684 9.42757,25.997239 l -0.91419,0.457095 h -10.74172 q -0.91419,0 -0.91419,-3.599618 h -0.45709 q -2.68543,8.056287 -2.68543,9.42757 l 4.9709,6.742141 v 0.914189 h -17.54099 q -0.85706,0 -3.99958,20.626381 h 8.51338 q 0.91419,-4.285259 0.91419,-6.285047 h -6.74214 v -0.914189 q 1.54269,-0.914188 9.42757,-7.599193 h 8.51338 l 0.91419,0.457095 q -3.82816,23.31181 -4.9709,23.31181 H 332.8476 q -0.91419,0 -0.91419,-0.914189 4.51381,-28.225574 5.88509,-30.053951 0.97132,0 6.685,-5.370858 h -15.71261 q -6.68501,0 -9.82753,-8.513382 V 14.779289 q 2.22833,-9.3704338 9.42757,-9.3704338 h 18.798 v 5.3708578 h -17.94095 q -4.91376,0.742779 -4.91376,4.913764 v 17.940952 q 0,4.970901 5.82795,4.970901 h 11.6559 V 23.806901 h -9.88466 v -4.513806 q 0.17141,-0.914189 0.91419,-0.914189 h 14.34133 v 21.083475 q 0.91419,0 8.57052,-24.683092 3.2568,-9.8275281 8.05629,-9.8275281 z m -97.36109,0.4570943 h 17.94095 q 0.91419,0.1142736 0.91419,0.8570518 v 3.5996178 q 0,0.9141882 -0.91419,0.9141882 h -16.6268 q -6.28505,0 -7.1421,7.599193 0,6.113637 8.05628,6.742141 9.88467,0 9.88467,6.742142 -1.54269,5.370858 -5.37086,5.370858 h -17.0839 q -0.85705,0 -0.85705,-0.914189 v -3.542481 q 0.11427,-0.914188 0.85705,-0.914188 h 16.16971 q 0.91419,0 0.91419,-0.914189 l -0.91419,-0.457094 h -5.82795 q -8.51338,0 -11.19881,-11.655905 V 18.378906 Q 257.08422,5.4088552 266.45465,5.4088552 Z m 30.96814,0 h 18.39804 q 0.85706,0.1142736 0.85706,0.8570518 v 3.5996178 q 0,0.9141882 -0.85706,0.9141882 h -17.94095 q -4.22812,0 -4.9709,6.285047 v 15.255523 q 0.62851,6.285047 5.37086,6.285047 h 17.54099 q 0.85706,0.114273 0.85706,0.857051 v 2.742566 q 2.05692,0 2.74256,0.399958 -1.37128,8.113424 -2.28547,8.113424 h -15.71262 q 0,2.514019 -0.85705,5.370858 l 0.85705,0.457094 h 14.39847 q 0.85706,0.114274 0.85706,0.914189 -0.74278,7.599193 -1.77124,7.599193 h -15.71262 q -0.91419,3.942438 -0.91419,6.285047 h 15.25552 l 0.91419,0.457094 q -1.31414,8.513382 -2.22833,8.513382 h -24.6831 l -0.91418,-0.457095 q 4.9709,-28.454121 5.82795,-30.053951 6.28504,-5.485132 6.28504,-5.827952 -10.11321,0 -11.19881,-11.655905 V 17.06476 q 1.42842,-11.6559048 9.88467,-11.6559048 z m 3.59962,6.2850468 h 13.42714 q 0.4571,0 0.4571,0.399958 l 0.91418,-0.399958 q 0.85706,0.114274 0.85706,0.857052 v 4.056712 q 0,0.914188 -0.85706,0.914188 h -15.25552 q -0.91419,0.114274 -0.91419,0.857052 h 12.5701 q 0.91419,0.171411 0.91419,0.914189 v 4.513806 h -18.85514 v -7.656329 q 0,-4.45667 6.74214,-4.45667 z m 30.05395,0 h 16.11257 v 5.827952 H 331.07636 V 30.949 q 0.11427,0.914189 0.85705,0.914189 h 2.74257 q 0.85705,0 0.85705,-0.914189 -3.59962,-0.457094 -3.59962,-1.314146 v -3.599618 q 0.17141,-0.914189 0.91419,-0.914189 h 7.19923 q 0.85706,0.171411 0.85706,0.914189 v 10.284622 q 0,0.914189 -0.85706,0.914189 h -10.79885 q -3.59962,0 -3.59962,-3.599618 V 15.693477 q 0,-3.999575 5.428,-3.999575 z m -64.16462,0.399958 h 17.48386 q 0.91419,0.17141 0.91419,0.914188 v 3.599618 q 0,0.914188 -0.91419,0.914188 h -17.02676 v 0.857052 h 3.99957 q 13.94138,1.485557 13.94138,13.484283 0,5.256584 -5.82795,10.341758 h 6.28504 q 0.85706,0.114274 0.85706,0.857052 -5.37086,33.367885 -6.74215,37.253187 h -9.82752 v -0.457095 l 4.45667,-29.139762 h -6.74214 q -4.3424,29.596857 -5.82796,29.596857 h -8.51338 q -0.91419,0 -0.91419,-0.914189 l 4.9709,-28.682668 h -6.28504 q -1.19988,0 -5.37086,29.139762 l -0.91419,0.457095 h -8.97048 l -0.91418,-0.457095 q 4.05671,-24.683093 5.37085,-30.053951 l 9.42757,-7.599193 h 5.428 v -2.742566 q 0.11427,-0.857051 0.85705,-0.857051 h 16.16971 q 7.59919,-1.25701 7.59919,-7.65633 0,-6.170773 -8.05628,-6.742141 -9.88467,0 -9.88467,-5.827953 v -0.857052 q 1.25701,-5.427994 4.9709,-5.427994 z m 28.22558,13.027187 h 17.0839 q 0.91419,0.171411 0.91419,0.914189 v 3.599618 q 0,0.857052 -0.91419,0.857052 h -12.5701 V 30.949 q 0.11428,0.914189 0.91419,0.914189 h 15.25552 q 0.85706,0.114273 0.85706,0.914188 v 3.542481 q 0,0.914189 -0.85706,0.914189 h -17.54099 q -3.99957,-0.571368 -3.99957,-4.056712 v -7.142099 q 0.11427,-0.914189 0.85705,-0.914189 z m 68.67842,6.285047 h 3.59962 V 30.949 q -1.37129,-4.113849 -1.37129,-4.913764 -0.74278,0 -2.22833,5.370858 z M 181.66365,42.204947 h 11.19881 q 0.39996,0 6.28505,8.056288 l -0.91419,0.457094 h -17.48385 q -3.14253,19.197961 -3.59962,20.626381 h 8.51338 l 1.37128,-6.285047 h -6.74214 v -0.457094 q 0,-0.628505 8.97048,-8.056288 h 8.51338 l 0.91419,0.457095 q -3.59962,22.397621 -4.45667,23.31181 h -27.82562 l -0.91419,-0.457095 q 4.62808,-28.339847 5.82796,-30.053951 8.51338,-7.599193 10.34175,-7.599193 z m 33.65357,0 h 19.2551 q 0.91419,0 0.91419,1.314146 -5.82795,35.76763 -6.74214,36.796093 h -28.22558 v -0.457095 q 1.42842,-17.026763 5.37086,-17.026763 0,-0.628505 7.1421,-6.285047 h 8.97048 q 1.02846,0 1.82837,-5.827952 h -17.0839 v -0.457094 q 0.11428,-0.685642 8.57052,-8.056288 z m 198.3218,0 h 19.2551 l 0.91418,0.399958 -6.74214,37.710281 h -27.82561 q -0.85706,0 -0.85706,-0.914189 1.88552,-17.026763 5.82796,-17.026763 l 6.74214,-5.827953 h 9.82753 l 0.91418,-5.827952 h -17.02676 v -0.457094 q 7.71347,-7.713467 8.97048,-8.056288 z m 34.05352,0 h 18.85514 q 0.91419,0 0.91419,1.314146 -1.54269,13.941377 -3.14252,13.941377 -2.1712,1.257009 -4.45667,3.542481 v 0.457094 q 3.42821,4.970901 3.99958,4.970901 -2.22834,13.88424 -3.14253,13.88424 h -8.51338 l -0.91419,-0.457095 2.68543,-14.798428 h -7.59919 q -0.91419,0 -3.14253,14.798428 l -0.91418,0.457095 h -8.05629 q -0.91419,0 -0.91419,-0.914189 4.51381,-30.96814 6.74214,-30.96814 2.45688,-1.656967 7.59919,-6.22791 z M 168.63647,77.629756 h 23.7689 q 0.45709,-1.59983 3.14252,-18.85514 h -4.91376 q -4.05671,3.313934 -4.05671,3.599618 3.14252,0 3.59962,0.457094 -1.94265,11.198811 -3.14253,11.198811 h -11.6559 q -0.91419,0 -0.91419,-0.914189 3.71389,-25.08305 4.51381,-25.08305 h 15.25552 q -1.88552,-3.142524 -2.74257,-3.142524 h -8.97047 q -2.79971,0 -9.82753,8.056288 z M 213.03175,48.0329 h 13.48428 v 0.399957 q 0,2.228335 -1.37128,10.341759 h -10.74172 q -9.88466,7.427783 -9.88466,10.798853 0,0.971326 -1.31415,8.056287 h 15.25553 q 0.85705,0 1.31414,-3.599617 h -9.88466 l -0.85705,-0.457095 q 1.77124,-11.19881 2.68543,-11.19881 h 11.6559 q 0.91419,0.114273 0.91419,0.914188 -2.28547,12.28441 -2.28547,14.341334 h 4.9709 l 5.82795,-32.73938 h -16.62681 q -0.6285,0 -3.14252,3.142524 z m 25.14019,29.596856 h 4.5138 q 1.19988,0 5.37086,-29.196899 l 0.91419,-0.399957 h 10.74172 l 0.91419,0.399957 q -4.05672,21.940527 -4.9709,29.196899 h 4.9709 Q 265.36905,48.0329 266.45465,48.0329 h 10.34176 q 0.85705,0.114273 0.85705,0.857052 -1.77124,11.941589 -4.91376,28.739804 h 5.37085 q 5.37086,-30.682455 5.37086,-32.73938 h -31.82519 q -2.68543,0 -9.42757,7.599193 z m 51.59452,0 h 21.08347 v -1.371282 l 0.4571,-2.228335 h -15.25552 q -0.91419,0 -0.91419,-0.914189 1.37128,-10.741716 2.74256,-10.741716 h 15.65548 v -2.228335 l 0.4571,-0.914189 -0.85705,-0.457094 H 297.87988 V 58.317522 Q 298.79407,48.0329 300.10822,48.0329 h 15.71261 l 0.4571,-3.142524 h -14.39847 q -8.51338,6.22791 -8.51338,11.198811 0,2.342608 -3.59962,21.540569 z m 45.30947,0 h 23.82604 l 3.14253,-18.398046 -0.91419,-0.457094 h -4.05671 q -3.99958,2.913976 -3.99958,3.599618 h 3.08539 v 0.457094 q -1.31415,11.198811 -2.68543,11.198811 H 340.90389 V 73.573044 Q 344.16068,48.0329 345.41769,48.0329 h 15.25552 q -2.11406,-3.142524 -2.68542,-3.142524 h -10.34176 q -8.51339,6.170774 -8.51339,8.970476 -4.05671,21.312023 -4.05671,23.768904 z m 35.02485,0 h 21.08348 q 0,-1.142735 0.45709,-3.599617 h -15.25552 q -0.91419,0 -0.91419,-0.914189 1.37129,-10.741716 2.68543,-10.741716 h 15.71262 v -2.228335 l 0.45709,-0.914189 -0.91419,-0.457094 H 378.15707 Q 379.07126,48.0329 380.44254,48.0329 h 15.65548 l 0.4571,-3.142524 h -14.34134 q -8.51338,6.22791 -8.51338,11.198811 0,2.399745 -3.59962,21.540569 z M 410.95359,48.0329 h 12.97005 l 0.91419,0.399957 q -1.37128,10.341759 -2.68543,10.341759 h -8.51338 q -2.39975,0 -10.79886,8.513382 l -1.31414,10.341758 h 15.65548 q 0.45709,-3.19966 0.45709,-3.599617 h -9.42757 q -0.85705,0 -0.85705,-0.914189 1.0856,-10.741716 2.68543,-10.741716 h 11.19881 q 0.91419,0.114273 0.91419,0.914188 l -2.22834,14.341334 h 4.45667 q 1.25701,0 4.51381,-23.768904 0.45709,0 1.77124,-8.970476 h -16.16971 q -3.54248,2.456882 -3.54248,3.142524 z m 25.54014,29.596856 h 4.51381 q 2.22833,-15.255522 3.14252,-15.255522 h 12.5701 v 0.457094 q 0,2.971113 -2.28548,14.798428 h 4.97091 l 1.31414,-10.341758 q -3.59962,-4.856627 -3.59962,-6.285047 v -0.857052 q 6.28505,-5.199448 6.28505,-7.199235 l 1.37128,-8.056288 h -16.16971 q -8.05628,6.342184 -8.05628,8.056288 -4.05672,22.226211 -4.05672,24.683092 z M 446.83549,48.0329 h 11.65591 q 0.91419,0.114273 0.91419,0.857052 -1.25701,9.884664 -2.68543,9.884664 h -11.71305 l -0.85705,-0.457094 Q 445.80703,48.0329 446.83549,48.0329 Z m 1.31415,2.685429 -0.85705,5.827952 h 8.05628 q 0.91419,-4.056712 0.91419,-5.827952 z M 213.03175,65.059663 q 0,1.42842 -0.85705,6.285047 h 8.05629 q 0.91419,-4.856627 0.91419,-6.285047 z M 410.0394,71.34471 h 7.59919 q 0.91419,0 1.82838,-6.285047 h -7.65633 q -0.74278,0 -1.77124,6.285047 z"
         style="fill:#0000ff;stroke-width:2.92540359"
         id="path1007"
         inkscape:connector-curvature="0" /></g></g></svg>