<?xml version="1.0" encoding="UTF-8" standalone="no"?>
<!-- Created with Inkscape (http://www.inkscape.org/) -->

<svg
   xmlns:dc="http://purl.org/dc/elements/1.1/"
   xmlns:cc="http://creativecommons.org/ns#"
   xmlns:rdf="http://www.w3.org/1999/02/22-rdf-syntax-ns#"
   xmlns:svg="http://www.w3.org/2000/svg"
   xmlns="http://www.w3.org/2000/svg"
   xmlns:sodipodi="http://sodipodi.sourceforge.net/DTD/sodipodi-0.dtd"
   xmlns:inkscape="http://www.inkscape.org/namespaces/inkscape"
   width="505.23486"
   height="250.16606"
   id="svg3998"
   version="1.1"
   inkscape:version="0.48.1 "
   sodipodi:docname="New document 4">
  <defs
     id="defs4000" />
  <sodipodi:namedview
     id="base"
     pagecolor="#ffffff"
     bordercolor="#666666"
     borderopacity="1.0"
     inkscape:pageopacity="0.0"
     inkscape:pageshadow="2"
     inkscape:zoom="1.4"
     inkscape:cx="147.73054"
     inkscape:cy="119.33933"
     inkscape:document-units="px"
     inkscape:current-layer="layer1"
     showgrid="false"
     fit-margin-top="0"
     fit-margin-left="0"
     fit-margin-right="0"
     fit-margin-bottom="0"
     inkscape:window-width="1920"
     inkscape:window-height="1028"
     inkscape:window-x="-8"
     inkscape:window-y="-8"
     inkscape:window-maximized="1" />
  <metadata
     id="metadata4003">
    <rdf:RDF>
      <cc:Work
         rdf:about="">
        <dc:format>image/svg+xml</dc:format>
        <dc:type
           rdf:resource="http://purl.org/dc/dcmitype/StillImage" />
        <dc:title></dc:title>
      </cc:Work>
    </rdf:RDF>
  </metadata>
  <g
     inkscape:label="Layer 1"
     inkscape:groupmode="layer"
     id="layer1"
     transform="translate(-123.53955,-552.17918)">
    <path
       d="m 161.61946,781.07669 45.31149,0 0,-116.91423 -45.31149,0 0,116.91423 z"
       style="fill:#ffffff;fill-opacity:1;fill-rule:nonzero;stroke:#ffffff;stroke-width:24.60575104;stroke-linecap:butt;stroke-linejoin:miter;stroke-miterlimit:4;stroke-opacity:1;stroke-dasharray:none"
       id="path3139"
       inkscape:connector-curvature="0" />
    <g
       id="g3141"
       transform="matrix(12.302876,0,0,-12.302876,227.34507,611.38677)">
      <path
         d="M 0,0 -3.487,3.414 -7.003,0 -3.487,-3.413 0,0 z"
         style="fill:#ffffff;fill-opacity:1;fill-rule:nonzero;stroke:none"
         id="path3143"
         inkscape:connector-curvature="0" />
    </g>
    <g
       id="g3145"
       transform="matrix(12.302876,0,0,-12.302876,227.34507,611.38677)">
      <path
         d="M 0,0 -3.487,3.414 -7.003,0 -3.487,-3.413 0,0 z"
         style="fill:none;stroke:#ffffff;stroke-width:2;stroke-linecap:butt;stroke-linejoin:miter;stroke-miterlimit:4;stroke-opacity:1;stroke-dasharray:none"
         id="path3147"
         inkscape:connector-curvature="0" />
    </g>
    <g
       id="g3149"
       transform="matrix(12.302876,0,0,-12.302876,288.73405,651.25055)">
      <path
         d="m 0,0 c -0.044,-0.015 -0.111,-0.038 -0.198,-0.071 -0.067,-0.024 -0.132,-0.046 -0.198,-0.071 -0.199,-0.071 -0.406,-0.194 -0.623,-0.369 -0.217,-0.174 -0.395,-0.395 -0.535,-0.662 -0.14,-0.269 -0.26,-0.656 -0.364,-1.165 l -0.048,-0.279 -0.619,1.718 -3.231,-1.165 3.223,-8.94 3.463,1.248 -1.202,3.332 -0.101,0.281 c -0.139,0.386 -0.198,0.725 -0.18,1.018 -0.023,0.477 0.057,0.852 0.238,1.122 0.183,0.272 0.509,0.492 0.982,0.662 L 0.839,-3.257 0.31,0.019 0,0 z"
         style="fill:#ffffff;fill-opacity:1;fill-rule:nonzero;stroke:none"
         id="path3151"
         inkscape:connector-curvature="0" />
    </g>
    <g
       id="g3153"
       transform="matrix(12.302876,0,0,-12.302876,288.73405,651.25055)">
      <path
         d="m 0,0 c -0.044,-0.015 -0.111,-0.038 -0.198,-0.071 -0.067,-0.024 -0.132,-0.046 -0.198,-0.071 -0.199,-0.071 -0.406,-0.194 -0.623,-0.369 -0.217,-0.174 -0.395,-0.395 -0.535,-0.662 -0.14,-0.269 -0.26,-0.656 -0.364,-1.165 l -0.048,-0.279 -0.619,1.718 -3.231,-1.165 3.223,-8.94 3.463,1.248 -1.202,3.332 -0.101,0.281 c -0.139,0.386 -0.198,0.725 -0.18,1.018 -0.023,0.477 0.057,0.852 0.238,1.122 0.183,0.272 0.509,0.492 0.982,0.662 L 0.839,-3.257 0.31,0.019 0,0 z"
         style="fill:none;stroke:#ffffff;stroke-width:2;stroke-linecap:butt;stroke-linejoin:miter;stroke-miterlimit:4;stroke-opacity:1;stroke-dasharray:none"
         id="path3155"
         inkscape:connector-curvature="0" />
    </g>
    <g
       id="g3157"
       transform="matrix(12.302876,0,0,-12.302876,411.01106,695.66895)">
      <path
         d="m 0,0 c -0.538,0.864 -1.172,1.517 -1.903,1.955 -0.73,0.438 -1.522,0.658 -2.375,0.658 -0.059,0 -0.139,-0.004 -0.237,-0.009 -0.1,-0.007 -0.219,-0.015 -0.36,-0.026 -1.087,-0.13 -1.988,-0.546 -2.7,-1.253 -0.714,-0.706 -1.164,-1.619 -1.35,-2.74 -0.036,-0.268 -0.053,-0.525 -0.053,-0.771 0,-0.864 0.204,-1.646 0.614,-2.345 0.41,-0.701 1.026,-1.294 1.845,-1.779 0.82,-0.485 1.745,-0.726 2.776,-0.726 l 0.326,0 c 0.134,0 0.266,0.012 0.395,0.035 0.668,0.094 1.27,0.246 1.81,0.457 0.539,0.211 1.018,0.48 1.441,0.807 l -1.54,2.528 -0.105,-0.07 -0.124,-0.085 c -0.304,-0.183 -0.59,-0.321 -0.859,-0.411 -0.386,-0.138 -0.738,-0.206 -1.055,-0.206 -0.175,0 -0.351,0.015 -0.526,0.049 l -0.474,0.143 4.683,3.368 C 0.146,-0.281 0.07,-0.141 0,0 m -5.689,-2.393 -0.082,0.348 c 0,0.046 -0.012,0.115 -0.033,0.209 l 0,0.19 c 0,0.441 0.132,0.797 0.395,1.07 0.264,0.271 0.607,0.408 1.031,0.408 0.08,0 0.246,-0.02 0.491,-0.059 0.247,-0.038 0.47,-0.168 0.67,-0.388 l -2.472,-1.778 z"
         style="fill:#ffffff;fill-opacity:1;fill-rule:nonzero;stroke:none"
         id="path3159"
         inkscape:connector-curvature="0" />
    </g>
    <g
       id="g3161"
       transform="matrix(12.302876,0,0,-12.302876,411.01106,695.66895)">
      <path
         d="m 0,0 c -0.538,0.864 -1.172,1.517 -1.903,1.955 -0.73,0.438 -1.522,0.658 -2.375,0.658 -0.059,0 -0.139,-0.004 -0.237,-0.009 -0.1,-0.007 -0.219,-0.015 -0.36,-0.026 -1.087,-0.13 -1.988,-0.546 -2.7,-1.253 -0.714,-0.706 -1.164,-1.619 -1.35,-2.74 -0.036,-0.268 -0.053,-0.525 -0.053,-0.771 0,-0.864 0.204,-1.646 0.614,-2.345 0.41,-0.701 1.026,-1.294 1.845,-1.779 0.82,-0.485 1.745,-0.726 2.776,-0.726 l 0.326,0 c 0.134,0 0.266,0.012 0.395,0.035 0.668,0.094 1.27,0.246 1.81,0.457 0.539,0.211 1.018,0.48 1.441,0.807 l -1.54,2.528 -0.105,-0.07 -0.124,-0.085 c -0.304,-0.183 -0.59,-0.321 -0.859,-0.411 -0.386,-0.138 -0.738,-0.206 -1.055,-0.206 -0.175,0 -0.351,0.015 -0.526,0.049 l -0.474,0.143 4.683,3.368 C 0.146,-0.281 0.07,-0.141 0,0 z m -5.689,-2.393 -0.082,0.348 c 0,0.046 -0.012,0.115 -0.033,0.209 l 0,0.19 c 0,0.441 0.132,0.797 0.395,1.07 0.264,0.271 0.607,0.408 1.031,0.408 0.08,0 0.246,-0.02 0.491,-0.059 0.247,-0.038 0.47,-0.168 0.67,-0.388 l -2.472,-1.778 z"
         style="fill:none;stroke:#ffffff;stroke-width:2;stroke-linecap:butt;stroke-linejoin:miter;stroke-miterlimit:4;stroke-opacity:1;stroke-dasharray:none"
         id="path3163"
         inkscape:connector-curvature="0" />
    </g>
    <g
       id="g3165"
       transform="matrix(12.302876,0,0,-12.302876,579.83978,676.32509)">
      <path
         d="M 0,0 C -0.445,0.577 -1.13,0.865 -2.056,0.865 -2.559,0.865 -2.981,0.771 -3.321,0.583 -3.66,0.396 -4.006,0.066 -4.356,-0.403 l -0.194,-0.3 -0.123,0.317 c -0.223,0.377 -0.47,0.658 -0.738,0.846 -0.27,0.187 -0.621,0.311 -1.055,0.37 -0.047,0 -0.12,0.006 -0.219,0.017 -0.099,0.012 -0.184,0.018 -0.255,0.018 -0.598,0 -1.148,-0.2 -1.651,-0.599 -0.282,-0.246 -0.51,-0.54 -0.686,-0.881 l 0,1.51 -3.475,0 0,-9.503 3.475,0 0,4.642 0,0.333 0,0.264 c 0,0.632 0.235,0.948 0.703,0.948 l 0.126,0 c 0.035,0 0.103,-0.01 0.199,-0.026 0.096,-0.019 0.198,-0.1 0.306,-0.242 0.107,-0.144 0.162,-0.317 0.162,-0.52 l 0,-0.16 0,-0.084 0,-0.275 0,-4.88 3.476,0 0,4.66 0,0.263 0,0.316 c 0,0.573 0.213,0.889 0.639,0.948 l 0.164,0 c 0.462,0 0.693,-0.23 0.693,-0.688 l 0,-0.344 0,-0.275 0,-4.88 3.476,0 0,4.733 0,0.422 0,0.559 C 0.667,-1.542 0.445,-0.577 0,0"
         style="fill:#ffffff;fill-opacity:1;fill-rule:nonzero;stroke:none"
         id="path3167"
         inkscape:connector-curvature="0" />
    </g>
    <g
       id="g3169"
       transform="matrix(12.302876,0,0,-12.302876,579.83978,676.32509)">
      <path
         d="M 0,0 C -0.445,0.577 -1.13,0.865 -2.056,0.865 -2.559,0.865 -2.981,0.771 -3.321,0.583 -3.66,0.396 -4.006,0.066 -4.356,-0.403 l -0.194,-0.3 -0.123,0.317 c -0.223,0.377 -0.47,0.658 -0.738,0.846 -0.27,0.187 -0.621,0.311 -1.055,0.37 -0.047,0 -0.12,0.006 -0.219,0.017 -0.099,0.012 -0.184,0.018 -0.255,0.018 -0.598,0 -1.148,-0.2 -1.651,-0.599 -0.282,-0.246 -0.51,-0.54 -0.686,-0.881 l 0,1.51 -3.475,0 0,-9.503 3.475,0 0,4.642 0,0.333 0,0.264 c 0,0.632 0.235,0.948 0.703,0.948 l 0.126,0 c 0.035,0 0.103,-0.01 0.199,-0.026 0.096,-0.019 0.198,-0.1 0.306,-0.242 0.107,-0.144 0.162,-0.317 0.162,-0.52 l 0,-0.16 0,-0.084 0,-0.275 0,-4.88 3.476,0 0,4.66 0,0.263 0,0.316 c 0,0.573 0.213,0.889 0.639,0.948 l 0.164,0 c 0.462,0 0.693,-0.23 0.693,-0.688 l 0,-0.344 0,-0.275 0,-4.88 3.476,0 0,4.733 0,0.422 0,0.559 C 0.667,-1.542 0.445,-0.577 0,0 z"
         style="fill:none;stroke:#ffffff;stroke-width:2;stroke-linecap:butt;stroke-linejoin:miter;stroke-miterlimit:4;stroke-opacity:1;stroke-dasharray:none"
         id="path3171"
         inkscape:connector-curvature="0" />
    </g>
    <g
       id="g3173"
       transform="matrix(12.302876,0,0,-12.302876,610.32011,647.17839)">
      <path
         d="M 0,0 C 0.169,0 0.335,-0.044 0.496,-0.131 0.658,-0.219 0.784,-0.343 0.874,-0.505 0.963,-0.667 1.009,-0.836 1.009,-1.012 1.009,-1.188 0.964,-1.354 0.875,-1.515 0.786,-1.676 0.662,-1.8 0.502,-1.89 0.342,-1.979 0.175,-2.022 0,-2.022 c -0.175,0 -0.343,0.043 -0.502,0.132 -0.161,0.09 -0.286,0.214 -0.374,0.375 -0.09,0.161 -0.135,0.327 -0.135,0.503 0,0.176 0.046,0.345 0.136,0.507 0.091,0.162 0.217,0.286 0.378,0.374 C -0.335,-0.044 -0.17,0 0,0"
         style="fill:#ffffff;fill-opacity:1;fill-rule:nonzero;stroke:none"
         id="path3175"
         inkscape:connector-curvature="0" />
    </g>
    <g
       id="g3177"
       transform="matrix(12.302876,0,0,-12.302876,610.32011,647.17839)">
      <path
         d="M 0,0 C 0.169,0 0.335,-0.044 0.496,-0.131 0.658,-0.219 0.784,-0.343 0.874,-0.505 0.963,-0.667 1.009,-0.836 1.009,-1.012 1.009,-1.188 0.964,-1.354 0.875,-1.515 0.786,-1.676 0.662,-1.8 0.502,-1.89 0.342,-1.979 0.175,-2.022 0,-2.022 c -0.175,0 -0.343,0.043 -0.502,0.132 -0.161,0.09 -0.286,0.214 -0.374,0.375 -0.09,0.161 -0.135,0.327 -0.135,0.503 0,0.176 0.046,0.345 0.136,0.507 0.091,0.162 0.217,0.286 0.378,0.374 C -0.335,-0.044 -0.17,0 0,0 z"
         style="fill:none;stroke:#ffffff;stroke-width:1;stroke-linecap:butt;stroke-linejoin:miter;stroke-miterlimit:4;stroke-opacity:1;stroke-dasharray:none"
         id="path3179"
         inkscape:connector-curvature="0" />
    </g>
    <path
       d="m 161.61946,781.48269 45.31149,0 0,-116.91423 -45.31149,0 0,116.91423 z"
       style="fill:#f0394a;fill-opacity:1;fill-rule:nonzero;stroke:none"
       id="path3181"
       inkscape:connector-curvature="0" />
    <g
       id="g3183"
       transform="matrix(12.302876,0,0,-12.302876,227.34507,611.79532)">
      <path
         d="M 0,0 -3.487,3.414 -7.003,0 -3.487,-3.413 0,0 z"
         style="fill:#4349a6;fill-opacity:1;fill-rule:nonzero;stroke:none"
         id="path3185"
         inkscape:connector-curvature="0" />
    </g>
    <g
       id="g3187"
       transform="matrix(12.302876,0,0,-12.302876,288.73405,651.6591)">
      <path
         d="m 0,0 c -0.044,-0.015 -0.111,-0.038 -0.198,-0.071 -0.067,-0.024 -0.132,-0.046 -0.198,-0.071 -0.199,-0.071 -0.406,-0.194 -0.623,-0.369 -0.217,-0.174 -0.395,-0.395 -0.535,-0.662 -0.14,-0.269 -0.26,-0.656 -0.364,-1.165 l -0.048,-0.279 -0.619,1.718 -3.231,-1.165 3.223,-8.94 3.463,1.248 -1.202,3.332 -0.101,0.281 c -0.139,0.386 -0.198,0.725 -0.18,1.018 -0.023,0.477 0.057,0.852 0.238,1.122 0.183,0.272 0.509,0.492 0.982,0.662 L 0.839,-3.257 0.31,0.019 0,0 z"
         style="fill:#4349a6;fill-opacity:1;fill-rule:nonzero;stroke:none"
         id="path3189"
         inkscape:connector-curvature="0" />
    </g>
    <g
       id="g3191"
       transform="matrix(12.302876,0,0,-12.302876,411.01106,696.07731)">
      <path
         d="m 0,0 c -0.538,0.864 -1.172,1.517 -1.903,1.955 -0.73,0.438 -1.522,0.658 -2.375,0.658 -0.059,0 -0.139,-0.004 -0.237,-0.009 -0.1,-0.007 -0.219,-0.015 -0.36,-0.026 -1.087,-0.13 -1.988,-0.546 -2.7,-1.253 -0.714,-0.706 -1.164,-1.619 -1.35,-2.74 -0.036,-0.268 -0.053,-0.525 -0.053,-0.771 0,-0.864 0.204,-1.646 0.614,-2.345 0.41,-0.701 1.026,-1.294 1.845,-1.779 0.82,-0.485 1.745,-0.726 2.776,-0.726 l 0.326,0 c 0.134,0 0.266,0.012 0.395,0.035 0.668,0.094 1.27,0.246 1.81,0.457 0.539,0.211 1.018,0.48 1.441,0.807 l -1.54,2.528 -0.105,-0.07 -0.124,-0.085 c -0.304,-0.183 -0.59,-0.321 -0.859,-0.411 -0.386,-0.138 -0.738,-0.206 -1.055,-0.206 -0.175,0 -0.351,0.015 -0.526,0.049 l -0.474,0.143 4.683,3.368 C 0.146,-0.281 0.07,-0.141 0,0 m -5.689,-2.393 -0.082,0.348 c 0,0.046 -0.012,0.115 -0.033,0.209 l 0,0.19 c 0,0.441 0.132,0.797 0.395,1.07 0.264,0.271 0.607,0.408 1.031,0.408 0.08,0 0.246,-0.02 0.491,-0.059 0.247,-0.038 0.47,-0.168 0.67,-0.388 l -2.472,-1.778 z"
         style="fill:#4349a6;fill-opacity:1;fill-rule:nonzero;stroke:none"
         id="path3193"
         inkscape:connector-curvature="0" />
    </g>
    <g
       id="g3195"
       transform="matrix(12.302876,0,0,-12.302876,579.83978,676.73354)">
      <path
         d="M 0,0 C -0.445,0.577 -1.13,0.865 -2.056,0.865 -2.559,0.865 -2.981,0.771 -3.321,0.583 -3.66,0.396 -4.006,0.066 -4.356,-0.403 l -0.194,-0.3 -0.123,0.317 c -0.223,0.377 -0.47,0.658 -0.738,0.846 -0.27,0.187 -0.621,0.311 -1.055,0.37 -0.047,0 -0.12,0.006 -0.219,0.017 -0.099,0.012 -0.184,0.018 -0.255,0.018 -0.598,0 -1.148,-0.2 -1.651,-0.599 -0.282,-0.246 -0.51,-0.54 -0.686,-0.881 l 0,1.51 -3.475,0 0,-9.503 3.475,0 0,4.642 0,0.333 0,0.264 c 0,0.632 0.235,0.948 0.703,0.948 l 0.126,0 c 0.035,0 0.103,-0.01 0.199,-0.026 0.096,-0.019 0.198,-0.1 0.306,-0.242 0.107,-0.144 0.162,-0.317 0.162,-0.52 l 0,-0.16 0,-0.084 0,-0.275 0,-4.88 3.476,0 0,4.66 0,0.263 0,0.316 c 0,0.573 0.213,0.889 0.639,0.948 l 0.164,0 c 0.462,0 0.693,-0.23 0.693,-0.688 l 0,-0.344 0,-0.275 0,-4.88 3.476,0 0,4.733 0,0.422 0,0.559 C 0.667,-1.542 0.445,-0.577 0,0"
         style="fill:#4349a6;fill-opacity:1;fill-rule:nonzero;stroke:none"
         id="path3197"
         inkscape:connector-curvature="0" />
    </g>
    <g
       id="g3199"
       transform="matrix(12.302876,0,0,-12.302876,607.03396,659.373)">
      <path
         d="m 0,0 0.212,0 c 0.102,0 0.172,0.015 0.209,0.045 0.037,0.03 0.056,0.07 0.056,0.121 0,0.032 -0.01,0.062 -0.027,0.086 C 0.432,0.277 0.407,0.297 0.375,0.31 0.343,0.321 0.285,0.327 0.199,0.327 L 0,0.327 0,0 z m -0.175,-0.613 0,1.089 0.373,0 c 0.128,0 0.22,-0.01 0.278,-0.03 C 0.533,0.425 0.578,0.39 0.612,0.34 0.646,0.291 0.663,0.237 0.663,0.182 0.663,0.102 0.635,0.032 0.577,-0.026 0.521,-0.086 0.445,-0.119 0.352,-0.126 0.389,-0.142 0.42,-0.161 0.443,-0.185 0.487,-0.227 0.54,-0.299 0.603,-0.399 l 0.132,-0.214 -0.212,0 -0.096,0.172 C 0.351,-0.307 0.29,-0.221 0.243,-0.188 0.21,-0.162 0.164,-0.15 0.103,-0.151 l -0.103,0 0,-0.462 -0.175,0 z M 0.267,0.79 C 0.125,0.79 -0.013,0.754 -0.147,0.681 -0.282,0.608 -0.387,0.504 -0.463,0.369 -0.539,0.232 -0.576,0.092 -0.576,-0.054 c 0,-0.145 0.037,-0.286 0.111,-0.421 0.075,-0.132 0.179,-0.237 0.313,-0.31 0.133,-0.076 0.274,-0.112 0.419,-0.112 0.145,0 0.284,0.036 0.419,0.112 0.133,0.073 0.237,0.178 0.312,0.31 0.073,0.135 0.111,0.276 0.111,0.421 0,0.146 -0.038,0.286 -0.113,0.423 C 0.92,0.504 0.815,0.608 0.68,0.681 0.546,0.754 0.408,0.79 0.267,0.79 m 0,0.168 c 0.17,0 0.335,-0.044 0.496,-0.131 C 0.925,0.739 1.051,0.615 1.141,0.453 1.23,0.291 1.276,0.122 1.276,-0.054 1.276,-0.229 1.231,-0.396 1.143,-0.557 1.053,-0.718 0.929,-0.842 0.77,-0.932 0.609,-1.021 0.442,-1.064 0.267,-1.064 c -0.175,0 -0.343,0.043 -0.502,0.132 -0.161,0.09 -0.286,0.214 -0.374,0.375 -0.09,0.161 -0.135,0.328 -0.135,0.503 0,0.176 0.046,0.345 0.137,0.507 0.09,0.162 0.216,0.286 0.377,0.374 0.162,0.087 0.327,0.131 0.497,0.131"
         style="fill:#231f20;fill-opacity:1;fill-rule:nonzero;stroke:none"
         id="path3201"
         inkscape:connector-curvature="0" />
    </g>
  </g>
</svg>
