<?xml version="1.0" encoding="UTF-8" standalone="no"?>
<!-- Created with Inkscape (http://www.inkscape.org/) -->

<svg
   xmlns:dc="http://purl.org/dc/elements/1.1/"
   xmlns:cc="http://creativecommons.org/ns#"
   xmlns:rdf="http://www.w3.org/1999/02/22-rdf-syntax-ns#"
   xmlns:svg="http://www.w3.org/2000/svg"
   xmlns="http://www.w3.org/2000/svg"
   xmlns:sodipodi="http://sodipodi.sourceforge.net/DTD/sodipodi-0.dtd"
   xmlns:inkscape="http://www.inkscape.org/namespaces/inkscape"
   width="620.07874"
   height="159.44882"
   id="svg3023"
   version="1.1"
   inkscape:version="0.48.2 r9819"
   sodipodi:docname="Kaneko 07(homemade).svg">
  <defs
     id="defs3" />
  <sodipodi:namedview
     id="base"
     pagecolor="#ffffff"
     bordercolor="#666666"
     borderopacity="1.0"
     inkscape:pageopacity="0.0"
     inkscape:pageshadow="2"
     inkscape:zoom="2.4"
     inkscape:cx="321.11389"
     inkscape:cy="66.429774"
     inkscape:document-units="mm"
     inkscape:current-layer="layer1"
     showgrid="false"
     units="mm"
     inkscape:window-width="1920"
     inkscape:window-height="1011"
     inkscape:window-x="-4"
     inkscape:window-y="-4"
     inkscape:window-maximized="1">
    <inkscape:grid
       type="xygrid"
       id="grid2995" />
  </sodipodi:namedview>
  <metadata
     id="metadata3027">
    <rdf:RDF>
      <cc:Work
         rdf:about="">
        <dc:format>image/svg+xml</dc:format>
        <dc:type
           rdf:resource="http://purl.org/dc/dcmitype/StillImage" />
        <dc:title />
      </cc:Work>
    </rdf:RDF>
  </metadata>
  <g
     inkscape:label="Layer 1"
     inkscape:groupmode="layer"
     id="layer1"
     transform="translate(0,-17.716565)">
    <path
       style="fill:#f80000;fill-opacity:1;stroke:none"
       d="m 72.070639,47.611637 0,95.000003 448.000001,-1 0,-94.000003 z"
       id="path3009"
       inkscape:connector-curvature="0" />
    <path
       style="fill:#ffffff;stroke:none"
       d="m 99.070639,61.611637 16.000001,0 0,67.000003 -16.000001,0 z"
       id="path2986"
       inkscape:connector-curvature="0" />
    <path
       style="fill:#ffffff;stroke:none"
       d="m 378.07064,61.611637 0,14 -61,0 0,-14 z"
       id="path2986-7"
       inkscape:connector-curvature="0" />
    <path
       style="fill:#ffffff;stroke:none"
       d="m 201.07064,86.611637 -12,27.000003 28,0 -26,-52.000003 17,0 33,67.000003 -72,0 0,-5 19,-37.000003 z"
       id="path2991"
       inkscape:connector-curvature="0"
       sodipodi:nodetypes="cccccccccc" />
    <path
       style="fill:#ffffff;stroke:none"
       d="m 263.07064,128.61164 -17,0 0,-67.000003 38,0 c 14.39203,0.33064 22,10.96857 22,22 l 0,45.000003 -16,0 0,-37.000003 c 0,-8.445292 -2.61512,-16 -16,-16 l -11,0 z"
       id="path2993"
       inkscape:connector-curvature="0"
       sodipodi:nodetypes="ccccsccsscc" />
    <path
       inkscape:connector-curvature="0"
       style="fill:#ffffff;stroke:none"
       d="m 317.07064,87.610907 c -0.0706,18.554483 -0.0557,24.444253 0,41.000003 l 61,0 0,-14 -44,0 0,-13 44,0 0,-14.000003 z"
       id="path2986-7-1"
       sodipodi:nodetypes="ccccccccc" />
    <path
       style="fill:#ffffff;stroke:none"
       d="m 412.07064,61.611637 19,0 -30,32 33,35.000003 -21,0 -27,-27 0,-14.000003 z"
       id="path3013-0"
       inkscape:connector-curvature="0"
       sodipodi:nodetypes="cccccccc" />
    <path
       id="path3045"
       style="fill:#f80000;fill-opacity:1;fill-rule:nonzero;stroke:none"
       d="m 525.6864,125.73298 c 0,-3.86977 1.50292,-7.49693 4.24252,-10.23654 2.73962,-2.73369 6.3668,-4.23071 10.24248,-4.23071 3.86978,0 7.49694,1.49702 10.23654,4.23071 2.7396,2.73961 4.24255,6.36677 4.24255,10.23654 0,7.98807 -6.49695,14.48501 -14.47909,14.48501 -3.87568,0 -7.50286,-1.50295 -10.24248,-4.24255 -2.7396,-2.72777 -4.24252,-6.36678 -4.24252,-10.24246 m 14.485,16.84 c 4.49106,0 8.72177,-1.75146 11.89924,-4.923 3.17747,-3.18931 4.93484,-7.42003 4.93484,-11.917 0,-4.48515 -1.75737,-8.70993 -4.93484,-11.89924 -3.17747,-3.18339 -7.40818,-4.92893 -11.89924,-4.92893 -9.29573,0 -16.83409,7.5502 -16.83409,16.82817 0,4.49697 1.75146,8.72769 4.92893,11.917 3.18338,3.17154 7.40818,4.923 11.90516,4.923"
       inkscape:connector-curvature="0" />
    <path
       id="path3049"
       style="fill:#f80000;fill-opacity:1;fill-rule:nonzero;stroke:none"
       d="m 535.84483,125.08862 4.93484,0 c 0.79881,0 1.54435,0 2.28401,-0.18934 1.71595,-0.42011 2.32539,-1.6627 2.32539,-3.0118 0,-0.47336 -0.0534,-1.74553 -1.11241,-2.61536 -0.97631,-0.81654 -2.18932,-0.79288 -3.62125,-0.79288 l -4.81058,0 0,6.60938 z m 0,2.06505 0,7.92296 -2.43783,0 0,-18.66835 6.9348,0 c 2.58578,0.0356 4.12421,0.0356 5.56796,1.14199 1.38462,1.02955 1.96448,2.59168 1.96448,4.30761 0,4.3609 -3.52065,4.97627 -4.42596,5.13602 l 5.24253,8.08273 -2.95855,0 -5.07685,-7.92296 -4.81058,0 z"
       inkscape:connector-curvature="0" />
    <path
       style="fill:#ffffff;stroke:none"
       d="m 144.07064,61.611637 19,0 -30,32 33,35.000003 -21,0 -27,-27 0,-14.000003 z"
       id="path3013-0-1"
       inkscape:connector-curvature="0"
       sodipodi:nodetypes="cccccccc" />
    <path
       sodipodi:type="arc"
       style="fill:#ffffff;fill-opacity:1;fill-rule:evenodd;stroke:none"
       id="path3774"
       sodipodi:cx="37.5"
       sodipodi:cy="641.59448"
       sodipodi:rx="2.5"
       sodipodi:ry="2.5"
       d="m 40,641.59448 c 0,1.38071 -1.119288,2.5 -2.5,2.5 -1.380712,0 -2.5,-1.11929 -2.5,-2.5 0,-1.38071 1.119288,-2.5 2.5,-2.5 1.380712,0 2.5,1.11929 2.5,2.5 z"
       transform="matrix(4.4,0,0,5.1999961,-92.929361,-3241.677)" />
    <path
       sodipodi:type="arc"
       style="fill:#ffffff;fill-opacity:1;fill-rule:evenodd;stroke:none"
       id="path3021-1"
       sodipodi:cx="447.5"
       sodipodi:cy="661.59448"
       sodipodi:rx="2.5"
       sodipodi:ry="2.5"
       d="m 450,661.59448 c 0,1.38071 -1.11929,2.5 -2.5,2.5 -1.38071,0 -2.5,-1.11929 -2.5,-2.5 0,-1.38071 1.11929,-2.5 2.5,-2.5 1.38071,0 2.5,1.11929 2.5,2.5 z"
       transform="matrix(14.199933,0,0,14.199933,-5885.8416,-9299.4137)" />
    <path
       sodipodi:type="arc"
       style="fill:#f80000;fill-opacity:1;fill-rule:evenodd;stroke:none"
       id="path3021"
       sodipodi:cx="447.5"
       sodipodi:cy="661.59448"
       sodipodi:rx="2.5"
       sodipodi:ry="2.5"
       d="m 450,661.59448 c 0,1.38071 -1.11929,2.5 -2.5,2.5 -1.38071,0 -2.5,-1.11929 -2.5,-2.5 0,-1.38071 1.11929,-2.5 2.5,-2.5 1.38071,0 2.5,1.11929 2.5,2.5 z"
       transform="matrix(7.3999987,0,0,7.8000009,-2842.9288,-5065.3258)" />
  </g>
</svg>
