<?xml version="1.0" encoding="UTF-8" standalone="no"?>
<!-- Generator: Adobe Illustrator 13.0.0, SVG Export Plug-In . SVG Version: 6.00 Build 14948)  -->

<svg
   xmlns:dc="http://purl.org/dc/elements/1.1/"
   xmlns:cc="http://creativecommons.org/ns#"
   xmlns:rdf="http://www.w3.org/1999/02/22-rdf-syntax-ns#"
   xmlns:svg="http://www.w3.org/2000/svg"
   xmlns="http://www.w3.org/2000/svg"
   xmlns:xlink="http://www.w3.org/1999/xlink"
   xmlns:sodipodi="http://sodipodi.sourceforge.net/DTD/sodipodi-0.dtd"
   xmlns:inkscape="http://www.inkscape.org/namespaces/inkscape"
   version="1.0"
   id="Love_Logo"
   x="0px"
   y="0px"
   width="270px"
   height="82.35px"
   viewBox="3 136.909 270 82.35"
   enable-background="new 3 136.909 270 82.35"
   xml:space="preserve"
   inkscape:version="0.91 r13725"
   sodipodi:docname="system.svg"><metadata
     id="metadata3366"><rdf:RDF><cc:Work
         rdf:about=""><dc:format>image/svg+xml</dc:format><dc:type
           rdf:resource="http://purl.org/dc/dcmitype/StillImage" /></cc:Work></rdf:RDF></metadata><defs
     id="defs3364"><linearGradient
       id="linearGradient3381"
       inkscape:collect="always"><stop
         id="stop3383"
         offset="0"
         style="stop-color:#abdfff;stop-opacity:1;" /><stop
         id="stop3385"
         offset="1"
         style="stop-color:#00d3ff;stop-opacity:1" /></linearGradient><linearGradient
       id="linearGradient3375"
       inkscape:collect="always"><stop
         id="stop3377"
         offset="0"
         style="stop-color:#abdfff;stop-opacity:1;" /><stop
         id="stop3379"
         offset="1"
         style="stop-color:#00d3ff;stop-opacity:1" /></linearGradient><linearGradient
       id="linearGradient3369"
       inkscape:collect="always"><stop
         id="stop3371"
         offset="0"
         style="stop-color:#abdfff;stop-opacity:1;" /><stop
         id="stop3373"
         offset="1"
         style="stop-color:#00d3ff;stop-opacity:1" /></linearGradient><linearGradient
       id="linearGradient3363"
       inkscape:collect="always"><stop
         id="stop3365"
         offset="0"
         style="stop-color:#abdfff;stop-opacity:1;" /><stop
         id="stop3367"
         offset="1"
         style="stop-color:#00d3ff;stop-opacity:1" /></linearGradient><linearGradient
       id="linearGradient3357"
       inkscape:collect="always"><stop
         id="stop3359"
         offset="0"
         style="stop-color:#abdfff;stop-opacity:1;" /><stop
         id="stop3361"
         offset="1"
         style="stop-color:#00d3ff;stop-opacity:1" /></linearGradient><linearGradient
       inkscape:collect="always"
       id="linearGradient3339"><stop
         style="stop-color:#abdfff;stop-opacity:1;"
         offset="0"
         id="stop3341" /><stop
         id="stop4187"
         offset="0.50858116"
         style="stop-color:#66d2ff;stop-opacity:1" /><stop
         style="stop-color:#00d3ff;stop-opacity:1"
         offset="1"
         id="stop3343" /></linearGradient><linearGradient
       inkscape:collect="always"
       xlink:href="#linearGradient3339"
       id="linearGradient3345"
       x1="134.21683"
       y1="137.42271"
       x2="134.61504"
       y2="218.86076"
       gradientUnits="userSpaceOnUse" /><linearGradient
       inkscape:collect="always"
       xlink:href="#linearGradient3381"
       id="linearGradient3347"
       x1="134.21683"
       y1="137.42271"
       x2="134.61504"
       y2="218.86076"
       gradientUnits="userSpaceOnUse" /><linearGradient
       inkscape:collect="always"
       xlink:href="#linearGradient3375"
       id="linearGradient3349"
       x1="134.21683"
       y1="137.42271"
       x2="134.61504"
       y2="218.86076"
       gradientUnits="userSpaceOnUse" /><linearGradient
       inkscape:collect="always"
       xlink:href="#linearGradient3369"
       id="linearGradient3351"
       x1="134.21683"
       y1="137.42271"
       x2="134.61504"
       y2="218.86076"
       gradientUnits="userSpaceOnUse" /><linearGradient
       inkscape:collect="always"
       xlink:href="#linearGradient3363"
       id="linearGradient3353"
       x1="134.21683"
       y1="137.42271"
       x2="134.61504"
       y2="218.86076"
       gradientUnits="userSpaceOnUse" /><linearGradient
       inkscape:collect="always"
       xlink:href="#linearGradient3357"
       id="linearGradient3355"
       x1="134.21683"
       y1="137.42271"
       x2="134.61504"
       y2="218.86076"
       gradientUnits="userSpaceOnUse" /></defs><sodipodi:namedview
     pagecolor="#ffffff"
     bordercolor="#666666"
     borderopacity="1"
     objecttolerance="10"
     gridtolerance="10"
     guidetolerance="10"
     inkscape:pageopacity="0"
     inkscape:pageshadow="2"
     inkscape:window-width="1920"
     inkscape:window-height="1005"
     id="namedview3362"
     showgrid="false"
     inkscape:zoom="3.5512474"
     inkscape:cx="64.597385"
     inkscape:cy="65.818322"
     inkscape:window-x="-9"
     inkscape:window-y="-9"
     inkscape:window-maximized="1"
     inkscape:current-layer="Love_Logo" /><title
     id="title3348">3DO Logo</title><path
     d="m 30.09546,204.46515 c -6.309,-7.225 -9.388,-16.951 -9.387,-27.437 l 0,0 c 0.002,-7.001 1.363,-14.389 4.107,-21.802 l 0,0 c 1.076,-2.91 4.309,-4.396 7.218,-3.319 l 0,0 c 2.91,1.076 4.397,4.309 3.319,7.219 l 0,0 c -2.32,6.266 -3.409,12.366 -3.407,17.902 l 0,0 c 0.002,8.335 2.439,15.287 6.605,20.039 l 0,0 c 4.195,4.729 10.087,7.654 18.639,7.703 l 0,0 c 2.787,0 5.846,-0.332 9.18,-1.07 l 0,0 c 3.029,-0.668 6.028,1.246 6.697,4.275 l 0,0 c 0.668,3.031 -1.244,6.029 -4.274,6.697 l 0,0 c -4.05,0.895 -7.92,1.334 -11.602,1.334 l 0,0 c -0.063,0 -0.124,0.002 -0.186,0.002 l 0,0 c -11.194,-0.002 -20.664,-4.336 -26.909,-11.543 l 0,0 z"
     id="path3350"
     inkscape:connector-curvature="0"
     style="fill:url(#linearGradient3355);fill-opacity:1" /><path
     d="m 68.97846,184.63115 c 0.004,-17.6 14.265,-31.862 31.867,-31.865 l 0,0 c 17.599,0.003 31.861,14.265 31.866,31.865 l 0,0 -10e-4,0 c -0.004,17.604 -14.266,31.863 -31.865,31.867 l 0,0 c -17.602,-0.004 -31.863,-14.264 -31.867,-31.867 l 0,0 z m 11.237,0 c 0.02,11.393 9.237,20.609 20.63,20.631 l 0,0 c 11.389,-0.021 20.608,-9.238 20.629,-20.631 l 0,0 -0.002,0 c -0.019,-11.389 -9.238,-20.606 -20.627,-20.628 l 0,0 c -11.391,0.022 -20.61,9.239 -20.63,20.628 l 0,0 z"
     id="path3352"
     inkscape:connector-curvature="0"
     style="fill:url(#linearGradient3353);fill-opacity:1" /><path
     d="m 157.58746,213.74615 c -1.918,-1.084 -3.554,-2.5 -5.073,-4.129 l 0,0 c -3.017,-3.268 -5.636,-7.445 -8.307,-12.416 l 0,0 c -5.301,-9.924 -10.676,-23.086 -16.948,-37.551 l 0,0 0,0.002 c -1.234,-2.847 0.073,-6.156 2.92,-7.391 l 0,0 c 2.848,-1.234 6.156,0.074 7.391,2.921 l 0,0 c 4.144,9.565 7.874,18.474 11.334,26.044 l 0,0 c 3.448,7.564 6.672,13.811 9.539,17.854 l 0,0 c 1.889,2.709 3.645,4.34 4.65,4.869 l 0,0 c 0.503,0.277 0.76,0.328 0.936,0.34 l 0,0 c 0.013,-0.004 0.028,-0.01 0.049,-0.018 l 0,0 c 0.141,-0.053 0.438,-0.197 0.833,-0.48 l 0,0 c 0.798,-0.555 1.95,-1.652 3.189,-3.174 l 0,0 c 2.507,-3.047 5.378,-7.713 8.17,-12.971 l 0,0 c 5.617,-10.551 11.023,-23.438 14.884,-32.047 l 0,0 c 1.271,-2.83 4.596,-4.094 7.427,-2.824 l 0,0 c 2.831,1.271 4.096,4.595 2.825,7.427 l 0,0 c -2.473,5.502 -5.698,13.068 -9.292,20.76 l 0,0 c -3.604,7.701 -7.552,15.523 -11.687,21.791 l 0,0 c -2.793,4.184 -5.555,7.707 -9.017,10.205 l 0,0 c -1.979,1.396 -4.386,2.555 -7.306,2.572 l 0,0 c -0.009,0 -0.019,0 -0.026,0 l 0,0 c -2.356,0.001 -4.598,-0.71 -6.491,-1.784 l 0,0 z"
     id="path3354"
     inkscape:connector-curvature="0"
     style="fill:url(#linearGradient3347);fill-opacity:1" /><path
     d="m 204.36646,205.73415 c -5.375,-6.164 -7.414,-14.008 -7.416,-21.465 l 0,0 c 0.014,-8.898 4.037,-16.559 9.321,-22.019 l 0,0 c 5.346,-5.448 11.925,-9.059 18.738,-9.476 l 0,0 c 0.485,-0.027 0.965,-0.037 1.438,-0.038 l 0,0 c 4.446,0.011 9.197,0.956 13.684,2.808 l 0,0 c 4.463,1.871 8.738,4.648 11.726,8.875 l 0,0 c 1.979,2.799 3.274,6.342 3.26,10.174 l 0,0 c 0.007,3.309 -0.54,6.424 -1.873,9.209 l 0,0 c -1.32,2.791 -3.396,5.066 -5.755,6.797 l 0,0 c -4.765,3.455 -10.533,5.348 -17.933,7.934 l 0,0 0.002,0 c -2.936,1.01 -6.133,-0.549 -7.144,-3.482 l 0,0 c -1.01,-2.934 0.55,-6.135 3.485,-7.143 l 0,0 c 5.511,-1.891 9.784,-3.43 12.586,-4.916 l 0,0 c 2.853,-1.527 3.962,-2.691 4.618,-4.031 l 0,0 c 0.442,-0.934 0.773,-2.235 0.776,-4.368 l 0,0 c -0.013,-1.402 -0.393,-2.506 -1.23,-3.73 l 0,0 c -0.837,-1.206 -2.204,-2.443 -3.965,-3.502 l 0,0 c -3.494,-2.149 -8.521,-3.418 -12.237,-3.387 l 0,0 c -0.301,0 -0.585,0.008 -0.858,0.023 l 0,0 c -2.845,0.063 -7.637,2.258 -11.242,6.066 l 0,0 c -3.665,3.79 -6.174,8.829 -6.159,14.206 l 0,0 c -0.003,5.463 1.525,10.541 4.633,14.064 l 0,0 c 3.124,3.498 7.903,6.1 16.539,6.156 l 0,0 c 1.799,0 3.758,-0.125 5.885,-0.393 l 0,0 c 3.079,-0.391 5.891,1.787 6.282,4.865 l 0,0 c 0.39,3.078 -1.788,5.891 -4.865,6.281 l 0,0 c -2.557,0.324 -4.987,0.484 -7.302,0.484 l 0,0 c -0.082,0 -0.163,0 -0.245,0 l 0,0 c -10.903,0.003 -19.431,-3.843 -24.749,-9.992 l 0,0 z"
     id="path3356"
     inkscape:connector-curvature="0"
     style="fill:url(#linearGradient3345);fill-opacity:1" /><circle
     cx="93.587463"
     cy="146.41016"
     r="6.4109998"
     id="circle3358"
     style="fill:url(#linearGradient3351);fill-opacity:1" /><circle
     cx="109.31246"
     cy="146.41016"
     r="6.4109998"
     id="circle3360"
     style="fill:url(#linearGradient3349);fill-opacity:1" /></svg>
