<?xml version="1.0" encoding="UTF-8" standalone="no"?>
<!-- Created with Inkscape (http://www.inkscape.org/) -->

<svg
   xmlns:dc="http://purl.org/dc/elements/1.1/"
   xmlns:cc="http://creativecommons.org/ns#"
   xmlns:rdf="http://www.w3.org/1999/02/22-rdf-syntax-ns#"
   xmlns:svg="http://www.w3.org/2000/svg"
   xmlns="http://www.w3.org/2000/svg"
   xmlns:sodipodi="http://sodipodi.sourceforge.net/DTD/sodipodi-0.dtd"
   xmlns:inkscape="http://www.inkscape.org/namespaces/inkscape"
   width="4663.2041"
   height="506.53043"
   id="svg2"
   version="1.1"
   inkscape:version="0.48.0 r9654"
   sodipodi:docname="UPLOAD THIS.svg">
  <defs
     id="defs4">
    <inkscape:path-effect
       effect="skeletal"
       id="path-effect3036"
       is_visible="true"
       pattern="m -9.0913734,-5.0507627 0,10 10.00000005,-5.00000003 z"
       copytype="single_stretched"
       prop_scale="1"
       scale_y_rel="false"
       spacing="0"
       normal_offset="0"
       tang_offset="0"
       prop_units="false"
       vertical_pattern="false"
       fuse_tolerance="0" />
    <inkscape:path-effect
       effect="spiro"
       id="path-effect3034"
       is_visible="true" />
    <inkscape:path-effect
       effect="skeletal"
       id="path-effect3030"
       is_visible="true"
       pattern="M 0,0 0,10 10,5 z"
       copytype="single_stretched"
       prop_scale="1"
       scale_y_rel="false"
       spacing="0"
       normal_offset="0"
       tang_offset="0"
       prop_units="false"
       vertical_pattern="false"
       fuse_tolerance="0" />
    <inkscape:path-effect
       effect="spiro"
       id="path-effect3028"
       is_visible="true" />
    <inkscape:path-effect
       effect="skeletal"
       id="path-effect3024"
       is_visible="true"
       pattern="M 0,0 0,10 10,5 z"
       copytype="single_stretched"
       prop_scale="1"
       scale_y_rel="false"
       spacing="0"
       normal_offset="0"
       tang_offset="0"
       prop_units="false"
       vertical_pattern="false"
       fuse_tolerance="0" />
    <inkscape:path-effect
       effect="spiro"
       id="path-effect3022"
       is_visible="true" />
    <inkscape:path-effect
       effect="skeletal"
       id="path-effect3018"
       is_visible="true"
       pattern="M 0,0 0,10 10,5 z"
       copytype="single_stretched"
       prop_scale="1"
       scale_y_rel="false"
       spacing="0"
       normal_offset="0"
       tang_offset="0"
       prop_units="false"
       vertical_pattern="false"
       fuse_tolerance="0" />
    <inkscape:path-effect
       effect="spiro"
       id="path-effect3016"
       is_visible="true" />
    <inkscape:path-effect
       effect="skeletal"
       id="path-effect3012"
       is_visible="true"
       pattern="M 0,0 0,10 10,5 z"
       copytype="single_stretched"
       prop_scale="1"
       scale_y_rel="false"
       spacing="0"
       normal_offset="0"
       tang_offset="0"
       prop_units="false"
       vertical_pattern="false"
       fuse_tolerance="0" />
    <inkscape:path-effect
       effect="spiro"
       id="path-effect3010"
       is_visible="true" />
  </defs>
  <sodipodi:namedview
     id="base"
     pagecolor="#ffffff"
     bordercolor="#666666"
     borderopacity="1.0"
     inkscape:pageopacity="0.0"
     inkscape:pageshadow="2"
     inkscape:zoom="0.175"
     inkscape:cx="2267.3878"
     inkscape:cy="51.99112"
     inkscape:document-units="px"
     inkscape:current-layer="layer2"
     showgrid="false"
     inkscape:window-width="1024"
     inkscape:window-height="706"
     inkscape:window-x="-8"
     inkscape:window-y="-8"
     inkscape:window-maximized="1"
     fit-margin-top="0"
     fit-margin-left="0"
     fit-margin-right="0"
     fit-margin-bottom="0"
     showguides="true"
     inkscape:guide-bbox="true" />
  <metadata
     id="metadata7">
    <rdf:RDF>
      <cc:Work
         rdf:about="">
        <dc:format>image/svg+xml</dc:format>
        <dc:type
           rdf:resource="http://purl.org/dc/dcmitype/StillImage" />
        <dc:title></dc:title>
      </cc:Work>
    </rdf:RDF>
  </metadata>
  <g
     inkscape:groupmode="layer"
     id="layer2"
     inkscape:label="Layer"
     style="display:inline"
     transform="translate(6.8849628,-254.30245)">
    <rect
       style="fill:#000000;fill-opacity:1;stroke:#000000;stroke-width:4.10045147;stroke-linecap:round;stroke-linejoin:miter;stroke-miterlimit:4;stroke-opacity:0;stroke-dasharray:none;stroke-dashoffset:0;display:inline"
       id="rect4013-7"
       width="754.98938"
       height="128.20538"
       x="-3.4603243"
       y="632.54132" />
    <rect
       style="fill:#000000;fill-opacity:1;stroke:#000000;stroke-width:6.84927702;stroke-linecap:round;stroke-linejoin:miter;stroke-miterlimit:4;stroke-opacity:0;stroke-dasharray:none;stroke-dashoffset:0"
       id="rect4013"
       width="754.98938"
       height="357.71109"
       x="-3.4603243"
       y="266.07413" />
    <g
       id="g3975">
      <g
         id="g3903" />
    </g>
    <flowRoot
       xml:space="preserve"
       id="flowRoot3018"
       style="font-size:40px;font-style:normal;font-weight:normal;line-height:125%;letter-spacing:0px;word-spacing:0px;fill:#000000;fill-opacity:1;stroke:none;font-family:Sans"><flowRegion
         id="flowRegion3020"><rect
           id="rect3022"
           width="332.85715"
           height="170"
           x="87.14286"
           y="828.07648" /></flowRegion><flowPara
         id="flowPara3024" /></flowRoot>    <path
       style="fill:#ff0000;fill-opacity:1;stroke:#000000;stroke-width:0.78196591000000004px;stroke-linecap:butt;stroke-linejoin:miter;stroke-opacity:0;display:inline"
       d="m 221.23314,300.21706 0,277.25659 -186.417554,0 z"
       id="path3038"
       inkscape:connector-curvature="0" />
    <rect
       style="fill:#00aa00;fill-opacity:1;stroke:#000000;stroke-width:5.22118664;stroke-linecap:round;stroke-linejoin:miter;stroke-miterlimit:4;stroke-opacity:0;stroke-dasharray:none;stroke-dashoffset:0;display:inline"
       id="rect3834"
       width="90.049149"
       height="274.09698"
       x="418.69345"
       y="305.74643" />
    <path
       style="fill:#00aa00;fill-opacity:1;stroke:#000000;stroke-width:5.15488958;stroke-linecap:round;stroke-linejoin:miter;stroke-miterlimit:4;stroke-opacity:0;stroke-dasharray:none;stroke-dashoffset:0;display:inline"
       d="m 528.12927,305.87607 c -0.96283,-0.0284 -2.03565,-0.0527 -3.24331,-0.0723 l -0.55302,93.9021 c 0.0725,0.002 0.14658,-0.002 0.21899,0 l 0,-0.29199 c 1.53191,-0.20301 3.07464,-0.30501 4.64742,-0.34065 l 18.90605,-92.024 c -7.3772,-0.89617 -14.32493,-0.99417 -19.97613,-1.17314 z m 34.67271,2.60872 -26.54632,91.00206 c 2.36444,0.32536 4.68198,0.84291 6.91031,1.53291 l 43.60313,-86.52494 c -7.70126,-2.70411 -15.70245,-4.73842 -23.96712,-6.01003 z m 38.54205,12.11739 -52.14369,82.77779 c 1.74264,0.84326 3.43178,1.81168 5.03674,2.87119 l 66.98627,-73.70192 c -6.24807,-4.53211 -12.89476,-8.52489 -19.87932,-11.94706 z m 32.41036,22.23954 -74.94287,66.88893 c 1.79115,1.55446 3.46825,3.2613 4.98807,5.08541 l 88.17954,-51.34072 c -5.36824,-7.48426 -11.48818,-14.39879 -18.22474,-20.63362 z m 25.06206,31.16942 -91.75635,45.23336 c 1.05226,1.64269 1.99178,3.351 2.82252,5.13407 l 100.7349,-24.23476 c -3.02743,-9.18461 -6.99684,-17.93293 -11.80107,-26.13267 z m 15.57254,40.05063 -102.65713,15.0129 c 1.05259,3.1696 1.7605,6.50684 2.06823,9.95183 l 103.60608,0 c -0.24378,-8.5413 -1.27796,-16.8878 -3.01718,-24.96473 z m -100.5889,33.18898 c -2.12702,22.27537 -20.80164,39.68565 -43.50579,39.68565 -1.95331,0 -3.8569,-0.13945 -5.74237,-0.38932 l 0,-1.89789 c -0.0724,0.002 -0.1465,-0.002 -0.21899,0 l 0,94.81341 c 7.77461,-0.0558 11.78634,-0.38053 17.83543,-0.38053 73.31463,0 133.00698,-58.63482 135.2378,-131.83132 z"
       id="path3838"
       inkscape:connector-curvature="0"
       sodipodi:nodetypes="ccccccccccccccccccccccccccccccccccccccsccc" />
    <path
       style="fill:#ff0000;fill-opacity:1;stroke:#000000;stroke-width:0.78196591000000004px;stroke-linecap:butt;stroke-linejoin:miter;stroke-opacity:0;display:inline"
       d="m 377.23314,300.21706 0,277.25658 -186.41755,0 z"
       id="path3038-4"
       inkscape:connector-curvature="0" />
    <path
       style="font-size:69.46884918000000700px;font-style:normal;font-weight:normal;fill:#ffffff;fill-opacity:1;stroke:#000000;stroke-width:30.67700005000000000;stroke-linecap:butt;stroke-linejoin:miter;stroke-miterlimit:4;stroke-opacity:1;stroke-dasharray:none;font-family:NiseMegaDrive;stroke-dashoffset:0;"
       d="M 814.27339,612.8874 1003.2346,298.99769 c 8.998,-17.93624 17.9962,-26.90451 26.9946,-26.90486 l 134.9723,0 0,41.70252 8.9982,-14.79766 c 8.9978,-17.93624 17.9959,-26.90451 26.9945,-26.90486 l 161.9667,0 0,340.79457 -107.9779,0 0,-269.04834 -161.9667,269.04834 -107.97801,0 161.96691,-269.04834 -53.9889,0 c -5.9991,2.6e-4 -11.9979,2.98969 -17.9964,8.96827 l -152.96872,260.08007 -107.97779,0 z m 692.85801,-134.52413 0,62.77791 251.9484,0 0,71.74622 -359.9261,0 0,-224.20693 c 0,-5.97865 1.4996,-11.95751 4.499,-17.93657 l 49.4899,-89.68278 c 2.9993,-5.97852 8.998,-8.96794 17.9963,-8.96829 l 287.9409,0 0,71.74623 -215.9557,0 c -5.999,2.6e-4 -10.4981,2.98969 -13.4973,8.96827 l -22.4954,53.80965 251.9484,0 -35.9926,71.74629 -215.9558,0 z m 395.9189,62.77791 179.963,0 0,-62.77791 -71.9852,0 35.9927,-71.74629 143.9705,0 0,188.33386 c -4e-4,11.95772 -5.9991,17.93656 -17.9964,17.93656 l -359.9261,0 c -11.9976,0 -17.9963,-5.97884 -17.9963,-17.93656 l 0,-206.27037 c 0,-5.97865 1.4997,-11.95751 4.499,-17.93657 l 49.4897,-89.68278 c 2.9995,-5.97852 8.9983,-8.96794 17.9965,-8.96829 l 305.9372,0 0,71.74623 -233.952,0 c -5.9987,2.6e-4 -10.4979,2.98969 -13.4971,8.96827 l -22.4955,53.80965 0,134.5242 z m 773.8418,71.74622 -125.9744,0 -49.4899,-71.74622 -130.4736,0 -35.9919,-65.02 0,136.76622 -107.9784,0 0,-340.79457 206.9573,0 c 8.9984,3.5e-4 17.9968,8.96862 26.995,26.90486 L 2676.8921,612.8874 z M 2451.4877,469.39498 2370.9542,352.80733 c -5.9985,-5.97858 -11.9976,-8.96801 -17.9961,-8.96827 l -17.9958,0 0,125.55592 116.5254,0 z"
       id="text8337"
       inkscape:connector-curvature="0" />
    <path
       style="font-size:72.26770019999999300px;font-style:normal;font-weight:normal;fill:#ffffff;fill-opacity:1;stroke:#000000;stroke-width:30.67700005000000000;stroke-linecap:butt;stroke-linejoin:miter;stroke-miterlimit:4;stroke-opacity:1;stroke-dasharray:none;font-family:NiseMegaDrive;stroke-dashoffset:0;"
       d="m 2892.2146,545.26153 130.6147,0 c 6.2197,1.1e-4 10.884,-2.80809 13.9945,-8.42459 l 39.6506,-85.18222 2.3325,-9.36071 -2.3325,-9.36069 -39.6506,-84.24611 c -3.1105,-6.24024 -7.7748,-9.36043 -13.9945,-9.3607 l -130.6147,0 0,205.93502 z m -111.9552,-280.82055 312.542,0 c 9.3293,3.1e-4 17.1035,6.24083 23.3238,18.72138 l 72.3045,149.77096 2.3325,9.36069 -2.3325,9.36071 -72.3045,149.771 c -6.2203,12.48089 -13.9945,18.72133 -23.3238,18.72133 l -312.542,0 0,-355.70607 z m 447.8211,0 298.5474,0 c 9.3295,3.1e-4 17.1036,6.24083 23.3238,18.72138 l 48.9801,102.96751 2.3325,9.3607 -2.3325,9.3607 -72.3039,84.24619 74.6364,131.04959 -111.9551,0 -107.2902,-177.85304 55.9775,0 c 6.2196,2.1e-4 10.8847,-1.55992 13.9944,-4.68038 l 37.3183,-42.12306 -18.6588,-46.80336 c -3.1106,-6.24024 -7.7749,-9.36043 -13.9944,-9.3607 l -116.6204,0 0,280.82054 -111.9551,0 0,-355.70607 z m 522.458,355.70607 -111.9552,0 0,-355.70607 111.9552,0 0,355.70607 z m 149.2735,-238.69749 111.9553,163.81197 111.9551,-163.81197 0,-117.00858 111.9553,0 0,131.04959 c -6e-4,12.48118 -1.5553,21.84179 -4.6651,28.08204 l -125.9496,196.57444 -186.5917,0 -125.9496,-196.57444 c -3.1097,-6.24025 -4.6651,-15.60086 -4.6651,-28.08204 l 0,-131.04959 111.9554,0 0,117.00858 z m 485.1391,98.28719 0,65.52478 261.2295,0 0,74.88552 -373.1846,0 0,-234.01718 c 0,-6.24018 1.555,-12.48069 4.6651,-18.72139 l 51.3126,-93.60681 c 3.1097,-6.24011 9.3292,-9.36038 18.6593,-9.36069 l 298.5476,0 0,74.88553 -223.9106,0 c -6.2201,2.7e-4 -10.8852,3.12046 -13.9944,9.3607 l -23.3245,56.16406 261.2295,0 -37.3189,74.88548 -223.9106,0 z"
       id="text8339"
       inkscape:connector-curvature="0" />
    <g
       transform="scale(1.0889841,0.91828705)"
       style="font-size:155.4413147px;font-style:normal;font-variant:normal;font-weight:bold;font-stretch:normal;line-height:125%;letter-spacing:0px;word-spacing:0px;fill:#ff0000;fill-opacity:1;stroke:none;font-family:Helvetica LT Std;-inkscape-font-specification:Helvetica LT Std Bold"
       id="text3920">
      <path
         d="m 770.33374,792.16775 c -0.16504,4.81577 0.94222,10.08919 3.32179,15.82027 2.37955,5.73111 7.02162,10.69365 13.92621,14.88763 6.90455,4.19398 17.06183,6.39315 30.47187,6.59753 3.6259,0.17079 8.8782,-0.49894 15.75694,-2.0092 6.87859,-1.51025 13.21322,-4.88578 19.00389,-10.12658 5.7905,-5.24079 8.86666,-13.3716 9.22849,-24.39246 -0.26563,-9.78939 -3.23193,-16.82949 -8.8989,-21.12031 -5.66714,-4.29072 -12.4417,-7.25054 -20.32369,-8.87947 l -27.20188,-6.68389 c -2.5324,-0.41768 -5.0842,-1.40861 -7.65539,-2.97279 -2.57125,-1.56403 -3.95725,-4.45908 -4.15799,-8.68516 0.2558,-4.97721 2.38661,-8.46812 6.39244,-10.47273 4.00576,-2.00443 8.35158,-2.96944 13.03747,-2.89505 9.82176,0.38869 16.09762,2.56484 18.82759,6.52845 2.72983,3.96378 4.07049,7.38345 4.02199,10.25899 l 22.38326,0 c 0.0469,-4.75137 -1.20427,-9.89429 -3.75358,-15.42879 -2.54948,-5.53431 -6.99005,-10.30879 -13.32172,-14.32344 -6.33182,-4.01445 -15.14772,-6.11767 -26.44771,-6.30969 -11.93144,0.19394 -21.00448,2.24151 -27.21915,6.14273 -6.21471,3.90144 -10.41733,8.49361 -12.60786,13.77653 -2.19055,5.28311 -3.2153,10.09405 -3.07424,14.43283 0.34973,11.84907 4.00255,19.86067 10.95847,24.0348 6.95588,4.17425 15.11644,7.09521 24.4817,8.7629 l 11.96882,2.7979 c 6.01026,1.25651 10.85478,2.82386 14.53358,4.70204 3.67865,1.87826 5.56983,4.92228 5.67353,9.13206 -0.28181,5.77071 -2.78826,9.65669 -7.51937,11.65795 -4.73125,2.0013 -9.99675,2.93393 -15.79652,2.79791 -9.8834,-0.36268 -16.34708,-2.59064 -19.39106,-6.68389 -3.04405,-4.09321 -4.45596,-7.87556 -4.23572,-11.34707 z"
         style=""
         id="path3018" />
      <path
         d="m 961.98689,714.91441 -82.07195,0 0,111.60543 84.71442,0 0,-19.7408 -61.86485,0 0,-28.91171 54.40376,0 0,-19.74079 -54.40376,0 0,-23.47134 59.22238,0 z"
         style=""
         id="path3020" />
      <path
         d="m 1036.1279,785.17298 25.9584,0 c -2.9146,10.88402 -7.3835,17.79458 -13.4067,20.73171 -6.0233,2.93718 -10.5699,4.21307 -13.6398,3.8277 -8.2901,0.30442 -15.6864,-2.28623 -22.1889,-7.77197 -6.5026,-5.48568 -9.9352,-15.69285 -10.2979,-30.62154 0.2947,-14.18377 3.5524,-24.44275 9.7733,-30.77698 6.2207,-6.33407 13.6365,-9.44285 22.2472,-9.32636 8.2253,0.49232 14.3522,3.00525 18.3807,7.5388 4.0284,4.53373 6.0362,8.13474 6.0233,10.80304 l 23.3159,0 c -0.3628,-5.30885 -2.2453,-10.83941 -5.6476,-16.59171 -3.4025,-5.75212 -8.6356,-10.64941 -15.6994,-14.6919 -7.0639,-4.04227 -16.2694,-6.15317 -27.6164,-6.33271 l -0.3109,0 c -12.463,0.16803 -22.7009,3.02734 -30.7136,8.57795 -8.01284,5.55082 -13.94448,12.78546 -17.79494,21.70393 -3.8505,8.91865 -5.76374,18.51366 -5.73974,28.78506 0.45659,19.57244 5.64437,34.20963 15.56336,43.91161 9.91892,9.702 21.82942,14.54652 35.73162,14.53357 9.9901,-0.27849 17.6002,-2.24739 22.8301,-5.90669 5.2298,-3.6593 9.2259,-7.33802 11.9883,-11.03619 l 2.3316,13.98954 15.5439,0 0,-60.15502 -46.6318,0 z"
         style=""
         id="path3022" />
      <path
         d="m 1128.203,803.51482 41.1914,0 7.1502,23.00502 25.3366,0 -39.3261,-111.60543 -26.891,0 -39.7925,111.60543 24.5594,0 z m 20.518,-63.41924 0.3108,0 13.8341,44.14476 -28.4453,0 z"
         style=""
         id="path3024" />
      <path
         d="m 1326.0792,776.46838 0,50.05146 23.3159,0 0,-111.60543 -23.3159,0 0,42.27949 -43.523,0 0,-42.27949 -23.3159,0 0,111.60543 23.3159,0 0,-50.05146 z"
         style=""
         id="path3026" />
      <path
         d="m 1393.7988,714.91441 -23.3159,0 0,111.60543 23.3159,0 z"
         style=""
         id="path3028" />
      <path
         d="m 1467.8419,785.17298 25.9583,0 c -2.9145,10.88402 -7.3834,17.79458 -13.4066,20.73171 -6.0233,2.93718 -10.5699,4.21307 -13.6398,3.8277 -8.2901,0.30442 -15.6865,-2.28623 -22.189,-7.77197 -6.5025,-5.48568 -9.9352,-15.69285 -10.2978,-30.62154 0.2947,-14.18377 3.5524,-24.44275 9.7732,-30.77698 6.2208,-6.33407 13.6365,-9.44285 22.2473,-9.32636 8.2252,0.49232 14.3521,3.00525 18.3807,7.5388 4.0284,4.53373 6.0361,8.13474 6.0233,10.80304 l 23.3159,0 c -0.3628,-5.30885 -2.2454,-10.83941 -5.6477,-16.59171 -3.4025,-5.75212 -8.6356,-10.64941 -15.6993,-14.6919 -7.064,-4.04227 -16.2694,-6.15317 -27.6164,-6.33271 l -0.3109,0 c -12.463,0.16803 -22.7009,3.02734 -30.7137,8.57795 -8.0128,5.55082 -13.9444,12.78546 -17.7949,21.70393 -3.8505,8.91865 -5.7637,18.51366 -5.7397,28.78506 0.4566,19.57244 5.6444,34.20963 15.5633,43.91161 9.919,9.702 21.8295,14.54652 35.7317,14.53357 9.9901,-0.27849 17.6001,-2.24739 22.8301,-5.90669 5.2298,-3.6593 9.2259,-7.33802 11.9883,-11.03619 l 2.3315,13.98954 15.544,0 0,-60.15502 -46.6318,0 z"
         style=""
         id="path3030" />
      <path
         d="m 1602.3519,776.46838 0,50.05146 23.3159,0 0,-111.60543 -23.3159,0 0,42.27949 -43.523,0 0,-42.27949 -23.3159,0 0,111.60543 23.3159,0 0,-50.05146 z"
         style=""
         id="path3032" />
      <path
         d="m 1741.7829,796.20917 11.1917,10.56987 c -2.118,1.07514 -4.2553,1.83939 -6.4119,2.29273 -2.1568,0.45338 -4.2164,0.67359 -6.1787,0.66062 -6.7714,0.32708 -13.397,-2.27005 -19.8768,-7.7914 -6.4799,-5.5213 -9.9579,-15.92925 -10.4339,-31.22387 0.476,-15.29451 3.954,-25.70246 10.4339,-31.22387 6.4798,-5.52124 13.1054,-8.11837 19.8768,-7.79139 6.7712,-0.32698 13.3968,2.27015 19.8768,7.79139 6.4798,5.52142 9.9577,15.92937 10.4338,31.22387 -0.02,5.19432 -0.4858,9.76682 -1.3989,13.71752 -0.9133,3.95079 -2.1568,7.3575 -3.7305,10.22014 l -11.8134,-11.03619 z m 52.694,25.80293 -12.1243,-11.50251 c 3.4778,-4.3199 6.2758,-9.74732 8.3937,-16.28227 2.1178,-6.53489 3.2058,-14.37162 3.2642,-23.5102 -0.3887,-17.21627 -3.9292,-30.05439 -10.6216,-38.51441 -6.6927,-8.45982 -14.2056,-14.00958 -22.5387,-16.64927 -8.3334,-2.63948 -15.1554,-3.83694 -20.4662,-3.59238 -5.3109,-0.24455 -12.133,0.9529 -20.4662,3.59238 -8.3333,2.63969 -15.8462,8.18945 -22.5387,16.64927 -6.6925,8.46002 -10.2331,21.29814 -10.6217,38.51441 0.3886,17.21638 3.9292,30.05451 10.6217,38.51441 6.6925,8.45994 14.2054,14.0097 22.5387,16.64928 8.3332,2.63958 15.1553,3.83704 20.4662,3.59237 3.3872,0.0777 7.6488,-0.3886 12.7849,-1.39895 5.1359,-1.01036 10.4078,-3.03107 15.8159,-6.06213 l 13.2124,12.59058 z"
         style=""
         id="path3034" />
      <path
         d="m 1901.9404,714.91441 -23.7822,0 0,73.52279 c 0.061,6.80374 -1.6937,12.04334 -5.2655,15.7188 -3.572,3.67551 -9.3297,5.53431 -17.2732,5.57639 -5.5894,0.0389 -10.2656,-1.74867 -14.0284,-5.36266 -3.763,-3.61394 -5.7189,-9.28747 -5.8679,-17.0206 l 0,-72.43472 -23.7822,0 0,73.98911 c 0.1198,5.59585 0.8517,10.64762 2.1956,15.15533 1.3439,4.50776 3.5136,8.47146 6.509,11.89111 5.1878,5.39181 11.0556,9.0252 17.6035,10.90018 6.5479,1.87499 12.4934,2.74933 17.8367,2.62304 14.2194,0.0874 25.3786,-3.23508 33.4777,-9.96755 8.099,-6.73245 12.2246,-17.39946 12.3769,-32.00106 z"
         style=""
         id="path3036" />
      <path
         d="m 1948.5202,803.51482 41.1915,0 7.1502,23.00502 25.3366,0 -39.3262,-111.60543 -26.891,0 -39.7924,111.60543 24.5594,0 z m 20.518,-63.41924 0.3109,0 13.8341,44.14476 -28.4454,0 z"
         style=""
         id="path3039" />
      <path
         d="m 2060.5399,714.91441 -23.3159,0 0,111.60543 78.8078,0 0,-20.20711 -55.4919,0 z"
         style=""
         id="path3041" />
      <path
         d="m 2153.7004,714.91441 -23.3159,0 0,111.60543 23.3159,0 z"
         style=""
         id="path3043" />
      <path
         d="m 2222.7694,734.6552 33.7303,0 0,-19.74079 -90.7766,0 0,19.74079 33.7304,0 0,91.86464 23.3159,0 z"
         style=""
         id="path3045" />
      <path
         d="m 2322.7691,784.70666 37.3054,-69.79225 -26.4247,0 -22.0724,48.49707 -23.1604,-48.49707 -27.5128,0 38.549,69.48137 0,42.12406 23.3159,0 z"
         style=""
         id="path3047" />
      <path
         d="m 2511.8338,751.44265 c -0.3676,-5.67442 -2.2405,-11.52737 -5.6188,-17.55889 -3.3786,-6.03133 -8.5445,-11.14739 -15.4979,-15.34819 -6.9536,-4.20059 -15.9768,-6.39209 -27.0695,-6.57451 -14.7182,0.0163 -26.8619,4.95798 -36.4311,14.82503 -9.5692,9.86724 -14.5239,24.56272 -14.8639,44.08647 0.2688,19.30689 5.055,33.89227 14.3587,43.75617 9.3037,9.86392 21.5122,14.81207 36.6254,14.84445 13.9701,-0.20077 24.9674,-4.03494 32.992,-11.50251 8.0245,-7.46755 13.1928,-17.36384 15.5051,-29.6889 l -23.3159,0 c -1.4476,6.85879 -4.3038,12.066 -8.5686,15.62164 -4.2649,3.5557 -9.647,5.34325 -16.1463,5.36266 -9.7894,-0.33353 -16.8684,-4.17417 -21.2369,-11.52194 -4.3685,-7.34771 -6.5122,-16.20127 -6.4312,-26.56069 0.4533,-15.43052 3.6657,-25.87733 9.6372,-31.34045 5.9714,-5.46296 11.9817,-8.02122 18.0309,-7.67482 9.3458,0.38546 15.6411,2.76238 18.8859,7.13078 3.2447,4.36858 5.1877,8.41647 5.829,12.1437 z"
         style=""
         id="path3049" />
      <path
         d="m 2524.6832,770.71712 c 0.3886,17.21638 3.9292,30.05451 10.6217,38.51441 6.6925,8.45994 14.2054,14.0097 22.5387,16.64928 8.3332,2.63958 15.1553,3.83704 20.4662,3.59237 5.3107,0.24467 12.1328,-0.95278 20.4661,-3.59237 8.3332,-2.63959 15.8461,-8.18935 22.5387,-16.64928 6.6925,-8.4599 10.233,-21.29803 10.6217,-38.51441 -0.3887,-17.21627 -3.9292,-30.05439 -10.6217,-38.51441 -6.6926,-8.45982 -14.2055,-14.00958 -22.5387,-16.64927 -8.3333,-2.63948 -15.1554,-3.83694 -20.4661,-3.59238 -5.3109,-0.24455 -12.133,0.9529 -20.4662,3.59238 -8.3333,2.63969 -15.8462,8.18945 -22.5387,16.64927 -6.6926,8.46002 -10.2331,21.29814 -10.6217,38.51441 z m 23.3159,0 c 0.476,-15.29451 3.954,-25.70246 10.4339,-31.22387 6.4798,-5.52124 13.1054,-8.11837 19.8768,-7.79139 6.7712,-0.32698 13.3968,2.27015 19.8768,7.79139 6.4798,5.52142 9.9577,15.92937 10.4338,31.22387 -0.4761,15.29462 -3.954,25.70257 -10.4338,31.22387 -6.48,5.52136 -13.1056,8.11849 -19.8768,7.7914 -6.7714,0.32708 -13.397,-2.27005 -19.8768,-7.7914 -6.48,-5.5213 -9.9579,-15.92925 -10.4339,-31.22387 z"
         style=""
         id="path3051" />
      <path
         d="m 2757.5864,714.91441 -33.7304,0 -19.8962,87.97865 -0.3109,0 -20.2071,-87.97865 -34.0412,0 0,111.60543 21.7615,0 0,-93.26359 0.3109,0 20.3625,93.26359 22.8496,0 20.8289,-93.26359 0.3109,0 0,93.26359 21.7615,0 z"
         style=""
         id="path3053" />
      <path
         d="m 2803.1366,786.26105 26.7356,0 c 9.8837,-0.25231 17.4043,-2.58006 22.5617,-6.98326 5.1572,-4.4031 8.6479,-9.36756 10.472,-14.89338 1.8239,-5.52571 2.6779,-10.09869 2.5619,-13.71896 -0.094,-11.0782 -3.1704,-19.77632 -9.2292,-26.09437 -6.059,-6.31786 -14.5369,-9.53674 -25.4338,-9.65667 l -50.9841,0 0,111.60543 23.3159,0 z m 0,-19.27447 0,-32.7977 18.4973,0 c 7.1793,-0.0388 12.4059,1.16589 15.6799,3.61397 3.2739,2.44825 4.8866,6.37309 4.8381,11.77453 0.3626,2.9016 -0.3628,6.42489 -2.1762,10.56987 -1.8135,4.14511 -6.8912,6.42488 -15.233,6.83933 z"
         style=""
         id="path3055" />
      <path
         d="m 2973.0283,714.91441 -23.7822,0 0,73.52279 c 0.061,6.80374 -1.6938,12.04334 -5.2655,15.7188 -3.572,3.67551 -9.3297,5.53431 -17.2732,5.57639 -5.5894,0.0389 -10.2656,-1.74867 -14.0284,-5.36266 -3.763,-3.61394 -5.7189,-9.28747 -5.8679,-17.0206 l 0,-72.43472 -23.7822,0 0,73.98911 c 0.1198,5.59585 0.8517,10.64762 2.1956,15.15533 1.3439,4.50776 3.5136,8.47146 6.509,11.89111 5.1878,5.39181 11.0556,9.0252 17.6035,10.90018 6.5479,1.87499 12.4934,2.74933 17.8367,2.62304 14.2194,0.0874 25.3786,-3.23508 33.4777,-9.96755 8.099,-6.73245 12.2246,-17.39946 12.3769,-32.00106 z"
         style=""
         id="path3057" />
      <path
         d="m 3043.3902,734.6552 33.7304,0 0,-19.74079 -90.7766,0 0,19.74079 33.7303,0 0,91.86464 23.3159,0 z"
         style=""
         id="path3059" />
      <path
         d="m 3173.0788,714.91441 -82.0719,0 0,111.60543 84.7144,0 0,-19.7408 -61.8649,0 0,-28.91171 54.4038,0 0,-19.74079 -54.4038,0 0,-23.47134 59.2224,0 z"
         style=""
         id="path3061" />
      <path
         d="m 3194.8369,826.51984 22.8496,0 0,-43.67845 24.0931,0 c 8.3062,-0.0712 13.494,1.54796 15.5634,4.85748 2.0692,3.30959 2.9435,8.73701 2.623,16.28227 0.01,5.64116 0.2266,10.1748 0.6606,13.60093 0.4339,3.42615 1.0427,6.4054 1.8264,8.93777 l 25.803,0 0,-2.95335 c -2.3835,-0.72214 -3.8343,-2.61979 -4.3523,-5.69297 -0.5183,-3.07315 -0.7255,-8.58476 -0.6218,-16.53485 -0.016,-10.03876 -1.2274,-16.85217 -3.6334,-20.44027 -2.4061,-3.58801 -5.91,-6.20457 -10.5116,-7.84969 5.5472,-1.97208 9.8023,-5.33345 12.7655,-10.08412 2.9629,-4.75055 4.4591,-10.24921 4.4883,-16.496 0.116,-3.42342 -0.7207,-7.57806 -2.5101,-12.46393 -1.7895,-4.88569 -5.2284,-9.23607 -10.3165,-13.05115 -5.0883,-3.81487 -12.5226,-5.8279 -22.3027,-6.0391 l -56.4245,0 z m 22.8496,-62.48661 0,-29.84435 29.0672,0 c 6.6644,0.23973 11.0944,1.93661 13.29,5.09064 2.1955,3.15421 3.2059,6.32776 3.0311,9.52066 0.01,5.46311 -1.4832,9.38147 -4.4689,11.75509 -2.9858,2.37376 -7.5065,3.53307 -13.5621,3.47796 z"
         style=""
         id="path3063" />
      <path
         d="m 3390.6923,799.4734 -0.3108,0 -23.9377,-84.55899 -25.0257,0 37.6163,111.60543 22.2278,0 37.9272,-111.60543 -24.2485,0 z"
         style=""
         id="path3065" />
      <path
         d="m 3475.5588,714.91441 -23.3159,0 0,111.60543 23.3159,0 z"
         style=""
         id="path3067" />
      <path
         d="m 3497.2188,826.51984 48.3416,0 c 12.1693,-0.27826 21.63,-3.55592 28.3821,-9.83298 6.7519,-6.27705 11.4573,-13.88397 14.1162,-22.8208 2.6586,-8.93676 3.9329,-17.53388 3.8226,-25.79141 0.1362,-7.31133 -0.9999,-15.03724 -3.4081,-23.17772 -2.4085,-8.14033 -6.9066,-15.10631 -13.4945,-20.89796 -6.588,-5.79145 -16.0832,-8.81963 -28.4857,-9.08456 l -49.2742,0 z m 22.8496,-92.33096 22.3832,0 c 3.4484,-0.17069 7.1387,0.46449 11.0708,1.90557 3.9319,1.44126 7.3113,4.71316 10.1381,9.81571 2.8266,5.10271 4.3061,13.06081 4.4386,23.87433 0.1295,9.58547 -1.7229,18.12167 -5.5569,25.60862 -3.8343,7.48702 -10.4275,11.43777 -19.7797,11.85225 l -22.6941,0 z"
         style=""
         id="path3069" />
      <path
         d="m 3691.6213,714.91441 -82.072,0 0,111.60543 84.7145,0 0,-19.7408 -61.8649,0 0,-28.91171 54.4038,0 0,-19.74079 -54.4038,0 0,-23.47134 59.2224,0 z"
         style=""
         id="path3071" />
      <path
         d="m 3708.4054,770.71712 c 0.3886,17.21638 3.9291,30.05451 10.6217,38.51441 6.6925,8.45994 14.2053,14.0097 22.5387,16.64928 8.3332,2.63958 15.1552,3.83704 20.4661,3.59237 5.3108,0.24467 12.1329,-0.95278 20.4662,-3.59237 8.3332,-2.63959 15.8461,-8.18935 22.5387,-16.64928 6.6924,-8.4599 10.233,-21.29803 10.6217,-38.51441 -0.3887,-17.21627 -3.9293,-30.05439 -10.6217,-38.51441 -6.6926,-8.45982 -14.2055,-14.00958 -22.5387,-16.64927 -8.3333,-2.63948 -15.1554,-3.83694 -20.4662,-3.59238 -5.3109,-0.24455 -12.1329,0.9529 -20.4661,3.59238 -8.3334,2.63969 -15.8462,8.18945 -22.5387,16.64927 -6.6926,8.46002 -10.2331,21.29814 -10.6217,38.51441 z m 23.3159,0 c 0.476,-15.29451 3.9539,-25.70246 10.4338,-31.22387 6.4799,-5.52124 13.1055,-8.11837 19.8768,-7.79139 6.7713,-0.32698 13.3969,2.27015 19.8768,7.79139 6.4798,5.52142 9.9578,15.92937 10.4339,31.22387 -0.4761,15.29462 -3.9541,25.70257 -10.4339,31.22387 -6.4799,5.52136 -13.1055,8.11849 -19.8768,7.7914 -6.7713,0.32708 -13.3969,-2.27005 -19.8768,-7.7914 -6.4799,-5.5213 -9.9578,-15.92925 -10.4338,-31.22387 z"
         style=""
         id="path3073" />
      <path
         d="m 3886.5938,785.17298 25.9583,0 c -2.9145,10.88402 -7.3834,17.79458 -13.4066,20.73171 -6.0233,2.93718 -10.5699,4.21307 -13.6398,3.8277 -8.2902,0.30442 -15.6865,-2.28623 -22.189,-7.77197 -6.5025,-5.48568 -9.9352,-15.69285 -10.2978,-30.62154 0.2946,-14.18377 3.5524,-24.44275 9.7732,-30.77698 6.2208,-6.33407 13.6365,-9.44285 22.2473,-9.32636 8.2252,0.49232 14.3521,3.00525 18.3807,7.5388 4.0284,4.53373 6.0361,8.13474 6.0233,10.80304 l 23.3159,0 c -0.3629,-5.30885 -2.2454,-10.83941 -5.6477,-16.59171 -3.4025,-5.75212 -8.6356,-10.64941 -15.6994,-14.6919 -7.0639,-4.04227 -16.2693,-6.15317 -27.6163,-6.33271 l -0.3109,0 c -12.463,0.16803 -22.7009,3.02734 -30.7137,8.57795 -8.0128,5.55082 -13.9444,12.78546 -17.7949,21.70393 -3.8505,8.91865 -5.7637,18.51366 -5.7397,28.78506 0.4566,19.57244 5.6443,34.20963 15.5633,43.91161 9.919,9.702 21.8295,14.54652 35.7316,14.53357 9.9902,-0.27849 17.6002,-2.24739 22.8302,-5.90669 5.2298,-3.6593 9.2259,-7.33802 11.9882,-11.03619 l 2.3316,13.98954 15.544,0 0,-60.15502 -46.6318,0 z"
         style=""
         id="path3075" />
      <path
         d="m 3978.6688,803.51482 41.1914,0 7.1502,23.00502 25.3366,0 -39.3261,-111.60543 -26.891,0 -39.7925,111.60543 24.5594,0 z m 20.518,-63.41924 0.3109,0 13.8341,44.14476 -28.4454,0 z"
         style=""
         id="path3077" />
      <path
         d="m 4174.4703,714.91441 -33.7304,0 -19.8962,87.97865 -0.3109,0 -20.2071,-87.97865 -34.0412,0 0,111.60543 21.7615,0 0,-93.26359 0.3109,0 20.3625,93.26359 22.8496,0 20.8289,-93.26359 0.3109,0 0,93.26359 21.7615,0 z"
         style=""
         id="path3079" />
      <path
         d="m 4278.7766,714.91441 -82.072,0 0,111.60543 84.7144,0 0,-19.7408 -61.8648,0 0,-28.91171 54.4038,0 0,-19.74079 -54.4038,0 0,-23.47134 59.2224,0 z"
         style=""
         id="path3081" />
    </g>
    <path
       style="font-size:69.46884918px;font-style:normal;font-weight:normal;fill:#ffffff;fill-opacity:1;stroke:none;display:inline;font-family:NiseMegaDrive"
       d="m 14.635195,724.89809 35.257213,-58.56692 c 1.67888,-3.34665 3.357798,-5.02 5.036764,-5.02005 l 25.183723,0 0,7.78104 1.678918,-2.76099 c 1.678851,-3.34665 3.357764,-5.02 5.036759,-5.02005 l 30.220448,0 0,63.58697 -20.146987,0 0,-50.20023 -30.220454,50.20023 -20.147007,0 30.220497,-50.20023 -10.07349,0 c -1.119336,6e-5 -2.238624,0.55784 -3.357845,1.67334 l -28.54157,48.52689 -20.146969,0 z m 129.276465,-25.10015 0,11.7134 47.00963,0 0,13.38675 -67.15658,0 0,-41.83354 c 0,-1.11551 0.27981,-2.23107 0.83944,-3.34664 l 9.23405,-16.73345 c 0.55962,-1.11545 1.67888,-1.67329 3.35783,-1.67334 l 53.72526,0 0,13.38674 -40.29395,0 c -1.11932,6e-5 -1.95878,0.55784 -2.51839,1.67334 l -4.19729,10.04005 47.00963,0 -6.71566,13.38669 -40.29397,0 z m 73.87227,11.7134 33.57828,0 0,-11.7134 -13.43132,0 6.71568,-13.38669 26.86264,0 0,35.14014 c -8e-5,2.23113 -1.11934,3.3467 -3.35785,3.3467 l -67.15658,0 c -2.23855,0 -3.3578,-1.11557 -3.3578,-3.3467 l 0,-38.48684 c 0,-1.11551 0.27981,-2.23107 0.83944,-3.34664 l 9.23398,-16.73345 c 0.55967,-1.11545 1.67894,-1.67329 3.35787,-1.67334 l 57.08309,0 0,13.38674 -43.65178,0 c -1.11926,6e-5 -1.95875,0.55784 -2.51835,1.67334 l -4.1973,10.04005 0,25.10009 z m 144.38678,13.38675 -23.50486,0 -9.23404,-13.38675 -24.34434,0 -6.71552,-12.13169 0,25.51844 -20.14708,0 0,-63.58697 38.61499,0 c 1.67896,5e-5 3.35793,1.6734 5.03684,5.02005 l 40.29401,58.56692 z m -42.05694,-26.77344 -15.0263,-21.75345 c -1.11923,-1.1155 -2.23856,-1.67328 -3.35778,-1.67334 l -3.35774,0 0,23.42679 21.74182,0 z"
       id="text8337-2"
       inkscape:connector-curvature="0" />
    <path
       style="font-size:72.2677002px;font-style:normal;font-weight:normal;fill:#ffffff;fill-opacity:1;stroke:none;display:inline;font-family:NiseMegaDrive"
       d="m 398.34651,712.28015 24.37066,0 c 1.1605,0 2.03078,-0.52395 2.61116,-1.57193 l 7.39818,-15.89361 0.43521,-1.74661 -0.43521,-1.74655 -7.39818,-15.719 c -0.58038,-1.16433 -1.45066,-1.7465 -2.61116,-1.74655 l -24.37066,0 0,38.42425 z m -20.88908,-52.39676 58.31544,0 c 1.7407,6e-5 3.19124,1.1645 4.35186,3.49315 l 13.49088,27.94491 0.43522,1.74655 -0.43522,1.74661 -13.49088,27.9449 c -1.16062,2.32872 -2.61116,3.4931 -4.35186,3.4931 l -58.31544,0 0,-66.36922 z m 83.5564,0 55.70428,0 c 1.74074,6e-5 3.19126,1.1645 4.35185,3.49315 l 9.13892,19.2121 0.43522,1.74656 -0.43522,1.74661 -13.49077,15.719 13.92599,24.4518 -20.88908,0 -20.01867,-33.18461 10.44453,0 c 1.16048,6e-5 2.03091,-0.29102 2.61113,-0.87325 l 6.96301,-7.85955 -3.48144,-8.73275 c -0.58039,-1.16433 -1.45068,-1.7465 -2.61113,-1.74655 l -21.75954,0 0,52.39671 -20.88908,0 0,-66.36922 z m 97.48251,66.36922 -20.8891,0 0,-66.36922 20.8891,0 0,66.36922 z m 27.85211,-44.53721 20.88911,30.56475 20.88904,-30.56475 0,-21.83201 20.88912,0 0,24.45181 c -1.2e-4,2.32883 -0.29019,4.07537 -0.87047,5.2397 l -23.50023,36.67771 -34.81504,0 -23.50023,-36.67771 c -0.58022,-1.16433 -0.87047,-2.91087 -0.87047,-5.2397 l 0,-24.45181 20.88917,0 0,21.83201 z m 90.51932,18.33886 0,12.22589 48.74133,0 0,13.97246 -69.63038,0 0,-43.66397 c 0,-1.16432 0.29013,-2.32871 0.8704,-3.4931 L 666.4233,661.63 c 0.58021,-1.16433 1.74065,-1.74655 3.48153,-1.74661 l 55.70427,0 0,13.97251 -41.77816,0 c -1.1606,5e-5 -2.03102,0.58222 -2.61117,1.74655 l -4.352,10.47936 48.74133,0 -6.96311,13.97245 -41.77822,0 z"
       id="text8339-0"
       inkscape:connector-curvature="0" />
    <g
       style="font-size:49.01107025px;font-style:normal;font-variant:normal;font-weight:bold;font-stretch:normal;line-height:125%;letter-spacing:0px;word-spacing:0px;fill:#ffffff;fill-opacity:1;stroke:none;font-family:Helvetica LT;-inkscape-font-specification:Helvetica LT Bold"
       id="text3945">
      <path
         d="m 676.15653,573.33392 -7.35286,0 0,-28.96571 -10.63442,0 0,-6.2236 28.6217,0 0,6.2236 -10.63442,0 z"
         style=""
         id="path3013" />
      <path
         d="m 724.93876,573.33392 -6.86227,0 0,-29.40694 -0.0987,0 -6.56612,29.40694 -7.20479,0 -6.42103,-29.40694 -0.0972,0 0,29.40694 -6.86227,0 0,-35.18931 10.73314,0 6.37167,27.73924 0.0987,0 6.27296,-27.73924 10.63592,0 z"
         style=""
         id="path3015" />
    </g>
  </g>
</svg>
