<?xml version="1.0" encoding="UTF-8" standalone="no"?>
<svg
   xmlns:dc="http://purl.org/dc/elements/1.1/"
   xmlns:cc="http://creativecommons.org/ns#"
   xmlns:rdf="http://www.w3.org/1999/02/22-rdf-syntax-ns#"
   xmlns:svg="http://www.w3.org/2000/svg"
   xmlns="http://www.w3.org/2000/svg"
   xmlns:xlink="http://www.w3.org/1999/xlink"
   xmlns:sodipodi="http://sodipodi.sourceforge.net/DTD/sodipodi-0.dtd"
   xmlns:inkscape="http://www.inkscape.org/namespaces/inkscape"
   width="400"
   height="95.290527"
   version="1.1"
   id="svg37"
   sodipodi:docname="moonlight.svg"
   inkscape:version="0.92.4 (5da689c313, 2019-01-14)">
  <metadata
     id="metadata41">
    <rdf:RDF>
      <cc:Work
         rdf:about="">
        <dc:format>image/svg+xml</dc:format>
        <dc:type
           rdf:resource="http://purl.org/dc/dcmitype/StillImage" />
      </cc:Work>
    </rdf:RDF>
  </metadata>
  <sodipodi:namedview
     pagecolor="#ffffff"
     bordercolor="#666666"
     borderopacity="1"
     objecttolerance="10"
     gridtolerance="10"
     guidetolerance="10"
     inkscape:pageopacity="0"
     inkscape:pageshadow="2"
     inkscape:window-width="640"
     inkscape:window-height="480"
     id="namedview39"
     showgrid="false"
     inkscape:zoom="2.5243712"
     inkscape:cx="186.55065"
     inkscape:cy="0.18567306"
     inkscape:current-layer="g35" />
  <defs
     id="defs5">
    <linearGradient
       inkscape:collect="always"
       id="linearGradient1011">
      <stop
         style="stop-color:#deddde;stop-opacity:1;"
         offset="0"
         id="stop1007" />
      <stop
         style="stop-color:#ffffff;stop-opacity:1"
         offset="1"
         id="stop1009" />
    </linearGradient>
    <clipPath
       id="a">
      <path
         d="M0 98.876h415.051V0H0v98.876z"
         id="path2" />
    </clipPath>
    <linearGradient
       inkscape:collect="always"
       xlink:href="#linearGradient1011"
       id="linearGradient1013"
       x1="231.498"
       y1="4.5730557"
       x2="230.49239"
       y2="95.824745"
       gradientUnits="userSpaceOnUse" />
  </defs>
  <g
     clip-path="url(#a)"
     transform="matrix(0.96373768,0,0,-0.96373768,-2.891213e-4,95.290527)"
     id="g35">
    <path
       d="m 320.72828,30.137006 h 0.16013 c 0.18287,0 0.33163,0.0624 0.33163,0.227001 0,0.116666 -0.0919,0.232427 -0.33163,0.232427 -0.0805,0 -0.12602,-0.0045 -0.16013,-0.01085 z m 0,-0.737978 h -0.22835 v 1.330351 c 0.1137,0.01537 0.22835,0.03165 0.39985,0.03165 0.20561,0 0.343,-0.04251 0.43396,-0.100386 0.0805,-0.05879 0.12602,-0.14832 0.12602,-0.275838 0,-0.175451 -0.12602,-0.279455 -0.27383,-0.322866 v -0.0099 c 0.12507,-0.0208 0.20561,-0.127518 0.22835,-0.322866 0.0341,-0.207104 0.0682,-0.288499 0.091,-0.3301 h -0.22835 c -0.0341,0.0416 -0.0682,0.163694 -0.10233,0.33824 -0.0351,0.170929 -0.11465,0.232427 -0.29752,0.232427 h -0.14876 z m 0.22835,1.700245 c -0.54861,0 -0.99394,-0.448576 -0.99394,-1.005677 0,-0.567954 0.44533,-1.012008 0.99394,-1.012008 0.55998,-0.0054 1.00626,0.444054 1.00626,1.006582 0,0.562527 -0.44628,1.011103 -1.00626,1.011103 m 0,0.188112 c 0.686,0 1.23461,-0.530875 1.23461,-1.193789 0,-0.673767 -0.54861,-1.196502 -1.23461,-1.196502 -0.686,0 -1.23461,0.522735 -1.23461,1.196502 0,0.662914 0.54861,1.193789 1.23461,1.193789 m -5.90963,-9.37667 v 5.2997 l -1.80596,-3.450231 h -1.25734 l -1.8287,3.450231 v -5.2997 h -1.86376 v 9.09631 h 1.84102 l 2.47964,-4.917144 2.46921,4.917144 h 1.84102 v -9.09631 z m -14.23636,6.412998 -1.20429,-3.30372 h 2.36878 z m 2.22002,-6.412998 -0.55998,1.611615 h -3.38641 l -0.57609,-1.611615 h -1.9405 l 3.46695,9.09631 h 1.45727 l 3.48495,-9.09631 z m -15.92388,0 v 9.09631 h 6.282 v -1.579057 h -4.41446 v -2.146107 h 3.75973 v -1.578153 h -3.75973 v -2.213935 h 4.41446 v -1.579058 z m -6.40992,7.517253 v -7.518157 h -1.86281 v 7.518157 h -2.49006 v 1.578153 h 6.84293 v -1.578153 z m -7.98752,-6.866095 c -0.66042,-0.491081 -1.50465,-0.735265 -2.54123,-0.735265 -0.74759,0 -1.40137,0.09044 -1.9604,0.274933 -0.55524,0.182686 -1.06311,0.489272 -1.51792,0.923377 l 1.20619,1.147666 c 0.2833,-0.271316 0.61967,-0.468472 1.0091,-0.586947 0.38848,-0.121187 0.81865,-0.180877 1.29146,-0.180877 1.1228,0 1.68657,0.378034 1.68657,1.128674 0,0.317439 -0.0862,0.564336 -0.25488,0.739787 -0.16961,0.174546 -0.46429,0.290308 -0.88498,0.351806 l -0.53629,0.07868 -0.61588,0.07416 c -0.81392,0.112144 -1.43264,0.361754 -1.85239,0.753353 -0.45575,0.433201 -0.68316,1.030095 -0.68316,1.786162 0,0.824799 0.29942,1.492236 0.89635,1.995979 0.59883,0.50736 1.40611,0.759683 2.42658,0.759683 0.66515,0 1.24598,-0.08049 1.73679,-0.248706 0.4927,-0.167311 0.93803,-0.437722 1.33694,-0.812138 l -1.17587,-1.10968 c -0.27004,0.245089 -0.56471,0.411495 -0.88971,0.496508 -0.32594,0.08411 -0.67747,0.128422 -1.06406,0.128422 -0.47375,0 -0.83665,-0.107621 -1.09058,-0.324674 -0.25488,-0.217052 -0.38185,-0.490177 -0.38185,-0.822086 0,-0.237854 0.0985,-0.454002 0.29373,-0.64121 0.19803,-0.190825 0.48702,-0.312917 0.87076,-0.364467 l 0.57419,-0.07506 0.55146,-0.07778 c 0.42732,-0.05969 0.78454,-0.146511 1.07542,-0.256846 0.28994,-0.107622 0.53819,-0.259558 0.74285,-0.446766 0.49176,-0.442245 0.73622,-1.086167 0.73622,-1.931768 0,-0.86007 -0.33068,-1.533838 -0.98541,-2.024919 m -11.73645,3.933263 c -1.00247,0.258654 -1.59656,1.244435 -1.32462,2.202179 0.27098,0.957744 1.30472,1.524794 2.30719,1.26614 1.00341,-0.258655 1.5975,-1.245339 1.32557,-2.203083 -0.27099,-0.957745 -1.30473,-1.52389 -2.30814,-1.265236 m -0.16771,-0.577902 c -1.33315,0.343666 -2.12527,1.660452 -1.76427,2.932922 0.36006,1.272471 1.73869,2.028537 3.07183,1.68487 1.33315,-0.34457 2.12527,-1.660451 1.76522,-2.932922 -0.36006,-1.27247 -1.73963,-2.028537 -3.07278,-1.68487 m -5.39513,-3.169871 c -0.71537,-0.880872 -2.04758,-1.043661 -2.9714,-0.36085 -0.42638,0.314726 -0.69074,0.757875 -0.7817,1.228155 l 1.0489,-0.771441 c 0.68221,-0.503742 1.66193,-0.383459 2.1878,0.26589 0.52777,0.649349 0.4027,1.584483 -0.27857,2.087322 l -1.0849,0.797668 c 0.51924,0.04884 1.05743,-0.0832 1.50181,-0.410591 0.44817,-0.331006 0.73337,-0.808521 0.80444,-1.343013 0.0711,-0.536301 -0.0805,-1.067175 -0.42638,-1.49314 m -15.93052,9.145146 c -0.69547,0.513691 -0.96362,1.362909 -0.74758,2.128019 0.0711,0.250515 0.19329,0.490177 0.36953,0.706325 0.71442,0.882681 2.04757,1.044566 2.97044,0.362659 0.43586,-0.321961 0.70022,-0.77325 0.78739,-1.254383 l -1.07448,0.789529 c -0.68031,0.502838 -1.65909,0.383459 -2.18686,-0.26589 -0.52681,-0.650253 -0.40174,-1.586292 0.27857,-2.08913 l 1.07732,-0.791337 c -0.53061,-0.04341 -1.05079,0.100386 -1.47433,0.414208 m 22.96105,-0.201678 c -2.00209,0.517309 -4.07051,-0.616791 -4.61154,-2.527757 -0.005,-0.01537 -0.009,-0.03075 -0.0123,-0.04522 l -3.25471,-2.63357 c -0.37521,0.113952 -0.77317,0.148319 -1.17302,0.100386 -0.17718,-0.0208 -0.34678,-0.05879 -0.51165,-0.110335 l -9.36236,6.877852 c 0.0445,0.829322 -0.32026,1.664974 -1.05838,2.211223 -1.19765,0.883585 -2.92496,0.673767 -3.85258,-0.469376 -0.92572,-1.142239 -0.70589,-2.790934 0.49176,-3.675423 0.57893,-0.427774 1.29904,-0.614982 2.02673,-0.527257 0.16771,0.0199 0.33068,0.05698 0.48891,0.104005 l 9.38321,-6.894131 c -0.0379,-0.822087 0.32784,-1.647791 1.06027,-2.187709 1.19671,-0.885393 2.92497,-0.674672 3.85069,0.466663 0.24066,0.298447 0.40837,0.63307 0.49839,0.988493 l 3.99186,1.414459 c 0.0275,-0.0072 0.054,-0.01537 0.0824,-0.02261 2.00114,-0.516404 4.06956,0.618599 4.61059,2.529566 0.54103,1.910062 -0.6462,3.884336 -2.6483,4.40074 M 187.539,22.317146 c 0,-0.368085 -0.28426,-0.615886 -0.61873,-0.615886 v 0.0027 c -0.34489,-0.0027 -0.62346,0.245088 -0.62346,0.613173 0,0.368085 0.27857,0.614078 0.62346,0.614078 0.33447,0 0.61873,-0.245993 0.61873,-0.614078 m 0.25109,0 c 0,0.505552 -0.41122,0.798573 -0.86982,0.798573 -0.46238,0 -0.8736,-0.293021 -0.8736,-0.798573 0,-0.505551 0.41122,-0.799477 0.8736,-0.799477 0.4586,0 0.86982,0.293926 0.86982,0.799477 m -1.01479,-0.06783 h 0.0938 l 0.21508,-0.361754 h 0.23783 l -0.23972,0.377129 c 0.12412,0.0081 0.2255,0.06421 0.2255,0.223383 0,0.197156 -0.14307,0.260463 -0.38374,0.260463 h -0.34868 v -0.860975 h 0.19992 v 0.361754 m 0,0.145606 v 0.207105 h 0.13929 c 0.0767,0 0.18002,-0.0054 0.18002,-0.09406 0,-0.09586 -0.0531,-0.113049 -0.14307,-0.113049 h -0.17624 m -6.87609,6.820786 1.62593,-4.247899 h -3.30397 z m -1.74247,1.654121 -3.74931,-9.06737 h 2.64735 l 0.59314,1.603476 h 4.43625 l 0.56188,-1.603476 h 2.8738 l -3.77678,9.068274 z m -7.52704,-9.070083 h 2.68525 v 9.072796 l -2.68525,9.04e-4 z m -18.64608,9.0737 -2.24086,-7.191673 -2.14707,7.190769 -2.89843,9.04e-4 3.06614,-9.0737 h 3.86964 l 3.09078,9.0737 z m 10.85659,-1.976082 h 1.15407 c 1.6752,0 2.75821,-0.718082 2.75821,-2.580212 0,-1.863034 -1.08301,-2.581116 -2.75821,-2.581116 h -1.15407 z m -2.66346,1.976082 v -9.0737 h 4.35477 c 2.32045,0 3.07752,0.368085 3.89617,1.193789 0.57893,0.579711 0.95319,1.853086 0.95319,3.243127 0,1.275183 -0.31647,2.413805 -0.86887,3.121939 -0.99488,1.267044 -2.42752,1.514845 -4.567,1.514845 z m -25.44258,0.01266 v -9.086362 h 2.70894 v 6.899558 l 2.09779,-9.05e-4 c 0.69547,0 1.19007,-0.165502 1.52549,-0.506456 0.42449,-0.431392 0.59788,-1.127768 0.59788,-2.402048 v -3.990149 h 2.62461 v 5.020244 c 0,3.583176 -2.39342,4.066118 -4.73377,4.066118 z m 21.12004,-0.01266 9.4e-4,-9.0737 h 2.6843 v 9.0737 z"
       id="path7"
       inkscape:connector-curvature="0"
       style="stroke-width:0.92569751" />
    <path
       d="m 110.48169,27.484444 c 0,0 2.10537,2.96548 6.30853,3.271162 v 1.076219 c -4.65512,-0.357232 -8.68773,-4.120381 -8.68773,-4.120381 0,0 2.2835,-6.301758 8.68773,-6.878756 v 1.144048 c -4.69965,0.564336 -6.30853,5.507708 -6.30853,5.507708 m 6.30853,-3.234083 v -1.047279 c -3.55127,0.60413 -4.53763,4.12852 -4.53763,4.12852 0,0 1.70552,1.803345 4.53763,2.096366 v -1.149474 c -0.002,0 -0.003,9.04e-4 -0.005,9.04e-4 -1.48665,0.170025 -2.6483,-1.155804 -2.6483,-1.155804 0,0 0.65094,-2.231119 2.65303,-2.873233 m 0,9.565686 v -1.984222 c 0.13739,0.0099 0.27384,0.01809 0.41122,0.02351 5.29375,0.170024 8.7427,-4.143895 8.7427,-4.143895 0,0 -3.96155,-4.597896 -8.08891,-4.597896 -0.37806,0 -0.73148,0.03346 -1.06501,0.08953 v -1.226346 c 0.28521,-0.03527 0.57988,-0.05517 0.88688,-0.05517 3.84121,0 6.61836,1.872078 9.3074,4.087823 0.44533,-0.340954 2.27119,-1.170275 2.6464,-1.533838 -2.55733,-2.043007 -8.51623,-3.689893 -11.89411,-3.689893 -0.32595,0 -0.63862,0.01899 -0.94657,0.04703 v -1.723759 h 14.59737 v 14.707118 z m 0,-4.388079 v 1.327638 c 0.1355,0.0099 0.27194,0.01628 0.41122,0.0208 3.80616,0.113952 6.3038,-3.121939 6.3038,-3.121939 0,0 -2.69757,-3.57594 -5.58937,-3.57594 -0.41691,0 -0.78928,0.06421 -1.12565,0.171833 v 4.028133 c 1.48191,-0.170929 1.78038,-0.795859 2.67104,-2.213031 l 1.98219,1.594431 c 0,0 -1.44685,1.81058 -3.88479,1.81058 -0.26531,0 -0.51924,-0.01718 -0.76844,-0.04251"
       id="path9"
       inkscape:connector-curvature="0"
       style="fill:#7db500;stroke-width:0.92569751" />
    <path
       style="fill:#565c64;fill-opacity:1;stroke-width:0.92569751"
       d="M 58.673828,0.92773438 C 37.719675,0.92756826 17.372973,15.302194 11.085513,35.408266 4.8094154,54.873462 12.956763,77.995282 30.206206,89.040745 47.711188,101.14051 72.915742,101.14604 90.058382,88.343257 103.90308,78.545957 112.26735,61.05529 110.02549,44.093597 108.11542,27.539148 96.910693,12.466931 81.659274,5.777875 74.500159,2.4442178 66.571857,0.77650114 58.673828,0.92773438 Z M 59.681641,25.3125 c 12.092104,-0.223837 23.77978,9.339051 25.304687,21.46875 1.500256,12.432229 -8.396826,24.962891 -20.855211,26.452207 -10.777062,1.930847 -22.821004,-3.571544 -27.596462,-13.556273 -5.000878,-9.969183 -1.631281,-23.258212 7.74811,-29.38339 4.431682,-3.183403 9.915444,-4.944755 15.398876,-4.981294 z"
       id="path13"
       inkscape:connector-curvature="0" />
    <path
       style="fill:#565c64;fill-opacity:1;stroke-width:0.92569751"
       d="m 62.558594,19.164062 c -1.988318,0.677955 -4.713043,-0.663541 -6.146485,1.355469 -1.04901,3.083293 -0.0719,6.36476 -0.417757,9.532422 0.03541,17.146977 -0.05263,34.298753 0.05987,51.442734 0.311358,-0.558557 0.927933,-1.752818 1.9614,-1.807187 1.419496,-0.218878 3.295597,0.336427 4.273437,-1.083984 0.596239,-1.225209 0.229328,-2.698392 0.428387,-4.023489 0.15342,-7.482678 -0.0063,-14.969046 0.06527,-22.453464 0.0021,-10.99987 0.0043,-21.99974 0.0063,-32.99961 l -0.197456,0.03179 z"
       id="path15"
       inkscape:connector-curvature="0" />
    <path
       style="fill:#565c64;fill-opacity:1;stroke-width:0.92569751"
       d="m 26.376953,45.849609 c 1.309926,1.709854 -0.431498,4.489608 1.537109,5.84375 1.987792,0.71789 4.218543,0.520058 6.314288,0.550181 7.099092,-0.220485 14.202597,0.03815 21.305244,-0.03406 12.240832,-0.02923 24.491256,0.06908 36.72608,-0.04628 0.382961,-0.21548 -1.122678,-0.467826 -1.298736,-1.010853 -1.095812,-1.46846 0.253155,-3.692609 -1.310547,-4.957032 -1.218741,-0.74949 -2.802934,-0.398846 -4.167464,-0.593548 -19.751019,-0.06378 -39.504371,-0.03231 -59.256365,-0.04317 l 0.09182,0.177677 z"
       id="path17"
       inkscape:connector-curvature="0" />
    <path
       style="fill:#565c64;fill-opacity:1;stroke-width:0.92569751"
       d="m 38.767578,24.335938 c -1.315937,1.648764 -3.968806,2.703853 -3.808594,5.179687 1.646481,2.885962 4.476529,4.842589 6.73558,7.216078 12.805638,12.196118 25.573178,24.43215 38.373795,36.633531 C 80.169076,70.778539 84.040005,69.890166 83.466797,67.125 81.75492,64.669034 79.198327,62.984262 77.197663,60.781894 64.451924,48.570072 51.674235,36.391669 38.90625,24.203125 Z"
       id="path19"
       inkscape:connector-curvature="0" />
    <path
       style="fill:#565c64;fill-opacity:1;stroke-width:0.92569751"
       d="m 79.105469,26.275391 c -3.670455,1.15367 -5.621129,4.766604 -8.502331,7.048565 -12.795091,12.164586 -25.680757,24.290093 -38.280872,36.625263 -0.178144,1.057547 1.146464,0.535032 1.65625,0.300781 2.234838,0.0087 3.243527,3.238767 5.646484,2.673828 2.184159,-0.618475 3.35666,-2.783821 5.11109,-4.06484 13.80586,-13.145281 27.641508,-26.26854 41.371332,-39.487894 0.209618,-0.973925 -1.176847,0.01368 -1.666016,-0.115235 -2.24151,-0.03737 -3.010404,-3.119452 -5.335937,-2.980468 z"
       id="path21"
       inkscape:connector-curvature="0" />
    <path
       style="fill:#565c64;fill-opacity:1;stroke-width:0.92569751"
       d="m 175.36914,35.173828 c -7.10606,0.254289 -13.80058,4.965013 -16.5293,11.517578 0.23194,-3.64487 0.41393,-7.294834 0.63282,-10.941406 -4.68881,0 -9.37761,0 -14.06641,0 -0.13725,3.464823 -0.27335,6.929691 -0.41016,10.394531 -1.07454,-3.28282 -2.13865,-6.56879 -3.19531,-9.857422 -3.61328,0 -7.22656,0 -10.83984,0 -0.75747,2.638957 -1.5171,5.277297 -2.27539,7.916016 -0.13432,-2.817728 -0.27211,-5.635302 -0.4043,-8.453125 -4.56771,0 -9.13542,0 -13.70313,0 0.87556,13.103607 1.75551,26.206927 2.63086,39.310547 5.25586,0 10.51172,0 15.76758,0 1.40622,-4.60828 2.84574,-9.20658 4.16797,-13.839844 1.41565,4.529944 2.95902,9.019788 4.4668,13.521485 4.7141,0.263998 9.53195,0.747481 14.1914,-0.195313 2.29713,-1.859825 1.54695,-5.136387 1.89258,-7.701172 0.11068,-1.941406 0.22136,-3.882812 0.33203,-5.824219 1.83643,6.866644 7.47659,12.794904 14.5745,14.14043 8.16879,1.881083 17.7582,-1.558194 21.74682,-9.192624 0.44711,-0.823269 0.83219,-1.681205 1.15915,-2.559134 2.94792,7.572152 10.99048,12.804598 19.12922,12.257876 7.65117,-0.161657 15.30325,-5.053944 17.68719,-12.500063 0,3.964192 0,7.928385 0,11.892578 4.71354,0 9.42708,0 14.14062,0 2.40542,-4.120228 4.88233,-8.198238 7.28125,-12.322266 -0.0175,4.107421 -0.0326,8.214861 -0.0527,12.322266 4.52409,0 9.04818,0 13.57226,0 1e-5,-13.103516 0,-26.207031 0,-39.310547 -4.40755,0 -8.8151,0 -13.22265,0 -2.7243,4.739195 -5.51529,9.439537 -8.21094,14.195312 0.0387,-4.731668 0.0285,-9.463534 0.0332,-14.195312 -4.51367,0 -9.02734,0 -13.54101,0 0.002,4.052086 0.003,8.104171 -0.006,12.15625 -2.19511,-6.191546 -7.70428,-11.226882 -14.26804,-12.275283 -7.52906,-1.695067 -16.19104,1.029471 -20.55533,7.600835 -0.85635,1.211453 -1.57144,2.522933 -2.13952,3.893198 -2.70777,-6.888073 -9.73884,-11.795726 -17.14979,-11.905132 -0.94213,-0.08974 -1.89175,-0.08686 -2.83654,-0.04604 z m 152.3457,0.251953 c -7.73126,-0.223709 -15.98649,3.76193 -19.17868,11.081333 -0.48524,1.324902 -0.60791,1.282938 -0.51468,-0.178598 0,-3.526172 0,-7.052344 0,-10.578516 -13.45703,0 -26.91406,0 -40.37109,0 0,13.103516 0,26.207031 0,39.310547 4.73633,0 9.47266,0 14.20899,0 0,-8.893229 -10e-6,-17.786458 0,-26.679688 3.98437,0 7.96874,0 11.95312,0 0,8.89323 0,17.786459 0,26.679688 4.73633,0 9.47266,0 14.20898,0 0,-4.341797 0,-8.683594 0,-13.025391 2.12896,6.003325 7.39475,10.703833 13.57291,12.223197 6.58051,1.967116 13.98115,1.603556 20.14584,-1.494681 1.60591,-2.18637 -0.0166,-4.850424 -0.50196,-7.119223 -0.40165,-1.558827 -0.84393,-3.106759 -1.27343,-4.658121 1.01255,0.239929 3.00228,-0.497332 3.35743,0.4 0,4.558073 0,9.116146 0,13.674219 4.73632,0 9.47265,0 14.20898,0 0,-4.21875 0,-8.4375 0,-12.65625 2.1582,0 4.31641,0 6.47461,0 0,4.21875 0,8.4375 0,12.65625 14.95898,0 29.91797,0 44.87695,0 0,-4.210287 0,-8.420573 0,-12.630859 -3.13997,0 -6.27995,-10e-7 -9.41992,0 0,-8.89323 0,-17.786459 0,-26.679688 -4.73633,0 -9.47266,0 -14.20898,0 0,8.893229 0,17.786458 0,26.679688 -2.36394,0 -4.72787,-10e-7 -7.0918,0 0,-8.89323 0,-17.786459 0,-26.679688 -4.71875,0 -9.4375,0 -14.15625,0 0,4.59375 0,9.1875 0,13.78125 -2.1582,0 -4.31641,0 -6.47461,0 0,-4.59375 0,-9.1875 0,-13.78125 -4.73633,0 -9.47266,0 -14.20898,0 -0.19504,0.764389 0.57827,2.868347 -0.81055,1.986328 -4.77478,-1.504496 -9.77106,-2.455884 -14.79688,-2.310547 z m -150.56836,12.0625 c 3.4705,0.27788 5.31129,4.15682 5.07474,7.297004 0.32554,3.255457 -0.92763,7.333256 -4.31068,8.460811 -3.19958,0.490339 -5.90997,-2.710036 -5.76553,-5.756791 -0.75005,-3.479181 0.13138,-8.165585 3.72576,-9.792489 0.41169,-0.132323 0.84267,-0.20974 1.27571,-0.208535 z m 36.86524,0.02148 c 3.36225,0.35639 5.09669,4.131967 4.93061,7.187748 0.30084,3.266763 -0.85489,7.33012 -4.25678,8.515377 -3.24461,0.615521 -5.94576,-2.684619 -5.84381,-5.762923 -0.74773,-3.537086 0.19115,-8.110185 3.74416,-9.76201 0.46007,-0.132415 0.94539,-0.229815 1.42582,-0.178192 z m 115.32812,0.242187 c 0.80534,0.123554 0.47185,1.579112 -0.40358,1.06157 -1.14229,-0.09247 -2.28164,0.08343 -3.43431,-0.07329 -0.94266,-0.107391 -1.38459,0.824091 -1.125,1.654297 0,3.530599 0,7.061198 0,10.591797 4.61478,0.0039 9.30593,-0.0078 13.87305,0.0059 -4.45324,1.914995 -10.07321,2.984781 -14.34961,0.125 -4.38276,-3.347889 -2.93082,-11.588688 2.53538,-12.950664 0.94376,-0.306198 1.93391,-0.295236 2.90407,-0.414571 z"
       id="path23"
       inkscape:connector-curvature="0" />
    <path
       d="m 147.85999,51.977284 c -0.1535,3.957591 -0.307,8.747217 -0.307,13.535938 h -0.1535 c -1.07542,-4.202679 -2.50901,-8.893727 -3.84026,-12.753644 l -4.19842,-12.852223 h -6.09156 l -3.68582,12.754549 c -1.12754,3.859917 -2.30435,8.550965 -3.123,12.851318 h -0.10233 c -0.20466,-4.446863 -0.35816,-9.528606 -0.61493,-13.633612 l -0.61399,-12.50946 h -7.21814 l 2.20107,32.935008 h 10.3923 l 3.37883,-10.994615 c 1.07543,-3.811985 2.15085,-7.916087 2.91834,-11.776004 h 0.15349 c 0.9731,3.81108 2.15086,8.16027 3.2765,11.824841 l 3.68582,10.945778 h 10.18859 l 1.89408,-32.935008 h -7.62842 z m 20.78783,3.762877 c 0,-6.450078 3.17512,-10.994615 8.3959,-10.994615 5.27385,0 8.29357,4.788721 8.29357,11.189962 0,5.912873 -2.9695,10.994615 -8.34378,10.994615 -5.27385,0 -8.34569,-4.788721 -8.34569,-11.189962 m 24.93188,0.439531 c 0,-10.799267 -6.85999,-17.347019 -16.94435,-17.347019 -10.23976,0 -16.22993,7.378882 -16.22993,16.760978 0,9.870463 6.60416,17.249345 16.7918,17.249345 10.59792,0 16.38248,-7.574229 16.38248,-16.663304 m 11.77871,-0.439531 c 0,-6.450078 3.17511,-10.994615 8.3959,-10.994615 5.27385,0 8.29357,4.788721 8.29357,11.189962 0,5.912873 -2.96951,10.994615 -8.34379,10.994615 -5.27385,0 -8.34568,-4.788721 -8.34568,-11.189962 m 24.93187,0.439531 c 0,-10.799267 -6.85998,-17.347019 -16.94435,-17.347019 -10.23976,0 -16.22993,7.378882 -16.22993,16.760978 0,9.870463 6.60416,17.249345 16.7918,17.249345 10.59792,0 16.38248,-7.574229 16.38248,-16.663304 m 5.12291,-16.809452 v 32.935008 h 9.11222 l 7.16793,-12.069929 c 2.04757,-3.469223 4.09514,-7.573325 5.63106,-11.287636 h 0.1535 c -0.51166,4.34919 -0.66516,8.796054 -0.66516,13.731286 v 9.626279 h 7.16698 V 39.37024 h -8.19124 l -7.37164,12.704808 c -2.04757,3.51806 -4.30075,7.769576 -5.99017,11.630398 l -0.15349,-0.04884 c 0.20466,-4.34919 0.30699,-8.991401 0.30699,-14.367068 V 39.37024 Z m 35.32712,32.935008 h 7.83308 V 45.62497 h 13.71997 v -6.25473 h -21.55305 z m 33.99596,-32.934646 h -7.83308 V 72.30561 h 7.83308 z m 35.58049,1.514303 c -2.40573,-0.781389 -6.96232,-1.856704 -11.51795,-1.856704 -6.29811,0 -10.85375,1.514846 -14.02791,4.446864 -3.17512,2.834344 -4.91475,7.133793 -4.86453,11.972256 0.0521,10.945778 8.39685,17.200509 19.71109,17.200509 4.4533,0 7.88329,-0.831131 9.57365,-1.613424 l -1.63824,-5.960805 c -1.89408,0.781389 -4.24959,1.416267 -8.03775,1.416267 -6.50277,0 -11.41656,-3.518059 -11.41656,-10.651852 0,-6.79284 4.45425,-10.799268 10.85374,-10.799268 1.7908,0 3.22439,0.195347 3.83932,0.488368 v 6.889609 h -5.32502 v 5.815199 h 12.85016 z m 13.92861,31.420343 V 59.649277 h 12.85015 v 12.655971 h 7.78097 V 39.37024 h -7.78097 V 53.150363 H 354.24537 V 39.37024 h -7.83308 v 32.935008 z m 34.09839,-6.25473 h -9.26572 v 6.25473 H 405.597 v -6.25473 h -9.41922 V 39.37024 h -7.83402 z M 59.92531,77.907465 c -16.27067,0 -29.460033,-12.589952 -29.460033,-28.119156 0,-15.530108 13.189363,-28.120059 29.460033,-28.120059 16.270671,0 29.460033,12.589951 29.460033,28.120059 0,15.529204 -13.189362,28.119156 -29.460033,28.119156 m 46.69148,-28.119156 c 0,-24.613757 -20.904002,-44.5672149 -46.69148,-44.5672149 -25.787478,0 -46.69148,19.9534579 -46.69148,44.5672149 0,24.612853 20.904002,44.566311 46.69148,44.566311 25.787478,0 46.69148,-19.953458 46.69148,-44.566311"
       id="path25"
       inkscape:connector-curvature="0"
       style="fill:url(#linearGradient1013);stroke-width:0.92569751;fill-opacity:1" />
    <path
       d="m 60.827815,21.668159 h -2.797054 v 56.239215 h 2.797054 z"
       id="path27"
       inkscape:connector-curvature="0"
       style="fill:#deddde;stroke-width:0.92569751" />
    <path
       d="M 29.802493,50.218706 H 89.385817 V 47.54896 H 29.802493 Z"
       id="path29"
       inkscape:connector-curvature="0"
       style="fill:#deddde;stroke-width:0.92569751" />
    <path
       d="m 39.808077,28.123103 -1.978405,1.888357 42.52622,40.589728 1.977456,-1.888357 z"
       id="path31"
       inkscape:connector-curvature="0"
       style="fill:#deddde;stroke-width:0.92569751" />
    <path
       d="M 81.421792,30.313452 79.443388,28.425095 37.539684,68.42245 39.51714,70.310807 Z"
       id="path33"
       inkscape:connector-curvature="0"
       style="fill:#deddde;stroke-width:0.92569751" />
  </g>
</svg>
