<?xml version="1.0" encoding="UTF-8" standalone="no"?>
<svg
   xmlns:dc="http://purl.org/dc/elements/1.1/"
   xmlns:cc="http://creativecommons.org/ns#"
   xmlns:rdf="http://www.w3.org/1999/02/22-rdf-syntax-ns#"
   xmlns:svg="http://www.w3.org/2000/svg"
   xmlns="http://www.w3.org/2000/svg"
   xmlns:sodipodi="http://sodipodi.sourceforge.net/DTD/sodipodi-0.dtd"
   xmlns:inkscape="http://www.inkscape.org/namespaces/inkscape"
   viewBox="0 0 600.27198 171.83996"
   height="171.83997"
   width="600.27197"
   xml:space="preserve"
   version="1.1"
   id="svg2"
   sodipodi:docname="NESHH.svg"
   inkscape:version="0.92.4 (5da689c313, 2019-01-14)"><sodipodi:namedview
     pagecolor="#ffffff"
     bordercolor="#666666"
     borderopacity="1"
     objecttolerance="10"
     gridtolerance="10"
     guidetolerance="10"
     inkscape:pageopacity="0"
     inkscape:pageshadow="2"
     inkscape:window-width="1920"
     inkscape:window-height="1018"
     id="namedview52"
     showgrid="false"
     inkscape:zoom="1.1421655"
     inkscape:cx="276.30301"
     inkscape:cy="-35.204072"
     inkscape:window-x="-8"
     inkscape:window-y="-8"
     inkscape:window-maximized="1"
     inkscape:current-layer="svg2" /><metadata
     id="metadata8"><rdf:RDF><cc:Work
         rdf:about=""><dc:format>image/svg+xml</dc:format><dc:type
           rdf:resource="http://purl.org/dc/dcmitype/StillImage" /><dc:title></dc:title></cc:Work></rdf:RDF></metadata><defs
     id="defs6"><clipPath
       id="clipPath16"
       clipPathUnits="userSpaceOnUse"><path
         id="path18"
         d="M 0,618.062 H 1949.984 V 0 H 0 Z"
         inkscape:connector-curvature="0" /></clipPath></defs><g
     id="g1082"
     transform="matrix(0.88800642,0,0,0.88800642,14.293274,18.548755)"><g
       transform="translate(0,2)"
       aria-label="HACKS"
       style="font-style:normal;font-variant:normal;font-weight:normal;font-stretch:normal;font-size:157.88580322px;line-height:1.25;font-family:'Arabic Typesetting';-inkscape-font-specification:'Arabic Typesetting';letter-spacing:0px;word-spacing:0px;fill:#ff0000;fill-opacity:1;stroke:none;stroke-width:3.94714546"
       id="text913"><path
         d="M 187.37265,120.83693 V 97.709127 q 0,-1.850224 -0.30837,-3.083707 -0.23128,-1.233483 -1.23348,-2.00441 -0.92511,-0.848019 -2.77534,-1.233483 -1.85022,-0.385463 -5.08811,-0.539648 l 0.15418,-2.775337 q 1.23348,0 2.92952,0.07709 1.77313,0 3.70045,0 2.00441,0 4.08591,0.07709 2.08151,0 3.93173,0 1.46476,0 3.23789,0 1.77313,-0.07709 3.46917,-0.07709 1.77313,0 3.31499,0 1.54185,-0.07709 2.62115,-0.07709 l 0.15418,2.621151 q -3.00661,0.231278 -4.85683,0.770927 -1.77314,0.462556 -2.77534,1.541854 -1.00221,1.002204 -1.38767,2.852429 -0.30837,1.850224 -0.30837,4.702657 v 51.88337 q 0,1.85022 0.30837,3.0837 0.30837,1.23349 1.23348,2.08151 1.00221,0.77092 2.92953,1.15639 1.92731,0.38546 5.16521,0.53965 l -0.15419,2.77533 q -1.23348,0 -3.00661,0 -1.77314,-0.0771 -3.77755,-0.0771 -2.00441,0 -4.08591,0 -2.0815,-0.0771 -3.93172,-0.0771 -1.54186,0 -3.31499,0.0771 -1.69604,0 -3.39208,0 -1.69604,0 -3.23789,0.0771 -1.46476,0 -2.54406,0 l -0.23128,-2.62115 q 3.00662,-0.23128 4.77975,-0.69383 1.77313,-0.53965 2.77534,-1.54186 1.0022,-1.07929 1.31057,-2.85243 0.30837,-1.85022 0.30837,-4.77974 v -24.2071 h -41.24458 v 27.05953 q 0,1.85022 0.23128,3.0837 0.30837,1.23349 1.23348,2.08151 1.00221,0.77092 2.85243,1.15639 1.85022,0.38546 5.08812,0.53965 l -0.15419,2.77533 q -1.23348,0 -3.00661,0 -1.69604,-0.0771 -3.70045,-0.0771 -1.92732,-0.0771 -4.00882,-0.0771 -2.0815,-0.0771 -3.93173,-0.0771 -1.46476,0 -3.23789,0.0771 -1.77313,0 -3.54626,0 -1.69604,0 -3.2379,0.0771 -1.54185,0 -2.62115,0 l -0.15418,-2.62115 q 3.00661,-0.23128 4.77974,-0.69384 1.85023,-0.53964 2.85243,-1.54185 1.00221,-1.0793 1.31058,-2.85243 0.38546,-1.85022 0.38546,-4.77974 V 97.709127 q 0,-1.850224 -0.30837,-3.083707 -0.30837,-1.233483 -1.31057,-2.00441 -0.92512,-0.848019 -2.85243,-1.233483 -1.92732,-0.385463 -5.16521,-0.539648 l 0.15418,-2.775337 h 3.39208 q 1.92732,0 3.85463,0.07709 2.00441,0 3.85464,0 h 6.78415 q 1.77314,0 3.46917,0 1.77314,-0.07709 3.31499,-0.07709 h 2.62115 l 0.23128,2.621151 q -3.00662,0.231278 -4.77975,0.770927 -1.77313,0.462556 -2.77533,1.541854 -1.00221,1.002204 -1.31058,2.852429 -0.30837,1.850224 -0.30837,4.702657 v 20.27537 z"
         style="fill:#ff0000;stroke-width:3.94714546"
         id="path924"
         inkscape:connector-curvature="0" /><path
         d="m 258.22082,134.71361 h -25.67186 l -5.93614,15.18726 q -1.54185,4.39428 -1.54185,5.55067 0,2.00441 1.85022,2.77534 1.92732,0.77093 6.78416,1.0022 l -0.23128,2.77534 q -2.85243,0 -6.39869,-0.0771 -3.54627,-0.0771 -7.01544,-0.0771 -2.85242,0 -5.93613,0.0771 -3.00662,0.0771 -5.85905,0.0771 l -0.15418,-2.62115 q 3.00661,-0.23128 4.93393,-0.69384 1.92732,-0.53964 3.31499,-1.85022 1.46476,-1.38767 2.69824,-3.70045 1.31058,-2.38987 3.00661,-6.3216 l 22.1256,-52.19174 q 0.92511,-2.312781 1.54186,-4.008819 0.69383,-1.773132 1.46476,-3.777542 l 4.85684,-0.616741 q 0.84802,3.700448 1.77313,6.784156 1.0022,3.083707 1.85022,5.627765 l 17.34585,50.264421 q 1.15639,3.39208 2.08151,5.3194 0.92511,1.92732 2.15859,3.00661 1.23348,1.00221 3.08371,1.38767 1.92732,0.38547 4.93393,0.61674 l -0.23128,2.77534 q -3.23789,0 -7.16962,-0.0771 -3.85463,-0.0771 -7.78636,-0.0771 -3.23789,0 -6.55288,0.0771 -3.31498,0.0771 -6.55287,0.0771 l -0.23128,-2.62115 q 4.31719,-0.30837 6.16741,-1.00221 1.85023,-0.77092 1.85023,-2.77533 0,-0.84802 -0.30837,-1.92732 -0.30837,-1.15639 -0.77093,-2.54406 z m -23.89873,-4.47137 h 22.43397 L 246.42564,99.713536 Z"
         style="fill:#ff0000;stroke-width:3.94714546"
         id="path926"
         inkscape:connector-curvature="0" /><path
         d="m 300.85307,123.68936 q 0,7.4009 1.85023,13.95377 1.85022,6.47579 5.55067,11.33263 3.77754,4.77974 9.40531,7.63217 5.62776,2.77534 13.25994,2.77534 4.163,0 7.94054,-1.15639 3.85464,-1.15639 6.78416,-3.77754 2.77534,-2.46697 4.77975,-6.01323 2.0815,-3.62336 4.08591,-8.4802 l 3.0837,0.77093 q -1.31057,5.08812 -2.0815,9.55949 -0.77092,4.47138 -1.31057,9.55949 -6.09032,1.77314 -12.10355,2.77534 -5.93614,1.00221 -11.94937,1.00221 -8.71147,0 -16.11237,-2.69825 -7.3238,-2.69824 -12.72029,-7.63217 -5.31939,-4.93393 -8.32601,-11.87228 -3.00661,-7.01543 -3.00661,-15.57272 0,-9.86786 3.62335,-17.19166 3.62336,-7.4009 9.79077,-12.334831 6.24451,-4.933932 14.41633,-7.323805 8.17183,-2.466965 17.26876,-2.466965 4.70266,0 10.02205,0.693834 5.39649,0.693834 10.02205,1.927317 -0.46256,4.933931 -0.61674,9.405306 -0.0771,4.394284 -0.0771,9.328214 l -3.23789,0.30837 q -0.30837,-4.54847 -1.85022,-7.86345 -1.46476,-3.39208 -4.00882,-5.550675 -2.46697,-2.235688 -5.78195,-3.237892 -3.31499,-1.079298 -7.24671,-1.079298 -7.70927,0 -13.56831,2.466966 -5.85905,2.389873 -9.86787,6.784155 -3.93172,4.317194 -6.01323,10.484604 -2.00441,6.09032 -2.00441,13.49122 z"
         style="fill:#ff0000;stroke-width:3.94714546"
         id="path928"
         inkscape:connector-curvature="0" /><path
         d="m 395.83125,90.693693 q -3.0837,0.231278 -5.01102,0.770927 -1.85022,0.462556 -2.92952,1.541854 -1.0793,1.002204 -1.46476,2.852429 -0.38547,1.773131 -0.38547,4.625557 v 21.97142 q 2.23569,-0.38547 4.00882,-1.31058 1.85023,-0.92511 4.08592,-2.92952 2.38987,-2.23569 5.08811,-4.93393 2.69825,-2.69825 5.3194,-5.47358 2.69824,-2.85243 5.16521,-5.62777 2.46696,-2.775334 4.39428,-5.165207 1.0793,-1.387668 1.54185,-2.466966 0.53965,-1.079297 0,-1.850224 -0.53965,-0.84802 -2.23568,-1.310576 -1.61895,-0.462556 -4.77975,-0.616741 l 0.15418,-2.698244 q 1.0793,0 2.77534,0.07709 1.69604,0 3.54626,0 1.92732,0 3.85464,0.07709 2.00441,0 3.70045,0 1.46476,0 3.39207,0 2.00441,-0.07709 3.93173,-0.07709 2.00441,0 3.70045,0 1.69604,-0.07709 2.77534,-0.07709 l 0.23127,2.621151 q -2.77533,0.231278 -5.08811,0.770927 -2.23569,0.539649 -4.39429,1.541854 -2.0815,1.002204 -4.163,2.544058 -2.0815,1.464761 -4.39428,3.623356 -1.69604,1.541852 -4.16301,3.931722 -2.38987,2.38988 -5.2423,5.3194 -2.77534,2.85243 -5.85904,6.01323 -3.08371,3.0837 -6.01323,6.09032 3.23789,4.00882 6.86125,8.48019 3.70045,4.47138 7.24671,8.71148 3.62335,4.163 6.70706,7.78636 3.1608,3.54626 5.2423,5.70485 2.31278,2.38988 3.85464,3.85464 1.61894,1.46476 3.0837,2.38987 1.46477,0.84802 3.1608,1.23348 1.69604,0.38547 4.31719,0.61675 l -0.15418,2.77533 q -2.92952,0 -6.47579,-0.0771 -3.46917,-0.0771 -6.93834,-0.0771 -1.07929,0 -2.31278,0.0771 -1.15639,0 -2.23569,0.0771 -0.61674,-1.15639 -2.15859,-3.23789 -1.54185,-2.0815 -3.70045,-4.77975 -2.15859,-2.69824 -4.77974,-5.78195 -2.54406,-3.1608 -5.3194,-6.39869 -2.69824,-3.31498 -5.47358,-6.47578 -2.69824,-3.2379 -5.08812,-6.09033 -1.54185,-1.77313 -2.85243,-2.46696 -1.23348,-0.77093 -2.54405,-0.77093 -0.84802,0 -1.77314,0.23128 v 26.13442 q 0,1.85022 0.30838,3.0837 0.30837,1.23349 1.31057,2.08151 1.0793,0.77092 3.00662,1.15639 2.00441,0.38546 5.31939,0.53965 l -0.15419,2.77533 q -1.23348,0 -3.0837,0 -1.77313,-0.0771 -3.85464,-0.0771 -2.0815,0 -4.24009,0 -2.08151,-0.0771 -3.93173,-0.0771 -1.54185,0 -3.39208,0.0771 -1.77313,0 -3.62335,0 -1.85023,0 -3.46917,0.0771 -1.61895,0 -2.69825,0 l -0.23128,-2.62115 q 3.2379,-0.23128 5.16521,-0.69383 1.92732,-0.53965 2.92953,-1.54186 1.07929,-1.07929 1.38766,-2.85243 0.38547,-1.85022 0.38547,-4.77974 V 97.709127 q 0,-1.850224 -0.30837,-3.083707 -0.30837,-1.233483 -1.38767,-2.00441 -1.00221,-0.848019 -3.00662,-1.233483 -2.00441,-0.385463 -5.31939,-0.539648 l 0.15418,-2.775337 q 1.23349,0 3.08371,0.07709 1.85023,0 3.93173,0 2.0815,0 4.2401,0.07709 2.15859,0 4.00881,0 1.46477,0 3.2379,0 1.85022,-0.07709 3.62335,-0.07709 1.85023,0 3.46917,0 1.61895,-0.07709 2.69825,-0.07709 z"
         style="fill:#ff0000;stroke-width:3.94714546"
         id="path930"
         inkscape:connector-curvature="0" /><path
         d="m 445.86442,140.57266 q 1.54185,4.00881 3.23789,7.40089 1.77313,3.39208 4.16301,5.93614 2.46696,2.46696 5.70485,3.93173 3.2379,1.38766 7.78636,1.38766 3.00662,0 5.55068,-1.0022 2.54406,-1.00221 4.47137,-2.85243 1.92732,-1.85022 3.00662,-4.31719 1.07929,-2.54406 1.07929,-5.55067 0,-3.77754 -1.38766,-6.47579 -1.38767,-2.69824 -3.70045,-4.62556 -2.31278,-2.00441 -5.2423,-3.46917 -2.92953,-1.46476 -6.01323,-2.85243 -3.46917,-1.54185 -7.01544,-3.39208 -3.46917,-1.85022 -6.2445,-4.39428 -2.77534,-2.54406 -4.54847,-5.85904 -1.77313,-3.31499 -1.77313,-7.86346 0,-4.85683 1.92731,-8.557282 2.00441,-3.777542 5.3194,-6.3216 3.39208,-2.544058 7.78636,-3.854634 4.47137,-1.310575 9.4824,-1.310575 4.85684,0 8.94275,0.770926 4.163,0.693835 8.86566,1.927317 -0.23128,2.466966 -0.38547,4.625561 -0.15418,2.081502 -0.23128,4.163005 0,2.004412 -0.0771,4.163002 0,2.0815 0,4.54847 l -3.23789,0.30837 q -0.69383,-8.171823 -5.01102,-12.180642 -4.2401,-4.085912 -11.48681,-4.085912 -2.77534,0 -5.08812,0.848019 -2.31278,0.84802 -4.00882,2.466966 -1.69604,1.618946 -2.69824,3.854634 -0.92511,2.235685 -0.92511,5.011025 0,3.70045 1.15639,6.24451 1.23348,2.46696 3.31498,4.31719 2.0815,1.85022 4.77975,3.23789 2.77533,1.31057 5.78195,2.62115 3.70045,1.61895 7.40089,3.54626 3.77755,1.92732 6.70707,4.54847 3.00661,2.62115 4.85684,6.09032 1.85022,3.46917 1.85022,8.17183 0,5.2423 -2.15859,9.32821 -2.1586,4.00882 -5.70486,6.86125 -3.54627,2.77533 -8.17183,4.2401 -4.62556,1.46476 -9.4824,1.46476 -4.24009,0 -8.78856,-0.84802 -4.54847,-0.84802 -9.63659,-2.31278 -0.53964,-5.08812 -1.31057,-9.5595 -0.77093,-4.47137 -2.0815,-9.55949 z"
         style="fill:#ff0000;stroke-width:3.94714546"
         id="path932"
         inkscape:connector-curvature="0" /></g><g
       aria-label="B"
       style="font-style:normal;font-variant:normal;font-weight:normal;font-stretch:normal;font-size:77.42630005px;line-height:1.25;font-family:'Game Logos';-inkscape-font-specification:'Game Logos';letter-spacing:0px;word-spacing:0px;fill:#ff0000;fill-opacity:1;stroke:none;stroke-width:1.9356575"
       id="text1072"><path
         d="m 233.99833,-14.183242 h 160.7503 q 12.02225,0 20.75539,10.9636848 4.68792,7.2209098 4.68792,14.4796252 v 0.90734 q 0,13.458868 -12.24908,21.92737 -6.46479,3.931804 -13.83692,3.931804 H 234.64103 q -14.40402,0 -22.98594,-13.458868 -3.13788,-6.162348 -3.13788,-12.400306 v -0.90734 q 0,-12.02224749 10.96369,-20.7553897 7.22091,-4.6879203 14.51743,-4.6879203 z M 214.67956,12.05399 q 0,7.598968 5.59526,13.685704 5.63306,6.162347 16.18089,6.162347 h 155.83555 q 11.30393,0 16.937,-7.069687 4.83914,-5.59526 4.83914,-13.194228 0,-9.7538988 -8.88436,-16.294304 -5.02817,-3.4025229 -11.34175,-3.4025229 H 234.90567 q -12.55153,0 -18.67607,12.1356652 -1.55004,4.0452217 -1.55004,7.9770257 z M 401.13782,-0.23289815 q 2.83543,0 3.66716,3.93180435 0,2.4573776 -2.98666,3.6671636 l -0.90734,0.1134174 q -2.94885,0 -3.66716,-3.780581 0.49147,-3.93180435 3.894,-3.93180435 z M 229.53724,-0.0816749 h 7.44775 q 0.98295,0.98295107 10.69904,16.7101679 h 0.15122 V 0.18296577 q 0.0378,-0.26464067 0.22684,-0.26464067 h 6.80505 q 0.26464,0.03780581 0.26464,0.26464067 V 23.773792 q 0,0.26464 -0.26464,0.26464 h -6.91847 Q 246.02058,21.35422 236.72035,6.6855652 h -0.11342 V 23.773792 q 0,0.26464 -0.26464,0.26464 h -6.80505 q -0.26464,0 -0.26464,-0.26464 V 0.18296577 q 0.0378,-0.26464067 0.26464,-0.26464067 z m 30.28246,0 h 6.80504 q 0.22684,0.03780581 0.22684,0.26464067 V 3.9635468 q 0,0.2646407 -0.22684,0.2646407 h -6.80504 q -0.26464,0 -0.26464,-0.2646407 V 0.18296577 q 0.0378,-0.26464067 0.26464,-0.26464067 z m 108.95634,0 h 6.80505 q 0.26464,0.03780581 0.26464,0.26464067 V 23.773792 q 0,0.26464 -0.26464,0.26464 h -6.80505 q -0.11341,0 -0.37806,-0.491475 -2.26834,1.020757 -4.95256,1.020757 -5.55745,0 -8.09044,-7.183104 l -0.26464,-1.814679 q 0,-5.7464835 6.5404,-8.2038612 l 1.81468,-0.2646407 q 2.34396,0 4.95256,1.5500382 h 0.15123 V 0.18296577 q 0.0378,-0.26464067 0.22683,-0.26464067 z m 29.11048,4.0452217 q 0.60489,2.8732416 2.87324,2.8732416 h 0.37806 q 3.02446,-0.6805046 3.02446,-3.0244648 V 3.5476829 q -0.6427,-3.10007646 -2.87324,-3.10007646 h -0.79392 q -2.07932,0 -2.6086,3.10007646 z m 1.9659,-2.2305428 h 1.05856 q 1.43662,0 1.43662,1.3232034 0,0.6805046 -0.6805,1.0207569 0.41586,0.6805045 0.41586,1.0585627 l -0.26464,0.1134174 q -0.11342,0 -0.90734,-1.0207569 h -0.6805 v 0.6426988 q 0,0.2646407 -0.26464,0.2646407 h -0.11342 q -0.26464,0 -0.26464,-0.2646407 V 1.9976447 q 0.0378,-0.2646407 0.26464,-0.2646407 z M 296.86939,2.1110621 h 6.91846 q 0.26464,0.075612 0.26464,0.2646407 v 3.1378823 h 3.51595 q 0.26464,0.037806 0.26464,0.2646406 v 1.7012615 q 0,0.2646407 -0.26464,0.2646407 h -3.51595 V 23.773792 q 0,0.26464 -0.26464,0.26464 h -6.91846 q -0.22683,0 -0.22683,-0.26464 V 7.7441279 h -3.55375 q -0.26464,0 -0.26464,-0.2646407 V 5.7782257 q 0.0378,-0.2646406 0.26464,-0.2646406 h 3.55375 V 2.3757028 q 0.0378,-0.2646407 0.22683,-0.2646407 z m 103.36109,0.2646407 v 1.1719801 h 1.05856 q 0.18903,0 0.37806,-0.3780581 V 2.7915667 q 0,-0.1890291 -0.37806,-0.4158639 z M 283.82639,7.1014291 h 0.52928 q 4.65011,0 7.71238,4.6879209 0.26464,0.907339 0.26464,1.550038 v 10.434404 q 0,0.26464 -0.26464,0.26464 h -7.06968 q -0.26464,0 -0.26464,-0.26464 V 12.696689 q 0,-1.474427 -2.87325,-2.230543 h -0.22683 q -3.55375,0.831728 -3.55375,2.495184 v 10.812462 q 0,0.26464 -0.26464,0.26464 h -6.65382 q -0.26464,0 -0.26464,-0.26464 V 8.0087686 q 0.0756,-0.2646407 0.26464,-0.2646407 h 6.65382 q 0.26464,0.037806 0.26464,0.2646407 v 1.2853975 q 3.78058,-2.192737 5.74649,-2.192737 z m 34.06303,0 q 6.23796,0 9.67829,4.9525609 1.17198,1.890291 1.17198,3.893999 l -0.26464,0.151223 h -13.19423 v 4.309862 q 0,2.457378 2.49518,2.457378 h 0.52929 q 2.6086,0 2.6086,-2.192737 v -1.965902 q 0.0378,-0.264641 0.22683,-0.264641 h 7.06969 q 0,2.53299 -4.95256,5.59526 -2.87324,1.058563 -5.21721,1.058563 h -0.15122 q -7.71238,-0.340252 -10.32098,-6.76724 -0.22684,-1.247592 -0.22684,-1.965902 v -0.793922 q 0,-4.574503 6.12454,-7.5611624 1.43662,-0.6426988 4.42328,-0.9073395 z m 71.5286,0 q 6.69162,0 10.16976,5.9733179 0.52928,1.852485 0.52928,3.024465 0,6.275765 -8.09044,8.733142 -1.32321,0.264641 -2.34396,0.264641 h -0.41587 q -6.65382,0 -9.7917,-5.59526 -0.75612,-1.663456 -0.75612,-3.289106 0,-6.4647932 7.8258,-8.7331418 1.13418,-0.2646407 2.87325,-0.3780581 z M 259.8197,7.7441279 h 6.80504 q 0.22684,0.037806 0.22684,0.2646407 V 23.773792 q 0,0.26464 -0.22684,0.26464 h -6.80504 q -0.26464,0 -0.26464,-0.26464 V 8.0087686 q 0.0378,-0.2646407 0.26464,-0.2646407 z m 84.04231,0 h 2.49519 q 2.11712,0 5.48184,3.2513001 1.02076,1.323203 1.02076,1.965902 v 11.341743 q 0,0.264641 -0.26464,0.264641 h -6.91847 q -0.22683,0 -0.22683,-0.264641 V 12.96133 q -1.39882,-1.965902 -3.02447,-1.965902 -3.66716,0.831727 -3.66716,2.495183 v 10.812462 q 0,0.264641 -0.22684,0.264641 h -6.80504 q -0.26464,0 -0.26464,-0.264641 V 8.5380499 q 0.0378,-0.2646407 0.26464,-0.2646407 h 6.80504 q 0.22684,0.037806 0.22684,0.2646407 v 1.2853976 h 0.15122 q 3.47814,-2.0793196 4.95256,-2.0793196 z m -28.58119,5.5952601 h 5.63307 v -1.436621 q 0,-3.1000764 -3.13789,-3.1000764 -1.77687,0 -2.49518,2.1927374 z m 71.26395,-1.928096 v 9.375841 q 0,1.852484 2.23055,2.079319 h 1.17198 q 2.19273,0 2.19273,-2.608601 v -8.090443 q 0,-3.3647174 -2.6086,-3.3647174 -2.98666,0 -2.98666,2.6086014 z m -23.62863,1.928096 v 5.746483 q 0,2.608601 2.87324,2.608601 2.75983,0 2.75983,-2.07932 v -6.76724 q -0.30245,-3.0244645 -2.64641,-3.0244645 -2.98666,0 -2.98666,3.5159405 z M 188.44233,44.680405 h 15.53818 q 0.26464,0.03781 0.26464,0.26464 v 2.98666 q 0,0.26464 -0.26464,0.26464 h -10.85026 q -0.90734,0.491476 -0.90734,1.17198 0,1.058563 1.43662,1.323204 h 9.52706 q 0.26464,0.03781 0.26464,0.226835 v 2.381766 q 0,0.26464 -0.26464,0.26464 h -9.26242 q -1.36101,0 -1.70126,1.285398 0.34025,1.436621 1.43662,1.436621 h 10.32098 q 0.26464,0.0378 0.26464,0.26464 v 2.608601 q 0,0.264641 -0.26464,0.264641 h -11.49296 q -4.30986,-0.415864 -4.30986,-3.2513 V 44.945045 q 0.0378,-0.26464 0.26464,-0.26464 z m 58.97706,0 h 15.38697 q 0.26464,0.03781 0.26464,0.26464 v 2.98666 q 0,0.26464 -0.26464,0.26464 h -10.43441 q -0.71831,0 -1.17198,0.793922 v 0.529282 q 0,1.17198 1.58785,1.17198 h 9.37584 q 0.26464,0.03781 0.26464,0.226835 v 2.381766 q 0,0.26464 -0.26464,0.26464 h -9.52707 q -1.43662,0.226835 -1.43662,1.285398 v 0.113417 q 0,1.209786 1.58785,1.323204 h 10.01854 q 0.26464,0.0378 0.26464,0.26464 v 2.608601 q 0,0.264641 -0.26464,0.264641 h -11.60639 q -4.04522,-0.529281 -4.04522,-3.024465 V 44.945045 q 0.0378,-0.26464 0.26464,-0.26464 z m 136.36556,0 h 15.42477 q 0.26464,0.03781 0.26464,0.26464 v 2.98666 q 0,0.26464 -0.26464,0.26464 h -10.4344 q -0.71831,0 -1.20979,0.793922 v 0.529282 q 0,1.17198 1.58784,1.17198 h 9.37585 q 0.26464,0.03781 0.26464,0.226835 v 2.381766 q 0,0.26464 -0.26464,0.26464 h -9.37585 q -1.58784,0.113418 -1.58784,1.285398 v 0.113417 q 0,1.209786 1.58784,1.323204 h 10.05635 q 0.26464,0.0378 0.26464,0.26464 v 2.608601 q 0,0.264641 -0.26464,0.264641 h -11.49297 q -4.19644,-0.45367 -4.19644,-3.024465 V 44.945045 q 0.0756,-0.26464 0.26464,-0.26464 z m -176.17508,0.113417 h 14.74427 q 3.17569,0 4.30986,3.515941 V 59.16003 q 0,0.264641 -0.26464,0.264641 h -4.04522 q -0.26464,0 -0.26464,-0.264641 v -9.527064 q -0.18903,-1.436621 -1.39882,-1.436621 h -7.33432 q -0.98296,0 -1.17198,1.323204 v 9.640481 q 0,0.264641 -0.26465,0.264641 h -4.30986 q -0.26464,0 -0.26464,-0.264641 V 45.058463 q 0.0756,-0.264641 0.26464,-0.264641 z m 21.28467,0 h 16.06747 q 0.22684,0.03781 0.22684,0.264641 v 2.873242 q 0,0.26464 -0.22684,0.26464 h -5.36842 q -0.18903,0 -0.37806,0.378058 V 59.16003 q 0,0.264641 -0.26464,0.264641 h -4.04522 q -0.26464,0 -0.26464,-0.264641 v -9.905122 q 0,-0.982951 -0.37806,-1.058563 h -5.36843 q -0.26464,0 -0.26464,-0.26464 v -2.873242 q 0.0378,-0.264641 0.26464,-0.264641 z m 37.7302,0 h 14.06376 q 2.26835,0 3.66717,4.045222 v 0.680505 q 0,1.512232 -1.2854,3.893998 v 0.151223 q 0.49148,1.550039 0.49148,1.928097 v 3.667163 q 0,0.264641 -0.26465,0.264641 h -3.51594 q -0.26464,0 -0.26464,-0.264641 v -2.230543 q 0,-1.550038 -1.55003,-1.550038 h -5.48185 q -1.43662,0 -1.43662,1.701262 v 2.079319 q 0,0.264641 -0.26464,0.264641 h -4.15864 q -0.26464,0 -0.26464,-0.264641 V 45.058463 q 0.0378,-0.264641 0.26464,-0.264641 z m 19.81025,0 h 16.06747 q 0.26464,0.03781 0.26464,0.264641 v 2.873242 q 0,0.26464 -0.26464,0.26464 h -5.36843 q -0.37806,0.113418 -0.37806,0.793922 V 59.16003 q 0,0.264641 -0.26464,0.264641 h -4.04522 q -0.26464,0 -0.26464,-0.264641 V 48.990267 q 0,-0.680504 -0.37806,-0.793922 h -5.36842 q -0.26464,0 -0.26464,-0.26464 v -2.873242 q 0.0378,-0.264641 0.26464,-0.264641 z m 21.66273,0 h 10.96368 q 2.23054,0 3.66717,3.931805 V 59.16003 q 0,0.264641 -0.26465,0.264641 h -4.15863 q -0.26465,0 -0.26465,-0.264641 v -3.51594 q 0,-0.264641 -0.26464,-0.264641 h -8.24166 v 3.780581 q 0,0.264641 -0.26464,0.264641 h -4.30987 q -0.22683,0 -0.22683,-0.264641 V 48.990267 q 0,-1.852485 2.6086,-3.931804 0.41586,-0.264641 0.75612,-0.264641 z m 18.14679,0 h 4.04522 q 0.26464,0.03781 0.26464,0.264641 V 59.16003 q 0,0.264641 -0.26464,0.264641 h -4.04522 q -0.26465,0 -0.26465,-0.264641 V 45.058463 q 0.0378,-0.264641 0.26465,-0.264641 z m 7.1831,0 h 14.47963 q 3.51594,0 4.5745,3.667164 V 59.16003 q 0,0.264641 -0.26464,0.264641 h -4.04522 q -0.26464,0 -0.26464,-0.264641 v -8.884365 q 0,-2.07932 -1.43663,-2.07932 h -7.29652 q -1.17198,0.151223 -1.17198,1.17198 v 9.791705 q 0,0.264641 -0.26464,0.264641 h -4.30986 q -0.26464,0 -0.26464,-0.264641 V 45.058463 q 0.0378,-0.264641 0.26464,-0.264641 z m 22.45665,0 h 19.96147 q 3.10008,0 4.30986,3.402523 V 59.16003 q 0,0.264641 -0.26464,0.264641 h -4.04522 q -0.26464,0 -0.26464,-0.264641 v -9.640481 q 0,-0.756117 -0.90734,-1.323204 h -3.40252 q -0.71831,0 -0.90734,2.07932 v 8.884365 q 0,0.264641 -0.26464,0.264641 h -4.19645 q -0.22683,0 -0.22683,-0.264641 v -9.527064 q -0.26464,-1.436621 -1.32321,-1.436621 h -2.72202 q -1.02075,0 -1.20978,1.323204 v 9.640481 q 0,0.264641 -0.22684,0.264641 h -4.30986 q -0.26464,0 -0.26464,-0.264641 V 45.058463 q 0.0378,-0.264641 0.26464,-0.264641 z m 46.46334,0 h 14.59305 q 3.10007,0 4.30986,3.402523 V 59.16003 q 0,0.264641 -0.26464,0.264641 h -4.04522 q -0.26465,0 -0.26465,-0.264641 v -9.640481 q -0.26464,-1.323204 -1.28539,-1.323204 h -7.71239 q -0.90734,0.529282 -0.90734,1.550038 v 9.413647 q 0,0.264641 -0.26464,0.264641 h -4.15864 q -0.26464,0 -0.26464,-0.264641 V 45.058463 q 0.0378,-0.264641 0.26464,-0.264641 z m 21.77615,0 h 16.06747 q 0.22683,0.03781 0.22683,0.264641 v 2.873242 q 0,0.26464 -0.22683,0.26464 h -5.36843 q -0.37805,0.07561 -0.37805,1.058563 v 9.905122 q 0,0.264641 -0.26465,0.264641 h -4.04522 q -0.26464,0 -0.26464,-0.264641 V 48.574403 q 0,-0.189029 -0.37806,-0.378058 h -5.36842 q -0.26464,0 -0.26464,-0.26464 v -2.873242 q 0.0378,-0.264641 0.26464,-0.264641 z m -153.07573,5.103785 v 0.642698 q 0,1.587844 1.2854,1.587844 h 5.74648 q 1.43662,0 1.43662,-1.209785 v -1.398815 q -0.15122,-1.323204 -1.17198,-1.323204 h -6.38918 q -0.90734,0.567087 -0.90734,1.701262 z m 38.48632,-0.264641 v 2.495183 h 8.5063 v -1.587844 q 0,-2.34396 -1.3232,-2.34396 h -6.01112 q -1.17198,0 -1.17198,1.436621 z m 21.28467,14.857684 h 15.38696 q 0.26464,0.07561 0.26464,0.26464 v 3.024465 q 0,0.264641 -0.26464,0.264641 h -10.16976 q -1.43662,0 -1.43662,1.17198 v 0.113417 q 0,1.020757 1.3232,1.17198 h 9.64048 q 0.26465,0.03781 0.26465,0.264641 v 2.495184 q 0,0.26464 -0.26465,0.26464 h -10.05634 q -0.60489,0.264641 -0.90734,0.90734 v 0.378058 q 0.26464,1.323203 1.3232,1.323203 h 10.28318 q 0.26464,0.03781 0.26464,0.264641 v 2.608601 q 0,0.26464 -0.26464,0.26464 h -11.7198 q -3.13788,0 -3.9318,-2.873241 V 64.75529 q 0.0378,-0.26464 0.26464,-0.26464 z m -18.52485,0.151223 h 16.02967 q 0.26464,0.03781 0.26464,0.26464 v 2.873242 q 0,0.264641 -0.26464,0.264641 h -4.95257 q -0.79392,0 -0.79392,0.756116 v 10.207569 q 0,0.26464 -0.22683,0.26464 h -4.04522 q -0.26465,0 -0.26465,-0.26464 v -9.942928 q 0,-1.020757 -0.79392,-1.020757 h -4.95256 q -0.26464,0 -0.26464,-0.264641 v -2.873242 q 0.0378,-0.26464 0.26464,-0.26464 z m 37.69239,0 h 19.20536 q 3.47813,0 4.68792,2.608601 0.37806,0.869533 0.37806,1.814679 v 9.942928 q 0,0.26464 -0.26465,0.26464 h -4.04522 q -0.22683,0 -0.22683,-0.26464 v -8.770948 q 0,-2.192737 -1.43662,-2.192737 h -2.6086 q -1.02076,0 -1.20979,1.285397 v 9.678288 q 0,0.26464 -0.22683,0.26464 h -4.30987 q -0.26464,0 -0.26464,-0.26464 v -9.413647 q -0.15122,-1.550038 -1.3232,-1.550038 h -2.6086 q -1.2854,0 -1.2854,2.079319 v 8.884366 q 0,0.26464 -0.26464,0.26464 h -4.19645 q -0.26464,0 -0.26464,-0.26464 V 64.906513 q 0.0756,-0.26464 0.26464,-0.26464 z m -91.22542,0.113417 h 12.55153 q 0.26464,0.03781 0.26464,0.264641 v 2.873242 q 0,0.26464 -0.26464,0.26464 h -12.02224 q -0.90734,0.415864 -0.90734,1.323204 0,0.831727 1.17198,1.020756 h 7.29652 q 3.10007,0 4.72572,3.137883 v 2.608601 q 0,1.17198 -3.02446,3.024464 l -1.2854,0.113418 h -12.66495 q -0.26464,0 -0.26464,-0.264641 v -2.873241 q 0.0378,-0.264641 0.26464,-0.264641 h 11.75761 q 1.43662,-0.264641 1.43662,-1.436621 -0.45367,-1.17198 -1.43662,-1.17198 h -7.8258 q -2.11713,0 -4.04522,-2.873242 -0.15123,-0.189029 -0.15123,-0.642698 v -1.550039 q 0,-1.852484 3.40253,-3.402523 0.49147,-0.151223 1.02075,-0.151223 z m 14.51744,0 h 4.04522 q 0.26464,0.03781 0.26464,0.264641 v 4.839144 q 0.22683,1.43662 1.43662,1.43662 h 5.8599 q 0.71831,0 1.2854,-0.907339 v -5.368425 q 0.0378,-0.264641 0.26464,-0.264641 h 4.19644 q 0.26464,0.03781 0.26464,0.264641 v 5.746483 q 0,2.759824 -3.13788,3.780581 -0.18903,0.151223 -0.90734,0.151223 h -2.49518 v 4.42328 q 0,0.264641 -0.26464,0.264641 h -4.30987 q -0.26464,0 -0.26464,-0.264641 v -4.42328 h -2.34396 q -3.10007,0 -4.15864,-3.289105 v -6.389182 q 0.0378,-0.264641 0.26465,-0.264641 z m 23.59082,0 h 12.92959 q 0.26464,0.03781 0.26464,0.264641 v 2.873242 q 0,0.26464 -0.26464,0.26464 h -11.75761 q -1.2854,0.189029 -1.2854,1.323204 0.34026,1.020756 1.2854,1.020756 h 7.1831 q 3.40253,0 4.83915,3.402523 v 1.814679 q 0,2.117126 -3.51594,3.553746 -0.18903,0.113418 -0.90734,0.113418 h -12.66495 q -0.26464,0 -0.26464,-0.264641 v -2.873241 q 0.0378,-0.264641 0.26464,-0.264641 H 304.733 q 1.43662,-0.189029 1.43662,-1.436621 0,-0.982951 -1.58784,-1.17198 h -7.71239 q -1.77687,0 -3.894,-2.608601 -0.26464,-0.415864 -0.26464,-0.793922 v -1.814679 q 0,-1.512232 3.13788,-3.137882 0.45367,-0.264641 1.02076,-0.264641 z"
         style="fill:#ff0000;stroke-width:1.9356575"
         id="path1084"
         inkscape:connector-curvature="0" /></g></g></svg>