<?xml version="1.0" encoding="utf-8"?>
<!-- Generator: Adobe Illustrator 19.0.0, SVG Export Plug-In . SVG Version: 6.00 Build 0)  -->
<svg version="1.1" baseProfile="tiny" id="Calque_1"
	 xmlns="http://www.w3.org/2000/svg" xmlns:xlink="http://www.w3.org/1999/xlink" x="0px" y="0px" viewBox="0 0 16364.9 10119.9"
	 xml:space="preserve">
<g id="XMLID_4_">
	<path id="XMLID_734_" display="none" fill="#FBFBFB" d="M0,9312.7C0,6282.9,0.6,3253.1-2.5,223.3C-2.6,113.4,9.5,76.3,136.4,76.8
		c1367.2,6.4,2734.5,4,4101.7,4c0.1,21.7,0.3,43.4,0.4,65.1c31.9,165.9-106.3,144.1-195.1,176.7c8.8,123.7-132.1,103.9-172.6,180.2
		c-66.2,229.1-17.3,462.2-24.8,693.4c42.6,109.8,203.7,104.9,226.4,233.9l-0.8-2.5c37.5,86.8,167.9-6.6,176.3,65.9
		c19,165.5,132.7,108.8,216.6,111.4c185.7,5.8,371.6,1.6,557.5,1.9c86.8,0.1,186.8,21.6,165.3-124.8c-8.2-55.8,36.9-61.9,76.2-56.6
		c97.8,13.3,103-43.6,102.3-118c-2.5-273.3-10.4-547.1,2.8-819.7c7-144.8-35-202-177.8-178.9l2.7,0.6
		c31.2-162.5-57-205.4-196.8-196.6c1.1-10.8,0.1-21.4-2.8-31.8c646.1,0,1292.2,0,1938.4,0c-10.4,33.1-20.7,66.2-31.1,99.3
		c-115.1,104.8-230.2,209.7-345.3,314.5c-39.5,9.2-47,37.4-46.9,73.3c0.6,260.7,0.4,521.3,0.1,782c-0.1,40.9,4.8,76.8,56.3,81.4
		c32.5,84.8,170.1-25.6,177,89.4c5.6,92.9,59.9,86.9,121.7,86.3c81.8-0.9,165.3-10.6,245.2,2c171.1,26.9,227.6-44.3,199.2-205.2
		c-23.8-134.9,31.3-184.4,167.9-170c94.8,10,220.3,41.2,202.1-134c-3.3-32.2,27.6-46.8,56.6-44.6c85.4,6.6,135.9-16.9,123.3-116.4
		c-7.7-60.2,36-74,84.6-68.5c95.4,10.9,107.6-43.8,103.9-119.8c-3.7-76.2-10.4-154.2,1.2-228.8c24.2-155.3-29.4-232.4-191.6-220.9
		c69.6-169.6-86.7-166.2-168.4-219.9c635.2,0,1270.3,0,1905.5,0c1.6,14.6,3.2,29.2,4.9,43.8c-5.3,48.7-10.6,97.3-15.9,146
		c-56.2-3.2-115.3-17.3-155.2,41.1c0,0,2.8-1.9,2.8-1.9c-66.9,65.4-133.7,130.8-200.6,196.2c0,0,0.8-1.5,0.8-1.5
		c-24.3,4.5-38,19.9-38,43.7c-0.7,269.7-0.9,539.4-1.1,809.1c0,34.8,13.3,62.6,44.2,80.5c-1.9,11.9,3,18,14.6,18.2
		c61.5,33,185.1-40.8,180.9,105.2c-5.3,23.6,0.3,38.8,28.4,36.5c73.9,0.8,147.7,1.6,221.6,2.4c61.7,80.1-30.5,87-60.7,111
		c-88.9,70.6-196.8,121-250.5,227.4c-43,85.1-104.8,123.7-198.8,144.6c-110.6,24.6-231.3,128.1-192.2,219.1
		c52.2,121.5,32.2,206.2-12.4,306.7l1.1-0.9c-59,7.3-23.2,50.8-29.7,78.1c-96,160.5-158.3,333.9-197.6,516.1
		c-46.3,34.2-62.7,83.2-78.4,136.8c-61,209.3-113,422.8-194.8,624c-75.4,185.5-112.6,399.6-302,521.5c-38.9,22-77.8,44-116.7,66
		c-88.7-11.1-106.5,63.4-129.7,118c-67.7,160-59.2,335.3-48.1,499.6c5,74.8-37.1,91.2-53.2,135.6l1.4-1.5
		c-178.4,43.7-348.2,109.8-509.8,197l1.8-0.1c-384.5,9.9-748,180.2-1142.7,137.7c-133.1-14.3-205.9-29.8-192.5-175.3
		c1.7-37.9,3.3-75.8,5-113.8c82.2-49.2,66.5-131,62-204.3c-10.5-169,19.5-340.7,68.2-491.6c70.7-219.1,283.5-304.7,503.6-333.9
		c215.5-28.6,433-42.5,649.4-65.3c108.5-11.4,211.9-20.8,318.9,28.2c111.1,50.8,209.6-10.6,227.9-116.3
		c24.9-143.2,88.5-298.3-21.6-438.5c5.2-23.5-5.9-38.2-26.2-47.8c0.7-9.2-3.5-14.5-12.6-15.8c-9.2-28.5-29.1-42.4-58.7-42.7
		c0,0-12.6-5.8-12.6-5.8c-18.6-7.2-37.2-14.3-55.7-21.5c-22.4,0.6-44.7,1.2-67.1,1.8c-98,38.6-209.5-63.3-302.3,29.1
		c-34.7,3.2-69.5,6.3-104.2,9.5c-282.5-24.2-532.8,59.6-757.2,227.7c-32.2,24.1-68.9,51.9-101.1,25.5c-32.6-26.7-3.7-65.6,6.5-102.5
		c65.6-236.4,111.4-479.1,189.4-711.1c85.2-253.5,18.1-593.8,446.6-652.8c282-38.8,546.3-117.2,818.2,19.4
		c179.2,90.1,302.4,39.3,348.6-150.4c26.6-109.3,52.2-223.3,15.2-337.5l1.3,3.5c10.8-119.2-53.9-203-150.8-244.8
		c-211.2-91-431.1-84.6-649.8-18.1c-12.8,1.1-25.5,2.2-38.3,3.2c-56.3-32-94.4,42-150.5,24.2c-192.1-60.9-330.6,47-469.6,152.8
		c-104.2,79.3-209.8,156.9-314.6,235.3c-263.8,197.4-455.1,439.7-536,770c-125.9,513.8-203.6,1033.4-265.7,1558.4
		c-56.2,475.2-96.5,950.5-120.9,1427.7c-4.1,80.1,244.5,435.1,316,456.2c31.1,9.2,65.2,7.4,97.2,14.1
		c205.1,42.9,405.5-54.4,613-19.1c53.7,9.1,146.5-0.7,175.2-88.3c54.2,18.1,91.7-24.4,137.3-37.7c180.7-2.4,332.1-111.6,507-139.2
		c74.5-11.8,153.8-39.5,193.9-119l-1.2,1c144.8,5.1,249.9-119.7,409.8-130.2c-26.4,96.1-49.3,178.6-71.8,261.2
		c-32.9,121.4-65.4,243.2-68.8,369.9c-2.6,97.5,11.3,195,121.6,224.8c113,30.6,223.2,9.1,288-99.5c47.1-79,94.4-165.3,110.8-254
		c74.1-401.3,263.2-766,358.6-1159.9c5.1-96.7,89.2-82.7,147.3-105.1c52.4,29.6,97.1-16.8,130.6-32.7
		c147.9-70.3,330.7-59.8,450.8-192.2c52.9,10.8,96.1-14.1,139.5-37.9c119.9,20.7,237.8,17,347.2-41.4
		c88.9-47.4,110.7-8.3,143.1,73.9c37.7,95.5-25.9,168.2-20.7,254.2c23.4,388-28.8,774.6-28.4,1162.4c0.1,93.9-5.5,202.1,106.4,228
		c108.5,25.2,198.7-35.2,259.5-129.6c83.8-130.4,77.8-282.1,99.6-427.2c1.6-104.8,3.3-209.7,4.9-314.5
		c47.3-31.9,68.6-83.7,71.1-133.4c13.8-273.9,96.6-542.6,64.4-819.6c-8.4-71.9,15.3-118,73.8-164.3c80-63.3,120.8-184.2,48.4-244.3
		c-147.7-122.4-82.6-260-77.9-397.5c1.8-53.1,26.9-116.5-50.7-142.1c-1-39.2-2-78.4-3-117.6c-4.7-308.2,34.1-617-21.5-924.7
		c-43.9-242.8-146.9-348.1-404-390.9l1,0.8c-11-31.4-17.1-71.3-65.2-36.9l1.6,1c-20.9-54.5-52.5-107.9-18.8-168.5
		c8-18.2,16-36.4,24-54.6c0,0,7.5-11.5,7.5-11.5c8.7-17.9,17.4-35.8,26.1-53.7c0,0,7.1-11.8,7.1-11.8c7.4-18,14.9-35.9,22.3-53.9
		c7.3-23,14.5-46,21.8-69.1c20.4-32.2,28.6-64.5,0.3-96.9c-19.1-83.1,32.4-86.2,92.9-85.5c135.9,1.7,271.9,1.5,407.9-0.5
		c34.7-0.5,91.5,17.7,95.5-33.2c8.2-102.5,19.8-211.2-6.3-307.6c-18.5-68.4-116.6-15.6-175.4-36.6c0,0,3.2,1.1,3.2,1.1
		c-27-61.6-82.6-42.2-128.6-42.6c-136.5-1.2-273.1,1.2-409.7,2.2c-28.2-93.9-9.1-146.5,104.8-137.5c92.4,7.3,185.8,1.9,278.7,1.3
		c169-1,166.7-5.5,155.6-265.2c-6.5-152.8-97.2-107.9-180.8-92.4l6.6-1.1c-3.5-75-61.7-62.6-107.2-63.6
		c-86.4-1.9-172.9,0.7-259.4,1.4c-29.8-99.5,2.1-138.3,109.9-130.9c125.3,8.7,251.6,2,377.4,2c240.6,0,235.9,0,238.2-245.8
		c0.9-95.6-17.5-146.8-124-131.8c-26.6,3.7-55.2-5.4-48.2-45c591.4,0,1182.7,0,1774.1,0c-89.2,62.2-40.2,255.5-219.9,231.7
		c-61.3,59.3-87.6,153.8-195,167.9c-41.1,5.4-46.1,64.8-45.8,110.9c1.5,249.6,0.5,499.2,1,748.8c0.1,43.5-3,90.8,61.2,92.8
		c0,0-3.9,0.4-3.8,0.3c1.8,25.3,16.3,31.7,38.8,26c95.6-5.4,155.9,27.6,147.4,135.5c-133.3,85.3-282.8,56.2-427,57.1
		c-81,0.5-158.4-2.6-213.7,69.9l2.8-1.1c-102.4-13-209.9-17.5-307.9-10.1c-257.1,19.4-485.9,88.7-509.2,439.5
		c-5.1,77-15.4,151.4-46.5,223c-28.9,66.7-49.3,138.1,1.3,202.2c56.7,71.8,128.5,34.7,196.3,16.4c235.5-63.3,472-122.9,706.2-190.8
		c97.6-28.3,143.2-15.9,139.9,98c-4.4,153.8-20.5,305.1-60.1,453.7c-38.1,143.4-34,288.8-23.9,434.7c0.2,65.9,0.3,131.9,0.5,197.8
		c-53.2,17.1-51.9,63.9-57.5,106.4c-43.6,333-68.7,667.5-79.9,1003.1c-43.1,191.1-31.4,384.5-23.7,577.7
		c-5.7,155.1-28.9,312.5,61.3,454.7c-21.3,156.7,45.7,306.9,30,465.2c-11,111.8,89.9,132,154,88.8c69.9-47.1,163.3-59.7,213.2-136.4
		c65.5-33.9,33-107.3,62.8-155.6c-7.3-25-14.6-50-21.9-75c-0.1-65.6-0.2-131.2-0.3-196.8c7.7-93.8,15.3-187.6,23-281.4
		c16.1-133.8,34.8-267.4,47.7-401.6c60.7-630.8,203.3-1247.6,322-1868.2c56.3-294.5,115.5-578-103.2-826.8
		c128.9-91.2,247.3,14.8,361.1-24.8c33.3,0.9,66.7,1.9,99.6,2.8c143.3,81.7,295.6,42.7,301.2-80.9c5.4-119.1,2.9-238.9-4.1-358
		c-5.4-92.5-42.2-180.9-146.4-187.9c-212-14.2-421.9-35.5-627.9-89.1c125.7,1.9,251.5,0.9,377,6.6c77.1,3.5,107.4-23,104.9-102.9
		c-4.2-131.1,1-262.5,2.2-393.8c100.5-25.8,127.2,16.1,129.3,114.7c1.5,67.9-56.6,163.8,56,204.9c0,0-0.1-2.1-0.1-2.1
		c46.3,70.9,180,4,202.2,153.4c8.8,58.7,200,30.4,305.1,16.4c73-9.7,40.2-90.8,40.6-139.6c2.7-377.3-7.6-754.9,5.9-1131.8
		c5.5-153.6-35.2-221.9-189.3-211.5c-0.2-11.7-0.3-23.3-0.5-35c1045.8,0,2091.7,1.7,3137.5-2.8c98-0.4,117.8,19.8,117.7,117.8
		c-3.2,3263.5-3.2,6526.9,0,9790.4c0.1,98-19.7,117.7-117.7,117.7c-5409.9-3-10819.8-3-16229.7,0C17,10103.9-9.2,10085-2.8,9986
		C7.6,9827.9,0,9668.6,0,9509.8c111,83.6,210.5,188.1,361.2,199.9l-2.7-1.9c8.5,22.8,18.4,12.3,28.4,1.3c15.6-0.1,31.2-0.2,46.7-0.3
		c10.1,11.4,20.1,20.4,29.4-0.8l-3.8,1.5c16,1.1,34,7.6,47.8,2.6c126.4-46,207.2-38.4,258.2,119.5c48.4,149.8,195.7,195,353.4,157.5
		c127.2-30.3,215.2-103.3,256.7-227.8c43.4-130.1,101.2-241.8,264-240.3c25.1,0.2,37.5-18.5,44.2-40.9
		c415.6-89.8,827.6-193.2,1229.8-332.8c160.1,29.1,291.2-63.4,431-110.4c244.8-82.3,483.3-183.7,724.4-277.1
		c1.5,107.3-14.9,215.2,10.3,321.8c29.3,62.9,86.3,33.6,129.5,33.6c2933.8,1.6,5867.6,0.3,8801.4,4.5
		c145.8,0.2,171.6-53.8,170.5-182c-5.1-585.6-2.2-1171.3-2.1-1757c0-224.2,0-224.4-223.1-224.4c-2753.2,0-5506.4,0-8259.5-0.2
		c-76.5,0-153-3.2-229.5-4.9c-138-100.4-274.3-204.9-457.6-203.7l1.7,1c-7.7-70-73.2-76.6-117.9-98.8
		c-258.7-128.6-528.6-231-800-328.8c-33.1-11.9-74.7-0.2-112.4,0.5c-55.6-41.8-116.7-67.8-187.6-66.1c-21.9-79.3-98-77.4-155.2-98.1
		c-217.3-78.4-445.3-135.2-600.5-327.1c0.3-16.7,0.6-33.4,0.9-50.1c284.9-210.6,593.8-382.5,899.8-559.1
		c50.1-28.9,114.6-44.6,131.5-113.3c74-42.3,148-84.5,222-126.8c52.4-35.8,137.8-19.7,160.7-101.9l-1,0.8
		c75.8,21,126.8-31.1,174.8-70.1c382.3-310.5,804-567.8,1187.2-876c334.8-269.3,524.5-626.1,529.3-1061.1
		c1.9-169.8,1.5-352.9-149.6-481.6c8.8-57.6-25-99.4-53.2-143.3c-76.8-193.1-250.3-313.2-446.2-299.8
		c-69.2,4.7-125.8-1.2-170.3-60.3c-30.2-40.2-72-63-125-57.5c-10.7-2.7-21.5-5.4-32.2-8.1c-79.6-111.1-196.6-89.4-307.8-85.2
		c-81.1,3-166.8,29.2-242.3,11.2c-188.2-45-375.7-94.3-569.7-80.1c-270.3,19.8-543.9-32.5-810.1,24.1
		c-119.8,25.5-263.7-20.2-359.3,97.4c-133.9-20.6-249.8,57.8-377.9,69c-16.1-2.9-33.8-11.8-47.9-7.9
		c-350.6,98.7-701.5,196.4-1050.6,300.1c-91.8,27.3-161.8,85.3-184,190.7c-8.3,39.4-37.1,83.7-69.8,107.1
		c-137.7,98-154.1,236.4-155.5,389.3c-1.2,130,58.9,176.8,178.7,176.3c205.7-0.9,397.6-65.9,591.5-122.8
		c177.1-52.1,350-126.3,540.5-112.8c34.4,2.4,79.8-21.4,101,23.6c19.8,42.1-14.3,74-38.3,100.6
		c-109.9,121.7-233.4,232.5-332.6,362.1c-205.3,268.1-301.8,568.1-214.5,908.4l-1-2.4c-4.4,74.3-14.1,149.1-19.7,221.9
		c-11.8,153.9-72.4,304.4-39.4,461.6c0,17.9,0,35.8,0,53.7c-53.6,78-70.4,165.1-73.9,258.6c-7.4,201.3-48.3,380.8-275.7,456.3
		c-74.7,24.8-139.5,84.4-204.1,134.1c-220.8,170-199.4,432.2,46.6,566.8c89.1,48.7,182.6,89.2,274.2,133.4
		c4.3,9.8,8.6,19.7,12.9,29.5c-0.8,245.8,60.6,486.2,21,737.7c-80.7,511.7-46.6,1029.6-39.3,1545.4l1.6-2.9
		c-36.2,0.1-46.7,17.7-34.5,50.8l1.6-2.2c-32.9-10-44.3,1.5-34.3,34.3l1.5-1.5c-31.8-9.5-47-1.9-34.9,33.9l1.7-2.1
		c-152.3,47.8-265.4,149.5-366.9,267.2c-30.3,26.9-60.6,53.9-91,80.8C89.7,9219.5,62.9,9301.1,0,9312.7z M14616.7,8059.4
		c-33.9-10.9-45.4,0.6-34.5,34.5c0,0,1.9-1.7,1.9-1.7c-86.6-15-98.2,36.7-97.8,105.1c0.3,41.9,29.3,107.6-59.7,96.9
		c-0.9-8-3.7-15.4-8.2-22.1c-34.9-164-145.8-154.3-259.1-102.4c-278.1,127.3-552.9,261.9-828.4,394.8c-31.4,15.1-79.1,24.4-56,80
		c-0.8,152.4-5.9,305-0.7,457.2c3.1,91.7-27.9,125.3-121.2,122.7c-195.8-5.4-391.9-2.1-587.9-1.5c-179.2,0.5-231.9,92.2-151.6,258.5
		c34.3,71.1,94,115.3,155.1,159.3c166.1,178.1,372.2,263.5,610.5,214.5c282.7-58.2,548.6-171.6,802.3-310
		c43.8-23.9,109.9-29.1,115.3-100l-1.5,1.5c68.8,19.1,112.8-30.5,162-61.2c335.2-209.2,639.9-457.6,923.1-732.1
		c67.5-65.4,137.7-89.1,231.1-96.4c260.3-20.2,520.5-49.1,771.8-127.6c104.1-32.5,140.6-87.6,83.6-195.2
		c-61.2-115.5-112-236.8-162.6-357.5c-29.5-70.4-71.9-109.3-147.4-76.3c-115.5,50.4-115.6-23.8-117.6-101.5
		c-2.8-109.3,9.6-222.2-14.1-326.9c-39-172.3-10.9-367.4-154.2-508.4l1.1,2.9c6.4-27.9,4.8-51-31.8-53.2l1.3,1.6
		c0.8-125.5-80.4-211.6-153.1-296.6c-272.8-318.7-550.2-633.4-827.3-948.5c-56.5-64.2-113.1-130-194.3-165.9
		c-49.2-70.2-71.7-162.6-163.5-197.6c-0.5-63.1-30.3-112-68.9-160.2c-54.5-68-107.4-138.1-152.4-212.5
		c-211.5-349-377-704.1-119.4-1104.9c10.5-16.4,5.7-42.6,8-64.3l-7.6,0.5c22.7,2.4,36.2-5,32.6-30.7c21.3-27.5,42.6-54.9,63.9-82.4
		c55.8-20.7,91.5-58.9,103.2-118.1l-0.7,0.7c67.9,11.4,85.7-54.3,127.1-83.4c27.9-19.6,58-34.8,86.3-12.7
		c27.5,21.5-2.7,45.8-6.8,69.6c-19.7,114.5,26.8,190.4,142.7,218.8c63.1,16.1,126.2,12.6,189.2-0.7c131-2.5,244.5-39.5,316.2-159.6
		l-1.4,1c69.7,23.7,112.8-28.3,159-61.1c217-153.8,434.8-306.8,645.7-468.6c131.6-100.9,282.2-182.9,370.8-332.6l1.9-1.7
		c51.7-25,84.5-61.2,72.7-123.6l-0.9,1.4c120.6-188.4,114-396.2,76.6-601.8c-43.5-239.5-192.3-357.9-429.8-325.2
		c-362.9,50-671.4,248.6-996.4,400.3c0,0,1.6-2.8,1.6-2.8c-10.7,11.4-21.3,22.8-32,34.1c-45.3-13.6-75.4,20.7-111.7,35.5
		c-55.4-27.2-96.5,10-134,37.2c-171.7,124.2-357.8,227.3-530.2,348.5c-514.6,361.7-991.3,751.4-1266.5,1353.9
		c-187.4,410.4-236.2,808.7-143.3,1237.5c34,156.7,94.2,302.1,214.7,411.6c127.3,115.6,221.8,251.2,304.3,401.6
		c64.8,118.1,132.8,245.8,281.9,286.8l-1.5-2c-12.3,36.4,3.5,43.2,35.1,33.6l-1.5-1.5c-9.7,33.7,7,39.6,35.2,33.4l-1.3-1.3
		c-4.5,30.4,8.6,40,37.1,31.5l-3-0.8c33,24.3,66,48.7,98.9,73l-6.2-4.5c140.3,200.3,329.3,354.1,501.2,524.3l-2.8-1.6
		c197.1,274.5,414.2,534.7,589.3,824.9c0,0-1.1-1.2-1-1.2c-28,22.8-6.3,42.6,3.8,63.2c35.9,112-60.9,192.1-70.4,293.2l2.1-2.1
		c-35.3-11.7-44.6,1.9-33.9,34.9l1.7-1.7c-33.8-10.8-45.4,0.6-34.5,34.5l1.6-1.6c-33.8-10.8-45.4,0.6-34.5,34.5L14616.7,8059.4z"/>
	<path id="XMLID_733_" fill="#0462A9" d="M12100.2,312.5c179.8,23.8,130.7-169.6,219.9-231.7c21.9,0,43.8,0,65.7,0
		c38.1,4.9,90.2-19.5,98.6,47.3c-2.7,65.2,0.9,131.4-9.3,195.4c-22.8,143.8,34.7,202.9,177.2,183.4c0,0-1.9-4.6-1.9-4.6
		c15.7,66.9-46.8,174.5,93,176.6c139.4,2.1,87.7-101,95.6-171.4c26.8-358.9,26.8-358.9,375-363.7c-2.1,299.3-5.3,598.6-6.2,897.9
		c-1.1,373.3-0.3,373.3-364.8,387.2c0,0,0.1,2.1,0.1,2.1c1.2-65.1-4.7-131.2,4.9-195c23.1-152.4-31.2-225.5-190.4-205
		c-20.6-62.2,31.3-171.9-100.6-161.9c-128.6,9.7-71.2,112.2-78.7,176.9c-8.7,75.4-7.4,152.9-0.8,228.7
		c9.7,111.3-28.5,158.7-146.4,151.8c-124.7-7.3-250.4,2.8-375.7,5.3c-12.6,0.5-25.2,0.9-37.8,1.4c0,0,3.9-0.4,3.9-0.4
		c1.6-264.7,2.2-529.5,5.7-794.2c0.6-44.5-20.4-120.4,44.3-120.9C12135.7,516.8,12085.2,397.5,12100.2,312.5z"/>
	<path id="XMLID_732_" fill="#0A0C0E" d="M10546,80.8c-7,39.7,21.6,48.8,48.2,45c106.6-15,124.9,36.2,124,131.8
		c-2.3,245.7,2.4,245.8-238.2,245.8c-125.9,0-252.2,6.6-377.4-2c-107.8-7.5-139.7,31.4-109.9,130.9c-1,15.3-2.1,30.6-3.1,46
		c-16.4,0.3-33.1-1.4-49.1,1.4c-173.9,30.2-143.2-91.9-149-193.7c-6.4-112.3,4.5-189.3,152.8-175.5c146.2,13.6,294.7,4,442.2,2.5
		c62.3-0.6,137.9,19.2,136.3-88.4c-1.6-107-77.8-84.1-139.1-86c-261.7-8.3-524,15.3-785.4-13.8c-1.6-14.6-3.2-29.2-4.9-43.8
		C9910.9,80.8,10228.5,80.8,10546,80.8z"/>
	<path id="XMLID_731_" display="none" fill="#FBFBFB" d="M12484.4,128.1c-8.4-66.8-60.5-42.4-98.6-47.3c153.3,0,306.6,0,460,0
		c-122.5,122.1-27.9,283.1-74.9,418.7c-40.1,0.9-80.3,1.9-120.4,2.8c0,0,1.9,4.6,1.9,4.6c0.7-70.9-6.4-142.9,3.6-212.4
		C12676.1,154.3,12617.5,105.3,12484.4,128.1z"/>
	<path id="XMLID_730_" fill="#451C1C" d="M361.2,9709.7C210.5,9698,111,9593.4,0,9509.8c0-65.7,0-131.4,0-197.1
		c62.9-11.6,89.7-93.2,163.2-84.4c-129.2,244.8-129.6,245.5,132,398.8C329.9,9647.4,358,9667,361.2,9709.7z"/>
	<path id="XMLID_729_" fill="#2E4250" d="M12770.9,499.5c47-135.6-47.6-296.6,74.9-418.7c120.5,0,240.9,0,361.4,0
		c0.2,11.7,0.3,23.3,0.4,35c10.3,7.4,12.4,16.7,6.4,27.9c-348.2,4.8-348.2,4.8-375,363.8C12816.4,504.9,12793.6,502.2,12770.9,499.5
		z"/>
	<path id="XMLID_728_" fill="#0A0C0E" d="M4993.8,80.8c2.9,10.4,3.8,21.1,2.8,31.8c-22.9,7.3-45.8,14.5-68.7,21.8
		c-207.2-0.4-414.4-0.8-621.6-1.1c-11.8-17.5-23.5-35-35.3-52.5C4511.9,80.8,4752.8,80.8,4993.8,80.8z"/>
	<path id="XMLID_727_" fill="#0A0C0E" d="M6965,80.8c230,0,460,0,689.9,0c-11.5,17.5-23.1,35-34.6,52.6
		c-206.7,0.3-413.4,0.6-620.1,0.8C6988.5,116.4,6976.7,98.6,6965,80.8z"/>
	<path id="XMLID_726_" fill="#2E4250" d="M7620.3,133.4c11.5-17.5,23.1-35,34.6-52.5c11,0,21.9,0,32.9,0
		c81.7,53.7,238,50.3,168.4,219.9c0,0-2.4,12.2-2.4,12.2C7688.6,366.6,7657,246.7,7620.3,133.4z"/>
	<path id="XMLID_725_" fill="#2E4250" d="M6965,80.8c11.7,17.8,23.5,35.6,35.3,53.5c-33,15.5-66.1,30.9-99.1,46.3
		c0,0-0.1-0.4-0.1-0.4c10.4-33.1,20.7-66.2,31.1-99.3C6943.1,80.8,6954,80.8,6965,80.8z"/>
	<path id="XMLID_724_" fill="#2E4250" d="M4271,80.8c11.8,17.5,23.5,35,35.3,52.6c-22.5,4.2-45.1,8.4-67.7,12.6
		c-0.1-21.7-0.3-43.4-0.4-65.1C4249.1,80.8,4260,80.8,4271,80.8z"/>
	<path id="XMLID_720_" fill="#FA0000" d="M361.2,9709.7c-3.2-42.7-31.3-62.3-66-82.6c-261.6-153.3-261.2-154-132-398.8
		c30.3-26.9,60.6-53.9,91-80.8c165.2-30.1,277.6-132.9,366.9-267.2c0,0-1.7,2.1-1.7,2.1c25.3,2.7,38.1-7.3,34.9-33.9
		c0,0-1.5,1.5-1.5,1.5c26,3.1,37.5-8.3,34.3-34.3c0,0-1.6,2.2-1.6,2.2c33.8-1.8,38.4-23.4,34.5-50.8c0,0-1.6,2.9-1.6,2.9
		c93.2-35.6,63.3-117.3,63.7-182.9c3.1-506.3-18.3-1012.1,77.2-1516c31-163.5-24-343.5-41.5-515.8c-4.6-45.9-42.8-58.9-81.1-68.4
		c-4.3-9.8-8.6-19.7-12.9-29.6c29.4-34.1,13.3-64.2-16.6-80.9c-61.2-34.3-124.5-65.9-189.6-92c-206.8-82.7-298.8-352.7-55-492.7
		c98.9-56.8,193.9-120.3,290-181.8c49.9-31.9,132.6-58.9,141.5-100.6c42-197.1,102.3-394.9,62.5-601.2c0-17.9,0-35.8,0-53.7
		c99.7-203.5,103.2-423.3,106-642.6c0.2-13.4-30.6-27.3-47-40.9c0,0,1,2.4,1,2.4c59.8-114.6-16.7-249.2,20-345.3
		c72.2-189.4,117.4-398.5,271-552.2c115.9-115.9,224.8-239.2,333-362.4c35.4-40.3,68.3-88.9,39.6-149.1
		c-28.8-60.4-85-61.7-140.6-62.1c-194.9-1.3-376.7,59.1-558.8,118.5c-186.6,60.8-372.8,123.4-572.1,126.2
		c-166.7,2.4-191.3-46.4-163.1-210c26-151.1,176.9-212.2,215.3-338.3c42.9-141.2,141.9-183,260.6-216.5
		c279-78.8,558.7-155.4,836.3-239c50.1-15.1,129.6,2.3,140.5-84.3c128.1-11.2,244-89.7,377.9-69c86.9-40.1,179.5-9,269.4-21.1
		c377.1-51,761.6-69.1,1134.9-26.6c294.8,33.5,589.4,58.4,884.9,80.4c10.7,2.7,21.5,5.4,32.2,8.1c45.8,108.3,121.2,159.8,245,165
		c159.5,6.8,305.1,63,405.2,199.9c23.2,31.7,46.3,60.4,91.3,52.7c28.2,43.9,62,85.7,53.2,143.2c25,179.1,106.9,349.6,88.7,534.9
		c-41.4,419.5-232.7,756-573.1,1005c-282.2,206.4-571.4,403.5-848.9,616c-139.1,106.5-295.3,194.1-408.5,333c0,0,1-0.8,1-0.8
		c-80.7-8.7-139.5,16.9-160.7,101.9c-74,42.3-148,84.5-222,126.8c-21.5,0.9-47.3-5.8-63.8,3.7c-296.7,169.8-604.1,321.9-877.6,530
		c-46.3,35.2-82.1,78-89.9,138.6c-0.3,16.7-0.6,33.4-0.9,50.1c-36.5,104.5,49.7,150.2,109.8,186.9
		c198.4,121.1,413.4,205.5,645.9,238.3c70.9-1.7,132,24.3,187.6,66.1c231.4,146.8,500.3,207.2,746.7,320.2
		c90.3,41.4,169.6,124.7,283.6,106.9c0,0-1.7-1-1.7-1c63,108.9,213.9,86.1,288.6,186.5c-57.1,37.7-125.7,0.8-174,44
		c0,0-2.4,0-2.6-0.1c-87.7,25.4-50.9,98.8-51.2,150.2c-3.2,457-1.2,914.1-2.6,1371.2c-0.2,63.7,17.3,131.6-28.9,188.9
		c-343.6,150-690.9,290.6-1048.7,403.9c-31.7,10.1-62.4,20.4-75.8,55.1c-402.2,139.6-814.2,242.9-1229.8,332.8
		c-173.4-29.8-298.9,17.4-345.2,205.2c-11.5,46.7-35.3,92.9-63,132.5c-65.7,93.8-164,123.7-273.1,115.8
		c-103.8-7.6-171.1-75.7-203.9-165.3c-69-188.6-188.2-212.2-339.1-58.8c0,0,3.8-1.5,3.8-1.5c-9.8-1-19.6-0.7-29.4,0.8
		c-15.6,0.1-31.2,0.2-46.7,0.3c-9.4-1.5-18.9-2-28.4-1.3L361.2,9709.7z M1703.4,6889l-2.3,8.1c-27.6,25.2-32,57-25.9,91.8l-1.2,10.9
		c-32.3,34.8-36.9,76.2-29.1,120.6c-1.2,14.8-2.3,29.6-3.5,44.4c-38.1,54.8-38,115.3-26.5,177.5c-9.5,75.1-19.1,150.2-28.6,225.3
		c-2.8,111.1-5.5,222.2-8.3,333.3c-48.6,234.7-40.5,476.8-96.1,711.1c-20,84.2,22.3,121.3,113.6,94.4
		c134.7-39.7,269.9-80.6,407.6-106.9c94.9-18.1,198,2,277.7-73c261.5-114.9,523.1-229.8,784.5-345c30.2-13.3,58.4-29.7,57.2-69.6
		c144-71,288-141.9,431.9-212.9c138.4-27.5,242.7-109.7,270.4-242.9c28.6-137.5-100.5-193.1-193.8-253.2
		c-280.6-180.7-584.8-312.7-897.8-427c-250.4-91.3-516.6-138.6-753.6-265.7c-127.1-68.2-206.2-40-248,96.9
		C1707.5,6829.4,1699.6,6857.2,1703.4,6889z M2789.6,4580.5c12-10.1,24-20.2,35.9-30.3c43.9-28.2,87.9-56.5,131.8-84.7
		c31.2-7.6,67.2-7.7,92.7-24.1c234.1-149.8,468.9-298.7,697.4-456.7c63.3-43.7,128-103.1,125.6-196.7l-1.1,2.4
		c32.1,0.5,36.6-21.7,38-46.4c22.9-36.2,45.7-72.4,68.6-108.7c228.9-87.3,316.1-407.4,144.1-590.7
		c-215.7-229.8-502.6-299.4-809.5-299.4c-67.1-36.5-152.5-13.6-214.8-65.9c-213.2-119.9-425.6-55.1-635.7,7.7
		c-58.8,17.6-94.2,74.2-117.6,130.5c-35.6,85.3-74.7,170.6-97.4,259.6c-95.6,374.8-82.9,766.6-178.6,1142.4
		c-47.8,187.5-78.2,379.8-107.9,571.2c-13.2,85.3-39.7,209,96.7,205.8c87.2-2,195.9-23.8,254.2-119.1c16.7-17.5,28.4-43.8,60.4-34.8
		c163.8-49.6,312-123.8,418.5-264.2L2789.6,4580.5z"/>
	<path id="XMLID_719_" fill="#FA0000" d="M15671.8,6866.5c0,0-1.1-2.9-1.1-2.9c64.4,298.2,112.8,597.5,105.7,905
		c-2.1,89.6,52.5,161.3,162.6,117c70.1-28.2,99.7,3.4,124.7,61c37,85.2,73.2,171.1,117.1,252.7c62.3,115.8,18.4,167.6-97.6,194.3
		c-224.2,51.6-451.2,83.8-680.2,96.1c-104.7,5.6-183.7,37-260,111.3c-290.6,282.7-607.3,533.5-951.6,748.8
		c-38.3,24-98.9,30.7-96.5,97c0,0,1.5-1.5,1.5-1.5c-212.6,36.3-385.2,168.6-581.8,244.9c-293.3,113.7-573.6,169.2-852.6-28.8
		c-24-17-62.1-14.2-93.7-20.5c-61-44-120.7-88.2-155.1-159.3c-80.3-166.3-27.6-257.9,151.6-258.5c196-0.6,392.1-4,587.9,1.5
		c93.3,2.6,124.3-31,121.2-122.7c-5.2-152.2-0.1-304.8,0.7-457.1c275.1-88.7,525.1-233.7,783.7-358.1c126.8-61,236.3-91,359.9-14.4
		c4.5,6.7,7.3,14.1,8.2,22.1c-2.8,13.2-5.7,26.3-8.5,39.5c-64.1,149-192.5,222.9-329.6,290.8c-40.7,20.2-125.2,42.5-78.6,111.8
		c39.1,58,101.3,12.2,143.1-19.1c138.3-103.6,286.9-197.6,372.3-356.8c90.3-73.9-14.3-190.4,58.7-268.1c0,0-1.9,1.7-1.9,1.7
		c24,1,35.6-10.4,34.5-34.5c0,0-1.7,1.6-1.6,1.6c24.1,1.1,35.6-10.4,34.5-34.5c0,0-1.6,1.6-1.6,1.6c24.1,1.1,35.6-10.4,34.5-34.5
		c0,0-1.7,1.7-1.7,1.7c24.3,0.9,35.6-10.6,33.9-34.9c0,0-2.1,2.1-2,2.1c126.9-62.8,152.7-161.4,102-287.2
		c5.7-32,20.1-68.5-35.4-69.2c0,0,1.1,1.2,1.1,1.2c-5-200.2-401.5-755.3-589.3-824.9c0,0,2.8,1.6,2.8,1.6
		c-93.8-244.7-283.9-397.5-501.2-524.3c0,0,6.2,4.5,6.1,4.5c-9.3-56.5-30.7-96.4-98.9-73c0,0,3,0.8,3,0.8
		c-0.3-24.7-12.8-35.1-37.1-31.5c0,0,1.3,1.3,1.3,1.3c2.5-26.2-10-36.5-35.2-33.4c0,0,1.5,1.5,1.5,1.5c2.7-26.3-9.5-37-35.1-33.5
		c0,0,1.5,2,1.5,2c7.4-30.2-6.2-52.5-26.5-72.7c-225.5-223.8-340.4-531.5-578.2-749.5c-98.7-90.4-120.4-239.5-151.4-374.6
		c-129.8-565.3,80.1-1049.6,378.2-1498.2c320.5-482.3,790.6-805.4,1279.4-1102c131.7-79.9,273.5-152.8,371.6-280.1
		c36.3-14.8,66.4-49.1,111.7-35.5c10.7-11.4,21.3-22.8,32-34.1c0,0-1.6,2.8-1.6,2.8c134.6,4,254.4-46.2,371.2-104.4
		c166.1-82.6,332-167.4,511.7-214.8c309.2-81.7,482.8,57.8,499,376.5c8,159.1-46.9,311.4-32.2,469.4c0,0,0.9-1.4,0.9-1.4
		c-72.6,12.8-24,96.8-72.7,123.6c0,0-1.9,1.7-1.9,1.7c-49.1,9.7-90.8,31.8-130.7,63.3c-325.5,256.9-652.7,511.6-1001.4,737
		c-21.9,14.2-47.9,28-43.4,61.9c0,0,1.4-1,1.4-1c-123,18.3-232.6,63.2-316.2,159.6c-63,13.4-126.1,16.8-189.1,0.7
		c-101.1-217.9-87.6-280.4,101.6-447.1c69.2-61,142.3-117.5,212.6-177.3c32.5-27.6,39.8-64,23.8-103.1
		c-9.9-24.2-32.7-29.2-53.8-19.2c-262.9,125.5-483.3,300-633.7,554.4c0,0,0.7-0.7,0.7-0.7c-76.2,2.9-102.1,49.7-103.2,118.1
		c-21.3,27.5-42.6,54.9-63.9,82.4c-10.9,10.2-21.7,20.4-32.6,30.7c0,0,7.6-0.5,7.6-0.5c-96,40.3-117.9,134.9-150.7,216.9
		c-142.1,355.7,124.5,1080.8,483.4,1325c91.8,35,114.3,127.3,163.4,197.5c95.6,200.6,269,339.2,407,505.8
		c252.4,304.7,511.5,603.8,767.8,905.3c0,0-1.3-1.6-1.3-1.6C15633.1,6841.5,15642.2,6860.1,15671.8,6866.5z"/>
	<path id="XMLID_716_" fill="#FA0000" d="M7149,3632.7c34.7-3.2,69.5-6.3,104.2-9.5c94.7,58.9,198.3,38.9,300.2,33.4
		c42.3,4.4,84.5,8.8,126.8,13.1c21.3,22.2,42.6,44.5,63.9,66.7c33.3,81.6,53.9,164,44.6,254.6c-22,214.4-77.4,254.2-278.9,194.9
		c-35.4-10.4-74.9-15.2-111.5-11.9c-255.6,23.5-512.4,39.9-765.9,78c-240.8,36.2-492.7,100-571,366.4
		c-68.6,233.4-120.7,478.9-81.4,729.2c-1.7,37.9-3.3,75.8-5,113.8c-74.2,57.4-65.5,140.3-38.3,207.2
		c28.4,69.7,106.5,28.6,162.4,30.4c81.5,2.6,165.3-16.3,244.6-3.8c313.9,49.7,593.6-120.6,897.3-133.6c23.9-1,46.1-40.9,69.2-62.7
		c0,0-1.8,0.1-1.8,0.1c117.4,71.1,203.8-29.6,296.2-64.4c74.9-28.2,193.8-8.8,213.6-132.6c0,0-1.4,1.5-1.4,1.5
		c107.1-22,157.9,55.5,230.2,167.3c-10.9-135.8,187.8-272.3-77.8-299.7c-41.3-4.3-44.1-54.5-39.3-94.9
		c21.4-179.4,4-367.3,117.9-525.9c38.9-22,77.8-44,116.7-66c122.2,13.4,194.9-36,220.3-160.5c10.6-51.7,41.8-99.3,63.4-148.8
		c136.6-312.5,246.7-633,291.4-973c39.3-182.2,101.6-355.6,197.6-516.1c33.6-17,38.5-44.9,29.7-78c0,0-1.1,0.9-1.1,0.9
		c111.8-22.8,152.5-102.8,128.5-200.7c-47.5-193.8-41.7-212.8,153.1-275.2c35.3-11.3,85.8-23.1,98.5-49.5
		c89.2-185.9,272.7-273.2,411.7-406.5c104-57.9,208.9-133.5,301.3,16.7c-0.8,30.3-1.5,60.6-2.3,90.9c-4.5,20.3-9.1,40.7-13.6,61
		c-10.9,22.1-21.9,44.3-32.8,66.4c-11,21.9-22,43.7-33.1,65.6c-83.2,192.3-82.8,194.5,47.3,234.4c0,0-1.6-1-1.6-1
		c0.3,50.3,27.6,52.7,65.2,36.9l-1-0.8c10.5,90.7,100.3,85.1,153,123.6c51.7,37.8,128.8,49.4,144.7,123.1
		c50.5,233.1,119.3,463.8,75,708.5c-22.2,123.1-43.9,252,52.8,360.4c1,39.2,2,78.4,3,117.2c-10.1,63.4-32,128-27.6,190.9
		c7.7,110-78.1,239.3,46.1,327.3c109.4,77.5,90.7,162,7.3,225.3c-84.6,64.2-105.9,125.9-71.3,221.4c20.6,57.1,3.8,117.6-3,177.3
		c-28.9,253-54,506.4-80.5,759.6c-1.6,104.8-3.3,209.7-4.9,314.5c-77.4,23.7-58.7,96.6-74.6,150.3c-27.7,94-39.2,194.5-105.9,272.1
		c-40.6,47.3-94.5,82.9-158.6,60.2c-64-22.7-59-86.2-56.4-140.3c3.2-65,15.8-129.7,18.4-194.7c15.1-373.8-13.8-748.9,40.2-1121.9
		c13.9-95.9,7.4-210.1-54-281.2c-50.8-58.8-124,36.7-192.6,44.3c-75.7,8.4-150.9,21.9-226.5,31.2c-42.3,5.2-92.1-5.2-96.7,59.7
		c-43.5,23.7-86.7,48.7-139.4,37.8c-211.6,28.9-411,89.7-581.6,225c-58.1,22.5-142.2,8.5-147.3,105.1c-43.1,9.8-56.6,42.7-71.2,80.4
		c-125.3,324.8-259.1,646.5-325.4,991c-20.7,107.8-69.4,206.6-124.1,301.3c-49.7,86.2-133.5,91.8-215.6,71.2
		c-81.3-20.4-84.2-96.3-75.8-161.2c14-107.8,37.6-214.5,59.6-321.2c28-136.3,90.4-265.4,99.4-437.4
		c-176.2,104.1-369.8,114-495.2,263.6c0,0,1.2-1,1.2-1c-160.2,45.2-322.7,83.6-479.4,138.6c-77.6,27.2-175.7,28.7-221.4,119.5
		c-45.6,13.3-83.1,55.8-137.2,37.7c-257.2,12.7-514.5,24.8-771.7,38.5c-116.3,6.2-192.7-34.9-192.6-162c0-36.3,4.4-68.6-41.2-69.4
		c-140.9-2.4-132.5-101.4-130.2-196.8c10.6-441.4,39-882.7,112-1317.2c56.5-336.5,14.8-683.7,129.1-1013
		c44.5-128.2,65.1-265.1,91-399.1c46.5-241.3,122.2-462.3,274.7-667.1c138.9-186.7,327.5-302,498.3-442.2
		c177.1-145.4,366.8-282.8,620.4-251.8c33.2,4.1,67-4.7,66.2-51.3c12.8-1.1,25.5-2.2,38.3-3.2c37.2,51.1,85.7,22.7,132.3,21.7
		c241.9-5.1,501.6-55.7,638.3,231.6c3.1,6.5,19.7,6.6,30,9.6c0,0-1.3-3.5-1.4-3.5c-30,119.7-53,241.8-92.1,358.5
		c-33.4,99.9-115,140.7-208.3,81.1c-260.5-166.6-534.2-112.4-811.2-68.3c-247.8,39.5-447.6,132.3-509,402.7
		c-18.1,79.5-26.4,161.4-46.9,240.2c-74.3,285.6-152.8,570.1-227.8,855.6c-16.4,62.3-39.8,132.2,19,183.4
		c49.8,43.3,94.6,2.6,127.9-32.3c186-195,431.3-244.4,681.3-284.5C7087.3,3681.1,7142.2,3700.1,7149,3632.7z M8937,4223.3l2.3-1.9
		c-42.5,6.5-47.4,32.1-34,67c0,0,0.8-1.4,0.8-1.4c-58.6,9.1-65.3,51.9-55.3,96.7c8.9,39.6,47.3,41.3,79.8,38.6
		c306.2-25.6,612.3-52,911.3-128.2l5.2-1.5c75.1,1.1,139-2.5,148.7-105.5c26.7-283.3,7.5-565.3-15.4-847.2
		c-10.7-131.4-159.2-333-257.4-365l-1.3-1.4c21.1-17.9,17.7-37.3-0.1-53.7c-102.2-93.7-221.5-74.7-285.4,77.2
		c-130,308.8-302.9,600.7-386.4,927.6c-20.3,79.4-43,154.7-78.3,227.5c2.9,10.9,1.7,21.5-3.4,31.5
		C8957.8,4196.8,8947.4,4210.1,8937,4223.3z"/>
	<path id="XMLID_715_" fill="#FA0000" d="M11860.2,6144.7c-49.9,76.7-143.3,89.3-213.2,136.4c-64.1,43.2-165.1,23-154-88.8
		c15.6-158.4-51.3-308.5-30-464.7c-28.2-105.3-1.6-211.4,0.9-317c7.3-314.3-7.4-628.8,36.4-942.6c40.8-292.3,62-587.2,62.4-882.9
		c-0.2-65.9-0.3-131.9-0.4-197.2c101.5-148.5,74.6-326,105-490.3c27-145.7,41.4-294.8,47.8-442.9c4.7-109.4-62.5-161.7-171.2-134.6
		c-158.9,39.5-323.7,69.2-471.5,135.4c-107.2,48-219.3,45.2-325.5,81.7c-96.8,33.3-116.1-28.7-93.8-108.4
		c22-78.5,54.6-152.7,60.4-237c18.3-265.9,87.1-331.9,342.1-407.4c136-40.3,281.4,4.3,410.4-63.9c0,0-2.8,1.1-2.8,1.1
		c347.9-41.2,695.8-56.4,1042.9,6.1c116.5,21,272.4-5.4,339.5,78.9c92.3,115.9,43.6,288,27,430.1c-12.3,105.4-148.8,43.2-221.3,80.5
		c-33.3-0.9-66.7-1.9-100-2.8c-125-144.9-279.7-81.3-423.1-51.2c-80,16.8-36.7,83.1-5.5,113.2c179.6,173.2,183.8,381.2,140.5,606.8
		c-98.6,512.7-193.4,1026.1-284.9,1540.1c-43.8,245.9-87.4,492.6-111.7,740.9C11838,5556.6,11824.5,5851,11860.2,6144.7z"/>
	<path id="XMLID_714_" fill="#2E4250" d="M4120.8,6978c0,0,2.4,0,2.5,0c114.9-2,233.2,39.9,343-26.8c76.5,1.7,153,4.9,229.5,4.9
		c2753.2,0.3,5506.4,0.2,8259.5,0.2c223,0,223.1,0.2,223.1,224.4c0,585.7-3,1171.4,2.1,1757c1.1,128.2-24.7,182.2-170.5,182
		c-2933.8-4.2-5867.6-3-8801.4-4.5c-43.2,0-100.2,29.3-129.5-33.6c10.6-10.3,21.3-20.6,31.9-30.8c2951.1,0.6,5902.1,0.7,8853.1,4
		c114.4,0.1,150.6-33.9,149.6-148.9c-4.9-574.8-7-1149.8,1.1-1724.6c2-143.1-48.3-169.3-178.7-169.2
		c-2940.1,4-5880.2,3.9-8820.3,4.5C4117.4,7003.8,4119.1,6990.9,4120.8,6978z"/>
	<path id="XMLID_711_" fill="#0462A9" d="M4238.6,145.9c22.6-4.2,45.2-8.3,67.7-12.6c207.2,0.3,414.3,0.7,621.5,1.1
		c17.3,11.6,49.8,23.1,49.8,34.6c-0.1,160.4,100.4,160.8,215.8,140.2c0,0-2.7-0.6-2.7-0.6c-2,245.5-3.9,491-6,736.4
		c-0.8,94.4,28.8,207-134.3,193.2c-49.6-4.2-56.3,45.5-52.9,84.5c8.4,96.8-50.4,102.4-123.8,102.2c-267.4-0.9-534.7,1.5-802.1,2.6
		c0,0,0.8,2.5,0.8,2.5c-0.7-89.9,51.8-206.9-115.9-207c-50.5,0-49.6-49.6-49.7-87.6c-0.5-179.6-0.4-359.2,0.1-538.8
		c0.1-39.4,3.8-82.6,55-84.2c166.8-5.2,111.5-102.3,81.5-190C4132.3,290,4270.4,311.9,4238.6,145.9z M4742.6,1194.6
		c58.3,23.1,88.8,14,86.3-59.5c-7-210.2-9.2-420.6-13.2-630.9c32.2-147.2-18.2-193.4-175.5-197.6c-174.2-4.6-215.3,53.8-202.6,213.5
		c13.3,167.9,2.9,337.7,3,506.7c0.2,215.7,0.2,215.7,214.6,199.4C4684.3,1215.6,4713.5,1205.1,4742.6,1194.6z"/>
	<path id="XMLID_710_" fill="#0462A9" d="M9598.1,124.6c261.4,29.2,523.7,5.6,785.4,13.8c61.3,1.9,137.5-21,139.1,86
		c1.6,107.6-74,87.8-136.3,88.4c-147.5,1.5-295.9,11.1-442.2-2.5c-148.2-13.8-159.2,63.2-152.8,175.5c5.8,101.7-25,223.9,149,193.7
		c16-2.8,32.7-1,49.1-1.4c121.4,47.6,246.1,19.5,369.7,16.3c0,0-6.6,1.1-6.6,1.2c17.5,145.5-50.4,191-188.7,173.6
		c-85.4-10.7-173.4-2.5-260.2-1.5c-37,0.4-93.8-7.9-98.8,33.9c-11.6,96-26.7,200.2-0.6,289.5c24.5,84.2,120.5,34.4,186.5,35.1
		c180.6,1.1,361.1,2.2,541.7,3.4c0,0-3.2-1.1-3.2-1.1c33.3,145.9-11.4,206.2-173.4,199.3c-289.2-12.4-579.3-5.9-868.9-1.9
		c-79.1,1.1-164.4-27.6-237.3,30c-11.6-0.2-16.5-6.2-14.6-18.3c-1.7-311.1-3.4-622.2-5.1-933.2c0,0-0.8,1.5-0.8,1.5
		c162.9,32.8,232.3-30,200.6-196.2c0,0-2.8,1.9-2.8,1.9c45.8-36.3,100.7-37.9,155.2-41C9587.6,222,9592.9,173.3,9598.1,124.6z"/>
	<path id="XMLID_709_" fill="#0A0C0E" d="M7856.2,300.7c162.2-11.5,215.7,65.6,191.6,220.9c-11.6,74.6-4.9,152.6-1.2,228.8
		c3.7,76-8.4,130.7-103.9,119.8c-48.6-5.5-92.3,8.3-84.6,68.5c12.7,99.5-37.8,123-123.3,116.4c-29-2.2-59.9,12.4-56.6,44.6
		c18.1,175.2-107.4,144-202.1,134c-136.5-14.4-191.7,35.1-167.9,170c28.4,160.9-28.1,232.1-199.2,205.2
		c-79.9-12.5-163.4-2.9-245.2-2c-61.8,0.7-116.2,6.6-121.7-86.3c-6.9-115.1-144.5-4.7-177-89.4c0,0,8-2.3,8-2.3
		c114.6-1.6,230.8-16,343.4-1.8c178.1,22.5,235.7-50.5,207.8-216.2c-23.6-139.8,39.8-187.9,173.2-167.7
		c98.3,14.9,206.8,43.3,195.9-123.2c-2.5-37.9,35.2-53.8,70.5-51.6c80.8,5,104.3-37.7,102.5-110.1c-1.3-53.9,33.2-81.6,83.7-78.1
		c109.5,7.6,106.7-63.4,104.8-138.4c-2-76.4-1-152.8-1.3-229.2L7856.2,300.7z"/>
	<path id="XMLID_708_" fill="#451C1C" d="M7277.7,1694.8c0.9,46.6-33,55.3-66.2,51.3c-253.7-31-443.3,106.4-620.4,251.8
		c-170.8,140.2-359.4,255.5-498.3,442.2c-152.4,204.8-228.2,425.8-274.7,667.1c-25.8,134-46.5,271-91,399.1
		c-114.3,329.3-72.7,676.5-129.1,1013c-72.9,434.5-101.3,875.8-112,1317.2c-2.3,95.3-10.8,194.3,130.2,196.8
		c45.6,0.8,41.2,33.1,41.2,69.4c-0.1,127.1,76.3,168.2,192.6,162c257.2-13.7,514.6-25.8,771.7-38.5
		c-28.8,87.6-121.6,97.5-175.3,88.3c-207.5-35.3-407.8,62-613,19.1c-32-6.7-66.1-4.9-97.2-14.1c-71.4-21.1-320-376.1-316-456.2
		c24.4-477.2,64.6-952.5,120.9-1427.7c62.1-525.1,139.8-1044.6,265.7-1558.4c80.9-330.3,272.2-572.7,536-770
		c104.9-78.5,210.4-156,314.6-235.3c139-105.8,277.5-213.6,469.6-152.8C7183.3,1736.8,7221.4,1662.8,7277.7,1694.8z"/>
	<path id="XMLID_707_" fill="#451C1C" d="M14772.6,2021.4c-98.1,127.2-239.8,200.1-371.6,280.1c-488.8,296.5-959,619.7-1279.4,1102
		c-298.1,448.6-508,932.9-378.2,1498.2c31,135.1,52.7,284.2,151.4,374.6c237.9,217.9,352.7,525.7,578.2,749.5
		c20.3,20.2,33.9,42.5,26.5,72.7c-149.1-40.9-217.1-168.7-281.9-286.8c-82.5-150.4-177-286-304.3-401.6
		c-120.5-109.5-180.8-254.9-214.7-411.6c-92.9-428.8-44.1-827.1,143.3-1237.5c275.2-602.5,751.9-992.2,1266.5-1353.9
		c172.4-121.2,358.5-224.2,530.2-348.5C14676.2,2031.4,14717.2,1994.2,14772.6,2021.4z"/>
	<path id="XMLID_706_" fill="#0A0C0E" d="M4071.5,1427.7c267.4-1.1,534.7-3.5,802.1-2.6c73.4,0.2,132.2-5.4,123.8-102.2
		c-3.4-38.9,3.3-88.7,52.9-84.5c163.1,13.8,133.5-98.9,134.3-193.2c2.1-245.5,4-491,6-736.4c142.9-23.1,184.8,34.1,177.8,178.9
		c-13.2,272.7-5.3,546.5-2.8,819.7c0.7,74.4-4.5,131.3-102.3,118c-39.3-5.3-84.4,0.8-76.2,56.6c21.5,146.4-78.6,124.9-165.3,124.8
		c-185.9-0.3-371.8,3.9-557.5-1.9c-83.9-2.6-197.5,54.1-216.6-111.4C4239.4,1421.1,4109,1514.4,4071.5,1427.7z"/>
	<path id="XMLID_705_" fill="#0A0C0E" d="M13214.1,143.7c6-11.2,3.8-20.5-6.4-27.9c154.1-10.4,194.8,57.9,189.3,211.5
		c-13.6,376.8-3.2,754.5-5.9,1131.8c-0.4,48.8,32.5,129.9-40.6,139.6c-105.1,14-296.4,42.3-305.1-16.4
		c-22.3-149.4-156-82.5-202.2-153.4c364.6-13.9,363.8-13.9,364.8-387.2C13208.8,742.3,13211.9,443,13214.1,143.7z"/>
	<path id="XMLID_704_" fill="#451C1C" d="M1698.5,1858.5c-10.9,86.6-90.4,69.2-140.5,84.3c-277.6,83.6-557.3,160.2-836.3,239
		c-118.7,33.5-217.7,75.3-260.6,216.5c-38.3,126-189.2,187.2-215.3,338.3c-28.2,163.6-3.6,212.4,163.1,210
		c199.4-2.8,385.5-65.4,572.1-126.2c182-59.4,363.9-119.8,558.8-118.5c55.6,0.4,111.8,1.7,140.6,62.1
		c28.7,60.2-4.2,108.8-39.6,149.1c-108.3,123.2-217.1,246.5-333,362.4c-153.7,153.7-198.8,362.9-271,552.2
		c-36.7,96.2,39.8,230.7-20,345.3c-87.3-340.2,9.3-640.3,214.5-908.4c99.2-129.6,222.7-240.4,332.6-362.1
		c24-26.6,58.1-58.5,38.3-100.6c-21.2-45-66.5-21.1-101-23.6c-190.5-13.5-363.4,60.7-540.5,112.8c-193.9,57-385.8,121.9-591.5,122.8
		c-119.8,0.5-179.9-46.3-178.7-176.3c1.4-152.9,17.9-291.3,155.5-389.3c32.8-23.3,61.6-67.7,69.8-107.1
		c22.2-105.4,92.3-163.4,184-190.7c349.1-103.7,700-201.4,1050.6-300.1C1664.7,1846.6,1682.5,1855.6,1698.5,1858.5z"/>
	<path id="XMLID_703_" fill="#451C1C" d="M7149,3632.7c-6.8,67.4-61.7,48.3-100.8,54.6c-250,40.1-495.4,89.5-681.3,284.5
		c-33.3,34.9-78.1,75.6-127.9,32.3c-58.8-51.2-35.4-121-19-183.4c75-285.4,153.4-570,227.8-855.6c20.5-78.8,28.8-160.7,46.9-240.2
		c61.4-270.4,261.2-363.2,509-402.7c276.9-44.1,550.7-98.3,811.2,68.3c93.3,59.6,174.9,18.8,208.3-81.1
		c39.1-116.7,62.1-238.8,92.1-358.5c37,114.3,11.4,228.2-15.2,337.5c-46.1,189.7-169.3,240.5-348.6,150.4
		c-271.9-136.6-536.2-58.2-818.2-19.4c-428.5,59-361.3,399.3-446.6,652.8c-78,232-123.8,474.7-189.4,711.1
		c-10.2,36.9-39.1,75.7-6.5,102.5c32.2,26.4,68.8-1.3,101.1-25.5C6616.2,3692.4,6866.6,3608.5,7149,3632.7z"/>
	<path id="XMLID_702_" fill="#451C1C" d="M14095.1,9446.7c-2.4-66.3,58.2-73.1,96.5-97c344.4-215.3,661-466.1,951.6-748.8
		c76.3-74.2,155.2-105.7,260-111.3c229-12.2,456-44.5,680.2-96.1c116-26.7,159.9-78.5,97.6-194.3c-43.9-81.6-80.1-167.6-117.1-252.7
		c-25-57.6-54.6-89.2-124.7-61c-110.1,44.3-164.7-27.4-162.6-117c7.1-307.5-41.3-606.8-105.7-905c143.3,141,115.2,336.1,154.2,508.4
		c23.7,104.7,11.3,217.6,14.1,326.9c2,77.7,2.1,151.9,117.6,101.5c75.5-33,117.9,5.9,147.4,76.3c50.5,120.8,101.4,242,162.6,357.5
		c57,107.6,20.4,162.7-83.6,195.2c-251.3,78.5-511.5,107.4-771.8,127.6c-93.3,7.2-163.6,30.9-231.1,96.4
		c-283.1,274.5-587.9,522.9-923.1,732.1C14207.9,9416.2,14163.9,9465.7,14095.1,9446.7z"/>
	<path id="XMLID_701_" fill="#451C1C" d="M11860.2,6144.7c-35.7-293.7-22.3-588.2,6.3-880.5c24.3-248.3,67.9-495,111.7-740.9
		c91.5-514,186.3-1027.4,284.9-1540.1c43.4-225.6,39.2-433.6-140.5-606.8c-31.2-30.1-74.5-96.5,5.5-113.2
		c143.5-30.1,298.2-93.7,423.1,51.2c-113.8,39.6-232.1-66.3-361.1,24.8c218.6,248.8,159.5,532.3,103.2,826.8
		c-118.7,620.6-261.3,1237.5-322,1868.2c-12.9,134.1-31.7,267.7-47.7,401.6c-58.4,89.7-25.9,186.8-23,281.4
		c0.1,65.6,0.2,131.2,0.3,196.8c-7.2,29.2-7.8,56.6,22,75C11893.2,6037.4,11925.8,6110.9,11860.2,6144.7z"/>
	<path id="XMLID_700_" fill="#0A0C0E" d="M9249.7,1455.9c72.8-57.6,158.2-28.9,237.3-30c289.6-4.1,579.7-10.5,868.9,1.9
		c162,6.9,206.8-53.4,173.4-199.3c58.8,20.9,156.8-31.9,175.3,36.5c26.1,96.4,14.5,205.1,6.3,307.6c-4.1,50.9-60.8,32.7-95.5,33.2
		c-135.9,2-271.9,2.2-407.9,0.5c-60.6-0.7-112,2.3-92.9,85.4c-18.6,0.6-37.1,1.2-55.7,1.8c-92.4-150.2-197.4-74.6-301.3-16.7
		c-0.1-51.3-7.2-95.6-77.1-76.9c-73.9-0.8-147.7-1.6-221.6-2.4c-9.4-12.2-18.9-24.3-28.4-36.5
		C9434.9,1415.2,9311.3,1488.9,9249.7,1455.9z"/>
	<path id="XMLID_699_" fill="#451C1C" d="M11466,1720.6c-128.9,68.2-274.3,23.6-410.4,63.9c-255,75.5-323.8,141.5-342.1,407.4
		c-5.8,84.3-38.4,158.4-60.4,237c-22.3,79.7-3.1,141.7,93.8,108.4c106.2-36.5,218.2-33.7,325.5-81.7
		c147.8-66.2,312.5-95.9,471.5-135.4c108.7-27,175.9,25.2,171.2,134.6c-6.4,148.2-20.8,297.2-47.8,442.9
		c-30.4,164.3-3.5,341.8-105,490.3c-10.2-146.5-14.3-292,23.9-435.4c39.5-148.6,55.7-299.9,60.1-453.7
		c3.3-113.9-42.3-126.3-139.9-98c-234.2,67.9-470.7,127.4-706.2,190.8c-67.8,18.2-139.6,55.4-196.3-16.4
		c-50.6-64.1-30.2-135.6-1.3-202.2c31-71.6,41.3-146,46.5-223c23.4-350.8,252.1-420.1,509.2-439.5
		C11256.1,1703.1,11363.6,1707.6,11466,1720.6z"/>
	<path id="XMLID_698_" fill="#451C1C" d="M3450.7,4879.9c113.2-138.9,269.4-226.5,408.5-333c277.5-212.5,566.7-409.6,848.9-616
		c340.4-249,531.7-585.5,573.1-1005c18.3-185.2-63.7-355.8-88.7-534.9c151,128.8,151.5,311.9,149.6,481.7
		c-4.9,434.9-194.5,791.7-529.3,1061.1c-383.2,308.2-804.9,565.5-1187.2,876C3577.5,4848.8,3526.5,4900.9,3450.7,4879.9z"/>
	<path id="XMLID_697_" fill="#451C1C" d="M7458.6,5931.2c125.3-149.6,318.9-159.5,495.2-263.6c-9,172-71.3,301.1-99.4,437.4
		c-21.9,106.7-45.6,213.4-59.6,321.2c-8.4,64.9-5.5,140.8,75.8,161.2c82.1,20.6,165.9,15,215.6-71.2
		c54.7-94.7,103.3-193.6,124.1-301.3c66.3-344.5,200.1-666.2,325.4-991c14.5-37.7,28.1-70.6,71.2-80.4
		c-95.4,394-284.5,758.7-358.6,1160c-16.4,88.7-63.6,175-110.8,254c-64.8,108.6-175,130.1-288,99.5
		c-110.3-29.9-124.2-127.3-121.6-224.8c3.4-126.7,35.8-248.5,68.8-369.9c22.4-82.7,45.4-165.2,71.8-261.2
		C7708.5,5811.5,7603.4,5936.3,7458.6,5931.2z"/>
	<path id="XMLID_696_" fill="#451C1C" d="M5980.1,5347.7c-39.3-250.3,12.8-495.8,81.4-729.2c78.3-266.4,330.1-330.2,571-366.4
		c253.5-38.1,510.3-54.5,765.9-78c36.6-3.4,76.1,1.5,111.5,11.9c201.4,59.3,256.9,19.5,278.9-194.9c9.3-90.6-11.3-173-44.6-254.6
		c6.1-5.7,12.2-11.4,18.4-17c8.1,4.4,16.7,6.6,25.9,6.5c110.1,140.2,46.5,295.3,21.6,438.5c-18.4,105.7-116.9,167.1-227.9,116.3
		c-107-49-210.4-39.6-318.9-28.2c-216.4,22.8-433.8,36.7-649.4,65.3c-220.1,29.2-432.9,114.8-503.6,333.9
		c-48.7,150.9-78.6,322.6-68.2,491.6C6046.6,5216.7,6062.3,5298.5,5980.1,5347.7z"/>
	<path id="XMLID_695_" fill="#0A0C0E" d="M9990.8,1226.3c-66-0.7-162,49-186.5-35.1c-26-89.3-11-193.5,0.6-289.5
		c5-41.8,61.8-33.5,98.8-33.9c86.8-1,174.7-9.2,260.2,1.5c138.4,17.4,206.2-28,188.7-173.6c83.6-15.6,174.3-60.6,180.8,92.3
		c11.1,259.7,13.3,264.2-155.6,265.2c-92.9,0.5-186.3,5.9-278.7-1.3c-114-9-133,43.6-104.8,137.5
		C9993,1201.6,9991.9,1213.9,9990.8,1226.3z"/>
	<path id="XMLID_694_" fill="#451C1C" d="M9475.1,4775.6c4.6-64.9,54.4-54.5,96.7-59.7c75.7-9.3,150.8-22.8,226.5-31.2
		c68.6-7.6,141.8-103.1,192.6-44.3c61.4,71.1,67.8,185.3,54,281.2c-54,373-25.1,748.1-40.2,1121.9c-2.6,65-15.2,129.6-18.4,194.7
		c-2.7,54.2-7.6,117.7,56.4,140.3c64.1,22.7,118-13,158.6-60.2c66.7-77.6,78.2-178.1,105.9-272.1c15.8-53.6-2.8-126.6,74.6-150.3
		c-21.7,145.1-15.7,296.8-99.6,427.2c-60.7,94.5-151,154.8-259.5,129.6c-111.8-26-106.3-134.2-106.4-228
		c-0.3-387.8,51.9-774.4,28.4-1162.4c-5.2-86,58.4-158.7,20.7-254.2c-32.5-82.3-54.3-121.4-143.1-73.9
		C9712.8,4792.6,9594.9,4796.3,9475.1,4775.6z"/>
	<path id="XMLID_693_" fill="#0A0C0E" d="M11955.5,1431.8c125.3-2.5,251-12.6,375.7-5.3c117.9,6.9,156.1-40.6,146.4-151.8
		c-6.6-75.8-7.9-153.4,0.8-228.7c7.4-64.6-49.9-167.1,78.7-176.9c131.9-10,80,99.6,100.6,161.9c0,26.8,0.1,53.6,0.2,80.3
		c-1.2,131.3-6.4,262.7-2.2,393.8c2.6,79.9-27.8,106.4-104.9,102.9c-125.5-5.7-251.3-4.8-377-6.6c-23.3-2.2-46.6-4.4-69.9-6.6
		c8.5-107.9-51.8-140.8-147.4-135.5C11957.3,1450.1,11956.9,1440.9,11955.5,1431.8z"/>
	<path id="XMLID_692_" fill="#451C1C" d="M736.8,6486.8c38.3,9.5,76.4,22.5,81.1,68.4c17.4,172.3,72.5,352.3,41.5,515.8
		c-95.5,503.9-74.1,1009.7-77.2,1516c-0.4,65.7,29.5,147.3-63.7,182.9c-7.2-515.8-41.4-1033.7,39.3-1545.4
		C797.4,6973,736,6732.6,736.8,6486.8z"/>
	<path id="XMLID_691_" fill="#451C1C" d="M12103.9,1594.7c23.3,2.2,46.6,4.4,69.9,6.6c205.9,53.6,415.9,74.9,627.8,89.1
		c104.2,7,140.9,95.4,146.4,187.9c7,119.1,9.5,238.9,4.1,358c-5.6,123.7-157.9,162.7-301.2,80.9c72.9-37.3,209.4,25,221.7-80.5
		c16.6-142.1,65.3-314.2-27-430.1c-67.1-84.3-222.9-57.9-339.5-78.9c-347.1-62.5-695-47.3-1042.9-6.1
		c55.3-72.5,132.7-69.4,213.7-69.9C11821.1,1651,11970.6,1680.1,12103.9,1594.7z"/>
	<path id="XMLID_690_" fill="#451C1C" d="M956.8,4908c39.7,206.3-20.5,404.1-62.5,601.2c-8.9,41.8-91.6,68.7-141.5,100.6
		c-96.1,61.5-191.1,125.1-290,181.8c-243.9,140-151.8,410,55,492.7c65.1,26,128.4,57.7,189.6,92c29.9,16.7,46,46.8,16.6,80.9
		c-91.5-44.2-185.1-84.6-274.2-133.4c-246-134.6-267.4-396.7-46.6-566.8c64.6-49.8,129.3-109.3,204.1-134.1
		c227.4-75.5,268.3-255,275.7-456.3C886.3,5073,903.2,4985.9,956.8,4908z"/>
	<path id="XMLID_689_" fill="#451C1C" d="M4365.7,1822.1c-295.4-21.9-590.1-46.8-884.9-80.4c-373.4-42.5-757.8-24.4-1134.9,26.6
		c-90,12.2-182.5-18.9-269.4,21.1c95.6-117.6,239.5-71.9,359.3-97.4c266.1-56.6,539.7-4.2,810.1-24.1c194-14.2,381.5,35,569.7,80.1
		c75.5,18.1,161.1-8.1,242.3-11.2C4169.1,1732.7,4286,1710.9,4365.7,1822.1z"/>
	<path id="XMLID_688_" fill="#451C1C" d="M16264.3,2481.3c-14.7-158,40.3-310.3,32.2-469.4c-16.1-318.7-189.7-458.2-499-376.5
		c-179.6,47.4-345.6,132.2-511.7,214.8c-116.8,58.1-236.6,108.3-371.2,104.4c325-151.7,633.6-350.2,996.4-400.3
		c237.5-32.7,386.3,85.7,429.8,325.2C16378.3,2085.1,16384.9,2292.9,16264.3,2481.3z"/>
	<path id="XMLID_687_" fill="#451C1C" d="M10386.6,5581.4c26.5-253.2,51.6-506.6,80.5-759.6c6.8-59.6,23.7-120.2,3-177.3
		c-34.5-95.5-13.3-157.2,71.3-221.4c83.4-63.3,102-147.8-7.3-225.3c-124.2-88-38.4-217.3-46.1-327.3
		c-4.4-62.8,17.5-127.5,27.6-190.9c77.6,26,52.5,89.4,50.7,142.5c-4.7,137.5-69.7,275.1,77.9,397.5c72.4,60,31.6,180.9-48.4,244.3
		c-58.5,46.3-82.2,92.4-73.8,164.3c32.2,277.1-50.6,545.7-64.4,819.6C10455.2,5497.7,10433.9,5549.6,10386.6,5581.4z"/>
	<path id="XMLID_686_" fill="#451C1C" d="M14161.8,3434.5c150.3-254.4,370.7-428.9,633.7-554.4c21.1-10.1,43.9-5.1,53.8,19.2
		c16,39.1,8.7,75.5-23.8,103.1c-70.3,59.7-143.4,116.3-212.6,177.3c-189.3,166.7-202.7,229.2-101.6,447.1
		c-116-28.4-162.5-104.3-142.8-218.8c4.1-23.8,34.4-48,6.8-69.6c-28.3-22.1-58.5-7-86.3,12.7
		C14247.5,3380.2,14229.7,3445.9,14161.8,3434.5z"/>
	<path id="XMLID_685_" fill="#451C1C" d="M15641.3,6814.8c-256.3-301.4-515.4-600.6-767.8-905.3c-138-166.6-311.4-305.2-407-505.8
		c81.3,36,137.9,101.8,194.4,166c277,315,554.4,629.8,827.3,948.5C15561,6603.2,15642.1,6689.4,15641.3,6814.8z"/>
	<path id="XMLID_684_" fill="#451C1C" d="M11562.7,3585.1c-0.4,295.8-21.6,590.7-62.4,882.9c-43.8,313.7-29.1,628.3-36.4,942.6
		c-2.5,105.6-29.1,211.7-0.9,317c-90.2-142.6-67-300.1-61.3-455.2c56.4-190.6,23.1-384.8,23.7-577.7
		c11.1-335.6,36.2-670.1,79.9-1003.1C11510.8,3649.1,11509.5,3602.2,11562.7,3585.1z"/>
	<path id="XMLID_683_" fill="#451C1C" d="M12568.5,9640.6c31.6,6.4,69.7,3.5,93.7,20.5c279,198,559.3,142.5,852.6,28.8
		c196.7-76.2,369.2-208.5,581.8-244.9c-5.4,70.9-71.5,76.2-115.3,100c-253.7,138.3-519.6,251.8-802.3,310
		C12940.8,9904.2,12734.6,9818.8,12568.5,9640.6z"/>
	<path id="XMLID_682_" fill="#451C1C" d="M14303.1,5206.2c-358.9-244.2-625.6-969.3-483.4-1325c32.8-82,54.7-176.6,150.7-216.9
		c-2.3,21.6,2.5,47.9-8,64.3c-257.6,400.8-92.1,755.9,119.4,1104.9c45.1,74.4,98,144.5,152.4,212.5
		C14272.8,5094.2,14302.6,5143.1,14303.1,5206.2z"/>
	<path id="XMLID_681_" fill="#451C1C" d="M459.2,9709.5c150.9-153.3,270.1-129.8,339.1,58.8c32.8,89.5,100.2,157.7,203.9,165.3
		c109.1,7.9,207.4-22,273.1-115.8c27.8-39.6,51.5-85.8,63-132.5c46.2-187.8,171.8-235,345.2-205.2c-6.7,22.4-19.1,41.1-44.2,40.9
		c-162.8-1.5-220.7,110.2-264,240.3c-41.5,124.5-129.6,197.5-256.7,227.8c-157.7,37.5-304.9-7.7-353.4-157.5
		c-51-157.9-131.8-165.5-258.2-119.5C493.2,9717.1,475.3,9710.6,459.2,9709.5z"/>
	<path id="XMLID_680_" fill="#451C1C" d="M9680.5,1600c69.9-18.8,77,25.5,77.1,76.9c-139,133.3-322.5,220.6-411.7,406.5
		c-12.7,26.4-63.2,38.1-98.5,49.5c-194.8,62.4-200.6,81.5-153.1,275.2c24,97.9-16.7,177.9-128.5,200.7
		c44.6-100.4,64.6-185.2,12.4-306.7c-39.1-91,81.6-194.6,192.2-219.1c94-20.9,155.8-59.5,198.8-144.6
		c53.7-106.4,161.6-156.9,250.5-227.4C9650,1687.1,9742.2,1680.1,9680.5,1600z"/>
	<path id="XMLID_679_" fill="#451C1C" d="M15015.1,3467.4c-4.5-33.9,21.5-47.7,43.4-61.9c348.7-225.4,675.9-480.1,1001.4-737
		c39.8-31.5,81.6-53.5,130.7-63.3c-88.6,149.7-239.3,231.7-370.8,332.5c-211,161.8-428.7,314.8-645.7,468.6
		C15127.9,3439.1,15084.8,3491.2,15015.1,3467.4z"/>
	<path id="XMLID_678_" fill="#451C1C" d="M10512.6,3562.6c-96.6-108.4-75-237.2-52.8-360.4c44.2-244.7-24.5-475.4-75-708.5
		c-16-73.7-93.1-85.3-144.7-123.1c-52.7-38.6-142.6-32.9-153-123.6c257.2,42.9,360.1,148.2,404,390.9
		C10546.7,2945.6,10507.9,3254.4,10512.6,3562.6z"/>
	<path id="XMLID_677_" fill="#451C1C" d="M8739.7,3202.1c-44.7,340-154.7,660.5-291.4,973c-21.6,49.5-52.8,97-63.4,148.8
		c-25.4,124.5-98.1,173.9-220.3,160.5c189.3-121.8,226.5-336,301.9-521.5c81.8-201.2,133.8-414.7,194.8-624
		C8676.9,3285.3,8693.4,3236.3,8739.7,3202.1z"/>
	<path id="XMLID_676_" fill="#451C1C" d="M7310.2,5499c-23,21.8-45.3,61.7-69.2,62.7c-303.7,13-583.4,183.3-897.3,133.6
		c-79.3-12.5-163.1,6.4-244.6,3.8c-55.9-1.8-134,39.3-162.4-30.4c-27.2-66.9-35.9-149.8,38.3-207.2
		c-13.5,145.4,59.3,160.9,192.5,175.2C6562.2,5679.3,6925.7,5508.9,7310.2,5499z"/>
	<path id="XMLID_675_" fill="#451C1C" d="M2037.7,5780.1c7.8-60.6,43.6-103.4,89.9-138.6c273.5-208.1,580.9-360.3,877.6-530
		c16.6-9.5,42.3-2.8,63.8-3.7c-16.9,68.7-81.4,84.4-131.5,113.3C2631.5,5397.7,2322.6,5569.5,2037.7,5780.1z"/>
	<path id="XMLID_674_" fill="#451C1C" d="M14418.4,8272c-123.6-76.5-233.1-46.6-359.9,14.4c-258.6,124.4-508.6,269.4-783.7,358.1
		c-23.1-55.7,24.6-64.9,56-80.1c275.5-132.9,550.3-267.5,828.4-394.8C14272.7,8117.7,14383.5,8108,14418.4,8272z"/>
	<path id="XMLID_673_" fill="#451C1C" d="M8047.9,4550.4C7934,4709,7951.4,4897,7930,5076.3c-4.8,40.4-2,90.7,39.3,94.9
		c265.6,27.4,66.9,163.9,77.8,299.7c-72.3-111.9-123.1-189.3-230.2-167.3c16.1-44.4,58.2-60.8,53.2-135.6
		c-11.1-164.3-19.6-339.6,48.1-499.6C7941.4,4613.8,7959.2,4539.3,8047.9,4550.4z"/>
	<path id="XMLID_672_" fill="#451C1C" d="M2913.4,9147.3c13.4-34.7,44.1-45,75.8-55.1c357.8-113.3,705-253.9,1048.7-403.9
		c10.3,23.8,20.6,47.7,30.8,71.5c-241.1,93.4-479.6,194.7-724.4,277.1C3204.6,9083.9,3073.5,9176.5,2913.4,9147.3z"/>
	<path id="XMLID_671_" fill="#451C1C" d="M4010.3,6748.6c-114,17.8-193.3-65.5-283.6-106.9c-246.4-113.1-515.2-173.4-746.7-320.2
		c37.6-0.7,79.2-12.4,112.3-0.5c271.4,97.8,541.4,200.2,800,328.8C3937.1,6672,4002.6,6678.6,4010.3,6748.6z"/>
	<path id="XMLID_670_" fill="#2E4250" d="M12100.2,312.5c-15,85,35.5,204.2-128.7,205.3c-64.7,0.4-43.7,76.3-44.3,120.9
		c-3.4,264.7-4.1,529.5-5.7,794.2c-64.2-2-61.1-49.3-61.2-92.8c-0.4-249.6,0.5-499.2-1-748.8c-0.3-46.1,4.7-105.5,45.8-110.9
		C12012.6,466.3,12038.9,371.9,12100.2,312.5z"/>
	<path id="XMLID_669_" fill="#451C1C" d="M14190.9,6782.5c187.8,69.6,584.3,624.7,589.3,824.9
		C14605.1,7317.2,14388,7057,14190.9,6782.5z"/>
	<path id="XMLID_668_" fill="#0A0C0E" d="M4068.7,8759.9c-10.3-23.9-20.5-47.7-30.8-71.5c46.2-57.2,28.7-125.2,28.9-188.9
		c1.3-457.1-0.6-914.1,2.6-1371.2c0.4-51.4-36.5-124.8,51.2-150.2c-1.5,12.9-3.2,25.8-4.9,38.7c-1.6,678-3.2,1356.1-4.8,2034.1
		c-10.6,10.3-21.3,20.6-31.9,30.8C4053.8,8975.1,4070.3,8867.2,4068.7,8759.9z"/>
	<path id="XMLID_667_" fill="#2E4250" d="M4043.4,322.6c30,87.7,85.3,184.8-81.5,190c-51.2,1.6-54.9,44.8-55,84.2
		c-0.5,179.6-0.7,359.2-0.1,538.8c0.1,38-0.8,87.6,49.7,87.6c167.7,0,115.2,117.1,115.9,207c-22.7-129-183.8-124.1-226.4-233.9
		c59.5-229.3,14.7-462.3,24.8-693.4C3911.3,426.5,4052.2,446.3,4043.4,322.6z"/>
	<path id="XMLID_666_" fill="#451C1C" d="M2792.4,6255.4c-232.5-32.8-447.5-117.2-645.9-238.3c-60.1-36.7-146.3-82.4-109.8-186.9
		c155.2,191.9,383.2,248.8,600.5,327.1C2694.5,6178,2770.5,6176.1,2792.4,6255.4z"/>
	<path id="XMLID_665_" fill="#451C1C" d="M5139.3,2247.8c-45,7.6-68.1-21.1-91.3-52.7c-100.1-136.8-245.6-193.1-405.2-199.9
		c-123.7-5.2-199.1-56.7-245-165c53-5.5,94.7,17.3,125,57.5c44.5,59.1,101.1,65,170.3,60.3C4889,1934.7,5062.5,2054.7,5139.3,2247.8
		z"/>
	<path id="XMLID_664_" fill="#2E4250" d="M6565.2,1431.4c-51.4-4.6-56.3-40.6-56.3-81.4c0.4-260.7,0.5-521.3-0.1-782
		c-0.1-35.9,7.4-64.1,46.9-73.3c5.4,4.8,10.8,9.6,16.1,14.4c0.4,306.7,0.9,613.4,1.3,920.1L6565.2,1431.4z"/>
	<path id="XMLID_663_" fill="#451C1C" d="M8116.6,1954.5c-10.3-3.1-26.9-3.1-30-9.6c-136.7-287.2-396.4-236.6-638.3-231.6
		c-46.5,1-95.1,29.5-132.3-21.7c218.7-66.5,438.5-72.9,649.7,18.1C8062.6,1751.5,8127.3,1835.3,8116.6,1954.5z"/>
	<path id="XMLID_662_" fill="#451C1C" d="M6758.9,6188.4c45.7-90.8,143.9-92.3,221.4-119.5c156.7-55,319.3-93.4,479.4-138.6
		c-40,79.4-119.3,107.2-193.9,119C7091,6076.8,6939.7,6186,6758.9,6188.4z"/>
	<path id="XMLID_661_" fill="#451C1C" d="M13692.5,6259.9c217.2,126.8,407.3,279.5,501.2,524.3
		C14021.8,6614,13832.8,6460.2,13692.5,6259.9z"/>
	<path id="XMLID_660_" fill="#451C1C" d="M8754.1,5038.4c170.6-135.3,370-196.1,581.6-225c-120.3,132.4-303.1,122-451,192.3
		C8851.2,5021.6,8806.5,5068,8754.1,5038.4z"/>
	<path id="XMLID_659_" fill="#451C1C" d="M4466.2,6951.3c-109.8,66.6-228.1,24.7-343,26.8c48.3-43.2,116.9-6.3,174-44
		c-74.7-100.3-225.6-77.5-288.6-186.5C4191.9,6746.4,4328.2,6850.9,4466.2,6951.3z"/>
	<path id="XMLID_658_" fill="#451C1C" d="M1015.8,4170.7c16.4,13.6,47.2,27.5,47,40.9c-2.8,219.3-6.4,439.1-106,642.6
		c-33-157.2,27.6-307.7,39.4-461.6C1001.7,4319.8,1011.4,4245,1015.8,4170.7z"/>
	<path id="XMLID_657_" fill="#2E4250" d="M5193.4,309.3c-115.4,20.6-215.9,20.2-215.8-140.2c0-11.5-32.5-23-49.8-34.6
		c23-7.3,45.9-14.6,68.8-21.9C5136.4,103.9,5224.6,146.8,5193.4,309.3z"/>
	<path id="XMLID_656_" fill="#451C1C" d="M7818.3,5302.1c-19.9,123.7-138.7,104.4-213.6,132.6c-92.4,34.8-178.8,135.5-296.2,64.4
		C7470.1,5411.9,7639.8,5345.8,7818.3,5302.1z"/>
	<path id="XMLID_655_" fill="#2E4250" d="M12657.9,1111.3c-0.1-26.8-0.2-53.6-0.2-80.3c159.2-20.5,213.5,52.6,190.4,205
		c-9.7,63.8-3.8,129.9-4.9,195c-112.6-41.1-54.5-137-56-204.9C12785,1127.4,12758.4,1085.4,12657.9,1111.3z"/>
	<path id="XMLID_654_" fill="#2E4250" d="M6555.8,494.6C6670.8,389.8,6785.9,285,6901,180.2c0,0,0.1,0.4,0.1,0.5
		c19.2,106.1-124.2,111.2-126.4,178.4c-4.9,152.5-92,159.1-202.9,150C6566.5,504.2,6561.2,499.4,6555.8,494.6z"/>
	<path id="XMLID_653_" fill="#451C1C" d="M621.1,8880.2c-89.3,134.4-201.6,237.1-366.9,267.2C355.6,9029.7,468.7,8928,621.1,8880.2z
		"/>
	<path id="XMLID_652_" fill="#451C1C" d="M9230,504.5c1.7,311,3.4,622.1,5.1,933.2c-30.9-17.9-44.2-45.7-44.2-80.4
		c0.2-269.7,0.3-539.4,1.1-809.1C9192.1,524.4,9205.8,509,9230,504.5z"/>
	<path id="XMLID_651_" fill="#451C1C" d="M14700.3,3626c83.6-96.3,193.2-141.3,316.2-159.6
		C14944.8,3586.4,14831.2,3623.4,14700.3,3626z"/>
	<path id="XMLID_650_" fill="#2E4250" d="M10359.2,694.5c-123.6,3.3-248.3,31.3-369.7-16.3c1.1-15.3,2.1-30.6,3.1-45.9
		c86.5-0.7,173-3.3,259.4-1.4C10297.6,631.9,10355.7,619.4,10359.2,694.5z"/>
	<path id="XMLID_649_" fill="#2E4250" d="M14418.2,8333.6c2.8-13.2,5.7-26.3,8.5-39.5c89,10.7,60-54.9,59.7-96.9
		c-0.4-68.4,11.2-120.1,97.8-105.1c-73,77.7,31.7,194.2-58.7,268.1C14486.7,8363.1,14446.8,8370.9,14418.2,8333.6z"/>
	<path id="XMLID_648_" fill="#451C1C" d="M3870.8,502.8c-10.1,231.1,34.7,464.1-24.8,693.4C3853.5,965.1,3804.6,731.9,3870.8,502.8z
		"/>
	<path id="XMLID_647_" fill="#2E4250" d="M7553.4,3656.7c-101.9,5.5-205.4,25.5-300.2-33.4c92.8-92.4,204.3,9.5,302.3-29.1
		C7554.8,3615,7554.1,3635.8,7553.4,3656.7z"/>
	<path id="XMLID_646_" fill="#2E4250" d="M9429.9,309.8c31.7,166.2-37.7,229-200.6,196.2C9296.1,440.6,9363,375.2,9429.9,309.8z"/>
	<path id="XMLID_645_" fill="#2E4250" d="M11425.4,4694.7c-0.5,192.9,32.8,387.1-23.7,577.7
		C11394,5079.2,11382.2,4885.8,11425.4,4694.7z"/>
	<path id="XMLID_644_" fill="#2E4250" d="M14814.5,7675.4c50.7,125.8,24.9,224.4-102,287.2c9.5-101.1,106.3-181.2,70.4-293.2
		C14793.6,7670.5,14804.2,7672.5,14814.5,7675.4z"/>
	<path id="XMLID_643_" fill="#451C1C" d="M9990.8,1226.3c1.1-12.3,2.3-24.7,3.4-37c136.6-1,273.1-3.4,409.7-2.2
		c46,0.4,101.6-19,128.6,42.6C10351.9,1228.5,10171.4,1227.4,9990.8,1226.3z"/>
	<path id="XMLID_642_" fill="#451C1C" d="M3291,4981c21.2-85,80.1-110.7,160.7-101.9C3428.8,4961.3,3343.4,4945.2,3291,4981z"/>
	<path id="XMLID_641_" fill="#451C1C" d="M10024.4,2211.9c-130.1-39.9-130.5-42.1-47.3-234.4c6.3,5.3,12.5,10.6,18.7,16
		c3.3,16.6,6.6,33.3,9.8,49.9C9971.9,2104.1,10003.4,2157.4,10024.4,2211.9z"/>
	<path id="XMLID_640_" fill="#451C1C" d="M14059.3,3551.8c1.1-68.4,27-115.2,103.2-118.1
		C14150.8,3492.9,14115.1,3531.1,14059.3,3551.8z"/>
	<path id="XMLID_639_" fill="#2E4250" d="M10058.9,1693.6c18.6-0.6,37.1-1.2,55.7-1.8c28.3,32.4,20.1,64.7-0.3,96.9
		c-19.2-1.4-38.5-2.8-57.7-4.2C10057.4,1754.3,10058.1,1723.9,10058.9,1693.6z"/>
	<path id="XMLID_638_" fill="#2E4250" d="M11900.8,5717.3c-2.9-94.7-35.4-191.8,23-281.4
		C11916.1,5529.7,11908.4,5623.5,11900.8,5717.3z"/>
	<path id="XMLID_637_" fill="#2E4250" d="M9582.3,270.6c-54.5,3.2-109.5,4.7-155.2,41C9467,253.4,9526.1,267.4,9582.3,270.6z"/>
	<path id="XMLID_636_" fill="#451C1C" d="M7553.4,3656.7c0.7-20.8,1.4-41.7,2.1-62.5c22.4-0.6,44.7-1.2,67.1-1.8
		c13.5,20.2,32.1,27.5,55.7,21.5c0,0,12.6,5.8,12.5,5.8c2.1,11,4.1,21.9,6.2,32.9c-5.6,5.7-11.3,11.5-16.9,17.2
		C7637.9,3665.4,7595.6,3661,7553.4,3656.7z"/>
	<path id="XMLID_635_" fill="#451C1C" d="M13599.7,6191.3c68.2-23.4,89.6,16.6,98.9,73C13665.7,6240,13632.7,6215.7,13599.7,6191.3z
		"/>
	<path id="XMLID_634_" fill="#451C1C" d="M16192.6,2603.5c48.7-26.8,0.1-110.8,72.7-123.6
		C16277.1,2542.3,16244.3,2578.5,16192.6,2603.5z"/>
	<path id="XMLID_633_" fill="#451C1C" d="M10056.6,1784.6c19.2,1.4,38.5,2.8,57.7,4.2c-7.3,23-14.5,46.1-21.8,69.1
		c-10.9-1.2-21.5,0-31.8,3.7c-6-5.3-11.9-10.6-17.8-16C10047.5,1825.2,10052.1,1804.9,10056.6,1784.6z"/>
	<path id="XMLID_632_" fill="#451C1C" d="M7744.1,3736.5c-21.3-22.2-42.6-44.5-63.9-66.7c5.6-5.7,11.2-11.5,16.8-17.2
		c17.5,3.3,35,6.6,52.6,9.8c9.1,1.3,13.3,6.6,12.6,15.8c0.1,13.8,0.2,27.5,0.2,41.3C7756.3,3725.1,7750.2,3730.8,7744.1,3736.5z"/>
	<path id="XMLID_631_" fill="#451C1C" d="M8967,2608c8.8,33.1,3.9,61-29.7,78C8943.8,2658.7,8908,2615.3,8967,2608z"/>
	<path id="XMLID_630_" fill="#451C1C" d="M10088,2247.8c-37.6,15.8-64.9,13.4-65.2-36.9C10071,2176.4,10077.1,2216.4,10088,2247.8z"
		/>
	<path id="XMLID_629_" fill="#451C1C" d="M9977.1,1977.6c11-21.9,22-43.7,33.1-65.6c6.3,5.3,12.6,10.7,18.8,16.2
		c2.7,16.4,5.5,32.8,8.2,49.1c0,0-7.5,11.5-7.5,11.5c-11.3,1.6-22.6,3.2-33.9,4.7C9989.6,1988.1,9983.4,1982.8,9977.1,1977.6z"/>
	<path id="XMLID_628_" fill="#451C1C" d="M10010.2,1912c10.9-22.1,21.9-44.3,32.8-66.4c5.9,5.3,11.8,10.7,17.7,15.9
		c3.1,16.7,6.4,33.5,9.6,50.3c0,0-7.1,11.8-7.1,11.8c-11.4,1.5-22.9,3.1-34.3,4.6C10022.8,1922.7,10016.5,1917.3,10010.2,1912z"/>
	<path id="XMLID_627_" fill="#451C1C" d="M14814.5,7675.4c-10.4-3-20.9-4.9-31.6-6c-10.1-20.5-31.8-40.4-3.8-63.2
		C14834.6,7606.9,14820.2,7643.4,14814.5,7675.4z"/>
	<path id="XMLID_626_" fill="#2E4250" d="M11923,5989.1c-29.7-18.4-29.1-45.8-22-75C11908.4,5939.1,11915.7,5964.1,11923,5989.1z"/>
	<path id="XMLID_625_" fill="#2E4250" d="M7749.6,3662.4c-17.5-3.2-35.1-6.5-52.6-9.8c-2-11-4.1-22-6.2-32.9
		C7720.5,3620,7740.4,3633.9,7749.6,3662.4z"/>
	<path id="XMLID_624_" fill="#451C1C" d="M13565.6,6160.6c24.3-3.6,36.8,6.8,37.1,31.5C13574.2,6200.6,13561.1,6191,13565.6,6160.6z
		"/>
	<path id="XMLID_623_" fill="#451C1C" d="M13531.8,6128.5c25.2-3.1,37.7,7.2,35.2,33.4
		C13538.7,6168.2,13522.1,6162.2,13531.8,6128.5z"/>
	<path id="XMLID_622_" fill="#451C1C" d="M13498.1,6096.4c25.7-3.4,37.8,7.3,35.1,33.5
		C13501.6,6139.7,13485.8,6132.8,13498.1,6096.4z"/>
	<path id="XMLID_621_" fill="#2E4250" d="M10070.3,1911.8c-3.2-16.8-6.4-33.6-9.6-50.3c10.4-3.6,21-4.8,31.8-3.6
		C10085.1,1875.8,10077.7,1893.8,10070.3,1911.8z"/>
	<path id="XMLID_620_" fill="#2E4250" d="M10028.9,1928.2c11.4-1.5,22.9-3.1,34.3-4.6c-8.7,17.9-17.4,35.8-26.1,53.7
		C10034.4,1960.9,10031.7,1944.6,10028.9,1928.2z"/>
	<path id="XMLID_619_" fill="#451C1C" d="M14916.3,1951.8c-10.7,11.4-21.3,22.8-32,34.1C14895,1974.5,14905.7,1963.2,14916.3,1951.8
		z"/>
	<path id="XMLID_618_" fill="#2E4250" d="M9995.8,1993.6c11.3-1.6,22.6-3.2,33.9-4.7c-8,18.2-16,36.4-24,54.6
		C10002.4,2026.8,9999.1,2010.2,9995.8,1993.6z"/>
	<path id="XMLID_617_" fill="#2E4250" d="M7678.3,3613.9c-23.7,6-42.2-1.3-55.7-21.5C7641.2,3599.6,7659.7,3606.7,7678.3,3613.9z"/>
	<path id="XMLID_616_" fill="#451C1C" d="M13962.8,3664.9c10.9-10.2,21.7-20.5,32.6-30.7
		C13999,3659.8,13985.6,3667.3,13962.8,3664.9z"/>
	<path id="XMLID_615_" fill="#451C1C" d="M9430.6,1561.2c9.5,12.2,18.9,24.3,28.4,36.5C9430.9,1599.9,9425.3,1584.8,9430.6,1561.2z"
		/>
	<path id="XMLID_614_" fill="#451C1C" d="M11955.5,1431.8c1.4,9.1,1.8,18.2,1.1,27.4c-22.6,5.7-37.1-0.7-38.9-26
		C11930.3,1432.8,11942.9,1432.3,11955.5,1431.8z"/>
	<path id="XMLID_613_" fill="#451C1C" d="M15671.8,6866.5c-29.6-6.4-38.7-25-31.8-53.2
		C15676.6,6815.5,15678.2,6838.6,15671.8,6866.5z"/>
	<path id="XMLID_612_" fill="#2E4250" d="M14714.6,7960.5c1.8,24.3-9.6,35.8-33.9,34.9C14670,7962.4,14679.2,7948.8,14714.6,7960.5z
		"/>
	<path id="XMLID_611_" fill="#2E4250" d="M14682.4,7993.7c1.1,24.1-10.4,35.6-34.5,34.5C14637,7994.3,14648.5,7982.9,14682.4,7993.7
		z"/>
	<path id="XMLID_610_" fill="#451C1C" d="M720,8767c3.9,27.4-0.7,49-34.5,50.8C673.3,8784.8,683.8,8767.2,720,8767z"/>
	<path id="XMLID_609_" fill="#451C1C" d="M687.1,8815.6c3.2,26-8.3,37.5-34.3,34.3C642.8,8817.1,654.2,8805.6,687.1,8815.6z"/>
	<path id="XMLID_608_" fill="#451C1C" d="M654.3,8848.4c3.2,26.6-9.7,36.6-34.9,33.9C607.3,8846.5,622.4,8838.9,654.3,8848.4z"/>
	<path id="XMLID_607_" fill="#2E4250" d="M14649.5,8026.6c1.1,24.1-10.4,35.6-34.5,34.5
		C14604.1,8027.1,14615.7,8015.7,14649.5,8026.6z"/>
	<path id="XMLID_606_" fill="#2E4250" d="M7762.4,3719.5c-0.1-13.8-0.2-27.5-0.2-41.3c20.3,9.6,31.4,24.2,26.2,47.8
		C7779.2,3726,7770.5,3723.9,7762.4,3719.5z"/>
	<path id="XMLID_605_" fill="#2E4250" d="M14616.7,8059.4c1,24-10.5,35.5-34.5,34.5C14571.3,8060,14582.8,8048.5,14616.7,8059.4z"/>
	<path id="XMLID_604_" fill="#451C1C" d="M358.5,9707.9c9.5-0.7,19-0.3,28.4,1.3C376.9,9720.1,367,9730.7,358.5,9707.9z"/>
	<path id="XMLID_603_" fill="#451C1C" d="M433.6,9708.8c9.8-1.5,19.5-1.7,29.4-0.8C453.8,9729.2,443.7,9720.2,433.6,9708.8z"/>
	<path id="XMLID_602_" fill="#0A0C0E" d="M12484.4,128.1c133.1-22.8,191.6,26.2,171.5,166.4c-10,69.5-2.9,141.5-3.6,212.4
		c-142.5,19.5-200-39.6-177.2-183.4C12485.3,259.5,12481.8,193.3,12484.4,128.1z"/>
	<path id="XMLID_601_" fill="#0A0C0E" d="M12770.9,499.5c22.7,2.7,45.5,5.4,68.2,8c-7.9,70.4,43.8,173.5-95.6,171.4
		c-139.9-2.1-77.4-109.7-93-176.6C12690.6,501.3,12730.7,500.4,12770.9,499.5z"/>
	<path id="XMLID_598_" fill="#0462A9" d="M6571.9,509.1c110.8,9.1,198,2.5,202.9-150c2.2-67.3,145.6-72.3,126.4-178.4
		c33-15.4,66.1-30.9,99.1-46.3c206.6-0.3,413.3-0.6,620-0.9c36.7,113.3,68.3,233.2,233.5,179.5c0.3,76.4-0.6,152.9,1.3,229.2
		c1.9,75,4.7,146.1-104.8,138.4c-50.5-3.5-85,24.1-83.7,78.1c1.8,72.4-21.7,115.1-102.5,110.1c-35.4-2.2-73,13.7-70.5,51.6
		c10.9,166.5-97.6,138.1-195.9,123.2c-133.4-20.2-196.8,27.9-173.2,167.7c28,165.6-29.7,238.6-207.8,216.2
		c-112.6-14.2-228.8,0.2-343.4,1.8C6572.8,1122.4,6572.3,815.7,6571.9,509.1z M7124.4,588.3c0.2,0,0.4,0,0.6,0
		c0,65.2,0.2,130.3-0.1,195.5c-0.2,49.5,14.5,84.1,72.9,84.8c53.2,0.6,103.2-4,101.2-72.8c-2.7-91.7,44.5-110.6,127.8-127.4
		c118.1-23.8,50.8-133.6,60.2-204.3c6.8-51,30.5-121.4-54.7-148.7c-203.7-65.2-307.8,9.3-307.9,224
		C7124.4,555.7,7124.4,572,7124.4,588.3z"/>
	<path id="XMLID_597_" display="none" fill="#FBFBFB" d="M2372.4,4842.7c-32-9-43.7,17.3-60.4,34.8c-16.2-1.5-32.5-2-48.5-4.7
		c-81.4-13.9-151.2,135.4-225.3,35.1c-50.9-68.8-1.3-169.2,9.2-255.1c4.6-37.8,13.5-75.1,20.2-112.7
		c46.6-263,109.9-524.5,134.2-789.6c18-196.1,28.1-392.2,72.3-584.5c97.8-425.9,320.1-565,743.9-464.9c35.2,8.3,61.8,16.6,80.3-21.9
		c62.3,52.3,147.7,29.4,214.8,65.9c35.9,61.9,103.6,48.9,157.5,61.5c168.4,39.4,332.5,90.3,483.1,175.2
		c202.5,114.2,242.8,293.2,124.3,494.8c-31.7,54-92.4,89.6-99.4,158.5c-22.9,36.2-45.7,72.5-68.6,108.7c-16.6,12.2-53.5,7.8-38,46.3
		c0,0,1.1-2.4,1.1-2.4c-276.4,246.2-600,425-902.1,634.6c-9.7,6.8-9.3,28.2-13.6,42.8c-43.9,28.2-87.9,56.5-131.8,84.7
		c-22.9-2.9-37.1,4.6-35.9,30.3c0,0,1.3-1.9,1.3-1.9C2626.2,4626.8,2482.5,4708.1,2372.4,4842.7z"/>
	<path id="XMLID_596_" display="none" fill="#FBFBFB" d="M3554.3,7899.1c-144,71-288,141.9-431.9,212.9
		c-328.3,88.9-626.7,244.5-920.4,410.9c-202.8-12.7-382.3,82.5-573.5,122.9c-52.8,11.2-153,30.9-110.4-63.9
		c86.1-191.3,38-389.4,67.4-581.9c54.2-22,35.8-64.9,29.8-104.3c5-42.8,10.1-85.5,15.1-128.3c30.3-261.5,60.5-523,90.8-784.6
		c0,0,3.6-12,3.5-12c8.7-29.1,17.5-58.2,26.3-87.3c0,0,5.4-11.6,5.4-11.6c7.3-18.2,14.6-36.4,21.9-54.6
		c38.3-46.1,71-98.4,146.8-57.5c256.8,138.5,546.3,185.6,816.5,287.3c301.9,113.7,596.1,242,867.4,418.1
		c201.4,130.8,206.8,191.2,25,337.6C3599.2,7831.1,3570.6,7858.5,3554.3,7899.1z"/>
	<path id="XMLID_595_" fill="#451C1C" d="M3098.3,2679.3c-18.5,38.5-45.1,30.2-80.3,21.9c-423.8-100.1-646.1,39-743.9,464.9
		c-44.2,192.3-54.4,388.4-72.3,584.5c-24.3,265.1-87.6,526.5-134.2,789.6c-6.7,37.6-15.6,74.9-20.2,112.7
		c-10.5,85.9-60.1,186.2-9.2,255.1c74.1,100.3,144-49,225.3-35.1c15.9,2.7,32.3,3.2,48.5,4.7c-58.2,95.3-166.9,117.1-254.1,119.1
		c-136.5,3.1-110-120.5-96.7-205.8c29.7-191.4,60.1-383.8,107.9-571.2c95.7-375.8,83-767.6,178.6-1142.4
		c22.7-89.1,61.9-174.3,97.4-259.6c23.5-56.3,58.9-112.9,117.6-130.5C2672.7,2624.2,2885.1,2559.4,3098.3,2679.3z"/>
	<path id="XMLID_594_" fill="#451C1C" d="M3554.3,7899.1c16.3-40.6,44.9-68,79.7-96c181.8-146.4,176.4-206.8-25-337.6
		c-271.3-176.2-565.5-304.4-867.4-418.1c-270.2-101.8-559.6-148.9-816.5-287.3c-75.8-40.9-108.5,11.5-146.8,57.5
		c-10.2-0.8-20,0.8-29.3,4.9c-5.9-5.1-11.7-10.3-17.6-15.4c41.9-136.8,121-165,248.1-96.8c237,127.1,503.2,174.4,753.6,265.7
		c313.1,114.2,617.3,246.2,897.8,427c93.3,60.1,222.4,115.7,193.8,253.2C3797,7789.4,3692.7,7871.6,3554.3,7899.1z"/>
	<path id="XMLID_593_" fill="#451C1C" d="M3978.6,3635.3c7-68.9,67.7-104.6,99.4-158.5c118.6-201.7,78.2-380.6-124.3-494.8
		c-150.7-85-314.7-135.8-483.1-175.2c-53.9-12.6-121.6,0.3-157.5-61.5c306.9,0,593.9,69.7,809.5,299.4
		C4294.7,3227.9,4207.5,3548,3978.6,3635.3z"/>
	<path id="XMLID_592_" fill="#451C1C" d="M2957.3,4465.4c4.3-14.6,3.8-36.1,13.6-42.8C3273,4213,3596.6,4034.2,3873,3788
		c2.4,93.6-62.3,153-125.6,196.7c-228.5,157.9-463.4,306.9-697.4,456.7C3024.4,4457.7,2988.5,4457.8,2957.3,4465.4z"/>
	<path id="XMLID_591_" fill="#0A0C0E" d="M1585.4,8000.1c-29.4,192.5,18.7,390.6-67.4,581.9c-42.7,94.8,57.6,75.1,110.4,63.9
		c191.3-40.5,370.8-135.6,573.5-122.9c26.2,1.2,52.5,2.4,78.7,3.7c-79.7,75-182.8,54.9-277.7,73c-137.7,26.2-272.8,67.1-407.6,106.9
		c-91.3,26.9-133.6-10.3-113.6-94.4c55.7-234.3,47.5-476.4,96.1-711.1c0,0,3.8,3.5,3.8,3.5
		C1582.9,7936.2,1584.2,7968.2,1585.4,8000.1z"/>
	<path id="XMLID_590_" fill="#451C1C" d="M2280.6,8526.6c-26.2-1.2-52.5-2.4-78.7-3.7c293.7-166.4,592.1-322.1,920.4-410.9
		c1.2,39.8-27.1,56.3-57.2,69.6C2803.7,8296.8,2542.1,8411.6,2280.6,8526.6z"/>
	<path id="XMLID_589_" fill="#2E4250" d="M1721.1,6983c-30.3,261.5-60.5,523-90.8,784.6c-49.2-59.1,12.9-142.7-44.1-200
		c9.5-75.1,19.1-150.2,28.6-225.3c51.3-52.8,28.7-116.7,26.6-177.5c1.2-14.8,2.3-29.6,3.5-44.5c38.4-33.3,36-76.4,29.1-120.5
		c0,0,1.2-10.9,1.3-11C1690.5,6986.7,1705.8,6984.9,1721.1,6983z"/>
	<path id="XMLID_588_" fill="#451C1C" d="M2372.4,4842.7c110.1-134.6,253.8-216,418.5-264.2
		C2684.4,4718.9,2536.2,4793.1,2372.4,4842.7z"/>
	<path id="XMLID_587_" fill="#0A0C0E" d="M1586.2,7567.6c57,57.3-5.1,141,44.1,200c-5,42.7-10.1,85.5-15.1,128.2
		c-11.2,2.8-22.3,5.7-33.5,8.5c0,0-3.8-3.5-3.8-3.5C1580.7,7789.8,1583.4,7678.7,1586.2,7567.6z"/>
	<path id="XMLID_586_" fill="#451C1C" d="M1641.3,7164.7c2.2,60.8,24.8,124.7-26.6,177.5C1603.4,7280,1603.2,7219.5,1641.3,7164.7z"
		/>
	<path id="XMLID_585_" fill="#451C1C" d="M1673.9,6999.7c7,44.2,9.3,87.2-29.1,120.5C1637,7075.9,1641.6,7034.5,1673.9,6999.7z"/>
	<path id="XMLID_584_" fill="#451C1C" d="M1721.1,6983c-15.3,1.9-30.6,3.7-45.9,5.7c-6.1-34.6-1.7-66.4,25.9-91.5
		c7.9,24.7,15.7,49.3,23.6,73.9L1721.1,6983z"/>
	<path id="XMLID_583_" fill="#451C1C" d="M1756.3,6872.2c0,0-5.4,11.6-5.4,11.6c-15.8,1.7-31.7,3.5-47.5,5.2
		c-3.9-31.8,4.1-59.5,27.9-81.8c5.8,5.1,11.7,10.2,17.5,15.3C1751.3,6839,1753.8,6855.6,1756.3,6872.2z"/>
	<path id="XMLID_582_" fill="#2E4250" d="M1703.4,6889c15.8-1.7,31.7-3.5,47.5-5.2c-8.8,29.1-17.6,58.1-26.3,87.3
		c-7.8-24.5-15.7-49.1-23.5-73.8C1701.1,6897.1,1703.4,6889,1703.4,6889z"/>
	<path id="XMLID_581_" fill="#451C1C" d="M2789.6,4580.5c-1.2-25.7,13-33.2,35.9-30.3C2813.5,4560.2,2801.5,4570.4,2789.6,4580.5z"
		/>
	<path id="XMLID_580_" fill="#451C1C" d="M3872,3790.4c-15.5-38.5,21.4-34.1,38-46.3C3908.6,3768.7,3904.1,3790.9,3872,3790.4z"/>
	<path id="XMLID_579_" fill="#0A0C0E" d="M14418.2,8333.6c28.7,37.4,68.6,29.5,107.3,26.7c-85.5,159.1-234,253.1-372.3,356.8
		c-41.8,31.3-104,77.1-143.1,19.1c-46.6-69.2,37.9-91.6,78.6-111.8C14225.7,8556.5,14354.1,8482.6,14418.2,8333.6z"/>
	<path id="XMLID_578_" display="none" fill="#FBFBFB" d="M8968.2,4183.6c5.2-10.1,6.3-20.6,3.4-31.5c48.2-3.7,57.2-45.8,71-78.4
		c136.7-322.5,272-645.7,407.1-968.9c52.2-124.8,113.6-228.1,272.1-131.4c0,0,1.3,1.4,1.3,1.4c4.6,14.9,5.3,32.9,14.4,44.2
		c293.5,364.5,185.4,789,179.4,1198.1c-0.6,38.9-36.1,30.9-60.4,36.1c-32.6-11.7-62.3-4.3-90.4,13.9c-24.5,6.4-49,12.9-73.4,19.3
		c-95.2,14.6-194.5-33-287.3,18.9c-139.4,23.3-277.4,57-421.1,45.5c-45.8-3.7-85.9-0.8-78.2-64c0,0-0.8,1.4-0.8,1.4
		c47-4.2,35.9-38,34-67c0,0-2.3,1.9-2.3,1.9C8962.5,4221.9,8974.5,4210,8968.2,4183.6z"/>
	<path id="XMLID_577_" fill="#451C1C" d="M9721.8,2973.6c-158.5-96.7-219.9,6.5-272.1,131.4c-135.1,323.2-270.4,646.4-407.1,968.9
		c-13.8,32.5-22.8,74.7-71,78.4c35.3-72.8,58.1-148.1,78.3-227.5c83.5-326.9,256.4-618.7,386.4-927.6
		c63.9-151.8,183.2-170.9,285.4-77.2C9739.6,2936.2,9742.9,2955.7,9721.8,2973.6z"/>
	<path id="XMLID_576_" fill="#451C1C" d="M9856.5,4253.4c24.4-5.2,59.9,2.8,60.4-36.1c6-409,114.1-833.6-179.4-1198.1
		c-9.1-11.3-9.8-29.3-14.4-44.2c98.3,32,246.8,233.6,257.4,365c22.9,281.9,42.1,563.8,15.4,847.2c-9.7,103-73.6,106.6-148.6,105.4
		C9850.4,4279.4,9853.5,4266.4,9856.5,4253.4z"/>
	<path id="XMLID_575_" fill="#451C1C" d="M9692.7,4286.6c24.5-6.4,49-12.9,73.5-19.2c25.3,9,50.6,17.9,75.9,26.8
		c-299.1,76.2-605.2,102.6-911.3,128.2c-32.5,2.7-70.9,1-79.8-38.6c-10.1-44.8-3.4-87.5,55.3-96.7c-7.8,63.2,32.4,60.3,78.2,64
		c143.7,11.5,281.7-22.2,421.2-45.4C9501.7,4306.6,9600.5,4346.8,9692.7,4286.6z"/>
	<path id="XMLID_574_" fill="#2E4250" d="M9842.1,4294.1c-25.3-8.9-50.6-17.8-75.9-26.8c28-18.3,57.7-25.7,90.3-14
		c-3,13-6,26.1-9.2,39.2C9847.2,4292.6,9842.1,4294.1,9842.1,4294.1z"/>
	<path id="XMLID_573_" fill="#451C1C" d="M8939.3,4221.3c1.9,29,13,62.8-34,67C8891.9,4253.4,8896.8,4227.9,8939.3,4221.3z"/>
	<path id="XMLID_572_" fill="#451C1C" d="M8968.2,4183.6c6.2,26.3-5.7,38.3-31.2,39.6C8947.4,4210.1,8957.8,4196.8,8968.2,4183.6z"
		/>
	<path id="XMLID_565_" fill="#0462A9" d="M4110.9,9050.8c1.6-678,3.2-1356,4.8-2034.1c2940.1-0.7,5880.2-0.6,8820.4-4.6
		c130.4-0.2,180.8,26,178.7,169.2c-8.1,574.8-6,1149.7-1.1,1724.6c1,115-35.2,149.1-149.6,148.9
		C10013,9051.5,7062,9051.4,4110.9,9050.8z M4666.5,8620.3c-0.4,23.3,11.2,34.2,34.3,33.7l-0.9-1c0.9,70.1,45.6,74.7,99,66.1
		l-0.9-0.6c46.9,96.5,142.7,82.4,224.8,99.3c258.9,7.7,491-51.7,662-264.2c89.8-14.1,105-95.8,122.6-158
		c67.8-240,56.5-484.8,9.9-726.9c-13.8-71.8-34-153.9-130.5-168.9c-164-263.4-605.4-341.3-926.9-163.5
		c-115.1,20.2-190.5,77.6-191.5,204.6l0.9-0.9c-106.1,31.7-90,123.5-99.8,202.6c0.6,81.2,1.4,162.4,1.6,243.6
		c0.4,180.7-5.6,362.5,97,524.3c-1.7,46.5,11.4,80.4,66.8,78l-1.2-1c-0.3,22.9,10.9,34.4,33.9,34.1L4666.5,8620.3z M10547.5,7442.7
		l1.2-1.2c-22.9-0.2-34.2,11.2-34,34.1l1.1-0.8c-53.8-7.5-77.3,29.9-100.1,67.9c-142.4,237.4-162.8,490.1-97.5,754.8
		c9.5,38.4,32.9,53.3,65.6,62.9c67.9,209.3,228.3,328.3,413.2,423.3c193.1,46.1,386.3,94.4,569.5-32.4l-1.2,0.6
		c68.7,9.7,134.3,12.6,161.5-71.5l0.7,4.3c38,1.4,66.6-14.8,67-53.8c2.1-207.1,2.2-414.2,1.7-621.3c-0.1-55-35.3-75.5-85.7-75.7
		c-169-0.4-338-1.1-507.1-0.2c-29.3,0.2-59.5-7.5-69.2,43c-42.5,220.7-21.8,249.1,206,253.2c43.5,0.8,87.1-1.6,130.6-2.5l-0.8-0.9
		c-9.4,90.5,11.9,189-69,260.5c-166.1,44.8-304,3.1-417.6-128.4c-158.5-183.5-139.2-385-59.5-588.8
		c66.2-169.3,210.2-216.4,378.5-211.9c108.7,2.9,217.4,5.4,326.2,8.1c115.8-46,97-154.5,97.3-241.4c0.3-86.5-91.1-66.2-147.6-88.7
		c-73.2-29.3-136,19.4-204,9.1c-143.4,23.5-297.3-32.9-432.2,56.5c-25.3,8.3-60.1,2.6-63.8,43l1-0.7c-53.5-8.1-98.2-3.1-98.4,67.1
		l0.5-1.7C10558.9,7408.6,10547,7419.4,10547.5,7442.7z M9498.7,7277.5c-58.8,17.8-32,64.5-34.3,101.4
		c-78.1,194.3-156.1,388.7-234.2,583c-133.8,143.5-150.6,341.1-235.9,506.7c-21.2,41.1-10.1,136.7-108.7,90.7
		c-52.8-82.1-123.9-152.9-153.1-249.6c-9.4-5.1-18.5-10.7-27.4-16.8l3,1c2.5-79.6-69.1-157.2-6.5-238.5l-4.2,0.8
		c123.4,11,127.8-108.3,162.9-171.2c124.6-223.6,10.2-512.4-199.5-542.2c-63.2-59.1-144.8-59.9-223.3-70.5
		c-92.4-88-398-87.7-523.9,0.5c-26.8,2.8-53.6,5.5-80.3,8.3c-132.4-37.5-79.5,72.4-80,114.8c-4.9,409.9-3.2,819.9-2.6,1229.8
		c0.1,47.9-10.9,100.1,36.9,135.6c101.2,35.3,202,42.1,302.1-3.8c84,25.7,56.3-40.4,57.3-74.6c4.7-162,6-324.2,8.4-486.3
		c68.8-23.4,112.5,7.7,147.7,64.4c101.3,163.3,204,325.6,306.2,488.3c216.7,64.5,433.7,57.7,651.1,3.6
		c2.1-82.9,83.2-140.3,73.1-227.2c9.4-12.4,18.8-24.8,28.2-37.2c0,0-2.4-0.5-2.4-0.5c59.4,0.6,119-1.3,178.3,2.2
		c125.5,7.3,260.2-35,368.9,66c27.9,60.4,46.3,128,85.6,179.8c79.4,104.5,202.4,57.4,290.7,35.4c85.4-21.3,15.6-109.6-2.4-168.1
		c21.3-127.8-52.3-231.4-95.7-339.5c-89.7-224-145.6-463.9-293.2-662.5c-34.7-82.9-69.4-165.8-104.1-248.7
		c7.4-54.6,11.9-119.3-55.9-127.7c-80.6-10-179.2-58.1-234.6,54.5L9498.7,7277.5z M6045.3,7248.3c-43.5,22.3-35.1,63.6-35.1,100.5
		c-0.4,430.9-0.4,861.9-0.1,1292.8c0,43.2-5.1,88.6,36.4,119.4c95.4,45.2,195.3,18.7,293.6,18.5c76.2-1.4,63.4-58.2,66.3-105.8
		c8.4-140.7-58.6-320.2,27.8-412.4c95.1-101.4,279.5-32.5,424.2-33.4c157.3-1,137-101.5,139.8-200.4c3-106.6,1.9-200.7-148.6-190.7
		c-108.8,7.2-218.6-1.9-327.7,2.2c-83.3,3.1-115.9-27.6-117.6-113.5c-1.8-92.9,31.6-129.6,123.8-122.4c65.2,5,131.1,0.9,196.6,0.9
		c326.8,0,326.8,0,302.4-328.8c-24.8-40.9-66-31.1-102.4-31C6631.6,7245,6338.4,7246.8,6045.3,7248.3z M12738.3,7267.5
		c-229.2-52.4-461.5-15.6-692.3-21c-93.1-2.2-193.8-36.6-281.9,27.9c-38.8,25.3-33.4,65.5-33.4,103c-0.3,425.3-0.3,850.6,0,1275.9
		c0,37.5-5,77.6,33.9,102.8c12.7,9.1,25.3,26.2,38.1,26.3c306.5,2.4,613,3.3,919.5,3.5c28.6,0,35.3-17.9,22.7-42.9
		c-0.1-79.2-0.2-158.5-0.3-237.7c61-85.9-13-76.1-58.1-77c-141.4-2.7-282.9-4.4-424.2-0.2c-86,2.6-113.7-33.6-113.1-116.1
		c0.5-80.8,25.3-120.9,112.4-118c119.5,4.1,239.4-1.3,359,1.6c59.4,1.4,81.1-17.6,58.8-75.4c-0.1-70.8-0.2-141.7-0.2-212.5
		c49.3-99.7-34.3-71.6-75.4-74.2c-169.8-10.5-342,20.7-509.5-30.1c-0.2-65.1-0.4-130.2-0.6-195.3c108.5-1.4,217-3.8,325.5-4
		C12753,7603.7,12753,7604,12738.3,7267.5z"/>
	<path id="XMLID_564_" fill="#0A0C0E" d="M4655.2,1226.2c-214.4,16.4-214.4,16.4-214.6-199.4c-0.1-169,10.3-338.8-3-506.7
		c-12.7-159.7,28.4-218.1,202.6-213.5c157.3,4.2,207.7,50.4,175.6,197.6c-18.7,2.4-37.4,4.9-56.1,7.4
		c-54.1-1.5-131.3-41.6-127.3,63.9C4640.6,792.3,4606.2,1010.7,4655.2,1226.2z"/>
	<path id="XMLID_562_" fill="#2E4250" d="M4742.6,1194.6c37.1-226.9,7.2-455.5,17-683.1c18.7-2.5,37.5-4.9,56.1-7.4
		c4,210.3,6.2,420.7,13.2,630.9C4831.4,1208.6,4801,1217.7,4742.6,1194.6z"/>
	<path id="XMLID_559_" fill="#0A0C0E" d="M7124.4,588.3c0-16.3,0-32.6,0-48.9c0.1-214.7,104.2-289.2,307.9-224
		c85.2,27.3,61.6,97.7,54.7,148.7c-9.5,70.7,57.9,180.5-60.2,204.3c-83.3,16.8-130.4,35.7-127.8,127.4c2,68.7-48.1,73.4-101.2,72.8
		c-58.4-0.7-73.1-35.3-72.9-84.8c0.3-65.2,0.1-130.3,0.1-195.5C7124.7,588.3,7124.6,588.3,7124.4,588.3z M7375.1,635.5
		c43.9,5.5,62.8-19.6,66.6-65.1c4.1-49.3-17.5-67.9-65.1-67.7c-45,0.1-69.9,13.2-69.6,64.3C7307.2,613.1,7320,640,7375.1,635.5z"/>
	<path id="XMLID_558_" fill="#2E4250" d="M1581.7,7904.3c11.2-2.8,22.3-5.7,33.5-8.5c6,39.3,24.4,82.2-29.8,104.3
		C1584.2,7968.2,1582.9,7936.2,1581.7,7904.3z"/>
	<path id="XMLID_557_" fill="#2E4250" d="M1756.3,6872.2c-2.5-16.6-5-33.2-7.5-49.7c9.4-4.1,19.2-5.7,29.4-4.9
		C1770.9,6835.8,1763.6,6854,1756.3,6872.2z"/>
	<path id="XMLID_556_" fill="#2E4250" d="M9692.7,4286.6c-92.2,60.3-191,20-287.2,18.9C9498.2,4253.5,9597.5,4301.2,9692.7,4286.6z"
		/>
	<path id="XMLID_552_" fill="#FBFBFB" d="M8732.5,8309.9c29.1,96.6,100.2,167.5,153.1,249.6c29.1,40.3,64.8,147.2,110.8,43.3
		c91.8-207.1,191.5-414.4,233.8-640.8c78.1-194.3,156.1-388.7,234.2-583c33-26.5,42.9-60.8,34.3-101.4c0,0-1.7,2-1.7,2
		c99.2,14.8,219.8-55.1,290.5,73.2c34.7,82.9,69.4,165.8,104.1,248.7c100.1,345.5,228.6,679.9,388.8,1002
		c18,58.5,87.8,146.7,2.4,168.1c-88.3,22.1-211.4,69.1-290.7-35.4c-39.3-51.7-57.7-119.3-85.6-179.8
		c-5.6-91.4-48.2-133.5-145.3-126.7c-101.9,7.2-204.7,1.1-307.2,2c-41.7,0.4-90.9-8.7-94.8,56.5c0,0,2.4,0.5,2.4,0.5
		c-26.2-0.4-31.2,15.4-28.2,37.2c10.2,86.8-70.9,144.3-73.1,227.2c-217-1.2-434-2.4-651.1-3.6c-102.2-162.7-205-325-306.2-488.3
		c-35.2-56.7-78.8-87.9-147.7-64.4c-90-13.5-59.2,56.5-60.3,94.9c-4.7,155.2-4,310.7-5.4,466c-100.1,45.9-200.9,39.1-302.1,3.7
		c2-437.6,3.7-875.2,6.4-1312.7c0.4-58.2-16.7-121.7,39.3-167.4c26.8-2.8,53.6-5.5,80.4-8.3c174.6-0.2,349.2-0.3,523.8-0.5
		c78.5,10.6,160.1,11.4,223.4,70.5c142.7,100.1,204.2,235,178.4,409.2c-17.1,115.9-81.6,208.8-141.8,304.2c0,0,4.2-0.8,4.2-0.7
		c-121.4,24.6-214,58.5-60.1,177.1c23.8,18.3,27.3,59.1,66.5,61.3c0,0-3-1-3-1C8712.4,8301.2,8721.6,8306.8,8732.5,8309.9z
		 M9662,7895.8c-7.5-42.8,34.6-110.6-29.4-123c-68.6-13.3-50.1,66.1-67.3,104.1c-27.9,61.7-45.8,127.9-67.9,192.2
		c-16.5,76.3,6.9,150,88.8,124.6c56.4-17.5,177.4,12.2,165.8-69.5C9741.8,8052.1,9740.6,7951.6,9662,7895.8z M8092.5,7748
		c26.2,73-68.2,215,124.4,209.2c202.7-6.1,312.1-81.4,307.5-233.5c-4-132.1-95.6-182.1-284.4-196.5
		C8048.1,7512.7,8100.9,7641.4,8092.5,7748z"/>
	<path id="XMLID_549_" fill="#FBFBFB" d="M4759.8,7336.1c321.5-177.8,762.9-99.9,926.9,163.6c193.3,351.7,172.9,702.9-2,1053.8
		c-171,212.5-403.1,271.9-661.9,264.2c-48.9-92-146.9-72.9-224.8-99.3c0,0,0.9,0.6,0.9,0.6c-19.3-42.5-54.2-61.8-99-66.1
		c0,0,0.9,1,0.9,1c1.6-24.4-11.2-34.3-34.3-33.7c0,0,1.2,1.2,1.2,1.2c0.2-22.8-10-35.3-33.9-34.1c0,0,1.2,1,1.2,1
		c0.6-45.6-33.2-61.7-66.8-78c-102.6-161.8-96.5-343.6-97-524.3c-0.2-81.2-1.1-162.4-1.6-243.6c69.8-49.6,77.8-129.6,99.8-202.6
		c0,0-0.9,0.9-0.9,0.9C4632.2,7472.5,4696,7404.3,4759.8,7336.1z M5390.4,8394.2l-0.5,0.6c79.9-58.8,92.5-143.8,91.4-234.2
		c2.7-81.5,12.3-163.5,6.8-244.5c-21.6-318.1-238.3-442.8-532.5-310c-47.4-8.8-67.4,26-88.4,57.2c-110,163.4-103.7,554.7,11.2,717.3
		c110.1,155.9,315.6,175.9,478.8,46.7l-0.6,0.7C5379.8,8428.8,5391.1,8417.5,5390.4,8394.2z"/>
	<path id="XMLID_548_" fill="#FBFBFB" d="M11428.8,7565.8c-108.7-2.7-217.4-5.2-326.2-8.1c-168.4-4.4-312.3,42.6-378.5,211.9
		c-79.7,203.8-98.9,405.3,59.5,588.8c113.6,131.6,251.4,173.2,417.6,128.4c185.3-43.9,107.3-157.5,69-260.5c0,0,0.8,0.9,0.8,0.9
		c-61.3-73-149.7-45.1-225.7-55.7c-69.2-9.6-93-36.7-91-104.1c2-65.9,35.5-82.1,93.3-81.5c136.2,1.6,272.5,1.4,408.7,0
		c57.2-0.6,95.2,14.2,92.4,81.1c-8.5,205.8,22.3,412.9-21.3,617.5c0,0-0.7-4.3-0.7-4.3c-64,0.9-116.2,28.3-161.5,71.5
		c0,0,1.2-0.6,1.2-0.6c-188,43.4-380.3,10.1-569.5,32.4c-185-95-345.4-214-413.2-423.3c-64.4-311.3-61.2-612.6,131.9-885.6
		c0,0-1.1,0.8-1.1,0.8c24.1,1.4,35.3-10.1,34-34.1c0,0-1.2,1.2-1.2,1.2c24,1.5,36.9-8.3,34.2-33.8c0,0-0.5,1.7-0.5,1.7
		c45.2-4.1,78.8-25.4,98.4-67.1c0,0-1,0.7-1,0.7c32.2,1.9,62.9,1.6,63.8-43c134.8-89.4,288.7-32.9,432.1-56.5
		C11463,7316.8,11463,7316.8,11428.8,7565.8z"/>
	<path id="XMLID_547_" fill="#FBFBFB" d="M12679.1,7907.7c0.1,70.8,0.2,141.7,0.2,212.5c-155.2,37.9-313.4,20.6-469.3,15.1
		c-162.9-5.8-116.1,103.5-119.3,185.6c-3.2,83.2-27.1,173,120,168.7c177.4-5.1,357.2-26.8,533.8,15.6c0.1,79.2,0.2,158.5,0.2,237.7
		c-315.8,3.1-631.5,6.1-947.3,9.1c-10.7-490.8-15.3-981.6,2.4-1472.3c304-0.7,608-1.5,912.1-2.2c53.9,260.8,45.7,271.8-204.1,271.9
		c-108.2,0.1-216.5-1.3-324.6,0.8c-39.3,0.8-93.8-13.8-89.8,57.8c0.2,65.1,0.4,130.2,0.6,195.2c-8.2,103.7,70.6,70.9,122.3,76.1
		C12370.3,7894.9,12527.8,7849.7,12679.1,7907.7z"/>
	<path id="XMLID_546_" fill="#FBFBFB" d="M6340,8779.6c-98.3,0.2-198.2,26.6-293.6-18.6c0.5-490.9,0.9-981.7,1.4-1472.4
		c314.2-2.5,628.4-4.9,942.7-7.4c10,268.5,10,268.5-259.5,268.5c-49.1,0-98.2,0-147.3,0c-264.1,0-260.8-0.2-245.4,259.2
		c4.2,71,25.8,96.6,95.3,95.1c136.3-2.9,273,4.1,409.1-1.9c115.9-5.1,97,71.5,100.3,141.2c3.4,73.2-2.5,128.1-101.2,121.6
		c-108.6-7.2-218.7,5.7-327.1-3.5c-124.6-10.6-177.2,25.1-168.1,160.8C6356.9,8473.7,6343.3,8627,6340,8779.6z"/>
	<path id="XMLID_545_" fill="#2E4250" d="M6340,8779.6c3.3-152.6,16.9-305.9,6.7-457.5c-9.1-135.7,43.4-171.3,168.1-160.8
		c108.3,9.2,218.4-3.7,327.1,3.5c98.8,6.5,104.7-48.4,101.2-121.6c-3.3-69.7,15.6-146.3-100.3-141.2c-136.1,6-272.8-0.9-409.1,1.9
		c-69.6,1.5-91.1-24.1-95.3-95.1c-15.5-259.4-18.7-259.2,245.4-259.2c49.1,0,98.2,0,147.3,0c269.5,0,269.5,0,259.5-268.5
		c12.2-1.9,24.4-3.9,36.6-5.8c24.4,328.8,24.4,328.8-302.4,328.8c-65.6,0-131.4,4.1-196.6-0.9c-92.2-7.1-125.6,29.5-123.8,122.4
		c1.6,85.9,34.3,116.6,117.6,113.5c109.1-4.1,218.9,5,327.7-2.2c150.5-10,151.6,84.1,148.6,190.7c-2.8,99,17.4,199.4-139.8,200.4
		c-144.6,0.9-329.1-68-424.2,33.4c-86.4,92.2-19.4,271.7-27.8,412.4C6403.4,8721.4,6416.2,8778.2,6340,8779.6z"/>
	<path id="XMLID_544_" fill="#2E4250" d="M11527.6,8684.5c43.5-204.6,12.7-411.7,21.3-617.5c2.8-67-35.2-81.7-92.4-81.1
		c-136.2,1.4-272.5,1.6-408.7,0c-57.8-0.7-91.3,15.6-93.3,81.5c-2.1,67.5,21.7,94.5,91,104.1c76.1,10.6,164.4-17.2,225.7,55.7
		c-43.5,0.9-87.1,3.3-130.6,2.5c-227.8-4.2-248.5-32.5-206-253.2c9.7-50.5,39.9-42.8,69.2-43c169-0.9,338-0.2,507.1,0.2
		c50.4,0.1,85.5,20.7,85.7,75.7c0.5,207.1,0.4,414.2-1.7,621.3C11594.2,8669.7,11565.6,8685.9,11527.6,8684.5z"/>
	<path id="XMLID_543_" fill="#2E4250" d="M12744.6,8505.3c-176.7-42.4-356.5-20.8-533.9-15.6c-147.1,4.2-123.2-85.5-120-168.7
		c3.2-82.1-43.6-191.4,119.3-185.6c155.8,5.5,314,22.8,469.3-15.1c22.3,57.9,0.6,76.8-58.8,75.4c-119.6-2.8-239.4,2.5-359-1.6
		c-87-3-111.9,37.1-112.4,118c-0.5,82.4,27.1,118.6,113.1,116.1c141.3-4.2,282.9-2.5,424.2,0.2
		C12731.7,8429.2,12805.7,8419.4,12744.6,8505.3z"/>
	<path id="XMLID_542_" fill="#2E4250" d="M11800,7279.8c-17.7,490.7-13.1,981.5-2.4,1472.3c-11,1.3-22,2.7-33,4
		c-38.8-25.2-33.8-65.3-33.9-102.8c-0.3-425.3-0.3-850.6,0-1275.9c0-37.5-5.3-77.6,33.4-103C11776.1,7276.3,11788,7278,11800,7279.8
		z"/>
	<path id="XMLID_541_" fill="#2E4250" d="M10280.4,8603.4c-160.2-322.1-288.7-656.5-388.8-1002c147.6,198.5,203.5,438.4,293.2,662.4
		C10228.1,8372,10301.7,8475.6,10280.4,8603.4z"/>
	<path id="XMLID_540_" fill="#2E4250" d="M10515.7,7474.7c-193.2,273-196.3,574.2-131.9,885.6c-32.8-9.6-56.1-24.5-65.6-62.9
		c-65.3-264.6-44.9-517.4,97.5-754.8C10438.4,7504.5,10461.9,7467.2,10515.7,7474.7z"/>
	<path id="XMLID_539_" fill="#2E4250" d="M5684.7,8553.5c174.9-350.9,195.3-702.1,2-1053.8c96.4,15,116.6,97,130.4,168.9
		c46.6,242.2,57.9,486.9-9.9,726.9C5789.7,8457.8,5774.5,8539.4,5684.7,8553.5z"/>
	<path id="XMLID_538_" fill="#2E4250" d="M8697.5,8056.3c60.2-95.3,124.7-188.3,141.8-304.2c25.8-174.1-35.7-309.1-178.4-409.2
		c209.7,29.8,324.1,318.6,199.5,542.1C8825.3,7948,8820.9,8067.3,8697.5,8056.3z"/>
	<path id="XMLID_537_" fill="#2E4250" d="M12093.6,7608.2c-4.1-71.6,50.5-57,89.8-57.8c108.2-2.1,216.4-0.8,324.6-0.8
		c249.7-0.1,258-11.1,204.1-271.9c7.4-6.7,16.2-10.1,26.2-10.1c14.7,336.5,14.7,336.2-319.2,336.7
		C12310.6,7604.4,12202.1,7606.8,12093.6,7608.2z"/>
	<path id="XMLID_536_" fill="#2E4250" d="M7833.3,7281.2c-56.1,45.6-38.9,109.2-39.3,167.4c-2.7,437.6-4.4,875.1-6.4,1312.7
		c-47.8-35.4-36.8-87.7-36.9-135.5c-0.6-409.9-2.3-819.9,2.6-1229.8C7753.8,7353.6,7700.9,7243.6,7833.3,7281.2z"/>
	<path id="XMLID_535_" fill="#2E4250" d="M6047.8,7288.5c-0.5,490.8-0.9,981.6-1.4,1472.4c-41.5-30.8-36.4-76.1-36.4-119.3
		c-0.2-430.9-0.3-861.9,0.1-1292.8c0-36.9-8.4-78.2,35.2-100.5C6046.2,7261.7,6047,7275.1,6047.8,7288.5z"/>
	<path id="XMLID_534_" fill="#2E4250" d="M9230.2,7962c-42.3,226.4-142,433.7-233.8,640.8c-46.1,103.9-81.7-3-110.8-43.3
		c98.6,45.9,87.5-49.7,108.7-90.8C9079.6,8303,9096.4,8105.4,9230.2,7962z"/>
	<path id="XMLID_533_" fill="#2E4250" d="M8089.7,8757.5c1.3-155.3,0.7-310.8,5.4-466c1.2-38.4-29.7-108.4,60.3-94.9
		c-2.4,162.1-3.7,324.3-8.4,486.3C8146,8717.1,8173.7,8783.2,8089.7,8757.5z"/>
	<path id="XMLID_532_" fill="#2E4250" d="M9359.3,8488.1c3.9-65.2,53-56.2,94.8-56.5c102.4-0.9,205.2,5.2,307.2-2
		c97.1-6.8,139.7,35.3,145.3,126.7c-108.7-101-243.5-58.7-368.9-66C9478.3,8486.8,9418.7,8488.7,9359.3,8488.1z"/>
	<path id="XMLID_531_" fill="#2E4250" d="M11428.8,7565.8c34.2-249,34.2-249-254.4-321c68.2,10.3,130.9-38.4,204.1-9.1
		c56.5,22.6,147.9,2.2,147.6,88.7C11525.8,7411.3,11544.6,7519.8,11428.8,7565.8z"/>
	<path id="XMLID_530_" fill="#0A0C0E" d="M11764.6,8756.2c11-1.3,22-2.7,33-4c315.7-3,631.5-6.1,947.2-9.1
		c12.7,25,5.9,42.9-22.7,42.9c-306.5-0.2-613-1.1-919.5-3.5C11790,8782.3,11777.3,8765.3,11764.6,8756.2z"/>
	<path id="XMLID_529_" fill="#2E4250" d="M8437.5,7272.4c-174.6,0.2-349.2,0.3-523.8,0.5C8039.5,7184.7,8345.1,7184.5,8437.5,7272.4
		z"/>
	<path id="XMLID_528_" fill="#0A0C0E" d="M12738.3,7267.5c-10,0-18.8,3.4-26.2,10.1c-304,0.7-608,1.5-912.1,2.2
		c-12-1.8-23.9-3.5-35.9-5.3c88.1-64.5,188.8-30.1,281.9-28C12276.8,7252,12509.1,7215.1,12738.3,7267.5z"/>
	<path id="XMLID_527_" fill="#0A0C0E" d="M6047.8,7288.5c-0.8-13.4-1.6-26.8-2.5-40.2c293.1-1.5,586.2-3.4,879.4-4.1
		c36.4-0.1,77.6-9.8,102.4,31c-12.2,2-24.4,3.9-36.6,5.8C6676.3,7283.6,6362,7286,6047.8,7288.5z"/>
	<path id="XMLID_526_" fill="#2E4250" d="M12679.1,7907.7c-151.3-58-308.8-12.8-462.6-28.2c-51.7-5.2-130.5,27.6-122.3-76.1
		c167.5,50.8,339.7,19.6,509.5,30.1C12644.8,7836.1,12728.4,7808,12679.1,7907.7z"/>
	<path id="XMLID_525_" fill="#2E4250" d="M10797,8783.5c189.2-22.3,381.5,11,569.5-32.4C11183.3,8877.9,10990.1,8829.6,10797,8783.5
		z"/>
	<path id="XMLID_524_" fill="#0A0C0E" d="M8609.3,8749.4c217,1.2,434.1,2.4,651.1,3.6C9043.1,8807,8826,8813.9,8609.3,8749.4z"/>
	<path id="XMLID_523_" fill="#2E4250" d="M8708.1,8294c-39.2-2.2-42.8-43-66.5-61.3c-153.9-118.6-61.3-152.5,60.1-177.1
		C8639.1,8136.8,8710.6,8214.4,8708.1,8294z"/>
	<path id="XMLID_522_" fill="#2E4250" d="M9787.5,7352.7c-70.6-128.3-191.2-58.4-290.5-73.2c55.4-112.7,154-64.5,234.6-54.5
		C9799.3,7233.4,9794.9,7298.1,9787.5,7352.7z"/>
	<path id="XMLID_521_" fill="#2E4250" d="M4759.8,7336.1c-63.8,68.2-127.7,136.4-191.5,204.6
		C4569.3,7413.7,4644.7,7356.3,4759.8,7336.1z"/>
	<path id="XMLID_520_" fill="#2E4250" d="M4797.9,8718.4c77.9,26.4,176,7.3,224.8,99.3C4940.7,8800.8,4844.9,8814.9,4797.9,8718.4z"
		/>
	<path id="XMLID_519_" fill="#2E4250" d="M11270.3,8226.3c38.3,103.1,116.3,216.7-69,260.5
		C11282.1,8415.3,11260.9,8316.8,11270.3,8226.3z"/>
	<path id="XMLID_518_" fill="#2E4250" d="M4569.3,7539.9c-22,73.1-30,153.1-99.8,202.6C4479.2,7663.4,4463.1,7571.5,4569.3,7539.9z"
		/>
	<path id="XMLID_517_" fill="#2E4250" d="M11365.3,8751.7c45.3-43.2,97.5-70.6,161.5-71.5
		C11499.7,8764.3,11434,8761.5,11365.3,8751.7z"/>
	<path id="XMLID_516_" fill="#2E4250" d="M10679.6,7343.6c-19.6,41.7-53.2,62.9-98.4,67.1
		C10581.4,7340.5,10626.1,7335.5,10679.6,7343.6z"/>
	<path id="XMLID_515_" fill="#2E4250" d="M4699.9,8652.9c44.9,4.3,79.7,23.6,99,66.1C4745.4,8727.6,4700.8,8723,4699.9,8652.9z"/>
	<path id="XMLID_514_" fill="#2E4250" d="M4568.1,8510.4c33.6,16.3,67.4,32.4,66.8,78C4579.5,8590.8,4566.4,8556.9,4568.1,8510.4z"
		/>
	<path id="XMLID_513_" fill="#2E4250" d="M9498.7,7277.5c8.6,40.6-1.4,74.9-34.3,101.4C9466.6,7342,9439.9,7295.3,9498.7,7277.5z"/>
	<path id="XMLID_512_" fill="#2E4250" d="M10742.3,7301.2c-0.9,44.6-31.6,44.9-63.8,43C10682.3,7303.8,10717,7309.5,10742.3,7301.2z
		"/>
	<path id="XMLID_511_" fill="#2E4250" d="M10548.6,7441.5c1.3,24-10,35.4-34,34.1C10514.4,7452.7,10525.8,7441.3,10548.6,7441.5z"/>
	<path id="XMLID_510_" fill="#2E4250" d="M10581.7,7408.9c2.6,25.5-10.2,35.2-34.2,33.8C10547,7419.4,10558.9,7408.6,10581.7,7408.9
		z"/>
	<path id="XMLID_509_" fill="#2E4250" d="M9333.5,8525.8c-3-21.8,2-37.6,28.2-37.2C9352.3,8501,9342.9,8513.4,9333.5,8525.8z"/>
	<path id="XMLID_508_" fill="#2E4250" d="M4633.7,8587.4c23.9-1.2,34.1,11.2,33.9,34.1C4644.7,8621.8,4633.4,8610.3,4633.7,8587.4z"
		/>
	<path id="XMLID_507_" fill="#2E4250" d="M4666.5,8620.3c23.1-0.7,35.8,9.2,34.3,33.7C4677.8,8654.5,4666.1,8643.6,4666.5,8620.3z"
		/>
	<path id="XMLID_506_" fill="#2E4250" d="M8732.5,8309.9c-10.9-3.1-20-8.7-27.4-16.8C8714,8299.1,8723.1,8304.7,8732.5,8309.9z"/>
	<path id="XMLID_505_" display="none" fill="#FBFBFB" d="M7375.1,635.5c-55.1,4.4-67.9-22.4-68.1-68.5
		c-0.3-51.1,24.6-64.2,69.6-64.3c47.6-0.1,69.2,18.5,65.1,67.7C7437.9,616,7419,641,7375.1,635.5z"/>
	<path id="XMLID_502_" fill="#2E4250" d="M8092.5,7748c8.4-106.6-44.4-235.3,147.5-220.7c188.9,14.3,280.5,64.3,284.4,196.5
		c4.6,152.1-104.8,227.4-307.5,233.5C8024.3,7963,8118.8,7821,8092.5,7748z M8150.4,7749.2c9.8,50.1-43.2,160.5,99.3,150.1
		c107.3-7.8,218-30.7,220.6-163.9c2.5-127-104.8-147-205.1-160.4C8135.4,7557.7,8143.9,7645.3,8150.4,7749.2z"/>
	<path id="XMLID_501_" fill="#0462A9" d="M9662,7895.8c78.6,55.8,79.8,156.3,90,228.4c11.6,81.7-109.4,52-165.8,69.5
		c-81.9,25.4-105.3-48.3-88.8-124.6C9608.7,8064.9,9554.9,7903.9,9662,7895.8z"/>
	<path id="XMLID_500_" fill="#2E4250" d="M9662,7895.8c-107.1,8.1-53.3,169.1-164.6,173.2c22.1-64.2,40-130.5,67.9-192.1
		c17.2-38-1.3-117.4,67.3-104.1C9696.6,7785.3,9654.5,7853.1,9662,7895.8z"/>
	<path id="XMLID_499_" fill="#0462A9" d="M4955.6,7606.1c294.1-132.8,510.9-8.1,532.5,310c5.5,81-4.1,163-6.8,244.5
		c-73.8,61.2-87,145.9-91.4,234.1c0,0,0.5-0.6,0.5-0.6c-24.1-1.6-35.5,9.7-33.9,33.9c0,0,0.6-0.7,0.6-0.7
		c-21.4,0.6-43.7-2.6-63.9,2.5c-276.5,69.3-421.5-41.1-436.3-326C4847.8,7928.5,4861,7759.9,4955.6,7606.1z"/>
	<path id="XMLID_498_" fill="#2E4250" d="M4955.6,7606.1c-94.6,153.7-107.8,322.3-98.6,497.8c14.8,284.9,159.8,395.3,436.3,326
		c20.3-5.1,42.6-1.9,63.9-2.5c-163.2,129.2-368.8,109.1-478.8-46.7c-114.8-162.6-121.2-553.9-11.2-717.3
		C4888.2,7632.2,4908.2,7597.4,4955.6,7606.1z"/>
	<path id="XMLID_497_" fill="#2E4250" d="M5389.9,8394.8c4.4-88.2,17.6-173,91.4-234.1C5482.4,8251.1,5469.8,8336.1,5389.9,8394.8z"
		/>
	<path id="XMLID_496_" fill="#2E4250" d="M5356.6,8428.1c-1.6-24.2,9.7-35.4,33.9-33.9C5391.1,8417.5,5379.8,8428.8,5356.6,8428.1z"
		/>
	<path id="XMLID_495_" fill="#0462A9" d="M8150.4,7749.2c-6.6-103.9-15-191.5,114.8-174.2c100.3,13.4,207.6,33.4,205.1,160.4
		c-2.6,133.2-113.3,156.1-220.6,163.9C8107.3,7909.7,8160.3,7799.3,8150.4,7749.2z"/>
</g>
</svg>
