<svg id="svg" version="1.1" xmlns="http://www.w3.org/2000/svg" xmlns:xlink="http://www.w3.org/1999/xlink" width="400" height="110.39999999999999" viewBox="0, 0, 400,110.39999999999999"><g id="svgg"><path id="path0" d="M127.216 9.104 C 127.014 9.150,126.633 9.434,126.368 9.736 L 125.887 10.284 125.769 22.027 C 125.645 34.310,125.644 34.285,126.399 34.987 C 126.938 35.488,126.938 35.490,126.356 36.141 L 125.879 36.676 125.793 68.713 L 125.707 100.750 126.054 101.276 C 126.768 102.357,126.588 102.333,134.241 102.333 L 141.180 102.333 141.881 101.678 L 142.583 101.022 142.583 89.303 C 142.583 82.857,142.644 77.490,142.718 77.375 C 142.817 77.222,143.589 77.167,145.616 77.167 C 148.408 77.167,149.103 77.095,152.417 76.468 C 161.520 74.744,167.777 68.499,168.669 60.250 C 168.999 57.190,168.737 50.665,168.221 49.083 C 167.202 45.966,166.671 44.964,165.041 43.083 C 161.700 39.227,157.814 37.277,151.258 36.167 C 149.598 35.886,149.863 35.717,152.114 35.622 C 157.115 35.411,157.504 35.040,157.448 30.523 L 157.417 27.962 156.667 27.296 L 155.917 26.629 154.667 26.746 C 152.628 26.937,152.445 26.917,151.310 26.386 C 146.967 24.354,149.205 16.706,153.822 17.800 C 156.773 18.498,157.564 17.673,157.636 13.822 L 157.689 11.004 156.969 10.243 C 156.052 9.273,155.623 9.176,152.249 9.171 C 148.317 9.165,146.477 9.785,144.242 11.873 C 142.778 13.240,143.003 13.243,141.587 11.842 C 139.353 9.633,137.704 9.178,131.583 9.083 C 129.383 9.048,127.418 9.058,127.216 9.104 M222.250 9.489 C 221.700 9.654,220.965 9.913,220.618 10.066 C 219.889 10.386,217.421 12.681,217.065 13.369 C 216.720 14.035,216.462 13.951,215.685 12.921 C 212.185 8.286,205.245 7.898,201.042 12.101 C 199.365 13.778,199.727 13.769,198.224 12.172 C 196.089 9.902,194.678 9.332,191.200 9.335 C 187.922 9.338,186.478 9.877,184.655 11.775 C 183.407 13.075,183.509 13.078,182.043 11.687 C 180.055 9.799,178.768 9.332,175.564 9.335 C 170.261 9.340,166.943 12.186,166.732 16.909 C 166.685 17.964,166.584 18.616,166.454 18.699 C 166.342 18.770,163.710 18.829,160.605 18.831 L 154.961 18.833 154.314 19.480 L 153.667 20.127 153.667 22.583 L 153.667 25.039 154.314 25.686 L 154.961 26.333 160.364 26.333 C 166.460 26.333,166.166 26.266,166.169 27.658 C 166.184 34.648,176.798 38.364,182.260 33.292 C 183.520 32.122,183.465 32.123,184.714 33.253 C 188.365 36.557,194.705 36.386,198.344 32.886 L 199.771 31.513 201.094 32.856 C 201.821 33.594,202.698 34.380,203.042 34.601 C 204.167 35.327,203.921 35.428,201.208 35.355 C 192.005 35.108,184.904 37.845,178.889 43.957 C 173.932 48.994,171.427 54.086,169.850 62.333 C 169.230 65.575,169.310 73.398,169.998 76.742 C 170.541 79.380,171.610 83.235,172.009 83.993 C 172.083 84.134,172.518 85.037,172.975 86.000 C 176.372 93.152,182.921 98.870,190.250 101.083 C 196.783 103.057,209.087 102.509,211.065 100.158 L 211.500 99.641 211.500 92.904 L 211.500 86.168 210.897 85.500 L 210.295 84.833 209.026 84.833 C 208.328 84.833,207.193 84.943,206.504 85.076 C 202.249 85.900,199.750 85.699,196.324 84.255 C 187.108 80.373,184.117 67.093,190.409 57.996 C 193.892 52.961,201.202 50.606,207.499 52.492 C 208.935 52.923,210.542 52.725,211.216 52.035 L 211.833 51.403 211.833 44.568 L 211.833 37.732 211.153 37.045 C 210.694 36.582,210.272 36.324,209.858 36.254 C 208.927 36.097,208.660 35.877,209.259 35.760 C 212.621 35.103,214.811 33.751,216.225 31.458 C 216.380 31.206,216.610 31.000,216.735 31.000 C 216.860 31.000,217.096 31.206,217.261 31.458 C 220.560 36.517,228.326 37.137,232.368 32.664 C 233.692 31.198,233.833 31.191,233.833 32.590 C 233.833 33.628,233.864 33.713,234.489 34.381 L 235.144 35.083 241.864 35.074 C 250.382 35.063,250.691 34.995,253.322 32.560 C 254.682 31.301,254.833 31.318,254.833 32.737 C 254.833 33.932,255.125 34.452,256.037 34.882 C 256.910 35.294,267.239 35.189,268.417 34.756 C 270.966 33.820,273.587 31.004,274.183 28.562 C 274.559 27.021,273.734 27.167,282.079 27.167 C 290.059 27.167,289.960 27.154,289.149 28.078 L 288.624 28.676 288.648 31.379 L 288.672 34.083 289.344 34.722 L 290.016 35.360 292.966 35.304 C 296.614 35.235,296.703 35.197,299.202 32.652 C 301.443 30.369,301.247 30.343,302.584 33.088 C 302.897 33.732,303.387 34.482,303.671 34.754 L 304.188 35.250 307.270 35.302 L 310.352 35.354 311.027 34.679 L 311.702 34.004 311.641 32.710 C 311.560 31.017,311.105 30.055,308.070 25.167 C 307.354 24.013,307.310 24.209,308.609 22.793 C 309.869 21.420,310.146 20.871,310.305 19.433 L 310.417 18.417 311.750 18.289 C 312.483 18.218,313.346 18.172,313.667 18.186 C 313.987 18.201,315.016 18.221,315.952 18.231 L 317.653 18.250 318.423 17.500 C 319.513 16.439,319.667 16.068,319.667 14.500 C 319.667 11.830,318.239 10.547,315.477 10.735 C 313.783 10.851,313.516 10.851,311.455 10.735 C 309.649 10.634,309.211 10.784,308.283 11.826 C 307.728 12.449,307.649 12.451,306.780 11.859 C 305.185 10.774,305.119 10.766,297.367 10.705 C 288.194 10.633,288.692 10.399,288.658 14.802 C 288.638 17.474,288.733 18.029,289.245 18.225 C 289.385 18.279,289.500 18.475,289.500 18.661 C 289.500 19.074,275.109 19.209,274.700 18.800 C 274.558 18.658,274.500 17.649,274.500 15.321 L 274.500 12.042 273.754 11.355 L 273.007 10.667 270.329 10.667 C 265.807 10.667,266.106 10.122,265.995 18.559 C 265.877 27.481,266.359 26.724,260.749 26.807 C 256.357 26.872,256.446 26.898,256.532 25.555 L 256.583 24.750 259.250 24.664 C 263.566 24.526,263.335 24.921,263.328 17.686 C 263.322 11.530,263.381 11.904,262.269 11.040 C 261.815 10.687,261.635 10.667,259.019 10.668 L 256.250 10.670 255.518 11.252 L 254.786 11.833 252.088 11.833 L 249.389 11.833 248.903 12.329 C 248.274 12.970,247.891 12.975,247.752 12.343 C 247.693 12.073,247.349 11.585,246.988 11.259 L 246.332 10.667 240.811 10.667 L 235.289 10.667 234.561 11.395 C 233.969 11.987,233.833 12.236,233.833 12.728 C 233.833 13.513,233.513 13.518,232.921 12.741 C 230.524 9.599,226.246 8.295,222.250 9.489 M136.410 11.571 C 140.977 12.697,142.872 16.614,140.932 20.918 C 139.877 23.258,134.319 25.698,133.506 24.178 C 132.870 22.990,133.406 20.167,134.267 20.167 C 136.189 20.167,137.436 17.848,136.227 16.525 C 135.688 15.936,134.108 15.443,133.040 15.532 L 132.417 15.583 132.333 24.333 C 132.287 29.146,132.189 33.177,132.115 33.292 C 131.931 33.576,128.317 33.584,128.033 33.300 C 127.736 33.003,127.745 11.401,128.042 11.268 C 128.542 11.043,135.257 11.286,136.410 11.571 M154.958 11.534 C 155.413 11.752,155.417 11.768,155.464 13.602 C 155.520 15.838,155.460 15.934,154.175 15.637 C 149.646 14.592,145.714 19.220,146.938 24.156 C 147.759 27.467,149.640 28.908,153.167 28.930 L 155.250 28.942 155.250 30.929 L 155.250 32.915 154.583 33.135 C 152.563 33.799,149.325 33.456,147.279 32.359 C 139.831 28.369,140.391 15.285,148.151 12.015 C 150.128 11.182,153.695 10.930,154.958 11.534 M177.033 11.515 C 181.863 12.510,184.028 17.548,181.231 21.281 C 180.691 22.002,180.721 22.172,181.559 23.107 C 183.850 25.663,183.349 29.706,180.469 31.902 C 173.883 36.922,164.507 29.080,169.759 22.944 C 170.477 22.106,170.478 22.140,169.625 20.470 C 167.090 15.508,171.360 10.347,177.033 11.515 M192.986 11.590 C 197.426 12.637,199.511 17.266,197.167 20.873 C 196.343 22.141,196.324 21.950,197.416 23.291 C 200.372 26.921,197.999 32.262,192.991 33.251 C 186.416 34.550,181.480 28.085,185.285 23.156 C 186.110 22.086,186.141 21.884,185.609 21.038 C 182.365 15.885,186.848 10.143,192.986 11.590 M209.725 11.583 C 213.077 12.361,214.476 14.142,215.681 19.167 C 216.326 21.858,215.768 27.196,214.591 29.593 C 211.653 35.579,203.184 34.746,200.933 28.250 C 197.638 18.740,202.319 9.866,209.725 11.583 M227.520 11.571 C 231.212 12.691,232.960 15.972,233.123 22.083 C 233.302 28.786,231.213 32.364,226.591 33.272 C 220.097 34.548,215.973 27.871,217.505 18.560 C 218.380 13.249,222.825 10.146,227.520 11.571 M312.458 13.420 C 313.320 14.335,313.049 15.621,311.891 16.105 C 309.805 16.976,308.508 13.813,310.575 12.897 C 311.272 12.589,311.818 12.741,312.458 13.420 M316.635 13.004 C 317.867 13.755,317.820 15.317,316.544 16.051 C 314.915 16.988,313.241 14.591,314.625 13.302 C 315.398 12.582,315.836 12.517,316.635 13.004 M245.631 14.726 C 245.662 15.917,245.612 16.615,245.485 16.768 C 245.188 17.126,236.465 17.108,236.106 16.748 C 235.848 16.491,235.829 13.412,236.082 13.003 C 236.154 12.886,237.750 12.843,240.886 12.872 L 245.583 12.917 245.631 14.726 M261.133 13.033 C 261.418 13.318,261.418 22.015,261.133 22.300 C 261.002 22.432,260.300 22.500,259.083 22.500 C 257.867 22.500,257.165 22.432,257.033 22.300 C 256.822 22.088,256.731 13.627,256.934 13.097 C 257.064 12.760,260.803 12.703,261.133 13.033 M272.343 13.185 C 272.708 13.866,272.458 26.721,272.059 27.849 C 270.568 32.057,268.675 33.000,261.716 33.000 C 256.445 33.000,256.833 33.159,256.833 30.999 C 256.833 28.687,256.460 28.860,261.583 28.800 C 268.254 28.723,267.990 29.104,267.996 19.555 C 267.998 16.148,268.046 13.242,268.101 13.097 C 268.278 12.635,272.091 12.714,272.343 13.185 M304.249 13.166 C 306.593 13.973,308.160 16.135,308.165 18.572 C 308.167 19.743,307.673 20.633,306.104 22.282 C 304.418 24.054,304.442 23.837,305.716 25.782 C 308.849 30.565,309.975 32.949,309.236 33.232 C 308.854 33.379,305.620 33.352,305.381 33.200 C 305.270 33.129,304.907 32.549,304.575 31.911 C 303.312 29.483,301.863 27.333,301.491 27.333 C 301.406 27.333,300.117 28.565,298.627 30.071 C 295.586 33.143,295.702 33.077,292.989 33.267 C 290.698 33.427,290.667 33.401,290.667 31.361 C 290.667 29.441,290.737 29.333,291.981 29.333 C 293.176 29.333,294.068 28.892,295.099 27.789 C 295.547 27.309,297.379 25.379,299.170 23.500 C 304.324 18.092,304.241 18.215,303.346 17.321 L 302.859 16.833 296.963 16.833 C 292.599 16.833,291.015 16.781,290.867 16.633 C 290.657 16.424,290.578 13.591,290.768 13.097 C 290.941 12.645,302.914 12.707,304.249 13.166 M254.298 20.250 C 254.339 25.552,254.307 26.555,254.072 27.406 C 253.419 29.771,251.158 32.004,248.678 32.734 C 247.546 33.067,236.272 33.138,236.071 32.813 C 235.917 32.564,235.913 29.109,236.066 28.861 C 236.154 28.720,237.604 28.667,241.391 28.667 C 247.159 28.667,248.173 28.539,249.057 27.700 C 250.005 26.799,250.000 26.836,250.002 20.550 C 250.005 13.218,249.745 13.979,252.229 14.037 L 254.250 14.083 254.298 20.250 M174.595 15.824 C 173.037 16.851,173.488 19.207,175.289 19.448 C 176.636 19.629,177.556 18.873,177.556 17.583 C 177.556 16.005,175.854 14.994,174.595 15.824 M190.289 15.806 C 188.528 16.967,189.268 19.502,191.367 19.499 C 192.154 19.498,192.930 18.968,193.159 18.274 C 193.742 16.506,191.783 14.821,190.289 15.806 M224.403 15.828 C 221.309 17.080,221.474 27.628,224.608 28.938 C 226.849 29.874,228.458 26.792,228.291 21.882 C 228.136 17.321,226.605 14.937,224.403 15.828 M206.845 16.194 C 203.826 18.250,204.500 28.903,207.667 29.182 C 209.877 29.377,211.067 27.101,211.074 22.667 C 211.082 17.570,209.155 14.620,206.845 16.194 M225.841 19.606 C 226.729 22.275,225.840 27.653,224.852 25.591 C 224.054 23.926,224.369 18.500,225.263 18.500 C 225.378 18.500,225.639 18.998,225.841 19.606 M208.298 18.875 C 209.417 20.229,208.938 27.338,207.804 26.204 C 207.245 25.645,206.817 21.958,207.165 20.686 C 207.255 20.355,207.408 19.765,207.504 19.375 C 207.680 18.666,207.973 18.481,208.298 18.875 M299.965 19.146 C 300.035 19.356,299.658 19.785,296.235 23.375 C 293.702 26.032,293.833 26.048,293.833 23.075 C 293.833 20.704,293.635 19.667,293.180 19.667 C 293.009 19.667,292.802 19.186,292.902 19.023 C 293.037 18.805,299.891 18.924,299.965 19.146 M245.391 19.377 C 245.639 19.559,245.672 19.842,245.631 21.419 L 245.583 23.250 240.872 23.294 L 236.160 23.339 236.029 22.961 C 235.784 22.258,235.888 19.506,236.167 19.330 C 236.566 19.077,245.040 19.120,245.391 19.377 M166.300 21.033 C 166.567 21.301,166.567 23.699,166.300 23.967 C 166.014 24.252,156.152 24.252,155.867 23.967 C 155.619 23.719,155.599 21.605,155.839 21.156 C 156.052 20.759,165.910 20.644,166.300 21.033 M291.486 21.233 C 291.612 21.385,291.662 22.062,291.631 23.191 L 291.583 24.917 283.093 24.960 C 278.178 24.985,274.540 24.940,274.452 24.852 C 274.191 24.591,274.199 21.491,274.462 21.229 C 274.805 20.886,291.201 20.890,291.486 21.233 M247.910 24.645 C 248.056 25.105,247.744 25.775,247.223 26.116 C 246.804 26.391,246.274 26.417,241.008 26.417 L 235.250 26.417 235.250 26.000 L 235.250 25.583 240.872 25.500 L 246.494 25.417 247.036 24.875 C 247.662 24.249,247.775 24.219,247.910 24.645 M174.667 24.757 C 173.704 25.188,173.346 25.765,173.339 26.901 C 173.324 29.357,176.625 30.175,177.753 27.995 C 178.761 26.044,176.677 23.857,174.667 24.757 M190.202 24.846 C 188.014 25.954,188.868 29.229,191.346 29.230 C 192.653 29.231,193.667 28.220,193.667 26.917 C 193.667 25.142,191.809 24.032,190.202 24.846 M139.965 25.708 C 140.059 25.823,140.193 26.217,140.261 26.583 C 140.947 30.259,145.134 34.695,148.446 35.255 C 150.892 35.668,149.617 35.836,145.995 35.577 C 144.210 35.450,140.748 35.342,138.302 35.339 C 133.611 35.333,133.339 35.287,133.979 34.605 C 134.307 34.256,134.329 34.024,134.372 30.493 L 134.417 26.750 134.917 26.704 C 135.973 26.607,138.753 25.959,139.072 25.735 C 139.486 25.445,139.741 25.437,139.965 25.708 M372.521 36.080 L 371.833 36.826 371.833 68.714 L 371.833 100.602 372.235 101.147 C 373.018 102.208,372.602 102.156,380.311 102.161 L 387.373 102.167 388.020 101.520 L 388.667 100.873 388.667 68.777 L 388.667 36.681 388.026 36.007 L 387.385 35.333 380.297 35.333 L 373.209 35.333 372.521 36.080 M42.550 35.608 C 41.829 35.765,41.257 36.672,40.933 38.174 C 40.765 38.949,40.494 40.183,40.330 40.917 C 40.166 41.650,39.907 42.850,39.753 43.583 C 39.599 44.317,39.370 45.367,39.245 45.917 C 39.119 46.467,38.677 48.538,38.262 50.519 C 37.478 54.262,37.373 54.667,37.185 54.667 C 36.987 54.667,35.313 52.864,30.995 48.000 C 28.676 45.387,26.203 42.612,25.500 41.833 C 24.797 41.054,23.557 39.667,22.743 38.750 C 18.875 34.392,18.892 34.388,13.078 41.153 C 11.706 42.750,10.014 44.700,9.317 45.486 C 6.861 48.261,6.983 49.760,9.776 51.123 C 11.508 51.968,11.984 52.737,11.699 54.232 C 11.593 54.792,11.395 55.833,11.261 56.544 C 11.126 57.256,10.978 57.901,10.931 57.976 C 10.884 58.052,10.776 58.520,10.691 59.015 C 10.552 59.827,10.210 61.474,9.173 66.333 C 8.987 67.204,8.645 68.854,8.414 70.000 C 8.182 71.146,7.881 72.571,7.745 73.167 C 6.407 79.010,6.352 79.958,7.299 80.883 C 8.274 81.835,9.341 81.780,11.857 80.649 C 12.898 80.181,14.650 79.401,15.750 78.915 C 21.041 76.579,21.333 76.357,21.333 74.674 C 21.333 73.319,21.356 73.352,19.226 71.566 C 16.746 69.488,16.791 69.564,17.101 68.000 C 17.647 65.242,17.880 64.013,18.146 62.500 C 18.488 60.552,18.731 60.422,19.750 61.643 C 20.513 62.557,23.146 65.538,25.583 68.246 C 26.500 69.265,28.300 71.291,29.583 72.749 C 30.867 74.207,32.517 76.073,33.250 76.896 C 33.983 77.719,35.094 78.979,35.717 79.696 C 37.504 81.752,38.724 82.081,40.032 80.861 C 40.764 80.178,40.773 80.149,41.572 76.000 C 41.704 75.313,42.197 72.912,42.668 70.667 C 43.138 68.421,43.624 66.058,43.748 65.417 C 43.871 64.775,44.100 63.688,44.255 63.000 C 44.410 62.313,44.573 61.563,44.615 61.333 C 44.658 61.104,45.036 59.229,45.454 57.167 C 45.873 55.104,46.269 53.117,46.335 52.750 C 46.619 51.158,47.052 49.229,47.181 48.981 C 47.258 48.833,48.655 47.912,50.285 46.935 C 51.916 45.958,53.378 45.069,53.534 44.960 C 54.032 44.612,54.056 44.947,53.681 47.038 C 53.338 48.950,53.217 49.594,52.593 52.833 C 52.460 53.521,52.300 54.480,52.237 54.964 C 52.104 55.982,51.944 56.112,50.539 56.341 C 49.513 56.507,48.209 57.547,48.145 58.250 C 47.983 59.999,48.907 61.661,50.045 61.669 C 50.993 61.676,50.996 62.086,50.074 66.917 C 49.934 67.650,49.714 68.850,49.586 69.583 C 48.781 74.164,48.944 73.848,47.000 74.580 C 46.020 74.949,45.543 75.255,44.792 75.999 L 43.833 76.947 43.839 78.015 C 43.845 79.150,43.975 79.410,44.897 80.126 L 45.378 80.500 62.612 80.500 L 79.846 80.500 80.517 79.874 C 81.233 79.207,81.543 78.046,82.000 74.333 C 82.180 72.870,82.598 70.263,82.931 68.524 C 83.514 65.488,82.868 64.167,80.801 64.167 C 79.637 64.167,79.169 64.541,77.611 66.719 C 74.042 71.705,72.122 73.082,68.325 73.377 C 64.983 73.638,65.098 73.769,65.743 70.417 C 65.866 69.775,66.129 68.313,66.327 67.167 C 66.761 64.655,67.109 63.002,67.229 62.882 C 67.767 62.344,69.697 64.259,70.746 66.372 C 71.917 68.727,72.226 69.000,73.726 69.000 C 75.251 69.000,75.913 68.263,76.272 66.167 C 76.390 65.479,76.603 64.317,76.746 63.583 C 77.219 61.147,77.696 58.594,77.836 57.750 C 77.912 57.292,78.177 55.942,78.426 54.750 C 78.674 53.558,78.886 51.997,78.897 51.281 L 78.917 49.978 78.215 49.322 C 76.914 48.107,75.770 48.380,74.067 50.314 C 71.389 53.354,68.409 55.049,68.969 53.213 C 69.075 52.867,69.284 51.758,69.434 50.750 C 69.708 48.900,69.782 48.442,70.235 45.788 C 70.579 43.775,70.248 43.933,73.872 44.054 C 78.308 44.203,79.463 45.135,80.832 49.668 C 81.742 52.684,82.424 53.435,84.108 53.278 C 85.360 53.161,85.369 53.183,84.820 55.083 C 83.822 58.541,83.750 64.920,84.674 68.167 C 86.413 74.277,91.480 79.422,97.491 81.181 C 98.959 81.610,103.167 82.058,104.417 81.918 C 104.967 81.856,106.028 81.742,106.775 81.665 C 110.810 81.246,112.556 80.402,113.493 78.417 C 114.567 76.143,115.247 74.649,116.112 72.667 C 116.542 71.681,116.917 70.857,118.275 67.917 C 119.929 64.335,120.057 63.242,118.941 62.219 C 118.121 61.468,116.569 61.455,115.417 62.190 C 111.144 64.916,105.926 66.490,103.630 65.745 C 100.144 64.614,98.337 62.374,97.345 57.956 C 96.513 54.250,101.004 47.722,105.992 45.387 C 107.598 44.635,107.525 44.579,110.464 48.792 C 111.040 49.617,111.839 50.639,112.239 51.063 L 112.967 51.833 114.192 51.832 C 114.990 51.832,115.591 51.739,115.917 51.566 C 116.192 51.420,117.050 51.044,117.823 50.729 C 121.137 49.383,121.428 48.514,120.008 44.191 C 118.858 40.689,117.469 37.573,116.701 36.774 L 116.083 36.130 112.417 36.222 C 101.485 36.494,91.776 41.665,87.096 49.708 C 86.334 51.018,86.075 50.427,86.563 48.493 C 86.690 47.993,86.842 47.171,86.901 46.667 C 86.960 46.163,87.081 45.375,87.170 44.917 C 88.240 39.367,88.253 38.925,87.375 37.983 L 86.749 37.313 69.666 37.317 C 60.271 37.319,52.488 37.323,52.372 37.327 C 52.084 37.336,51.000 38.472,51.000 38.764 C 51.000 39.328,49.819 38.791,46.754 36.833 C 44.795 35.582,43.888 35.318,42.550 35.608 M341.833 35.756 C 339.126 36.090,335.605 37.304,333.533 38.617 C 330.744 40.385,327.208 44.030,325.843 46.543 C 324.264 49.453,323.294 51.957,322.599 54.917 C 321.584 59.241,321.426 61.020,321.421 68.208 C 321.419 71.669,321.366 74.500,321.304 74.500 C 321.242 74.500,320.908 74.031,320.563 73.458 C 319.801 72.193,318.553 70.515,317.613 69.493 C 317.230 69.077,316.736 68.535,316.516 68.288 L 316.115 67.840 317.453 65.879 C 318.999 63.611,319.588 62.405,319.907 60.857 C 321.589 52.697,319.800 46.365,314.406 41.385 C 310.034 37.349,306.234 35.870,299.833 35.713 C 295.876 35.616,293.504 35.906,290.664 36.834 C 284.492 38.851,279.798 43.782,278.130 50.000 C 277.554 52.147,277.571 58.866,278.157 60.500 C 278.752 62.160,280.618 65.925,281.375 66.995 C 281.821 67.626,281.758 67.778,280.440 69.231 C 278.774 71.068,277.252 73.510,276.687 75.250 C 276.341 76.317,276.002 76.333,275.738 75.296 C 275.395 73.955,274.269 72.231,272.046 69.645 C 270.380 67.707,270.389 67.953,271.896 65.698 C 274.290 62.115,274.718 60.562,274.708 55.500 C 274.695 48.358,272.142 43.436,266.333 39.349 C 262.517 36.664,259.275 35.769,253.333 35.762 C 241.814 35.749,233.866 41.622,232.239 51.349 C 231.342 56.714,232.075 60.470,235.093 65.974 C 236.193 67.979,236.247 67.539,234.683 69.314 C 231.137 73.342,230.224 76.104,230.378 82.333 C 230.733 96.605,246.582 105.728,262.392 100.760 C 268.499 98.841,274.285 92.692,275.782 86.529 C 275.979 85.716,276.211 85.840,276.555 86.940 C 279.761 97.202,290.521 103.239,303.136 101.854 C 310.149 101.085,316.580 96.787,319.878 90.667 C 321.163 88.282,322.168 83.940,321.928 81.815 C 321.804 80.723,321.936 80.000,322.258 80.000 C 322.397 80.000,322.517 80.294,322.579 80.792 C 323.061 84.603,325.624 90.449,328.381 94.018 C 333.469 100.606,339.833 103.012,349.482 101.996 C 363.288 100.542,370.658 89.288,370.665 69.651 C 370.668 60.937,369.462 54.187,366.889 48.527 C 366.583 47.854,366.333 47.272,366.333 47.233 C 366.333 47.194,365.830 46.319,365.215 45.289 C 360.735 37.789,352.516 34.438,341.833 35.756 M145.417 37.675 C 159.697 38.756,165.887 43.534,166.675 54.083 C 167.483 64.899,162.465 71.918,152.263 74.245 C 149.580 74.857,144.318 75.350,143.859 75.033 C 143.565 74.829,143.570 63.329,143.864 63.148 C 143.964 63.086,144.617 62.985,145.315 62.923 C 150.427 62.475,153.000 60.303,153.000 56.437 C 153.000 53.242,151.711 51.534,148.583 50.586 C 146.025 49.811,141.113 49.378,140.688 49.891 C 140.552 50.055,140.490 56.971,140.459 75.100 L 140.417 100.083 134.167 100.083 L 127.917 100.083 127.887 69.250 C 127.856 37.284,127.850 37.712,128.344 37.528 C 128.829 37.349,142.679 37.467,145.417 37.675 M205.167 37.767 C 207.900 38.066,209.343 38.393,209.623 38.776 C 209.783 38.994,209.833 40.423,209.833 44.690 C 209.833 50.934,209.858 50.799,208.764 50.476 C 195.209 46.472,183.239 56.968,185.043 71.274 C 186.600 83.627,196.552 90.241,208.583 86.921 C 209.315 86.719,209.325 86.799,209.338 92.908 C 209.344 96.103,209.290 98.776,209.216 98.847 C 208.679 99.371,202.922 100.160,199.583 100.167 C 187.093 100.191,177.492 93.146,173.389 80.943 C 169.833 70.365,171.440 57.708,177.426 49.161 C 183.649 40.276,192.999 36.436,205.167 37.767 M386.263 37.565 C 386.587 37.690,386.624 99.643,386.300 99.967 C 386.088 100.178,374.799 100.271,374.264 100.066 C 373.807 99.890,373.866 37.705,374.324 37.536 C 374.693 37.400,385.902 37.427,386.263 37.565 M350.445 37.929 C 360.714 39.698,366.436 47.728,368.252 62.917 C 370.185 79.090,365.442 93.107,356.516 97.602 C 346.168 102.813,334.220 99.886,328.882 90.833 C 325.991 85.931,324.367 80.708,323.746 74.317 C 322.960 66.226,323.598 58.423,325.492 52.964 C 328.824 43.361,334.811 38.586,344.750 37.603 C 345.832 37.496,348.977 37.676,350.445 37.929 M46.598 39.414 C 51.466 42.399,52.182 42.871,52.120 43.055 C 52.087 43.156,50.569 44.118,48.748 45.193 C 45.106 47.342,45.157 47.290,44.776 49.250 C 44.527 50.528,43.635 54.882,42.386 60.917 C 42.063 62.475,41.744 64.050,41.675 64.417 C 41.607 64.783,41.117 67.183,40.588 69.750 C 40.059 72.317,39.428 75.392,39.186 76.583 C 38.753 78.716,38.607 79.167,38.351 79.167 C 38.239 79.167,36.007 76.690,30.922 70.923 C 30.191 70.094,29.358 69.154,29.070 68.833 C 28.782 68.512,26.387 65.813,23.749 62.833 C 21.110 59.854,18.666 57.098,18.318 56.708 C 17.796 56.123,17.167 55.775,17.167 56.072 C 17.167 56.137,16.629 58.877,15.000 67.113 C 14.282 70.742,14.119 70.264,16.837 72.499 C 19.797 74.934,19.811 74.649,16.667 75.999 C 15.521 76.491,13.889 77.218,13.041 77.614 C 12.192 78.009,11.459 78.333,11.412 78.333 C 11.365 78.333,10.838 78.571,10.242 78.862 C 8.540 79.692,8.567 80.011,9.838 74.000 C 10.119 72.671,10.569 70.533,10.838 69.250 C 11.106 67.967,11.447 66.354,11.593 65.667 C 11.740 64.979,12.114 63.217,12.423 61.750 C 12.733 60.283,13.220 57.996,13.506 56.667 C 14.451 52.271,13.893 50.555,11.085 49.219 C 9.516 48.472,9.224 49.004,14.583 42.826 C 15.958 41.241,17.398 39.568,17.783 39.108 C 18.798 37.897,18.946 37.848,19.565 38.522 C 20.513 39.555,22.731 42.033,24.250 43.756 C 25.075 44.691,28.150 48.138,31.083 51.415 C 34.017 54.693,36.784 57.796,37.232 58.312 C 38.138 59.354,38.712 59.544,38.804 58.833 C 38.851 58.472,39.419 55.780,40.254 51.958 C 40.522 50.733,40.788 49.486,41.328 46.917 C 41.521 46.000,41.746 44.950,41.829 44.583 C 41.912 44.217,42.137 43.167,42.330 42.250 C 42.762 40.194,43.170 38.350,43.281 37.943 C 43.404 37.496,43.644 37.603,46.598 39.414 M255.224 37.836 C 267.090 38.819,274.892 48.953,272.159 59.833 C 271.632 61.934,270.479 64.031,268.245 66.958 C 267.467 67.977,267.470 67.989,269.050 69.639 C 272.089 72.814,273.512 75.107,273.927 77.501 C 276.597 92.882,261.694 103.917,245.555 98.509 C 237.509 95.814,232.756 89.686,232.546 81.739 C 232.399 76.190,233.413 73.863,238.205 68.750 C 238.981 67.922,238.992 68.060,238.018 66.440 C 234.747 60.994,233.787 57.984,234.081 54.083 C 234.802 44.500,242.035 38.150,252.750 37.693 C 253.025 37.682,254.138 37.746,255.224 37.836 M301.035 37.841 C 310.914 38.708,318.348 46.181,318.330 55.226 C 318.321 59.861,317.213 62.802,313.926 66.917 C 313.633 67.283,313.336 67.680,313.266 67.798 C 313.183 67.939,313.589 68.481,314.455 69.381 C 319.422 74.547,320.606 77.977,319.588 84.254 C 317.302 98.346,299.320 104.676,286.167 96.019 C 276.865 89.897,275.225 76.713,282.899 69.749 C 283.741 68.985,284.482 67.979,284.386 67.730 C 284.326 67.574,283.792 66.615,283.199 65.598 C 280.157 60.382,279.383 57.622,279.818 53.544 C 280.153 50.401,280.911 48.165,282.459 45.758 C 285.567 40.923,291.458 37.961,298.500 37.692 C 298.821 37.680,299.962 37.747,301.035 37.841 M115.236 38.542 C 115.937 39.619,118.667 46.841,118.667 47.617 C 118.667 47.847,118.202 48.087,115.846 49.077 C 113.938 49.878,114.028 49.907,112.708 48.042 C 108.444 42.016,108.841 42.440,107.583 42.567 C 103.834 42.944,98.671 47.344,96.187 52.276 C 93.280 58.049,96.455 65.917,102.434 67.752 C 105.741 68.767,111.366 67.417,116.083 64.476 C 116.450 64.247,116.844 64.004,116.960 63.936 C 117.684 63.508,117.411 64.283,114.912 69.750 C 114.197 71.315,113.804 72.178,113.132 73.667 C 110.748 78.942,111.198 78.401,108.640 79.063 C 94.362 82.755,83.093 71.040,86.838 56.398 C 88.687 49.167,93.930 43.622,101.917 40.448 C 106.408 38.664,114.557 37.497,115.236 38.542 M85.739 40.000 C 85.734 40.321,85.415 42.333,85.031 44.471 C 84.647 46.610,84.285 48.766,84.227 49.262 C 84.044 50.816,83.470 51.134,83.245 49.806 C 82.935 47.971,81.420 45.058,80.025 43.615 C 78.503 42.041,78.709 42.091,73.471 42.028 C 68.171 41.965,68.622 41.818,68.350 43.695 C 68.109 45.356,66.514 54.655,66.305 55.619 C 66.031 56.881,66.226 57.061,67.759 56.963 C 69.827 56.830,71.997 55.524,74.800 52.727 C 76.896 50.635,77.019 50.622,76.597 52.536 C 76.450 53.204,76.112 54.913,75.846 56.333 C 75.140 60.101,74.172 65.314,74.034 66.083 C 73.912 66.766,73.563 66.972,73.329 66.500 C 73.261 66.362,72.915 65.652,72.561 64.922 C 71.146 62.003,67.258 59.315,65.677 60.161 C 65.297 60.365,65.303 60.345,64.838 63.000 C 64.654 64.054,64.431 65.292,64.343 65.750 C 64.255 66.208,64.023 67.483,63.827 68.583 C 63.631 69.683,63.288 71.567,63.065 72.769 C 62.512 75.748,62.228 75.500,66.194 75.500 C 71.015 75.500,72.008 75.302,74.059 73.930 C 75.332 73.079,78.526 69.475,80.328 66.856 C 80.716 66.293,81.062 66.396,80.949 67.042 C 80.646 68.780,79.978 72.917,79.663 75.000 C 79.461 76.329,79.243 77.604,79.176 77.833 L 79.056 78.250 62.528 78.292 C 44.563 78.339,45.383 78.382,46.497 77.445 C 46.770 77.215,47.614 76.792,48.372 76.506 C 50.853 75.570,50.727 75.718,51.190 73.189 C 51.492 71.534,51.608 70.883,52.243 67.292 C 52.377 66.535,52.676 64.904,52.908 63.667 C 53.585 60.061,53.474 59.667,51.785 59.667 C 49.611 59.667,49.833 58.706,52.095 58.326 C 53.666 58.061,53.936 57.862,54.156 56.796 C 54.418 55.530,56.325 44.960,56.533 43.620 C 56.746 42.245,56.693 42.166,54.812 41.081 C 53.552 40.354,53.042 39.836,53.253 39.496 C 53.318 39.389,59.059 39.347,69.552 39.374 L 85.750 39.417 85.739 40.000 M251.387 49.730 C 246.711 51.258,246.209 57.975,250.606 60.174 C 253.486 61.615,257.047 60.587,258.320 57.948 C 260.550 53.324,256.194 48.160,251.387 49.730 M297.222 49.650 C 293.300 50.655,291.908 56.251,294.854 59.168 C 297.126 61.417,301.510 61.305,303.381 58.950 C 306.811 54.632,302.599 48.273,297.222 49.650 M344.583 50.108 C 335.269 52.577,334.753 82.960,343.951 87.350 C 351.387 90.899,357.259 76.370,354.400 61.500 C 352.848 53.433,348.979 48.943,344.583 50.108 M254.952 52.272 C 258.653 54.564,255.839 60.124,251.917 58.269 C 248.756 56.775,249.095 52.995,252.500 51.766 C 253.040 51.570,254.209 51.812,254.952 52.272 M300.457 52.145 C 301.192 52.520,301.864 53.402,302.251 54.500 C 303.348 57.615,299.040 59.959,296.525 57.615 C 293.655 54.939,296.950 50.356,300.457 52.145 M145.015 52.074 C 150.122 52.911,151.862 54.830,150.437 58.052 C 149.691 59.741,146.854 60.920,143.831 60.800 L 142.583 60.750 142.539 56.556 C 142.483 51.316,142.310 51.630,145.015 52.074 M347.219 52.564 C 352.124 54.820,354.617 69.047,351.719 78.250 C 349.811 84.309,347.648 86.535,344.921 85.245 C 340.859 83.323,338.205 70.889,340.014 62.250 C 341.701 54.189,344.008 51.088,347.219 52.564 M210.910 62.311 C 209.828 62.970,209.833 62.936,209.833 68.827 L 209.833 74.166 210.436 74.833 L 211.039 75.500 219.289 75.500 L 227.539 75.500 228.186 74.853 L 228.833 74.206 228.833 68.831 L 228.833 63.456 228.105 62.728 L 227.377 62.000 219.397 62.001 C 211.918 62.001,211.385 62.021,210.910 62.311 M226.583 68.833 L 226.583 73.417 219.667 73.463 C 215.862 73.488,212.581 73.468,212.375 73.418 L 212.000 73.327 212.000 68.858 C 212.000 66.400,212.051 64.338,212.113 64.276 C 212.175 64.214,215.456 64.183,219.405 64.207 L 226.583 64.250 226.583 68.833 M251.500 75.054 C 244.527 76.689,245.104 86.921,252.231 88.029 C 255.228 88.495,258.165 87.163,259.297 84.825 C 261.996 79.249,257.523 73.642,251.500 75.054 M297.083 75.064 C 291.487 76.425,290.491 84.409,295.565 87.246 C 298.971 89.150,303.518 87.883,305.069 84.596 C 307.638 79.154,303.005 73.624,297.083 75.064 M255.349 77.522 C 257.879 78.611,258.668 81.918,256.945 84.212 C 255.081 86.695,250.803 86.342,249.376 83.587 C 247.348 79.672,251.215 75.744,255.349 77.522 M299.867 77.187 C 304.944 78.262,304.701 85.158,299.559 85.929 C 294.056 86.754,292.535 78.458,297.956 77.181 C 298.826 76.976,298.873 76.977,299.867 77.187 " stroke="none" fill="#edecec" fill-rule="evenodd"></path><path id="path1" d="M126.402 7.478 C 125.737 7.653,125.500 7.805,125.500 8.056 C 125.500 8.168,125.219 8.549,124.875 8.903 L 124.250 9.547 124.258 22.232 C 124.262 29.208,124.272 35.104,124.280 35.333 C 124.288 35.563,124.265 50.582,124.229 68.710 L 124.163 101.671 124.832 102.396 C 125.199 102.794,125.500 103.202,125.500 103.301 C 125.500 103.966,125.924 104.000,134.167 104.000 C 142.468 104.000,142.833 103.969,142.833 103.273 C 142.833 103.159,143.096 102.811,143.417 102.500 L 144.000 101.935 144.000 90.384 L 144.000 78.833 145.958 78.826 C 147.035 78.822,148.254 78.740,148.667 78.643 C 149.079 78.546,150.161 78.415,151.071 78.353 C 152.133 78.279,152.750 78.166,152.794 78.036 C 152.836 77.909,153.213 77.833,153.806 77.832 C 154.325 77.832,154.965 77.719,155.227 77.582 C 155.490 77.445,155.827 77.333,155.977 77.332 C 156.127 77.332,156.442 77.231,156.678 77.108 C 156.913 76.985,157.316 76.832,157.573 76.768 C 157.830 76.703,158.149 76.541,158.282 76.408 C 158.415 76.275,158.659 76.167,158.825 76.167 C 158.990 76.167,159.219 76.054,159.333 75.917 C 159.447 75.779,159.677 75.667,159.844 75.667 C 160.011 75.667,160.194 75.591,160.252 75.497 C 160.309 75.404,160.595 75.224,160.886 75.096 C 161.178 74.968,161.635 74.669,161.901 74.432 C 162.167 74.194,162.447 74.000,162.522 74.000 C 162.777 74.000,166.045 70.753,166.463 70.083 C 166.692 69.717,166.984 69.304,167.111 69.167 C 167.239 69.029,167.491 68.736,167.672 68.516 L 168.000 68.116 168.000 71.980 C 168.000 75.038,168.052 75.969,168.250 76.442 C 168.387 76.771,168.500 77.350,168.501 77.729 C 168.502 78.107,168.614 78.631,168.751 78.894 C 168.888 79.157,169.000 79.633,169.000 79.952 C 169.000 80.272,169.108 80.769,169.240 81.058 C 169.372 81.347,169.562 81.899,169.661 82.285 C 169.761 82.670,169.915 83.031,170.005 83.086 C 170.094 83.141,170.167 83.398,170.167 83.656 C 170.167 83.914,170.279 84.219,170.417 84.333 C 170.554 84.447,170.667 84.710,170.667 84.917 C 170.667 85.123,170.779 85.386,170.917 85.500 C 171.054 85.614,171.167 85.805,171.167 85.924 C 171.167 86.243,172.523 88.833,172.690 88.833 C 172.769 88.833,172.833 88.972,172.833 89.141 C 172.833 89.310,172.965 89.607,173.125 89.800 C 173.756 90.558,174.000 90.907,174.000 91.049 C 174.000 91.130,174.206 91.425,174.458 91.703 C 174.710 91.982,175.029 92.336,175.167 92.490 C 178.410 96.126,178.354 96.067,179.333 96.865 C 179.746 97.200,180.458 97.817,180.917 98.235 C 181.375 98.653,181.828 98.996,181.924 98.997 C 182.020 98.999,182.245 99.115,182.424 99.255 C 183.405 100.024,184.678 100.735,186.667 101.623 C 186.987 101.767,187.449 101.985,187.692 102.109 C 187.936 102.232,188.353 102.333,188.619 102.333 C 188.885 102.333,189.249 102.443,189.426 102.578 C 189.604 102.713,190.012 102.828,190.333 102.833 C 190.654 102.839,191.062 102.954,191.240 103.089 C 191.418 103.223,191.777 103.333,192.038 103.333 C 192.298 103.333,192.712 103.465,192.957 103.625 C 193.362 103.890,193.989 103.917,199.826 103.917 C 205.676 103.917,206.287 103.891,206.662 103.625 C 206.889 103.465,207.301 103.333,207.579 103.332 C 207.856 103.332,208.298 103.219,208.561 103.082 C 208.823 102.945,209.350 102.833,209.732 102.833 C 210.517 102.833,210.912 102.609,212.042 101.524 L 212.833 100.763 212.833 92.970 L 212.833 85.178 212.056 84.297 C 211.628 83.813,211.159 83.366,211.014 83.303 C 210.497 83.082,206.928 83.153,206.579 83.392 C 206.398 83.516,205.665 83.665,204.950 83.724 C 204.235 83.783,203.509 83.906,203.336 83.999 C 202.943 84.209,201.719 84.219,201.591 84.013 C 201.539 83.929,200.999 83.806,200.392 83.741 C 199.784 83.676,199.091 83.521,198.852 83.396 C 198.612 83.271,198.291 83.168,198.139 83.168 C 197.683 83.166,195.785 82.197,194.255 81.185 C 192.927 80.307,192.574 79.992,192.432 79.558 C 192.376 79.389,192.106 78.996,191.832 78.686 C 191.558 78.375,191.333 78.045,191.333 77.951 C 191.333 77.858,191.156 77.549,190.939 77.264 C 190.722 76.979,190.492 76.509,190.428 76.218 C 190.364 75.928,190.204 75.600,190.073 75.491 C 189.941 75.382,189.833 75.091,189.833 74.845 C 189.833 74.599,189.723 74.251,189.589 74.074 C 189.454 73.896,189.342 73.523,189.339 73.245 C 189.336 72.968,189.213 72.569,189.066 72.359 C 188.677 71.803,188.679 66.209,189.068 65.297 C 189.214 64.956,189.336 64.469,189.339 64.214 C 189.342 63.959,189.454 63.604,189.589 63.426 C 189.723 63.249,189.833 62.899,189.833 62.649 C 189.833 62.399,189.890 62.169,189.960 62.139 C 190.029 62.108,190.422 61.408,190.833 60.583 C 191.244 59.758,191.719 58.933,191.889 58.750 C 192.059 58.567,192.415 58.105,192.680 57.723 C 192.945 57.342,193.444 56.859,193.789 56.649 C 194.134 56.439,194.454 56.222,194.500 56.167 C 194.666 55.967,196.278 55.040,196.676 54.916 C 196.900 54.846,197.231 54.686,197.412 54.561 C 197.593 54.436,197.902 54.333,198.100 54.333 C 198.298 54.333,198.553 54.221,198.667 54.083 C 198.801 53.921,199.173 53.833,199.729 53.832 C 200.199 53.832,200.798 53.719,201.061 53.582 C 201.621 53.290,204.004 53.238,204.278 53.511 C 204.376 53.609,205.046 53.734,205.767 53.788 C 206.514 53.845,207.174 53.983,207.301 54.110 C 207.461 54.270,208.054 54.333,209.394 54.333 L 211.264 54.333 212.305 53.321 L 213.346 52.310 213.298 44.324 L 213.250 36.339 213.741 36.136 C 214.011 36.024,214.783 35.385,215.456 34.716 C 216.880 33.302,216.736 33.351,217.417 34.042 C 219.277 35.928,220.684 36.833,221.754 36.833 C 222.062 36.833,222.360 36.908,222.417 37.000 C 222.555 37.223,227.612 37.223,227.750 37.000 C 227.807 36.908,228.156 36.833,228.526 36.833 C 228.896 36.833,229.398 36.730,229.641 36.605 C 229.884 36.479,230.356 36.259,230.689 36.116 C 231.022 35.974,231.567 35.618,231.899 35.326 C 232.588 34.722,232.567 34.714,233.777 36.000 L 234.483 36.750 237.521 36.833 L 240.559 36.917 239.988 37.338 C 239.674 37.570,239.117 37.956,238.750 38.196 C 237.575 38.966,233.667 42.984,233.667 43.421 C 233.667 43.547,233.560 43.710,233.429 43.783 C 233.078 43.980,231.500 47.100,231.500 47.597 C 231.500 47.832,231.392 48.132,231.260 48.264 C 231.128 48.396,230.975 48.859,230.920 49.294 C 230.865 49.728,230.729 50.383,230.618 50.750 C 230.330 51.702,230.336 59.570,230.625 59.858 C 230.740 59.973,230.833 60.280,230.833 60.540 C 230.833 60.800,230.983 61.307,231.167 61.667 C 231.350 62.026,231.500 62.469,231.500 62.650 C 231.500 62.832,231.570 63.024,231.656 63.077 C 231.838 63.189,232.667 64.895,232.667 65.156 C 232.667 65.254,232.737 65.333,232.822 65.333 C 232.908 65.333,233.029 65.495,233.091 65.692 C 233.154 65.889,233.410 66.399,233.661 66.824 L 234.117 67.597 232.888 68.908 C 232.213 69.629,231.616 70.394,231.562 70.609 C 231.508 70.824,231.398 71.000,231.318 71.000 C 231.237 71.000,231.039 71.281,230.877 71.625 C 230.588 72.242,230.583 72.186,230.500 67.384 L 230.417 62.518 229.833 61.905 C 229.512 61.568,228.957 61.076,228.600 60.813 L 227.950 60.333 219.329 60.333 C 211.869 60.333,210.680 60.367,210.500 60.583 C 210.386 60.721,210.213 60.833,210.116 60.833 C 210.019 60.833,209.616 61.181,209.220 61.606 L 208.500 62.380 208.500 68.796 L 208.500 75.213 209.503 76.183 C 210.792 77.428,210.146 77.359,219.858 77.300 C 227.722 77.252,228.149 77.234,228.483 76.933 L 228.833 76.615 228.839 81.183 C 228.844 84.828,228.893 85.834,229.083 86.167 C 229.214 86.396,229.324 86.831,229.327 87.133 C 229.331 87.436,229.436 87.886,229.561 88.133 C 229.686 88.381,229.840 88.865,229.902 89.208 C 229.964 89.552,230.087 89.833,230.174 89.833 C 230.262 89.833,230.335 89.927,230.336 90.042 C 230.339 90.270,230.978 91.523,231.732 92.780 C 232.783 94.531,238.896 100.167,239.745 100.167 C 239.875 100.167,240.025 100.239,240.080 100.328 C 240.195 100.514,241.780 101.333,242.026 101.333 C 242.116 101.333,242.303 101.446,242.440 101.583 C 242.578 101.721,242.854 101.836,243.054 101.839 C 243.253 101.842,243.562 101.954,243.740 102.089 C 243.918 102.223,244.293 102.336,244.574 102.339 C 244.854 102.342,245.229 102.454,245.407 102.589 C 245.585 102.723,246.039 102.833,246.415 102.833 C 246.792 102.833,247.171 102.904,247.258 102.991 C 247.446 103.178,249.282 103.613,250.917 103.858 C 252.645 104.117,257.888 103.931,258.369 103.594 C 258.573 103.451,258.968 103.331,259.245 103.327 C 259.523 103.324,259.938 103.214,260.167 103.083 C 260.396 102.952,260.850 102.842,261.176 102.839 C 261.503 102.836,261.915 102.723,262.093 102.589 C 262.271 102.454,262.593 102.342,262.808 102.339 C 263.023 102.336,263.398 102.230,263.641 102.104 C 264.425 101.698,265.616 101.167,265.744 101.167 C 265.812 101.167,266.202 100.942,266.609 100.667 C 267.017 100.392,267.410 100.167,267.483 100.167 C 267.600 100.167,267.863 99.974,268.621 99.333 C 268.734 99.238,269.147 98.943,269.538 98.677 C 270.333 98.138,272.994 95.446,273.750 94.417 C 274.020 94.050,274.302 93.675,274.378 93.583 C 274.667 93.234,275.592 91.730,275.788 91.292 C 276.010 90.796,276.333 90.675,276.333 91.089 C 276.333 91.229,276.446 91.387,276.583 91.440 C 276.721 91.492,276.833 91.633,276.833 91.751 C 276.833 92.394,282.255 98.500,282.826 98.500 C 282.902 98.500,283.253 98.761,283.607 99.079 C 283.960 99.398,284.352 99.661,284.476 99.663 C 284.600 99.665,284.975 99.875,285.309 100.130 C 286.068 100.709,288.339 101.832,288.765 101.839 C 288.940 101.842,289.229 101.954,289.407 102.089 C 289.585 102.223,289.960 102.336,290.240 102.339 C 290.521 102.342,290.896 102.454,291.074 102.589 C 291.251 102.723,291.706 102.833,292.083 102.833 C 292.461 102.833,292.915 102.943,293.093 103.078 C 293.271 103.213,293.621 103.325,293.872 103.328 C 294.122 103.331,294.647 103.465,295.038 103.625 C 296.089 104.056,303.394 104.050,304.053 103.618 C 304.293 103.462,304.702 103.333,304.962 103.333 C 305.223 103.333,305.582 103.223,305.760 103.089 C 305.938 102.954,306.388 102.842,306.760 102.839 C 307.132 102.836,307.582 102.723,307.760 102.589 C 307.938 102.454,308.259 102.342,308.475 102.339 C 309.133 102.330,312.567 100.691,313.261 100.055 C 313.478 99.855,313.827 99.639,314.036 99.573 C 314.245 99.507,315.619 98.260,317.088 96.802 C 319.466 94.440,320.124 93.634,320.987 92.027 C 321.117 91.785,321.323 91.486,321.445 91.364 C 321.567 91.243,321.667 91.007,321.667 90.842 C 321.667 90.676,321.779 90.447,321.917 90.333 C 322.054 90.219,322.167 89.994,322.167 89.832 C 322.167 89.670,322.279 89.323,322.416 89.061 C 322.553 88.798,322.665 88.379,322.666 88.130 C 322.666 87.796,322.732 87.702,322.917 87.773 C 323.054 87.826,323.167 88.030,323.167 88.226 C 323.167 88.606,324.259 90.830,324.930 91.818 C 325.152 92.144,325.333 92.468,325.333 92.538 C 325.333 93.457,331.510 100.021,333.076 100.766 C 333.355 100.898,334.108 101.301,334.750 101.660 C 335.392 102.019,336.067 102.319,336.250 102.328 C 336.433 102.337,336.729 102.454,336.907 102.589 C 337.085 102.723,337.460 102.836,337.740 102.839 C 338.021 102.842,338.396 102.954,338.574 103.089 C 338.751 103.223,339.054 103.333,339.245 103.333 C 339.436 103.333,339.778 103.465,340.005 103.625 C 340.607 104.051,350.456 104.069,351.346 103.645 C 352.253 103.214,353.023 102.970,353.879 102.843 C 354.317 102.779,354.763 102.637,354.871 102.529 C 354.978 102.422,355.262 102.333,355.501 102.333 C 355.741 102.333,356.082 102.223,356.260 102.089 C 356.438 101.954,356.747 101.842,356.946 101.839 C 357.146 101.836,357.422 101.721,357.560 101.583 C 357.697 101.446,357.857 101.333,357.915 101.333 C 358.203 101.333,359.842 100.447,360.188 100.103 C 360.406 99.888,360.746 99.661,360.944 99.599 C 361.335 99.477,365.833 95.054,365.833 94.791 C 365.833 94.703,366.058 94.347,366.333 94.000 C 366.608 93.653,366.833 93.310,366.833 93.239 C 366.833 93.168,366.937 92.991,367.063 92.846 C 367.417 92.441,368.500 90.355,368.500 90.079 C 368.500 89.944,368.572 89.833,368.660 89.833 C 368.748 89.833,368.912 89.515,369.024 89.125 C 369.136 88.735,369.327 88.269,369.447 88.088 C 369.568 87.907,369.669 87.607,369.672 87.421 C 369.675 87.235,369.785 86.941,369.917 86.767 C 370.127 86.489,370.162 87.385,370.203 93.955 L 370.250 101.460 371.042 102.306 C 371.477 102.772,371.833 103.270,371.833 103.414 C 371.833 103.941,372.681 104.000,380.253 104.000 C 387.903 104.000,388.667 103.945,388.667 103.390 C 388.667 103.268,388.948 102.856,389.292 102.476 L 389.917 101.784 389.917 68.704 L 389.917 35.625 388.852 34.646 L 387.788 33.667 380.231 33.667 L 372.673 33.667 371.545 34.686 C 370.070 36.020,370.192 35.171,370.175 44.167 C 370.161 50.893,370.126 52.008,369.938 51.583 C 369.292 50.123,369.167 49.806,369.167 49.638 C 369.167 49.536,369.017 49.126,368.833 48.727 C 368.650 48.327,368.345 47.644,368.155 47.208 C 367.696 46.153,367.377 45.559,366.808 44.700 C 366.547 44.306,366.333 43.939,366.333 43.884 C 366.333 43.786,365.295 42.463,364.878 42.030 C 364.762 41.909,364.667 41.755,364.667 41.687 C 364.667 41.350,361.025 38.063,360.027 37.500 C 359.783 37.362,359.321 37.062,359.001 36.833 C 358.284 36.320,357.004 35.681,356.667 35.667 C 356.529 35.661,356.271 35.546,356.093 35.411 C 355.915 35.277,355.578 35.164,355.343 35.161 C 355.109 35.158,354.771 35.046,354.593 34.911 C 354.415 34.777,354.001 34.667,353.672 34.667 C 353.343 34.667,352.923 34.561,352.738 34.431 C 351.772 33.755,341.125 33.748,339.772 34.422 C 339.503 34.557,339.045 34.667,338.756 34.667 C 338.467 34.667,338.085 34.777,337.907 34.911 C 337.729 35.046,337.345 35.158,337.054 35.161 C 336.762 35.164,336.411 35.279,336.274 35.417 C 336.136 35.554,335.913 35.667,335.778 35.667 C 335.407 35.667,333.929 36.387,333.272 36.889 C 332.951 37.133,332.588 37.333,332.465 37.333 C 332.342 37.333,332.015 37.540,331.739 37.792 C 331.463 38.044,331.041 38.378,330.803 38.534 C 330.160 38.955,326.501 42.523,326.495 42.735 C 326.493 42.835,326.185 43.254,325.811 43.667 C 325.437 44.079,325.025 44.642,324.894 44.917 C 324.764 45.192,324.361 45.884,323.999 46.455 C 323.638 47.026,323.291 47.701,323.229 47.955 C 323.167 48.209,323.016 48.565,322.892 48.745 C 322.768 48.926,322.667 49.198,322.667 49.350 C 322.667 49.502,322.558 49.716,322.426 49.826 C 322.294 49.935,322.162 50.295,322.134 50.625 C 322.058 51.522,321.667 51.533,321.666 50.639 C 321.664 49.998,321.117 48.056,320.702 47.222 C 320.618 47.054,320.370 46.542,320.150 46.085 C 319.054 43.803,315.329 39.628,312.917 37.977 C 311.189 36.794,311.234 36.921,312.220 35.980 L 313.083 35.156 313.083 32.762 C 313.083 30.716,313.041 30.321,312.792 30.046 C 312.631 29.869,312.500 29.603,312.500 29.455 C 312.500 29.307,312.435 29.146,312.355 29.097 C 312.275 29.047,311.997 28.574,311.736 28.045 C 311.475 27.516,311.063 26.821,310.820 26.500 C 310.577 26.179,310.325 25.748,310.261 25.542 C 310.197 25.335,310.086 25.167,310.016 25.167 C 309.467 25.167,309.530 24.292,310.126 23.620 C 310.811 22.847,311.075 22.463,311.352 21.833 C 311.453 21.604,311.593 21.302,311.663 21.161 C 311.734 21.021,311.846 20.654,311.914 20.346 L 312.037 19.787 314.393 19.901 C 317.780 20.065,318.277 19.932,319.713 18.476 C 320.334 17.846,320.915 17.139,321.005 16.905 C 321.232 16.307,321.211 12.397,320.978 11.947 C 320.750 11.507,318.974 9.667,318.776 9.667 C 318.699 9.667,318.447 9.518,318.217 9.337 C 317.826 9.029,317.530 9.007,313.774 9.007 C 309.114 9.006,308.886 9.034,308.178 9.681 C 307.549 10.256,307.352 10.275,306.629 9.834 C 306.329 9.651,305.930 9.501,305.742 9.501 C 305.554 9.500,305.306 9.406,305.192 9.292 C 305.031 9.131,303.182 9.083,297.088 9.083 L 289.193 9.083 288.097 10.230 L 287.000 11.376 287.000 14.438 L 287.000 17.500 281.583 17.500 L 276.167 17.500 276.167 14.417 C 276.167 11.432,276.155 11.322,275.792 10.989 C 275.585 10.799,275.063 10.293,274.630 9.864 L 273.843 9.083 270.557 9.031 C 266.644 8.970,266.803 8.938,265.673 9.994 C 264.585 11.010,264.776 11.014,263.708 9.958 L 262.822 9.083 259.119 9.083 L 255.417 9.083 254.849 9.615 L 254.282 10.146 251.349 10.198 L 248.417 10.250 247.784 9.667 L 247.151 9.083 241.117 9.035 C 234.269 8.980,234.518 8.953,233.694 9.845 L 233.080 10.510 232.081 9.584 C 231.532 9.074,230.896 8.611,230.667 8.553 C 230.438 8.496,230.213 8.401,230.167 8.342 C 229.613 7.632,228.864 7.500,225.403 7.500 L 221.991 7.500 220.773 8.125 C 219.371 8.844,218.810 9.244,217.503 10.453 L 216.563 11.324 215.652 10.453 C 215.150 9.975,214.566 9.471,214.354 9.333 C 214.142 9.196,213.814 8.952,213.626 8.792 C 213.437 8.631,213.163 8.498,213.016 8.495 C 212.870 8.492,212.604 8.379,212.426 8.245 C 212.249 8.110,211.999 8.000,211.873 8.000 C 211.746 8.000,211.530 7.888,211.393 7.750 C 211.030 7.387,205.386 7.382,204.907 7.745 C 204.729 7.879,204.452 7.992,204.291 7.995 C 203.751 8.004,201.632 9.243,200.770 10.052 C 200.301 10.493,199.828 10.929,199.719 11.022 C 199.578 11.141,199.325 10.986,198.836 10.483 C 198.029 9.651,196.524 8.500,196.243 8.500 C 196.135 8.500,195.625 8.275,195.110 8.000 L 194.173 7.500 191.250 7.500 C 188.353 7.500,188.319 7.504,187.433 7.977 C 186.942 8.239,186.343 8.503,186.103 8.564 C 185.863 8.624,185.667 8.747,185.667 8.837 C 185.667 8.926,185.549 9.000,185.406 9.000 C 185.262 9.000,184.761 9.372,184.293 9.826 L 183.440 10.652 182.803 10.076 C 182.453 9.759,182.110 9.499,182.041 9.497 C 181.973 9.496,181.663 9.271,181.352 8.997 C 181.042 8.724,180.667 8.498,180.519 8.495 C 180.371 8.492,180.104 8.379,179.926 8.245 C 179.749 8.110,179.476 8.000,179.322 8.000 C 179.167 8.000,178.947 7.887,178.833 7.750 C 178.526 7.380,172.474 7.380,172.167 7.750 C 172.053 7.888,171.875 8.003,171.771 8.006 C 171.668 8.009,171.283 8.156,170.917 8.333 C 170.550 8.510,170.188 8.658,170.113 8.661 C 169.946 8.668,169.949 8.665,167.763 10.822 C 166.793 11.778,166.000 12.642,166.000 12.741 C 166.000 12.840,165.850 13.201,165.667 13.544 C 165.404 14.033,165.333 14.484,165.333 15.666 L 165.333 17.167 162.292 17.167 L 159.250 17.167 159.222 14.792 C 159.181 11.287,159.174 11.151,158.985 10.316 C 158.846 9.700,158.600 9.343,157.732 8.495 L 156.652 7.441 152.451 7.430 L 148.250 7.419 147.417 7.931 C 146.958 8.213,146.370 8.498,146.108 8.563 C 145.612 8.687,144.575 9.375,143.516 10.284 L 142.894 10.818 142.485 10.352 C 142.260 10.095,141.895 9.789,141.673 9.670 C 141.451 9.551,141.077 9.276,140.843 9.058 C 140.608 8.841,140.267 8.620,140.083 8.568 C 139.620 8.436,138.674 8.031,138.113 7.724 C 137.581 7.433,127.385 7.219,126.402 7.478 M137.000 9.428 C 138.978 9.824,140.192 10.463,141.587 11.842 C 143.003 13.243,142.778 13.240,144.242 11.873 C 146.477 9.785,148.317 9.165,152.249 9.171 C 155.623 9.176,156.052 9.273,156.969 10.243 L 157.689 11.004 157.636 13.822 C 157.564 17.673,156.773 18.498,153.822 17.800 C 149.205 16.706,146.967 24.354,151.310 26.386 C 152.445 26.917,152.628 26.937,154.667 26.746 L 155.917 26.629 156.667 27.296 L 157.417 27.962 157.448 30.523 C 157.504 35.040,157.115 35.411,152.114 35.622 C 149.863 35.717,149.598 35.886,151.258 36.167 C 157.814 37.277,161.700 39.227,165.041 43.083 C 166.671 44.964,167.202 45.966,168.221 49.083 C 168.737 50.665,168.999 57.190,168.669 60.250 C 167.777 68.499,161.520 74.744,152.417 76.468 C 149.103 77.095,148.408 77.167,145.616 77.167 C 143.589 77.167,142.817 77.222,142.718 77.375 C 142.644 77.490,142.583 82.857,142.583 89.303 L 142.583 101.022 141.881 101.678 L 141.180 102.333 134.241 102.333 C 126.588 102.333,126.768 102.357,126.054 101.276 L 125.707 100.750 125.793 68.713 L 125.879 36.676 126.356 36.141 C 126.938 35.490,126.938 35.488,126.399 34.987 C 125.644 34.285,125.645 34.310,125.769 22.027 L 125.887 10.284 126.368 9.736 C 126.633 9.434,127.014 9.150,127.216 9.104 C 128.106 8.901,135.607 9.150,137.000 9.428 M228.357 9.472 C 230.112 9.958,231.626 11.043,232.921 12.741 C 233.513 13.518,233.833 13.513,233.833 12.728 C 233.833 12.236,233.969 11.987,234.561 11.395 L 235.289 10.667 240.811 10.667 L 246.332 10.667 246.988 11.259 C 247.349 11.585,247.693 12.073,247.752 12.343 C 247.891 12.975,248.274 12.970,248.903 12.329 L 249.389 11.833 252.088 11.833 L 254.786 11.833 255.518 11.252 L 256.250 10.670 259.019 10.668 C 261.635 10.667,261.815 10.687,262.269 11.040 C 263.381 11.904,263.322 11.530,263.328 17.686 C 263.335 24.921,263.566 24.526,259.250 24.664 L 256.583 24.750 256.532 25.555 C 256.446 26.898,256.357 26.872,260.749 26.807 C 266.359 26.724,265.877 27.481,265.995 18.559 C 266.106 10.122,265.807 10.667,270.329 10.667 L 273.007 10.667 273.754 11.355 L 274.500 12.042 274.500 15.321 C 274.500 17.649,274.558 18.658,274.700 18.800 C 275.109 19.209,289.500 19.074,289.500 18.661 C 289.500 18.475,289.385 18.279,289.245 18.225 C 288.733 18.029,288.638 17.474,288.658 14.802 C 288.692 10.399,288.194 10.633,297.367 10.705 C 305.119 10.766,305.185 10.774,306.780 11.859 C 307.649 12.451,307.728 12.449,308.283 11.826 C 309.211 10.784,309.649 10.634,311.455 10.735 C 313.516 10.851,313.783 10.851,315.477 10.735 C 318.239 10.547,319.667 11.830,319.667 14.500 C 319.667 16.068,319.513 16.439,318.423 17.500 L 317.653 18.250 315.952 18.231 C 315.016 18.221,313.987 18.201,313.667 18.186 C 313.346 18.172,312.483 18.218,311.750 18.289 L 310.417 18.417 310.305 19.433 C 310.146 20.871,309.869 21.420,308.609 22.793 C 307.310 24.209,307.354 24.013,308.070 25.167 C 311.105 30.055,311.560 31.017,311.641 32.710 L 311.702 34.004 311.027 34.679 L 310.352 35.354 307.270 35.302 L 304.188 35.250 303.671 34.754 C 303.387 34.482,302.897 33.732,302.584 33.088 C 301.247 30.343,301.443 30.369,299.202 32.652 C 296.703 35.197,296.614 35.235,292.966 35.304 L 290.016 35.360 289.344 34.722 L 288.672 34.083 288.648 31.379 L 288.624 28.676 289.149 28.078 C 289.960 27.154,290.059 27.167,282.079 27.167 C 273.734 27.167,274.559 27.021,274.183 28.562 C 273.587 31.004,270.966 33.820,268.417 34.756 C 267.239 35.189,256.910 35.294,256.037 34.882 C 255.125 34.452,254.833 33.932,254.833 32.737 C 254.833 31.318,254.682 31.301,253.322 32.560 C 250.691 34.995,250.382 35.063,241.864 35.074 L 235.144 35.083 234.489 34.381 C 233.864 33.713,233.833 33.628,233.833 32.590 C 233.833 31.191,233.692 31.198,232.368 32.664 C 228.326 37.137,220.560 36.517,217.261 31.458 C 217.096 31.206,216.860 31.000,216.735 31.000 C 216.610 31.000,216.380 31.206,216.225 31.458 C 214.811 33.751,212.621 35.103,209.259 35.760 C 208.660 35.877,208.927 36.097,209.858 36.254 C 210.272 36.324,210.694 36.582,211.153 37.045 L 211.833 37.732 211.833 44.568 L 211.833 51.403 211.216 52.035 C 210.542 52.725,208.935 52.923,207.499 52.492 C 201.202 50.606,193.892 52.961,190.409 57.996 C 184.117 67.093,187.108 80.373,196.324 84.255 C 199.750 85.699,202.249 85.900,206.504 85.076 C 207.193 84.943,208.328 84.833,209.026 84.833 L 210.295 84.833 210.897 85.500 L 211.500 86.168 211.500 92.904 L 211.500 99.641 211.065 100.158 C 209.087 102.509,196.783 103.057,190.250 101.083 C 182.921 98.870,176.372 93.152,172.975 86.000 C 172.518 85.037,172.083 84.134,172.009 83.993 C 171.610 83.235,170.541 79.380,169.998 76.742 C 169.310 73.398,169.230 65.575,169.850 62.333 C 173.181 44.913,184.803 34.915,201.208 35.355 C 203.921 35.428,204.167 35.327,203.042 34.601 C 202.698 34.380,201.821 33.594,201.094 32.856 L 199.771 31.513 198.344 32.886 C 194.705 36.386,188.365 36.557,184.714 33.253 C 183.465 32.123,183.520 32.122,182.260 33.292 C 176.798 38.364,166.184 34.648,166.169 27.658 C 166.166 26.266,166.460 26.333,160.364 26.333 L 154.961 26.333 154.314 25.686 L 153.667 25.039 153.667 22.583 L 153.667 20.127 154.314 19.480 L 154.961 18.833 160.605 18.831 C 163.710 18.829,166.342 18.770,166.454 18.699 C 166.584 18.616,166.685 17.964,166.732 16.909 C 166.943 12.186,170.261 9.340,175.564 9.335 C 178.768 9.332,180.055 9.799,182.043 11.687 C 183.509 13.078,183.407 13.075,184.655 11.775 C 186.478 9.877,187.922 9.338,191.200 9.335 C 194.678 9.332,196.089 9.902,198.224 12.172 C 199.727 13.769,199.365 13.778,201.042 12.101 C 205.245 7.898,212.185 8.286,215.685 12.921 C 216.462 13.951,216.720 14.035,217.065 13.369 C 218.727 10.155,224.115 8.295,228.357 9.472 M128.042 11.268 C 127.745 11.401,127.736 33.003,128.033 33.300 C 128.317 33.584,131.931 33.576,132.115 33.292 C 132.189 33.177,132.287 29.146,132.333 24.333 L 132.417 15.583 133.040 15.532 C 134.108 15.443,135.688 15.936,136.227 16.525 C 137.436 17.848,136.189 20.167,134.267 20.167 C 133.406 20.167,132.870 22.990,133.506 24.178 C 133.833 24.788,136.927 24.340,138.497 23.454 C 142.716 21.074,142.679 14.274,138.437 12.267 C 136.684 11.438,129.255 10.723,128.042 11.268 M150.067 11.403 C 139.402 13.844,139.217 31.110,149.833 33.255 C 151.394 33.570,153.414 33.519,154.583 33.135 L 155.250 32.915 155.250 30.929 L 155.250 28.942 153.167 28.930 C 149.640 28.908,147.759 27.467,146.938 24.156 C 145.714 19.220,149.646 14.592,154.175 15.637 C 155.460 15.934,155.520 15.838,155.464 13.602 C 155.417 11.768,155.413 11.752,154.958 11.534 C 154.270 11.205,151.281 11.125,150.067 11.403 M173.583 11.648 C 169.425 12.859,167.700 16.703,169.625 20.470 C 170.478 22.140,170.477 22.106,169.759 22.944 C 166.241 27.054,168.863 32.418,174.842 33.346 C 180.992 34.300,185.471 27.472,181.559 23.107 C 180.721 22.172,180.691 22.002,181.231 21.281 C 184.028 17.548,181.863 12.510,177.033 11.515 C 175.816 11.264,174.762 11.305,173.583 11.648 M189.250 11.648 C 184.824 12.937,183.179 17.179,185.609 21.038 C 186.141 21.884,186.110 22.086,185.285 23.156 C 182.778 26.405,183.903 30.740,187.722 32.549 C 194.569 35.790,201.896 28.794,197.416 23.291 C 196.324 21.950,196.343 22.141,197.167 20.873 C 200.356 15.965,195.171 9.924,189.250 11.648 M206.167 11.644 C 201.972 12.734,200.000 16.101,200.000 22.172 C 200.000 29.871,203.514 34.277,209.029 33.496 C 213.664 32.839,215.859 29.375,215.889 22.667 C 215.900 20.083,215.831 19.568,215.133 17.083 C 213.916 12.743,210.323 10.564,206.167 11.644 M223.000 11.601 C 219.270 12.769,217.560 15.642,217.221 21.310 C 216.677 30.392,222.547 35.926,229.048 32.461 C 234.635 29.483,234.597 15.022,228.994 12.164 C 227.343 11.322,224.688 11.072,223.000 11.601 M310.575 12.897 C 308.508 13.813,309.805 16.976,311.891 16.105 C 313.049 15.621,313.320 14.335,312.458 13.420 C 311.818 12.741,311.272 12.589,310.575 12.897 M315.333 12.784 C 313.680 13.386,313.810 15.879,315.515 16.253 C 316.691 16.512,317.901 15.049,317.434 13.933 C 317.068 13.057,316.075 12.514,315.333 12.784 M236.082 13.003 C 235.829 13.412,235.848 16.491,236.106 16.748 C 236.465 17.108,245.188 17.126,245.485 16.768 C 245.612 16.615,245.662 15.917,245.631 14.726 L 245.583 12.917 240.886 12.872 C 237.750 12.843,236.154 12.886,236.082 13.003 M256.934 13.097 C 256.731 13.627,256.822 22.088,257.033 22.300 C 257.165 22.432,257.867 22.500,259.083 22.500 C 260.300 22.500,261.002 22.432,261.133 22.300 C 261.418 22.015,261.418 13.318,261.133 13.033 C 260.803 12.703,257.064 12.760,256.934 13.097 M268.101 13.097 C 268.046 13.242,267.998 16.148,267.996 19.555 C 267.990 29.104,268.254 28.723,261.583 28.800 C 256.460 28.860,256.833 28.687,256.833 30.999 C 256.833 33.159,256.445 33.000,261.716 33.000 C 268.675 33.000,270.568 32.057,272.059 27.849 C 272.458 26.721,272.708 13.866,272.343 13.185 C 272.091 12.714,268.278 12.635,268.101 13.097 M290.768 13.097 C 290.578 13.591,290.657 16.424,290.867 16.633 C 291.015 16.781,292.599 16.833,296.963 16.833 L 302.859 16.833 303.346 17.321 C 304.241 18.215,304.324 18.092,299.170 23.500 C 297.379 25.379,295.547 27.309,295.099 27.789 C 294.068 28.892,293.176 29.333,291.981 29.333 C 290.737 29.333,290.667 29.441,290.667 31.361 C 290.667 33.401,290.698 33.427,292.989 33.267 C 295.702 33.077,295.586 33.143,298.627 30.071 C 300.117 28.565,301.406 27.333,301.491 27.333 C 301.863 27.333,303.312 29.483,304.575 31.911 C 304.907 32.549,305.270 33.129,305.381 33.200 C 305.620 33.352,308.854 33.379,309.236 33.232 C 309.975 32.949,308.849 30.565,305.716 25.782 C 304.442 23.837,304.418 24.054,306.104 22.282 C 307.673 20.633,308.167 19.743,308.165 18.572 C 308.160 16.135,306.593 13.973,304.249 13.166 C 302.914 12.707,290.941 12.645,290.768 13.097 M250.106 14.370 C 250.050 14.579,250.004 17.360,250.002 20.550 C 249.999 28.978,250.329 28.667,241.391 28.667 C 237.604 28.667,236.154 28.720,236.066 28.861 C 235.913 29.109,235.917 32.564,236.071 32.813 C 236.272 33.138,247.546 33.067,248.678 32.734 C 251.158 32.004,253.419 29.771,254.072 27.406 C 254.307 26.555,254.339 25.552,254.298 20.250 L 254.250 14.083 252.229 14.037 C 250.248 13.991,250.206 13.998,250.106 14.370 M176.423 15.764 C 177.916 16.472,177.957 18.730,176.489 19.338 C 175.147 19.894,173.661 18.989,173.673 17.622 C 173.686 15.989,175.011 15.094,176.423 15.764 M192.372 15.919 C 193.982 17.013,193.284 19.497,191.367 19.499 C 190.146 19.501,189.330 18.699,189.339 17.505 C 189.350 15.841,190.994 14.982,192.372 15.919 M226.078 15.904 C 228.742 17.017,229.239 25.703,226.785 28.289 C 224.510 30.686,222.173 27.573,222.168 22.140 C 222.164 17.579,223.809 14.956,226.078 15.904 M209.362 16.439 C 212.154 19.090,211.449 28.982,208.453 29.193 C 206.693 29.316,205.629 27.960,205.097 24.915 C 204.075 19.074,206.681 13.895,209.362 16.439 M224.848 18.951 C 224.243 20.278,224.246 24.326,224.852 25.591 C 225.840 27.653,226.729 22.275,225.841 19.606 C 225.445 18.416,225.173 18.237,224.848 18.951 M207.504 19.375 C 207.408 19.765,207.255 20.355,207.165 20.686 C 206.817 21.958,207.245 25.645,207.804 26.204 C 208.680 27.080,209.308 23.144,208.735 20.368 C 208.348 18.491,207.827 18.070,207.504 19.375 M292.902 19.023 C 292.802 19.186,293.009 19.667,293.180 19.667 C 293.635 19.667,293.833 20.704,293.833 23.075 C 293.833 26.048,293.702 26.032,296.235 23.375 C 299.658 19.785,300.035 19.356,299.965 19.146 C 299.891 18.924,293.037 18.805,292.902 19.023 M236.167 19.330 C 235.888 19.506,235.784 22.258,236.029 22.961 L 236.160 23.339 240.872 23.294 L 245.583 23.250 245.631 21.419 C 245.672 19.842,245.639 19.559,245.391 19.377 C 245.040 19.120,236.566 19.077,236.167 19.330 M152.000 22.335 L 152.000 25.003 151.509 24.565 C 151.239 24.324,150.971 23.912,150.913 23.649 C 150.855 23.386,150.738 23.128,150.654 23.075 C 150.457 22.954,150.452 21.716,150.648 21.595 C 150.730 21.544,150.848 21.296,150.910 21.043 C 151.003 20.666,151.757 19.667,151.948 19.667 C 151.977 19.667,152.000 20.867,152.000 22.335 M296.667 20.467 C 296.667 20.541,296.404 20.856,296.083 21.167 L 295.500 21.732 295.500 21.296 C 295.500 21.057,295.454 20.742,295.399 20.597 C 295.317 20.383,295.426 20.333,295.982 20.333 C 296.359 20.333,296.667 20.394,296.667 20.467 M155.839 21.156 C 155.599 21.605,155.619 23.719,155.867 23.967 C 156.152 24.252,166.014 24.252,166.300 23.967 C 166.567 23.699,166.567 21.301,166.300 21.033 C 165.910 20.644,156.052 20.759,155.839 21.156 M274.462 21.229 C 274.199 21.491,274.191 24.591,274.452 24.852 C 274.540 24.940,278.178 24.985,283.093 24.960 L 291.583 24.917 291.631 23.191 C 291.662 22.062,291.612 21.385,291.486 21.233 C 291.201 20.890,274.805 20.886,274.462 21.229 M247.036 24.875 L 246.494 25.417 240.872 25.500 L 235.250 25.583 235.250 26.000 L 235.250 26.417 241.008 26.417 C 247.328 26.417,247.461 26.397,247.845 25.386 C 248.226 24.384,247.797 24.113,247.036 24.875 M176.931 24.911 C 178.287 25.799,178.348 27.884,177.044 28.796 C 176.002 29.525,174.951 29.424,173.981 28.501 C 171.983 26.601,174.617 23.395,176.931 24.911 M192.693 25.019 C 194.532 26.328,193.603 29.232,191.346 29.230 C 188.868 29.229,188.014 25.954,190.202 24.846 C 191.042 24.421,191.941 24.483,192.693 25.019 M139.072 25.735 C 138.753 25.959,135.973 26.607,134.917 26.704 L 134.417 26.750 134.372 30.493 C 134.329 34.024,134.307 34.256,133.979 34.605 C 133.339 35.287,133.611 35.333,138.302 35.339 C 140.748 35.342,144.210 35.450,145.995 35.577 C 149.617 35.836,150.892 35.668,148.446 35.255 C 145.134 34.695,140.947 30.259,140.261 26.583 C 140.062 25.516,139.727 25.276,139.072 25.735 M138.969 28.125 C 139.065 28.377,139.195 28.762,139.257 28.981 C 139.419 29.551,140.401 31.154,140.994 31.814 C 141.272 32.125,141.500 32.425,141.501 32.481 C 141.501 32.537,141.730 32.827,142.009 33.125 L 142.517 33.667 139.258 33.667 L 136.000 33.667 136.000 30.917 L 136.000 28.167 136.550 28.167 C 136.852 28.167,137.171 28.097,137.258 28.013 C 137.395 27.880,137.657 27.818,138.605 27.692 C 138.708 27.678,138.872 27.873,138.969 28.125 M164.654 28.292 C 164.658 29.898,165.063 31.210,165.790 31.970 C 165.905 32.091,166.000 32.269,166.000 32.365 C 166.000 32.813,168.522 35.096,170.055 36.036 C 170.715 36.440,171.910 36.833,172.481 36.833 C 172.847 36.833,173.193 36.908,173.250 37.000 C 173.311 37.099,174.332 37.167,175.750 37.167 C 177.168 37.167,178.189 37.099,178.250 37.000 C 178.307 36.908,178.667 36.831,179.052 36.828 C 179.436 36.825,180.050 36.677,180.417 36.500 C 180.783 36.323,181.162 36.175,181.257 36.172 C 181.353 36.169,181.878 35.756,182.424 35.255 C 183.611 34.165,183.438 34.192,184.252 34.964 C 184.617 35.311,185.274 35.780,185.710 36.006 C 186.526 36.428,186.486 36.833,185.630 36.833 C 185.461 36.833,185.280 36.946,185.227 37.083 C 185.174 37.221,184.994 37.333,184.827 37.333 C 184.660 37.333,184.411 37.446,184.274 37.583 C 184.136 37.721,183.961 37.833,183.883 37.833 C 183.435 37.833,179.759 40.700,178.626 41.933 C 178.466 42.107,178.220 42.362,178.080 42.500 C 176.532 44.021,174.502 46.344,174.497 46.600 C 174.496 46.683,174.317 46.918,174.101 47.123 C 173.718 47.485,172.492 49.453,172.281 50.042 C 172.224 50.202,172.100 50.333,172.005 50.333 C 171.911 50.333,171.833 50.419,171.833 50.523 C 171.833 50.707,171.372 51.774,170.896 52.692 C 170.770 52.936,170.667 53.254,170.667 53.401 C 170.667 53.547,170.554 53.667,170.417 53.667 C 170.209 53.667,170.167 53.342,170.167 51.745 C 170.167 50.413,170.090 49.639,169.917 49.224 C 169.779 48.895,169.666 48.429,169.666 48.188 C 169.665 47.947,169.553 47.535,169.416 47.273 C 169.279 47.010,169.167 46.717,169.167 46.622 C 169.167 46.401,168.327 44.611,168.172 44.500 C 168.107 44.454,167.839 44.042,167.575 43.583 C 167.062 42.692,162.939 38.500,162.575 38.500 C 162.455 38.500,162.257 38.400,162.136 38.278 C 161.890 38.033,161.370 37.742,160.000 37.084 C 159.496 36.842,158.884 36.537,158.641 36.405 C 158.398 36.274,158.079 36.167,157.933 36.167 C 157.535 36.167,157.603 36.016,158.292 35.367 L 158.917 34.778 158.968 31.306 L 159.019 27.833 161.836 27.833 L 164.653 27.833 164.654 28.292 M287.000 31.732 L 287.000 34.630 287.579 35.273 C 288.243 36.010,288.291 36.167,287.856 36.167 C 287.685 36.167,287.354 36.317,287.121 36.500 C 286.888 36.683,286.582 36.833,286.440 36.833 C 286.299 36.833,286.123 36.927,286.050 37.042 C 285.977 37.156,285.642 37.400,285.307 37.583 C 284.182 38.198,281.827 40.363,280.333 42.155 C 279.921 42.650,279.507 43.137,279.413 43.236 C 279.180 43.483,277.965 45.607,277.617 46.375 C 276.950 47.846,276.852 48.113,276.776 48.667 C 276.521 50.515,276.036 50.882,275.749 49.444 C 275.644 48.921,275.470 48.404,275.363 48.296 C 275.255 48.188,275.162 47.946,275.157 47.758 C 275.141 47.164,273.456 44.215,272.417 42.961 C 270.452 40.591,266.879 37.333,266.244 37.333 C 265.452 37.333,265.975 36.866,266.872 36.772 C 267.428 36.714,267.965 36.601,268.066 36.521 C 268.167 36.441,268.600 36.325,269.028 36.263 C 269.456 36.201,269.896 36.042,270.007 35.908 C 270.117 35.775,270.274 35.667,270.355 35.667 C 270.991 35.667,274.297 32.570,274.566 31.722 C 274.628 31.525,274.789 31.272,274.923 31.161 C 275.057 31.050,275.167 30.828,275.167 30.667 C 275.167 30.506,275.271 30.287,275.399 30.181 C 275.527 30.075,275.681 29.728,275.740 29.411 L 275.848 28.833 281.424 28.833 L 287.000 28.833 287.000 31.732 M300.984 33.708 C 301.186 33.972,301.155 34.000,300.661 34.000 C 300.125 34.000,300.121 33.994,300.418 33.666 C 300.584 33.482,300.729 33.350,300.741 33.374 C 300.752 33.397,300.861 33.548,300.984 33.708 M41.667 34.117 C 40.856 34.411,39.500 36.243,39.500 37.045 C 39.500 37.485,39.388 38.016,39.251 38.226 C 39.113 38.435,38.953 39.089,38.894 39.678 C 38.836 40.268,38.718 40.839,38.633 40.947 C 38.548 41.055,38.435 41.580,38.383 42.113 C 38.330 42.647,38.185 43.286,38.060 43.533 C 37.935 43.781,37.833 44.278,37.833 44.638 C 37.833 44.998,37.721 45.562,37.583 45.891 C 37.446 46.220,37.333 46.858,37.333 47.308 C 37.333 47.832,37.243 48.200,37.083 48.333 C 36.928 48.462,36.833 48.828,36.833 49.298 C 36.833 50.792,36.219 51.658,35.712 50.878 C 35.550 50.627,35.304 50.302,35.167 50.154 C 32.399 47.188,31.555 46.258,31.417 46.020 C 31.216 45.676,30.564 44.940,29.333 43.672 C 28.829 43.152,27.892 42.101,27.250 41.337 C 26.608 40.572,25.858 39.708,25.583 39.417 C 24.187 37.937,23.171 36.823,22.436 35.965 C 21.069 34.369,20.665 34.167,18.844 34.167 L 17.289 34.167 16.020 35.462 C 14.249 37.269,11.933 39.830,11.833 40.091 C 11.764 40.273,9.925 42.356,8.988 43.315 C 8.844 43.463,8.545 43.846,8.324 44.167 C 8.102 44.487,7.620 45.058,7.252 45.435 C 6.180 46.534,6.000 46.995,6.000 48.647 L 6.000 50.100 6.826 51.026 C 7.415 51.688,8.010 52.130,8.909 52.574 C 10.295 53.259,10.530 53.815,9.926 54.982 C 9.793 55.238,9.635 55.853,9.575 56.349 C 9.514 56.845,9.360 57.571,9.232 57.964 C 9.105 58.357,9.000 58.930,9.000 59.237 C 9.000 59.544,8.888 60.010,8.751 60.273 C 8.614 60.535,8.502 61.098,8.501 61.523 C 8.500 61.948,8.388 62.510,8.251 62.773 C 8.114 63.035,7.999 63.587,7.996 64.000 C 7.992 64.412,7.879 64.896,7.745 65.074 C 7.600 65.264,7.500 65.763,7.500 66.288 C 7.500 66.798,7.393 67.341,7.251 67.559 C 7.113 67.768,6.953 68.422,6.894 69.011 C 6.836 69.601,6.720 70.169,6.638 70.274 C 6.556 70.379,6.447 70.866,6.397 71.357 C 6.346 71.848,6.199 72.533,6.069 72.878 C 5.939 73.224,5.833 73.846,5.833 74.262 C 5.833 74.677,5.716 75.244,5.572 75.521 C 5.359 75.933,5.321 76.529,5.364 78.761 L 5.417 81.497 6.210 82.290 L 7.004 83.083 8.809 83.139 C 10.287 83.185,10.663 83.147,10.879 82.931 C 11.024 82.785,11.227 82.667,11.331 82.667 C 11.540 82.667,12.843 82.118,13.526 81.743 C 13.769 81.609,14.079 81.500,14.214 81.500 C 14.349 81.500,14.553 81.387,14.667 81.250 C 14.781 81.112,15.010 81.000,15.175 81.000 C 15.341 81.000,15.589 80.888,15.726 80.750 C 15.864 80.613,16.101 80.500,16.254 80.500 C 16.529 80.500,16.746 80.406,18.116 79.696 C 18.501 79.497,18.923 79.333,19.054 79.333 C 19.185 79.333,19.386 79.221,19.500 79.083 C 19.614 78.946,19.888 78.833,20.109 78.833 C 20.330 78.833,20.554 78.721,20.606 78.583 C 20.659 78.446,20.806 78.333,20.932 78.333 C 21.058 78.333,21.557 77.963,22.039 77.510 L 22.917 76.686 22.963 74.885 C 23.012 73.010,22.879 72.463,22.284 72.100 C 22.119 71.999,21.492 71.446,20.892 70.871 C 20.291 70.295,19.545 69.630,19.233 69.393 C 18.594 68.905,18.436 67.736,18.922 67.093 C 19.065 66.904,19.167 66.406,19.167 65.898 C 19.167 65.389,19.282 64.825,19.445 64.542 C 19.774 63.969,19.747 63.950,21.191 65.760 C 21.702 66.399,22.584 67.395,23.152 67.971 C 23.719 68.548,24.452 69.372,24.780 69.802 C 25.107 70.232,26.154 71.414,27.106 72.429 C 28.058 73.444,29.005 74.495,29.210 74.766 C 29.779 75.516,30.295 76.097,31.750 77.625 C 32.483 78.395,33.121 79.123,33.167 79.243 C 33.309 79.617,35.884 82.323,36.509 82.756 C 37.027 83.115,37.282 83.167,38.547 83.167 L 39.994 83.167 41.080 82.145 C 41.678 81.583,42.167 80.987,42.167 80.821 C 42.167 80.205,42.556 80.317,43.439 81.188 L 44.345 82.083 62.474 82.083 L 80.603 82.083 81.635 81.032 C 82.203 80.454,82.667 79.832,82.667 79.649 C 82.667 79.466,82.770 79.114,82.896 78.867 C 83.022 78.619,83.159 77.766,83.199 76.971 C 83.239 76.175,83.359 75.420,83.466 75.291 C 83.572 75.163,83.703 74.502,83.757 73.821 C 83.910 71.878,84.119 71.324,84.395 72.125 C 84.451 72.285,84.647 72.642,84.832 72.917 C 85.016 73.192,85.270 73.634,85.395 73.900 C 85.760 74.669,87.630 76.656,90.583 79.410 C 91.042 79.838,91.792 80.410,92.250 80.683 C 92.708 80.955,93.196 81.245,93.333 81.327 C 93.850 81.636,95.114 82.167,95.344 82.172 C 95.476 82.175,95.729 82.287,95.907 82.422 C 96.085 82.557,96.472 82.667,96.768 82.667 C 97.064 82.667,97.336 82.758,97.373 82.869 C 97.496 83.237,105.383 83.683,105.724 83.342 C 105.821 83.245,106.575 83.166,107.408 83.166 C 108.338 83.165,109.080 83.079,109.342 82.943 C 109.575 82.821,110.130 82.671,110.575 82.610 C 111.019 82.549,111.466 82.435,111.567 82.356 C 111.667 82.277,111.973 82.159,112.246 82.094 C 112.901 81.937,114.363 80.410,114.833 79.392 C 115.038 78.947,115.272 78.471,115.353 78.333 C 115.434 78.196,115.568 77.933,115.650 77.750 C 115.732 77.567,116.037 76.892,116.328 76.250 C 116.910 74.966,117.197 74.317,117.602 73.375 C 117.749 73.031,117.937 72.637,118.019 72.500 C 118.102 72.362,118.217 72.137,118.276 72.000 C 118.334 71.862,118.526 71.412,118.701 71.000 C 119.114 70.030,119.494 69.195,119.775 68.641 C 119.899 68.398,120.000 68.088,120.000 67.953 C 120.000 67.818,120.112 67.614,120.250 67.500 C 120.388 67.386,120.500 67.114,120.500 66.896 C 120.500 66.678,120.569 66.500,120.654 66.500 C 120.942 66.500,121.148 65.420,121.194 63.667 L 121.240 61.917 120.198 60.875 L 119.156 59.833 117.671 59.833 C 116.855 59.833,116.145 59.900,116.095 59.982 C 116.044 60.063,115.817 60.176,115.589 60.234 C 115.362 60.291,114.892 60.532,114.546 60.769 C 114.200 61.006,113.748 61.266,113.542 61.346 C 113.335 61.426,113.167 61.569,113.167 61.663 C 113.167 61.756,113.022 61.833,112.845 61.833 C 112.668 61.833,112.411 61.946,112.274 62.083 C 112.136 62.221,111.920 62.333,111.794 62.333 C 111.667 62.333,111.418 62.443,111.240 62.578 C 111.062 62.713,110.804 62.826,110.667 62.829 C 110.529 62.833,110.215 62.940,109.970 63.069 C 109.724 63.197,109.274 63.356,108.970 63.422 C 108.665 63.488,108.269 63.646,108.088 63.771 C 107.907 63.897,107.406 64.000,106.975 64.000 C 106.500 64.000,106.092 64.099,105.940 64.250 C 105.624 64.566,104.848 64.564,104.426 64.245 C 104.249 64.110,103.979 64.000,103.828 64.000 C 103.676 64.000,103.222 63.813,102.818 63.585 C 102.414 63.358,101.971 63.122,101.833 63.061 C 101.500 62.915,100.667 62.138,100.667 61.975 C 100.667 61.903,100.442 61.490,100.167 61.056 C 99.892 60.623,99.667 60.142,99.667 59.988 C 99.667 59.834,99.554 59.614,99.417 59.500 C 99.260 59.370,99.167 59.002,99.167 58.511 C 99.167 58.082,99.057 57.585,98.922 57.407 C 98.604 56.986,98.602 56.428,98.917 56.167 C 99.054 56.053,99.167 55.710,99.167 55.406 C 99.167 55.102,99.237 54.810,99.323 54.757 C 99.409 54.703,99.671 54.254,99.906 53.758 C 101.045 51.350,103.605 48.544,105.653 47.458 C 107.138 46.671,106.996 46.641,107.821 47.917 C 108.206 48.512,108.584 49.000,108.659 49.000 C 108.735 49.000,108.840 49.169,108.893 49.375 C 108.946 49.581,109.163 49.938,109.375 50.167 C 109.586 50.396,109.938 50.846,110.156 51.167 C 110.374 51.487,110.910 52.106,111.349 52.542 L 112.145 53.333 114.227 53.333 C 115.856 53.333,116.364 53.279,116.560 53.083 C 116.697 52.946,116.909 52.831,117.030 52.828 C 117.151 52.825,117.550 52.677,117.917 52.500 C 118.283 52.323,118.717 52.175,118.880 52.172 C 119.044 52.169,119.220 52.054,119.273 51.917 C 119.326 51.779,119.530 51.667,119.727 51.667 C 120.184 51.667,121.873 50.067,122.246 49.283 C 122.674 48.381,122.399 44.999,121.853 44.453 C 121.751 44.351,121.666 44.113,121.666 43.925 C 121.665 43.737,121.560 43.382,121.431 43.136 C 121.303 42.890,121.145 42.440,121.080 42.136 C 121.016 41.832,120.869 41.471,120.753 41.333 C 120.638 41.196,120.505 40.896,120.458 40.667 C 120.341 40.096,119.280 37.596,119.125 37.528 C 119.056 37.497,119.000 37.331,119.000 37.159 C 119.000 36.986,118.536 36.355,117.968 35.756 L 116.937 34.667 112.510 34.668 C 108.909 34.669,107.994 34.715,107.606 34.918 C 107.343 35.055,106.701 35.167,106.179 35.167 C 105.603 35.167,105.103 35.263,104.907 35.411 C 104.729 35.546,104.321 35.659,104.000 35.662 C 103.679 35.666,103.202 35.781,102.939 35.918 C 102.677 36.055,102.302 36.169,102.106 36.172 C 101.910 36.175,101.450 36.323,101.083 36.500 C 100.717 36.677,100.324 36.825,100.211 36.828 C 100.098 36.831,99.535 37.066,98.961 37.350 C 98.387 37.633,97.583 38.027,97.175 38.225 C 96.767 38.422,96.118 38.790,95.734 39.042 C 95.350 39.294,94.956 39.500,94.859 39.500 C 94.762 39.500,94.623 39.598,94.550 39.717 C 94.477 39.837,94.117 40.115,93.750 40.336 C 93.383 40.557,92.752 41.040,92.346 41.410 C 91.940 41.780,91.482 42.196,91.328 42.333 C 91.173 42.471,90.586 43.032,90.022 43.580 L 88.997 44.576 89.105 43.496 C 89.164 42.902,89.296 42.311,89.398 42.183 C 89.511 42.040,89.583 41.152,89.583 39.897 L 89.583 37.844 88.505 36.756 L 87.426 35.667 69.464 35.667 L 51.501 35.667 50.855 36.250 C 50.001 37.022,50.037 37.031,47.798 35.480 C 47.550 35.308,47.263 35.167,47.162 35.167 C 47.060 35.167,46.872 35.073,46.744 34.958 C 46.180 34.453,45.983 34.319,45.577 34.164 C 45.129 33.994,42.107 33.957,41.667 34.117 M388.026 36.007 L 388.667 36.681 388.667 68.777 L 388.667 100.873 388.020 101.520 L 387.373 102.167 380.311 102.161 C 372.602 102.156,373.018 102.208,372.235 101.147 L 371.833 100.602 371.833 68.714 L 371.833 36.826 372.521 36.080 L 373.209 35.333 380.297 35.333 L 387.385 35.333 388.026 36.007 M45.556 36.092 C 46.000 36.362,46.539 36.696,46.754 36.833 C 49.819 38.791,51.000 39.328,51.000 38.764 C 51.000 38.472,52.084 37.336,52.372 37.327 C 52.488 37.323,60.271 37.319,69.666 37.317 L 86.749 37.313 87.375 37.983 C 88.253 38.925,88.240 39.367,87.170 44.917 C 87.081 45.375,86.960 46.163,86.901 46.667 C 86.842 47.171,86.690 47.993,86.563 48.493 C 86.075 50.427,86.334 51.018,87.096 49.708 C 89.984 44.745,96.454 39.715,102.333 37.864 C 106.215 36.642,108.141 36.328,112.417 36.222 L 116.083 36.130 116.701 36.774 C 117.469 37.573,118.858 40.689,120.008 44.191 C 121.428 48.514,121.137 49.383,117.823 50.729 C 117.050 51.044,116.192 51.420,115.917 51.566 C 115.591 51.739,114.990 51.832,114.192 51.832 L 112.967 51.833 112.239 51.063 C 111.839 50.639,111.040 49.617,110.464 48.792 C 107.525 44.579,107.598 44.635,105.992 45.387 C 101.004 47.722,96.513 54.250,97.345 57.956 C 98.337 62.374,100.144 64.614,103.630 65.745 C 105.926 66.490,111.144 64.916,115.417 62.190 C 116.569 61.455,118.121 61.468,118.941 62.219 C 120.057 63.242,119.929 64.335,118.275 67.917 C 116.917 70.857,116.542 71.681,116.112 72.667 C 115.247 74.649,114.567 76.143,113.493 78.417 C 112.556 80.402,110.810 81.246,106.775 81.665 C 106.028 81.742,104.967 81.856,104.417 81.918 C 95.977 82.865,87.096 76.679,84.674 68.167 C 83.750 64.920,83.822 58.541,84.820 55.083 C 85.369 53.183,85.360 53.161,84.108 53.278 C 82.424 53.435,81.742 52.684,80.832 49.668 C 79.463 45.135,78.308 44.203,73.872 44.054 C 70.248 43.933,70.579 43.775,70.235 45.788 C 69.782 48.442,69.708 48.900,69.434 50.750 C 69.284 51.758,69.075 52.867,68.969 53.213 C 68.409 55.049,71.389 53.354,74.067 50.314 C 75.770 48.380,76.914 48.107,78.215 49.322 L 78.917 49.978 78.897 51.281 C 78.886 51.997,78.674 53.558,78.426 54.750 C 78.177 55.942,77.912 57.292,77.836 57.750 C 77.696 58.594,77.219 61.147,76.746 63.583 C 76.603 64.317,76.390 65.479,76.272 66.167 C 75.913 68.263,75.251 69.000,73.726 69.000 C 72.226 69.000,71.917 68.727,70.746 66.372 C 69.697 64.259,67.767 62.344,67.229 62.882 C 67.109 63.002,66.761 64.655,66.327 67.167 C 66.129 68.313,65.866 69.775,65.743 70.417 C 65.098 73.769,64.983 73.638,68.325 73.377 C 72.122 73.082,74.042 71.705,77.611 66.719 C 79.169 64.541,79.637 64.167,80.801 64.167 C 82.868 64.167,83.514 65.488,82.931 68.524 C 82.598 70.263,82.180 72.870,82.000 74.333 C 81.543 78.046,81.233 79.207,80.517 79.874 L 79.846 80.500 62.612 80.500 L 45.378 80.500 44.897 80.126 C 43.975 79.410,43.845 79.150,43.839 78.015 L 43.833 76.947 44.792 75.999 C 45.543 75.255,46.020 74.949,47.000 74.580 C 48.944 73.848,48.781 74.164,49.586 69.583 C 49.714 68.850,49.934 67.650,50.074 66.917 C 50.996 62.086,50.993 61.676,50.045 61.669 C 48.907 61.661,47.983 59.999,48.145 58.250 C 48.209 57.547,49.513 56.507,50.539 56.341 C 51.944 56.112,52.104 55.982,52.237 54.964 C 52.300 54.480,52.460 53.521,52.593 52.833 C 54.148 44.763,54.178 44.509,53.534 44.960 C 53.378 45.069,51.916 45.958,50.285 46.935 C 48.655 47.912,47.258 48.833,47.181 48.981 C 47.052 49.229,46.619 51.158,46.335 52.750 C 46.269 53.117,45.873 55.104,45.454 57.167 C 45.036 59.229,44.658 61.104,44.615 61.333 C 44.573 61.563,44.410 62.313,44.255 63.000 C 44.100 63.688,43.871 64.775,43.748 65.417 C 43.624 66.058,43.138 68.421,42.668 70.667 C 42.197 72.912,41.704 75.313,41.572 76.000 C 40.773 80.149,40.764 80.178,40.032 80.861 C 38.724 82.081,37.504 81.752,35.717 79.696 C 35.094 78.979,33.983 77.719,33.250 76.896 C 32.517 76.073,30.867 74.207,29.583 72.749 C 28.300 71.291,26.500 69.265,25.583 68.246 C 23.146 65.538,20.513 62.557,19.750 61.643 C 18.731 60.422,18.488 60.552,18.146 62.500 C 17.880 64.013,17.647 65.242,17.101 68.000 C 16.791 69.564,16.746 69.488,19.226 71.566 C 21.356 73.352,21.333 73.319,21.333 74.674 C 21.333 76.357,21.041 76.579,15.750 78.915 C 14.650 79.401,12.898 80.181,11.857 80.649 C 9.341 81.780,8.274 81.835,7.299 80.883 C 6.352 79.958,6.407 79.010,7.745 73.167 C 7.881 72.571,8.182 71.146,8.414 70.000 C 8.645 68.854,8.987 67.204,9.173 66.333 C 10.210 61.474,10.552 59.827,10.691 59.015 C 10.776 58.520,10.884 58.052,10.931 57.976 C 10.978 57.901,11.126 57.256,11.261 56.544 C 11.395 55.833,11.593 54.792,11.699 54.232 C 11.984 52.737,11.508 51.968,9.776 51.123 C 6.983 49.760,6.861 48.261,9.317 45.486 C 10.014 44.700,11.706 42.750,13.078 41.153 C 18.892 34.388,18.875 34.392,22.743 38.750 C 23.557 39.667,24.797 41.054,25.500 41.833 C 26.203 42.612,28.676 45.387,30.995 48.000 C 35.313 52.864,36.987 54.667,37.185 54.667 C 37.373 54.667,37.478 54.262,38.262 50.519 C 38.677 48.538,39.119 46.467,39.245 45.917 C 39.370 45.367,39.599 44.317,39.753 43.583 C 39.907 42.850,40.166 41.650,40.330 40.917 C 40.494 40.183,40.765 38.949,40.933 38.174 C 41.257 36.672,41.829 35.765,42.550 35.608 C 43.498 35.402,44.756 35.605,45.556 36.092 M350.024 35.675 C 356.291 36.309,362.015 39.932,365.215 45.289 C 365.830 46.319,366.333 47.194,366.333 47.233 C 366.333 47.272,366.583 47.854,366.889 48.527 C 369.462 54.187,370.668 60.937,370.665 69.651 C 370.658 89.288,363.288 100.542,349.482 101.996 C 339.833 103.012,333.469 100.606,328.381 94.018 C 325.624 90.449,323.061 84.603,322.579 80.792 C 322.517 80.294,322.397 80.000,322.258 80.000 C 321.936 80.000,321.804 80.723,321.928 81.815 C 322.168 83.940,321.163 88.282,319.878 90.667 C 316.580 96.787,310.149 101.085,303.136 101.854 C 290.521 103.239,279.761 97.202,276.555 86.940 C 276.211 85.840,275.979 85.716,275.782 86.529 C 273.522 95.833,264.775 101.997,253.833 101.997 C 240.402 101.997,230.664 93.833,230.378 82.333 C 230.224 76.104,231.137 73.342,234.683 69.314 C 236.247 67.539,236.193 67.979,235.093 65.974 C 232.483 61.214,232.140 60.109,232.037 56.143 C 231.820 47.714,235.114 41.758,242.020 38.096 C 247.916 34.969,257.528 34.800,263.536 37.718 C 267.269 39.531,271.206 43.291,272.927 46.688 C 274.334 49.464,274.700 51.274,274.708 55.500 C 274.718 60.562,274.290 62.115,271.896 65.698 C 270.389 67.953,270.380 67.707,272.046 69.645 C 274.269 72.231,275.395 73.955,275.738 75.296 C 276.002 76.333,276.341 76.317,276.687 75.250 C 277.252 73.510,278.774 71.068,280.440 69.231 C 281.758 67.778,281.821 67.626,281.375 66.995 C 280.618 65.925,278.752 62.160,278.157 60.500 C 277.571 58.866,277.554 52.147,278.130 50.000 C 279.798 43.782,284.492 38.851,290.664 36.834 C 293.504 35.906,295.876 35.616,299.833 35.713 C 313.017 36.036,321.991 45.873,320.343 58.197 C 319.842 61.946,319.482 62.902,317.453 65.879 L 316.115 67.840 316.516 68.288 C 316.736 68.535,317.230 69.077,317.613 69.493 C 318.553 70.515,319.801 72.193,320.563 73.458 C 320.908 74.031,321.242 74.500,321.304 74.500 C 321.366 74.500,321.419 71.669,321.421 68.208 C 321.426 61.020,321.584 59.241,322.599 54.917 C 323.294 51.957,324.264 49.453,325.843 46.543 C 326.864 44.662,329.422 41.784,331.750 39.895 C 336.052 36.405,342.507 34.914,350.024 35.675 M128.344 37.528 C 127.850 37.712,127.856 37.284,127.887 69.250 L 127.917 100.083 134.167 100.083 L 140.417 100.083 140.459 75.100 C 140.490 56.971,140.552 50.055,140.688 49.891 C 141.113 49.378,146.025 49.811,148.583 50.586 C 151.711 51.534,153.000 53.242,153.000 56.437 C 153.000 60.303,150.427 62.475,145.315 62.923 C 144.617 62.985,143.964 63.086,143.864 63.148 C 143.570 63.329,143.565 74.829,143.859 75.033 C 144.318 75.350,149.580 74.857,152.263 74.245 C 162.465 71.918,167.483 64.899,166.675 54.083 C 165.887 43.534,159.697 38.756,145.417 37.675 C 142.679 37.467,128.829 37.349,128.344 37.528 M199.333 37.449 C 182.634 38.282,171.605 50.928,171.599 69.250 C 171.592 89.504,185.612 102.539,204.500 99.840 C 206.924 99.494,209.002 99.056,209.216 98.847 C 209.290 98.776,209.344 96.103,209.338 92.908 C 209.325 86.799,209.315 86.719,208.583 86.921 C 195.017 90.665,183.625 81.020,184.984 66.941 C 186.211 54.230,196.755 46.929,208.764 50.476 C 209.858 50.799,209.833 50.934,209.833 44.690 C 209.833 40.423,209.783 38.994,209.623 38.776 C 209.139 38.115,202.683 37.282,199.333 37.449 M374.324 37.536 C 373.866 37.705,373.807 99.890,374.264 100.066 C 374.799 100.271,386.088 100.178,386.300 99.967 C 386.624 99.643,386.587 37.690,386.263 37.565 C 385.902 37.427,374.693 37.400,374.324 37.536 M344.750 37.603 C 331.637 38.900,324.843 47.206,323.566 63.500 C 323.028 70.367,323.751 77.606,325.556 83.417 C 326.364 86.017,327.386 88.295,328.882 90.833 C 333.252 98.244,341.420 101.505,350.772 99.573 C 358.449 97.988,363.004 93.904,366.007 85.917 C 371.117 72.322,368.386 50.611,360.601 42.941 C 356.911 39.305,350.245 37.060,344.750 37.603 M43.281 37.943 C 43.170 38.350,42.762 40.194,42.330 42.250 C 42.137 43.167,41.912 44.217,41.829 44.583 C 41.746 44.950,41.521 46.000,41.328 46.917 C 40.788 49.486,40.522 50.733,40.254 51.958 C 39.419 55.780,38.851 58.472,38.804 58.833 C 38.712 59.544,38.138 59.354,37.232 58.312 C 36.784 57.796,34.017 54.693,31.083 51.415 C 28.150 48.138,25.075 44.691,24.250 43.756 C 22.731 42.033,20.513 39.555,19.565 38.522 C 18.946 37.848,18.798 37.897,17.783 39.108 C 17.398 39.568,15.958 41.241,14.583 42.826 C 9.224 49.004,9.516 48.472,11.085 49.219 C 13.893 50.555,14.451 52.271,13.506 56.667 C 13.220 57.996,12.733 60.283,12.423 61.750 C 12.114 63.217,11.740 64.979,11.593 65.667 C 11.447 66.354,11.106 67.967,10.838 69.250 C 10.569 70.533,10.119 72.671,9.838 74.000 C 8.567 80.011,8.540 79.692,10.242 78.862 C 10.838 78.571,11.365 78.333,11.412 78.333 C 11.459 78.333,12.192 78.009,13.041 77.614 C 13.889 77.218,15.521 76.491,16.667 75.999 C 19.811 74.649,19.797 74.934,16.837 72.499 C 14.119 70.264,14.282 70.742,15.000 67.113 C 16.629 58.877,17.167 56.137,17.167 56.072 C 17.167 55.775,17.796 56.123,18.318 56.708 C 18.666 57.098,21.110 59.854,23.749 62.833 C 26.387 65.813,28.782 68.512,29.070 68.833 C 29.358 69.154,30.191 70.094,30.922 70.923 C 36.007 76.690,38.239 79.167,38.351 79.167 C 38.607 79.167,38.753 78.716,39.186 76.583 C 39.428 75.392,40.059 72.317,40.588 69.750 C 41.117 67.183,41.607 64.783,41.675 64.417 C 41.744 64.050,42.063 62.475,42.386 60.917 C 43.635 54.882,44.527 50.528,44.776 49.250 C 45.157 47.290,45.106 47.342,48.748 45.193 C 50.569 44.118,52.087 43.156,52.120 43.055 C 52.182 42.871,51.466 42.399,46.598 39.414 C 43.644 37.603,43.404 37.496,43.281 37.943 M250.917 37.841 C 241.356 38.748,234.756 45.115,234.081 54.083 C 233.787 57.984,234.747 60.994,238.018 66.440 C 238.992 68.060,238.981 67.922,238.205 68.750 C 233.413 73.863,232.399 76.190,232.546 81.739 C 232.756 89.686,237.509 95.814,245.555 98.509 C 261.694 103.917,276.597 92.882,273.927 77.501 C 273.512 75.107,272.089 72.814,269.050 69.639 C 267.470 67.989,267.467 67.977,268.245 66.958 C 270.479 64.031,271.632 61.934,272.159 59.833 C 274.892 48.953,267.090 38.819,255.224 37.836 C 253.060 37.656,252.863 37.656,250.917 37.841 M296.583 37.833 C 288.525 38.548,282.241 43.475,280.324 50.583 C 278.938 55.720,279.671 59.549,283.199 65.598 C 283.792 66.615,284.326 67.574,284.386 67.730 C 284.482 67.979,283.741 68.985,282.899 69.749 C 275.225 76.713,276.865 89.897,286.167 96.019 C 299.320 104.676,317.302 98.346,319.588 84.254 C 320.606 77.977,319.422 74.547,314.455 69.381 C 313.589 68.481,313.183 67.939,313.266 67.798 C 313.336 67.680,313.633 67.283,313.926 66.917 C 315.735 64.651,317.333 61.859,317.740 60.250 C 320.232 50.410,314.807 41.309,304.785 38.514 C 302.218 37.798,299.510 37.573,296.583 37.833 M111.333 38.276 C 98.757 39.478,89.394 46.405,86.838 56.398 C 83.093 71.040,94.362 82.755,108.640 79.063 C 110.937 78.469,110.974 78.439,111.825 76.557 C 112.233 75.655,112.821 74.354,113.132 73.667 C 113.804 72.178,114.197 71.315,114.912 69.750 C 117.411 64.283,117.684 63.508,116.960 63.936 C 116.844 64.004,116.450 64.247,116.083 64.476 C 111.366 67.417,105.741 68.767,102.434 67.752 C 96.455 65.917,93.280 58.049,96.187 52.276 C 98.671 47.344,103.834 42.944,107.583 42.567 C 108.841 42.440,108.444 42.016,112.708 48.042 C 114.028 49.907,113.938 49.878,115.846 49.077 C 118.202 48.087,118.667 47.847,118.667 47.617 C 118.667 46.841,115.937 39.619,115.236 38.542 C 114.991 38.164,113.537 38.065,111.333 38.276 M53.253 39.496 C 53.042 39.836,53.552 40.354,54.812 41.081 C 56.693 42.166,56.746 42.245,56.533 43.620 C 56.325 44.960,54.418 55.530,54.156 56.796 C 53.936 57.862,53.666 58.061,52.095 58.326 C 49.833 58.706,49.611 59.667,51.785 59.667 C 53.474 59.667,53.585 60.061,52.908 63.667 C 52.676 64.904,52.377 66.535,52.243 67.292 C 50.728 75.863,50.832 75.442,50.138 75.791 C 49.925 75.899,49.130 76.220,48.372 76.506 C 47.614 76.792,46.770 77.215,46.497 77.445 C 45.383 78.382,44.563 78.339,62.528 78.292 L 79.056 78.250 79.176 77.833 C 79.243 77.604,79.461 76.329,79.663 75.000 C 79.978 72.917,80.646 68.780,80.949 67.042 C 81.062 66.396,80.716 66.293,80.328 66.856 C 78.526 69.475,75.332 73.079,74.059 73.930 C 72.008 75.302,71.015 75.500,66.194 75.500 C 62.228 75.500,62.512 75.748,63.065 72.769 C 63.288 71.567,63.631 69.683,63.827 68.583 C 64.023 67.483,64.255 66.208,64.343 65.750 C 64.431 65.292,64.654 64.054,64.838 63.000 C 65.303 60.345,65.297 60.365,65.677 60.161 C 67.258 59.315,71.146 62.003,72.561 64.922 C 72.915 65.652,73.261 66.362,73.329 66.500 C 73.563 66.972,73.912 66.766,74.034 66.083 C 74.172 65.314,75.140 60.101,75.846 56.333 C 76.112 54.913,76.450 53.204,76.597 52.536 C 77.019 50.622,76.896 50.635,74.800 52.727 C 71.997 55.524,69.827 56.830,67.759 56.963 C 66.226 57.061,66.031 56.881,66.305 55.619 C 66.514 54.655,68.109 45.356,68.350 43.695 C 68.622 41.818,68.171 41.965,73.471 42.028 C 78.709 42.091,78.503 42.041,80.025 43.615 C 81.420 45.058,82.935 47.971,83.245 49.806 C 83.470 51.134,84.044 50.816,84.227 49.262 C 84.285 48.766,84.647 46.610,85.031 44.471 C 85.415 42.333,85.734 40.321,85.739 40.000 L 85.750 39.417 69.552 39.374 C 59.059 39.347,53.318 39.389,53.253 39.496 M77.247 46.348 L 77.744 46.833 76.893 46.833 C 75.141 46.833,75.178 46.809,72.083 49.999 C 71.214 50.896,71.076 50.984,71.029 50.673 C 70.999 50.476,71.061 50.211,71.166 50.084 C 71.271 49.957,71.396 49.268,71.444 48.552 C 71.492 47.836,71.636 47.014,71.765 46.725 C 71.894 46.436,72.000 46.071,72.000 45.914 C 72.000 45.348,76.613 45.730,77.247 46.348 M51.482 49.939 C 51.369 50.074,51.242 50.800,51.200 51.551 C 51.157 52.310,51.021 53.063,50.894 53.245 C 50.769 53.426,50.667 53.857,50.667 54.204 L 50.667 54.833 49.870 54.833 C 49.200 54.833,48.982 54.920,48.495 55.377 C 47.382 56.424,47.394 56.424,47.510 55.365 C 47.567 54.843,47.701 54.206,47.807 53.947 C 47.913 53.689,48.000 53.178,48.000 52.812 C 48.000 52.445,48.090 51.981,48.201 51.781 C 48.311 51.580,48.442 51.087,48.492 50.683 C 48.586 49.929,49.402 49.227,51.083 48.453 L 51.583 48.224 51.635 48.958 C 51.663 49.369,51.596 49.801,51.482 49.939 M255.529 49.956 C 258.484 51.275,259.767 54.948,258.320 57.948 C 256.664 61.382,251.156 61.846,248.818 58.749 C 245.208 53.967,250.114 47.538,255.529 49.956 M301.379 50.079 C 305.513 52.071,305.713 58.228,301.707 60.200 C 297.696 62.175,293.337 59.553,293.337 55.167 C 293.337 50.774,297.437 48.180,301.379 50.079 M348.344 50.553 C 357.189 54.766,357.335 83.070,348.534 87.352 C 342.485 90.295,337.338 81.759,337.334 68.779 C 337.330 55.657,342.185 47.620,348.344 50.553 M252.500 51.766 C 250.337 52.547,249.327 54.205,249.914 56.013 C 251.024 59.431,255.666 59.464,256.671 56.062 C 257.302 53.926,254.503 51.042,252.500 51.766 M297.333 52.116 C 294.674 53.509,294.864 57.049,297.667 58.319 C 300.189 59.463,303.135 57.009,302.251 54.500 C 301.399 52.083,299.320 51.075,297.333 52.116 M142.759 52.098 C 142.529 52.328,142.500 52.908,142.539 56.556 L 142.583 60.750 143.831 60.800 C 146.854 60.920,149.691 59.741,150.437 58.052 C 151.862 54.830,150.122 52.911,145.015 52.074 C 143.200 51.776,143.080 51.778,142.759 52.098 M344.583 52.571 C 342.587 53.512,341.251 56.343,340.014 62.250 C 338.205 70.889,340.859 83.323,344.921 85.245 C 347.648 86.535,349.811 84.309,351.719 78.250 C 355.343 66.740,350.616 49.728,344.583 52.571 M82.703 55.167 C 83.234 55.167,83.264 55.275,82.918 55.939 C 82.724 56.310,82.668 57.077,82.668 59.375 L 82.667 62.333 81.042 62.334 C 79.956 62.335,79.265 62.415,78.958 62.574 C 78.431 62.849,78.421 62.817,78.745 61.917 C 78.877 61.550,78.990 60.950,78.995 60.583 C 79.001 60.217,79.113 59.617,79.245 59.250 C 79.377 58.883,79.489 58.236,79.493 57.811 C 79.497 57.386,79.612 56.823,79.749 56.561 C 79.886 56.298,79.998 55.649,79.999 55.119 C 80.000 54.530,80.101 54.001,80.259 53.760 L 80.517 53.366 81.378 54.266 C 82.017 54.933,82.360 55.167,82.703 55.167 M253.986 53.625 C 255.610 54.549,255.109 57.000,253.296 57.000 C 252.950 57.000,252.667 56.937,252.667 56.860 C 252.667 56.783,252.481 56.636,252.255 56.532 C 251.592 56.231,251.297 55.327,251.605 54.542 C 252.029 53.464,253.027 53.080,253.986 53.625 M299.740 53.683 C 300.067 53.876,300.333 54.129,300.333 54.246 C 300.333 54.363,300.450 54.556,300.592 54.674 C 301.327 55.284,300.203 56.977,299.051 56.994 C 298.590 57.001,297.543 56.392,297.329 55.992 C 296.483 54.411,298.195 52.772,299.740 53.683 M146.745 54.108 C 146.926 54.232,147.183 54.333,147.316 54.333 C 148.181 54.333,149.333 55.486,149.333 56.353 C 149.333 57.293,147.912 58.638,146.895 58.659 C 146.700 58.663,146.447 58.779,146.333 58.917 C 146.189 59.091,145.804 59.167,145.063 59.167 L 144.000 59.167 144.000 56.426 L 144.000 53.686 145.208 53.784 C 145.873 53.838,146.565 53.984,146.745 54.108 M346.826 54.245 C 347.663 54.774,348.161 55.300,348.368 55.875 C 348.458 56.127,348.600 56.333,348.683 56.333 C 348.766 56.333,348.833 56.512,348.833 56.730 C 348.833 56.948,348.946 57.219,349.083 57.333 C 349.221 57.447,349.334 57.663,349.334 57.812 C 349.335 57.961,349.447 58.298,349.584 58.561 C 349.721 58.823,349.834 59.198,349.834 59.394 C 349.835 59.590,349.947 59.965,350.084 60.227 C 350.221 60.490,350.333 60.882,350.333 61.099 C 350.333 61.316,350.440 61.776,350.571 62.122 C 350.701 62.467,350.856 63.373,350.916 64.134 C 350.976 64.895,351.131 65.774,351.262 66.087 C 351.589 66.870,351.594 71.065,351.268 71.855 C 351.141 72.164,350.983 73.111,350.917 73.959 C 350.852 74.808,350.735 75.541,350.659 75.588 C 350.582 75.636,350.471 76.029,350.412 76.462 C 350.353 76.895,350.199 77.486,350.069 77.775 C 349.939 78.064,349.831 78.514,349.828 78.775 C 349.825 79.036,349.713 79.396,349.578 79.574 C 349.443 79.751,349.333 80.038,349.333 80.210 C 349.333 80.383,349.221 80.636,349.083 80.774 C 348.946 80.911,348.833 81.168,348.833 81.345 C 348.833 81.522,348.766 81.667,348.683 81.667 C 348.600 81.667,348.458 81.873,348.368 82.125 C 347.984 83.193,346.351 84.375,345.892 83.916 C 345.755 83.779,345.533 83.667,345.398 83.667 C 344.969 83.667,343.500 81.717,343.500 81.148 C 343.500 81.049,343.398 80.769,343.273 80.526 C 342.934 79.864,342.648 79.019,342.434 78.046 C 342.328 77.567,342.150 77.083,342.038 76.971 C 341.925 76.859,341.833 76.402,341.833 75.956 C 341.833 75.510,341.741 74.981,341.627 74.781 C 341.514 74.580,341.379 73.535,341.327 72.458 C 341.271 71.278,341.154 70.421,341.033 70.300 C 340.754 70.021,340.784 67.901,341.079 67.083 C 341.222 66.686,341.322 65.773,341.326 64.825 C 341.330 63.914,341.411 63.156,341.514 63.053 C 341.613 62.953,341.737 62.394,341.790 61.811 C 341.842 61.227,341.978 60.600,342.093 60.417 C 342.207 60.233,342.354 59.758,342.418 59.361 C 342.482 58.964,342.638 58.439,342.766 58.195 C 342.894 57.950,342.998 57.665,342.999 57.561 C 343.000 57.457,343.112 57.157,343.249 56.894 C 343.386 56.631,343.498 56.285,343.499 56.125 C 343.500 55.965,343.558 55.833,343.628 55.833 C 343.699 55.833,343.941 55.496,344.167 55.083 C 344.396 54.663,344.697 54.333,344.851 54.333 C 345.002 54.333,345.219 54.221,345.333 54.083 C 345.631 53.725,346.079 53.774,346.826 54.245 M276.833 61.597 C 276.833 61.993,278.030 64.560,279.188 66.646 L 279.685 67.542 279.342 67.907 C 279.154 68.107,279.000 68.332,279.000 68.405 C 279.000 68.479,278.577 68.995,278.061 69.553 C 277.544 70.112,277.014 70.797,276.884 71.076 C 276.753 71.355,276.546 71.762,276.422 71.980 L 276.198 72.376 275.782 71.717 C 275.553 71.354,275.058 70.702,274.683 70.268 C 274.307 69.835,274.000 69.420,274.000 69.347 C 274.000 69.275,273.656 68.861,273.235 68.428 C 272.603 67.777,272.511 67.608,272.703 67.446 C 273.096 67.115,274.064 65.555,274.812 64.047 C 275.030 63.609,275.304 63.063,275.421 62.833 C 275.539 62.604,275.689 62.042,275.755 61.583 C 275.945 60.268,276.833 60.279,276.833 61.597 M48.997 63.800 C 48.996 64.047,48.887 64.550,48.755 64.917 C 48.623 65.283,48.511 65.962,48.507 66.425 C 48.503 66.888,48.415 67.351,48.312 67.455 C 48.208 67.558,48.090 68.192,48.048 68.863 C 48.006 69.534,47.865 70.320,47.736 70.609 C 47.606 70.897,47.500 71.432,47.500 71.798 C 47.500 72.477,47.035 73.000,46.431 73.000 C 46.059 73.000,44.646 73.791,44.110 74.301 L 43.636 74.750 43.755 73.750 C 43.821 73.200,43.934 72.674,44.008 72.582 C 44.081 72.489,44.190 71.927,44.251 71.332 C 44.311 70.737,44.467 69.967,44.597 69.622 C 44.727 69.276,44.833 68.666,44.833 68.266 C 44.833 67.866,44.945 67.323,45.082 67.061 C 45.219 66.798,45.332 66.236,45.332 65.811 C 45.333 65.386,45.445 64.823,45.582 64.561 C 45.719 64.298,45.832 63.730,45.832 63.297 C 45.833 62.865,45.940 62.265,46.071 61.964 C 46.202 61.663,46.349 61.286,46.398 61.127 C 46.541 60.667,49.001 63.197,48.997 63.800 M228.105 62.728 L 228.833 63.456 228.833 68.831 L 228.833 74.206 228.186 74.853 L 227.539 75.500 219.289 75.500 L 211.039 75.500 210.436 74.833 L 209.833 74.166 209.833 68.827 C 209.833 61.256,208.788 62.001,219.397 62.001 L 227.377 62.000 228.105 62.728 M212.113 64.276 C 212.051 64.338,212.000 66.400,212.000 68.858 L 212.000 73.327 212.375 73.418 C 212.581 73.468,215.862 73.488,219.667 73.463 L 226.583 73.417 226.583 68.833 L 226.583 64.250 219.405 64.207 C 215.456 64.183,212.175 64.214,212.113 64.276 M319.660 67.458 L 319.654 69.417 318.928 68.593 C 318.131 67.689,318.126 67.526,318.869 66.753 C 319.131 66.480,319.389 66.087,319.441 65.878 C 319.620 65.166,319.667 65.502,319.660 67.458 M69.228 67.051 C 69.561 67.724,69.833 68.359,69.833 68.463 C 69.833 68.846,70.227 69.497,70.513 69.588 C 71.690 69.961,71.540 71.206,70.293 71.421 C 69.949 71.481,69.626 71.597,69.574 71.681 C 69.523 71.765,68.960 71.833,68.323 71.833 L 67.167 71.833 67.167 71.328 C 67.167 71.050,67.283 70.544,67.426 70.203 C 67.569 69.862,67.729 69.096,67.782 68.500 C 67.836 67.904,67.935 67.342,68.004 67.250 C 68.073 67.158,68.182 66.764,68.246 66.374 C 68.393 65.482,68.484 65.545,69.228 67.051 M256.048 75.335 C 260.275 76.916,261.511 83.019,258.257 86.246 C 254.759 89.715,248.224 88.191,246.940 83.606 C 245.304 77.768,250.337 73.198,256.048 75.335 M300.831 75.093 C 307.673 76.706,307.293 86.873,300.348 88.020 C 295.947 88.747,292.503 86.020,292.359 81.696 C 292.200 76.884,295.968 73.947,300.831 75.093 M252.289 77.173 C 248.093 78.215,247.549 83.650,251.459 85.463 C 256.039 87.587,260.022 81.983,256.549 78.304 C 255.690 77.394,253.616 76.844,252.289 77.173 M297.956 77.181 C 292.535 78.458,294.056 86.754,299.559 85.929 C 304.701 85.158,304.944 78.262,299.867 77.187 C 298.873 76.977,298.826 76.976,297.956 77.181 M254.833 79.125 C 255.563 79.567,256.000 80.048,256.000 80.409 C 256.000 80.601,256.112 80.920,256.250 81.116 C 256.467 81.426,256.469 81.535,256.264 81.945 C 256.135 82.204,255.902 82.679,255.747 83.000 C 255.232 84.063,252.819 84.658,252.005 83.921 C 251.850 83.781,251.598 83.667,251.445 83.667 C 251.292 83.667,251.167 83.560,251.167 83.429 C 251.167 83.298,251.065 83.089,250.941 82.965 C 250.370 82.394,250.404 80.248,250.993 79.688 C 252.018 78.714,253.738 78.462,254.833 79.125 M300.612 79.194 C 302.279 80.194,302.238 82.835,300.540 83.837 C 299.431 84.491,297.101 84.085,296.663 83.161 C 296.599 83.027,296.424 82.680,296.274 82.391 C 295.100 80.135,298.278 77.793,300.612 79.194 " stroke="none" fill="#040404" fill-rule="evenodd"></path></g></svg>