<?xml version="1.0" encoding="utf-8"?>
<!-- Generator: Adobe Illustrator 13.0.0, SVG Export Plug-In . SVG Version: 6.00 Build 14948)  -->
<!DOCTYPE svg PUBLIC "-//W3C//DTD SVG 1.1//EN" "http://www.w3.org/Graphics/SVG/1.1/DTD/svg11.dtd">
<svg version="1.1" id="Layer_2" xmlns="http://www.w3.org/2000/svg" xmlns:xlink="http://www.w3.org/1999/xlink" x="0px" y="0px"
	 width="566.924px" height="121.752px" viewBox="0 0 566.924 121.752" enable-background="new 0 0 566.924 121.752"
	 xml:space="preserve">
<path fill="#0849FF" d="M78.46,38.624c0-6.959-3.479-11.309-9.569-11.309c-6.09,0-7.83,4.35-7.83,9.569
	c0,5.22,4.35,9.57,20.879,17.4c16.529,7.83,20.01,18.27,20.01,31.319S91.51,119.53,68.021,119.53
	c-23.489,0-33.059-14.789-33.059-36.539c15.66,0,20.879,0,20.879,0c0,8.7,4.35,13.05,11.31,13.05c6.959,0,9.57-5.219,9.57-9.569
	c0-4.349,0.698-6.61-24.359-19.14c-15.66-7.829-16.53-25.229-16.53-30.449c0-5.219,2.61-21.748,16.53-29.578
	c13.918-7.83,33.928-2.61,41.757,7.83c7.831,10.439,5.22,23.488,5.22,23.488C90.639,38.624,78.46,38.624,78.46,38.624z"/>
<g>
	<g>
		<path fill="#0849FF" d="M266.373,4.695h-25.229v62.637L200.256,3.825h-25.229v66.118L132.398,4.695h-26.099l0.871,114.835h28.708
			v-17.398h25.229l10.439,16.529h32.189c0,0,0-48.719,0-55.679l36.539,56.548h28.708V62.982l36.539,55.679h33.929L266.373,4.695z
			 M135.878,79.512V62.982l11.309,16.529H135.878z"/>
	</g>
</g>
<path fill="#0849FF" d="M344.67,117.79L272.463,4.695h145.284l-33.929,53.938c0,0-8.7-5.219-20.01,12.18
	c-11.309,17.4-6.089,24.359-5.22,26.969C355.11,103.871,344.67,117.79,344.67,117.79z"/>
<g>
	<g>
		<path fill="#C60000" d="M518.911,55.825c-3.624,1.885-8.99,0.725-10.004-5.219c12.613-8.41,15.948-13.195,17.109-19.864
			c1.159-6.669-4.786-6.96-10.875-3.19s-14.353,13.484-14.644,25.808c-3.914,5.655-7.974,12.18-14.353,11.89
			c7.248-13.485,8.699-20.008,7.684-24.793c-1.014-4.785-6.234-4.785-18.123,13.049c1.159-10.729,5.653-20.298,6.524-22.908
			c0.869-2.61,1.014-4.785-1.742-4.06c-2.752,0.725-6.378,7.249-11.162,19.138c-4.785,11.889-12.47,22.472-14.788,25.228
			c-2.32,2.755-6.236,3.914-5.946-3.336c0.291-7.249,4.93-13.048,5.946-16.237c1.015-3.19-0.726-8.555-2.756-7.25
			c-2.03,1.305-8.555,13.774-11.744,19.283c-3.189,5.51-7.104,10.584-8.554,12.034c-1.449,1.449-4.351,1.015-3.19-3.479
			c1.16-4.495,4.204-9.134,5.655-11.454c1.45-2.32,4.495-7.104,1.305-8.409s-10.875,2.755-13.483,20.443
			c-2.175,4.494-4.931,7.395-8.265,8.554c1.305-6.38,2.899-22.037-3.334-18.993c1.015-3.479-0.727-5.074-4.061-4.494
			c-3.335,0.58-17.108,8.41-17.979,25.952c-3.045,5.365-10.729,12.18-14.789,12.18c-4.059,0-6.379-3.626-6.089-7.539
			c0.29-3.915,5.364-9.28,7.829-10.439c0.871,2.175,2.319,2.03,3.19,2.03c0.87,0,3.624-3.19,4.639-8.12s0.436-7.394-2.029-8.265
			c-2.464-0.869-9.279,3.479-13.339,9.28c-4.06,5.799-11.02,17.107-2.175,27.111c8.845,10.005,17.688-0.869,24.068-12.758
			c1.739,6.523,6.669,9.278,10.293,9.278c3.625,0,9.425-4.495,11.744-9.713c3.48,0.144,8.409-4.351,10.584-8.555
			c-0.145,4.639,5.655,8.989,9.136,8.265c3.479-0.727,7.974-9.426,10.729-15.369c0,7.685-0.436,13.484,5.075,13.339
			c5.509-0.146,14.063-15.804,23.487-33.058c-4.35,21.023-7.539,28.418-8.265,34.507c-0.725,6.089,0.58,15.079,3.188,15.079
			c2.611,0,4.932-12.904,5.656-24.358c5.509-1.595,6.67-2.029,7.684-2.029c1.017,0,4.785,1.596,10.438-2.465
			c5.656-4.06,8.989-9.279,13.05-14.644c3.045,7.395,8.264,10.004,16.818,5.22c8.554-4.785,13.049-18.124,13.774-21.458
			C527.902,48.866,522.535,53.94,518.911,55.825z M406.112,82.358c-0.289,5.654-4.205,7.249-5.944,7.249s-4.929-0.289-4.929-5.8
			c0-5.508,4.929-12.033,10.148-17.108c2.03-1.884-0.146,3.045-0.725,8.554C404.081,80.764,404.951,83.083,406.112,82.358z
			 M474.691,66.265c1.595-8.409,7.828-17.688,10.874-17.688c3.043,0-0.871,9.569-2.61,13.049
			C481.215,65.105,478.315,65.396,474.691,66.265z M517.752,31.323c2.754-2.32,3.914,1.015,1.159,4.93
			c-2.753,3.914-8.845,9.569-10.439,10.149C509.198,38.718,514.996,33.643,517.752,31.323z"/>
	</g>
</g>
<path fill="#C60000" d="M508.327,23.784c0.145-3.625,2.029-8.554,5.365-12.468C517.027,7.4,522.825,1.311,525,1.021
	c2.176-0.29,3.191,1.885,3.191,5.365c0,3.479,0,4.639-2.466,6.524c-2.465,1.885-10.584,7.684-11.888,8.989
	C512.531,23.204,508.182,27.698,508.327,23.784z"/>
</svg>
