<?xml version="1.0" encoding="UTF-8" standalone="no"?>
<!-- Created with Inkscape (http://www.inkscape.org/) -->

<svg
   xmlns:dc="http://purl.org/dc/elements/1.1/"
   xmlns:cc="http://creativecommons.org/ns#"
   xmlns:rdf="http://www.w3.org/1999/02/22-rdf-syntax-ns#"
   xmlns:svg="http://www.w3.org/2000/svg"
   xmlns="http://www.w3.org/2000/svg"
   xmlns:sodipodi="http://sodipodi.sourceforge.net/DTD/sodipodi-0.dtd"
   xmlns:inkscape="http://www.inkscape.org/namespaces/inkscape"
   width="568.398560059"
   height="175.932887637"
   viewBox="0 0 744.09449 230.31484"
   id="svg2"
   version="1.1"
   inkscape:version="0.91 r13725"
   sodipodi:docname="Sammy Corporation.svg">
  <defs
     id="defs4" />
  <sodipodi:namedview
     id="base"
     pagecolor="#ffffff"
     bordercolor="#666666"
     borderopacity="1.0"
     inkscape:pageopacity="0.0"
     inkscape:pageshadow="2"
     inkscape:zoom="0.49497475"
     inkscape:cx="309.07133"
     inkscape:cy="437.0276"
     inkscape:document-units="px"
     inkscape:current-layer="layer1"
     showgrid="false"
     inkscape:window-width="1366"
     inkscape:window-height="705"
     inkscape:window-x="-8"
     inkscape:window-y="-8"
     inkscape:window-maximized="1" />
  <metadata
     id="metadata7">
    <rdf:RDF>
      <cc:Work
         rdf:about="">
        <dc:format>image/svg+xml</dc:format>
        <dc:type
           rdf:resource="http://purl.org/dc/dcmitype/StillImage" />
        <dc:title></dc:title>
      </cc:Work>
    </rdf:RDF>
  </metadata>
  <g
     inkscape:label="Layer 1"
     inkscape:groupmode="layer"
     id="layer1"
     transform="translate(0,-822.04784)">
    <path
       style="fill:#217821;fill-rule:evenodd;stroke:#217821;stroke-width:1.91995001px;stroke-linecap:butt;stroke-linejoin:miter;stroke-opacity:1"
       d="m 12.757338,947.0368 51.298679,-43.54164 c 4.102069,15.30913 14.94105,19.0747 30.413063,19.0747 14.68247,0.21984 28.68538,-8.82161 28.68538,-24.21744 -0.29084,-14.35994 -13.20534,-21.49708 -25.92789,-23.74223 l 16.79956,-15.08532 c 32.62587,5.49964 62.61264,35.0143 62.61264,71.05528 0,47.87817 -44.79936,75.76955 -82.626408,75.76955 -39.837829,0 -75.260718,-25.34514 -81.255024,-59.3129 z"
       id="path3347"
       inkscape:connector-curvature="0"
       sodipodi:nodetypes="ccccccccc" />
    <path
       style="fill:#55d400;fill-rule:evenodd;stroke:none;stroke-width:1px;stroke-linecap:butt;stroke-linejoin:miter;stroke-opacity:1"
       d="M 95.298038,875.16732 64.527422,901.7809 C 52.09987,896.7662 38.470953,889.74037 38.470953,875.38158 c 0,-24.93997 27.102362,-34.62766 56.22712,-34.62766 16.473287,0 31.846847,7.35906 31.846847,7.35906 l -12.99021,10.46904 c -8.43876,-5.14642 -17.182998,-6.02125 -18.89951,-5.82841 -2.662721,-0.29999 -20.485175,3.25278 -20.485175,11.99969 0,11.4132 19.116059,10.41402 21.128013,10.41402 z"
       id="path3353"
       inkscape:connector-curvature="0"
       sodipodi:nodetypes="ccccccccc" />
    <g
       style="font-style:normal;font-weight:normal;font-size:99.77178192px;line-height:125%;font-family:sans-serif;letter-spacing:0px;word-spacing:0px;fill:#000000;fill-opacity:1;stroke:none;stroke-width:1px;stroke-linecap:butt;stroke-linejoin:miter;stroke-opacity:1"
       id="text3357"
       transform="matrix(1.91995,0,0,1.91995,-138.78157,-235.5249)">
      <path
         d="m 219.36943,595.15424 0,-0.79818 q 0,-4.29018 -0.49886,-7.88197 -0.49886,-3.59178 -2.59407,-7.28334 -1.99544,-3.69155 -6.58494,-6.08608 -4.48973,-2.49429 -12.07238,-2.49429 -10.9749,0 -16.46235,5.08836 -5.48744,4.98859 -5.48744,14.66645 0,6.18585 3.59178,11.47376 2.59407,3.29247 5.78676,5.88653 3.29247,2.59407 8.68015,6.08608 5.18813,3.39224 7.58265,5.2879 2.79361,1.89567 4.19042,4.29019 1.3968,2.39452 1.3968,5.58722 0,8.77992 -8.68014,8.77992 -4.68928,0 -6.78448,-3.1927 -1.99544,-3.1927 -1.99544,-9.37855 l 0,-4.38995 -13.96805,0 0,5.48744 q 0,5.18814 1.19726,9.37855 1.29704,4.09064 3.99087,7.0838 2.69384,2.99315 7.0838,4.5895 4.38996,1.69612 10.47604,1.69612 10.47603,0 16.76166,-5.58722 6.28562,-5.58722 6.28562,-15.96349 0,-4.98858 -1.39681,-8.58037 -1.3968,-3.69155 -4.88881,-7.0838 -1.39681,-1.3968 -3.69156,-3.09292 -2.19498,-1.69612 -4.38996,-3.1927 -2.19498,-1.59635 -4.29018,-2.99315 -2.09521,-1.39681 -4.58951,-2.99315 l -0.19954,-0.0998 q -4.09064,-2.69383 -5.98631,-4.68927 -1.79589,-2.09521 -1.79589,-5.88654 0,-3.69155 1.99544,-5.2879 1.99543,-1.69612 5.68699,-1.69612 4.98859,0 6.58494,3.39224 1.59634,3.39224 1.59634,9.87741 l 13.4692,0 z"
         style="font-style:normal;font-variant:normal;font-weight:bold;font-stretch:expanded;font-family:Helvetica-Condensed;-inkscape-font-specification:'Helvetica-Condensed Bold Expanded'"
         id="path3362"
         inkscape:connector-curvature="0" />
      <path
         d="m 264.01763,647.23511 q -1.09749,-4.09065 -1.09749,-7.88197 l 0,-33.22401 q 0,-3.69155 -0.6984,-6.48516 -0.59863,-2.89338 -2.49429,-5.18814 -1.89567,-2.29475 -5.68699,-3.59178 -3.69156,-1.3968 -9.67787,-1.3968 -5.78676,0 -9.67786,1.29703 -3.8911,1.19726 -6.08608,3.59178 -2.19498,2.39453 -3.09292,5.68699 -0.79818,3.1927 -0.79818,7.58266 l 12.3717,0 q 0,-4.29019 1.39681,-6.18585 1.3968,-1.99544 5.38767,-1.99544 2.89339,0 4.29019,0.59863 1.39681,0.49886 1.79589,2.29476 0.29932,1.19726 0.29932,2.19497 0,2.39453 -1.59635,4.09065 -1.59635,1.59635 -5.08836,3.09292 -0.89795,0.39909 -1.39681,0.59863 -4.68927,1.89567 -7.48288,3.29247 -2.79361,1.39681 -5.2879,3.49201 -2.39453,2.09521 -3.79133,5.28791 -1.29704,3.09292 -1.29704,7.48288 0,8.68015 3.59179,12.77079 3.59178,4.09064 11.47375,4.09064 3.1927,0 6.18585,-1.89566 2.79361,-1.69612 5.18814,-5.38768 l 0.19954,0 q 0,0.29932 0,0.79818 -0.0998,0.6984 -0.0998,0.79817 0,2.39453 0.89794,4.19042 l 12.27193,0 z m -14.06782,-23.54614 q 0,0.6984 -0.0998,2.79361 0,2.69383 -0.19954,4.68927 -0.0998,1.89566 -0.69841,3.69156 -0.59863,1.69612 -1.99543,2.79361 -1.29703,1.09749 -3.59179,1.09749 -3.39224,0 -4.78904,-1.7959 -1.29703,-1.89566 -1.29703,-5.38767 0,-2.19498 0.39908,-3.8911 0.49886,-1.79589 1.7959,-2.89338 2.39452,-1.89567 7.18356,-4.98859 2.09521,-1.39681 3.29247,-2.19498 l 0,6.08608 z"
         style="font-style:normal;font-variant:normal;font-weight:bold;font-stretch:expanded;font-family:Helvetica-Condensed;-inkscape-font-specification:'Helvetica-Condensed Bold Expanded'"
         id="path3364"
         inkscape:connector-curvature="0" />
      <path
         d="m 282.19499,590.96382 -12.97034,0 0,56.27129 12.97034,0 0,-37.01533 q 0,-5.58722 1.09749,-8.08152 1.19726,-2.59406 5.2879,-2.69384 4.09064,0 5.18813,2.29475 1.19726,2.29476 1.19726,6.78449 l 0,38.71145 12.97034,0 0,-37.01533 q 0,-5.38768 1.29703,-7.98175 1.3968,-2.59406 5.2879,-2.79361 3.8911,0 4.98859,2.59407 1.19726,2.49429 1.19726,7.18357 l 0,38.01305 12.97034,0 0,-45.79525 q 0,-4.98859 -3.49202,-8.4806 -3.49201,-3.49201 -10.27649,-3.49201 -9.27878,0 -12.97033,7.28334 l -0.19955,0 q -0.49885,-3.59179 -4.09064,-5.38768 -3.59178,-1.89566 -7.88197,-1.89566 -4.09064,0.19954 -7.28334,1.69612 -3.09292,1.3968 -5.08836,5.58722 l -0.19954,0 0,-5.78677 z"
         style="font-style:normal;font-variant:normal;font-weight:bold;font-stretch:expanded;font-family:Helvetica-Condensed;-inkscape-font-specification:'Helvetica-Condensed Bold Expanded'"
         id="path3366"
         inkscape:connector-curvature="0" />
      <path
         d="m 353.11618,590.96382 -12.97033,0 0,56.27129 12.97033,0 0,-37.01533 q 0,-5.58722 1.09749,-8.08152 1.19726,-2.59406 5.28791,-2.69384 4.09064,0 5.18813,2.29475 1.19726,2.29476 1.19726,6.78449 l 0,38.71145 12.97033,0 0,-37.01533 q 0,-5.38768 1.29704,-7.98175 1.3968,-2.59406 5.2879,-2.79361 3.8911,0 4.98859,2.59407 1.19726,2.49429 1.19726,7.18357 l 0,38.01305 12.97033,0 0,-45.79525 q 0,-4.98859 -3.49201,-8.4806 -3.49201,-3.49201 -10.27649,-3.49201 -9.27878,0 -12.97034,7.28334 l -0.19954,0 q -0.49886,-3.59179 -4.09064,-5.38768 -3.59179,-1.89566 -7.88197,-1.89566 -4.09065,0.19954 -7.28334,1.69612 -3.09293,1.3968 -5.08836,5.58722 l -0.19955,0 0,-5.78677 z"
         style="font-style:normal;font-variant:normal;font-weight:bold;font-stretch:expanded;font-family:Helvetica-Condensed;-inkscape-font-specification:'Helvetica-Condensed Bold Expanded'"
         id="path3368"
         inkscape:connector-curvature="0" />
      <path
         d="m 411.61675,590.96382 13.56896,55.47311 q 0.49886,1.89567 0.79817,3.79133 0.39909,1.99544 0.39909,3.39224 0,1.49658 -1.19726,2.09521 -1.19726,0.59863 -3.09292,0.59863 -0.69841,0 -2.09521,-0.0998 -1.19726,-0.0998 -1.29704,-0.0998 l 0,10.07695 q 3.39225,0.49885 6.08608,0.49885 3.8911,0 6.3854,-1.09748 2.59406,-0.99772 3.99087,-2.99316 1.49658,-1.99543 2.29475,-4.38996 0.89795,-2.39452 1.99544,-7.08379 0.19954,-0.79818 0.79817,-3.09293 l 13.66873,-57.06946 -13.16987,0 -5.68699,30.23085 q -1.39681,7.58266 -1.99544,14.56668 l -0.19954,0 q -0.99772,-9.97718 -1.89567,-14.96576 l -5.68699,-29.83177 -13.66873,0 z"
         style="font-style:normal;font-variant:normal;font-weight:bold;font-stretch:expanded;font-family:Helvetica-Condensed;-inkscape-font-specification:'Helvetica-Condensed Bold Expanded'"
         id="path3370"
         inkscape:connector-curvature="0" />
    </g>
  </g>
</svg>
