<?xml version="1.0" encoding="UTF-8" standalone="no"?>
<svg
   xmlns:dc="http://purl.org/dc/elements/1.1/"
   xmlns:cc="http://creativecommons.org/ns#"
   xmlns:rdf="http://www.w3.org/1999/02/22-rdf-syntax-ns#"
   xmlns:svg="http://www.w3.org/2000/svg"
   xmlns="http://www.w3.org/2000/svg"
   xmlns:sodipodi="http://sodipodi.sourceforge.net/DTD/sodipodi-0.dtd"
   xmlns:inkscape="http://www.inkscape.org/namespaces/inkscape"
   viewBox="0 0 600.27198 171.83996"
   height="171.83997"
   width="600.27197"
   xml:space="preserve"
   version="1.1"
   id="svg2"
   sodipodi:docname="system.svg"
   inkscape:version="0.92.4 (5da689c313, 2019-01-14)"><sodipodi:namedview
   pagecolor="#ffffff"
   bordercolor="#666666"
   borderopacity="1"
   objecttolerance="10"
   gridtolerance="10"
   guidetolerance="10"
   inkscape:pageopacity="0"
   inkscape:pageshadow="2"
   inkscape:window-width="1920"
   inkscape:window-height="1018"
   id="namedview52"
   showgrid="false"
   inkscape:zoom="1.1421655"
   inkscape:cx="355.74627"
   inkscape:cy="34.838317"
   inkscape:window-x="-8"
   inkscape:window-y="-8"
   inkscape:window-maximized="1"
   inkscape:current-layer="svg2" /><metadata
   id="metadata8"><rdf:RDF><cc:Work
       rdf:about=""><dc:format>image/svg+xml</dc:format><dc:type
         rdf:resource="http://purl.org/dc/dcmitype/StillImage" /><dc:title></dc:title></cc:Work></rdf:RDF></metadata><defs
   id="defs6"><clipPath
     id="clipPath16"
     clipPathUnits="userSpaceOnUse"><path
       id="path18"
       d="M 0,618.062 H 1949.984 V 0 H 0 Z"
       inkscape:connector-curvature="0" /></clipPath></defs>
<g
   id="g821"><g
     aria-label="sc-3000"
     style="font-style:normal;font-variant:normal;font-weight:normal;font-stretch:normal;font-size:119.04663849px;line-height:1.25;font-family:'BankGothic Lt BT';-inkscape-font-specification:'BankGothic Lt BT';letter-spacing:0px;word-spacing:0px;fill:#000000;fill-opacity:1;stroke:none;stroke-width:2.97616601"
     id="text955"><path
       d="M 87.141923,40.815546 H 51.741824 V 53.8944 h 32.37743 q 7.091646,0 9.649288,2.499514 2.615771,2.441386 2.615771,9.416775 v 6.045337 q 0,6.975389 -2.557642,9.474904 -2.499515,2.441386 -9.707417,2.441386 H 53.427543 q -7.207902,0 -9.823673,-2.441386 -2.557643,-2.499515 -2.557643,-9.474904 v -1.395077 l 8.719237,-1.801976 v 7.498543 H 87.839462 V 61.974225 H 55.345775 q -7.149774,0 -9.707417,-2.441386 -2.557642,-2.499514 -2.557642,-9.474903 V 45.29142 q 0,-6.917261 2.557642,-9.416775 2.557643,-2.557643 9.707417,-2.557643 h 28.07594 q 7.033518,0 9.707417,2.441387 2.673899,2.441386 2.673899,8.602979 v 1.220693 l -8.661108,1.860104 z"
       style="stroke-width:2.97616601"
       id="path823"
       inkscape:connector-curvature="0" /><path
       d="m 161.95297,40.815546 h -35.22572 v 35.34197 h 35.22572 V 64.12497 l 9.53303,1.801976 v 5.92908 q 0,6.917261 -2.61577,9.416776 -2.55764,2.499514 -9.76555,2.499514 h -29.6454 q -7.2079,0 -9.76554,-2.383258 -2.49952,-2.441386 -2.49952,-9.533032 V 45.29142 q 0,-7.033517 2.55764,-9.474903 2.55765,-2.499515 9.70742,-2.499515 h 29.6454 q 7.20791,0 9.76555,2.557643 2.61577,2.499514 2.61577,9.416775 v 4.766516 l -9.53303,1.569462 z"
       style="stroke-width:2.97616601"
       id="path825"
       inkscape:connector-curvature="0" /><path
       d="m 186.88998,56.393914 v -8.719236 h 25.92519 v 8.719236 z"
       style="stroke-width:2.97616601"
       id="path827"
       inkscape:connector-curvature="0" /><path
       d="m 247.80839,83.772316 q -7.78918,0 -10.52121,-2.499514 -2.6739,-2.557643 -2.6739,-9.533032 v -4.999029 l 9.76554,-2.267001 v 10.869981 h 35.45823 q 3.37144,0 4.41775,-1.046308 1.10443,-1.104437 1.10443,-4.475875 v -8.196082 q 0,-3.429566 -1.10443,-4.475875 -1.10444,-1.104436 -4.41775,-1.104436 h -21.73996 v -7.847313 h 19.47296 q 3.31331,0 4.41775,-1.336949 1.10443,-1.33695 1.10443,-5.696568 v -3.603951 q 0,-4.30149 -1.10443,-5.638439 -1.10444,-1.33695 -4.41775,-1.33695 h -32.84246 v 9.474903 l -9.30051,-1.860103 v -3.836464 q 0,-6.917261 2.67389,-9.474904 2.73203,-2.557642 10.57934,-2.557642 h 31.15674 q 7.84731,0 10.52121,2.557642 2.73203,2.557643 2.73203,9.474904 v 5.580311 q 0,5.28967 -2.15074,7.905441 -2.09262,2.615771 -7.14978,3.778335 6.1616,0.930052 8.83549,3.894593 2.73203,2.906412 2.73203,8.602979 v 6.452235 q 0,7.556672 -3.13892,10.404955 -3.0808,2.790156 -10.92811,2.790156 z"
       style="stroke-width:2.97616601"
       id="path829"
       inkscape:connector-curvature="0" /><path
       d="m 320.35243,36.862825 q 0,-8.428595 2.73203,-11.451263 2.79015,-3.080797 10.46308,-3.080797 h 39.06218 q 7.6148,0 10.40495,3.080797 2.79016,3.022668 2.79016,11.451263 v 32.377431 q 0,8.428595 -2.79016,11.509391 -2.79015,3.022669 -10.40495,3.022669 h -39.06218 q -7.67293,0 -10.46308,-3.022669 -2.73203,-3.022668 -2.73203,-11.509391 z m 9.8818,38.480896 h 45.6888 V 30.584975 h -45.6888 z"
       style="stroke-width:2.97616601"
       id="path831"
       inkscape:connector-curvature="0" /><path
       d="m 409.40489,36.862825 q 0,-8.428595 2.73203,-11.451263 2.79015,-3.080797 10.46308,-3.080797 h 39.06218 q 7.6148,0 10.40495,3.080797 2.79016,3.022668 2.79016,11.451263 v 32.377431 q 0,8.428595 -2.79016,11.509391 -2.79015,3.022669 -10.40495,3.022669 H 422.6 q -7.67293,0 -10.46308,-3.022669 -2.73203,-3.022668 -2.73203,-11.509391 z m 9.8818,38.480896 h 45.6888 V 30.584975 h -45.6888 z"
       style="stroke-width:2.97616601"
       id="path833"
       inkscape:connector-curvature="0" /><path
       d="m 498.45735,36.862825 q 0,-8.428595 2.73203,-11.451263 2.79015,-3.080797 10.46308,-3.080797 h 39.06218 q 7.6148,0 10.40495,3.080797 2.79016,3.022668 2.79016,11.451263 v 32.377431 q 0,8.428595 -2.79016,11.509391 -2.79015,3.022669 -10.40495,3.022669 h -39.06218 q -7.67293,0 -10.46308,-3.022669 -2.73203,-3.022668 -2.73203,-11.509391 z m 9.8818,38.480896 h 45.6888 V 30.584975 h -45.6888 z"
       style="stroke-width:2.97616601"
       id="path835"
       inkscape:connector-curvature="0" /></g><g
     aria-label="personal computer"
     style="font-style:normal;font-variant:normal;font-weight:normal;font-stretch:normal;font-size:55.86784363px;line-height:1.25;font-family:'BankGothic Lt BT';-inkscape-font-specification:'BankGothic Lt BT';letter-spacing:0px;word-spacing:0px;fill:#0000ff;fill-opacity:1;stroke:none;stroke-width:1.39669609"
     id="text959"><path
       d="M 32.969984,119.23146 H 19.46677 v 7.4745 h 13.503214 q 1.500357,0 2.073221,-0.49102 0.600143,-0.51831 0.600143,-1.74587 v -3.00072 q 0,-1.22756 -0.572864,-1.71859 -0.572864,-0.5183 -2.1005,-0.5183 z m -17.977006,20.2139 v -23.67837 h 19.995668 q 2.755202,0 3.955487,1.06389 1.227565,1.06389 1.227565,3.51902 v 5.29217 q 0,2.40057 -1.227565,3.46446 -1.200285,1.06389 -3.955487,1.06389 H 19.46677 v 9.27494 z"
       style="fill:#0000ff;stroke-width:1.39669609"
       id="path838"
       inkscape:connector-curvature="0" /><path
       d="m 48.819211,139.44536 v -23.67837 h 23.842038 v 3.51902 H 53.293003 v 6.08327 h 11.675506 v 3.51902 H 53.293003 v 7.0926 h 19.58648 v 3.46446 z"
       style="fill:#0000ff;stroke-width:1.39669609"
       id="path840"
       inkscape:connector-curvature="0" /><path
       d="m 98.412833,119.23146 h -12.603 v 7.63818 h 12.603 q 1.500357,0 2.018667,-0.49103 0.5183,-0.49102 0.5183,-1.90954 v -2.83704 q 0,-1.30941 -0.54558,-1.85499 -0.545588,-0.54558 -1.991387,-0.54558 z m -17.076792,20.2139 v -23.67837 h 19.040899 q 2.64608,0 3.79181,1.09117 1.17301,1.06389 1.17301,3.49174 v 5.29217 q 0,2.40057 -1.17301,3.46446 -1.14573,1.06389 -3.79181,1.06389 h -3.137113 l 10.447943,9.27494 h -5.97415 l -9.438612,-9.27494 h -6.465175 v 9.27494 z"
       style="fill:#0000ff;stroke-width:1.39669609"
       id="path842"
       inkscape:connector-curvature="0" /><path
       d="m 136.49462,119.28601 h -16.61305 v 6.13783 h 15.19453 q 3.32806,0 4.52835,1.17301 1.22757,1.14572 1.22757,4.41923 v 2.83704 q 0,3.2735 -1.20029,4.44651 -1.17301,1.14573 -4.55563,1.14573 h -14.40343 q -3.38262,0 -4.61019,-1.14573 -1.20028,-1.17301 -1.20028,-4.44651 v -0.6547 l 4.09188,-0.84566 v 3.51902 h 17.86789 v -6.65613 h -15.24908 q -3.35535,0 -4.55563,-1.14573 -1.20029,-1.173 -1.20029,-4.44651 v -2.2369 q 0,-3.24622 1.20029,-4.41923 1.20028,-1.20029 4.55563,-1.20029 h 13.17586 q 3.30078,0 4.55563,1.14573 1.25484,1.14573 1.25484,4.03733 v 0.57286 l -4.0646,0.87294 z"
       style="fill:#0000ff;stroke-width:1.39669609"
       id="path844"
       inkscape:connector-curvature="0" /><path
       d="m 155.07178,135.87178 h 19.77743 v -16.58577 h -19.77743 z m -4.47379,-14.48527 q 0,-3.24622 1.22756,-4.41923 1.22757,-1.20029 4.58291,-1.20029 h 17.10407 q 3.35535,0 4.58291,1.20029 1.22756,1.17301 1.22756,4.41923 v 12.46661 q 0,3.24623 -1.22756,4.41923 -1.20029,1.17301 -4.58291,1.17301 h -17.10407 q -3.4099,0 -4.61019,-1.14573 -1.20028,-1.17301 -1.20028,-4.44651 z"
       style="fill:#0000ff;stroke-width:1.39669609"
       id="path846"
       inkscape:connector-curvature="0" /><path
       d="m 193.48093,120.51358 q 0.16367,1.03661 0.24551,2.1005 0.0818,1.06389 0.0818,2.12778 v 14.7035 h -4.11917 v -23.67837 h 3.40991 l 17.37686,15.46732 q 0.76382,0.6547 1.4458,1.4458 0.70926,0.7911 1.39124,1.80043 -0.19096,-1.06389 -0.30007,-2.15506 -0.0818,-1.09117 -0.0818,-2.26417 v -14.29432 h 4.11916 v 23.67837 h -3.05527 l -17.73149,-15.68555 q -0.9275,-0.87294 -1.60948,-1.63676 -0.6547,-0.79109 -1.173,-1.60947 z"
       style="fill:#0000ff;stroke-width:1.39669609"
       id="path848"
       inkscape:connector-curvature="0" /><path
       d="m 224.11548,139.44536 13.69417,-23.67837 h 4.09188 l 14.02152,23.67837 h -4.8557 l -3.08255,-5.53768 h -16.36753 l -3.02799,5.53768 z m 9.38405,-8.94759 h 12.57573 l -6.3015,-11.26631 z"
       style="fill:#0000ff;stroke-width:1.39669609"
       id="path850"
       inkscape:connector-curvature="0" /><path
       d="m 263.01565,139.44536 v -23.67837 h 4.47379 v 20.10479 h 18.41348 v 3.57358 z"
       style="fill:#0000ff;stroke-width:1.39669609"
       id="path852"
       inkscape:connector-curvature="0" /><path
       d="m 334.29627,119.28601 h -16.53121 v 16.58577 h 16.53121 v -5.6468 l 4.47379,0.84566 v 2.78248 q 0,3.24623 -1.22756,4.41923 -1.20029,1.17301 -4.58291,1.17301 h -13.91241 q -3.38262,0 -4.5829,-1.11845 -1.17301,-1.14573 -1.17301,-4.47379 v -12.46661 q 0,-3.30078 1.20028,-4.44651 1.20029,-1.17301 4.55563,-1.17301 h 13.91241 q 3.38262,0 4.58291,1.20029 1.22756,1.17301 1.22756,4.41923 v 2.2369 l -4.47379,0.73654 z"
       style="fill:#0000ff;stroke-width:1.39669609"
       id="path854"
       inkscape:connector-curvature="0" /><path
       d="m 352.24599,135.87178 h 19.77743 v -16.58577 h -19.77743 z m -4.47379,-14.48527 q 0,-3.24622 1.22756,-4.41923 1.22757,-1.20029 4.58291,-1.20029 h 17.10407 q 3.35534,0 4.58291,1.20029 1.22756,1.17301 1.22756,4.41923 v 12.46661 q 0,3.24623 -1.22756,4.41923 -1.20029,1.17301 -4.58291,1.17301 h -17.10407 q -3.4099,0 -4.61019,-1.14573 -1.20028,-1.17301 -1.20028,-4.44651 z"
       style="fill:#0000ff;stroke-width:1.39669609"
       id="path856"
       inkscape:connector-curvature="0" /><path
       d="m 390.43689,120.15895 q 0,0.5183 0.0546,1.41852 0.0546,1.47308 0.0546,1.88227 v 15.98562 h -3.68269 v -23.67837 h 3.68269 l 11.78463,15.35821 10.82985,-15.35821 h 4.14644 v 23.67837 h -4.14644 v -15.98562 q 0,-0.87294 0.0546,-1.69132 0.0818,-0.81837 0.21823,-1.58219 -0.38191,1.11845 -0.7911,1.99138 -0.40919,0.84566 -0.76382,1.28213 l -9.11126,12.24837 h -1.173 l -9.43861,-12.13926 q -0.49103,-0.62742 -0.9275,-1.47308 -0.43646,-0.84565 -0.79109,-1.93682 z"
       style="fill:#0000ff;stroke-width:1.39669609"
       id="path858"
       inkscape:connector-curvature="0" /><path
       d="m 446.30473,119.23146 h -13.50321 v 7.4745 h 13.50321 q 1.50036,0 2.07322,-0.49102 0.60014,-0.51831 0.60014,-1.74587 v -3.00072 q 0,-1.22756 -0.57286,-1.71859 -0.57286,-0.5183 -2.1005,-0.5183 z m -17.97701,20.2139 v -23.67837 h 19.99567 q 2.7552,0 3.95549,1.06389 1.22757,1.06389 1.22757,3.51902 v 5.29217 q 0,2.40057 -1.22757,3.46446 -1.20029,1.06389 -3.95549,1.06389 h -15.52187 v 9.27494 z"
       style="fill:#0000ff;stroke-width:1.39669609"
       id="path860"
       inkscape:connector-curvature="0" /><path
       d="m 466.62775,115.76699 v 20.10479 h 17.29503 v -20.10479 h 4.52835 v 18.08613 q 0,3.2735 -1.22757,4.44651 -1.20028,1.14573 -4.58291,1.14573 h -14.67622 q -3.38262,0 -4.61019,-1.17301 -1.20028,-1.173 -1.20028,-4.41923 v -18.08613 z"
       style="fill:#0000ff;stroke-width:1.39669609"
       id="path862"
       inkscape:connector-curvature="0" /><path
       d="m 510.84739,119.28601 v 20.15935 h -4.44652 v -20.15935 h -11.18448 v -3.51902 h 26.87003 v 3.51902 z"
       style="fill:#0000ff;stroke-width:1.39669609"
       id="path864"
       inkscape:connector-curvature="0" /><path
       d="m 528.8244,139.44536 v -23.67837 h 23.84204 v 3.51902 h -19.36825 v 6.08327 h 11.67551 v 3.51902 h -11.67551 v 7.0926 h 19.58648 v 3.46446 z"
       style="fill:#0000ff;stroke-width:1.39669609"
       id="path866"
       inkscape:connector-curvature="0" /><path
       d="m 578.41798,119.23146 h -12.603 v 7.63818 h 12.603 q 1.50035,0 2.01866,-0.49103 0.5183,-0.49102 0.5183,-1.90954 v -2.83704 q 0,-1.30941 -0.54558,-1.85499 -0.54559,-0.54558 -1.99138,-0.54558 z m -17.0768,20.2139 v -23.67837 h 19.0409 q 2.64608,0 3.79181,1.09117 1.17301,1.06389 1.17301,3.49174 v 5.29217 q 0,2.40057 -1.17301,3.46446 -1.14573,1.06389 -3.79181,1.06389 h -3.13711 l 10.44794,9.27494 h -5.97415 l -9.43861,-9.27494 h -6.46517 v 9.27494 z"
       style="fill:#0000ff;stroke-width:1.39669609"
       id="path868"
       inkscape:connector-curvature="0" /></g></g>
</svg>