<?xml version="1.0" encoding="UTF-8" standalone="no"?>
<!-- Created with Inkscape (http://www.inkscape.org/) -->

<svg
   xmlns:dc="http://purl.org/dc/elements/1.1/"
   xmlns:cc="http://creativecommons.org/ns#"
   xmlns:rdf="http://www.w3.org/1999/02/22-rdf-syntax-ns#"
   xmlns:svg="http://www.w3.org/2000/svg"
   xmlns="http://www.w3.org/2000/svg"
   xmlns:sodipodi="http://sodipodi.sourceforge.net/DTD/sodipodi-0.dtd"
   xmlns:inkscape="http://www.inkscape.org/namespaces/inkscape"
   width="1000.4202"
   height="229.18181"
   id="svg2"
   version="1.1"
   inkscape:version="0.48.4 r9939"
   sodipodi:docname="New document 1">
  <defs
     id="defs4" />
  <sodipodi:namedview
     id="base"
     pagecolor="#ffffff"
     bordercolor="#666666"
     borderopacity="1.0"
     inkscape:pageopacity="0.0"
     inkscape:pageshadow="2"
     inkscape:zoom="0.98994949"
     inkscape:cx="584.98014"
     inkscape:cy="28.999366"
     inkscape:document-units="px"
     inkscape:current-layer="layer1"
     showgrid="false"
     fit-margin-top="0"
     fit-margin-left="0"
     fit-margin-right="0"
     fit-margin-bottom="0"
     inkscape:window-width="1366"
     inkscape:window-height="706"
     inkscape:window-x="-8"
     inkscape:window-y="-8"
     inkscape:window-maximized="1" />
  <metadata
     id="metadata7">
    <rdf:RDF>
      <cc:Work
         rdf:about="">
        <dc:format>image/svg+xml</dc:format>
        <dc:type
           rdf:resource="http://purl.org/dc/dcmitype/StillImage" />
        <dc:title></dc:title>
      </cc:Work>
    </rdf:RDF>
  </metadata>
  <g
     inkscape:label="Layer 1"
     inkscape:groupmode="layer"
     id="layer1"
     transform="translate(1045.9244,-130.14923)">
    <g
       id="g3006"
       transform="matrix(7.9164701,0,0,7.9164701,-1045.9244,130.14923)">
      <path
         style="fill:#0090bf;fill-opacity:1;fill-rule:nonzero;stroke:none"
         id="path28189"
         d="m 41.6603,0.009 10.874,0 19.0868,17.94 0,-17.949 10.1223,0 0,28.95 -10.1223,0 c 0,0 -19.2577,-16.944 -19.2187,-16.944 l 0,16.944 -10.7421,0 z m 0,0"
         inkscape:connector-curvature="0" />
      <path
         style="fill:#0090bf;fill-opacity:1;fill-rule:nonzero;stroke:none"
         id="path28191"
         d="m 83.2859,0 10.455,0 0,12.753 C 95.1471,11.63 109.82,0 109.82,0 l 12.587,0 -16.962,13.994 17.148,14.956 -12.476,0 -16.3761,-14.043 0,14.043 -10.455,0 z m 0,0"
         inkscape:connector-curvature="0" />
      <path
         style="fill:#0090bf;fill-opacity:1;fill-rule:nonzero;stroke:none"
         id="path28193"
         d="m 11.46,8.037 28.5694,0 0,-8.018 -32.2266,0 c -1.1279,0 -7.749,0.942 -7.749,9.146 0,8.076 5.918,9.199 7.749,9.199 l 21.1475,0 c 1.2891,0 1.4502,2.373 0,2.373 l -28.9503,0 0,8.213 32.2804,0 c 1.2939,0 7.6952,-0.576 7.6952,-9.273 0,-8.911 -7.8515,-9.341 -7.8515,-9.341 l -20.7178,0 c -1.5625,0 -1.5039,-2.299 0.054,-2.299"
         inkscape:connector-curvature="0" />
      <path
         style="fill:#0090bf;fill-opacity:1;fill-rule:nonzero;stroke:none"
         id="path28215"
         d="m 124.175,2.441 0.307,0 0,-0.674 0.235,0 c 0.161,0 0.274,0.03 0.336,0.05 0.113,0.07 0.162,0.2 0.162,0.4 l 0,0.137 0,0.06 0,0.02 c 0,0 0,0.01 0,0.01 l 0.277,0 0,-0.01 c 0,-0.02 -0.01,-0.05 -0.01,-0.09 0,-0.05 0,-0.09 0,-0.127 l 0,-0.127 c 0,-0.08 -0.03,-0.171 -0.1,-0.273 -0.06,-0.08 -0.157,-0.137 -0.298,-0.161 0.113,-0.02 0.195,-0.05 0.254,-0.09 0.112,-0.07 0.165,-0.175 0.165,-0.332 0,-0.215 -0.09,-0.361 -0.263,-0.439 -0.102,-0.03 -0.26,-0.06 -0.47,-0.06 l -0.607,0 z m 0.868,-0.918 c -0.06,0.03 -0.165,0.03 -0.287,0.03 l -0.274,0 0,-0.62 0.254,0 c 0.166,0 0.294,0.03 0.366,0.07 0.08,0.03 0.113,0.123 0.113,0.254 0,0.132 -0.05,0.215 -0.172,0.264 m 0.87,-1.03 c -0.302,-0.303 -0.668,-0.459 -1.108,-0.459 -0.425,0 -0.797,0.156 -1.099,0.459 -0.303,0.302 -0.459,0.673 -0.459,1.103 0,0.435 0.156,0.801 0.459,1.099 0.302,0.312 0.669,0.468 1.099,0.468 0.44,0 0.806,-0.156 1.108,-0.468 0.313,-0.298 0.459,-0.669 0.459,-1.099 0,-0.434 -0.146,-0.801 -0.459,-1.103 m -0.151,0.146 c 0.259,0.264 0.39,0.586 0.39,0.957 0,0.371 -0.131,0.693 -0.39,0.952 -0.264,0.274 -0.586,0.401 -0.957,0.401 -0.372,0 -0.689,-0.127 -0.948,-0.401 -0.254,-0.259 -0.39,-0.581 -0.39,-0.952 0,-0.371 0.136,-0.693 0.39,-0.957 0.264,-0.264 0.576,-0.395 0.948,-0.395 0.371,0 0.693,0.131 0.957,0.395"
         inkscape:connector-curvature="0" />
    </g>
  </g>
</svg>
