<?xml version="1.0" encoding="utf-8"?>
<!-- Generator: Adobe Illustrator 13.0.0, SVG Export Plug-In . SVG Version: 6.00 Build 14948)  -->
<svg version="1.2" baseProfile="tiny" id="svg2" xmlns:svg="http://www.w3.org/2000/svg"
	 xmlns="http://www.w3.org/2000/svg" xmlns:xlink="http://www.w3.org/1999/xlink" x="0px" y="0px" width="316.575px"
	 height="154.868px" viewBox="122.277 6.458 316.575 154.868" xml:space="preserve">
<g id="layer1">
</g>
<g id="layer5">
</g>
<polygon fill="#008FA9" points="167.223,6.458 135.956,6.458 122.277,22.092 122.277,55.313 137.91,70.946 151.589,70.946 
	151.589,49.45 145.727,49.45 145.727,26 161.36,26 161.36,41.634 182.856,41.634 182.856,22.092 "/>
<polygon fill="#008FA9" points="137.91,115.892 171.131,115.892 184.81,100.259 184.81,65.084 169.177,49.45 155.498,49.45 
	155.498,70.946 161.36,70.946 161.36,94.396 145.727,94.396 145.727,78.762 122.277,78.762 122.277,100.259 "/>
<polygon fill="#008FA9" points="188.718,100.259 205.329,115.892 218.031,115.892 218.031,96.351 212.168,96.351 212.168,6.458 
	188.718,6.458 "/>
<polygon fill="#008FA9" points="251.251,100.259 234.642,115.892 221.939,115.892 221.939,96.351 227.801,96.351 227.801,6.458 
	251.251,6.458 "/>
<polygon fill="#008FA9" points="284.473,6.458 284.473,26 292.289,26 292.289,59.221 284.473,59.221 284.473,80.717 300.105,80.717 
	315.739,65.084 315.739,23.069 299.129,6.458 "/>
<rect x="257.114" y="6.458" fill="#008FA9" width="23.45" height="109.433"/>
<polygon fill="#008FA9" points="345.051,27.955 370.456,27.955 370.456,6.458 323.556,6.458 323.556,115.892 370.456,115.892 
	370.456,96.351 345.051,96.351 "/>
<rect x="348.96" y="49.45" fill="#008FA9" width="15.634" height="19.542"/>
<polygon fill="#008FA9" points="405.631,6.458 423.219,6.458 438.852,22.092 438.852,51.404 428.104,62.152 438.852,72.9 
	438.852,115.892 417.355,115.892 417.355,72.9 405.631,72.9 405.631,51.404 415.401,51.404 415.401,26 405.631,26 "/>
<rect x="378.273" y="6.458" fill="#008FA9" width="23.448" height="109.433"/>
<polygon fill="#008FA9" points="169.177,127.616 164.291,132.502 164.291,154.976 170.642,161.326 206.306,161.326 206.306,141.296 
	186.765,141.296 186.765,147.159 200.443,147.159 200.443,154.976 173.085,154.976 173.085,133.479 206.306,133.479 
	206.306,127.616 "/>
<g>
	<path fill="#008FA9" d="M253.206,142.273v-8.794l-5.862-5.863h-33.221v33.221h7.816v-13.678h13.679l9.771,13.678h7.817
		l-9.771-13.678h3.909L253.206,142.273z M245.389,141.296h-23.45v-7.816h23.45V141.296z"/>
</g>
<polygon fill="#008FA9" points="257.114,160.837 272.748,127.616 288.381,127.616 305.969,160.837 296.197,160.837 282.519,135.434 
	278.61,135.434 266.885,160.837 "/>
<polygon fill="#008FA9" points="307.922,127.616 307.922,160.837 315.739,160.837 315.739,147.159 341.143,147.159 341.143,141.296 
	315.739,141.296 315.739,133.479 345.051,133.479 345.051,127.616 "/>
<polygon fill="#008FA9" points="348.96,127.616 364.594,143.25 347.006,160.837 358.73,160.837 370.456,149.112 382.181,160.837 
	393.905,160.837 376.318,143.25 393.905,127.616 382.181,127.616 370.456,139.342 358.73,127.616 "/>
</svg>
