<?xml version="1.0" encoding="UTF-8" standalone="no"?>
<!-- Created with Inkscape (http://www.inkscape.org/) -->

<svg
   xmlns:dc="http://purl.org/dc/elements/1.1/"
   xmlns:cc="http://creativecommons.org/ns#"
   xmlns:rdf="http://www.w3.org/1999/02/22-rdf-syntax-ns#"
   xmlns:svg="http://www.w3.org/2000/svg"
   xmlns="http://www.w3.org/2000/svg"
   version="1.1"
   width="131.94724"
   height="47.6717"
   id="svg4426">
  <defs
     id="defs4428" />
  <metadata
     id="metadata4431">
    <rdf:RDF>
      <cc:Work
         rdf:about="">
        <dc:format>image/svg+xml</dc:format>
        <dc:type
           rdf:resource="http://purl.org/dc/dcmitype/StillImage" />
        <dc:title></dc:title>
      </cc:Work>
    </rdf:RDF>
  </metadata>
  <g
     transform="translate(-537.24991,-199.59776)"
     id="layer1">
    <path
       d="m 571.87491,213.92596 -24.625,0 0,4.8025 9.3575,0 0,19.8225 5.91,0 0,-19.8225 9.3575,0 0,-4.8025 z"
       id="path3027"
       style="fill:#4f4c4d;fill-opacity:1;fill-rule:nonzero;stroke:none" />
    <path
       d="m 628.61328,213.92596 -24.62625,0 0,4.8025 9.3575,0 0,19.8225 5.91125,0 0,-19.8225 9.3575,0 0,-4.8025 z"
       id="path3031"
       style="fill:#4f4c4d;fill-opacity:1;fill-rule:nonzero;stroke:none" />
    <path
       d="m 596.20853,238.55146 5.91,0 0,-24.625 -5.91,0 0,24.625 z"
       id="path3033"
       style="fill:#4f4c4d;fill-opacity:1;fill-rule:nonzero;stroke:none" />
    <path
       d="m 579.87791,238.55116 0,0 16.00875,0 -10.65875,-19.61 c -3.96625,5.4725 -6.035,12.35375 -5.35,19.61"
       id="path3037"
       style="fill:#127bca;fill-opacity:1;fill-rule:nonzero;stroke:none" />
    <path
       d="m 565.10378,238.55116 8.37125,0 c 0.905,-8.61375 4.845,-16.1575 10.635,-21.66625 l -3.615,-6.6525 -15.39125,28.31875 z"
       id="path3041"
       style="fill:#127bca;fill-opacity:1;fill-rule:nonzero;stroke:none" />
    <path
       d="m 599.16378,202.59776 c -2.44875,0 -4.43375,1.985 -4.43375,4.4325 0,2.4475 1.985,4.4325 4.43375,4.4325 2.4475,0 4.4325,-1.985 4.4325,-4.4325 0,-2.4475 -1.985,-4.4325 -4.4325,-4.4325"
       id="path3045"
       style="fill:#127bca;fill-opacity:1;fill-rule:nonzero;stroke:none" />
    <path
       d="m 592.59641,211.85566 -0.39125,-0.71625 c -2.96125,1.51875 -5.6875,3.455 -8.095,5.745 l 1.1175,2.0575 c 2.0075,-2.7675 4.50125,-5.175 7.36875,-7.08625"
       id="path3049"
       style="fill:#127bca;fill-opacity:1;fill-rule:nonzero;stroke:none" />
    <path
       d="m 643.38741,234.71696 c -4.70625,0 -8.5175,-3.38875 -8.5175,-8.51375 0,-5.125 3.81125,-8.5125 8.5175,-8.5125 4.70625,0 8.5175,3.3875 8.5175,8.5125 0,5.125 -3.81125,8.51375 -8.5175,8.51375 m 0,-21.58 c -8.4675,0 -14.775,5.25625 -14.775,13.06625 0,7.81 6.3075,13.06625 14.775,13.06625 8.46875,0 14.775,-5.25625 14.775,-13.06625 0,-7.81 -6.30625,-13.06625 -14.775,-13.06625"
       id="path3053"
       style="fill:#4f4c4d;fill-opacity:1;fill-rule:nonzero;stroke:none" />
    <path
       d="m 658.4909,208.74057 c -1.79125,0.001 -3.24375,1.45375 -3.24375,3.245 0,1.79 1.4525,3.24125 3.245,3.24125 1.79125,-0.001 3.24375,-1.4525 3.2425,-3.2425 0,-1.79125 -1.4525,-3.24375 -3.24375,-3.24375 l 0,-0.4625 c 2.0475,-0.001 3.70625,1.6575 3.70625,3.70625 0.001,2.045 -1.6575,3.70625 -3.705,3.70625 -2.0475,0 -3.70625,-1.66 -3.7075,-3.705 0,-2.0475 1.65875,-3.7075 3.70625,-3.7075 l 0,0.4625 z"
       id="path3019-1"
       style="fill:#000000;fill-opacity:1;fill-rule:nonzero;stroke:none" />
    <path
       d="m 657.66202,211.79717 -10e-4,-1.04875 c 0,0 1.26875,-0.001 1.54,-0.001 0.32375,0 0.50625,0.28625 0.505,0.53125 0.001,0.25875 -0.23375,0.5175 -0.53,0.5175 -0.2975,0 -1.51375,0.001 -1.51375,0.001 l 0,0.62 0.90625,-0.001 1.0275,1.44375 0.77,0.006 -1.035,-1.4875 c 0.55625,0 1.01875,-0.54375 1.01875,-1.13875 0,-0.595 -0.515,-1.09875 -0.98125,-1.09875 l -2.3925,0 0,3.765 0.68625,0 0,-1.48875 0,-0.62 z"
       id="path3023-7"
       style="fill:#000000;fill-opacity:1;fill-rule:nonzero;stroke:none" />
  </g>
</svg>
