<?xml version="1.0" encoding="UTF-8" standalone="no"?>
<svg
   xmlns:dc="http://purl.org/dc/elements/1.1/"
   xmlns:cc="http://creativecommons.org/ns#"
   xmlns:rdf="http://www.w3.org/1999/02/22-rdf-syntax-ns#"
   xmlns:svg="http://www.w3.org/2000/svg"
   xmlns="http://www.w3.org/2000/svg"
   version="1.1"
   viewBox="0, 0, 400,193.66666666666666"
   height="193.66666666666666"
   width="400"
   id="svg">
  <metadata
     id="metadata9">
    <rdf:RDF>
      <cc:Work
         rdf:about="">
        <dc:format>image/svg+xml</dc:format>
        <dc:type
           rdf:resource="http://purl.org/dc/dcmitype/StillImage" />
        <dc:title></dc:title>
      </cc:Work>
    </rdf:RDF>
  </metadata>
  <defs
     id="defs7" />
  <g
     style="fill:#ffff00"
     transform="matrix(0.94123534,0,0,0.91033275,48.823111,-378.83722)"
     id="svgg-5">
    <path
       id="path0-8"
       d="m 156.67252,432.44677 c -0.82375,0.84289 -1.36821,1.8962 -2.02149,2.86524 -1.33019,-2.06662 -4.43352,-2.14311 -6.23834,-0.67598 -9.41601,4.55167 -18.07015,10.48337 -27.23268,15.4987 -2.88605,1.79453 -6.29272,3.6092 -7.59694,6.94591 -1.70547,5.05416 -0.54208,10.45882 -1.00778,15.66611 -0.066,9.68972 -0.13096,19.37945 -0.19769,29.06916 1.55892,-0.12376 3.06844,-0.60809 4.63281,-0.67578 -1.2349,2.61491 0.65446,5.78419 3.22626,6.70295 10.39353,5.89543 20.23958,12.8868 31.33233,17.46502 4.08849,1.30672 8.45721,-0.35326 12.02008,-2.37755 8.17809,-5.31961 17.08183,-9.46372 25.16145,-14.95119 1.14941,-0.87353 2.53888,-1.56504 3.49385,-2.62353 0.46349,-0.79616 0.35859,-1.95748 0.41251,-2.69421 2.23317,0.64774 4.27325,-1.7447 3.85518,-3.89296 -0.2642,-6.67097 -0.0248,-13.35044 -0.10765,-20.02658 -0.004,-6.74408 -0.0368,-13.49415 -0.228,-20.23281 -1.70778,-5.07679 -6.71538,-7.89483 -11.23601,-10.13071 -9.36922,-5.38373 -18.76736,-10.71686 -28.16047,-16.05874 z m -5.66602,24.86719 c 2.22914,8.49607 8.74735,14.86394 14.87382,20.76513 3.36944,3.24409 6.84215,6.37838 10.24923,9.58253 -5.96087,-2.23989 -12.54234,-1.62977 -18.58013,-0.12906 -7.17066,1.52583 -14.09387,4.00775 -21.06245,6.2189 6.24889,-5.69474 8.72287,-14.13982 10.71135,-22.07929 1.2707,-5.00151 2.38896,-10.05173 3.64217,-15.04962 0.0553,0.23047 0.11067,0.46094 0.16601,0.69141 z m -57.279291,88.42187 c -8.27709,-0.18538 -17.164552,2.20776 -22.800782,8.60157 -3.155646,3.736 -5.109251,8.35364 -6.185546,13.08984 -10e-7,-6.54753 0,-13.09505 0,-19.64258 -7.656251,0 -15.3125,0 -22.96875,0 0,7.22136 0,14.44271 0,21.66406 -3.010417,0 -6.020834,0 -9.03125,0 -1e-6,-7.22135 0,-14.4427 0,-21.66406 -22.545572,0 -45.091146,0 -67.636719,0 0,6.98959 0,13.97917 0,20.96875 5.222656,0 10.445312,0 15.667969,0 -1e-6,15.22136 0,30.44271 0,45.66406 7.458333,0 14.9166671,0 22.3750006,0 0.6769242,-15.20748 0.5717367,-30.43394 0.875,-45.65039 1.9185011,0.006 3.8388122,-0.0686 5.7558593,0.0332 -0.00194,15.20573 -0.00396,30.41146 -0.00586,45.61718 7.6562491,0 15.3124991,0 22.9687491,0 0,-8 -10e-7,-16 0,-24 3.010416,0 6.020833,0 9.03125,0 0,8 -10e-7,16 0,24 7.656249,0 15.3125,0 22.96875,0 0,-6.55208 -10e-7,-13.10416 0,-19.65625 1.528856,7.1837 5.406848,14.34757 12.091796,17.89649 7.622713,4.20229 16.868165,4.38938 25.196154,2.51198 6.50976,-1.59492 12.5045,-5.82879 15.44419,-11.95814 1.98166,-3.72959 3.0678,-7.87225 3.63114,-12.04017 0,7.7487 0,15.4974 0,23.24609 7.21029,0 14.42057,0 21.63086,0 0.018,-5.25 0.0393,-10.5 0.0586,-15.75 1.60868,5.24741 3.21772,10.49471 4.82617,15.74219 5.24154,0.002 10.48308,0.005 15.72461,0.008 1.56939,-5.08036 3.14078,-10.1601 4.71094,-15.24023 0.0186,5.08008 0.0393,10.16015 0.0566,15.24023 7.32031,0 14.64063,0 21.96094,0 0,-4.38737 0,-8.77474 0,-13.16211 2.22516,6.09941 7.47054,10.80889 13.57236,12.86768 8.62964,3.24146 18.3573,2.76497 27.01384,-0.11353 6.7616,-2.58778 12.31217,-8.81562 13.47044,-15.93579 1.94298,7.04207 6.98336,13.48227 13.99764,15.98039 7.70925,3.08049 16.49711,3.04934 24.38322,0.64657 6.58723,-2.32017 12.01847,-7.70069 14.25904,-14.33521 1.1754,-3.00375 1.91384,-6.16715 2.33471,-9.36206 0,7.91667 0,15.83334 0,23.75 7.43489,0 14.86979,0 22.30469,0 0.008,-7.09635 0.017,-14.19271 0.0254,-21.28906 3.56426,7.09612 7.12486,14.19411 10.6914,21.28906 7.42774,0 14.85547,0 22.28321,0 0,-22.10156 0,-44.20312 0,-66.30469 -7.32162,0 -14.64323,0 -21.96485,0 -0.0295,7.01173 -0.0628,14.02344 -0.0937,21.03516 -3.09003,-6.95564 -6.17855,-13.91197 -9.26953,-20.86719 -7.9922,-0.07 -15.98437,-0.14467 -23.97656,-0.21679 0,7.82096 0,15.64192 0,23.46289 -0.91781,-7.78867 -3.74253,-15.96446 -10.13867,-20.93164 -5.68288,-4.3766 -13.13987,-5.59215 -20.14597,-5.05879 -7.60102,0.3396 -15.64656,3.10241 -20.27591,9.45918 -2.78602,3.70103 -4.47073,8.11936 -5.39648,12.63086 -0.25027,-9.19928 -7.14246,-17.70693 -16.06076,-19.94324 -10.33529,-3.39487 -22.67143,-1.9054 -30.99157,5.43086 -3.00705,2.7689 -5.13875,6.47534 -6.02189,10.4655 0,-5.39388 0,-10.78776 0,-16.18164 -9.51432,0.0721 -19.02864,0.14539 -28.54297,0.21484 -1.96225,7.30662 -3.91082,14.61695 -5.9082,21.91407 -1.85715,-7.35814 -3.71647,-14.71574 -5.57227,-22.07422 -9.64844,-0.001 -19.29687,-0.003 -28.94531,-0.004 0,8.00065 0,16.0013 0,24.00196 -1.08045,-7.74651 -4.04486,-15.81432 -10.41391,-20.75078 -4.79489,-3.69373 -10.934468,-5.49722 -16.963042,-5.30001 z m 122.007811,19.91602 c 2.16783,-0.0602 4.28798,1.85404 4.19336,4.07031 -2.31017,-0.75445 -4.99331,-1.27349 -6.61328,-3.24609 0.47089,-0.83606 1.60947,-0.73311 2.41992,-0.82422 z m -123.017577,0.50977 c 3.956763,0.36147 6.407,4.67306 5.938243,8.37721 0.489761,6.53893 0.99848,13.53634 -1.90504,19.60716 -2.301906,2.91732 -7.670531,2.24706 -8.945312,-1.30664 -2.181994,-4.28586 -1.117362,-9.22657 -1.458976,-13.85078 -9.21e-4,-4.07019 0.103745,-8.80091 3.265616,-11.77813 0.876303,-0.67864 1.976769,-1.16448 3.105469,-1.04882 z m 178.410157,0.0449 c 3.86766,0.0815 6.44574,4.42693 5.87109,8.04101 0.58951,6.51968 1.08742,13.44269 -1.55469,19.57617 -2.5848,3.49334 -9.13155,2.42896 -10.13192,-1.95115 -1.48465,-4.32405 -0.84164,-8.96976 -1.07946,-13.45022 0.10822,-3.68773 0.30655,-7.87289 2.93705,-10.72407 1.09881,-0.92107 2.5171,-1.48631 3.95793,-1.49174 z m -80.94336,6.71484 c 1.47429,6.27295 6.1579,11.69892 12.23633,13.91016 1.14103,0.42573 1.84855,0.73723 0.23088,0.63152 -4.19337,0.0511 -8.38705,3.3e-4 -12.58049,-0.0163 0,-5.01172 0,-10.02344 0,-15.03515 0.0378,0.16992 0.0755,0.33984 0.11328,0.50976 z m 41.91015,0.15039 c 3.4284,0.003 6.85676,0.0319 10.28516,0.0137 -0.31999,3.12483 -0.36616,6.27131 -0.34961,9.41016 -2.76746,-4.529 -7.47208,-7.48277 -12.30664,-9.4082 0.79036,-0.005 1.58073,-0.0104 2.37109,-0.0156 z m -21.07226,16.73633 c 3.49167,1.11314 7.04434,2.33731 10.04101,4.49805 0.21466,1.63974 -1.82199,2.05331 -3.05909,2.10713 -2.6172,0.62185 -5.95182,-0.97402 -6.12432,-3.86597 -0.25987,-0.98826 -0.59988,-1.96939 -1.15643,-2.83296 l 0.19083,0.0599 z"
       style="fill:#ececec;fill-rule:evenodd;stroke:none" />
  </g>
  <g
     transform="matrix(0.94123534,0,0,0.91033275,10.957414,10.523139)"
     id="svgg">
    <path
       style="fill:#000000;fill-rule:evenodd;stroke:none"
       d="m 189.667,10.252 c -11.455,6.507 -30.013,17.348 -30.616,17.885 -2.275,2.025 -2.208,1.38 -2.312,22.13 l -0.094,18.767 1.261,-0.203 c 17.429,-2.815 21.618,-7.765 27.101,-32.03 1.489,-6.587 5.857,-24.499 6.515,-26.718 0.275,-0.927 0.036,-0.905 -1.855,0.169 m 7.058,2.165 c -5.204,15.275 -2.455,21.569 17.275,39.544 3.942,3.592 9.754,8.984 12.917,11.984 l 5.75,5.454 v -18.801 -18.8 l -0.875,-1.755 c -0.547,-1.099 -1.326,-2.042 -2.083,-2.524 -1.698,-1.081 -31.587,-18.186 -31.777,-18.186 -0.086,0 -0.629,1.388 -1.207,3.084 m 7.442,49.808 c -4.61,0.579 -10.103,2.05 -22.85,6.121 -4.666,1.491 -11.188,3.485 -14.493,4.432 -3.306,0.947 -6.072,1.872 -6.147,2.055 -0.153,0.374 5.88,4.07 20.118,12.324 11.709,6.787 11.344,6.626 14.556,6.44 l 2.522,-0.146 14.98,-8.593 c 8.239,-4.725 15.323,-8.809 15.742,-9.074 0.899,-0.568 0.79,-0.772 -2.277,-4.284 -6.405,-7.332 -13.605,-10.347 -22.151,-9.275 m -76,59.795 c -14.203,1.916 -20.5,11.433 -20.5,30.98 0,21.698 7.742,31.212 25.333,31.129 17.461,-0.082 25,-9.452 25,-31.071 0,-23.176 -10.114,-33.699 -29.833,-31.038 m 178.5,0.012 c -14.112,1.577 -20.455,11.181 -20.452,30.968 0.004,21.014 6.848,30.268 23.075,31.196 19.008,1.087 27.37,-9.497 26.612,-33.684 -0.682,-21.767 -9.802,-30.65 -29.235,-28.48 m -56.167,0.774 c -12.009,2.344 -18.363,10.722 -16.125,21.261 1.444,6.798 5.486,10.006 17.125,13.589 10.194,3.138 13.149,4.808 13.827,7.817 0.846,3.751 -2.075,6.509 -7.191,6.79 -6.101,0.335 -8.627,-1.537 -10.137,-7.513 l -0.358,-1.417 H 240.32 233 v 2.635 c 0,11.984 11.569,19.611 27.451,18.097 12.883,-1.227 19.315,-6.777 20.359,-17.565 0.972,-10.047 -3.834,-15.403 -17.643,-19.664 -11.608,-3.581 -13.825,-4.896 -13.831,-8.203 -0.013,-7.065 13.591,-6.372 14.534,0.74 l 0.216,1.627 h 7.624 7.623 v -1.317 c 0,-11.814 -13.696,-19.831 -28.833,-16.877 M 9.333,130.167 v 6.5 H 17.167 25 v 22.833 22.833 h 7.282 7.281 l 0.219,-4.552 c 0.12,-2.504 0.218,-9.605 0.218,-15.78 0,-6.175 0.099,-14.401 0.22,-18.281 l 0.219,-7.053 H 47.22 54 v 22.833 22.833 h 7.5 7.5 v -12 -12 h 8.5 8.5 v 12 12 h 7.5 7.5 V 153 123.667 H 93.5 86 V 134.5 145.333 H 77.5 69 V 134.5 123.667 H 39.167 9.333 v 6.5 m 156,22.833 v 29.333 h 6.831 6.831 l 0.086,-19.034 0.086,-19.035 5.833,19.031 5.833,19.03 4.904,0.004 4.904,0.004 1.12,-3.583 c 0.617,-1.971 3.21,-10.387 5.763,-18.702 l 4.643,-15.12 0.086,18.703 0.086,18.702 h 6.997 6.997 v -29.338 -29.338 l -10.736,0.088 -10.737,0.088 -4.493,16.763 c -2.471,9.219 -4.595,16.569 -4.719,16.333 -0.123,-0.236 -2.083,-7.815 -4.353,-16.843 l -4.128,-16.415 -10.917,-0.002 -10.917,-0.002 V 153 m 178,0.494 v 29.173 h 7.167 7.167 l 0.018,-17.084 0.019,-17.083 8.563,17.083 8.563,17.084 h 7.918 7.919 V 153.5 124.333 h -6.997 -6.998 l -0.086,17.861 -0.086,17.86 -7.897,-17.777 -7.896,-17.777 -8.687,-0.089 -8.687,-0.089 v 29.172 M 136.857,134.988 c 2.722,1.18 4.76,3.987 5.635,7.758 1.214,5.237 0.929,18.545 -0.478,22.306 -3.765,10.064 -16.398,8.826 -18.862,-1.849 -0.682,-2.951 -0.791,-16.154 -0.162,-19.536 1.418,-7.629 7.506,-11.439 13.867,-8.679 m 178.543,0.073 c 4.653,2.001 6.239,6.513 6.248,17.772 0.006,6.989 -0.296,9.867 -1.321,12.607 -3.246,8.675 -15.327,8.481 -18.65,-0.3 -1.578,-4.169 -1.697,-18.819 -0.194,-23.709 1.812,-5.89 8.217,-8.823 13.917,-6.37"
       id="path0" />
  </g>
</svg>
