<?xml version="1.0" encoding="utf-8"?>
<!-- Generator: Adobe Illustrator 13.0.0, SVG Export Plug-In . SVG Version: 6.00 Build 14948)  -->
<!DOCTYPE svg PUBLIC "-//W3C//DTD SVG 1.1//EN" "http://www.w3.org/Graphics/SVG/1.1/DTD/svg11.dtd">
<svg version="1.1" id="Layer_1" xmlns="http://www.w3.org/2000/svg" xmlns:xlink="http://www.w3.org/1999/xlink" x="0px" y="0px"
	 width="1894px" height="384px" viewBox="0 0 1894 384" enable-background="new 0 0 1894 384" xml:space="preserve">
<g id="Layer_1_1_">
</g>
<g id="Layer_2">
	<g>
		<g>
			<g>
				<linearGradient id="SVGID_1_" gradientUnits="userSpaceOnUse" x1="948.8057" y1="43.0977" x2="948.8057" y2="337.083">
					<stop  offset="0.0045" style="stop-color:#E2E3E4"/>
					<stop  offset="1" style="stop-color:#B3B5B8"/>
				</linearGradient>
				<rect x="36.907" y="37.907" fill="url(#SVGID_1_)" width="1823.796" height="303.966"/>
			</g>
			<path d="M29.5,349.279V30.5h1838.607v311.372v7.407H29.5L29.5,349.279z M1860.703,341.872v-7.405V341.872L1860.703,341.872z
				 M44.312,334.467h1808.984V45.313H44.312V334.467L44.312,334.467z"/>
		</g>
		<g>
			<g>
				<g>
					<path fill="#807F7F" d="M697.277,190.185c-7.363,0-13.332,5.969-13.332,13.333c0,7.362,5.969,13.332,13.332,13.332
						c7.361,0,13.332-5.97,13.332-13.332C710.609,196.154,704.64,190.185,697.277,190.185z M233.329,190.185
						c-7.362,0-13.332,5.969-13.332,13.333c0,7.362,5.97,13.332,13.332,13.332c7.363,0,13.333-5.97,13.333-13.332
						C246.662,196.154,240.692,190.185,233.329,190.185z M310.654,203.518c0,7.362,5.969,13.332,13.332,13.332
						c7.362,0,13.332-5.97,13.332-13.332c0-7.363-5.97-13.333-13.332-13.333C316.623,190.185,310.654,196.154,310.654,203.518z
						 M446.639,190.185c-7.362,0-13.332,5.969-13.332,13.333c0,7.362,5.97,13.332,13.332,13.332c7.363,0,13.332-5.97,13.332-13.332
						C459.971,196.154,454.001,190.185,446.639,190.185z M914.438,62.199H85.493c-14.071,0-25.479,11.407-25.479,25.479v199.682
						c0,14.07,11.408,25.479,25.479,25.479h828.944c14.071,0,25.479-11.406,25.479-25.479V87.678
						C939.917,73.606,928.51,62.199,914.438,62.199z M172.002,232.848l-15.999-26.664v26.664h-31.997V131.524h47.995
						c15.998,0,31.997,10.666,31.997,31.997s-15.999,26.664-21.331,26.664l26.664,42.663H172.002z M225.33,232.848
						c-10.665,0-21.331-10.666-21.331-26.664c0-18.175,15.998-21.332,21.331-21.263c1.944,0.026,9.087-0.069,10.666-0.069
						c10.666,0,5.333-10.666,0-10.666s-21.331,0-21.331,0v-21.331h42.662c10.666,0,14.665,10.666,14.665,21.331
						c0,10.666,1.333,58.66,1.333,58.66H225.33V232.848z M363.98,232.848c0,0-21.33,0-42.661,0
						c-31.997,0-37.329-26.664-37.329-42.663c0-9.809,5.332-37.329,37.329-37.329h10.666v-21.332h31.997v101.324H363.98z
						 M401.311,232.848h-26.664v-79.992h26.664V232.848z M446.639,232.848c-22.089,0-39.996-17.906-39.996-39.996
						c0-22.088,17.906-39.996,39.996-39.996s39.995,17.906,39.995,39.996C486.634,214.939,468.729,232.848,446.639,232.848z
						 M582.623,163.521c-10.665,0-15.998,5.333-15.998,15.998s0,5.333,0,21.331c0,21.332-5.333,31.998-47.995,31.998
						c0-21.332,0-31.998,0-31.998c10.666,0,21.331,0,21.331-15.998c0-15.998,0-15.998,0-26.664s5.333-26.664,42.662-26.664
						C582.623,142.19,582.623,163.521,582.623,163.521z M662.614,232.848h-31.996v-47.996c0-5.333-10.666-5.333-10.666,0
						s0,47.996,0,47.996h-26.664V131.524h26.664v26.664c10.666-10.666,42.662-5.333,42.662,15.998
						C662.614,195.518,662.614,232.848,662.614,232.848z M689.278,232.848c-10.666,0-21.331-10.666-21.331-26.664
						c0-18.175,15.998-21.332,21.331-21.263c1.942,0.026,9.087-0.069,10.666-0.069c10.666,0,5.333-10.666,0-10.666
						s-21.332,0-21.332,0v-21.331h42.662c10.666,0,14.665,10.666,14.665,21.331c0,10.666,1.332,58.66,1.332,58.66h-47.993V232.848z
						 M822.364,197.188l-28.041-0.027c-2.259-4.155-6.661-6.976-11.722-6.976c-7.362,0-13.332,5.968-13.332,13.332
						s5.969,13.332,13.332,13.332c5.137,0,9.596-2.906,11.821-7.164l24.47-0.002c-6.354,13.68-20.216,23.164-36.291,23.164
						c-22.09,0-39.996-17.906-39.996-39.994c0-22.089,17.906-39.997,39.996-39.997c22.088,0,39.995,17.906,39.995,39.997
						C822.597,194.316,822.518,195.764,822.364,197.188z M865.259,232.848l-10.666-31.998h-5.333v31.998h-21.331V131.524h21.331
						v42.663h5.333l10.666-15.998h26.664l-15.999,26.664l21.332,47.995H865.259L865.259,232.848z M158.67,168.854
						c-7.363,0-13.332,5.969-13.332,13.332c0,7.362,5.969,13.332,13.332,13.332c7.363,0,13.332-5.969,13.332-13.332
						S166.034,168.854,158.67,168.854z"/>
				</g>
			</g>
			<rect x="1005.936" y="214.4" fill="#807F7F" width="239.976" height="53.328"/>
			<rect x="1267.24" y="214.4" fill="#807F7F" width="239.974" height="53.328"/>
			<rect x="1528.545" y="214.4" fill="#807F7F" width="239.975" height="53.328"/>
			<g>
				<g>
					<path fill="#807F7F" d="M1138.662,110.022h78.117v15.623h-31.247v54.681h-15.623v-54.681h-31.247V110.022z"/>
					<path fill="#807F7F" d="M1251.73,152.986v27.34h-15.623v-70.304h54.683c15.624,0,23.435,7.135,23.435,21.403
						c0,6.771-1.119,11.745-3.357,14.92c2.238,3.698,3.357,8.515,3.357,14.452v19.529h-15.621v-19.529
						c0-5.207-2.605-7.812-7.813-7.812L1251.73,152.986L1251.73,152.986z M1251.73,137.363h46.871v-11.718h-46.871V137.363z"/>
					<path fill="#807F7F" d="M1429.225,152.986v-11.718h26.99v11.718H1429.225z"/>
					<path fill="#807F7F" d="M1551.415,125.646h-62.024v11.718h39.06c15.623,0,23.434,7.161,23.434,21.48
						c0,14.322-7.812,21.482-23.434,21.482h-31.246c-13.229,0-20.857-5.207-22.89-15.623h61.946v-11.718h-39.058
						c-15.625,0-23.436-7.056-23.436-21.17c0-14.529,7.811-21.794,23.436-21.794h31.246
						C1541.781,110.022,1549.436,115.231,1551.415,125.646z M1474.314,164.704c-0.366-1.875-0.547-3.932-0.547-6.171
						c0-5.52,1.196-9.973,3.592-13.358c3.75,5.209,10.363,7.812,19.844,7.812h-7.813v11.718L1474.314,164.704L1474.314,164.704z
						 M1548.213,145.174c2.446-3.437,3.67-7.993,3.67-13.67c0-2.083-0.154-4.036-0.468-5.859h-15.154v11.718h-7.812
						C1537.874,137.363,1544.463,139.968,1548.213,145.174z"/>
					<path fill="#807F7F" d="M1564.496,156.892v-23.435c0-15.623,7.813-23.435,23.436-23.435h23.436
						c15.624,0,23.436,7.812,23.436,23.435v23.435c0,15.624-7.812,23.435-23.436,23.435h-23.436
						C1572.309,180.327,1564.496,172.516,1564.496,156.892z M1611.366,164.704c5.207,0,7.813-2.604,7.813-7.812v-23.435
						c0-5.207-2.604-7.812-7.813-7.812h-23.436c-5.209,0-7.812,2.604-7.812,7.812v23.435c0,5.208,2.603,7.812,7.812,7.812H1611.366z
						"/>
				</g>
				<path fill="#807F7F" d="M1330.756,156.989h20.17c0,5.042,2.836,8.51,6.776,8.51c3.938,0,33.488,0,36.323,0
					c2.839,0,3.783-2.049,3.783-4.886c0-2.836,1.26-8.982-4.412-8.982c-5.673,0-38.847,0-44.362,0s-18.438-4.57-18.438-20.013
					c0-15.443,10.084-21.116,17.177-21.116s47.116,0,53.576,0c6.461,0,12.449,2.994,12.449,19.541c-4.729,0-19.066,0-19.066,0
					c0-3.625-1.892-6.184-8.509-6.184c-6.619,0-23.721,0-28.446,0c-4.729,0-6.462,0.353-6.462,7.759
					c0,7.406,4.255,6.814,7.406,6.814s37.271,0,44.992,0c7.721,0,14.969,7.841,14.969,19.975c0,12.133-5.829,22.458-18.276,22.458
					c-12.449,0-47.117,0-53.421,0S1330.756,177.79,1330.756,156.989z"/>
			</g>
		</g>
		<g>
			<g>
				<g>
					<path fill="#E5E5E5" d="M314.505,207.665c0,7.362,5.969,13.332,13.332,13.332s13.332-5.97,13.332-13.332
						c0-7.363-5.969-13.332-13.332-13.332S314.505,200.302,314.505,207.665z M450.49,194.333c-7.363,0-13.332,5.969-13.332,13.332
						c0,7.362,5.969,13.332,13.332,13.332s13.332-5.97,13.332-13.332C463.822,200.302,457.854,194.333,450.49,194.333z
						 M701.128,194.333c-7.363,0-13.332,5.969-13.332,13.332c0,7.362,5.969,13.332,13.332,13.332s13.332-5.97,13.332-13.332
						C714.46,200.302,708.491,194.333,701.128,194.333z M162.522,173.002c-7.363,0-13.332,5.969-13.332,13.332
						c0,7.361,5.969,13.332,13.332,13.332s13.332-5.969,13.332-13.332C175.854,178.971,169.885,173.002,162.522,173.002z
						 M237.18,194.333c-7.363,0-13.332,5.969-13.332,13.332c0,7.362,5.969,13.332,13.332,13.332c7.363,0,13.332-5.97,13.332-13.332
						C250.512,200.302,244.543,194.333,237.18,194.333z M918.29,66.347H89.345c-14.071,0-25.479,11.408-25.479,25.479v199.681
						c0,14.071,11.407,25.479,25.479,25.479H918.29c14.071,0,25.479-11.407,25.479-25.479V91.826
						C943.77,77.754,932.361,66.347,918.29,66.347z M175.854,236.994l-15.998-26.663v26.663h-31.997V135.672h47.994
						c15.999,0,31.997,10.666,31.997,31.997s-15.998,26.664-21.331,26.664l26.664,42.662L175.854,236.994L175.854,236.994z
						 M229.181,236.994c-10.665,0-21.331-10.665-21.331-26.663c0-18.174,15.999-21.332,21.331-21.262
						c1.944,0.025,9.087-0.069,10.666-0.069c10.666,0,5.333-10.665,0-10.665s-21.331,0-21.331,0v-21.331h42.662
						c10.665,0,14.665,10.666,14.665,21.331s1.333,58.66,1.333,58.66L229.181,236.994L229.181,236.994z M367.832,236.994
						c0,0-21.331,0-42.661,0c-31.997,0-37.33-26.663-37.33-42.662c0-9.808,5.333-37.329,37.33-37.329h10.665v-21.331h31.996V236.994
						z M405.162,236.994h-26.664v-79.991h26.664V236.994z M450.49,236.994c-22.089,0-39.996-17.906-39.996-39.995
						s17.907-39.996,39.996-39.996s39.996,17.907,39.996,39.996S472.579,236.994,450.49,236.994z M586.475,167.669
						c-10.666,0-15.999,5.333-15.999,15.998c0,10.666,0,5.333,0,21.331c0,21.331-5.333,31.996-47.995,31.996
						c0-21.331,0-31.996,0-31.996c10.666,0,21.332,0,21.332-15.999c0-15.998,0-15.998,0-26.664c0-10.665,5.334-26.664,42.662-26.664
						C586.475,146.338,586.475,167.669,586.475,167.669z M666.466,236.994h-31.997V189c0-5.333-10.666-5.333-10.666,0
						s0,47.995,0,47.995H597.14V135.672h26.664v26.664c10.666-10.665,42.662-5.333,42.662,15.999S666.466,236.994,666.466,236.994z
						 M693.129,236.994c-10.665,0-21.331-10.665-21.331-26.663c0-18.174,15.999-21.332,21.331-21.262
						c1.943,0.025,9.087-0.069,10.666-0.069c10.666,0,5.333-10.665,0-10.665s-21.331,0-21.331,0v-21.331h42.662
						c10.666,0,14.665,10.666,14.665,21.331s1.333,58.66,1.333,58.66L693.129,236.994L693.129,236.994z M826.215,201.336
						l-28.041-0.027c-2.258-4.156-6.661-6.977-11.723-6.977c-7.362,0-13.332,5.969-13.332,13.332
						c0,7.361,5.969,13.332,13.332,13.332c5.137,0,9.596-2.906,11.822-7.164l24.47-0.002c-6.355,13.679-20.216,23.164-36.292,23.164
						c-22.088,0-39.995-17.906-39.995-39.995s17.907-39.996,39.995-39.996c22.089,0,39.996,17.907,39.996,39.996
						C826.448,198.465,826.37,199.912,826.215,201.336z M869.11,236.994l-10.666-31.996h-5.333v31.996H831.78V135.672h21.331v42.663
						h5.333l10.666-15.999h26.663L879.775,189l21.33,47.995L869.11,236.994L869.11,236.994z"/>
				</g>
			</g>
			<rect x="1009.787" y="218.548" fill="#E5E5E5" width="239.975" height="53.328"/>
			<rect x="1271.092" y="218.548" fill="#E5E5E5" width="239.975" height="53.328"/>
			<rect x="1532.396" y="218.548" fill="#E5E5E5" width="239.973" height="53.328"/>
			<g>
				<g>
					<path fill="#E5E5E5" d="M1142.514,114.17h78.116v15.623h-31.246v54.682h-15.624v-54.682h-31.246V114.17z"/>
					<path fill="#E5E5E5" d="M1255.583,157.134v27.341h-15.622V114.17h54.68c15.625,0,23.437,7.135,23.437,21.403
						c0,6.771-1.12,11.744-3.357,14.92c2.237,3.698,3.357,8.515,3.357,14.451v19.529h-15.623v-19.529
						c0-5.207-2.604-7.812-7.813-7.812h-39.058V157.134z M1255.583,141.511h46.87v-11.718h-46.87V141.511z"/>
					<path fill="#E5E5E5" d="M1433.076,157.134v-11.717h26.988v11.717H1433.076z"/>
					<path fill="#E5E5E5" d="M1555.266,129.793h-62.023v11.718h39.06c15.623,0,23.436,7.161,23.436,21.482
						c0,14.322-7.813,21.482-23.436,21.482h-31.247c-13.229,0-20.855-5.207-22.888-15.624h61.944v-11.717h-39.058
						c-15.624,0-23.435-7.056-23.435-21.169c0-14.53,7.811-21.794,23.435-21.794h31.247
						C1545.632,114.17,1553.287,119.378,1555.266,129.793z M1478.166,168.851c-0.366-1.875-0.547-3.931-0.547-6.17
						c0-5.52,1.195-9.973,3.593-13.358c3.75,5.208,10.363,7.812,19.843,7.812h-7.813v11.717L1478.166,168.851L1478.166,168.851z
						 M1552.064,149.322c2.445-3.438,3.67-7.994,3.67-13.67c0-2.083-0.155-4.035-0.469-5.859h-15.154v11.718h-7.812
						C1541.727,141.511,1548.314,144.115,1552.064,149.322z"/>
					<path fill="#E5E5E5" d="M1568.348,161.04v-23.435c0-15.624,7.813-23.435,23.437-23.435h23.437
						c15.623,0,23.434,7.811,23.434,23.435v23.435c0,15.623-7.812,23.435-23.434,23.435h-23.437
						C1576.16,184.475,1568.348,176.663,1568.348,161.04z M1615.219,168.851c5.206,0,7.812-2.603,7.812-7.811v-23.435
						c0-5.208-2.604-7.812-7.812-7.812h-23.436c-5.209,0-7.813,2.604-7.813,7.812v23.435c0,5.208,2.604,7.811,7.813,7.811H1615.219z
						"/>
				</g>
				<path fill="#E5E5E5" d="M1334.605,161.137h20.172c0,5.042,2.836,8.509,6.774,8.509c3.94,0,33.489,0,36.325,0
					c2.837,0,3.782-2.049,3.782-4.886c0-2.836,1.261-8.981-4.412-8.981c-5.672,0-38.846,0-44.362,0
					c-5.516,0-18.437-4.57-18.437-20.013s10.084-21.116,17.177-21.116c7.091,0,47.116,0,53.576,0c6.461,0,12.447,2.994,12.447,19.54
					c-4.727,0-19.065,0-19.065,0c0-3.625-1.892-6.183-8.509-6.183c-6.618,0-23.721,0-28.447,0s-6.46,0.353-6.46,7.759
					c0,7.406,4.255,6.813,7.405,6.813s37.271,0,44.992,0s14.97,7.841,14.97,19.975c0,12.133-5.83,22.458-18.278,22.458
					c-12.449,0-47.115,0-53.42,0C1344.532,185.012,1334.605,181.938,1334.605,161.137z"/>
			</g>
		</g>
		<g>
			<g>
				<g>
					<path d="M313.024,205.889c0,7.362,5.969,13.331,13.331,13.331c7.363,0,13.332-5.969,13.332-13.331
						c0-7.363-5.969-13.332-13.332-13.332C318.993,192.557,313.024,198.525,313.024,205.889z M699.646,192.557
						c-7.361,0-13.332,5.969-13.332,13.332c0,7.362,5.97,13.331,13.332,13.331c7.363,0,13.332-5.969,13.332-13.331
						C712.979,198.525,707.01,192.557,699.646,192.557z M235.699,192.557c-7.363,0-13.332,5.969-13.332,13.332
						c0,7.362,5.969,13.331,13.332,13.331c7.363,0,13.332-5.969,13.332-13.331C249.031,198.525,243.062,192.557,235.699,192.557z
						 M916.809,64.57H87.864c-14.071,0-25.479,11.408-25.479,25.479V289.73c0,14.071,11.407,25.479,25.479,25.479h828.944
						c14.071,0,25.479-11.406,25.479-25.479V90.049C942.287,75.978,930.88,64.57,916.809,64.57z M174.373,235.219l-15.999-26.664
						v26.664h-31.997V133.896h47.995c15.998,0,31.996,10.666,31.996,31.997s-15.998,26.664-21.331,26.664l26.664,42.663
						L174.373,235.219L174.373,235.219z M227.7,235.219c-10.666,0-21.331-10.666-21.331-26.664
						c0-18.174,15.998-21.331,21.331-21.262c1.943,0.025,9.087-0.069,10.666-0.069c10.665,0,5.333-10.666,0-10.666
						s-21.331,0-21.331,0v-21.332h42.662c10.666,0,14.665,10.666,14.665,21.332s1.333,58.661,1.333,58.661H227.7z M366.352,235.219
						c0,0-21.332,0-42.661,0c-31.998,0-37.33-26.664-37.33-42.662c0-9.81,5.333-37.331,37.33-37.331h10.666v-21.331h31.997v101.324
						H366.352z M403.681,235.219h-26.664v-79.992h26.664V235.219z M449.009,235.219c-22.089,0-39.996-17.906-39.996-39.996
						c0-22.089,17.907-39.996,39.996-39.996s39.996,17.907,39.996,39.996C489.005,217.313,471.098,235.219,449.009,235.219z
						 M584.994,165.893c-10.666,0-15.999,5.333-15.999,15.999c0,10.665,0,5.333,0,21.331c0,21.331-5.332,31.997-47.994,31.997
						c0-21.331,0-31.997,0-31.997c10.666,0,21.331,0,21.331-15.998c0-15.999,0-15.999,0-26.664s5.333-26.664,42.662-26.664
						C584.994,144.562,584.994,165.893,584.994,165.893z M664.984,235.219h-31.996v-47.995c0-5.333-10.666-5.333-10.666,0
						c0,5.333,0,47.995,0,47.995h-26.664V133.896h26.664v26.664c10.666-10.665,42.662-5.333,42.662,15.999
						C664.984,197.889,664.984,235.219,664.984,235.219z M691.648,235.219c-10.666,0-21.331-10.666-21.331-26.664
						c0-18.174,15.999-21.331,21.331-21.262c1.942,0.025,9.087-0.069,10.666-0.069c10.666,0,5.332-10.666,0-10.666
						c-5.334,0-21.331,0-21.331,0v-21.332h42.661c10.666,0,14.666,10.666,14.666,21.332s1.332,58.661,1.332,58.661H691.648z
						 M824.734,199.561l-28.041-0.028c-2.258-4.155-6.661-6.976-11.723-6.976c-7.362,0-13.332,5.969-13.332,13.332
						c0,7.362,5.97,13.331,13.332,13.331c5.138,0,9.597-2.905,11.822-7.163l24.47-0.002c-6.354,13.678-20.216,23.164-36.292,23.164
						c-22.089,0-39.996-17.906-39.996-39.996c0-22.089,17.906-39.996,39.996-39.996c22.088,0,39.996,17.907,39.996,39.996
						C824.967,196.688,824.888,198.135,824.734,199.561z M867.629,235.219l-10.666-31.996h-5.333v31.996H830.3V133.896h21.331
						v42.663h5.333l10.666-15.999h26.664l-15.999,26.664l21.331,47.995H867.629z M161.041,171.225
						c-7.363,0-13.332,5.969-13.332,13.332c0,7.363,5.969,13.332,13.332,13.332c7.362,0,13.332-5.969,13.332-13.332
						C174.373,177.194,168.403,171.225,161.041,171.225z M449.009,192.557c-7.362,0-13.332,5.969-13.332,13.332
						c0,7.362,5.97,13.331,13.332,13.331c7.363,0,13.332-5.969,13.332-13.331C462.341,198.525,456.372,192.557,449.009,192.557z"/>
				</g>
			</g>
			<rect x="1008.307" y="216.771" fill="#CE2027" width="239.975" height="53.328"/>
			<rect x="1269.61" y="216.771" fill="#0F7C3E" width="239.974" height="53.328"/>
			<rect x="1530.915" y="216.771" fill="#233D98" width="239.974" height="53.328"/>
			<g>
				<g>
					<path d="M1141.032,112.394h78.116v15.623h-31.246v54.682h-15.624v-54.682h-31.246V112.394z"/>
					<path d="M1254.104,155.357v27.341h-15.623v-70.305h54.681c15.624,0,23.436,7.135,23.436,21.404
						c0,6.771-1.12,11.744-3.358,14.92c2.238,3.698,3.358,8.515,3.358,14.452v19.529h-15.623v-19.529
						c0-5.208-2.604-7.812-7.813-7.812H1254.104z M1254.104,139.734h46.869v-11.718h-46.869V139.734z"/>
					<path d="M1431.596,155.357V143.64h26.988v11.717H1431.596z"/>
					<path d="M1553.785,128.017h-62.025v11.718h39.061c15.623,0,23.435,7.161,23.435,21.482c0,14.322-7.812,21.482-23.435,21.482
						h-31.247c-13.228,0-20.856-5.207-22.888-15.624h61.945v-11.717h-39.059c-15.623,0-23.436-7.056-23.436-21.169
						c0-14.53,7.813-21.794,23.436-21.794h31.247C1544.15,112.394,1551.807,117.602,1553.785,128.017z M1476.686,167.075
						c-0.366-1.875-0.547-3.931-0.547-6.171c0-5.52,1.196-9.972,3.592-13.358c3.75,5.208,10.363,7.812,19.843,7.812h-7.813v11.717
						H1476.686L1476.686,167.075z M1550.583,147.546c2.446-3.437,3.671-7.993,3.671-13.67c0-2.083-0.156-4.036-0.469-5.859h-15.154
						v11.718h-7.813C1540.245,139.734,1546.833,142.338,1550.583,147.546z"/>
					<path d="M1566.867,159.264v-23.435c0-15.624,7.812-23.435,23.435-23.435h23.437c15.623,0,23.435,7.812,23.435,23.435v23.435
						c0,15.623-7.812,23.435-23.435,23.435h-23.437C1574.679,182.698,1566.867,174.887,1566.867,159.264z M1613.737,167.075
						c5.204,0,7.811-2.603,7.811-7.811v-23.435c0-5.208-2.604-7.812-7.811-7.812h-23.437c-5.209,0-7.812,2.604-7.812,7.812v23.435
						c0,5.208,2.603,7.811,7.812,7.811H1613.737z"/>
				</g>
				<path d="M1333.125,159.36h20.171c0,5.042,2.837,8.51,6.775,8.51c3.939,0,33.489,0,36.327,0c2.836,0,3.781-2.049,3.781-4.886
					c0-2.836,1.26-8.981-4.412-8.981c-5.674,0-38.848,0-44.363,0s-18.437-4.57-18.437-20.013c0-15.443,10.085-21.116,17.177-21.116
					c7.091,0,47.115,0,53.576,0s12.447,2.994,12.447,19.54c-4.727,0-19.064,0-19.064,0c0-3.624-1.893-6.183-8.511-6.183
					c-6.616,0-23.719,0-28.445,0c-4.728,0-6.46,0.353-6.46,7.759c0,7.406,4.254,6.813,7.404,6.813c3.152,0,37.271,0,44.992,0
					s14.971,7.841,14.971,19.975c0,12.133-5.832,22.458-18.278,22.458c-12.449,0-47.116,0-53.421,0
					C1343.054,183.237,1333.125,180.161,1333.125,159.36z"/>
			</g>
		</g>
	</g>
</g>
</svg>
