<?xml version="1.0" encoding="utf-8"?>
<!-- Generator: Adobe Illustrator 13.0.0, SVG Export Plug-In . SVG Version: 6.00 Build 14948)  -->
<!DOCTYPE svg PUBLIC "-//W3C//DTD SVG 1.1//EN" "http://www.w3.org/Graphics/SVG/1.1/DTD/svg11.dtd">
<svg version="1.1" id="Layer_1" xmlns="http://www.w3.org/2000/svg" xmlns:xlink="http://www.w3.org/1999/xlink" x="0px" y="0px"
	 width="759.604px" height="159.302px" viewBox="-90.674 86 759.604 159.302" enable-background="new -90.674 86 759.604 159.302"
	 xml:space="preserve">
<g>
	<path fill="#FF0000" d="M34.216,126.241c1.222-0.088,2.456-0.127,3.706-0.127c27.223,0,50.532,26.348,52.282,39.772
		c0.186,1.401,0.312,2.661,0.399,3.735C90.238,133.037,33.181,86-12.63,86c-35.406,0-51.91,14.336-57.354,30.431
		c-8.116,20.308,2.598,49.249,27.652,69.85c2.622,2.153,5.308,4.146,8.042,5.972c-1.226,0.083-2.456,0.126-3.701,0.126
		c-27.222,0-50.538-26.353-52.286-39.776c-0.181-1.401-0.313-2.656-0.396-3.735c0.362,36.583,57.423,83.619,103.23,83.619
		c35.406,0,51.909-14.331,57.359-30.43c8.11-20.308-2.597-49.244-27.656-69.851C39.642,130.054,36.951,128.066,34.216,126.241z
		 M-16.81,187.018c-20.162-16.572-26.949-40.929-15.523-54.718c11.44-13.808,37.154-12.217,57.809,3.867
		c20.493,15.967,28.379,40.206,17.857,54.685c4.355-8.711-0.45-21.778-11.666-30.597c-12.163-9.561-27.305-10.508-34.043-2.3
		c-6.729,8.198-2.729,22.671,9.145,32.525c9.146,7.588,20.327,10.274,28.283,7.491C21.495,205.119,0.256,201.051-16.81,187.018z"/>
	<g>
		<path fill="#F0373F" d="M400.795,159.762c-4.492-1.324-9.556,5.023-13.879,14.709c-3.852,16.146-12.414,39.951-12.965,56.377
			c-0.25,7.289,6.479,9.426,11.051,11.039c14.471,5.105,22.934,0.111,27.243-5.104c3.1-3.74-0.179-6.859-4.021-5.715
			c-5.556,1.643-12.344,2.758-13.746-2.607c-1.545-5.916,6.688-30.225,12.373-48.324
			C409.959,170.258,412.587,162.057,400.795,159.762z"/>
		<path fill="#F5A023" d="M325.816,188.401c-9.795,1.012-29.26,6.195-29.26,31.375c0,1.186-3.551,28.43,31.586,25.271
			c35.148-3.16,41.064-25.271,41.064-25.271s8.693-29.221-12.636-28.428c-13.017,0.48-18.952,6.316-18.952,6.316
			s8.684,1.705,10.559,7.941c3.561,11.822,2.247,31.77-16.876,29.963c-19.192-1.813-9.817-27.166-3.77-40.021
			C329.619,191.127,329.105,188.059,325.816,188.401z"/>
		<path fill="#7487BF" d="M442.691,188.401c-9.797,1.012-29.263,6.195-29.263,31.375c0,1.186-3.549,28.43,31.587,25.271
			c35.147-3.16,41.065-25.271,41.065-25.271s8.692-29.221-12.636-28.428c-13.017,0.48-18.951,6.316-18.951,6.316
			s8.682,1.705,10.557,7.941c3.562,11.822,2.247,31.77-16.876,29.963c-19.192-1.813-9.817-27.166-3.771-40.021
			C446.493,191.127,445.98,188.059,442.691,188.401z"/>
		<path fill="#019EE3" d="M211.271,207.143c-1.574-31.197,41.515-45.195,56.857-46.379c15.354-1.194,31.588,2.154,31.588,2.154
			s-2.367,30.797-9.477,31.588c-7.1,0.793-5.525-23.295-18.953-22.109c-24.588,2.166-34.455,28.969-34.747,37.902
			c-0.129,4.322,1.194,23.686,18.953,22.111c17.769-1.586,21.72-11.061,25.27-12.635c3.56-1.586,10.368-4.703,9.477,3.158
			c-1.966,17.367-34.746,22.111-34.746,22.111S213.316,247.372,211.271,207.143z"/>
		<path fill="#DA72A3" d="M501.876,241.887c-15.004,0.793-6.711-17.377-3.159-28.428c3.56-11.063,2.907-23.184,15.793-22.111
			c14.249,1.176,3.158,18.953,3.158,18.953s21.641-23.734,41.063-22.109c4.743,0.389-9.477,31.586-9.477,31.586
			s-3.551-11.451-12.634-9.477C510.508,215.977,516.885,241.096,501.876,241.887z"/>
	</g>
	<g>
		<polygon fill="#686868" points="102,136.463 111.615,96.149 121.299,88.465 130.911,88.465 121.299,128.778 130.911,123.025 
			138.628,94.254 144.417,88.465 157.961,88.465 148.313,128.778 157.961,121.129 163.716,96.149 171.47,88.465 183.083,88.465 
			173.436,126.885 161.855,136.463 		"/>
		<polygon fill="#686868" points="492.958,136.463 497.871,113.448 506.605,105.061 517.832,105.061 511.238,130.358 
			520.92,124.604 523.376,111.517 529.834,105.061 543.306,105.061 536.708,130.358 545.833,124.252 548.429,113.448 
			556.848,105.061 566.883,105.061 561.27,126.885 548.113,136.463 		"/>
		<path fill="#686868" d="M417.63,136.463l9.683-9.578h41.543c0,0,3.575,1.053,5.615-3.473c1.857-4.213-1.756-4.213-1.756-4.213
			H453.42c0,0-5.543-1.265-5.578-8.07c-0.104-16.733,13.648-21.051,13.648-21.051h40.556l-8.067,8h-21.264
			c0,0-6.771,1.93-6.913,7.58c-0.104,2.562,3.054,2.035,3.054,2.035h17.33c0,0,10.034,1.684,7.721,12.49
			c-3.021,14.21-13.475,16.279-13.475,16.279H417.63L417.63,136.463z"/>
		<path fill="#686868" d="M384.648,136.463h17.33l5.266-19.928c0.632-2.316,6.736-4.945,5.124-4.668
			c-1.58,0.281,5.543-1.054,5.543-1.054s2.243,0.632,3.368,2.177c1.158,1.508-1.125,3.754-1.44,5.51
			c-0.313,1.752,1.931,1.928,1.931,1.928h9.684c0,0,5.196-1.928,6.601-3.857c1.369-1.964,3.084-4,3.084-5.72
			s-3.823-3.858-3.823-3.858l-3.896-1.896h-28.945c0,0-13.854,7.933-15.471,9.579C388.438,115.167,384.648,136.463,384.648,136.463z
			"/>
		<path fill="#686868" d="M182.063,114.463c-1.332,1.543-5.682,15.088-4.735,17.297c0.981,2.143,6.35,4.701,6.35,4.701h28.208
			c0,0,13.157-8.246,14.174-9.404c0.983-1.191,4.702-14.35,4.702-15.721c0-1.369-3.157-6.278-3.157-6.278h-32.98
			C194.625,105.061,183.436,112.92,182.063,114.463z M204.063,111.342h8.668c0,0-0.982,10.422-3.157,13.365
			c-2.21,2.949-7.087,5.51-7.087,5.51s-5.473,0.563-6.245,0c-0.808-0.631-0.211-6.28-0.211-6.28s0.737-6.104,1.754-7.894
			C198.768,114.29,204.063,111.342,204.063,111.342z"/>
		<path fill="#686868" d="M287.251,114.463c-1.333,1.543-5.683,15.088-4.701,17.297c0.982,2.143,6.315,4.701,6.315,4.701h39.26
			c0,0,1.299-6.246,2.914-12.563c1.542-5.931,3.368-15.048,3.368-15.72c0-1.404,9.754-13.717,9.754-13.717h-17.054l-8.627,10.594
			h-18.668C299.85,105.061,288.657,112.92,287.251,114.463z M309.25,111.342h8.63c0,0-0.948,10.422-3.159,13.365
			c-2.142,2.949-7.052,5.51-7.052,5.51s-5.473,0.563-6.281,0c-0.737-0.631-0.209-6.28-0.209-6.28s0.737-6.104,1.789-7.894
			C303.951,114.29,309.25,111.342,309.25,111.342z"/>
		<path fill="#686868" d="M226.555,136.463l8.911-31.402h37.683c0,0,4.982,0.525,6.666,3.333c1.754,2.81,1.193,7.649,1.193,7.649
			l-5.123,20.42h-15.719c0,0,1.825-9.998,3.579-17.264c1.754-7.264-3.157-7.857-3.157-7.857h-9.402l-5.403,18.84
			c0,0-4.702,5.473-6.666,6.281H226.555z"/>
		<path fill="#686868" d="M613.265,136.463l10.001-31.402h37.684c0,0,4.945,0.525,6.701,3.333c1.756,2.81,1.193,7.649,1.193,7.649
			l-5.3,20.42h-17.226c0,0,2.875-8.42,4.7-15.721c1.755-7.228-2.563-9.402-2.563-9.402h-9.438l-5.265,18.84
			c0,0-4.348,5.474-6.278,6.281h-14.212v0.002H613.265z"/>
		<path fill="#686868" d="M339.071,114.463c-1.37,1.543-5.647,15.088-4.699,17.297c0.946,2.143,6.278,4.701,6.278,4.701h28.246
			c0,0,5.613-3.51,9.791-6.281c0,0-24.002,0.176-25.475,0c-0.665-0.07-0.42-2.979-0.35-4.699h19.296c0,0,3.719-0.809,9.262-5.404
			c5.617-4.595,6.315-5.089,6.315-8.736c0-3.611-3.158-6.281-3.158-6.281H351.6C351.668,105.061,340.441,112.92,339.071,114.463z
			 M361.107,111.342h12.666c0,0-1.403,4.809-8.314,7.857h-10.561c-1.019-2.734,1.474-4.91,2.877-6.105
			C359.248,111.762,361.107,111.342,361.107,111.342z"/>
		<path fill="#686868" d="M592.846,136.463c0,0,5.333-16.877,7.02-22.28c0.842-2.946-1.123-2.841-4.844-2.841
			c-3.722,0-6.422,0.806-11.578,9.4c-6.035,10.035,8.91,12.772,8.91,12.772l-1.054,2.944h-17.259c0,0-9.439,0.388-9.439-10.979
			c0-13.964,17.856-20.423,17.856-20.423h37.717l-10.033,31.402h-17.296V136.463L592.846,136.463z"/>
	</g>
</g>
</svg>
