<svg height="320" preserveAspectRatio="xMidYMid meet" viewBox="0 0 480 320" width="480" xmlns="http://www.w3.org/2000/svg"><g fill="#929292" transform="translate(-1.847661 2.312498)"><path d="M 388.5 187.5 V 174 H 366 H 343.5 V 135 V 96 H 366 H 388.5 V 82.5 l .10881 -15.142074 l 2.97869 2.485824 C 392.04816 70.228187 394.8 72.6 399.3 76.9 c 4.5 4.2 10.9 10.2 14.3 13.1 c 12.1 10.6 29.5 26.5 39.2 35.7 l 10.1 9.6 l -6.2 5.4 c -3.3 3.2 -12.8 11.7 -21 19.2 c -23.5 21.6 -46.51981 42.64163 -47.30289 42.47798 c 0 0 .13829 -6.9041 .13829 -14.4041 z"/><path d="M 279 135 V 96 h 10.5 h 10.5 v 39 v 39 H 289.5 H 279 Z"/><path d="M 307.5 135 V 96 h 14.3 h 14.3 v 39 v 39 h -14.3 h -14.3 z"/></g><text/><g font-family="DREAMS"><text fill="#f00" font-size="27.8888" stroke-width=".697221" x="14.429675" y="176.41603"><tspan stroke-width=".697221" x="14.429675" y="176.41603">351</tspan></text><text fill="#fff" font-size="22.99" stroke-width=".574748" x="13.601863" y="250.32957"><tspan stroke-width=".574748" x="13.601863" y="250.32957">ELEC</tspan></text></g></svg>