<?xml version="1.0" encoding="utf-8"?>
<!-- Generator: Adobe Illustrator 16.0.0, SVG Export Plug-In . SVG Version: 6.00 Build 0)  -->
<!DOCTYPE svg PUBLIC "-//W3C//DTD SVG 1.1//EN" "http://www.w3.org/Graphics/SVG/1.1/DTD/svg11.dtd">
<svg version="1.1" id="Layer_1" xmlns="http://www.w3.org/2000/svg" xmlns:xlink="http://www.w3.org/1999/xlink" x="0px" y="0px"
	 width="1280px" height="720px" viewBox="0 0 1280 720" enable-background="new 0 0 1280 720" xml:space="preserve">
<g id="Layer_2">
</g>
<g>
	<g>
		<g>
			<path fill="#231F20" d="M250.535,508.316h-10.883h-10.89h-10.887h-10.888h-10.887h-10.886v-10.885v-10.89v-10.887v-10.887
				v-10.888v-10.887v-10.887v-10.886v-10.888h10.886h10.887h10.888h10.887h10.89h10.883h10.887v10.888v10.886h-10.887h-10.883
				h-10.89h-10.887h-10.888v10.887h10.888h10.887h10.89h10.883v10.887v10.888h-10.883h-10.89h-10.887h-10.888v10.887v10.887h10.888
				h10.887h10.89h10.883h10.887v10.89v10.885H250.535z"/>
			<path fill="#231F20" d="M262.403,509.294h-78.167l-9.788-11.743l9.788-88.197l68.379-11.743l9.788,11.743v23.735h-54.438v8.928
				l33.763-11.743l9.786,11.743v23.729h-43.548v19.818l44.65-11.744l9.788,11.744V509.294z M186.191,507.34h74.25v-19.82H206.01
				v-23.729h43.547v-19.818H206.01V431.13h54.431v-19.815h-74.25V507.34z"/>
		</g>
		<g>
			<path fill="#231F20" d="M358.622,475.655v-10.887h-10.887v10.887v10.887v10.89v10.885h-10.887h-10.887v-10.885v-10.89v-10.887
				v-10.887v-10.888v-10.887v-10.887v-10.886v-10.888l2.08-12.724l8.807,12.724v10.888l2.08-12.722l8.807,12.722v10.886l2.08-12.721
				l8.807,12.721v10.887h10.887v-10.887h10.887v-10.886h10.887v-10.888h10.887v10.888v10.886v10.887v10.887v10.888v10.887v10.887
				v10.89v10.885h-10.887h-10.887v-10.885v-10.89v-10.887v-10.887h-10.887v10.887H358.622z"/>
			<path fill="#231F20" d="M403.15,509.294h-23.732l-9.785-11.743l9.785-31.805h-8.932v10.891h-12.845l-9.907-11.868l9.907,0.978
				h-8.93v43.548h-23.729l-9.788-11.743l9.788-88.197h12.843v10.889h10.886v10.888h10.89v10.887h8.929V431.13h10.887v-10.888h10.887
				v-10.889l3.057-11.743l9.789,11.743V509.294z M381.376,507.34h19.813v-96.025h-8.929v10.884h-10.884v10.891h-10.89v10.884
				h-12.845v-10.884h-10.884v-10.891h-10.89v-10.884h-8.929v96.025h19.819v-43.549h12.844v10.887h8.929v-10.887h12.846V507.34z"/>
		</g>
		<g>
			<path fill="#231F20" d="M521.143,508.316h-10.89h-10.887h-10.884h-10.887v-10.885h-10.887v-10.89v-10.887v-10.887v-10.888
				v-10.887v-10.887v-10.886v-10.888h10.887h10.887v10.888v10.886v10.887v10.887v10.888v10.887v10.887h10.884h10.887h10.89v-10.887
				v-10.887v-10.888v-10.887v-10.887v-10.886v-10.888h10.887h10.887v10.888v10.886v10.887v10.887v10.888v10.887v10.887v10.89
				h-10.887v10.885H521.143z"/>
			<path fill="#231F20" d="M533.008,509.294h-56.394l-9.906-11.862l9.906,0.977H465.73l-9.788-11.742l9.788-77.313l13.941-11.743
				l9.788,11.743v76.211h30.706v-76.211l13.947-11.743l9.781,11.743v89.055h-10.886V509.294z M478.573,507.34h52.479v-10.892h10.884
				v-85.134h-19.814v76.205h-34.62v-76.205h-19.816v85.134h10.887V507.34z"/>
		</g>
		<g>
			<path fill="#231F20" d="M672.777,508.316H661.89h-10.887h-10.89h-10.888h-10.884h-10.888v-10.885v-10.89v-10.887v-10.887v-10.888
				v-10.887v-10.887v-10.886v-10.888h10.888h10.884h10.888h10.89h10.887h10.888h10.886v10.888v10.886h-10.886H661.89h-10.887h-10.89
				h-10.888v10.887h10.888h10.89h10.887h10.888v10.887v10.888H661.89h-10.887h-10.89h-10.888v10.887v10.887h10.888h10.89h10.887
				h10.888h10.886v10.89v10.885H672.777z"/>
			<path fill="#231F20" d="M684.642,509.294h-78.167l-9.784-11.743l9.784-88.197l68.381-11.743l9.786,11.743v23.735h-54.436v8.928
				l33.764-11.743l9.784,11.743v23.729h-43.548v19.818l43.67-10.766l10.766,10.766V509.294z M608.434,507.34h74.25v-19.82h-54.435
				v-23.729h43.547v-19.818h-43.547V431.13h54.435v-19.815h-74.25V507.34z"/>
		</g>
		<g>
			<path fill="#231F20" d="M813.523,508.316h-10.887H791.75h-10.887h-10.89h-10.888h-10.883v-10.885v-10.89v-10.887v-10.887v-10.888
				v-10.887v-10.887v-10.886v-10.888h10.883h10.888v10.888v10.886v10.887v10.887v10.888v10.887v10.887h10.89h10.887h10.887h10.887
				h10.888v10.89v10.885H813.523z"/>
			<path fill="#231F20" d="M825.388,509.294h-78.165l-9.786-11.743l9.786-88.197l13.943-11.743l9.787,11.743v76.211l44.648-11.744
				l9.786,11.744V509.294z M749.18,507.34h74.251v-19.82h-54.435v-76.205H749.18V507.34z"/>
		</g>
		<g>
			<path fill="#231F20" d="M954.268,508.316h-10.887h-10.887h-10.887h-10.887h-10.89h-10.884v-10.885v-10.89v-10.887v-10.887
				v-10.888v-10.887v-10.887v-10.886v-10.888h10.884h10.89h10.887h10.887h10.887h10.887h10.888v10.888v10.886h-10.888h-10.887
				h-10.887h-10.887h-10.887v10.887h10.887h10.887h10.887h10.887v10.887v10.888h-10.887h-10.887h-10.887h-10.887v10.887v10.887
				h10.887h10.887h10.887h10.887h10.888v10.89v10.885H954.268z"/>
			<path fill="#231F20" d="M966.136,509.294h-78.17l-9.784-11.743l9.784-88.197l68.382-11.743l9.788,11.743v23.735h-54.435v8.928
				l33.76-11.743l9.784,11.743v23.729h-43.544v19.818l44.646-11.744l9.788,11.744V509.294z M889.924,507.34h74.254v-19.82h-54.436
				v-23.729h43.545v-19.818h-43.545V431.13h54.436v-19.815h-74.254V507.34z"/>
		</g>
		<g>
			<path fill="#231F20" d="M1084.129,508.316h-10.887h-10.887h-10.888h-10.888v-10.885h-10.89v-10.89v-10.887v-10.887v-10.888
				v-10.887v-10.887v-10.886h10.89v-10.888h10.888h10.888h10.887h10.887h10.884v10.888h10.89v10.886v10.887h-10.89h-10.884v-10.887
				h-10.887h-10.887h-10.888v10.887v10.887v10.888v10.887v10.887h10.888h10.887h10.887v-10.887h10.884h10.89v10.887v10.89h-10.89
				v10.885H1084.129z"/>
			<path fill="#231F20" d="M1097.095,408.5l9.788,11.742v23.73h-23.734l-9.906-11.865l9.906,0.981h-30.703v52.476h30.703v-10.887
				l13.946-11.746l9.788,11.746v23.73h-10.89v10.886h-56.39l-9.913-11.862l9.913,0.977h-10.89l-9.785-11.742l9.785-66.424h10.89
				v-10.889l46.602-11.743l9.788,11.743L1097.095,408.5z M1041.562,507.34h52.473v-10.892h10.891v-19.812h-19.818v10.883h-34.617
				v-56.39h34.617v10.887h19.818v-19.818h-10.891v-10.884h-52.473v10.884h-10.89v74.25h10.89V507.34z"/>
		</g>
	</g>
	<g>
		<g>
			<path fill="#A8A3D0" d="M240.75,496.572h-10.887h-10.89h-10.884h-10.887h-10.887h-10.889v-10.888v-10.886v-10.887v-10.887
				v-10.888v-10.887v-10.888v-10.886V398.59h10.889h10.887h10.887h10.884h10.89h10.887h10.888v10.888v10.886H240.75h-10.887h-10.89
				h-10.884h-10.887v10.888h10.887h10.884h10.89h10.887v10.887v10.888h-10.887h-10.89h-10.884h-10.887v10.887v10.887h10.887h10.884
				h10.89h10.887h10.888v10.886v10.888H240.75z"/>
			<path fill="#231F20" d="M252.615,497.551h-78.167v-99.94h78.167v23.735h-54.435v8.928h43.547v23.729h-43.547v19.818h54.435
				V497.551z M176.407,495.596h74.25v-19.819h-54.434v-23.729h43.547v-19.819h-43.547v-12.842h54.434v-19.815h-74.25V495.596z"/>
		</g>
		<g>
			<path fill="#A8A3D0" d="M348.837,463.912v-10.887h-10.89v10.887v10.887v10.886v10.888h-10.884h-10.89v-10.888v-10.886v-10.887
				v-10.887v-10.888v-10.887v-10.888v-10.886V398.59h10.89v10.888h10.884v10.886h10.89v10.888h10.884v-10.888h10.89v-10.886h10.884
				V398.59h10.89v10.888v10.886v10.888v10.887v10.888v10.887v10.887v10.886v10.888h-10.89h-10.884v-10.888v-10.886v-10.887v-10.887
				h-10.89v10.887H348.837z"/>
			<path fill="#231F20" d="M393.362,497.551h-23.729v-43.549h-8.931v10.891h-12.845v-10.891h-8.929v43.549h-23.732v-99.94h12.845
				v10.89h10.887v10.887h10.887v10.887h8.929v-10.887h10.889V408.5h10.885v-10.89h12.844V497.551z M371.588,495.596h19.818v-96.024
				h-8.931v10.884h-10.888v10.891h-10.886v10.883h-4.685h-8.16v-10.883h-4.564h-6.323v-10.891h-10.888v-10.884h-8.929v96.024h19.816
				v-43.548h12.845v10.884h8.929v-10.884h12.844V495.596z"/>
		</g>
		<g>
			<path fill="#A8A3D0" d="M511.358,496.572h-10.887h-10.891h-10.886H467.81v-10.888h-10.889v-10.886v-10.887v-10.887v-10.888
				v-10.887v-10.888v-10.886V398.59h10.889h10.885v10.888v10.886v10.888v10.887v10.888v10.887v10.887h10.886h10.891h10.887v-10.887
				v-10.887v-10.888v-10.887v-10.888v-10.886V398.59h10.883h10.89v10.888v10.886v10.888v10.887v10.888v10.887v10.887v10.886h-10.89
				v10.888H511.358z"/>
			<path fill="#231F20" d="M523.223,497.551H466.83v-10.885h-10.887V397.61h23.729v76.21h30.705v-76.21h23.735v89.056h-10.89
				V497.551z M468.788,495.596h52.476v-10.889h10.891v-85.136h-19.819v76.205h-34.618v-76.205h-19.816v85.136h10.887V495.596z"/>
		</g>
		<g>
			<path fill="#514688" d="M662.989,496.572h-10.886h-10.886h-10.89h-10.887h-10.887h-10.887v-10.888v-10.886v-10.887v-10.887
				v-10.888v-10.887v-10.888v-10.886V398.59h10.887h10.887h10.887h10.89h10.886h10.886h10.887v10.888v10.886h-10.887h-10.886
				h-10.886h-10.89h-10.887v10.888h10.887h10.89h10.886h10.886v10.887v10.888h-10.886h-10.886h-10.89h-10.887v10.887v10.887h10.887
				h10.89h10.886h10.886h10.887v10.886v10.888H662.989z"/>
			<path fill="#231F20" d="M674.855,497.551H596.69v-99.94h78.165v23.735h-54.438v8.928h43.552v23.729h-43.552v19.818h54.438
				V497.551z M598.648,495.596h74.249v-19.819h-54.434v-23.729h43.547v-19.819h-43.547v-12.842h54.434v-19.815h-74.249V495.596z"/>
		</g>
		<g>
			<path fill="#514688" d="M803.736,496.572H792.85h-10.885h-10.887h-10.891h-10.887h-10.886v-10.888v-10.886v-10.887v-10.887
				v-10.888v-10.887v-10.888v-10.886V398.59h10.886h10.887v10.888v10.886v10.888v10.887v10.888v10.887v10.887h10.891h10.887h10.885
				h10.887h10.886v10.886v10.888H803.736z"/>
			<path fill="#231F20" d="M815.602,497.551h-78.165v-99.94h23.729v76.21h54.436V497.551z M739.395,495.596h74.25v-19.819h-54.434
				v-76.205h-19.816V495.596z"/>
		</g>
		<g>
			<path fill="#514688" d="M944.479,496.572h-10.887h-10.887h-10.884h-10.887h-10.887h-10.89v-10.888v-10.886v-10.887v-10.887
				v-10.888v-10.887v-10.888v-10.886V398.59h10.89h10.887h10.887h10.884h10.887h10.887h10.891v10.888v10.886h-10.891h-10.887
				h-10.887h-10.884h-10.887v10.888h10.887h10.884h10.887h10.887v10.887v10.888h-10.887h-10.887h-10.884h-10.887v10.887v10.887
				h10.887h10.884h10.887h10.887h10.891v10.886v10.888H944.479z"/>
			<path fill="#231F20" d="M956.348,497.551h-78.166v-99.94h78.166v23.735h-54.435v8.928h43.548v23.729h-43.548v19.818h54.435
				V497.551z M880.137,495.596h74.256v-19.819h-54.438v-23.729h43.55v-19.819h-43.55v-12.842h54.438v-19.815h-74.256V495.596z"/>
		</g>
		<g>
			<path fill="#514688" d="M1074.341,496.572h-10.888h-10.886h-10.886h-10.886v-10.888h-10.89v-10.886v-10.887v-10.887v-10.888
				v-10.887v-10.888v-10.886h10.89V398.59h10.886h10.886h10.886h10.888h10.89v10.888h10.887v10.886v10.888h-10.887h-10.89v-10.888
				h-10.888h-10.886h-10.886v10.888v10.887v10.888v10.887v10.887h10.886h10.886h10.888v-10.887h10.89h10.887v10.887v10.886h-10.887
				v10.888H1074.341z"/>
			<path fill="#231F20" d="M1086.205,497.551h-56.391v-10.885h-10.886V408.5h10.886v-10.89h56.391v10.89h10.89v23.729h-23.731
				v-10.883h-30.703v52.475h30.703v-10.889h23.731v23.734h-10.89V497.551z M1031.773,495.596h52.479v-10.889h10.884v-19.814h-19.816
				v10.884h-34.618v-56.39h34.618v10.887h19.816v-19.818h-10.884v-10.884h-52.479v10.884h-10.89v74.252h10.89V495.596z"/>
		</g>
	</g>
</g>
<g>
	<path fill="#231F20" d="M207.361,610.525h-5.487h-5.484h-5.485h-5.484h-5.485h-5.487v-5.491v-5.481v-5.486v-5.484v-5.484v-5.484
		v-5.484v-5.488v-5.484h5.487h5.485h5.484h5.485h5.484h5.487h5.482v5.484v5.488h-5.482h-5.487h-5.484h-5.485h-5.484v5.484v5.484
		v5.484v5.484v5.486h5.484h5.485h5.484h5.487h5.482v5.481v5.491H207.361z M201.874,591.322h-5.484h-5.485h-5.484v-5.481v-5.487
		h5.484h5.485h5.484h5.487v5.487v5.481H201.874z"/>
	<path fill="#231F20" d="M252.338,594.066v-5.484h-5.488v5.484v5.486v5.481v5.491h-5.487h-5.482v-5.491v-5.481v-5.486v-5.484v-5.484
		v-5.484v-5.484v-5.488v-5.484h5.482v5.484h5.487v5.488h5.488v5.484h5.481v-5.484h5.487v-5.488h5.484v-5.484h5.484v5.484v5.488
		v5.484v5.484v5.484v5.484v5.486v5.481v5.491h-5.484h-5.484v-5.491v-5.481v-5.486v-5.484h-5.487v5.484H252.338z"/>
	<path fill="#231F20" d="M324.735,610.525h-5.482h-5.486h-5.483h-5.487v-5.491h-5.485v-5.481v-5.486v-5.484v-5.484v-5.484v-5.484
		v-5.488v-5.484h5.485h5.487v5.484v5.488v5.484v5.484v5.484v5.484v5.486h5.483h5.486h5.482v-5.486v-5.484v-5.484v-5.484v-5.484
		v-5.488v-5.484h5.488h5.484v5.484v5.488v5.484v5.484v5.484v5.484v5.486v5.481h-5.484v5.491H324.735z"/>
	<path fill="#231F20" d="M391.649,610.525h-5.481h-5.488H375.2h-5.488h-5.484h-5.484v-5.491v-5.481v-5.486v-5.484v-5.484v-5.484
		v-5.484v-5.488v-5.484h5.484h5.484v5.484v5.488v5.484v5.484v5.484v5.484v5.486h5.488h5.481h5.488h5.481h5.487v5.481v5.491H391.649z
		"/>
	<path fill="#231F20" d="M453.083,610.525h-5.485v-5.491v-5.481v-5.486h-5.485h-5.486h-5.485v5.486v5.481v5.491h-5.485h-5.484
		v-5.491v-5.481v-5.486v-5.484v-5.484v-5.484v-5.484h5.484v-5.488h5.485v-5.484h5.485h5.486h5.485v5.484h5.485v5.488h5.484v5.484
		v5.484v5.484v5.484v5.486v5.481v5.491H453.083z M442.114,583.098h5.485v-5.484v-5.484h-5.485v-5.488h-5.486v5.488h-5.485v5.484
		v5.484h5.485H442.114z"/>
	<path fill="#231F20" d="M498.061,610.525h-5.487v-5.491v-5.481v-5.486v-5.484v-5.484v-5.484v-5.484h-5.482h-5.487v-5.488v-5.484
		h5.487h5.482h5.487h5.485h5.483h5.481v5.484v5.488h-5.481h-5.483v5.484v5.484v5.484v5.484v5.486v5.481v5.491H498.061z"/>
	<path fill="#231F20" d="M564.976,610.525h-5.487h-5.481h-5.488h-5.479h-5.488v-5.491v-5.481h5.488h5.479v-5.486v-5.484v-5.484
		v-5.484v-5.484h-5.479h-5.488v-5.488v-5.484h5.488h5.479h5.488h5.481h5.487h5.481v5.484v5.488h-5.481h-5.487v5.484v5.484v5.484
		v5.484v5.486h5.487h5.481v5.481v5.491H564.976z"/>
	<path fill="#231F20" d="M620.922,610.525h-5.482h-5.486h-5.487h-5.481v-5.491h-5.488v-5.481v-5.486v-5.484v-5.484v-5.484v-5.484
		v-5.488h5.488v-5.484h5.481h5.487h5.486h5.482h5.487v5.484h5.483v5.488v5.484v5.484v5.484v5.484v5.486v5.481h-5.483v5.491H620.922z
		 M615.439,599.553h5.482v-5.486v-5.484v-5.484v-5.484v-5.484h-5.482h-5.486h-5.487v5.484v5.484v5.484v5.484v5.486h5.487H615.439z"
		/>
	<path fill="#231F20" d="M687.837,610.525h-5.485v-5.491v-5.481h-5.48v-5.486h-5.487v-5.484h-5.484v5.484v5.486v5.481v5.491h-5.488
		h-5.48v-5.491v-5.481v-5.486v-5.484v-5.484v-5.484v-5.484v-5.488v-5.484h5.48h5.488v5.484v5.488h5.484v5.484h5.487v5.484h5.48
		v-5.484v-5.484v-5.488v-5.484h5.485h5.487v5.484v5.488v5.484v5.484v5.484v5.484v5.486v5.481v5.491H687.837z"/>
	<path fill="#231F20" d="M743.783,610.525h-5.486h-5.485h-5.483h-5.483v-5.491h-5.487v-5.481v-5.486h5.487h5.483v5.486h5.483h5.485
		h5.486v-5.486h-5.486h-5.485v-5.484h-5.483v-5.484h-5.483h-5.487v-5.484v-5.484v-5.488h5.487v-5.484h5.483h5.483h5.485h5.486h5.486
		v5.484h5.483v5.488v5.484h-5.483h-5.486v-5.484h-5.486h-5.485h-5.483v5.484h5.483h5.485v5.484h5.486v5.484h5.486h5.483v5.484v5.486
		v5.481h-5.483v5.491H743.783z"/>
	<path fill="#231F20" d="M794.242,610.525h-5.487v-5.491v-5.481v-5.486v-5.484v-5.484v-5.484v-5.484h-5.481h-5.482v-5.488v-5.484
		h5.482h5.481h5.487h5.487h5.487h5.482v5.484v5.488h-5.482h-5.487v5.484v5.484v5.484v5.484v5.486v5.481v5.491H794.242z"/>
	<path fill="#231F20" d="M866.645,610.525h-5.484v-5.491v-5.481v-5.486h-5.485h-5.483h-5.487v5.486v5.481v5.491h-5.484h-5.487
		v-5.491v-5.481v-5.486v-5.484v-5.484v-5.484v-5.484h5.487v-5.488h5.484v-5.484h5.487h5.483h5.485v5.484h5.484v5.488h5.483v5.484
		v5.484v5.484v5.484v5.486v5.481v5.491H866.645z M855.675,583.098h5.485v-5.484v-5.484h-5.485v-5.488h-5.483v5.488h-5.487v5.484
		v5.484h5.487H855.675z"/>
	<path fill="#231F20" d="M911.625,610.525h-5.485v-5.491v-5.481v-5.486v-5.484v-5.484v-5.484v-5.484h-5.486h-5.485v-5.488v-5.484
		h5.485h5.486h5.485h5.484h5.483h5.485v5.484v5.488h-5.485h-5.483v5.484v5.484v5.484v5.484v5.486v5.481v5.491H911.625z"/>
	<path fill="#231F20" d="M978.536,610.525h-5.481h-5.486h-5.488h-5.484h-5.484v-5.491v-5.481h5.484h5.484v-5.486v-5.484v-5.484
		v-5.484v-5.484h-5.484h-5.484v-5.488v-5.484h5.484h5.484h5.488h5.486h5.481h5.481v5.484v5.488h-5.481h-5.481v5.484v5.484v5.484
		v5.484v5.486h5.481h5.481v5.481v5.491H978.536z"/>
	<path fill="#231F20" d="M1034.482,610.525h-5.483h-5.485h-5.483h-5.485v-5.491h-5.489v-5.481v-5.486v-5.484v-5.484v-5.484v-5.484
		v-5.488h5.489v-5.484h5.485h5.483h5.485h5.483h5.482v5.484h5.49v5.488v5.484v5.484v5.484v5.484v5.486v5.481h-5.49v5.491H1034.482z
		 M1028.999,599.553h5.483v-5.486v-5.484v-5.484v-5.484v-5.484h-5.483h-5.485h-5.483v5.484v5.484v5.484v5.484v5.486h5.483H1028.999z
		"/>
	<path fill="#231F20" d="M1101.398,610.525h-5.49v-5.491v-5.481h-5.481v-5.486h-5.484v-5.484h-5.485v5.484v5.486v5.481v5.491h-5.483
		h-5.487v-5.491v-5.481v-5.486v-5.484v-5.484v-5.484v-5.484v-5.488v-5.484h5.487h5.483v5.484v5.488h5.485v5.484h5.484v5.484h5.481
		v-5.484v-5.484v-5.488v-5.484h5.49h5.484v5.484v5.488v5.484v5.484v5.484v5.484v5.486v5.481v5.491H1101.398z"/>
</g>
<g id="XMLID_2_">
	<g>
		<path fill="#848486" d="M398.156,247.192c-2.522-13.59-1.483-28.868,1.472-39.992c2.284-8.647,4.948-16.429,8.313-23.477
			c5.687-11.95,12.5-23.227,20.668-33.148c1.687-2.054,3.2-4.204,4.892-6.238c3.297-3.975,6.905-7.929,10.641-11.619
			c1.906-1.89,3.985-4.066,5.998-5.87L555.68,59.95c8.429-3.313,16.842-7.001,25.934-9.784c3.006-0.922,5.946-2.13,8.922-2.935
			c6.121-1.656,12.21-3.619,18.467-5.259c6.111-1.605,12.287-3.47,18.59-4.647c6.401-1.198,12.756-2.457,19.197-3.547
			c19.399-3.292,39.641-5.565,61.155-5.503l115.696,23.971c16.129,8.103,30.576,19.675,41.215,32.777
			c13.234,16.291,23.024,40.099,18.713,70.323L398.156,247.192z"/>
		<path fill="#636363" d="M822.297,173.2c-0.46,0.566-0.954,1.085-1.591,1.468C821.179,174.122,821.771,173.695,822.297,173.2z"/>
		<path fill="#636363" d="M814.592,180.171c1.62-1.559,3.301-3.052,5.013-4.525C818.036,177.256,816.322,178.729,814.592,180.171z"
			/>
		<path fill="#636363" d="M814.713,54.202c-0.152,0.581-0.684,0.784-1.101,1.101C813.871,54.833,814.458,54.686,814.713,54.202z"/>
		<path fill="#636363" d="M813.612,181.027c-1.508,1.508-3.108,2.93-4.769,4.281C810.391,183.84,811.967,182.398,813.612,181.027z"
			/>
		<path fill="#636363" d="M808.721,59.583c-0.302,0.392-0.617,0.774-1.102,0.978C807.915,60.164,808.364,59.919,808.721,59.583z"/>
		<path fill="#636363" d="M802.729,190.811c1.619-1.559,3.302-3.052,5.014-4.524C806.172,187.897,804.46,189.369,802.729,190.811z"
			/>
		<path fill="#636363" d="M805.663,62.273c-2.06,1.982-4.169,3.904-6.36,5.749C801.382,66.069,803.481,64.128,805.663,62.273z"/>
		<path fill="#636363" d="M799.426,193.747c0.713-0.754,1.523-1.412,2.322-2.08C801.097,192.483,800.24,193.094,799.426,193.747z"/>
		<path fill="#636363" d="M796.979,70.101c-0.316,0.464-0.744,0.811-1.223,1.101C796.107,70.778,796.577,70.473,796.979,70.101z"/>
		<path fill="#636363" d="M796.49,196.315c-0.315,0.464-0.744,0.811-1.223,1.101C795.619,196.998,796.088,196.687,796.49,196.315z"
			/>
		<path fill="#636363" d="M793.677,73.036c-0.301,0.392-0.615,0.775-1.101,0.979C792.831,73.581,793.326,73.377,793.677,73.036z"/>
		<path fill="#636363" d="M793.31,199.128c-0.346,0.428-0.688,0.861-1.223,1.101C792.399,199.765,792.918,199.51,793.31,199.128z"/>
		<path fill="#636363" d="M791.354,75.115c-0.341,0.52-0.857,0.856-1.345,1.223C790.344,75.818,790.921,75.538,791.354,75.115z"/>
		<path fill="#636363" d="M787.562,204.265c1.085-1.075,2.253-2.069,3.426-3.058C789.946,202.328,788.775,203.327,787.562,204.265z"
			/>
		<path fill="#636363" d="M788.663,77.561c-1.672,1.671-3.45,3.235-5.259,4.77C785.102,80.685,786.868,79.11,788.663,77.561z"/>
		<path fill="#636363" d="M784.75,206.711c-0.301,0.392-0.618,0.774-1.102,0.979C783.893,207.241,784.371,207.026,784.75,206.711z"
			/>
		<path fill="#636363" d="M782.181,157.057c0.484,0,0.861,0.117,1.102,0.372C782.834,157.377,782.516,157.209,782.181,157.057z"/>
		<path fill="#636363" d="M782.181,83.432c-1.259,1.309-2.614,2.522-4.034,3.669C779.444,85.831,780.806,84.629,782.181,83.432z"/>
		<path fill="#636363" d="M779.857,210.991c-0.256,0.362-0.545,0.678-0.979,0.856C779.083,211.444,779.535,211.282,779.857,210.991z
			"/>
		<path fill="#636363" d="M776.922,88.201c-0.346,0.434-0.688,0.861-1.223,1.101C775.984,88.818,776.52,88.573,776.922,88.201z"/>
		<path fill="#636363" d="M773.621,153.999c0.406,0.041,0.769,0.127,0.977,0.367C774.186,154.325,773.823,154.238,773.621,153.999z"
			/>
		<path fill="#636363" d="M774.598,90.28c-0.314,0.464-0.743,0.811-1.223,1.101C773.686,90.917,774.206,90.662,774.598,90.28z"/>
		<path fill="#636363" d="M772.273,92.359c-0.314,0.459-0.743,0.81-1.223,1.101C771.403,93.042,771.871,92.731,772.273,92.359z"/>
		<path fill="#636363" d="M769.951,94.438c-0.316,0.459-0.744,0.81-1.223,1.101C769.039,95.076,769.558,94.821,769.951,94.438z"/>
		<path fill="#636363" d="M767.627,96.518c-0.743,0.805-1.574,1.529-2.445,2.202C765.961,97.95,766.746,97.19,767.627,96.518z"/>
		<path fill="#636363" d="M764.08,99.697c-0.387,0.55-0.927,0.953-1.468,1.346C763,100.493,763.605,100.161,764.08,99.697z"/>
		<path fill="#636363" d="M762.612,225.912c-0.519,0.622-1.142,1.142-1.835,1.59C761.334,226.916,761.93,226.371,762.612,225.912z"
			/>
		<path fill="#636363" d="M760.167,103.244c0.464-0.473,0.969-0.907,1.467-1.345C761.221,102.428,760.754,102.892,760.167,103.244z"
			/>
		<path fill="#636363" d="M756.743,106.302c0.779-0.77,1.6-1.488,2.445-2.202C758.47,104.931,757.629,105.639,756.743,106.302z"/>
		<path fill="#636363" d="M753.563,28.396c0.585,0.107,1.079,0.3,1.466,0.611C754.494,28.85,753.944,28.702,753.563,28.396z"/>
		<path fill="#636363" d="M750.871,111.561c1.576-1.523,3.231-2.966,4.892-4.403C754.226,108.722,752.558,110.154,750.871,111.561z"
			/>
		<path fill="#727272" d="M751.483,146.049c0.407,0.041,0.771,0.127,0.979,0.367C752.049,146.376,751.688,146.289,751.483,146.049z"
			/>
		<path fill="#636363" d="M749.894,112.417c-0.414,0.53-0.881,0.993-1.468,1.345C748.813,113.217,749.419,112.881,749.894,112.417z"
			/>
		<path fill="#636363" d="M747.324,114.74c-0.36,0.494-0.809,0.902-1.346,1.223C746.316,115.444,746.892,115.163,747.324,114.74z"/>
		<path fill="#636363" d="M741.21,120.244c1.197-1.122,2.415-2.232,3.669-3.302C743.717,118.109,742.536,119.245,741.21,120.244z"/>
		<path fill="#636363" d="M738.887,122.323c-0.317,0.464-0.744,0.811-1.224,1.101C737.975,122.96,738.494,122.705,738.887,122.323z"
			/>
		<path fill="#727272" d="M732.525,11.519c-0.406,0-0.814,0-1.223,0C731.436,11.314,732.395,11.314,732.525,11.519z"/>
		<path fill="#636363" d="M730.815,129.539c1.874-1.748,3.79-3.46,5.748-5.136C734.714,126.186,732.822,127.918,730.815,129.539z"/>
		<path fill="#636363" d="M728.857,131.251c-0.265,0.428-0.677,0.713-1.102,0.979C728.012,131.796,728.506,131.592,728.857,131.251z
			"/>
		<path fill="#636363" d="M728.612,21.18c-0.831,0.8-1.677,1.584-2.567,2.324C726.825,22.653,727.66,21.858,728.612,21.18z"/>
		<path fill="#636363" d="M720.297,17.022c-0.356,0.458-0.765,0.872-1.223,1.223C719.43,17.787,719.838,17.379,720.297,17.022z"/>
		<path fill="#636363" d="M717.852,19.223c-0.358,0.459-0.765,0.867-1.225,1.223C716.984,19.988,717.393,19.581,717.852,19.223z"/>
		<path fill="#636363" d="M724.944,24.482c-3.108,2.966-6.354,5.794-9.54,8.683C718.482,30.174,721.698,27.311,724.944,24.482z"/>
		<path fill="#636363" d="M715.283,21.547c-0.357,0.459-0.766,0.867-1.225,1.224C714.415,22.312,714.823,21.904,715.283,21.547z"/>
		<path fill="#636363" d="M715.16,33.41c-1.437,1.381-2.89,2.742-4.402,4.036C712.164,36.04,713.597,34.659,715.16,33.41z"/>
		<path fill="#636363" d="M712.714,23.871c-0.356,0.458-0.765,0.866-1.223,1.223C711.848,24.636,712.256,24.228,712.714,23.871z"/>
		<path fill="#636363" d="M709.412,38.669c-0.357,0.418-0.82,0.729-1.224,1.101C708.5,39.306,708.928,38.96,709.412,38.669z"/>
		<path fill="#636363" d="M705.62,42.094c0.356-0.494,0.806-0.902,1.346-1.223C706.624,41.39,706.054,41.67,705.62,42.094z"/>
		<path fill="#636363" d="M704.521,43.072c-2.976,2.818-6.004,5.58-9.051,8.316C698.396,48.525,701.432,45.773,704.521,43.072z"/>
		<path fill="#636363" d="M692.535,54.08c-0.316,0.464-0.837,0.718-1.225,1.1C691.621,54.716,692.051,54.37,692.535,54.08z"/>
		<path fill="#636363" d="M690.088,56.281c-2.634,2.507-5.334,4.938-8.07,7.338C684.621,61.086,687.336,58.671,690.088,56.281z"/>
		<path fill="#636363" d="M681.038,64.475c-2.145,2.058-4.397,4.01-6.604,5.993C676.534,68.368,678.766,66.406,681.038,64.475z"/>
		<path fill="#636363" d="M673.456,71.324c-0.367,0.489-0.912,0.8-1.345,1.223C672.447,72.027,672.967,71.69,673.456,71.324z"/>
		<path fill="#CEC9CD" d="M636.031,92.971L505.17,202.43c0.234,0.383-0.643,0.846-1.101,1.223
			c-13.393,10.977-26.943,21.627-40.36,33.021c-1.86,1.575-4.286,3.506-5.137,5.625c-1.722,4.281-0.978,10.335-0.978,16.267
			c0,2.695,0,5.733,0,8.688c0,2.808,0.519,6.309,0,8.556c-0.188,0.81-1.641,1.871-2.319,2.568c-2.466,2.513-4.158,5.326-4.652,9.907
			c-0.132,1.208,0.586,3.801,1.101,5.264c1.6,4.587,6.273,6.594,11.007,8.434c23.635,9.184,46.368,18.172,69.957,27.273
			c2.268,0.882,4.621,1.804,7.093,2.701c2.416,0.855,5.3,1.687,8.072,1.579c2.854-0.102,5.61-0.86,8.071-1.579
			c2.427-0.724,4.53-1.978,6.359-3.313c3.645-2.655,7.003-5.922,10.519-8.928c24.384-20.822,48.899-41.868,73.381-62.496
			c26.743,10.686,54.134,20.857,81.086,31.676c4.474,1.799,10.069,4.627,16.266,3.914c2.722-0.312,5.687-1.111,8.194-2.08
			c4.56-1.758,8.347-5.508,11.862-8.561c21.893-19.023,44.019-37.765,66.164-56.747c4.067-3.486,7.013-5.683,8.317-12.108
			c1.112-5.483-2.526-10.258-6.85-13.086c0-5.082,0-10.85,0-16.506c0-5.81,0.608-11.634-0.855-15.66
			c-1.56-4.275-6.396-5.57-10.886-7.093c-14.043-4.765-29.086-10.182-43.049-15.043"/>
		<path fill="#CEC9CD" d="M823.641,65.698c20.297,10.676,37.608,24.97,48.553,45.007c4.307,7.889,8.129,17.02,9.662,27.762
			c0.378,2.666,1.045,5.361,1.102,8.194c0.056,2.849,0.122,5.692,0.611,8.684c-0.76,6.884-2.701,13-4.402,18.956
			c-1.697,5.912-4.388,11.344-6.85,16.633c-4.892,10.498-11.134,20.256-18.346,29.352c-5.956,8.184-12.887,15.477-19.934,22.748
			c-1.765,1.814-3.771,3.394-5.626,5.137c-1.855,1.743-3.634,3.455-5.504,5.137c-11.16,10.034-23.677,19.263-36.69,27.64
			c-17.606,11.334-36.002,20.796-56.014,29.719c-12.373,5.52-25.484,10.166-39.136,14.432c-2.69,0.842-5.505,1.545-8.194,2.445
			c-10.758,3.624-22.105,6.069-33.877,8.439c-11.896,2.405-23.937,4.505-36.569,5.881c-17.433,1.87-38.632,3.134-58.821,1.946
			c-24.547-1.442-48.467-5.126-69.961-12.714c-10.655-3.761-20.816-7.735-29.963-12.965c-27.059-15.475-49.073-36.837-55.524-70.939
			c0.107-3.256,0.393-6.375,0.245-9.417c-0.153-3.042,0.474-5.947,0.856-8.806c2.294-17.193,8.724-31.186,15.533-43.906
			c4.561-8.525,10.232-16.332,16.021-23.604c4.382-5.508,9.064-10.706,13.942-15.776c1.697-1.763,3.511-3.409,5.259-5.136
			l122.056-73.748c0.016-0.025-0.02-0.102,0-0.122c0.373-0.377,1.938-0.846,3.059-1.223c10.374-3.511,20.72-7.027,31.187-9.907
			c7.308-2.013,14.731-3.797,22.136-5.381c20.013-4.291,41.727-7.486,64.82-8.561L823.641,65.698z"/>
		<path fill="#636363" d="M669.909,74.504c-0.744,0.723-1.509,1.427-2.324,2.079C668.269,75.803,669.063,75.125,669.909,74.504z"/>
		<path fill="#848486" d="M549.564,279.479c-1.386,0.046-3.725-1.085-5.381-1.712c-12.287-4.626-25.082-9.564-37.058-14.187
			c-0.209-0.239-0.57-0.321-0.973-0.367c-11.359-4.291-23.512-9.239-35.229-13.937c-1.834-0.739-4.489-1.187-4.647-2.573
			c-0.178-1.519,2.136-2.793,3.303-3.792c18.773-16.098,39.08-31.748,57.97-47.331c0.505-0.311,0.928-0.698,1.346-1.101
			c9.152-7.725,18.769-14.987,27.763-22.87c0.214-0.336,0.602-1.157,0.122-1.467c-1.717-1.351-3.847-2.12-5.871-2.936
			c-29.097-11.68-57.904-24.216-86.71-36.568c-1.758-0.754-5.366-1.702-5.503-3.18c-0.153-1.616,2.706-3.206,4.036-4.281
			c22.554-18.269,45.307-36.955,67.265-55.769c0.307-0.301,0.739-0.479,0.979-0.856c0.744-0.769,1.529-1.483,2.446-2.079
			c0.306-0.301,0.738-0.479,0.979-0.856c0.611-0.693,1.473-1.136,2.69-1.223c0.77-0.036,1.447,0.021,2.079,0.123
			c2.176,0.759,4.255,1.616,6.242,2.568c0.312,0.255,0.719,0.418,1.219,0.495c29.897,12.209,59.412,24.802,89.769,36.563
			c0.3,0.046,1.183,0.092,1.59-0.123c1.468-0.443,2.466-1.366,3.547-2.201c0.795-0.668,1.605-1.325,2.324-2.079
			c0.213-0.397,0.611-0.612,0.979-0.856c0.769-0.611,1.519-1.249,2.201-1.957c0.631-0.749,1.401-1.371,2.201-1.957
			c0.77-0.611,1.519-1.249,2.201-1.957c0.25-0.362,0.541-0.678,0.979-0.856c2.008-1.702,3.975-3.445,5.871-5.259
			c0.249-0.362,0.539-0.678,0.979-0.856c1.696-1.478,3.398-2.956,5.014-4.525c0.199-0.331,0.475-0.581,0.856-0.734
			c0.433-0.423,1.003-0.703,1.345-1.223c0.255-0.428,0.674-0.713,1.101-0.979c0.815-0.652,1.58-1.355,2.324-2.079
			c0.651-0.729,1.396-1.376,2.202-1.957c0.433-0.423,0.978-0.734,1.345-1.223c0.214-0.397,0.611-0.612,0.978-0.856
			c2.207-1.982,4.46-3.935,6.604-5.993c0.25-0.362,0.541-0.678,0.979-0.856c2.736-2.4,5.437-4.831,8.07-7.338
			c0.29-0.484,0.79-0.76,1.223-1.101c0.388-0.382,0.908-0.636,1.225-1.1c0.912-0.958,1.864-1.881,2.935-2.691
			c3.047-2.736,6.075-5.499,9.051-8.316c0.259-0.428,0.671-0.713,1.1-0.979c0.434-0.423,1.004-0.704,1.346-1.223
			c0.311-0.464,0.739-0.811,1.223-1.101c0.403-0.372,0.866-0.683,1.224-1.101c0.336-0.52,0.856-0.856,1.346-1.223
			c1.513-1.294,2.966-2.655,4.402-4.036c0.051-0.106,0.106-0.219,0.244-0.245c3.186-2.889,6.432-5.717,9.54-8.683
			c0.261-0.428,0.673-0.713,1.101-0.979c0.891-0.739,1.736-1.524,2.567-2.324c2.38-2.364,5.927-0.53,8.807,0.611
			c5.075,2.013,11.563,4.775,16.145,6.604c0.381,0.306,0.931,0.454,1.466,0.611c18.146,7.277,37.649,14.753,56.748,21.897
			c1.871,0.693,4.398,1.305,2.936,3.297c-0.255,0.484-0.842,0.632-1.101,1.101c-1.569,1.493-3.19,2.93-4.892,4.281
			c-0.356,0.336-0.806,0.581-1.102,0.978c-0.581,0.647-1.243,1.208-1.956,1.712c-2.182,1.855-4.281,3.796-6.36,5.749
			c-0.703,0.774-1.457,1.478-2.323,2.079c-0.402,0.372-0.872,0.678-1.223,1.101c-0.606,0.698-1.325,1.29-2.08,1.834
			c-0.351,0.342-0.846,0.545-1.101,0.979c-0.295,0.484-0.789,0.759-1.223,1.101c-0.433,0.423-1.01,0.703-1.345,1.223
			c-0.342,0.52-0.856,0.856-1.346,1.223c-1.795,1.549-3.562,3.124-5.259,4.77c-0.316,0.464-0.745,0.811-1.224,1.101
			c-1.375,1.198-2.736,2.399-4.034,3.669c-0.318,0.464-0.746,0.811-1.225,1.101c-0.402,0.372-0.938,0.617-1.223,1.101
			c-0.302,0.393-0.616,0.775-1.102,0.979c-0.392,0.382-0.912,0.637-1.223,1.101c-0.265,0.428-0.679,0.713-1.102,0.979
			c-0.402,0.372-0.87,0.683-1.223,1.101c-0.265,0.428-0.677,0.714-1.1,0.979c-0.394,0.382-0.912,0.637-1.223,1.101
			c-0.25,0.448-0.73,0.662-1.102,0.979c-0.881,0.672-1.666,1.432-2.445,2.202c-0.25,0.448-0.729,0.662-1.102,0.978
			c-0.475,0.464-1.08,0.795-1.468,1.346c-0.219,0.397-0.61,0.611-0.979,0.856c-0.498,0.438-1.003,0.872-1.467,1.345
			c-0.256,0.362-0.546,0.678-0.979,0.856c-0.846,0.714-1.666,1.432-2.445,2.202c-0.256,0.362-0.546,0.678-0.98,0.856
			c-1.66,1.437-3.315,2.879-4.892,4.403c-0.254,0.362-0.544,0.683-0.978,0.856c-0.475,0.464-1.08,0.8-1.468,1.345
			c-0.265,0.428-0.677,0.713-1.102,0.978c-0.433,0.423-1.008,0.704-1.346,1.223c-0.263,0.428-0.677,0.713-1.1,0.979
			c-1.254,1.07-2.472,2.181-3.669,3.302c-0.671,0.8-1.508,1.432-2.323,2.079c-0.393,0.382-0.912,0.637-1.224,1.101
			c-0.265,0.428-0.677,0.713-1.1,0.979c-1.958,1.676-3.874,3.389-5.748,5.136c-0.603,0.627-1.214,1.239-1.958,1.712
			c-0.352,0.341-0.846,0.545-1.102,0.979c-0.482,0.989-2.654,1.661-2.567,3.18c0.081,1.575,4.525,2.731,5.993,3.302
			c6.64,2.594,14.293,4.861,20.302,7.338c0.204,0.239,0.565,0.327,0.979,0.367c7.149,2.431,14.155,4.999,21.159,7.583
			c0.202,0.239,0.564,0.326,0.977,0.367c2.574,0.846,5.158,1.687,7.583,2.691c0.335,0.152,0.653,0.321,1.102,0.372
			c11.118,3.781,23.329,8,34.979,12.102c1.823,0.643,5.667,1.279,4.036,3.669c-0.525,0.495-1.118,0.922-1.591,1.468
			c-0.265,0.428-0.679,0.713-1.102,0.979c-1.712,1.473-3.393,2.966-5.013,4.525c-0.221,0.397-0.612,0.611-0.979,0.856
			c-1.646,1.371-3.222,2.813-4.769,4.281c-0.302,0.392-0.618,0.774-1.102,0.979c-1.712,1.472-3.395,2.965-5.014,4.524
			c-0.256,0.368-0.545,0.678-0.98,0.856c-0.799,0.667-1.609,1.325-2.322,2.08c-0.922,0.917-1.865,1.809-2.936,2.568
			c-0.402,0.372-0.871,0.683-1.223,1.101c-0.602,0.627-1.214,1.238-1.958,1.712c-0.392,0.382-0.91,0.637-1.223,1.101
			c-0.265,0.428-0.677,0.713-1.1,0.978c-1.173,0.988-2.341,1.983-3.426,3.058c-0.876,0.882-1.787,1.717-2.812,2.446
			c-0.379,0.315-0.857,0.53-1.102,0.979c-1.197,1.171-2.431,2.297-3.791,3.301c-0.322,0.291-0.774,0.454-0.979,0.856
			c-5.304,4.806-10.771,9.453-16.266,14.064c-0.683,0.459-1.278,1.004-1.835,1.59c-3.352,2.961-7.308,6.441-11.006,9.54
			c-1.691,1.417-3.368,3.369-6.115,3.303c-1.473-0.036-3.525-1.086-5.26-1.712c-25.168-9.106-51.472-18.753-75.946-28.007
			c-0.21-0.239-0.572-0.326-0.979-0.367c-3.833-1.305-8.184-3.032-12.475-4.525c-1.876-0.652-3.358-1.463-5.387-0.734
			c-1.993,0.713-4.083,2.945-5.988,4.524c-20.913,17.336-42.025,34.372-63.23,51.367c-5.624,4.504-11.495,9.142-17.36,13.942
			C554.696,276.743,552.663,279.377,549.564,279.479z"/>
		<path fill="#636363" d="M665.14,78.784c0.361-0.494,0.806-0.902,1.345-1.223C666.143,78.081,665.572,78.361,665.14,78.784z"/>
		<path fill="#636363" d="M661.471,210.257c0.407,0.041,0.77,0.128,0.979,0.367C662.036,210.583,661.674,210.497,661.471,210.257z"
			/>
		<path fill="#636363" d="M664.283,79.518c-1.615,1.569-3.317,3.047-5.014,4.525C660.843,82.443,662.546,80.965,664.283,79.518z"/>
		<path fill="#636363" d="M658.291,84.899c-1.896,1.814-3.863,3.557-5.871,5.259C654.295,88.328,656.263,86.586,658.291,84.899z"/>
		<path fill="#231F20" d="M572.067,66.798c21.144,8.902,42.592,17.5,63.964,26.172c9.713-8.393,19.395-16.786,28.864-25.438
			c9.446-8.643,19.073-17.132,28.373-25.928c4.886-4.449,9.845-8.821,14.676-13.331c1.188-1.055,2.282-2.202,3.547-3.18
			c0.458-0.356,0.866-0.764,1.223-1.223c0.458-0.357,0.841-0.79,1.345-1.101c0.459-0.357,0.867-0.765,1.225-1.224
			c0.458-0.356,0.84-0.79,1.344-1.101c0.46-0.356,0.866-0.764,1.225-1.223c0.433-0.3,0.723-0.744,1.223-0.978
			c0.458-0.352,0.866-0.765,1.223-1.223c2.746-2.756,5.916-5.085,11.006-5.503c0.408,0,0.816,0,1.223,0
			c3.915,0.53,8.313,2.375,12.109,4.036c3.822,1.672,7.791,3.145,11.374,4.525c15.527,6.008,29.958,12.342,45.739,17.856
			c3.801,1.33,7.722,3.011,11.498,4.403c3.744,1.381,7.598,2.716,9.538,6.359c0.25,1.218,0.444,2.487,0.856,3.547
			c0.041,4.051-0.031,9.01,0,13.453c0,3.868,0,7.72,0,11.497c0,1.253-0.316,2.997,0,3.914c0.26,0.774,1.615,1.314,2.446,1.957
			c2.747,2.13,3.899,4.704,4.525,8.811c0.301,1.972-0.57,5.04-1.347,6.721c-1.202,2.609-3.459,4.754-5.748,6.727
			c-15.292,13.158-30.809,26.213-45.861,39.136c-0.52,0.443-1.412,1.055-1.224,1.468c13.963,4.861,29.006,10.278,43.049,15.043
			c4.49,1.523,9.326,2.818,10.886,7.093c1.464,4.026,0.855,9.85,0.855,15.66c0,5.656,0,11.424,0,16.506
			c4.323,2.828,7.962,7.603,6.85,13.086c-1.305,6.425-4.25,8.622-8.317,12.108c-22.146,18.982-44.271,37.724-66.164,56.747
			c-3.516,3.053-7.303,6.803-11.862,8.561c-2.508,0.968-5.473,1.768-8.194,2.08c-6.196,0.713-11.792-2.115-16.266-3.914
			c-26.952-10.818-54.343-20.99-81.086-31.676c-24.481,20.628-48.997,41.674-73.381,62.496c-3.516,3.006-6.874,6.272-10.519,8.928
			c-1.829,1.335-3.933,2.589-6.359,3.313c-2.461,0.719-5.218,1.478-8.071,1.579c-2.772,0.107-5.656-0.724-8.072-1.579
			c-2.472-0.897-4.825-1.819-7.093-2.701c-23.589-9.102-46.322-18.09-69.957-27.273c-4.734-1.839-9.407-3.847-11.007-8.434
			c-0.515-1.462-1.233-4.056-1.101-5.264c0.494-4.581,2.187-7.394,4.652-9.907c0.679-0.697,2.131-1.758,2.319-2.568
			c0.519-2.248,0-5.748,0-8.556c0-2.955,0-5.993,0-8.688c0-5.932-0.744-11.986,0.978-16.267c0.851-2.12,3.277-4.051,5.137-5.625
			c13.417-11.395,26.967-22.045,40.36-33.021c0.458-0.377,1.335-0.84,1.101-1.223c-14.987-5.987-32.17-12.449-47.82-18.589
			c-5.259-2.063-11.058-4.103-13.208-9.05c-0.551-1.264-1.055-3.72-1.101-5.014c-0.097-3.037,1.146-5.83,2.328-7.583
			c0.521-0.78,1.336-1.931,2.196-2.813c0.658-0.673,2.446-1.834,2.446-2.813c0-4.968,0-10.707,0-16.021
			c0.077-4.53-0.163-9.372,0.127-13.698c0.469-6.319,6.252-9.56,10.269-12.842c20.592-16.842,40.787-33.021,60.784-50.51
			c1.533-1.346,3.286-2.833,5.014-4.281c1.702-1.432,3.491-3.169,5.137-4.036c1.717-0.902,4.153-0.785,5.748-1.467
			c0.448,0,0.897,0,1.346,0c6.69,1.136,11.419,4.234,17.244,6.237"/>
	</g>
	<path fill="#636363" d="M822.662,206.466c0,2.375,0.443,5.188,0,6.971c-0.321,1.289-3.168,3.262-4.646,4.525
		c-22.906,19.553-45.384,38.754-68.244,58.459c-1.691,1.453-3.613,3.308-5.871,3.425c-1.662,0.086-4.505-1.254-6.604-2.08
		c-28.599-11.211-57.466-22.508-86.345-33.632c-2.435-0.938-4.963-2.339-6.971-1.957c-2.11,0.408-4.459,2.976-6.237,4.525
		c-21.052,18.294-42.336,36.063-63.476,54.189c-5.544,4.744-11.373,9.795-17.238,14.789c-2.242,1.905-4.214,4.413-7.344,4.652
		c-2.41,0.173-5.488-1.728-8.071-2.696c-5.422-2.023-10.727-4.147-16.017-6.236c-17.245-6.793-35.33-13.56-53.083-20.669
		c-1.784-0.718-5.463-1.508-6.115-2.69c-0.791-1.427-0.245-5.315-0.245-7.583c0-7.771,0-16.021,0-23.482
		c0.893-0.245,1.677,0.444,2.446,0.734c12.725,4.811,25.525,10.406,38.524,15.175c10.228,3.735,20.786,7.706,31.187,11.854
		c3.369,1.345,7.67,3.214,11.008,3.301c1.574,0.041,4.912-0.708,6.604-1.468c1.789-0.805,4.011-2.869,5.876-4.403
		c12.974-10.732,26.407-21.417,39.376-31.92c11.42-9.254,22.314-18.477,33.755-27.518c3.771-2.981,7.241-6.222,11.131-8.928
		c16.285,5.875,31.955,11.904,48.552,17.855c7.792,2.798,16.043,5.784,24.215,8.928c5.739,2.207,12.094,4.321,18.225,6.727
		c4.178,1.641,8.433,2.013,12.719,0.25c1.52-0.631,3.419-2.201,5.015-3.552c7.771-6.584,15.257-13.076,22.87-19.69
		c9.024-7.842,18.228-15.97,27.151-23.849c3.032-2.68,6.118-5.249,9.049-7.95c2.563-2.364,5.116-4.759,7.828-7.093
		c0.244-0.214,0.54-0.719,0.978-0.612C822.662,191.209,822.662,199.337,822.662,206.466z"/>
	<path fill="#636363" d="M815.08,87.345c0,2.42,0.418,5.269,0,6.971c-0.26,1.06-1.942,2.232-3.059,3.18
		c-15.924,13.484-31.293,26.57-47.085,40.237c-0.943,0.811-2.727,2.757-3.424,2.813c-0.489,0.04-1.784-0.673-2.69-0.979
		c-6.086-2.054-12.741-4.667-18.469-6.721c-0.214-0.26,0.469-0.637,0.856-0.984c11.925-10.731,23.991-21.718,36.078-32.532
		c6.223-5.57,12.46-11.236,18.712-16.755c6.411-5.662,12.675-11.415,18.958-16.995C815.177,71.13,815.074,80.44,815.08,87.345z"/>
	<path fill="#636363" d="M541.737,172.711c-0.621,1.116-1.845,1.651-2.808,2.446c-6.823,5.591-14.07,11.578-21.041,17.123
		c-16.791-6.354-34.789-13.647-52.1-20.302c-1.937-0.744-6.529-1.839-7.094-3.18c-0.693-1.631-0.123-5.447-0.123-7.705
		c0-7.679,0-15.593,0-23.115c-0.01-0.173-0.021-0.347,0.123-0.367C486.146,149.535,513.756,161.312,541.737,172.711z"/>
	<path fill="#848486" d="M549.564,279.479c-1.386,0.046-3.725-1.085-5.381-1.712c-12.287-4.626-25.082-9.564-37.058-14.187
		c-0.209-0.239-0.57-0.321-0.973-0.367c-11.359-4.291-23.512-9.239-35.229-13.937c-1.834-0.739-4.489-1.187-4.647-2.573
		c-0.178-1.519,2.136-2.793,3.303-3.792c18.773-16.098,39.08-31.748,57.97-47.331c0.505-0.311,0.928-0.698,1.346-1.101
		c9.152-7.725,18.769-14.987,27.763-22.87c0.214-0.336,0.602-1.157,0.122-1.467c-1.717-1.351-3.847-2.12-5.871-2.936
		c-29.097-11.68-57.904-24.216-86.71-36.568c-1.758-0.754-5.366-1.702-5.503-3.18c-0.153-1.616,2.706-3.206,4.036-4.281
		c22.554-18.269,45.307-36.955,67.265-55.769c0.307-0.301,0.739-0.479,0.979-0.856c0.744-0.769,1.529-1.483,2.446-2.079
		c0.306-0.301,0.738-0.479,0.979-0.856c0.611-0.693,1.473-1.136,2.69-1.223c0.77-0.036,1.447,0.021,2.079,0.123
		c2.176,0.759,4.255,1.616,6.242,2.568c0.312,0.255,0.719,0.418,1.219,0.495c29.897,12.209,59.412,24.802,89.769,36.563
		c0.3,0.046,1.183,0.092,1.59-0.123c1.468-0.443,2.466-1.366,3.547-2.201c0.795-0.668,1.605-1.325,2.324-2.079
		c0.213-0.397,0.611-0.612,0.979-0.856c0.769-0.611,1.519-1.249,2.201-1.957c0.631-0.749,1.401-1.371,2.201-1.957
		c0.77-0.611,1.519-1.249,2.201-1.957c0.25-0.362,0.541-0.678,0.979-0.856c2.008-1.702,3.975-3.445,5.871-5.259
		c0.249-0.362,0.539-0.678,0.979-0.856c1.696-1.478,3.398-2.956,5.014-4.525c0.199-0.331,0.475-0.581,0.856-0.734
		c0.433-0.423,1.003-0.703,1.345-1.223c0.255-0.428,0.674-0.713,1.101-0.979c0.815-0.652,1.58-1.355,2.324-2.079
		c0.651-0.729,1.396-1.376,2.202-1.957c0.433-0.423,0.978-0.734,1.345-1.223c0.214-0.397,0.611-0.612,0.978-0.856
		c2.207-1.982,4.46-3.935,6.604-5.993c0.25-0.362,0.541-0.678,0.979-0.856c2.736-2.4,5.437-4.831,8.07-7.338
		c0.29-0.484,0.79-0.76,1.223-1.101c0.388-0.382,0.908-0.636,1.225-1.1c0.912-0.958,1.864-1.881,2.935-2.691
		c3.047-2.736,6.075-5.499,9.051-8.316c0.259-0.428,0.671-0.713,1.1-0.979c0.434-0.423,1.004-0.704,1.346-1.223
		c0.311-0.464,0.739-0.811,1.223-1.101c0.403-0.372,0.866-0.683,1.224-1.101c0.336-0.52,0.856-0.856,1.346-1.223
		c1.513-1.294,2.966-2.655,4.402-4.036c0.051-0.106,0.106-0.219,0.244-0.245c3.186-2.889,6.432-5.717,9.54-8.683
		c0.261-0.428,0.673-0.713,1.101-0.979c0.891-0.739,1.736-1.524,2.567-2.324c2.38-2.364,5.927-0.53,8.807,0.611
		c5.075,2.013,11.563,4.775,16.145,6.604c0.381,0.306,0.931,0.454,1.466,0.611c18.146,7.277,37.649,14.753,56.748,21.897
		c1.871,0.693,4.398,1.305,2.936,3.297c-0.255,0.484-0.842,0.632-1.101,1.101c-1.569,1.493-3.19,2.93-4.892,4.281
		c-0.356,0.336-0.806,0.581-1.102,0.978c-0.581,0.647-1.243,1.208-1.956,1.712c-2.182,1.855-4.281,3.796-6.36,5.749
		c-0.703,0.774-1.457,1.478-2.323,2.079c-0.402,0.372-0.872,0.678-1.223,1.101c-0.606,0.698-1.325,1.29-2.08,1.834
		c-0.351,0.342-0.846,0.545-1.101,0.979c-0.295,0.484-0.789,0.759-1.223,1.101c-0.433,0.423-1.01,0.703-1.345,1.223
		c-0.342,0.52-0.856,0.856-1.346,1.223c-1.795,1.549-3.562,3.124-5.259,4.77c-0.316,0.464-0.745,0.811-1.224,1.101
		c-1.375,1.198-2.736,2.399-4.034,3.669c-0.318,0.464-0.746,0.811-1.225,1.101c-0.402,0.372-0.938,0.617-1.223,1.101
		c-0.302,0.393-0.616,0.775-1.102,0.979c-0.392,0.382-0.912,0.637-1.223,1.101c-0.265,0.428-0.679,0.713-1.102,0.979
		c-0.402,0.372-0.87,0.683-1.223,1.101c-0.265,0.428-0.677,0.714-1.1,0.979c-0.394,0.382-0.912,0.637-1.223,1.101
		c-0.25,0.448-0.73,0.662-1.102,0.979c-0.881,0.672-1.666,1.432-2.445,2.202c-0.25,0.448-0.729,0.662-1.102,0.978
		c-0.475,0.464-1.08,0.795-1.468,1.346c-0.219,0.397-0.61,0.611-0.979,0.856c-0.498,0.438-1.003,0.872-1.467,1.345
		c-0.256,0.362-0.546,0.678-0.979,0.856c-0.846,0.714-1.666,1.432-2.445,2.202c-0.256,0.362-0.546,0.678-0.98,0.856
		c-1.66,1.437-3.315,2.879-4.892,4.403c-0.254,0.362-0.544,0.683-0.978,0.856c-0.475,0.464-1.08,0.8-1.468,1.345
		c-0.265,0.428-0.677,0.713-1.102,0.978c-0.433,0.423-1.008,0.704-1.346,1.223c-0.263,0.428-0.677,0.713-1.1,0.979
		c-1.254,1.07-2.472,2.181-3.669,3.302c-0.671,0.8-1.508,1.432-2.323,2.079c-0.393,0.382-0.912,0.637-1.224,1.101
		c-0.265,0.428-0.677,0.713-1.1,0.979c-1.958,1.676-3.874,3.389-5.748,5.136c-0.603,0.627-1.214,1.239-1.958,1.712
		c-0.352,0.341-0.846,0.545-1.102,0.979c-0.482,0.989-2.654,1.661-2.567,3.18c0.081,1.575,4.525,2.731,5.993,3.302
		c6.64,2.594,14.293,4.861,20.302,7.338c0.204,0.239,0.565,0.327,0.979,0.367c7.149,2.431,14.155,4.999,21.159,7.583
		c0.202,0.239,0.564,0.326,0.977,0.367c2.574,0.846,5.158,1.687,7.583,2.691c0.335,0.152,0.653,0.321,1.102,0.372
		c11.118,3.781,23.329,8,34.979,12.102c1.823,0.643,5.667,1.279,4.036,3.669c-0.525,0.495-1.118,0.922-1.591,1.468
		c-0.265,0.428-0.679,0.713-1.102,0.979c-1.712,1.473-3.393,2.966-5.013,4.525c-0.221,0.397-0.612,0.611-0.979,0.856
		c-1.646,1.371-3.222,2.813-4.769,4.281c-0.302,0.392-0.618,0.774-1.102,0.979c-1.712,1.472-3.395,2.965-5.014,4.524
		c-0.256,0.368-0.545,0.678-0.98,0.856c-0.799,0.667-1.609,1.325-2.322,2.08c-0.922,0.917-1.865,1.809-2.936,2.568
		c-0.402,0.372-0.871,0.683-1.223,1.101c-0.602,0.627-1.214,1.238-1.958,1.712c-0.392,0.382-0.91,0.637-1.223,1.101
		c-0.265,0.428-0.677,0.713-1.1,0.978c-1.173,0.988-2.341,1.983-3.426,3.058c-0.876,0.882-1.787,1.717-2.812,2.446
		c-0.379,0.315-0.857,0.53-1.102,0.979c-1.197,1.171-2.431,2.297-3.791,3.301c-0.322,0.291-0.774,0.454-0.979,0.856
		c-5.304,4.806-10.771,9.453-16.266,14.064c-0.683,0.459-1.278,1.004-1.835,1.59c-3.352,2.961-7.308,6.441-11.006,9.54
		c-1.691,1.417-3.368,3.369-6.115,3.303c-1.473-0.036-3.525-1.086-5.26-1.712c-25.168-9.106-51.472-18.753-75.946-28.007
		c-0.21-0.239-0.572-0.326-0.979-0.367c-3.833-1.305-8.184-3.032-12.475-4.525c-1.876-0.652-3.358-1.463-5.387-0.734
		c-1.993,0.713-4.083,2.945-5.988,4.524c-20.913,17.336-42.025,34.372-63.23,51.367c-5.624,4.504-11.495,9.142-17.36,13.942
		C554.696,276.743,552.663,279.377,549.564,279.479z"/>
	<path fill="#636363" d="M774.354,198.883c1.106,2.1,2.131,4.281-0.855,5.259c-6.248-12.036-12.644-23.849-18.958-35.956
		c-0.8-1.529-1.758-4.337-2.935-4.892c-3.027-1.427-5.233,1.024-6.85,2.446c-17.213,15.094-34.846,30.229-51.977,44.762
		c-1.396-0.077-2.486-0.321-2.691-1.345c-0.301-1.493,2.029-3.032,3.058-3.914c17.495-14.997,34.8-29.596,51.979-44.762
		c1.6-1.412,4.014-3.99,7.093-2.691c1.171,0.5,2.46,3.506,3.302,5.137C761.823,175.193,767.852,186.562,774.354,198.883z"/>
	<path fill="#727272" d="M773.498,204.142c-2.019,1.004-6.833,0.953-10.15,1.223c-19.968,1.615-39.805,3.027-60.295,4.403
		c-3.567,0.24-7.12,0.525-10.273,0.734c17.131-14.533,34.764-29.668,51.977-44.762c1.616-1.422,3.822-3.873,6.85-2.446
		c1.177,0.555,2.135,3.363,2.935,4.892C760.854,180.293,767.25,192.106,773.498,204.142z"/>
	<path fill="#636363" d="M765.547,45.396c0.291,0.622,0.078,1.677-0.244,2.08c-0.556,0.015-1.039-0.016-1.712,0.122
		c-3.005,0.622-6.416,2.467-9.661,3.792c-16.241,6.615-32.599,12.836-48.431,19.079c-6.651,2.619-13.239,4.922-19.446,7.583
		c-0.805,0.346-1.575,0.703-2.201,1.59c-0.896-0.454-1.865-0.565-2.079-1.468c-0.475-1.947,2.063-3.174,3.669-3.791
		c23.328-8.984,46.051-18.203,69.222-27.273c1.646-0.642,3.563-1.392,5.382-2.079C761.706,44.397,764.076,43.607,765.547,45.396z"/>
	<path fill="#727272" d="M763.591,47.597c0.673-0.138,1.156-0.107,1.712-0.122c-4.596,15.527-9.32,30.988-14.187,46.719
		c-1.238,4-1.33,8.53-6.481,8.438c-2.349-0.041-5.427-1.794-7.828-2.691c-17.764-6.625-35.67-13.448-52.71-20.302
		c-0.082,0-0.164,0-0.245,0c0.626-0.887,1.396-1.244,2.201-1.59c6.207-2.66,12.795-4.963,19.446-7.583
		c15.832-6.243,32.189-12.464,48.431-19.079C757.175,50.064,760.586,48.219,763.591,47.597z"/>
	<path fill="#727272" d="M681.16,133.697c2.845,3.006,5.336,7.475,4.771,13.453c-0.531,5.559-2.641,9.356-5.505,12.964
		c-5.406,6.803-12.652,11.985-21.157,15.898c-8.506,3.914-18.357,6.62-30.087,6.849c-11.608,0.229-22.065-3.261-27.885-8.928
		c-3.221-3.134-5.468-7.654-5.01-13.453c0.403-5.249,2.905-9.3,5.622-12.842c5.722-7.455,12.943-12.138,21.156-15.898
		c8.419-3.858,18.484-6.482,30.332-6.849C664.625,124.54,675.524,127.735,681.16,133.697z"/>
	<path fill="#636363" d="M671.499,144.826c1.208,1.947,2.014,6.182,1.346,9.295c-0.684,3.165-3.46,7.119-5.626,9.294
		c-6.605,6.635-17.779,11.945-29.354,12.719c-2.268,0.158-4.774,0.133-6.848,0c-5.983-0.362-12.195-2.481-15.655-6.115
		c-2.1-2.202-4-7.16-2.568-11.986c1.819-6.161,8.179-11.195,13.453-14.309c6.242-3.68,13.086-5.921,21.525-6.727
		c1.722-0.163,4.836-0.26,6.971-0.122C661.654,137.33,668.523,140.031,671.499,144.826z"/>
	<path fill="#636363" d="M600.197,226.768c0.321,1.325-0.606,1.906-1.346,2.446c-9.962-3.848-19.349-7.379-29.841-11.496
		c-7.145-2.803-14.666-5.84-22.138-8.806c-2.293-0.912-5.324-2.741-7.581-2.813c-4.975-0.158-5.106,3.97-6.36,7.705
		c-4.871,14.502-9.422,28.338-14.064,42.683c-1.101,0.076-2.808-0.403-3.058-1.224c-0.377-1.253,1.544-5.483,1.957-6.726
		c4.826-14.365,9.121-27.844,13.942-42.194c0.871-2.599,1.656-4.704,5.259-4.647c1.243,0.021,2.833,0.754,4.279,1.345
		c18.27,7.491,36.519,14.493,55.403,21.77C597.619,225.184,600.009,226.014,600.197,226.768z"/>
	<path fill="#636363" d="M587.355,95.417c3.465-0.147,5.769,0.515,4.035,3.18c-24.806,0.912-49.918,2.018-75.703,2.568
		c-3.797,0.082-8.724,0.387-7.822,3.914c-0.321-1.528-2.023-2.558-1.84-4.28c0.301-2.823,5.214-2.788,8.561-2.813
		C539.148,97.787,563.095,96.441,587.355,95.417z"/>
	<path fill="#727272" d="M569.011,217.718c10.492,4.117,19.879,7.648,29.841,11.496c-26.463,9.29-52.945,18.56-79.984,27.273
		c4.643-14.345,9.193-28.181,14.064-42.683c1.254-3.735,1.386-7.863,6.36-7.705c2.257,0.071,5.288,1.901,7.581,2.813
		C554.345,211.877,561.866,214.915,569.011,217.718z"/>
	<path fill="#727272" d="M591.391,98.597c-17.279,14.977-34.544,29.78-52.461,44.518c-2.033,1.667-5.723,5.59-9.178,4.036
		c-1.152-0.521-2.293-3.542-3.058-5.015c-6.41-12.337-12.5-24.853-18.829-37.057c-0.901-3.526,4.025-3.832,7.822-3.914
		C541.473,100.615,566.585,99.509,591.391,98.597z"/>
</g>
</svg>
