<?xml version="1.0" encoding="UTF-8" standalone="no"?>
<svg xmlns:dc="http://purl.org/dc/elements/1.1/" xmlns:cc="http://creativecommons.org/ns#" xmlns:rdf="http://www.w3.org/1999/02/22-rdf-syntax-ns#" xmlns:svg="http://www.w3.org/2000/svg" xmlns="http://www.w3.org/2000/svg" xmlns:sodipodi="http://sodipodi.sourceforge.net/DTD/sodipodi-0.dtd" width="720" height="720" version="1.1" id="svg38" sodipodi:docname="splash.svg">
  <metadata id="metadata42">
    <rdf:RDF>
      <cc:Work rdf:about="">
        <dc:format>image/svg+xml</dc:format>
        <dc:type rdf:resource="http://purl.org/dc/dcmitype/StillImage"/>
      </cc:Work>
    </rdf:RDF>
  </metadata>
  <sodipodi:namedview pagecolor="#ffffff" bordercolor="#666666" borderopacity="1" objecttolerance="10" gridtolerance="10" guidetolerance="10" id="namedview40" showgrid="false"/>
  <defs id="defs17">
    <linearGradient y2="384.73959" x2="402.54926" y1="716.56647" x1="177.03252" id="SVGID_1_" gradientTransform="scale(1.1952909,0.83661639)" gradientUnits="userSpaceOnUse">
      <stop offset="0" stop-color="#004e73" id="stop2"/>
      <stop offset="1" stop-color="#00a1b0" id="stop4"/>
    </linearGradient>
    <linearGradient y2="0.0583" x2="1.05869" y1="1.27423" x1="-0.4793" id="SVGID_2_">
      <stop offset="0.3077" stop-color="#d3d3d3" id="stop7"/>
      <stop offset="0.6752" stop-color="#ffffff" id="stop9"/>
    </linearGradient>
    <linearGradient y2="-0.30082" x2="1.66913" y1="0.91511" x1="0.07988" id="SVGID_3_">
      <stop offset="0.3077" stop-color="#d3d3d3" id="stop12"/>
      <stop offset="0.6752" stop-color="#ffffff" id="stop14"/>
    </linearGradient>
  </defs>
  <g class="layer" id="g36">
    <title id="title19">Layer 1</title>
    <path d="m 544.65399,367.951 c 0,-6.11 -4.99899,-11.108 -11.10501,-11.108 H 182.68799 c -6.112,0 -14.644,3.534 -18.96301,7.855 l -25.745,25.74503 c -4.322,4.32098 -7.855,12.85297 -7.855,18.96298 v 226.46802 c 0,6.11096 4.999,11.10901 11.106,11.10901 h 350.85999 c 6.10693,0 14.64398,-3.53503 18.96298,-7.854 l 25.741,-25.73602 c 4.32001,-4.31601 7.85394,-12.853 7.85394,-18.965 l 0.005,-226.47697 6e-5,-3e-5 h 3e-5 z" id="svg_8" style="fill:url(#SVGID_1_)" transform="translate(14,-148)"/>
    <path d="m 402.82401,373.64899 c -6.108,0 -14.64301,-3.53601 -18.95999,-7.85699 l -25.71001,-25.71799 c -4.32101,-4.32101 -7.85698,-12.85501 -7.86499,-18.966 l -0.012,-19.246 c -0.008,-6.11002 3.52502,-14.64301 7.84602,-18.96402 l 25.741,-25.737 c 4.32098,-4.32098 12.85199,-7.85498 18.96298,-7.85498 h 102.14001 c 6.10699,0 7.573,3.534 3.25299,7.85498 l -25.741,25.737 c -4.32007,4.32101 -12.85199,7.85501 -18.96298,7.85501 H 402.828 c -6.112,0 -11.11005,4.99799 -11.11005,11.108 v 19.246 c 0,6.10999 4.99805,11.108 11.10605,11.10599 l 60.702,-0.007 c 6.10696,-0.002 14.64401,3.53299 18.96301,7.853 l 25.72894,25.729 c 4.32007,4.314 7.854,12.85098 7.854,18.96298 V 403.986 c 0,6.10901 -3.53201,14.646 -7.854,18.96301 L 482.47793,448.689 c -4.32092,4.31601 -12.853,7.854 -18.96399,7.854 h -60.68796 c -6.112,0 -14.64301,-3.53601 -18.96301,-7.854 l -25.741,-25.73999 c -4.31998,-4.31601 -2.85799,-7.854 3.25302,-7.854 H 463.515 c 6.112,0 11.10999,-4.99802 11.10999,-11.108 v -19.237 c 0,-6.112 0,-11.10999 0.003,-11.10999 0.004,0 -4.99402,0 -11.103,0 l -60.70102,0.009 z" id="svg_10" style="fill:#f5f5f5;fill-opacity:1"/>
    <path d="m 237.01,415.09698 c -6.107,0 -11.104,-4.99802 -11.104,-11.108 v -19.23502 c 0,-6.112 4.998,-11.10999 11.104,-11.10999 h 60.68999 c 6.10799,0 11.10599,-4.99802 11.10599,-11.108 v -19.20599 c 0,-6.112 -4.998,-11.10999 -11.10599,-11.10999 H 237.01 c -6.107,0 -11.104,-4.99802 -11.104,-11.108 v -19.246 c 0,-6.11002 4.998,-11.108 11.104,-11.108 h 60.68999 c 6.10799,0 14.64301,-3.534 18.96399,-7.854 l 25.74898,-25.741 c 4.321,-4.319 2.85501,-7.853 -3.25299,-7.853 H 237.00998 c -6.10699,0 -14.64301,3.534 -18.96301,7.85498 l -25.737,25.73502 c -4.32,4.32098 -7.857,12.854 -7.857,18.96399 v 102.125 c 0,6.11002 3.537,14.646 7.857,18.96301 l 25.737,25.73999 c 4.32101,4.31601 12.855,7.854 18.96301,7.854 h 102.14297 c 6.112,0 7.57402,-3.53601 3.25302,-7.85501 l -25.74101,-25.74399 c -4.32001,-4.32101 -12.85399,-7.85699 -18.96399,-7.85699 l -60.69099,0.007 z" id="svg_13" style="fill:#f5f5f5;fill-opacity:1"/>
  </g>
</svg>
