<?xml version="1.0" encoding="utf-8"?>
<!-- Generator: Adobe Illustrator 13.0.0, SVG Export Plug-In . SVG Version: 6.00 Build 14948)  -->
<!DOCTYPE svg [
	<!ENTITY ns_flows "http://ns.adobe.com/Flows/1.0/">
	<!ENTITY ns_extend "http://ns.adobe.com/Extensibility/1.0/">
	<!ENTITY ns_ai "http://ns.adobe.com/AdobeIllustrator/10.0/">
	<!ENTITY ns_graphs "http://ns.adobe.com/Graphs/1.0/">
	<!ENTITY ns_vars "http://ns.adobe.com/Variables/1.0/">
	<!ENTITY ns_imrep "http://ns.adobe.com/ImageReplacement/1.0/">
	<!ENTITY ns_sfw "http://ns.adobe.com/SaveForWeb/1.0/">
	<!ENTITY ns_custom "http://ns.adobe.com/GenericCustomNamespace/1.0/">
	<!ENTITY ns_adobe_xpath "http://ns.adobe.com/XPath/1.0/">
]>
<svg version="1.2" baseProfile="tiny"
	 id="Layer_3" xmlns:x="&ns_extend;" xmlns:i="&ns_ai;" xmlns:graph="&ns_graphs;" xmlns:rdf="http://www.w3.org/1999/02/22-rdf-syntax-ns#" xmlns:dc="http://purl.org/dc/elements/1.1/" xmlns:cc="http://creativecommons.org/ns#"
	 xmlns="http://www.w3.org/2000/svg" xmlns:xlink="http://www.w3.org/1999/xlink" xmlns:a="http://ns.adobe.com/AdobeSVGViewerExtensions/3.0/"
	 x="0px" y="0px" width="598.189px" height="350.26px" viewBox="0 0 598.189 350.26" xml:space="preserve">
<metadata  id="metadata55">
	<rdf:RDF>
		<cc:Work  rdf:about="">
			<dc:format>image/svg+xml</dc:format>
			<dc:type  rdf:resource="http://purl.org/dc/dcmitype/StillImage"></dc:type>
			<dc:title></dc:title>
		</cc:Work>
	</rdf:RDF>
	<sfw  xmlns="&ns_sfw;">
		<slices></slices>
		<sliceSourceBounds  height="242.633" width="579.431" y="412.108" x="675.286" bottomLeftOrigin="true"></sliceSourceBounds>
	</sfw>
</metadata>
<path id="path3" fill="#F4F4F4" d="M122.598,85.096c-20.463,0-39.631,5.67-55.979,15.504l0.982,1.607
	C83.662,92.545,102.485,87,122.598,87c58.999,0,106.813,47.811,106.813,106.812c0,43.56-26.068,81.02-63.448,97.642l0.773,1.727
	c38.051-16.923,64.579-55.05,64.579-99.365c0-60.027-48.687-108.717-108.717-108.717L122.598,85.096z"/>
<path id="path5" fill="#F4F4F4" d="M251.371,166.311c-5.066,0-9.196,4.132-9.196,9.196c0,5.067,4.13,9.196,9.196,9.196h19.999
	c5.066,0,9.196-4.129,9.196-9.196c0-5.065-4.13-9.196-9.196-9.196H251.371z M251.371,168.215h19.999
	c4.037,0,7.292,3.257,7.292,7.292c0,4.038-3.255,7.292-7.292,7.292h-19.999c-4.036,0-7.292-3.254-7.292-7.292
	C244.079,171.472,247.334,168.215,251.371,168.215z"/>
<path id="path7" fill="#F4F4F4" d="M298.263,59.889c-53.215,0-102.584,4.418-143.324,11.963
	c-40.715,7.541-72.803,18.156-91.571,30.771c-0.011,0.007-0.02,0.022-0.03,0.03l-0.357,0.208v0.03
	c-29.565,19.43-49.1,52.896-49.1,90.914c0,60.025,48.687,108.717,108.717,108.717c16.731,0,32.593-3.781,46.753-10.535l0.089-0.06
	l0.06-0.06l0.06-0.029c36.176-17.553,79.873-28.659,132.667-28.659h2.738c52.799,0,96.498,11.106,132.667,28.659
	c0.032,0.016,0.059,0.044,0.09,0.06l0.06,0.029c0.009,0.004,0.022-0.004,0.029,0l0.03,0.06
	c14.161,6.755,30.021,10.535,46.754,10.535c60.025,0,108.717-48.687,108.717-108.717c0-38.02-19.534-71.489-49.104-90.917v-0.03
	l-0.357-0.208c-0.012-0.007-0.019-0.022-0.03-0.03c-18.751-12.612-50.834-23.227-91.556-30.768
	c-40.74-7.544-90.108-11.963-143.324-11.963h-10.656H298.263z M298.263,61.793h10.654c53.11,0,102.365,4.415,142.963,11.933
	c40.599,7.519,72.549,18.165,90.888,30.504l0.03,0.03l0.357,0.208c0.011,0.008,0.018,0.021,0.029,0.03
	c29.033,19.091,48.211,51.957,48.211,89.31c0,58.998-47.811,106.812-106.813,106.812c-16.396,0-31.919-3.697-45.801-10.297
	l-0.03-0.028c-0.02-0.011-0.039-0.021-0.06-0.03h-0.029l-0.066-0.028c-36.465-17.733-80.5-28.961-133.648-28.961h-2.738
	c-53.152,0-97.213,11.229-133.687,28.957l-0.03,0.029h-0.03l-0.089,0.06l-0.06,0.03c-13.865,6.581-29.367,10.267-45.741,10.267
	c-59.001,0-106.813-47.807-106.813-106.813c0-37.35,19.178-70.213,48.211-89.305c0.012-0.007,0.019-0.022,0.029-0.03l0.357-0.208
	l0.03-0.03c18.339-12.34,50.291-22.986,90.888-30.504c40.597-7.519,89.861-11.934,142.962-11.934L298.263,61.793z"/>
<path id="path9" fill="#F4F4F4" d="M484.595,85.096c-60.028,0-108.717,48.687-108.717,108.717c0,44.319,26.528,82.446,64.578,99.365
	l0.773-1.727c-37.369-16.627-63.443-54.091-63.443-97.65c0-58.999,47.81-106.813,106.813-106.813
	c20.112,0,38.936,5.546,54.996,15.208l0.981-1.6c-16.342-9.833-35.512-15.504-55.978-15.504L484.595,85.096z"/>
<path id="path11" fill="#F4F4F4" d="M335.822,166.311c-5.064,0-9.195,4.132-9.195,9.196c0,5.067,4.131,9.196,9.195,9.196h19.999
	c5.065,0,9.195-4.13,9.195-9.196c0-5.064-4.13-9.196-9.195-9.196H335.822z M335.822,168.215h19.999c4.037,0,7.291,3.257,7.291,7.292
	c0,4.038-3.254,7.292-7.291,7.292h-19.999c-4.035,0-7.291-3.254-7.291-7.292C328.531,171.472,331.787,168.215,335.822,168.215z"/>
<g id="g13">
	<path fill="#F4F4F4" d="M95.819,171.386c0-26.145,21.194-47.337,47.339-47.337l0,0V125v0.953c-12.549,0-23.902,5.084-32.127,13.308
		l0,0c-8.222,8.224-13.306,19.576-13.306,32.125l0,0c0,12.549,5.084,23.901,13.306,32.125l0,0
		c8.226,8.224,19.578,13.308,32.127,13.308l0,0c12.549,0,23.902-5.084,32.125-13.308l0,0c8.224-8.224,13.308-19.576,13.308-32.125
		l0,0c0-12.549-5.084-23.902-13.308-32.125l0,0c-8.223-8.224-19.576-13.308-32.125-13.308l0,0V125v-0.951
		c26.144,0,47.336,21.192,47.338,47.337l0,0c-0.002,26.144-21.194,47.336-47.338,47.338l0,0
		C117.014,218.722,95.819,197.529,95.819,171.386L95.819,171.386z"/>
	<path fill="#F4F4F4" d="M130.323,216.261v-29.646c0-0.936-0.215-1.517-0.508-1.839l0,0c-0.292-0.318-0.742-0.545-1.645-0.552l0,0
		H98.422v-1.906h29.748c1.234-0.007,2.337,0.369,3.064,1.188l0,0c0.725,0.816,0.994,1.907,0.994,3.109l0,0v29.646H130.323
		L130.323,216.261z"/>
	<path fill="#F4F4F4" d="M98.359,160.455v-1.904h29.536c1.092,0.002,1.672-0.229,1.948-0.49l0,0
		c0.275-0.254,0.472-0.691,0.478-1.597l0,0v-29.848h1.904v29.848c0.006,1.166-0.281,2.249-1.092,2.996l0,0
		c-0.813,0.741-1.921,0.993-3.238,0.995l0,0H98.359L98.359,160.455z"/>
	<path fill="#F4F4F4" d="M155.155,159.324c-0.775-0.776-1.067-1.841-1.065-2.929l0,0V126.55h0.002h1.904v29.846
		c0.002,0.782,0.195,1.271,0.505,1.58l0,0c0.312,0.312,0.866,0.573,1.921,0.577l0,0h29.645v1.905h-29.645c-0.008,0-0.015,0-0.023,0
		l0,0C157.051,160.457,155.924,160.095,155.155,159.324L155.155,159.324z"/>
	<path fill="#F4F4F4" d="M154.091,216.26v-29.611c-0.004-1.298,0.326-2.436,1.12-3.229l0,0c0.795-0.793,1.916-1.105,3.145-1.104l0,0
		l29.61,0.003v1.904h-29.61c-0.944,0.002-1.481,0.226-1.797,0.544l0,0c-0.318,0.317-0.558,0.869-0.562,1.882l0,0v29.611H154.091
		L154.091,216.26z"/>
</g>
<path id="circle25" fill="#F4F4F4" d="M143.158,161.13c-5.653,0-10.267,4.614-10.267,10.266c0,5.653,4.614,10.237,10.267,10.237
	c5.653,0,10.267-4.584,10.267-10.237S148.812,161.13,143.158,161.13z M143.158,163.034c4.624,0,8.363,3.739,8.363,8.362
	c0,4.624-3.739,8.333-8.363,8.333c-4.624,0-8.362-3.709-8.362-8.333S138.535,163.034,143.158,163.034z"/>
<path id="circle27" fill="#F4F4F4" d="M143.158,104.291c-37.047,0-67.109,30.062-67.109,67.109s30.062,67.08,67.109,67.08
	c37.048,0,67.109-30.032,67.109-67.08C210.268,134.353,180.205,104.291,143.158,104.291z M143.158,106.195
	c36.018,0,65.205,29.186,65.205,65.204c0,36.018-29.186,65.176-65.205,65.176c-36.018,0-65.205-29.157-65.205-65.176
	C77.954,135.382,107.14,106.195,143.158,106.195z"/>
<path id="circle29" fill="#F4F4F4" d="M429.036,185.062c-13.567,0-24.611,11.015-24.611,24.581
	c0,13.567,11.043,24.612,24.611,24.612c13.566,0,24.58-11.044,24.58-24.612C453.616,196.076,442.603,185.062,429.036,185.062z
	 M429.036,186.966c12.538,0,22.676,10.141,22.676,22.677c0,12.538-10.139,22.707-22.676,22.707
	c-12.538,0-22.707-10.169-22.707-22.707C406.329,197.105,416.498,186.966,429.036,186.966z"/>
<path id="circle31" fill="#F4F4F4" d="M472.747,146.759c-13.566,0-24.581,11.014-24.581,24.581
	c0,13.566,11.015,24.581,24.581,24.581c13.567,0,24.581-11.015,24.581-24.581C497.328,157.773,486.314,146.759,472.747,146.759z
	 M472.747,148.663c12.538,0,22.677,10.139,22.677,22.677c0,12.538-10.14,22.677-22.677,22.677c-12.539,0-22.677-10.14-22.677-22.677
	C450.07,158.801,460.21,148.663,472.747,148.663z"/>
<path id="circle33" fill="#F4F4F4" d="M524.649,119.319c-13.567,0-24.582,11.014-24.582,24.582
	c0,13.566,11.015,24.611,24.582,24.611c13.566,0,24.58-11.044,24.58-24.611C549.229,130.333,538.216,119.319,524.649,119.319z
	 M524.649,121.223c12.537,0,22.677,10.14,22.677,22.678s-10.141,22.706-22.677,22.706c-12.539,0-22.678-10.168-22.678-22.706
	C501.972,131.362,512.112,121.223,524.649,121.223z"/>
<path id="polyline35" fill="#F4F4F4" d="M315.081,262.467v3.987h-22.975v-3.958h-1.905v4.911v0.952h0.953h24.88h0.952v-0.952v-4.94
	H315.081z"/>
<path id="path37" fill="#F4F4F4" d="M359.603,265.856l-1.515,1.162c5.073,6.614,13.05,10.862,22.022,10.862
	c4.678,0,9.107-1.168,12.976-3.214L392.192,273c-3.602,1.905-7.719,2.976-12.082,2.976c-8.37,0-15.779-3.956-20.506-10.118
	L359.603,265.856z"/>
</svg>
