<?xml version="1.0" encoding="UTF-8" standalone="no"?>
<!-- Generator: Adobe Illustrator 13.0.0, SVG Export Plug-In . SVG Version: 6.00 Build 14948)  -->

<svg
   xmlns:ns="&amp;ns_sfw;"
   xmlns:dc="http://purl.org/dc/elements/1.1/"
   xmlns:cc="http://creativecommons.org/ns#"
   xmlns:rdf="http://www.w3.org/1999/02/22-rdf-syntax-ns#"
   xmlns:svg="http://www.w3.org/2000/svg"
   xmlns="http://www.w3.org/2000/svg"
   xmlns:sodipodi="http://sodipodi.sourceforge.net/DTD/sodipodi-0.dtd"
   xmlns:inkscape="http://www.inkscape.org/namespaces/inkscape"
   version="1.2"
   id="Layer_3"
   x="0px"
   y="0px"
   width="598.189px"
   height="350.26px"
   viewBox="0 0 598.189 350.26"
   xml:space="preserve"
   sodipodi:docname="controller.svg"
   inkscape:version="0.92.4 (5da689c313, 2019-01-14)"><defs
   id="defs82" /><sodipodi:namedview
   pagecolor="#ffffff"
   bordercolor="#666666"
   borderopacity="1"
   objecttolerance="10"
   gridtolerance="10"
   guidetolerance="10"
   inkscape:pageopacity="0"
   inkscape:pageshadow="2"
   inkscape:window-width="1920"
   inkscape:window-height="1017"
   id="namedview80"
   showgrid="false"
   inkscape:pagecheckerboard="true"
   inkscape:zoom="3.3760181"
   inkscape:cx="353.6578"
   inkscape:cy="158.87424"
   inkscape:window-x="1432"
   inkscape:window-y="-8"
   inkscape:window-maximized="1"
   inkscape:current-layer="Layer_3" />
<metadata
   id="metadata55">
	<rdf:RDF>
		<cc:Work
   rdf:about="">
			<dc:format>image/svg+xml</dc:format>
			<dc:type
   rdf:resource="http://purl.org/dc/dcmitype/StillImage" />
			<dc:title></dc:title>
		</cc:Work>
	</rdf:RDF>
	<ns:sfw>
		<ns:slices />
		<ns:sliceSourceBounds
   x="805.998"
   y="-7652"
   width="310.002"
   height="16383"
   bottomLeftOrigin="true" />
	</ns:sfw>
</metadata>
<path
   fill="#F4F4F4"
   d="M415.095,188.464V163.13h37.499v-138c-0.009-4.418-3.582-7.992-8-8l0,0H154.595c-4.42,0.008-7.994,3.582-8,8  l0,0l-0.002,138h37.501v24.75h-2v-22.75h-37.5V25.128c0-5.522,4.478-9.999,10.001-9.999l0,0h289.999  c5.523,0,10.001,4.477,10.001,9.999l0,0V165.13l-37.5-0.002v23.336H415.095L415.095,188.464z"
   id="path3" />
<path
   fill="#F4F4F4"
   d="M154.595,337.128c-5.525,0-10-4.478-10-10l0,0v-149h1.999v149c0.008,4.42,3.583,7.992,8.001,8.002l0,0  h289.999c4.419-0.01,7.991-3.582,8.001-8.002l0,0v-149h1.999v149c0,5.522-4.478,10-10,10l0,0H154.595L154.595,337.128z"
   id="path5" />
<path
   fill="#F4F4F4"
   d="M156.259,189.464v-0.002v-1v-1l286.67,0.002c5.337-0.012,9.654-4.328,9.663-9.668l0,0  c-0.009-5.336-4.326-9.656-9.663-9.666l0,0h-286.67c-5.337,0.009-9.655,4.328-9.666,9.666l0,0c0.011,5.34,4.328,9.658,9.666,9.668  l0,0v0.998v1c-6.441,0-11.664-5.223-11.666-11.666l0,0c0.002-6.444,5.225-11.666,11.666-11.666l0,0h286.67  c6.441,0,11.663,5.222,11.663,11.666l0,0c0,6.443-5.222,11.666-11.663,11.666l0,0h-286.67V189.464z"
   id="path7" />
<path
   d="m 201.92097,156.796 c -3.62623,0 -6.55739,-2.238 -6.56132,-5 v 0 -115.334 c 0.004,-2.761 2.93509,-5 6.56132,-5 v 0 h 198.90641 c 3.62361,0 6.55345,2.238 6.55345,5 v 0 115.333 c 0,2.761 -2.92984,5 -6.55345,5 v 0 H 201.92097 Z M 197.9826,36.462 v 115.333 c 0.007,1.656 1.76394,2.996 3.93837,3 v 0 h 198.90641 c 2.17049,-0.004 3.92918,-1.344 3.93444,-3 v 0 -115.333 c -0.006,-1.657 -1.76395,-2.996 -3.93444,-3 v 0 H 201.92097 c -2.17574,0.004 -3.9318,1.345 -3.93837,3 z"
   id="path9"
   inkscape:connector-curvature="0"
   style="fill:#f4f4f4;stroke-width:1.14519715" />
<path
   d="m 206.42074,149.796 c -2.22261,-0.002 -4.02162,-1.342 -4.02429,-3 v 0 l 0.002,-105.333 c 0,-1.657 1.799,-3 4.02162,-3 v 0 h 189.01446 c 2.22127,0 4.02027,1.344 4.02027,3 v 0 105.333 c 0,1.656 -1.799,3 -4.02027,3 v 0 H 206.4204 Z m -1.34054,-108.334 -0.002,105.333 c 0.002,0.549 0.60325,0.998 1.34322,1 v 0 h 189.01415 c 0.74265,-0.002 1.33786,-0.447 1.34054,-1 v 0 -105.333 c -0.002,-0.552 -0.59789,-0.998 -1.34054,-1 v 0 H 206.42109 c -0.73998,0.002 -1.34053,0.449 -1.34053,1 z"
   id="path11"
   inkscape:connector-curvature="0"
   style="fill:#f4f4f4;stroke-width:1.15781593" />
<path
   d="M218.345,317.255V197.503c0-2.209,1.79-3.998,4-3.998l0,0l154.499-0.002c2.21,0.002,4,1.791,4,4l0,0v119.752  c0,2.207-1.79,3.998-4,3.998l0,0l-154.499,0.002C220.135,321.253,218.345,319.462,218.345,317.255L218.345,317.255z   M220.344,197.503v119.752c0.003,1.104,0.897,1.996,2.001,1.998l0,0h154.499c1.104-0.002,1.997-0.896,1.999-1.998l0,0h0.002  l-0.002-119.752c-0.002-1.104-0.895-1.998-1.999-2l0,0H222.345C221.241,195.505,220.347,196.399,220.344,197.503L220.344,197.503z"
   id="path13"
   fill="#F4F4F4" />
<path
   fill="#F4F4F4"
   d="M227.969,312.753c-1.104,0-1.999-0.896-1.999-1.998l0,0v-106.75c0-1.107,0.895-2.002,1.999-2.002l0,0h143.25  c1.104,0,1.999,0.895,1.999,2.002l0,0v106.75c0,1.104-0.895,1.998-1.999,1.998l0,0H227.969L227.969,312.753z M227.969,204.005  v106.75h143.25v-106.75v-0.002h-143.25V204.005L227.969,204.005z"
   id="path15" />
<path
   d="m 175.02983,302.25163 c -1.105,0 -2.001,-0.895 -2.001,-2 v 0 -12.062 h -12.063 c -1.105,0 -1.999,-0.896 -1.999,-1.999 v 0 -13.251 c 0,-1.104 0.894,-2 1.999,-2 v 0 h 12.063 v -12.063 c 0,-1.104 0.896,-1.998 2.001,-1.998 v 0 h 13.249 c 1.105,0 2,0.895 2,1.998 v 0 12.063 h 12.063 c 1.105,0 1.999,0.896 1.999,2 v 0 13.251 c 0,1.104 -0.893,1.999 -1.999,1.999 v 0 h -12.063 v 12.063 c 0,1.104 -0.896,1.998 -2,1.998 v 0 h -13.249 z m 0,-2 h 13.249 v -12.188 c 0.006,-0.307 0.025,-0.742 0.354,-1.199 v 0 c 0.334,-0.469 0.956,-0.693 1.502,-0.675 v 0 h 12.208 v -13.25 h -12.146 c -0.395,0 -0.891,-0.083 -1.317,-0.455 v 0 c -0.43,-0.376 -0.608,-0.954 -0.6,-1.481 v 0 -12.127 h -13.249 v 12.168 c -0.002,0.375 -0.075,0.842 -0.417,1.266 v 0 c -0.343,0.428 -0.929,0.645 -1.458,0.631 v 0 h -12.188 v 13.249 h 12.085 c 0.391,0.015 0.823,-0.008 1.34,0.345 v 0 c 0.53,0.393 0.648,1.022 0.638,1.469 v 0 12.247 z"
   id="path17"
   inkscape:connector-curvature="0"
   style="fill:#f4f4f4" />
<path
   fill="#F4F4F4"
   d="M407.763,219.794c0-5.246,4.253-9.5,9.499-9.5l0,0c5.247,0,9.5,4.254,9.5,9.5l0,0c0,5.246-4.253,9.5-9.5,9.5  l0,0C412.016,229.294,407.763,225.042,407.763,219.794L407.763,219.794z M409.761,219.794c0.008,4.143,3.359,7.494,7.501,7.502l0,0  c4.144-0.008,7.493-3.359,7.5-7.502l0,0c-0.007-4.143-3.356-7.492-7.5-7.5l0,0C413.12,212.302,409.769,215.652,409.761,219.794  L409.761,219.794z"
   id="path19" />
<path
   fill="#F4F4F4"
   d="M407.763,255.296c0-5.25,4.253-9.502,9.499-9.502l0,0c5.247,0,9.5,4.252,9.5,9.502l0,0  c0,5.244-4.253,9.498-9.5,9.498l0,0C412.016,264.794,407.763,260.542,407.763,255.296L407.763,255.296z M409.761,255.296  c0.008,4.141,3.359,7.49,7.501,7.5l0,0c4.144-0.01,7.493-3.359,7.5-7.5l0,0c-0.007-4.146-3.356-7.494-7.5-7.502l0,0  C413.12,247.802,409.769,251.151,409.761,255.296L409.761,255.296z"
   id="path21" />
<path
   fill="#F4F4F4"
   d="M390.095,237.628c0-5.246,4.256-9.5,9.501-9.5l0,0c5.246,0,9.5,4.254,9.5,9.5l0,0c0,5.246-4.254,9.5-9.5,9.5  l0,0C394.351,247.128,390.095,242.876,390.095,237.628L390.095,237.628z M392.096,237.628c0.009,4.144,3.358,7.492,7.5,7.502l0,0  c4.143-0.01,7.492-3.358,7.5-7.502l0,0c-0.008-4.142-3.357-7.494-7.5-7.5l0,0C395.454,230.134,392.103,233.487,392.096,237.628  L392.096,237.628z"
   id="path23" />
<path
   fill="#F4F4F4"
   d="M425.931,237.628c0-5.246,4.252-9.5,9.5-9.5l0,0c5.245,0,9.499,4.254,9.499,9.5l0,0  c0,5.248-4.254,9.5-9.499,9.5l0,0C430.183,247.128,425.931,242.876,425.931,237.628L425.931,237.628z M427.93,237.628  c0.009,4.144,3.357,7.492,7.501,7.502l0,0c4.142-0.01,7.493-3.358,7.499-7.502l0,0c-0.006-4.142-3.357-7.492-7.499-7.5l0,0  C431.287,230.136,427.937,233.487,427.93,237.628L427.93,237.628z"
   id="path25" />
<path
   fill="#F4F4F4"
   d="M390.429,295.128c0-2.946,2.387-5.334,5.334-5.334l0,0c2.943,0,5.331,2.388,5.331,5.334l0,0  c0,2.945-2.388,5.332-5.331,5.332l0,0C392.813,300.46,390.429,298.075,390.429,295.128L390.429,295.128z M392.427,295.128  c0.004,1.84,1.493,3.33,3.336,3.332l0,0c1.84-0.002,3.327-1.492,3.331-3.332l0,0c-0.004-1.842-1.491-3.33-3.331-3.334l0,0  C393.92,291.798,392.431,293.288,392.427,295.128L392.427,295.128z"
   id="path27" />
<path
   fill="#F4F4F4"
   d="M390.429,312.796c0-2.947,2.388-5.334,5.333-5.334l0,0c2.945,0,5.332,2.387,5.332,5.334l0,0  c0,2.945-2.387,5.332-5.332,5.332l0,0C392.815,318.128,390.429,315.741,390.429,312.796L390.429,312.796z M392.427,312.796  c0.005,1.84,1.493,3.328,3.335,3.332l0,0c1.841-0.004,3.33-1.492,3.332-3.332l0,0c-0.002-1.842-1.491-3.33-3.332-3.334l0,0  C393.92,309.466,392.432,310.954,392.427,312.796L392.427,312.796z"
   id="path29" />

<g
   id="g41"
   transform="matrix(0.57507656,0,0,0.68407401,126.56421,2.429076)">
	<path
   d="m 185.136,38.629 c -1.658,0 -3,-1.344 -3,-3 v 0 -5.251 c 0,-1.656 1.342,-3 3,-3 v 0 h 5.25 c 1.658,0 3,1.343 3,3 v 0 5.251 c 0,1.656 -1.341,3 -3,3 v 0 z m -1.001,-8.251 v 5.251 c 0.002,0.55 0.449,0.999 1,0.999 v 0 h 5.25 c 0.552,0 0.999,-0.449 1,-0.999 v 0 -5.251 c -0.002,-0.55 -0.448,-0.999 -1,-1 v 0 h -5.25 c -0.551,0.002 -0.998,0.451 -1,1 z"
   id="path37"
   inkscape:connector-curvature="0"
   style="fill:#f4f4f4" />
	<path
   d="m 408.803,38.628 c -1.657,0 -2.999,-1.343 -2.999,-2.999 v 0 -5.251 c 0,-1.656 1.342,-2.999 2.999,-2.999 v 0 h 5.251 c 1.656,0 2.997,1.341 2.999,2.999 v 0 5.251 c -0.002,1.658 -1.343,2.999 -2.999,2.999 v 0 z m -1.001,-8.249 v 5.251 c 0.002,0.553 0.448,0.999 1.001,0.999 v 0 h 5.251 c 0.549,0 0.997,-0.448 0.999,-0.999 v 0 -5.251 c -0.002,-0.551 -0.45,-0.999 -0.999,-1.001 v 0 h -5.251 c -0.553,0.002 -0.999,0.449 -1.001,1.001 z"
   id="path39"
   inkscape:connector-curvature="0"
   style="fill:#f4f4f4" />
</g>

<path
   d="m 434.85669,180.34931 c 0,0.16689 -0.448,0.3018 -1,0.3018 h -0.332 c -0.552,0 -1,-0.13491 -1,-0.3018 v -3.62157 c 0,-0.1669 0.448,-0.3018 1,-0.3018 h 0.332 c 0.552,0 1,0.1349 1,0.3018 z"
   id="path45"
   inkscape:connector-curvature="0"
   style="fill:#f4f4f4;stroke-width:0.54936123" />

<g
   id="g77"
   transform="matrix(1.0985231,0,0,1,-28.184057,0)">
	<g
   id="g61">
		<circle
   cx="405.56299"
   cy="90.942001"
   r="1.563"
   id="circle49"
   style="fill:#f4f4f4" />
		<circle
   cx="417.18799"
   cy="90.942001"
   r="1.563"
   id="circle51"
   style="fill:#f4f4f4" />
		<circle
   cx="428.81299"
   cy="90.942001"
   r="1.563"
   id="circle53"
   style="fill:#f4f4f4" />
		
		<circle
   cx="417.18799"
   cy="102.317"
   r="1.563"
   id="circle57"
   style="fill:#f4f4f4" />
		<circle
   cx="417.26093"
   cy="79.360962"
   r="1.563"
   id="circle59"
   style="fill:#f4f4f4" />
	</g>
	<g
   id="g75">
		<circle
   cx="170.37601"
   cy="90.942001"
   r="1.563"
   id="circle63"
   style="fill:#f4f4f4" />
		<circle
   cx="182.00101"
   cy="90.942001"
   r="1.563"
   id="circle65"
   style="fill:#f4f4f4" />
		<circle
   cx="193.62601"
   cy="90.942001"
   r="1.563"
   id="circle67"
   style="fill:#f4f4f4" />
		
		<circle
   cx="182.00101"
   cy="102.317"
   r="1.563"
   id="circle71"
   style="fill:#f4f4f4" />
		<circle
   cx="182.07393"
   cy="79.21286"
   r="1.563"
   id="circle73"
   style="fill:#f4f4f4" />
	</g>
</g>
<path
   inkscape:connector-curvature="0"
   style="fill:#f4f4f4;stroke-width:1.21815193"
   d="m 169.7047,222.1505 c 0,-6.30919 5.2512,-11.42534 11.72267,-11.42534 v 0 c 6.4727,0 11.72143,5.11615 11.72143,11.42534 v 0 c 0,6.3092 -5.24873,11.42535 -11.72143,11.42535 v 0 c -6.47147,0 -11.72267,-5.11374 -11.72267,-11.42535 z m 2.4689,0 c 0.0111,4.98386 4.14322,9.01039 9.25377,9.02242 v 0 c 5.11178,-0.012 9.24389,-4.03856 9.25376,-9.02242 v 0 c -0.01,-4.98145 -4.14198,-9.01279 -9.25376,-9.02 v 0 c -5.11055,0.007 -9.24513,4.03975 -9.25377,9.02 z"
   id="path23-6" /><path
   inkscape:connector-curvature="0"
   style="fill:none;fill-opacity:1;stroke:#ffffff;stroke-width:1.118;stroke-miterlimit:4;stroke-dasharray:none;stroke-opacity:1"
   d="m 161.1147,221.74542 c 0,-11.15614 9.09932,-20.20268 20.31312,-20.20268 v 0 c 11.21594,0 20.31099,9.04654 20.31099,20.20268 v 0 c 0,11.15614 -9.09505,20.20268 -20.31099,20.20268 v 0 c -11.2138,0 -20.31312,-9.04229 -20.31312,-20.20268 z"
   id="path23-6-1"
   sodipodi:nodetypes="sccccccs" /><path
   inkscape:connector-curvature="0"
   style="fill:none;fill-opacity:1;stroke:#ffffff;stroke-width:0.98775357;stroke-miterlimit:4;stroke-dasharray:none;stroke-opacity:1"
   d="m 386.86495,200.11581 c 0,-3.05516 2.44647,-5.5326 5.46143,-5.5326 v 0 c 3.01555,0 5.46086,2.47744 5.46086,5.5326 v 0 c 0,3.05516 -2.44531,5.5326 -5.46086,5.5326 v 0 c -3.01496,0 -5.46143,-2.47627 -5.46143,-5.5326 z"
   id="path23-6-1-1"
   sodipodi:nodetypes="sccccccs" /><path
   inkscape:connector-curvature="0"
   style="fill:#f4f4f4;stroke-width:0.68047625"
   d="m 297.391,24.729246 c 0,-1.96424 1.65774,-3.55643 3.7044,-3.55643 v 0 c 2.04388,0 3.70232,1.59219 3.70232,3.55643 v 0 c 0,1.96356 -1.65844,3.55509 -3.70232,3.55509 v 0 c -2.04874,0 -3.7044,-1.59019 -3.7044,-3.55509 z m 1.38759,0 c 0.003,1.22681 1.03687,2.22026 2.31681,2.22159 v 0 c 1.27786,-10e-4 2.31057,-0.99478 2.31335,-2.22159 v 0 c -0.003,-1.22815 -1.03549,-2.22027 -2.31335,-2.22294 v 0 c -1.27994,0.003 -2.31403,0.99612 -2.31681,2.22294 z"
   id="path27-2" /></svg>