<?xml version="1.0" encoding="utf-8"?>
<!-- Generator: Adobe Illustrator 13.0.0, SVG Export Plug-In . SVG Version: 6.00 Build 14948)  -->
<!DOCTYPE svg PUBLIC "-//W3C//DTD SVG 1.1//EN" "http://www.w3.org/Graphics/SVG/1.1/DTD/svg11.dtd">
<svg version="1.1" id="Layer_3" xmlns="http://www.w3.org/2000/svg" xmlns:xlink="http://www.w3.org/1999/xlink" x="0px" y="0px"
	 width="598.189px" height="350.26px" viewBox="0 0 598.189 350.26" enable-background="new 0 0 598.189 350.26"
	 xml:space="preserve">
<path fill="#F4F4F4" d="M291.694,335.893c-9.292-1.254-16.413-8.771-23.026-17.755l0,0c-6.609-9.034-12.749-19.825-19.404-28.344
	l0,0c-3.337-4.287-10.311-15.482-19.251-30.418l0,0c-8.923-14.916-19.733-33.478-30.489-52.182l0,0
	c-21.515-37.419-42.787-75.357-48.308-85.853l0,0c-0.749-1.434-1.18-2.268-1.411-2.849l0,0l1.868-0.719l1.866-0.717
	c0.071,0.218,1.029,2.108,2.511,4.848l0,0c1.499,2.784,3.591,6.599,6.148,11.219l0,0c5.117,9.238,12.099,21.687,19.947,35.542l0,0
	c15.696,27.713,34.857,61.061,49.495,85.63l0,0c9.739,16.356,17.551,28.915,20.777,33.033l0,0
	c6.905,8.856,13.055,19.68,19.478,28.445l0,0c6.418,8.814,13.072,15.283,20.295,16.146l0,0c0.379,0.047,0.845,0.076,1.383,0.076l0,0
	c7.037,0.042,25.024-4.686,45.034-11.24l0,0c20.075-6.548,42.464-14.905,59.221-22.072l0,0c11.146-4.759,19.885-9.078,23.461-11.732
	l0,0c4.268-3.148,6.838-5.991,8.37-8.934l0,0c1.53-2.945,2.103-6.096,2.106-10.112l0,0c0.011-6.603-1.644-15.375-2.805-27.897l0,0
	c-2.518-27.321-25.835-165.589-28.378-181.247l0,0c-1.87-11.978-1.623-23.052-5.079-28.273l0,0
	c-1.121-1.746-2.482-2.909-4.597-3.628l0,0c-6.931-2.322-18.682-3.609-32.979-3.599l0,0c-29.925-0.006-71.189,5.492-105.598,17.157
	l0,0c-25.418,8.611-47.736,21.133-64.514,32.602l0,0c-16.75,11.426-28.079,21.961-31.162,26.047l0,0
	c-1.989,2.606-3.375,4.532-4.203,6.071l0,0c-0.828,1.553-1.119,2.626-1.127,3.891l0,0c-0.017,1.748,0.708,4.14,2.215,8.028l0,0
	l-1.866,0.717l-1.868,0.719c-1.509-3.953-2.467-6.678-2.481-9.464l0,0c-0.011-1.998,0.568-3.887,1.61-5.792l0,0
	c1.042-1.92,2.526-3.949,4.538-6.592l0,0c3.695-4.815,15.042-15.256,32.088-26.927l0,0c17.021-11.63,39.626-24.322,65.486-33.086
	l0,0C286.01,24.79,327.528,19.267,357.927,19.26l0,0c14.556,0.01,26.519,1.245,34.243,3.807l0,0
	c2.973,0.975,5.213,2.884,6.714,5.284l0,0c1.512,2.4,2.375,5.241,2.987,8.362l0,0c1.205,6.24,1.408,13.728,2.66,21.41l0,0
	c2.542,15.703,25.842,153.747,28.411,181.52l0,0c1.134,12.354,2.812,21.026,2.823,28.265l0,0c0.003,4.384-0.653,8.306-2.562,11.961
	l0,0c-1.903,3.655-4.978,6.94-9.543,10.305l0,0c-6.316,4.616-22.945,11.988-42.725,19.693l0,0
	c-19.737,7.67-42.42,15.512-60.242,20.576l0,0c-11.918,3.371-21.529,5.532-27.122,5.555l0,0
	C292.896,335.997,292.277,335.962,291.694,335.893L291.694,335.893z"/>
<path fill="#F4F4F4" d="M432.459,250.971c6.034-0.586,9.69-3.927,12.979-8.401l0,0c3.263-4.452,5.781-9.89,9.484-13.861l0,0
	l0.17-0.181l0.21-0.132c10.298-6.587,16.627-13.463,20.468-21.313l0,0c3.839-7.854,5.216-16.815,5.216-27.631l0,0
	c0.005-14.542-2.508-32.337-4.563-54.714l0,0c-1.547-16.899-6.021-27.033-11.958-32.905l0,0c-5.929-5.866-13.529-7.821-22.195-7.834
	l0,0c-10.693-0.013-22.73,3.095-33.827,5.227l0,0l-0.752-3.929c10.928-2.08,23.142-5.288,34.579-5.298l0,0
	c9.221-0.015,18.125,2.159,25.01,8.995l0,0c6.88,6.831,11.532,17.974,13.128,35.38l0,0c2.037,22.277,4.573,40.085,4.579,55.08l0,0
	c0,11.135-1.412,20.772-5.622,29.386l0,0c-4.177,8.562-11.089,15.981-21.697,22.79l0,0c-3.005,3.248-5.54,8.512-8.994,13.295l0,0
	c-3.492,4.85-8.313,9.35-15.838,10.034l0,0L432.459,250.971L432.459,250.971z"/>
<path fill="#F4F4F4" d="M425.188,212.673c1.442-5.841,6.715-9.383,12.3-12.494l0,0c5.641-3.088,11.938-5.766,16.043-8.856l0,0
	c2.762-2.068,4.376-4.154,4.681-6.437l0,0c0.692-5.048,1.528-12.293,1.528-20.486l0,0c0.005-11.601-1.686-25.069-7.686-36.817l0,0
	c-2.718-5.329-5.39-8.73-7.795-10.737l0,0c-2.418-2.011-4.496-2.657-6.351-2.666l0,0c-3.271-0.038-6.377,2.296-8.353,4.83l0,0
	c-2.275,2.875-3.366,4.691-5.427,6.327l0,0c-2.072,1.604-4.639,2.598-9.547,4.097l0,0l-1.166-3.824
	c4.839-1.466,6.932-2.38,8.25-3.425l0,0c1.33-1.013,2.359-2.588,4.744-5.646l0,0c2.42-3.062,6.346-6.321,11.498-6.358l0,0
	c2.869-0.008,5.952,1.103,8.917,3.597l0,0c2.977,2.493,5.903,6.337,8.791,11.987l0,0c6.416,12.589,8.118,26.659,8.123,38.635l0,0
	c0,8.464-0.862,15.896-1.567,21.03l0,0c-0.396,2.881-1.971,5.268-4.021,7.227l0,0c-2.063,1.973-4.642,3.611-7.411,5.148l0,0
	c-5.53,3.055-11.883,5.743-16.249,8.934l0,0c-2.93,2.128-4.842,4.368-5.406,6.845l0,0L425.188,212.673L425.188,212.673z
	 M414.581,129.435c0.001,0,0.002,0,0.002-0.001l0,0v0.001H414.581L414.581,129.435z"/>
<path fill="#F4F4F4" d="M280.404,327.919c0.09-3.85,2.727-7.681,6.76-11.716l0,0c4.071-3.998,9.731-8.042,16.38-11.414l0,0
	c16.733-8.437,79.148-29.74,101.657-33.458l0,0c5.059-0.827,9.442-1.222,13.145-1.224l0,0c4.305,0.009,7.68,0.51,10.229,1.639l0,0
	c2.519,1.052,4.432,3.223,4.394,5.893l0,0c-0.033,2.466-1.343,4.767-3.499,7.179l0,0l-2.968-2.682
	c1.853-2.026,2.498-3.661,2.467-4.497l0,0c-0.04-0.803-0.302-1.397-2.026-2.242l0,0c-1.693-0.769-4.629-1.297-8.596-1.286l0,0
	c-3.417-0.003-7.604,0.368-12.499,1.169l0,0c-21.566,3.488-84.595,24.985-100.495,33.078l0,0
	c-6.311,3.193-11.675,7.052-15.384,10.697l0,0c-3.751,3.61-5.656,7.169-5.566,8.864l0,0c0.05,0.863,0.206,1.206,0.987,1.756l0,0
	v0.002l-2.142,3.378C281.416,331.95,280.356,329.918,280.404,327.919L280.404,327.919z"/>
</svg>
