<?xml version="1.0" encoding="utf-8"?>
<!-- Generator: Adobe Illustrator 13.0.0, SVG Export Plug-In . SVG Version: 6.00 Build 14948)  -->
<!DOCTYPE svg [
	<!ENTITY ns_flows "http://ns.adobe.com/Flows/1.0/">
	<!ENTITY ns_extend "http://ns.adobe.com/Extensibility/1.0/">
	<!ENTITY ns_ai "http://ns.adobe.com/AdobeIllustrator/10.0/">
	<!ENTITY ns_graphs "http://ns.adobe.com/Graphs/1.0/">
	<!ENTITY ns_vars "http://ns.adobe.com/Variables/1.0/">
	<!ENTITY ns_imrep "http://ns.adobe.com/ImageReplacement/1.0/">
	<!ENTITY ns_sfw "http://ns.adobe.com/SaveForWeb/1.0/">
	<!ENTITY ns_custom "http://ns.adobe.com/GenericCustomNamespace/1.0/">
	<!ENTITY ns_adobe_xpath "http://ns.adobe.com/XPath/1.0/">
]>
<svg version="1.2" baseProfile="tiny"
	 id="Layer_3" xmlns:x="&ns_extend;" xmlns:i="&ns_ai;" xmlns:graph="&ns_graphs;" xmlns:rdf="http://www.w3.org/1999/02/22-rdf-syntax-ns#" xmlns:dc="http://purl.org/dc/elements/1.1/" xmlns:cc="http://creativecommons.org/ns#"
	 xmlns="http://www.w3.org/2000/svg" xmlns:xlink="http://www.w3.org/1999/xlink" xmlns:a="http://ns.adobe.com/AdobeSVGViewerExtensions/3.0/"
	 x="0px" y="0px" width="598.189px" height="350.26px" viewBox="0 0 598.189 350.26" xml:space="preserve">
<metadata  id="metadata55">
	<rdf:RDF>
		<cc:Work  rdf:about="">
			<dc:format>image/svg+xml</dc:format>
			<dc:type  rdf:resource="http://purl.org/dc/dcmitype/StillImage"></dc:type>
			<dc:title></dc:title>
		</cc:Work>
	</rdf:RDF>
	<sfw  xmlns="&ns_sfw;">
		<slices></slices>
		<sliceSourceBounds  x="843.021" y="371.557" width="232.228" height="337.912" bottomLeftOrigin="true"></sliceSourceBounds>
	</sfw>
</metadata>
<path id="line3" fill="#F4F4F4" d="M243.026,35.035v1.544h109.522v-1.544H243.026z"/>
<path id="path5" fill="#F4F4F4" d="M184.994,91.859v206.096c0,22.536,18.268,40.828,40.804,40.828h143.837
	c22.533,0,40.827-18.292,40.827-40.828V91.983h-1.545v205.972c0,21.703-17.583,39.284-39.282,39.284H225.798
	c-21.703,0-39.261-17.581-39.261-39.28V91.863h-1.544L184.994,91.859z"/>
<path id="path7" fill="#F4F4F4" d="M221.309,128.537c-10.8,0-19.569,8.769-19.569,19.569v154.478
	c0,10.801,8.769,19.569,19.569,19.569H374.15c10.536,0,19.081-8.361,19.497-18.797h0.072v-0.772V148.106
	c0-10.8-8.771-19.569-19.57-19.569H221.309L221.309,128.537z M221.309,130.081H374.15c9.966,0,18.024,8.06,18.024,18.025v153.706
	v0.772c0,9.967-8.058,18.025-18.024,18.025H221.309c-9.965,0-18.025-8.059-18.025-18.025V148.106
	C203.283,138.141,211.344,130.081,221.309,130.081z"/>
<path id="circle9" fill="#F4F4F4" d="M225.29,31.367c-24.114,0-43.675,19.561-43.675,43.675c0,24.115,19.561,43.675,43.676,43.675
	c24.115,0,43.675-19.56,43.675-43.675C268.966,50.927,249.406,31.367,225.29,31.367L225.29,31.367z M225.29,32.912
	c23.279,0,42.13,18.851,42.13,42.13c0,23.28-18.851,42.131-42.13,42.131c-23.28,0-42.13-18.851-42.13-42.131
	C183.16,51.762,202.01,32.912,225.29,32.912z"/>
<path id="circle11" fill="#F4F4F4" d="M370.169,31.367c-24.114,0-43.675,19.561-43.675,43.675c0,24.115,19.561,43.675,43.675,43.675
	c24.112,0,43.674-19.56,43.674-43.675C413.843,50.927,394.281,31.367,370.169,31.367z M370.169,32.912
	c23.279,0,42.13,18.851,42.13,42.13c0,23.28-18.851,42.131-42.13,42.131c-23.28,0-42.131-18.851-42.131-42.131
	C328.038,51.762,346.889,32.912,370.169,32.912z"/>
<path id="path13" fill="#F4F4F4" d="M181.615,75.621v223.778c0,24.114,19.561,43.674,43.675,43.674h144.874
	c24.111,0,43.673-19.56,43.673-43.674V76.825h-1.543v222.574c0,23.28-18.854,42.131-42.13,42.131H225.29
	c-23.277,0-42.129-18.849-42.129-42.128V75.622h-1.544L181.615,75.621z"/>
<path id="circle15" fill="#F4F4F4" d="M297.727,181.669c-32.917,0-59.627,26.709-59.627,59.625s26.709,59.625,59.627,59.625
	c32.915,0,59.6-26.709,59.6-59.625S330.642,181.669,297.727,181.669z M297.727,183.213c32.08,0,58.055,25.999,58.055,58.081
	s-25.975,58.08-58.055,58.08c-32.084,0-58.083-25.998-58.083-58.08S265.643,183.213,297.727,183.213z"/>
<path id="circle17" fill="#F4F4F4" d="M297.727,198.54c-23.608,0-42.76,19.151-42.76,42.76c0,23.605,19.152,42.757,42.76,42.757
	c23.605,0,42.757-19.151,42.757-42.757C340.483,217.691,321.332,198.54,297.727,198.54z M297.727,200.084
	c22.771,0,41.213,18.443,41.213,41.216c0,22.771-18.442,41.213-41.213,41.213c-22.774,0-41.215-18.441-41.215-41.213
	C256.511,218.527,274.952,200.084,297.727,200.084z"/>
<g id="g19" transform="translate(-5.3936733e-6,0)">
	<path fill="#F4F4F4" d="M220.186,198.782c-3.588,0-6.495-2.908-6.495-6.494l0,0l-0.001-42.093c0.001-3.586,2.908-6.492,6.496-6.494
		l0,0h42.09c3.585,0.002,6.492,2.909,6.494,6.494l0,0c-0.019,3.645-2.441,5.818-2.475,5.861l0,0L226.8,195.551h0.28l-1.652,1.368
		c-1.083,0.938-2.217,1.866-5.018,1.866l0,0C220.336,198.785,220.26,198.783,220.186,198.782L220.186,198.782z M215.234,150.195
		v42.093c0.004,2.734,2.216,4.945,4.951,4.951l0,0c2.732-0.052,3.012-0.524,4.228-1.487l0,0l40.817-40.815
		c-0.003-0.002,0.1-0.089,0.288-0.305l0,0c0.188-0.216,0.442-0.541,0.696-0.956l0,0c0.509-0.834,1.013-2.025,1.011-3.481l0,0
		c-0.005-2.731-2.217-4.943-4.949-4.949l0,0h-42.09C217.451,145.252,215.239,147.462,215.234,150.195L215.234,150.195z
		 M225.48,196.87l-0.545-0.547L225.48,196.87L225.48,196.87z"/>
	<path fill="#F4F4F4" d="M370.031,196.919l0.493-0.596l0.545-0.547l-0.545,0.547L370.031,196.919L370,196.892l-40.811-40.812
		c-0.06-0.065-2.482-2.239-2.501-5.882l0,0c0-3.587,2.906-6.494,6.495-6.496l0,0h42.093c3.584,0.002,6.49,2.907,6.49,6.496l0,0
		l0.002,42.093c-0.002,3.585-2.908,6.492-6.492,6.492l0,0c-0.078,0.001-0.15,0.003-0.222,0.003l0,0
		C372.251,198.785,371.112,197.858,370.031,196.919L370.031,196.919z M375.276,197.237c2.73-0.004,4.941-2.215,4.948-4.947l0,0
		l-0.003-42.093c-0.004-2.735-2.213-4.946-4.945-4.951l0,0h-42.093c-2.736,0.005-4.945,2.216-4.949,4.951l0,0
		c-0.008,2.174,1.138,3.783,1.706,4.434l0,0c0.187,0.216,0.286,0.306,0.315,0.331l0,0l40.789,40.791
		C372.261,196.715,372.54,197.188,375.276,197.237L375.276,197.237z"/>
</g>
<path id="circle25" fill="#F4F4F4" d="M225.29,42.998c-17.683,0-32.021,14.361-32.021,32.044c0,17.684,14.337,32.044,32.021,32.044
	c17.684,0,32.044-14.36,32.044-32.044C257.334,57.358,242.974,42.998,225.29,42.998z M225.29,44.542c16.848,0,30.5,13.652,30.5,30.5
	c0,16.848-13.652,30.5-30.5,30.5c-16.849,0-30.475-13.652-30.475-30.5C194.815,58.194,208.44,44.542,225.29,44.542z"/>
<path id="circle27" fill="#F4F4F4" d="M370.169,42.998c-17.684,0-32.046,14.361-32.046,32.044c0,17.684,14.362,32.044,32.046,32.044
	s32.021-14.36,32.021-32.044C402.19,57.358,387.854,42.998,370.169,42.998z M370.169,44.542c16.849,0,30.475,13.652,30.475,30.5
	c0,16.848-13.626,30.5-30.475,30.5c-16.85,0-30.5-13.652-30.5-30.5C339.669,58.194,353.319,44.542,370.169,44.542z"/>
<path id="line29" fill="#F4F4F4" d="M226.618,31.392v1.544h139.351v-1.544H226.618z"/>
<path id="rect31" fill="#F4F4F4" d="M289.332,5.162v0.772v5.454v0.771h0.772h15.395h0.772v-0.771V5.934V5.162h-0.772h-15.395
	H289.332z M290.875,6.706h13.851v3.909h-13.851V6.706z"/>
<path id="rect33" fill="#F4F4F4" d="M288.922,15.345v0.772v5.454v0.771h0.772h16.215h0.772v-0.771v-5.454v-0.772h-0.772h-16.215
	H288.922z M290.467,16.889h14.671v3.91h-14.671V16.889z"/>
<path id="polyline35" fill="#F4F4F4" d="M288.513,25.527V26.3v5.453h1.545v-4.681h15.467v4.681h1.545V26.3v-0.772h-0.772h-17.012
	H288.513z"/>
<g id="g37" transform="translate(-5.3936733e-6,0)">
	<polygon fill="#F4F4F4" points="291.881,16.031 291.881,11.4 293.425,11.4 293.425,16.031 291.881,16.031 	"/>
	<polygon fill="#F4F4F4" points="302.164,15.895 302.164,11.4 303.71,11.4 303.71,15.895 302.164,15.895 	"/>
</g>
<g id="g43" transform="translate(-5.3936733e-6,0)">
	<polygon fill="#F4F4F4" points="291.881,26.35 291.881,21.719 293.425,21.719 293.425,26.35 291.881,26.35 	"/>
	<polygon fill="#F4F4F4" points="302.164,26.215 302.164,21.718 303.71,21.718 303.71,26.215 302.164,26.215 	"/>
</g>
</svg>
