<?xml version="1.0" encoding="utf-8"?>
<!-- Generator: Adobe Illustrator 13.0.0, SVG Export Plug-In . SVG Version: 6.00 Build 14948)  -->
<!DOCTYPE svg [
	<!ENTITY ns_flows "http://ns.adobe.com/Flows/1.0/">
	<!ENTITY ns_extend "http://ns.adobe.com/Extensibility/1.0/">
	<!ENTITY ns_ai "http://ns.adobe.com/AdobeIllustrator/10.0/">
	<!ENTITY ns_graphs "http://ns.adobe.com/Graphs/1.0/">
	<!ENTITY ns_vars "http://ns.adobe.com/Variables/1.0/">
	<!ENTITY ns_imrep "http://ns.adobe.com/ImageReplacement/1.0/">
	<!ENTITY ns_sfw "http://ns.adobe.com/SaveForWeb/1.0/">
	<!ENTITY ns_custom "http://ns.adobe.com/GenericCustomNamespace/1.0/">
	<!ENTITY ns_adobe_xpath "http://ns.adobe.com/XPath/1.0/">
]>
<svg version="1.2" baseProfile="tiny"
	 id="Layer_3" xmlns:x="&ns_extend;" xmlns:i="&ns_ai;" xmlns:graph="&ns_graphs;" xmlns:rdf="http://www.w3.org/1999/02/22-rdf-syntax-ns#" xmlns:dc="http://purl.org/dc/elements/1.1/" xmlns:cc="http://creativecommons.org/ns#"
	 xmlns="http://www.w3.org/2000/svg" xmlns:xlink="http://www.w3.org/1999/xlink" xmlns:a="http://ns.adobe.com/AdobeSVGViewerExtensions/3.0/"
	 x="0px" y="0px" width="598.189px" height="350.26px" viewBox="0 0 598.189 350.26" xml:space="preserve">
<metadata  id="metadata55">
	<rdf:RDF>
		<cc:Work  rdf:about="">
			<dc:format>image/svg+xml</dc:format>
			<dc:type  rdf:resource="http://purl.org/dc/dcmitype/StillImage"></dc:type>
			<dc:title></dc:title>
		</cc:Work>
	</rdf:RDF>
	<sfw  xmlns="&ns_sfw;">
		<slices></slices>
		<sliceSourceBounds  height="216.15" width="552.342" y="429.087" x="686.621" bottomLeftOrigin="true"></sliceSourceBounds>
	</sfw>
</metadata>
<path id="path3" fill="#F4F4F4" d="M44.422,69.395c-9.927,0-19.207,9.291-19.207,19.207v177.707
	c0,11.615,9.539,19.236,19.207,19.235h513.928c5.957,0,10.788-1.469,14.13-4.671s5.077-8.073,5.077-14.564V88.601
	c0-9.591-7.604-19.208-19.208-19.208H44.42L44.422,69.395z M44.422,71.251h513.928c10.586,0,17.351,8.739,17.351,17.35v177.707
	c0,6.165-1.599,10.452-4.497,13.229s-7.195,4.149-12.854,4.149H44.422c-8.711-0.01-17.361-6.787-17.361-17.389V88.6
	c0-8.726,8.613-17.35,17.35-17.35L44.422,71.251z"/>
<path id="path5" fill="#F4F4F4" d="M62.729,102.556c-1.368,0-2.612,0.754-3.598,1.741c-0.986,0.985-1.77,2.229-1.77,3.598V243.47
	c0,1.368,0.785,2.641,1.77,3.627c0.986,0.985,2.229,1.74,3.598,1.74h480.396c1.368,0,2.611-0.755,3.597-1.74
	c0.986-0.986,1.741-2.259,1.741-3.627V107.895c0-1.369-0.755-2.612-1.741-3.598c-0.985-0.985-2.229-1.741-3.597-1.741H62.729z
	 M62.729,104.413h480.396c0.586,0,1.554,0.451,2.292,1.189c0.737,0.738,1.188,1.705,1.188,2.292V243.47
	c0,0.586-0.451,1.554-1.188,2.292c-0.738,0.738-1.706,1.219-2.292,1.219H62.729c-0.586,0-1.555-0.48-2.292-1.219
	c-0.741-0.742-1.222-1.708-1.222-2.293V107.894c0-0.586,0.481-1.555,1.218-2.292c0.738-0.738,1.706-1.189,2.292-1.189
	L62.729,104.413z"/>
<path id="path7" fill="#F4F4F4" d="M135.083,105.806c-1.088,0-2.053,0.167-2.728,0.841c-0.674,0.674-0.841,1.639-0.841,2.727v21.324
	c0,1.088,0.167,2.053,0.841,2.728c0.674,0.675,1.639,0.87,2.728,0.87h21.324c1.088,0,2.053-0.195,2.728-0.87s0.87-1.64,0.87-2.728
	v-21.324c0-1.089-0.196-2.053-0.87-2.727c-0.674-0.675-1.64-0.841-2.728-0.841H135.083z M135.083,107.662h21.324
	c0.867,0,1.258,0.155,1.422,0.319s0.319,0.526,0.319,1.393v21.324c0,0.867-0.154,1.258-0.319,1.422
	c-0.164,0.164-0.556,0.319-1.422,0.319h-21.324c-0.867,0-1.229-0.155-1.393-0.319c-0.158-0.164-0.315-0.555-0.315-1.423v-21.324
	c0-0.867,0.155-1.229,0.319-1.393c0.164-0.164,0.525-0.319,1.393-0.319L135.083,107.662z"/>
<path id="path9" fill="#F4F4F4" d="M162.796,105.806c-1.088,0-2.024,0.167-2.698,0.841c-0.674,0.674-0.87,1.638-0.87,2.727v21.324
	c0,1.088,0.196,2.053,0.87,2.728s1.61,0.87,2.698,0.87h21.353c1.088,0,2.024-0.195,2.698-0.87c0.675-0.675,0.871-1.64,0.871-2.728
	v-21.324c0-1.089-0.196-2.053-0.871-2.727c-0.674-0.675-1.61-0.841-2.698-0.841H162.796z M162.796,107.662h21.353
	c0.867,0,1.229,0.155,1.393,0.319c0.165,0.164,0.319,0.526,0.319,1.393v21.324c0,0.867-0.155,1.258-0.319,1.422
	c-0.164,0.164-0.526,0.319-1.393,0.319h-21.353c-0.866,0-1.229-0.155-1.393-0.319c-0.165-0.164-0.319-0.556-0.319-1.422v-21.324
	c0-0.867,0.155-1.229,0.319-1.393S161.929,107.662,162.796,107.662z"/>
<path id="path11" fill="#F4F4F4" d="M190.527,105.806c-1.088,0-2.053,0.167-2.727,0.841c-0.675,0.674-0.871,1.638-0.871,2.727
	v21.324c0,1.088,0.196,2.053,0.871,2.728c0.674,0.675,1.639,0.87,2.727,0.87h21.324c1.089,0,2.053-0.195,2.728-0.87
	c0.674-0.675,0.841-1.64,0.841-2.728v-21.324c0-1.088-0.167-2.053-0.841-2.727c-0.674-0.675-1.639-0.841-2.728-0.841H190.527z
	 M190.527,107.662h21.324c0.868,0,1.229,0.155,1.393,0.319c0.164,0.164,0.319,0.526,0.319,1.393v21.324
	c0,0.867-0.155,1.258-0.319,1.422c-0.165,0.164-0.526,0.319-1.393,0.319h-21.324c-0.866,0-1.257-0.155-1.422-0.319
	c-0.164-0.164-0.319-0.556-0.319-1.422v-21.324c0-0.867,0.155-1.229,0.319-1.393C189.27,107.817,189.661,107.662,190.527,107.662z"
	/>
<path id="path13" fill="#F4F4F4" d="M218.241,105.806c-1.088,0-2.053,0.167-2.728,0.841c-0.674,0.674-0.87,1.638-0.87,2.727v21.324
	c0,1.088,0.196,2.053,0.87,2.728s1.639,0.87,2.728,0.87h21.324c1.088,0,2.053-0.195,2.727-0.87s0.871-1.64,0.871-2.728v-21.324
	c0-1.089-0.196-2.053-0.871-2.727c-0.674-0.675-1.639-0.841-2.727-0.841H218.241z M218.241,107.662h21.324
	c0.866,0,1.257,0.155,1.422,0.319c0.164,0.164,0.319,0.526,0.319,1.393v21.324c0,0.867-0.155,1.258-0.319,1.422
	c-0.165,0.164-0.556,0.319-1.422,0.319h-21.324c-0.867,0-1.258-0.155-1.422-0.319c-0.165-0.164-0.319-0.556-0.319-1.422v-21.324
	c0-0.867,0.155-1.229,0.319-1.393S217.374,107.662,218.241,107.662z"/>
<path id="path15" fill="#F4F4F4" d="M245.944,105.806c-1.088,0-2.053,0.167-2.728,0.841c-0.674,0.674-0.87,1.639-0.87,2.727v21.324
	c0,1.088,0.196,2.053,0.87,2.728s1.639,0.87,2.728,0.87h21.324c1.088,0,2.053-0.195,2.728-0.87c0.674-0.675,0.87-1.64,0.87-2.728
	v-21.324c0-1.088-0.196-2.053-0.87-2.727c-0.675-0.675-1.64-0.841-2.728-0.841H245.944z M245.944,107.662h21.324
	c0.867,0,1.258,0.155,1.422,0.319c0.164,0.164,0.319,0.526,0.319,1.393v21.324c0,0.867-0.155,1.258-0.319,1.422
	s-0.555,0.319-1.422,0.319h-21.324c-0.867,0-1.229-0.155-1.393-0.319s-0.348-0.555-0.348-1.422v-21.324
	c0-0.867,0.184-1.229,0.348-1.393C244.715,107.817,245.077,107.662,245.944,107.662z"/>
<path id="path17" fill="#F4F4F4" d="M273.647,105.806c-1.088,0-2.023,0.167-2.698,0.841c-0.674,0.674-0.87,1.638-0.87,2.727v21.324
	c0,1.088,0.196,2.053,0.87,2.728c0.675,0.675,1.61,0.87,2.698,0.87h21.354c1.088,0,2.024-0.195,2.698-0.87s0.871-1.64,0.871-2.728
	v-21.324c0-1.089-0.196-2.053-0.871-2.727c-0.674-0.675-1.61-0.841-2.698-0.841H273.647z M273.647,107.662h21.354
	c0.867,0,1.228,0.155,1.393,0.319c0.164,0.164,0.319,0.526,0.319,1.393v21.324c0,0.867-0.155,1.258-0.319,1.422
	c-0.165,0.164-0.526,0.319-1.393,0.319h-21.354c-0.866,0-1.229-0.155-1.393-0.319c-0.158-0.164-0.315-0.556-0.315-1.423v-21.324
	c0-0.867,0.155-1.229,0.319-1.393s0.526-0.319,1.393-0.319L273.647,107.662z"/>
<path id="path19" fill="#F4F4F4" d="M301.36,105.806c-1.088,0-2.023,0.167-2.698,0.841c-0.674,0.674-0.87,1.639-0.87,2.727v21.324
	c0,1.088,0.196,2.053,0.87,2.728c0.675,0.675,1.61,0.87,2.698,0.87h21.354c1.088,0,2.023-0.195,2.698-0.87
	c0.674-0.675,0.87-1.64,0.87-2.728v-21.324c0-1.089-0.195-2.053-0.87-2.727c-0.675-0.675-1.61-0.841-2.698-0.841H301.36z
	 M301.36,107.662h21.354c0.867,0,1.229,0.155,1.393,0.319s0.319,0.526,0.319,1.393v21.324c0,0.867-0.155,1.258-0.319,1.422
	s-0.526,0.319-1.393,0.319H301.36c-0.866,0-1.229-0.155-1.393-0.319s-0.319-0.555-0.319-1.422v-21.324
	c0-0.867,0.155-1.229,0.319-1.393S300.494,107.662,301.36,107.662z"/>
<path id="path21" fill="#F4F4F4" d="M329.093,105.806c-1.088,0-2.053,0.167-2.728,0.841c-0.675,0.674-0.87,1.638-0.87,2.727v21.324
	c0,1.088,0.195,2.053,0.87,2.728c0.674,0.675,1.64,0.87,2.728,0.87h21.324c1.088,0,2.053-0.195,2.727-0.87
	c0.675-0.675,0.871-1.64,0.871-2.728v-21.324c0-1.089-0.196-2.053-0.871-2.727c-0.674-0.675-1.639-0.841-2.727-0.841H329.093z
	 M329.093,107.662h21.324c0.866,0,1.229,0.155,1.393,0.319s0.348,0.526,0.348,1.393v21.324c0,0.867-0.184,1.258-0.348,1.422
	s-0.527,0.319-1.393,0.319h-21.324c-0.867,0-1.258-0.155-1.422-0.319s-0.319-0.556-0.319-1.422v-21.324
	c0-0.867,0.155-1.229,0.319-1.393S328.226,107.662,329.093,107.662z"/>
<path id="path23" fill="#F4F4F4" d="M356.805,105.806c-1.088,0-2.052,0.167-2.727,0.841c-0.675,0.674-0.87,1.638-0.87,2.727v21.324
	c0,1.088,0.195,2.053,0.87,2.728s1.639,0.87,2.727,0.87h21.325c1.088,0,2.053-0.195,2.727-0.87c0.668-0.674,0.863-1.639,0.863-2.727
	v-21.325c0-1.088-0.195-2.053-0.87-2.727c-0.674-0.674-1.64-0.841-2.728-0.841h-21.324H356.805z M356.805,107.662h21.325
	c0.866,0,1.257,0.155,1.421,0.319c0.165,0.164,0.319,0.526,0.319,1.393v21.324c0,0.867-0.154,1.258-0.319,1.422
	c-0.164,0.164-0.555,0.319-1.421,0.319h-21.325c-0.866,0-1.257-0.155-1.421-0.319s-0.319-0.556-0.319-1.422v-21.324
	c0-0.867,0.155-1.229,0.319-1.393S355.938,107.662,356.805,107.662z"/>
<path id="path25" fill="#F4F4F4" d="M384.509,105.806c-1.088,0-2.053,0.167-2.728,0.841c-0.675,0.674-0.841,1.638-0.841,2.727
	v21.324c0,1.088,0.166,2.053,0.841,2.728s1.64,0.87,2.728,0.87h21.324c1.088,0,2.053-0.195,2.728-0.87s0.87-1.64,0.87-2.728v-21.324
	c0-1.089-0.195-2.053-0.87-2.727c-0.675-0.675-1.64-0.841-2.728-0.841H384.509z M384.509,107.662h21.324
	c0.867,0,1.258,0.155,1.422,0.319s0.319,0.526,0.319,1.393v21.324c0,0.867-0.155,1.258-0.319,1.422s-0.555,0.319-1.422,0.319
	h-21.324c-0.867,0-1.229-0.155-1.393-0.319s-0.319-0.556-0.319-1.422v-21.324c0-0.867,0.155-1.229,0.319-1.393
	S383.642,107.662,384.509,107.662z"/>
<path id="path27" fill="#F4F4F4" d="M412.212,105.806c-1.087,0-2.023,0.167-2.697,0.841c-0.669,0.673-0.863,1.638-0.863,2.726
	v21.325c0,1.088,0.195,2.053,0.87,2.727c0.675,0.675,1.61,0.87,2.698,0.87h21.354c1.087,0,2.023-0.195,2.698-0.87
	c0.674-0.674,0.87-1.639,0.87-2.727v-21.325c0-1.088-0.196-2.053-0.87-2.727c-0.675-0.674-1.611-0.841-2.698-0.841H412.22
	L412.212,105.806z M412.212,107.662h21.354c0.866,0,1.229,0.155,1.393,0.319s0.319,0.526,0.319,1.393v21.324
	c0,0.867-0.155,1.258-0.319,1.422s-0.526,0.319-1.393,0.319h-21.354c-0.865,0-1.227-0.155-1.393-0.319
	c-0.157-0.165-0.315-0.556-0.315-1.423v-21.324c0-0.867,0.155-1.229,0.319-1.393s0.527-0.319,1.393-0.319L412.212,107.662z"/>
<path id="path29" fill="#F4F4F4" d="M439.953,105.806c-1.088,0-2.053,0.167-2.728,0.841c-0.674,0.674-0.87,1.638-0.87,2.727v21.324
	c0,1.088,0.196,2.053,0.87,2.728c0.675,0.675,1.64,0.87,2.728,0.87h21.324c1.089,0,2.053-0.195,2.728-0.87s0.842-1.64,0.842-2.728
	v-21.324c0-1.089-0.167-2.053-0.842-2.727c-0.675-0.675-1.639-0.841-2.728-0.841H439.953z M439.953,107.662h21.324
	c0.867,0,1.229,0.155,1.393,0.319c0.165,0.164,0.319,0.526,0.319,1.393v21.324c0,0.867-0.154,1.258-0.319,1.422
	c-0.164,0.164-0.525,0.319-1.393,0.319h-21.324c-0.866,0-1.258-0.155-1.422-0.319s-0.318-0.556-0.318-1.422v-21.324
	c0-0.867,0.154-1.229,0.318-1.393S439.087,107.662,439.953,107.662z"/>
<path id="path31" fill="#F4F4F4" d="M121.129,133.31c-1.088,0-2.053,0.196-2.727,0.87s-0.871,1.64-0.871,2.728v21.324
	c0,1.088,0.196,2.053,0.871,2.728c0.674,0.674,1.639,0.87,2.727,0.87h21.325c1.088,0,2.053-0.196,2.727-0.87
	c0.675-0.675,0.871-1.64,0.871-2.728v-21.324c0-1.088-0.196-2.054-0.871-2.728c-0.674-0.674-1.639-0.87-2.727-0.87H121.129
	L121.129,133.31z M121.129,135.167h21.325c0.866,0,1.257,0.184,1.421,0.348s0.319,0.526,0.319,1.393v21.324
	c0,0.867-0.155,1.258-0.319,1.422s-0.555,0.319-1.421,0.319h-21.325c-0.867,0-1.229-0.155-1.393-0.319s-0.348-0.555-0.348-1.422
	v-21.324c0-0.866,0.184-1.229,0.348-1.393C119.9,135.351,120.263,135.167,121.129,135.167z"/>
<path id="path33" fill="#F4F4F4" d="M148.842,133.31c-1.088,0-2.053,0.196-2.727,0.87s-0.841,1.64-0.841,2.728v21.324
	c0,1.088,0.167,2.053,0.841,2.728c0.674,0.674,1.64,0.87,2.727,0.87h21.325c1.088,0,2.053-0.196,2.727-0.87
	c0.668-0.676,0.863-1.64,0.863-2.729v-21.324c0-1.088-0.196-2.053-0.87-2.728c-0.674-0.673-1.639-0.87-2.728-0.87h-21.324
	L148.842,133.31z M148.842,135.167h21.325c0.867,0,1.257,0.184,1.421,0.348c0.165,0.164,0.319,0.526,0.319,1.393v21.324
	c0,0.867-0.155,1.258-0.319,1.422c-0.164,0.164-0.555,0.319-1.421,0.319h-21.325c-0.866,0-1.229-0.155-1.393-0.319
	s-0.319-0.555-0.319-1.422v-21.324c0-0.866,0.155-1.229,0.319-1.393C147.614,135.351,147.976,135.167,148.842,135.167z"/>
<path id="path35" fill="#F4F4F4" d="M176.545,133.31c-1.088,0-2.023,0.196-2.698,0.87c-0.674,0.675-0.87,1.64-0.87,2.728v21.324
	c0,1.088,0.196,2.053,0.87,2.728c0.675,0.675,1.61,0.87,2.698,0.87h21.354c1.088,0,2.023-0.196,2.698-0.87
	c0.674-0.675,0.87-1.64,0.87-2.728v-21.324c0-1.088-0.196-2.054-0.87-2.728c-0.674-0.674-1.61-0.87-2.698-0.87H176.545z
	 M176.545,135.167h21.354c0.866,0,1.229,0.184,1.393,0.348s0.319,0.526,0.319,1.393v21.324c0,0.867-0.155,1.258-0.319,1.422
	s-0.526,0.319-1.393,0.319h-21.354c-0.867,0-1.229-0.155-1.393-0.319c-0.164-0.164-0.319-0.555-0.319-1.422v-21.324
	c0-0.866,0.155-1.229,0.319-1.393S175.679,135.167,176.545,135.167z"/>
<path id="path37" fill="#F4F4F4" d="M204.286,133.31c-1.088,0-2.053,0.196-2.727,0.87c-0.678,0.674-0.873,1.639-0.873,2.727v21.324
	c0,1.089,0.196,2.054,0.87,2.728c0.675,0.675,1.64,0.87,2.728,0.87h21.324c1.088,0,2.053-0.195,2.728-0.87
	c0.674-0.674,0.841-1.639,0.841-2.728v-21.324c0-1.088-0.167-2.053-0.841-2.728c-0.674-0.673-1.639-0.87-2.728-0.87h-21.324
	L204.286,133.31z M204.286,135.167h21.325c0.867,0,1.229,0.184,1.393,0.348c0.165,0.164,0.319,0.526,0.319,1.393v21.324
	c0,0.867-0.154,1.258-0.319,1.422c-0.164,0.164-0.526,0.319-1.393,0.319h-21.325c-0.866,0-1.257-0.155-1.421-0.319
	c-0.167-0.164-0.325-0.556-0.325-1.422v-21.324c0-0.866,0.155-1.229,0.319-1.393c0.164-0.164,0.555-0.348,1.421-0.348H204.286z"/>
<path id="path39" fill="#F4F4F4" d="M231.99,133.31c-1.088,0-2.052,0.196-2.727,0.87c-0.674,0.675-0.87,1.64-0.87,2.728v21.324
	c0,1.088,0.196,2.053,0.87,2.728c0.675,0.675,1.639,0.87,2.727,0.87h21.325c1.088,0,2.053-0.195,2.727-0.87
	c0.675-0.675,0.871-1.64,0.871-2.728v-21.324c0-1.088-0.196-2.053-0.871-2.728c-0.674-0.674-1.639-0.87-2.727-0.87H231.99z
	 M231.99,135.167h21.325c0.867,0,1.257,0.184,1.421,0.348c0.165,0.164,0.319,0.526,0.319,1.393v21.324
	c0,0.867-0.155,1.258-0.319,1.422c-0.164,0.164-0.554,0.319-1.421,0.319H231.99c-0.867,0-1.257-0.155-1.421-0.319
	c-0.164-0.164-0.319-0.555-0.319-1.422v-21.324c0-0.866,0.155-1.229,0.319-1.393S231.123,135.167,231.99,135.167z"/>
<path id="path41" fill="#F4F4F4" d="M259.693,133.31c-1.088,0-2.052,0.196-2.727,0.87c-0.674,0.674-0.87,1.64-0.87,2.728v21.324
	c0,1.088,0.196,2.053,0.87,2.728c0.675,0.674,1.64,0.87,2.727,0.87h21.325c1.088,0,2.053-0.196,2.727-0.87
	c0.675-0.675,0.87-1.64,0.87-2.728v-21.324c0-1.088-0.195-2.054-0.87-2.728c-0.674-0.674-1.639-0.87-2.727-0.87H259.693z
	 M259.693,135.167h21.325c0.866,0,1.257,0.184,1.421,0.348c0.165,0.164,0.319,0.526,0.319,1.393v21.324
	c0,0.867-0.155,1.258-0.319,1.422s-0.555,0.319-1.421,0.319h-21.325c-0.866,0-1.229-0.155-1.393-0.319s-0.348-0.555-0.348-1.422
	v-21.324c0-0.866,0.184-1.229,0.348-1.393C258.465,135.351,258.827,135.167,259.693,135.167z"/>
<path id="path43" fill="#F4F4F4" d="M287.407,133.31c-1.089,0-2.024,0.196-2.698,0.87c-0.675,0.675-0.871,1.64-0.871,2.728v21.324
	c0,1.088,0.196,2.053,0.871,2.728c0.674,0.674,1.609,0.87,2.698,0.87h21.353c1.088,0,2.023-0.196,2.698-0.87
	c0.675-0.675,0.87-1.64,0.87-2.728v-21.324c0-1.088-0.195-2.054-0.87-2.728s-1.61-0.87-2.698-0.87H287.407z M287.407,135.167h21.353
	c0.867,0,1.229,0.184,1.393,0.348c0.165,0.164,0.319,0.526,0.319,1.393v21.324c0,0.867-0.155,1.258-0.319,1.422
	s-0.525,0.319-1.393,0.319h-21.353c-0.867,0-1.229-0.155-1.393-0.319c-0.165-0.164-0.319-0.555-0.319-1.422v-21.324
	c0-0.866,0.154-1.229,0.319-1.393C286.179,135.351,286.54,135.167,287.407,135.167z"/>
<path id="path45" fill="#F4F4F4" d="M315.11,133.31c-1.088,0-2.024,0.196-2.698,0.87s-0.871,1.64-0.871,2.728v21.324
	c0,1.088,0.197,2.053,0.871,2.728c0.674,0.674,1.61,0.87,2.698,0.87h21.354c1.088,0,2.023-0.196,2.697-0.87
	c0.675-0.675,0.871-1.64,0.871-2.728v-21.324c0-1.088-0.196-2.054-0.871-2.728c-0.674-0.674-1.609-0.87-2.697-0.87H315.11z
	 M315.11,135.167h21.354c0.866,0,1.229,0.184,1.393,0.348c0.165,0.164,0.318,0.526,0.318,1.393v21.324
	c0,0.867-0.154,1.258-0.318,1.422s-0.526,0.319-1.393,0.319H315.11c-0.866,0-1.229-0.155-1.393-0.319s-0.319-0.555-0.319-1.422
	v-21.324c0-0.866,0.155-1.229,0.319-1.393C313.883,135.351,314.244,135.167,315.11,135.167z"/>
<path id="path47" fill="#F4F4F4" d="M342.842,133.31c-1.088,0-2.053,0.196-2.728,0.87c-0.674,0.674-0.87,1.64-0.87,2.728v21.324
	c0,1.088,0.196,2.053,0.87,2.728c0.675,0.674,1.64,0.87,2.728,0.87h21.324c1.088,0,2.053-0.196,2.728-0.87
	c0.675-0.675,0.841-1.64,0.841-2.728v-21.324c0-1.088-0.166-2.054-0.841-2.728c-0.674-0.674-1.64-0.87-2.728-0.87H342.842z
	 M342.842,135.167h21.324c0.867,0,1.229,0.184,1.393,0.348s0.319,0.526,0.319,1.393v21.324c0,0.867-0.155,1.258-0.319,1.422
	s-0.525,0.319-1.393,0.319h-21.324c-0.866,0-1.258-0.155-1.422-0.319c-0.157-0.164-0.315-0.556-0.315-1.422v-21.324
	c0-0.866,0.155-1.229,0.319-1.393s0.556-0.348,1.422-0.348H342.842z"/>
<path id="path49" fill="#F4F4F4" d="M370.555,133.31c-1.088,0-2.053,0.196-2.728,0.87c-0.674,0.674-0.87,1.64-0.87,2.728v21.324
	c0,1.088,0.196,2.053,0.87,2.728c0.675,0.674,1.641,0.87,2.728,0.87h21.325c1.087,0,2.053-0.196,2.728-0.87
	c0.673-0.675,0.87-1.64,0.87-2.728v-21.324c0-1.088-0.197-2.054-0.87-2.728c-0.675-0.674-1.64-0.87-2.728-0.87H370.555z
	 M370.555,135.167h21.325c0.866,0,1.257,0.184,1.421,0.348c0.165,0.164,0.319,0.526,0.319,1.393v21.324
	c0,0.867-0.155,1.258-0.319,1.422s-0.555,0.319-1.421,0.319h-21.325c-0.866,0-1.229-0.155-1.393-0.319s-0.349-0.555-0.349-1.422
	v-21.324c0-0.866,0.185-1.229,0.349-1.393C369.327,135.351,369.688,135.167,370.555,135.167z"/>
<path id="path51" fill="#F4F4F4" d="M398.258,133.31c-1.088,0-2.053,0.196-2.727,0.87s-0.842,1.64-0.842,2.728v21.324
	c0,1.088,0.168,2.053,0.842,2.728c0.674,0.674,1.64,0.87,2.727,0.87h21.325c1.088,0,2.053-0.196,2.728-0.87
	c0.674-0.675,0.87-1.64,0.87-2.728v-21.324c0-1.088-0.196-2.054-0.87-2.728c-0.675-0.674-1.639-0.87-2.728-0.87H398.258z
	 M398.258,135.167h21.325c0.866,0,1.257,0.184,1.422,0.348c0.164,0.164,0.319,0.526,0.319,1.393v21.324
	c0,0.867-0.156,1.258-0.319,1.422c-0.165,0.164-0.556,0.319-1.422,0.319h-21.325c-0.865,0-1.229-0.155-1.393-0.319
	s-0.319-0.555-0.319-1.422v-21.324c0-0.866,0.155-1.229,0.319-1.393C397.03,135.351,397.393,135.167,398.258,135.167z"/>
<path id="path53" fill="#F4F4F4" d="M425.972,133.31c-1.088,0-2.024,0.196-2.698,0.87c-0.675,0.674-0.87,1.64-0.87,2.728v21.324
	c0,1.088,0.195,2.053,0.87,2.728c0.675,0.674,1.61,0.87,2.698,0.87h21.354c1.087,0,2.023-0.196,2.697-0.87
	c0.675-0.675,0.87-1.64,0.87-2.728v-21.324c0-1.088-0.195-2.054-0.87-2.728c-0.674-0.674-1.61-0.87-2.697-0.87H425.972z
	 M425.972,135.167h21.354c0.866,0,1.228,0.184,1.393,0.348c0.164,0.164,0.319,0.526,0.319,1.393v21.324
	c0,0.867-0.155,1.258-0.319,1.422c-0.165,0.164-0.526,0.319-1.393,0.319h-21.354c-0.867,0-1.229-0.155-1.393-0.319
	s-0.319-0.555-0.319-1.422v-21.324c0-0.866,0.154-1.229,0.319-1.393C424.743,135.351,425.104,135.167,425.972,135.167z"/>
<path id="path55" fill="#F4F4F4" d="M453.619,133.31c-1.087,0-2.053,0.196-2.728,0.87c-0.674,0.674-0.87,1.64-0.87,2.728v21.324
	c0,1.089,0.196,2.053,0.87,2.728c0.675,0.674,1.641,0.87,2.728,0.87h35.192c1.088,0,2.023-0.196,2.698-0.87
	c0.675-0.675,0.87-1.64,0.87-2.728v-21.324c0-1.088-0.196-2.054-0.87-2.728c-0.675-0.674-1.61-0.87-2.698-0.87H453.619z
	 M453.619,135.167h35.192c0.866,0,1.228,0.184,1.393,0.348c0.164,0.164,0.319,0.526,0.319,1.393v21.324
	c0,0.867-0.155,1.258-0.319,1.422s-0.526,0.319-1.393,0.319h-35.192c-0.866,0-1.257-0.155-1.422-0.319
	c-0.164-0.164-0.319-0.555-0.319-1.422v-21.324c0-0.866,0.155-1.229,0.319-1.393C452.362,135.35,452.753,135.167,453.619,135.167z"
	/>
<path id="path57" fill="#F4F4F4" d="M467.657,105.806c-1.088,0-2.053,0.167-2.728,0.841c-0.675,0.674-0.87,1.638-0.87,2.727v21.324
	c0,1.088,0.195,2.053,0.87,2.728s1.64,0.87,2.728,0.87h21.324c1.088,0,2.053-0.195,2.728-0.87c0.674-0.675,0.87-1.64,0.87-2.728
	v-21.324c0-1.089-0.196-2.053-0.87-2.727c-0.675-0.675-1.64-0.841-2.728-0.841H467.657z M467.657,107.662h21.324
	c0.867,0,1.229,0.155,1.393,0.319s0.348,0.526,0.348,1.393v21.324c0,0.867-0.184,1.258-0.348,1.422s-0.525,0.319-1.393,0.319
	h-21.324c-0.866,0-1.258-0.155-1.422-0.319s-0.319-0.556-0.319-1.422v-21.324c0-0.867,0.155-1.229,0.319-1.393
	S466.79,107.662,467.657,107.662z"/>
<path id="path59" fill="#F4F4F4" d="M127.136,161.249c-1.088,0-2.053,0.196-2.728,0.87c-0.674,0.675-0.87,1.61-0.87,2.698v21.354
	c0,1.088,0.196,2.023,0.87,2.698c0.675,0.674,1.64,0.87,2.728,0.87h21.325c1.088,0,2.053-0.196,2.727-0.87
	c0.674-0.675,0.841-1.611,0.841-2.698v-21.354c0-1.088-0.167-2.024-0.841-2.698s-1.639-0.87-2.727-0.87H127.136z M127.136,163.106
	h21.325c0.866,0,1.228,0.154,1.392,0.318c0.165,0.164,0.319,0.526,0.319,1.393v21.354c0,0.866-0.155,1.229-0.319,1.393
	c-0.164,0.164-0.525,0.319-1.392,0.319h-21.325c-0.866,0-1.257-0.155-1.422-0.319c-0.164-0.165-0.319-0.526-0.319-1.393v-21.354
	c0-0.866,0.155-1.229,0.319-1.393C125.878,163.261,126.27,163.106,127.136,163.106z"/>
<path id="path61" fill="#F4F4F4" d="M154.839,161.249c-1.088,0-2.053,0.196-2.727,0.87c-0.674,0.675-0.871,1.61-0.871,2.698v21.354
	c0,1.088,0.196,2.023,0.871,2.698c0.674,0.674,1.639,0.87,2.727,0.87h21.325c1.088,0,2.053-0.196,2.727-0.87
	c0.674-0.675,0.87-1.61,0.87-2.698v-21.354c0-1.088-0.196-2.024-0.87-2.698s-1.639-0.87-2.727-0.87H154.839z M154.839,163.106
	h21.325c0.866,0,1.257,0.154,1.421,0.318c0.165,0.164,0.319,0.526,0.319,1.393v21.354c0,0.866-0.154,1.228-0.319,1.393
	c-0.164,0.164-0.555,0.319-1.421,0.319h-21.325c-0.866,0-1.257-0.155-1.422-0.319c-0.164-0.165-0.319-0.526-0.319-1.393v-21.354
	c0-0.866,0.155-1.229,0.319-1.393C153.582,163.261,153.973,163.106,154.839,163.106z"/>
<path id="path63" fill="#F4F4F4" d="M182.552,161.249c-1.088,0-2.053,0.196-2.727,0.87c-0.674,0.675-0.841,1.61-0.841,2.698v21.354
	c0,1.088,0.167,2.023,0.841,2.698c0.674,0.674,1.639,0.87,2.727,0.87h21.325c1.088,0,2.053-0.196,2.727-0.87
	c0.674-0.675,0.871-1.61,0.871-2.698v-21.354c0-1.088-0.196-2.024-0.871-2.698c-0.674-0.674-1.639-0.87-2.727-0.87H182.552z
	 M182.552,163.106h21.325c0.866,0,1.257,0.154,1.421,0.318c0.165,0.164,0.319,0.526,0.319,1.393v21.354
	c0,0.866-0.155,1.228-0.319,1.393c-0.165,0.164-0.555,0.319-1.421,0.319h-21.325c-0.866,0-1.229-0.155-1.393-0.319
	c-0.165-0.165-0.319-0.526-0.319-1.393v-21.354c0-0.866,0.154-1.229,0.319-1.393C181.324,163.261,181.686,163.106,182.552,163.106z"
	/>
<path id="path65" fill="#F4F4F4" d="M210.256,161.249c-1.088,0-2.024,0.196-2.698,0.87c-0.674,0.675-0.871,1.61-0.871,2.698v21.354
	c0,1.088,0.196,2.023,0.871,2.698c0.674,0.674,1.61,0.87,2.698,0.87h21.354c1.088,0,2.024-0.196,2.698-0.87
	c0.675-0.675,0.871-1.61,0.871-2.698v-21.354c0-1.088-0.196-2.024-0.871-2.698c-0.674-0.674-1.61-0.87-2.698-0.87H210.256z
	 M210.256,163.106h21.354c0.867,0,1.229,0.154,1.393,0.318c0.165,0.164,0.319,0.526,0.319,1.393v21.354
	c0,0.866-0.155,1.228-0.319,1.393c-0.164,0.164-0.526,0.319-1.393,0.319h-21.354c-0.866,0-1.229-0.155-1.393-0.319
	c-0.165-0.165-0.319-0.526-0.319-1.393v-21.354c0-0.866,0.154-1.229,0.319-1.393C209.027,163.261,209.39,163.106,210.256,163.106z"
	/>
<path id="path67" fill="#F4F4F4" d="M237.997,161.249c-1.088,0-2.053,0.196-2.728,0.87c-0.674,0.675-0.87,1.61-0.87,2.698v21.354
	c0,1.088,0.196,2.023,0.87,2.698c0.674,0.674,1.64,0.87,2.728,0.87h21.324c1.088,0,2.024-0.196,2.698-0.87
	c0.674-0.675,0.871-1.61,0.871-2.698v-21.354c0-1.088-0.196-2.024-0.871-2.698c-0.674-0.674-1.61-0.87-2.698-0.87H237.997z
	 M237.997,163.106h21.324c0.866,0,1.228,0.154,1.393,0.318s0.319,0.526,0.319,1.393v21.354c0,0.866-0.155,1.228-0.319,1.393
	c-0.165,0.164-0.526,0.319-1.393,0.319h-21.324c-0.866,0-1.258-0.155-1.422-0.319c-0.165-0.165-0.319-0.526-0.319-1.393v-21.354
	c0-0.866,0.154-1.229,0.319-1.393C236.739,163.261,237.131,163.106,237.997,163.106z"/>
<path id="path69" fill="#F4F4F4" d="M265.701,161.249c-1.088,0-2.053,0.196-2.727,0.87c-0.675,0.675-0.871,1.61-0.871,2.698v21.354
	c0,1.088,0.196,2.023,0.871,2.698c0.674,0.674,1.639,0.87,2.727,0.87h21.325c1.088,0,2.053-0.196,2.727-0.87
	c0.675-0.675,0.871-1.61,0.871-2.698v-21.354c0-1.088-0.196-2.024-0.871-2.698c-0.674-0.674-1.639-0.87-2.727-0.87H265.701z
	 M265.701,163.106h21.325c0.866,0,1.228,0.154,1.393,0.318c0.164,0.164,0.348,0.526,0.348,1.393v21.354
	c0,0.866-0.184,1.228-0.348,1.393c-0.164,0.164-0.526,0.319-1.393,0.319h-21.325c-0.866,0-1.257-0.155-1.422-0.319
	c-0.165-0.165-0.319-0.526-0.319-1.393v-21.354c0-0.866,0.154-1.229,0.319-1.393S264.834,163.106,265.701,163.106z"/>
<path id="path71" fill="#F4F4F4" d="M293.413,161.249c-1.088,0-2.053,0.196-2.727,0.87c-0.675,0.675-0.871,1.61-0.871,2.698v21.354
	c0,1.088,0.196,2.023,0.871,2.698c0.674,0.674,1.639,0.87,2.727,0.87h21.325c1.088,0,2.053-0.196,2.728-0.87
	c0.673-0.675,0.87-1.61,0.87-2.698v-21.354c0-1.088-0.197-2.024-0.87-2.698c-0.675-0.674-1.64-0.87-2.728-0.87H293.413z
	 M293.413,163.106h21.325c0.866,0,1.258,0.154,1.422,0.318s0.319,0.526,0.319,1.393v21.354c0,0.866-0.155,1.228-0.319,1.393
	c-0.165,0.164-0.556,0.319-1.422,0.319h-21.325c-0.866,0-1.228-0.155-1.393-0.319c-0.163-0.165-0.349-0.526-0.349-1.393v-21.354
	c0-0.866,0.186-1.229,0.349-1.393C292.186,163.261,292.547,163.106,293.413,163.106z"/>
<path id="path73" fill="#F4F4F4" d="M321.117,161.249c-1.088,0-2.024,0.196-2.698,0.87c-0.674,0.675-0.87,1.61-0.87,2.698v21.354
	c0,1.088,0.196,2.023,0.87,2.698c0.674,0.674,1.61,0.87,2.698,0.87h21.354c1.088,0,2.024-0.196,2.697-0.87
	c0.675-0.675,0.87-1.61,0.87-2.698v-21.354c0-1.088-0.195-2.024-0.87-2.698c-0.673-0.674-1.61-0.87-2.697-0.87H321.117z
	 M321.117,163.106h21.354c0.866,0,1.228,0.154,1.393,0.318c0.164,0.164,0.319,0.526,0.319,1.393v21.354
	c0,0.866-0.155,1.228-0.319,1.393c-0.165,0.164-0.526,0.319-1.393,0.319h-21.354c-0.866,0-1.229-0.155-1.393-0.319
	c-0.165-0.165-0.319-0.526-0.319-1.393v-21.354c0-0.866,0.154-1.229,0.319-1.393C319.889,163.261,320.251,163.106,321.117,163.106z"
	/>
<path id="path75" fill="#F4F4F4" d="M348.821,161.249c-1.088,0-2.024,0.196-2.698,0.87c-0.675,0.675-0.87,1.61-0.87,2.698v21.354
	c0,1.088,0.195,2.023,0.87,2.698c0.674,0.674,1.61,0.87,2.698,0.87h21.354c1.088,0,2.023-0.196,2.698-0.87
	c0.673-0.675,0.87-1.61,0.87-2.698v-21.354c0-1.088-0.197-2.024-0.87-2.698c-0.675-0.674-1.611-0.87-2.698-0.87H348.821z
	 M348.821,163.106h21.354c0.865,0,1.228,0.154,1.393,0.318c0.164,0.164,0.319,0.526,0.319,1.393v21.354
	c0,0.866-0.155,1.228-0.319,1.393c-0.165,0.164-0.527,0.319-1.393,0.319h-21.354c-0.867,0-1.229-0.155-1.393-0.319
	c-0.165-0.165-0.319-0.526-0.319-1.393v-21.354c0-0.866,0.154-1.229,0.319-1.393C347.593,163.261,347.954,163.106,348.821,163.106z"
	/>
<path id="path77" fill="#F4F4F4" d="M376.562,161.249c-1.088,0-2.053,0.196-2.727,0.87c-0.675,0.675-0.871,1.61-0.871,2.698v21.354
	c0,1.088,0.196,2.023,0.871,2.698c0.674,0.674,1.639,0.87,2.727,0.87h21.325c1.088,0,2.053-0.196,2.727-0.87
	c0.674-0.675,0.842-1.61,0.842-2.698v-21.354c0-1.088-0.168-2.024-0.842-2.698s-1.639-0.87-2.727-0.87H376.562z M376.562,163.106
	h21.325c0.865,0,1.229,0.154,1.393,0.318s0.319,0.526,0.319,1.393v21.354c0,0.866-0.155,1.228-0.319,1.393
	c-0.164,0.164-0.527,0.319-1.393,0.319h-21.325c-0.866,0-1.257-0.155-1.421-0.319c-0.164-0.165-0.319-0.526-0.319-1.393v-21.354
	c0-0.866,0.155-1.229,0.319-1.393S375.695,163.106,376.562,163.106z"/>
<path id="path79" fill="#F4F4F4" d="M404.266,161.249c-1.088,0-2.054,0.196-2.728,0.87c-0.674,0.675-0.87,1.61-0.87,2.698v21.354
	c0,1.088,0.196,2.023,0.87,2.698c0.674,0.674,1.64,0.87,2.728,0.87h21.324c1.088,0,2.053-0.196,2.728-0.87
	c0.674-0.675,0.87-1.61,0.87-2.698v-21.354c0-1.088-0.196-2.024-0.87-2.698c-0.675-0.674-1.64-0.87-2.728-0.87H404.266z
	 M404.266,163.106h21.324c0.866,0,1.258,0.154,1.422,0.318s0.319,0.526,0.319,1.393v21.354c0,0.866-0.155,1.228-0.319,1.393
	c-0.164,0.164-0.556,0.319-1.422,0.319h-21.324c-0.867,0-1.258-0.155-1.422-0.319c-0.164-0.165-0.319-0.526-0.319-1.393v-21.354
	c0-0.866,0.155-1.229,0.319-1.393S403.398,163.106,404.266,163.106z"/>
<path id="path81" fill="#F4F4F4" d="M431.97,161.249c-1.089,0-2.054,0.196-2.728,0.87c-0.675,0.675-0.842,1.61-0.842,2.698v21.354
	c0,1.088,0.167,2.023,0.842,2.698c0.674,0.674,1.639,0.87,2.728,0.87h21.324c1.088,0,2.053-0.196,2.727-0.87
	c0.674-0.675,0.871-1.61,0.871-2.698v-21.354c0-1.088-0.197-2.024-0.871-2.698s-1.639-0.87-2.727-0.87H431.97z M431.97,163.106
	h21.324c0.865,0,1.258,0.154,1.422,0.318s0.318,0.526,0.318,1.393v21.354c0,0.866-0.154,1.228-0.318,1.393
	c-0.164,0.164-0.557,0.319-1.422,0.319H431.97c-0.867,0-1.229-0.155-1.393-0.319c-0.166-0.165-0.319-0.526-0.319-1.393v-21.354
	c0-0.866,0.153-1.229,0.319-1.393C430.741,163.261,431.103,163.106,431.97,163.106z"/>
<path id="path83" fill="#F4F4F4" d="M459.682,161.249c-1.088,0-2.023,0.196-2.698,0.87c-0.674,0.675-0.87,1.61-0.87,2.698v21.354
	c0,1.088,0.196,2.023,0.87,2.698c0.675,0.674,1.61,0.87,2.698,0.87h21.354c1.088,0,2.024-0.196,2.698-0.87
	c0.674-0.675,0.871-1.61,0.871-2.698v-21.354c0-1.088-0.197-2.024-0.871-2.698s-1.61-0.87-2.698-0.87H459.682z M459.682,163.106
	h21.354c0.866,0,1.229,0.154,1.393,0.318s0.319,0.526,0.319,1.393v21.354c0,0.866-0.155,1.228-0.319,1.393
	c-0.164,0.164-0.526,0.319-1.393,0.319h-21.354c-0.866,0-1.229-0.155-1.393-0.319c-0.164-0.165-0.319-0.526-0.319-1.393v-21.354
	c0-0.866,0.155-1.229,0.319-1.393S458.815,163.106,459.682,163.106z"/>
<path id="path85" fill="#F4F4F4" d="M127.136,188.982c-1.088,0-2.053,0.167-2.728,0.842c-0.674,0.674-0.87,1.638-0.87,2.728v21.324
	c0,1.088,0.196,2.053,0.87,2.727c0.675,0.674,1.64,0.871,2.728,0.871h37.833c1.088,0,2.053-0.197,2.728-0.871
	c0.674-0.674,0.87-1.639,0.87-2.727v-21.324c0-1.09-0.196-2.054-0.87-2.728c-0.675-0.675-1.639-0.842-2.728-0.842H127.136z
	 M127.136,190.84h37.833c0.867,0,1.258,0.154,1.422,0.318c0.164,0.165,0.319,0.526,0.319,1.394v21.324
	c0,0.866-0.155,1.257-0.319,1.422c-0.164,0.164-0.555,0.318-1.422,0.318h-37.833c-0.866,0-1.258-0.154-1.422-0.318
	c-0.164-0.165-0.319-0.556-0.319-1.422v-21.324c0-0.867,0.155-1.229,0.319-1.394C125.878,190.994,126.27,190.84,127.136,190.84z"/>
<path id="path87" fill="#F4F4F4" d="M171.356,188.982c-1.088,0-2.053,0.167-2.728,0.842c-0.674,0.674-0.841,1.638-0.841,2.728
	v21.324c0,1.088,0.167,2.053,0.841,2.727c0.675,0.674,1.639,0.871,2.728,0.871h21.353c1.088,0,2.024-0.197,2.698-0.871
	s0.871-1.639,0.871-2.727v-21.324c0-1.09-0.196-2.054-0.871-2.728c-0.674-0.675-1.61-0.842-2.698-0.842H171.356z M171.356,190.84
	h21.353c0.867,0,1.229,0.154,1.393,0.318c0.164,0.165,0.319,0.526,0.319,1.394v21.324c0,0.866-0.155,1.257-0.319,1.422
	c-0.165,0.164-0.526,0.318-1.393,0.318h-21.353c-0.867,0-1.229-0.154-1.393-0.318c-0.164-0.165-0.319-0.556-0.319-1.422v-21.324
	c0-0.867,0.155-1.229,0.319-1.394C170.127,190.994,170.489,190.84,171.356,190.84z"/>
<path id="path89" fill="#F4F4F4" d="M127.229,216.491c-1.088,0-2.053,0.196-2.727,0.871c-0.674,0.673-0.871,1.639-0.871,2.727
	v21.324c0,1.088,0.196,2.053,0.871,2.728c0.674,0.674,1.639,0.87,2.727,0.87h21.324c1.089,0,2.053-0.196,2.728-0.87
	c0.674-0.675,0.841-1.64,0.841-2.728v-21.324c0-1.088-0.167-2.054-0.841-2.727c-0.674-0.675-1.639-0.871-2.728-0.871H127.229z
	 M127.229,218.349h21.324c0.867,0,1.229,0.153,1.393,0.318c0.165,0.164,0.319,0.556,0.319,1.422v21.324
	c0,0.866-0.154,1.257-0.319,1.422c-0.165,0.164-0.526,0.319-1.393,0.319h-21.324c-0.866,0-1.257-0.155-1.421-0.319
	c-0.167-0.157-0.325-0.558-0.325-1.421V220.09c0-0.866,0.155-1.258,0.319-1.422c0.165-0.164,0.556-0.318,1.422-0.318
	L127.229,218.349z"/>
<path id="path91" fill="#F4F4F4" d="M196.125,216.491c-1.088,0-2.023,0.196-2.698,0.871c-0.674,0.673-0.871,1.639-0.871,2.727
	v21.324c0,1.088,0.196,2.053,0.871,2.728c0.675,0.674,1.611,0.87,2.698,0.87h216.003c1.088,0,2.053-0.196,2.728-0.87
	c0.674-0.675,0.87-1.64,0.87-2.728v-21.324c0-1.088-0.196-2.054-0.87-2.727c-0.675-0.675-1.64-0.871-2.728-0.871H196.125z
	 M196.125,218.349h216.003c0.866,0,1.258,0.153,1.422,0.318c0.164,0.164,0.319,0.556,0.319,1.422v21.324
	c0,0.866-0.155,1.257-0.319,1.422c-0.164,0.164-0.556,0.319-1.422,0.319H196.125c-0.866,0-1.228-0.155-1.393-0.319
	c-0.164-0.165-0.319-0.556-0.319-1.422v-21.324c0-0.866,0.155-1.258,0.319-1.422C194.897,218.502,195.259,218.349,196.125,218.349z"
	/>
<path id="path93" fill="#F4F4F4" d="M199.06,188.982c-1.088,0-2.024,0.167-2.698,0.842c-0.674,0.674-0.871,1.638-0.871,2.728v21.324
	c0,1.088,0.196,2.053,0.871,2.727c0.674,0.675,1.61,0.871,2.698,0.871h21.354c1.088,0,2.023-0.197,2.698-0.871
	c0.674-0.674,0.87-1.639,0.87-2.727v-21.324c0-1.09-0.196-2.054-0.87-2.728c-0.675-0.675-1.61-0.842-2.698-0.842H199.06z
	 M199.06,190.84h21.354c0.866,0,1.229,0.154,1.393,0.318c0.164,0.165,0.319,0.526,0.319,1.394v21.324
	c0,0.866-0.155,1.257-0.319,1.422c-0.164,0.164-0.526,0.318-1.393,0.318H199.06c-0.867,0-1.229-0.154-1.393-0.318
	c-0.164-0.165-0.319-0.556-0.319-1.422v-21.324c0-0.868,0.155-1.229,0.319-1.394S198.193,190.84,199.06,190.84z"/>
<path id="path95" fill="#F4F4F4" d="M226.791,188.982c-1.088,0-2.053,0.167-2.727,0.842c-0.674,0.674-0.871,1.638-0.871,2.728
	v21.324c0,1.088,0.196,2.053,0.871,2.727s1.639,0.871,2.727,0.871h21.325c1.087,0,2.053-0.197,2.727-0.871
	c0.675-0.674,0.841-1.639,0.841-2.727v-21.324c0-1.09-0.167-2.054-0.841-2.728c-0.674-0.675-1.64-0.842-2.727-0.842H226.791z
	 M226.791,190.84h21.325c0.866,0,1.229,0.154,1.393,0.318c0.164,0.165,0.319,0.526,0.319,1.394v21.324
	c0,0.866-0.155,1.257-0.319,1.422c-0.164,0.164-0.526,0.318-1.393,0.318h-21.325c-0.867,0-1.257-0.154-1.421-0.318
	c-0.164-0.165-0.319-0.556-0.319-1.422v-21.324c0-0.867,0.155-1.229,0.319-1.394C225.534,190.994,225.924,190.84,226.791,190.84z"/>
<path id="path97" fill="#F4F4F4" d="M254.504,188.982c-1.088,0-2.053,0.167-2.727,0.842c-0.675,0.674-0.871,1.638-0.871,2.728
	v21.324c0,1.088,0.196,2.053,0.871,2.727c0.674,0.675,1.639,0.871,2.727,0.871h21.324c1.089,0,2.054-0.196,2.728-0.871
	c0.675-0.674,0.87-1.639,0.87-2.727v-21.324c0-1.09-0.195-2.054-0.87-2.728c-0.674-0.675-1.639-0.842-2.728-0.842H254.504z
	 M254.504,190.84h21.324c0.867,0,1.258,0.154,1.422,0.318s0.319,0.525,0.319,1.394v21.324c0,0.866-0.155,1.257-0.319,1.422
	c-0.164,0.164-0.555,0.318-1.422,0.318h-21.324c-0.867,0-1.257-0.154-1.422-0.318c-0.164-0.165-0.319-0.556-0.319-1.422v-21.324
	c0-0.868,0.155-1.229,0.319-1.394C253.247,190.994,253.637,190.84,254.504,190.84z"/>
<path id="path99" fill="#F4F4F4" d="M282.208,188.982c-1.089,0-2.053,0.167-2.728,0.842c-0.675,0.674-0.842,1.638-0.842,2.728
	v21.324c0,1.088,0.167,2.053,0.842,2.727s1.639,0.871,2.728,0.871h21.324c1.088,0,2.054-0.197,2.727-0.871
	c0.675-0.674,0.871-1.639,0.871-2.727v-21.324c0-1.09-0.196-2.054-0.871-2.728c-0.673-0.675-1.639-0.842-2.727-0.842H282.208z
	 M282.208,190.84h21.324c0.866,0,1.258,0.154,1.422,0.318c0.164,0.165,0.318,0.526,0.318,1.394v21.324
	c0,0.866-0.154,1.257-0.318,1.422c-0.164,0.164-0.556,0.318-1.422,0.318h-21.324c-0.867,0-1.229-0.154-1.393-0.318
	c-0.164-0.165-0.319-0.556-0.319-1.422v-21.324c0-0.867,0.155-1.229,0.319-1.394C280.979,190.994,281.341,190.84,282.208,190.84z"/>
<path id="path101" fill="#F4F4F4" d="M309.92,188.982c-1.087,0-2.023,0.167-2.697,0.842c-0.674,0.674-0.87,1.638-0.87,2.728v21.324
	c0,1.088,0.196,2.053,0.87,2.727s1.61,0.871,2.697,0.871h21.354c1.088,0,2.024-0.197,2.698-0.871
	c0.675-0.674,0.871-1.639,0.871-2.727v-21.324c0-1.09-0.196-2.054-0.871-2.728c-0.674-0.675-1.61-0.842-2.698-0.842H309.92z
	 M309.92,190.84h21.354c0.867,0,1.229,0.154,1.393,0.318c0.164,0.165,0.319,0.526,0.319,1.394v21.324
	c0,0.866-0.155,1.257-0.319,1.422c-0.164,0.164-0.525,0.318-1.393,0.318H309.92c-0.865,0-1.229-0.154-1.393-0.318
	c-0.164-0.165-0.318-0.556-0.318-1.422v-21.324c0-0.867,0.154-1.229,0.318-1.394C308.691,190.994,309.055,190.84,309.92,190.84z"/>
<path id="path103" fill="#F4F4F4" d="M337.624,188.982c-1.088,0-2.023,0.167-2.698,0.842c-0.675,0.674-0.87,1.638-0.87,2.728v21.324
	c0,1.088,0.195,2.053,0.87,2.727s1.61,0.871,2.698,0.871h21.354c1.088,0,2.023-0.197,2.698-0.871s0.87-1.639,0.87-2.727v-21.324
	c0-1.09-0.195-2.054-0.87-2.728c-0.675-0.675-1.61-0.842-2.698-0.842H337.624z M337.624,190.84h21.354
	c0.867,0,1.229,0.154,1.393,0.318c0.164,0.165,0.319,0.526,0.319,1.394v21.324c0,0.866-0.155,1.257-0.319,1.422
	c-0.164,0.164-0.525,0.318-1.393,0.318h-21.354c-0.866,0-1.229-0.154-1.393-0.318c-0.164-0.165-0.319-0.556-0.319-1.422v-21.324
	c0-0.867,0.155-1.229,0.319-1.394C336.396,190.994,336.758,190.84,337.624,190.84z"/>
<path id="path105" fill="#F4F4F4" d="M365.364,188.982c-1.088,0-2.052,0.167-2.727,0.842c-0.674,0.674-0.87,1.638-0.87,2.728v21.324
	c0,1.088,0.196,2.053,0.87,2.727c0.675,0.675,1.639,0.871,2.727,0.871h21.325c1.088,0,2.054-0.197,2.728-0.871
	s0.87-1.639,0.87-2.727v-21.324c0-1.09-0.196-2.054-0.87-2.728c-0.674-0.675-1.64-0.842-2.728-0.842H365.364z M365.364,190.84
	h21.325c0.866,0,1.229,0.154,1.393,0.318c0.164,0.165,0.348,0.526,0.348,1.394v21.324c0,0.866-0.184,1.257-0.348,1.422
	c-0.164,0.164-0.526,0.318-1.393,0.318h-21.325c-0.866,0-1.257-0.154-1.421-0.318c-0.158-0.158-0.315-0.548-0.315-1.421v-21.325
	c0-0.866,0.154-1.229,0.318-1.393s0.556-0.318,1.422-0.318L365.364,190.84z"/>
<path id="path107" fill="#F4F4F4" d="M393.068,188.982c-1.087,0-2.053,0.167-2.728,0.842c-0.674,0.674-0.87,1.638-0.87,2.728v21.324
	c0,1.088,0.196,2.053,0.87,2.727c0.675,0.674,1.641,0.871,2.728,0.871h21.324c1.088,0,2.054-0.197,2.728-0.871
	c0.675-0.674,0.87-1.639,0.87-2.727v-21.324c0-1.09-0.195-2.054-0.87-2.728c-0.674-0.675-1.64-0.842-2.728-0.842H393.068z
	 M393.068,190.84h21.324c0.867,0,1.258,0.154,1.422,0.318c0.164,0.165,0.319,0.526,0.319,1.394v21.324
	c0,0.866-0.155,1.257-0.319,1.422c-0.164,0.164-0.555,0.318-1.422,0.318h-21.324c-0.866,0-1.229-0.154-1.393-0.318
	c-0.164-0.165-0.349-0.556-0.349-1.422v-21.324c0-0.867,0.185-1.229,0.349-1.394C391.84,190.994,392.202,190.84,393.068,190.84z"/>
<path id="path109" fill="#F4F4F4" d="M420.772,188.982c-1.088,0-2.053,0.167-2.728,0.842c-0.675,0.674-0.842,1.638-0.842,2.728
	v21.324c0,1.088,0.167,2.053,0.842,2.727s1.64,0.871,2.728,0.871h21.324c1.088,0,2.054-0.197,2.727-0.871
	c0.675-0.674,0.871-1.639,0.871-2.727v-21.324c0-1.09-0.196-2.054-0.871-2.728c-0.673-0.675-1.639-0.842-2.727-0.842H420.772z
	 M420.772,190.84h21.324c0.867,0,1.258,0.154,1.422,0.318c0.164,0.165,0.318,0.526,0.318,1.394v21.324
	c0,0.866-0.154,1.257-0.318,1.422c-0.164,0.164-0.555,0.318-1.422,0.318h-21.324c-0.866,0-1.229-0.154-1.393-0.318
	c-0.164-0.165-0.319-0.556-0.319-1.422v-21.324c0-0.867,0.155-1.229,0.319-1.394C419.544,190.994,419.906,190.84,420.772,190.84z"/>
<path id="path111" fill="#F4F4F4" d="M448.485,188.982c-1.088,0-2.024,0.167-2.697,0.842c-0.675,0.674-0.871,1.638-0.871,2.728
	v21.324c0,1.088,0.196,2.053,0.871,2.727c0.673,0.674,1.609,0.871,2.697,0.871h32.552c1.087,0,2.053-0.197,2.728-0.871
	c0.674-0.674,0.841-1.639,0.841-2.727v-21.324c0-1.09-0.167-2.054-0.841-2.728c-0.675-0.675-1.641-0.842-2.728-0.842H448.485z
	 M448.485,190.84h32.552c0.866,0,1.229,0.154,1.393,0.318c0.164,0.165,0.319,0.526,0.319,1.394v21.324
	c0,0.866-0.155,1.257-0.319,1.422c-0.164,0.164-0.526,0.318-1.393,0.318h-32.552c-0.866,0-1.229-0.154-1.393-0.318
	c-0.165-0.165-0.318-0.556-0.318-1.422v-21.324c0-0.867,0.153-1.229,0.318-1.394C447.257,190.994,447.619,190.84,448.485,190.84z"/>
</svg>
