<?xml version="1.0" encoding="utf-8"?>
<!-- Generator: Adobe Illustrator 15.0.0, SVG Export Plug-In . SVG Version: 6.00 Build 0)  -->
<!DOCTYPE svg PUBLIC "-//W3C//DTD SVG 1.1//EN" "http://www.w3.org/Graphics/SVG/1.1/DTD/svg11.dtd">
<svg version="1.1" id="Layer_3" xmlns="http://www.w3.org/2000/svg" xmlns:xlink="http://www.w3.org/1999/xlink" x="0px" y="0px"
	 width="598.189px" height="350.26px" viewBox="0 0 598.189 350.26" enable-background="new 0 0 598.189 350.26"
	 xml:space="preserve">
<g>
	<path fill="#EFEFEF" d="M569.207,314.248c-2.305,0-4.921-0.477-7.773-1.415c-5.948-1.959-11.465-3.488-15.53-4.308
		c-6.528-1.312-16.663-3.259-27.876-5.076c-4.586-0.743-34.82-3.615-46.333-3.615l-0.273,0.001
		c-14.33,0.061-27.342,0.454-30.601,0.659c-3.591,0.226-7.671,0.34-12.128,0.34c-52.567,0-147.669-15.175-161.27-23.847
		c-2.674-0.924-50.019-17.271-69.851-24.344c-3.847-1.373-19.303-5.938-30.515-8.181c-18.169-3.633-43.281-8.022-54.03-9.004
		c-0.501-0.044-1.12-0.083-1.777-0.124c-1.673-0.104-3.569-0.223-4.63-0.494c-2.974-0.747-8.355-2.865-10.936-8.644
		c-3.373-7.552-6.009-76.463-6.12-79.394c0.013-0.277,0.284-4.477,1.381-6.828c6.801-16.948,34.667-74.693,106.798-104.074
		c0.526-0.214,1.441-0.598,2.396-0.999c1.187-0.498,2.436-1.022,3.095-1.287c2.062-0.828,5.216-1.814,8.528-1.814
		c4.254,0,7.573,1.598,9.864,4.751c0.703,0.965,2.015,5.001,2.228,6.854l0.032,0.281c0.157,1.379,0.335,2.942,0.548,4.37
		c0.725,4.867,2.977,11.826,9.587,17.344c0.338,0.301,31.546,27.919,61.71,27.919c1.082,0,2.165-0.036,3.219-0.106
		c0.951-0.063,4.015-0.766,5.599-1.401c3.908-1.569,11.687-4.212,19.851-4.279l133.343-6.294c0.746-0.052,77.02-5.376,99.973-11.61
		c0.67-0.182,2.063-0.512,3.52-0.857c1.533-0.363,3.136-0.742,4.005-0.975c2.07-0.559,4.909-1.324,7.525-1.324
		c5.142,0,8.032,2.907,8.594,8.64c0.062,1.035,5.919,101.258,0.004,227.171C581.359,302.388,580.891,314.247,569.207,314.248z
		 M471.693,297.834c11.331,0,41.183,2.755,46.652,3.642c11.243,1.821,21.405,3.772,27.95,5.09c4.144,0.835,9.74,2.387,15.762,4.367
		c2.651,0.873,5.057,1.315,7.148,1.315c9.725-0.001,10.144-9.63,10.156-10.04c5.911-125.816,0.062-225.94,0.002-226.937
		c-0.46-4.689-2.496-6.797-6.601-6.797c-2.353,0-4.933,0.696-7.006,1.255c-0.882,0.238-2.508,0.623-4.063,0.991
		c-1.43,0.338-2.798,0.662-3.456,0.84c-23.143,6.285-99.61,11.624-100.38,11.677l-133.403,6.297
		c-7.875,0.064-15.383,2.619-19.16,4.136c-1.733,0.695-4.969,1.458-6.211,1.54c-1.098,0.074-2.226,0.111-3.352,0.111
		c-30.935,0-62.701-28.123-63.018-28.407c-7.068-5.898-9.482-13.352-10.258-18.562c-0.218-1.462-0.398-3.043-0.557-4.438
		l-0.032-0.28c-0.203-1.768-1.472-5.375-1.857-5.904c-1.895-2.606-4.669-3.928-8.247-3.928c-2.992,0-5.884,0.909-7.783,1.671
		c-0.654,0.262-1.891,0.781-3.065,1.274c-0.963,0.405-1.885,0.792-2.416,1.008c-71.402,29.084-98.97,86.203-105.719,103.017
		c-0.959,2.057-1.216,6.017-1.218,6.057c0.933,24.585,3.375,72.791,5.948,78.553c2.236,5.008,6.976,6.861,9.602,7.521
		c0.883,0.226,2.757,0.343,4.263,0.437c0.676,0.042,1.312,0.082,1.831,0.128c10.822,0.987,36.024,5.393,54.245,9.035
		c11.304,2.262,26.907,6.871,30.794,8.258c20.299,7.24,69.452,24.205,69.946,24.377l0.223,0.108
		c12.695,8.331,109.042,23.588,160.279,23.588c4.416,0,8.454-0.112,12.003-0.336c3.278-0.206,16.348-0.604,30.718-0.663
		L471.693,297.834z"/>
</g>
<g>
	<path fill="#EFEFEF" d="M172.228,126.775l0.335-0.077c0.532-0.122,1.082-0.064,1.651,0.173c0.488,0.198,0.964,0.53,1.426,0.999
		c0.356,0.353,0.666,0.749,0.922,1.18c0.252,0.428,0.417,0.809,0.493,1.146c0.138,0.601,0.167,1.08,0.087,1.437
		c-0.081,0.358-0.223,0.622-0.426,0.793c-0.204,0.171-0.424,0.285-0.662,0.339c-0.307,0.07-0.602,0.024-0.882-0.14
		c-0.28-0.165-0.434-0.397-0.459-0.701c-0.029-0.258,0.029-0.474,0.172-0.646c0.145-0.173,0.347-0.303,0.606-0.393
		c0.308-0.07,0.55-0.075,0.726-0.011c-0.349-0.818-0.857-1.46-1.522-1.926c-0.666-0.466-1.356-0.617-2.073-0.453l-0.126,0.029
		c-0.419,0.096-0.82,0.372-1.205,0.828c-0.417,0.513-0.839,1.022-1.266,1.526c-0.504,0.116-1.109-0.312-1.818-1.284
		c-1.094-1.485-1.805-2.375-2.137-2.667c-1.005-0.902-2.114-1.215-3.334-0.937c-1.707,0.391-2.289,1.769-1.748,4.132
		c0.256,1.12,0.728,2.178,1.412,3.175c0.686,0.999,1.628,1.971,2.831,2.918c0.97,0.764,2.058,1.463,3.264,2.101
		c1.205,0.636,2.411,1.146,3.619,1.533c1.207,0.386,2.287,0.603,3.24,0.649c0.622,0.019,1.164-0.024,1.625-0.13
		c0.546-0.125,1.008-0.29,1.388-0.495c0.846-0.488,1.167-1.173,0.965-2.053c-0.096-0.419-0.301-0.785-0.617-1.104
		c-0.316-0.317-0.737-0.6-1.266-0.846c-0.886-0.402-2.014-0.732-3.386-0.991l-3.295-0.618l-0.864-0.2
		c-1.522-0.417-2.565-0.729-3.128-0.939c-1.369-0.51-2.308-1.046-2.819-1.606c-0.269-0.294-0.511-0.612-0.725-0.949
		c-0.207-0.328-0.342-0.625-0.403-0.891c-0.058-0.251-0.018-0.4,0.118-0.446c0.109-0.04,0.405,0.191,0.888,0.695
		c0.343,0.344,0.772,0.64,1.285,0.887c0.909,0.431,2.643,0.903,5.203,1.409l1.078,0.258l2.217,0.444
		c0.441,0.1,0.883,0.198,1.326,0.293c0.706,0.183,1.396,0.423,2.062,0.719c0.439,0.179,0.841,0.396,1.209,0.651
		c0.577,0.397,1.032,0.827,1.366,1.288c0.334,0.46,0.562,0.958,0.684,1.488c0.176,0.77,0.125,1.527-0.152,2.276
		c-0.278,0.748-0.737,1.364-1.376,1.849c-0.458,0.355-0.989,0.604-1.554,0.732l-0.525,0.12l-0.873,0.045
		c-0.537,0.004-1.075-0.024-1.608-0.083c-0.542-0.06-1.081-0.156-1.611-0.286c-3-0.697-5.714-2.261-8.138-4.683
		c-2.292-2.294-3.728-4.706-4.309-7.244c-0.398-1.738-0.393-3.164,0.016-4.273c0.411-1.113,1.251-1.814,2.524-2.105
		c1.57-0.359,2.947,0.127,4.139,1.459l2.769,4.576l0.168-0.039c0.242-0.761,0.534-1.395,0.879-1.912
		C170.96,127.282,171.497,126.942,172.228,126.775L172.228,126.775z M164.84,114.27c-1.13-0.354-2.275-0.659-3.432-0.913
		c-1.349-0.295-2.226-0.396-2.631-0.303c-0.168,0.039-0.238,0.114-0.213,0.225c0.057,0.252,0.552,0.629,1.483,1.129
		c0.932,0.5,1.822,0.868,2.67,1.099c0.848,0.233,1.473,0.392,1.875,0.476c0.689,0.148,1.385,0.262,2.086,0.339
		c0.875,0.093,1.789,0.098,2.74,0.013c-1.107-0.659-2.138-1.174-3.091-1.544L164.84,114.27L164.84,114.27z M164.216,109.137
		c-0.663-0.175-1.333-0.331-2.005-0.468c-0.832-0.163-1.381-0.214-1.646-0.153c-0.21,0.048-0.298,0.149-0.263,0.303
		c0.051,0.224,0.49,0.529,1.314,0.914c0.724,0.334,1.53,0.643,2.419,0.924l1.424,0.336c0.478,0.098,0.919,0.158,1.323,0.183
		c0.403,0.026,0.91,0.02,1.52-0.017c-0.538-0.421-1.069-0.778-1.592-1.07c-0.516-0.289-1.058-0.527-1.62-0.711L164.216,109.137
		L164.216,109.137z M166.51,101.911l3.335,0.777l4.944,1.134c0.512,0.118,0.878,0.24,1.099,0.367
		c0.286,0.155,0.454,0.344,0.505,0.568c0.022,0.099,0.017,0.203-0.017,0.313c-0.104,0.319-0.296,0.509-0.575,0.573
		c-0.225,0.051-0.501,0.034-0.83-0.053l-4.759-1.29l-0.776-0.223c0.327,0.205,0.63,0.466,0.908,0.785
		c0.382,0.444,0.615,0.853,0.702,1.231c0.09,0.392,0.028,0.729-0.187,1.014c-0.157,0.212-0.412,0.418-0.764,0.616
		c0.331,0.16,0.687,0.396,1.066,0.706c0.294,0.255,0.545,0.526,0.749,0.81c0.206,0.285,0.341,0.573,0.408,0.868
		c0.131,0.573-0.003,1.111-0.403,1.616c-0.125,0.16-0.292,0.331-0.5,0.511c0.132,0.07,0.263,0.144,0.393,0.22
		c0.144,0.084,0.264,0.175,0.36,0.271c0.384,0.324,0.73,0.698,1.04,1.12c0.311,0.422,0.509,0.822,0.596,1.2
		c0.086,0.377,0.067,0.728-0.058,1.051c-0.125,0.323-0.331,0.628-0.619,0.915l-0.308,0.292l0.448,0.316
		c0.917,0.658,1.467,1.394,1.653,2.204c0.086,0.378,0.063,0.729-0.067,1.053c-0.132,0.326-0.343,0.623-0.634,0.897l-0.334,0.275
		l0.464,0.292c0.385,0.264,0.679,0.535,0.881,0.813c0.204,0.277,0.349,0.604,0.435,0.981c0.151,0.657-0.034,1.17-0.553,1.54
		c-0.325,0.251-0.739,0.434-1.243,0.549c-0.461,0.106-1.061,0.096-1.795-0.029c-0.606-0.128-1.2-0.313-1.771-0.556
		c-0.578-0.242-1.148-0.557-1.708-0.944c-0.683-0.477-1.262-1.01-1.735-1.602c-0.473-0.59-0.793-1.243-0.956-1.956
		c-0.199-0.866,0.051-1.379,0.751-1.541c0.259-0.088,0.529-0.033,0.811,0.167c0.158,0.111,0.264,0.255,0.32,0.435
		c0.055,0.238,0.076,0.427,0.065,0.57c-0.012,0.142-0.046,0.264-0.103,0.366c-0.059,0.101-0.154,0.181-0.288,0.242
		c-0.133,0.06-0.202,0.116-0.204,0.167c-0.003,0.054,0.004,0.113,0.02,0.184c0.077,0.336,0.377,0.716,0.901,1.141
		c0.453,0.368,0.983,0.691,1.592,0.971c0.609,0.28,1.231,0.476,1.867,0.588c0.638,0.112,1.207,0.11,1.71-0.005
		c0.224-0.051,0.412-0.127,0.566-0.229c0.152-0.102,0.2-0.279,0.143-0.53c-0.071-0.308-0.418-0.634-1.04-0.976
		c-0.489-0.271-1.133-0.543-1.931-0.818c-0.414-0.142-0.831-0.274-1.251-0.397c-0.356-0.105-0.715-0.208-1.075-0.306
		c-0.113-0.048-0.221-0.295-0.323-0.742c-0.064-0.281-0.094-0.517-0.085-0.71c0.007-0.193,0.063-0.287,0.167-0.281l2.101,0.401
		c0.492,0.094,0.822,0.151,0.988,0.171c0.26,0.043,0.585,0.08,0.974,0.107c0.119,0.002,0.198-0.001,0.24-0.011
		c0.141-0.032,0.228-0.114,0.264-0.248c0.036-0.133,0.031-0.298-0.013-0.493c-0.048-0.21-0.282-0.503-0.703-0.878
		c-0.419-0.374-0.719-0.601-0.89-0.678l-0.602,0.137c-0.189,0.044-0.398,0.077-0.628,0.101c-0.493,0.112-0.978,0.165-1.461,0.157
		c-0.48-0.007-1.038-0.048-1.677-0.124c-0.305-0.047-0.618-0.097-0.932-0.151c-0.314-0.053-0.641-0.114-0.984-0.183
		c-1.863-0.412-3.563-1.023-5.093-1.836c-1.682-0.896-2.619-1.762-2.811-2.601c-0.093-0.406-0.044-0.723,0.147-0.95
		c0.19-0.228,0.496-0.39,0.914-0.486c0.715-0.164,1.683-0.143,2.908,0.062c0.888,0.15,1.856,0.392,2.904,0.725
		c0.284,0.088,0.567,0.182,0.848,0.282c0.328,0.116,0.652,0.237,0.977,0.36c0.614,0.243,1.201,0.502,1.757,0.779
		c0.557,0.278,1.152,0.616,1.79,1.016l1.308,0.891c0.35-0.08,0.642-0.264,0.877-0.553c0.235-0.289,0.306-0.645,0.209-1.063
		c-0.064-0.28-0.286-0.605-0.665-0.975c-0.303-0.298-0.608-0.537-0.915-0.716l-1.335,0.15c-1.028,0.073-2.093-0.014-3.195-0.262
		l-0.961-0.244c-1.381-0.375-2.71-0.946-3.99-1.713c-1.279-0.766-1.979-1.416-2.102-1.947c-0.081-0.35-0.04-0.62,0.123-0.812
		c0.162-0.192,0.439-0.333,0.831-0.422c0.601-0.138,1.371-0.134,2.309,0.011c0.943,0.146,1.87,0.374,2.772,0.679
		c0.603,0.214,1.195,0.456,1.776,0.719c0.694,0.327,1.278,0.657,1.751,0.99c0.385,0.265,0.757,0.576,1.119,0.936
		c0.059,0,0.146-0.012,0.257-0.037c0.266-0.062,0.472-0.187,0.621-0.374c0.147-0.189,0.179-0.472,0.093-0.85
		c-0.077-0.335-0.318-0.648-0.723-0.938c-0.405-0.291-1.015-0.541-1.828-0.752l-0.281-0.068c-0.553-0.128-1.103-0.275-1.646-0.439
		c-0.48-0.146-0.958-0.302-1.432-0.467l-1.603-0.538c-0.048-0.019-0.115-0.117-0.2-0.296c-0.086-0.179-0.148-0.353-0.187-0.521
		c-0.061-0.265-0.084-0.48-0.07-0.646c0.013-0.166,0.09-0.235,0.229-0.208c0.045,0.005,0.153,0.031,0.328,0.08
		c0.363,0.104,0.727,0.212,1.089,0.324c0.541,0.173,1.086,0.335,1.634,0.486c0.694,0.195,1.263,0.337,1.709,0.426
		c0.697,0.15,1.206,0.187,1.527,0.113c0.266-0.061,0.373-0.203,0.322-0.426c-0.077-0.335-0.277-0.629-0.599-0.879
		c-0.323-0.25-0.895-0.531-1.717-0.843c-0.563-0.214-1.134-0.407-1.711-0.58c-0.55-0.163-1.105-0.316-1.661-0.458l-1.351-0.308
		c-0.098-0.038-0.175-0.137-0.234-0.3c-0.063-0.176-0.115-0.356-0.157-0.538c-0.063-0.279-0.09-0.509-0.08-0.688
		c0.01-0.178,0.071-0.251,0.182-0.217l1.238,0.294L166.51,101.911L166.51,101.911z"/>
</g>
<g>
	<path fill="#EFEFEF" d="M168.805,147.406c-14.018,0-25.422-11.404-25.422-25.422s11.404-25.422,25.422-25.422
		s25.422,11.404,25.422,25.422S182.823,147.406,168.805,147.406z M168.805,98.562c-12.915,0-23.422,10.507-23.422,23.422
		s10.507,23.422,23.422,23.422s23.422-10.507,23.422-23.422S181.72,98.562,168.805,98.562z"/>
</g>
<g>
	<path fill="#EFEFEF" d="M309.967,91.401l-0.424-1.955c0.738-0.424,2.12-3.867,2.66-22.013l0.013-0.443
		c0.055-1.796,0.085-2.542,0.102-2.916c0.014-0.334,0.015-0.334,0.007-0.606c-0.036-1.436-0.331-3.312-1.531-4.095
		c-1.206-0.788-2.871-0.207-3.353-0.011c-0.834,0.34-3.174,1.259-3.98,1.42c-25.18,4.997-56.064-3.07-64.489-9.127
		c-0.443-0.318-1.837-1.356-2.865-2.121l-1.074-0.798c-3.907-2.883-10.564-0.396-10.632-0.371l-0.712-1.869
		c0.313-0.12,7.754-2.893,12.531,0.63l1.082,0.804c1.018,0.758,2.398,1.786,2.838,2.101c6.937,4.987,36.712,13.992,62.93,8.791
		c0.476-0.095,2.254-0.754,3.615-1.312c0.908-0.372,3.235-1.097,5.203,0.188c1.547,1.01,2.365,2.934,2.438,5.718
		c0.008,0.332,0.009,0.332-0.01,0.741c-0.015,0.37-0.045,1.111-0.099,2.893l-0.014,0.443
		C313.7,84.362,312.554,90.841,309.967,91.401z"/>
</g>
<g>
	<g>
		<path fill="none" stroke="#EFEFEF" stroke-width="2" stroke-miterlimit="10" d="M86.828,186.009"/>
	</g>
	<g>
		<path fill="none" stroke="#EFEFEF" stroke-width="2" stroke-miterlimit="10" d="M78.443,186.011"/>
	</g>
	<g>
		<path fill="none" stroke="#EFEFEF" stroke-width="2" stroke-miterlimit="10" d="M86.828,186.798"/>
	</g>
	<g>
		<path fill="none" stroke="#EFEFEF" stroke-width="2" stroke-miterlimit="10" d="M78.443,186.797"/>
	</g>
	<g>
		<g>
			<g>
				<path fill="#EFEFEF" d="M88.405,225.778h-7.689l-0.168-0.793c-0.034-0.156-3.342-15.99-3.105-38.985l2,0.021
					c-0.205,19.865,2.255,34.306,2.906,37.758h5.561c0.086-0.068,0.167-0.154,0.158-0.211c-0.784-4.604-2.571-17.483-2.239-37.575
					l2,0.032c-0.338,20.483,1.607,33.658,2.211,37.209c0.224,1.318-0.797,2.164-1.437,2.455L88.405,225.778z"/>
			</g>
			<g>
				<g>
					<path fill="#EFEFEF" d="M80.594,225.71c-0.041-0.031-4.26-3.354-11.727-4.307c-6.924-0.891-42.922-1.358-50.067-1.443
						c-1.735-0.025-3.158-1.209-3.811-3.162c-1.485-4.438-4.926-16.32-4.798-30.797l2,0.018
						c-0.125,14.174,3.241,25.805,4.694,30.146c0.222,0.663,0.768,1.777,1.941,1.796c10.062,0.12,43.438,0.579,50.294,1.459
						c8.066,1.029,12.543,4.585,12.73,4.736L80.594,225.71z"/>
				</g>
				<g>
					<path fill="none" stroke="#EFEFEF" stroke-width="2" stroke-miterlimit="10" d="M11.191,186.01"/>
				</g>
			</g>
		</g>
		<g>
			<g>
				<path fill="#EFEFEF" d="M85.828,186.813c-0.331-20.078,1.456-32.965,2.239-37.574c0.01-0.06-0.076-0.146-0.16-0.211h-5.561
					c-0.652,3.42-3.111,17.715-2.904,37.758l-2,0.021c-0.229-22.184,2.871-38.977,3.372-39.483l0.294-0.296h7.296l0.198,0.09
					c0.639,0.292,1.661,1.137,1.436,2.457c-0.774,4.554-2.54,17.295-2.211,37.205L85.828,186.813z"/>
			</g>
			<g>
				<g>
					<path fill="#EFEFEF" d="M10.191,186.808c-0.128-14.478,3.312-26.362,4.798-30.8c0.653-1.956,2.078-3.136,3.81-3.157
						c7.147-0.086,43.149-0.559,50.067-1.443c7.468-0.952,11.687-4.277,11.729-4.311l1.256,1.556
						c-0.187,0.151-4.665,3.71-12.731,4.738c-6.85,0.876-40.229,1.338-50.296,1.459c-1.17,0.014-1.716,1.128-1.938,1.792
						c-1.453,4.343-4.82,15.973-4.694,30.147L10.191,186.808z"/>
				</g>
				<g>
					<path fill="none" stroke="#EFEFEF" stroke-width="2" stroke-miterlimit="10" d="M11.191,186.798"/>
				</g>
			</g>
		</g>
	</g>
	<g>
		<path fill="#EFEFEF" d="M70.95,220.921c-0.072-0.341-7.145-34.52,0-69.033l1.958,0.405c-7.056,34.09-0.072,67.876,0,68.213
			L70.95,220.921z"/>
	</g>
	<g>
		<path fill="#EFEFEF" d="M94.231,225.978h-1.088c-2.447,0-4.786-1.961-5.213-4.369c-0.026-0.147-2.613-14.996-2.562-35.824l2,0.006
			c-0.05,20.652,2.506,35.322,2.532,35.469c0.261,1.475,1.746,2.721,3.243,2.721h1.088c0.496,0,0.946-0.142,1.3-0.407l1.201,1.6
			C96.029,225.698,95.164,225.978,94.231,225.978z"/>
	</g>
	<g>
		<path fill="#EFEFEF" d="M85.368,186.812c-0.051-20.827,2.536-35.674,2.562-35.822c0.208-1.173,0.862-2.272,1.842-3.095
			l1.286,1.531c-0.621,0.521-1.032,1.201-1.158,1.913c-0.026,0.146-2.582,14.833-2.532,35.468L85.368,186.812z"/>
	</g>
	<g>
		<rect x="17.599" y="217.722" fill="#EFEFEF" width="53.606" height="2"/>
	</g>
	<g>
		<rect x="14.958" y="213.413" fill="#EFEFEF" width="55.606" height="2"/>
	</g>
	<g>
		<rect x="14.599" y="209.13" fill="#EFEFEF" width="55.606" height="2"/>
	</g>
	<g>
		<rect x="13.599" y="204.794" fill="#EFEFEF" width="56.606" height="2"/>
	</g>
	<g>
		<rect x="12.958" y="200.485" fill="#EFEFEF" width="56.606" height="2"/>
	</g>
	<g>
		<rect x="12.599" y="196.203" fill="#EFEFEF" width="56.606" height="2"/>
	</g>
	<g>
		<rect x="11.599" y="191.866" fill="#EFEFEF" width="57.606" height="2"/>
	</g>
	<g>
		<rect x="11.958" y="187.56" fill="#EFEFEF" width="56.606" height="2"/>
	</g>
	<g>
		<rect x="11.599" y="183.276" fill="#EFEFEF" width="56.606" height="2"/>
	</g>
	<g>
		<rect x="11.599" y="178.938" fill="#EFEFEF" width="56.606" height="2"/>
	</g>
	<g>
		<rect x="11.958" y="174.632" fill="#EFEFEF" width="56.606" height="2"/>
	</g>
	<g>
		<rect x="12.599" y="170.349" fill="#EFEFEF" width="56.606" height="2"/>
	</g>
	<g>
		<rect x="13.599" y="166.013" fill="#EFEFEF" width="55.606" height="2"/>
	</g>
	<g>
		<rect x="14.958" y="161.704" fill="#EFEFEF" width="55.606" height="2"/>
	</g>
	<g>
		<rect x="15.599" y="157.421" fill="#EFEFEF" width="55.606" height="2"/>
	</g>
	<g>
		<rect x="17.599" y="153.085" fill="#EFEFEF" width="53.606" height="2"/>
	</g>
</g>
<g>
	<path fill="none" stroke="#FFFF00" stroke-width="2" stroke-miterlimit="10" d="M551.354,270.031"/>
</g>
<g>
	<path fill="none" stroke="#000000" stroke-width="2" stroke-miterlimit="10" d="M527.058,99.446"/>
</g>
<g>
	<path fill="#EFEFEF" d="M525.521,282.208l-1.538-0.157c-1.285-0.222-2.313-0.434-3.34-0.646c-1.191-0.246-2.425-0.502-3.941-0.747
		c-4.993-0.81-32.974-3.615-44.335-3.615l-0.272,0.001c-14.33,0.061-27.342,0.454-30.601,0.659c-3.59,0.226-7.671,0.34-12.129,0.34
		c-52.563,0-147.655-15.173-161.264-23.844c-2.095-0.705-30.894-10.396-52.871-18.064c-1.404-0.491-3.726-2.903-4.317-5.722
		c-0.869-4.135-0.833-5.754-0.831-5.821V98.446c-0.024-0.286-0.618-8.815,3.115-12.838c2.533-2.729,6.416-2.792,11.333-0.058
		c0.283,0.189,20.677,14.143,38.329,23.46c4.958,2.617,14.252,3.944,27.623,3.944c17.882,0,38.83-2.316,52.691-3.849
		c5.581-0.617,9.989-1.104,12.209-1.205c3.434-0.156,15.335-0.594,30.405-1.149c33.955-1.25,85.269-3.141,107.925-4.285
		c8.157-0.412,32.916-4.957,33.166-5.003l0.111-0.021l1.096,0.048l0.073,0.988c-0.005,0.168-0.007,0.338-0.007,0.509
		c0,9.178,7.467,16.645,16.645,16.645c3.046,0,6.025-0.83,8.616-2.4l1.519-0.92v1.947l-2.42,153.02l-1.516-0.98
		c-2.674-1.73-5.782-2.646-8.988-2.646c-9.143,0-16.581,7.438-16.581,16.578c0,0.271,0.002,0.535,0.021,0.801L525.521,282.208z
		 M472.366,275.043c11.444,0,39.626,2.825,44.655,3.642c1.56,0.254,2.812,0.512,4.025,0.762c0.766,0.158,1.531,0.316,2.38,0.476
		c0.164-10.104,8.436-18.271,18.578-18.271c3.002,0,5.929,0.717,8.561,2.086l2.34-147.956c-2.518,1.216-5.288,1.852-8.11,1.852
		c-10.065,0-18.296-8.02-18.634-18.006c-4.937,0.895-24.95,4.463-32.349,4.836c-22.671,1.146-73.992,3.036-107.954,4.287
		c-15.063,0.555-26.963,0.993-30.389,1.149c-2.154,0.098-6.533,0.582-12.078,1.195c-13.906,1.537-34.918,3.86-52.912,3.86
		c-13.892,0-23.233-1.365-28.556-4.175c-17.756-9.372-38.242-23.389-38.447-23.53c-3.87-2.143-6.902-2.341-8.813-0.282
		c-3.141,3.381-2.592,11.325-2.586,11.405l0.003,126.25c0,0.038-0.018,1.541,0.789,5.382c0.469,2.235,2.353,4.011,3.019,4.243
		c22.694,7.92,52.668,17.996,52.968,18.097l0.23,0.112c12.694,8.331,109.041,23.588,160.277,23.588
		c4.417,0,8.455-0.113,12.004-0.336c3.279-0.206,16.349-0.604,30.718-0.663L472.366,275.043z"/>
</g>
</svg>
