<?xml version="1.0" encoding="utf-8"?>
<!-- Generator: Adobe Illustrator 13.0.0, SVG Export Plug-In . SVG Version: 6.00 Build 14948)  -->
<!DOCTYPE svg [
	<!ENTITY ns_flows "http://ns.adobe.com/Flows/1.0/">
	<!ENTITY ns_extend "http://ns.adobe.com/Extensibility/1.0/">
	<!ENTITY ns_ai "http://ns.adobe.com/AdobeIllustrator/10.0/">
	<!ENTITY ns_graphs "http://ns.adobe.com/Graphs/1.0/">
	<!ENTITY ns_vars "http://ns.adobe.com/Variables/1.0/">
	<!ENTITY ns_imrep "http://ns.adobe.com/ImageReplacement/1.0/">
	<!ENTITY ns_sfw "http://ns.adobe.com/SaveForWeb/1.0/">
	<!ENTITY ns_custom "http://ns.adobe.com/GenericCustomNamespace/1.0/">
	<!ENTITY ns_adobe_xpath "http://ns.adobe.com/XPath/1.0/">
]>
<svg version="1.2" baseProfile="tiny"
	 id="Layer_3" xmlns:x="&ns_extend;" xmlns:i="&ns_ai;" xmlns:graph="&ns_graphs;" xmlns:rdf="http://www.w3.org/1999/02/22-rdf-syntax-ns#" xmlns:dc="http://purl.org/dc/elements/1.1/" xmlns:cc="http://creativecommons.org/ns#"
	 xmlns="http://www.w3.org/2000/svg" xmlns:xlink="http://www.w3.org/1999/xlink" xmlns:a="http://ns.adobe.com/AdobeSVGViewerExtensions/3.0/"
	 x="0px" y="0px" width="598.189px" height="350.26px" viewBox="0 0 598.189 350.26" xml:space="preserve">
<metadata  id="metadata55">
	<rdf:RDF>
		<cc:Work  rdf:about="">
			<dc:format>image/svg+xml</dc:format>
			<dc:type  rdf:resource="http://purl.org/dc/dcmitype/StillImage"></dc:type>
			<dc:title></dc:title>
		</cc:Work>
	</rdf:RDF>
	<sfw  xmlns="&ns_sfw;">
		<slices></slices>
		<sliceSourceBounds  x="689.569" y="401.668" width="533.74" height="268.797" bottomLeftOrigin="true"></sliceSourceBounds>
	</sfw>
</metadata>
<path id="path3" fill="#F4F4F4" d="M63.494,154.659l-0.255,0.255c0,0-15.638,15.388-17.58,17.382
	c-0.785,0.804-1.243,1.449-1.5,1.925c-0.256,0.476-0.311,0.905-0.311,0.905l-0.028,0.057v0.058v2.095v0.906h0.906h336.109h0.906
	v-0.906v-2.039c-0.002-0.002-0.019,0.016,0.113-0.226c0.164-0.303,0.502-0.824,1.188-1.529c1.795-1.841,17.552-17.325,17.552-17.325
	l1.585-1.557h-2.208H63.861H63.494z M64.258,156.471h333.477c-2.341,2.302-14.228,14.011-15.994,15.825
	c-0.784,0.804-1.216,1.449-1.472,1.925c-0.257,0.476-0.34,0.905-0.34,0.905v0.057v0.058v1.188H45.63v-1.075
	c0,0-0.022,0.019,0.142-0.283c0.164-0.303,0.502-0.824,1.189-1.529C48.728,171.728,63.811,156.911,64.258,156.471z"/>
<path id="path5" fill="#F4F4F4" d="M96.841,154.914c0,0-15.638,15.388-17.58,17.382c-0.785,0.804-1.215,1.449-1.472,1.925
	c-0.257,0.476-0.339,0.905-0.339,0.905v0.057v0.058v2.095h1.812v-2.039c-0.001-0.002-0.017,0.016,0.113-0.226
	c0.164-0.303,0.501-0.824,1.189-1.529c1.792-1.84,17.552-17.325,17.552-17.325L96.841,154.914z"/>
<path id="path7" fill="#F4F4F4" d="M130.443,154.914c0,0-15.609,15.388-17.551,17.382c-0.785,0.804-1.244,1.449-1.5,1.925
	c-0.257,0.476-0.34,0.905-0.34,0.905v0.057v0.058v2.095h1.813v-1.981c0,0-0.051,0.019,0.113-0.283
	c0.164-0.303,0.501-0.824,1.189-1.529c1.792-1.84,17.552-17.325,17.552-17.325L130.443,154.914z"/>
<path id="path9" fill="#F4F4F4" d="M164.046,154.914c0,0-15.609,15.388-17.551,17.382c-0.785,0.804-1.243,1.449-1.5,1.925
	c-0.257,0.476-0.34,0.905-0.34,0.905v0.057v0.058v2.095h1.813v-1.981c0,0-0.022,0.019,0.141-0.283
	c0.164-0.303,0.502-0.824,1.189-1.529c1.792-1.84,17.523-17.325,17.523-17.325L164.046,154.914z"/>
<path id="path11" fill="#F4F4F4" d="M197.677,154.914c0,0-15.638,15.388-17.58,17.382c-0.785,0.804-1.244,1.449-1.5,1.925
	c-0.257,0.476-0.312,0.905-0.312,0.905l-0.029,0.057v0.058v2.095h1.812v-1.981c0,0-0.022,0.019,0.142-0.283
	c0.164-0.303,0.501-0.824,1.189-1.529c1.792-1.84,17.551-17.325,17.551-17.325L197.677,154.914z"/>
<path id="path13" fill="#F4F4F4" d="M231.28,154.914c0,0-15.639,15.389-17.58,17.382c-0.784,0.804-1.215,1.449-1.472,1.925
	c-0.257,0.476-0.339,0.905-0.339,0.905v0.057v0.058v2.095h1.812v-2.039c-0.002-0.002-0.018,0.016,0.113-0.226
	c0.163-0.303,0.502-0.824,1.189-1.529c1.794-1.841,17.551-17.325,17.551-17.325L231.28,154.914z"/>
<path id="path15" fill="#F4F4F4" d="M264.882,154.914c0,0-15.609,15.388-17.551,17.382c-0.785,0.804-1.243,1.449-1.5,1.925
	c-0.257,0.476-0.339,0.905-0.339,0.905v0.057v0.058v2.095h1.812v-2.039c-0.002-0.002-0.018,0.016,0.113-0.226
	c0.164-0.303,0.501-0.824,1.189-1.529c1.792-1.84,17.551-17.325,17.551-17.325L264.882,154.914z"/>
<path id="path17" fill="#F4F4F4" d="M298.484,154.914c0,0-15.609,15.388-17.551,17.382c-0.783,0.804-1.243,1.449-1.5,1.925
	s-0.34,0.905-0.34,0.905v0.057v0.058v2.095h1.812v-1.981c0,0-0.021,0.019,0.142-0.283c0.163-0.303,0.501-0.824,1.189-1.529
	c1.794-1.841,17.522-17.325,17.522-17.325L298.484,154.914z"/>
<path id="path19" fill="#F4F4F4" d="M332.115,154.914c0,0-15.637,15.388-17.58,17.382c-0.783,0.804-1.243,1.449-1.5,1.925
	s-0.312,0.905-0.312,0.905l-0.028,0.057v0.058v2.095h1.812v-1.981c0,0-0.021,0.019,0.142-0.283c0.164-0.303,0.502-0.824,1.188-1.529
	c1.793-1.84,17.523-17.325,17.523-17.325L332.115,154.914L332.115,154.914z"/>
<path id="path21" fill="#F4F4F4" d="M365.717,154.914c0,0-15.637,15.388-17.579,17.382c-0.784,0.804-1.214,1.449-1.473,1.925
	c-0.256,0.476-0.34,0.905-0.34,0.905l-0.027,0.057v0.058v2.095h1.812v-1.981c0,0-0.021,0.019,0.142-0.283
	c0.164-0.303,0.503-0.824,1.189-1.529c1.791-1.84,17.551-17.325,17.551-17.325L365.717,154.914z"/>
<path id="path23" fill="#F4F4F4" d="M132.454,44.283c0,0-2.852-0.229-5.464,2.208c-0.007,0.007-0.188,0.161-0.198,0.169
	c-0.283-0.681-0.678-1.321-1.331-1.783c-0.545-0.385-1.279-0.588-2.039-0.453c-0.759,0.135-1.509,0.563-2.265,1.274l-0.085,0.084
	c-0.668,0.626-5.747,5.241-13.022,11.833c-7.324,6.637-16.839,15.246-26.271,23.78c-18.863,17.068-37.396,33.829-37.396,33.829
	l-1.755,1.585h2.378h5.832h0.34l0.255-0.255c0,0,18.606-16.634,37.509-33.546c9.451-8.456,18.989-16.976,26.299-23.524
	c7.311-6.549,12.33-11.071,12.994-11.691h0.029c2.111-1.958,3.991-1.699,3.991-1.699L132.454,44.283z M123.734,46.208
	c0.295-0.052,0.463-0.012,0.68,0.142c0.367,0.259,0.691,0.997,0.877,1.67c-1.469,1.331-4.915,4.444-11.267,10.135
	c-7.31,6.548-16.848,15.069-26.299,23.525c-18.774,16.796-37.005,33.096-37.254,33.319h-3.143
	c1.593-1.44,17.676-15.991,35.669-32.272c9.431-8.535,18.946-17.142,26.271-23.78c7.325-6.637,12.406-11.259,13.135-11.946
	C122.989,46.451,123.439,46.261,123.734,46.208z"/>
<path id="path25" fill="#F4F4F4" d="M140.72,44.283c0,0-2.824-0.229-5.435,2.208c-0.008,0.007-0.188,0.161-0.199,0.169
	c-0.282-0.681-0.677-1.321-1.33-1.783c-0.545-0.385-1.308-0.588-2.066-0.453c-0.759,0.135-1.481,0.563-2.236,1.274
	c-0.61,0.574-5.811,5.281-13.135,11.917c-7.325,6.637-16.839,15.246-26.271,23.78c-18.863,17.068-37.396,33.829-37.396,33.829
	l-1.726,1.585h2.349h5.832h0.34l0.254-0.255c0,0,18.607-16.634,37.51-33.546c9.451-8.456,18.988-16.976,26.299-23.524
	c7.31-6.549,12.329-11.071,12.994-11.691l0.113-0.085c2.07-1.859,3.906-1.614,3.906-1.614L140.72,44.283z M132.029,46.208
	c0.295-0.052,0.463-0.012,0.679,0.142c0.365,0.258,0.662,1.001,0.85,1.67c-1.475,1.337-4.923,4.452-11.267,10.135
	c-7.31,6.548-16.82,15.069-26.271,23.525c-18.774,16.796-37.005,33.096-37.255,33.319h-3.17c1.593-1.44,17.676-15.991,35.669-32.272
	c9.431-8.535,18.945-17.142,26.271-23.78c7.324-6.637,12.405-11.259,13.135-11.946C131.255,46.451,131.733,46.261,132.029,46.208z"
	/>
<path id="path27" fill="#F4F4F4" d="M149.014,44.283c0,0-2.852-0.229-5.463,2.208c-0.008,0.007-0.188,0.161-0.198,0.169
	c-0.283-0.681-0.677-1.321-1.331-1.783c-0.545-0.385-1.279-0.588-2.039-0.453c-0.759,0.135-1.509,0.563-2.264,1.274
	c-0.611,0.574-5.783,5.281-13.107,11.917c-7.324,6.637-16.839,15.246-26.271,23.78c-18.862,17.068-37.396,33.829-37.396,33.829
	l-1.755,1.585h2.35H67.4h0.34l0.255-0.255c0,0,18.607-16.634,37.509-33.546c9.451-8.456,18.96-16.976,26.271-23.524
	c7.311-6.549,12.358-11.071,13.022-11.691c2.119-1.978,4.02-1.699,4.02-1.699L149.014,44.283z M140.295,46.208
	c0.295-0.052,0.463-0.012,0.68,0.142c0.367,0.259,0.691,0.997,0.877,1.67c-1.469,1.331-4.915,4.444-11.267,10.135
	c-7.31,6.548-16.848,15.069-26.299,23.525c-18.773,16.796-37.005,33.096-37.254,33.319H63.89
	c1.593-1.44,17.676-15.991,35.669-32.272c9.431-8.535,18.946-17.142,26.271-23.78c7.085-6.42,11.731-10.639,12.711-11.55
	l0.424-0.396C139.549,46.451,140,46.261,140.295,46.208z"/>
<path id="path29" fill="#F4F4F4" d="M157.28,44.283c0,0-2.824-0.229-5.435,2.208c-0.008,0.007-0.188,0.161-0.198,0.169
	c-0.283-0.681-0.677-1.321-1.331-1.783c-0.545-0.385-1.308-0.588-2.066-0.453c-0.759,0.135-1.509,0.563-2.265,1.274
	c-0.61,0.574-5.782,5.281-13.107,11.917c-7.324,6.637-16.839,15.246-26.27,23.78c-18.862,17.068-37.396,33.829-37.396,33.829
	l-1.727,1.585h2.349h5.832h0.34l0.255-0.255c0,0,18.607-16.634,37.509-33.546c9.451-8.456,18.989-16.976,26.299-23.524
	c7.31-6.549,12.329-11.071,12.994-11.691c2.119-1.978,4.02-1.699,4.02-1.699L157.28,44.283z M148.562,46.208
	c0.295-0.052,0.491-0.012,0.707,0.142c0.373,0.263,0.666,1.017,0.85,1.698c-1.481,1.342-4.931,4.43-11.267,10.106
	c-7.31,6.548-16.82,15.069-26.271,23.525c-18.774,16.796-37.005,33.096-37.254,33.319h-3.17c1.593-1.44,17.676-15.991,35.669-32.272
	c9.431-8.535,18.945-17.142,26.271-23.78c7.325-6.637,12.405-11.259,13.135-11.946C147.815,46.451,148.266,46.261,148.562,46.208z"
	/>
<path id="path31" fill="#F4F4F4" d="M165.575,44.283c0,0-2.853-0.229-5.464,2.208c-0.008,0.007-0.188,0.161-0.198,0.169
	c-0.283-0.681-0.677-1.321-1.331-1.783c-0.545-0.385-1.279-0.588-2.038-0.453c-0.759,0.135-1.509,0.563-2.265,1.274
	c-0.61,0.574-5.783,5.281-13.107,11.917c-7.324,6.637-16.839,15.246-26.271,23.78c-18.863,17.068-37.396,33.829-37.396,33.829
	l-1.755,1.585h2.35h5.832H84.3l0.255-0.255c0,0,18.607-16.634,37.509-33.546c9.451-8.456,18.96-16.976,26.271-23.524
	s12.357-11.071,13.021-11.691c2.119-1.978,3.992-1.699,3.992-1.699L165.575,44.283z M156.855,46.208
	c0.295-0.052,0.463-0.012,0.68,0.142c0.365,0.258,0.662,1.001,0.849,1.67c-1.475,1.337-4.922,4.452-11.267,10.135
	c-7.31,6.548-16.82,15.069-26.271,23.525c-18.774,16.796-37.005,33.096-37.255,33.319H80.45
	c1.594-1.441,17.648-15.991,35.641-32.272c9.432-8.535,18.974-17.142,26.299-23.78c7.086-6.42,11.731-10.639,12.711-11.55
	l0.424-0.396C156.11,46.451,156.56,46.261,156.855,46.208z"/>
<path id="path33" fill="#F4F4F4" d="M173.841,44.283c0,0-2.823-0.229-5.435,2.208c-0.009,0.008-0.215,0.188-0.227,0.198
	c-0.283-0.691-0.669-1.344-1.331-1.812c-0.545-0.385-1.279-0.588-2.038-0.453c-0.759,0.135-1.509,0.563-2.265,1.274
	c-0.61,0.574-5.782,5.281-13.107,11.917c-7.324,6.637-16.839,15.246-26.271,23.78c-18.861,17.068-37.396,33.829-37.396,33.829
	l-1.727,1.585h2.35h5.832h0.34l0.255-0.255c0,0,18.606-16.634,37.509-33.546c9.452-8.456,18.989-16.976,26.299-23.524
	c7.31-6.549,12.329-11.071,12.994-11.691c2.119-1.978,4.02-1.699,4.02-1.699L173.841,44.283z M165.122,46.208
	c0.295-0.052,0.462-0.012,0.679,0.142c0.372,0.263,0.694,1.017,0.877,1.698c-1.481,1.342-4.931,4.43-11.267,10.106
	c-7.31,6.548-16.848,15.069-26.299,23.525c-18.773,16.796-37.004,33.096-37.254,33.319h-3.142
	c1.593-1.44,17.676-15.991,35.669-32.272c9.431-8.535,18.945-17.142,26.271-23.78c7.325-6.637,12.405-11.259,13.135-11.946
	C164.376,46.451,164.826,46.261,165.122,46.208z"/>
<path id="path35" fill="#F4F4F4" d="M182.107,44.283c0,0-2.824-0.229-5.435,2.208c-0.008,0.007-0.188,0.161-0.198,0.169
	c-0.283-0.681-0.678-1.321-1.331-1.783c-0.545-0.385-1.279-0.588-2.039-0.453c-0.759,0.135-1.509,0.563-2.265,1.274
	c-0.61,0.574-5.811,5.281-13.135,11.917c-7.325,6.637-16.839,15.246-26.271,23.78c-18.862,17.068-37.368,33.829-37.368,33.829
	l-1.755,1.585h2.349h5.832h0.34l0.283-0.255c0,0,18.579-16.634,37.481-33.546c9.451-8.456,18.988-16.976,26.299-23.524
	s12.358-11.072,13.022-11.691c2.119-1.978,3.992-1.699,3.992-1.699L182.107,44.283z M173.416,46.208
	c0.295-0.052,0.463-0.012,0.68,0.142c0.364,0.258,0.661,1.001,0.849,1.67c-1.475,1.337-4.922,4.452-11.267,10.135
	c-7.31,6.548-16.82,15.069-26.271,23.525c-18.774,16.796-37.005,33.096-37.254,33.319h-3.143
	c1.593-1.441,17.649-15.991,35.641-32.272c9.431-8.535,18.946-17.142,26.271-23.78c7.085-6.42,11.76-10.639,12.739-11.55
	l0.425-0.396C172.671,46.451,173.122,46.261,173.416,46.208z"/>
<path id="path37" fill="#F4F4F4" d="M190.402,44.283c0,0-2.853-0.229-5.464,2.208c-0.008,0.007-0.188,0.161-0.198,0.169
	c-0.283-0.681-0.677-1.321-1.331-1.783c-0.545-0.385-1.279-0.588-2.038-0.453c-0.759,0.135-1.509,0.563-2.265,1.274
	c-0.611,0.574-5.783,5.281-13.107,11.917c-7.324,6.637-16.839,15.246-26.271,23.78c-18.861,17.068-37.396,33.829-37.396,33.829
	l-1.755,1.585h2.378h5.832h0.339l0.255-0.255c0,0,18.607-16.634,37.509-33.546c9.452-8.456,18.961-16.976,26.271-23.524
	c7.311-6.549,12.358-11.071,13.022-11.691c2.119-1.978,4.02-1.699,4.02-1.699L190.402,44.283z M181.683,46.208
	c0.295-0.052,0.462-0.012,0.679,0.142c0.367,0.259,0.691,0.997,0.877,1.67c-1.469,1.331-4.915,4.444-11.267,10.135
	c-7.31,6.548-16.848,15.069-26.299,23.525c-18.773,16.796-37.005,33.096-37.254,33.319h-3.142
	c1.593-1.44,17.676-15.991,35.669-32.272c9.432-8.535,18.946-17.142,26.271-23.78c7.325-6.637,12.405-11.259,13.135-11.946
	C180.937,46.451,181.387,46.261,181.683,46.208z"/>
<path id="path39" fill="#F4F4F4" d="M198.611,44.283c0,0-2.853-0.229-5.464,2.208c-0.008,0.007-0.188,0.161-0.198,0.169
	c-0.283-0.681-0.677-1.321-1.331-1.783c-0.545-0.385-1.279-0.588-2.038-0.453c-0.759,0.135-1.509,0.563-2.265,1.274
	c-0.61,0.574-5.811,5.281-13.135,11.917c-7.324,6.637-16.811,15.246-26.242,23.78c-18.862,17.068-37.396,33.829-37.396,33.829
	l-1.755,1.585h2.35h5.832h0.339l0.283-0.255c0,0,18.607-16.634,37.509-33.546c9.451-8.456,18.96-16.976,26.271-23.524
	c7.311-6.549,12.358-11.072,13.022-11.691c2.118-1.978,3.991-1.699,3.991-1.699L198.611,44.283z M189.892,46.208
	c0.296-0.052,0.463-0.012,0.68,0.142c0.365,0.258,0.662,1.001,0.85,1.67c-1.476,1.337-4.923,4.452-11.267,10.135
	c-7.31,6.548-16.82,15.069-26.271,23.525c-18.773,16.796-37.005,33.096-37.254,33.319h-3.142
	c1.593-1.441,17.648-15.991,35.641-32.272c9.431-8.535,18.946-17.142,26.271-23.78c7.325-6.637,12.434-11.259,13.164-11.946
	C189.146,46.451,189.596,46.261,189.892,46.208z"/>
<path id="path41" fill="#F4F4F4" d="M206.877,44.283c0,0-2.852-0.229-5.463,2.208c-0.008,0.007-0.188,0.161-0.199,0.169
	c-0.283-0.681-0.677-1.321-1.331-1.783c-0.545-0.385-1.279-0.588-2.038-0.453c-0.759,0.135-1.509,0.563-2.264,1.274
	c-0.611,0.574-5.783,5.281-13.107,11.917c-7.325,6.637-16.839,15.246-26.271,23.78c-18.862,17.068-37.396,33.829-37.396,33.829
	l-1.727,1.585h2.35h5.831h0.34l0.254-0.255c0,0,18.607-16.634,37.509-33.546c9.451-8.456,18.989-16.976,26.299-23.524
	s12.33-11.071,12.994-11.691c2.119-1.978,4.02-1.699,4.02-1.699L206.877,44.283z M198.158,46.208
	c0.295-0.052,0.462-0.012,0.679,0.142c0.367,0.259,0.691,0.997,0.877,1.67c-1.469,1.331-4.915,4.444-11.267,10.135
	c-7.31,6.548-16.848,15.069-26.298,23.525c-18.774,16.796-37.005,33.096-37.255,33.319h-3.142
	c1.593-1.44,17.676-15.991,35.669-32.272c9.431-8.535,18.945-17.142,26.271-23.78c7.325-6.637,12.406-11.259,13.135-11.946
	C197.413,46.451,197.863,46.261,198.158,46.208z"/>
<path id="path43" fill="#F4F4F4" d="M215.144,44.283c0,0-2.824-0.229-5.436,2.208c-0.008,0.007-0.188,0.161-0.198,0.169
	c-0.284-0.681-0.678-1.321-1.331-1.783c-0.545-0.385-1.308-0.588-2.067-0.453c-0.759,0.135-1.48,0.563-2.236,1.274
	c-0.61,0.574-5.811,5.281-13.135,11.917c-7.324,6.637-16.839,15.246-26.271,23.78c-18.862,17.068-37.367,33.829-37.367,33.829
	l-1.755,1.585h2.35h5.832h0.339l0.255-0.255c0,0,18.607-16.634,37.509-33.546c9.451-8.456,18.989-16.976,26.299-23.524
	c7.311-6.549,12.358-11.071,13.022-11.691c2.118-1.978,3.991-1.699,3.991-1.699L215.144,44.283z M206.453,46.208
	c0.295-0.052,0.462-0.012,0.679,0.142c0.365,0.258,0.662,1.001,0.85,1.67c-1.475,1.337-4.923,4.452-11.267,10.135
	c-7.31,6.548-16.82,15.069-26.271,23.525c-18.773,16.796-37.005,33.096-37.254,33.319h-3.171
	c1.593-1.44,17.676-15.991,35.669-32.272c9.431-8.535,18.946-17.142,26.271-23.78c7.085-6.42,11.76-10.639,12.739-11.55l0.424-0.396
	C205.707,46.451,206.157,46.261,206.453,46.208z"/>
<path id="path45" fill="#F4F4F4" d="M223.438,44.283c0,0-2.852-0.229-5.463,2.208c-0.008,0.007-0.188,0.161-0.199,0.169
	c-0.283-0.681-0.677-1.321-1.331-1.783c-0.545-0.385-1.279-0.588-2.038-0.453c-0.759,0.135-1.51,0.563-2.265,1.274
	c-0.61,0.574-5.783,5.281-13.106,11.917c-7.325,6.637-16.839,15.246-26.271,23.78c-18.863,17.068-37.396,33.829-37.396,33.829
	l-1.755,1.585h2.35h5.86h0.339l0.254-0.255c0,0,18.607-16.634,37.51-33.546c9.451-8.456,18.96-16.976,26.271-23.524
	c7.31-6.549,12.357-11.071,13.022-11.691c2.119-1.978,4.02-1.699,4.02-1.699L223.438,44.283z M214.719,46.208
	c0.295-0.052,0.462-0.012,0.679,0.142c0.368,0.259,0.691,0.997,0.878,1.67c-1.47,1.331-4.915,4.444-11.267,10.135
	c-7.31,6.548-16.848,15.069-26.298,23.525c-18.774,16.796-37.005,33.096-37.255,33.319h-3.142
	c1.593-1.44,17.676-15.991,35.669-32.272c9.432-8.535,18.945-17.142,26.271-23.78c7.325-6.637,12.406-11.259,13.135-11.946
	C213.973,46.451,214.423,46.261,214.719,46.208z"/>
<path id="path47" fill="#F4F4F4" d="M231.704,44.283c0,0-2.824-0.229-5.436,2.208c-0.007,0.007-0.188,0.161-0.198,0.169
	c-0.284-0.681-0.678-1.321-1.331-1.783c-0.545-0.385-1.308-0.588-2.067-0.453c-0.759,0.135-1.48,0.563-2.236,1.274
	c-0.61,0.574-5.811,5.281-13.135,11.917c-7.324,6.637-16.839,15.246-26.271,23.78c-18.863,17.068-37.396,33.829-37.396,33.829
	l-1.727,1.585h2.35h5.832h0.34l0.255-0.255c0,0,18.606-16.634,37.509-33.546c9.452-8.456,18.989-16.976,26.299-23.524
	c7.311-6.549,12.33-11.071,12.994-11.691c2.119-1.978,4.02-1.699,4.02-1.699L231.704,44.283z M223.013,46.208
	c0.295-0.052,0.463-0.012,0.68,0.142c0.365,0.258,0.661,1.001,0.849,1.67c-1.475,1.337-4.923,4.452-11.267,10.135
	c-7.31,6.548-16.819,15.069-26.271,23.525C168.23,98.476,150,114.776,149.75,114.999h-3.171c1.593-1.44,17.676-15.991,35.669-32.272
	c9.431-8.535,18.946-17.142,26.271-23.78c7.325-6.637,12.406-11.259,13.135-11.946C222.239,46.451,222.718,46.261,223.013,46.208z"
	/>
<path id="path49" fill="#F4F4F4" d="M239.999,44.283c0,0-2.852-0.229-5.463,2.208c-0.008,0.007-0.188,0.161-0.198,0.169
	c-0.283-0.681-0.678-1.321-1.331-1.783c-0.545-0.385-1.279-0.588-2.038-0.453c-0.759,0.135-1.509,0.563-2.265,1.274
	c-0.609,0.574-5.782,5.281-13.106,11.917c-7.325,6.637-16.839,15.246-26.271,23.78c-18.863,17.068-37.396,33.829-37.396,33.829
	l-1.755,1.585h2.35h5.832h0.368l0.254-0.255c0,0,18.607-16.634,37.51-33.546c9.451-8.456,18.96-16.976,26.271-23.524
	c7.31-6.549,12.357-11.071,13.022-11.691c2.118-1.978,4.02-1.699,4.02-1.699L239.999,44.283z M231.28,46.208
	c0.295-0.052,0.462-0.012,0.679,0.142c0.367,0.259,0.691,0.997,0.877,1.67c-1.469,1.331-4.916,4.444-11.267,10.135
	c-7.31,6.548-16.849,15.069-26.299,23.525c-18.773,16.796-37.004,33.096-37.254,33.319h-3.143
	c1.593-1.44,17.677-15.991,35.669-32.272c9.431-8.535,18.945-17.142,26.271-23.78c7.324-6.637,12.405-11.259,13.135-11.946
	C230.534,46.451,230.984,46.261,231.28,46.208z"/>
<path id="path51" fill="#F4F4F4" d="M248.265,44.283c0,0-2.824-0.229-5.435,2.208c-0.009,0.008-0.215,0.188-0.227,0.198
	c-0.283-0.691-0.669-1.344-1.331-1.812c-0.545-0.385-1.279-0.588-2.038-0.453s-1.509,0.563-2.265,1.274
	c-0.611,0.574-5.783,5.281-13.107,11.917c-7.324,6.637-16.839,15.246-26.271,23.78c-18.862,17.068-37.396,33.829-37.396,33.829
	l-1.727,1.585h2.35h5.832h0.339l0.255-0.255c0,0,18.607-16.634,37.509-33.546c9.452-8.456,18.989-16.976,26.299-23.524
	c7.311-6.549,12.33-11.071,12.994-11.691c2.119-1.978,4.02-1.699,4.02-1.699L248.265,44.283z M239.545,46.208
	c0.295-0.052,0.462-0.012,0.68,0.142c0.373,0.263,0.694,1.017,0.877,1.698c-1.482,1.342-4.931,4.43-11.267,10.106
	c-7.31,6.548-16.849,15.069-26.299,23.525c-18.773,16.796-37.005,33.096-37.255,33.319h-3.142
	c1.593-1.44,17.676-15.991,35.669-32.272c9.432-8.535,18.946-17.142,26.271-23.78c7.325-6.637,12.406-11.259,13.135-11.946
	C238.8,46.451,239.25,46.261,239.545,46.208z"/>
<path id="path53" fill="#F4F4F4" d="M256.531,44.283c0,0-2.824-0.229-5.435,2.208c-0.008,0.007-0.188,0.161-0.198,0.169
	c-0.283-0.681-0.678-1.321-1.331-1.783c-0.545-0.385-1.279-0.588-2.038-0.453c-0.759,0.135-1.509,0.563-2.265,1.274
	c-0.61,0.574-5.811,5.281-13.135,11.917c-7.325,6.637-16.84,15.246-26.271,23.78c-18.862,17.068-37.368,33.829-37.368,33.829
	l-1.755,1.585h2.35h5.832h0.34l0.283-0.255c0,0,18.579-16.634,37.481-33.546c9.451-8.456,18.988-16.976,26.299-23.524
	c7.31-6.549,12.357-11.071,13.022-11.691c2.118-1.978,3.992-1.699,3.992-1.699L256.531,44.283z M247.84,46.208
	c0.295-0.052,0.462-0.012,0.679,0.142c0.365,0.258,0.662,1.001,0.849,1.67c-1.475,1.337-4.922,4.452-11.267,10.135
	c-7.31,6.548-16.82,15.069-26.271,23.525c-18.773,16.796-37.004,33.096-37.254,33.319h-3.142
	c1.593-1.441,17.647-15.991,35.641-32.272c9.431-8.535,18.945-17.142,26.271-23.78c7.085-6.42,11.759-10.639,12.739-11.55
	l0.425-0.396C247.094,46.451,247.545,46.261,247.84,46.208z"/>
<path id="path55" fill="#F4F4F4" d="M264.91,44.283c0,0-2.853-0.229-5.464,2.208c-0.007,0.007-0.188,0.161-0.198,0.169
	c-0.283-0.681-0.677-1.321-1.331-1.783c-0.545-0.385-1.279-0.588-2.038-0.453c-0.759,0.135-1.509,0.563-2.265,1.274
	c-0.61,0.574-5.782,5.281-13.106,11.917c-7.325,6.637-16.839,15.246-26.271,23.78c-18.863,17.068-37.396,33.829-37.396,33.829
	l-1.755,1.585h2.35h5.832h0.369l0.254-0.255c0,0,18.607-16.634,37.509-33.546c9.451-8.456,18.96-16.976,26.27-23.524
	c7.311-6.549,12.358-11.072,13.022-11.691c2.118-1.978,4.02-1.699,4.02-1.699L264.91,44.283z M256.191,46.208
	c0.295-0.052,0.462-0.012,0.679,0.142c0.367,0.259,0.691,0.997,0.877,1.67c-1.47,1.332-4.915,4.444-11.267,10.135
	c-7.31,6.548-16.848,15.069-26.299,23.525c-18.773,16.796-37.004,33.096-37.254,33.319h-3.142
	c1.592-1.44,17.676-15.991,35.669-32.272c9.431-8.535,18.945-17.142,26.271-23.78c7.085-6.42,11.731-10.639,12.71-11.55l0.425-0.396
	C255.445,46.451,255.896,46.261,256.191,46.208z"/>
<path id="path57" fill="#F4F4F4" d="M273.176,44.283c0,0-2.824-0.229-5.435,2.208c-0.009,0.008-0.215,0.188-0.227,0.198
	c-0.283-0.69-0.67-1.345-1.33-1.812c-0.546-0.385-1.28-0.588-2.039-0.453c-0.759,0.135-1.509,0.563-2.265,1.274
	c-0.61,0.574-5.783,5.281-13.107,11.917c-7.325,6.637-16.839,15.246-26.271,23.78c-18.862,17.068-37.396,33.829-37.396,33.829
	l-1.726,1.585h2.35h5.832h0.339l0.255-0.255c0,0,18.607-16.634,37.509-33.546c9.451-8.456,18.989-16.976,26.299-23.524
	c7.311-6.549,12.329-11.071,12.994-11.691c2.119-1.978,4.02-1.699,4.02-1.699L273.176,44.283z M264.458,46.208
	c0.295-0.052,0.491-0.012,0.708,0.142c0.372,0.263,0.665,1.017,0.85,1.698c-1.481,1.341-4.931,4.43-11.267,10.106
	c-7.31,6.548-16.849,15.069-26.299,23.525c-18.774,16.796-36.977,33.096-37.227,33.319h-3.17
	c1.593-1.44,17.677-15.991,35.669-32.272c9.431-8.535,18.946-17.142,26.271-23.78c7.325-6.637,12.405-11.259,13.135-11.946
	C263.712,46.451,264.162,46.261,264.458,46.208z"/>
<path id="path59" fill="#F4F4F4" d="M281.471,44.283c0,0-2.851-0.229-5.463,2.208c-0.008,0.007-0.188,0.161-0.198,0.169
	c-0.284-0.681-0.677-1.321-1.331-1.783c-0.545-0.385-1.279-0.588-2.038-0.453s-1.509,0.563-2.265,1.274
	c-0.611,0.574-5.783,5.281-13.107,11.917c-7.324,6.637-16.839,15.246-26.271,23.78c-18.862,17.068-37.396,33.829-37.396,33.829
	l-1.755,1.585h2.35h5.832h0.339l0.283-0.255c0,0,18.607-16.634,37.509-33.546c9.452-8.456,18.96-16.976,26.271-23.524
	c7.311-6.549,12.358-11.072,13.022-11.691c2.12-1.979,3.991-1.699,3.991-1.699L281.471,44.283z M272.752,46.208
	c0.295-0.052,0.462-0.012,0.679,0.142c0.365,0.258,0.662,1.001,0.85,1.67c-1.476,1.337-4.923,4.452-11.267,10.135
	c-7.31,6.548-16.82,15.069-26.271,23.525c-18.773,16.796-37.004,33.096-37.254,33.319h-3.142
	c1.593-1.441,17.647-15.991,35.641-32.272c9.431-8.535,18.946-17.142,26.271-23.78c7.085-6.42,11.76-10.639,12.739-11.55
	l0.425-0.396C272.006,46.451,272.456,46.261,272.752,46.208z"/>
<path id="path61" fill="#F4F4F4" d="M289.736,44.283c0,0-2.851-0.229-5.463,2.208c-0.008,0.007-0.188,0.161-0.198,0.169
	c-0.283-0.681-0.677-1.321-1.33-1.783c-0.546-0.385-1.28-0.588-2.039-0.453c-0.759,0.135-1.509,0.563-2.265,1.274
	c-0.61,0.574-5.783,5.281-13.107,11.917c-7.325,6.637-16.839,15.246-26.271,23.78c-18.863,17.068-37.396,33.829-37.396,33.829
	l-1.727,1.585h2.349h5.832h0.339l0.255-0.255c0,0,18.607-16.634,37.509-33.546c9.451-8.456,18.988-16.976,26.299-23.524
	s12.329-11.071,12.994-11.691c2.119-1.978,4.02-1.699,4.02-1.699L289.736,44.283z M281.018,46.208
	c0.295-0.053,0.462-0.012,0.679,0.142c0.367,0.259,0.691,0.997,0.877,1.67c-1.468,1.331-4.915,4.444-11.267,10.135
	c-7.31,6.548-16.849,15.069-26.299,23.525c-18.774,16.796-37.005,33.096-37.254,33.319h-3.142
	c1.593-1.44,17.676-15.991,35.669-32.272c9.431-8.535,18.946-17.142,26.271-23.78c7.325-6.637,12.405-11.259,13.135-11.946
	C280.272,46.451,280.723,46.261,281.018,46.208z"/>
<path id="path63" fill="#F4F4F4" d="M298.003,44.283c0,0-2.822-0.229-5.436,2.208c-0.007,0.007-0.188,0.161-0.198,0.169
	c-0.283-0.681-0.677-1.321-1.331-1.783c-0.545-0.385-1.307-0.588-2.066-0.453s-1.481,0.563-2.236,1.274
	c-0.61,0.574-5.811,5.281-13.135,11.917c-7.324,6.637-16.839,15.246-26.271,23.78c-18.862,17.068-37.368,33.829-37.368,33.829
	l-1.755,1.585h2.35h5.832h0.339l0.255-0.255c0,0,18.607-16.634,37.509-33.546c9.451-8.456,18.988-16.976,26.299-23.524
	c7.31-6.549,12.358-11.072,13.021-11.691c2.12-1.979,3.992-1.699,3.992-1.699L298.003,44.283z M289.312,46.208
	c0.296-0.052,0.464-0.012,0.68,0.142c0.366,0.258,0.662,1.001,0.85,1.67c-1.476,1.337-4.922,4.452-11.267,10.135
	c-7.31,6.548-16.82,15.069-26.271,23.525c-18.773,16.796-37.005,33.096-37.254,33.319h-3.142
	c1.593-1.441,17.648-15.991,35.641-32.272c9.431-8.535,18.946-17.142,26.271-23.78c7.085-6.42,11.759-10.639,12.739-11.55
	l0.425-0.396C288.566,46.451,289.017,46.261,289.312,46.208z"/>
<path id="path65" fill="#F4F4F4" d="M306.297,44.283c0,0-2.813-0.223-5.406,2.151l-0.057,0.057
	c-0.007,0.007-0.188,0.161-0.198,0.169c-0.283-0.681-0.677-1.321-1.331-1.783c-0.545-0.385-1.278-0.588-2.038-0.453
	c-0.759,0.135-1.508,0.563-2.264,1.274c-0.61,0.574-5.783,5.281-13.107,11.917c-7.325,6.637-16.839,15.246-26.271,23.78
	c-18.863,17.068-37.396,33.829-37.396,33.829l-1.755,1.585h2.349h5.86h0.34l0.255-0.255c0,0,18.607-16.634,37.509-33.546
	c9.451-8.456,18.96-16.976,26.271-23.524c7.31-6.549,12.358-11.071,13.021-11.691c2.12-1.978,4.02-1.699,4.02-1.699L306.297,44.283z
	 M297.578,46.208c0.295-0.053,0.463-0.012,0.68,0.142c0.368,0.259,0.691,0.997,0.877,1.67c-1.468,1.331-4.915,4.444-11.266,10.135
	c-7.31,6.548-16.848,15.069-26.299,23.525c-18.773,16.796-37.005,33.096-37.254,33.319h-3.142
	c1.593-1.44,17.676-15.991,35.669-32.272c9.431-8.535,18.945-17.142,26.271-23.78c7.325-6.637,12.406-11.259,13.135-11.946
	C296.833,46.451,297.283,46.261,297.578,46.208z"/>
<path id="path67" fill="#F4F4F4" d="M314.563,44.283c0,0-2.824-0.229-5.435,2.208c-0.008,0.007-0.188,0.161-0.199,0.169
	c-0.283-0.681-0.677-1.321-1.33-1.783c-0.545-0.385-1.308-0.588-2.066-0.453c-0.76,0.135-1.481,0.563-2.236,1.274
	c-0.61,0.574-5.811,5.281-13.136,11.917c-7.324,6.637-16.839,15.246-26.27,23.78c-18.862,17.068-37.396,33.829-37.396,33.829
	l-1.727,1.585h2.35h5.832h0.339l0.255-0.255c0,0,18.607-16.634,37.509-33.546c9.451-8.456,18.989-16.976,26.298-23.524
	c7.311-6.549,12.33-11.071,12.994-11.691c2.119-1.978,4.02-1.699,4.02-1.699L314.563,44.283z M305.873,46.208
	c0.295-0.052,0.463-0.012,0.679,0.142c0.366,0.258,0.662,1.001,0.85,1.67c-1.474,1.336-4.922,4.452-11.267,10.135
	c-7.309,6.548-16.819,15.069-26.27,23.525c-18.773,16.796-37.005,33.096-37.254,33.319h-3.17
	c1.593-1.44,17.676-15.991,35.669-32.272c9.431-8.535,18.946-17.142,26.27-23.78c7.325-6.637,12.406-11.259,13.135-11.946
	C305.1,46.451,305.577,46.261,305.873,46.208z"/>
<path id="path69" fill="#F4F4F4" d="M322.858,44.283c0,0-2.853-0.229-5.465,2.208c-0.006,0.007-0.188,0.161-0.197,0.169
	c-0.283-0.681-0.678-1.321-1.331-1.783c-0.544-0.385-1.279-0.588-2.038-0.453s-1.509,0.563-2.265,1.274
	c-0.61,0.574-5.782,5.281-13.106,11.917c-7.324,6.637-16.839,15.246-26.271,23.78c-18.862,17.068-37.396,33.829-37.396,33.829
	l-1.755,1.585h2.35h5.832h0.368l0.255-0.255c0,0,18.607-16.634,37.509-33.546c9.451-8.456,18.96-16.976,26.271-23.524
	c7.311-6.549,12.358-11.071,13.021-11.691c2.12-1.978,4.021-1.699,4.021-1.699L322.858,44.283z M314.139,46.208
	c0.296-0.052,0.464-0.012,0.68,0.142c0.368,0.259,0.692,0.997,0.878,1.67c-1.469,1.331-4.915,4.444-11.268,10.135
	c-7.309,6.548-16.848,15.069-26.298,23.525c-18.774,16.796-37.005,33.096-37.255,33.319h-3.142
	c1.593-1.44,17.676-15.991,35.669-32.272c9.432-8.535,18.945-17.142,26.27-23.78c7.086-6.42,11.732-10.639,12.711-11.55l0.425-0.396
	C313.394,46.451,313.844,46.261,314.139,46.208z"/>
<path id="path71" fill="#F4F4F4" d="M331.039,44.283c0,0-2.824-0.229-5.436,2.208c-0.007,0.007-0.188,0.161-0.198,0.169
	c-0.283-0.681-0.677-1.321-1.33-1.783c-0.545-0.385-1.308-0.588-2.066-0.453s-1.481,0.563-2.237,1.274
	c-0.609,0.574-5.81,5.281-13.135,11.917c-7.324,6.637-16.838,15.246-26.27,23.78c-18.862,17.068-37.396,33.829-37.396,33.829
	l-1.727,1.585h2.35h5.832h0.34l0.254-0.255c0,0,18.607-16.634,37.51-33.546c9.451-8.456,18.989-16.976,26.298-23.524
	c7.312-6.549,12.33-11.071,12.994-11.691c2.119-1.978,4.02-1.699,4.02-1.699L331.039,44.283z M322.349,46.208
	c0.295-0.052,0.463-0.012,0.679,0.142c0.366,0.258,0.662,1.001,0.85,1.67c-1.476,1.337-4.923,4.452-11.268,10.135
	c-7.308,6.548-16.818,15.069-26.269,23.525c-18.774,16.796-37.005,33.096-37.255,33.319h-3.17
	c1.593-1.44,17.676-15.991,35.669-32.272c9.432-8.535,18.945-17.142,26.269-23.78c7.325-6.637,12.407-11.259,13.136-11.946
	C321.575,46.451,322.053,46.261,322.349,46.208z"/>
<path id="path73" fill="#F4F4F4" d="M339.334,44.283c0,0-2.853-0.229-5.464,2.208c-0.007,0.007-0.188,0.161-0.198,0.169
	c-0.283-0.681-0.677-1.321-1.331-1.783c-0.544-0.385-1.279-0.588-2.037-0.453c-0.76,0.135-1.51,0.563-2.266,1.274
	c-0.609,0.574-5.781,5.281-13.106,11.917c-7.323,6.637-16.838,15.246-26.271,23.78c-18.862,17.068-37.396,33.829-37.396,33.829
	l-1.755,1.585h2.35h5.832h0.368l0.255-0.255c0,0,18.607-16.634,37.508-33.546c9.452-8.456,18.96-16.976,26.271-23.524
	s12.358-11.072,13.022-11.691c2.117-1.978,4.019-1.699,4.019-1.699L339.334,44.283z M330.615,46.208
	c0.295-0.052,0.463-0.012,0.679,0.142c0.368,0.259,0.692,0.997,0.878,1.67c-1.469,1.332-4.916,4.444-11.268,10.135
	c-7.309,6.548-16.847,15.069-26.299,23.525c-18.772,16.796-37.004,33.096-37.254,33.319h-3.142
	c1.593-1.44,17.676-15.991,35.668-32.272c9.432-8.535,18.945-17.142,26.271-23.78c7.087-6.42,11.732-10.639,12.711-11.55
	l0.425-0.396C329.869,46.451,330.319,46.261,330.615,46.208z"/>
<path id="path75" fill="#F4F4F4" d="M347.601,44.283c0,0-2.822-0.229-5.437,2.208c-0.008,0.008-0.214,0.188-0.226,0.198
	c-0.283-0.69-0.669-1.345-1.331-1.812c-0.544-0.385-1.279-0.588-2.038-0.453s-1.51,0.563-2.265,1.274
	c-0.61,0.574-5.782,5.281-13.106,11.917c-7.323,6.637-16.839,15.246-26.271,23.78c-18.861,17.068-37.395,33.829-37.395,33.829
	l-1.727,1.585h2.35h5.832h0.339l0.255-0.255c0,0,18.607-16.634,37.508-33.546c9.452-8.456,18.99-16.976,26.299-23.524
	c7.311-6.549,12.331-11.072,12.993-11.691c2.121-1.979,4.021-1.699,4.021-1.699L347.601,44.283z M338.88,46.208
	c0.296-0.053,0.493-0.012,0.709,0.142c0.371,0.263,0.664,1.017,0.85,1.698c-1.481,1.342-4.932,4.43-11.268,10.106
	c-7.309,6.548-16.848,15.069-26.299,23.525c-18.773,16.796-36.977,33.096-37.226,33.319h-3.17
	c1.593-1.44,17.676-15.991,35.668-32.272c9.432-8.535,18.945-17.142,26.271-23.78c7.325-6.637,12.406-11.259,13.135-11.946
	C338.136,46.451,338.585,46.261,338.88,46.208z"/>
<path id="path77" fill="#F4F4F4" d="M355.894,44.283c0,0-2.851-0.229-5.463,2.208c-0.008,0.007-0.188,0.161-0.198,0.169
	c-0.283-0.681-0.678-1.321-1.33-1.783c-0.546-0.385-1.279-0.588-2.039-0.453c-0.759,0.135-1.509,0.563-2.265,1.274
	c-0.61,0.574-5.782,5.281-13.106,11.917c-7.325,6.637-16.839,15.246-26.271,23.78c-18.862,17.068-37.396,33.829-37.396,33.829
	l-1.755,1.585h2.35h5.832h0.339l0.283-0.255c0,0,18.607-16.634,37.509-33.546c9.451-8.456,18.959-16.976,26.271-23.524
	c7.311-6.549,12.358-11.072,13.021-11.691c2.12-1.979,3.992-1.699,3.992-1.699L355.894,44.283z M347.175,46.208
	c0.296-0.052,0.464-0.012,0.68,0.142c0.364,0.258,0.661,1.001,0.849,1.67c-1.476,1.337-4.921,4.452-11.267,10.135
	c-7.309,6.548-16.819,15.069-26.27,23.525c-18.773,16.796-37.005,33.096-37.255,33.319h-3.142
	c1.593-1.441,17.648-15.991,35.641-32.272c9.432-8.535,18.974-17.142,26.299-23.78c7.085-6.42,11.732-10.639,12.71-11.55
	l0.425-0.396C346.431,46.451,346.88,46.261,347.175,46.208z"/>
<path id="path79" fill="#F4F4F4" d="M364.16,44.283c0,0-2.853-0.229-5.463,2.208c-0.008,0.007-0.188,0.161-0.198,0.169
	c-0.283-0.681-0.678-1.321-1.33-1.783c-0.546-0.385-1.28-0.588-2.039-0.453s-1.509,0.563-2.265,1.274
	c-0.61,0.575-5.782,5.281-13.107,11.917c-7.325,6.637-16.838,15.246-26.271,23.78c-18.862,17.068-37.395,33.829-37.395,33.829
	l-1.727,1.585h2.35h5.832h0.34l0.254-0.255c0,0,18.607-16.634,37.508-33.546c9.452-8.456,18.99-16.976,26.299-23.524
	c7.312-6.549,12.331-11.071,12.994-11.691c2.119-1.978,4.02-1.699,4.02-1.699L364.16,44.283z M355.441,46.208
	c0.295-0.052,0.464-0.012,0.679,0.142c0.368,0.259,0.692,0.997,0.878,1.67c-1.469,1.331-4.915,4.444-11.267,10.135
	c-7.309,6.548-16.848,15.069-26.299,23.525c-18.773,16.796-37.004,33.096-37.254,33.319h-3.142
	c1.593-1.44,17.676-15.991,35.667-32.272c9.434-8.535,18.947-17.142,26.271-23.78c7.324-6.637,12.406-11.26,13.135-11.946
	C354.696,46.451,355.146,46.261,355.441,46.208z"/>
<path id="path81" fill="#F4F4F4" d="M372.427,44.283c0,0-2.822-0.229-5.436,2.208c-0.007,0.007-0.188,0.161-0.198,0.169
	c-0.283-0.681-0.677-1.321-1.331-1.783c-0.544-0.385-1.279-0.588-2.037-0.453c-0.76,0.135-1.51,0.563-2.265,1.274
	c-0.611,0.574-5.811,5.281-13.136,11.917c-7.323,6.637-16.839,15.246-26.271,23.78c-18.861,17.068-37.367,33.829-37.367,33.829
	l-1.755,1.585h2.35h5.831h0.339l0.255-0.255c0,0,18.607-16.634,37.509-33.546c9.452-8.456,18.988-16.976,26.299-23.524
	s12.358-11.072,13.022-11.691c2.119-1.979,3.991-1.699,3.991-1.699L372.427,44.283z M363.735,46.208
	c0.296-0.052,0.464-0.012,0.68,0.142c0.366,0.258,0.662,1.001,0.85,1.67c-1.476,1.337-4.923,4.452-11.268,10.135
	c-7.309,6.548-16.818,15.069-26.271,23.525c-18.773,16.796-37.005,33.096-37.254,33.319h-3.142
	c1.593-1.441,17.649-15.991,35.64-32.272c9.433-8.535,18.946-17.142,26.271-23.78c7.086-6.42,11.761-10.639,12.739-11.55
	l0.425-0.396C362.99,46.451,363.44,46.261,363.735,46.208z"/>
<path id="path83" fill="#F4F4F4" d="M380.722,44.283c0,0-2.853-0.229-5.465,2.208c-0.007,0.007-0.188,0.161-0.197,0.169
	c-0.283-0.681-0.678-1.321-1.331-1.783c-0.544-0.385-1.279-0.588-2.038-0.453c-0.76,0.135-1.51,0.563-2.265,1.274
	c-0.608,0.574-5.782,5.281-13.106,11.917c-7.323,6.637-16.839,15.246-26.271,23.78c-18.863,17.068-37.396,33.829-37.396,33.829
	l-1.755,1.585h2.35h5.86h0.339l0.255-0.255c0,0,18.607-16.634,37.51-33.546c9.45-8.456,18.959-16.976,26.271-23.524
	c7.311-6.549,12.357-11.072,13.021-11.691c2.118-1.978,4.021-1.699,4.021-1.699L380.722,44.283z M372.002,46.208
	c0.296-0.053,0.463-0.012,0.679,0.142c0.369,0.259,0.692,0.997,0.879,1.67c-1.47,1.332-4.915,4.444-11.268,10.135
	c-7.31,6.548-16.848,15.069-26.299,23.525c-18.774,16.796-37.005,33.096-37.254,33.319h-3.142
	c1.593-1.44,17.677-15.991,35.669-32.272c9.432-8.535,18.945-17.142,26.271-23.78c7.325-6.637,12.406-11.259,13.136-11.946
	C371.257,46.451,371.707,46.261,372.002,46.208z"/>
<path id="path85" fill="#F4F4F4" d="M388.987,44.283c0,0-2.822-0.229-5.436,2.208c-0.007,0.007-0.188,0.161-0.198,0.169
	c-0.283-0.681-0.678-1.321-1.33-1.783c-0.545-0.385-1.308-0.588-2.066-0.453c-0.76,0.135-1.481,0.563-2.237,1.274
	c-0.61,0.574-5.81,5.281-13.135,11.917c-7.322,6.637-16.838,15.246-26.271,23.78c-18.862,17.068-37.396,33.829-37.396,33.829
	l-1.727,1.585h2.349h5.832h0.34l0.255-0.255c0,0,18.607-16.634,37.509-33.546c9.451-8.456,18.988-16.976,26.3-23.524
	c7.311-6.549,12.329-11.072,12.993-11.691c2.119-1.979,4.019-1.699,4.019-1.699L388.987,44.283z M380.296,46.208
	c0.296-0.053,0.464-0.012,0.68,0.142c0.365,0.258,0.662,1.001,0.85,1.67c-1.476,1.337-4.922,4.452-11.268,10.135
	c-7.309,6.548-16.818,15.069-26.271,23.525c-18.771,16.796-37.004,33.096-37.254,33.319h-3.171
	c1.594-1.44,17.678-15.991,35.67-32.272c9.432-8.535,18.945-17.142,26.27-23.78c7.325-6.637,12.407-11.259,13.135-11.946
	C379.523,46.451,380.001,46.261,380.296,46.208z"/>
<path id="path87" fill="#F4F4F4" d="M397.026,44.283c0,0-2.824-0.229-5.435,2.208c-0.008,0.007-0.188,0.161-0.198,0.169
	c-0.283-0.681-0.678-1.321-1.33-1.783c-0.546-0.385-1.309-0.588-2.067-0.453s-1.48,0.563-2.236,1.274
	c-0.61,0.575-5.811,5.281-13.136,11.917c-7.324,6.637-16.838,15.246-26.271,23.78c-18.862,17.068-37.367,33.829-37.367,33.829
	l-1.755,1.585h2.35h5.832h0.34l0.255-0.255c0,0,18.607-16.634,37.508-33.546c9.452-8.456,18.99-16.976,26.299-23.524
	c7.312-6.549,12.331-11.071,12.994-11.691c2.119-1.978,4.02-1.699,4.02-1.699L397.026,44.283z M388.336,46.208
	c0.296-0.052,0.464-0.012,0.68,0.142c0.364,0.258,0.661,1.001,0.849,1.67c-1.476,1.337-4.922,4.452-11.267,10.135
	c-7.309,6.548-16.819,15.069-26.271,23.525c-18.773,16.796-37.004,33.096-37.254,33.319h-3.171
	c1.594-1.44,17.678-15.991,35.669-32.272c9.433-8.535,18.946-17.142,26.271-23.78c7.325-6.637,12.435-11.26,13.163-11.946
	C387.592,46.451,388.04,46.261,388.336,46.208z"/>
<path id="path89" fill="#F4F4F4" d="M405.321,44.283c0,0-2.853-0.229-5.463,2.208c-0.008,0.007-0.188,0.161-0.199,0.169
	c-0.282-0.681-0.678-1.321-1.33-1.783c-0.545-0.385-1.279-0.588-2.038-0.453s-1.509,0.563-2.265,1.274
	c-0.611,0.574-5.782,5.281-13.107,11.917c-7.325,6.637-16.838,15.246-26.271,23.78c-18.862,17.068-37.396,33.829-37.396,33.829
	l-1.755,1.585h2.35h5.831h0.368l0.255-0.255c0,0,18.607-16.634,37.509-33.546c9.452-8.456,18.96-16.976,26.271-23.524
	s12.358-11.072,13.022-11.691c2.117-1.978,4.02-1.699,4.02-1.699L405.321,44.283z M396.603,46.208
	c0.295-0.052,0.464-0.012,0.679,0.142c0.368,0.259,0.692,0.997,0.878,1.67c-1.469,1.332-4.915,4.444-11.267,10.135
	c-7.31,6.548-16.848,15.069-26.299,23.525c-18.774,16.796-37.006,33.096-37.255,33.319h-3.142
	c1.594-1.44,17.677-15.991,35.668-32.272c9.434-8.535,18.946-17.142,26.271-23.78c7.087-6.42,11.732-10.639,12.712-11.55
	l0.424-0.396C395.856,46.451,396.307,46.261,396.603,46.208z"/>
<path id="path91" fill="#F4F4F4" d="M413.587,44.283c0,0-2.823-0.229-5.436,2.208c-0.006,0.007-0.188,0.161-0.197,0.169
	c-0.283-0.681-0.678-1.321-1.331-1.783c-0.544-0.385-1.307-0.588-2.066-0.453c-0.752,0.134-1.487,0.575-2.236,1.274
	c-0.007,0.006-0.021-0.007-0.028,0c-0.621,0.584-5.79,5.289-13.106,11.917c-7.325,6.637-16.839,15.246-26.271,23.78
	c-18.862,17.068-37.396,33.829-37.396,33.829l-1.728,1.585h2.35h5.832h0.339l0.255-0.255c0,0,18.607-16.634,37.51-33.546
	c9.452-8.456,18.988-16.976,26.299-23.524s12.33-11.072,12.993-11.691c2.118-1.978,4.021-1.699,4.021-1.699L413.587,44.283z
	 M404.868,46.208c0.296-0.052,0.492-0.012,0.708,0.142c0.371,0.263,0.665,1.017,0.849,1.698c-1.48,1.342-4.931,4.43-11.267,10.106
	c-7.31,6.548-16.818,15.069-26.271,23.525c-18.773,16.796-37.005,33.096-37.254,33.319h-3.171
	c1.594-1.44,17.677-15.991,35.669-32.272c9.432-8.535,18.945-17.142,26.271-23.78c7.325-6.637,12.406-11.26,13.136-11.946
	C404.123,46.451,404.573,46.261,404.868,46.208z"/>
<path id="path93" fill="#F4F4F4" d="M421.882,44.283c0,0-2.852-0.229-5.464,2.208c-0.007,0.007-0.188,0.161-0.198,0.169
	c-0.283-0.681-0.678-1.321-1.33-1.783c-0.545-0.385-1.279-0.588-2.038-0.453c-0.76,0.135-1.51,0.563-2.265,1.274
	c-0.61,0.574-5.782,5.281-13.106,11.917c-7.325,6.637-16.839,15.246-26.271,23.78c-18.863,17.068-37.396,33.829-37.396,33.829
	l-1.756,1.585h2.35h5.832h0.368l0.255-0.255c0,0,18.607-16.634,37.51-33.546c9.45-8.456,18.959-16.976,26.271-23.524
	c7.311-6.549,12.357-11.072,13.021-11.691c2.118-1.978,4.021-1.699,4.021-1.699L421.882,44.283z M413.163,46.208
	c0.296-0.052,0.463-0.012,0.679,0.142c0.367,0.258,0.662,1.001,0.85,1.67c-1.476,1.337-4.922,4.452-11.267,10.135
	c-7.31,6.548-16.819,15.069-26.271,23.525c-18.773,16.796-37.004,33.096-37.253,33.319h-3.144
	c1.595-1.44,17.678-15.991,35.67-32.272c9.432-8.535,18.945-17.142,26.271-23.78c7.086-6.42,11.731-10.639,12.71-11.55l0.426-0.396
	C412.418,46.451,412.868,46.261,413.163,46.208z"/>
<path id="path95" fill="#F4F4F4" d="M430.148,44.283c0,0-2.824-0.229-5.436,2.208c-0.009,0.008-0.214,0.188-0.227,0.198
	c-0.283-0.691-0.669-1.344-1.33-1.812c-0.546-0.385-1.28-0.588-2.038-0.453c-0.76,0.135-1.51,0.563-2.266,1.274
	c-0.609,0.574-5.782,5.281-13.106,11.917c-7.325,6.637-16.838,15.246-26.271,23.78c-18.862,17.068-37.396,33.829-37.396,33.829
	l-1.727,1.585h2.35h5.832h0.34l0.255-0.255c0,0,18.607-16.634,37.509-33.546c9.451-8.456,18.987-16.976,26.298-23.524
	c7.312-6.549,12.331-11.072,12.995-11.691c2.117-1.978,4.019-1.699,4.019-1.699L430.148,44.283z M421.429,46.208
	c0.295-0.052,0.464-0.012,0.68,0.142c0.373,0.263,0.695,1.017,0.878,1.698c-1.481,1.342-4.931,4.43-11.268,10.106
	c-7.309,6.548-16.847,15.069-26.299,23.525c-18.774,16.796-37.005,33.096-37.255,33.319h-3.142
	c1.595-1.44,17.678-15.991,35.669-32.272c9.433-8.535,18.946-17.142,26.271-23.78c7.325-6.637,12.407-11.259,13.136-11.946
	C420.685,46.451,421.133,46.261,421.429,46.208z"/>
<path id="path97" fill="#F4F4F4" d="M438.414,44.283c0,0-2.822-0.229-5.435,2.208c-0.007,0.007-0.188,0.161-0.198,0.169
	c-0.283-0.681-0.679-1.321-1.331-1.783c-0.545-0.385-1.279-0.588-2.039-0.453c-0.758,0.135-1.508,0.563-2.264,1.274
	c-0.611,0.574-5.811,5.281-13.136,11.917c-7.324,6.637-16.838,15.246-26.271,23.78c-18.862,17.068-37.367,33.829-37.367,33.829
	l-1.755,1.585h2.35h5.831h0.34l0.283-0.255c0,0,18.579-16.634,37.48-33.546c9.452-8.456,18.988-16.976,26.299-23.524
	s12.359-11.072,13.022-11.691c2.119-1.979,3.991-1.699,3.991-1.699L438.414,44.283z M429.724,46.208
	c0.295-0.053,0.464-0.012,0.68,0.142c0.364,0.258,0.661,1.001,0.85,1.67c-1.477,1.337-4.923,4.452-11.268,10.135
	c-7.309,6.548-16.818,15.069-26.271,23.525c-18.772,16.796-37.005,33.096-37.255,33.319h-3.142
	c1.594-1.441,17.648-15.991,35.641-32.272c9.433-8.535,18.945-17.142,26.271-23.78c7.325-6.637,12.434-11.259,13.163-11.946
	C428.979,46.451,429.428,46.261,429.724,46.208z"/>
<path id="path99" fill="#F4F4F4" d="M446.708,44.283c0,0-2.85-0.229-5.463,2.208c-0.008,0.007-0.188,0.161-0.199,0.169
	c-0.281-0.681-0.677-1.321-1.329-1.783c-0.546-0.385-1.279-0.588-2.039-0.453c-0.759,0.135-1.509,0.563-2.264,1.274
	c-0.611,0.574-5.782,5.281-13.107,11.917c-7.325,6.637-16.839,15.246-26.271,23.78c-18.862,17.068-37.396,33.829-37.396,33.829
	l-1.754,1.585h2.378h5.831h0.339l0.255-0.255c0,0,18.608-16.634,37.51-33.546c9.451-8.456,18.959-16.976,26.271-23.524
	c7.311-6.549,12.358-11.072,13.021-11.691c2.12-1.979,4.021-1.699,4.021-1.699L446.708,44.283z M437.989,46.208
	c0.296-0.052,0.464-0.012,0.68,0.142c0.368,0.259,0.691,0.997,0.877,1.67c-1.468,1.332-4.914,4.444-11.266,10.135
	c-7.311,6.548-16.848,15.069-26.299,23.525c-18.774,16.796-37.005,33.096-37.255,33.319h-3.143
	c1.594-1.44,17.677-15.991,35.67-32.272c9.432-8.535,18.945-17.142,26.271-23.78c7.325-6.637,12.405-11.259,13.135-11.946
	C437.245,46.451,437.694,46.261,437.989,46.208z"/>
<path id="path101" fill="#F4F4F4" d="M454.975,44.283c0,0-2.823-0.229-5.436,2.208c-0.007,0.007-0.188,0.161-0.198,0.169
	c-0.283-0.681-0.677-1.321-1.33-1.783c-0.545-0.385-1.307-0.588-2.066-0.453c-0.759,0.135-1.481,0.563-2.236,1.274
	c-0.61,0.575-5.811,5.281-13.136,11.917c-7.324,6.637-16.838,15.246-26.271,23.78c-18.861,17.068-37.367,33.829-37.367,33.829
	l-1.756,1.585h2.351h5.832h0.339l0.255-0.255c0,0,18.608-16.634,37.509-33.546c9.452-8.456,18.99-16.976,26.299-23.524
	c7.312-6.549,12.33-11.071,12.994-11.691c2.119-1.978,4.02-1.699,4.02-1.699L454.975,44.283z M446.284,46.208
	c0.296-0.052,0.463-0.012,0.679,0.142c0.367,0.258,0.662,1.001,0.85,1.67c-1.476,1.337-4.922,4.452-11.267,10.135
	c-7.31,6.548-16.819,15.069-26.271,23.525c-18.772,16.796-37.004,33.096-37.253,33.319h-3.171
	c1.592-1.44,17.677-15.991,35.668-32.272c9.433-8.535,18.946-17.142,26.271-23.78c7.324-6.637,12.435-11.26,13.164-11.946
	C445.539,46.451,445.989,46.261,446.284,46.208z"/>
<path id="path103" fill="#F4F4F4" d="M463.185,44.283c0,0-2.853-0.229-5.464,2.208c-0.007,0.007-0.188,0.161-0.198,0.169
	c-0.282-0.681-0.678-1.321-1.33-1.783c-0.545-0.385-1.279-0.588-2.039-0.453c-0.758,0.135-1.508,0.563-2.264,1.274
	c-0.611,0.574-5.782,5.281-13.107,11.917c-7.325,6.637-16.839,15.246-26.271,23.78c-18.862,17.068-37.396,33.829-37.396,33.829
	l-1.755,1.585h2.378h5.831h0.339l0.255-0.255c0,0,18.608-16.634,37.51-33.546c9.452-8.456,18.988-16.976,26.299-23.524
	s12.33-11.072,12.993-11.691c2.119-1.978,4.021-1.699,4.021-1.699L463.185,44.283z M454.466,46.208
	c0.295-0.052,0.464-0.012,0.68,0.142c0.367,0.259,0.691,0.997,0.877,1.67c-1.469,1.332-4.915,4.444-11.267,10.135
	c-7.31,6.548-16.848,15.069-26.299,23.525c-18.774,16.796-37.005,33.096-37.255,33.319h-3.143
	c1.595-1.44,17.677-15.991,35.67-32.272c9.432-8.535,18.945-17.142,26.27-23.78c7.325-6.637,12.406-11.259,13.136-11.946
	C453.72,46.451,454.17,46.261,454.466,46.208z"/>
<path id="path105" fill="#F4F4F4" d="M471.45,44.283c0,0-2.823-0.229-5.436,2.208c-0.007,0.007-0.188,0.161-0.197,0.169
	c-0.283-0.681-0.678-1.321-1.331-1.783c-0.544-0.385-1.307-0.588-2.066-0.453s-1.481,0.563-2.236,1.274
	c-0.61,0.575-5.811,5.281-13.135,11.917c-7.325,6.637-16.839,15.246-26.271,23.78c-18.862,17.068-37.367,33.829-37.367,33.829
	l-1.756,1.585h2.35h5.832h0.339l0.255-0.255c0,0,18.607-16.634,37.51-33.546c9.451-8.456,18.988-16.976,26.299-23.524
	s12.357-11.072,13.021-11.691c2.118-1.978,3.992-1.699,3.992-1.699L471.45,44.283z M462.76,46.208
	c0.296-0.052,0.463-0.012,0.679,0.142c0.365,0.258,0.662,1.001,0.85,1.67c-1.475,1.337-4.922,4.452-11.266,10.135
	c-7.311,6.548-16.82,15.069-26.271,23.525c-18.773,16.796-37.005,33.096-37.254,33.319h-3.171
	c1.592-1.44,17.677-15.991,35.669-32.272c9.432-8.535,18.945-17.142,26.271-23.78c7.325-6.637,12.435-11.26,13.164-11.946
	C462.015,46.451,462.465,46.261,462.76,46.208z"/>
<path id="path107" fill="#F4F4F4" d="M479.745,44.283c0,0-2.853-0.229-5.464,2.208c-0.007,0.007-0.188,0.161-0.198,0.169
	c-0.283-0.681-0.678-1.321-1.33-1.783c-0.545-0.385-1.279-0.588-2.038-0.453c-0.76,0.135-1.51,0.563-2.266,1.274
	c-0.609,0.574-5.781,5.281-13.106,11.917c-7.324,6.637-16.838,15.246-26.271,23.78c-18.862,17.068-37.396,33.829-37.396,33.829
	l-1.755,1.585h2.35h5.86h0.34l0.255-0.255c0,0,18.607-16.634,37.509-33.546c9.451-8.456,18.96-16.976,26.271-23.524
	c7.312-6.549,12.358-11.072,13.022-11.691c2.117-1.978,4.021-1.699,4.021-1.699L479.745,44.283z M471.026,46.208
	c0.295-0.052,0.463-0.012,0.679,0.142c0.368,0.259,0.692,0.997,0.878,1.67c-1.469,1.332-4.915,4.444-11.268,10.135
	c-7.309,6.548-16.847,15.069-26.299,23.525c-18.773,16.796-37.004,33.096-37.254,33.319h-3.142
	c1.594-1.44,17.677-15.991,35.669-32.272c9.432-8.535,18.945-17.142,26.27-23.78c7.087-6.42,11.732-10.639,12.711-11.55l0.426-0.396
	C470.281,46.451,470.73,46.261,471.026,46.208z"/>
<path id="path109" fill="#F4F4F4" d="M488.012,44.283c0,0-2.824-0.229-5.436,2.208c-0.007,0.007-0.188,0.161-0.198,0.169
	c-0.283-0.681-0.678-1.321-1.33-1.783c-0.546-0.385-1.309-0.588-2.066-0.453c-0.76,0.135-1.481,0.563-2.237,1.274
	c-0.609,0.575-5.811,5.281-13.135,11.917c-7.325,6.637-16.839,15.246-26.271,23.78c-18.862,17.068-37.396,33.829-37.396,33.829
	l-1.727,1.585h2.35h5.832h0.34l0.254-0.255c0,0,18.607-16.634,37.51-33.546c9.451-8.456,18.987-16.976,26.298-23.524
	s12.331-11.072,12.995-11.691c2.117-1.978,4.019-1.699,4.019-1.699L488.012,44.283z M479.32,46.208
	c0.295-0.052,0.464-0.012,0.68,0.142c0.364,0.258,0.661,1.001,0.85,1.67c-1.477,1.337-4.923,4.452-11.268,10.135
	c-7.309,6.548-16.818,15.069-26.271,23.525c-18.774,16.796-37.005,33.096-37.255,33.319h-3.17
	c1.593-1.44,17.677-15.991,35.669-32.272c9.433-8.535,18.945-17.142,26.271-23.78c7.325-6.637,12.407-11.26,13.136-11.946
	C478.547,46.451,479.024,46.261,479.32,46.208z"/>
<path id="path111" fill="#F4F4F4" d="M496.306,44.283c0,0-2.852-0.229-5.464,2.208c-0.007,0.007-0.188,0.161-0.197,0.169
	c-0.283-0.681-0.679-1.321-1.331-1.783c-0.545-0.385-1.279-0.588-2.039-0.453c-0.758,0.135-1.508,0.563-2.264,1.274
	c-0.611,0.575-5.782,5.281-13.107,11.917c-7.325,6.637-16.839,15.246-26.271,23.78c-18.862,17.068-37.396,33.829-37.396,33.829
	l-1.755,1.585h2.35h5.831h0.367l0.256-0.255c0,0,18.607-16.634,37.509-33.546c9.452-8.456,18.96-16.976,26.271-23.524
	s12.359-11.071,13.021-11.691c2.12-1.978,4.021-1.699,4.021-1.699L496.306,44.283z M487.586,46.208
	c0.296-0.052,0.465-0.012,0.681,0.142c0.367,0.259,0.691,0.997,0.877,1.67c-1.469,1.331-4.915,4.444-11.267,10.135
	c-7.309,6.548-16.847,15.069-26.299,23.525c-18.774,16.796-37.005,33.096-37.255,33.319h-3.143
	c1.594-1.44,17.678-15.991,35.67-32.272c9.432-8.535,18.945-17.142,26.271-23.78c7.325-6.637,12.405-11.26,13.135-11.946
	C486.842,46.451,487.291,46.261,487.586,46.208z"/>
<path id="path113" fill="#F4F4F4" d="M504.571,44.283c0,0-2.823-0.229-5.435,2.208c-0.01,0.008-0.214,0.188-0.228,0.198
	c-0.282-0.691-0.668-1.344-1.329-1.812c-0.546-0.385-1.279-0.588-2.039-0.453c-0.759,0.135-1.509,0.563-2.265,1.274
	c-0.61,0.574-5.782,5.281-13.107,11.917c-7.324,6.637-16.838,15.246-26.27,23.78c-18.862,17.068-37.396,33.829-37.396,33.829
	l-1.727,1.585h2.35h5.832h0.339l0.255-0.255c0,0,18.608-16.634,37.51-33.546c9.451-8.456,18.987-16.976,26.299-23.524
	c7.311-6.549,12.329-11.072,12.993-11.691c2.118-1.978,4.021-1.699,4.021-1.699L504.571,44.283z M495.853,46.208
	c0.296-0.052,0.464-0.012,0.68,0.142c0.373,0.263,0.695,1.017,0.877,1.698c-1.48,1.342-4.931,4.43-11.266,10.106
	c-7.31,6.548-16.849,15.069-26.299,23.525c-18.774,16.796-37.005,33.096-37.255,33.319h-3.143
	c1.594-1.44,17.677-15.991,35.67-32.272c9.432-8.535,18.945-17.142,26.271-23.78c7.324-6.637,12.405-11.259,13.135-11.946
	C495.108,46.451,495.558,46.261,495.853,46.208z"/>
<path id="path115" fill="#F4F4F4" d="M512.838,44.283c0,0-2.824-0.229-5.435,2.208c-0.008,0.007-0.188,0.161-0.199,0.169
	c-0.283-0.681-0.677-1.321-1.33-1.783c-0.545-0.385-1.279-0.588-2.038-0.453c-0.76,0.135-1.51,0.563-2.266,1.274
	c-0.609,0.575-5.81,5.281-13.135,11.917c-7.325,6.637-16.838,15.246-26.271,23.78c-18.862,17.068-37.367,33.829-37.367,33.829
	l-1.756,1.585h2.351h5.832h0.339l0.283-0.255c0,0,18.58-16.634,37.48-33.546c9.452-8.456,18.988-16.976,26.299-23.524
	s12.358-11.072,13.022-11.691c2.117-1.978,3.991-1.699,3.991-1.699L512.838,44.283z M504.147,46.208
	c0.295-0.052,0.463-0.012,0.679,0.142c0.364,0.258,0.662,1.001,0.85,1.67c-1.476,1.337-4.923,4.452-11.267,10.135
	c-7.31,6.548-16.819,15.069-26.271,23.525c-18.773,16.796-37.004,33.096-37.254,33.319h-3.142
	c1.594-1.441,17.648-15.991,35.64-32.272c9.433-8.535,18.945-17.142,26.271-23.78c7.325-6.637,12.436-11.26,13.164-11.946
	C503.402,46.451,503.852,46.261,504.147,46.208z"/>
<path id="path117" fill="#F4F4F4" d="M521.133,44.283c0,0-2.853-0.229-5.464,2.208c-0.007,0.007-0.188,0.161-0.198,0.169
	c-0.283-0.681-0.677-1.321-1.331-1.783c-0.544-0.385-1.279-0.588-2.037-0.453c-0.76,0.135-1.51,0.563-2.266,1.274
	c-0.609,0.574-5.781,5.281-13.106,11.917c-7.325,6.637-16.839,15.246-26.271,23.78c-18.863,17.068-37.396,33.829-37.396,33.829
	l-1.756,1.585h2.378h5.831h0.341l0.254-0.255c0,0,18.607-16.634,37.51-33.546c9.451-8.456,18.96-16.976,26.271-23.524
	s12.358-11.072,13.022-11.691c2.117-1.978,4.02-1.699,4.02-1.699L521.133,44.283z M512.413,46.208
	c0.296-0.052,0.464-0.012,0.68,0.142c0.368,0.259,0.692,0.997,0.878,1.67c-1.469,1.332-4.915,4.444-11.268,10.135
	c-7.309,6.548-16.847,15.069-26.299,23.525c-18.774,16.796-37.005,33.096-37.254,33.319h-3.142
	c1.594-1.44,17.676-15.991,35.668-32.272c9.432-8.535,18.945-17.142,26.271-23.78c7.325-6.637,12.406-11.259,13.136-11.946
	C511.668,46.451,512.118,46.261,512.413,46.208z"/>
<path id="path119" fill="#F4F4F4" d="M529.483,44.283c0,0-2.823-0.229-5.436,2.208c-0.009,0.008-0.214,0.188-0.226,0.198
	c-0.283-0.69-0.67-1.345-1.331-1.812c-0.545-0.385-1.279-0.588-2.039-0.453c-0.758,0.135-1.508,0.563-2.264,1.274
	c-0.609,0.574-5.782,5.281-13.107,11.917c-7.323,6.637-16.839,15.246-26.271,23.78c-18.862,17.068-37.396,33.829-37.396,33.829
	l-1.727,1.585h2.35h5.831h0.341l0.254-0.255c0,0,18.607-16.634,37.509-33.546c9.452-8.456,18.99-16.976,26.299-23.524
	c7.311-6.549,12.331-11.071,12.994-11.691c2.12-1.978,4.02-1.699,4.02-1.699L529.483,44.283z M520.765,46.208
	c0.295-0.053,0.492-0.012,0.708,0.142c0.371,0.263,0.665,1.017,0.849,1.698c-1.48,1.342-4.932,4.43-11.267,10.106
	c-7.309,6.548-16.848,15.069-26.299,23.525c-18.774,16.796-36.977,33.096-37.227,33.319h-3.17
	c1.595-1.44,17.677-15.991,35.669-32.272c9.432-8.535,18.945-17.142,26.271-23.78c7.325-6.637,12.406-11.259,13.135-11.946
	C520.02,46.451,520.469,46.261,520.765,46.208z"/>
<path id="path121" fill="#F4F4F4" d="M537.749,44.283c0,0-2.823-0.229-5.435,2.208c-0.007,0.007-0.188,0.161-0.198,0.169
	c-0.283-0.681-0.678-1.321-1.331-1.783c-0.544-0.385-1.278-0.588-2.038-0.453c-0.758,0.135-1.51,0.563-2.264,1.274
	c-0.611,0.574-5.811,5.281-13.136,11.917c-7.325,6.637-16.811,15.246-26.242,23.78c-18.862,17.068-37.396,33.829-37.396,33.829
	l-1.756,1.585h2.35h5.832h0.339l0.283-0.255c0,0,18.608-16.634,37.51-33.546c9.452-8.456,18.962-16.976,26.271-23.524
	c7.311-6.549,12.358-11.071,13.021-11.691c2.12-1.978,3.992-1.699,3.992-1.699L537.749,44.283z M529.059,46.208
	c0.296-0.052,0.464-0.012,0.68,0.142c0.364,0.258,0.661,1.001,0.849,1.67c-1.475,1.337-4.921,4.452-11.266,10.135
	c-7.31,6.548-16.82,15.069-26.271,23.525c-18.774,16.796-37.006,33.096-37.255,33.319h-3.143
	c1.594-1.441,17.649-15.991,35.641-32.272c9.433-8.535,18.946-17.142,26.271-23.78c7.324-6.637,12.434-11.259,13.163-11.946
	l0.113-0.085C528.352,46.471,528.79,46.256,529.059,46.208z"/>
<path id="path123" fill="#F4F4F4" d="M121.696,44.17c-1.52-0.02-3.448,0.028-5.549,0.028h-80.34c-0.653,0-1.337,0.009-2.01,0.396
	c-0.672,0.387-1.104,1.225-1.104,2.18c0-0.031-0.026,0.424-0.057,1.047c-0.03,0.623-0.084,1.484-0.142,2.576
	c-0.115,2.184-0.256,5.24-0.453,8.861c-0.395,7.241-0.946,16.779-1.472,26.299c-0.525,9.52-1.05,19.009-1.443,26.186
	c-0.198,3.588-0.338,6.611-0.453,8.748c-0.058,1.068-0.11,1.922-0.142,2.519c-0.016,0.299-0.021,0.511-0.029,0.68
	c-0.007,0.169-0.028,0.219-0.028,0.34c0,0.308-0.106,1.116,0.142,1.953c0.124,0.418,0.357,0.859,0.792,1.189s1.028,0.51,1.67,0.51
	h526.315c2.113,0,3.117-0.104,3.879-0.708c0.38-0.302,0.596-0.82,0.622-1.161c0.028-0.34-0.028-0.546-0.028-0.623
	c0-0.158,0.012-0.166,0-0.34c-0.008-0.174-0.037-0.425-0.056-0.736c-0.04-0.623-0.098-1.514-0.171-2.633
	c-0.143-2.239-0.348-5.376-0.594-9.144c-0.492-7.535-1.125-17.535-1.783-27.488c-1.313-19.907-2.633-39.717-2.633-39.717
	l-0.057-0.85h-0.85h-9.682h-0.113c-0.172-0.013-2.82-0.151-5.35,2.208c-0.008,0.007-0.188,0.161-0.199,0.169
	c-0.283-0.681-0.677-1.321-1.33-1.783c-0.545-0.385-1.279-0.588-2.038-0.453s-1.51,0.563-2.265,1.274
	c-0.61,0.575-5.782,5.281-13.107,11.917c-7.324,6.637-16.838,15.246-26.27,23.78c-18.862,17.068-37.396,33.829-37.396,33.829
	l-1.727,1.585h2.349h5.832h0.34l0.255-0.255c0,0,18.608-16.634,37.51-33.546c9.451-8.456,18.989-16.976,26.299-23.524
	c7.311-6.549,12.329-11.071,12.993-11.691c2.119-1.978,4.021-1.699,4.021-1.699h0.057h0.027h8.946
	c0.055,0.82,1.29,19.415,2.575,38.896c0.656,9.953,1.292,19.925,1.783,27.459c0.246,3.767,0.452,6.906,0.595,9.144
	c0.073,1.118,0.131,2.013,0.17,2.633c0.02,0.31,0.048,0.566,0.057,0.736c0.011,0.169,0,0.338,0,0.227
	c0,0.223,0.022,0.299,0.028,0.368c-0.045,0.018-0.76,0.312-2.689,0.312H31.08c-0.357,0-0.498-0.09-0.566-0.142
	c-0.068-0.052-0.123-0.095-0.169-0.255c-0.095-0.32-0.057-0.91-0.057-1.444c0,0.068,0.021-0.062,0.028-0.227
	c0.008-0.165,0.013-0.41,0.029-0.708c0.03-0.595,0.055-1.452,0.113-2.52c0.115-2.135,0.284-5.131,0.481-8.719
	c0.394-7.176,0.918-16.694,1.443-26.214c0.526-9.52,1.05-19.057,1.444-26.299c0.197-3.621,0.367-6.646,0.481-8.832
	c0.057-1.093,0.11-1.978,0.142-2.605c0.031-0.626,0.057-0.93,0.057-1.132c0-0.557,0.066-0.547,0.198-0.623
	c0.131-0.076,0.535-0.142,1.104-0.142h80.34c2.118,0,4.073-0.048,5.549-0.028c0.737,0.009,1.362,0.044,1.812,0.084
	c0.45,0.041,0.773,0.174,0.623,0.085l0.906-1.557c-0.486-0.286-0.851-0.292-1.387-0.339
	C123.114,44.207,122.456,44.181,121.696,44.17z M537.325,46.208c0.295-0.052,0.463-0.012,0.679,0.142
	c0.368,0.259,0.692,0.997,0.878,1.67c-1.469,1.331-4.915,4.444-11.268,10.135c-7.309,6.548-16.847,15.069-26.298,23.525
	c-18.773,16.796-37.005,33.096-37.254,33.319h-3.143c1.594-1.44,17.677-15.991,35.669-32.272c9.432-8.535,18.945-17.142,26.27-23.78
	c7.325-6.637,12.407-11.26,13.137-11.946C536.58,46.451,537.03,46.261,537.325,46.208z"/>
<path id="rect125" fill="#F4F4F4" d="M28.164,130.597v0.906v46.03v0.906h0.906h531.695h0.906v-0.906v-46.03v-0.906h-0.906H29.07
	H28.164z M29.976,132.408h529.883v44.219H29.976V132.408z"/>
<path id="rect127" fill="#F4F4F4" d="M28.164,179.005v0.905v132.146v0.906h0.906h531.695h0.906v-0.906V179.91v-0.905h-0.906H29.07
	H28.164z M29.976,180.816h529.883V311.15H29.976V180.816z"/>
<path id="line129" fill="#F4F4F4" d="M29.353,126.605v4.727h1.812v-4.727H29.353z"/>
<path id="line131" fill="#F4F4F4" d="M29.353,177.392v2.519h1.812v-2.519H29.353z"/>
<path id="line133" fill="#F4F4F4" d="M558.585,126.69v4.728h1.812v-4.728H558.585z"/>
<path id="line135" fill="#F4F4F4" d="M558.585,177.476v2.521h1.812v-2.521H558.585z"/>
<path id="polygon137" fill="#F4F4F4" d="M441.698,140.363l-0.255,0.283l-11.975,11.975l-1.558,1.557h2.181h105.449h0.396
	l0.283-0.311l10.813-11.975l1.359-1.529h-2.038H442.095H441.698z M442.462,142.175h101.883l-9.228,10.191H432.271L442.462,142.175z"
	/>
<path id="path139" fill="#F4F4F4" d="M44.385,189.733c-0.665,0-1.217,0.554-1.217,1.218v20.1c0,0.662,0.555,1.217,1.217,1.217
	h20.099c0.665,0,1.217-0.553,1.217-1.217v-20.1c0-0.663-0.555-1.218-1.217-1.218H44.385z M44.979,191.545h18.91v18.911h-18.91
	V191.545z"/>
<path id="path141" fill="#F4F4F4" d="M66.069,189.733c-0.664,0-1.217,0.554-1.217,1.218v20.1c0,0.662,0.555,1.217,1.217,1.217h20.1
	c0.664,0,1.246-0.553,1.246-1.217v-20.1c0-0.663-0.584-1.218-1.246-1.218H66.069z M66.664,191.545h18.938v18.911H66.664V191.545z"/>
<path id="path143" fill="#F4F4F4" d="M87.782,189.733c-0.664,0-1.246,0.554-1.246,1.218v20.1c0,0.662,0.584,1.217,1.246,1.217
	h20.099c0.665,0,1.217-0.553,1.217-1.217v-20.1c0-0.663-0.555-1.218-1.217-1.218H87.782z M88.349,191.545h18.938v18.911H88.349
	V191.545z"/>
<path id="path145" fill="#F4F4F4" d="M109.467,189.733c-0.665,0-1.217,0.554-1.217,1.218v20.1c0,0.662,0.555,1.217,1.217,1.217
	h20.099c0.665,0,1.217-0.553,1.217-1.217v-20.1c0-0.663-0.556-1.218-1.217-1.218H109.467z M110.062,191.545h18.91v18.911h-18.91
	V191.545z"/>
<path id="path147" fill="#F4F4F4" d="M131.151,189.733c-0.664,0-1.217,0.554-1.217,1.218v20.1c0,0.662,0.556,1.217,1.217,1.217h20.1
	c0.664,0,1.217-0.553,1.217-1.217v-20.1c0-0.663-0.556-1.218-1.217-1.218H131.151z M131.746,191.545h18.911v18.911h-18.911V191.545z
	"/>
<path id="path149" fill="#F4F4F4" d="M152.864,189.733c-0.663,0-1.246,0.554-1.246,1.218v20.1c0,0.665,0.584,1.217,1.246,1.217
	h20.099c0.665,0,1.217-0.553,1.217-1.217v-20.1c0-0.663-0.555-1.218-1.217-1.218H152.864z M153.43,191.545h18.938v18.911H153.43
	V191.545z"/>
<path id="path151" fill="#F4F4F4" d="M174.549,189.733c-0.665,0-1.217,0.554-1.217,1.218v20.1c0,0.662,0.555,1.217,1.217,1.217
	h20.099c0.665,0,1.217-0.553,1.217-1.217v-20.1c0-0.663-0.556-1.218-1.217-1.218H174.549z M175.144,191.545h18.91v18.911h-18.91
	V191.545z"/>
<path id="path153" fill="#F4F4F4" d="M196.233,189.733c-0.664,0-1.217,0.554-1.217,1.218v20.1c0,0.662,0.555,1.217,1.217,1.217
	h20.099c0.664,0,1.217-0.553,1.217-1.217v-20.1c0-0.663-0.556-1.218-1.217-1.218H196.233z M196.828,191.545h18.911v18.911h-18.911
	V191.545z"/>
<path id="path155" fill="#F4F4F4" d="M217.917,189.733c-0.663,0-1.217,0.554-1.217,1.218v20.1c0,0.665,0.556,1.217,1.217,1.217
	h20.128c0.663,0,1.217-0.553,1.217-1.217v-20.1c0-0.663-0.557-1.218-1.217-1.218H217.917z M218.512,191.545h18.938v18.911h-18.938
	V191.545z"/>
<path id="path157" fill="#F4F4F4" d="M239.631,189.733c-0.665,0-1.218,0.554-1.218,1.218v20.1c0,0.662,0.556,1.217,1.218,1.217
	h20.099c0.663,0,1.218-0.553,1.218-1.217v-20.1c0-0.666-0.556-1.218-1.218-1.218H239.631z M240.225,191.545h18.91v18.911h-18.91
	V191.545z"/>
<path id="path159" fill="#F4F4F4" d="M261.315,189.733c-0.663,0-1.217,0.554-1.217,1.218v20.1c0,0.665,0.555,1.217,1.217,1.217h20.1
	c0.663,0,1.217-0.553,1.217-1.217v-20.1c0-0.666-0.556-1.218-1.217-1.218H261.315z M261.91,191.545h18.91v18.911h-18.91V191.545z"/>
<path id="path161" fill="#F4F4F4" d="M283,189.733c-0.664,0-1.217,0.554-1.217,1.218v20.1c0,0.665,0.555,1.217,1.217,1.217h20.098
	c0.664,0,1.246-0.556,1.246-1.217v-20.1c0-0.663-0.584-1.218-1.246-1.218H283z M283.594,191.545h18.938v18.911h-18.938V191.545z"/>
<path id="path163" fill="#F4F4F4" d="M304.712,189.733c-0.662,0-1.245,0.554-1.245,1.218v20.1c0,0.665,0.583,1.217,1.245,1.217
	h20.099c0.664,0,1.218-0.556,1.218-1.217v-20.1c0-0.663-0.556-1.218-1.218-1.218H304.712z M305.278,191.545h18.938v18.911h-18.938
	V191.545z"/>
<path id="path165" fill="#F4F4F4" d="M76.374,211.334c-0.664,0-1.217,0.553-1.217,1.217v20.1c0,0.662,0.555,1.217,1.217,1.217
	h20.099c0.663,0,1.246-0.556,1.246-1.217v-0.906H97.69v-19.193c0-0.66-0.558-1.217-1.217-1.217H76.374z M76.968,213.146h18.911
	v18.91H76.968V213.146z"/>
<path id="path167" fill="#F4F4F4" d="M44.527,211.334c-0.665,0-1.217,0.553-1.217,1.217v20.1c0,0.662,0.555,1.217,1.217,1.217
	h30.205c0.665,0,1.217-0.553,1.217-1.217v-20.1c0-0.662-0.555-1.217-1.217-1.217H44.527z M45.121,213.146h29.017v18.91H45.121
	V213.146z"/>
<path id="path169" fill="#F4F4F4" d="M98.087,211.334c-0.663,0-1.246,0.556-1.246,1.217v20.1c0,0.659,0.585,1.217,1.246,1.217
	h20.099c0.665,0,1.217-0.553,1.217-1.217v-20.1c0-0.662-0.556-1.217-1.217-1.217H98.087z M98.653,213.146h18.938v18.91H98.653
	V213.146z"/>
<path id="path171" fill="#F4F4F4" d="M119.771,211.334c-0.665,0-1.217,0.553-1.217,1.217v20.1c0,0.662,0.556,1.217,1.217,1.217
	h20.099c0.665,0,1.218-0.553,1.218-1.217v-20.1c0-0.662-0.556-1.217-1.218-1.217H119.771z M120.366,213.146h18.91v18.91h-18.91
	V213.146z"/>
<path id="path173" fill="#F4F4F4" d="M141.456,211.334c-0.665,0-1.217,0.553-1.217,1.217v20.1c0,0.662,0.556,1.217,1.217,1.217h20.1
	c0.664,0,1.217-0.553,1.217-1.217v-20.1c0-0.662-0.556-1.217-1.217-1.217H141.456z M142.05,213.146h18.91v18.91h-18.91V213.146z"/>
<path id="path175" fill="#F4F4F4" d="M163.14,211.334c-0.664,0-1.217,0.553-1.217,1.217v20.1c0,0.662,0.556,1.217,1.217,1.217
	h20.127c0.665,0,1.217-0.553,1.217-1.217v-20.1c0-0.662-0.555-1.217-1.217-1.217H163.14z M163.735,213.146h18.938v18.91h-18.938
	V213.146z"/>
<path id="path177" fill="#F4F4F4" d="M184.853,211.334c-0.663,0-1.217,0.553-1.217,1.217v20.1c0,0.662,0.557,1.217,1.217,1.217
	h20.099c0.665,0,1.218-0.553,1.218-1.217v-20.1c0-0.662-0.556-1.217-1.218-1.217H184.853z M185.448,213.146h18.91v18.91h-18.91
	V213.146z"/>
<path id="path179" fill="#F4F4F4" d="M206.538,211.334c-0.665,0-1.217,0.553-1.217,1.217v20.1c0,0.662,0.556,1.217,1.217,1.217h20.1
	c0.279,0,0.528-0.147,0.736-0.312h0.481v-0.905v-20.1c0-0.662-0.556-1.217-1.217-1.217H206.538z M207.132,213.146h18.911v18.599
	v0.312h-18.911V213.146z"/>
<path id="path181" fill="#F4F4F4" d="M228.222,211.334c-0.665,0-1.217,0.553-1.217,1.217v20.1c0,0.662,0.556,1.217,1.217,1.217
	h20.099c0.663,0,1.246-0.553,1.246-1.217v-20.1c0-0.666-0.583-1.217-1.246-1.217H228.222z M228.816,213.146h18.938v18.91h-18.938
	V213.146z"/>
<path id="path183" fill="#F4F4F4" d="M249.935,211.334c-0.665,0-1.246,0.553-1.246,1.217v20.1c0,0.662,0.584,1.217,1.246,1.217
	h20.099c0.665,0,1.217-0.553,1.217-1.217v-20.1c0-0.666-0.554-1.217-1.217-1.217H249.935z M250.501,213.146h18.938v18.91h-18.938
	V213.146z"/>
<path id="path185" fill="#F4F4F4" d="M271.62,211.334c-0.664,0-1.217,0.553-1.217,1.217v20.1c0,0.666,0.555,1.217,1.217,1.217
	h20.099c0.664,0,1.217-0.553,1.217-1.217v-20.1c0-0.666-0.556-1.217-1.217-1.217H271.62z M272.214,213.146h18.91v18.91h-18.91
	V213.146z"/>
<path id="path187" fill="#F4F4F4" d="M293.303,211.334c-0.662,0-1.217,0.556-1.217,1.217v20.1c0,0.662,0.556,1.217,1.217,1.217
	h20.099c0.664,0,1.246-0.556,1.246-1.217v-20.1c0-0.662-0.584-1.217-1.246-1.217H293.303z M293.898,213.146h18.939v18.91h-18.939
	V213.146z"/>
<path id="path189" fill="#F4F4F4" d="M81.838,232.905c-0.665,0-1.218,0.552-1.218,1.217v20.099c0,0.663,0.556,1.218,1.218,1.218
	h20.099c0.664,0,1.246-0.556,1.246-1.218v-0.905v-19.193c0-0.66-0.586-1.217-1.246-1.217H81.838z M82.432,234.717h18.938v18.91
	H82.432V234.717z"/>
<path id="path191" fill="#F4F4F4" d="M44.64,232.905c-0.664,0-1.217,0.552-1.217,1.217v20.099c0,0.663,0.556,1.218,1.217,1.218
	h35.556c0.664,0,1.217-0.553,1.217-1.218v-20.099c0-0.663-0.556-1.217-1.217-1.217H44.64z M45.234,234.717h34.367v18.91H45.234
	V234.717z"/>
<path id="path193" fill="#F4F4F4" d="M103.55,232.905c-0.664,0-1.246,0.552-1.246,1.217v20.099c0,0.663,0.584,1.218,1.246,1.218
	h20.1c0.664,0,1.217-0.553,1.217-1.218v-20.099c0-0.663-0.556-1.217-1.217-1.217H103.55z M104.117,234.717h18.938v18.91h-18.938
	V234.717z"/>
<path id="path195" fill="#F4F4F4" d="M125.235,232.905c-0.665,0-1.217,0.552-1.217,1.217v20.099c0,0.663,0.556,1.218,1.217,1.218
	h20.099c0.664,0,1.217-0.553,1.217-1.218v-20.099c0-0.663-0.555-1.217-1.217-1.217H125.235z M125.829,234.717h18.911v18.91h-18.911
	V234.717z"/>
<path id="path197" fill="#F4F4F4" d="M146.919,232.905c-0.665,0-1.217,0.552-1.217,1.217v20.099c0,0.663,0.556,1.218,1.217,1.218
	h20.099c0.665,0,1.246-0.553,1.246-1.218v-20.099c0-0.663-0.584-1.217-1.246-1.217H146.919z M147.514,234.717h18.938v18.91h-18.938
	V234.717z"/>
<path id="path199" fill="#F4F4F4" d="M168.632,232.905c-0.665,0-1.246,0.552-1.246,1.217v20.099c0,0.663,0.583,1.218,1.246,1.218
	h20.099c0.664,0,1.217-0.553,1.217-1.218v-20.099c0-0.663-0.556-1.217-1.217-1.217H168.632z M169.198,234.717h18.939v18.91h-18.939
	V234.717z"/>
<path id="path201" fill="#F4F4F4" d="M190.316,232.905c-0.663,0-1.217,0.552-1.217,1.217v20.099c0,0.663,0.558,1.218,1.217,1.218
	h20.1c0.663,0,1.217-0.553,1.217-1.218v-20.099c0-0.666-0.556-1.217-1.217-1.217H190.316z M190.911,234.717h18.91v18.91h-18.91
	V234.717z"/>
<path id="path203" fill="#F4F4F4" d="M212.001,232.905c-0.665,0-1.217,0.552-1.217,1.217v20.099c0,0.663,0.555,1.218,1.217,1.218
	H232.1c0.665,0,1.217-0.553,1.217-1.218v-20.099c0-0.663-0.555-1.217-1.217-1.217H212.001z M212.596,234.717h18.91v18.91h-18.91
	V234.717z"/>
<path id="path205" fill="#F4F4F4" d="M233.686,232.905c-0.665,0-1.217,0.552-1.217,1.217v20.099c0,0.663,0.555,1.218,1.217,1.218
	h20.128c0.663,0,1.217-0.553,1.217-1.218v-20.099c0-0.666-0.556-1.217-1.217-1.217H233.686z M234.28,234.717h18.938v18.91H234.28
	V234.717z"/>
<path id="path207" fill="#F4F4F4" d="M255.398,232.905c-0.664,0-1.217,0.552-1.217,1.217v20.099c0,0.663,0.556,1.218,1.217,1.218
	h20.099c0.664,0,1.217-0.553,1.217-1.218v-20.099c0-0.666-0.555-1.217-1.217-1.217H255.398z M255.993,234.717h18.911v18.91h-18.911
	V234.717z"/>
<path id="path209" fill="#F4F4F4" d="M277.083,232.905c-0.664,0-1.218,0.552-1.218,1.217v20.099c0,0.667,0.556,1.218,1.218,1.218
	h20.098c0.664,0,1.217-0.556,1.217-1.218v-20.099c0-0.663-0.555-1.217-1.217-1.217H277.083z M277.678,234.717h18.91v18.91h-18.91
	V234.717z"/>
<path id="path211" fill="#F4F4F4" d="M92.991,254.476c-0.663,0-1.217,0.584-1.217,1.246v20.1c0,0.66,0.557,1.217,1.217,1.217h20.1
	c0.278,0,0.501-0.15,0.708-0.312h0.509v-0.905v-20.1c0-0.663-0.555-1.246-1.217-1.246H92.991z M93.585,256.288h18.911v18.627v0.312
	H93.585V256.288z"/>
<path id="path213" fill="#F4F4F4" d="M44.527,254.476c-0.665,0-1.217,0.582-1.217,1.246v20.1c0,0.662,0.555,1.217,1.217,1.217
	h46.907c0.665,0,1.217-0.554,1.217-1.217v-0.906v-19.193c0-0.663-0.555-1.246-1.217-1.246H44.527z M45.121,256.288H90.84v18.938
	H45.121V256.288z"/>
<path id="path215" fill="#F4F4F4" d="M114.676,254.476c-0.665,0-1.218,0.582-1.218,1.246v20.1c0,0.662,0.556,1.217,1.218,1.217
	h20.099c0.665,0,1.246-0.554,1.246-1.217v-20.1c0-0.663-0.584-1.246-1.246-1.246H114.676z M115.271,256.288h18.938v18.938h-18.938
	V256.288z"/>
<path id="path217" fill="#F4F4F4" d="M136.36,254.476c-0.665,0-1.217,0.582-1.217,1.246v20.1c0,0.662,0.556,1.217,1.217,1.217
	h20.127c0.664,0,1.217-0.554,1.217-1.217v-20.1c0-0.663-0.556-1.246-1.217-1.246H136.36z M136.955,256.288h18.939v18.938h-18.939
	V256.288z"/>
<path id="path219" fill="#F4F4F4" d="M158.073,254.476c-0.663,0-1.217,0.584-1.217,1.246v20.1c0,0.662,0.556,1.217,1.217,1.217h20.1
	c0.665,0,1.217-0.554,1.217-1.217v-20.1c0-0.663-0.556-1.246-1.217-1.246H158.073z M158.667,256.288h18.91v18.938h-18.91V256.288z"
	/>
<path id="path221" fill="#F4F4F4" d="M179.758,254.476c-0.664,0-1.218,0.582-1.218,1.246v20.1c0,0.665,0.556,1.217,1.218,1.217
	h20.099c0.665,0,1.217-0.554,1.217-1.217v-20.1c0-0.663-0.555-1.246-1.217-1.246H179.758z M180.352,256.288h18.91v18.938h-18.91
	V256.288z"/>
<path id="path223" fill="#F4F4F4" d="M201.442,254.476c-0.665,0-1.217,0.582-1.217,1.246v20.1c0,0.662,0.555,1.217,1.217,1.217
	h20.128c0.664,0,1.217-0.554,1.217-1.217v-20.1c0-0.663-0.556-1.246-1.217-1.246H201.442z M202.037,256.288h18.938v18.938h-18.938
	V256.288z"/>
<path id="path225" fill="#F4F4F4" d="M223.155,254.476c-0.663,0-1.217,0.584-1.217,1.246v20.1c0,0.662,0.556,1.217,1.217,1.217
	h20.099c0.665,0,1.217-0.554,1.217-1.217v-20.1c0-0.663-0.555-1.246-1.217-1.246H223.155z M223.749,256.288h18.911v18.938h-18.911
	V256.288z"/>
<path id="path227" fill="#F4F4F4" d="M244.839,254.476c-0.665,0-1.217,0.582-1.217,1.246v20.1c0,0.662,0.556,1.217,1.217,1.217
	h20.099c0.663,0,1.217-0.554,1.217-1.217v-20.1c0-0.666-0.556-1.246-1.217-1.246H244.839z M245.434,256.288h18.91v18.938h-18.91
	V256.288z"/>
<path id="path229" fill="#F4F4F4" d="M69.042,276.104c-0.665,0-1.217,0.553-1.217,1.217v20.1c0,0.664,0.553,1.217,1.217,1.217h31.14
	c0.668,0,1.217-0.551,1.217-1.217v-20.1c0-0.662-0.556-1.217-1.217-1.217H69.042z M69.636,277.916h29.951v18.91H69.636V277.916z"/>
<path id="path231" fill="#F4F4F4" d="M299.249,276.104c-0.663,0-1.217,0.556-1.217,1.217v20.1c0,0.664,0.554,1.217,1.217,1.217
	h31.139c0.668,0,1.218-0.551,1.218-1.217v-20.1c0-0.666-0.556-1.217-1.218-1.217H299.249z M299.843,277.916h29.951v18.91h-29.951
	V277.916z"/>
<path id="path233" fill="#F4F4F4" d="M101.823,276.104c-0.664,0-1.217,0.553-1.217,1.217v20.1c0,0.664,0.553,1.217,1.217,1.217
	h195.783c0.278,0,0.5-0.149,0.708-0.312h0.51v-0.905v-20.1c0-0.662-0.556-1.217-1.217-1.217H101.823z M102.418,277.916h194.594
	v18.599v0.312H102.418V277.916z"/>
<path id="path235" fill="#F4F4F4" d="M288.236,254.476c-0.664,0-1.245,0.582-1.245,1.246v20.1c0,0.665,0.583,1.217,1.245,1.217
	h20.099c0.666,0,1.218-0.554,1.218-1.217v-20.1c0-0.666-0.554-1.246-1.218-1.246H288.236z M288.803,256.288h18.938v18.938h-18.938
	V256.288z"/>
<path id="path237" fill="#F4F4F4" d="M309.978,254.476c-0.663,0-1.218,0.582-1.218,1.246v20.1c0,0.665,0.555,1.217,1.218,1.217
	h31.14c0.665,0,1.217-0.554,1.217-1.217v-20.1c0-0.666-0.553-1.246-1.217-1.246H309.978z M310.571,256.288h29.951v18.938h-29.951
	V256.288z"/>
<path id="path239" fill="#F4F4F4" d="M266.496,254.476c-0.665,0-1.217,0.582-1.217,1.246v20.1c0,0.665,0.554,1.217,1.217,1.217
	h20.127c0.663,0,1.217-0.554,1.217-1.217v-20.1c0-0.666-0.556-1.246-1.217-1.246H266.496z M267.09,256.288h18.938v18.938H267.09
	V256.288z"/>
<path id="path241" fill="#F4F4F4" d="M298.767,232.905c-0.664,0-1.217,0.552-1.217,1.217v20.099c0,0.667,0.555,1.218,1.217,1.218
	h20.099c0.664,0,1.245-0.556,1.245-1.218v-20.099c0-0.663-0.583-1.217-1.245-1.217H298.767z M299.362,234.717H318.3v18.91h-18.938
	V234.717z"/>
<path id="path243" fill="#F4F4F4" d="M358.442,232.905c-0.662,0-1.246,0.555-1.246,1.217v20.099c0,0.663,0.584,1.218,1.246,1.218
	h20.099c0.664,0,1.218-0.556,1.218-1.218v-20.099c0-0.663-0.556-1.217-1.218-1.217H358.442z M359.009,234.717h18.938v18.91h-18.938
	V234.717z"/>
<path id="path245" fill="#F4F4F4" d="M336.757,211.334c-0.661,0-1.217,0.556-1.217,1.217v20.1c0,0.175,0.011,0.148,0,0.255h-14.805
	c-0.662,0-1.219,0.552-1.219,1.217v20.099c0,0.667,0.557,1.218,1.219,1.218h36.206c0.31,0,0.575-0.116,0.792-0.312h0.426v-0.906
	v-41.67c0-0.666-0.556-1.217-1.218-1.217H336.757z M337.352,213.146h18.996v40.17v0.312h-35.019v-18.91h14.692
	c0.209,0,0.494-0.054,0.735-0.227c0.242-0.173,0.381-0.417,0.454-0.623c0.146-0.41,0.141-0.745,0.141-1.217V213.146z"/>
<path id="path247" fill="#F4F4F4" d="M315.016,211.334c-0.661,0-1.245,0.556-1.245,1.217v20.1c0,0.662,0.584,1.217,1.245,1.217
	h20.101c0.662,0,1.217-0.556,1.217-1.217v-20.1c0-0.662-0.556-1.217-1.217-1.217H315.016z M315.582,213.146h18.939v18.91h-18.939
	V213.146z"/>
<path id="path249" fill="#F4F4F4" d="M358.414,211.334c-0.664,0-1.218,0.553-1.218,1.217v20.1c0,0.666,0.554,1.217,1.218,1.217
	h20.099c0.664,0,1.218-0.556,1.218-1.217v-20.1c0-0.662-0.556-1.217-1.218-1.217H358.414z M359.009,213.146h18.909v18.91h-18.909
	V213.146z"/>
<path id="path251" fill="#F4F4F4" d="M388.704,211.334c-0.664,0-1.246,0.553-1.246,1.217v20.1c0,0.666,0.582,1.217,1.246,1.217h20.1
	c0.663,0,1.218-0.553,1.218-1.217v-20.1c0-0.666-0.557-1.217-1.218-1.217H388.704z M389.271,213.146h18.938v18.91h-18.938V213.146z"
	/>
<path id="path253" fill="#F4F4F4" d="M410.644,211.334c-0.664,0-1.217,0.556-1.217,1.217v20.1c0,0.662,0.555,1.217,1.217,1.217
	h20.099c0.664,0,1.246-0.553,1.246-1.217v-20.1c0-0.666-0.584-1.217-1.246-1.217H410.644z M411.238,213.146h18.938v18.91h-18.938
	V213.146z"/>
<path id="path255" fill="#F4F4F4" d="M432.61,211.334c-0.662,0-1.217,0.556-1.217,1.217v20.1c0,0.662,0.556,1.217,1.217,1.217
	h20.101c0.662,0,1.217-0.556,1.217-1.217v-20.1c0-0.662-0.557-1.217-1.217-1.217H432.61z M433.205,213.146h18.911v18.91h-18.911
	V213.146z"/>
<path id="path257" fill="#F4F4F4" d="M388.704,232.989c-0.664,0-1.246,0.582-1.246,1.246v20.1c0,0.665,0.582,1.217,1.246,1.217h20.1
	c0.663,0,1.218-0.554,1.218-1.217v-20.1c0-0.666-0.557-1.246-1.218-1.246H388.704z M389.271,234.801h18.938v18.939h-18.938V234.801z
	"/>
<path id="path259" fill="#F4F4F4" d="M410.644,232.989c-0.664,0-1.217,0.584-1.217,1.246v20.1c0,0.662,0.555,1.217,1.217,1.217
	h20.099c0.664,0,1.246-0.554,1.246-1.217v-20.1c0-0.666-0.584-1.246-1.246-1.246H410.644z M411.238,234.801h18.938v18.939h-18.938
	V234.801z"/>
<path id="path261" fill="#F4F4F4" d="M432.61,232.989c-0.662,0-1.217,0.584-1.217,1.246v20.1c0,0.662,0.556,1.217,1.217,1.217
	h20.101c0.662,0,1.217-0.556,1.217-1.217v-20.1c0-0.662-0.557-1.246-1.217-1.246H432.61z M433.205,234.801h18.911v18.939h-18.911
	V234.801z"/>
<path id="path263" fill="#F4F4F4" d="M461.854,211.334c-0.663,0-1.217,0.553-1.217,1.217v20.1c0,0.666,0.555,1.217,1.217,1.217
	h20.099c0.664,0,1.219-0.553,1.219-1.217v-20.1c0-0.666-0.557-1.217-1.219-1.217H461.854z M462.448,213.146h18.91v18.91h-18.91
	V213.146z"/>
<path id="path265" fill="#F4F4F4" d="M483.821,211.334c-0.661,0-1.217,0.556-1.217,1.217v20.1c0,0.662,0.557,1.217,1.217,1.217h20.1
	c0.663,0,1.217-0.553,1.217-1.217v-20.1c0-0.666-0.556-1.217-1.217-1.217H483.821z M484.416,213.146h18.91v18.91h-18.91V213.146z"/>
<path id="path267" fill="#F4F4F4" d="M505.761,211.334c-0.662,0-1.218,0.556-1.218,1.217v20.1c0,0.662,0.558,1.217,1.218,1.217h20.1
	c0.663,0,1.245-0.553,1.245-1.217v-20.1c0-0.666-0.584-1.217-1.245-1.217H505.761z M506.354,213.146h18.939v18.91h-18.939V213.146z"
	/>
<path id="path269" fill="#F4F4F4" d="M527.53,211.334c-0.664,0-1.218,0.553-1.218,1.217v20.1c0,0.666,0.556,1.217,1.218,1.217h20.1
	c0.663,0,1.217-0.553,1.217-1.217v-20.1c0-0.666-0.556-1.217-1.217-1.217H527.53z M528.124,213.146h18.91v18.91h-18.91V213.146z"/>
<path id="path271" fill="#F4F4F4" d="M461.854,189.564c-0.665,0-1.217,0.553-1.217,1.217v20.1c0,0.664,0.555,1.217,1.217,1.217
	h20.099c0.664,0,1.219-0.555,1.219-1.217v-20.1c0-0.666-0.553-1.217-1.219-1.217H461.854z M462.448,191.376h18.91v18.91h-18.91
	V191.376z"/>
<path id="path273" fill="#F4F4F4" d="M483.821,189.564c-0.663,0-1.217,0.556-1.217,1.217v20.1c0,0.66,0.557,1.217,1.217,1.217h20.1
	c0.663,0,1.217-0.555,1.217-1.217v-20.1c0-0.666-0.552-1.217-1.217-1.217H483.821z M484.416,191.376h18.91v18.91h-18.91V191.376z"/>
<path id="path275" fill="#F4F4F4" d="M505.761,189.564c-0.664,0-1.218,0.556-1.218,1.217v20.1c0,0.66,0.558,1.217,1.218,1.217h20.1
	c0.663,0,1.245-0.555,1.245-1.217v-20.1c0-0.666-0.58-1.217-1.245-1.217H505.761z M506.354,191.376h18.939v18.91h-18.939V191.376z"
	/>
<path id="path277" fill="#F4F4F4" d="M527.53,189.564c-0.666,0-1.218,0.553-1.218,1.217v20.1c0,0.664,0.556,1.217,1.218,1.217h20.1
	c0.663,0,1.217-0.555,1.217-1.217v-20.1c0-0.666-0.552-1.217-1.217-1.217H527.53z M528.124,191.376h18.91v18.91h-18.91V191.376z"/>
<path id="path279" fill="#F4F4F4" d="M461.854,232.989c-0.663,0-1.217,0.582-1.217,1.246v20.1c0,0.665,0.555,1.217,1.217,1.217
	h20.099c0.664,0,1.219-0.554,1.219-1.217v-20.1c0-0.666-0.557-1.246-1.219-1.246H461.854z M462.448,234.801h18.91v18.939h-18.91
	V234.801z"/>
<path id="path281" fill="#F4F4F4" d="M483.821,232.989c-0.661,0-1.217,0.584-1.217,1.246v20.1c0,0.662,0.557,1.217,1.217,1.217h20.1
	c0.663,0,1.217-0.554,1.217-1.217v-20.1c0-0.666-0.556-1.246-1.217-1.246H483.821z M484.416,234.801h18.91v18.939h-18.91V234.801z"
	/>
<path id="path283" fill="#F4F4F4" d="M505.761,232.989c-0.662,0-1.218,0.584-1.218,1.246v20.1c0,0.662,0.558,1.217,1.218,1.217h20.1
	c0.663,0,1.245-0.554,1.245-1.217v-20.1c0-0.666-0.584-1.246-1.245-1.246H505.761z M506.354,234.801h18.939v18.939h-18.939V234.801z
	"/>
<path id="path285" fill="#F4F4F4" d="M527.53,232.989c-0.664,0-1.218,0.582-1.218,1.246v20.1c0,0.665,0.556,1.217,1.218,1.217h20.1
	c0.663,0,1.217-0.554,1.217-1.217v-20.1c0-0.666-0.556-1.246-1.217-1.246H527.53z M528.124,234.801h18.91v18.939h-18.91V234.801z"/>
<path id="path287" fill="#F4F4F4" d="M461.854,254.675c-0.663,0-1.217,0.552-1.217,1.217v20.127c0,0.668,0.554,1.218,1.217,1.218
	h20.099c0.668,0,1.219-0.551,1.219-1.218v-20.127c0-0.666-0.557-1.217-1.219-1.217H461.854z M462.448,256.486h18.91v18.938h-18.91
	V256.486z"/>
<path id="path289" fill="#F4F4F4" d="M483.821,254.675c-0.661,0-1.217,0.555-1.217,1.217v20.127c0,0.665,0.554,1.218,1.217,1.218
	h20.1c0.667,0,1.217-0.551,1.217-1.218v-20.127c0-0.666-0.556-1.217-1.217-1.217H483.821z M484.416,256.486h18.91v18.938h-18.91
	V256.486z"/>
<path id="path291" fill="#F4F4F4" d="M505.761,254.675c-0.662,0-1.218,0.555-1.218,1.217v20.127c0,0.665,0.554,1.218,1.218,1.218
	h20.1c0.666,0,1.245-0.551,1.245-1.218v-20.127c0-0.666-0.584-1.217-1.245-1.217H505.761z M506.354,256.486h18.939v18.938h-18.939
	V256.486z"/>
<path id="path293" fill="#F4F4F4" d="M527.53,254.675c-0.664,0-1.218,0.552-1.218,1.217v41.868c0,0.667,0.556,1.218,1.218,1.218
	h20.1c0.663,0,1.217-0.553,1.217-1.218v-41.868c0-0.666-0.556-1.217-1.217-1.217H527.53z M528.124,256.486h18.91v40.68h-18.91
	V256.486z"/>
<path id="path295" fill="#F4F4F4" d="M461.854,276.358c-0.665,0-1.217,0.554-1.217,1.217v20.101c0,0.664,0.555,1.245,1.217,1.245
	h41.868c0.662,0,1.219-0.586,1.219-1.245v-20.101c0-0.661-0.555-1.217-1.219-1.217H461.854z M462.448,278.17h40.68v18.939h-40.68
	V278.17z"/>
<path id="path297" fill="#F4F4F4" d="M505.761,276.358c-0.664,0-1.218,0.557-1.218,1.217v20.101c0,0.66,0.558,1.245,1.218,1.245
	h20.1c0.663,0,1.245-0.583,1.245-1.245v-20.101c0-0.665-0.58-1.217-1.245-1.217H505.761z M506.354,278.17h18.939v18.939h-18.939
	V278.17z"/>
<path id="path299" fill="#F4F4F4" d="M326.396,189.733c-0.662,0-1.217,0.554-1.217,1.218v20.1c0,0.665,0.555,1.217,1.217,1.217
	h20.101c0.663,0,1.217-0.553,1.217-1.217v-20.1c0-0.666-0.555-1.218-1.217-1.218H326.396z M326.991,191.545h18.91v18.911h-18.91
	V191.545z"/>
<path id="path301" fill="#F4F4F4" d="M348.393,189.733c-0.662,0-1.218,0.557-1.218,1.218v20.1c0,0.662,0.556,1.217,1.218,1.217
	h29.865c0.662,0,1.245-0.556,1.245-1.217v-20.1c0-0.663-0.585-1.218-1.245-1.218H348.393z M348.986,191.545h28.705v18.911h-28.705
	V191.545z"/>
<path id="path303" fill="#F4F4F4" d="M388.676,189.733c-0.664,0-1.218,0.557-1.218,1.218v20.1c0,0.662,0.556,1.217,1.218,1.217
	h30.517c0.664,0,1.217-0.556,1.217-1.217v-20.1c0-0.663-0.555-1.218-1.217-1.218H388.676z M389.271,191.545h29.327v18.911h-29.327
	V191.545z"/>
<path id="path305" fill="#F4F4F4" d="M421.628,189.733c-0.664,0-1.219,0.557-1.219,1.218v20.1c0,0.662,0.557,1.217,1.219,1.217
	h30.828c0.662,0,1.217-0.556,1.217-1.217v-20.1c0-0.663-0.556-1.218-1.217-1.218H421.628z M422.222,191.545h29.64v18.911h-29.64
	V191.545z"/>
</svg>
