<?xml version="1.0" encoding="utf-8"?>
<!-- Generator: Adobe Illustrator 13.0.0, SVG Export Plug-In . SVG Version: 6.00 Build 14948)  -->
<!DOCTYPE svg [
	<!ENTITY ns_flows "http://ns.adobe.com/Flows/1.0/">
	<!ENTITY ns_extend "http://ns.adobe.com/Extensibility/1.0/">
	<!ENTITY ns_ai "http://ns.adobe.com/AdobeIllustrator/10.0/">
	<!ENTITY ns_graphs "http://ns.adobe.com/Graphs/1.0/">
	<!ENTITY ns_vars "http://ns.adobe.com/Variables/1.0/">
	<!ENTITY ns_imrep "http://ns.adobe.com/ImageReplacement/1.0/">
	<!ENTITY ns_sfw "http://ns.adobe.com/SaveForWeb/1.0/">
	<!ENTITY ns_custom "http://ns.adobe.com/GenericCustomNamespace/1.0/">
	<!ENTITY ns_adobe_xpath "http://ns.adobe.com/XPath/1.0/">
]>
<svg version="1.2" baseProfile="tiny" id="Layer_3" xmlns:x="&ns_extend;" xmlns:i="&ns_ai;" xmlns:graph="&ns_graphs;"
	 xmlns="http://www.w3.org/2000/svg" xmlns:xlink="http://www.w3.org/1999/xlink" xmlns:a="http://ns.adobe.com/AdobeSVGViewerExtensions/3.0/"
	 x="0px" y="0px" width="598.191px" height="350.257px" viewBox="0 0 598.191 350.257" xml:space="preserve">
<metadata>
	<sfw  xmlns="&ns_sfw;">
		<slices></slices>
		<sliceSourceBounds  height="297.403" width="383.113" y="396.43" x="768.302" bottomLeftOrigin="true"></sliceSourceBounds>
	</sfw>
</metadata>
<path fill="#F4F4F4" d="M424.144,317.612l-1.441-0.251l0.758-1.251c13.222-21.773,27.552-66.131,28.189-93.506l0,0
	c0.088-3.7,0.128-7.365,0.128-10.954l0,0c0.013-23.146-1.756-43.25-3.42-48.734l0,0c-0.987-3.296-2.014-5.638-3.955-7.171l0,0
	c-1.938-1.54-5.016-2.451-10.42-2.449l0,0H162.928c-5.404-0.002-8.484,0.909-10.419,2.449l0,0c-1.942,1.533-2.968,3.875-3.955,7.171
	l0,0c-1.666,5.486-3.436,25.592-3.423,48.734l0,0c0,3.587,0.04,7.251,0.13,10.954l0,0c0.638,27.375,14.968,71.732,28.19,93.506l0,0
	l0.759,1.251l-1.445,0.251c-2.293,0.397-5.602,0.585-9.414,0.585l0,0c-9.54-0.009-22.083-1.172-28.77-3.632l0,0l-0.429-0.159
	l-0.158-0.428c-9.944-26.517-27.1-66.108-27.096-121.998l0,0c0-11.465,0.722-23.616,2.373-36.48l0,0
	c9.629-75.631,49.143-113.55,109.86-121.529l0,0l0.263,1.981c-59.949,8.02-98.435,44.767-108.139,119.802l0,0
	c-1.641,12.78-2.356,24.843-2.356,36.226l0,0c0.004,55.184,16.81,94.281,26.805,120.862l0,0c6.306,2.2,18.513,3.366,27.647,3.355
	l0,0c2.958,0.002,5.607-0.119,7.619-0.35l0,0c-13.216-22.615-27.022-65.771-27.708-93.196l0,0c-0.09-3.721-0.13-7.4-0.132-11.002
	l0,0c0.013-23.313,1.708-43.25,3.507-49.309l0,0c1.014-3.37,2.154-6.196,4.628-8.165l0,0c2.482-1.958,6.069-2.882,11.663-2.882l0,0
	h271.055c5.594,0,9.183,0.924,11.661,2.882l0,0c2.476,1.969,3.616,4.794,4.63,8.165l0,0c1.795,6.057,3.492,25.993,3.505,49.309l0,0
	c-0.002,3.604-0.042,7.283-0.131,11.002l0,0c-0.683,27.425-14.491,70.581-27.707,93.196l0,0c2.01,0.23,4.661,0.352,7.619,0.35l0,0
	c9.132,0.011,21.34-1.155,27.647-3.355l0,0c9.993-26.583,26.801-65.679,26.805-120.862l0,0c-0.002-11.381-0.717-23.445-2.355-36.226
	l0,0c-9.705-75.035-48.19-111.783-108.14-119.802l0,0h0.002l0.261-1.981C438.497,41.95,478.011,79.869,487.64,155.5l0,0
	c1.651,12.866,2.371,25.015,2.371,36.48l0,0c0.004,55.888-17.151,95.479-27.094,121.998l0,0l-0.162,0.43l-0.427,0.157
	c-6.688,2.46-19.23,3.623-28.769,3.634l0,0C429.745,318.197,426.437,318.009,424.144,317.612L424.144,317.612z"/>
<path fill="#F4F4F4" d="M226.596,51.129c-4.97-0.002-9-4.029-9-9.001l0,0v-4.167c0.004-2.669,1.702-5.061,4.619-7.075l0,0
	c2.935-2.03,7.187-3.797,12.767-5.288l0,0c11.156-2.971,27.637-4.801,49.278-4.804l0,0h28.388
	c32.481,0.027,53.269,4.063,62.045,10.091l0,0c2.917,2.014,4.615,4.405,4.621,7.075l0,0v4.167c-0.002,4.972-4.029,8.999-9.001,9.001
	l0,0v-1v-1c3.867-0.006,6.994-3.135,7-7l0,0v-4.167c0.006-1.748-1.11-3.585-3.76-5.431l0,0c-2.632-1.829-6.703-3.552-12.144-4.999
	l0,0c-10.885-2.904-27.236-4.739-48.762-4.737l0,0h-28.388c-32.269-0.027-52.98,4.188-60.906,9.736l0,0
	c-2.649,1.846-3.764,3.683-3.76,5.431l0,0v4.167c0.008,3.865,3.135,6.994,7,7l0,0h143.718v1v1H226.596L226.596,51.129z"/>
<path fill="#F4F4F4" d="M347.731,65.711h-98.553c-4.73,0.002-7.707-0.77-9.727-1.719l0,0c-2.004-0.942-3.076-2.068-3.703-2.423l0,0
	c-1.865-1.132-6.858-5.497-8.229-6.688l0,0c-1.189-1.062-2.892-1.971-3.778-4.317l0,0l1.874-0.703
	c0.616,1.651,1.745,2.242,3.221,3.514l0,0c1.297,1.143,6.47,5.611,7.941,6.478l0,0c1.037,0.645,1.801,1.521,3.524,2.328l0,0
	c1.709,0.801,4.356,1.529,8.876,1.531l0,0h98.553c4.521-0.002,7.17-0.73,8.877-1.531l0,0c1.726-0.807,2.487-1.683,3.526-2.328l0,0
	c1.469-0.865,6.642-5.335,7.938-6.478l0,0c1.477-1.272,2.605-1.863,3.222-3.514l0,0h0.002l1.871,0.701
	c-0.884,2.348-2.587,3.257-3.777,4.319l0,0c-1.371,1.19-6.364,5.555-8.228,6.688l0,0c-0.628,0.355-1.7,1.481-3.704,2.423l0,0
	c-2.019,0.949-4.989,1.72-9.708,1.719l0,0C347.745,65.711,347.738,65.711,347.731,65.711L347.731,65.711z"/>
<path fill="#F4F4F4" d="M331.981,80.044H264.93c-11.387,0.01-17.476-6.718-25.099-15.772l0,0l1.528-1.29
	c7.712,9.116,13.124,15.052,23.571,15.062l0,0h67.052c10.447-0.01,15.857-5.946,23.569-15.062l0,0l0.002,0.002l1.527,1.288
	c-7.617,9.047-13.701,15.772-25.072,15.772l0,0C332,80.044,331.99,80.044,331.981,80.044L331.981,80.044z"/>
<path fill="#F4F4F4" d="M256.146,78.84l1.401-1.426c4.628,4.533,14.829,12.121,33.465,12.131l0,0l14.887-0.002
	c18.636-0.008,28.837-7.596,33.466-12.129l0,0h0.002l1.4,1.426c-4.872,4.802-15.67,12.713-34.868,12.703l0,0l-14.887,0.002
	C271.814,91.554,261.016,83.642,256.146,78.84L256.146,78.84z"/>
<path fill="#F4F4F4" d="M147.928,147.962c-5.875-0.004-12.802-1.37-18.338-5.589l0,0c-5.545-4.215-9.554-11.331-9.538-22.335l0,0
	c0-4.264,0.59-9.118,1.905-14.642l0,0l1.945,0.464c-1.286,5.398-1.851,10.099-1.851,14.178l0,0
	c0.017,10.54,3.72,16.885,8.752,20.745l0,0c5.039,3.856,11.55,5.182,17.125,5.18l0,0H448.76c5.574,0.002,12.084-1.323,17.124-5.18
	l0,0c5.03-3.86,8.733-10.208,8.75-20.745l0,0c0-4.079-0.564-8.78-1.848-14.178l0,0h0.002l1.945-0.464
	c1.311,5.524,1.9,10.378,1.902,14.642l0,0c0.017,11.004-3.992,18.12-9.537,22.335l0,0c-5.539,4.22-12.466,5.585-18.339,5.589l0,0
	H147.928L147.928,147.962z"/>
<path fill="#F4F4F4" d="M384.623,316.96h-1.001V180.629c-0.007-3.867-3.136-6.994-7-7.002l0,0H220.288
	c-3.865,0.008-6.991,3.135-7,7.002l0,0v136.333h-1c-13.694-0.002-39.653-0.002-39.692-0.002l0,0v-1.999c0.039,0,24.777,0,38.693,0
	l0,0V180.629c0-4.972,4.028-9.001,8.999-9.001l0,0h156.334c4.971,0,8.999,4.028,9.001,9.001l0,0v134.332c15.938,0,38.639,0,38.639,0
	l0,0v2.001C424.262,316.96,400.596,316.96,384.623,316.96L384.623,316.96z M172.596,316.96v0.002V316.96L172.596,316.96z"/>
<polygon fill="#F4F4F4" points="212.263,313.127 212.263,311.128 384.263,311.128 384.263,313.127 212.263,313.127 "/>
<g>
	<path fill="#F4F4F4" d="M240.763,200.961v-0.999v-1.002h19.167c3.083-0.004,5.576-2.499,5.583-5.582l0,0
		c-0.006-3.084-2.5-5.579-5.583-5.583l0,0h-19.167c-3.085,0.004-5.579,2.499-5.584,5.583l0,0c0.006,3.083,2.501,5.578,5.584,5.582
		l0,0v1.002V200.961c-4.19,0-7.583-3.397-7.585-7.583l0,0c0.002-4.188,3.396-7.583,7.585-7.583l0,0h19.167
		c4.188,0,7.581,3.395,7.583,7.583l0,0c-0.002,4.186-3.395,7.583-7.583,7.583l0,0H240.763L240.763,200.961z"/>
	<path fill="#F4F4F4" d="M288.845,200.961v-0.999v-1.002l19.167,0.002c3.083-0.006,5.578-2.501,5.582-5.584l0,0
		c-0.004-3.084-2.499-5.579-5.582-5.583l0,0h-19.167c-3.083,0.004-5.579,2.499-5.583,5.583l0,0c0.004,3.083,2.5,5.578,5.583,5.582
		l0,0v1.002V200.961c-4.188,0-7.583-3.397-7.583-7.583l0,0c0-4.188,3.395-7.583,7.583-7.583l0,0h19.167
		c4.188,0,7.583,3.395,7.583,7.583l0,0c0,4.186-3.395,7.583-7.583,7.583l0,0H288.845L288.845,200.961z"/>
	<path fill="#F4F4F4" d="M336.927,200.962v-1.001v-1.001l19.168,0.002c3.083-0.006,5.578-2.5,5.584-5.584l0,0
		c-0.006-3.085-2.499-5.579-5.584-5.584l0,0h-19.168c-3.081,0.005-5.576,2.499-5.582,5.584l0,0c0.006,3.084,2.501,5.578,5.582,5.582
		l0,0v1.001V200.962c-4.188-0.002-7.582-3.396-7.582-7.584l0,0c0-4.189,3.395-7.583,7.582-7.585l0,0l19.168,0.002
		c4.189,0,7.583,3.394,7.583,7.583l0,0c0,4.188-3.394,7.582-7.583,7.584l0,0H336.927L336.927,200.962z"/>
</g>
<g>
	<path fill="#F4F4F4" d="M240.762,232.518v-1.002v-0.999h19.168c3.083-0.005,5.577-2.501,5.582-5.584l0,0
		c-0.004-3.084-2.499-5.577-5.582-5.583l0,0h-19.168c-3.083,0.006-5.577,2.499-5.583,5.583l0,0c0.006,3.083,2.5,5.579,5.583,5.584
		l0,0v0.999V232.518c-4.188-0.002-7.583-3.396-7.583-7.585l0,0c0-4.188,3.395-7.583,7.583-7.583l0,0h19.168
		c4.188,0,7.582,3.396,7.583,7.583l0,0c-0.002,4.188-3.395,7.583-7.583,7.585l0,0H240.762L240.762,232.518z"/>
	<path fill="#F4F4F4" d="M288.844,232.518v-1.002v-0.999h19.167c3.083-0.005,5.577-2.501,5.582-5.584l0,0
		c-0.005-3.084-2.499-5.577-5.582-5.583l0,0h-19.167c-3.083,0.006-5.577,2.499-5.583,5.583l0,0c0.006,3.083,2.5,5.579,5.583,5.584
		l0,0v0.999V232.518c-4.188-0.002-7.581-3.396-7.583-7.585l0,0c0.002-4.188,3.395-7.583,7.583-7.583l0,0h19.167
		c4.188,0,7.584,3.396,7.584,7.583l0,0c0,4.188-3.396,7.583-7.584,7.585l0,0H288.844L288.844,232.518z"/>
	<path fill="#F4F4F4" d="M336.927,232.517v-0.999v-1.001h19.168c3.083-0.006,5.578-2.501,5.584-5.584l0,0
		c-0.006-3.083-2.499-5.577-5.584-5.582l0,0h-19.168c-3.081,0.005-5.576,2.499-5.582,5.582l0,0c0.006,3.083,2.501,5.578,5.582,5.584
		l0,0v1.001V232.517c-4.188,0-7.582-3.396-7.582-7.584l0,0c0-4.188,3.395-7.583,7.582-7.583l0,0h19.168
		c4.189,0,7.583,3.396,7.583,7.583l0,0c0,4.188-3.394,7.584-7.583,7.584l0,0H336.927L336.927,232.517z"/>
</g>
<g>
	<path fill="#F4F4F4" d="M240.762,264.073v-1.001v-1h19.167c3.084-0.006,5.578-2.5,5.584-5.584l0,0
		c-0.006-3.084-2.5-5.577-5.584-5.582l0,0h-19.167c-3.084,0.005-5.578,2.498-5.583,5.582l0,0c0.006,3.084,2.5,5.578,5.583,5.584l0,0
		v1V264.073c-4.189-0.002-7.583-3.397-7.583-7.585l0,0c0-4.188,3.394-7.583,7.583-7.583l0,0h19.167c4.189,0,7.583,3.396,7.583,7.583
		l0,0c0,4.188-3.394,7.583-7.583,7.585l0,0H240.762L240.762,264.073z"/>
	<path fill="#F4F4F4" d="M288.846,264.073v-1.001v-1h19.166c3.082-0.006,5.578-2.5,5.582-5.584l0,0
		c-0.004-3.084-2.498-5.577-5.582-5.582l0,0h-19.166c-3.084,0.005-5.578,2.498-5.583,5.582l0,0c0.006,3.084,2.5,5.578,5.583,5.584
		l0,0v1V264.073c-4.189-0.002-7.583-3.397-7.585-7.585l0,0c0.002-4.188,3.396-7.583,7.585-7.583l0,0h19.166
		c4.188,0,7.583,3.396,7.583,7.583l0,0c0,4.188-3.394,7.583-7.583,7.585l0,0H288.846L288.846,264.073z"/>
	<path fill="#F4F4F4" d="M336.927,264.073v-1.001v-1h19.169c3.082-0.006,5.577-2.5,5.582-5.584l0,0
		c-0.005-3.084-2.498-5.577-5.582-5.582l0,0h-19.169c-3.082,0.005-5.577,2.498-5.581,5.582l0,0c0.004,3.084,2.499,5.578,5.581,5.584
		l0,0v1V264.073c-4.188-0.002-7.581-3.397-7.583-7.585l0,0c0.002-4.188,3.396-7.583,7.583-7.583l0,0h19.169
		c4.188,0,7.583,3.396,7.583,7.583l0,0c0,4.188-3.394,7.583-7.583,7.585l0,0H336.927L336.927,264.073z"/>
</g>
<g>
	<path fill="#F4F4F4" d="M240.762,295.628v-1.001v-1.001h19.167c3.083-0.005,5.578-2.499,5.583-5.582l0,0
		c-0.004-3.084-2.499-5.578-5.583-5.583l0,0h-19.167c-3.083,0.005-5.578,2.499-5.584,5.583l0,0c0.006,3.083,2.501,5.577,5.584,5.582
		l0,0v1.001V295.628c-4.188-0.002-7.583-3.397-7.584-7.584l0,0c0.002-4.189,3.396-7.583,7.584-7.585l0,0h19.167
		c4.189,0.002,7.583,3.396,7.583,7.585l0,0c0,4.187-3.394,7.582-7.583,7.584l0,0H240.762L240.762,295.628z"/>
	<path fill="#F4F4F4" d="M288.846,295.628v-1.001v-1.001l19.166,0.002c3.083-0.007,5.578-2.501,5.582-5.584l0,0
		c-0.004-3.084-2.499-5.578-5.582-5.583l0,0h-19.166c-3.083,0.005-5.578,2.499-5.584,5.583l0,0c0.006,3.083,2.501,5.577,5.584,5.582
		l0,0v1.001V295.628c-4.189-0.002-7.583-3.397-7.585-7.584l0,0c0.002-4.189,3.396-7.583,7.585-7.585l0,0l19.166,0.002
		c4.188,0,7.583,3.394,7.583,7.583l0,0c0,4.187-3.395,7.582-7.583,7.584l0,0H288.846L288.846,295.628z"/>
	<path fill="#F4F4F4" d="M336.927,295.628v-1.001v-1.001l19.168,0.002c3.083-0.007,5.578-2.501,5.583-5.584l0,0
		c-0.005-3.084-2.5-5.578-5.583-5.583l0,0h-19.168c-3.081,0.005-5.576,2.499-5.583,5.583l0,0c0.007,3.083,2.502,5.577,5.583,5.582
		l0,0v1.001V295.628c-4.187-0.002-7.581-3.397-7.583-7.584l0,0c0.002-4.189,3.396-7.583,7.583-7.585l0,0l19.168,0.002
		c4.189,0,7.583,3.394,7.585,7.583l0,0c-0.002,4.187-3.396,7.582-7.585,7.584l0,0H336.927L336.927,295.628z"/>
</g>
<path fill="#F4F4F4" d="M264.768,130.721c-1.564-1.396-2.365-3.341-2.363-5.284l0,0c-0.002-1.678,0.595-3.372,1.801-4.719l0,0
	l13.216-14.789c1.396-1.563,3.341-2.364,5.283-2.364l0,0c1.676,0,3.368,0.596,4.717,1.801l0,0c1.565,1.398,2.366,3.343,2.364,5.285
	l0,0c0,1.678-0.596,3.368-1.801,4.717l0,0l-13.214,14.789l-0.745-0.665l0.745,0.667c-1.398,1.563-3.343,2.361-5.286,2.361l0,0
	C267.808,132.521,266.115,131.926,264.768,130.721L264.768,130.721z M278.913,107.262l-13.216,14.791
	c-0.869,0.972-1.292,2.175-1.292,3.384l0,0c0,1.4,0.571,2.785,1.696,3.792l0,0c0.971,0.867,2.177,1.29,3.384,1.292l0,0
	c1.4-0.002,2.786-0.571,3.794-1.695l0,0l-0.001-0.001l13.216-14.789c0.867-0.973,1.292-2.177,1.292-3.384l0,0
	c-0.002-1.402-0.571-2.786-1.696-3.792l0,0c-0.973-0.871-2.177-1.292-3.384-1.294l0,0
	C281.305,105.568,279.918,106.137,278.913,107.262L278.913,107.262z"/>
<path fill="#F4F4F4" d="M298.485,132.52c-1.678,0.002-3.37-0.596-4.717-1.799l0,0c-1.564-1.397-2.366-3.343-2.364-5.286l0,0
	c-0.002-1.675,0.596-3.369,1.801-4.717l0,0l13.215-14.788c1.397-1.564,3.341-2.366,5.284-2.366l0,0c1.675,0,3.364,0.596,4.717,1.803
	l0,0c1.563,1.397,2.365,3.341,2.363,5.284l0,0c0,1.678-0.596,3.368-1.801,4.717l0,0l-13.214,14.79
	c-1.397,1.562-3.337,2.361-5.278,2.361l0,0C298.49,132.52,298.488,132.52,298.485,132.52L298.485,132.52z M307.913,107.262
	l-13.215,14.79c-0.87,0.973-1.292,2.176-1.294,3.383l0,0c0.002,1.401,0.573,2.786,1.698,3.794l0,0
	c0.971,0.868,2.174,1.292,3.384,1.292l0,0c1.401-0.002,2.786-0.571,3.794-1.696l0,0l13.213-14.788
	c0.867-0.975,1.292-2.178,1.294-3.386l0,0c-0.002-1.401-0.57-2.786-1.695-3.792l0,0c-0.976-0.87-2.179-1.292-3.386-1.294l0,0
	C310.304,105.568,308.919,106.137,307.913,107.262L307.913,107.262z"/>
<path fill="#F4F4F4" d="M151.094,95.711c0.002-24.439,19.813-44.25,44.251-44.25l0,0c24.439,0,44.25,19.811,44.25,44.25l0,0
	c0,24.438-19.811,44.25-44.25,44.251l0,0C170.907,139.96,151.097,120.149,151.094,95.711L151.094,95.711z M165.47,65.835
	c-7.647,7.649-12.374,18.206-12.374,29.875l0,0c0,11.67,4.727,22.226,12.374,29.875l0,0c7.649,7.647,18.206,12.374,29.875,12.374
	l0,0c11.67,0,22.226-4.727,29.875-12.374l0,0c7.647-7.649,12.374-18.206,12.374-29.875l0,0c0-11.67-4.727-22.226-12.374-29.875l0,0
	c-7.649-7.647-18.206-12.374-29.875-12.374l0,0C183.676,53.461,173.12,58.188,165.47,65.835L165.47,65.835z"/>
<path fill="#F4F4F4" d="M163.262,95.711c0-17.719,14.365-32.081,32.083-32.083l0,0c17.719,0.002,32.083,14.365,32.083,32.083l0,0
	c0,17.721-14.365,32.083-32.083,32.083l0,0C177.627,127.794,163.262,113.432,163.262,95.711L163.262,95.711z M165.261,95.711
	c0.03,16.615,13.469,30.054,30.084,30.084l0,0c16.615-0.031,30.054-13.469,30.083-30.084l0,0
	c-0.028-16.615-13.467-30.054-30.083-30.083l0,0C178.73,65.657,165.292,79.096,165.261,95.711L165.261,95.711z"/>
<path fill="#F4F4F4" d="M344.095,142.295v-0.002v-0.998v-1.002h29.083c1.879,0,3.536-0.923,4.544-2.336l0,0l8.411-12.101
	c0.709-0.918,1.129-2.062,1.129-3.311l0,0c0-2.128-1.225-3.966-3.034-4.868l0,0l-18.97-10.076c-1.14-0.622-2.44-0.975-3.829-0.975
	l0,0c-2.717,0-5.11,1.351-6.574,3.44l0,0l-15.238,20.657c-0.847,1.015-1.354,2.312-1.354,3.737l0,0
	c0.004,3.222,2.61,5.828,5.832,5.832l0,0v1.002v0.998c-4.325,0-7.833-3.506-7.833-7.832l0,0c0-1.906,0.686-3.665,1.783-4.974l0,0
	l15.185-20.589c1.807-2.58,4.808-4.271,8.199-4.271l0,0c1.729,0,3.365,0.441,4.776,1.212l0,0l18.937,10.06
	c2.44,1.212,4.119,3.735,4.121,6.647l0,0c0,1.704-0.579,3.282-1.519,4.493l0,0l-8.387,12.07c-1.372,1.926-3.633,3.186-6.18,3.186
	l0,0H344.095L344.095,142.295z"/>
<path fill="#F4F4F4" d="M349.887,124.46c0-7.663,6.212-13.873,13.876-13.875l0,0c7.661,0.002,13.873,6.212,13.875,13.875l0,0
	c-0.002,7.663-6.214,13.875-13.875,13.877l0,0C356.099,138.335,349.887,132.123,349.887,124.46L349.887,124.46z M351.887,124.46
	c0.013,6.559,5.317,11.864,11.876,11.876l0,0c6.557-0.013,11.862-5.318,11.874-11.876l0,0c-0.012-6.559-5.317-11.861-11.874-11.874
	l0,0C357.204,112.599,351.899,117.901,351.887,124.46L351.887,124.46z"/>
<path fill="#F4F4F4" d="M375.031,95.377c0.002-7.664,6.214-13.874,13.877-13.875l0,0c7.661,0.002,13.873,6.212,13.875,13.875l0,0
	c-0.002,7.663-6.214,13.875-13.875,13.875l0,0C381.245,109.252,375.033,103.041,375.031,95.377L375.031,95.377z M377.033,95.377
	c0.011,6.56,5.315,11.864,11.875,11.875l0,0c6.558-0.01,11.862-5.315,11.873-11.875l0,0c-0.011-6.558-5.315-11.862-11.873-11.875
	l0,0C382.349,83.515,377.044,88.819,377.033,95.377L377.033,95.377z"/>
<path fill="#F4F4F4" d="M401.913,69.631c0-7.663,6.212-13.875,13.875-13.875l0,0c7.663,0,13.874,6.211,13.876,13.875l0,0
	c-0.002,7.663-6.213,13.875-13.876,13.875l0,0C408.125,83.505,401.913,77.294,401.913,69.631L401.913,69.631z M403.914,69.631
	c0.011,6.558,5.315,11.863,11.874,11.875l0,0c6.558-0.012,11.862-5.317,11.875-11.875l0,0c-0.013-6.558-5.317-11.863-11.875-11.875
	l0,0C409.229,57.768,403.925,63.073,403.914,69.631L403.914,69.631z"/>
<path fill="#F4F4F4" d="M388.24,112.704l-19.599-10.65c-1.974-1.176-3.297-3.335-3.297-5.801l0,0c0-1.861,0.756-3.553,1.953-4.75
	l0,0l10.79-11.523c1.777-1.907,4.32-3.102,7.132-3.102l0,0c1.987,0,3.846,0.597,5.388,1.623l0,0l18.311,9.407l-0.457,0.89
	l0.457-0.89l0.046,0.025l0.039,0.025c2.085,1.342,3.467,3.691,3.467,6.357l0,0c0,2.376-1.099,4.501-2.813,5.884l0,0l-9.973,10.45
	c-1.67,1.974-4.175,3.229-6.964,3.229l0,0C391.089,113.877,389.551,113.448,388.24,112.704L388.24,112.704z M379.549,81.345
	l-10.813,11.549c-0.86,0.863-1.39,2.044-1.39,3.359l0,0c-0.003,1.736,0.929,3.251,2.286,4.063l0,0l19.579,10.64
	c1.036,0.588,2.229,0.921,3.51,0.923l0,0c2.183-0.002,4.127-0.979,5.478-2.568l0,0l10.111-10.596l0.052-0.04
	c1.286-1.021,2.107-2.591,2.107-4.36l0,0c0.002-1.945-0.995-3.651-2.507-4.649l0,0l-18.371-9.44l-0.048-0.031
	c-1.236-0.832-2.718-1.315-4.323-1.315l0,0C382.979,78.879,380.97,79.825,379.549,81.345L379.549,81.345z"/>
<path fill="#F4F4F4" d="M418.546,88.314c-1.629-0.092-3.141-0.608-4.407-1.424l0,0l-18.966-11.741
	c-1.805-1.217-2.978-3.283-2.978-5.591l0,0c0-0.124,0.002-0.259,0.013-0.385l0,0c0.104-1.859,0.957-3.507,2.219-4.632l0,0
	l11.421-10.898c1.758-1.683,4.142-2.71,6.737-2.71l0,0c0.182,0,0.372,0.004,0.56,0.017l0,0c1.979,0.111,3.794,0.808,5.273,1.914l0,0
	l17.764,10.435l-0.506,0.862l0.506-0.862l0.048,0.027l0.036,0.025c1.895,1.382,3.111,3.622,3.111,6.114l0,0
	c0,0.145-0.002,0.282-0.009,0.431l0,0c-0.135,2.371-1.352,4.434-3.143,5.718l0,0l-10.545,9.866
	c-1.667,1.758-4.029,2.846-6.612,2.846l0,0C418.894,88.327,418.72,88.323,418.546,88.314L418.546,88.314z M407.229,55.088
	l-11.446,10.921c-0.909,0.813-1.503,1.964-1.581,3.3l0,0c-0.004,0.067-0.008,0.15-0.008,0.249l0,0c0,1.62,0.826,3.074,2.063,3.912
	l0,0l18.949,11.729c1.003,0.644,2.175,1.045,3.445,1.116l0,0c0.139,0.009,0.278,0.013,0.416,0.013l0,0
	c2.017,0,3.856-0.847,5.205-2.265l0,0l10.687-10.005l0.059-0.04c1.343-0.949,2.253-2.467,2.351-4.218l0,0
	c0.007-0.121,0.009-0.232,0.009-0.334l0,0c0-1.825-0.885-3.461-2.271-4.48l0,0l-17.783-10.445l-0.049-0.036
	c-1.189-0.901-2.641-1.468-4.253-1.56l0,0c-0.142-0.008-0.286-0.013-0.437-0.013l0,0C410.522,52.932,408.633,53.748,407.229,55.088
	L407.229,55.088z"/>
<path fill="#F4F4F4" d="M185.722,123.34l-0.051-0.018l-0.047-0.021c-0.967-0.366-1.788-1.578-1.696-3.257l0,0v-12.323
	c-0.055-0.374-0.11-0.572-0.583-0.595l0,0h-12.333c-0.901-0.008-1.542-0.041-2.18-0.378l0,0c-0.654-0.357-0.95-0.977-1.15-1.514l0,0
	c-1.03-2.987-1.588-6.193-1.585-9.523l0,0c-0.002-3.347,0.562-6.567,1.61-9.597l0,0c0.123-0.323,0.355-0.921,0.964-1.313l0,0
	c0.601-0.38,1.318-0.503,2.341-0.507l0,0h12.302c0.293,0.003,0.491-0.02,0.6-0.04l0,0c0.008-0.083,0.015-0.214,0.014-0.377l0,0
	v-12.5c-0.033-2.47,2.031-3.381,2.345-3.478l0,0l0.045-0.018l0.047-0.017c2.83-0.911,5.85-1.403,8.979-1.403l0,0
	c3.468,0,6.796,0.603,9.883,1.712l0,0l0.059,0.021l0.055,0.029c0.441,0.204,1.001,0.603,1.22,1.232l0,0
	c0.207,0.595,0.192,1.116,0.2,1.922l0,0v12.531c-0.001,0.163,0.012,0.279,0.024,0.349l0,0c0.008,0.001,0.017,0.003,0.027,0.005l0,0
	c0.114,0.021,0.321,0.033,0.595,0.033l0,0h12.271c0.846,0.006,1.391,0.022,1.933,0.19l0,0c0.558,0.143,1.052,0.697,1.2,1.144l0,0
	c1.154,3.145,1.784,6.542,1.784,10.083l0,0c0,3.408-0.584,6.685-1.676,9.776l0,0c-0.171,0.45-0.499,1.067-1.156,1.361l0,0
	c-0.625,0.268-1.202,0.268-2.084,0.278l0,0h-12.302c-0.207-0.004-0.441,0.058-0.513,0.11l0,0c-0.062,0.07-0.078-0.004-0.103,0.296
	l0,0v12.511c-0.006,0.644-0.006,1.208-0.253,1.816l0,0c-0.251,0.617-0.77,1.079-1.369,1.403l0,0l-0.076,0.043l-0.084,0.029
	c-3.018,1.054-6.262,1.625-9.636,1.625l0,0C191.976,124.961,188.735,124.391,185.722,123.34L185.722,123.34z M195.345,122.96
	c3.112,0,6.1-0.52,8.883-1.48l0,0c0.353-0.212,0.39-0.297,0.436-0.394l0,0c0.055-0.11,0.104-0.435,0.098-1.042l0,0v-12.511
	c-0.024-0.856,0.439-1.632,1.02-1.978l0,0c0.572-0.36,1.144-0.423,1.596-0.427l0,0l12.302-0.002
	c0.461,0.002,0.794-0.012,0.999-0.041l0,0c0.159-0.02,0.221-0.041,0.242-0.05l0,0l-0.001,0c0.018-0.019,0.076-0.119,0.13-0.26l0,0
	c1.001-2.834,1.545-5.884,1.545-9.063l0,0c0-3.299-0.585-6.458-1.64-9.337l0,0c-0.142-0.039-0.568-0.086-1.275-0.081l0,0h-12.271
	c-0.627-0.016-1.216,0.01-1.864-0.431l0,0c-0.656-0.496-0.789-1.265-0.782-1.955l0,0V71.377c0.013-0.788-0.042-1.151-0.069-1.22l0,0
	h0c-0.009-0.011-0.071-0.056-0.201-0.125l0,0c-2.859-1.018-5.936-1.571-9.146-1.571l0,0c-2.895,0-5.679,0.449-8.294,1.285l0,0
	c-0.373,0.197-1.091,0.376-1.123,1.631l0,0v12.5c-0.014,0.527,0.024,1.169-0.54,1.794l0,0c-0.604,0.572-1.281,0.609-2.074,0.623l0,0
	h-12.302c-0.852-0.006-1.195,0.137-1.248,0.182l0,0c-0.045,0.035-0.062,0.028-0.18,0.325l0,0c-0.964,2.791-1.489,5.787-1.489,8.911
	l0,0c0,3.107,0.521,6.091,1.465,8.839l0,0c0.178,0.443,0.219,0.435,0.239,0.447l0,0c0.037,0.037,0.404,0.139,1.213,0.129l0,0
	l12.333,0.002c0.787-0.01,1.506,0.331,1.943,0.846l0,0c0.443,0.511,0.638,1.138,0.64,1.747l0,0v12.323
	c0.092,1.378,0.171,1.188,0.528,1.433l0,0C189.243,122.439,192.229,122.96,195.345,122.96L195.345,122.96z"/>
<g>
	<path fill="#F4F4F4" d="M204.761,118.598c0.002-7.433,6.027-13.458,13.46-13.458l0,0v1.999c-6.329,0.012-11.447,5.131-11.46,11.459
		l0,0H204.761L204.761,118.598z"/>
	<path fill="#F4F4F4" d="M183.969,118.598c-0.01-6.329-5.128-11.447-11.458-11.458l0,0v-2.002
		c7.434,0.002,13.458,6.027,13.458,13.46l0,0H183.969L183.969,118.598z"/>
</g>
<g>
	<path fill="#F4F4F4" d="M204.761,72.826h0.002h1.999c0.012,6.329,5.13,11.446,11.46,11.458l0,0v2.001
		C210.788,86.283,204.763,80.26,204.761,72.826L204.761,72.826z"/>
	<path fill="#F4F4F4" d="M172.511,84.285c6.329-0.012,11.447-5.13,11.459-11.458l0,0h1.999c0,7.433-6.025,13.458-13.458,13.459l0,0
		V84.285L172.511,84.285z"/>
</g>
<circle fill="#F4F4F4" cx="195.346" cy="58.628" r="2.917"/>
<circle fill="#F4F4F4" cx="169.124" cy="69.489" r="1.792"/>
<circle fill="#F4F4F4" cx="158.262" cy="95.711" r="2.917"/>
<circle fill="#F4F4F4" cx="195.345" cy="132.795" r="2.917"/>
<circle fill="#F4F4F4" cx="232.429" cy="95.712" r="2.917"/>
<circle fill="#F4F4F4" cx="169.124" cy="121.933" r="1.792"/>
<circle fill="#F4F4F4" cx="221.567" cy="121.934" r="1.792"/>
<circle fill="#F4F4F4" cx="221.568" cy="69.49" r="1.792"/>
<path fill="#F4F4F4" d="M169.956,167.878v-1.001v-0.999h257c2.002-0.004,3.621-1.624,3.625-3.625l0,0
	c-0.004-2.003-1.623-3.623-3.625-3.627l0,0h-257c-2.001,0.004-3.623,1.624-3.625,3.627l0,0c0.002,2.001,1.624,3.621,3.625,3.625l0,0
	v0.999V167.878c-3.106-0.002-5.624-2.52-5.624-5.625l0,0c0-3.106,2.518-5.624,5.624-5.626l0,0h257
	c3.106,0.002,5.624,2.52,5.624,5.626l0,0c0,3.105-2.518,5.623-5.624,5.625l0,0H169.956L169.956,167.878z"/>
</svg>
