<?xml version="1.0" encoding="utf-8"?>
<!-- Generator: Adobe Illustrator 13.0.0, SVG Export Plug-In . SVG Version: 6.00 Build 14948)  -->
<!DOCTYPE svg [
	<!ENTITY ns_flows "http://ns.adobe.com/Flows/1.0/">
	<!ENTITY ns_extend "http://ns.adobe.com/Extensibility/1.0/">
	<!ENTITY ns_ai "http://ns.adobe.com/AdobeIllustrator/10.0/">
	<!ENTITY ns_graphs "http://ns.adobe.com/Graphs/1.0/">
	<!ENTITY ns_vars "http://ns.adobe.com/Variables/1.0/">
	<!ENTITY ns_imrep "http://ns.adobe.com/ImageReplacement/1.0/">
	<!ENTITY ns_sfw "http://ns.adobe.com/SaveForWeb/1.0/">
	<!ENTITY ns_custom "http://ns.adobe.com/GenericCustomNamespace/1.0/">
	<!ENTITY ns_adobe_xpath "http://ns.adobe.com/XPath/1.0/">
]>
<svg version="1.2" baseProfile="tiny"
	 id="Layer_3" xmlns:x="&ns_extend;" xmlns:i="&ns_ai;" xmlns:graph="&ns_graphs;" xmlns:rdf="http://www.w3.org/1999/02/22-rdf-syntax-ns#" xmlns:dc="http://purl.org/dc/elements/1.1/" xmlns:cc="http://creativecommons.org/ns#"
	 xmlns="http://www.w3.org/2000/svg" xmlns:xlink="http://www.w3.org/1999/xlink" xmlns:a="http://ns.adobe.com/AdobeSVGViewerExtensions/3.0/"
	 x="0px" y="0px" width="598.189px" height="350.26px" viewBox="0 0 598.189 350.26" xml:space="preserve">
<metadata  id="metadata55">
	<rdf:RDF>
		<cc:Work  rdf:about="">
			<dc:format>image/svg+xml</dc:format>
			<dc:type  rdf:resource="http://purl.org/dc/dcmitype/StillImage"></dc:type>
			<dc:title></dc:title>
		</cc:Work>
	</rdf:RDF>
	<sfw  xmlns="&ns_sfw;">
		<slices></slices>
		<sliceSourceBounds  x="668.378" y="444.268" width="596.243" height="218.469" bottomLeftOrigin="true"></sliceSourceBounds>
	</sfw>
</metadata>
<path id="polyline3" fill="#F4F4F4" d="M407.349,51.894l-0.313,0.531l-6,9.281l1.688,1.094l5.656-8.781l91.5,9.906l3.375,8.188
	l1.844-0.75l-3.594-8.75l-0.219-0.563l-0.594-0.063l-92.719-10.031L407.349,51.894z"/>
<path id="polygon5" fill="#F4F4F4" d="M398.505,58.456L17.723,79.331l-0.406,0.031l-0.281,0.313L7.223,91.206l-0.25,0.281v0.375
	v49.594V180.8v49.594v0.375l0.25,0.281l9.813,11.531l0.281,0.313l0.406,0.031L398.505,263.8l0.375,0.031l0.313-0.25l17.656-13.813
	l78.625-5.813l12.656,11.469l0.406,0.375l0.5-0.125l5.906-1.469l0.313-0.094l0.188-0.25l7.625-8.813l0.125-0.156l0.063-0.188
	l4.906-14.719l0.063-0.156v-0.188v-4.156v-1h-0.531v-0.594h0.531v-1V163.8v-5.344V99.362v-1h-0.531v-0.594h0.531v-1v-4.156v-0.156
	l-0.063-0.156l-4.906-14.75l-0.063-0.188l-0.125-0.125l-7.625-8.844l-0.188-0.25l-0.313-0.094l-5.906-1.469l-0.5-0.125l-0.406,0.375
	l-12.688,11.5l-78.594-5.844l-17.656-13.813l-0.313-0.219H398.505L398.505,58.456z M398.255,60.487l17.625,13.75l0.25,0.188
	l0.281,0.031l79.313,5.875l0.406,0.031l0.344-0.281l12.625-11.438l5.094,1.313l7.219,8.406l4.813,14.469v2.938h-0.531v1v2.594v1
	h0.531v58.094v5.344v58.094h-0.531v1v2.594v1h0.531v2.938l-4.813,14.438l-7.25,8.469l-5.063,1.281l-12.625-11.438l-0.344-0.281
	l-0.406,0.031l-79.313,5.875l-0.281,0.031l-0.25,0.188l-17.625,13.75L18.286,240.956l-9.313-10.938V180.8v-39.344V92.237
	L18.286,81.3L398.255,60.487z"/>
<path id="polyline7" fill="#F4F4F4" d="M503.255,250.144l-3.375,8.188l-91.5,9.906l-5.656-8.781l-1.688,1.094l6,9.313l0.313,0.5
	l0.625-0.063l92.719-10.031l0.594-0.063l0.219-0.563l3.594-8.75L503.255,250.144z"/>
<path id="polyline9" fill="#F4F4F4" d="M401.692,91.831l-386.594,5.25h-0.094h-0.125l-5.969,1.5l-0.781,0.188v0.781v41.5v40.156
	v41.5v0.813l0.781,0.188l5.969,1.469l0.125,0.031h0.094l386.594,5.25h0.031l125-3.969l-0.063-2l-124.938,3.969h-0.063l-386.438-5.25
	l-5.094-1.281v-40.719V141.05v-40.719l5.094-1.25l386.438-5.25h0.063l124.938,3.938l0.063-2l-125-3.938H401.692L401.692,91.831z"/>
<path id="polyline11" fill="#F4F4F4" d="M273.879,95.144l-1.031,0.031L15.067,98.362h-0.125l-0.125,0.031l-5.906,1.719l0.563,1.906
	l5.625-1.656h0.063l256.719-3.188v37.906v52.094v37.906l-256.719-3.188h-0.063l-5.625-1.656l-0.563,1.906l5.906,1.719l0.125,0.031
	h0.125l257.781,3.188l1.031,0.031v-1.031v-38.906v-52.094V96.175V95.144L273.879,95.144z"/>
<g id="g13">
	<path fill="#F4F4F4" d="M281.418,226.729l-7.46-7.463l0.002-32.573v-4.283l9.912-0.002v-1.219h-9.912v-4.119l9.912-0.002v-1.22
		h-9.912v-4.763h9.91v-1.222h-9.91v-4.853h9.912v-1.224h-9.912v-4.393h9.912v-1.224h-9.912v-4.208l9.91-0.002v-1.219h-9.91v-4.579
		h9.91v-1.222h-9.91v-4.578h9.91v-1.222h-9.91v-4.396h9.91v-1.222h-9.912v-32.532l7.46-7.458h110.2l8.32,8.316v31.674h-10.957v1.222
		h10.955v4.396h-10.955v1.222h10.955v4.578h-10.955v1.222h10.955v4.579h-10.955v1.221h10.955v4.208h-10.955v1.224h10.955v4.393
		h-10.955v1.224h10.955v4.853h-10.955v1.222h10.955v4.763l-10.955-0.002v1.224h10.955v4.119h-10.955v1.221h10.957v5.021v30.979
		l-8.32,8.32H281.418L281.418,226.729z M275.959,186.692v31.745l6.287,6.289H390.79l7.146-7.148V187.43v-3.021h-10.955v-4.222
		v-1.002h10.955v-0.116h-10.955v-5.223h10.957v-0.762h-10.957v-5.222h10.957v-0.853h-10.957v-5.224h10.957v-0.394h-10.957v-5.223
		h10.955v-0.208h-10.955v-5.221h10.955v-0.579h-10.955v-5.222l10.955-0.002v-0.577h-10.955v-5.221l10.957-0.002v-0.394h-10.957
		v-5.222h10.955v-28.844l-7.146-7.146H282.247l-6.289,6.287v29.704h9.912v5.222h-9.912v0.396h9.912v5.221h-9.912v0.579h9.912v5.222
		h-9.912v0.579h9.912v5.221h-9.912v0.208h9.912v5.223h-9.912v0.394h9.912v5.224h-9.912v0.853h9.912v5.222h-9.912v0.762h9.912v5.223
		h-9.912v0.116h9.912v5.224h-9.912L275.959,186.692L275.959,186.692z"/>
</g>
<g id="g17">
	<path fill="#F4F4F4" d="M401.804,95.75l8.444,0.234v128.288l-7.418,0.184l-0.025-0.999l0.025,0.999l-1.026,0.023V95.75
		L401.804,95.75z M403.806,222.431l4.44-0.109V97.929l-4.44-0.125V222.431L403.806,222.431z M410.827,96.003l7.982,0.222v127.833
		l-6.956,0.174l-0.025-0.999l0.025,0.999l-1.026,0.025V96.003L410.827,96.003z M412.829,222.207l3.982-0.1V98.17l-3.982-0.112
		V222.207L412.829,222.207z M419.388,96.242l7.985,0.222v127.38l-6.959,0.175l-0.025-0.998l0.025,0.998l-1.026,0.025V96.242
		L419.388,96.242z M421.39,221.993l3.983-0.101V98.411l-3.983-0.112V221.993L421.39,221.993z M427.951,96.482l7.982,0.222V223.63
		l-6.958,0.174l-0.023-0.999l0.023,0.999l-1.024,0.025V96.482L427.951,96.482z M429.951,221.78l3.982-0.099V98.651l-3.982-0.112
		V221.78L429.951,221.78z M436.513,96.721l7.986,0.224v126.472l-6.961,0.176l-0.025-1.001l0.025,1.001l-1.025,0.025V96.721
		L436.513,96.721z M438.514,221.566l3.983-0.101V98.89l-3.983-0.112V221.566L438.514,221.566z M445.075,96.962l7.984,0.224v126.018
		l-6.958,0.173l-0.025-0.999l0.025,0.999l-1.026,0.023V96.962L445.075,96.962z M447.077,221.352l3.98-0.099V99.131l-3.98-0.112
		V221.352L447.077,221.352z M453.637,97.203l7.984,0.222V222.99l-6.958,0.174l-0.025-0.999l0.025,0.999l-1.026,0.025V97.203
		L453.637,97.203z M455.639,221.139l3.982-0.1V99.369l-3.982-0.112V221.139L455.639,221.139z M462.199,97.443l7.984,0.222v125.112
		l-6.96,0.173l-0.023-0.999l0.023,0.999l-1.024,0.025V97.443L462.199,97.443z M464.199,220.927l3.985-0.101V99.61l-3.985-0.109
		V220.927L464.199,220.927z M470.759,97.682l7.984,0.222v124.66l-6.959,0.174l-0.024-0.999l0.024,0.999l-1.025,0.025V97.682
		L470.759,97.682z M472.761,220.714l3.982-0.099V99.849l-3.982-0.112V220.714L472.761,220.714z M479.323,97.921l7.984,0.224v124.206
		l-6.96,0.173l-0.025-0.998l0.025,0.998l-1.024,0.025V97.921L479.323,97.921z M481.321,220.498l3.984-0.099v-120.31l-3.984-0.112
		V220.498L481.321,220.498z M487.885,98.162l7.984,0.222v123.754l-6.96,0.173l-0.023-0.999l0.023,0.999l-1.024,0.023V98.162
		L487.885,98.162z M489.885,220.285l3.984-0.099V100.33l-3.984-0.112V220.285L489.885,220.285z M496.447,98.402l7.982,0.222v123.3
		l-6.958,0.174l-0.023-0.999l0.023,0.999l-1.024,0.025V98.402L496.447,98.402z M498.447,220.072l3.983-0.1V100.571l-3.983-0.112
		V220.072L498.447,220.072z M505.009,98.641l7.982,0.222v122.847l-6.958,0.175l-0.025-0.999l0.025,0.999l-1.024,0.023V98.641
		L505.009,98.641z M507.007,219.858l3.984-0.099V100.81l-3.984-0.112V219.858L507.007,219.858z M513.569,99.91v-1.029l8.447,0.234
		v122.369l-8.447,0.21V99.91L513.569,99.91z M515.569,219.644l4.445-0.107V101.063l-4.443-0.125L515.569,219.644L515.569,219.644z
		 M514.543,100.909l0.027-0.999L514.543,100.909L514.543,100.909z"/>
</g>
<path id="line21" fill="#F4F4F4" d="M390.505,95.8l-20.438,19.594l1.406,1.438l20.438-19.563L390.505,95.8z"/>
<path id="line23" fill="#F4F4F4" d="M282.504,95.8l-1.344,1.469l21.157,19.563l1.375-1.469L282.504,95.8z"/>
<path id="line25" fill="#F4F4F4" d="M302.317,205.425l-21.157,19.563l1.344,1.469l21.188-19.563L302.317,205.425z"/>
<path id="line27" fill="#F4F4F4" d="M371.474,205.425l-1.406,1.438l20.438,19.594l1.406-1.438L371.474,205.425z"/>
<path id="line29" fill="#F4F4F4" d="M398.13,103.675l-16.844,23.156l1.625,1.188l16.844-23.156L398.13,103.675z"/>
<path id="line31" fill="#F4F4F4" d="M275.817,102.894l-1.719,1.031l15.531,25.219l1.719-1.031L275.817,102.894z"/>
<path id="line33" fill="#F4F4F4" d="M289.629,193.112l-15.531,25.219l1.719,1.031l15.531-25.219L289.629,193.112z"/>
<path id="line35" fill="#F4F4F4" d="M382.911,194.237l-1.625,1.188l16.844,23.156l1.625-1.188L382.911,194.237z"/>
<path id="circle37" fill="#F4F4F4" d="M336.349,112.706c-26.879,0-48.688,21.809-48.688,48.688
	c0,26.878,21.809,48.688,48.688,48.688c26.877,0,48.688-21.81,48.688-48.688C385.036,134.515,363.226,112.706,336.349,112.706z
	 M336.349,114.706c25.797,0,46.688,20.89,46.688,46.688c0,25.797-20.891,46.688-46.688,46.688
	c-25.798,0-46.688-20.891-46.688-46.688C289.661,135.596,310.551,114.706,336.349,114.706z"/>
<g id="g39">
	<path fill="#F4F4F4" d="M352.864,207.148l-0.347-1.938c13.755-5.082,24.455-16.47,28.612-30.646l0,0l1.961,0.283v20.393
		l-11.911,11.909H352.864L352.864,207.148z M357.732,205.147l12.619-0.002l10.737-10.737v-13.829
		C376.492,191.3,368.165,200.034,357.732,205.147L357.732,205.147z M302.589,207.148l-13.103-13.109v-19.519l1.962-0.274
		c4.09,14.324,14.843,25.842,28.701,30.963l0,0l-0.348,1.938H302.589L302.589,207.148z M291.488,193.212l11.934,11.937h11.514
		c-10.504-5.149-18.873-13.971-23.449-24.794l0,0L291.488,193.212L291.488,193.212z M289.526,174.795l0.961-0.274L289.526,174.795
		L289.526,174.795z M289.486,148.29v-19.658v-0.415l13.104-13.107h18.825l0.313,1.95c-14.615,4.81-26.038,16.642-30.281,31.504l0,0
		L289.486,148.29L289.486,148.29z M291.486,142.458c4.747-11.226,13.578-20.294,24.639-25.348l0,0H303.42l-11.934,11.936V142.458
		L291.486,142.458z M350.938,117.06l0.313-1.95h19.515v0.999l-0.708,0.708l0.708-0.708v-0.999h0.413l11.909,11.909v20.948
		l-1.959,0.28C376.816,133.533,365.448,121.833,350.938,117.06L350.938,117.06z M381.09,142.236l-0.001-14.387l-10.737-10.74
		h-13.809C367.529,122.129,376.32,131.114,381.09,142.236L381.09,142.236z"/>
</g>
<path fill="#F4F4F4" d="M527.093,174.203"/>
<path id="line45" fill="#F4F4F4" d="M534.38,173.206v2h6.5v-2H534.38z"/>
<path id="line47" fill="#F4F4F4" d="M547.849,173.206v2h6.5v-2H547.849z"/>
<path id="line49" fill="#F4F4F4" d="M561.317,173.206v2h6.5v-2H561.317z"/>
<path id="line51" fill="#F4F4F4" d="M574.817,173.206v2h6.531v-2H574.817z"/>
<path id="line53" fill="#F4F4F4" d="M588.255,173.206v2h6.531v-2H588.255z"/>
<path id="line55" fill="#F4F4F4" d="M588.411,154.987v2h6.375v-2H588.411z"/>
<path id="line57" fill="#F4F4F4" d="M574.911,154.987v2h6.5v-2H574.911z"/>
<path id="line59" fill="#F4F4F4" d="M561.349,154.987v2h6.594v-2H561.349z"/>
<path id="line61" fill="#F4F4F4" d="M547.88,154.987v2h6.563v-2H547.88z"/>
<path id="line63" fill="#F4F4F4" d="M534.442,154.987v2h6.469v-2H534.442z"/>
<path fill="#F4F4F4" d="M527.093,155.976"/>
<g id="g67">
	<path fill="#F4F4F4" d="M526.091,147.933l9.241,0.405v33.498l-8.196,0.362l-0.043-1l0.043,1l-1.045,0.045V147.933L526.091,147.933z
		 M528.093,180.152l5.239-0.231v-29.668l-5.239-0.23V180.152L528.093,180.152z M539.841,148.539l8.964,0.396v32.303l-7.921,0.352
		l-0.043-0.997l0.043,0.997l-1.043,0.047V148.539L539.841,148.539z M541.839,179.546l4.966-0.22v-28.479l-4.966-0.22V179.546
		L541.839,179.546z M553.312,149.131l8.966,0.396v31.118l-7.923,0.352l-0.043-0.999l0.043,0.999l-1.043,0.045V149.131
		L553.312,149.131z M555.31,178.951l4.968-0.22v-27.289l-4.968-0.22V178.951L555.31,178.951z M566.782,149.728l8.968,0.395v29.93
		l-7.923,0.35l-0.043-0.997l0.043,0.997l-1.045,0.047V149.728L566.782,149.728z M568.784,178.356l4.966-0.218v-26.102l-4.966-0.22
		V178.356L568.784,178.356z M580.253,150.321l8.968,0.396v28.739l-7.923,0.352l-0.043-0.998l0.043,0.998l-1.045,0.047V150.321
		L580.253,150.321z M582.255,177.764l4.966-0.22V152.63l-4.966-0.22V177.764L582.255,177.764z M593.727,151.96v-1.045l9.489,0.418
		v27.508l-9.489,0.418V151.96L593.727,151.96z M595.726,177.168l5.488-0.24v-23.68l-5.488-0.242V177.168L595.726,177.168z
		 M594.682,152.96l0.045-1L594.682,152.96L594.682,152.96z"/>
</g>
</svg>
