<?xml version="1.0" encoding="utf-8"?>
<!-- Generator: Adobe Illustrator 13.0.0, SVG Export Plug-In . SVG Version: 6.00 Build 14948)  -->
<!DOCTYPE svg [
	<!ENTITY ns_flows "http://ns.adobe.com/Flows/1.0/">
	<!ENTITY ns_extend "http://ns.adobe.com/Extensibility/1.0/">
	<!ENTITY ns_ai "http://ns.adobe.com/AdobeIllustrator/10.0/">
	<!ENTITY ns_graphs "http://ns.adobe.com/Graphs/1.0/">
	<!ENTITY ns_vars "http://ns.adobe.com/Variables/1.0/">
	<!ENTITY ns_imrep "http://ns.adobe.com/ImageReplacement/1.0/">
	<!ENTITY ns_sfw "http://ns.adobe.com/SaveForWeb/1.0/">
	<!ENTITY ns_custom "http://ns.adobe.com/GenericCustomNamespace/1.0/">
	<!ENTITY ns_adobe_xpath "http://ns.adobe.com/XPath/1.0/">
]>
<svg version="1.2" baseProfile="tiny"
	 id="Layer_3" xmlns:x="&ns_extend;" xmlns:i="&ns_ai;" xmlns:graph="&ns_graphs;" xmlns:rdf="http://www.w3.org/1999/02/22-rdf-syntax-ns#" xmlns:dc="http://purl.org/dc/elements/1.1/" xmlns:cc="http://creativecommons.org/ns#"
	 xmlns="http://www.w3.org/2000/svg" xmlns:xlink="http://www.w3.org/1999/xlink" xmlns:a="http://ns.adobe.com/AdobeSVGViewerExtensions/3.0/"
	 x="0px" y="0px" width="598.189px" height="350.26px" viewBox="0 0 598.189 350.26" xml:space="preserve">
<metadata  id="metadata55">
	<rdf:RDF>
		<cc:Work  rdf:about="">
			<dc:format>image/svg+xml</dc:format>
			<dc:type  rdf:resource="http://purl.org/dc/dcmitype/StillImage"></dc:type>
			<dc:title></dc:title>
		</cc:Work>
	</rdf:RDF>
	<sfw  xmlns="&ns_sfw;">
		<slices></slices>
		<sliceSourceBounds  x="885.921" y="373.476" width="147.01" height="330.375" bottomLeftOrigin="true"></sliceSourceBounds>
	</sfw>
</metadata>
<path id="polyline3" inkscape:connector-curvature="0" fill="#EAEAEA" d="M228.53,10.779v0.924l1.099,189.347h1.849l-1.1-188.447
	h135.508l-1.1,188.447h1.823l1.1-189.347v-0.924h-0.899H229.455H228.53z"/>
<path id="polyline5" inkscape:connector-curvature="0" fill="#EAEAEA" d="M231.453,200.949l-1.823,0.2l15.39,137.706l0.099,0.825
	h0.825h34.375v-1.823h-33.577L231.453,200.949z"/>
<path id="polyline7" inkscape:connector-curvature="0" fill="#EAEAEA" d="M364.787,200.949l-15.29,136.908h-33.526v1.823h34.353
	h0.823l0.075-0.825l15.389-137.706L364.787,200.949L364.787,200.949z"/>
<path id="path9" inkscape:connector-curvature="0" fill="#EAEAEA" d="M255.461,222.86c-1.159,0-2.148,0.928-2.148,2.099v18.013
	c0,1.169,0.989,2.098,2.148,2.098h24.009c0.804,0,1.406-0.507,1.774-1.175h0.375v-0.923v-18.013c0-1.171-0.964-2.099-2.124-2.099
	H255.461z M255.461,224.684h24.034c0.199,0,0.3,0.126,0.3,0.275v17.088v0.925c0,0.147-0.125,0.274-0.325,0.274h-24.009
	c-0.2,0-0.324-0.127-0.324-0.274v-18.013C255.137,224.81,255.262,224.684,255.461,224.684z"/>
<g id="g11">
	<path id="path13" fill="none" stroke="#EAEAEA" stroke-width="1.8313" d="M273.416,45.92c0,0.463-0.386,0.836-0.862,0.836h-25.279
		c-0.477,0-0.864-0.373-0.864-0.836V26.702c0-0.463,0.386-0.836,0.864-0.836h25.279c0.476,0,0.862,0.374,0.862,0.836V45.92z"/>
	<path id="path15" fill="none" stroke="#EAEAEA" stroke-width="1.8313" d="M311.629,45.92c0,0.463-0.387,0.836-0.864,0.836h-25.278
		c-0.476,0-0.862-0.373-0.862-0.836V26.702c0-0.463,0.386-0.836,0.862-0.836h25.278c0.478,0,0.864,0.374,0.864,0.836V45.92z"/>
	<path id="path17" fill="none" stroke="#EAEAEA" stroke-width="1.8313" d="M349.843,45.92c0,0.463-0.387,0.836-0.863,0.836H323.7
		c-0.476,0-0.864-0.373-0.864-0.836V26.702c0-0.463,0.389-0.836,0.864-0.836h25.279c0.477,0,0.863,0.374,0.863,0.836V45.92z"/>
</g>
<path id="path19" inkscape:connector-curvature="0" fill="#EAEAEA" d="M286.466,222.86c-1.16,0-2.149,0.928-2.149,2.099v18.013
	c0,1.169,0.989,2.098,2.149,2.098h24.033c0.804,0,1.383-0.51,1.749-1.175h0.4v-0.923v-18.013c0-1.169-0.99-2.099-2.149-2.099
	H286.466z M286.466,224.684h24.033c0.199,0,0.301,0.125,0.301,0.275v17.088v0.925c0,0.148-0.102,0.274-0.301,0.274h-24.033
	c-0.2,0-0.326-0.127-0.326-0.274v-18.013C286.141,224.81,286.266,224.684,286.466,224.684z"/>
<path id="path21" inkscape:connector-curvature="0" fill="#EAEAEA" d="M316.87,222.86c-1.159,0-2.147,0.93-2.147,2.099v18.013
	c0,1.167,0.988,2.098,2.147,2.098h24.033c1.159,0,2.124-0.931,2.124-2.098v-18.013c0-1.169-0.965-2.099-2.124-2.099H316.87z
	 M316.87,224.684h24.033c0.197,0,0.299,0.125,0.299,0.275v18.013c0,0.148-0.102,0.274-0.299,0.274H316.87
	c-0.201,0-0.325-0.126-0.325-0.274v-18.013C316.545,224.809,316.669,224.684,316.87,224.684z"/>
<path id="path23" inkscape:connector-curvature="0" fill="#EAEAEA" d="M255.461,250.217c-1.159,0-2.148,0.928-2.148,2.098v18.013
	c0,1.17,0.989,2.1,2.148,2.1h24.009c0.806,0,1.409-0.528,1.774-1.199h0.375v-0.9v-18.013c0-1.17-0.964-2.098-2.124-2.098H255.461z
	 M255.461,252.04h24.034c0.199,0,0.3,0.126,0.3,0.274v17.089v0.924c0,0.15-0.125,0.274-0.325,0.274h-24.009
	c-0.2,0-0.324-0.124-0.324-0.274v-18.013C255.137,252.166,255.262,252.04,255.461,252.04z"/>
<path id="path25" inkscape:connector-curvature="0" fill="#EAEAEA" d="M286.466,250.217c-1.16,0-2.149,0.928-2.149,2.098v18.013
	c0,1.17,0.989,2.1,2.149,2.1h24.033c0.806,0,1.385-0.531,1.749-1.199h0.4v-0.9v-18.013c0-1.168-0.99-2.098-2.149-2.098H286.466z
	 M286.466,252.04h24.033c0.199,0,0.301,0.125,0.301,0.274v17.089v0.924c0,0.151-0.102,0.274-0.301,0.274h-24.033
	c-0.2,0-0.326-0.124-0.326-0.274v-18.013C286.141,252.166,286.266,252.04,286.466,252.04z"/>
<path id="path27" inkscape:connector-curvature="0" fill="#EAEAEA" d="M316.87,250.217c-1.159,0-2.147,0.93-2.147,2.098v18.013
	c0,1.169,0.988,2.1,2.147,2.1h24.033c1.159,0,2.124-0.931,2.124-2.1v-18.013c0-1.168-0.965-2.098-2.124-2.098H316.87z
	 M316.87,252.04h24.033c0.197,0,0.299,0.125,0.299,0.274v18.013c0,0.151-0.102,0.274-0.299,0.274H316.87
	c-0.201,0-0.325-0.123-0.325-0.274v-18.013C316.545,252.165,316.669,252.04,316.87,252.04z"/>
<path id="path29" inkscape:connector-curvature="0" fill="#EAEAEA" d="M255.461,275.474c-1.159,0-2.148,0.953-2.148,2.124v17.988
	c0,1.168,0.989,2.122,2.148,2.122h24.009c0.804,0,1.406-0.533,1.774-1.198h0.375v-0.924v-17.988c0-1.171-0.964-2.124-2.124-2.124
	H255.461z M255.461,277.297h24.034c0.199,0,0.3,0.152,0.3,0.301v17.089v0.899c0,0.149-0.125,0.274-0.325,0.274h-24.009
	c-0.2,0-0.324-0.125-0.324-0.274v-17.988C255.137,277.449,255.262,277.297,255.461,277.297z"/>
<path id="path31" inkscape:connector-curvature="0" fill="#EAEAEA" d="M286.466,275.474c-1.16,0-2.149,0.953-2.149,2.124v17.988
	c0,1.168,0.989,2.122,2.149,2.122h24.033c0.804,0,1.383-0.534,1.749-1.198h0.4v-0.924v-17.988c0-1.169-0.99-2.124-2.149-2.124
	H286.466z M286.466,277.297h24.033c0.199,0,0.301,0.151,0.301,0.301v17.089v0.899c0,0.15-0.102,0.274-0.301,0.274h-24.033
	c-0.2,0-0.326-0.125-0.326-0.274v-17.988C286.141,277.449,286.266,277.297,286.466,277.297z"/>
<path id="path33" inkscape:connector-curvature="0" fill="#EAEAEA" d="M316.87,275.474c-1.159,0-2.147,0.955-2.147,2.124v17.988
	c0,1.168,0.988,2.122,2.147,2.122h24.033c1.159,0,2.124-0.954,2.124-2.122v-17.988c0-1.169-0.965-2.124-2.124-2.124H316.87z
	 M316.87,277.297h24.033c0.197,0,0.299,0.151,0.299,0.301v17.988c0,0.15-0.102,0.274-0.299,0.274H316.87
	c-0.201,0-0.325-0.124-0.325-0.274v-17.988C316.545,277.448,316.669,277.297,316.87,277.297z"/>
<path id="path35" inkscape:connector-curvature="0" fill="#EAEAEA" d="M255.461,300.382c-1.159,0-2.148,0.956-2.148,2.124v17.988
	c0,1.169,0.989,2.098,2.148,2.098h24.009c0.804,0,1.406-0.509,1.774-1.175h0.375v-0.923v-17.988c0-1.168-0.964-2.124-2.124-2.124
	H255.461z M255.461,302.206h24.034c0.199,0,0.3,0.15,0.3,0.3v17.063v0.926c0,0.148-0.125,0.274-0.325,0.274h-24.009
	c-0.2,0-0.324-0.126-0.324-0.274v-17.988C255.137,302.356,255.262,302.206,255.461,302.206z"/>
<path id="path37" inkscape:connector-curvature="0" fill="#EAEAEA" d="M286.466,300.382c-1.16,0-2.149,0.956-2.149,2.124v17.988
	c0,1.169,0.989,2.098,2.149,2.098h24.033c0.804,0,1.383-0.512,1.749-1.175h0.4v-0.923v-17.988c0-1.168-0.99-2.124-2.149-2.124
	H286.466z M286.466,302.206h24.033c0.199,0,0.301,0.148,0.301,0.3v17.063v0.926c0,0.148-0.102,0.274-0.301,0.274h-24.033
	c-0.2,0-0.326-0.126-0.326-0.274v-17.988C286.141,302.356,286.266,302.206,286.466,302.206z"/>
<path id="path39" inkscape:connector-curvature="0" fill="#EAEAEA" d="M316.87,300.382c-1.159,0-2.147,0.956-2.147,2.124v17.988
	c0,1.168,0.988,2.098,2.147,2.098h24.033c1.159,0,2.124-0.93,2.124-2.098v-17.988c0-1.168-0.965-2.124-2.124-2.124H316.87z
	 M316.87,302.206h24.033c0.197,0,0.299,0.148,0.299,0.3v17.988c0,0.148-0.102,0.274-0.299,0.274H316.87
	c-0.201,0-0.325-0.126-0.325-0.274v-17.988C316.545,302.354,316.669,302.206,316.87,302.206z"/>
<path id="rect41" inkscape:connector-curvature="0" fill="#EAEAEA" d="M279.271,325.766v0.924v13.541v0.924h0.899h35.902h0.923
	v-0.924v-13.541v-0.924h-0.923H280.17H279.271z M281.095,327.589h34.051v11.717h-34.051V327.589z"/>
<path id="line47" inkscape:connector-curvature="0" fill="#EAEAEA" d="M230.729,180.712v1.851h135.158v-1.851H230.729z"/>
<path id="line49" inkscape:connector-curvature="0" fill="#EAEAEA" d="M230.729,201.224v1.85h135.158v-1.85H230.729z"/>
<g id="g51">
	<path fill="#EAEAEA" d="M300.526,149.218c-0.037-0.545-0.481-0.97-1.026-0.97l0,0c-0.547,0-0.988,0.425-1.025,0.97l0,0l-0.062,0.91
		l-0.91-0.056c-4.301-0.268-8.371-1.399-12.036-3.22l0,0l-0.819-0.406l0.404-0.817c0.076-0.155,0.111-0.314,0.111-0.469l0,0
		c-0.002-0.361-0.182-0.699-0.514-0.891l0,0c-0.165-0.095-0.333-0.136-0.508-0.136l0,0c-0.336,0-0.667,0.165-0.867,0.466l0,0
		l-0.508,0.761l-0.762-0.507c-3.486-2.324-6.482-5.321-8.808-8.807l0,0l-0.506-0.761l0.76-0.508c0.301-0.2,0.466-0.533,0.466-0.869
		l0,0c0-0.173-0.042-0.344-0.136-0.507l0,0c-0.194-0.334-0.533-0.512-0.894-0.514l0,0c-0.157,0-0.312,0.035-0.462,0.109l0,0
		l-0.821,0.407l-0.407-0.819c-1.82-3.666-2.949-7.735-3.217-12.036l0,0l-0.058-0.91l0.91-0.06c0.545-0.037,0.97-0.481,0.97-1.025
		l0,0c0-0.547-0.425-0.991-0.97-1.028l0,0l-0.91-0.062l0.058-0.91c0.266-4.301,1.397-8.369,3.217-12.034l0,0l0.407-0.817
		l0.817,0.405c0.15,0.074,0.31,0.109,0.466,0.109l0,0c0.361-0.002,0.702-0.182,0.892-0.512l0,0c0.097-0.167,0.138-0.338,0.138-0.512
		l0,0c0-0.334-0.165-0.667-0.464-0.865l0,0l-0.764-0.508l0.508-0.761c2.324-3.488,5.32-6.485,8.806-8.809l0,0l0.762-0.51l0.51,0.764
		c0.198,0.299,0.528,0.466,0.865,0.466l0,0c0.175,0,0.347-0.043,0.51-0.136l0,0c0.33-0.192,0.512-0.532,0.512-0.892l0,0
		c0-0.159-0.033-0.315-0.107-0.464l0,0l-0.406-0.821l0.819-0.407c3.665-1.82,7.735-2.949,12.034-3.219l0,0l0.91-0.058l0.062,0.913
		c0.04,0.544,0.481,0.972,1.028,0.97l0,0c0.542,0.002,0.989-0.425,1.026-0.97l0,0l0.06-0.91l0.91,0.056
		c4.301,0.27,8.371,1.399,12.036,3.219l0,0l0.827,0.411l-0.419,0.825c-0.071,0.143-0.106,0.295-0.106,0.456l0,0
		c0.002,0.359,0.182,0.698,0.514,0.89l0,0c0.161,0.095,0.336,0.138,0.51,0.138l0,0c0.338-0.002,0.666-0.167,0.866-0.466l0,0
		l0.508-0.764l0.764,0.51c3.484,2.324,6.48,5.321,8.805,8.806l0,0l0.51,0.764l-0.766,0.508c-0.3,0.198-0.465,0.528-0.465,0.867l0,0
		c0,0.171,0.042,0.343,0.141,0.51l0,0c0.188,0.331,0.526,0.51,0.89,0.512l0,0c0.159,0,0.315-0.035,0.466-0.109l0,0l0.817-0.405
		l0.409,0.817c1.82,3.666,2.949,7.733,3.217,12.034l0,0l0.059,0.912l-0.91,0.06c-0.545,0.035-0.971,0.48-0.971,1.028l0,0
		c0,0.544,0.424,0.988,0.971,1.025l0,0l0.908,0.06l-0.057,0.912c-0.268,4.301-1.396,8.369-3.217,12.034l0,0l-0.409,0.821
		l-0.819-0.409c-0.152-0.076-0.305-0.109-0.464-0.109l0,0c-0.361,0.002-0.697,0.18-0.892,0.512l0,0l-0.793-0.456l0.789,0.464
		c-0.093,0.159-0.135,0.326-0.135,0.501l0,0c0,0.334,0.167,0.667,0.469,0.867l0,0l0.764,0.507l-0.508,0.764
		c-2.326,3.486-5.322,6.482-8.809,8.807l0,0l-0.762,0.505l-0.507-0.757c-0.205-0.306-0.533-0.468-0.867-0.468l0,0
		c-0.171,0-0.345,0.041-0.514,0.138l0,0c-0.33,0.19-0.508,0.528-0.512,0.892l0,0c0,0.155,0.035,0.312,0.111,0.464l0,0l0.406,0.819
		l-0.819,0.409c-3.663,1.82-7.733,2.949-12.034,3.217l0,0l-0.912,0.056L300.526,149.218L300.526,149.218z M296.858,148.187
		c0.429-1.036,1.445-1.77,2.642-1.77l0,0c1.197,0,2.213,0.732,2.642,1.77l0,0c3.509-0.308,6.837-1.223,9.886-2.642l0,0
		c-0.017-0.127-0.025-0.255-0.025-0.382l0,0c-0.002-0.982,0.51-1.951,1.431-2.479l0,0c0.445-0.258,0.94-0.384,1.426-0.384l0,0
		c0.63,0,1.246,0.21,1.749,0.598l0,0c2.809-1.977,5.26-4.428,7.238-7.236l0,0c-0.39-0.503-0.6-1.122-0.6-1.753l0,0
		c0-0.478,0.122-0.975,0.386-1.423l0,0l-0.002-0.001c0.528-0.917,1.494-1.432,2.479-1.43l0,0c0.127,0,0.255,0.008,0.383,0.026l0,0
		c1.418-3.05,2.334-6.38,2.644-9.887l0,0c-1.037-0.43-1.77-1.446-1.77-2.642l0,0c0-1.197,0.732-2.215,1.77-2.645l0,0
		c-0.31-3.507-1.226-6.838-2.645-9.888l0,0c-0.128,0.017-0.255,0.026-0.382,0.026l0,0c-0.984,0.002-1.95-0.512-2.477-1.426l0,0
		c-0.26-0.448-0.386-0.943-0.386-1.426l0,0c0-0.63,0.209-1.248,0.598-1.751l0,0c-1.979-2.809-4.43-5.26-7.237-7.238l0,0
		c-0.503,0.387-1.121,0.596-1.75,0.596l0,0c-0.485,0-0.98-0.124-1.424-0.382l0,0c-0.919-0.528-1.433-1.494-1.431-2.477l0,0
		c0-0.127,0.009-0.255,0.025-0.383l0,0c-3.05-1.418-6.381-2.334-9.888-2.643l0,0c-0.429,1.036-1.443,1.77-2.64,1.771l0,0
		c-1.199-0.001-2.214-0.736-2.644-1.771l0,0c-3.509,0.309-6.838,1.225-9.889,2.644l0,0c0.017,0.127,0.025,0.255,0.025,0.382l0,0
		c0.002,0.982-0.512,1.946-1.428,2.477l0,0c-0.448,0.258-0.941,0.384-1.426,0.382l0,0c-0.629,0-1.247-0.209-1.75-0.596l0,0
		c-2.808,1.978-5.259,4.43-7.236,7.239l0,0c0.387,0.503,0.596,1.12,0.596,1.749l0,0c0,0.485-0.126,0.979-0.384,1.426l0,0
		c-0.528,0.918-1.494,1.43-2.479,1.428l0,0c-0.127,0-0.254-0.009-0.381-0.026l0,0c-1.418,3.05-2.335,6.38-2.643,9.888l0,0
		c1.036,0.429,1.768,1.447,1.77,2.645l0,0c0,1.196-0.733,2.212-1.769,2.642l0,0c0.309,3.507,1.225,6.837,2.643,9.887l0,0
		c0.127-0.018,0.254-0.026,0.381-0.026l0,0c0.984-0.002,1.948,0.512,2.48,1.43l0,0c0.258,0.448,0.382,0.941,0.382,1.424l0,0
		c0,0.631-0.209,1.248-0.597,1.751l0,0c1.978,2.808,4.428,5.26,7.237,7.238l0,0c0.503-0.388,1.121-0.598,1.751-0.598l0,0
		c0.481,0,0.978,0.124,1.426,0.384l0,0c0.916,0.528,1.428,1.495,1.426,2.477l0,0c0,0.128-0.009,0.256-0.026,0.384l0,0
		C290.021,146.962,293.351,147.879,296.858,148.187L296.858,148.187z"/>
</g>
<path id="circle55" inkscape:connector-curvature="0" fill="#EAEAEA" d="M299.507,65.167c-29.471,0-53.389,23.917-53.389,53.389
	c0,29.471,23.917,53.388,53.389,53.388c29.473,0,53.364-23.917,53.364-53.388C352.871,89.084,328.979,65.167,299.507,65.167z
	 M299.507,66.991c28.482,0,51.539,23.083,51.539,51.565c0,28.481-23.057,51.54-51.539,51.54c-28.481,0-51.565-23.059-51.565-51.54
	C247.942,90.074,271.025,66.991,299.507,66.991z"/>
<path id="circle57" inkscape:connector-curvature="0" fill="#EAEAEA" d="M299.507,71.938c-25.729,0-46.619,20.889-46.619,46.618
	c0,25.729,20.89,46.593,46.619,46.593c25.729,0,46.593-20.865,46.593-46.593C346.1,92.827,325.236,71.938,299.507,71.938z
	 M299.507,73.786c24.74,0,44.769,20.03,44.769,44.77c0,24.739-20.028,44.769-44.769,44.769c-24.74,0-44.794-20.03-44.794-44.769
	C254.712,93.816,274.767,73.786,299.507,73.786z"/>
<path id="circle59" inkscape:connector-curvature="0" fill="#EAEAEA" d="M299.507,95.671c-12.631,0-22.909,10.253-22.909,22.885
	c0,12.631,10.278,22.884,22.909,22.884c12.631,0,22.885-10.253,22.885-22.884C322.392,105.924,312.138,95.671,299.507,95.671z
	 M299.507,97.495c11.643,0,21.061,9.419,21.061,21.062c0,11.642-9.418,21.06-21.061,21.06c-11.641,0-21.061-9.418-21.061-21.06
	C278.446,106.914,287.866,97.495,299.507,97.495z"/>
<path id="rect61" inkscape:connector-curvature="0" fill="#EAEAEA" d="M235.925,15.426v0.899v42.971v0.924h0.925h122.566h0.925
	v-0.924V16.326v-0.899h-0.925H236.85H235.925z M237.749,17.25h120.742v41.146H237.749V17.25z"/>
<path id="rect63" inkscape:connector-curvature="0" fill="#EAEAEA" d="M240.747,20.173v0.924v30.279v0.924h0.924h112.923h0.924
	v-0.924V21.097v-0.924h-0.924H241.671H240.747z M242.57,22.021h111.1v28.431h-111.1V22.021z"/>
<path id="line65" inkscape:connector-curvature="0" fill="#EAEAEA" d="M229.929,10.905l-0.95,1.574l7.496,4.646l0.974-1.574
	L229.929,10.905z"/>
<path id="line67" inkscape:connector-curvature="0" fill="#EAEAEA" d="M237.474,15.675l-1.273,1.299l4.821,4.772l1.273-1.299
	L237.474,15.675z"/>
<path id="line69" inkscape:connector-curvature="0" fill="#EAEAEA" d="M366.312,10.929l-7.395,4.622l0.975,1.549l7.395-4.621
	L366.312,10.929z"/>
<path id="line71" inkscape:connector-curvature="0" fill="#EAEAEA" d="M358.566,15.701l-4.621,4.747l1.299,1.299l4.647-4.772
	L358.566,15.701z"/>
<path id="line73" inkscape:connector-curvature="0" fill="#EAEAEA" d="M355.37,50.902l-1.575,0.95l4.646,7.794l1.574-0.925
	L355.37,50.902z"/>
<path id="line75" inkscape:connector-curvature="0" fill="#EAEAEA" d="M240.872,50.902l-4.821,7.919l1.574,0.975l4.822-7.944
	L240.872,50.902z"/>
<path id="path77" inkscape:connector-curvature="0" fill="#EAEAEA" d="M366.711,32.115v1.823h2.024c0.311,0,0.557,0.059,0.698,0.201
	c0.145,0.141,0.387,0.529,0.227,1.699c-0.112,0.805-0.235,2.784-0.375,5.545c-0.142,2.762-0.301,6.217-0.45,9.668
	c-0.297,6.905-0.566,13.886-0.65,15.065c-0.094,1.311-0.157,2.444-0.399,3.123c-0.239,0.679-0.425,0.965-1.45,1.074l0.201,1.799
	c1.54-0.165,2.572-1.119,2.973-2.248c0.4-1.131,0.411-2.371,0.499-3.624c0.101-1.385,0.354-8.19,0.651-15.09
	c0.148-3.45,0.31-6.917,0.449-9.668c0.141-2.751,0.277-4.874,0.35-5.396c0.205-1.484-0.064-2.588-0.726-3.248
	c-0.658-0.66-1.483-0.724-1.997-0.724H366.711z"/>
<path id="path79" inkscape:connector-curvature="0" fill="#EAEAEA" d="M227.306,32.115c-0.514,0-1.339,0.064-1.999,0.724
	c-0.659,0.66-0.929,1.763-0.724,3.248c0.072,0.523,0.21,2.645,0.35,5.396c0.141,2.752,0.302,6.219,0.449,9.668
	c0.298,6.9,0.552,13.705,0.649,15.09c0.09,1.253,0.1,2.493,0.501,3.624c0.4,1.129,1.432,2.083,2.973,2.248l0.2-1.799
	c-1.024-0.109-1.209-0.396-1.449-1.074c-0.241-0.679-0.306-1.812-0.4-3.123c-0.083-1.179-0.351-8.16-0.649-15.065
	c-0.148-3.452-0.31-6.907-0.45-9.668c-0.141-2.761-0.264-4.741-0.375-5.545c-0.161-1.169,0.083-1.558,0.225-1.699
	c0.142-0.142,0.389-0.201,0.699-0.201h2.023v-1.823H227.306z"/>
<rect x="266.13" y="330.361" fill="#F4F4F4" width="10.518" height="3.747"/>
<rect x="319.38" y="330.361" fill="#F4F4F4" width="10.518" height="3.747"/>
</svg>
