<?xml version="1.0" encoding="utf-8"?>
<!-- Generator: Adobe Illustrator 13.0.0, SVG Export Plug-In . SVG Version: 6.00 Build 14948)  -->
<svg version="1.2" baseProfile="tiny" id="Layer_4" xmlns="http://www.w3.org/2000/svg" xmlns:xlink="http://www.w3.org/1999/xlink"
	 x="0px" y="0px" width="598.189px" height="350.26px" viewBox="0 0 598.189 350.26" xml:space="preserve">
<g>
	<path fill="#F4F4F4" d="M192.498,221.686c-0.763,0-1.375-0.62-1.377-1.377l0,0v-17.392c0.002-0.757,0.614-1.379,1.377-1.379l0,0
		h18.336c0.759,0.002,1.375,0.614,1.377,1.379l0,0v17.392c-0.002,0.765-0.618,1.375-1.377,1.377l0,0H192.498L192.498,221.686z
		 M210.212,219.687v-16.149h-17.089v16.149H210.212L210.212,219.687z"/>
	<path fill="#F4F4F4" d="M196.769,217.415c-1.387,0-2.507-1.122-2.507-2.506l0,0v-9.293c0-1.387,1.122-2.507,2.507-2.509l0,0
		l9.795,0.002c1.384,0,2.506,1.12,2.506,2.507l0,0v9.293c0,1.384-1.122,2.506-2.506,2.508l0,0L196.769,217.415L196.769,217.415z
		 M196.261,205.616v9.293c0.002,0.28,0.229,0.506,0.508,0.506l0,0l9.795,0.002c0.279-0.002,0.506-0.228,0.508-0.508l0,0v-9.293
		c-0.002-0.281-0.228-0.507-0.508-0.507l0,0l-9.795-0.002C196.488,205.109,196.263,205.335,196.261,205.616L196.261,205.616z"/>
</g>
<g>
	<path fill="#F4F4F4" d="M212.447,221.686c-0.761-0.002-1.375-0.616-1.377-1.377l0,0v-17.392c0-0.761,0.616-1.379,1.377-1.379l0,0
		h18.336c0.763,0.002,1.375,0.614,1.377,1.379l0,0v17.392c-0.002,0.765-0.616,1.375-1.377,1.377l0,0H212.447L212.447,221.686z
		 M230.161,219.687v-16.149h-17.09v16.149H230.161L230.161,219.687z"/>
	<path fill="#F4F4F4" d="M216.718,217.415c-1.385,0-2.507-1.122-2.507-2.506l0,0v-9.293c0-1.387,1.122-2.507,2.507-2.509l0,0
		l9.794,0.002c1.385,0.002,2.504,1.122,2.507,2.507l0,0v9.293c0,1.384-1.12,2.506-2.507,2.508l0,0L216.718,217.415L216.718,217.415z
		 M216.21,205.616v9.293c0.002,0.28,0.227,0.506,0.508,0.506l0,0l9.794,0.002c0.281-0.002,0.506-0.228,0.508-0.508l0,0v-9.293
		c-0.002-0.283-0.227-0.507-0.508-0.507l0,0l-9.794-0.002C216.437,205.109,216.212,205.335,216.21,205.616L216.21,205.616z"/>
</g>
<g>
	<path fill="#F4F4F4" d="M232.396,221.686c-0.761-0.002-1.375-0.616-1.377-1.377l0,0v-17.392c0-0.761,0.616-1.379,1.377-1.379l0,0
		h18.337c0.763,0,1.375,0.622,1.377,1.379l0,0v17.392c-0.002,0.757-0.614,1.377-1.377,1.377l0,0H232.396L232.396,221.686z
		 M250.108,219.687v-16.149h-17.088v16.149H250.108L250.108,219.687z"/>
	<path fill="#F4F4F4" d="M236.667,217.415c-1.386,0-2.506-1.122-2.506-2.506l0,0v-9.293c0-1.385,1.122-2.507,2.506-2.509l0,0
		l9.795,0.002c1.385,0,2.506,1.12,2.506,2.507l0,0v9.293c0,1.384-1.122,2.506-2.506,2.508l0,0L236.667,217.415L236.667,217.415z
		 M236.161,205.616v9.293c0,0.28,0.227,0.506,0.506,0.506l0,0l9.795,0.002c0.279-0.002,0.506-0.228,0.508-0.508l0,0v-9.293
		c-0.002-0.281-0.227-0.507-0.508-0.507l0,0l-9.795-0.002C236.386,205.109,236.161,205.333,236.161,205.616L236.161,205.616z"/>
</g>
<g>
	<path fill="#F4F4F4" d="M252.346,221.685c-0.763,0-1.375-0.618-1.377-1.375l0,0l0.002-17.394c0-0.757,0.612-1.377,1.375-1.379l0,0
		l18.334,0.002c0.763,0,1.377,0.62,1.377,1.377l0,0v17.394c0,0.757-0.616,1.375-1.377,1.377l0,0L252.346,221.685L252.346,221.685z
		 M270.059,219.686v-16.147h-17.088v16.147H270.059L270.059,219.686z"/>
	<path fill="#F4F4F4" d="M256.615,217.416c-1.384,0-2.504-1.122-2.504-2.509l0,0v-9.292c0-1.385,1.122-2.507,2.504-2.507l0,0h9.797
		c1.384,0,2.506,1.122,2.506,2.507l0,0v9.292c0,1.385-1.12,2.509-2.506,2.509l0,0H256.615L256.615,217.416z M256.109,205.615v9.292
		c0.002,0.281,0.229,0.509,0.506,0.509l0,0h9.797c0.279,0,0.506-0.226,0.506-0.509l0,0v-9.292c0-0.281-0.225-0.507-0.506-0.507l0,0
		h-9.797C256.336,205.108,256.111,205.334,256.109,205.615L256.109,205.615z"/>
</g>
<g>
	<path fill="#F4F4F4" d="M272.294,221.686c-0.763-0.002-1.375-0.616-1.377-1.377l0,0l0.002-17.392c0-0.761,0.612-1.377,1.375-1.379
		l0,0h18.336c0.761,0.002,1.375,0.614,1.377,1.379l0,0v17.392c-0.002,0.765-0.618,1.375-1.377,1.377l0,0H272.294L272.294,221.686z
		 M290.009,219.687v-16.149h-17.09v16.149H290.009L290.009,219.687z"/>
	<path fill="#F4F4F4" d="M276.564,217.416c-1.385,0-2.507-1.122-2.507-2.509l0,0v-9.292c0-1.385,1.125-2.507,2.507-2.507l0,0h9.797
		c1.384,0,2.506,1.122,2.506,2.507l0,0v9.292c0,1.387-1.12,2.509-2.506,2.509l0,0H276.564L276.564,217.416z M276.058,205.615v9.292
		c0,0.281,0.227,0.509,0.506,0.509l0,0h9.797c0.279,0,0.506-0.228,0.508-0.509l0,0v-9.292c-0.002-0.281-0.228-0.507-0.508-0.507l0,0
		h-9.797C276.285,205.108,276.058,205.334,276.058,205.615L276.058,205.615z"/>
</g>
<g>
	<path fill="#F4F4F4" d="M292.246,221.686c-0.763-0.002-1.377-0.616-1.379-1.377l0,0l0.002-17.392c0-0.761,0.614-1.379,1.377-1.379
		l0,0h18.334c0.763,0.002,1.375,0.618,1.377,1.379l0,0v17.392h-0.002c0,0.761-0.612,1.375-1.375,1.377l0,0H292.246L292.246,221.686z
		 M309.955,219.687l0.002-16.149h-17.089v16.149H309.955L309.955,219.687z"/>
	<path fill="#F4F4F4" d="M296.515,217.415c-1.385,0-2.507-1.122-2.507-2.506l0,0v-9.293c0-1.387,1.122-2.507,2.507-2.509l0,0
		l9.797,0.002c1.384,0,2.506,1.12,2.506,2.507l0,0v9.293c0,1.384-1.122,2.506-2.506,2.508l0,0L296.515,217.415L296.515,217.415z
		 M296.006,205.616v9.293c0.002,0.28,0.229,0.506,0.508,0.506l0,0l9.797,0.002c0.278-0.002,0.506-0.228,0.506-0.508l0,0v-9.293
		c0-0.281-0.228-0.507-0.506-0.507l0,0l-9.797-0.002C296.233,205.109,296.008,205.335,296.006,205.616L296.006,205.616z"/>
</g>
<g>
	<path fill="#F4F4F4" d="M312.195,221.685c-0.761,0-1.379-0.614-1.379-1.375l0,0v-17.394c0.002-0.761,0.618-1.377,1.379-1.379l0,0
		l18.335,0.002c0.761,0,1.375,0.616,1.377,1.377l0,0v17.394h-0.002c0,0.761-0.614,1.375-1.375,1.377l0,0L312.195,221.685
		L312.195,221.685z M329.905,219.686l0.002-16.147h-17.09l-0.002,16.147H329.905L329.905,219.686z"/>
	<path fill="#F4F4F4" d="M316.463,217.415c-1.384,0-2.506-1.122-2.506-2.506l0,0v-9.293c0.002-1.385,1.122-2.505,2.506-2.509l0,0
		l9.797,0.002c1.383,0,2.507,1.12,2.507,2.507l0,0v9.293c-0.002,1.386-1.122,2.506-2.507,2.508l0,0L316.463,217.415L316.463,217.415
		z M315.957,205.616v9.293c0,0.28,0.226,0.506,0.506,0.506l0,0l9.797,0.002c0.277-0.002,0.507-0.229,0.507-0.508l0,0v-9.293
		c0-0.281-0.228-0.507-0.507-0.507l0,0l-9.797-0.002C316.183,205.109,315.957,205.333,315.957,205.616L315.957,205.616z"/>
</g>
<g>
	<path fill="#F4F4F4" d="M332.143,221.685c-0.764,0-1.374-0.618-1.376-1.376l0,0v-17.393c0.002-0.757,0.612-1.378,1.376-1.378l0,0
		h18.336c0.762,0.002,1.374,0.615,1.378,1.378l0,0v17.393h-0.002c-0.002,0.766-0.614,1.374-1.376,1.376l0,0H332.143L332.143,221.685
		z M349.855,219.686v-16.148h-17.088l-0.002,16.148H349.855L349.855,219.686z"/>
	<path fill="#F4F4F4" d="M336.413,217.416c-1.384,0-2.507-1.121-2.507-2.507l0,0v-9.294c0-1.386,1.123-2.507,2.507-2.507l0,0h9.795
		c1.386,0,2.507,1.123,2.507,2.507l0,0v9.294c0,1.384-1.121,2.507-2.507,2.507l0,0H336.413L336.413,217.416z M335.904,205.615v9.294
		c0.002,0.279,0.229,0.507,0.509,0.507l0,0h9.795c0.279,0,0.507-0.226,0.507-0.507l0,0v-9.294c0-0.281-0.226-0.507-0.507-0.507l0,0
		h-9.795C336.132,205.108,335.906,205.336,335.904,205.615L335.904,205.615z"/>
</g>
<g>
	<path fill="#F4F4F4" d="M352.092,221.686c-0.761,0-1.375-0.618-1.377-1.376l0,0v-17.393c0.002-0.757,0.614-1.377,1.377-1.379l0,0
		h18.335c0.761,0.002,1.377,0.618,1.379,1.379l0,0v17.393h-0.002c0,0.762-0.616,1.376-1.377,1.376l0,0H352.092L352.092,221.686z
		 M369.805,219.686v-16.146l-17.089-0.002l-0.002,16.148H369.805L369.805,219.686z"/>
	<path fill="#F4F4F4" d="M356.362,217.416c-1.387,0-2.506-1.123-2.506-2.508l0,0v-9.293c0-1.385,1.121-2.507,2.506-2.507l0,0h9.797
		c1.383,0.003,2.504,1.122,2.506,2.507l0,0v9.293c-0.002,1.385-1.121,2.508-2.506,2.508l0,0H356.362L356.362,217.416z
		 M355.854,205.615v9.293c0.002,0.281,0.229,0.508,0.508,0.508l0,0h9.797c0.279,0,0.506-0.227,0.506-0.508l0,0v-9.293
		c0-0.282-0.225-0.506-0.506-0.506l0,0l-9.797-0.002C356.081,205.109,355.856,205.333,355.854,205.615L355.854,205.615z"/>
</g>
<g>
	<path fill="#F4F4F4" d="M372.042,221.686c-0.761,0-1.376-0.615-1.379-1.376l0,0l0.003-17.394c0-0.761,0.615-1.376,1.376-1.376l0,0
		h18.337c0.764,0,1.374,0.619,1.374,1.376l0,0v17.394c0,0.757-0.61,1.376-1.374,1.376l0,0H372.042L372.042,221.686z
		 M389.753,219.686l0.002-16.148h-17.092v16.148H389.753L389.753,219.686z"/>
	<path fill="#F4F4F4" d="M376.312,217.415c-1.385,0-2.507-1.122-2.507-2.507l0,0v-9.292c0-1.386,1.122-2.508,2.507-2.508l0,0h9.797
		c1.384,0,2.506,1.122,2.506,2.508l0,0v9.292c0,1.385-1.122,2.507-2.506,2.509l0,0L376.312,217.415L376.312,217.415z
		 M375.804,205.616v9.292c0.003,0.281,0.229,0.508,0.508,0.508l0,0h9.797c0.278,0,0.505-0.227,0.507-0.508l0,0v-9.292
		c-0.002-0.282-0.229-0.507-0.507-0.507l0,0l-9.797-0.002C376.033,205.109,375.807,205.334,375.804,205.616L375.804,205.616z"/>
</g>
<g>
	<path fill="#F4F4F4" d="M391.991,221.686c-0.765-0.002-1.375-0.615-1.377-1.376l0,0v-17.394c0-0.76,0.612-1.377,1.377-1.377l0,0
		h18.336c0.761,0,1.375,0.617,1.377,1.377l0,0v17.394h-0.002c0,0.761-0.614,1.374-1.375,1.376l0,0H391.991L391.991,221.686z
		 M409.702,219.687l0.002-16.149h-17.09v16.149H409.702L409.702,219.687z"/>
	<path fill="#F4F4F4" d="M396.262,217.416c-1.387,0-2.504-1.125-2.506-2.507l0,0v-9.293c0.002-1.384,1.119-2.507,2.506-2.509l0,0
		l9.796,0.002c1.384,0,2.506,1.121,2.506,2.507l0,0v9.293c0,1.384-1.122,2.507-2.506,2.507l0,0H396.262L396.262,217.416z
		 M395.754,205.616v9.293c0.002,0.281,0.227,0.507,0.508,0.507l0,0h9.796c0.277,0,0.506-0.228,0.506-0.507l0,0v-9.293
		c0-0.281-0.227-0.507-0.506-0.507l0,0l-9.796-0.002C395.98,205.109,395.756,205.333,395.754,205.616L395.754,205.616z"/>
</g>
<g>
	<path fill="#F4F4F4" d="M148.229,241.729c-0.76,0-1.376-0.613-1.376-1.376l0,0V222.96c0-0.763,0.616-1.378,1.376-1.378l0,0h18.336
		c0.758,0,1.374,0.611,1.376,1.378l0,0v17.393c-0.002,0.768-0.62,1.374-1.376,1.376l0,0H148.229L148.229,241.729z M165.941,239.729
		v-16.147h-17.088v16.147H165.941L165.941,239.729z"/>
	<path fill="#F4F4F4" d="M152.499,237.459c-1.386,0-2.506-1.122-2.506-2.506l0,0v-9.293c0-1.386,1.121-2.509,2.506-2.509l0,0h9.796
		c1.386,0,2.506,1.123,2.506,2.509l0,0v9.293c0,1.384-1.121,2.506-2.506,2.508l0,0L152.499,237.459L152.499,237.459z
		 M151.992,225.66v9.293c0,0.277,0.229,0.507,0.507,0.507l0,0h9.796c0.28,0,0.507-0.228,0.507-0.507l0,0v-9.293
		c0-0.281-0.228-0.507-0.507-0.507l0,0l-9.796-0.003C152.221,225.153,151.992,225.381,151.992,225.66L151.992,225.66z"/>
</g>
<g>
	<path fill="#F4F4F4" d="M168.179,241.728c-0.756,0-1.376-0.608-1.378-1.374l0,0l0.002-17.395c0-0.765,0.62-1.376,1.376-1.378l0,0
		l18.335,0.002c0.758,0,1.376,0.618,1.378,1.376l0,0v17.395h-0.002c0,0.759-0.618,1.374-1.376,1.374l0,0H168.179L168.179,241.728z
		 M185.89,239.728v-16.145l-17.088-0.002l-0.002,16.146H185.89L185.89,239.728z"/>
	<path fill="#F4F4F4" d="M172.449,237.459c-1.386,0-2.507-1.122-2.507-2.506l0,0v-9.293c0-1.386,1.121-2.509,2.507-2.509l0,0h9.795
		c1.386,0,2.507,1.123,2.507,2.509l0,0v9.293c0,1.384-1.121,2.506-2.507,2.508l0,0L172.449,237.459L172.449,237.459z
		 M171.941,225.66v9.293c0.002,0.279,0.23,0.507,0.508,0.507l0,0h9.795c0.278,0,0.506-0.228,0.508-0.507l0,0v-9.293
		c-0.002-0.281-0.23-0.507-0.508-0.507l0,0l-9.795-0.003C172.171,225.153,171.943,225.379,171.941,225.66L171.941,225.66z"/>
</g>
<g>
	<path fill="#F4F4F4" d="M188.128,241.728c-0.758,0-1.376-0.615-1.378-1.374l0,0l0.002-17.395c0-0.758,0.618-1.376,1.376-1.378l0,0
		l18.336,0.002c0.756,0,1.374,0.615,1.376,1.376l0,0v17.395c0,0.763-0.62,1.374-1.376,1.374l0,0H188.128L188.128,241.728z
		 M205.84,239.728v-16.145l-17.088-0.002l-0.002,16.146H205.84L205.84,239.728z"/>
	<path fill="#F4F4F4" d="M192.399,237.459c-1.388,0-2.506-1.122-2.508-2.506l0,0v-9.293c0.002-1.386,1.121-2.509,2.508-2.509l0,0
		h9.796c1.386,0,2.504,1.125,2.504,2.509l0,0v9.293c0,1.382-1.119,2.506-2.504,2.508l0,0L192.399,237.459L192.399,237.459z
		 M191.892,225.66v9.293c0,0.279,0.228,0.507,0.507,0.507l0,0h9.796c0.278,0,0.503-0.228,0.505-0.507l0,0v-9.293
		c-0.002-0.281-0.228-0.507-0.505-0.507l0,0l-9.796-0.003C192.12,225.153,191.892,225.379,191.892,225.66L191.892,225.66z"/>
</g>
<g>
	<path fill="#F4F4F4" d="M208.078,241.729c-0.761-0.002-1.376-0.617-1.376-1.376l0,0V222.96c0-0.758,0.615-1.376,1.376-1.378l0,0
		h18.335c0.759,0.002,1.376,0.615,1.376,1.378l0,0v17.393c0,0.763-0.62,1.374-1.376,1.376l0,0H208.078L208.078,241.729z
		 M225.789,239.729v-16.147h-17.087v16.147H225.789L225.789,239.729z"/>
	<path fill="#F4F4F4" d="M212.346,237.46c-1.386-0.002-2.504-1.124-2.507-2.508l0,0v-9.293c0.002-1.384,1.121-2.506,2.507-2.506l0,0
		h9.798c1.384,0,2.506,1.12,2.506,2.506l0,0v9.293c0,1.386-1.123,2.506-2.506,2.508l0,0H212.346L212.346,237.46z M211.84,225.659
		v9.293c0,0.279,0.23,0.507,0.506,0.509l0,0h9.798c0.277-0.002,0.505-0.229,0.507-0.509l0,0v-9.293
		c-0.002-0.279-0.23-0.508-0.507-0.508l0,0h-9.798C212.07,225.151,211.84,225.38,211.84,225.659L211.84,225.659z"/>
</g>
<g>
	<path fill="#F4F4F4" d="M228.025,241.729c-0.758,0-1.374-0.613-1.376-1.376l0,0V222.96c0-0.763,0.618-1.378,1.376-1.378l0,0h18.338
		c0.756,0.002,1.374,0.615,1.376,1.378l0,0v17.393c-0.002,0.763-0.62,1.374-1.376,1.376l0,0H228.025L228.025,241.729z
		 M245.739,239.729v-16.147h-17.09v16.147H245.739L245.739,239.729z"/>
	<path fill="#F4F4F4" d="M232.297,237.459c-1.386,0-2.506-1.122-2.506-2.506l0,0v-9.293c0-1.386,1.121-2.509,2.506-2.509l0,0h9.796
		c1.386,0,2.506,1.123,2.506,2.509l0,0v9.293c0,1.384-1.121,2.506-2.506,2.508l0,0L232.297,237.459L232.297,237.459z M231.79,225.66
		v9.293c0,0.279,0.228,0.507,0.507,0.507l0,0h9.796c0.278,0,0.505-0.228,0.508-0.507l0,0v-9.293
		c-0.002-0.281-0.23-0.507-0.508-0.507l0,0l-9.796-0.003C232.018,225.153,231.79,225.379,231.79,225.66L231.79,225.66z"/>
</g>
<g>
	<path fill="#F4F4F4" d="M247.976,241.729c-0.756-0.002-1.376-0.613-1.376-1.376l0,0V222.96c0-0.763,0.62-1.376,1.376-1.378l0,0
		h18.337c0.759,0.002,1.374,0.62,1.376,1.378l0,0v17.393h-0.002c0,0.759-0.615,1.374-1.374,1.376l0,0H247.976L247.976,241.729z
		 M265.687,239.729l0.002-16.147h-17.09v16.147H265.687L265.687,239.729z"/>
	<path fill="#F4F4F4" d="M252.245,237.459c-1.386,0-2.506-1.122-2.506-2.506l0,0v-9.293c0-1.386,1.121-2.509,2.506-2.509l0,0h9.796
		c1.386,0,2.506,1.123,2.506,2.509l0,0v9.293c0,1.384-1.121,2.506-2.506,2.508l0,0L252.245,237.459L252.245,237.459z
		 M251.737,225.66v9.293c0.002,0.279,0.23,0.507,0.508,0.507l0,0h9.796c0.279,0,0.507-0.228,0.507-0.507l0,0v-9.293
		c0-0.281-0.228-0.507-0.507-0.507l0,0l-9.796-0.003C251.967,225.153,251.74,225.379,251.737,225.66L251.737,225.66z"/>
</g>
<g>
	<path fill="#F4F4F4" d="M267.925,241.729c-0.758-0.002-1.376-0.613-1.378-1.376l0,0l0.002-17.393c0-0.763,0.618-1.376,1.376-1.378
		l0,0h18.336c0.76,0.002,1.374,0.62,1.376,1.378l0,0v17.393c-0.002,0.759-0.618,1.374-1.376,1.376l0,0H267.925L267.925,241.729z
		 M285.637,239.729v-16.147h-17.088l-0.002,16.147H285.637L285.637,239.729z"/>
	<path fill="#F4F4F4" d="M272.195,237.459c-1.386,0-2.504-1.122-2.506-2.506l0,0v-9.293c0.002-1.386,1.121-2.509,2.506-2.509l0,0
		h9.796c1.386,0,2.507,1.123,2.507,2.509l0,0v9.293c0,1.384-1.121,2.506-2.507,2.508l0,0L272.195,237.459L272.195,237.459z
		 M271.689,225.66v9.293c0,0.279,0.228,0.507,0.505,0.507l0,0h9.796c0.278,0,0.505-0.228,0.508-0.507l0,0v-9.293
		c-0.002-0.281-0.23-0.507-0.508-0.507l0,0l-9.796-0.003C271.917,225.153,271.689,225.379,271.689,225.66L271.689,225.66z"/>
</g>
<g>
	<path fill="#F4F4F4" d="M287.874,241.729c-0.759,0-1.374-0.613-1.376-1.376l0,0V222.96c0-0.763,0.618-1.378,1.376-1.378l0,0h18.335
		c0.756,0.002,1.376,0.611,1.378,1.378l0,0v17.393c-0.002,0.768-0.622,1.376-1.378,1.376l0,0H287.874L287.874,241.729z
		 M305.587,239.729v-16.147h-17.09v16.147H305.587L305.587,239.729z"/>
	<path fill="#F4F4F4" d="M292.145,237.459c-1.386,0-2.506-1.122-2.508-2.506l0,0v-9.293c0.002-1.386,1.123-2.509,2.508-2.509l0,0
		h9.795c1.386,0,2.507,1.123,2.507,2.509l0,0v9.293c0,1.384-1.121,2.506-2.507,2.508l0,0L292.145,237.459L292.145,237.459z
		 M291.638,225.66v9.293c0,0.277,0.228,0.507,0.507,0.507l0,0h9.795c0.277,0,0.506-0.228,0.508-0.507l0,0v-9.293
		c-0.002-0.281-0.23-0.507-0.508-0.507l0,0l-9.795-0.003C291.865,225.153,291.638,225.381,291.638,225.66L291.638,225.66z"/>
</g>
<g>
	<path fill="#F4F4F4" d="M307.823,241.729c-0.757-0.002-1.376-0.617-1.378-1.376l0,0l0.002-17.393c0-0.76,0.617-1.376,1.376-1.378
		l0,0h18.335c0.761,0.002,1.374,0.62,1.377,1.378l0,0v17.393c-0.003,0.759-0.616,1.374-1.377,1.376l0,0H307.823L307.823,241.729z
		 M325.535,239.729v-16.147h-17.088l-0.002,16.147H325.535L325.535,239.729z"/>
	<path fill="#F4F4F4" d="M312.095,237.459c-1.388,0-2.509-1.122-2.509-2.506l0,0v-9.293c0-1.386,1.121-2.509,2.509-2.509l0,0h9.794
		c1.386,0,2.507,1.123,2.507,2.509l0,0v9.293c0,1.384-1.121,2.506-2.507,2.508l0,0L312.095,237.459L312.095,237.459z
		 M311.585,225.66v9.293c0.002,0.279,0.229,0.507,0.51,0.507l0,0h9.794c0.279,0,0.508-0.229,0.508-0.507l0,0v-9.293
		c0-0.279-0.229-0.507-0.508-0.507l0,0l-9.794-0.003C311.813,225.153,311.587,225.379,311.585,225.66L311.585,225.66z"/>
</g>
<g>
	<path fill="#F4F4F4" d="M327.774,241.728c-0.755,0-1.379-0.608-1.381-1.374l0,0l0.002-17.395c0-0.767,0.622-1.376,1.379-1.378l0,0
		l18.335,0.002c0.759,0,1.374,0.615,1.376,1.376l0,0v17.395h-0.002c0,0.761-0.615,1.374-1.374,1.374l0,0H327.774L327.774,241.728z
		 M345.483,239.728l0.002-16.145l-17.09-0.002l-0.002,16.146H345.483L345.483,239.728z"/>
	<path fill="#F4F4F4" d="M332.043,237.459c-1.386,0-2.507-1.124-2.507-2.506l0,0v-9.293c0-1.384,1.121-2.509,2.507-2.509l0,0h9.796
		c1.386,0,2.506,1.123,2.506,2.509l0,0v9.293c0,1.384-1.12,2.506-2.506,2.508l0,0L332.043,237.459L332.043,237.459z M331.535,225.66
		v9.293c0.002,0.279,0.228,0.507,0.508,0.507l0,0h9.796c0.277,0,0.505-0.228,0.507-0.507l0,0v-9.293
		c-0.002-0.281-0.229-0.507-0.507-0.507l0,0l-9.796-0.003C331.763,225.153,331.537,225.379,331.535,225.66L331.535,225.66z"/>
</g>
<g>
	<path fill="#F4F4F4" d="M347.723,241.729c-0.759-0.002-1.378-0.613-1.378-1.374l0,0V222.96c0.002-0.763,0.619-1.376,1.378-1.376
		l0,0h18.336c0.758,0,1.374,0.613,1.376,1.376l0,0v17.395h-0.002c0,0.761-0.616,1.374-1.374,1.374l0,0H347.723L347.723,241.729z
		 M365.433,239.729l0.001-16.146h-17.089v16.146H365.433L365.433,239.729z"/>
	<path fill="#F4F4F4" d="M351.993,237.458c-1.387,0-2.508-1.12-2.508-2.505l0,0v-9.294c0-1.386,1.121-2.507,2.508-2.509l0,0
		l9.795,0.002c1.386,0,2.507,1.123,2.507,2.507l0,0v9.294c0,1.385-1.121,2.505-2.507,2.508l0,0L351.993,237.458L351.993,237.458z
		 M351.483,225.659v9.294c0.002,0.277,0.229,0.506,0.51,0.506l0,0l9.795,0.002c0.279-0.002,0.506-0.23,0.508-0.508l0,0v-9.294
		c-0.002-0.279-0.229-0.507-0.508-0.507l0,0l-9.795-0.003C351.713,225.152,351.485,225.38,351.483,225.659L351.483,225.659z"/>
</g>
<g>
	<path fill="#F4F4F4" d="M367.577,241.728c-0.761,0-1.376-0.613-1.378-1.374l0,0l0.002-17.395c0-0.762,0.615-1.377,1.376-1.377l0,0
		h18.335c0.759,0.002,1.376,0.615,1.378,1.377l0,0v17.395h-0.002c0,0.763-0.619,1.374-1.376,1.374l0,0H367.577L367.577,241.728z
		 M385.289,239.729v-16.147H368.2v16.147H385.289L385.289,239.729z"/>
	<path fill="#F4F4F4" d="M371.847,237.459c-1.386,0-2.507-1.122-2.507-2.506l0,0v-9.293c0-1.385,1.121-2.507,2.507-2.509l0,0h9.798
		c1.384,0.002,2.503,1.124,2.505,2.509l0,0v9.293c-0.002,1.384-1.121,2.506-2.505,2.506l0,0H371.847L371.847,237.459z
		 M371.34,225.66v9.293c0,0.279,0.229,0.507,0.507,0.507l0,0h9.798c0.276,0,0.505-0.228,0.505-0.507l0,0v-9.293
		c0-0.28-0.229-0.509-0.505-0.509l0,0h-9.798C371.568,225.151,371.34,225.38,371.34,225.66L371.34,225.66z"/>
</g>
<g>
	<path fill="#F4F4F4" d="M387.527,241.728c-0.76,0-1.375-0.615-1.377-1.375l0,0V222.96c0.002-0.758,0.617-1.377,1.377-1.379l0,0
		l18.334,0.002c0.756,0,1.377,0.614,1.379,1.377l0,0v17.393h-0.002c0,0.763-0.621,1.375-1.377,1.377l0,0L387.527,241.728
		L387.527,241.728z M405.238,239.729v-16.146l-17.088-0.002v16.146L405.238,239.729L405.238,239.729z"/>
	<path fill="#F4F4F4" d="M391.797,237.46c-1.387,0-2.507-1.124-2.507-2.507l0,0v-9.293c0-1.385,1.12-2.509,2.507-2.509l0,0h9.797
		c1.385,0.002,2.505,1.124,2.505,2.509l0,0v9.293c0,1.383-1.12,2.505-2.505,2.507l0,0H391.797L391.797,237.46z M391.289,225.66
		v9.293c0.002,0.279,0.229,0.506,0.508,0.506l0,0l9.797,0.002c0.276-0.002,0.506-0.229,0.506-0.508l0,0v-9.293
		c0-0.281-0.229-0.508-0.506-0.508l0,0l-9.797-0.002C391.518,225.152,391.291,225.379,391.289,225.66L391.289,225.66z"/>
</g>
<g>
	<path fill="#F4F4F4" d="M407.477,241.728c-0.758,0-1.378-0.611-1.378-1.376l0,0v-17.393c0.002-0.762,0.618-1.376,1.378-1.376l0,0
		h18.337c0.758,0,1.371,0.612,1.376,1.376l0,0v17.393h-0.003c-0.002,0.767-0.615,1.374-1.373,1.376l0,0H407.477L407.477,241.728z
		 M425.187,239.729l0.002-16.147h-17.09v16.147H425.187L425.187,239.729z"/>
	<path fill="#F4F4F4" d="M411.747,237.459c-1.388,0-2.508-1.123-2.508-2.507l0,0v-9.292c0-1.386,1.12-2.509,2.508-2.509l0,0h9.793
		c1.387,0,2.507,1.123,2.509,2.509l0,0v9.292c-0.002,1.384-1.122,2.507-2.509,2.509l0,0L411.747,237.459L411.747,237.459z
		 M411.238,225.66v9.292c0,0.28,0.228,0.508,0.509,0.508l0,0h9.793c0.28,0,0.508-0.229,0.51-0.508l0,0v-9.292
		c-0.002-0.279-0.229-0.509-0.51-0.509l0,0h-9.793C411.466,225.151,411.238,225.379,411.238,225.66L411.238,225.66z"/>
</g>
<g>
	<path fill="#F4F4F4" d="M427.426,241.729c-0.758-0.002-1.378-0.613-1.378-1.375l0,0v-17.395c0.003-0.762,0.618-1.375,1.378-1.377
		l0,0h18.336c0.758,0.002,1.375,0.615,1.377,1.377l0,0v17.395h-0.002c0,0.762-0.619,1.373-1.375,1.375l0,0H427.426L427.426,241.729z
		 M445.138,239.729v-16.147h-17.089l-0.002,16.147H445.138L445.138,239.729z"/>
	<path fill="#F4F4F4" d="M431.695,237.459c-1.387,0-2.506-1.123-2.506-2.506l0,0v-9.294c0-1.385,1.119-2.506,2.506-2.509l0,0
		l9.796,0.003c1.385,0,2.506,1.121,2.506,2.506l0,0v9.294c0,1.383-1.121,2.506-2.506,2.508l0,0L431.695,237.459L431.695,237.459z
		 M431.188,225.659v9.294c0.002,0.277,0.229,0.506,0.508,0.506l0,0l9.796,0.002c0.276-0.002,0.506-0.23,0.506-0.508l0,0v-9.294
		c0-0.28-0.229-0.509-0.506-0.509l0,0h-9.796C431.417,225.15,431.189,225.379,431.188,225.659L431.188,225.659z"/>
</g>
<g>
	<path fill="#F4F4F4" d="M447.375,241.729c-0.759-0.002-1.376-0.616-1.378-1.376l0,0V222.96c0.002-0.759,0.619-1.376,1.378-1.378
		l0,0h18.334c0.76,0.002,1.375,0.619,1.377,1.378l0,0v17.393c-0.002,0.76-0.617,1.374-1.377,1.376l0,0H447.375L447.375,241.729z
		 M465.086,239.729v-16.148h-17.088l-0.002,16.148H465.086L465.086,239.729z"/>
	<path fill="#F4F4F4" d="M451.644,237.46c-1.387-0.002-2.505-1.124-2.505-2.508l0,0v-9.293c0-1.384,1.118-2.506,2.505-2.508l0,0
		h9.798c1.386,0,2.506,1.124,2.506,2.508l0,0v9.293c0,1.384-1.12,2.508-2.506,2.508l0,0H451.644L451.644,237.46z M451.138,225.659
		v9.293c0,0.281,0.229,0.508,0.506,0.508l0,0h9.798c0.278,0,0.505-0.227,0.507-0.508l0,0v-9.293c-0.002-0.28-0.229-0.507-0.507-0.51
		l0,0h-9.798C451.366,225.152,451.138,225.379,451.138,225.659L451.138,225.659z"/>
</g>
<g>
	<path fill="#F4F4F4" d="M148.229,261.771c-0.762,0-1.373-0.612-1.377-1.373l0,0l0.002-17.395c0-0.763,0.619-1.374,1.375-1.376l0,0
		h27.378c0.754,0.002,1.375,0.617,1.377,1.376l0,0v17.395h-0.002c0,0.759-0.615,1.373-1.375,1.373l0,0H148.229L148.229,261.771z
		 M174.984,259.772v-16.146h-26.131v16.146H174.984L174.984,259.772z"/>
	<path fill="#F4F4F4" d="M152.499,257.502c-1.383,0-2.506-1.119-2.508-2.506l0,0l0.002-9.293c0-1.387,1.124-2.508,2.506-2.508l0,0
		h18.838c1.385,0,2.506,1.121,2.508,2.508l0,0v9.293h-0.002c0,1.385-1.121,2.506-2.506,2.508l0,0L152.499,257.502L152.499,257.502z
		 M151.992,245.703v9.293c0,0.278,0.229,0.506,0.507,0.506l0,0l18.838,0.003c0.28-0.003,0.506-0.23,0.508-0.509l0,0h-0.002
		l0.002-9.293c-0.002-0.282-0.228-0.506-0.508-0.506l0,0l-18.838-0.003C152.219,245.197,151.992,245.423,151.992,245.703
		L151.992,245.703z"/>
</g>
<g>
	<path fill="#F4F4F4" d="M177.222,261.771c-0.76,0-1.375-0.606-1.379-1.373l0,0l0.002-17.395c0-0.767,0.623-1.374,1.377-1.376l0,0
		h18.336c0.754,0.002,1.375,0.609,1.375,1.376l0,0v17.395c-0.004,0.765-0.615,1.371-1.375,1.373l0,0H177.222L177.222,261.771z
		 M194.935,259.772v-16.146h-17.092v16.146H194.935L194.935,259.772z"/>
	<path fill="#F4F4F4" d="M181.493,257.502c-1.387,0-2.508-1.121-2.508-2.506l0,0v-9.293c0-1.387,1.124-2.508,2.508-2.508l0,0h9.792
		c1.385,0.002,2.506,1.121,2.508,2.508l0,0v9.293c0,1.385-1.121,2.506-2.508,2.508l0,0L181.493,257.502L181.493,257.502z
		 M180.984,245.703v9.293c0,0.278,0.227,0.506,0.509,0.506l0,0l9.792,0.003c0.283-0.003,0.507-0.229,0.509-0.509l0,0v-9.293
		c0-0.282-0.226-0.506-0.509-0.506l0,0l-9.792-0.003C181.21,245.197,180.984,245.421,180.984,245.703L180.984,245.703z"/>
</g>
<g>
	<path fill="#F4F4F4" d="M197.17,261.771c-0.761,0-1.377-0.614-1.377-1.373l0,0v-17.395c0.002-0.759,0.623-1.374,1.377-1.376l0,0
		h18.336c0.756,0.002,1.375,0.617,1.375,1.376l0,0v17.395c0,0.759-0.613,1.373-1.375,1.373l0,0H197.17L197.17,261.771z
		 M214.881,259.772l0.002-16.146h-17.09v16.146H214.881L214.881,259.772z"/>
	<path fill="#F4F4F4" d="M201.44,257.503c-1.385,0-2.506-1.121-2.508-2.506l0,0l0.002-9.295c0-1.385,1.121-2.506,2.506-2.506l0,0
		h9.797c1.383,0,2.504,1.121,2.506,2.506l0,0v9.295c-0.002,1.385-1.121,2.504-2.506,2.506l0,0H201.44L201.44,257.503z
		 M200.934,245.702v9.295c0,0.278,0.227,0.506,0.507,0.506l0,0h9.797c0.278,0,0.504-0.228,0.506-0.506l0,0h-0.002l0.002-9.295
		c-0.002-0.28-0.229-0.507-0.506-0.507l0,0h-9.797C201.16,245.195,200.934,245.422,200.934,245.702L200.934,245.702z"/>
</g>
<g>
	<path fill="#F4F4F4" d="M217.12,261.772c-0.765-0.003-1.375-0.613-1.377-1.376l0,0v-17.393c0.002-0.763,0.621-1.376,1.377-1.378
		l0,0l18.336,0.002c0.754,0,1.374,0.615,1.375,1.376l0,0v17.393c0,0.759-0.613,1.376-1.375,1.376l0,0H217.12L217.12,261.772z
		 M234.831,259.773v-16.146h-17.087v16.145L234.831,259.773L234.831,259.773z"/>
	<path fill="#F4F4F4" d="M221.39,257.502c-1.385,0-2.506-1.121-2.508-2.506l0,0v-9.293c0-1.387,1.123-2.508,2.508-2.508l0,0h9.794
		c1.385,0.002,2.504,1.123,2.508,2.508l0,0v9.293h-0.002c0,1.385-1.121,2.506-2.506,2.508l0,0L221.39,257.502L221.39,257.502z
		 M220.883,245.703l-0.002,9.293c0.002,0.278,0.229,0.506,0.509,0.506l0,0l9.794,0.003c0.28-0.003,0.507-0.229,0.507-0.509l0,0
		v-9.293c0-0.282-0.224-0.506-0.507-0.506l0,0l-9.794-0.003C221.11,245.197,220.883,245.421,220.883,245.703L220.883,245.703z"/>
</g>
<g>
	<path fill="#F4F4F4" d="M237.068,261.772c-0.76,0-1.375-0.617-1.377-1.376l0,0l0.002-17.393c0-0.761,0.621-1.376,1.375-1.378l0,0
		l18.336,0.002c0.754,0,1.375,0.611,1.375,1.376l0,0v17.393c-0.002,0.763-0.615,1.376-1.375,1.376l0,0H237.068L237.068,261.772z
		 M254.781,259.773v-16.146h-17.09v16.145L254.781,259.773L254.781,259.773z"/>
	<path fill="#F4F4F4" d="M241.338,257.502c-1.385,0-2.506-1.121-2.506-2.506l0,0v-9.293c0-1.387,1.121-2.508,2.506-2.508l0,0h9.797
		c1.383,0,2.506,1.121,2.506,2.508l0,0v9.293c-0.002,1.385-1.123,2.506-2.506,2.508l0,0L241.338,257.502L241.338,257.502z
		 M240.832,245.703v9.293c0,0.278,0.226,0.506,0.506,0.506l0,0l9.797,0.003c0.278-0.003,0.505-0.23,0.507-0.509l0,0h-0.002
		l0.002-9.293c-0.002-0.282-0.229-0.506-0.507-0.506l0,0l-9.797-0.003C241.058,245.197,240.832,245.421,240.832,245.703
		L240.832,245.703z"/>
</g>
<g>
	<path fill="#F4F4F4" d="M257.018,261.771c-0.761,0-1.375-0.61-1.377-1.373l0,0v-17.395c0.002-0.763,0.623-1.374,1.377-1.376l0,0
		h18.336c0.756,0.002,1.375,0.613,1.375,1.376l0,0v17.395c-0.002,0.761-0.613,1.373-1.375,1.373l0,0H257.018L257.018,261.771z
		 M274.729,259.772l0.002-16.146h-17.09v16.146H274.729L274.729,259.772z"/>
	<path fill="#F4F4F4" d="M261.29,257.502c-1.387,0-2.509-1.121-2.509-2.506l0,0v-9.293c0-1.387,1.124-2.508,2.509-2.508l0,0h9.794
		c1.385,0.002,2.504,1.123,2.506,2.508l0,0v9.293c0,1.385-1.121,2.506-2.506,2.508l0,0L261.29,257.502L261.29,257.502z
		 M260.781,245.703v9.293c0,0.278,0.228,0.506,0.509,0.506l0,0l9.794,0.003c0.28-0.003,0.504-0.229,0.507-0.509l0,0v-9.293
		c0-0.282-0.227-0.506-0.507-0.506l0,0l-9.794-0.003C261.007,245.197,260.781,245.421,260.781,245.703L260.781,245.703z"/>
</g>
<g>
	<path fill="#F4F4F4" d="M276.969,261.771c-0.763,0-1.375-0.61-1.377-1.373l0,0v-17.395c0-0.763,0.621-1.374,1.377-1.376l0,0h18.334
		c0.754,0.002,1.375,0.613,1.377,1.376l0,0v17.395c-0.002,0.763-0.617,1.373-1.377,1.373l0,0H276.969L276.969,261.771z
		 M294.68,259.772v-16.146h-17.09v16.146H294.68L294.68,259.772z"/>
	<path fill="#F4F4F4" d="M281.238,257.502c-1.387,0-2.506-1.121-2.506-2.506l0,0v-9.293c0-1.385,1.122-2.508,2.506-2.508l0,0h9.795
		c1.385,0,2.508,1.121,2.508,2.508l0,0v9.293c-0.002,1.385-1.124,2.506-2.508,2.508l0,0L281.238,257.502L281.238,257.502z
		 M280.731,245.703v9.293c0,0.28,0.226,0.506,0.506,0.506l0,0l9.795,0.003c0.28-0.003,0.507-0.23,0.509-0.509l0,0h-0.002
		l0.002-9.293c-0.002-0.282-0.227-0.506-0.509-0.506l0,0l-9.795-0.003C280.958,245.197,280.731,245.421,280.731,245.703
		L280.731,245.703z"/>
</g>
<g>
	<path fill="#F4F4F4" d="M296.917,261.771c-0.762,0-1.375-0.61-1.377-1.373l0,0v-17.395c0.002-0.763,0.624-1.374,1.377-1.376l0,0
		h18.336c0.755,0.002,1.373,0.613,1.376,1.376l0,0v17.395c-0.003,0.763-0.615,1.373-1.376,1.373l0,0H296.917L296.917,261.771z
		 M314.628,259.772l0.002-16.146h-17.089v16.146H314.628L314.628,259.772z"/>
	<path fill="#F4F4F4" d="M301.186,257.503c-1.385-0.002-2.504-1.121-2.506-2.506l0,0l0.002-9.295c0-1.385,1.122-2.506,2.504-2.506
		l0,0h9.797c1.385,0,2.506,1.121,2.506,2.506l0,0v9.295c0,1.383-1.121,2.506-2.506,2.506l0,0H301.186L301.186,257.503z
		 M300.681,245.702l-0.002,9.295c0.002,0.278,0.229,0.506,0.507,0.506l0,0h9.797c0.278,0,0.507-0.228,0.507-0.506l0,0v-9.295
		c0-0.282-0.227-0.507-0.507-0.507l0,0h-9.797C300.907,245.195,300.681,245.422,300.681,245.702L300.681,245.702z"/>
</g>
<g>
	<path fill="#F4F4F4" d="M316.866,261.772c-0.763,0-1.375-0.613-1.379-1.376l0,0l0.002-17.393c0-0.765,0.621-1.376,1.377-1.378l0,0
		l18.335,0.002c0.754,0,1.375,0.611,1.377,1.376l0,0v17.393h-0.002c-0.002,0.763-0.615,1.376-1.375,1.376l0,0H316.866
		L316.866,261.772z M334.577,259.773v-16.146h-17.088l-0.002,16.145L334.577,259.773L334.577,259.773z"/>
	<path fill="#F4F4F4" d="M321.137,257.502c-1.385,0-2.508-1.119-2.51-2.506l0,0l0.002-9.293c0-1.387,1.123-2.508,2.508-2.508l0,0
		h9.795c1.383,0,2.507,1.121,2.507,2.508l0,0v9.293c-0.003,1.387-1.124,2.506-2.507,2.508l0,0L321.137,257.502L321.137,257.502z
		 M320.628,245.703v9.293c0,0.278,0.229,0.506,0.509,0.506l0,0l9.795,0.003c0.278-0.003,0.507-0.23,0.507-0.509l0,0v-9.293
		c0-0.28-0.227-0.506-0.507-0.506l0,0l-9.795-0.003C320.854,245.197,320.628,245.423,320.628,245.703L320.628,245.703z"/>
</g>
<g>
	<path fill="#F4F4F4" d="M336.815,261.772c-0.759,0-1.376-0.613-1.378-1.376l0,0v-17.393c0.002-0.765,0.625-1.376,1.378-1.378l0,0
		l18.336,0.002c0.754,0,1.373,0.615,1.375,1.376l0,0v17.393c0,0.759-0.614,1.376-1.375,1.376l0,0H336.815L336.815,261.772z
		 M354.526,259.773v-16.146h-17.088l-0.002,16.145L354.526,259.773L354.526,259.773z"/>
	<path fill="#F4F4F4" d="M341.086,257.502c-1.385,0-2.507-1.121-2.509-2.506l0,0l0.002-9.293c0.002-1.385,1.122-2.506,2.507-2.508
		l0,0h9.795c1.385,0,2.506,1.121,2.508,2.508l0,0v9.293h-0.002c0,1.385-1.121,2.506-2.506,2.508l0,0L341.086,257.502
		L341.086,257.502z M340.579,245.703l-0.002,9.293c0.002,0.28,0.227,0.506,0.509,0.506l0,0l9.795,0.003
		c0.277-0.003,0.506-0.23,0.509-0.509l0,0h-0.003l0.003-9.293c-0.003-0.282-0.229-0.506-0.509-0.506l0,0l-9.795-0.003
		C340.804,245.197,340.579,245.421,340.579,245.703L340.579,245.703z"/>
</g>
<g>
	<path fill="#F4F4F4" d="M356.764,261.772c-0.763,0-1.376-0.617-1.376-1.376l0,0v-17.393c0-0.761,0.619-1.376,1.376-1.378l0,0
		l18.338,0.002c0.757,0,1.371,0.617,1.374,1.376l0,0v17.393c-0.003,0.759-0.611,1.373-1.374,1.376l0,0H356.764L356.764,261.772z
		 M374.475,259.773l0.002-16.146h-17.088l-0.002,16.145L374.475,259.773L374.475,259.773z"/>
	<path fill="#F4F4F4" d="M361.034,257.502c-1.385,0-2.506-1.119-2.508-2.506l0,0l0.002-9.293c0-1.387,1.123-2.508,2.506-2.508l0,0
		h9.797c1.383,0,2.507,1.121,2.507,2.508l0,0v9.293c0,1.385-1.122,2.506-2.507,2.508l0,0L361.034,257.502L361.034,257.502z
		 M360.527,245.703v9.293c0,0.278,0.229,0.506,0.507,0.506l0,0l9.797,0.003c0.278-0.003,0.505-0.23,0.507-0.509l0,0h-0.002
		l0.002-9.293c-0.002-0.282-0.229-0.506-0.507-0.506l0,0l-9.797-0.003C360.756,245.197,360.527,245.423,360.527,245.703
		L360.527,245.703z"/>
</g>
<g>
	<path fill="#F4F4F4" d="M376.619,261.772c-0.764,0-1.375-0.616-1.377-1.375l0,0l0.002-17.396c0-0.759,0.62-1.372,1.375-1.375l0,0
		h18.337c0.753,0.003,1.375,0.61,1.377,1.375l0,0v17.396h-0.002c-0.004,0.765-0.615,1.372-1.375,1.375l0,0H376.619L376.619,261.772z
		 M394.332,259.773v-16.147h-17.089v16.147H394.332L394.332,259.773z"/>
	<path fill="#F4F4F4" d="M380.891,257.502c-1.387,0-2.508-1.121-2.508-2.506l0,0v-9.293c0.002-1.385,1.123-2.505,2.508-2.508l0,0
		h9.797c1.383,0,2.503,1.121,2.505,2.508l0,0v9.293h-0.002c0,1.385-1.12,2.506-2.503,2.508l0,0L380.891,257.502L380.891,257.502z
		 M380.384,245.703l-0.002,9.293c0.002,0.279,0.227,0.506,0.509,0.506l0,0l9.797,0.002c0.276-0.002,0.503-0.229,0.505-0.508l0,0
		h-0.002l0.002-9.293c-0.002-0.282-0.229-0.507-0.505-0.507l0,0l-9.797-0.002C380.608,245.196,380.384,245.421,380.384,245.703
		L380.384,245.703z"/>
</g>
<g>
	<path fill="#F4F4F4" d="M396.568,261.771c-0.763,0-1.376-0.615-1.376-1.374l0,0v-17.396c0.002-0.759,0.622-1.374,1.376-1.376l0,0
		l18.336,0.002c0.75,0,1.376,0.611,1.378,1.374l0,0v17.396h-0.002c0,0.763-0.617,1.374-1.376,1.376l0,0L396.568,261.771
		L396.568,261.771z M414.28,259.773l0.002-16.146l-17.09-0.002v16.146L414.28,259.773L414.28,259.773z"/>
	<path fill="#F4F4F4" d="M400.84,257.502c-1.387,0-2.508-1.121-2.508-2.505l0,0v-9.295c0-1.386,1.124-2.508,2.508-2.508l0,0h9.795
		c1.384,0,2.505,1.124,2.507,2.508l0,0v9.295h-0.002c0,1.384-1.119,2.505-2.505,2.507l0,0L400.84,257.502L400.84,257.502z
		 M400.333,245.702l-0.002,9.295c0.002,0.277,0.229,0.506,0.509,0.506l0,0h9.795c0.279,0,0.506-0.227,0.506-0.506l0,0v-9.295
		c0-0.281-0.227-0.506-0.506-0.506l0,0h-9.795C400.559,245.196,400.333,245.421,400.333,245.702L400.333,245.702z"/>
</g>
<g>
	<path fill="#F4F4F4" d="M416.519,261.772c-0.762-0.002-1.376-0.612-1.378-1.375l0,0v-17.395c0.002-0.763,0.623-1.373,1.378-1.376
		l0,0h18.335c0.755,0.003,1.375,0.613,1.377,1.376l0,0v17.395h-0.002c-0.002,0.761-0.612,1.373-1.375,1.375l0,0H416.519
		L416.519,261.772z M434.229,259.772l0.002-16.146h-17.09v16.146H434.229L434.229,259.772z"/>
	<path fill="#F4F4F4" d="M420.788,257.502c-1.386,0-2.508-1.12-2.508-2.505l0,0v-9.294c0-1.386,1.124-2.508,2.508-2.508l0,0h9.795
		c1.385,0,2.507,1.122,2.51,2.508l0,0v9.294h-0.003c0,1.385-1.122,2.505-2.507,2.507l0,0L420.788,257.502L420.788,257.502z
		 M420.28,245.703v9.294c0,0.277,0.228,0.505,0.508,0.505l0,0l9.795,0.003c0.28-0.003,0.508-0.23,0.508-0.508l0,0v-9.294
		c0-0.282-0.226-0.508-0.508-0.508l0,0h-9.795C420.506,245.195,420.28,245.421,420.28,245.703L420.28,245.703z"/>
</g>
<g>
	<path fill="#F4F4F4" d="M436.467,261.772c-0.761-0.002-1.374-0.613-1.378-1.376l0,0l0.002-17.393c0-0.765,0.622-1.375,1.376-1.377
		l0,0h18.336c0.754,0.002,1.376,0.612,1.378,1.377l0,0v17.393h-0.002c-0.002,0.763-0.613,1.374-1.376,1.376l0,0H436.467
		L436.467,261.772z M454.18,259.774v-16.148h-17.09v16.148H454.18L454.18,259.774z"/>
	<path fill="#F4F4F4" d="M440.738,257.503c-1.387,0-2.507-1.122-2.509-2.507l0,0l0.002-9.293c0.002-1.384,1.12-2.505,2.507-2.509
		l0,0l9.794,0.002c1.384,0,2.507,1.12,2.509,2.507l0,0v9.293h-0.002c0,1.387-1.123,2.507-2.507,2.507l0,0H440.738L440.738,257.503z
		 M440.231,245.703l-0.002,9.293c0.002,0.278,0.227,0.507,0.509,0.507l0,0h9.794c0.28,0,0.507-0.229,0.509-0.507l0,0h-0.002
		l0.002-9.293c-0.002-0.28-0.229-0.507-0.509-0.507l0,0l-9.794-0.002C440.456,245.196,440.231,245.421,440.231,245.703
		L440.231,245.703z"/>
</g>
<g>
	<path fill="#F4F4F4" d="M456.417,261.772c-0.763-0.002-1.376-0.613-1.378-1.375l0,0v-17.395c0.002-0.763,0.623-1.376,1.378-1.376
		l0,0h18.335c0.756,0,1.375,0.616,1.377,1.376l0,0v17.395h-0.002c0,0.758-0.613,1.373-1.375,1.375l0,0H456.417L456.417,261.772z
		 M474.128,259.773v-16.146H457.04l-0.002,16.146H474.128L474.128,259.773z"/>
	<path fill="#F4F4F4" d="M460.688,257.502c-1.386,0-2.507-1.121-2.509-2.504l0,0l0.002-9.295c0.002-1.386,1.121-2.504,2.507-2.509
		l0,0l9.796,0.002c1.384,0,2.505,1.121,2.505,2.507l0,0v9.295c0,1.383-1.121,2.504-2.505,2.506l0,0L460.688,257.502L460.688,257.502
		z M460.18,245.703v9.295c0,0.278,0.227,0.504,0.508,0.504l0,0l9.796,0.002c0.277-0.002,0.504-0.228,0.506-0.506l0,0h-0.002
		l0.002-9.295c-0.002-0.283-0.227-0.508-0.506-0.508l0,0h-9.796C460.404,245.195,460.18,245.42,460.18,245.703L460.18,245.703z"/>
</g>
<g>
	<path fill="#F4F4F4" d="M142.203,281.816c-0.76-0.002-1.376-0.612-1.379-1.377l0,0v-17.394c0.002-0.765,0.619-1.375,1.379-1.377
		l0,0h18.335c0.76,0.002,1.375,0.617,1.376,1.377l0,0v17.394c-0.002,0.763-0.616,1.375-1.376,1.377l0,0H142.203L142.203,281.816z
		 M159.913,279.816v-16.147h-17.089v16.147H159.913L159.913,279.816z"/>
	<path fill="#F4F4F4" d="M146.471,277.545c-1.384-0.002-2.504-1.121-2.506-2.506l0,0v-9.292c0-1.386,1.12-2.51,2.506-2.51l0,0h9.795
		c1.386,0,2.506,1.124,2.508,2.51l0,0v9.292c0,1.385-1.124,2.506-2.508,2.509l0,0L146.471,277.545L146.471,277.545z
		 M145.965,265.747v9.292c0,0.281,0.225,0.506,0.506,0.506l0,0l9.795,0.002c0.281-0.002,0.508-0.227,0.508-0.508l0,0v-9.292
		c0-0.283-0.229-0.51-0.508-0.51l0,0h-9.795C146.191,265.237,145.965,265.464,145.965,265.747L145.965,265.747z"/>
</g>
<g>
	<path fill="#F4F4F4" d="M162.15,281.815c-0.76,0-1.375-0.617-1.376-1.375l0,0v-17.394c0.002-0.76,0.616-1.377,1.376-1.377l0,0
		h18.337c0.762,0.003,1.374,0.614,1.374,1.377l0,0v17.394c0,0.76-0.612,1.372-1.374,1.375l0,0H162.15L162.15,281.815z
		 M179.863,279.817v-16.149h-17.089v16.149H179.863L179.863,279.817z"/>
	<path fill="#F4F4F4" d="M166.421,277.546c-1.384,0-2.508-1.121-2.508-2.506l0,0v-9.294c0.002-1.386,1.122-2.508,2.508-2.508l0,0
		h9.797c1.384,0,2.504,1.122,2.504,2.508l0,0v9.294c0,1.385-1.122,2.506-2.504,2.506l0,0H166.421L166.421,277.546z M165.913,265.746
		v9.294c0,0.279,0.227,0.506,0.508,0.506l0,0h9.797c0.277,0,0.504-0.227,0.506-0.506l0,0v-9.294c-0.002-0.28-0.231-0.508-0.506-0.51
		l0,0h-9.797C166.142,265.238,165.913,265.466,165.913,265.746L165.913,265.746z"/>
</g>
<g>
	<path fill="#F4F4F4" d="M182.1,281.815c-0.765-0.003-1.375-0.615-1.377-1.375l0,0v-17.394c0.002-0.763,0.612-1.374,1.377-1.377l0,0
		h18.335c0.762,0,1.376,0.617,1.378,1.377l0,0v17.394h-0.002c0,0.758-0.614,1.375-1.376,1.375l0,0H182.1L182.1,281.815z
		 M199.812,279.817v-16.149h-17.087l-0.002,16.149H199.812L199.812,279.817z"/>
	<path fill="#F4F4F4" d="M186.371,277.545c-1.384,0-2.508-1.121-2.508-2.506l0,0v-9.292c0-1.386,1.122-2.508,2.508-2.51l0,0h9.796
		c1.386,0,2.506,1.124,2.506,2.51l0,0v9.292c-0.002,1.385-1.122,2.504-2.506,2.509l0,0L186.371,277.545L186.371,277.545z
		 M185.863,265.747v9.292c0,0.281,0.227,0.506,0.508,0.506l0,0l9.796,0.002c0.281-0.002,0.506-0.227,0.506-0.508l0,0v-9.292
		c0-0.283-0.227-0.51-0.506-0.51l0,0h-9.796C186.092,265.237,185.863,265.464,185.863,265.747L185.863,265.747z"/>
</g>
<g>
	<path fill="#F4F4F4" d="M202.05,281.815c-0.762,0-1.376-0.617-1.378-1.375l0,0v-17.394c0.002-0.76,0.616-1.377,1.378-1.377l0,0
		h18.335c0.762,0.003,1.375,0.61,1.377,1.377l0,0v17.394c-0.002,0.765-0.615,1.372-1.377,1.375l0,0H202.05L202.05,281.815z
		 M219.763,279.817v-16.149h-17.089l-0.002,16.149H219.763L219.763,279.817z"/>
	<path fill="#F4F4F4" d="M206.32,277.545c-1.384,0-2.508-1.121-2.508-2.506l0,0v-9.292c0.002-1.386,1.122-2.508,2.508-2.51l0,0
		h9.795c1.386,0,2.506,1.124,2.506,2.51l0,0v9.292c-0.002,1.385-1.122,2.504-2.506,2.509l0,0L206.32,277.545L206.32,277.545z
		 M205.812,265.747v9.292c0,0.281,0.227,0.506,0.508,0.506l0,0l9.795,0.002c0.281-0.002,0.506-0.227,0.506-0.508l0,0v-9.292
		c0-0.283-0.227-0.51-0.506-0.51l0,0h-9.795C206.041,265.237,205.812,265.464,205.812,265.747L205.812,265.747z"/>
</g>
<g>
	<path fill="#F4F4F4" d="M222,281.815c-0.762,0-1.376-0.615-1.379-1.375l0,0l0.002-17.394c0-0.763,0.614-1.377,1.376-1.377l0,0
		h18.335c0.762,0.003,1.375,0.614,1.376,1.377l0,0v17.394c-0.002,0.76-0.614,1.372-1.376,1.375l0,0H222L222,281.815z
		 M239.709,279.817l0.002-16.149h-17.089v16.149H239.709L239.709,279.817z"/>
	<path fill="#F4F4F4" d="M226.269,277.545c-1.384,0-2.508-1.121-2.508-2.506l0,0v-9.292c0.002-1.386,1.122-2.508,2.508-2.51l0,0
		h9.795c1.386,0.002,2.506,1.124,2.506,2.51l0,0v9.292c0,1.385-1.122,2.506-2.506,2.509l0,0L226.269,277.545L226.269,277.545z
		 M225.761,265.747v9.292c0,0.281,0.227,0.506,0.508,0.506l0,0l9.795,0.002c0.279-0.002,0.506-0.227,0.506-0.508l0,0v-9.292
		c0-0.283-0.229-0.51-0.506-0.51l0,0h-9.795C225.99,265.237,225.761,265.464,225.761,265.747L225.761,265.747z"/>
</g>
<g>
	<path fill="#F4F4F4" d="M241.948,281.815c-0.762,0-1.376-0.615-1.378-1.375l0,0l0.002-17.394c0-0.763,0.614-1.377,1.376-1.377l0,0
		h18.335c0.765,0.003,1.375,0.614,1.377,1.377l0,0v17.394c-0.002,0.76-0.612,1.372-1.377,1.375l0,0H241.948L241.948,281.815z
		 M259.659,279.817l0.002-16.149h-17.089v16.149H259.659L259.659,279.817z"/>
	<path fill="#F4F4F4" d="M246.217,277.546c-1.384,0-2.506-1.124-2.506-2.506l0,0v-9.294c0-1.384,1.12-2.508,2.506-2.508l0,0h9.798
		c1.384,0,2.504,1.122,2.506,2.508l0,0v9.294c-0.002,1.385-1.124,2.506-2.506,2.506l0,0H246.217L246.217,277.546z M245.711,265.746
		v9.294c0,0.281,0.227,0.506,0.505,0.506l0,0h9.798c0.279,0,0.504-0.227,0.506-0.506l0,0v-9.294c-0.002-0.28-0.229-0.508-0.506-0.51
		l0,0h-9.798C245.94,265.238,245.711,265.466,245.711,265.746L245.711,265.746z"/>
</g>
<g>
	<path fill="#F4F4F4" d="M261.897,281.815c-0.765,0-1.375-0.621-1.376-1.375l0,0v-17.394c0.002-0.756,0.612-1.377,1.376-1.377l0,0
		h18.335c0.762,0,1.376,0.614,1.378,1.377l0,0v17.394h-0.002c0,0.76-0.614,1.375-1.376,1.375l0,0H261.897L261.897,281.815z
		 M279.609,279.817v-16.149h-17.087l-0.002,16.149H279.609L279.609,279.817z"/>
	<path fill="#F4F4F4" d="M266.167,277.545c-1.384,0-2.506-1.121-2.506-2.506l0,0v-9.292c0-1.386,1.12-2.508,2.506-2.51l0,0h9.796
		c1.386,0,2.506,1.124,2.506,2.51l0,0v9.292c-0.002,1.385-1.122,2.504-2.506,2.509l0,0L266.167,277.545L266.167,277.545z
		 M265.661,265.747v9.292c0,0.281,0.227,0.506,0.506,0.506l0,0l9.796,0.002c0.281-0.002,0.505-0.227,0.505-0.508l0,0v-9.292
		c0-0.283-0.227-0.51-0.505-0.51l0,0h-9.796C265.89,265.237,265.661,265.464,265.661,265.747L265.661,265.747z"/>
</g>
<g>
	<path fill="#F4F4F4" d="M281.847,281.816c-0.762-0.002-1.375-0.612-1.378-1.377l0,0v-17.394c0.004-0.765,0.616-1.375,1.378-1.377
		l0,0h18.334c0.759,0.002,1.375,0.612,1.377,1.377l0,0v17.394c-0.002,0.765-0.618,1.375-1.377,1.377l0,0H281.847L281.847,281.816z
		 M299.56,279.816v-16.147H282.47v16.147H299.56L299.56,279.816z"/>
	<path fill="#F4F4F4" d="M286.116,277.545c-1.382,0-2.506-1.119-2.506-2.506l0,0v-9.292c0-1.388,1.122-2.508,2.506-2.51l0,0h9.798
		c1.384,0.002,2.504,1.124,2.506,2.51l0,0v9.292c0,1.385-1.124,2.506-2.506,2.509l0,0L286.116,277.545L286.116,277.545z
		 M285.608,265.747v9.292c0.002,0.279,0.227,0.506,0.508,0.506l0,0l9.798,0.002c0.279-0.002,0.505-0.227,0.505-0.508l0,0v-9.292
		c0-0.283-0.229-0.51-0.505-0.51l0,0h-9.798C285.837,265.237,285.61,265.467,285.608,265.747L285.608,265.747z"/>
</g>
<g>
	<path fill="#F4F4F4" d="M301.796,281.816c-0.76-0.002-1.376-0.619-1.379-1.377l0,0l0.003-17.394c0-0.758,0.616-1.375,1.376-1.377
		l0,0h18.335c0.763,0,1.375,0.619,1.377,1.377l0,0v17.394h-0.002c0,0.758-0.612,1.377-1.375,1.377l0,0H301.796L301.796,281.816z
		 M319.506,279.816l0.002-16.147h-17.089l-0.002,16.147H319.506L319.506,279.816z"/>
	<path fill="#F4F4F4" d="M306.065,277.545c-1.385,0-2.507-1.121-2.507-2.506l0,0v-9.292c0-1.386,1.12-2.51,2.507-2.51l0,0h9.797
		c1.385,0.002,2.505,1.124,2.505,2.51l0,0v9.292c0,1.385-1.122,2.506-2.505,2.509l0,0L306.065,277.545L306.065,277.545z
		 M305.558,265.747v9.292c0,0.281,0.227,0.506,0.508,0.506l0,0l9.797,0.002c0.279-0.002,0.506-0.227,0.506-0.508l0,0v-9.292
		c0-0.283-0.229-0.51-0.506-0.51l0,0h-9.797C305.786,265.237,305.558,265.464,305.558,265.747L305.558,265.747z"/>
</g>
<g>
	<path fill="#F4F4F4" d="M321.745,281.816c-0.761-0.002-1.377-0.619-1.379-1.377l0,0l0.002-17.394c0-0.758,0.616-1.375,1.377-1.377
		l0,0h18.335c0.765,0.002,1.374,0.617,1.376,1.377l0,0v17.394c-0.002,0.763-0.611,1.375-1.376,1.377l0,0H321.745L321.745,281.816z
		 M339.455,279.816l0.002-16.147h-17.089v16.147H339.455L339.455,279.816z"/>
	<path fill="#F4F4F4" d="M326.015,277.545c-1.385-0.002-2.505-1.121-2.507-2.506l0,0v-9.292c0-1.386,1.12-2.51,2.507-2.51l0,0h9.795
		c1.387,0,2.509,1.124,2.509,2.51l0,0v9.292c0,1.385-1.124,2.506-2.509,2.509l0,0L326.015,277.545L326.015,277.545z
		 M325.506,265.747v9.292c0.003,0.281,0.228,0.506,0.509,0.506l0,0l9.795,0.002c0.281-0.002,0.508-0.227,0.508-0.508l0,0v-9.292
		c0-0.283-0.229-0.51-0.508-0.51l0,0h-9.795C325.735,265.237,325.509,265.464,325.506,265.747L325.506,265.747z"/>
</g>
<g>
	<path fill="#F4F4F4" d="M341.693,281.815c-0.761,0-1.375-0.615-1.377-1.375l0,0v-17.394c0.002-0.763,0.616-1.377,1.377-1.377l0,0
		h18.337c0.76,0,1.374,0.614,1.376,1.377l0,0v17.394c-0.002,0.76-0.616,1.375-1.376,1.375l0,0H341.693L341.693,281.815z
		 M359.405,279.817l0.002-16.149h-17.09l-0.002,16.149H359.405L359.405,279.817z"/>
	<path fill="#F4F4F4" d="M345.963,277.545c-1.384,0-2.504-1.119-2.506-2.506l0,0v-9.292c0.002-1.386,1.12-2.508,2.506-2.51l0,0
		h9.796c1.387,0,2.508,1.122,2.508,2.51l0,0v9.292c0,1.387-1.124,2.506-2.508,2.509l0,0L345.963,277.545L345.963,277.545z
		 M345.457,265.747v9.292c0,0.279,0.229,0.506,0.506,0.506l0,0l9.796,0.002c0.281-0.002,0.508-0.229,0.51-0.508l0,0v-9.292
		c-0.002-0.28-0.23-0.51-0.51-0.51l0,0h-9.796C345.688,265.237,345.457,265.464,345.457,265.747L345.457,265.747z"/>
</g>
<g>
	<path fill="#F4F4F4" d="M361.548,281.815c-0.764,0-1.374-0.619-1.376-1.375l0,0l0.002-17.394c0-0.758,0.61-1.377,1.374-1.377l0,0
		h18.337c0.759,0,1.375,0.61,1.377,1.377l0,0v17.394c-0.002,0.765-0.618,1.375-1.377,1.375l0,0H361.548L361.548,281.815z
		 M379.261,279.817l0.002-16.149h-17.09v16.149H379.261L379.261,279.817z"/>
	<path fill="#F4F4F4" d="M365.82,277.545c-1.384,0-2.508-1.119-2.508-2.506l0,0v-9.292c0-1.388,1.122-2.508,2.508-2.51l0,0h9.796
		c1.385,0,2.504,1.124,2.504,2.51l0,0v9.292c0,1.385-1.119,2.506-2.504,2.509l0,0L365.82,277.545L365.82,277.545z M365.311,265.747
		v9.292c0.002,0.279,0.228,0.506,0.51,0.506l0,0l9.796,0.002c0.279-0.002,0.504-0.227,0.506-0.508l0,0v-9.292
		c-0.002-0.283-0.229-0.51-0.506-0.51l0,0h-9.796C365.54,265.237,365.313,265.467,365.311,265.747L365.311,265.747z"/>
</g>
<g>
	<path fill="#F4F4F4" d="M381.498,281.816c-0.762,0-1.374-0.619-1.377-1.377l0,0v-17.394c0.003-0.758,0.615-1.377,1.377-1.377l0,0
		h18.335c0.76,0,1.377,0.614,1.379,1.377l0,0v17.394h-0.002c0,0.763-0.617,1.377-1.377,1.377l0,0H381.498L381.498,281.816z
		 M399.21,279.816v-16.147h-17.087l-0.002,16.147H399.21L399.21,279.816z"/>
	<path fill="#F4F4F4" d="M385.77,277.545c-1.386-0.002-2.506-1.121-2.508-2.506l0,0v-9.292c0-1.386,1.12-2.51,2.508-2.51l0,0h9.796
		c1.387,0.002,2.506,1.124,2.506,2.51l0,0v9.292c0,1.385-1.122,2.506-2.506,2.509l0,0L385.77,277.545L385.77,277.545z
		 M385.262,265.747v9.292c0,0.281,0.225,0.506,0.508,0.506l0,0l9.796,0.002c0.279-0.002,0.506-0.227,0.506-0.508l0,0v-9.292
		c0-0.283-0.229-0.51-0.506-0.51l0,0h-9.796C385.489,265.237,385.262,265.464,385.262,265.747L385.262,265.747z"/>
</g>
<g>
	<path fill="#F4F4F4" d="M401.448,281.816c-0.758,0-1.377-0.611-1.379-1.377l0,0v-17.393c0.002-0.768,0.621-1.377,1.379-1.377l0,0
		h18.338c0.763,0,1.372,0.618,1.374,1.377l0,0v17.393h-0.002c0,0.758-0.609,1.375-1.372,1.377l0,0H401.448L401.448,281.816z
		 M419.158,279.818l0.002-16.149h-17.091v16.149H419.158L419.158,279.818z"/>
	<path fill="#F4F4F4" d="M405.718,277.546c-1.385-0.002-2.505-1.122-2.507-2.507l0,0v-9.292c0-1.385,1.119-2.509,2.507-2.511l0,0
		l9.794,0.002c1.387,0,2.509,1.122,2.509,2.509l0,0v9.292c0,1.387-1.124,2.507-2.509,2.507l0,0H405.718L405.718,277.546z
		 M405.211,265.747v9.292c0,0.281,0.225,0.507,0.507,0.507l0,0h9.794c0.281,0,0.509-0.228,0.509-0.507l0,0v-9.292
		c0-0.281-0.229-0.509-0.509-0.509l0,0l-9.794-0.002C405.438,265.238,405.211,265.464,405.211,265.747L405.211,265.747z"/>
</g>
<g>
	<path fill="#F4F4F4" d="M421.396,281.817c-0.762-0.003-1.375-0.617-1.378-1.378l0,0l0.003-17.394c0-0.761,0.613-1.375,1.375-1.377
		l0,0h37.173c0.761,0.002,1.375,0.611,1.38,1.377l0,0v17.394h-0.003c-0.002,0.766-0.616,1.375-1.377,1.378l0,0H421.396
		L421.396,281.817z M457.947,279.817V263.67l-35.927-0.002l-0.002,16.147L457.947,279.817L457.947,279.817z"/>
	<path fill="#F4F4F4" d="M425.667,277.547c-1.383,0-2.506-1.121-2.506-2.507l0,0v-9.293c0-1.387,1.121-2.508,2.506-2.51l0,0H454.3
		c1.386,0,2.507,1.123,2.507,2.51l0,0v9.293c0,1.383-1.124,2.507-2.507,2.507l0,0H425.667L425.667,277.547z M425.16,265.747v9.293
		c0,0.279,0.228,0.505,0.507,0.505l0,0H454.3c0.281,0,0.508-0.226,0.508-0.505l0,0v-9.293c0-0.282-0.229-0.509-0.508-0.511l0,0
		h-28.633C425.391,265.238,425.16,265.467,425.16,265.747L425.16,265.747z"/>
</g>
<g>
	<path fill="#F4F4F4" d="M142.202,301.858c-0.758,0-1.377-0.611-1.377-1.376l0,0v-17.394c0.002-0.767,0.622-1.376,1.377-1.376l0,0
		h18.335c0.758,0.002,1.376,0.614,1.376,1.376l0,0v17.394c0,0.762-0.618,1.376-1.376,1.378l0,0L142.202,301.858L142.202,301.858z
		 M159.913,299.86v-16.147h-17.089v16.146L159.913,299.86L159.913,299.86z"/>
	<path fill="#F4F4F4" d="M146.472,297.589c-1.387,0-2.508-1.122-2.508-2.506l0,0v-9.293c0-1.386,1.121-2.508,2.508-2.508l0,0h9.794
		c1.385,0,2.506,1.122,2.508,2.508l0,0v9.293c0,1.384-1.123,2.506-2.508,2.508l0,0L146.472,297.589L146.472,297.589z
		 M145.963,285.79v9.293c0.002,0.28,0.228,0.507,0.509,0.507l0,0h9.794c0.28,0,0.507-0.227,0.507-0.507l0,0v-9.293
		c0-0.28-0.227-0.507-0.507-0.507l0,0l-9.794-0.003C146.191,285.283,145.965,285.51,145.963,285.79L145.963,285.79z"/>
</g>
<g>
	<path fill="#F4F4F4" d="M211.335,321.902c-0.762,0-1.375-0.617-1.377-1.375l0,0v-17.394c0.002-0.76,0.615-1.377,1.377-1.379l0,0
		l159.243,0.002c0.762,0,1.375,0.617,1.377,1.377l0,0v17.394c-0.002,0.758-0.615,1.375-1.377,1.377l0,0L211.335,321.902
		L211.335,321.902z M369.955,319.903v-16.146l-157.996-0.002v16.148H369.955L369.955,319.903z"/>
	<path fill="#F4F4F4" d="M215.605,317.633c-1.385,0-2.506-1.121-2.506-2.508l0,0v-9.292c0-1.385,1.121-2.506,2.506-2.508l0,0
		l150.703,0.002c1.384,0,2.505,1.121,2.505,2.506l0,0v9.292c0,1.387-1.121,2.508-2.505,2.508l0,0H215.605L215.605,317.633z
		 M215.099,305.833v9.292c0,0.28,0.228,0.509,0.506,0.509l0,0h150.703c0.277,0,0.506-0.229,0.508-0.509l0,0v-9.292
		c-0.002-0.278-0.23-0.507-0.508-0.507l0,0H215.605C215.327,305.326,215.099,305.555,215.099,305.833L215.099,305.833z"/>
</g>
<g>
	<path fill="#F4F4F4" d="M162.152,301.859c-0.76-0.002-1.377-0.618-1.377-1.376l0,0V283.09c0-0.76,0.62-1.376,1.377-1.376l0,0
		h28.128c0.756,0,1.378,0.611,1.378,1.376l0,0v17.394c0,0.762-0.62,1.374-1.378,1.376l0,0H162.152L162.152,301.859z
		 M189.658,299.859v-16.147h-26.884v16.147H189.658L189.658,299.859z"/>
	<path fill="#F4F4F4" d="M166.419,297.589c-1.383,0-2.506-1.12-2.506-2.506l0,0v-9.293c0-1.388,1.123-2.508,2.506-2.508l0,0h19.593
		c1.385,0,2.506,1.122,2.506,2.508l0,0v9.293c0,1.384-1.121,2.506-2.506,2.508l0,0L166.419,297.589L166.419,297.589z
		 M165.913,285.79v9.293c0,0.28,0.228,0.507,0.507,0.507l0,0h19.593c0.279,0,0.507-0.227,0.507-0.507l0,0v-9.293
		c0-0.28-0.228-0.507-0.507-0.507l0,0l-19.593-0.003C166.14,285.283,165.913,285.51,165.913,285.79L165.913,285.79z"/>
</g>
<g>
	<path fill="#F4F4F4" d="M191.896,301.859c-0.758-0.002-1.375-0.618-1.377-1.376l0,0V283.09c0.002-0.76,0.62-1.376,1.377-1.376l0,0
		h18.335c0.76,0.002,1.374,0.609,1.376,1.376l0,0v17.394c-0.002,0.762-0.616,1.374-1.376,1.376l0,0H191.896L191.896,301.859z
		 M209.607,299.859v-16.147h-17.089v16.147H209.607L209.607,299.859z"/>
	<path fill="#F4F4F4" d="M196.165,297.589c-1.383,0-2.506-1.12-2.508-2.506l0,0v-9.293c0.002-1.388,1.125-2.508,2.508-2.508l0,0
		h9.796c1.385,0,2.506,1.122,2.506,2.508l0,0v9.293c0,1.384-1.121,2.506-2.506,2.508l0,0L196.165,297.589L196.165,297.589z
		 M195.658,285.79v9.293c0,0.28,0.228,0.507,0.507,0.507l0,0h9.796c0.28,0,0.507-0.227,0.507-0.507l0,0v-9.293
		c0-0.28-0.227-0.507-0.507-0.507l0,0l-9.796-0.003C195.886,285.283,195.658,285.51,195.658,285.79L195.658,285.79z"/>
</g>
<g>
	<path fill="#F4F4F4" d="M211.846,301.858c-0.76,0-1.377-0.614-1.377-1.376l0,0v-17.394c0-0.762,0.62-1.374,1.377-1.376l0,0h18.333
		c0.758,0.002,1.375,0.614,1.378,1.376l0,0v17.394c-0.002,0.762-0.62,1.376-1.378,1.378l0,0L211.846,301.858L211.846,301.858z
		 M229.558,299.86v-16.147h-17.089v16.146L229.558,299.86L229.558,299.86z"/>
	<path fill="#F4F4F4" d="M216.115,297.589c-1.386,0-2.506-1.122-2.506-2.506l0,0v-9.293c0-1.386,1.121-2.508,2.506-2.508l0,0h9.796
		c1.386,0,2.506,1.122,2.506,2.508l0,0v9.293c0,1.384-1.12,2.506-2.506,2.508l0,0L216.115,297.589L216.115,297.589z M215.607,285.79
		v9.293c0.002,0.28,0.228,0.507,0.507,0.507l0,0h9.796c0.28,0,0.505-0.227,0.507-0.507l0,0v-9.293
		c-0.002-0.28-0.228-0.507-0.507-0.507l0,0l-9.796-0.003C215.835,285.283,215.609,285.51,215.607,285.79L215.607,285.79z"/>
</g>
<g>
	<path fill="#F4F4F4" d="M231.794,301.859c-0.76-0.002-1.376-0.62-1.378-1.376l0,0l0.002-17.394c0-0.76,0.616-1.376,1.376-1.376l0,0
		h18.335c0.758,0,1.375,0.611,1.375,1.376l0,0v17.394c0,0.76-0.618,1.374-1.375,1.376l0,0H231.794L231.794,301.859z
		 M249.506,299.859v-16.147h-17.087l-0.002,16.147H249.506L249.506,299.859z"/>
	<path fill="#F4F4F4" d="M236.064,297.589c-1.386,0-2.506-1.122-2.506-2.506l0,0v-9.293c0-1.386,1.12-2.508,2.506-2.508l0,0h9.796
		c1.386,0,2.506,1.122,2.506,2.508l0,0v9.293c0,1.384-1.121,2.506-2.506,2.508l0,0L236.064,297.589L236.064,297.589z
		 M235.557,285.79v9.293c0.002,0.28,0.228,0.507,0.507,0.507l0,0h9.796c0.278,0,0.505-0.227,0.505-0.507l0,0v-9.293
		c0-0.28-0.228-0.507-0.505-0.507l0,0l-9.796-0.003C235.784,285.283,235.559,285.51,235.557,285.79L235.557,285.79z"/>
</g>
<g>
	<path fill="#F4F4F4" d="M251.744,301.859c-0.76,0-1.376-0.616-1.378-1.376l0,0l0.002-17.394c0-0.765,0.616-1.376,1.376-1.376l0,0
		h18.335c0.755,0,1.375,0.607,1.377,1.376l0,0v17.394c-0.002,0.765-0.622,1.374-1.377,1.376l0,0H251.744L251.744,301.859z
		 M269.457,299.859v-16.147h-17.089l-0.002,16.147H269.457L269.457,299.859z"/>
	<path fill="#F4F4F4" d="M256.015,297.589c-1.388,0-2.508-1.122-2.508-2.506l0,0v-9.293c0-1.386,1.12-2.508,2.508-2.508l0,0h9.794
		c1.385,0,2.506,1.122,2.506,2.508l0,0v9.293c0,1.384-1.121,2.506-2.506,2.508l0,0L256.015,297.589L256.015,297.589z
		 M255.506,285.79v9.293c0,0.28,0.227,0.507,0.509,0.507l0,0h9.794c0.279,0,0.505-0.227,0.507-0.507l0,0v-9.293
		c-0.002-0.28-0.228-0.507-0.507-0.507l0,0l-9.794-0.003C255.733,285.283,255.506,285.51,255.506,285.79L255.506,285.79z"/>
</g>
<g>
	<path fill="#F4F4F4" d="M271.694,301.858c-0.76,0-1.376-0.618-1.378-1.376l0,0v-17.394c0.002-0.76,0.62-1.374,1.378-1.376l0,0
		h18.335c0.755,0.002,1.374,0.616,1.375,1.376l0,0v17.394c-0.002,0.758-0.618,1.376-1.375,1.378l0,0L271.694,301.858
		L271.694,301.858z M289.405,299.86v-16.147h-17.089v16.146L289.405,299.86L289.405,299.86z"/>
	<path fill="#F4F4F4" d="M275.962,297.589c-1.385,0-2.506-1.122-2.506-2.506l0,0v-9.293c0-1.386,1.121-2.508,2.506-2.508l0,0h9.796
		c1.385,0,2.506,1.122,2.506,2.508l0,0v9.293c0,1.384-1.121,2.506-2.506,2.508l0,0L275.962,297.589L275.962,297.589z
		 M275.456,285.79v9.293c0,0.28,0.227,0.507,0.507,0.507l0,0h9.796c0.279,0,0.505-0.227,0.507-0.507l0,0v-9.293
		c-0.002-0.28-0.228-0.507-0.507-0.507l0,0l-9.796-0.003C275.683,285.283,275.456,285.51,275.456,285.79L275.456,285.79z"/>
</g>
<g>
	<path fill="#F4F4F4" d="M291.642,301.859c-0.76-0.002-1.374-0.62-1.375-1.376l0,0V283.09c0.002-0.76,0.618-1.376,1.375-1.376l0,0
		h18.338c0.757,0,1.373,0.616,1.375,1.376l0,0v17.394h-0.002c0,0.756-0.616,1.374-1.373,1.376l0,0H291.642L291.642,301.859z
		 M309.353,299.859l0.002-16.147h-17.088v16.147H309.353L309.353,299.859z"/>
	<path fill="#F4F4F4" d="M295.914,297.589c-1.386,0-2.508-1.12-2.508-2.506l0,0v-9.293c0-1.388,1.123-2.508,2.508-2.508l0,0h9.794
		c1.383,0,2.506,1.12,2.506,2.508l0,0v9.293c0,1.386-1.123,2.506-2.506,2.508l0,0L295.914,297.589L295.914,297.589z M295.405,285.79
		v9.293c0,0.28,0.228,0.507,0.509,0.507l0,0h9.794c0.279,0,0.507-0.227,0.507-0.507l0,0v-9.293c0-0.28-0.228-0.507-0.507-0.507l0,0
		l-9.794-0.003C295.632,285.283,295.405,285.51,295.405,285.79L295.405,285.79z"/>
</g>
<g>
	<path fill="#F4F4F4" d="M311.592,301.858c-0.758,0-1.378-0.614-1.38-1.376l0,0l0.002-17.394c0-0.762,0.62-1.374,1.378-1.376l0,0
		h18.335c0.756,0,1.374,0.609,1.378,1.376l0,0v17.394h-0.002c0,0.765-0.62,1.376-1.376,1.378l0,0L311.592,301.858L311.592,301.858z
		 M329.303,299.86l0.002-16.147h-17.091l-0.002,16.146L329.303,299.86L329.303,299.86z"/>
	<path fill="#F4F4F4" d="M315.86,297.589c-1.383,0-2.506-1.12-2.506-2.506l0,0v-9.293c0-1.388,1.123-2.508,2.506-2.508l0,0h9.797
		c1.386,0,2.506,1.122,2.506,2.508l0,0v9.293c0,1.384-1.12,2.506-2.506,2.508l0,0L315.86,297.589L315.86,297.589z M315.354,285.79
		v9.293c0,0.28,0.228,0.507,0.507,0.507l0,0h9.797c0.279,0,0.507-0.227,0.507-0.507l0,0v-9.293c0-0.28-0.228-0.507-0.507-0.507l0,0
		l-9.797-0.003C315.581,285.283,315.354,285.51,315.354,285.79L315.354,285.79z"/>
</g>
<g>
	<path fill="#F4F4F4" d="M331.541,301.858c-0.76,0-1.376-0.614-1.378-1.376l0,0v-17.394c0-0.762,0.62-1.374,1.378-1.376l0,0h18.335
		c0.756,0.002,1.374,0.616,1.376,1.376l0,0v17.394c-0.002,0.758-0.618,1.376-1.376,1.378l0,0L331.541,301.858L331.541,301.858z
		 M349.252,299.86v-16.147h-17.089v16.146L349.252,299.86L349.252,299.86z"/>
	<path fill="#F4F4F4" d="M335.811,297.589c-1.386,0-2.506-1.12-2.506-2.506l0,0v-9.293c0-1.388,1.12-2.506,2.506-2.508l0,0h9.796
		c1.384,0,2.506,1.122,2.506,2.508l0,0v9.293c0,1.384-1.122,2.506-2.506,2.508l0,0L335.811,297.589L335.811,297.589z
		 M335.303,285.79v9.293c0,0.28,0.229,0.507,0.508,0.507l0,0h9.796c0.279,0,0.505-0.227,0.507-0.507l0,0v-9.293
		c-0.002-0.28-0.228-0.507-0.507-0.507l0,0l-9.796-0.003C335.532,285.283,335.303,285.51,335.303,285.79L335.303,285.79z"/>
</g>
<g>
	<path fill="#F4F4F4" d="M351.489,301.859c-0.761-0.002-1.374-0.62-1.376-1.376l0,0V283.09c0.002-0.76,0.615-1.376,1.376-1.376l0,0
		h18.337c0.756,0,1.374,0.616,1.376,1.376l0,0v17.394c-0.002,0.758-0.618,1.374-1.376,1.376l0,0H351.489L351.489,301.859z
		 M369.202,299.859v-16.147h-17.089v16.147H369.202L369.202,299.859z"/>
	<path fill="#F4F4F4" d="M355.759,297.59c-1.386,0-2.502-1.124-2.504-2.508l0,0v-9.293c0-1.384,1.118-2.506,2.504-2.506l0,0h9.798
		c1.384,0,2.504,1.12,2.506,2.506l0,0v9.293c-0.002,1.386-1.122,2.506-2.506,2.508l0,0H355.759L355.759,297.59z M355.254,285.789
		v9.293c0,0.282,0.227,0.507,0.505,0.509l0,0h9.798c0.277-0.002,0.505-0.229,0.507-0.509l0,0v-9.293
		c-0.002-0.277-0.229-0.507-0.507-0.507l0,0h-9.798C355.48,285.282,355.254,285.509,355.254,285.789L355.254,285.789z"/>
</g>
<g>
	<path fill="#F4F4F4" d="M371.346,301.859c-0.76-0.002-1.377-0.616-1.377-1.376l0,0V283.09c0-0.765,0.619-1.376,1.377-1.376l0,0
		h18.336c0.758,0,1.373,0.616,1.376,1.376l0,0v17.394h-0.003c0,0.756-0.615,1.374-1.373,1.376l0,0H371.346L371.346,301.859z
		 M389.056,299.859l0.002-16.147h-17.09v16.147H389.056L389.056,299.859z"/>
	<path fill="#F4F4F4" d="M375.615,297.589c-1.386,0-2.506-1.122-2.506-2.506l0,0v-9.293c0-1.386,1.12-2.508,2.506-2.508l0,0h9.796
		c1.384,0,2.506,1.122,2.506,2.508l0,0v9.293c0,1.384-1.122,2.506-2.506,2.508l0,0L375.615,297.589L375.615,297.589z
		 M375.107,285.79v9.293c0,0.28,0.228,0.507,0.508,0.507l0,0h9.796c0.277,0,0.505-0.227,0.507-0.507l0,0v-9.293
		c-0.002-0.28-0.229-0.507-0.507-0.507l0,0l-9.796-0.003C375.335,285.283,375.107,285.51,375.107,285.79L375.107,285.79z"/>
</g>
<g>
	<path fill="#F4F4F4" d="M391.295,301.859c-0.76-0.002-1.378-0.618-1.378-1.376l0,0V283.09c0-0.76,0.62-1.376,1.378-1.376l0,0
		h27.377c0.76,0,1.374,0.616,1.376,1.376l0,0v17.394c-0.002,0.756-0.616,1.374-1.376,1.376l0,0H391.295L391.295,301.859z
		 M418.048,299.859v-16.147h-26.131v16.147H418.048L418.048,299.859z"/>
	<path fill="#F4F4F4" d="M395.564,297.589c-1.384,0-2.508-1.12-2.508-2.506l0,0v-9.293c0.002-1.388,1.124-2.508,2.508-2.508l0,0
		h18.839c1.384,0.002,2.504,1.12,2.506,2.508l0,0v9.293c-0.002,1.386-1.122,2.506-2.506,2.508l0,0L395.564,297.589L395.564,297.589z
		 M395.058,285.79v9.293c0,0.28,0.227,0.507,0.507,0.507l0,0h18.839c0.277,0,0.505-0.227,0.507-0.507l0,0v-9.293
		c-0.002-0.28-0.229-0.507-0.507-0.507l0,0l-18.839-0.003C395.284,285.283,395.058,285.51,395.058,285.79L395.058,285.79z"/>
</g>
<g>
	<path fill="#F4F4F4" d="M420.286,301.858c-0.759,0-1.376-0.614-1.378-1.376l0,0v-17.392c0-0.766,0.619-1.376,1.378-1.376l0,0
		h18.335c0.757,0,1.374,0.608,1.378,1.376l0,0v17.392h-0.002c0,0.766-0.617,1.376-1.376,1.376l0,0H420.286L420.286,301.858z
		 M437.998,299.859v-16.147h-17.089l-0.002,16.147H437.998L437.998,299.859z"/>
	<path fill="#F4F4F4" d="M424.556,297.59c-1.386,0-2.506-1.123-2.506-2.507l0,0v-9.294c0-1.386,1.12-2.506,2.506-2.508l0,0
		l9.796,0.002c1.384,0,2.506,1.122,2.506,2.506l0,0v9.294c0,1.384-1.122,2.507-2.506,2.507l0,0H424.556L424.556,297.59z
		 M424.048,285.789v9.294c0.002,0.28,0.229,0.506,0.508,0.506l0,0l9.796,0.002c0.28-0.002,0.506-0.228,0.506-0.508l0,0v-9.294
		c0-0.28-0.226-0.506-0.506-0.506l0,0l-9.796-0.002C424.276,285.283,424.05,285.512,424.048,285.789L424.048,285.789z"/>
</g>
<g>
	<path fill="#F4F4F4" d="M440.234,301.858c-0.759,0-1.375-0.614-1.377-1.375l0,0v-17.395c0-0.763,0.62-1.375,1.377-1.377l0,0
		l18.335,0.002c0.757,0,1.375,0.608,1.38,1.375l0,0v17.395h-0.003c0,0.765-0.62,1.375-1.377,1.377l0,0L440.234,301.858
		L440.234,301.858z M457.947,299.86v-16.146l-17.091-0.002v16.146L457.947,299.86L457.947,299.86z"/>
	<path fill="#F4F4F4" d="M444.506,297.589c-1.385,0-2.508-1.121-2.508-2.506l0,0v-9.293c0-1.388,1.123-2.507,2.508-2.509l0,0
		l9.794,0.002c1.386,0,2.507,1.121,2.507,2.507l0,0v9.293c0,1.385-1.121,2.506-2.507,2.508l0,0L444.506,297.589L444.506,297.589z
		 M443.997,285.79v9.293c0,0.278,0.229,0.507,0.509,0.507l0,0h9.794c0.281,0,0.508-0.227,0.508-0.507l0,0v-9.293
		c0-0.279-0.227-0.508-0.508-0.508l0,0h-9.794C444.226,285.282,443.997,285.511,443.997,285.79L443.997,285.79z"/>
</g>
<path fill="#F4F4F4" d="M109.052,191.111l-0.002-15.072c0.002-1.453,1.178-2.631,2.633-2.631l0,0c1.455,0,2.633,1.177,2.633,2.631
	l0,0v15.072c0,1.455-1.179,2.631-2.633,2.633l0,0C110.229,193.742,109.052,192.566,109.052,191.111L109.052,191.111z
	 M111.051,176.039v15.072c0.002,0.348,0.285,0.631,0.633,0.631l0,0c0.35,0,0.632-0.283,0.634-0.631l0,0l-0.002-15.072
	c0-0.347-0.282-0.63-0.632-0.63l0,0C111.335,175.409,111.053,175.69,111.051,176.039L111.051,176.039z"/>
<path fill="#F4F4F4" d="M115.771,191.11v-15.07c0-1.455,1.179-2.631,2.633-2.631l0,0c1.453,0,2.631,1.176,2.631,2.631l0,0v15.07
	c0,1.454-1.178,2.633-2.631,2.633l0,0C116.949,193.743,115.771,192.564,115.771,191.11L115.771,191.11z M117.769,176.04v15.07
	c0.002,0.351,0.284,0.633,0.635,0.633l0,0c0.348,0,0.63-0.282,0.632-0.633l0,0l-0.002-15.07c0-0.349-0.282-0.632-0.63-0.632l0,0
	C118.053,175.408,117.771,175.691,117.769,176.04L117.769,176.04z"/>
<path fill="#F4F4F4" d="M122.488,191.111v-15.072c0-1.453,1.179-2.631,2.633-2.631l0,0c1.455,0,2.631,1.179,2.633,2.631l0,0v15.072
	c0,1.455-1.181,2.631-2.633,2.633l0,0C123.667,193.742,122.488,192.566,122.488,191.111L122.488,191.111z M124.489,176.039v15.072
	c0,0.348,0.282,0.631,0.632,0.631l0,0c0.351,0,0.633-0.283,0.633-0.631l0,0v-15.072c0-0.349-0.284-0.63-0.633-0.63l0,0
	C124.771,175.409,124.489,175.69,124.489,176.039L124.489,176.039z"/>
<path fill="#F4F4F4" d="M129.208,191.111v-15.072c0-1.453,1.179-2.631,2.633-2.631l0,0c1.455,0,2.631,1.179,2.631,2.631l0,0v15.072
	c0,1.455-1.179,2.631-2.631,2.633l0,0C130.386,193.742,129.208,192.566,129.208,191.111L129.208,191.111z M131.207,176.039v15.072
	c0.002,0.348,0.284,0.631,0.634,0.631l0,0c0.348,0,0.631-0.283,0.633-0.631l0,0v-15.072c-0.002-0.349-0.285-0.63-0.633-0.63l0,0
	C131.491,175.409,131.208,175.69,131.207,176.039L131.207,176.039z"/>
<path fill="#F4F4F4" d="M135.928,191.11l-0.002-15.07c0.002-1.455,1.179-2.631,2.633-2.631l0,0c1.455,0,2.631,1.176,2.633,2.631l0,0
	v15.07c-0.002,1.454-1.179,2.633-2.633,2.633l0,0C137.104,193.743,135.928,192.564,135.928,191.11L135.928,191.11z M137.927,176.04
	v15.07c0,0.351,0.284,0.633,0.632,0.633l0,0c0.348,0,0.633-0.282,0.633-0.633l0,0v-15.07c0-0.349-0.285-0.632-0.633-0.632l0,0
	C138.211,175.408,137.927,175.691,137.927,176.04L137.927,176.04z"/>
<path fill="#F4F4F4" d="M142.645,191.11v-15.07c0-1.455,1.179-2.631,2.633-2.631l0,0c1.455,0,2.631,1.176,2.631,2.631l0,0v15.07
	c0,1.454-1.177,2.633-2.631,2.633l0,0C143.824,193.743,142.645,192.564,142.645,191.11L142.645,191.11z M144.646,176.04v15.07
	c0,0.351,0.282,0.633,0.632,0.633l0,0c0.35,0,0.633-0.282,0.633-0.633l0,0v-15.07c0-0.349-0.283-0.632-0.633-0.632l0,0
	C144.928,175.408,144.646,175.691,144.646,176.04L144.646,176.04z"/>
<path fill="#F4F4F4" d="M149.364,191.11v-15.07c0-1.455,1.179-2.631,2.633-2.631l0,0c1.453,0,2.631,1.176,2.631,2.631l0,0v15.07
	c0,1.454-1.179,2.633-2.631,2.633l0,0C150.543,193.743,149.364,192.564,149.364,191.11L149.364,191.11z M151.363,176.04v15.07
	c0.002,0.351,0.285,0.633,0.635,0.633l0,0c0.348,0,0.63-0.282,0.632-0.633l0,0v-15.07c-0.002-0.349-0.284-0.632-0.632-0.632l0,0
	C151.647,175.408,151.365,175.691,151.363,176.04L151.363,176.04z"/>
<path fill="#F4F4F4" d="M99.757,330.882V167.88h383.028v162.001v1H99.757L99.757,330.882z M481.785,329.882v-1.001V329.882
	L481.785,329.882z M101.756,328.881h379.028v-159H101.756V328.881L101.756,328.881z"/>
<path fill="#F4F4F4" d="M100.322,200.055v-31.388h6.522v30.388v1H100.322L100.322,200.055z M105.845,199.055v-1.002V199.055
	L105.845,199.055z M102.323,170.669v27.384h2.522v-27.386L102.323,170.669L102.323,170.669z"/>
<path fill="#F4F4F4" d="M475.478,200.147v-31.386h6.521v30.386v1H475.478L475.478,200.147z M481,199.147v-1V199.147L481,199.147z
	 M477.479,198.147h2.519v-27.385h-2.519V198.147L477.479,198.147z"/>
<polygon fill="#F4F4F4" points="100.664,201.089 100.664,199.091 481.472,199.091 481.472,201.089 100.664,201.089 "/>
<path fill="#F4F4F4" d="M150.622,321.549c0-2.297,1.859-4.156,4.154-4.158l0,0c2.294,0.002,4.156,1.861,4.156,4.158l0,0
	c0,2.294-1.861,4.153-4.156,4.153l0,0C152.479,325.702,150.622,323.843,150.622,321.549L150.622,321.549z M152.621,321.549
	c0.002,1.187,0.965,2.149,2.154,2.152l0,0c1.189-0.003,2.154-0.966,2.156-2.152l0,0c-0.002-1.193-0.967-2.154-2.156-2.159l0,0
	C153.584,319.395,152.623,320.355,152.621,321.549L152.621,321.549z"/>
<path fill="#F4F4F4" d="M171.248,321.549c0-2.297,1.859-4.156,4.154-4.158l0,0c2.297,0.002,4.156,1.861,4.156,4.158l0,0h0.002
	c-0.002,2.294-1.861,4.153-4.158,4.153l0,0C173.107,325.702,171.248,323.843,171.248,321.549L171.248,321.549z M173.247,321.549
	c0.002,1.187,0.965,2.149,2.154,2.152l0,0c1.191-0.003,2.154-0.966,2.156-2.152l0,0c-0.002-1.193-0.965-2.154-2.156-2.159l0,0
	C174.212,319.395,173.249,320.355,173.247,321.549L173.247,321.549z"/>
<path fill="#F4F4F4" d="M191.876,321.549c0-2.297,1.859-4.156,4.154-4.156l0,0c2.294,0,4.156,1.857,4.156,4.156l0,0
	c0,2.294-1.861,4.151-4.156,4.153l0,0C193.735,325.702,191.876,323.843,191.876,321.549L191.876,321.549z M193.875,321.549
	c0.002,1.187,0.965,2.149,2.154,2.154l0,0c1.189-0.005,2.154-0.968,2.156-2.154l0,0c-0.002-1.191-0.967-2.154-2.156-2.159l0,0
	C194.84,319.395,193.877,320.355,193.875,321.549L193.875,321.549z"/>
<path fill="#F4F4F4" d="M76.941,338.385V155.808L88.245,14.897c0.031-3.438,2.829-6.214,6.276-6.216l0,0h393.501
	c3.455,0.002,6.256,2.793,6.272,6.245l0,0l11.301,140.933l-0.997,0.08l0.997-0.08l0.004,0.051l-0.002,182.476
	c0,3.467-2.81,6.274-6.271,6.274l0,0l-416.108,0.002C79.751,344.659,76.944,341.852,76.941,338.385L76.941,338.385z M90.245,14.956
	v0.038L78.942,155.877v182.507c0.004,2.362,1.916,4.27,4.276,4.276l0,0l416.108-0.002c2.358-0.005,4.268-1.912,4.271-4.274l0,0
	V155.966L492.295,14.987v-0.032c-0.005-2.36-1.914-4.27-4.272-4.274l0,0H94.521C92.159,10.686,90.249,12.597,90.245,14.956
	L90.245,14.956z"/>
</svg>
