<?xml version="1.0" encoding="utf-8"?>
<!-- Generator: Adobe Illustrator 13.0.0, SVG Export Plug-In . SVG Version: 6.00 Build 14948)  -->
<!DOCTYPE svg [
	<!ENTITY ns_flows "http://ns.adobe.com/Flows/1.0/">
	<!ENTITY ns_extend "http://ns.adobe.com/Extensibility/1.0/">
	<!ENTITY ns_ai "http://ns.adobe.com/AdobeIllustrator/10.0/">
	<!ENTITY ns_graphs "http://ns.adobe.com/Graphs/1.0/">
	<!ENTITY ns_vars "http://ns.adobe.com/Variables/1.0/">
	<!ENTITY ns_imrep "http://ns.adobe.com/ImageReplacement/1.0/">
	<!ENTITY ns_sfw "http://ns.adobe.com/SaveForWeb/1.0/">
	<!ENTITY ns_custom "http://ns.adobe.com/GenericCustomNamespace/1.0/">
	<!ENTITY ns_adobe_xpath "http://ns.adobe.com/XPath/1.0/">
]>
<svg version="1.2" baseProfile="tiny"
	 id="Layer_3" xmlns:x="&ns_extend;" xmlns:i="&ns_ai;" xmlns:graph="&ns_graphs;" xmlns:rdf="http://www.w3.org/1999/02/22-rdf-syntax-ns#" xmlns:dc="http://purl.org/dc/elements/1.1/" xmlns:cc="http://creativecommons.org/ns#"
	 xmlns="http://www.w3.org/2000/svg" xmlns:xlink="http://www.w3.org/1999/xlink" xmlns:a="http://ns.adobe.com/AdobeSVGViewerExtensions/3.0/"
	 x="0px" y="0px" width="598.189px" height="350.26px" viewBox="0 0 598.189 350.26" xml:space="preserve">
<metadata  id="metadata55">
	<rdf:RDF>
		<cc:Work  rdf:about="">
			<dc:format>image/svg+xml</dc:format>
			<dc:type  rdf:resource="http://purl.org/dc/dcmitype/StillImage"></dc:type>
			<dc:title></dc:title>
		</cc:Work>
	</rdf:RDF>
	<sfw  xmlns="&ns_sfw;">
		<slices></slices>
		<sliceSourceBounds  x="698.288" y="403.434" width="519.465" height="255.457" bottomLeftOrigin="true"></sliceSourceBounds>
	</sfw>
</metadata>
<path fill="#F4F4F4" d="M74.188,73.341"/>
<path id="path5" fill="#F4F4F4" d="M211.423,83.913c-0.312,0.022-0.585,0.214-0.71,0.5c-0.508,1.122-1.285,2.126-2.263,2.894
	c-0.365,0.289-0.426,0.818-0.137,1.183c0.289,0.364,0.818,0.426,1.183,0.137c0.002-0.001,0.005-0.003,0.006-0.005
	c1.185-0.928,2.138-2.119,2.762-3.499c0.206-0.417,0.035-0.921-0.382-1.127C211.739,83.925,211.581,83.896,211.423,83.913
	L211.423,83.913z"/>
<path id="path7" fill="#F4F4F4" d="M74.186,74.389c-3.877,0-7.049,3.146-7.049,7.023s3.172,7.05,7.049,7.05h129.955
	c3.878,0,7.05-3.172,7.05-7.05s-3.171-7.023-7.05-7.023H74.186z M74.186,76.073h129.955c2.968,0,5.367,2.372,5.367,5.34
	s-2.398,5.367-5.367,5.367H74.186c-2.968,0-5.367-2.399-5.367-5.367C68.819,78.444,71.218,76.073,74.186,76.073z"/>
<path id="polyline9" fill="#F4F4F4" d="M211.347,83.965c-0.465,0.041-0.809,0.451-0.768,0.917c0.042,0.466,0.452,0.809,0.917,0.768
	c0.003,0,0.006,0,0.009-0.001h48.244h73.498h138.575c0.464,0.006,0.847-0.365,0.854-0.83c0.006-0.464-0.366-0.847-0.831-0.854
	c-0.007,0-0.015,0-0.022,0H333.247h-73.498h-48.244C211.453,83.96,211.399,83.96,211.347,83.965L211.347,83.965z"/>
<path id="polyline11" fill="#F4F4F4" d="M212.004,82.176c-0.465,0.021-0.826,0.415-0.805,0.879s0.414,0.825,0.88,0.804
	c0.001,0,0.002,0,0.003,0h47.666h73.498h138.003c0.464,0.007,0.846-0.365,0.854-0.83c0.006-0.464-0.366-0.847-0.83-0.854
	c-0.009,0-0.016,0-0.023,0H333.246h-73.498h-47.666C212.056,82.174,212.03,82.174,212.004,82.176z"/>
<path id="polygon13" fill="#F4F4F4" d="M37.542,91.121c-0.393,0.088-0.667,0.44-0.658,0.841v1.763c0,0.465,0.376,0.842,0.842,0.842
	h222.021h145.232h150.31c0.465,0,0.842-0.377,0.842-0.842v-1.763c0-0.465-0.377-0.841-0.842-0.841h-150.31H259.747H37.726
	C37.665,91.114,37.603,91.114,37.542,91.121L37.542,91.121z M38.568,92.805h221.179h145.232h149.468v0.079H404.979H259.747H38.568
	V92.805z"/>
<path fill="#F4F4F4" d="M500.223,73.341"/>
<path id="polyline17" fill="#F4F4F4" d="M74.107,88.989c-0.465,0.021-0.825,0.415-0.804,0.88c0.021,0.465,0.415,0.825,0.879,0.804
	c0.001,0,0.002,0,0.003,0H204.14c0.009,0,0.018,0,0.026,0h0.5h0.026h55.058h73.498h145.394h0.026h0.499c0.009,0,0.019,0,0.026,0
	h21.045c0.464,0.006,0.848-0.365,0.854-0.83c0.007-0.465-0.364-0.847-0.829-0.854c-0.01,0-0.017,0-0.024,0h-21.02h-0.026h-0.499
	c-0.008,0-0.018,0-0.026,0H333.249h-73.498h-55.084h-0.526h-0.026H74.193c-0.026-0.001-0.053-0.001-0.079,0H74.107z"/>
<path id="polyline19" fill="#F4F4F4" d="M208.821,87.174c-0.465,0.042-0.809,0.451-0.768,0.917c0.041,0.465,0.451,0.808,0.917,0.768
	c0.003,0,0.006,0,0.009-0.001h50.77h73.498h141.1c0.465,0.007,0.847-0.365,0.854-0.83c0.006-0.465-0.365-0.847-0.829-0.854
	c-0.009,0-0.017,0-0.024,0h-141.1h-73.498h-50.77C208.927,87.169,208.875,87.169,208.821,87.174z"/>
<path id="path21" fill="#F4F4F4" d="M471.796,83.913c-0.466,0.011-0.834,0.397-0.822,0.862c0.003,0.121,0.031,0.24,0.085,0.348
	c0.624,1.378,1.577,2.57,2.763,3.499c0.361,0.292,0.893,0.236,1.184-0.125c0.292-0.362,0.236-0.893-0.126-1.185
	c-0.002-0.002-0.004-0.003-0.006-0.005c-0.978-0.767-1.754-1.771-2.263-2.894c-0.14-0.317-0.462-0.516-0.809-0.5L471.796,83.913z"/>
<path id="path23" fill="#F4F4F4" d="M212.004,79.151l-0.079,0.026c-0.447,0.093-0.738,0.524-0.657,0.973
	c0.072,0.412,0.104,0.828,0.104,1.263c0,0.493-0.039,0.982-0.131,1.447c-0.129,0.447,0.128,0.916,0.576,1.045
	c0.447,0.13,0.915-0.128,1.045-0.575c0.014-0.05,0.024-0.102,0.03-0.153c0.114-0.572,0.157-1.158,0.157-1.763
	c0-0.199-0.04-0.382-0.053-0.579h46.746h73.498h137.075c-0.012,0.196-0.052,0.379-0.052,0.579c0,0.605,0.068,1.216,0.184,1.789
	c0.03,0.464,0.431,0.816,0.894,0.787c0.464-0.03,0.816-0.43,0.787-0.894c-0.005-0.081-0.021-0.16-0.05-0.236
	c-0.092-0.464-0.135-0.954-0.135-1.447c0-0.434,0.033-0.849,0.105-1.262c0.08-0.451-0.216-0.884-0.665-0.973l-0.075-0.026
	c-0.063-0.007-0.123-0.007-0.186,0H333.23h-73.498h-47.561c-0.062-0.007-0.123-0.007-0.184,0H212.004z"/>
<path id="path25" fill="#F4F4F4" d="M209.184,74.312c-0.464-0.022-0.859,0.336-0.881,0.8c-0.016,0.342,0.176,0.66,0.487,0.804
	c0.009,0,0.018,0,0.026,0c0.849,0.721,1.53,1.619,1.973,2.657c0.171,0.41,0.632,0.618,1.053,0.473h47.902h73.498h138.263
	c0.412,0.129,0.856-0.075,1.026-0.473c0.445-1.044,1.145-1.935,1.999-2.657c0.422-0.196,0.604-0.696,0.409-1.118
	c-0.145-0.311-0.462-0.503-0.805-0.486H333.236h-73.497h-50.56H209.184z M211.183,75.995h48.561h73.499h138.894
	c-0.326,0.424-0.596,0.888-0.842,1.368H333.242h-73.499h-47.719C211.777,76.883,211.51,76.419,211.183,75.995L211.183,75.995z"/>
<path id="path27" fill="#F4F4F4" d="M37.62,72.549c-0.423,0.053-0.739,0.415-0.736,0.841v1.763c0,0.465,0.376,0.842,0.842,0.842
	h29.383c-0.321,0.419-0.571,0.895-0.815,1.368H37.726c-0.465,0-0.842,0.377-0.842,0.842v1.789c0,0.465,0.376,0.842,0.842,0.842
	H65.32c-0.013,0.196-0.053,0.38-0.053,0.578c0,0.259,0.057,0.51,0.079,0.764H37.726c-0.465,0-0.841,0.376-0.842,0.841v1.789
	c0,0.465,0.376,0.842,0.842,0.842h28.646c0.29,0.541,0.611,1.055,1,1.526H37.725c-0.465,0-0.842,0.376-0.842,0.841
	c0,0.009,0,0.019,0,0.027l0.052,1.815c0.015,0.455,0.387,0.816,0.842,0.816H74.29c0.465,0.006,0.847-0.365,0.854-0.83
	c0.007-0.465-0.365-0.847-0.83-0.854c-0.008,0-0.016,0-0.024,0H38.594v-0.132h30.777h0.053c0.293-0.006,0.563-0.166,0.71-0.421
	c0.222-0.368,0.131-0.844-0.21-1.105c-0.01-0.007-0.016-0.019-0.026-0.026c-0.96-0.748-1.749-1.698-2.263-2.789
	c-0.008-0.018-0.017-0.036-0.026-0.053c-0.003-0.007,0.003-0.02,0-0.026c-0.008-0.009-0.016-0.018-0.025-0.026
	c-0.007-0.027-0.016-0.054-0.026-0.08l-0.027-0.025c-0.208-0.323-0.609-0.463-0.973-0.342H38.568v-0.105h27.489
	c0.265,0.075,0.55,0.017,0.764-0.158l0.025-0.026c0.271-0.223,0.375-0.589,0.263-0.921c-0.008-0.009-0.017-0.018-0.026-0.025
	c-0.077-0.424-0.131-0.868-0.131-1.316c0-0.441,0.03-0.871,0.105-1.289c0.073-0.46-0.241-0.891-0.7-0.963
	c-0.038-0.006-0.077-0.009-0.115-0.01h-0.184H38.568v-0.106h28.015h0.185c0.33-0.002,0.628-0.197,0.762-0.5
	c0.458-1.059,1.174-1.984,2.052-2.709c0.358-0.296,0.408-0.827,0.111-1.185c-0.123-0.148-0.292-0.249-0.48-0.288l-0.078-0.026
	c-0.061-0.016-0.123-0.025-0.185-0.026H38.568v-0.079h34.434h132.059h54.69h73.498h145.022h23.123h53.059v0.079H505.47
	c-0.062,0.001-0.124,0.011-0.185,0.026l-0.104,0.026c-0.453,0.104-0.736,0.556-0.631,1.01c0.042,0.182,0.144,0.345,0.288,0.463
	c0.879,0.725,1.568,1.65,2.025,2.709c0.139,0.311,0.45,0.508,0.79,0.5c0.009,0,0.018,0,0.025,0h0.079h46.693v0.106h-46.114h-0.157
	c-0.465,0.008-0.835,0.391-0.826,0.856c0,0.04,0.004,0.079,0.009,0.117h-0.026c0.075,0.419,0.132,0.848,0.132,1.289
	c0,0.448-0.055,0.892-0.132,1.316c-0.003,0.018-0.022,0.035-0.026,0.052c0,0.009,0,0.018,0,0.026
	c-0.088,0.316,0.015,0.654,0.264,0.868l0.026,0.026c0.22,0.183,0.516,0.243,0.788,0.158h46.063v0.105h-46.615
	c-0.355-0.108-0.741,0.031-0.946,0.342l-0.026,0.026c-0.019,0.025-0.036,0.052-0.053,0.08c-0.009,0.017-0.019,0.035-0.026,0.053
	c-0.514,1.112-1.285,2.082-2.263,2.841c-0.008,0.008-0.017,0.017-0.026,0.026c-0.374,0.274-0.457,0.8-0.183,1.176
	c0.008,0.011,0.017,0.022,0.026,0.034c0.158,0.2,0.401,0.316,0.657,0.316h0.105h49.323v0.131h-54.296
	c-0.465-0.006-0.847,0.365-0.854,0.83c-0.006,0.465,0.365,0.847,0.83,0.854c0.009,0,0.016,0,0.023,0h55.11
	c0.456,0,0.829-0.361,0.843-0.815l0.052-1.815c0.015-0.465-0.35-0.853-0.814-0.868c-0.009,0-0.018,0-0.027,0h-48.243
	c0.388-0.471,0.709-0.985,1-1.526h47.245c0.464,0,0.841-0.377,0.841-0.842v-1.789c0-0.464-0.377-0.842-0.841-0.842h-46.22
	c0.021-0.253,0.079-0.504,0.079-0.763c0-0.198-0.041-0.383-0.053-0.578h46.193c0.464,0,0.841-0.377,0.841-0.842v-1.789
	c0-0.465-0.377-0.842-0.841-0.842h-47.166c-0.244-0.473-0.495-0.949-0.816-1.368h47.982c0.465,0,0.841-0.377,0.841-0.842v-1.763
	c0-0.464-0.376-0.841-0.841-0.841h-53.9H478.27H333.247H259.75h-54.69H73.001H37.725C37.69,72.545,37.655,72.545,37.62,72.549
	L37.62,72.549z"/>
<path id="path29" fill="#F4F4F4" d="M479.187,74.389c-3.879,0-7.025,3.146-7.025,7.023s3.146,7.05,7.025,7.05h21.044
	c3.878,0,7.023-3.172,7.023-7.05s-3.146-7.023-7.023-7.023H479.187z M479.187,76.073h21.044c2.968,0,5.34,2.372,5.34,5.34
	s-2.372,5.367-5.34,5.367h-21.044c-2.968,0-5.341-2.399-5.341-5.367C473.846,78.444,476.219,76.073,479.187,76.073z"/>
<path id="path31" fill="#F4F4F4" d="M40.672,55.739c-2.06,0-3.735,1.676-3.735,3.735v11.575c0,0.465,0.377,0.842,0.842,0.842
	h517.724c0.464,0,0.841-0.377,0.841-0.842V59.474c0-2.06-1.677-3.735-3.735-3.735H40.668H40.672z M40.672,57.422h511.94
	c1.149,0,2.052,0.902,2.052,2.052v10.733H38.625V59.474c0-1.149,0.902-2.052,2.052-2.052H40.672z"/>
<path id="path33" fill="#F4F4F4" d="M37.594,95.803c-0.392,0.087-0.667,0.44-0.658,0.842v210.816c0,2.06,1.676,3.735,3.735,3.735
	h511.94c2.059,0,3.735-1.676,3.735-3.735l-0.01-210.816c0-0.465-0.377-0.842-0.841-0.842H37.774c-0.061-0.007-0.123-0.007-0.184,0
	H37.594z M38.62,97.487h516.039v209.974c0,1.149-0.902,2.053-2.052,2.053H40.668c-1.151,0-2.052-0.903-2.052-2.053L38.62,97.487
	L38.62,97.487z"/>
<path id="path35" fill="#F4F4F4" d="M61.506,144.491c-1.555,0-2.815,1.285-2.815,2.841v17.494c0,1.555,1.259,2.84,2.815,2.84h17.493
	c1.555,0,2.841-1.285,2.841-2.84v-17.494c0-1.556-1.286-2.841-2.841-2.841H61.506z M61.506,146.175h17.493
	c0.646,0,1.157,0.511,1.157,1.158v17.494c0,0.645-0.512,1.157-1.157,1.157H61.506c-0.646,0-1.132-0.514-1.132-1.157v-17.494
	C60.375,146.686,60.86,146.175,61.506,146.175z"/>
<path id="path37" fill="#F4F4F4" d="M86.208,144.491c-1.555,0-2.841,1.285-2.841,2.841v17.494c0,1.554,1.285,2.84,2.841,2.84h17.466
	c1.555,0,2.841-1.285,2.841-2.84v-17.494c0-1.556-1.287-2.841-2.841-2.841H86.208z M86.208,146.175h17.466
	c0.646,0,1.158,0.511,1.158,1.158v17.494c0,0.645-0.512,1.157-1.158,1.157H86.208c-0.647,0-1.158-0.513-1.158-1.157v-17.494
	C85.05,146.686,85.562,146.175,86.208,146.175z"/>
<path id="path39" fill="#F4F4F4" d="M110.882,144.491c-1.555,0-2.842,1.285-2.842,2.841v17.494c0,1.555,1.286,2.84,2.842,2.84
	h17.493c1.424,0,2.546-1.097,2.736-2.472c0.009-0.018,0.018-0.035,0.027-0.053c0-0.009-0.001-0.018,0-0.026
	c0.009-0.025,0.019-0.052,0.025-0.079c0.014-0.051,0.022-0.104,0.027-0.157c0.009-0.018,0.018-0.036,0.026-0.053v-17.494
	c0-1.556-1.286-2.841-2.841-2.841H110.882L110.882,144.491z M110.882,146.175h17.493c0.646,0,1.158,0.511,1.158,1.158v17.335
	c-0.002,0.036-0.002,0.07,0,0.105c-0.01,0.018-0.019,0.035-0.026,0.053c0,0.645-0.486,1.157-1.131,1.157h-17.493
	c-0.645,0-1.158-0.513-1.158-1.157v-17.494C109.725,146.687,110.236,146.175,110.882,146.175L110.882,146.175z"/>
<path id="path41" fill="#F4F4F4" d="M135.553,144.491c-1.555,0-2.815,1.285-2.815,2.841v17.494c0,1.555,1.26,2.84,2.815,2.84h17.493
	c1.555,0,2.841-1.285,2.841-2.84v-17.494c0-1.556-1.287-2.841-2.841-2.841H135.553z M135.553,146.175h17.493
	c0.646,0,1.158,0.511,1.158,1.158v17.494c0,0.645-0.512,1.157-1.158,1.157h-17.493c-0.645,0-1.131-0.514-1.131-1.157v-17.494
	C134.422,146.686,134.907,146.175,135.553,146.175z"/>
<path id="path43" fill="#F4F4F4" d="M160.259,144.491c-1.555,0-2.841,1.285-2.841,2.841v17.494c0,1.555,1.286,2.84,2.841,2.84
	h17.467c1.555,0,2.84-1.285,2.84-2.84v-17.494c0-1.556-1.286-2.841-2.84-2.841H160.259z M160.259,146.175h17.467
	c0.645,0,1.157,0.511,1.157,1.158v17.494c0,0.645-0.512,1.157-1.157,1.157h-17.467c-0.645,0-1.158-0.514-1.158-1.157v-17.494
	C159.102,146.686,159.613,146.175,160.259,146.175z"/>
<path id="path45" fill="#F4F4F4" d="M184.932,144.491c-1.555,0-2.842,1.285-2.842,2.841v17.494c0,1.555,1.287,2.84,2.842,2.84
	h17.493c1.555,0,2.814-1.285,2.814-2.84v-17.494c0-1.556-1.26-2.841-2.814-2.841H184.932z M184.932,146.175h17.493
	c0.645,0,1.13,0.511,1.13,1.158v17.494c0,0.645-0.485,1.157-1.13,1.157h-17.493c-0.645,0-1.158-0.514-1.158-1.157v-17.494
	C183.774,146.686,184.287,146.175,184.932,146.175z"/>
<path id="path47" fill="#F4F4F4" d="M209.604,144.491c-1.555,0-2.814,1.285-2.814,2.841v17.494c0,1.555,1.259,2.84,2.814,2.84
	h17.494c1.554,0,2.84-1.285,2.84-2.84v-17.494c0-1.556-1.286-2.841-2.84-2.841H209.604z M209.604,146.175h17.494
	c0.645,0,1.157,0.511,1.157,1.158v17.494c0,0.645-0.512,1.157-1.157,1.157h-17.494c-0.646,0-1.131-0.514-1.131-1.157v-17.494
	C208.474,146.686,208.959,146.175,209.604,146.175z"/>
<path id="path49" fill="#F4F4F4" d="M234.311,144.491c-1.555,0-2.841,1.285-2.841,2.841v17.494c0,1.555,1.286,2.84,2.841,2.84
	h17.467c1.554,0,2.84-1.285,2.84-2.84v-17.494c0-1.556-1.286-2.841-2.84-2.841H234.311z M234.311,146.175h17.467
	c0.645,0,1.157,0.511,1.157,1.158v17.494c0,0.645-0.513,1.157-1.157,1.157h-17.467c-0.645,0-1.158-0.514-1.158-1.157v-17.494
	C233.153,146.686,233.666,146.175,234.311,146.175z"/>
<path id="path51" fill="#F4F4F4" d="M258.983,144.491c-1.555,0-2.841,1.285-2.841,2.841v17.494c0,1.555,1.285,2.84,2.841,2.84
	h17.493c1.555,0,2.815-1.285,2.815-2.84v-17.494c0-1.556-1.26-2.841-2.815-2.841H258.983z M258.983,146.175h17.493
	c0.646,0,1.132,0.511,1.132,1.158v17.494c0,0.645-0.487,1.157-1.132,1.157h-17.493c-0.645,0-1.157-0.514-1.157-1.157v-17.494
	C257.826,146.686,258.338,146.175,258.983,146.175z"/>
<path id="path53" fill="#F4F4F4" d="M283.656,144.491c-1.555,0-2.841,1.285-2.841,2.841v17.494c0,1.554,1.285,2.84,2.841,2.84
	h17.493c1.555,0,2.841-1.285,2.841-2.84v-17.494c0-1.556-1.285-2.841-2.841-2.841H283.656z M283.656,146.175h17.493
	c0.645,0,1.157,0.511,1.157,1.158v17.494c0,0.645-0.513,1.157-1.157,1.157h-17.493c-0.646,0-1.157-0.513-1.157-1.157v-17.494
	C282.499,146.686,283.011,146.175,283.656,146.175z"/>
<path id="path55" fill="#F4F4F4" d="M308.363,144.491c-1.557,0-2.842,1.285-2.842,2.841v17.494c0,1.554,1.285,2.84,2.842,2.84
	h17.466c1.555,0,2.841-1.284,2.841-2.84v-17.494c0-1.556-1.285-2.841-2.841-2.841H308.363z M308.363,146.175h17.466
	c0.646,0,1.158,0.511,1.158,1.158v17.494c0,0.644-0.514,1.157-1.158,1.157h-17.466c-0.647,0-1.157-0.513-1.157-1.157v-17.494
	C307.206,146.686,307.717,146.175,308.363,146.175z"/>
<path id="path57" fill="#F4F4F4" d="M333.035,144.491c-1.555,0-2.841,1.285-2.841,2.841v17.494c0,1.554,1.285,2.84,2.841,2.84
	h17.494c1.554,0,2.813-1.285,2.813-2.84v-17.494c0-1.556-1.259-2.841-2.813-2.841H333.035z M333.035,146.175h17.494
	c0.644,0,1.131,0.511,1.131,1.158v17.494c0,0.645-0.487,1.157-1.131,1.157h-17.494c-0.646,0-1.157-0.513-1.157-1.157v-17.494
	C331.878,146.686,332.392,146.175,333.035,146.175z"/>
<path id="path59" fill="#F4F4F4" d="M357.708,144.491c-1.555,0-2.814,1.285-2.814,2.841v17.494c0,1.554,1.259,2.84,2.814,2.84
	h17.494c1.554,0,2.839-1.284,2.839-2.84v-17.494c0-1.556-1.284-2.841-2.839-2.841H357.708z M357.708,146.175h17.494
	c0.644,0,1.156,0.511,1.156,1.158v17.494c0,0.644-0.513,1.157-1.156,1.157h-17.494c-0.645,0-1.132-0.513-1.132-1.157v-17.494
	C356.576,146.686,357.063,146.175,357.708,146.175z"/>
<path id="path61" fill="#F4F4F4" d="M382.415,144.491c-1.555,0-2.842,1.285-2.842,2.841v17.492c0,1.554,1.286,2.841,2.842,2.841
	h17.466c1.555,0,2.842-1.286,2.842-2.841c0.001-0.026,0.001-0.053,0-0.079v-17.415c0-1.556-1.286-2.841-2.842-2.841L382.415,144.491
	L382.415,144.491z M382.415,146.175h17.466c0.647,0,1.157,0.511,1.157,1.158v17.492c0,0.646-0.511,1.157-1.157,1.157h-17.466
	c-0.646,0-1.158-0.513-1.158-1.157v-17.493C381.257,146.685,381.771,146.174,382.415,146.175L382.415,146.175z"/>
<path id="path63" fill="#F4F4F4" d="M99.15,168.903c-1.555,0-2.841,1.285-2.841,2.841v17.492c0,1.555,1.286,2.815,2.841,2.815
	h17.493c1.422,0,2.542-1.075,2.736-2.446c0.01-0.019,0.018-0.034,0.026-0.053c0.001-0.009-0.001-0.019,0-0.026
	c0.01-0.025,0.019-0.051,0.027-0.076c0.014-0.052,0.022-0.105,0.026-0.161c0.009-0.015,0.019-0.032,0.026-0.05v-17.493
	c0-1.554-1.286-2.84-2.841-2.84H99.15L99.15,168.903z M99.15,170.586h17.493c0.646,0,1.158,0.514,1.158,1.158v17.335
	c-0.001,0.025-0.001,0.052,0,0.077c-0.011,0.028-0.019,0.057-0.026,0.086c0,0.645-0.486,1.131-1.131,1.131H99.15
	c-0.646,0-1.158-0.487-1.158-1.127v-17.495c0-0.645,0.512-1.157,1.158-1.157L99.15,170.586z"/>
<path id="path65" fill="#F4F4F4" d="M61.506,168.903c-1.555,0-2.815,1.285-2.815,2.841v17.492c0,1.557,1.259,2.815,2.815,2.815
	h30.12c1.555,0,2.841-1.259,2.841-2.815v-17.492c0-1.555-1.285-2.841-2.841-2.841H61.506z M61.506,170.586h30.12
	c0.646,0,1.157,0.514,1.157,1.158v17.492c0,0.646-0.512,1.133-1.157,1.133h-30.12c-0.646,0-1.132-0.488-1.132-1.133v-17.492
	C60.375,171.099,60.86,170.586,61.506,170.586z"/>
<path id="path67" fill="#F4F4F4" d="M123.827,168.903c-1.555,0-2.84,1.285-2.84,2.841v17.492c0,1.557,1.285,2.815,2.84,2.815h17.494
	c1.555,0,2.841-1.259,2.841-2.815v-17.492c0-1.555-1.286-2.841-2.841-2.841H123.827z M123.827,170.586h17.494
	c0.645,0,1.157,0.514,1.157,1.158v17.492c0,0.646-0.512,1.133-1.157,1.133h-17.494c-0.645,0-1.157-0.488-1.157-1.133v-17.492
	C122.67,171.099,123.181,170.586,123.827,170.586z"/>
<path id="path69" fill="#F4F4F4" d="M148.524,168.903c-1.555,0-2.84,1.285-2.84,2.841v17.492c0,1.557,1.286,2.815,2.84,2.815h17.468
	c1.555,0,2.841-1.259,2.841-2.815v-17.492c0-1.555-1.286-2.841-2.841-2.841H148.524z M148.524,170.586h17.468
	c0.645,0,1.157,0.514,1.157,1.158v17.492c0,0.646-0.512,1.133-1.157,1.133h-17.468c-0.645,0-1.157-0.488-1.157-1.133v-17.492
	C147.367,171.099,147.879,170.586,148.524,170.586z"/>
<path id="path71" fill="#F4F4F4" d="M173.197,168.903c-1.554,0-2.84,1.285-2.84,2.841v17.492c0,1.557,1.286,2.815,2.84,2.815h17.494
	c1.555,0,2.814-1.259,2.814-2.815v-17.492c0-1.555-1.259-2.841-2.814-2.841H173.197z M173.197,170.586h17.494
	c0.646,0,1.131,0.514,1.131,1.158v17.492c0,0.646-0.485,1.133-1.131,1.133h-17.494c-0.645,0-1.157-0.488-1.157-1.133v-17.492
	C172.04,171.099,172.552,170.586,173.197,170.586z"/>
<path id="path73" fill="#F4F4F4" d="M197.878,168.903c-1.555,0-2.815,1.285-2.815,2.841v17.492c0,1.556,1.259,2.815,2.815,2.815
	h17.494c1.555,0,2.841-1.259,2.841-2.815v-17.492c0-1.555-1.286-2.841-2.841-2.841H197.878z M197.878,170.586h17.494
	c0.645,0,1.157,0.514,1.157,1.158v17.492c0,0.646-0.512,1.133-1.157,1.133h-17.494c-0.646,0-1.131-0.488-1.131-1.133v-17.492
	C196.747,171.099,197.233,170.586,197.878,170.586z"/>
<path id="path75" fill="#F4F4F4" d="M222.576,168.903c-1.555,0-2.841,1.285-2.841,2.841v17.492c0,1.557,1.285,2.815,2.841,2.815
	h17.468c1.554,0,2.841-1.259,2.841-2.815v-17.492c0-1.555-1.286-2.841-2.841-2.841H222.576z M222.576,170.586h17.468
	c0.645,0,1.157,0.514,1.157,1.158v17.492c0,0.646-0.514,1.133-1.157,1.133h-17.468c-0.645,0-1.158-0.488-1.158-1.133v-17.492
	C221.418,171.099,221.931,170.586,222.576,170.586z"/>
<path id="path77" fill="#F4F4F4" d="M247.249,168.903c-1.555,0-2.841,1.285-2.841,2.841v17.492c0,1.557,1.286,2.815,2.841,2.815
	h17.493c1.555,0,2.815-1.259,2.815-2.815v-17.492c0-1.555-1.259-2.841-2.815-2.841H247.249z M247.249,170.586h17.493
	c0.645,0,1.131,0.514,1.131,1.158v17.492c0,0.646-0.486,1.133-1.131,1.133h-17.493c-0.645,0-1.158-0.488-1.158-1.133v-17.492
	C246.091,171.099,246.604,170.586,247.249,170.586z"/>
<path id="path79" fill="#F4F4F4" d="M271.922,168.903c-1.555,0-2.841,1.285-2.841,2.841v17.492c0,1.557,1.286,2.815,2.841,2.815
	h17.494c1.554,0,2.841-1.259,2.841-2.815v-17.492c0-1.555-1.286-2.841-2.841-2.841H271.922z M271.922,170.586h17.494
	c0.645,0,1.157,0.514,1.157,1.158v17.492c0,0.646-0.512,1.133-1.157,1.133h-17.494c-0.646,0-1.158-0.488-1.158-1.133v-17.492
	C270.764,171.099,271.276,170.586,271.922,170.586z"/>
<path id="path81" fill="#F4F4F4" d="M296.628,168.903c-1.555,0-2.842,1.285-2.842,2.841v17.492c0,1.557,1.286,2.815,2.842,2.815
	h17.466c1.555,0,2.842-1.258,2.842-2.815v-17.492c0-1.555-1.286-2.841-2.842-2.841H296.628z M296.628,170.586h17.466
	c0.646,0,1.159,0.514,1.159,1.158v17.492c0,0.645-0.515,1.133-1.159,1.133h-17.466c-0.645,0-1.158-0.488-1.158-1.133v-17.492
	C295.471,171.099,295.983,170.586,296.628,170.586z"/>
<path id="path83" fill="#F4F4F4" d="M321.301,168.903c-1.555,0-2.842,1.285-2.842,2.841v17.492c0,1.556,1.286,2.815,2.842,2.815
	h17.493c1.555,0,2.814-1.259,2.814-2.815v-17.492c0-1.555-1.258-2.841-2.814-2.841H321.301z M321.301,170.586h17.493
	c0.646,0,1.131,0.514,1.131,1.158v17.492c0,0.646-0.486,1.133-1.131,1.133h-17.493c-0.646,0-1.157-0.488-1.157-1.133v-17.492
	C320.144,171.099,320.655,170.586,321.301,170.586z"/>
<path id="path85" fill="#F4F4F4" d="M345.974,168.903c-1.554,0-2.842,1.285-2.842,2.841v17.492c0,1.557,1.286,2.815,2.842,2.815
	h17.493c1.556,0,2.841-1.258,2.841-2.815v-17.492c0-1.555-1.285-2.841-2.841-2.841H345.974z M345.974,170.586h17.493
	c0.645,0,1.158,0.514,1.158,1.158v17.492c0,0.645-0.514,1.133-1.158,1.133h-17.493c-0.645,0-1.158-0.488-1.158-1.133v-17.492
	C344.815,171.099,345.33,170.586,345.974,170.586z"/>
<path id="path87" fill="#F4F4F4" d="M370.68,168.903c-1.554,0-2.842,1.285-2.842,2.841v17.492c0,1.556,1.287,2.815,2.842,2.815
	h17.468c1.554,0,2.84-1.259,2.84-2.815v-17.492c0-1.555-1.285-2.841-2.84-2.841H370.68z M370.68,170.586h17.468
	c0.645,0,1.157,0.514,1.157,1.158v17.492c0,0.646-0.514,1.133-1.157,1.133H370.68c-0.646,0-1.157-0.488-1.157-1.133v-17.492
	C369.522,171.099,370.034,170.586,370.68,170.586z"/>
<path id="path89" fill="#F4F4F4" d="M395.352,168.903c-1.554,0-2.839,1.285-2.839,2.841v17.492c0,1.556,1.284,2.815,2.839,2.815
	h17.495c1.554,0,2.813-1.258,2.813-2.815v-17.492c0-1.555-1.259-2.841-2.813-2.841H395.352z M395.352,170.586h17.495
	c0.644,0,1.131,0.514,1.131,1.158v17.492c0,0.645-0.487,1.133-1.131,1.133h-17.495c-0.646,0-1.155-0.488-1.155-1.133v-17.492
	C394.196,171.099,394.706,170.586,395.352,170.586z"/>
<path id="path91" fill="#F4F4F4" d="M482.638,168.903c-1.555,0-2.842,1.285-2.842,2.841v17.492c0,1.556,1.286,2.815,2.842,2.815
	h31.75c1.555,0,2.842-1.258,2.842-2.815v-17.492c0-1.555-1.286-2.841-2.842-2.841H482.638z M482.638,170.586h31.75
	c0.646,0,1.158,0.514,1.158,1.158v17.492c0,0.645-0.514,1.133-1.158,1.133h-31.75c-0.647,0-1.157-0.488-1.157-1.133v-17.492
	C481.48,171.099,481.991,170.586,482.638,170.586z"/>
<path id="path93" fill="#F4F4F4" d="M419.814,168.903c-1.553,0-2.842,1.285-2.842,2.841v17.492c0,1.557,1.286,2.815,2.842,2.815
	h29.437c1.555,0,2.842-1.259,2.842-2.815v-17.492c0-1.555-1.286-2.841-2.842-2.841H419.814z M419.814,170.586h29.437
	c0.646,0,1.157,0.514,1.157,1.158v17.492c0,0.646-0.511,1.133-1.157,1.133h-29.437c-0.645,0-1.157-0.488-1.157-1.133v-17.492
	C418.657,171.099,419.171,170.586,419.814,170.586z"/>
<path id="path95" fill="#F4F4F4" d="M407.087,144.491c-1.556,0-2.841,1.285-2.841,2.841v17.494c0,1.554,1.285,2.84,2.841,2.84
	h17.493c1.554,0,2.815-1.284,2.815-2.84v-17.494c0-1.556-1.261-2.841-2.815-2.841H407.087z M407.087,146.175h17.493
	c0.646,0,1.131,0.511,1.131,1.158v17.494c0,0.644-0.486,1.157-1.131,1.157h-17.493c-0.646,0-1.157-0.513-1.157-1.157v-17.494
	C405.93,146.686,406.442,146.175,407.087,146.175z"/>
<path id="path97" fill="#F4F4F4" d="M54.877,193.314c-1.555,0-2.841,1.285-2.841,2.842v17.467c0,1.555,1.286,2.841,2.841,2.841
	H72.37c1.555,0,2.815-1.286,2.815-2.841v-17.467c0-1.557-1.26-2.842-2.815-2.842H54.877z M54.877,194.998H72.37
	c0.646,0,1.131,0.514,1.131,1.158v17.467c0,0.646-0.485,1.157-1.131,1.157H54.877c-0.646,0-1.158-0.512-1.158-1.157v-17.467
	C53.72,195.51,54.231,194.998,54.877,194.998z"/>
<path id="path99" fill="#F4F4F4" d="M79.553,193.314c-1.555,0-2.841,1.285-2.841,2.842v17.467c0,1.555,1.286,2.841,2.841,2.841
	h17.492c1.556,0,2.841-1.286,2.841-2.841v-17.467c0-1.557-1.286-2.842-2.841-2.842H79.553z M79.553,194.998h17.492
	c0.646,0,1.158,0.514,1.158,1.158v17.467c0,0.646-0.512,1.157-1.158,1.157H79.553c-0.646,0-1.158-0.512-1.158-1.157v-17.467
	C78.395,195.51,78.906,194.998,79.553,194.998z"/>
<path id="path101" fill="#F4F4F4" d="M104.227,193.314c-1.555,0-2.815,1.285-2.815,2.842v17.467c0,1.555,1.26,2.841,2.815,2.841
	h17.493c1.417,0,2.562-1.082,2.762-2.446c0.01-0.026,0.019-0.052,0.026-0.079c0.038-0.101,0.055-0.208,0.052-0.315v-17.467
	c0-1.557-1.286-2.842-2.841-2.842H104.227L104.227,193.314z M104.227,194.998h17.493c0.646,0,1.157,0.514,1.157,1.158v17.335
	c-0.001,0.027-0.001,0.054,0,0.08v0.052c0,0.646-0.512,1.157-1.157,1.157h-17.493c-0.646,0-1.131-0.512-1.131-1.157v-17.467
	C103.096,195.51,103.581,194.998,104.227,194.998L104.227,194.998z"/>
<path id="path103" fill="#F4F4F4" d="M128.928,193.314c-1.554,0-2.84,1.285-2.84,2.842v17.467c0,1.555,1.285,2.841,2.84,2.841
	h17.493c1.555,0,2.814-1.286,2.814-2.841v-17.467c0-1.557-1.26-2.842-2.814-2.842H128.928L128.928,193.314z M128.928,194.998h17.493
	c0.646,0,1.131,0.514,1.131,1.158v17.467c0,0.646-0.485,1.157-1.131,1.157h-17.493c-0.645,0-1.158-0.512-1.158-1.157v-17.467
	C127.771,195.51,128.282,194.998,128.928,194.998L128.928,194.998z"/>
<path id="path105" fill="#F4F4F4" d="M153.601,193.314c-1.554,0-2.84,1.285-2.84,2.842v17.467c0,1.555,1.285,2.841,2.84,2.841
	h17.493c1.555,0,2.841-1.286,2.841-2.841v-17.467c0-1.557-1.286-2.842-2.841-2.842H153.601z M153.601,194.998h17.493
	c0.646,0,1.157,0.514,1.157,1.158v17.467c0,0.646-0.512,1.157-1.157,1.157h-17.493c-0.645,0-1.157-0.512-1.157-1.157v-17.467
	C152.444,195.51,152.955,194.998,153.601,194.998z"/>
<path id="path107" fill="#F4F4F4" d="M178.282,193.314c-1.555,0-2.815,1.285-2.815,2.842v17.467c0,1.555,1.259,2.841,2.815,2.841
	h17.493c1.555,0,2.842-1.286,2.842-2.841v-17.467c0-1.557-1.287-2.842-2.842-2.842H178.282z M178.282,194.998h17.493
	c0.646,0,1.158,0.514,1.158,1.158v17.467c0,0.646-0.513,1.157-1.158,1.157h-17.493c-0.646,0-1.131-0.512-1.131-1.157v-17.467
	C177.15,195.51,177.636,194.998,178.282,194.998z"/>
<path id="path109" fill="#F4F4F4" d="M202.98,193.314c-1.554,0-2.841,1.285-2.841,2.842v17.467c0,1.555,1.286,2.841,2.841,2.841
	h17.493c1.555,0,2.815-1.286,2.815-2.841v-17.467c0-1.557-1.26-2.842-2.815-2.842H202.98z M202.98,194.998h17.493
	c0.646,0,1.131,0.514,1.131,1.158v17.467c0,0.646-0.486,1.157-1.131,1.157H202.98c-0.646,0-1.158-0.512-1.158-1.157v-17.467
	C201.822,195.51,202.335,194.998,202.98,194.998z"/>
<path id="path111" fill="#F4F4F4" d="M227.653,193.314c-1.555,0-2.842,1.285-2.842,2.842v17.467c0,1.555,1.285,2.841,2.842,2.841
	h17.493c1.555,0,2.84-1.286,2.84-2.841v-17.467c0-1.557-1.285-2.842-2.84-2.842H227.653z M227.653,194.998h17.493
	c0.646,0,1.157,0.514,1.157,1.158v17.467c0,0.646-0.512,1.157-1.157,1.157h-17.493c-0.647,0-1.158-0.512-1.158-1.157v-17.467
	C226.495,195.51,227.005,194.998,227.653,194.998z"/>
<path id="path113" fill="#F4F4F4" d="M252.325,193.314c-1.554,0-2.814,1.285-2.814,2.842v17.467c0,1.555,1.259,2.841,2.814,2.841
	h17.493c1.555,0,2.841-1.286,2.841-2.841v-17.467c0-1.557-1.286-2.842-2.841-2.842H252.325z M252.325,194.998h17.493
	c0.645,0,1.157,0.514,1.157,1.158v17.467c0,0.646-0.512,1.157-1.157,1.157h-17.493c-0.646,0-1.131-0.512-1.131-1.157v-17.467
	C251.194,195.51,251.68,194.998,252.325,194.998z"/>
<path id="path115" fill="#F4F4F4" d="M277.032,193.314c-1.555,0-2.842,1.285-2.842,2.842v17.467c0,1.555,1.287,2.841,2.842,2.841
	h17.493c1.554,0,2.814-1.286,2.814-2.841v-17.467c0-1.556-1.26-2.842-2.814-2.842H277.032z M277.032,194.998h17.493
	c0.645,0,1.131,0.513,1.131,1.158v17.467c0,0.646-0.487,1.157-1.131,1.157h-17.493c-0.646,0-1.158-0.512-1.158-1.157v-17.467
	C275.874,195.51,276.385,194.998,277.032,194.998z"/>
<path id="path117" fill="#F4F4F4" d="M301.704,193.314c-1.554,0-2.841,1.285-2.841,2.842v17.467c0,1.555,1.286,2.841,2.841,2.841
	h17.493c1.554,0,2.841-1.286,2.841-2.841v-17.467c0-1.557-1.286-2.842-2.841-2.842H301.704z M301.704,194.998h17.493
	c0.646,0,1.157,0.514,1.157,1.158v17.467c0,0.646-0.514,1.157-1.157,1.157h-17.493c-0.646,0-1.157-0.512-1.157-1.157v-17.467
	C300.547,195.51,301.058,194.998,301.704,194.998z"/>
<path id="path119" fill="#F4F4F4" d="M326.376,193.314c-1.553,0-2.813,1.285-2.813,2.842v17.467c0,1.555,1.259,2.841,2.813,2.841
	h17.494c1.554,0,2.842-1.286,2.842-2.841v-17.467c0-1.557-1.287-2.842-2.842-2.842H326.376z M326.376,194.998h17.494
	c0.646,0,1.157,0.514,1.157,1.158v17.467c0,0.646-0.514,1.157-1.157,1.157h-17.494c-0.645,0-1.13-0.512-1.13-1.157v-17.467
	C325.246,195.51,325.732,194.998,326.376,194.998z"/>
<path id="path121" fill="#F4F4F4" d="M351.084,193.314c-1.556,0-2.842,1.285-2.842,2.842v17.467c0,1.555,1.284,2.841,2.842,2.841
	h17.493c1.554,0,2.814-1.286,2.814-2.841v-17.467c0-1.557-1.26-2.842-2.814-2.842H351.084z M351.084,194.998h17.493
	c0.645,0,1.13,0.514,1.13,1.158v17.467c0,0.646-0.486,1.157-1.13,1.157h-17.493c-0.646,0-1.159-0.512-1.159-1.157v-17.467
	C349.925,195.51,350.438,194.998,351.084,194.998z"/>
<path id="path123" fill="#F4F4F4" d="M375.756,193.314c-1.554,0-2.841,1.285-2.841,2.842v17.467c0,1.555,1.285,2.841,2.841,2.841
	h17.492c1.555,0,2.842-1.286,2.842-2.841v-17.467c0-1.556-1.286-2.842-2.842-2.842H375.756z M375.756,194.998h17.492
	c0.646,0,1.157,0.513,1.157,1.158v17.467c0,0.646-0.512,1.157-1.157,1.157h-17.492c-0.646,0-1.158-0.512-1.158-1.157v-17.467
	C374.598,195.51,375.111,194.998,375.756,194.998z"/>
<path id="path125" fill="#F4F4F4" d="M482.638,193.314c-1.555,0-2.842,1.285-2.842,2.842v17.467c0,1.555,1.286,2.841,2.842,2.841
	h31.75c1.555,0,2.842-1.286,2.842-2.841v-17.467c0-1.557-1.286-2.842-2.842-2.842H482.638z M482.638,194.998h31.75
	c0.646,0,1.158,0.514,1.158,1.158v17.467c0,0.646-0.514,1.157-1.158,1.157h-31.75c-0.647,0-1.157-0.512-1.157-1.157v-17.467
	C481.48,195.51,481.991,194.998,482.638,194.998z"/>
<path id="path127" fill="#F4F4F4" d="M401.11,193.314c-1.555,0-2.841,1.285-2.841,2.842v17.467c0,1.555,1.285,2.841,2.841,2.841
	h41.063c1.554,0,2.814-1.286,2.814-2.841v-17.467c0-1.557-1.261-2.842-2.814-2.842H401.11z M401.11,194.998h41.063
	c0.646,0,1.132,0.514,1.132,1.158v17.467c0,0.646-0.488,1.157-1.132,1.157H401.11c-0.646,0-1.157-0.512-1.157-1.157v-17.467
	C399.953,195.51,400.465,194.998,401.11,194.998z"/>
<path id="path129" fill="#F4F4F4" d="M54.877,217.727c-1.555,0-2.841,1.26-2.841,2.814v17.494c0,1.555,1.286,2.84,2.841,2.84H72.37
	c1.555,0,2.815-1.284,2.815-2.84v-17.494c0-1.555-1.26-2.814-2.815-2.814H54.877z M54.877,219.41H72.37
	c0.646,0,1.131,0.486,1.131,1.131v17.494c0,0.645-0.485,1.157-1.131,1.157H54.877c-0.646,0-1.158-0.514-1.158-1.157v-17.494
	C53.72,219.895,54.231,219.41,54.877,219.41z"/>
<path id="path131" fill="#F4F4F4" d="M79.553,217.727c-1.555,0-2.841,1.26-2.841,2.814v17.494c0,1.555,1.286,2.84,2.841,2.84h29.436
	c1.416,0,2.561-1.083,2.762-2.445c0-0.009,0-0.019,0-0.026c0.003-0.02,0.024-0.034,0.026-0.053c0.032-0.084,0.049-0.173,0.053-0.263
	c0-0.019,0-0.036,0-0.053v-17.494c0-1.555-1.286-2.814-2.841-2.814H79.553L79.553,217.727z M79.553,219.41h29.436
	c0.645,0,1.158,0.486,1.158,1.131v17.441v0.053c0,0.645-0.513,1.157-1.158,1.157H79.553c-0.646,0-1.158-0.513-1.158-1.157v-17.494
	C78.395,219.895,78.906,219.41,79.553,219.41L79.553,219.41z"/>
<path id="path133" fill="#F4F4F4" d="M116.196,217.727c-1.555,0-2.841,1.26-2.841,2.814v17.494c0,1.555,1.286,2.84,2.841,2.84
	h17.493c1.555,0,2.814-1.284,2.814-2.84v-17.494c0-1.555-1.259-2.814-2.814-2.814H116.196z M116.196,219.41h17.493
	c0.645,0,1.131,0.486,1.131,1.131v17.494c0,0.645-0.486,1.157-1.131,1.157h-17.493c-0.646,0-1.158-0.514-1.158-1.157v-17.494
	C115.039,219.895,115.55,219.41,116.196,219.41z"/>
<path id="path135" fill="#F4F4F4" d="M140.873,217.727c-1.555,0-2.841,1.26-2.841,2.814v17.494c0,1.555,1.286,2.84,2.841,2.84
	h17.493c1.555,0,2.841-1.284,2.841-2.84v-17.494c0-1.555-1.286-2.814-2.841-2.814H140.873z M140.873,219.41h17.493
	c0.646,0,1.158,0.486,1.158,1.131v17.494c0,0.645-0.512,1.157-1.158,1.157h-17.493c-0.645,0-1.158-0.514-1.158-1.157v-17.494
	C139.715,219.895,140.227,219.41,140.873,219.41z"/>
<path id="path137" fill="#F4F4F4" d="M165.571,217.727c-1.555,0-2.841,1.26-2.841,2.814v17.494c0,1.555,1.286,2.84,2.841,2.84
	h17.467c1.555,0,2.841-1.284,2.841-2.84v-17.494c0-1.555-1.286-2.814-2.841-2.814H165.571z M165.571,219.41h17.467
	c0.646,0,1.158,0.485,1.158,1.131v17.494c0,0.645-0.512,1.157-1.158,1.157h-17.467c-0.646,0-1.158-0.514-1.158-1.157v-17.494
	C164.413,219.895,164.925,219.41,165.571,219.41z"/>
<path id="path139" fill="#F4F4F4" d="M122.404,242.113c-1.554,0-2.841,1.284-2.841,2.841v17.493c0,1.555,1.286,2.842,2.841,2.842
	h217.702c1.555,0,2.841-1.286,2.841-2.842v-17.493c0-1.555-1.286-2.841-2.841-2.841H122.404z M122.404,243.797h217.702
	c0.646,0,1.157,0.512,1.157,1.157v17.493c0,0.646-0.513,1.157-1.157,1.157H122.404c-0.645,0-1.157-0.512-1.157-1.157v-17.493
	C121.247,244.308,121.758,243.797,122.404,243.797z"/>
<path id="path141" fill="#F4F4F4" d="M190.244,217.727c-1.555,0-2.841,1.26-2.841,2.814v17.494c0,1.554,1.285,2.84,2.841,2.84
	h17.493c1.555,0,2.815-1.284,2.815-2.84v-17.494c0-1.555-1.26-2.814-2.815-2.814H190.244z M190.244,219.41h17.493
	c0.646,0,1.132,0.486,1.132,1.131v17.494c0,0.645-0.486,1.157-1.132,1.157h-17.493c-0.646,0-1.158-0.513-1.158-1.157v-17.494
	C189.086,219.895,189.597,219.41,190.244,219.41z"/>
<path id="path143" fill="#F4F4F4" d="M214.925,217.727c-1.555,0-2.841,1.26-2.841,2.814v17.494c0,1.555,1.286,2.84,2.841,2.84
	h17.493c1.555,0,2.841-1.284,2.841-2.84v-17.494c0-1.555-1.285-2.814-2.841-2.814H214.925z M214.925,219.41h17.493
	c0.647,0,1.158,0.485,1.158,1.131v17.494c0,0.645-0.512,1.157-1.158,1.157h-17.493c-0.646,0-1.158-0.514-1.158-1.157v-17.494
	C213.767,219.895,214.279,219.41,214.925,219.41z"/>
<path id="path145" fill="#F4F4F4" d="M239.623,217.727c-1.554,0-2.841,1.26-2.841,2.814v17.494c0,1.554,1.286,2.84,2.841,2.84
	h17.466c1.555,0,2.841-1.284,2.841-2.84v-17.494c0-1.555-1.286-2.814-2.841-2.814H239.623z M239.623,219.41h17.466
	c0.646,0,1.158,0.486,1.158,1.131v17.494c0,0.645-0.512,1.157-1.158,1.157h-17.466c-0.646,0-1.158-0.513-1.158-1.157v-17.494
	C238.465,219.895,238.978,219.41,239.623,219.41z"/>
<path id="path147" fill="#F4F4F4" d="M264.295,217.727c-1.555,0-2.841,1.26-2.841,2.814v17.494c0,1.555,1.286,2.84,2.841,2.84
	h17.493c1.555,0,2.815-1.284,2.815-2.84v-17.494c0-1.555-1.26-2.814-2.815-2.814H264.295z M264.295,219.41h17.493
	c0.646,0,1.131,0.485,1.131,1.131v17.494c0,0.645-0.485,1.157-1.131,1.157h-17.493c-0.645,0-1.158-0.514-1.158-1.157v-17.494
	C263.138,219.895,263.649,219.41,264.295,219.41z"/>
<path id="path149" fill="#F4F4F4" d="M288.976,217.727c-1.553,0-2.84,1.26-2.84,2.814v17.494c0,1.554,1.286,2.84,2.84,2.84h17.494
	c1.555,0,2.841-1.284,2.841-2.84v-17.494c0-1.555-1.286-2.814-2.841-2.814H288.976z M288.976,219.41h17.494
	c0.646,0,1.157,0.486,1.157,1.131v17.494c0,0.645-0.513,1.157-1.157,1.157h-17.494c-0.645,0-1.157-0.513-1.157-1.157v-17.494
	C287.819,219.895,288.332,219.41,288.976,219.41z"/>
<path id="path151" fill="#F4F4F4" d="M313.674,217.727c-1.554,0-2.841,1.259-2.841,2.814v17.494c0,1.555,1.286,2.84,2.841,2.84
	h17.468c1.555,0,2.841-1.284,2.841-2.84v-17.494c0-1.555-1.286-2.814-2.841-2.814H313.674z M313.674,219.41h17.468
	c0.646,0,1.157,0.486,1.157,1.131v17.494c0,0.645-0.513,1.157-1.157,1.157h-17.468c-0.646,0-1.156-0.514-1.156-1.157v-17.494
	C312.518,219.895,313.029,219.41,313.674,219.41z"/>
<path id="path153" fill="#F4F4F4" d="M338.347,217.727c-1.554,0-2.842,1.259-2.842,2.814v17.494c0,1.555,1.287,2.84,2.842,2.84
	h17.493c1.555,0,2.813-1.284,2.813-2.84v-17.494c0-1.555-1.258-2.814-2.813-2.814H338.347z M338.347,219.41h17.493
	c0.646,0,1.132,0.486,1.132,1.131v17.494c0,0.645-0.487,1.157-1.132,1.157h-17.493c-0.646,0-1.157-0.514-1.157-1.157v-17.494
	C337.189,219.895,337.702,219.41,338.347,219.41z"/>
<path id="path155" fill="#F4F4F4" d="M363.02,217.727c-1.554,0-2.842,1.259-2.842,2.814v17.494c0,1.555,1.286,2.84,2.842,2.84
	h30.436c1.556,0,2.841-1.284,2.841-2.84v-17.494c0-1.555-1.285-2.814-2.841-2.814H363.02z M363.02,219.41h30.436
	c0.646,0,1.157,0.486,1.157,1.131v17.494c0,0.645-0.513,1.157-1.157,1.157H363.02c-0.646,0-1.157-0.514-1.157-1.157v-17.494
	C361.862,219.895,362.375,219.41,363.02,219.41z"/>
<path id="path157" fill="#F4F4F4" d="M400.008,217.727c-1.554,0-2.842,1.26-2.842,2.814v17.494c0,1.554,1.287,2.84,2.842,2.84
	h17.467c1.554,0,2.841-1.284,2.841-2.84v-17.494c0-1.555-1.286-2.814-2.841-2.814H400.008z M400.008,219.41h17.467
	c0.646,0,1.157,0.485,1.157,1.131v17.494c0,0.645-0.512,1.157-1.157,1.157h-17.467c-0.646,0-1.157-0.513-1.157-1.157v-17.494
	C398.851,219.895,399.363,219.41,400.008,219.41z"/>
<path id="path159" fill="#F4F4F4" d="M482.638,217.727c-1.555,0-2.842,1.26-2.842,2.814v17.494c0,1.554,1.286,2.84,2.842,2.84h31.75
	c1.555,0,2.842-1.284,2.842-2.84v-17.494c0-1.555-1.286-2.814-2.842-2.814H482.638z M482.638,219.41h31.75
	c0.646,0,1.158,0.486,1.158,1.131v17.494c0,0.645-0.514,1.157-1.158,1.157h-31.75c-0.647,0-1.157-0.513-1.157-1.157v-17.494
	C481.48,219.895,481.991,219.41,482.638,219.41z"/>
<path id="path161" fill="#F4F4F4" d="M424.681,217.727c-1.554,0-2.842,1.26-2.842,2.814v17.494c0,1.554,1.285,2.84,2.842,2.84
	h17.493c1.554,0,2.814-1.284,2.814-2.84v-17.494c0-1.555-1.261-2.814-2.814-2.814H424.681z M424.681,219.41h17.493
	c0.646,0,1.132,0.486,1.132,1.131v17.494c0,0.645-0.488,1.157-1.132,1.157h-17.493c-0.646,0-1.158-0.513-1.158-1.157v-17.494
	C423.522,219.895,424.034,219.41,424.681,219.41z"/>
<path id="path163" fill="#F4F4F4" d="M431.76,144.491c-1.555,0-2.841,1.285-2.841,2.841v17.494c0,1.555,1.285,2.84,2.841,2.84
	h17.493c1.555,0,2.842-1.285,2.842-2.84v-17.494c0-1.556-1.287-2.841-2.842-2.841H431.76z M431.76,146.175h17.493
	c0.647,0,1.157,0.511,1.157,1.158v17.494c0,0.645-0.511,1.157-1.157,1.157H431.76c-0.646,0-1.157-0.514-1.157-1.157v-17.494
	C430.603,146.687,431.115,146.175,431.76,146.175z"/>
<path id="path165" fill="#F4F4F4" d="M482.638,144.491c-1.555,0-2.842,1.285-2.842,2.841v17.494c0,1.554,1.286,2.84,2.842,2.84
	h31.75c1.555,0,2.842-1.284,2.842-2.84v-17.494c0-1.556-1.286-2.841-2.842-2.841H482.638z M482.638,146.175h31.75
	c0.646,0,1.158,0.511,1.158,1.158v17.494c0,0.644-0.514,1.157-1.158,1.157h-31.75c-0.647,0-1.157-0.513-1.157-1.157v-17.494
	C481.48,146.686,481.991,146.175,482.638,146.175z"/>
<path id="polygon167" fill="#F4F4F4" d="M56.666,141.73c-0.434,0.041-0.764,0.406-0.763,0.841v47.982h-5.787
	c-0.465,0-0.842,0.377-0.842,0.843v52.11c0,0.465,0.376,0.841,0.842,0.841h66.238v23.07c0,0.466,0.377,0.843,0.842,0.843h227.466
	c0.465,0,0.843-0.377,0.843-0.843v-23.385h101.435c0.466,0,0.842-0.377,0.842-0.842V195.21h6.444c0.466,0,0.843-0.377,0.843-0.842
	v-51.796c0-0.465-0.377-0.841-0.843-0.841H56.744C56.718,141.729,56.691,141.729,56.666,141.73L56.666,141.73z M57.586,143.414
	h395.799v50.112h-6.446c-0.463,0-0.841,0.376-0.841,0.842v47.98H344.663c-0.465,0-0.841,0.378-0.841,0.843v23.386H118.038v-23.07
	c0-0.465-0.377-0.842-0.842-0.842H50.958v-50.427h5.788c0.465,0,0.841-0.378,0.841-0.842L57.586,143.414L57.586,143.414z"/>
<path id="rect169" fill="#F4F4F4" d="M478.219,142.235c-0.424,0.054-0.741,0.416-0.737,0.842v99.617
	c0,0.465,0.377,0.842,0.842,0.842h40.168c0.466,0,0.843-0.377,0.843-0.842v-99.617c0-0.465-0.377-0.842-0.843-0.842h-40.168
	C478.288,142.233,478.252,142.233,478.219,142.235z M479.165,143.919h38.485v97.934h-38.485V143.919z"/>
<path id="path171" fill="#F4F4F4" d="M45.802,133c-2.105,0-3.84,1.709-3.84,3.814v137.472c0,2.106,1.734,3.841,3.84,3.841h502.411
	c2.104,0,3.813-1.734,3.813-3.841V136.813c0-2.105-1.709-3.813-3.813-3.813L45.802,133L45.802,133z M45.802,134.683h502.411
	c1.195,0,2.13,0.935,2.13,2.13v137.472c0,1.196-0.935,2.158-2.13,2.158H45.802c-1.196,0-2.157-0.962-2.157-2.158V136.813
	C43.645,135.617,44.605,134.683,45.802,134.683L45.802,134.683z"/>
<path id="line173" fill="#F4F4F4" d="M554.29,92.857c-0.465,0-0.842,0.376-0.842,0.841c0,0.009,0,0.018,0,0.027v2.92
	c-0.008,0.465,0.364,0.847,0.83,0.854c0.463,0.006,0.847-0.366,0.853-0.83c0-0.008,0-0.016,0-0.024v-2.92
	c0.016-0.465-0.351-0.854-0.814-0.867C554.308,92.857,554.299,92.857,554.29,92.857z"/>
<path id="line175" fill="#F4F4F4" d="M554.29,88.91c-0.465,0-0.842,0.377-0.842,0.841c0,0.009,0,0.018,0,0.027v2.105
	c-0.008,0.465,0.364,0.846,0.83,0.853c0.463,0.007,0.847-0.365,0.853-0.83c0-0.008,0-0.016,0-0.023v-2.105
	c0.016-0.465-0.351-0.854-0.814-0.868C554.308,88.91,554.299,88.91,554.29,88.91z"/>
<path id="line177" fill="#F4F4F4" d="M554.188,83.859c-0.423,0.054-0.737,0.415-0.735,0.842v3.288
	c-0.006,0.465,0.364,0.847,0.83,0.854c0.465,0.006,0.848-0.365,0.854-0.83c0-0.008,0-0.016,0-0.024v-3.288
	c0.004-0.465-0.37-0.845-0.835-0.848C554.264,83.853,554.226,83.854,554.188,83.859z"/>
<path id="line179" fill="#F4F4F4" d="M554.29,78.993c-0.465,0-0.842,0.377-0.842,0.842c0,0.009,0,0.017,0,0.026v3.156
	c-0.008,0.465,0.364,0.848,0.83,0.854c0.463,0.007,0.847-0.365,0.853-0.83c0-0.008,0-0.016,0-0.024v-3.156
	c0.016-0.465-0.351-0.854-0.814-0.868C554.308,78.993,554.299,78.993,554.29,78.993z"/>
<path id="line181" fill="#F4F4F4" d="M554.188,74.389c-0.432,0.055-0.752,0.432-0.735,0.868v2.946
	c-0.006,0.465,0.364,0.848,0.83,0.854c0.465,0.007,0.848-0.365,0.854-0.83c0-0.008,0-0.016,0-0.024v-2.946
	c0.019-0.464-0.344-0.855-0.808-0.874C554.281,74.382,554.234,74.383,554.188,74.389z"/>
<path id="line183" fill="#F4F4F4" d="M554.29,70.208c-0.465,0-0.842,0.376-0.842,0.841c0,0.009,0,0.018,0,0.026v2.315
	c-0.008,0.465,0.364,0.848,0.83,0.854c0.463,0.007,0.847-0.365,0.853-0.83c0-0.009,0-0.016,0-0.024v-2.315
	c0.016-0.465-0.351-0.853-0.814-0.867C554.308,70.208,554.299,70.208,554.29,70.208z"/>
<path id="line185" fill="#F4F4F4" d="M38.2,70.208c-0.424,0.053-0.74,0.415-0.737,0.841v2.368c-0.007,0.465,0.365,0.847,0.83,0.854
	c0.465,0.006,0.847-0.365,0.854-0.83c0-0.008,0-0.016,0-0.024v-2.368c0.003-0.465-0.371-0.844-0.835-0.848
	C38.274,70.2,38.236,70.203,38.2,70.208z"/>
<path id="line187" fill="#F4F4F4" d="M38.12,74.363c-0.391,0.087-0.667,0.44-0.657,0.842v2.999c-0.007,0.465,0.365,0.847,0.83,0.854
	s0.847-0.365,0.854-0.83c0-0.009,0-0.016,0-0.024v-2.999c0.012-0.465-0.356-0.852-0.821-0.862
	C38.256,74.341,38.188,74.348,38.12,74.363L38.12,74.363z"/>
<path id="line189" fill="#F4F4F4" d="M38.12,79.388c-0.391,0.088-0.667,0.44-0.657,0.842v2.736c-0.007,0.465,0.365,0.847,0.83,0.854
	c0.465,0.007,0.847-0.365,0.854-0.829c0-0.008,0-0.017,0-0.024v-2.736c0.012-0.465-0.356-0.85-0.821-0.862
	C38.256,79.366,38.188,79.374,38.12,79.388L38.12,79.388z"/>
<path id="line191" fill="#F4F4F4" d="M38.12,83.913c-0.391,0.088-0.667,0.44-0.657,0.841v3.078c-0.007,0.465,0.365,0.848,0.83,0.854
	c0.465,0.007,0.847-0.365,0.854-0.83c0-0.008,0-0.016,0-0.024v-3.078c0.012-0.464-0.356-0.851-0.821-0.861
	C38.256,83.891,38.188,83.897,38.12,83.913L38.12,83.913z"/>
<path id="line193" fill="#F4F4F4" d="M38.12,89.016c-0.391,0.088-0.667,0.44-0.657,0.842v2.131c-0.007,0.465,0.365,0.847,0.83,0.854
	c0.465,0.006,0.847-0.366,0.854-0.83c0-0.008,0-0.016,0-0.024v-2.131c0.012-0.465-0.356-0.851-0.821-0.862
	C38.256,88.995,38.188,89.001,38.12,89.016L38.12,89.016z"/>
<path id="line195" fill="#F4F4F4" d="M38.2,93.119c-0.424,0.054-0.74,0.415-0.737,0.842v2.5c-0.007,0.465,0.365,0.846,0.83,0.854
	c0.465,0.006,0.847-0.365,0.854-0.831c0-0.008,0-0.016,0-0.023v-2.5c0.003-0.464-0.371-0.846-0.835-0.849
	C38.274,93.112,38.236,93.114,38.2,93.119z"/>
<path id="circle197" fill="#F4F4F4" d="M499.337,76.6c-2.715,0-4.944,2.203-4.944,4.919c0,2.716,2.229,4.945,4.944,4.945
	c2.719,0,4.946-2.229,4.946-4.945C504.283,78.802,502.056,76.6,499.337,76.6z M499.337,78.283c1.808,0,3.262,1.429,3.262,3.236
	s-1.454,3.262-3.262,3.262c-1.806,0-3.261-1.455-3.261-3.262S497.531,78.283,499.337,78.283z"/>
</svg>
