<?xml version="1.0" encoding="utf-8"?>
<!-- Generator: Adobe Illustrator 13.0.0, SVG Export Plug-In . SVG Version: 6.00 Build 14948)  -->
<!DOCTYPE svg [
	<!ENTITY ns_flows "http://ns.adobe.com/Flows/1.0/">
	<!ENTITY ns_extend "http://ns.adobe.com/Extensibility/1.0/">
	<!ENTITY ns_ai "http://ns.adobe.com/AdobeIllustrator/10.0/">
	<!ENTITY ns_graphs "http://ns.adobe.com/Graphs/1.0/">
	<!ENTITY ns_vars "http://ns.adobe.com/Variables/1.0/">
	<!ENTITY ns_imrep "http://ns.adobe.com/ImageReplacement/1.0/">
	<!ENTITY ns_sfw "http://ns.adobe.com/SaveForWeb/1.0/">
	<!ENTITY ns_custom "http://ns.adobe.com/GenericCustomNamespace/1.0/">
	<!ENTITY ns_adobe_xpath "http://ns.adobe.com/XPath/1.0/">
]>
<svg version="1.2" baseProfile="tiny"
	 id="Layer_3" xmlns:x="&ns_extend;" xmlns:i="&ns_ai;" xmlns:graph="&ns_graphs;" xmlns:rdf="http://www.w3.org/1999/02/22-rdf-syntax-ns#" xmlns:dc="http://purl.org/dc/elements/1.1/" xmlns:cc="http://creativecommons.org/ns#"
	 xmlns="http://www.w3.org/2000/svg" xmlns:xlink="http://www.w3.org/1999/xlink" xmlns:a="http://ns.adobe.com/AdobeSVGViewerExtensions/3.0/"
	 x="0px" y="0px" width="598.189px" height="350.26px" viewBox="0 0 598.189 350.26" xml:space="preserve">
<metadata  id="metadata55">
	<rdf:RDF>
		<cc:Work  rdf:about="">
			<dc:format>image/svg+xml</dc:format>
			<dc:type  rdf:resource="http://purl.org/dc/dcmitype/StillImage"></dc:type>
			<dc:title></dc:title>
		</cc:Work>
	</rdf:RDF>
	<sfw  xmlns="&ns_sfw;">
		<slices></slices>
		<sliceSourceBounds  x="893.896" y="371.662" width="140.85" height="336.339" bottomLeftOrigin="true"></sliceSourceBounds>
	</sfw>
</metadata>
<path fill="#F4F4F4" d="M283.098,196.692v-39.636l39.637-0.002v38.638v1H283.098L283.098,196.692z M321.734,195.692v-1.002V195.692
	L321.734,195.692z M285.098,159.059v35.632h35.637v-35.634L285.098,159.059L285.098,159.059z"/>
<path fill="#F4F4F4" d="M289.577,190.216v-26.682h26.678v25.68v1.002H289.577L289.577,190.216z M315.256,189.214v-1V189.214
	L315.256,189.214z M291.577,188.214h22.678v-22.68h-22.678V188.214L291.577,188.214z"/>
<path fill="#F4F4F4" d="M340.903,342.966c-0.051,0-0.107,0-0.17-0.004l0,0l0,0l-75.713-0.002c0,0-0.004,0-0.057,0.002l0,0
	c-1.528,0.025-2.554-1.356-2.589-2.783l0,0l-8.566-190.533c-0.153-1.471-0.894-2.08-2.778-2.167l0,0v-0.997l0.707,0.705
	l-1.414-1.415c0.031,0.031,0.017-0.208,0.707-0.294l0,0c2.499-0.088,4.677,1.494,4.776,4.061l0,0l8.564,190.524
	c0.12,0.813,0.302,0.873,0.594,0.899l0,0c0.004,0,0.048-0.002,0.088-0.002l0,0h75.703l0.046,0.004c0.025,0,0.061,0.004,0.104,0.004
	l0,0c0.335-0.027,0.271-0.047,0.359-0.133l0,0c0.076-0.1,0.172-0.41,0.197-0.754l0,0l8.563-190.56
	c0.095-2.55,2.278-4.13,4.775-4.042l0,0v1.998c-1.884,0.088-2.627,0.699-2.778,2.151l0,0l-8.566,190.585
	c-0.053,0.533-0.145,1.144-0.529,1.734l0,0c-0.363,0.586-1.129,1.02-1.947,1.02l0,0
	C340.953,342.968,340.928,342.968,340.903,342.966L340.903,342.966z"/>
<path fill="#F4F4F4" d="M232.491,147.479V6.628h140.848l0.002,139.849v1.002H232.491L232.491,147.479z M372.34,146.478v-1V146.478
	L372.34,146.478z M234.49,145.478h136.85L371.338,8.629H234.492L234.49,145.478L234.49,145.478z"/>
<path fill="#F4F4F4" d="M256.879,127.381c-2.371-0.002-4.289-1.922-4.291-4.289l0,0V31.015c0.002-2.369,1.92-4.289,4.291-4.289l0,0
	h92.076c2.368,0.002,4.288,1.92,4.29,4.289l0,0v92.078c-0.002,2.369-1.922,4.287-4.29,4.289l0,0H256.879L256.879,127.381z
	 M254.589,31.015v92.078c0.002,1.262,1.024,2.286,2.291,2.289l0,0h92.076c1.262-0.002,2.286-1.026,2.288-2.289l0,0V31.015
	c0-1.262-1.026-2.286-2.288-2.288l0,0h-92.077C255.613,28.729,254.591,29.752,254.589,31.015L254.589,31.015z"/>
<path fill="#F4F4F4" d="M324.608,103.537c0.012,0,0.021,0,0.033,0l0,0c-0.008,0-0.014,0-0.021,0l0,0
	C324.617,103.537,324.612,103.537,324.608,103.537L324.608,103.537z M324.604,103.537h-43.531c-2.54-0.002-4.596-2.057-4.596-4.594
	l0,0V55.405l0,0c0-0.001,0-0.001,0-0.002l0,0c0-2.539,2.059-4.592,4.596-4.594l0,0l43.534,0.002c2.536,0,4.594,2.057,4.594,4.592
	l0,0l0.002,43.539h-0.002c0,2.525-2.036,4.574-4.56,4.594l0,0c0.056-0.002,0.144-0.015,0.3-0.06l0,0
	c0.149-0.016,0.659-0.361,0.661-0.918l0,0c-0.025-0.522-0.225-0.629-0.275-0.713l0,0c-0.078-0.081-0.117-0.104-0.148-0.128l0,0
	l-0.216,0.308L324.604,103.537c0.002,0,0.003,0,0.004,0l0,0C324.607,103.537,324.606,103.537,324.604,103.537L324.604,103.537
	L324.604,103.537L324.604,103.537z M324.604,101.536c1.437-0.002,2.596-1.162,2.598-2.593l0,0V55.405
	c-0.004-1.434-1.161-2.593-2.595-2.595l0,0h-43.534c-1.402,0.002-2.543,1.11-2.595,2.498l0,0l-0.002,43.634
	c0.004,1.432,1.164,2.591,2.597,2.593l0,0h43.529H324.604L324.604,101.536z"/>
<polygon fill="#F4F4F4" points="261.175,35.904 287.357,35.904 279.065,43.685 286.45,51.068 285.036,52.482 276.192,43.637 
	282.302,37.905 263.176,37.903 263.176,57.028 268.82,51.009 278.037,60.227 278.039,60.227 276.623,61.641 268.867,53.882 
	261.175,62.085 "/>
<polygon fill="#F4F4F4" points="336.965,53.884 329.209,61.641 327.793,60.228 337.011,51.007 342.653,57.027 342.653,37.904 
	323.527,37.904 329.641,43.64 320.795,52.483 319.382,51.067 326.766,43.686 318.478,35.905 344.655,35.901 344.655,62.089 "/>
<polygon fill="#F4F4F4" points="318.474,118.205 326.767,110.42 319.383,103.041 320.794,101.625 329.64,110.466 323.528,116.204 
	342.654,116.204 342.652,97.079 337.012,103.099 327.794,93.88 329.208,92.464 336.966,100.219 344.652,92.017 344.656,118.205 "/>
<polygon fill="#F4F4F4" points="261.178,118.203 261.178,92.022 268.866,100.221 276.624,92.465 276.626,92.465 278.038,93.879 
	268.821,103.095 263.179,97.078 263.179,116.204 282.303,116.204 276.191,110.467 285.037,101.625 286.449,103.04 279.064,110.419 
	287.358,118.203 "/>
<path fill="#F4F4F4" d="M288.118,96.142c-2.37-0.002-4.289-1.921-4.289-4.287l0,0V62.255c0-2.368,1.919-4.287,4.289-4.287l0,0
	l29.596-0.002c2.368,0.002,4.289,1.919,4.291,4.289l0,0l-0.002,29.597c0,2.368-1.921,4.287-4.291,4.289l0,0H288.118L288.118,96.142z
	 M285.828,62.255v29.599c0.002,1.261,1.026,2.284,2.29,2.286l0,0h29.596c1.264-0.002,2.286-1.024,2.288-2.288l0,0l0.002-29.597
	c-0.002-1.263-1.026-2.286-2.29-2.288l0,0h-29.596C286.853,59.969,285.83,60.993,285.828,62.255L285.828,62.255z"/>
<path fill="#F4F4F4" d="M291.092,77.125c-0.003-0.033-0.004-0.076,0-0.13l0,0c0.034-6.503,5.313-11.763,11.823-11.766l0,0
	c6.532,0.002,11.824,5.294,11.824,11.824l0,0h0.002c-0.002,6.532-5.294,11.824-11.826,11.826l0,0
	C296.408,88.877,291.13,83.624,291.092,77.125L291.092,77.125z M302.915,86.877c5.426-0.008,9.816-4.398,9.825-9.825l0,0
	c-0.011-5.424-4.399-9.814-9.825-9.822l0,0c-5.426,0.008-9.814,4.398-9.824,9.822l0,0C293.101,82.481,297.489,86.87,302.915,86.877
	L302.915,86.877z M293.09,77.003c-0.003-0.078-0.01-0.1-0.013-0.106l0,0C293.08,76.917,293.087,76.952,293.09,77.003L293.09,77.003z
	"/>
<polygon fill="#F4F4F4" points="261.107,291.442 261.107,289.442 344.234,289.442 344.234,291.442 "/>
<path fill="#F4F4F4" d="M269.195,339.724c-1.175-0.049-1.921-0.068-2.651-0.633l0,0c-0.726-0.664-0.68-1.441-0.715-2.022l0,0
	l-2.175-44.071h78.523l-2.173,44.055c-0.036,0.599,0.01,1.379-0.718,2.041l0,0c-0.73,0.563-1.478,0.584-2.649,0.629l0,0
	l-0.021-0.997v1L269.195,339.724L269.195,339.724z M268.085,337.634c0.23,0.045,0.614,0.078,1.128,0.089l0,0h67.383
	c0.771-0.005,1.227-0.095,1.361-0.144l0,0c0.021-0.088,0.038-0.3,0.047-0.609l0,0l2.072-41.973h-74.324l2.072,41.984
	c0.006,0.296,0.03,0.505,0.047,0.596l0,0C267.913,337.593,267.983,337.616,268.085,337.634L268.085,337.634z"/>
<path fill="#F4F4F4" d="M272.666,77.053c0-5.197,1.314-10.095,3.625-14.367l0,0l1.759,0.951c-2.159,3.992-3.383,8.557-3.383,13.416
	l0,0c0,5.306,1.46,10.265,4.002,14.505l0,0l-1.716,1.029C274.232,88.046,272.666,82.729,272.666,77.053L272.666,77.053z"/>
<path fill="#F4F4F4" d="M288.008,103.38l0.987-1.739c4.11,2.333,8.855,3.663,13.922,3.663l0,0c5.303,0,10.258-1.46,14.495-3.999l0,0
	h0.002l1.026,1.714c-4.537,2.719-9.853,4.285-15.523,4.285l0,0C297.499,107.306,292.406,105.877,288.008,103.38L288.008,103.38z"/>
<path fill="#F4F4F4" d="M327.016,91.802c2.634-4.295,4.15-9.341,4.15-14.748l0,0c0-5.238-1.423-10.136-3.905-14.34l0,0h0.002
	l1.721-1.018c2.657,4.501,4.185,9.754,4.185,15.357l0,0c0,5.785-1.628,11.196-4.447,15.792l0,0L327.016,91.802L327.016,91.802z"/>
<path fill="#F4F4F4" d="M288.457,52.779C288.457,52.779,288.458,52.779,288.457,52.779L288.457,52.779L288.457,52.779
	L288.457,52.779L288.457,52.779z M287.433,51.062c4.528-2.703,9.83-4.258,15.483-4.258l0,0c5.536,0,10.731,1.489,15.197,4.089l0,0
	l-1.011,1.728c-4.169-2.427-9.013-3.817-14.188-3.817l0,0c-5.287,0-10.227,1.45-14.458,3.975l0,0L287.433,51.062L287.433,51.062z"/>
</svg>
