<?xml version="1.0" encoding="utf-8"?>
<!-- Generator: Adobe Illustrator 13.0.0, SVG Export Plug-In . SVG Version: 6.00 Build 14948)  -->
<!DOCTYPE svg [
	<!ENTITY ns_flows "http://ns.adobe.com/Flows/1.0/">
	<!ENTITY ns_extend "http://ns.adobe.com/Extensibility/1.0/">
	<!ENTITY ns_ai "http://ns.adobe.com/AdobeIllustrator/10.0/">
	<!ENTITY ns_graphs "http://ns.adobe.com/Graphs/1.0/">
	<!ENTITY ns_vars "http://ns.adobe.com/Variables/1.0/">
	<!ENTITY ns_imrep "http://ns.adobe.com/ImageReplacement/1.0/">
	<!ENTITY ns_sfw "http://ns.adobe.com/SaveForWeb/1.0/">
	<!ENTITY ns_custom "http://ns.adobe.com/GenericCustomNamespace/1.0/">
	<!ENTITY ns_adobe_xpath "http://ns.adobe.com/XPath/1.0/">
]>
<svg version="1.2" baseProfile="tiny"
	 id="Layer_3" xmlns:x="&ns_extend;" xmlns:i="&ns_ai;" xmlns:graph="&ns_graphs;" xmlns:rdf="http://www.w3.org/1999/02/22-rdf-syntax-ns#" xmlns:dc="http://purl.org/dc/elements/1.1/" xmlns:cc="http://creativecommons.org/ns#"
	 xmlns="http://www.w3.org/2000/svg" xmlns:xlink="http://www.w3.org/1999/xlink" xmlns:a="http://ns.adobe.com/AdobeSVGViewerExtensions/3.0/"
	 x="0px" y="0px" width="598.189px" height="350.26px" viewBox="0 0 598.189 350.26" xml:space="preserve">
<metadata  id="metadata55">
	<rdf:RDF>
		<cc:Work  rdf:about="">
			<dc:format>image/svg+xml</dc:format>
			<dc:type  rdf:resource="http://purl.org/dc/dcmitype/StillImage"></dc:type>
			<dc:title></dc:title>
		</cc:Work>
	</rdf:RDF>
	<sfw  xmlns="&ns_sfw;">
		<slices></slices>
		<sliceSourceBounds  x="800.52" y="375.861" width="320.335" height="327.472" bottomLeftOrigin="true"></sliceSourceBounds>
	</sfw>
</metadata>
<path fill="#F4F4F4" d="M214.511,219.38l0.833-1.75c19.309,19.472,44.469,31.342,73.396,33.873l0,0l-0.174,1.992
	c-29.413-2.574-55.822-15.646-75.446-35.439L214.511,219.38z"/>
<path fill="#F4F4F4" d="M310.822,251.413c40.524-3.889,74.924-27.606,93.354-61.783l0,0h0.002l1.972,0.506
	c-18.737,34.746-53.925,59.312-95.136,63.27l0,0L310.822,251.413L310.822,251.413z"/>
<path fill="#F4F4F4" d="M415.845,158.213c1.931-8.52,2.771-16.479,2.771-25.584l0,0c0-0.912,0.085-0.842,0.063-1.75l0,0h0.003
	l1.901-1.023c0.021,0.92,0.031,1.846,0.031,2.772l0,0c0.002,9.254-1.035,18.268-2.998,26.931l0,0L415.845,158.213L415.845,158.213z"
	/>
<path fill="#F4F4F4" d="M299.283,13.296c-47.264,0-88.025,27.066-107.355,66.915l0,0v0.002l-1.879-0.467
	c19.651-40.516,61.181-68.45,109.234-68.45l0,0c57.373,0.002,105.446,39.819,118.086,93.337l0,0l-2.358-0.837
	C402.58,51.169,355.709,13.293,299.283,13.296L299.283,13.296z"/>
<path fill="#F4F4F4" d="M180.491,157.456l1.937,0.09c1.335,6.422,2.511,10.918,4.833,16.917l0,0l-1.168,1.961
	C183.731,170.325,181.849,163.986,180.491,157.456L180.491,157.456z"/>
<path fill="#F4F4F4" d="M241.282,126.963c0-21.668,0-99.667,0-99.667l0,0h2c0,0,0,19.5,0,41.709l0,0c0,22.206,0,47.125,0,57.958l0,0
	c0,15.468,6.267,29.46,16.402,39.598l0,0c10.138,10.135,24.132,16.4,39.598,16.4l0,0c15.466,0,29.46-6.267,39.598-16.4l0,0
	c10.136-10.138,16.402-24.132,16.402-39.598l0,0c0-23.167,0-100.166,0-100.166l0,0h2.001c-0.002,0.013-0.002,4.811,0,12.392l0,0
	c-0.002,7.581-0.002,17.929,0,29.002l0,0c-0.002,22.146-0.002,47.187,0,58.771l0,0c-0.002,32.034-25.97,58-58.001,58l0,0
	C267.248,184.962,241.282,158.998,241.282,126.963L241.282,126.963z"/>
<path fill="#F4F4F4" d="M267.533,140.504c-2.763,0-5.001-2.238-5.001-5.001l0,0V78.838c0-2.763,2.238-5.001,5.001-5.001l0,0h63.499
	c2.763,0,4.999,2.238,5.001,5.001l0,0v56.665h-0.002c0,2.763-2.236,5.001-4.999,5.001l0,0H267.533L267.533,140.504z M264.533,78.838
	v56.665c0.002,1.656,1.344,2.999,3,3l0,0h63.499c1.656-0.002,2.996-1.344,3.001-3l0,0h-0.002l0.002-56.665
	c-0.005-1.658-1.345-2.998-3.001-3.002l0,0h-63.499C265.876,75.84,264.535,77.181,264.533,78.838L264.533,78.838z"/>
<path fill="#F4F4F4" d="M264.973,144.439c-2.33-0.82-3.748-1.38-4.555-2.029l0,0c-1.626-1.626-2.636-3.882-2.636-6.363l0,0V77.754
	c0-2.483,1.01-4.739,2.694-6.417l0,0c0.75-0.595,2.167-1.157,4.498-1.977l0,0c2.298-0.787,5.359-1.694,8.913-2.554l0,0
	c7.109-1.721,16.175-3.26,24.959-3.26l0,0c11.596,0.004,25.542,2.857,32.835,4.884l0,0c2.455,0.692,4.07,1.225,4.903,1.71l0,0
	c2.521,1.593,4.195,4.409,4.198,7.613l0,0v58.292c-0.003,3.202-1.679,6.021-4.215,7.622l0,0c-0.816,0.477-2.433,1.008-4.888,1.702
	l0,0c-2.432,0.676-5.603,1.442-9.179,2.165l0,0c-7.155,1.444-15.927,2.717-23.658,2.719l0,0
	C285.67,150.25,271.857,146.796,264.973,144.439L264.973,144.439z M265.622,71.253c-2.192,0.731-3.75,1.475-3.789,1.551l0,0
	c-1.269,1.271-2.049,3.014-2.051,4.95l0,0v58.292c0.002,1.936,0.783,3.677,1.994,4.895l0,0c0.097,0.13,1.655,0.876,3.847,1.607l0,0
	c2.227,0.763,5.237,1.655,8.735,2.502l0,0c6.993,1.692,15.937,3.205,24.488,3.205l0,0c11.276,0.004,25.169-2.824,32.3-4.812l0,0
	c2.354-0.645,4.056-1.267,4.369-1.476l0,0c1.965-1.244,3.268-3.427,3.268-5.921l0,0V77.754c0-2.496-1.303-4.68-3.25-5.913l0,0
	c-0.331-0.219-2.033-0.841-4.387-1.485l0,0c-2.377-0.661-5.507-1.417-9.038-2.132l0,0c-7.063-1.428-15.745-2.68-23.261-2.678l0,0
	c-0.012,0-0.023,0-0.035,0l0,0C285.995,65.546,272.301,68.958,265.622,71.253L265.622,71.253z"/>
<path fill="#F4F4F4" d="M394.843,119.004c0.002-7.387,5.989-13.375,13.377-13.375l0,0c7.387,0,13.373,5.988,13.375,13.375l0,0
	c-0.002,7.386-5.988,13.374-13.375,13.375l0,0C400.832,132.378,394.845,126.391,394.843,119.004L394.843,119.004z M396.845,119.004
	c0.012,6.282,5.094,11.362,11.375,11.375l0,0c6.281-0.012,11.361-5.092,11.374-11.375l0,0c-0.013-6.282-5.093-11.364-11.374-11.374
	l0,0C401.937,107.642,396.854,112.724,396.845,119.004L396.845,119.004z"/>
<path fill="#F4F4F4" d="M394.843,173.255c0.002-7.388,5.989-13.375,13.377-13.375l0,0c7.387,0,13.373,5.987,13.375,13.375l0,0
	c-0.002,7.385-5.988,13.373-13.375,13.375l0,0C400.832,186.628,394.845,180.64,394.843,173.255L394.843,173.255z M396.845,173.255
	c0.012,6.279,5.094,11.363,11.375,11.373l0,0c6.279-0.01,11.361-5.094,11.374-11.373l0,0c-0.013-6.282-5.093-11.364-11.374-11.375
	l0,0C401.937,161.891,396.854,166.974,396.845,173.255L396.845,173.255z"/>
<path fill="#F4F4F4" d="M366.343,145.505c0.002-7.389,5.99-13.375,13.377-13.377l0,0c7.387,0.002,13.373,5.99,13.375,13.377l0,0
	c-0.002,7.385-5.988,13.373-13.375,13.375l0,0C372.331,158.878,366.345,152.891,366.343,145.505L366.343,145.505z M368.345,145.505
	c0.012,6.281,5.094,11.362,11.375,11.373l0,0c6.279-0.01,11.362-5.092,11.373-11.373l0,0c-0.011-6.283-5.092-11.365-11.373-11.375
	l0,0C373.437,134.141,368.354,139.223,368.345,145.505L368.345,145.505z"/>
<path fill="#F4F4F4" d="M421.343,145.504c0-7.388,5.99-13.374,13.376-13.376l0,0c7.388,0.002,13.374,5.988,13.376,13.376l0,0
	c-0.002,7.386-5.988,13.374-13.376,13.376l0,0C427.331,158.878,421.343,152.891,421.343,145.504L421.343,145.504z M423.344,145.504
	c0.011,6.281,5.095,11.363,11.375,11.375l0,0c6.281-0.013,11.363-5.094,11.373-11.375l0,0c-0.01-6.283-5.092-11.365-11.373-11.375
	l0,0C428.437,134.14,423.354,139.221,423.344,145.504L423.344,145.504z"/>
<g>
	<path fill="#F4F4F4" d="M192.721,338.768c-2.901-0.075-5.144-2.524-6.707-4.33l0,0c-13.808-16.521-25.661-42.856-30.04-61.243l0,0
		c-3.166-13.334-16.86-66.77-16.86-132.398l0,0c0-18.782,3.224-34.483,6.684-45.828l0,0c3.439-11.247,7.036-18.132,8.122-19.737l0,0
		c0.627-1.135,1.617-2.036,2.818-2.55l0,0c0.727-0.348,2.667-1.014,5.65-1.958l0,0c3.015-0.95,6.999-2.136,11.411-3.34l0,0
		c8.83-2.411,19.353-4.901,27.293-5.748l0,0h0.002l0.209,1.989c-11.597,1.229-29.36,6.18-38.314,9.006l0,0
		c-2.96,0.93-5.058,1.679-5.383,1.854l0,0l-0.04,0.019l-0.025,0.011c-0.806,0.34-1.473,0.95-1.886,1.716l0,0l-0.027,0.05
		l-0.034,0.048c-0.797,1.123-4.489,8.062-7.882,19.223l0,0c-3.411,11.186-6.596,26.693-6.596,45.245l0,0
		c0,65.371,13.638,118.603,16.806,131.935l0,0c4.271,18.033,16.104,44.277,29.626,60.423l0,0c1.408,1.741,3.613,3.69,5.173,3.614
		l0,0c0.657-0.012,1.278-0.23,2.035-1.049l0,0c0.743-0.818,1.54-2.27,2.236-4.551l0,0c3.147-10.256,8.152-32.625,14.01-49.861l0,0
		c5.886-17.318,21.102-43.045,23.045-47.11l0,0l1.802,0.866c-2.056,4.268-17.175,29.872-22.955,46.889l0,0
		c-5.809,17.098-10.802,39.396-13.991,49.805l0,0c-0.753,2.451-1.63,4.154-2.664,5.305l0,0c-1.013,1.139-2.262,1.707-3.479,1.707
		l0,0C192.748,338.768,192.734,338.768,192.721,338.768L192.721,338.768z"/>
	<path fill="#F4F4F4" d="M402.321,337.061c-1.036-1.149-1.911-2.854-2.664-5.306l0,0c-3.186-10.408-8.178-32.707-13.989-49.805l0,0
		c-5.777-17.016-20.897-42.619-22.955-46.888l0,0l1.803-0.866c1.942,4.064,17.158,29.792,23.046,47.11l0,0
		c5.856,17.237,10.864,39.604,14.01,49.864l0,0c0.695,2.279,1.49,3.729,2.233,4.547l0,0c0.755,0.818,1.378,1.039,2.036,1.05l0,0
		c1.563,0.075,3.768-1.873,5.174-3.614l0,0c13.525-16.146,25.354-42.39,29.627-60.423l0,0
		c3.168-13.332,16.807-66.565,16.807-131.935l0,0c0.002-18.552-3.186-34.059-6.596-45.245l0,0
		c-3.394-11.161-7.084-18.1-7.883-19.223l0,0l-0.035-0.05l-0.025-0.048c-0.411-0.766-1.08-1.376-1.948-1.746l0,0
		c-0.327-0.176-2.424-0.925-5.386-1.854l0,0c-2.987-0.942-6.95-2.121-11.337-3.319l0,0c-8.77-2.396-19.252-4.867-26.979-5.687l0,0
		l0.212-1.989c11.901,1.271,29.655,6.239,38.706,9.088l0,0c3.039,0.963,4.999,1.636,5.626,1.949l0,0
		c1.212,0.513,2.212,1.418,2.841,2.561l0,0c1.087,1.606,4.686,8.491,8.121,19.736l0,0c3.459,11.345,6.685,27.046,6.685,45.828l0,0
		c0,65.628-13.695,119.064-16.86,132.398l0,0c-4.377,18.387-16.23,44.723-30.04,61.243l0,0c-1.563,1.806-3.806,4.255-6.707,4.33l0,0
		c-0.013,0-0.025,0-0.04,0l0,0C404.582,338.768,403.334,338.2,402.321,337.061L402.321,337.061z"/>
</g>
<path fill="#F4F4F4" d="M299.281,279.962c-34.572,0-66.163,5.211-90.265,13.783l0,0v0.002l-0.67-1.887
	c24.378-8.668,56.161-13.896,90.935-13.896l0,0c34.808,0,66.621,5.24,91.01,13.924l0,0l-0.672,1.883
	C365.505,285.184,333.887,279.962,299.281,279.962L299.281,279.962z"/>
<path fill="#F4F4F4" d="M315.614,252.208h0.003l1.646-1.131c3.55,5.176,5.942,11.854,6.665,19.272l0,0l-1.99,0.192
	C321.249,263.436,318.95,257.066,315.614,252.208L315.614,252.208z"/>
<path fill="#F4F4F4" d="M274.632,270.37c0.72-7.416,3.109-14.095,6.654-19.272l0,0l1.65,1.128
	c-3.331,4.861-5.626,11.23-6.313,18.337l0,0v0.002L274.632,270.37L274.632,270.37z"/>
<path fill="#F4F4F4" d="M299.197,266.394c-7.576-0.014-13.408-0.84-14.466-1.129l0,0c-1.079-0.338-1.862-1.338-1.886-2.523l0,0
	c0-0.01,0-0.02,0-0.027l0,0c0-0.029,0-0.029,0-0.029l0,0c0-0.299,0.05-0.592,0.133-0.828l0,0c0.258-0.807,2.616-6.659,6.147-12.854
	l0,0c2.296-4.012,5.376-8.459,7.044-10.66l0,0c0.591-0.762,0.877-1.159,1.2-1.432l0,0c0.45-0.408,1.046-0.668,1.692-0.695l0,0
	c0.066-0.008,0.112-0.006,0.14-0.004l0,0c0.001,0,0.002,0,0.003,0l0,0c0.672,0.008,1.293,0.267,1.773,0.699l0,0
	c0.428,0.416,1.655,1.939,3.31,4.154l0,0c1.624,2.189,3.557,4.953,5.075,7.545l0,0c1.514,2.587,2.983,5.553,4.104,7.996l0,0
	c1.058,2.327,1.771,4.029,1.997,4.82l0,0c0.16,0.345,0.253,0.73,0.251,1.136l0,0v0.999h-0.188c-0.369,0.934-1.244,1.609-2.291,1.691
	l0,0l0,0c-0.635,0.049-6.979,1.141-14.021,1.141l0,0C299.211,266.394,299.204,266.394,299.197,266.394L299.197,266.394z
	 M284.845,262.698c0,0.311,0.206,0.569,0.464,0.65l0,0c0.522,0.167,6.553,1.057,13.888,1.044l0,0
	c6.915-0.002,12.973-1.054,13.876-1.134l0,0l0.083,0.998l-0.075-0.998c0.351-0.024,0.636-0.324,0.637-0.687l0,0
	c-0.002-0.015-0.003-0.032-0.002-0.06l0,0c-0.007-0.094-0.032-0.182-0.075-0.264l0,0l-0.063-0.123l-0.029-0.137
	c-0.021-0.177-0.807-2.193-1.896-4.551l0,0c-1.101-2.396-2.55-5.322-4.013-7.818l0,0c-1.459-2.492-3.357-5.215-4.955-7.363l0,0
	c-1.57-2.125-2.955-3.795-3.051-3.875l0,0c-0.117-0.1-0.255-0.162-0.416-0.172l0,0h-0.044c-0.171,0.002-0.324,0.063-0.5,0.211l0,0
	v0.002c0,0,0.001,0-0.007,0.008l0,0c-0.009,0.01-0.023,0.025-0.041,0.044l0,0c-0.048,0.052-0.119,0.133-0.202,0.233l0,0
	c-0.168,0.203-0.395,0.49-0.662,0.842l0,0c-0.534,0.705-1.233,1.67-2.009,2.783l0,0c-1.549,2.229-3.407,5.064-4.892,7.662l0,0
	c-3.434,5.994-5.829,11.961-5.983,12.482l0,0c-0.019,0.053-0.029,0.104-0.034,0.164l0,0L284.845,262.698L284.845,262.698z"/>
<path fill="#F4F4F4" d="M200.838,222.261c-4.125,0-8.065-0.817-11.659-2.301l0,0l-0.499-0.207l-0.102-0.529l-0.076-0.391
	l0.002-14.795h-14.813l-0.879-0.057l-0.24-0.574c-1.494-3.605-2.319-7.563-2.319-11.701l0,0c0-4.123,0.817-8.058,2.298-11.647l0,0
	l0.126-0.31l0.288-0.17l0.345-0.205h15.194v-15.19l0.188-0.261l0.331-0.457l0.263-0.11c3.614-1.506,7.406-2.263,11.551-2.261l0,0
	c4.123,0,8.06,0.817,11.65,2.298l0,0l0.443,0.182l0.137,0.459l0.104,0.346v14.993h15.262l0.296,0.312l0.308,0.321l0.072,0.174
	c1.512,3.615,2.313,7.363,2.311,11.527l0,0c0,4.109-0.813,8.035-2.286,11.621l0,0l-0.085,0.209l-0.174,0.154l-0.387,0.348
	l-15.318-0.002v15.063l-0.145,0.238l-0.294,0.488l-0.302,0.125c-3.611,1.508-7.423,2.309-11.577,2.309l0,0
	C200.849,222.261,200.844,222.261,200.838,222.261L200.838,222.261z M200.838,220.261c3.719,0,7.094-0.672,10.333-1.955l0,0v-14.639
	c-0.013-0.437,0.149-0.981,0.569-1.306l0,0c0.412-0.313,0.803-0.317,1.03-0.323l0,0h14.727c1.242-3.203,1.924-6.687,1.924-10.332
	l0,0c-0.002-3.748-0.679-7.072-1.984-10.334l0,0h-14.619v-1v-0.556v0.556v1c-0.405,0.014-0.97-0.142-1.301-0.582l0,0
	c-0.318-0.429-0.339-0.84-0.345-1.17l0,0v-14.599c-3.206-1.243-6.687-1.925-10.333-1.925l0,0c-3.733,0-7.093,0.641-10.335,1.924l0,0
	v14.585c-0.006,0.333-0.021,0.735-0.333,1.173l0,0c-0.329,0.449-0.904,0.61-1.307,0.594l0,0h-14.685
	c-1.242,3.205-1.924,6.688-1.924,10.336l0,0c0,3.646,0.681,7.127,1.925,10.332l0,0h14.698c0.491-0.022,1.082,0.219,1.357,0.655l0,0
	c0.273,0.418,0.263,0.776,0.269,0.956l0,0v14.684C193.708,219.579,197.19,220.261,200.838,220.261L200.838,220.261z
	 M212.818,179.521v-0.146V179.521L212.818,179.521z"/>
<path fill="#F4F4F4" d="M192.461,191.677c0.002-4.625,3.75-8.373,8.376-8.375l0,0c4.625,0.002,8.374,3.75,8.376,8.375l0,0
	c-0.002,4.627-3.75,8.375-8.376,8.377l0,0C196.212,200.052,192.463,196.304,192.461,191.677L192.461,191.677z M194.463,191.677
	c0.006,3.521,2.853,6.369,6.375,6.375l0,0c3.522-0.006,6.369-2.854,6.375-6.375l0,0c-0.006-3.52-2.853-6.367-6.375-6.373l0,0
	C197.316,185.31,194.469,188.157,194.463,191.677L194.463,191.677z"/>
<path fill="#F4F4F4" d="M143.47,117.691c0-20.332,16.481-36.813,36.813-36.813l0,0c20.332,0,36.812,16.481,36.812,36.813l0,0
	c0,20.332-16.48,36.813-36.812,36.813l0,0C159.951,154.503,143.47,138.022,143.47,117.691L143.47,117.691z M155.666,93.077
	c-6.302,6.302-10.196,15-10.196,24.615l0,0c0,9.616,3.894,18.313,10.196,24.618l0,0c6.303,6.3,15,10.194,24.616,10.194l0,0
	c9.616,0,18.313-3.894,24.615-10.194l0,0c6.303-6.305,10.197-15.001,10.197-24.618l0,0c0-9.616-3.894-18.313-10.197-24.615l0,0
	c-6.303-6.303-15-10.197-24.615-10.197l0,0C170.666,82.879,161.969,86.773,155.666,93.077L155.666,93.077z"/>
<path fill="#F4F4F4" d="M154.595,117.691c0-14.188,11.5-25.686,25.688-25.688l0,0c14.186,0.002,25.686,11.5,25.686,25.688l0,0
	c0,14.187-11.5,25.687-25.686,25.688l0,0C166.095,143.378,154.595,131.878,154.595,117.691L154.595,117.691z M156.594,117.691
	c0.022,13.082,10.605,23.664,23.689,23.687l0,0c13.082-0.022,23.662-10.604,23.687-23.687l0,0
	c-0.025-13.082-10.605-23.664-23.687-23.687l0,0C167.199,94.028,156.617,104.61,156.594,117.691L156.594,117.691z"/>
</svg>
