<?xml version="1.0" encoding="utf-8"?>
<!-- Generator: Adobe Illustrator 13.0.0, SVG Export Plug-In . SVG Version: 6.00 Build 14948)  -->
<!DOCTYPE svg [
	<!ENTITY ns_flows "http://ns.adobe.com/Flows/1.0/">
	<!ENTITY ns_extend "http://ns.adobe.com/Extensibility/1.0/">
	<!ENTITY ns_ai "http://ns.adobe.com/AdobeIllustrator/10.0/">
	<!ENTITY ns_graphs "http://ns.adobe.com/Graphs/1.0/">
	<!ENTITY ns_vars "http://ns.adobe.com/Variables/1.0/">
	<!ENTITY ns_imrep "http://ns.adobe.com/ImageReplacement/1.0/">
	<!ENTITY ns_sfw "http://ns.adobe.com/SaveForWeb/1.0/">
	<!ENTITY ns_custom "http://ns.adobe.com/GenericCustomNamespace/1.0/">
	<!ENTITY ns_adobe_xpath "http://ns.adobe.com/XPath/1.0/">
]>
<svg version="1.2" baseProfile="tiny"
	 id="Layer_3" xmlns:x="&ns_extend;" xmlns:i="&ns_ai;" xmlns:graph="&ns_graphs;" xmlns:rdf="http://www.w3.org/1999/02/22-rdf-syntax-ns#" xmlns:dc="http://purl.org/dc/elements/1.1/" xmlns:cc="http://creativecommons.org/ns#"
	 xmlns="http://www.w3.org/2000/svg" xmlns:xlink="http://www.w3.org/1999/xlink" xmlns:a="http://ns.adobe.com/AdobeSVGViewerExtensions/3.0/"
	 x="0px" y="0px" width="598.189px" height="350.26px" viewBox="0 0 598.189 350.26" xml:space="preserve">
<metadata  id="metadata55">
	<rdf:RDF>
		<cc:Work  rdf:about="">
			<dc:format>image/svg+xml</dc:format>
			<dc:type  rdf:resource="http://purl.org/dc/dcmitype/StillImage"></dc:type>
			<dc:title></dc:title>
		</cc:Work>
	</rdf:RDF>
	<sfw  xmlns="&ns_sfw;">
		<slices></slices>
		<sliceSourceBounds  x="717.15" y="440.91" width="477.926" height="200.871" bottomLeftOrigin="true"></sliceSourceBounds>
	</sfw>
</metadata>
<path id="path3" fill="#F4F4F4" d="M77.009,88.543c-4.303,0-7.798,3.495-7.798,7.798v27.028v125.116
	c0,4.303,3.496,7.822,7.798,7.822h433.85c4.304,0,7.799-3.52,7.799-7.822v-82.173c0-4.303-3.495-7.798-7.799-7.798H251.987
	c-2.768,0-4.417-0.694-5.425-1.792c-1.006-1.099-1.452-2.73-1.453-4.844V96.344c0-4.303-3.495-7.798-7.798-7.798h-35.165
	c-4.303,0-7.823,3.495-7.823,7.798v14.628c0,1.271-0.199,2.375-0.678,3.076c-0.479,0.701-1.221,1.139-2.81,1.139H123.29
	c-1.134,0-1.88-0.216-2.398-0.775c-0.517-0.56-0.896-1.6-0.896-3.439V96.345c-0.006-4.313-3.525-7.809-7.829-7.809H77.002
	L77.009,88.543z M77.009,90.093h35.166c3.465,0,6.272,2.783,6.272,6.249v14.628c0,2.048,0.414,3.513,1.308,4.48
	c0.894,0.968,2.171,1.284,3.536,1.284h67.545c1.929,0,3.323-0.69,4.093-1.816c0.77-1.127,0.945-2.535,0.945-3.948V96.341
	c0-3.466,2.807-6.249,6.273-6.249h35.165c3.465,0,6.248,2.783,6.248,6.249v55.532c0.001,2.329,0.497,4.393,1.865,5.886
	c1.368,1.492,3.531,2.301,6.563,2.301h258.87c3.467,0,6.249,2.784,6.249,6.248v82.173c0,3.466-2.782,6.271-6.249,6.271H77.01
	c-3.466,0-6.249-2.806-6.249-6.271V123.366V96.338c0-3.465,2.783-6.248,6.249-6.248L77.009,90.093z"/>
<path id="path5" fill="none" stroke="#F4F4F4" stroke-width="1.55" d="M195.104,167.793"/>
<path id="path7" fill="#F4F4F4" d="M253.027,92.805c-4.304,0-7.798,3.496-7.798,7.798v48.873c0,4.303,3.495,7.797,7.798,7.797
	h80.894c4.304,0,7.799-3.494,7.799-7.797v-48.873c0-4.306-3.495-7.801-7.797-7.801h-80.894L253.027,92.805z M253.027,94.355h80.894
	c3.466,0,6.249,2.783,6.249,6.248v48.873c0,3.466-2.783,6.249-6.249,6.249h-80.894c-3.466,0-6.249-2.783-6.249-6.249v-48.873
	C246.779,97.138,249.561,94.355,253.027,94.355z"/>
<path id="circle9" fill="#F4F4F4" d="M254.507,97.601c-2.667,0-4.843,2.2-4.843,4.868c0,2.668,2.176,4.844,4.843,4.844
	c2.668,0,4.868-2.176,4.868-4.844C259.375,99.801,257.175,97.601,254.507,97.601z M254.507,99.151c1.831,0,3.318,1.488,3.318,3.318
	s-1.488,3.293-3.318,3.293c-1.829,0-3.293-1.463-3.293-3.293S252.678,99.151,254.507,99.151z"/>
<path id="circle11" fill="#F4F4F4" d="M273.394,97.601c-2.667,0-4.844,2.2-4.844,4.868c0,2.668,2.177,4.844,4.844,4.844
	s4.843-2.176,4.843-4.844C278.237,99.801,276.062,97.601,273.394,97.601z M273.394,99.151c1.83,0,3.293,1.488,3.293,3.318
	s-1.464,3.293-3.293,3.293c-1.83,0-3.293-1.463-3.293-3.293S271.564,99.151,273.394,99.151z"/>
<path id="circle13" fill="#F4F4F4" d="M292.265,97.601c-2.667,0-4.843,2.2-4.843,4.868c0,2.668,2.176,4.844,4.843,4.844
	c2.667,0,4.868-2.176,4.868-4.844C297.133,99.801,294.932,97.601,292.265,97.601z M292.265,99.151c1.83,0,3.318,1.488,3.318,3.318
	s-1.488,3.293-3.318,3.293c-1.83,0-3.293-1.463-3.293-3.293S290.435,99.151,292.265,99.151z"/>
<path id="circle15" fill="#F4F4F4" d="M311.151,97.601c-2.668,0-4.844,2.2-4.844,4.868c0,2.668,2.176,4.844,4.844,4.844
	s4.843-2.176,4.843-4.844C315.994,99.801,313.819,97.601,311.151,97.601z M311.151,99.151c1.829,0,3.293,1.488,3.293,3.318
	s-1.464,3.293-3.293,3.293c-1.828,0-3.294-1.463-3.294-3.293S309.323,99.151,311.151,99.151z"/>
<path id="circle17" fill="#F4F4F4" d="M263.784,108.353c-2.667,0-4.868,2.176-4.868,4.844c0,2.667,2.2,4.843,4.868,4.843
	s4.844-2.176,4.844-4.843C268.627,110.529,266.451,108.353,263.784,108.353z M263.784,109.903c1.831,0,3.294,1.463,3.294,3.294
	c0,1.83-1.463,3.293-3.294,3.293c-1.83,0-3.317-1.463-3.317-3.293C260.466,111.367,261.954,109.903,263.784,109.903z"/>
<path id="circle19" fill="#F4F4F4" d="M282.647,108.353c-2.667,0-4.843,2.176-4.843,4.844c0,2.667,2.176,4.843,4.843,4.843
	s4.844-2.176,4.844-4.843C287.492,110.529,285.315,108.353,282.647,108.353z M282.647,109.903c1.83,0,3.293,1.463,3.293,3.294
	c0,1.83-1.463,3.293-3.293,3.293s-3.293-1.463-3.293-3.293C279.354,111.367,280.817,109.903,282.647,109.903z"/>
<path id="circle21" fill="#F4F4F4" d="M301.542,108.353c-2.668,0-4.868,2.176-4.868,4.844c0,2.667,2.2,4.843,4.868,4.843
	s4.845-2.176,4.845-4.843C306.387,110.529,304.21,108.353,301.542,108.353z M301.542,109.903c1.83,0,3.295,1.463,3.295,3.294
	c0,1.83-1.465,3.293-3.295,3.293s-3.318-1.463-3.318-3.293C298.224,111.367,299.712,109.903,301.542,109.903z"/>
<path id="circle23" fill="#F4F4F4" d="M320.405,108.353c-2.668,0-4.844,2.176-4.844,4.844c0,2.667,2.176,4.843,4.844,4.843
	s4.844-2.176,4.844-4.843C325.249,110.529,323.073,108.353,320.405,108.353z M320.405,109.903c1.83,0,3.294,1.463,3.294,3.294
	c0,1.83-1.464,3.293-3.294,3.293s-3.293-1.463-3.293-3.293C317.112,111.367,318.575,109.903,320.405,109.903z"/>
<path id="circle25" fill="#F4F4F4" d="M263.784,129.811c-2.667,0-4.868,2.176-4.868,4.844c0,2.668,2.2,4.844,4.868,4.844
	s4.844-2.176,4.844-4.844C268.627,131.987,266.451,129.811,263.784,129.811z M263.784,131.361c1.831,0,3.294,1.463,3.294,3.293
	s-1.463,3.293-3.294,3.293c-1.83,0-3.317-1.463-3.317-3.293S261.954,131.361,263.784,131.361z"/>
<path id="circle27" fill="#F4F4F4" d="M282.647,129.811c-2.667,0-4.843,2.176-4.843,4.844c0,2.668,2.176,4.844,4.843,4.844
	s4.844-2.176,4.844-4.844C287.492,131.987,285.315,129.811,282.647,129.811z M282.647,131.361c1.83,0,3.293,1.463,3.293,3.293
	s-1.463,3.293-3.293,3.293s-3.293-1.463-3.293-3.293S280.817,131.361,282.647,131.361z"/>
<path id="circle29" fill="#F4F4F4" d="M301.542,129.811c-2.668,0-4.868,2.176-4.868,4.844c0,2.668,2.2,4.844,4.868,4.844
	s4.845-2.176,4.845-4.844C306.387,131.987,304.21,129.811,301.542,129.811z M301.542,131.361c1.83,0,3.295,1.463,3.295,3.293
	s-1.465,3.293-3.295,3.293s-3.318-1.463-3.318-3.293S299.712,131.361,301.542,131.361z"/>
<path id="circle31" fill="#F4F4F4" d="M320.405,129.811c-2.668,0-4.844,2.176-4.844,4.844c0,2.668,2.176,4.844,4.844,4.844
	s4.844-2.176,4.844-4.844C325.249,131.987,323.073,129.811,320.405,129.811z M320.405,131.361c1.83,0,3.294,1.463,3.294,3.293
	s-1.464,3.293-3.294,3.293s-3.293-1.463-3.293-3.293S318.575,131.361,320.405,131.361z"/>
<path id="circle33" fill="#F4F4F4" d="M330.023,97.601c-2.669,0-4.844,2.2-4.844,4.868c0,2.668,2.175,4.844,4.844,4.844
	c2.667,0,4.868-2.176,4.868-4.844C334.892,99.801,332.69,97.601,330.023,97.601z M330.023,99.151c1.83,0,3.318,1.488,3.318,3.318
	s-1.488,3.293-3.318,3.293c-1.831,0-3.294-1.463-3.294-3.293S328.192,99.151,330.023,99.151z"/>
<path id="circle35" fill="#F4F4F4" d="M254.507,118.792c-2.667,0-4.843,2.2-4.843,4.868c0,2.667,2.176,4.844,4.843,4.844
	c2.668,0,4.868-2.176,4.868-4.844C259.375,120.992,257.175,118.792,254.507,118.792z M254.507,120.341
	c1.831,0,3.318,1.488,3.318,3.318c0,1.83-1.488,3.294-3.318,3.294c-1.829,0-3.293-1.464-3.293-3.294
	C251.213,121.83,252.678,120.341,254.507,120.341z"/>
<path id="circle37" fill="#F4F4F4" d="M273.394,118.792c-2.667,0-4.844,2.2-4.844,4.868c0,2.667,2.177,4.844,4.844,4.844
	s4.843-2.176,4.843-4.844C278.237,120.992,276.062,118.792,273.394,118.792z M273.394,120.341c1.83,0,3.293,1.488,3.293,3.318
	c0,1.83-1.464,3.294-3.293,3.294c-1.83,0-3.293-1.464-3.293-3.294C270.101,121.83,271.564,120.341,273.394,120.341z"/>
<path id="circle39" fill="#F4F4F4" d="M292.265,118.792c-2.667,0-4.843,2.2-4.843,4.868c0,2.667,2.176,4.844,4.843,4.844
	c2.667,0,4.868-2.176,4.868-4.844C297.133,120.992,294.932,118.792,292.265,118.792z M292.265,120.341
	c1.83,0,3.318,1.488,3.318,3.318c0,1.83-1.488,3.294-3.318,3.294c-1.83,0-3.293-1.464-3.293-3.294
	C288.971,121.83,290.435,120.341,292.265,120.341z"/>
<path id="circle41" fill="#F4F4F4" d="M311.151,118.792c-2.668,0-4.844,2.2-4.844,4.868c0,2.667,2.176,4.844,4.844,4.844
	s4.843-2.176,4.843-4.844C315.994,120.992,313.819,118.792,311.151,118.792z M311.151,120.341c1.829,0,3.293,1.488,3.293,3.318
	c0,1.83-1.464,3.294-3.293,3.294c-1.828,0-3.294-1.464-3.294-3.294C307.857,121.83,309.323,120.341,311.151,120.341z"/>
<path id="circle43" fill="#F4F4F4" d="M330.023,118.792c-2.669,0-4.844,2.2-4.844,4.868c0,2.667,2.175,4.844,4.844,4.844
	c2.667,0,4.868-2.176,4.868-4.844C334.892,120.992,332.69,118.792,330.023,118.792z M330.023,120.341
	c1.83,0,3.318,1.488,3.318,3.318c0,1.83-1.488,3.294-3.318,3.294c-1.831,0-3.294-1.464-3.294-3.294
	C326.729,121.83,328.192,120.341,330.023,120.341z"/>
<path id="circle45" fill="#F4F4F4" d="M254.507,140.007c-2.667,0-4.843,2.176-4.843,4.844c0,2.667,2.176,4.843,4.843,4.843
	c2.668,0,4.868-2.176,4.868-4.843C259.375,142.183,257.175,140.007,254.507,140.007z M254.507,141.557
	c1.831,0,3.318,1.464,3.318,3.294c0,1.83-1.488,3.293-3.318,3.293c-1.829,0-3.293-1.464-3.293-3.293
	C251.213,143.021,252.678,141.557,254.507,141.557z"/>
<path id="circle47" fill="#F4F4F4" d="M273.394,140.007c-2.667,0-4.844,2.176-4.844,4.844c0,2.667,2.177,4.843,4.844,4.843
	s4.843-2.176,4.843-4.843C278.237,142.183,276.062,140.007,273.394,140.007z M273.394,141.557c1.83,0,3.293,1.464,3.293,3.294
	c0,1.83-1.464,3.293-3.293,3.293c-1.83,0-3.293-1.464-3.293-3.293C270.101,143.021,271.564,141.557,273.394,141.557z"/>
<path id="circle49" fill="#F4F4F4" d="M292.265,140.007c-2.667,0-4.843,2.176-4.843,4.844c0,2.667,2.176,4.843,4.843,4.843
	c2.667,0,4.868-2.176,4.868-4.843C297.133,142.183,294.932,140.007,292.265,140.007z M292.265,141.557
	c1.83,0,3.318,1.464,3.318,3.294c0,1.83-1.488,3.293-3.318,3.293c-1.83,0-3.293-1.464-3.293-3.293
	C288.971,143.021,290.435,141.557,292.265,141.557z"/>
<path id="circle51" fill="#F4F4F4" d="M311.151,140.007c-2.668,0-4.844,2.176-4.844,4.844c0,2.667,2.176,4.843,4.844,4.843
	s4.843-2.176,4.843-4.843C315.994,142.183,313.819,140.007,311.151,140.007z M311.151,141.557c1.829,0,3.293,1.464,3.293,3.294
	c0,1.83-1.464,3.293-3.293,3.293c-1.828,0-3.294-1.464-3.294-3.293C307.857,143.021,309.323,141.557,311.151,141.557z"/>
<path id="circle53" fill="#F4F4F4" d="M330.023,140.007c-2.669,0-4.844,2.176-4.844,4.844c0,2.667,2.175,4.843,4.844,4.843
	c2.667,0,4.868-2.176,4.868-4.843C334.892,142.183,332.69,140.007,330.023,140.007z M330.023,141.557
	c1.83,0,3.318,1.464,3.318,3.294c0,1.83-1.488,3.293-3.318,3.293c-1.831,0-3.294-1.464-3.294-3.293
	C326.729,143.021,328.192,141.557,330.023,141.557z"/>
<path id="path55" fill="#F4F4F4" d="M125.881,99.828c-1.645,0-3.003,1.358-3.003,3.003v6.466c0,1.646,1.358,3.003,3.003,3.003h62.75
	c1.646,0,2.979-1.357,2.979-3.003v-6.466c0-1.646-1.333-3.003-2.979-3.003H125.881z M125.881,101.378h62.75
	c0.809,0,1.429,0.645,1.429,1.453v6.466c0,0.808-0.621,1.453-1.429,1.453h-62.75c-0.808,0-1.453-0.646-1.453-1.453v-6.466
	C124.429,102.023,125.074,101.378,125.881,101.378z"/>
<path id="path57" fill="#F4F4F4" d="M135.135,99.828c-1.645,0-3.003,1.358-3.003,3.003v6.103c0,1.646,1.358,3.003,3.003,3.003
	h24.243c1.646,0,3.003-1.357,3.003-3.003v-6.103c0-1.646-1.358-3.003-3.003-3.003H135.135z M135.135,101.378h24.243
	c0.808,0,1.454,0.645,1.454,1.453v6.103c0,0.808-0.646,1.453-1.454,1.453h-24.243c-0.808,0-1.453-0.645-1.453-1.453v-6.103
	C133.682,102.023,134.327,101.378,135.135,101.378z"/>
<path id="circle59" fill="#F4F4F4" d="M394.394,187.138c-15.292,0-27.706,12.414-27.706,27.706s12.414,27.706,27.706,27.706
	s27.705-12.414,27.705-27.706S409.686,187.138,394.394,187.138z M394.394,188.688c14.455,0,26.155,11.702,26.155,26.156
	S408.849,241,394.394,241c-14.454,0-26.156-11.702-26.156-26.156S379.939,188.688,394.394,188.688z"/>
<path id="circle61" fill="#F4F4F4" d="M394.394,192.245c-12.48,0-22.621,10.114-22.621,22.596c0,12.48,10.141,22.621,22.621,22.621
	c12.481,0,22.621-10.141,22.621-22.621C417.015,202.359,406.875,192.245,394.394,192.245z M394.394,193.795
	c11.645,0,21.071,9.403,21.071,21.046c0,11.644-9.427,21.071-21.071,21.071c-11.644,0-21.07-9.428-21.07-21.071
	S382.75,193.795,394.394,193.795z"/>
<path id="circle63" fill="#F4F4F4" d="M458.261,187.138c-15.291,0-27.706,12.414-27.706,27.706s12.415,27.706,27.706,27.706
	c15.292,0,27.706-12.414,27.706-27.706S473.553,187.138,458.261,187.138z M458.261,188.688c14.455,0,26.156,11.702,26.156,26.156
	S472.716,241,458.261,241c-14.454,0-26.156-11.702-26.156-26.156S443.807,188.688,458.261,188.688z"/>
<path id="circle65" fill="#F4F4F4" d="M458.261,192.245c-12.48,0-22.62,10.114-22.62,22.596c0,12.48,10.14,22.621,22.62,22.621
	c12.481,0,22.596-10.141,22.596-22.621C480.856,202.359,470.742,192.245,458.261,192.245z M458.261,193.795
	c11.645,0,21.046,9.403,21.046,21.046c0,11.644-9.403,21.071-21.046,21.071s-21.07-9.428-21.07-21.071
	S446.618,193.795,458.261,193.795z"/>
<path id="path67" fill="#F4F4F4" d="M117.647,141.727c-3.69,0-6.709,2.995-6.709,6.685v19.205c0,1.251-0.127,1.826-0.194,1.914
	c-0.033,0.043-0.041,0.074-0.242,0.121s-0.569,0.073-1.065,0.073H89.626c-3.69,0-6.684,3.019-6.684,6.709v30.854
	c0,3.689,2.994,6.684,6.684,6.684h19.617c0.632,0,1.097,0.015,1.38,0.049c0.283,0.034,0.352,0.105,0.314,0.071
	c-0.036-0.031-0.02-0.098,0,0.073c0.021,0.173,0,0.502,0,0.945v20.173c0,3.69,3.019,6.709,6.709,6.709h30.854
	c3.69,0,6.684-3.019,6.684-6.709v-20.101c0-0.35,0.02-0.638,0.048-0.8c0.029-0.161,0.051-0.171,0.073-0.193
	c0.044-0.045,0.418-0.236,1.501-0.218h0.024h19.666c3.69,0,6.708-2.994,6.708-6.685v-30.854c0-3.689-3.018-6.708-6.708-6.708H156.76
	c-0.475,0-0.813-0.02-1.018-0.073c-0.205-0.053-0.265-0.107-0.314-0.169c-0.1-0.124-0.243-0.668-0.243-1.816V148.41
	c0-3.689-2.994-6.685-6.684-6.685L117.647,141.727L117.647,141.727z M117.647,143.276h30.854c2.852,0,5.134,2.283,5.134,5.135
	v19.254c0,1.219,0.014,2.082,0.581,2.785c0.284,0.352,0.714,0.593,1.139,0.702c0.424,0.11,0.87,0.122,1.405,0.122h19.738
	c2.852,0,5.159,2.306,5.159,5.159v30.854c0,2.852-2.307,5.134-5.159,5.134h-19.666c-1.215-0.021-2.056,0.084-2.64,0.679
	c-0.292,0.296-0.422,0.667-0.485,1.017c-0.063,0.348-0.072,0.696-0.072,1.065v20.102c0,2.853-2.282,5.159-5.134,5.159h-30.854
	c-2.853,0-5.159-2.307-5.159-5.159v-20.174c0-0.431,0.018-0.763-0.024-1.114c-0.042-0.351-0.175-0.773-0.509-1.065
	s-0.718-0.384-1.138-0.436c-0.419-0.051-0.926-0.073-1.574-0.073H89.627c-2.853,0-5.134-2.281-5.134-5.134v-30.854
	c0-2.853,2.281-5.159,5.134-5.159h19.81c0.541,0,0.983,0.003,1.405-0.097c0.421-0.098,0.86-0.338,1.138-0.702
	c0.556-0.726,0.509-1.564,0.509-2.858v-19.205c0-2.852,2.306-5.134,5.159-5.134L117.647,143.276z"/>
<path id="path69" fill="#F4F4F4" d="M117.502,146.353c-1.01,0-1.841,0.831-1.841,1.841v25.938c0,0.171-0.034,0.217-0.097,0.217
	h-26.06c-1.009,0-1.84,0.855-1.84,1.865v31.098c0,1.009,0.831,1.84,1.84,1.84h26.01h0.025c0.094,0.008,0.157,0.034,0.145,0.024
	c-0.014-0.012-0.024-0.053-0.024,0.024v26.495c0,1.01,0.831,1.84,1.841,1.84h31.121c1.009,0,1.84-0.83,1.84-1.84V209.2
	c0-0.03-0.078-0.049,0.146-0.049h26.035c1.01,0,1.841-0.831,1.841-1.84v-31.098c0-1.009-0.831-1.865-1.841-1.865h-26.059
	c-0.054,0-0.121-0.042-0.121-0.193v-25.962c0-1.01-0.831-1.841-1.84-1.841H117.502L117.502,146.353z M117.502,147.903h31.121
	c0.171,0,0.291,0.119,0.291,0.291v25.962c0,0.897,0.699,1.744,1.671,1.744h26.059c0.173,0,0.291,0.142,0.291,0.314v31.098
	c0,0.171-0.118,0.29-0.291,0.29h-26.035c-0.937,0-1.695,0.78-1.695,1.599v26.495c0,0.173-0.12,0.29-0.291,0.29h-31.121
	c-0.171,0-0.291-0.117-0.291-0.29V209.2c0-0.437-0.177-0.896-0.509-1.187c-0.331-0.292-0.744-0.412-1.162-0.412H89.505
	c-0.173,0-0.291-0.119-0.291-0.29v-31.098c0-0.173,0.118-0.314,0.291-0.314h26.06c0.985,0,1.647-0.893,1.647-1.768v-25.938
	C117.211,148.022,117.331,147.902,117.502,147.903L117.502,147.903z"/>
<path id="circle71" fill="#F4F4F4" d="M133.075,179.821c-6.629,0-12.037,5.408-12.037,12.037s5.408,12.012,12.037,12.012
	c6.628,0,12.012-5.383,12.012-12.012S139.703,179.821,133.075,179.821z M133.075,181.371c5.791,0,10.462,4.695,10.462,10.487
	c0,5.791-4.671,10.462-10.462,10.462c-5.792,0-10.487-4.671-10.487-10.462C122.588,186.066,127.283,181.371,133.075,181.371z"/>
<path id="path73" fill="none" stroke="#F4F4F4" stroke-width="1.55" d="M114.776,189.749"/>
<path id="polygon75" fill="#F4F4F4" d="M104.594,180.644l-1.308,1.332l-9.324,9.324l-0.557,0.557l0.557,0.533l9.324,9.348
	l1.308,1.308v-1.864v-1.89h8.234h0.775v-0.774v-13.321v-0.775h-0.775h-8.234v-1.889v-1.89V180.644z M103.043,184.397v0.799v0.775
	h0.775h8.234v11.77h-8.234h-0.775v0.775v0.775l-7.435-7.436L103.043,184.397L103.043,184.397z"/>
<path id="polygon77" fill="#F4F4F4" d="M125.64,211.311v0.774v8.234h-1.889h-1.889l1.332,1.332l9.324,9.324l0.557,0.557l0.532-0.557
	l9.349-9.324l1.307-1.332h-1.864h-1.889v-8.234v-0.774h-0.775h-13.321H125.64L125.64,211.311z M127.19,212.86h11.77v8.234v0.774
	h0.775h0.775l-7.46,7.459l-7.435-7.459h0.799h0.775v-0.774L127.19,212.86L127.19,212.86z"/>
<path id="polygon79" fill="#F4F4F4" d="M161.531,180.644v1.889v1.889h-8.234h-0.775v0.775v13.32v0.775h0.775h8.234v1.889v1.865
	l1.332-1.309l9.324-9.354l0.557-0.535l-0.557-0.559l-9.324-9.322l-1.333-1.334L161.531,180.644z M163.082,184.397l7.459,7.459
	l-7.459,7.436v-0.775v-0.775h-0.775h-8.235v-11.77h8.235h0.775v-0.775V184.397L163.082,184.397z"/>
<path id="polygon81" fill="#F4F4F4" d="M133.075,152.193l-0.557,0.557l-9.324,9.324l-1.332,1.308h1.889h1.889v8.234v0.775h0.775
	h13.321h0.775v-0.775v-8.234h1.889h1.864l-1.308-1.308l-9.348-9.324L133.075,152.193L133.075,152.193z M133.05,154.373l7.46,7.459
	h-0.775h-0.775v0.775v8.234h-11.771v-8.234v-0.775h-0.775h-0.798L133.05,154.373L133.05,154.373z"/>
<path id="path83" fill="#F4F4F4" d="M72.165,72.849c-9.068,0-16.42,7.566-16.42,16.856v167.159c0,9.291,7.352,16.855,16.42,16.855
	h445.109c9.068,0,16.396-7.564,16.396-16.855V89.705c0-9.29-7.332-16.856-16.398-16.856H72.162H72.165z M72.165,74.399h445.109
	c8.207,0,14.847,6.831,14.847,15.306v167.159c0,8.476-6.64,15.306-14.847,15.306H72.165c-8.208,0-14.872-6.828-14.872-15.306V89.705
	C57.293,81.229,63.957,74.399,72.165,74.399L72.165,74.399z"/>
<path id="path85" fill="#F4F4F4" d="M294.923,169.677c-5.3,0-9.614,4.315-9.614,9.615v0.774h0.775h17.679h0.775v-0.774
	C304.538,173.992,300.223,169.677,294.923,169.677z M294.923,171.227c4.188,0,7.516,3.211,7.92,7.29h-15.839
	C287.409,174.438,290.734,171.227,294.923,171.227z"/>
<path id="path87" fill="#F4F4F4" d="M294.923,166.941c-6.807,0-12.327,5.544-12.327,12.352h1.55c0-5.97,4.809-10.802,10.777-10.802
	c5.971,0,10.802,4.833,10.802,10.802h1.55C307.274,172.485,301.731,166.941,294.923,166.941z"/>
</svg>
