<?xml version="1.0" encoding="UTF-8" standalone="no"?>
<svg
   xmlns:dc="http://purl.org/dc/elements/1.1/"
   xmlns:cc="http://creativecommons.org/ns#"
   xmlns:rdf="http://www.w3.org/1999/02/22-rdf-syntax-ns#"
   xmlns:svg="http://www.w3.org/2000/svg"
   xmlns="http://www.w3.org/2000/svg"
   xmlns:sodipodi="http://sodipodi.sourceforge.net/DTD/sodipodi-0.dtd"
   xmlns:inkscape="http://www.inkscape.org/namespaces/inkscape"
   id="svg"
   version="1.1"
   width="400"
   height="204.08163265306123"
   viewBox="0, 0, 400,204.08163265306123"
   sodipodi:docname="fpinball.svg"
   inkscape:version="0.92.4 (5da689c313, 2019-01-14)">
  <metadata
     id="metadata10">
    <rdf:RDF>
      <cc:Work
         rdf:about="">
        <dc:format>image/svg+xml</dc:format>
        <dc:type
           rdf:resource="http://purl.org/dc/dcmitype/StillImage" />
      </cc:Work>
    </rdf:RDF>
  </metadata>
  <defs
     id="defs8" />
  <sodipodi:namedview
     pagecolor="#ffffff"
     bordercolor="#666666"
     borderopacity="1"
     objecttolerance="10"
     gridtolerance="10"
     guidetolerance="10"
     inkscape:pageopacity="0"
     inkscape:pageshadow="2"
     inkscape:window-width="640"
     inkscape:window-height="480"
     id="namedview6"
     showgrid="false"
     inkscape:zoom="2.5243712"
     inkscape:cx="214.43594"
     inkscape:cy="101.28911"
     inkscape:current-layer="svgg" />
  <g
     id="svgg"
     transform="matrix(0.88412566,0,0,0.84665516,29.31579,13.864839)"
     style="fill:#c83737">
    <path
       style="fill:#800000;fill-rule:evenodd;stroke:none"
       d="m 207.40234,4.6679688 c 0.57141,-0.083849 -0.42469,-0.4492539 0,0 z m 36.625,13.0175782 c -0.20317,0.58932 0.56323,-0.120845 0,0 z m 0.78711,0.423828 c -0.0435,0.668589 0.63588,-0.276667 0,0 z m -24.51757,11.644531 c 0.0961,0.607026 0.52964,-0.343049 0,0 z m -0.70508,0.447266 c -0.15952,0.517756 0.32137,-0.09607 0,0 z m -25.18164,3.824219 c -0.0696,0.600418 0.5819,-0.224194 0,0 z m 67.19922,1.320312 c 0.001,0.170107 0.12036,-0.142206 0,0 z M 19.449219,42.607422 c 0.676263,0.114154 0.05206,-0.532217 0,0 z M 207.64258,60.96875 c 0.38365,0.68282 0.4499,-0.426596 0,0 z m 53.91406,6.466797 c 0.0834,0.261223 0.24509,-0.109881 0,0 z m 70.62305,4.378906 c 0.76283,0.04368 -0.0215,0.08003 0,0 z m -0.82031,0.574219 c 0.8123,0.269775 -0.1267,-0.624358 0,0 z m -0.84766,0.273437 c 0.12131,0.461762 0.51192,-0.203339 0,0 z m -0.80078,0.25586 c -0.17683,0.505062 0.63081,0.330942 0,0 z m -0.76367,0.542969 c 0.04,0.453028 0.50318,-0.10918 0,0 z m -0.82227,0.328124 c -0.22912,0.606758 0.62566,-0.05868 0,0 z m 19.31445,5.976563 c -0.31981,0.512488 0.65741,0.173397 0,0 z m -32.33203,0.701172 c 0.14558,0.226983 0.0514,-0.224888 0,0 z m -0.88867,0.246094 c -0.24564,0.487761 0.68706,0.251436 0,0 z m -0.84766,0.419921 c -0.11558,0.514514 0.56412,0.0019 0,0 z m -0.83593,0.482422 c 0.0928,0.520785 0.5836,-0.118769 0,0 z m -0.77344,0.453125 c 0.2449,0.539966 0.44539,-0.348841 0,0 z m -0.76367,0.310547 c -0.25434,0.555271 0.58703,-0.04294 0,0 z m -0.86328,0.429688 c -0.14973,0.480932 0.62744,-0.162024 0,0 z m -0.79883,0.394531 c -0.17525,0.559853 0.55506,-0.156498 0,0 z m -0.85742,0.414063 c -0.0562,0.734042 0.57458,-0.0702 0,0 z m -62.88672,0.484374 c 0.27117,0.565773 0.43838,-0.479017 0,0 z m -0.76563,0.333985 c -0.0734,0.587453 0.52927,-0.199466 0,0 z M 14.896484,90.158203 c -0.07259,0.396992 0.321742,-0.07127 0,0 z m 0.328125,0.808594 c -0.04821,0.563882 0.549445,-0.238885 0,0 z m 305.363281,2.517578 c 0.16351,-0.0701 -0.19788,-0.09702 0,0 z m -0.85156,0.117187 c -0.17519,0.537533 0.58362,-0.07432 0,0 z m -284.367189,0.03906 c -0.08298,0.697827 0.641271,-0.22634 0,0 z m 283.531249,0.384766 c -0.0695,0.600418 0.5819,-0.224194 0,0 z m -282.605468,0.07617 c -0.08035,0.250165 0.191873,-0.110338 0,0 z m 251.439458,0.119141 c -0.0703,0.469019 0.52894,0.01341 0,0 z m -0.90821,0.574219 c 0.40658,0.27315 0.42198,-0.556564 0,0 z M 317.25,95.005859 c 0.14042,0.291937 0.12275,-0.238665 0,0 z M 3.1777344,96.529297 c 0.041229,0.24505 0.2261904,-0.07701 0,0 z M 205.71484,97.265625 c -0.30066,0.633497 0.69053,0.04251 0,0 z m 41.76758,0.960937 c -0.0316,0.411547 0.25611,-0.17255 0,0 z m -10.88672,2.541018 c 0.10197,0.39857 0.39074,-0.2365 0,0 z m 1.00586,1.25 c 0.17869,0.0216 -0.14714,-0.17497 0,0 z m 34.13672,0.39844 c 0.0873,0.62092 0.57816,-0.33234 0,0 z m -0.87305,0.51367 c -0.006,0.13071 0.13656,-0.11113 0,0 z m 30.50391,0.0723 c -0.13393,0.51277 0.53625,-0.17906 0,0 z m -0.80859,0.38477 c -0.15371,0.64899 0.62795,-0.16766 0,0 z m -40.58399,5.12109 c -0.4958,0.43487 0.53803,0.22327 0,0 z m 27.89649,1.45703 c 0.0183,0.67682 0.55088,-0.32239 0,0 z m -0.76172,0.38086 c -0.26581,0.59799 0.55279,-0.11755 0,0 z m -11.0586,5.79102 c 0.0977,0.52676 0.52088,-0.3097 0,0 z m -0.81835,0.33984 c -0.0734,0.58746 0.52926,-0.19946 0,0 z m 108.65039,1.98242 c 0.38309,0.5477 0.43009,-0.5145 0,0 z m -150.51563,4.07618 c 0.32611,0.4796 0.39361,-0.63674 0,0 z m 21.51367,4.74218 c 0.40616,0.46847 0.31952,-0.39763 0,0 z m 116.48828,4.08594 c -0.15157,0.6425 0.59818,-0.17218 0,0 z m -0.8457,0.44922 c 0.33792,0.61495 0.30477,-0.41368 0,0 z m -132.00195,3.85352 c -0.0537,0.70884 0.61733,-0.22204 0,0 z m -0.85742,0.43554 c -0.0805,0.55751 0.64752,-0.2655 0,0 z m -13.06055,6.91211 c 0.0548,0.61247 0.57233,-0.29848 0,0 z m -26.41602,4.78906 c -0.0446,0.65223 0.54087,-0.24936 0,0 z m 12.42578,27.49415 c -0.063,0.18632 0.15014,-0.0834 0,0 z m -57.61718,10.34374 c -0.18416,0.53841 0.58837,-0.10657 0,0 z m -4.52344,4.56446 c 0.0297,0.57488 0.52911,-0.25226 0,0 z m 5.76172,12.5 c 0.13725,0.8805 0.48136,-0.39258 0,0 z"
       id="path0"
       inkscape:connector-curvature="0" />
    <path
       style="fill:#ffffff;fill-rule:evenodd;stroke:none"
       d="m 226.18555,5.5605469 c -17.2111,0.6890484 -32.81901,12.3761051 -40.16743,27.6934791 -2.48106,4.976578 -3.49082,10.536718 -3.51592,16.066427 -0.32098,8.326201 0.93651,16.974394 5.52423,24.099729 7.92344,13.233957 22.20356,23.102848 37.82692,23.820592 18.62434,0.66813 36.4774,-11.506629 43.90806,-28.421785 3.44348,-7.744201 5.29838,-16.600131 3.24999,-24.999526 C 270.383,32.180109 263.60787,21.374322 253.8457,14.416016 245.84036,8.6900406 236.03764,5.3889189 226.18555,5.5605469 Z m 1.2539,3.1386719 c 15.90783,-0.131977 31.90216,9.0311232 38.77344,23.5605472 5.28278,11.969333 5.08838,26.096283 0.11549,38.126974 -6.33734,13.796998 -21.00045,22.882883 -36.03204,23.523653 -14.10393,0.900866 -28.86228,-5.21709 -37.093,-16.924141 -11.15758,-15.377117 -10.6956,-38.226384 1.45806,-52.922499 7.12384,-8.930709 18.13774,-14.5296807 29.53215,-15.1693149 1.07973,-0.096526 2.16308,-0.1480753 3.2459,-0.1952193 z M 39.953125,42.414062 C 24.398265,42.338875 9.5913746,53.986473 6.2357044,69.24134 3.9324596,79.127243 5.3157606,89.959714 10.544857,98.689519 c 4.699218,7.272331 12.001263,12.207051 18.793697,17.345791 11.695683,8.73163 23.176594,17.74944 34.828637,26.54329 24.130578,18.37103 48.356019,36.64661 72.883589,54.48585 5.99412,2.58133 13.49686,2.1852 18.91211,-1.51172 5.72426,-4.69134 8.08577,-13.54346 4.2415,-20.11574 -2.64162,-4.95567 -6.38467,-9.19918 -9.45117,-13.88207 -15.59216,-21.44123 -31.86743,-42.38779 -47.783,-63.594938 C 91.016311,82.25108 79.100342,66.481101 66.29291,51.447877 59.294644,44.83754 49.383791,42.201009 39.953125,42.414062 Z m 2.394531,2.105469 c 11.586937,0.163731 22.421083,7.137741 28.442244,16.865565 28.316626,36.823659 56.58855,73.693744 83.79637,111.346494 1.5572,2.35943 3.51705,4.58717 4.40982,7.29771 1.96505,8.22921 -5.58155,17.09098 -14.03613,16.38468 -4.10929,-0.18165 -7.64425,-2.57494 -10.70202,-5.11775 C 119.99805,180.90674 106.06272,170.07509 91.935374,159.50559 65.998702,139.85513 40.012938,120.25555 14.800781,99.677734 7.0247256,91.05078 5.5279368,77.974516 9.520009,67.296908 13.994254,55.841687 24.727502,47.023714 36.840493,44.896979 c 1.819612,-0.286927 3.665899,-0.390901 5.507163,-0.377448 z m 0.125,22.292969 c -7.120192,0.626345 -12.6844,8.743635 -9.992631,15.540372 2.065236,6.181741 9.894882,9.937747 15.852006,7.078769 C 54.236933,86.813497 57.38234,78.558162 53.632595,72.958225 51.266809,69.182911 46.971093,66.62463 42.472656,66.8125 Z m 312.673824,2.732422 c -9.77342,0.71916 -18.06751,6.544666 -26.7871,10.505859 -40.0782,20.243679 -80.2409,40.349969 -119.46094,62.222659 -7.31101,5.72827 -8.33933,18.04264 -1.44192,24.52517 5.00377,4.92673 12.73546,6.30911 19.31467,4.1271 46.70057,-9.39741 93.58707,-18.03504 139.94173,-29.02161 6.80636,-1.59199 13.37843,-4.87291 17.79337,-10.42157 7.28821,-8.33812 11.51498,-19.72366 9.90573,-30.85535 -1.4939,-11.120752 -9.0999,-20.848511 -18.88465,-26.094057 -6.22044,-3.369894 -13.30889,-5.14549 -20.38089,-4.988201 z m 4.25782,2.748047 c 12.012,0.101824 23.65855,7.573921 28.55947,18.578496 5.76594,11.340655 5.2727,26.111625 -2.67792,36.311605 -5.89041,7.64204 -15.29328,11.84482 -24.71216,12.94939 -46.87325,10.05352 -93.81504,19.81161 -140.92135,28.70348 -7.5564,0.60652 -14.273,-6.44928 -14.21093,-13.84766 -0.18321,-4.78593 2.68181,-9.61184 7.17358,-11.42757 7.79253,-4.13188 15.59812,-8.24358 23.38735,-12.38592 36.971,-19.45393 73.98515,-38.854842 111.59829,-57.038444 3.76982,-1.366277 7.80445,-1.889327 11.80367,-1.843377 z M 356.79102,94.5 c -7.36243,0.819512 -12.83896,9.63714 -9.55319,16.48056 2.63969,6.29893 11.45345,9.20062 17.10331,5.11722 5.12699,-3.16246 7.19276,-10.74587 3.60808,-15.79114 -2.32282,-3.700509 -6.75999,-6.041521 -11.1582,-5.80664 z"
       id="path1"
       inkscape:connector-curvature="0"
       sodipodi:nodetypes="cccccccccccccccccccccccccccccccccccccccccccccccccccccccccccccccccccccc" />
  </g>
</svg>
