<?xml version="1.0" encoding="utf-8"?>
<!-- Generator: Adobe Illustrator 13.0.0, SVG Export Plug-In . SVG Version: 6.00 Build 14948)  -->
<!DOCTYPE svg PUBLIC "-//W3C//DTD SVG 1.1//EN" "http://www.w3.org/Graphics/SVG/1.1/DTD/svg11.dtd">
<svg version="1.1" id="Layer_4" xmlns="http://www.w3.org/2000/svg" xmlns:xlink="http://www.w3.org/1999/xlink" x="0px" y="0px"
	 width="598.189px" height="350.26px" viewBox="0 0 598.189 350.26" enable-background="new 0 0 598.189 350.26"
	 xml:space="preserve">
<path fill="#F4F4F4" d="M105.619,240.402c0-14.178,11.491-25.669,25.668-25.672l0,0c14.175,0.003,25.667,11.494,25.667,25.672l0,0
	c0,14.174-11.491,25.665-25.667,25.668l0,0C117.11,266.067,105.619,254.576,105.619,240.402L105.619,240.402z M107.986,240.402
	c0.025,12.866,10.434,23.272,23.301,23.297l0,0c12.865-0.024,23.274-10.431,23.298-23.297l0,0
	c-0.024-12.871-10.434-23.276-23.298-23.301l0,0C118.419,217.126,108.011,227.531,107.986,240.402L107.986,240.402z"/>
<path fill="#F4F4F4" d="M112.429,240.402c0.002-10.415,8.442-18.856,18.858-18.856l0,0c10.413,0,18.854,8.441,18.854,18.856l0,0
	c0,10.412-8.44,18.854-18.854,18.854l0,0C120.871,259.257,112.431,250.814,112.429,240.402L112.429,240.402z M114.798,240.402
	c0.017,9.104,7.384,16.468,16.489,16.485l0,0c9.104-0.018,16.47-7.382,16.486-16.485l0,0c-0.017-9.106-7.382-16.471-16.486-16.488
	l0,0C122.182,223.932,114.815,231.296,114.798,240.402L114.798,240.402z"/>
<path fill="#F4F4F4" d="M457.859,240.402c0.003-14.179,11.492-25.668,25.672-25.671l0,0c14.173,0.003,25.664,11.492,25.667,25.671
	l0,0c-0.003,14.174-11.494,25.665-25.667,25.668l0,0C469.352,266.067,457.862,254.576,457.859,240.402L457.859,240.402z
	 M460.232,240.402c0.021,12.865,10.428,23.273,23.299,23.296l0,0c12.864-0.022,23.272-10.431,23.295-23.296l0,0
	c-0.022-12.87-10.431-23.276-23.295-23.298l0,0C470.66,217.126,460.254,227.532,460.232,240.402L460.232,240.402z"/>
<path fill="#F4F4F4" d="M464.674,240.402c0-10.414,8.44-18.854,18.853-18.854l0,0c10.415,0,18.858,8.44,18.858,18.854l0,0
	c0,10.413-8.443,18.854-18.858,18.854l0,0C473.114,259.257,464.674,250.815,464.674,240.402L464.674,240.402z M467.042,240.402
	c0.018,9.106,7.383,16.467,16.484,16.484l0,0c9.107-0.018,16.472-7.378,16.489-16.484l0,0c-0.018-9.106-7.382-16.471-16.489-16.488
	l0,0C474.425,223.932,467.06,231.296,467.042,240.402L467.042,240.402z"/>
<path fill="#F4F4F4" d="M220.286,287.542c0-3.928,3.18-7.108,7.107-7.108l0,0c3.925,0,7.106,3.181,7.108,7.108l0,0
	c-0.002,3.923-3.184,7.104-7.108,7.107l0,0C223.466,294.646,220.286,291.465,220.286,287.542L220.286,287.542z M222.655,287.542
	c0.006,2.612,2.122,4.729,4.738,4.737l0,0c2.616-0.009,4.732-2.125,4.738-4.737l0,0c-0.006-2.619-2.122-4.736-4.738-4.74l0,0
	C224.777,282.806,222.661,284.923,222.655,287.542L222.655,287.542z"/>
<path fill="#F4F4F4" d="M308.148,301.954v-1.187v-1.186h11.847c6.649-0.012,12.03-5.393,12.042-12.04l0,0
	c-0.012-6.655-5.393-12.036-12.042-12.048l0,0h-11.847c-6.651,0.012-12.034,5.393-12.044,12.048l0,0
	c0.01,6.647,5.393,12.028,12.044,12.04l0,0v1.186V301.954c-7.962-0.002-14.414-6.455-14.414-14.412l0,0
	c0-7.963,6.452-14.417,14.414-14.417l0,0h11.847c7.961,0,14.41,6.454,14.414,14.417l0,0c-0.004,7.957-6.453,14.41-14.414,14.412l0,0
	H308.148L308.148,301.954z"/>
<path fill="#F4F4F4" d="M308.938,295.636v-1.185v-1.187h11.453c3.378-0.007,6.112-2.738,6.12-6.119l0,0
	c-0.008-3.383-2.742-6.115-6.12-6.122l0,0h-11.453c-3.38,0.007-6.115,2.739-6.123,6.122l0,0c0.008,3.381,2.743,6.112,6.123,6.119
	l0,0v1.187V295.636c-4.688,0-8.49-3.802-8.49-8.49l0,0c0-4.691,3.802-8.49,8.49-8.493l0,0h11.453
	c4.688,0.003,8.487,3.802,8.487,8.493l0,0c0,4.688-3.799,8.49-8.487,8.49l0,0H308.938L308.938,295.636z"/>
<path fill="#F4F4F4" d="M358.101,301.954v-1.187v-1.186h11.85c6.649-0.012,12.029-5.393,12.042-12.04l0,0
	c-0.013-6.655-5.393-12.036-12.042-12.048l0,0h-11.85c-6.65,0.012-12.032,5.393-12.042,12.048l0,0
	c0.01,6.647,5.392,12.028,12.042,12.04l0,0v1.186V301.954c-7.962-0.002-14.411-6.455-14.414-14.412l0,0
	c0.003-7.963,6.452-14.417,14.414-14.417l0,0h11.85c7.959,0,14.412,6.454,14.412,14.417l0,0c0,7.957-6.453,14.41-14.412,14.412l0,0
	H358.101L358.101,301.954z"/>
<path fill="#F4F4F4" d="M408.647,301.954v-1.187v-1.186h11.848c6.649-0.012,12.03-5.393,12.041-12.04l0,0
	c-0.011-6.655-5.392-12.036-12.041-12.048l0,0h-11.848c-6.652,0.012-12.032,5.393-12.045,12.048l0,0
	c0.013,6.647,5.393,12.028,12.045,12.04l0,0v1.186V301.954c-7.964-0.002-14.414-6.455-14.414-14.412l0,0
	c0-7.963,6.45-14.417,14.414-14.417l0,0h11.848c7.961,0,14.41,6.454,14.413,14.417l0,0c-0.003,7.957-6.452,14.41-14.413,14.412l0,0
	H408.647L408.647,301.954z"/>
<path fill="#F4F4F4" d="M358.894,295.636v-1.185v-1.187h11.453c3.377-0.007,6.109-2.738,6.118-6.119l0,0
	c-0.009-3.383-2.741-6.115-6.118-6.122l0,0h-11.453c-3.383,0.007-6.117,2.741-6.126,6.122l0,0c0.009,3.378,2.743,6.112,6.126,6.121
	l0,0v1.185V295.636c-4.691,0-8.492-3.802-8.492-8.49l0,0c0-4.691,3.801-8.49,8.492-8.493l0,0h11.453
	c4.688,0.003,8.485,3.802,8.485,8.493l0,0c0,4.688-3.797,8.49-8.485,8.49l0,0H358.894L358.894,295.636z"/>
<path fill="#F4F4F4" d="M204.619,235.117c-6.542,0-11.845-5.302-11.847-11.845l0,0V89.008c0.002-6.543,5.305-11.845,11.847-11.847
	l0,0l204.556,0.002c6.542,0,11.844,5.302,11.848,11.845l0,0v134.265h-0.004c0,6.543-5.302,11.845-11.844,11.847l0,0L204.619,235.117
	L204.619,235.117z M195.143,89.008v134.265c0.01,5.232,4.244,9.468,9.477,9.477l0,0h204.556c5.232-0.009,9.467-4.244,9.477-9.477
	l0,0V89.008c-0.01-5.233-4.244-9.467-9.477-9.477l0,0H204.619C199.387,79.541,195.152,83.774,195.143,89.008L195.143,89.008z"/>
<path fill="#F4F4F4" d="M205.806,227.813c-3.271,0-5.923-2.652-5.923-5.923l0,0V90.391c0-3.272,2.651-5.923,5.923-5.923l0,0h202.184
	c3.271,0,5.923,2.651,5.923,5.923l0,0V221.89c0,3.271-2.651,5.923-5.923,5.923l0,0H205.806L205.806,227.813z M202.252,90.391V221.89
	c0.004,1.96,1.593,3.55,3.554,3.553l0,0l202.184,0.002c1.959-0.005,3.55-1.595,3.554-3.555l0,0V90.391
	c-0.004-1.963-1.595-3.552-3.554-3.555l0,0H205.806C203.845,86.839,202.256,88.428,202.252,90.391L202.252,90.391z"/>
<path fill="#F4F4F4" d="M176.584,268.584c-3.273,0-5.924-2.65-5.924-5.921l0,0V52.974c0-3.271,2.65-5.921,5.924-5.923l0,0h260.627
	c3.272,0.002,5.923,2.653,5.923,5.923l0,0v209.689c0,3.271-2.65,5.921-5.923,5.923l0,0L176.584,268.584L176.584,268.584z
	 M173.028,52.974v209.689c0.006,1.961,1.594,3.549,3.556,3.552l0,0h260.627c1.96-0.003,3.549-1.591,3.554-3.552l0,0V52.974
	c-0.005-1.961-1.594-3.55-3.554-3.553l0,0H176.584C174.622,49.424,173.034,51.013,173.028,52.974L173.028,52.974z"/>
<path fill="#F4F4F4" d="M83.751,316.07c-1.31,0-2.37-1.059-2.37-2.368l0,0V33.725c0-1.309,1.061-2.37,2.37-2.37l0,0h445.832
	c1.308,0,2.368,1.058,2.37,2.37l0,0v279.978h-0.002c0,1.31-1.061,2.368-2.368,2.371l0,0L83.751,316.07L83.751,316.07z
	 M83.751,33.725v279.978h445.83l0.002-279.978c0,0,0-0.002,0,0l0,0L83.751,33.722V33.725L83.751,33.725z"/>
<path fill="#F4F4F4" d="M73.287,330.879c-3.927,0-7.108-3.182-7.108-7.108l0,0L66.176,23.655c0.002-3.926,3.184-7.108,7.11-7.108
	l0,0h466.76c3.928,0,7.108,3.182,7.108,7.108l0,0v300.115c0,3.927-3.181,7.108-7.108,7.108l0,0H73.287L73.287,330.879z
	 M68.548,23.655v300.115c0.005,2.616,2.121,4.734,4.739,4.74l0,0h466.76c2.618-0.006,4.733-2.122,4.739-4.74l0,0l-0.002-300.115
	c-0.004-2.617-2.119-4.734-4.737-4.739l0,0H73.287C70.669,18.921,68.553,21.038,68.548,23.655L68.548,23.655z"/>
<path fill="#F4F4F4" d="M108.924,105.89c-3.924,0-7.106-3.181-7.106-7.107l0,0V62.057c0-3.927,3.183-7.107,7.106-7.107l0,0h44.623
	c3.927,0,7.108,3.18,7.108,7.107l0,0v36.726c0,3.926-3.182,7.107-7.108,7.107l0,0H108.924L108.924,105.89z M104.185,62.057v36.726
	c0.005,2.615,2.125,4.733,4.739,4.739l0,0h44.623c2.617-0.005,4.734-2.124,4.738-4.739l0,0h0.002l-0.002-36.726
	c-0.004-2.615-2.121-4.734-4.738-4.739l0,0h-44.623C106.31,57.323,104.19,59.442,104.185,62.057L104.185,62.057z"/>
</svg>
