<?xml version="1.0" encoding="utf-8"?>
<!-- Generator: Adobe Illustrator 13.0.0, SVG Export Plug-In . SVG Version: 6.00 Build 14948)  -->
<!DOCTYPE svg [
	<!ENTITY ns_flows "http://ns.adobe.com/Flows/1.0/">
	<!ENTITY ns_extend "http://ns.adobe.com/Extensibility/1.0/">
	<!ENTITY ns_ai "http://ns.adobe.com/AdobeIllustrator/10.0/">
	<!ENTITY ns_graphs "http://ns.adobe.com/Graphs/1.0/">
	<!ENTITY ns_vars "http://ns.adobe.com/Variables/1.0/">
	<!ENTITY ns_imrep "http://ns.adobe.com/ImageReplacement/1.0/">
	<!ENTITY ns_sfw "http://ns.adobe.com/SaveForWeb/1.0/">
	<!ENTITY ns_custom "http://ns.adobe.com/GenericCustomNamespace/1.0/">
	<!ENTITY ns_adobe_xpath "http://ns.adobe.com/XPath/1.0/">
]>
<svg version="1.2" baseProfile="tiny"
	 id="Layer_3" xmlns:x="&ns_extend;" xmlns:i="&ns_ai;" xmlns:graph="&ns_graphs;" xmlns:rdf="http://www.w3.org/1999/02/22-rdf-syntax-ns#" xmlns:dc="http://purl.org/dc/elements/1.1/" xmlns:cc="http://creativecommons.org/ns#"
	 xmlns="http://www.w3.org/2000/svg" xmlns:xlink="http://www.w3.org/1999/xlink" xmlns:a="http://ns.adobe.com/AdobeSVGViewerExtensions/3.0/"
	 x="0px" y="0px" width="598.189px" height="350.26px" viewBox="0 0 598.189 350.26" xml:space="preserve">
<metadata  id="metadata55">
	<rdf:RDF>
		<cc:Work  rdf:about="">
			<dc:format>image/svg+xml</dc:format>
			<dc:type  rdf:resource="http://purl.org/dc/dcmitype/StillImage"></dc:type>
			<dc:title></dc:title>
		</cc:Work>
	</rdf:RDF>
	<sfw  xmlns="&ns_sfw;">
		<slices></slices>
		<sliceSourceBounds  x="700.139" y="407.693" width="524.713" height="275.166" bottomLeftOrigin="true"></sliceSourceBounds>
	</sfw>
</metadata>
<path id="line3" fill="#F4F4F4" d="M112.46,40.406l-3.78,0.184c-0.464,0.021-0.823,0.414-0.802,0.878
	c0.021,0.464,0.414,0.823,0.877,0.803c0.001,0,0.002,0,0.003,0l3.78-0.184c0.464-0.021,0.822-0.414,0.802-0.878
	c-0.021-0.463-0.414-0.823-0.877-0.802C112.462,40.406,112.461,40.406,112.46,40.406z"/>
<path id="path5" fill="#F4F4F4" d="M279.126,32.507c-48.083,0-121.473,3.714-165.961,6.771c-0.14,0.01-0.275,0.055-0.394,0.131
	c0.162-0.104-0.02,0.007-0.131,0.079c-0.112,0.071-0.277,0.176-0.42,0.341c-0.285,0.329-0.464,1.002-0.236,1.601
	c0,0.009,0,0.018,0,0.026c3.549,9.068,14.875,41.947,26.536,75.328c11.66,33.379,23.636,67.252,28.635,78.608
	c5.396,12.256,11.903,22.935,21.128,30.577c9.225,7.644,21.17,12.179,37.166,12.179h53.148h44.986h53.148
	c15.995,0,27.915-4.535,37.139-12.179c9.227-7.643,15.733-18.321,21.128-30.577c5.001-11.356,16.976-45.229,28.636-78.608
	s23.013-66.259,26.562-75.328c0-0.009,0-0.018,0-0.026c0.228-0.599,0.022-1.272-0.263-1.601c-0.135-0.166-0.277-0.271-0.386-0.342
	c-0.109-0.072-0.32-0.183-0.16-0.079c-0.119-0.076-0.254-0.121-0.395-0.131c-44.489-3.057-117.845-6.771-165.928-6.771
	L279.126,32.507L279.126,32.507z M279.126,34.187h43.937c47.896,0,121.026,3.695,165.508,6.745
	c-3.632,9.292-14.872,41.99-26.509,75.301c-11.657,33.377-23.676,67.343-28.581,78.479c-5.339,12.129-11.752,22.574-20.682,29.975
	c-8.933,7.398-20.386,11.784-36.063,11.784h-53.148H278.6h-53.148c-15.679,0-27.158-4.386-36.089-11.784
	c-8.937-7.4-15.319-17.848-20.661-29.976c-4.905-11.137-16.949-45.102-28.606-78.479c-11.641-33.309-22.88-66.005-26.511-75.299
	C158.068,37.881,231.218,34.187,279.126,34.187L279.126,34.187z"/>
<path id="line7" fill="#F4F4F4" d="M489.543,40.406c-0.465,0.021-0.823,0.414-0.804,0.877c0.021,0.464,0.414,0.823,0.878,0.803
	c0.001,0,0.003,0,0.004,0l3.779,0.184c0.464,0.023,0.858-0.334,0.881-0.798c0.023-0.463-0.334-0.858-0.798-0.881
	c-0.001,0-0.002,0-0.004,0l-3.753-0.184C489.665,40.4,489.603,40.4,489.543,40.406L489.543,40.406z"/>
<path id="path9" fill="#F4F4F4" d="M274.481,45.499c-32.078,0-64.393,0.336-76.377,1.076c-10.753,0.664-23.318,1.775-34.41,4.515
	c-11.091,2.739-20.775,7.078-25.616,14.409c-4.913,7.439-3.216,18.877-0.21,29.134c3.006,10.256,7.477,19.496,8.478,22.126
	c1.046,2.745,7.33,19.888,14.304,37.979c6.975,18.091,14.59,37.081,18.478,43.911c4.92,8.645,9.941,16.231,18.373,21.627
	s20.191,8.53,38.477,8.53h42.755h44.724h42.729c18.286,0,30.046-3.135,38.477-8.53c8.432-5.396,13.451-12.982,18.373-21.627
	c3.888-6.831,11.502-25.82,18.477-43.911c6.976-18.091,13.284-35.233,14.331-37.979c1.002-2.629,5.444-11.87,8.451-22.126
	c3.006-10.256,4.729-21.694-0.185-29.134c-4.821-7.333-14.504-11.671-25.592-14.411c-11.095-2.74-23.659-3.851-34.41-4.514
	c-11.984-0.74-44.319-1.076-76.403-1.076h-53.202L274.481,45.499z M274.481,47.179h53.202c32.066,0,64.471,0.346,76.299,1.076
	c10.716,0.661,23.186,1.768,34.094,4.461c10.909,2.694,20.184,6.983,24.618,13.7c4.364,6.608,2.957,17.655,0,27.742
	c-2.957,10.087-7.307,19.058-8.424,21.996c-1.076,2.821-7.362,19.903-14.331,37.979c-6.968,18.075-14.658,37.196-18.346,43.675
	c-4.887,8.583-9.736,15.876-17.821,21.048c-8.086,5.174-19.493,8.269-37.586,8.269h-42.729h-44.724h-42.755
	c-18.093,0-29.474-3.095-37.559-8.269c-8.085-5.173-12.935-12.465-17.822-21.048c-3.687-6.479-11.403-25.6-18.372-43.675
	c-6.963-18.074-13.22-35.158-14.295-37.979c-1.119-2.938-5.495-11.908-8.451-21.996c-2.957-10.086-4.364-21.133,0-27.742
	c4.435-6.717,13.711-11.007,24.619-13.7c10.908-2.694,23.403-3.8,34.121-4.462c11.827-0.73,44.205-1.076,76.271-1.076
	L274.481,47.179z"/>
<path id="path11" fill="#F4F4F4" d="M209.155,55.84c-2.43,0-4.435,1.979-4.435,4.409v145.537c0,2.431,2.005,4.409,4.435,4.409
	H393.04c2.431,0,4.409-1.979,4.409-4.409V60.249c0-2.43-1.979-4.409-4.409-4.409H209.155z M209.155,57.519H393.04
	c1.523,0,2.729,1.208,2.729,2.73v145.537c0,1.522-1.206,2.729-2.729,2.729H209.155c-1.523,0-2.756-1.207-2.756-2.729V60.249
	C206.399,58.727,207.631,57.519,209.155,57.519z"/>
<path id="path13" fill="#F4F4F4" d="M219.074,69.356c-0.893,0-1.627,0.734-1.627,1.627v123.808c0,0.892,0.734,1.627,1.627,1.627
	h164.013c0.894,0,1.627-0.735,1.627-1.627V70.984c0-0.894-0.733-1.627-1.627-1.627H219.074z M219.127,71.036h163.912v123.699
	H219.127V71.036z"/>
<path id="circle15" fill="#F4F4F4" d="M182.564,109.907c-2.173,0-3.937,1.789-3.937,3.963c0,2.174,1.763,3.963,3.937,3.963
	c2.174,0,3.963-1.788,3.963-3.963C186.527,111.696,184.738,109.907,182.564,109.907z"/>
<path id="circle17" fill="#F4F4F4" d="M98.051,105.682c-18.936,0-34.304,15.369-34.304,34.304c0,18.936,15.369,34.305,34.304,34.305
	c18.935,0,34.304-15.369,34.304-34.305c0-18.931-15.37-34.3-34.305-34.3L98.051,105.682z M98.051,107.361
	c18.027,0,32.625,14.597,32.625,32.624c0,18.028-14.597,32.625-32.625,32.625s-32.625-14.597-32.625-32.625
	c-0.001-18.023,14.596-32.621,32.624-32.621L98.051,107.361z"/>
<path id="circle19" fill="#F4F4F4" d="M98.051,109.382c-16.886,0-30.577,13.718-30.577,30.603c0,16.887,13.692,30.577,30.577,30.577
	c16.886,0,30.604-13.691,30.604-30.577C128.654,123.1,114.937,109.382,98.051,109.382z M98.051,111.062
	c15.978,0,28.924,12.946,28.924,28.924c0,15.979-12.946,28.897-28.924,28.897s-28.897-12.92-28.897-28.897
	S82.074,111.062,98.051,111.062z"/>
<path id="path21" fill="#F4F4F4" d="M98.077,110.721c-3.387-0.008-6.771,0.396-9.16,1.365c-0.32,0.129-0.528,0.442-0.525,0.787
	v14.672h-1.076c-0.463,0.004-0.837,0.383-0.833,0.847c0.001,0.212,0.083,0.417,0.229,0.571l10.734,10.734
	c0.323,0.333,0.854,0.342,1.188,0.02c0.006-0.007,0.013-0.013,0.02-0.02l10.734-10.734c0.319-0.337,0.305-0.868-0.033-1.187
	c-0.154-0.146-0.358-0.229-0.571-0.23h-1.076v-14.672c0.003-0.345-0.205-0.657-0.525-0.786c-2.349-0.932-5.72-1.356-9.108-1.365
	L98.077,110.721z M98.077,112.4c3.014,0.008,5.943,0.437,7.953,1.129v14.777v0.079c0.009,0.417,0.322,0.763,0.735,0.815
	l-8.713,8.718l-8.714-8.718c0.17-0.031,0.326-0.114,0.446-0.236l0.052-0.053c0.157-0.162,0.243-0.38,0.237-0.605v-14.777
	c2.033-0.716,4.99-1.138,8.004-1.13L98.077,112.4z"/>
<path id="path23" fill="#F4F4F4" d="M86.267,128.409c-0.392,0.087-0.666,0.439-0.656,0.84v1.076H70.938
	c-0.336,0.007-0.635,0.214-0.761,0.525c-0.933,2.349-1.383,5.72-1.391,9.108c-0.009,3.387,0.421,6.771,1.391,9.16
	c0.133,0.301,0.431,0.496,0.761,0.499H85.61v1.103c0.003,0.464,0.382,0.837,0.847,0.833c0.225-0.002,0.44-0.094,0.597-0.256
	l10.733-10.726c0.323-0.327,0.323-0.854,0-1.181l-10.734-10.734c-0.204-0.211-0.502-0.3-0.788-0.236L86.267,128.409z M87.29,131.244
	l8.714,8.714l-8.714,8.74c-0.03-0.172-0.113-0.331-0.237-0.454l-0.078-0.059c-0.151-0.159-0.359-0.252-0.578-0.26H71.594
	c-0.713-2.033-1.136-4.965-1.128-7.979c0.008-3.012,0.437-5.943,1.128-7.953h14.803h0.053c0.435,0.002,0.798-0.328,0.839-0.761
	L87.29,131.244z"/>
<path id="path25" fill="#F4F4F4" d="M97.867,140.016c-0.16,0.036-0.306,0.118-0.42,0.236l-10.734,10.734
	c-0.333,0.323-0.342,0.854-0.02,1.188c0.163,0.169,0.389,0.261,0.624,0.256h1.076v14.646c0,0.353,0.22,0.667,0.551,0.787
	c2.349,0.934,5.694,1.357,9.081,1.366c3.387,0.008,6.771-0.396,9.16-1.366c0.32-0.129,0.528-0.442,0.524-0.787V152.43h1.076
	c0.464,0.012,0.85-0.354,0.862-0.817c0.006-0.236-0.087-0.463-0.257-0.627l-10.734-10.734
	C98.452,140.041,98.153,139.952,97.867,140.016L97.867,140.016z M98.051,142.037l8.713,8.714c-0.16,0.036-0.306,0.118-0.42,0.236
	l-0.079,0.05c-0.156,0.161-0.241,0.379-0.236,0.604v14.802c-2.033,0.715-4.989,1.11-8.004,1.103
	c-3.014-0.008-5.943-0.41-7.953-1.103v-14.802v-0.053c0.003-0.426-0.313-0.787-0.735-0.84l8.714-8.714V142.037z"/>
<path id="path27" fill="#F4F4F4" d="M109.546,128.409c-0.188,0.02-0.364,0.104-0.499,0.236l-10.734,10.733
	c-0.324,0.327-0.324,0.854,0,1.181l10.734,10.734c0.323,0.333,0.854,0.342,1.188,0.02c0.162-0.156,0.254-0.371,0.256-0.597v-1.103
	h14.672c0.335-0.007,0.635-0.213,0.761-0.525c0.933-2.349,1.382-5.694,1.391-9.081c0.008-3.388-0.421-6.772-1.391-9.16
	c-0.126-0.312-0.426-0.518-0.761-0.525h-14.672v-1.076c0.003-0.464-0.37-0.843-0.833-0.847
	C109.622,128.401,109.584,128.403,109.546,128.409L109.546,128.409z M108.838,131.27c0.029,0.157,0.101,0.303,0.21,0.42l0.079,0.079
	c0.155,0.15,0.362,0.234,0.577,0.236h14.803c0.714,2.033,1.136,4.99,1.129,8.005c-0.008,3.003-0.441,5.917-1.129,7.926h-14.803
	h-0.052c-0.417-0.005-0.775,0.297-0.84,0.708l-8.709-8.684l8.74-8.685L108.838,131.27z"/>
<path id="path29" fill="#F4F4F4" d="M79.468,120.01c-0.361,0-0.727,0.123-0.997,0.394c-0.54,0.541-0.54,1.455,0,1.995l3.019,2.992
	c0.542,0.54,1.427,0.54,1.968,0c0.541-0.541,0.541-1.455,0-1.994l-2.992-2.993c-0.271-0.26-0.637-0.386-0.998-0.386V120.01z"/>
<path id="path31" fill="#F4F4F4" d="M82.487,154.16c-0.361,0-0.727,0.123-0.997,0.394l-2.992,3.018v0.026
	c-0.524,0.542-0.561,1.408-0.026,1.942c0.541,0.543,1.453,0.54,1.995,0l2.992-2.992c0.541-0.541,0.542-1.453,0-1.995
	C83.188,154.283,82.848,154.16,82.487,154.16L82.487,154.16z"/>
<path id="path33" fill="#F4F4F4" d="M113.642,154.16c-0.361,0-0.728,0.124-0.998,0.394c-0.543,0.541-0.541,1.454,0,1.995
	l2.992,2.992c0.541,0.542,1.454,0.543,1.995,0c0.545-0.541,0.54-1.429,0-1.969l-2.991-3.015c-0.271-0.271-0.637-0.394-0.998-0.394
	L113.642,154.16z"/>
<path id="path35" fill="#F4F4F4" d="M116.633,120.01c-0.361,0-0.727,0.122-0.998,0.394l-2.992,2.99
	c-0.541,0.541-0.542,1.453,0,1.995c0.541,0.539,1.428,0.539,1.969,0l3.018-2.992c0.545-0.54,0.544-1.454,0-1.995
	c-0.27-0.271-0.636-0.394-0.997-0.394L116.633,120.01z"/>
<path id="path37" fill="#F4F4F4" d="M107.447,39.698c-12.747,0.911-22.584,1.73-28.004,2.362
	c-11.929,1.392-18.883,2.148-23.491,5.119c-2.303,1.485-3.965,3.538-5.223,6.352c-1.257,2.813-2.156,6.395-3.044,11.076
	c-8.778,46.281-9.938,126.563-8.346,165.978c0.795,19.674,1.139,35.518,8.11,47.323s20.524,19.261,47.085,22.257
	c52.991,5.979,156.345,6.772,179.03,6.772h55.065c22.682,0,126.008-0.794,178.996-6.772c26.562-2.996,40.115-10.451,47.086-22.257
	s7.341-27.648,8.137-47.323c1.593-39.422,0.405-119.7-8.373-165.978c-0.888-4.681-1.787-8.263-3.044-11.076
	c-1.258-2.813-2.92-4.867-5.224-6.352c-4.606-2.97-11.535-3.726-23.465-5.119c-5.421-0.632-15.259-1.451-28.005-2.362
	c-0.062-0.007-0.123-0.007-0.184,0c-0.388,0.052-0.777,0.168-1.103,0.42c-0.314,0.244-0.496,0.599-0.63,0.945
	c-0.001,0.005-0.025-0.004-0.026,0s0.001,0.022,0,0.026c-1.605,4.104-4.82,13.078-8.949,24.829c-0.004,0.011,0.004,0.016,0,0.026
	c-0.338,0.952-0.396,1.915,0,2.729c0.398,0.822,1.197,1.407,2.179,1.785c6.35,2.45,10.813,8.646,10.813,15.879
	c0,9.427-7.604,17.06-17.033,17.06c-1.767,0-3.465-0.289-5.065-0.788v0.026c-1.051-0.348-2.015-0.288-2.757,0.105
	c-0.741,0.393-1.214,1.038-1.548,1.653c-0.03,0.042-0.057,0.085-0.079,0.131c-13.499,38.692-28.876,82.539-34.409,95.251
	c-9.726,22.344-27.233,40.841-59.921,40.841h-50.761h-48.372h-50.761c-32.687,0-50.194-18.497-59.92-40.841
	c-4.855-11.155-17.304-46.313-29.396-80.891c-12.088-34.566-23.841-68.557-27.455-77.795c-0.002-0.007,0.002-0.02,0-0.026h-0.026
	c-0.151-0.355-0.332-0.71-0.646-0.954c-0.323-0.251-0.716-0.368-1.102-0.42c-0.052-0.005-0.105-0.005-0.158,0L107.447,39.698z
	 M107.473,41.378c0.1,0.023,0.192,0.064,0.21,0.079c0.025,0.019,0.067,0.037,0.131,0.21c0,0.009,0,0.018,0,0.026
	c3.548,9.066,15.334,43.158,27.428,77.742c12.093,34.583,24.471,69.648,29.422,81.022c9.888,22.716,28.144,41.837,61.469,41.837
	h50.761h48.373h50.762c33.323,0,51.58-19.121,61.469-41.837c5.635-12.946,20.919-56.608,34.409-95.276
	c0.007-0.013,0.02-0.014,0.026-0.026c0.234-0.422,0.519-0.748,0.84-0.918c0.331-0.176,0.724-0.265,1.443-0.026
	c0.009,0,0.018,0,0.026,0c1.761,0.548,3.627,0.866,5.564,0.866c10.335,0,18.714-8.404,18.714-18.739
	c0-7.928-4.9-14.757-11.891-17.454c-0.734-0.283-1.1-0.617-1.259-0.945s-0.195-0.757,0.052-1.444
	c4.141-11.778,7.374-20.773,8.953-24.807c0-0.009,0-0.018,0-0.026c0.064-0.172,0.107-0.191,0.131-0.21
	c0.017-0.012,0.107-0.058,0.185-0.079c12.683,0.907,22.505,1.739,27.847,2.362c11.928,1.392,18.73,2.243,22.783,4.855
	c2.025,1.306,3.431,3.045,4.592,5.643c1.161,2.597,2.035,6.052,2.914,10.682c8.717,45.959,9.934,126.318,8.347,165.617
	c-0.796,19.687-1.254,35.254-7.901,46.509c-6.646,11.255-19.508,18.501-45.825,21.469c-52.766,5.953-156.177,6.745-178.82,6.745
	h-55.064c-22.643,0-126.05-0.792-178.82-6.745c-26.319-2.973-39.208-10.221-45.854-21.475c-6.646-11.256-7.079-26.818-7.874-46.505
	c-1.587-39.298-0.397-119.659,8.32-165.617c0.878-4.631,1.779-8.085,2.939-10.683c1.161-2.598,2.567-4.337,4.593-5.643
	c4.052-2.612,10.829-3.464,22.756-4.856c5.341-0.623,15.164-1.455,27.847-2.362L107.473,41.378z"/>
<path id="path39" fill="#F4F4F4" d="M484.975,71.482c-0.519-0.129-1.114-0.201-1.707,0.052c-0.591,0.253-1.016,0.785-1.313,1.496
	c-0.01,0.018-0.018,0.035-0.026,0.053l-8.24,24.382v0.026c-0.185,0.505-0.293,0.944-0.315,1.365
	c-0.023,0.429,0.057,0.863,0.289,1.208c0.463,0.69,1.135,0.87,1.811,1.128c0.025,0.01,0.052,0.019,0.079,0.026
	c1.427,0.432,2.921,0.657,4.487,0.657c8.605,0,15.618-6.984,15.618-15.59c0-6.86-4.438-12.692-10.604-14.777
	C485.026,71.499,485.001,71.49,484.975,71.482L484.975,71.482z M483.924,73.083c0.08-0.034,0.29-0.054,0.631,0.026
	c0.013,0.004,0.011-0.003,0.026,0c5.456,1.881,9.396,7.069,9.396,13.176c0,7.698-6.239,13.91-13.938,13.91
	c-1.401,0-2.743-0.193-4.015-0.577c-0.606-0.24-0.949-0.439-0.972-0.473c-0.011-0.018-0.036-0.018-0.026-0.184
	c0.009-0.166,0.079-0.465,0.236-0.892c0-0.009,0-0.018,0-0.026l8.241-24.357c0.011-0.024,0.017-0.004,0.026-0.026v-0.026
	C483.708,73.245,483.847,73.116,483.924,73.083L483.924,73.083z"/>
<path id="circle41" fill="#F4F4F4" d="M485.083,84.396c-1.62,0-2.939,1.346-2.939,2.966c0,1.621,1.319,2.939,2.939,2.939
	s2.966-1.319,2.966-2.939C488.049,85.741,486.703,84.396,485.083,84.396z"/>
<path id="circle43" fill="#F4F4F4" d="M481.849,144.837c-8.304,0-15.038,6.735-15.038,15.039c0,8.304,6.735,15.066,15.038,15.066
	c8.304,0,15.066-6.762,15.066-15.066C496.915,151.573,490.153,144.837,481.849,144.837z M481.849,146.517
	c7.396,0,13.388,5.963,13.388,13.359c0,7.396-5.99,13.386-13.388,13.386c-7.396,0-13.358-5.99-13.358-13.386
	C468.49,152.48,474.454,146.517,481.849,146.517z"/>
<path id="circle47" fill="#F4F4F4" d="M521.014,114.815c-8.304,0-15.04,6.761-15.04,15.065c0,8.304,6.736,15.039,15.04,15.039
	c8.303,0,15.065-6.735,15.065-15.039C536.079,121.578,529.317,114.815,521.014,114.815L521.014,114.815z M521.014,116.495
	c7.396,0,13.386,5.99,13.386,13.386c0,7.396-5.99,13.359-13.386,13.359c-7.396,0-13.359-5.963-13.359-13.359
	C507.654,122.485,513.617,116.495,521.014,116.495z"/>
<path id="path51" fill="#F4F4F4" d="M521.014,111.481c-10.152,0-18.399,8.247-18.399,18.399c0,0.189-0.006,0.363,0,0.551
	c0.001,0.009,0,0.018,0,0.026c0.001,0.479,0.048,0.933,0,1.26c-0.049,0.333-0.128,0.489-0.341,0.656
	c-3.986,3.023-8.026,6.496-12.048,10.367c-0.492,0.335-0.886,0.276-1.521,0.053c-0.008-0.004-0.019,0.003-0.026,0
	c-2.112-0.845-4.415-1.313-6.824-1.313c-10.15,0-18.399,8.247-18.399,18.398c0,3.652,1.076,7.058,2.914,9.921
	c0,0.009,0,0.017,0,0.026c0.215,0.331,0.326,0.586,0.368,0.814c0.037,0.206,0.03,0.424-0.105,0.734
	c-0.015,0.034-0.008,0.042-0.026,0.079c-6.972,10.869-11.634,21.352-13.49,30.131c-1.861,8.8-0.944,16.026,3.675,19.947
	c2.9,2.462,6.903,3.271,11.496,2.729c4.592-0.541,9.824-2.428,15.433-5.433c11.217-6.011,23.922-16.55,35.537-30.236
	c11.616-13.686,19.961-27.928,24.068-39.973c2.054-6.022,3.047-11.496,2.835-16.116c-0.212-4.62-1.667-8.431-4.567-10.893
	c-1.274-1.081-2.753-1.84-4.409-2.31c-0.061-0.012-0.123-0.018-0.185-0.017c-0.248-0.011-0.925-0.172-1.496-0.761
	c-3.369-4.286-8.618-7.034-14.488-7.034L521.014,111.481z M521.014,113.162c5.375,0,10.141,2.522,13.202,6.457
	c0.023,0.028,0.05,0.054,0.078,0.079c0.832,0.856,1.736,1.135,2.414,1.207c0.008,0.001,0.021-0.001,0.026,0
	c1.44,0.411,2.703,1.082,3.78,1.995c2.461,2.089,3.765,5.371,3.963,9.685s-0.748,9.627-2.756,15.512
	c-4.015,11.768-12.252,25.873-23.753,39.423c-11.501,13.55-24.078,23.969-35.039,29.842c-5.48,2.937-10.54,4.717-14.829,5.223
	c-4.29,0.507-7.748-0.246-10.209-2.336c-3.919-3.326-4.949-9.815-3.149-18.319c1.798-8.504,6.392-18.865,13.307-29.632
	c0.019-0.025,0.036-0.051,0.053-0.079c0.315-0.639,0.394-1.318,0.289-1.89c-0.106-0.571-0.368-1.013-0.63-1.417
	c-1.67-2.602-2.625-5.704-2.625-9.029c0-9.245,7.476-16.719,16.718-16.719c2.201,0,4.298,0.435,6.222,1.207c0.008,0,0.017,0,0.025,0
	c0.854,0.302,2.035,0.469,3.071-0.236c0.036-0.023,0.071-0.05,0.104-0.079c4.012-3.87,8.056-7.333,12.021-10.34
	c0.606-0.475,0.885-1.172,0.971-1.758c0.087-0.586,0.026-1.119,0.026-1.522c0-0.009,0-0.018,0-0.026c-0.006-0.177,0-0.347,0-0.525
	c0-9.245,7.475-16.719,16.719-16.719L521.014,113.162z"/>
<path id="path53" fill="#F4F4F4" d="M98.051,101.246c-8.17,0-15.708,2.588-21.995,6.824c-2.41,1.624-4.535,2.004-6.483,1.732
	s-3.746-1.219-5.249-2.415c-3.007-2.392-4.83-5.669-4.83-5.669c-0.229-0.407-0.746-0.551-1.153-0.322
	c-0.407,0.229-0.551,0.746-0.322,1.153c0.001,0.003,0.003,0.006,0.005,0.009c0,0,1.95,3.496,5.276,6.142
	c1.662,1.322,3.693,2.456,6.036,2.782s4.963-0.202,7.664-2.021c6.036-4.067,13.237-6.535,21.049-6.535
	c20.48,0,37.06,16.581,37.06,37.06c0,10.772-0.557,29.182-7.48,46.036c-6.923,16.854-20.093,32.134-45.668,36.954
	c-0.457,0.086-0.758,0.526-0.672,0.981c0.085,0.459,0.525,0.759,0.982,0.673c0.001,0,0.003-0.001,0.005-0.001
	c26.111-4.921,39.854-20.757,46.929-37.978c7.075-17.223,7.585-35.838,7.585-46.667C136.79,118.6,119.437,101.246,98.051,101.246
	L98.051,101.246z"/>
<path id="polyline55" fill="#F4F4F4" d="M195.238,31.772l-45.85,2.283c-0.463,0.014-0.829,0.401-0.814,0.865
	c0,0.009,0,0.019,0.001,0.027l0.134,2.914c0.021,0.464,0.414,0.823,0.877,0.802c0.464-0.021,0.824-0.414,0.803-0.878
	c0-0.001,0-0.002,0-0.003l-0.105-2.1l44.199-2.178l0.105,2.073c0.021,0.464,0.414,0.823,0.877,0.802
	c0.464-0.021,0.823-0.414,0.802-0.877c0-0.001,0-0.002,0-0.003l-0.131-2.939c-0.028-0.463-0.426-0.816-0.889-0.787c0,0,0,0,0,0
	H195.238z"/>
</svg>
