<?xml version="1.0" encoding="utf-8"?>
<!-- Generator: Adobe Illustrator 13.0.0, SVG Export Plug-In . SVG Version: 6.00 Build 14948)  -->
<!DOCTYPE svg [
	<!ENTITY ns_flows "http://ns.adobe.com/Flows/1.0/">
	<!ENTITY ns_extend "http://ns.adobe.com/Extensibility/1.0/">
	<!ENTITY ns_ai "http://ns.adobe.com/AdobeIllustrator/10.0/">
	<!ENTITY ns_graphs "http://ns.adobe.com/Graphs/1.0/">
	<!ENTITY ns_vars "http://ns.adobe.com/Variables/1.0/">
	<!ENTITY ns_imrep "http://ns.adobe.com/ImageReplacement/1.0/">
	<!ENTITY ns_sfw "http://ns.adobe.com/SaveForWeb/1.0/">
	<!ENTITY ns_custom "http://ns.adobe.com/GenericCustomNamespace/1.0/">
	<!ENTITY ns_adobe_xpath "http://ns.adobe.com/XPath/1.0/">
]>
<svg version="1.2" baseProfile="tiny"
	 id="Layer_3" xmlns:x="&ns_extend;" xmlns:i="&ns_ai;" xmlns:graph="&ns_graphs;" xmlns:rdf="http://www.w3.org/1999/02/22-rdf-syntax-ns#" xmlns:dc="http://purl.org/dc/elements/1.1/" xmlns:cc="http://creativecommons.org/ns#"
	 xmlns="http://www.w3.org/2000/svg" xmlns:xlink="http://www.w3.org/1999/xlink" xmlns:a="http://ns.adobe.com/AdobeSVGViewerExtensions/3.0/"
	 x="0px" y="0px" width="598.189px" height="350.26px" viewBox="0 0 598.189 350.26" xml:space="preserve">
<metadata  id="metadata55">
	<rdf:RDF>
		<cc:Work  rdf:about="">
			<dc:format>image/svg+xml</dc:format>
			<dc:type  rdf:resource="http://purl.org/dc/dcmitype/StillImage"></dc:type>
			<dc:title></dc:title>
		</cc:Work>
	</rdf:RDF>
	<sfw  xmlns="&ns_sfw;">
		<slices></slices>
		<sliceSourceBounds  x="691.305" y="-7652" width="539.602" height="16383" bottomLeftOrigin="true"></sliceSourceBounds>
	</sfw>
</metadata>
<path id="path3" fill="#F4F4F4" d="M145.037,32.153c-3.655,0.311-9.813,1.512-20.59,4.579c-10.644,3.027-26.682,5.284-41.103,7.417
	c-7.21,1.066-14.01,2.094-19.574,3.213c-5.565,1.119-9.834,2.25-12.21,3.749c-8.917,5.621-10.239,16.402-10.791,20.27
	c-0.161,1.122,0.032,2.065,0.481,2.758c0.45,0.692,1.12,1.068,1.741,1.286c0.572,0.199,1.109,0.251,1.554,0.268
	c0.039,0.916,0.228,2.371,1.687,3.669l1.151-1.286c-1.305-1.156-1.21-3.186-1.21-3.186l0.081-1.045l-1.044,0.134
	c0,0-0.911,0.101-1.66-0.16c-0.376-0.132-0.664-0.318-0.858-0.617c-0.193-0.298-0.333-0.755-0.214-1.579
	c0.56-3.921,1.847-13.934,9.987-19.065c1.888-1.191,6.12-2.401,11.62-3.508c5.502-1.106,12.317-2.148,19.521-3.213
	c14.409-2.131,30.426-4.354,41.29-7.444h0.026c10.729-3.052,16.808-4.233,20.244-4.525c1.718-0.146,2.771-0.067,3.374,0.081
	c0.603,0.146,0.744,0.286,0.884,0.455l1.312-1.098c-0.334-0.388-0.917-0.801-1.8-1.018c-0.891-0.217-2.081-0.289-3.907-0.134
	H145.037z"/>
<path id="path5" fill="#F4F4F4" d="M45.691,83.27c-0.906,0.206-1.845,0.201-2.838,0.375c-0.993,0.175-2.051,0.587-2.918,1.607
	c-1.736,2.039-2.775,6.06-3.428,15.29c-1.301,18.391-4.64,82.148-5.382,101.272c-0.369,9.486-1.952,23.285-0.83,36.979
	c1.122,13.694,4.954,27.347,15.584,36.363c3.19,2.72,6.673,5.235,10.016,6.881c3.342,1.647,6.587,2.482,9.345,1.635l-0.509-1.635
	c-2.063,0.635-4.939-0.002-8.087-1.552c-3.147-1.552-6.525-3.959-9.64-6.615c-10.135-8.611-13.919-21.755-15.022-35.225
	s0.483-27.18,0.857-36.791c0.74-19.07,4.06-82.872,5.355-101.187c0.645-9.126,1.842-12.908,3.025-14.3
	c0.592-0.696,1.143-0.906,1.928-1.045c0.786-0.138,1.786-0.144,2.919-0.401l-0.375-1.661V83.27z"/>
<path id="path7" fill="#F4F4F4" d="M189.988,25.03c-11.778,0-19.029,0.76-28.009,3.535c-8.98,2.775-19.653,7.526-38.559,15.558
	C85.684,60.157,72.633,59,61.598,60.376c-5.971,0.745-9.905,2.969-12.451,8.007c-2.544,5.036-3.87,12.744-5.355,24.875
	c-2.969,24.241-7.913,69.997-8.408,105.659c-0.247,17.75-2.011,34.894,0.481,49.535c2.493,14.645,9.402,26.81,26.241,34.061
	c31.131,13.407,50.328,12.191,83.33,25.491c33.322,13.429,84.784,19.815,138.246,19.815h31.167h0.856
	c53.464,0,104.933-6.387,138.246-19.815c33.002-13.3,52.199-12.084,83.329-25.491c16.84-7.25,23.749-19.415,26.241-34.061
	c2.493-14.642,0.729-31.786,0.482-49.535c-0.494-35.667-5.44-81.421-8.407-105.659c-1.487-12.131-2.812-19.839-5.355-24.875
	c-2.546-5.051-6.479-7.276-12.452-8.021c-11.035-1.375-24.084-0.219-61.83-16.253c-18.902-8.032-29.604-12.782-38.584-15.558
	c-8.979-2.775-16.202-3.535-27.976-3.535h-90.751h-37.941h-90.724L189.988,25.03z M189.988,26.744h90.723h37.942h90.75
	c11.706,0,18.655,0.729,27.473,3.455c8.816,2.724,19.508,7.466,38.425,15.503c37.902,16.103,51.532,15.047,62.282,16.388
	c5.677,0.707,8.783,2.457,11.112,7.068c2.331,4.612,3.716,12.22,5.196,24.314c2.964,24.209,7.915,69.945,8.406,105.47
	c0.25,17.847,1.979,34.953-0.454,49.242c-2.433,14.29-8.861,25.729-25.225,32.775c-30.857,13.29-50.055,12.039-83.303,25.439
	c-32.751,13.197-83.731,19.637-136.746,19.706c-0.287,0-0.568,0-0.854,0h-32.026c-53.327,0-104.674-6.439-137.603-19.706
	c-33.246-13.394-52.44-12.142-83.299-25.432c-16.363-7.053-22.792-18.492-25.225-32.775c-2.432-14.292-0.703-31.396-0.456-49.245
	c0.494-35.524,5.444-81.263,8.409-105.478c1.482-12.094,2.838-19.702,5.167-24.314c2.331-4.611,5.463-6.361,11.14-7.068
	c10.751-1.341,24.381-0.286,62.285-16.388c18.911-8.036,29.579-12.779,38.396-15.504s15.792-3.454,27.497-3.454L189.988,26.744z"/>
<path id="path9" fill="#F4F4F4" d="M454.361,32.153c-1.826-0.155-3.021-0.083-3.908,0.134c-0.887,0.217-1.473,0.629-1.794,1.018
	l1.303,1.098c0.14-0.168,0.28-0.308,0.883-0.455c0.603-0.148,1.654-0.227,3.375-0.081c3.436,0.292,9.514,1.474,20.243,4.525
	l0.24,0.054c10.86,3.06,26.763,5.274,41.076,7.39c7.205,1.066,13.992,2.107,19.494,3.213c5.5,1.106,9.759,2.318,11.646,3.508
	c8.141,5.132,9.429,15.145,9.988,19.065c0.117,0.825-0.021,1.28-0.214,1.58c-0.194,0.299-0.482,0.485-0.856,0.616
	c-0.75,0.262-1.661,0.16-1.661,0.16l-1.071-0.134l0.107,1.044c0,0,0.096,2.031-1.205,3.187l1.125,1.286
	c1.459-1.298,1.676-2.752,1.713-3.669c0.445-0.016,0.981-0.067,1.554-0.268c0.621-0.217,1.291-0.594,1.74-1.286
	s0.643-1.635,0.481-2.758c-0.551-3.867-1.874-14.649-10.791-20.269c-2.376-1.499-6.646-2.63-12.211-3.749
	c-5.552-1.121-12.346-2.149-19.553-3.215c-14.42-2.133-30.46-4.389-41.104-7.417c-10.778-3.067-16.939-4.269-20.59-4.579
	L454.361,32.153z"/>
<path id="path11" fill="#F4F4F4" d="M553.697,83.27l-0.374,1.661c1.133,0.257,2.105,0.263,2.892,0.401s1.362,0.349,1.955,1.044
	c1.179,1.386,2.352,5.17,2.998,14.218v0.08c1.296,18.319,4.643,82.119,5.383,101.187c0.372,9.61,1.933,23.324,0.83,36.792
	c-1.104,13.468-4.86,26.615-14.996,35.211c-3.113,2.657-6.492,5.064-9.639,6.613c-3.147,1.553-6.024,2.189-8.087,1.554l-0.497,1.636
	c2.759,0.851,6.003,0.016,9.345-1.633c3.343-1.646,6.825-4.16,10.016-6.88c10.63-9.017,14.464-22.671,15.584-36.364
	c1.121-13.694-0.463-27.492-0.83-36.979c-0.742-19.121-4.082-82.878-5.382-101.272c-0.653-9.229-1.692-13.25-3.427-15.29
	c-0.869-1.019-1.953-1.432-2.946-1.606c-0.993-0.174-1.904-0.169-2.811-0.375L553.697,83.27z"/>
<path id="path13" fill="#F4F4F4" d="M291.261,58.395c-63.826,0-97.306,5.218-110.964,6.694c-7.051,0.763-11.483,3.747-14.191,8.73
	c-2.709,4.982-3.81,11.825-4.74,20.564c-1.87,17.573-9.105,127.885-5.543,160.394c0.492,4.481,0.939,10.866,5.383,17.004
	c4.444,6.14,12.82,11.936,28.893,15.612c31.975,7.311,74.084,11.782,91.658,11.782h35.881c17.572,0,59.682-4.472,91.658-11.782
	c16.073-3.677,24.448-9.473,28.892-15.612c4.444-6.138,4.892-12.521,5.382-17.004c3.563-32.509-3.699-142.82-5.568-160.394
	c-0.93-8.739-2.032-15.583-4.74-20.564c-2.708-4.983-7.14-7.967-14.19-8.73c-13.655-1.476-47.138-6.694-110.964-6.694h-16.843
	H291.261z M291.261,60.108h16.841c63.733,0,96.988,5.177,110.775,6.668c6.668,0.721,10.397,3.307,12.879,7.872
	c2.483,4.565,3.629,11.233,4.552,19.921c1.838,17.284,9.031,128.187,5.544,160.019c-0.498,4.541-0.915,10.447-5.061,16.174
	c-4.147,5.728-12.085,11.351-27.901,14.968c-31.803,7.273-73.974,11.729-91.255,11.729h-35.882c-17.282,0-59.48-4.454-91.28-11.729
	c-15.817-3.617-23.756-9.24-27.901-14.968c-4.147-5.727-4.563-11.633-5.061-16.174c-3.488-31.833,3.73-142.735,5.569-160.019
	c0.925-8.688,2.043-15.356,4.525-19.921c2.483-4.565,6.212-7.151,12.88-7.872C194.27,65.285,227.529,60.108,291.261,60.108
	L291.261,60.108z"/>
<path id="path15" fill="#F4F4F4" d="M181.291,83.136c-1.487,0-2.705,1.218-2.705,2.705v155.494c0,1.485,1.218,2.704,2.705,2.704
	h236.819c1.486,0,2.704-1.219,2.704-2.704v-0.857V85.84c0-1.486-1.218-2.705-2.704-2.705H181.291z M181.291,84.849h236.819
	c0.561,0,0.991,0.43,0.991,0.991v155.494c0,0.562-0.431,0.99-0.991,0.99H181.291c-0.561,0-0.991-0.429-0.991-0.99V85.84
	C180.3,85.279,180.73,84.849,181.291,84.849z"/>
<g id="g17">
	<path fill="#F4F4F4" d="M129.542,228.164c0-5.183,4.201-9.384,9.386-9.384l0,0v0.857v0.855c-4.238,0.009-7.665,3.438-7.673,7.671
		l0,0c0.008,4.236,3.435,7.665,7.673,7.671l0,0c4.236-0.006,7.663-3.435,7.671-7.671l0,0c-0.008-4.233-3.435-7.662-7.671-7.671l0,0
		v-0.855v-0.857c5.183,0,9.384,4.201,9.384,9.384l0,0c0,5.183-4.201,9.384-9.384,9.386l0,0
		C133.744,237.548,129.542,233.347,129.542,228.164L129.542,228.164z"/>
	<path fill="#F4F4F4" d="M96.121,226.993c-4.25-1.081-7.08-4.896-7.08-9.089l0,0c0-0.765,0.093-1.542,0.29-2.314l0,0
		c1.079-4.25,4.895-7.082,9.091-7.082l0,0c0.762,0,1.539,0.092,2.313,0.292l0,0l40.496,10.271l-0.422,1.659l-40.498-10.271
		c-0.634-0.163-1.266-0.238-1.889-0.238l0,0c-3.424,0-6.55,2.314-7.43,5.794l0,0c-0.162,0.63-0.238,1.264-0.238,1.89l0,0
		c0,3.422,2.313,6.549,5.79,7.428l0,0l40.494,10.271h0.002l-0.422,1.662L96.121,226.993L96.121,226.993z"/>
</g>
<g id="g23">
	<path fill="#F4F4F4" d="M129.542,257.58c0.002-5.183,4.201-9.384,9.386-9.386l0,0v0.858v0.856
		c-4.236,0.008-7.665,3.437-7.671,7.671l0,0c0.006,4.236,3.435,7.662,7.671,7.671l0,0c4.237-0.009,7.665-3.435,7.671-7.671l0,0
		c-0.006-4.234-3.434-7.663-7.671-7.671l0,0v-0.856v-0.858c5.185,0.002,9.384,4.203,9.384,9.386l0,0
		c0,5.183-4.202,9.384-9.384,9.386l0,0C133.745,266.964,129.543,262.763,129.542,257.58L129.542,257.58z"/>
	<path fill="#F4F4F4" d="M96.123,256.409c-4.251-1.077-7.083-4.896-7.083-9.091l0,0c0-0.765,0.094-1.542,0.291-2.313l0,0
		c1.079-4.249,4.894-7.082,9.089-7.082l0,0c0.765,0,1.542,0.093,2.315,0.293l0,0l40.497,10.271l-0.422,1.661l-40.499-10.271
		c-0.634-0.164-1.266-0.238-1.892-0.238l0,0c-3.422,0-6.548,2.313-7.428,5.791l0,0c-0.162,0.63-0.237,1.264-0.237,1.89l0,0
		c0,3.426,2.313,6.551,5.789,7.43l0,0l40.495,10.271v0.002l-0.422,1.658L96.123,256.409L96.123,256.409z"/>
</g>
<path id="path29" fill="#F4F4F4" d="M514.796,204.944c-0.441-0.072-0.905-0.085-1.365,0.027l-55.722,13.576
	c-1.845,0.447-2.966,2.334-2.518,4.176c0.448,1.844,2.307,2.994,4.151,2.544l55.722-13.574c1.842-0.448,2.991-2.336,2.543-4.179
	C517.272,206.133,516.125,205.164,514.796,204.944L514.796,204.944z M513.86,206.658c0.941-0.229,1.859,0.316,2.088,1.259
	c0.229,0.942-0.344,1.887-1.286,2.115l-55.722,13.549c-0.943,0.229-1.86-0.315-2.089-1.258c-0.229-0.943,0.343-1.887,1.286-2.115
	L513.86,206.658z"/>
<path id="path31" fill="#F4F4F4" d="M514.796,215.92c-0.441-0.071-0.905-0.058-1.365,0.055l-55.722,13.576
	c-1.844,0.449-2.966,2.335-2.518,4.178c0.448,1.842,2.308,2.965,4.151,2.518l55.722-13.55c1.842-0.448,2.991-2.333,2.543-4.178
	c-0.335-1.381-1.482-2.378-2.812-2.597V215.92z M513.86,217.636c0.941-0.23,1.859,0.343,2.088,1.283
	c0.229,0.945-0.344,1.887-1.286,2.117l-55.722,13.547c-0.944,0.23-1.858-0.313-2.089-1.257c-0.229-0.944,0.343-1.887,1.286-2.116
	L513.86,217.636L513.86,217.636z"/>
<path id="path33" fill="#F4F4F4" d="M514.796,226.923c-0.441-0.072-0.905-0.058-1.365,0.055l-55.722,13.574
	c-1.844,0.448-2.966,2.309-2.518,4.151c0.448,1.844,2.308,2.993,4.151,2.544l55.722-13.548c1.842-0.448,2.991-2.335,2.543-4.178
	C517.272,228.139,516.125,227.144,514.796,226.923L514.796,226.923z M513.86,228.637c0.941-0.23,1.859,0.343,2.088,1.286
	c0.229,0.942-0.344,1.859-1.286,2.089l-55.722,13.575c-0.944,0.229-1.858-0.342-2.089-1.285c-0.229-0.941,0.343-1.859,1.286-2.088
	l55.713-13.574L513.86,228.637z"/>
<path id="path35" fill="#F4F4F4" d="M514.796,237.934c-0.441-0.073-0.905-0.058-1.365,0.053l-55.729,13.582
	c-1.844,0.448-2.965,2.308-2.517,4.15s2.307,2.994,4.149,2.545l55.723-13.577c1.843-0.448,2.993-2.308,2.544-4.15
	c-0.337-1.382-1.485-2.377-2.812-2.598L514.796,237.934z M513.86,239.647c0.941-0.229,1.859,0.342,2.088,1.284
	c0.229,0.943-0.344,1.859-1.286,2.09l-55.729,13.572c-0.943,0.23-1.859-0.342-2.089-1.286c-0.229-0.942,0.343-1.859,1.284-2.089
	l55.722-13.574L513.86,239.647z"/>
<path id="path37" fill="#F4F4F4" d="M514.796,248.936c-0.441-0.073-0.905-0.059-1.365,0.054l-55.722,13.549
	c-1.844,0.448-2.966,2.333-2.518,4.178c0.448,1.842,2.308,2.992,4.151,2.543l55.722-13.575c1.842-0.45,2.991-2.309,2.543-4.151
	C517.272,250.15,516.125,249.154,514.796,248.936L514.796,248.936z M513.86,250.649c0.941-0.23,1.859,0.344,2.088,1.285
	c0.229,0.943-0.344,1.859-1.286,2.089L458.94,267.6c-0.944,0.229-1.86-0.344-2.089-1.286c-0.229-0.942,0.343-1.858,1.286-2.088
	l55.713-13.572L513.86,250.649z"/>
<path id="circle39" fill="#F4F4F4" d="M475.356,143.302c-10.089,0-18.262,8.202-18.262,18.29c0,10.086,8.173,18.288,18.262,18.288
	c10.087,0,18.287-8.201,18.287-18.288C493.644,151.504,485.443,143.302,475.356,143.302z M475.356,145.017
	c9.161,0,16.574,7.412,16.574,16.575c0,9.16-7.413,16.575-16.574,16.575c-9.163,0-16.548-7.414-16.548-16.575
	C458.809,152.43,466.193,145.017,475.356,145.017z"/>
<path id="circle41" fill="#F4F4F4" d="M524.915,126.568c-10.086,0-18.261,8.201-18.261,18.288c0,10.089,8.175,18.291,18.261,18.291
	c10.089,0,18.29-8.202,18.29-18.291C543.205,134.769,535.005,126.568,524.915,126.568z M524.915,128.282
	c9.163,0,16.576,7.414,16.576,16.574c0,9.164-7.413,16.575-16.576,16.575c-9.16,0-16.547-7.412-16.547-16.575
	C508.368,135.695,515.755,128.282,524.915,128.282z"/>
<path id="circle43" fill="#F4F4F4" d="M475.888,73.496c-3.263,0-5.918,2.656-5.918,5.917c0,3.262,2.655,5.917,5.918,5.917
	c3.26,0,5.917-2.656,5.917-5.917C481.805,76.152,479.147,73.496,475.888,73.496z M475.888,75.209c2.334,0,4.202,1.869,4.202,4.204
	s-1.868,4.204-4.202,4.204c-2.337,0-4.205-1.868-4.205-4.204S473.551,75.209,475.888,75.209z"/>
<path id="path45" fill="#F4F4F4" d="M90.034,116.525c-2.102,0-3.802,1.729-3.802,3.83v17.967c0,0.493-0.109,0.538-0.107,0.536
	c0.001-0.002-0.094,0.054-0.375,0.054H67.675c-2.102,0-3.829,1.726-3.829,3.829v21.501c0,2.101,1.728,3.829,3.829,3.829h17.994
	c0.262,0,0.36,0.063,0.428,0.134c0.069,0.071,0.134,0.191,0.134,0.429v17.968c0,2.102,1.701,3.829,3.802,3.829h21.529
	c2.101,0,3.802-1.728,3.802-3.829v-17.914c0-0.453,0.112-0.567,0.107-0.562c-0.004,0.004,0.077-0.055,0.482-0.054h17.968
	c2.102,0,3.829-1.728,3.829-3.828v-21.503c0-2.102-1.728-3.829-3.829-3.829h-17.94c-0.342,0-0.438-0.088-0.483-0.134
	c-0.043-0.045-0.133-0.134-0.133-0.455v-17.967c0-2.101-1.702-3.829-3.802-3.829L90.034,116.525L90.034,116.525z M90.034,118.239
	h21.529c1.175,0,2.088,0.941,2.088,2.117v17.967c0,0.606,0.181,1.21,0.617,1.66c0.435,0.449,1.067,0.642,1.713,0.642h17.941
	c1.175,0,2.115,0.94,2.115,2.116v21.501c0,1.175-0.939,2.116-2.115,2.116h-17.967c-0.614,0-1.253,0.094-1.714,0.562
	c-0.461,0.468-0.59,1.108-0.59,1.768v17.914c0,1.175-0.913,2.115-2.088,2.115H90.034c-1.175,0-2.088-0.94-2.088-2.115v-17.968
	c0-0.597-0.199-1.203-0.616-1.634c-0.417-0.431-1.026-0.641-1.66-0.641H67.675c-1.175,0-2.115-0.941-2.115-2.116V142.74
	c0-1.175,0.939-2.116,2.115-2.116H85.75c0.431,0,0.985-0.043,1.472-0.455c0.489-0.411,0.724-1.075,0.724-1.847v-17.968
	C87.946,119.18,88.859,118.239,90.034,118.239L90.034,118.239z"/>
<path id="path47" fill="#F4F4F4" d="M94.371,118.754c-3.125,0-5.677,2.552-5.677,5.677v16.601c0,0.316-0.074,0.371-0.053,0.348
	c0.02-0.022,0.07,0-0.107,0H71.745c-3.125,0-5.676,2.551-5.676,5.678v12.852c0,3.124,2.551,5.676,5.676,5.676H88.4
	c0.038,0,0.11,0.033,0.16,0.081c0.05,0.048,0.134,0.13,0.134,0.455v16.414c0,3.126,2.551,5.678,5.677,5.678h12.853
	c3.125,0,5.678-2.552,5.678-5.678V165.88c0-0.299,0.023-0.259,0-0.241c-0.024,0.018,0.109-0.054,0.455-0.054h16.495
	c3.125,0,5.676-2.551,5.676-5.677v-12.852c0-3.126-2.55-5.678-5.676-5.678h-16.547c-0.276,0-0.29-0.039-0.321-0.081
	c-0.033-0.04-0.08-0.182-0.08-0.401l-0.004-16.487c0-3.125-2.551-5.677-5.676-5.677H94.368L94.371,118.754z M94.371,120.468h12.853
	c2.2,0,3.963,1.764,3.963,3.963v16.467c0,0.476,0.095,1.018,0.455,1.473c0.36,0.456,0.994,0.724,1.66,0.724h16.548
	c2.199,0,3.963,1.763,3.963,3.963v12.852c0,2.198-1.765,3.962-3.963,3.962h-16.494c-0.505,0-1.029,0.042-1.5,0.402
	c-0.47,0.361-0.669,1.009-0.669,1.606v16.655c0,2.198-1.764,3.964-3.963,3.964H94.371c-2.198,0-3.963-1.766-3.963-3.964v-16.414
	c0-0.695-0.24-1.3-0.643-1.686c-0.403-0.388-0.91-0.563-1.365-0.563H71.744c-2.199,0-3.963-1.764-3.963-3.962v-12.853
	c0-2.2,1.764-3.963,3.963-3.963h16.79c0.472,0,1.019-0.152,1.392-0.562c0.374-0.411,0.482-0.936,0.482-1.5v-16.602
	C90.407,122.233,92.173,120.468,94.371,120.468L94.371,120.468z"/>
<path id="circle49" fill="#F4F4F4" d="M100.798,145.205c-4.559,0-8.274,3.716-8.274,8.274s3.716,8.273,8.274,8.273
	c4.559,0,8.274-3.715,8.274-8.273S105.357,145.205,100.798,145.205z M100.798,146.919c3.633,0,6.561,2.926,6.561,6.56
	c0,3.632-2.928,6.56-6.561,6.56c-3.633,0-6.561-2.928-6.561-6.56C94.237,149.845,97.165,146.919,100.798,146.919z"/>
<g id="g51">
	<path fill="#F4F4F4" d="M95.909,140.716c-1.406-0.002-2.549-1.138-2.549-2.549l0,0c0-0.589,0.202-1.136,0.538-1.565l0,0l4.605-8.3
		c0.41-0.854,1.284-1.443,2.295-1.443l0,0c1.001,0,1.869,0.575,2.266,1.377l0,0l4.981,8.917v0.04c0.125,0.3,0.194,0.631,0.194,0.974
		l0,0c-0.002,1.409-1.142,2.549-2.549,2.549l0,0H95.909L95.909,140.716z M100.024,129.088l-4.7,8.476l-0.053,0.065
		c-0.123,0.149-0.196,0.332-0.196,0.538l0,0c0,0.461,0.375,0.833,0.835,0.835l0,0h9.781c0.461-0.002,0.833-0.375,0.835-0.835l0,0
		c0-0.141-0.037-0.272-0.096-0.385l0,0l-0.048-0.092l-4.834-8.656c-0.137-0.274-0.422-0.464-0.75-0.464l0,0
		C100.468,128.571,100.182,128.765,100.024,129.088L100.024,129.088z"/>
</g>
<g id="g55">
	<path fill="#F4F4F4" d="M83.922,160.389l-8.304-4.604c-0.852-0.409-1.441-1.287-1.441-2.296l0,0c0-1.001,0.577-1.868,1.379-2.266
		l0,0l10-5.586v0.414c1.373,0.038,2.477,1.162,2.477,2.548l0,0v9.779c0,1.41-1.141,2.549-2.549,2.551l0,0
		C84.897,160.927,84.351,160.724,83.922,160.389L83.922,160.389z M76.356,152.736c-0.277,0.14-0.468,0.423-0.466,0.751l0,0
		c-0.002,0.334,0.193,0.618,0.515,0.775l0,0l8.481,4.7l0.062,0.053c0.147,0.124,0.332,0.195,0.536,0.197l0,0
		c0.461-0.002,0.835-0.375,0.837-0.837l0,0v-9.779c-0.002-0.46-0.375-0.833-0.837-0.835l0,0c-0.146,0.002-0.272,0.035-0.385,0.092
		l0,0L76.356,152.736L76.356,152.736z"/>
</g>
<g id="g59">
	<path fill="#F4F4F4" d="M98.535,178.726l-4.98-8.916v-0.036c-0.125-0.302-0.195-0.633-0.193-0.979l0,0
		c0-1.409,1.14-2.548,2.549-2.548l0,0h9.779c1.409,0,2.549,1.142,2.549,2.548l0,0c0,0.588-0.201,1.134-0.535,1.563l0,0l-4.606,8.304
		c-0.411,0.853-1.288,1.44-2.297,1.442l0,0C99.8,180.105,98.932,179.529,98.535,178.726L98.535,178.726z M100.051,177.927
		c0.14,0.276,0.42,0.465,0.749,0.465l0,0c0.333,0,0.617-0.193,0.775-0.516l0,0l4.7-8.479l0.054-0.064
		c0.123-0.146,0.195-0.331,0.195-0.537l0,0c0-0.46-0.375-0.835-0.835-0.835l0,0H95.91c-0.461,0-0.835,0.375-0.835,0.835l0,0
		c0,0.142,0.033,0.272,0.095,0.389l0,0l-0.001,0l0.001,0l0.023,0.043L100.051,177.927L100.051,177.927z M94.411,169.582l0.165-0.086
		L94.411,169.582L94.411,169.582z"/>
</g>
<g id="g63">
	<path fill="#F4F4F4" d="M113.564,158.376v-9.781c0-1.41,1.141-2.549,2.549-2.549l0,0c0.592-0.002,1.141,0.204,1.571,0.541l0,0
		l8.294,4.6c0.856,0.411,1.443,1.287,1.443,2.296l0,0c0,1-0.575,1.866-1.379,2.266l0,0l-8.579,4.786l-0.01,0.013l-0.154,0.082
		c-0.355,0.189-0.763,0.293-1.186,0.293l0,0C114.705,160.923,113.564,159.784,113.564,158.376L113.564,158.376z M115.277,148.596
		v9.781c0,0.46,0.374,0.833,0.835,0.833l0,0c0.121,0,0.229-0.025,0.327-0.067l0,0l8.801-4.908c0.277-0.14,0.468-0.425,0.466-0.751
		l0,0c0-0.334-0.191-0.616-0.515-0.775l0,0l-8.476-4.7l-0.063-0.051c-0.15-0.125-0.336-0.197-0.54-0.197l0,0
		C115.653,147.76,115.277,148.136,115.277,148.596L115.277,148.596z"/>
</g>
<path id="circle67" fill="#F4F4F4" d="M475.356,140.655c-11.557,0-20.941,9.384-20.941,20.94c0,11.557,9.385,20.939,20.941,20.939
	c11.555,0,20.939-9.383,20.939-20.939C496.296,150.039,486.911,140.655,475.356,140.655z M475.356,142.369
	c10.629,0,19.226,8.595,19.226,19.226s-8.597,19.226-19.226,19.226c-10.631,0-19.227-8.595-19.227-19.226
	C456.13,150.965,464.725,142.369,475.356,142.369z"/>
<path id="circle69" fill="#F4F4F4" d="M524.915,123.921c-11.555,0-20.939,9.383-20.939,20.939c0,11.557,9.385,20.94,20.939,20.94
	c11.557,0,20.941-9.383,20.941-20.94C545.856,133.304,536.472,123.921,524.915,123.921z M524.915,125.634
	c10.629,0,19.227,8.595,19.227,19.226c0,10.629-8.597,19.226-19.227,19.226c-10.628,0-19.226-8.597-19.226-19.226
	C505.689,134.23,514.287,125.634,524.915,125.634z"/>
</svg>
