<?xml version="1.0" encoding="utf-8"?>
<!-- Generator: Adobe Illustrator 13.0.0, SVG Export Plug-In . SVG Version: 6.00 Build 14948)  -->
<!DOCTYPE svg [
	<!ENTITY ns_flows "http://ns.adobe.com/Flows/1.0/">
	<!ENTITY ns_extend "http://ns.adobe.com/Extensibility/1.0/">
	<!ENTITY ns_ai "http://ns.adobe.com/AdobeIllustrator/10.0/">
	<!ENTITY ns_graphs "http://ns.adobe.com/Graphs/1.0/">
	<!ENTITY ns_vars "http://ns.adobe.com/Variables/1.0/">
	<!ENTITY ns_imrep "http://ns.adobe.com/ImageReplacement/1.0/">
	<!ENTITY ns_sfw "http://ns.adobe.com/SaveForWeb/1.0/">
	<!ENTITY ns_custom "http://ns.adobe.com/GenericCustomNamespace/1.0/">
	<!ENTITY ns_adobe_xpath "http://ns.adobe.com/XPath/1.0/">
]>
<svg version="1.2" baseProfile="tiny"
	 id="Layer_3" xmlns:x="&ns_extend;" xmlns:i="&ns_ai;" xmlns:graph="&ns_graphs;" xmlns:rdf="http://www.w3.org/1999/02/22-rdf-syntax-ns#" xmlns:dc="http://purl.org/dc/elements/1.1/" xmlns:cc="http://creativecommons.org/ns#"
	 xmlns="http://www.w3.org/2000/svg" xmlns:xlink="http://www.w3.org/1999/xlink" xmlns:a="http://ns.adobe.com/AdobeSVGViewerExtensions/3.0/"
	 x="0px" y="0px" width="598.189px" height="350.26px" viewBox="0 0 598.189 350.26" xml:space="preserve">
<metadata  id="metadata55">
	<rdf:RDF>
		<cc:Work  rdf:about="">
			<dc:format>image/svg+xml</dc:format>
			<dc:type  rdf:resource="http://purl.org/dc/dcmitype/StillImage"></dc:type>
			<dc:title></dc:title>
		</cc:Work>
	</rdf:RDF>
	<sfw  xmlns="&ns_sfw;">
		<slices></slices>
		<sliceSourceBounds  x="864.52" y="-7652" width="192.733" height="16383" bottomLeftOrigin="true"></sliceSourceBounds>
	</sfw>
</metadata>
<path id="path3" fill="#F4F4F4" d="M239.236,13.811c-5.558,0-20.629,1.021-26.121,1.486c-2.808,0.238-5.091,0.877-6.674,2.616
	c-1.583,1.739-2.342,4.425-2.483,8.537c-0.143,4.143-0.358,37.325-0.532,71.382c-0.174,34.052-0.311,68.884-0.311,76.028
	c0,7.158,0.288,39.293,0.643,70.646c0.177,15.677,0.374,31.152,0.554,43.194c0.18,12.043,0.336,20.601,0.466,22.64
	c0.375,5.907,1.511,10.242,3.481,13.504c1.971,3.261,4.785,5.407,8.315,6.873c7.059,2.935,17.011,3.352,30.134,5.478
	c26.371,4.271,39.869,3.725,43.505,3.725h18.537c3.638,0,17.112,0.546,43.481-3.725c13.123-2.126,23.1-2.543,30.156-5.478
	c3.531-1.466,6.322-3.612,8.295-6.873c1.971-3.262,3.105-7.597,3.48-13.504c0.129-2.039,0.287-10.597,0.467-22.64
	c0.178-12.042,0.377-27.518,0.553-43.194c0.355-31.354,0.666-63.488,0.666-70.646c0-7.146-0.158-41.98-0.332-76.036
	c-0.186-34.048-0.377-67.23-0.52-71.375c-0.141-4.111-0.922-6.797-2.504-8.537c-1.59-1.739-3.867-2.378-6.678-2.616
	c-5.492-0.465-20.541-1.486-26.098-1.486h-56.92h-6.677h-56.895H239.236z M239.236,15.229h56.897h6.674h56.92
	c5.381,0,20.541,1.024,25.988,1.486c2.66,0.226,4.498,0.785,5.742,2.151s1.992,3.675,2.129,7.628
	c0.135,3.921,0.336,37.304,0.51,71.353c0.174,34.051,0.332,68.883,0.332,76.008c0,7.118-0.309,39.295-0.664,70.646
	c-0.178,15.675-0.375,31.132-0.555,43.172c-0.18,12.039-0.348,20.717-0.465,22.573c-0.367,5.769-1.477,9.87-3.283,12.86
	c-1.807,2.989-4.297,4.913-7.627,6.298c-6.66,2.766-16.623,3.249-29.822,5.388c-26.278,4.256-39.483,3.703-43.263,3.703h-18.537
	c-3.778,0-16.983,0.553-43.261-3.703l-0.111-0.022c-13.138-2.121-23.075-2.607-29.713-5.365c-3.33-1.385-5.843-3.309-7.65-6.298
	c-1.806-2.99-2.915-7.092-3.282-12.86c-0.111-1.854-0.278-10.53-0.458-22.571c-0.18-12.042-0.376-27.496-0.554-43.177
	c-0.355-31.35-0.644-63.527-0.644-70.644c0-7.125,0.137-41.957,0.311-76.008c0.174-34.053,0.397-67.435,0.532-71.353
	c0.136-3.953,0.886-6.262,2.129-7.628c1.244-1.366,3.082-1.925,5.743-2.151c5.447-0.461,20.607-1.485,25.988-1.485L239.236,15.229z"
	/>
<path id="path5" fill="#F4F4F4" d="M295.024,26.871c-15.769,0-64.798,0.387-70.646,0.576c-2.892,0.093-5.222,0.223-6.962,1.375
	c-1.741,1.151-2.617,3.292-2.617,6.741c0,3.33-0.043,32.956-0.066,62.64c-0.022,29.674-0.028,59.308,0.066,63.04v0.021
	c0.093,3.626,0.187,6.149,1.774,8.027c1.587,1.878,4.415,2.835,9.557,3.77c5.231,0.951,18.529,1.876,32.418,2.572
	c13.889,0.695,28.284,1.152,35.544,1.152h10.754c7.26,0,21.678-0.457,35.567-1.152c13.889-0.696,27.186-1.621,32.418-2.572
	c5.141-0.934,7.947-1.891,9.535-3.77c1.586-1.878,1.703-4.402,1.795-8.027c0.096-3.714,0.09-33.377,0.066-63.062
	c-0.023-29.684-0.066-59.31-0.066-62.64c0-3.449-0.875-5.589-2.615-6.741c-1.742-1.151-4.07-1.282-6.963-1.375
	c-5.846-0.188-54.9-0.576-70.668-0.576h-8.892H295.024z M295.024,28.29h8.891c15.746,0,64.953,0.372,70.602,0.554
	c2.855,0.092,4.98,0.333,6.252,1.175c1.273,0.841,1.975,2.318,1.975,5.543c0,3.344,0.043,32.957,0.066,62.641
	s0.023,59.502-0.066,63.018v0.022c-0.094,3.588-0.273,5.709-1.465,7.118c-1.193,1.412-3.658,2.385-8.713,3.304
	c-4.967,0.902-18.369,1.855-32.242,2.55c-13.871,0.694-28.278,1.153-35.477,1.153h-10.755c-7.199,0-21.606-0.458-35.478-1.153
	c-13.872-0.695-27.274-1.647-32.241-2.55c-5.048-0.923-7.514-1.895-8.708-3.307c-1.193-1.413-1.349-3.534-1.441-7.139
	c-0.09-3.512-0.09-33.334-0.066-63.016c0.023-29.684,0.066-59.298,0.066-62.641c0-3.225,0.702-4.702,1.974-5.543
	c1.272-0.841,3.376-1.083,6.231-1.175c5.646-0.183,54.855-0.554,70.601-0.554H295.024z"/>
<path id="path7" fill="#F4F4F4" d="M245.223,42.703c-0.997,0-1.818,0.82-1.818,1.818v96.656c0,0.998,0.821,1.818,1.818,1.818
	h108.521c0.996,0,1.818-0.82,1.818-1.818V44.521c0-0.997-0.82-1.818-1.818-1.818H245.223z M245.223,44.122h108.521
	c0.23,0,0.398,0.169,0.398,0.399v96.656c0,0.232-0.168,0.399-0.398,0.399H245.223c-0.23,0-0.399-0.168-0.399-0.399V44.521
	C244.823,44.291,244.993,44.122,245.223,44.122z"/>
<path id="path9" fill="#F4F4F4" d="M286.928,281.399c-2.411,0-4.614,0.227-6.297,0.798c-0.842,0.286-1.563,0.661-2.106,1.197
	c-0.544,0.536-0.887,1.265-0.887,2.063c0,0.8,0.343,1.525,0.887,2.063c0.543,0.536,1.265,0.911,2.106,1.197
	c1.683,0.572,3.886,0.775,6.297,0.775c2.412,0,4.614-0.203,6.297-0.775c0.841-0.286,1.563-0.661,2.106-1.197
	c0.543-0.537,0.887-1.263,0.887-2.063c0-0.798-0.344-1.526-0.887-2.063c-0.544-0.536-1.265-0.911-2.106-1.197
	C291.542,281.625,289.339,281.399,286.928,281.399z M286.928,282.818c2.324,0,4.411,0.228,5.832,0.71
	c0.71,0.24,1.25,0.544,1.575,0.864c0.324,0.32,0.465,0.635,0.465,1.064s-0.141,0.722-0.465,1.042
	c-0.325,0.32-0.865,0.624-1.575,0.865c-1.42,0.482-3.508,0.709-5.832,0.709s-4.412-0.227-5.832-0.709
	c-0.71-0.241-1.251-0.545-1.574-0.865c-0.324-0.32-0.466-0.612-0.466-1.042s0.142-0.744,0.466-1.064
	c0.323-0.32,0.864-0.624,1.574-0.864C282.516,283.046,284.604,282.818,286.928,282.818z"/>
<path id="path11" fill="#F4F4F4" d="M315.849,281.399c-2.412,0-4.613,0.227-6.297,0.798c-0.842,0.286-1.563,0.661-2.106,1.197
	s-0.864,1.265-0.864,2.063c0,0.8,0.32,1.525,0.864,2.063c0.544,0.536,1.265,0.911,2.106,1.197c1.684,0.572,3.885,0.775,6.297,0.775
	s4.615-0.203,6.298-0.775c0.841-0.286,1.563-0.661,2.106-1.197c0.543-0.537,0.887-1.263,0.887-2.063
	c0-0.798-0.344-1.526-0.887-2.063c-0.544-0.536-1.266-0.911-2.106-1.197C320.464,281.626,318.261,281.399,315.849,281.399z
	 M315.849,282.818c2.324,0,4.412,0.228,5.832,0.71c0.711,0.24,1.25,0.544,1.574,0.864s0.466,0.635,0.466,1.064
	s-0.142,0.722-0.466,1.042s-0.863,0.624-1.574,0.865c-1.42,0.482-3.508,0.709-5.832,0.709s-4.411-0.227-5.831-0.709
	c-0.71-0.241-1.25-0.545-1.574-0.865s-0.444-0.612-0.444-1.042s0.12-0.744,0.444-1.064c0.323-0.32,0.864-0.624,1.574-0.864
	C311.438,283.046,313.524,282.818,315.849,282.818z"/>
<path id="path13" fill="#F4F4F4" d="M239.458,207.123c-2.021,0-3.681,1.659-3.681,3.681v11.242c0,0.11,0.007,0.069,0,0.11h-11.331
	c-2.022,0-3.681,1.637-3.681,3.659v8.227c0,2.023,1.659,3.681,3.681,3.681h11.331v11.331c0,2.021,1.659,3.681,3.681,3.681h8.227
	c2.021,0,3.658-1.659,3.658-3.681v-11.219c0-0.102,0.018-0.085,0.022-0.111h11.332c2.021,0,3.681-1.658,3.681-3.681v-8.228
	c0-2.022-1.66-3.659-3.681-3.659h-11.353c-0.004-0.019,0,0.022,0-0.044v-11.309c0-2.021-1.638-3.681-3.659-3.681H239.458
	L239.458,207.123z M239.458,208.542h8.227c1.254,0,2.239,1.006,2.239,2.262v11.309c0,0.342,0.059,0.729,0.333,1.042
	c0.274,0.314,0.689,0.422,1.042,0.422h11.397c1.254,0,2.262,0.983,2.262,2.239v8.227c0,1.257-1.007,2.262-2.262,2.262H251.32
	c-0.422,0-0.89,0.186-1.131,0.532c-0.24,0.346-0.266,0.696-0.266,0.997v11.221c0,1.254-0.985,2.262-2.239,2.262h-8.227
	c-1.254,0-2.262-1.008-2.262-2.262v-11.42c0-0.127,0.044-0.413-0.178-0.776c-0.222-0.362-0.705-0.554-1.153-0.554h-11.419
	c-1.254,0-2.262-1.007-2.262-2.262v-8.227c0-1.256,1.006-2.239,2.262-2.239h11.463c0.387,0,0.87-0.2,1.087-0.555
	c0.217-0.354,0.199-0.67,0.199-0.976v-11.242C237.195,209.548,238.203,208.542,239.458,208.542L239.458,208.542z"/>
<g id="g15">
	<path fill="#F4F4F4" d="M252.496,233.333v-6.798v-0.009l0,0c0.006-0.841,0.686-1.52,1.528-1.52l0,0
		c0.267-0.002,0.524,0.07,0.729,0.185l0,0l6.619,3.522l0.058,0.047c0.333,0.275,0.551,0.702,0.551,1.175l0,0
		c0,0.486-0.232,0.928-0.592,1.205l0,0l-0.044,0.035l-6.607,3.512c-0.216,0.112-0.46,0.174-0.712,0.174l0,0
		C253.182,234.859,252.498,234.179,252.496,233.333L252.496,233.333z M253.917,233.333c0,0.061,0.045,0.108,0.108,0.108l0,0
		c0.022,0,0.041-0.005,0.049-0.009l0,0l6.468-3.437c0.013-0.017,0.02-0.037,0.02-0.061l0,0c-0.001-0.021-0.006-0.038-0.014-0.053
		l0,0l-6.474-3.445c-0.017-0.008-0.029-0.013-0.049-0.013l0,0c-0.058,0-0.108,0.05-0.108,0.11l0,0V233.333L253.917,233.333z"/>
</g>
<path id="circle19" fill="#F4F4F4" d="M243.56,224.351c-3.071,0-5.565,2.517-5.565,5.588c0,3.07,2.495,5.565,5.565,5.565
	s5.588-2.495,5.588-5.565C249.147,226.867,246.63,224.351,243.56,224.351z M243.56,225.77c2.304,0,4.168,1.865,4.168,4.169
	c0,2.305-1.864,4.146-4.168,4.146s-4.146-1.842-4.146-4.146C239.413,227.635,241.255,225.77,243.56,225.77z"/>
<g id="g21">
	<path fill="#F4F4F4" d="M240.167,221.001c-0.845,0-1.528-0.683-1.53-1.528l0,0c0-0.269,0.072-0.524,0.186-0.728l0,0l3.523-6.624
		l0.045-0.054c0.279-0.337,0.707-0.55,1.174-0.55l0,0c0.486,0,0.928,0.229,1.207,0.59l0,0l0.038,0.047l3.508,6.607
		c0.112,0.213,0.174,0.459,0.174,0.711l0,0c0,0.846-0.684,1.526-1.528,1.526l0,0h-6.088v0.002H240.167L240.167,221.001z
		 M240.167,220.292v-0.71V220.292L240.167,220.292z M246.965,219.58c0.06,0,0.11-0.05,0.11-0.107l0,0
		c0-0.024-0.004-0.037-0.011-0.047l0,0l-3.438-6.473c-0.017-0.011-0.037-0.017-0.06-0.017l0,0c-0.022,0.001-0.039,0.005-0.052,0.014
		l0,0l-3.441,6.471c-0.013,0.021-0.015,0.031-0.015,0.052l0,0c0,0.052,0.039,0.098,0.089,0.107l0,0H246.965L246.965,219.58z"/>
</g>
<g id="g25">
	<path fill="#F4F4F4" d="M232.38,234.678l-6.625-3.524l-0.056-0.046c-0.332-0.277-0.549-0.702-0.549-1.172l0,0
		c0-0.487,0.232-0.933,0.592-1.21l0,0l0.052-0.039l6.604-3.508c0.213-0.112,0.456-0.172,0.708-0.172l0,0
		c0.845,0,1.528,0.686,1.528,1.528l0,0v6.798v0.005l0,0c-0.002,0.841-0.685,1.521-1.528,1.523l0,0
		C232.84,234.861,232.589,234.791,232.38,234.678L232.38,234.678z M233.051,233.427c0.019,0.01,0.037,0.015,0.056,0.015l0,0
		c0.06,0,0.109-0.05,0.109-0.108l0,0v-6.798c0-0.061-0.049-0.11-0.109-0.11l0,0c-0.021,0-0.038,0.005-0.048,0.011l0,0l-6.472,3.438
		c-0.01,0.017-0.016,0.035-0.016,0.062l0,0c0,0.019,0.004,0.035,0.013,0.051l0,0L233.051,233.427L233.051,233.427z"/>
</g>
<g id="g29">
	<path fill="#F4F4F4" d="M242.361,247.756l-0.04-0.048l-3.505-6.602c-0.116-0.218-0.178-0.463-0.178-0.716l0,0
		c0-0.846,0.683-1.528,1.529-1.53l0,0h6.799v0.711v0.71h-6.799c-0.058,0-0.11,0.049-0.11,0.109l0,0c0,0.019,0.006,0.035,0.012,0.046
		l0,0l3.432,6.467c0.019,0.014,0.041,0.021,0.065,0.021l0,0c0.021,0,0.038-0.005,0.054-0.016l0,0l3.439-6.467
		c0.01-0.017,0.014-0.033,0.014-0.052l0,0c0-0.061-0.05-0.109-0.108-0.109l0,0v-0.71v-0.711c0.844,0.002,1.527,0.685,1.527,1.53l0,0
		c0,0.266-0.068,0.519-0.185,0.726l0,0l-3.526,6.625l-0.043,0.055c-0.276,0.331-0.701,0.549-1.172,0.549l0,0
		C243.075,248.345,242.637,248.108,242.361,247.756L242.361,247.756z"/>
</g>
<path id="circle33" fill="#F4F4F4" d="M334.694,222.506c-7.004,0-12.705,5.68-12.705,12.684s5.701,12.705,12.705,12.705
	c7.006,0,12.705-5.701,12.705-12.705S341.698,222.506,334.694,222.506z M334.694,223.925c6.238,0,11.287,5.026,11.287,11.265
	c0,6.237-5.049,11.286-11.287,11.286c-6.236,0-11.285-5.049-11.285-11.286C323.409,228.951,328.458,223.925,334.694,223.925z"/>
<path id="circle35" fill="#F4F4F4" d="M369.925,211.005c-7.004,0-12.705,5.7-12.705,12.704c0,7.005,5.701,12.705,12.705,12.705
	s12.684-5.701,12.684-12.705S376.929,211.005,369.925,211.005z M369.925,212.424c6.236,0,11.264,5.049,11.264,11.285
	c0,6.237-5.027,11.286-11.264,11.286s-11.287-5.049-11.287-11.286C358.638,217.473,363.688,212.424,369.925,212.424z"/>
<path id="circle37" fill="#F4F4F4" d="M346.026,290.185c-1.186,0-2.172,0.964-2.172,2.15c0,1.185,0.986,2.173,2.172,2.173
	s2.152-0.988,2.152-2.173C348.179,291.148,347.212,290.185,346.026,290.185z"/>
<path id="circle39" fill="#F4F4F4" d="M346.026,300.892c-1.186,0-2.172,0.987-2.172,2.173c0,1.185,0.986,2.15,2.172,2.15
	s2.152-0.966,2.152-2.15C348.179,301.879,347.212,300.892,346.026,300.892z"/>
<path id="circle41" fill="#F4F4F4" d="M346.026,311.626c-1.186,0-2.172,0.966-2.172,2.151s0.986,2.173,2.172,2.173
	s2.152-0.987,2.152-2.173S347.212,311.626,346.026,311.626z"/>
<path id="circle43" fill="#F4F4F4" d="M351.589,284.067c-1.186,0-2.172,0.966-2.172,2.15s0.986,2.173,2.172,2.173
	s2.152-0.988,2.152-2.173S352.774,284.067,351.589,284.067z"/>
<path id="circle45" fill="#F4F4F4" d="M351.589,294.683c-1.186,0-2.172,0.988-2.172,2.173s0.986,2.151,2.172,2.151
	s2.152-0.967,2.152-2.151S352.774,294.683,351.589,294.683z"/>
<path id="circle47" fill="#F4F4F4" d="M351.589,305.326c-1.186,0-2.172,0.966-2.172,2.15c0,1.186,0.986,2.173,2.172,2.173
	s2.152-0.987,2.152-2.173C353.741,306.292,352.774,305.326,351.589,305.326z"/>
<path id="circle49" fill="#F4F4F4" d="M351.589,315.947c-1.186,0-2.172,0.966-2.172,2.15c0,1.187,0.986,2.174,2.172,2.174
	s2.152-0.987,2.152-2.174C353.741,316.913,352.774,315.947,351.589,315.947z"/>
<path id="circle51" fill="#F4F4F4" d="M356.954,288.565c-1.186,0-2.15,0.988-2.15,2.173c0,1.187,0.965,2.151,2.15,2.151
	s2.172-0.965,2.172-2.151C359.126,289.554,358.14,288.565,356.954,288.565z"/>
<path id="circle53" fill="#F4F4F4" d="M356.954,299.209c-1.186,0-2.15,0.966-2.15,2.15c0,1.187,0.965,2.173,2.15,2.173
	s2.172-0.986,2.172-2.173C359.126,300.175,358.14,299.209,356.954,299.209z"/>
<path id="circle55" fill="#F4F4F4" d="M356.954,309.831c-1.186,0-2.15,0.988-2.15,2.174c0,1.185,0.965,2.15,2.15,2.15
	s2.172-0.966,2.172-2.15C359.126,310.819,358.14,309.831,356.954,309.831z"/>
<path id="circle57" fill="#F4F4F4" d="M356.954,320.454c-1.186,0-2.15,0.986-2.15,2.173c0,1.185,0.965,2.151,2.15,2.151
	s2.172-0.967,2.172-2.151C359.126,321.44,358.14,320.454,356.954,320.454z"/>
<path id="circle59" fill="#F4F4F4" d="M362.63,282.088c-1.186,0-2.15,0.965-2.15,2.151c0,1.185,0.965,2.173,2.15,2.173
	s2.174-0.988,2.174-2.173C364.804,283.053,363.815,282.088,362.63,282.088z"/>
<path id="circle61" fill="#F4F4F4" d="M362.63,292.709c-1.186,0-2.15,0.988-2.15,2.173c0,1.187,0.965,2.151,2.15,2.151
	s2.174-0.965,2.174-2.151C364.804,293.697,363.815,292.709,362.63,292.709z"/>
<path id="circle63" fill="#F4F4F4" d="M362.63,303.332c-1.186,0-2.15,0.988-2.15,2.173s0.965,2.15,2.15,2.15s2.174-0.966,2.174-2.15
	S363.815,303.332,362.63,303.332z"/>
<path id="circle65" fill="#F4F4F4" d="M362.63,313.976c-1.186,0-2.15,0.966-2.15,2.15s0.965,2.173,2.15,2.173
	s2.174-0.988,2.174-2.173S363.815,313.976,362.63,313.976z"/>
<path id="circle67" fill="#F4F4F4" d="M367.888,286.416c-1.184,0-2.15,0.966-2.15,2.15c0,1.186,0.967,2.174,2.15,2.174
	c1.186,0,2.174-0.988,2.174-2.174C370.062,287.382,369.073,286.416,367.888,286.416z"/>
<path id="circle69" fill="#F4F4F4" d="M367.888,297.038c-1.184,0-2.15,0.987-2.15,2.174c0,1.185,0.967,2.15,2.15,2.15
	c1.186,0,2.174-0.966,2.174-2.15C370.062,298.025,369.073,297.038,367.888,297.038z"/>
<path id="circle71" fill="#F4F4F4" d="M367.888,307.682c-1.184,0-2.15,0.965-2.15,2.151c0,1.185,0.967,2.15,2.15,2.15
	c1.186,0,2.174-0.966,2.174-2.15C370.062,308.646,369.073,307.682,367.888,307.682z"/>
<path id="circle73" fill="#F4F4F4" d="M367.888,318.296c-1.184,0-2.15,0.966-2.15,2.151c0,1.185,0.967,2.173,2.15,2.173
	c1.186,0,2.174-0.988,2.174-2.173C370.062,319.262,369.073,318.296,367.888,318.296z"/>
<path id="circle75" fill="#F4F4F4" d="M373.345,279.873c-1.186,0-2.172,0.966-2.172,2.151c0,1.185,0.986,2.15,2.172,2.15
	s2.15-0.966,2.15-2.15C375.495,280.839,374.53,279.873,373.345,279.873z"/>
<path id="circle77" fill="#F4F4F4" d="M373.345,290.496c-1.186,0-2.172,0.966-2.172,2.15c0,1.186,0.986,2.173,2.172,2.173
	s2.15-0.987,2.15-2.173C375.495,291.462,374.53,290.496,373.345,290.496z"/>
<path id="circle79" fill="#F4F4F4" d="M373.345,301.118c-1.186,0-2.172,0.987-2.172,2.174c0,1.185,0.986,2.15,2.172,2.15
	s2.15-0.966,2.15-2.15C375.495,302.105,374.53,301.118,373.345,301.118z"/>
<path id="circle81" fill="#F4F4F4" d="M373.345,311.739c-1.186,0-2.172,0.988-2.172,2.174s0.986,2.15,2.172,2.15
	s2.15-0.965,2.15-2.15S374.53,311.739,373.345,311.739z"/>
<path id="circle83" fill="#F4F4F4" d="M378.646,283.883c-1.186,0-2.15,0.966-2.15,2.15c0,1.186,0.965,2.173,2.15,2.173
	c1.184,0,2.172-0.987,2.172-2.173C380.817,284.849,379.829,283.883,378.646,283.883z"/>
<path id="circle85" fill="#F4F4F4" d="M378.646,294.505c-1.186,0-2.15,0.965-2.15,2.151c0,1.185,0.965,2.173,2.15,2.173
	c1.184,0,2.172-0.988,2.172-2.173C380.817,295.47,379.829,294.505,378.646,294.505z"/>
<path id="circle87" fill="#F4F4F4" d="M378.646,305.126c-1.186,0-2.15,0.988-2.15,2.174s0.965,2.15,2.15,2.15
	c1.184,0,2.172-0.965,2.172-2.15S379.829,305.126,378.646,305.126z"/>
<path id="circle89" fill="#F4F4F4" d="M383.968,287.7c-1.188,0-2.174,0.987-2.174,2.174c0,1.185,0.986,2.15,2.174,2.15
	c1.184,0,2.15-0.966,2.15-2.15C386.118,288.688,385.151,287.7,383.968,287.7z"/>
<path id="circle91" fill="#F4F4F4" d="M383.968,298.344c-1.188,0-2.174,0.966-2.174,2.151c0,1.185,0.986,2.173,2.174,2.173
	c1.184,0,2.15-0.988,2.15-2.173C386.118,299.309,385.151,298.344,383.968,298.344z"/>
<path id="circle93" fill="#F4F4F4" d="M383.968,308.965c-1.188,0-2.174,0.988-2.174,2.174s0.986,2.15,2.174,2.15
	c1.184,0,2.15-0.965,2.15-2.15S385.151,308.965,383.968,308.965z"/>
<path id="circle95" fill="#F4F4F4" d="M378.646,315.77c-1.186,0-2.15,0.966-2.15,2.151s0.965,2.173,2.15,2.173
	c1.184,0,2.172-0.987,2.172-2.173S379.829,315.77,378.646,315.77z"/>
</svg>
