<?xml version="1.0" encoding="utf-8"?>
<!-- Generator: Adobe Illustrator 13.0.0, SVG Export Plug-In . SVG Version: 6.00 Build 14948)  -->
<!DOCTYPE svg PUBLIC "-//W3C//DTD SVG 1.1//EN" "http://www.w3.org/Graphics/SVG/1.1/DTD/svg11.dtd">
<svg version="1.1"
	 id="Layer_3" xmlns:rdf="http://www.w3.org/1999/02/22-rdf-syntax-ns#" xmlns:dc="http://purl.org/dc/elements/1.1/" xmlns:cc="http://creativecommons.org/ns#"
	 xmlns="http://www.w3.org/2000/svg" xmlns:xlink="http://www.w3.org/1999/xlink" x="0px" y="0px" width="607px" height="367px"
	 viewBox="-5.404 -7.37 607 367" enable-background="new -5.404 -7.37 607 367" xml:space="preserve">
<path id="path3" fill="#F4F4F4" d="M294.78,0.002c-91.93,0-172.38,31.981-204.97,48.531C72.931,57.107,48.762,73.39,29.717,96.908
	c-19.045,23.514-32.958,54.324-29.063,91.714c5,47.998,27.068,87.064,50.562,114.66c11.747,13.795,23.846,24.715,34.375,32.469
	c10.529,7.754,19.426,12.371,25.094,13.469c8.126,1.572,18.219,1.686,28.031-1.938c9.813-3.622,19.294-11.037,26.094-24.375
	c13.446-26.375,21.082-52.288,48-66c27.04-13.775,62.088-16.375,69.594-16.375h33.375c7.508,0,42.555,2.601,69.594,16.375l0.189,0.1
	c26.762,13.738,34.399,39.596,47.813,65.906c6.801,13.338,16.281,20.753,26.094,24.375c9.813,3.622,19.906,3.511,28.031,1.938
	c5.668-1.097,14.566-5.715,25.094-13.469c10.529-7.754,22.629-18.673,34.375-32.469c23.496-27.592,45.563-66.658,50.563-114.66
	c3.895-37.392-10.019-68.2-29.063-91.719c-19.039-23.513-43.209-39.796-60.08-48.37C475.798,31.99,395.349,0.008,303.419,0.008
	h-8.625L294.78,0.002z M294.78,2.002h8.625c91.467,0,171.737,31.894,204.059,48.312c16.654,8.459,40.662,24.618,59.469,47.844
	c18.81,23.225,32.429,53.457,28.597,90.25c-4.949,47.506-26.804,86.241-50.097,113.59c-11.645,13.677-23.635,24.502-34.028,32.155
	c-10.396,7.656-19.279,12.128-24.281,13.095c-7.844,1.519-17.592,1.619-26.969-1.845c-9.379-3.461-18.406-10.469-25-23.404
	c-13.345-26.171-21.188-52.77-48.875-66.875c-27.568-14.043-62.551-16.596-70.5-16.596h-33.376c-7.947,0-42.907,2.537-70.469,16.563
	l-0.031,0.031c-27.69,14.104-35.533,40.704-48.875,66.875c-6.595,12.938-15.622,19.944-25,23.405
	c-9.378,3.462-19.125,3.361-26.969,1.845c-4.99-0.972-13.873-5.438-24.269-13.09c-10.395-7.66-22.385-18.48-34.031-32.16
	c-23.291-27.351-45.145-66.09-50.094-113.59c-3.833-36.8,9.786-67.03,28.594-90.254C50.067,74.929,74.074,58.77,90.728,50.31
	c32.331-16.419,112.59-48.312,204.06-48.312L294.78,2.002z"/>
<path id="circle5" fill="#F4F4F4" d="M139.53,59.752c-51.186,0-92.688,41.502-92.688,92.688s41.502,92.719,92.688,92.719
	s92.719-41.533,92.719-92.719S190.716,59.752,139.53,59.752z M139.53,61.752c50.105,0,90.719,40.583,90.719,90.688
	s-40.614,90.719-90.719,90.719s-90.688-40.614-90.688-90.719S89.425,61.752,139.53,61.752z"/>
<path id="circle7" fill="#F4F4F4" d="M139.53,79.346c-40.373,0-73.094,32.72-73.094,73.094c0,40.374,32.72,73.125,73.094,73.125
	c40.373,0,73.125-32.754,73.125-73.125C212.655,112.067,179.903,79.346,139.53,79.346z M139.53,81.346
	c39.293,0,71.125,31.801,71.125,71.094c0,39.293-31.832,71.125-71.125,71.125c-39.293,0-71.094-31.832-71.094-71.125
	C68.436,113.147,100.237,81.346,139.53,81.346z"/>
<path id="circle9" fill="#F4F4F4" d="M139.53,97.627c-30.273,0-54.812,24.54-54.812,54.812c0,30.273,24.54,54.843,54.812,54.843
	c30.273,0,54.844-24.57,54.844-54.843S169.803,97.627,139.53,97.627z M139.53,99.627c29.192,0,52.844,23.621,52.844,52.812
	c0,29.192-23.652,52.843-52.844,52.843c-29.192,0-52.812-23.651-52.812-52.843S110.339,99.627,139.53,99.627z"/>
<path id="path11" fill="#F4F4F4" d="M129.59,101.752c-1.82,0-3.313,1.491-3.313,3.313v27.875c0,2.118-0.623,3.606-1.688,4.625
	c-1.064,1.019-2.667,1.625-4.844,1.625H92.152c-1.821,0-3.313,1.492-3.313,3.313v19.906c0,1.821,1.492,3.313,3.313,3.313h27.594
	c2.021,0,3.638,0.628,4.75,1.719c1.112,1.091,1.781,2.69,1.781,4.813v27.595c0,1.82,1.492,3.313,3.313,3.313h19.906
	c1.82,0,3.313-1.492,3.313-3.313v-27.5c0-2.115,0.527-3.75,1.531-4.844c1.003-1.094,2.577-1.781,5.094-1.781h27.5
	c1.821,0,3.313-1.492,3.313-3.313v-19.906c0-1.82-1.492-3.313-3.313-3.313h-27.469c-2.622,0-4.209-0.671-5.188-1.688
	c-0.979-1.016-1.469-2.507-1.469-4.563v-27.875c0-1.821-1.492-3.313-3.313-3.313H129.59L129.59,101.752z M129.59,103.752h19.906
	c0.74,0,1.313,0.571,1.313,1.313v27.875c0,2.366,0.584,4.466,2.031,5.969c1.447,1.502,3.666,2.281,6.625,2.281h27.469
	c0.741,0,1.313,0.573,1.313,1.313v19.906c0,0.739-0.572,1.313-1.313,1.313h-27.5c-2.893,0-5.15,0.865-6.594,2.438
	c-1.444,1.573-2.031,3.751-2.031,6.188v27.5c0,0.741-0.571,1.313-1.313,1.313H129.59c-0.74,0-1.313-0.571-1.313-1.313v-27.594
	c0-2.557-0.878-4.72-2.406-6.219c-1.528-1.499-3.68-2.313-6.125-2.313H92.152c-0.738,0-1.313-0.573-1.313-1.313v-19.906
	c0-0.739,0.573-1.313,1.313-1.313h27.594c2.545,0,4.707-0.741,6.219-2.188c1.511-1.446,2.313-3.543,2.313-6.063v-27.875
	C128.278,104.323,128.851,103.751,129.59,103.752L129.59,103.752z"/>
<path id="path13" fill="#F4F4F4" d="M150.78,117.092c0,12.554,10.781,24.125,24.156,24.125v-2
	c-12.212,0-22.156-10.723-22.156-22.125H150.78L150.78,117.092z"/>
<path id="polygon15" fill="#F4F4F4" d="M174.22,116.312l-1.125,0.469l-8.75,3.719l-0.719,0.281l0.563,0.531l5.156,4.844l0.531,0.5
	l0.281-0.656l3.594-8.563L174.22,116.312L174.22,116.312z M172.376,118.187l-2.875,6.75l-4.063-3.844L172.376,118.187z"/>
<path id="circle17" fill="#F4F4F4" d="M139.53,140.562c-6.563,0-11.875,5.312-11.875,11.875s5.312,11.906,11.875,11.906
	s11.906-5.343,11.906-11.906S146.093,140.562,139.53,140.562z M139.53,142.562c5.482,0,9.906,4.393,9.906,9.875
	s-4.424,9.906-9.906,9.906c-5.482,0-9.875-4.424-9.875-9.906S134.048,142.562,139.53,142.562z"/>
<path id="path19" fill="#F4F4F4" d="M126.31,117.062c0,12.212-10.723,22.156-22.125,22.156v2c12.554,0,24.125-10.781,24.125-24.156
	H126.31z"/>
<path id="polygon21" fill="#F4F4F4" d="M103.41,117.782l0.469,1.125l3.719,8.75l0.281,0.719l0.531-0.563l4.844-5.156l0.5-0.531
	l-0.656-0.281l-8.563-3.594L103.41,117.782L103.41,117.782z M105.285,119.625l6.75,2.875l-3.844,4.063L105.285,119.625z"/>
<path id="path23" fill="#F4F4F4" d="M104.16,163.692v2c12.211,0,22.156,10.721,22.156,22.125h2
	C128.316,175.262,117.534,163.692,104.16,163.692z"/>
<path id="polygon25" fill="#F4F4F4" d="M109.22,178.252l-0.281,0.656l-3.594,8.563l-0.469,1.125l1.125-0.47l8.75-3.719l0.719-0.281
	l-0.563-0.53l-5.156-4.845L109.22,178.252L109.22,178.252z M109.595,179.972l4.063,3.813l-6.938,2.938L109.595,179.972z"/>
<path id="path27" fill="#F4F4F4" d="M174.91,163.692c-12.554,0-24.125,10.782-24.125,24.157h2c0-12.211,10.723-22.157,22.125-22.157
	V163.692z"/>
<path id="polygon29" fill="#F4F4F4" d="M171.22,176.532l-0.531,0.563l-4.844,5.156l-0.5,0.531l0.656,0.281l8.563,3.594l1.125,0.469
	l-0.469-1.125l-3.719-8.75L171.22,176.532L171.22,176.532z M170.876,178.345l2.938,6.938l-6.75-2.875L170.876,178.345z"/>
<path id="path31" fill="#F4F4F4" d="M503.531,81.908c-4.07,0.077-8.398,0.299-12.906,0.688c-18.037,1.553-39,5.863-58.375,15.031
	c-14.463,6.843-30.896,17.178-45,27.969c-14.105,10.79-25.869,21.996-31,30.844c-5.152,8.884-5.805,20.51-3.844,31.53
	c1.959,11.021,6.521,21.449,12.188,28c11.238,12.996,30.594,20.326,55.281,13.721c12.328-3.299,20.221-8.209,28.406-13.938
	c8.184-5.729,16.672-12.296,30.5-19.125c27.705-13.683,51.271-18.778,64.094-22.938c6.48-2.103,13.213-5.741,18.344-12.375
	c5.131-6.635,8.64-16.227,8.813-30.125c0.176-14.02-5.656-24.874-13.406-32.625s-17.39-12.442-25.126-14.376
	C525.679,82.732,515.738,81.676,503.531,81.908L503.531,81.908z M503.593,83.939c12.095-0.219,21.894,0.809,27.404,2.188
	c7.375,1.843,16.772,6.397,24.221,13.844c7.445,7.447,12.98,17.729,12.812,31.188c-0.168,13.577-3.545,22.693-8.375,28.938
	c-4.828,6.245-11.146,9.667-17.375,11.688c-12.568,4.075-36.357,9.235-64.22,22.968l-0.155,0.094
	c-13.99,6.91-22.652,13.561-30.781,19.25c-8.129,5.691-15.691,10.432-27.75,13.656c-24.082,6.445-42.508-0.673-53.25-13.094
	c-5.322-6.155-9.846-16.329-11.75-27.031c-1.902-10.701-1.213-21.9,3.594-30.188c4.828-8.324,16.502-19.541,30.5-30.25
	s30.338-20.989,44.625-27.75c19.09-9.034,39.867-13.306,57.719-14.844C495.276,84.212,499.563,84.013,503.593,83.939L503.593,83.939
	z"/>
<path id="path33" fill="#F4F4F4" d="M518.621,94.502c-8.469-0.256-17.479,1.42-26.219,4.813
	c-23.015,8.93-51.828,20.256-65.347,27.188c-10.75,5.514-25.024,11.353-37.153,19.094c-12.131,7.741-22.207,17.45-24.156,30.75
	c-3.871,26.396,19.443,45.891,44.094,41.313c12.195-2.266,20.463-7.176,29-13.125c8.535-5.949,17.387-12.911,31.031-19.563
	c13.656-6.658,28.184-11.455,40.875-15.313c12.688-3.858,23.488-6.779,29.844-9.781c6.484-3.063,12.375-9.775,15.25-18.219
	c2.873-8.443,2.689-18.633-3.125-28.5c-5.815-9.871-15.141-15.644-25.844-17.75C524.195,94.883,521.443,94.588,518.621,94.502
	L518.621,94.502z M518.558,96.502c2.722,0.081,5.375,0.371,7.938,0.875c10.246,2.016,18.981,7.418,24.5,16.781
	c5.518,9.366,5.676,18.919,2.969,26.875c-2.709,7.956-8.342,14.286-14.219,17.062c-6.008,2.837-16.838,5.756-29.563,9.625
	c-12.725,3.869-27.368,8.701-41.188,15.438c-13.834,6.743-22.851,13.851-31.313,19.75c-8.465,5.899-16.373,10.582-28.219,12.78
	c-23.432,4.353-45.434-13.91-41.75-39.03c1.826-12.458,11.336-21.771,23.25-29.375c11.914-7.603,26.121-13.421,37-19
	c13.271-6.807,42.18-18.166,65.188-27.094C501.669,97.884,510.396,96.258,518.558,96.502L518.558,96.502z"/>
<path id="circle35" fill="#F4F4F4" d="M403.089,149.782c-16.897,0-30.625,13.725-30.625,30.625
	c0,16.898,13.728,30.625,30.625,30.625c16.9,0,30.625-13.727,30.625-30.625C433.714,163.507,419.99,149.782,403.089,149.782z
	 M403.089,151.782c15.82,0,28.625,12.806,28.625,28.625c0,15.818-12.805,28.625-28.625,28.625
	c-15.817,0-28.625-12.807-28.625-28.625C374.464,164.588,387.271,151.782,403.089,151.782z"/>
<path id="circle37" fill="#F4F4F4" d="M403.089,155.442c-13.77,0-24.938,11.198-24.938,24.969c0,13.77,11.168,24.969,24.938,24.969
	c13.771,0,24.969-11.197,24.969-24.969C428.058,166.64,416.861,155.442,403.089,155.442z M403.089,157.442
	c12.691,0,22.969,10.279,22.969,22.969c0,12.689-10.276,22.969-22.969,22.969c-12.688,0-22.938-10.279-22.938-22.969
	C380.152,167.721,390.4,157.442,403.089,157.442z"/>
<path id="circle39" fill="#F4F4F4" d="M459.781,120.442c-16.9,0-30.625,13.694-30.625,30.594c0,16.9,13.725,30.625,30.625,30.625
	c16.897,0,30.594-13.726,30.594-30.625C490.375,134.137,476.679,120.442,459.781,120.442z M459.781,122.442
	c15.817,0,28.594,12.774,28.594,28.594c0,15.819-12.775,28.625-28.594,28.625c-15.82,0-28.625-12.807-28.625-28.625
	C431.156,135.218,443.96,122.442,459.781,122.442z"/>
<path id="circle41" fill="#F4F4F4" d="M459.781,126.092c-13.771,0-24.972,11.167-24.972,24.938
	c0,13.771,11.199,24.969,24.972,24.969c13.77,0,24.938-11.198,24.938-24.969C484.719,137.259,473.55,126.092,459.781,126.092z
	 M459.781,128.092c12.688,0,22.938,10.247,22.938,22.938c0,12.689-10.248,22.969-22.938,22.969
	c-12.691,0-22.972-10.279-22.972-22.969C436.81,138.34,447.089,128.092,459.781,128.092z"/>
<path id="circle43" fill="#F4F4F4" d="M519.781,98.783c-16.902,0-30.625,13.724-30.625,30.625c0,16.901,13.723,30.625,30.625,30.625
	c16.899,0,30.625-13.724,30.625-30.625C550.406,112.507,536.681,98.783,519.781,98.783z M519.781,100.783
	c15.817,0,28.625,12.805,28.625,28.625c0,15.82-12.808,28.625-28.625,28.625c-15.82,0-28.625-12.805-28.625-28.625
	C491.156,113.588,503.96,100.783,519.781,100.783z"/>
<path id="circle45" fill="#F4F4F4" d="M519.781,104.442c-13.771,0-24.939,11.198-24.939,24.969s11.168,24.969,24.939,24.969
	c13.77,0,24.969-11.198,24.969-24.969S533.55,104.442,519.781,104.442z M519.781,106.442c12.688,0,22.969,10.279,22.969,22.969
	s-10.279,22.969-22.969,22.969c-12.691,0-22.939-10.279-22.939-22.969S507.089,106.442,519.781,106.442z"/>
<path id="path47" fill="#F4F4F4" d="M442.91,50.346c-1.877-0.129-3.799,0.131-5.688,0.781l-41.1,14.125
	c-7.549,2.6-11.57,10.855-8.969,18.406c2.602,7.551,10.854,11.602,18.405,9l41.101-14.156c7.551-2.601,11.569-10.855,8.969-18.406
	C453.677,54.434,448.539,50.734,442.91,50.346L442.91,50.346z M442.785,52.346c4.854,0.329,9.252,3.51,10.938,8.406
	c2.25,6.529-1.188,13.595-7.719,15.844l-41.09,14.156c-6.529,2.25-13.594-1.189-15.844-7.719c-2.248-6.529,1.19-13.627,7.719-15.875
	l41.09-14.156C439.511,52.44,441.167,52.236,442.785,52.346L442.785,52.346z"/>
<path id="path49" fill="#F4F4F4" d="M441.839,56.846c-1.063-0.074-2.18,0.038-3.25,0.406L398.81,70.971
	c-4.276,1.473-6.536,6.16-5.063,10.438c1.473,4.278,6.16,6.568,10.438,5.094l39.75-13.719c4.277-1.473,6.566-6.16,5.095-10.438
	c-1.105-3.208-3.996-5.278-7.188-5.5H441.839z M441.683,58.814c2.416,0.163,4.628,1.746,5.47,4.188
	c1.121,3.256-0.588,6.785-3.845,7.906l-39.78,13.688c-3.254,1.122-6.785-0.587-7.906-3.844c-1.121-3.255,0.59-6.785,3.844-7.906
	l39.791-13.688c0.814-0.28,1.633-0.398,2.438-0.344H441.683L441.683,58.814z"/>
</svg>
