<?xml version="1.0" encoding="utf-8"?>
<!-- Generator: Adobe Illustrator 13.0.0, SVG Export Plug-In . SVG Version: 6.00 Build 14948)  -->
<!DOCTYPE svg [
	<!ENTITY ns_flows "http://ns.adobe.com/Flows/1.0/">
	<!ENTITY ns_extend "http://ns.adobe.com/Extensibility/1.0/">
	<!ENTITY ns_ai "http://ns.adobe.com/AdobeIllustrator/10.0/">
	<!ENTITY ns_graphs "http://ns.adobe.com/Graphs/1.0/">
	<!ENTITY ns_vars "http://ns.adobe.com/Variables/1.0/">
	<!ENTITY ns_imrep "http://ns.adobe.com/ImageReplacement/1.0/">
	<!ENTITY ns_sfw "http://ns.adobe.com/SaveForWeb/1.0/">
	<!ENTITY ns_custom "http://ns.adobe.com/GenericCustomNamespace/1.0/">
	<!ENTITY ns_adobe_xpath "http://ns.adobe.com/XPath/1.0/">
]>
<svg version="1.2" baseProfile="tiny"
	 id="Layer_3" xmlns:x="&ns_extend;" xmlns:i="&ns_ai;" xmlns:graph="&ns_graphs;" xmlns:rdf="http://www.w3.org/1999/02/22-rdf-syntax-ns#" xmlns:dc="http://purl.org/dc/elements/1.1/" xmlns:cc="http://creativecommons.org/ns#"
	 xmlns="http://www.w3.org/2000/svg" xmlns:xlink="http://www.w3.org/1999/xlink" xmlns:a="http://ns.adobe.com/AdobeSVGViewerExtensions/3.0/"
	 x="0px" y="0px" width="598.189px" height="350.26px" viewBox="0 0 598.189 350.26" xml:space="preserve">
<metadata  id="metadata55">
	<rdf:RDF>
		<cc:Work  rdf:about="">
			<dc:format>image/svg+xml</dc:format>
			<dc:type  rdf:resource="http://purl.org/dc/dcmitype/StillImage"></dc:type>
			<dc:title></dc:title>
		</cc:Work>
	</rdf:RDF>
	<sfw  xmlns="&ns_sfw;">
		<slices></slices>
		<sliceSourceBounds  x="890.89" y="-7652" width="141.737" height="16383" bottomLeftOrigin="true"></sliceSourceBounds>
	</sfw>
</metadata>
<path id="path3" fill="#F4F4F4" d="M233.999,19.117c-2.48,0-4.514,2.011-4.514,4.492v308.506c0,2.479,2.034,4.491,4.514,4.491
	h132.707c2.227,0,3.999-1.646,4.358-3.772h0.157v-0.719V23.608c0-2.48-2.036-4.492-4.516-4.492H233.999L233.999,19.117z
	 M233.999,20.554h132.707c1.701,0,3.078,1.351,3.078,3.054v307.788v0.719c0,1.701-1.374,3.054-3.078,3.054H233.999
	c-1.702,0-3.076-1.351-3.076-3.054V23.608C230.923,21.905,232.297,20.554,233.999,20.554L233.999,20.554z"/>
<path id="path5" fill="#F4F4F4" d="M251.517,56.173c-8.753,0-15.855,7.124-15.855,15.878v123.545
	c0,8.751,7.102,15.877,15.855,15.877h97.673c8.751,0,15.855-7.125,15.855-15.877v-0.719V72.051c0-8.753-7.104-15.878-15.855-15.878
	H251.517z M251.517,57.61h97.673c7.976,0,14.418,6.464,14.418,14.44v123.545c0,7.976-6.443,14.439-14.418,14.439h-97.673
	c-7.978,0-14.418-6.464-14.418-14.439V72.051C237.099,64.074,243.541,57.61,251.517,57.61z"/>
<path id="path7" fill="#F4F4F4" d="M258.097,65.335c-5.231,0-9.479,4.269-9.479,9.5v114.382c0,5.231,4.247,9.499,9.479,9.499h84.507
	c5.229,0,9.478-4.268,9.478-9.499V74.835c0-5.231-4.247-9.5-9.478-9.5H258.097z M258.097,66.773h84.507
	c4.454,0,8.04,3.608,8.04,8.063v114.382c0,4.455-3.586,8.062-8.04,8.062h-84.507c-4.454,0-8.041-3.606-8.041-8.062V74.835
	C250.056,70.381,253.642,66.773,258.097,66.773z"/>
<path id="circle9" fill="#F4F4F4" d="M300.363,216.409c-28.234,0-51.138,22.903-51.138,51.137s22.903,51.138,51.138,51.138
	s51.137-22.904,51.137-51.138S328.598,216.409,300.363,216.409z M300.363,217.847c27.456,0,49.7,22.242,49.7,49.699
	c0,27.458-22.244,49.7-49.7,49.7c-27.458,0-49.7-22.242-49.7-49.7C250.663,240.089,272.906,217.847,300.363,217.847z"/>
<path id="circle11" fill="#F4F4F4" d="M300.363,230.739c-20.64,0-37.393,16.754-37.393,37.393c0,20.64,16.753,37.393,37.393,37.393
	s37.37-16.753,37.37-37.393S321.003,230.739,300.363,230.739z M300.363,232.177c19.862,0,35.933,16.092,35.933,35.955
	c0,19.862-16.07,35.956-35.933,35.956c-19.864,0-35.956-16.094-35.956-35.956c0.003-19.864,16.095-35.955,35.958-35.955H300.363z"/>
<path id="path13" fill="#F4F4F4" d="M243.409,16.22c-0.83,0-1.527,0.676-1.527,1.505v1.976h1.437v-1.976
	c0-0.05,0.04-0.067,0.09-0.067h113.886c0.05,0,0.09,0.017,0.09,0.067v2.088h1.437v-2.088c0.009-0.829-0.689-1.505-1.522-1.505
	H243.419H243.409z"/>
<g id="g15">
	<g id="g17">
		<path fill="#F4F4F4" d="M258.635,99.395c-2.16,0-3.908-1.75-3.908-3.908l0,0V76.358c0-2.158,1.748-3.906,3.908-3.906l0,0h20.327
			c2.158,0,3.909,1.748,3.909,3.906l0,0v19.13l-0.002,0c-0.001,2.157-1.749,3.904-3.906,3.906l0,0H258.635L258.635,99.395z
			 M256.165,76.358v19.128c0.002,1.364,1.106,2.468,2.47,2.47l0,0h20.327c1.362-0.002,2.468-1.106,2.47-2.47l0,0V76.358
			c-0.002-1.362-1.108-2.468-2.47-2.47l0,0h-20.327C257.271,73.89,256.167,74.994,256.165,76.358L256.165,76.358z M281.483,95.753
			l0.662-0.265L281.483,95.753L281.483,95.753z"/>
		<path id="circle21" fill="#F4F4F4" d="M268.809,75.374c-5.818,0-10.555,4.737-10.555,10.556s4.737,10.556,10.555,10.556
			s10.533-4.737,10.533-10.556C279.342,80.112,274.627,75.374,268.809,75.374z M268.809,76.812c5.042,0,9.095,4.077,9.095,9.118
			c0,5.041-4.054,9.118-9.095,9.118c-5.041,0-9.118-4.077-9.118-9.118S263.768,76.812,268.809,76.812z"/>
	</g>
	<g id="g23">
		<path fill="#F4F4F4" d="M290.19,99.395c-2.158,0-3.907-1.749-3.907-3.907l0,0V76.359c0-2.158,1.749-3.907,3.907-3.907l0,0h20.329
			c2.156,0,3.906,1.749,3.906,3.907l0,0v20.665l-0.238-0.199c-0.547,1.5-1.985,2.57-3.671,2.57l0,0H290.19L290.19,99.395z
			 M287.721,76.359v19.128c0.002,1.364,1.106,2.467,2.469,2.47l0,0h20.326c1.362-0.002,2.466-1.106,2.47-2.47l0,0v-1.532
			l0.002,0.001V76.359c-0.002-1.365-1.105-2.469-2.469-2.472l0,0H290.19C288.827,73.89,287.723,74.994,287.721,76.359
			L287.721,76.359z M313.244,96.04l0.46-0.55L313.244,96.04L313.244,96.04z"/>
		<path id="circle27" fill="#F4F4F4" d="M300.363,75.374c-5.819,0-10.556,4.737-10.556,10.556s4.737,10.556,10.556,10.556
			c5.817,0,10.532-4.737,10.532-10.556C310.896,80.112,306.181,75.374,300.363,75.374z M300.363,76.812
			c5.041,0,9.096,4.077,9.096,9.118c0,5.041-4.056,9.118-9.096,9.118c-5.042,0-9.118-4.077-9.118-9.118
			S295.321,76.812,300.363,76.812z"/>
	</g>
	<g id="g29">
		<path fill="#F4F4F4" d="M321.744,99.395c-2.156,0-3.905-1.749-3.905-3.908l0,0V76.36c0-2.159,1.747-3.908,3.905-3.908l0,0h20.328
			c2.156,0,3.908,1.749,3.908,3.908l0,0v19.127v0.002l0,0c-0.002,2.158-1.752,3.906-3.908,3.906l0,0H321.744L321.744,99.395z
			 M319.273,76.36v19.127c0.004,1.365,1.108,2.469,2.471,2.471l0,0h20.328c1.362-0.002,2.467-1.106,2.471-2.471l0,0V76.36
			c-0.004-1.365-1.108-2.469-2.471-2.471l0,0h-20.328C320.38,73.891,319.277,74.995,319.273,76.36L319.273,76.36z"/>
		<path id="circle33" fill="#F4F4F4" d="M331.915,75.374c-5.817,0-10.555,4.737-10.555,10.556s4.737,10.556,10.555,10.556
			c5.818,0,10.533-4.737,10.533-10.556C342.448,80.112,337.733,75.374,331.915,75.374z M331.915,76.812
			c5.042,0,9.097,4.077,9.097,9.118c0,5.041-4.055,9.118-9.097,9.118c-5.041,0-9.117-4.077-9.117-9.118
			S326.874,76.812,331.915,76.812z"/>
	</g>
</g>
<g id="g35">
	<g id="g37">
		<path fill="#F4F4F4" d="M258.635,130.44c-2.16,0-3.908-1.748-3.908-3.907l0,0v-19.13c0-2.159,1.75-3.909,3.908-3.909l0,0h20.327
			c2.158,0.002,3.909,1.748,3.909,3.909l0,0v20.868l-0.282-0.282c-0.577,1.437-1.982,2.451-3.626,2.451l0,0H258.635L258.635,130.44z
			 M256.165,107.403v19.13c0.002,1.365,1.106,2.468,2.47,2.471l0,0h20.327c1.362-0.002,2.468-1.106,2.47-2.471l0,0v-19.13
			c-0.002-1.365-1.108-2.468-2.47-2.47l0,0h-20.327C257.269,104.935,256.167,106.039,256.165,107.403L256.165,107.403z
			 M281.642,127.042l0.509-0.509L281.642,127.042L281.642,127.042z"/>
		<path id="circle41" fill="#F4F4F4" d="M268.809,106.411c-5.818,0-10.555,4.737-10.555,10.556s4.737,10.556,10.555,10.556
			s10.533-4.737,10.533-10.556C279.342,111.149,274.627,106.411,268.809,106.411z M268.809,107.849c5.042,0,9.095,4.077,9.095,9.118
			s-4.054,9.119-9.095,9.119c-5.041,0-9.118-4.077-9.118-9.119C259.691,111.926,263.768,107.849,268.809,107.849z"/>
	</g>
	<g id="g43">
		<path fill="#F4F4F4" d="M290.19,130.441c-2.158,0-3.907-1.75-3.907-3.907l0,0v-19.132c0-2.159,1.749-3.907,3.907-3.907l0,0h20.329
			c2.156,0,3.906,1.749,3.906,3.907l0,0v20.129l-0.122-0.041c-0.426,1.695-1.962,2.949-3.787,2.951l0,0H290.19L290.19,130.441z
			 M287.721,107.402v19.132c0.002,1.363,1.106,2.467,2.469,2.469l0,0h20.326c1.362-0.002,2.466-1.106,2.47-2.469l0,0v-0.997l0.002,0
			v-18.136c-0.002-1.363-1.105-2.467-2.469-2.469l0,0H290.19C288.827,104.935,287.723,106.039,287.721,107.402L287.721,107.402z
			 M313.477,127.214l0.229-0.679L313.477,127.214L313.477,127.214z"/>
		<path id="circle47" fill="#F4F4F4" d="M300.363,106.411c-5.819,0-10.556,4.737-10.556,10.556s4.737,10.556,10.556,10.556
			c5.817,0,10.532-4.737,10.532-10.556C310.896,111.149,306.181,106.411,300.363,106.411z M300.363,107.849
			c5.041,0,9.096,4.077,9.096,9.118s-4.056,9.119-9.096,9.119c-5.042,0-9.118-4.077-9.118-9.119
			C291.245,111.926,295.321,107.849,300.363,107.849z"/>
	</g>
	<g id="g49">
		<path fill="#F4F4F4" d="M321.744,130.441c-2.156,0-3.905-1.749-3.905-3.908l0,0v-19.131c0-2.159,1.747-3.908,3.905-3.908l0,0
			h20.328c2.156,0.002,3.908,1.749,3.908,3.908l0,0v19.131v0.002l0,0c-0.002,2.158-1.752,3.906-3.908,3.906l0,0H321.744
			L321.744,130.441z M319.273,107.402v19.131c0.004,1.365,1.108,2.469,2.471,2.471l0,0h20.328c1.362-0.002,2.467-1.106,2.471-2.471
			l0,0v-19.131c-0.004-1.363-1.108-2.467-2.471-2.471l0,0h-20.328C320.38,104.936,319.277,106.038,319.273,107.402L319.273,107.402z
			"/>
		<path id="circle53" fill="#F4F4F4" d="M331.915,106.411c-5.817,0-10.555,4.737-10.555,10.556s4.737,10.556,10.555,10.556
			c5.818,0,10.533-4.737,10.533-10.556C342.448,111.149,337.733,106.411,331.915,106.411z M331.915,107.849
			c5.042,0,9.097,4.077,9.097,9.118s-4.055,9.119-9.097,9.119c-5.041,0-9.117-4.077-9.117-9.119
			C322.798,111.926,326.874,107.849,331.915,107.849z"/>
	</g>
</g>
<g id="g55">
	<g id="g57">
		<path fill="#F4F4F4" d="M257.778,161.486c-2.159,0-3.908-1.749-3.908-3.906l0,0v-19.132c0-2.157,1.749-3.906,3.908-3.906l0,0
			h20.327c2.159,0,3.908,1.747,3.908,3.906l0,0v19.132v0.086l-0.001,0.005c-0.05,2.115-1.78,3.815-3.907,3.815l0,0H257.778
			L257.778,161.486z M255.307,138.448v19.132c0.002,1.363,1.106,2.467,2.471,2.469l0,0h20.327c1.363-0.002,2.467-1.106,2.469-2.469
			l0,0v-0.09l0.002-0.008v-19.034c-0.004-1.365-1.106-2.467-2.471-2.469l0,0h-20.327
			C256.414,135.981,255.31,137.085,255.307,138.448L255.307,138.448z"/>
		<path id="circle61" fill="#F4F4F4" d="M267.933,137.472c-5.818,0-10.533,4.716-10.533,10.533c0,5.818,4.715,10.556,10.533,10.556
			c5.818,0,10.556-4.737,10.556-10.556C278.489,142.187,273.752,137.472,267.933,137.472z M267.933,138.909
			c5.042,0,9.119,4.054,9.119,9.095c0,5.042-4.077,9.119-9.119,9.119c-5.041,0-9.095-4.077-9.095-9.119
			C258.838,142.963,262.892,138.909,267.933,138.909z"/>
	</g>
	<g id="g63">
		<path fill="#F4F4F4" d="M289.333,161.486c-2.158,0-3.907-1.749-3.907-3.907l0,0v-19.132c0-2.158,1.749-3.905,3.907-3.907l0,0
			h20.328c2.156,0.002,3.904,1.749,3.904,3.907l0,0v19.13v0.002c0,2.158-1.746,3.907-3.904,3.907l0,0H289.333L289.333,161.486z
			 M286.861,138.447v19.132c0.004,1.363,1.108,2.467,2.472,2.472l0,0h20.328c1.363-0.004,2.468-1.108,2.47-2.472l0,0v-0.002v-19.13
			c-0.002-1.363-1.106-2.467-2.47-2.469l0,0h-20.328C287.97,135.98,286.866,137.084,286.861,138.447L286.861,138.447z"/>
		<path id="circle67" fill="#F4F4F4" d="M299.487,137.472c-5.818,0-10.533,4.715-10.533,10.533c0,5.819,4.715,10.556,10.533,10.556
			c5.819,0,10.556-4.737,10.556-10.556S305.306,137.472,299.487,137.472z M299.487,138.909c5.042,0,9.119,4.054,9.119,9.095
			c0,5.042-4.076,9.119-9.119,9.119c-5.042,0-9.096-4.076-9.096-9.119C290.391,142.963,294.445,138.909,299.487,138.909z"/>
	</g>
	<g id="g69">
		<path fill="#F4F4F4" d="M320.881,161.486c-2.158,0-3.905-1.749-3.905-3.905l0,0v-19.133c0-2.158,1.747-3.905,3.905-3.905l0,0
			h20.328c2.158,0,3.907,1.747,3.907,3.905l0,0v19.131v0.002c0,2.156-1.749,3.905-3.907,3.905l0,0H320.881L320.881,161.486z
			 M318.412,138.447v19.133c0.002,1.362,1.104,2.466,2.469,2.469l0,0h20.328c1.364-0.002,2.469-1.106,2.471-2.469l0,0v-0.002
			v-19.131c-0.002-1.364-1.106-2.466-2.471-2.468l0,0h-20.328C319.517,135.981,318.414,137.085,318.412,138.447L318.412,138.447z"/>
		<path id="circle73" fill="#F4F4F4" d="M331.039,137.472c-5.818,0-10.532,4.716-10.532,10.533c0,5.818,4.715,10.556,10.532,10.556
			s10.557-4.737,10.557-10.556C341.596,142.187,336.857,137.472,331.039,137.472z M331.039,138.909c5.041,0,9.119,4.054,9.119,9.095
			c0,5.042-4.077,9.119-9.119,9.119c-5.041,0-9.095-4.077-9.095-9.119C321.944,142.963,325.998,138.909,331.039,138.909z"/>
	</g>
</g>
<g id="g75">
	<g id="g77">
		<path fill="#F4F4F4" d="M257.779,192.532c-2.159,0-3.908-1.749-3.908-3.906l0,0v-19.132c0-2.157,1.749-3.908,3.908-3.908l0,0
			h20.326c2.159,0,3.908,1.749,3.908,3.908l0,0v19.132v0.04l0,0.002c-0.024,2.136-1.763,3.864-3.908,3.864l0,0H257.779
			L257.779,192.532z M255.309,169.494v19.132c0.002,1.364,1.104,2.467,2.47,2.469l0,0h20.326c1.364-0.002,2.468-1.106,2.47-2.469
			l0,0v-0.004v-19.128c-0.002-1.364-1.104-2.468-2.47-2.472l0,0h-20.326C256.415,167.026,255.311,168.13,255.309,169.494
			L255.309,169.494z"/>
		<path id="circle81" fill="#F4F4F4" d="M267.933,168.511c-5.818,0-10.533,4.737-10.533,10.555c0,5.817,4.715,10.532,10.533,10.532
			c5.818,0,10.556-4.715,10.556-10.532C278.489,173.248,273.752,168.511,267.933,168.511z M267.933,169.948
			c5.042,0,9.119,4.076,9.119,9.118c0,5.041-4.077,9.095-9.119,9.095c-5.041,0-9.095-4.054-9.095-9.095
			C258.838,174.025,262.892,169.948,267.933,169.948z"/>
	</g>
	<g id="g83">
		<path fill="#F4F4F4" d="M289.333,192.532c-2.157,0-3.906-1.749-3.906-3.906l0,0v-19.132c0-2.157,1.747-3.908,3.906-3.908l0,0
			h20.328c2.158,0,3.907,1.749,3.907,3.908l0,0v19.128v0.004c0,2.155-1.747,3.906-3.907,3.906l0,0H289.333L289.333,192.532z
			 M286.862,169.494v19.132c0.002,1.364,1.106,2.467,2.47,2.469l0,0h20.328c1.363-0.002,2.468-1.106,2.47-2.469l0,0v-0.004v-19.128
			c-0.002-1.364-1.106-2.468-2.47-2.472l0,0h-20.328C287.968,167.026,286.864,168.13,286.862,169.494L286.862,169.494z"/>
		<path id="circle87" fill="#F4F4F4" d="M299.487,168.511c-5.818,0-10.533,4.736-10.533,10.555c0,5.818,4.715,10.532,10.533,10.532
			c5.819,0,10.556-4.715,10.556-10.532C310.043,173.248,305.306,168.511,299.487,168.511z M299.487,169.948
			c5.042,0,9.119,4.076,9.119,9.118c0,5.041-4.076,9.095-9.119,9.095c-5.042,0-9.096-4.054-9.096-9.095
			C290.391,174.024,294.445,169.948,299.487,169.948z"/>
	</g>
	<g id="g89">
		<path fill="#F4F4F4" d="M320.881,192.531c-2.158,0-3.905-1.747-3.905-3.905l0,0v-19.133c0-2.156,1.747-3.907,3.905-3.907l0,0
			h20.328c2.158,0,3.907,1.751,3.907,3.907l0,0v19.129v0.004c0,2.156-1.749,3.905-3.907,3.905l0,0H320.881L320.881,192.531z
			 M318.412,169.493v19.133c0.002,1.364,1.104,2.466,2.469,2.471l0,0h20.328c1.364-0.005,2.469-1.108,2.471-2.471l0,0v-0.004
			v-19.129c-0.002-1.362-1.106-2.468-2.471-2.47l0,0h-20.328C319.519,167.024,318.414,168.13,318.412,169.493L318.412,169.493z"/>
		<path id="circle93" fill="#F4F4F4" d="M331.039,168.511c-5.818,0-10.532,4.737-10.532,10.555c0,5.817,4.715,10.532,10.532,10.532
			s10.557-4.715,10.557-10.532C341.596,173.248,336.857,168.511,331.039,168.511z M331.039,169.948c5.041,0,9.119,4.076,9.119,9.118
			c0,5.041-4.077,9.095-9.119,9.095c-5.041,0-9.095-4.054-9.095-9.095C321.944,174.025,325.998,169.948,331.039,169.948z"/>
	</g>
</g>
</svg>
