<?xml version="1.0" encoding="utf-8"?>
<!-- Generator: Adobe Illustrator 13.0.0, SVG Export Plug-In . SVG Version: 6.00 Build 14948)  -->
<!DOCTYPE svg [
	<!ENTITY ns_flows "http://ns.adobe.com/Flows/1.0/">
	<!ENTITY ns_extend "http://ns.adobe.com/Extensibility/1.0/">
	<!ENTITY ns_ai "http://ns.adobe.com/AdobeIllustrator/10.0/">
	<!ENTITY ns_graphs "http://ns.adobe.com/Graphs/1.0/">
	<!ENTITY ns_vars "http://ns.adobe.com/Variables/1.0/">
	<!ENTITY ns_imrep "http://ns.adobe.com/ImageReplacement/1.0/">
	<!ENTITY ns_sfw "http://ns.adobe.com/SaveForWeb/1.0/">
	<!ENTITY ns_custom "http://ns.adobe.com/GenericCustomNamespace/1.0/">
	<!ENTITY ns_adobe_xpath "http://ns.adobe.com/XPath/1.0/">
]>
<svg version="1.2" baseProfile="tiny"
	 id="Layer_3" xmlns:x="&ns_extend;" xmlns:i="&ns_ai;" xmlns:graph="&ns_graphs;" xmlns:rdf="http://www.w3.org/1999/02/22-rdf-syntax-ns#" xmlns:dc="http://purl.org/dc/elements/1.1/" xmlns:cc="http://creativecommons.org/ns#"
	 xmlns="http://www.w3.org/2000/svg" xmlns:xlink="http://www.w3.org/1999/xlink" xmlns:a="http://ns.adobe.com/AdobeSVGViewerExtensions/3.0/"
	 x="0px" y="0px" width="598.189px" height="350.26px" viewBox="0 0 598.189 350.26" xml:space="preserve">
<metadata  id="metadata55">
	<rdf:RDF>
		<cc:Work  rdf:about="">
			<dc:format>image/svg+xml</dc:format>
			<dc:type  rdf:resource="http://purl.org/dc/dcmitype/StillImage"></dc:type>
			<dc:title></dc:title>
		</cc:Work>
	</rdf:RDF>
	<sfw  xmlns="&ns_sfw;">
		<slices></slices>
		<sliceSourceBounds  x="804.116" y="-7652" width="310.463" height="16383" bottomLeftOrigin="true"></sliceSourceBounds>
	</sfw>
</metadata>
<g>
	<path fill="#F4F4F4" d="M390.887,236.751c-3.419,0-6.711-1.672-9.7-4.674l0,0c-16.063-16.074-32.129-32.146-48.184-48.224l0,0
		c-2.918-2.915-4.54-6.164-4.54-9.522l0,0c0-3.367,1.624-6.623,4.558-9.543l0,0c16.146-16.17,32.297-32.337,48.45-48.497l0,0
		c2.822-2.835,6.071-4.39,9.403-4.386l0,0c3.332-0.004,6.578,1.547,9.405,4.38l0,0c15.659,15.666,31.295,31.348,46.979,46.978l0,0
		c2.349,2.345,4.738,4.902,5.851,8.53l0,0l0.065,0.213v4.449v0.223l-0.067,0.219c-1.121,3.628-3.523,6.172-5.868,8.514l0,0
		c-15.593,15.541-31.14,31.133-46.701,46.711l0,0c-2.972,2.979-6.247,4.635-9.646,4.633l0,0
		C390.891,236.751,390.889,236.751,390.887,236.751L390.887,236.751z M383.593,118.411c-16.152,16.16-32.305,32.327-48.453,48.497
		l0,0c-2.559,2.567-3.673,5.05-3.676,7.421l0,0c0.003,2.366,1.115,4.844,3.661,7.402l0,0c16.056,16.078,32.119,32.148,48.185,48.225
		l0,0c2.645,2.642,5.176,3.797,7.577,3.797l0,0c2.394-0.004,4.903-1.142,7.527-3.756l0,0c15.562-15.576,31.109-31.17,46.707-46.717
		l0,0c2.256-2.238,4.161-4.354,5.053-7.061l0,0v-3.76c-0.883-2.713-2.78-4.836-5.032-7.076l0,0
		c-15.688-15.634-31.325-31.321-46.982-46.98l0,0c-2.438-2.427-4.903-3.5-7.284-3.504l0,0
		C388.493,114.907,386.026,115.983,383.593,118.411L383.593,118.411z"/>
	<path fill="#F4F4F4" d="M296.401,328.473c-3.618-1.157-6.12-3.603-8.44-5.929l0,0c-15.527-15.606-31.102-31.166-46.665-46.746l0,0
		c-2.967-2.965-4.621-6.233-4.619-9.619l0,0c-0.002-3.381,1.643-6.641,4.604-9.588l0,0c16.104-16.118,32.208-32.236,48.318-48.354
		l0,0c2.875-2.883,6.145-4.472,9.504-4.468l0,0c3.34-0.004,6.586,1.563,9.435,4.422l0,0c16.106,16.118,32.213,32.235,48.315,48.358
		l0,0c2.959,2.955,4.599,6.248,4.597,9.65l0,0c0.002,3.385-1.624,6.657-4.56,9.588l0,0c-15.695,15.715-31.416,31.403-47.072,47.147
		l0,0c-2.276,2.285-4.791,4.544-8.324,5.548l0,0l-0.201,0.057h-2.936v0.553L296.401,328.473L296.401,328.473z M296.856,327.044
		l0.453-1.43L296.856,327.044L296.856,327.044z M300.869,325.542c2.623-0.793,4.673-2.555,6.821-4.721l0,0
		c15.662-15.746,31.385-31.439,47.076-47.15l0,0c2.56-2.571,3.682-5.073,3.682-7.469l0,0c0-2.408-1.134-4.935-3.718-7.529l0,0
		c-16.104-16.123-32.207-32.24-48.316-48.358l0,0c-2.467-2.458-4.933-3.542-7.312-3.544l0,0c-2.395,0.002-4.886,1.104-7.381,3.59
		l0,0c-16.112,16.116-32.215,32.234-48.32,48.352l0,0c-2.592,2.603-3.722,5.094-3.722,7.469l0,0c0,2.378,1.136,4.881,3.741,7.498
		l0,0c15.558,15.578,31.138,31.14,46.669,46.75l0,0c2.235,2.259,4.322,4.199,6.999,5.113l0,0H300.869L300.869,325.542z"/>
	<path fill="#F4F4F4" d="M241.006,199.643c-0.809-0.896-1.352-2.07-1.729-3.496l0,0c-0.406-1.573-0.421-3.138-0.425-4.552l0,0
		c-0.015-11.579-0.017-23.158-0.017-34.735l0,0c0-7.048,0-14.095,0.002-21.14l0,0h-0.002c0-9.89,0.049-19.774,0.049-29.649l0,0
		c0-8.035-0.033-16.064-0.151-24.086l0,0c-0.002-0.153-0.004-0.307-0.004-0.462l0,0c-0.035-5.21,1.438-9.77,5.647-13.357l0,0
		c3.088-2.666,5.89-5.812,8.914-8.844l0,0c11.805-11.817,23.61-23.637,35.421-35.45l0,0c2.953-2.961,6.222-4.605,9.606-4.603l0,0
		c3.388-0.002,6.655,1.646,9.606,4.605l0,0c16.063,16.068,32.124,32.141,48.187,48.215l0,0c2.944,2.939,4.573,6.222,4.571,9.615l0,0
		c0.002,3.395-1.631,6.68-4.575,9.623l0,0c-18.994,19.017-37.995,38.033-56.994,57.048l0,0
		c-16.776,16.795-33.551,33.589-50.333,50.38l0,0c-1.434,1.424-2.945,2.328-4.626,2.349l0,0c-0.013,0-0.025,0-0.038,0l0,0
		C242.929,201.102,241.791,200.53,241.006,199.643L241.006,199.643z M241.834,156.859c0,11.577,0.002,23.153,0.017,34.733l0,0
		c-0.002,1.373,0.04,2.699,0.33,3.795l0,0c0.288,1.113,0.69,1.854,1.047,2.24l0,0c0.371,0.383,0.595,0.459,0.928,0.473l0,0
		c0.458,0.02,1.382-0.336,2.504-1.469l0,0c16.781-16.791,33.556-33.585,50.333-50.379l0,0
		c18.999-19.016,38.001-38.031,56.994-57.048l0,0c2.566-2.584,3.696-5.099,3.696-7.502l0,0c0-2.402-1.126-4.916-3.692-7.494l0,0
		c-16.063-16.075-32.122-32.147-48.187-48.215l0,0c-2.602-2.593-5.103-3.725-7.483-3.725l0,0c-2.383,0-4.884,1.129-7.487,3.722l0,0
		c-11.809,11.813-23.612,23.633-35.419,35.45l0,0c-2.943,2.945-5.789,6.153-9.075,8.995l0,0c-3.49,3.057-4.57,6.337-4.607,11.085
		l0,0c0,0.135,0.002,0.274,0.004,0.417l0,0c0.116,8.046,0.149,16.089,0.149,24.132l0,0c0,9.886-0.047,19.77-0.047,29.649l0,0
		C241.837,142.765,241.834,149.813,241.834,156.859L241.834,156.859z"/>
	<path fill="#F4F4F4" d="M194.705,230.677c-7.567-7.553-15.109-15.125-22.658-22.688l0,0c-8.727-8.74-17.456-17.48-26.179-26.229
		l0,0c-2.057-2.057-3.161-4.62-3.157-7.213l0,0c-0.004-2.578,1.083-5.129,3.122-7.18l0,0c16.062-16.247,32.13-32.493,48.2-48.731
		l0,0c0.383-0.381,0.831-0.924,1.446-1.441l0,0c0.604-0.51,1.487-1.032,2.597-1.028l0,0c0.468-0.002,0.957,0.093,1.423,0.271l0,0
		c2.434,0.91,3.368,3.203,3.61,5.127l0,0c0.155,1.102,0.286,2.258,0.29,3.447l0,0c0.01,10.283,0.01,20.563,0.01,30.844l0,0
		c0,5.731,0,11.462,0,17.193l0,0h0.015v1.5c0,7.482,0.004,14.964,0.004,22.447l0,0c0,8.963-0.008,17.93-0.038,26.901l0,0
		c-0.01,1.714-0.273,3.528-0.916,5.196l0,0c-0.688,1.893-2.117,3.404-4.056,3.404l0,0
		C197.013,232.487,195.792,231.753,194.705,230.677L194.705,230.677z M197.4,119.501c-0.337,0.276-0.742,0.744-1.232,1.245l0,0
		c-16.072,16.24-32.139,32.484-48.201,48.733l0,0c-1.549,1.57-2.251,3.331-2.256,5.068l0,0c0.004,1.746,0.717,3.521,2.283,5.097l0,0
		c8.721,8.745,17.45,17.485,26.177,26.226l0,0c7.55,7.563,15.092,15.135,22.653,22.684l0,0c0.762,0.77,1.359,0.962,1.597,0.949l0,0
		c0.242,0,0.692-0.117,1.257-1.483l0,0c0.479-1.229,0.71-2.724,0.714-4.13l0,0c0.029-8.967,0.036-17.928,0.036-26.891l0,0
		c0-6.981-0.004-13.967-0.004-20.947l0,0h-0.012v-1.5c0-6.231,0-12.462,0-18.693l0,0c0-10.28-0.002-20.561-0.011-30.839l0,0
		c-0.002-0.97-0.112-1.989-0.261-3.026l0,0c-0.251-1.527-0.677-2.351-1.705-2.747l0,0c-0.172-0.064-0.277-0.077-0.358-0.077l0,0
		C197.916,119.17,197.748,119.22,197.4,119.501L197.4,119.501z"/>
</g>
</svg>
