<?xml version="1.0" encoding="utf-8"?>
<!-- Generator: Adobe Illustrator 13.0.0, SVG Export Plug-In . SVG Version: 6.00 Build 14948)  -->
<!DOCTYPE svg [
	<!ENTITY ns_flows "http://ns.adobe.com/Flows/1.0/">
	<!ENTITY ns_extend "http://ns.adobe.com/Extensibility/1.0/">
	<!ENTITY ns_ai "http://ns.adobe.com/AdobeIllustrator/10.0/">
	<!ENTITY ns_graphs "http://ns.adobe.com/Graphs/1.0/">
	<!ENTITY ns_vars "http://ns.adobe.com/Variables/1.0/">
	<!ENTITY ns_imrep "http://ns.adobe.com/ImageReplacement/1.0/">
	<!ENTITY ns_sfw "http://ns.adobe.com/SaveForWeb/1.0/">
	<!ENTITY ns_custom "http://ns.adobe.com/GenericCustomNamespace/1.0/">
	<!ENTITY ns_adobe_xpath "http://ns.adobe.com/XPath/1.0/">
]>
<svg version="1.2" baseProfile="tiny"
	 id="Layer_3" xmlns:x="&ns_extend;" xmlns:i="&ns_ai;" xmlns:graph="&ns_graphs;" xmlns:rdf="http://www.w3.org/1999/02/22-rdf-syntax-ns#" xmlns:dc="http://purl.org/dc/elements/1.1/" xmlns:cc="http://creativecommons.org/ns#"
	 xmlns="http://www.w3.org/2000/svg" xmlns:xlink="http://www.w3.org/1999/xlink" xmlns:a="http://ns.adobe.com/AdobeSVGViewerExtensions/3.0/"
	 x="0px" y="0px" width="598.189px" height="350.26px" viewBox="0 0 598.189 350.26" xml:space="preserve">
<metadata  id="metadata55">
	<rdf:RDF>
		<cc:Work  rdf:about="">
			<dc:format>image/svg+xml</dc:format>
			<dc:type  rdf:resource="http://purl.org/dc/dcmitype/StillImage"></dc:type>
			<dc:title></dc:title>
		</cc:Work>
	</rdf:RDF>
	<sfw  xmlns="&ns_sfw;">
		<slices></slices>
		<sliceSourceBounds  x="842.027" y="-7652" width="233.659" height="16383" bottomLeftOrigin="true"></sliceSourceBounds>
	</sfw>
</metadata>
<path id="path3" fill="#F4F4F4" d="M205.004,44.494c-2.364,0-4.299,1.936-4.299,4.299v138.192c0,2.364,1.936,4.301,4.299,4.301
	h184.914c2.363,0,4.276-1.937,4.276-4.301V48.793c0-2.363-1.912-4.299-4.276-4.299H205.004z M205.004,45.927h184.914
	c1.589,0,2.843,1.276,2.843,2.866v138.192c0,1.59-1.254,2.866-2.843,2.866H205.004c-1.59,0-2.866-1.276-2.866-2.866V48.793
	C202.138,47.204,203.415,45.927,205.004,45.927z"/>
<path id="path5" fill="#F4F4F4" d="M192.667,27.187c-2.364,0-4.299,1.935-4.299,4.299V284.8c0,2.365,1.935,4.3,4.299,4.3h209.568
	c2.362,0,4.299-1.935,4.299-4.3V31.485c0-2.364-1.937-4.299-4.299-4.299H192.667z M192.667,28.619h209.568
	c1.59,0,2.865,1.276,2.865,2.866V284.8c0,1.591-1.275,2.865-2.865,2.865H192.667c-1.589,0-2.866-1.274-2.866-2.865V31.485
	C189.801,29.896,191.078,28.619,192.667,28.619z"/>
<path id="path7" fill="#F4F4F4" d="M190.876,16.059c-5.658,0-10.254,4.596-10.254,10.254v256.904
	c0,5.658,4.597,10.254,10.254,10.254h213.149c5.659,0,10.255-4.597,10.255-10.254V26.32c0-5.663-4.592-10.26-10.253-10.26h-213.15
	L190.876,16.059z M190.876,17.492h213.149c4.884,0,8.821,3.937,8.821,8.821V283.21c0,4.885-3.939,8.822-8.821,8.822H190.876
	c-4.882,0.007-8.82-3.934-8.82-8.813V26.314C182.056,21.431,185.994,17.493,190.876,17.492L190.876,17.492z"/>
<path id="path9" fill="#F4F4F4" d="M201.176,242.62c-1.046,0-1.903,0.881-1.903,1.927v13.412c0,1.044,0.857,1.903,1.903,1.903
	h13.523c1.047,0,1.903-0.859,1.903-1.903v-13.412c0-1.046-0.857-1.927-1.903-1.927H201.176z M201.176,244.054h13.523
	c0.271,0,0.47,0.221,0.47,0.493v13.412c0,0.27-0.199,0.47-0.47,0.47h-13.523c-0.271,0-0.47-0.2-0.47-0.47v-13.412
	C200.706,244.274,200.905,244.054,201.176,244.054z"/>
<path id="path11" fill="#F4F4F4" d="M351.881,305.155c-1.927,0-3.493,1.591-3.493,3.515v15.001c0,1.924,1.566,3.494,3.493,3.494
	h32.263c1.925,0,3.491-1.57,3.491-3.494V308.67c0-1.924-1.566-3.515-3.491-3.515H351.881z M351.881,306.588h32.263
	c1.15,0,2.06,0.932,2.06,2.082v15.001c0,1.15-0.909,2.06-2.06,2.06h-32.263c-1.15,0-2.061-0.909-2.061-2.06V308.67
	C349.82,307.52,350.73,306.588,351.881,306.588z"/>
<path id="path13" fill="#F4F4F4" d="M371.268,308.199c-0.826,0-1.501,0.674-1.501,1.5v11.599c0,0.828,0.675,1.5,1.501,1.5h10.635
	c0.827,0,1.523-0.672,1.523-1.5v-11.599c0-0.826-0.698-1.5-1.523-1.5H371.268z M371.268,309.634h10.635
	c0.054,0,0.09,0.015,0.09,0.065v11.599c0,0.052-0.038,0.067-0.09,0.067h-10.635c-0.052,0-0.067-0.016-0.067-0.067v-11.599
	C371.2,309.648,371.216,309.634,371.268,309.634z"/>
<path id="path15" fill="#F4F4F4" d="M358.6,220.854c-2.582,0-4.701,2.118-4.701,4.703v0.648c0,0.224-0.05,0.376-0.112,0.446
	c-0.062,0.073-0.157,0.158-0.56,0.158h-60.631c-1.705,0-3.112,1.408-3.112,3.112v6.649c0,1.706,1.408,3.112,3.112,3.112h60.631
	c0.451,0,0.547,0.07,0.583,0.113c0.033,0.041,0.089,0.229,0.089,0.625v1.321c0,2.583,2.119,4.702,4.701,4.702h33.205
	c2.582,0,4.701-2.119,4.701-4.702v-16.187c0-2.585-2.117-4.703-4.701-4.703H358.6L358.6,220.854z M358.6,222.287h33.205
	c1.81,0,3.268,1.461,3.268,3.271v16.187c0,1.81-1.458,3.269-3.268,3.269H358.6c-1.81,0-3.269-1.459-3.269-3.269v-1.321
	c0-0.531-0.045-1.067-0.426-1.521c-0.379-0.456-1.003-0.651-1.679-0.651h-60.631c-0.93,0-1.679-0.747-1.679-1.679v-6.649
	c0-0.931,0.749-1.68,1.679-1.68h60.631c0.691,0,1.296-0.226,1.657-0.649c0.36-0.424,0.447-0.949,0.447-1.388v-0.648
	C355.331,223.747,356.791,222.287,358.6,222.287L358.6,222.287z"/>
<path id="path17" fill="#F4F4F4" d="M299.441,229.747c-0.827,0-1.5,0.673-1.5,1.499v3.718c0,0.825,0.673,1.499,1.5,1.499h61.369
	c0.245,0,0.256,0.057,0.246,0.046c-0.009-0.013,0.046,0.057,0.046,0.313v5.888c0,0.825,0.674,1.522,1.499,1.522h23.601
	c0.825,0,1.5-0.696,1.5-1.522v-11.464c0-0.826-0.675-1.499-1.5-1.499h-86.758H299.441z M299.441,231.18h86.758
	c0.052,0,0.066,0.015,0.066,0.066v11.464c0,0.052-0.015,0.089-0.066,0.089h-23.601c-0.051,0-0.066-0.036-0.066-0.089v-5.888
	c0-0.439-0.077-0.91-0.403-1.276c-0.323-0.368-0.837-0.516-1.321-0.516h-61.369c-0.051,0-0.068-0.017-0.068-0.066v-3.718
	c0-0.052,0.017-0.066,0.068-0.066H299.441z"/>
<path id="circle19" fill="#F4F4F4" d="M392.003,236.331c-1.018,0-1.859,0.818-1.859,1.834c0,1.019,0.842,1.86,1.859,1.86
	s1.858-0.842,1.858-1.86C393.861,237.149,393.021,236.331,392.003,236.331z"/>
<path id="path21" fill="#F4F4F4" d="M197.033,292.437l-1.208,0.784c2.469,3.905,6.82,6.493,11.777,6.493
	c4.954,0,9.329-2.592,11.8-6.493l-1.209-0.761c-2.217,3.5-6.136,5.82-10.59,5.82C203.145,298.28,199.25,295.942,197.033,292.437
	L197.033,292.437z"/>
<path id="path23_1_" d="M207.602,294.409"/>
<path id="path23_2_" fill="#F4F4F4" d="M201.668,292.999c1.616,1.33,3.678,2.127,5.934,2.127c2.28,0,4.377-0.815,6-2.173"/>
<path id="path25" fill="#F4F4F4" d="M185.995,291.563v40.369c0,2.364,1.936,4.276,4.299,4.276h214.339
	c2.364,0,4.298-1.912,4.298-4.276v-39.965H407.5v39.965c0,1.589-1.277,2.843-2.866,2.843H190.294c-1.59,0-2.867-1.254-2.867-2.843
	v-40.369H185.995z"/>
<path id="path27" fill="#F4F4F4" d="M298.546,48.188c-24.74,0.04-49.859,1.377-76.275,3.895h-0.022
	c-8.093,0.952-14.464,7.604-14.464,15.853v99.883c0,8.25,6.372,14.921,14.464,15.875h0.022c52.839,5.037,100.427,5.354,150.395,0
	c8.11-0.869,14.464-7.626,14.464-15.875V67.936c0-8.248-6.354-14.983-14.464-15.853c-24.983-2.677-49.363-3.936-74.111-3.896
	L298.546,48.188z M298.546,49.621c24.695-0.04,49.022,1.224,73.953,3.896c7.413,0.794,13.188,6.907,13.188,14.419v99.883
	c0,7.514-5.775,13.647-13.188,14.441c-49.855,5.345-97.325,5.026-150.078,0c-0.007-0.001-0.016,0-0.022,0
	c-7.402-0.881-13.188-6.936-13.188-14.441V67.936c0-7.505,5.785-13.538,13.188-14.419c0.007,0,0.015,0,0.022,0
	C248.794,51.003,273.857,49.661,298.546,49.621z"/>
</svg>
