<?xml version="1.0" encoding="utf-8"?>
<!-- Generator: Adobe Illustrator 13.0.0, SVG Export Plug-In . SVG Version: 6.00 Build 14948)  -->
<!DOCTYPE svg [
	<!ENTITY ns_flows "http://ns.adobe.com/Flows/1.0/">
	<!ENTITY ns_extend "http://ns.adobe.com/Extensibility/1.0/">
	<!ENTITY ns_ai "http://ns.adobe.com/AdobeIllustrator/10.0/">
	<!ENTITY ns_graphs "http://ns.adobe.com/Graphs/1.0/">
	<!ENTITY ns_vars "http://ns.adobe.com/Variables/1.0/">
	<!ENTITY ns_imrep "http://ns.adobe.com/ImageReplacement/1.0/">
	<!ENTITY ns_sfw "http://ns.adobe.com/SaveForWeb/1.0/">
	<!ENTITY ns_custom "http://ns.adobe.com/GenericCustomNamespace/1.0/">
	<!ENTITY ns_adobe_xpath "http://ns.adobe.com/XPath/1.0/">
]>
<svg version="1.2" baseProfile="tiny"
	 id="Layer_3" xmlns:x="&ns_extend;" xmlns:i="&ns_ai;" xmlns:graph="&ns_graphs;" xmlns:rdf="http://www.w3.org/1999/02/22-rdf-syntax-ns#" xmlns:dc="http://purl.org/dc/elements/1.1/" xmlns:cc="http://creativecommons.org/ns#"
	 xmlns="http://www.w3.org/2000/svg" xmlns:xlink="http://www.w3.org/1999/xlink" xmlns:a="http://ns.adobe.com/AdobeSVGViewerExtensions/3.0/"
	 x="0px" y="0px" width="598.189px" height="350.26px" viewBox="0 0 598.189 350.26" xml:space="preserve">
<metadata  id="metadata55">
	<rdf:RDF>
		<cc:Work  rdf:about="">
			<dc:format>image/svg+xml</dc:format>
			<dc:type  rdf:resource="http://purl.org/dc/dcmitype/StillImage"></dc:type>
			<dc:title></dc:title>
		</cc:Work>
	</rdf:RDF>
	<sfw  xmlns="&ns_sfw;">
		<slices></slices>
		<sliceSourceBounds  x="692.15" y="-7652" width="535.939" height="16383" bottomLeftOrigin="true"></sliceSourceBounds>
	</sfw>
</metadata>
<path id="path3" fill="#F4F4F4" d="M148.05,114.447c-23.656,0-42.861,19.204-42.861,42.861v37.414
	c0,23.658,19.205,42.86,42.861,42.86h38.694c23.656,0,42.861-19.202,42.861-42.86v-37.414c0-23.657-19.205-42.861-42.861-42.861
	H148.05z M148.05,116.352h38.694c22.627,0,40.956,18.328,40.956,40.956v37.414c0,22.629-18.329,40.956-40.956,40.956H148.05
	c-22.628,0-40.956-18.327-40.956-40.956v-37.414C107.094,134.679,125.422,116.352,148.05,116.352z"/>
<path id="path5" fill="#F4F4F4" d="M167.395,123.168c-3.23,0-5.863,2.633-5.863,5.864v13.037c0,3.23,2.632,5.863,5.863,5.863
	c3.23,0,5.863-2.633,5.863-5.863v-13.037C173.258,125.802,170.625,123.168,167.395,123.168z M167.395,125.074
	c2.201,0,3.958,1.758,3.958,3.958v13.037c0,2.2-1.758,3.958-3.958,3.958c-2.202,0-3.958-1.758-3.958-3.958v-13.037
	C163.436,126.832,165.194,125.074,167.395,125.074z"/>
<path id="path7" fill="#F4F4F4" d="M120.425,170.135c-3.23,0-5.864,2.633-5.864,5.864s2.632,5.894,5.864,5.894h13.037
	c3.229,0,5.864-2.662,5.864-5.894c0-3.229-2.633-5.864-5.864-5.864H120.425z M120.425,172.04h13.037
	c2.201,0,3.959,1.759,3.959,3.959c0,2.201-1.759,3.988-3.959,3.988h-13.037c-2.198-0.01-3.955-1.791-3.955-3.99
	c0-2.201,1.758-3.959,3.958-3.959L120.425,172.04z"/>
<path id="path9" fill="#F4F4F4" d="M167.395,204.071c-3.23,0-5.863,2.663-5.863,5.894v13.038c0,3.229,2.632,5.863,5.863,5.863
	c3.23,0,5.863-2.633,5.863-5.863v-13.038C173.258,206.735,170.625,204.071,167.395,204.071z M167.395,205.977
	c2.201,0,3.958,1.789,3.958,3.988v13.038c0,2.2-1.757,3.958-3.958,3.958c-2.202,0-3.958-1.759-3.958-3.958v-13.038
	C163.436,207.765,165.194,205.977,167.395,205.977z"/>
<path id="path11" fill="#F4F4F4" d="M201.321,170.135c-3.229,0-5.863,2.633-5.863,5.864s2.633,5.894,5.863,5.894h13.067
	c3.229,0,5.863-2.662,5.863-5.894c0-3.229-2.633-5.864-5.863-5.864H201.321z M201.321,172.04h13.067c2.2,0,3.958,1.76,3.958,3.959
	c0,2.201-1.758,3.988-3.958,3.988h-13.067c-2.2,0-3.958-1.788-3.958-3.988S199.122,172.04,201.321,172.04z"/>
<path id="polygon13" fill="#F4F4F4" d="M133.878,141.176l-1.31,1.31l8.155,12.025l0.655,0.952l0.804-0.803l3.869-3.87l0.804-0.804
	l-0.953-0.655L133.878,141.176z"/>
<path id="polygon15" fill="#F4F4F4" d="M141.383,196.566l-0.654,0.952l-8.156,12.024l1.31,1.31l12.025-8.155l0.953-0.654
	l-0.804-0.804l-3.87-3.869L141.383,196.566z"/>
<path id="polygon17" fill="#F4F4F4" d="M193.435,196.566l-0.804,0.804l-3.869,3.869l-0.833,0.804l0.953,0.654l12.025,8.155
	l1.339-1.31l-8.156-12.024L193.435,196.566L193.435,196.566z"/>
<path id="polygon19" fill="#F4F4F4" d="M200.912,141.176l-12.025,8.155l-0.953,0.655l0.833,0.804l3.87,3.87l0.804,0.803l0.655-0.952
	l8.155-12.025L200.912,141.176z"/>
<path id="path21" fill="#F4F4F4" d="M146.354,104.833c-27.67,0-50.123,22.453-50.123,50.124v42.117
	c0,27.671,22.453,50.123,50.123,50.123h42.117c27.671,0,50.124-22.452,50.124-50.123v-42.117c0-27.67-22.452-50.124-50.124-50.124
	H146.354z M146.354,106.739h42.117c26.644,0,48.219,21.577,48.219,48.218v42.117c0,26.644-21.577,48.218-48.219,48.218h-42.117
	c-26.642,0-48.218-21.574-48.218-48.218v-42.117C98.136,128.315,119.713,106.739,146.354,106.739z"/>
<path id="polygon23" fill="#F4F4F4" d="M69.499,75.694v0.952v202.961v0.952h0.953h196.122h0.952v-0.952v-26.401h289.521h0.952
	v-0.952V138.796v-0.953h-0.952H267.525V76.647v-0.952h-0.952H70.451L69.499,75.694L69.499,75.694z M71.403,77.599h194.217v61.196
	v0.953h0.953h0.714h288.807V251.3H266.868h-0.297h-0.953v0.953v26.4H71.401V77.598L71.403,77.599z"/>
<path id="circle25" fill="#F4F4F4" d="M400.692,169.126c-19.762,0-35.777,16.046-35.777,35.807s16.018,35.807,35.777,35.807
	s35.807-16.046,35.807-35.807S420.452,169.126,400.692,169.126L400.692,169.126z M400.692,171.031
	c18.73,0,33.901,15.17,33.901,33.902s-15.171,33.902-33.901,33.902c-18.731,0-33.872-15.171-33.872-33.902
	S381.961,171.031,400.692,171.031L400.692,171.031z"/>
<path id="circle27" fill="#F4F4F4" d="M400.692,177.669c-15.039,0-27.234,12.227-27.234,27.265s12.195,27.234,27.234,27.234
	c15.036,0,27.264-12.196,27.264-27.234S415.729,177.669,400.692,177.669z M400.692,179.574c14.008,0,25.359,11.351,25.359,25.359
	s-11.352,25.33-25.359,25.33c-14.01,0-25.33-11.321-25.33-25.33S386.683,179.574,400.692,179.574z"/>
<path id="circle29" fill="#F4F4F4" d="M489.919,169.126c-19.762,0-35.807,16.046-35.807,35.807s16.045,35.807,35.807,35.807
	c19.76,0,35.807-16.046,35.807-35.807S509.679,169.126,489.919,169.126L489.919,169.126z M489.919,171.031
	c18.73,0,33.901,15.17,33.901,33.902s-15.171,33.902-33.901,33.902c-18.731,0-33.902-15.171-33.902-33.902
	S471.188,171.031,489.919,171.031L489.919,171.031z"/>
<path id="circle31" fill="#F4F4F4" d="M489.919,177.669c-15.039,0-27.234,12.227-27.234,27.265s12.195,27.234,27.234,27.234
	c15.036,0,27.234-12.196,27.234-27.234S504.957,177.669,489.919,177.669z M489.919,179.574c14.008,0,25.329,11.351,25.329,25.359
	s-11.321,25.33-25.329,25.33c-14.01,0-25.33-11.321-25.33-25.33S475.909,179.574,489.919,179.574z"/>
<path id="path33" fill="#F4F4F4" d="M39.406,68.432c-4.766,0-8.662,3.896-8.662,8.662v203.084c0,4.766,3.897,8.661,8.662,8.661
	h518.646c4.429,0,7.956-3.411,8.453-7.709h0.179v-0.952V77.093c0-4.762-3.868-8.658-8.64-8.658H39.399L39.406,68.432z
	 M39.406,70.336h518.646c3.737,0,6.727,3.021,6.727,6.757v202.131v0.953c0,3.736-2.989,6.756-6.727,6.756H39.406
	c-3.732,0.01-6.753-3.019-6.753-6.753V77.097c0-3.736,3.02-6.756,6.756-6.756L39.406,70.336z"/>
<path id="rect35" fill="#F4F4F4" d="M359.021,163.559v0.953v81.465v0.952h0.953h81.465h0.953v-0.952v-81.465v-0.953h-0.953h-81.465
	H359.021z M360.927,165.464h79.561v79.56h-79.561V165.464z"/>
<path id="rect37" fill="#F4F4F4" d="M448.248,163.559v0.953v81.465v0.952h0.953h81.436h0.952v-0.952v-81.465v-0.953h-0.952h-81.436
	H448.248z M450.153,165.464h79.531v79.56h-79.531V165.464z"/>
<path id="polyline39" fill="#F4F4F4" d="M83.934,94.177v2.292V255.53v2.322l1.607-1.638l25.33-25.299l-1.369-1.369l-23.663,23.692
	V98.788l23.663,23.658l1.369-1.34l-25.33-25.299l-1.607-1.637V94.177z"/>
<path id="polyline41" fill="#F4F4F4" d="M222.305,232.551l-1.37,1.339l23.693,23.692H90.176l23.574-23.573l-1.369-1.339
	l-25.181,25.182l-1.637,1.637h2.292h159.062h2.292l-1.607-1.637l-25.299-25.3L222.305,232.551z"/>
<path id="polyline43" fill="#F4F4F4" d="M250.878,94.177l-1.637,1.637l-25.211,25.182l1.369,1.369l23.574-23.603v154.509
	l-23.633-23.663l-1.339,1.34l25.24,25.27l1.637,1.638v-2.322V96.471v-2.292V94.177z"/>
<path id="polyline45" fill="#F4F4F4" d="M85.57,92.54l1.638,1.608l25.21,25.24l1.339-1.34L90.185,94.446h154.452l-23.669,23.662
	l1.333,1.339l25.307-25.3l1.607-1.607h-2.292H87.861H85.57L85.57,92.54z"/>
<path id="line47" fill="#F4F4F4" d="M58.961,69.533V287.59h1.905V69.533H58.961z"/>
<path id="rect49" fill="#F4F4F4" d="M359.021,145.819v0.953v13.244v0.953h0.953h81.465h0.953v-0.953v-13.244v-0.953h-0.953h-81.465
	H359.021z M360.927,147.724h79.561v11.339h-79.561V147.724z"/>
<path id="rect51" fill="#F4F4F4" d="M448.248,145.819v0.953v13.244v0.953h0.953h81.436h0.952v-0.953v-13.244v-0.953h-0.952h-81.436
	H448.248z M450.153,147.724h79.531v11.339h-79.531V147.724z"/>
<path id="path53" fill="#F4F4F4" d="M276.804,73.134c-0.987,0-1.815,0.828-1.815,1.816v53.01c0,0.988,0.829,1.815,1.815,1.815
	h282.855c0.985,0,1.785-0.831,1.785-1.815V77.927c0-2.641-2.152-4.792-4.792-4.792H276.808H276.804z M276.894,75.04H556.65
	c1.613,0,2.888,1.275,2.888,2.887v49.945H276.895V75.04H276.894z"/>
<path id="path55" fill="#F4F4F4" d="M276.804,260.41c-0.987,0-1.815,0.829-1.815,1.815v20.091c0,0.987,0.829,1.816,1.815,1.816
	h279.844c2.64,0,4.792-2.183,4.792-4.822v-17.085c0-0.985-0.8-1.815-1.785-1.815H276.8H276.804z M276.894,262.315h282.645v16.995
	c0,1.611-1.276,2.917-2.888,2.917H276.893L276.894,262.315L276.894,262.315z"/>
<path id="line57" fill="#F4F4F4" d="M274.461,129.271l-6.28,6.28l1.369,1.339l6.251-6.25L274.461,129.271z"/>
<path id="line59" fill="#F4F4F4" d="M269.546,253.866l-1.369,1.34l6.281,6.28l1.339-1.369L269.546,253.866z"/>
</svg>
