<?xml version="1.0" encoding="UTF-8" standalone="no"?>
<!-- Generator: Adobe Illustrator 13.0.0, SVG Export Plug-In . SVG Version: 6.00 Build 14948)  -->

<svg
   xmlns:ns="&amp;ns_sfw;"
   xmlns:dc="http://purl.org/dc/elements/1.1/"
   xmlns:cc="http://creativecommons.org/ns#"
   xmlns:rdf="http://www.w3.org/1999/02/22-rdf-syntax-ns#"
   xmlns:svg="http://www.w3.org/2000/svg"
   xmlns="http://www.w3.org/2000/svg"
   xmlns:xlink="http://www.w3.org/1999/xlink"
   xmlns:sodipodi="http://sodipodi.sourceforge.net/DTD/sodipodi-0.dtd"
   xmlns:inkscape="http://www.inkscape.org/namespaces/inkscape"
   version="1.1"
   id="Layer_3"
   x="0px"
   y="0px"
   width="598.189px"
   height="350.26px"
   viewBox="0 0 598.189 350.26"
   enable-background="new 0 0 598.189 350.26"
   xml:space="preserve"
   sodipodi:docname="controller.svg"
   inkscape:version="0.92.4 (5da689c313, 2019-01-14)"><defs
   id="defs30"><linearGradient
     inkscape:collect="always"
     id="linearGradient4599"><stop
       style="stop-color:#000000;stop-opacity:0"
       offset="0"
       id="stop4595" /><stop
       style="stop-color:#000000;stop-opacity:0;"
       offset="1"
       id="stop4597" /></linearGradient><linearGradient
     inkscape:collect="always"
     xlink:href="#linearGradient4599"
     id="linearGradient4605"
     x1="303.68307"
     y1="343.59225"
     x2="300.72803"
     y2="2.743041"
     gradientUnits="userSpaceOnUse"
     gradientTransform="matrix(0.85272086,0,0,0.873558,38.488855,21.331839)" /></defs><sodipodi:namedview
   pagecolor="#ffffff"
   bordercolor="#666666"
   borderopacity="1"
   objecttolerance="10"
   gridtolerance="10"
   guidetolerance="10"
   inkscape:pageopacity="0"
   inkscape:pageshadow="2"
   inkscape:window-width="1920"
   inkscape:window-height="1017"
   id="namedview28"
   showgrid="false"
   inkscape:pagecheckerboard="true"
   inkscape:zoom="1.688009"
   inkscape:cx="238.06514"
   inkscape:cy="185.20488"
   inkscape:window-x="1432"
   inkscape:window-y="-8"
   inkscape:window-maximized="1"
   inkscape:current-layer="Layer_3"><inkscape:grid
     type="xygrid"
     id="grid840" /></sodipodi:namedview>
<metadata
   id="metadata55">
	<rdf:RDF>
		<cc:Work
   rdf:about="">
			<dc:format>image/svg+xml</dc:format>
			<dc:type
   rdf:resource="http://purl.org/dc/dcmitype/StillImage" />
			<dc:title></dc:title>
		</cc:Work>
	</rdf:RDF>
	<ns:sfw>
		<ns:slices />
		<ns:sliceSourceBounds
   x="661.403"
   y="364.363"
   width="598.19"
   height="350.265"
   bottomLeftOrigin="true" />
	</ns:sfw>
</metadata>
<path
   style="color:#000000;font-style:normal;font-variant:normal;font-weight:normal;font-stretch:normal;font-size:medium;line-height:normal;font-family:sans-serif;font-variant-ligatures:normal;font-variant-position:normal;font-variant-caps:normal;font-variant-numeric:normal;font-variant-alternates:normal;font-feature-settings:normal;text-indent:0;text-align:start;text-decoration:none;text-decoration-line:none;text-decoration-style:solid;text-decoration-color:#000000;letter-spacing:normal;word-spacing:normal;text-transform:none;writing-mode:lr-tb;direction:ltr;text-orientation:mixed;dominant-baseline:auto;baseline-shift:baseline;text-anchor:start;white-space:normal;shape-padding:0;clip-rule:nonzero;display:inline;overflow:visible;visibility:visible;opacity:1;isolation:auto;mix-blend-mode:normal;color-interpolation:sRGB;color-interpolation-filters:linearRGB;solid-color:#000000;solid-opacity:1;vector-effect:none;fill:url(#linearGradient4605);fill-opacity:1;fill-rule:nonzero;stroke:#f4f4f4;stroke-width:1.89876854;stroke-linecap:butt;stroke-linejoin:miter;stroke-miterlimit:4;stroke-dasharray:none;stroke-dashoffset:0;stroke-opacity:1;color-rendering:auto;image-rendering:auto;shape-rendering:auto;text-rendering:auto;enable-background:accumulate"
   d="m 289.8533,21.319896 c -78.39379,0 -146.99586,27.938269 -174.78778,42.396568 -14.39461,7.490682 -35.004844,21.715401 -51.246527,42.261786 -16.241692,20.54289 -28.107304,47.46023 -24.785529,80.12676 4.263953,41.93247 23.082152,76.06246 43.117362,100.17083 10.017605,12.05156 20.336404,21.59079 29.315604,28.36504 8.97917,6.77424 16.56534,10.80998 21.40296,11.76915 6.93117,1.37362 15.53967,1.47179 23.9095,-1.69422 8.37075,-3.16517 16.45912,-9.64546 22.25901,-21.29981 11.46637,-23.04148 17.97566,-45.67251 40.92394,-57.64799 23.05394,-12.03138 52.94166,-14.30282 59.33905,-14.30282 h 28.45956 c 6.39821,0 36.28428,2.27232 59.33736,14.30282 l 0.16155,0.087 c 22.81442,11.99819 29.32664,34.58141 40.76573,57.56611 5.7999,11.65435 13.8866,18.13465 22.25734,21.29979 8.37068,3.16515 16.98,3.06873 23.91116,1.69424 4.83677,-0.95917 12.42293,-4.99493 21.40296,-11.76915 39.34272,-31.16743 67.47162,-85.50975 72.43463,-128.53587 3.32178,-32.66828 -8.5455,-59.58462 -24.78718,-80.13188 C 507.00656,85.436232 486.39604,71.212264 472.00912,63.721582 444.21721,49.264158 375.61513,21.325014 297.22135,21.325014 h -7.35306 l -0.0117,-0.0051 z"
   id="path3"
   inkscape:connector-curvature="0"
   sodipodi:nodetypes="sccccsccccsscccccccccsccs" />
<path
   id="circle5"
   d="m 157.35132,72.561589 c -43.83044,0 -79.366934,36.766811 -79.366934,82.112731 0,45.34591 35.537354,82.14018 79.366934,82.14018 43.82957,0 79.39347,-36.79427 79.39347,-82.14018 0,-45.34592 -35.5639,-82.112731 -79.39347,-82.112731 z m 0,1.771809 c 42.90307,0 77.68091,35.952662 77.68091,80.340922 0,44.38825 -34.77698,80.36837 -77.68091,80.36837 -42.90394,0 -77.654373,-35.98012 -77.654373,-80.36837 0,-44.38826 34.750433,-80.340922 77.654373,-80.340922 z"
   inkscape:connector-curvature="0"
   style="fill:#f4f4f4;stroke-width:0.87096661" />
<path
   id="circle7"
   d="m 157.35132,89.920003 c -34.57062,0 -62.588974,28.986797 -62.588974,64.754317 0,35.76662 28.017494,64.78177 62.588974,64.78177 34.57061,0 62.61551,-29.01603 62.61551,-64.78177 0,-35.76663 -28.0449,-64.754317 -62.61551,-64.754317 z m 0,1.771809 c 33.64583,0 60.90295,28.172658 60.90295,62.982508 0,34.80985 -27.25712,63.00996 -60.90295,63.00996 -33.64584,0 -60.876413,-28.20011 -60.876413,-63.00996 0,-34.80985 27.230573,-62.982508 60.876413,-62.982508 z"
   inkscape:connector-curvature="0"
   style="fill:#f4f4f4;stroke-width:0.87096661" />
<path
   id="circle9"
   d="m 157.35132,106.11523 c -25.92219,0 -46.93531,21.7401 -46.93531,48.5582 0,26.81899 21.01312,48.58567 46.93531,48.58567 25.92218,0 46.96184,-21.76668 46.96184,-48.58567 0,-26.81899 -21.03966,-48.5582 -46.96184,-48.5582 z m 0,1.7718 c 24.99654,0 45.24928,20.92596 45.24928,46.7864 0,25.86133 -20.25274,46.81386 -45.24928,46.81386 -24.99655,0 -45.22275,-20.95253 -45.22275,-46.81386 0,-25.86133 20.22706,-46.7864 45.22275,-46.7864 z"
   inkscape:connector-curvature="0"
   style="fill:#f4f4f4;stroke-width:0.87096661" />
<path
   id="path11"
   d="m 148.83989,109.76958 c -1.55843,0 -2.83686,1.32089 -2.83686,2.935 v 24.6946 c 0,1.87634 -0.53346,3.19457 -1.4454,4.0973 -0.91194,0.90274 -2.2837,1.4396 -4.14782,1.4396 h -23.62735 c -1.55929,0 -2.83686,1.32177 -2.83686,2.935 v 17.63482 c 0,1.61323 1.27757,2.935 2.83686,2.935 h 23.6282 c 1.73054,0 3.11515,0.55635 4.06733,1.52287 0.95219,0.96652 1.52504,2.38308 1.52504,4.26386 v 24.44565 c 0,1.61323 1.27757,2.935 2.83686,2.935 h 17.04512 c 1.55843,0 2.83685,-1.32177 2.83685,-2.935 V 172.3109 c 0,-1.87368 0.45126,-3.32214 1.31097,-4.29132 0.85885,-0.96918 2.20663,-1.57779 4.36189,-1.57779 h 23.54772 c 1.55928,0 2.83685,-1.32177 2.83685,-2.93501 v -17.63481 c 0,-1.61235 -1.27757,-2.935 -2.83685,-2.935 h -23.52117 c -2.24517,0 -3.60409,-0.59445 -4.44239,-1.49541 -0.83829,-0.90008 -1.25787,-2.22096 -1.25787,-4.04238 v -24.6946 c 0,-1.61323 -1.27843,-2.935 -2.83686,-2.935 z m 0,1.77181 h 17.04512 c 0.63364,0 1.12429,0.50585 1.12429,1.16319 v 24.6946 c 0,2.09605 0.50007,3.95645 1.73911,5.28796 1.23904,1.33063 3.13912,2.02075 5.67286,2.02075 h 23.52117 c 0.6345,0 1.12429,0.50762 1.12429,1.16319 v 17.63482 c 0,0.65468 -0.48979,1.16319 -1.12429,1.16319 h -23.54772 c -2.47722,0 -4.40984,0.76631 -5.64631,2.15984 -1.23561,1.39264 -1.73911,3.32303 -1.73911,5.48197 v 24.36238 c 0,0.65734 -0.48893,1.16319 -1.12429,1.16319 h -17.04512 c -0.63365,0 -1.1243,-0.50585 -1.1243,-1.16319 v -24.44476 c 0,-2.26526 -0.75181,-4.18147 -2.06021,-5.50945 -1.3084,-1.32797 -3.15111,-2.04909 -5.24472,-2.04909 h -23.6282 c -0.63194,0 -1.1243,-0.50763 -1.1243,-1.1632 v -17.63481 c 0,-0.65469 0.49065,-1.1632 1.1243,-1.1632 h 23.6282 c 2.17924,0 4.03051,-0.65645 5.32521,-1.93835 1.29384,-1.28102 1.98058,-3.13876 1.98058,-5.37124 v -24.6946 c 0,-0.65734 0.49065,-1.16407 1.12344,-1.16319 z"
   inkscape:connector-curvature="0"
   style="fill:#f4f4f4;stroke-width:0.87096661" />
<path
   id="path13"
   d="m 166.98447,123.35936 c 0,11.12165 9.23156,21.37245 20.68431,21.37245 V 142.96 c -10.45689,0 -18.97175,-9.49956 -18.97175,-19.60064 z"
   inkscape:connector-curvature="0"
   style="fill:#f4f4f4;stroke-width:0.87096661" />
<path
   id="polygon15"
   d="m 187.05569,122.66835 -0.96332,0.41549 -7.49245,3.29468 -0.61567,0.24894 0.48209,0.47042 4.41498,4.29132 0.45468,0.44295 0.24062,-0.58115 3.07747,-7.586 z m -1.57898,1.66108 -2.46181,5.97985 -3.47907,-3.40542 z"
   inkscape:connector-curvature="0"
   style="fill:#f4f4f4;stroke-width:0.87096661" />
<path
   id="circle17"
   d="m 157.35132,144.15154 c -5.61977,0 -10.16834,4.70593 -10.16834,10.52012 0,5.81419 4.54857,10.54758 10.16834,10.54758 5.61976,0 10.19487,-4.73339 10.19487,-10.54758 0,-5.81419 -4.57511,-10.52012 -10.19487,-10.52012 z m 0,1.77181 c 4.69412,0 8.48231,3.89178 8.48231,8.74831 0,4.85653 -3.78819,8.77577 -8.48231,8.77577 -4.69413,0 -8.45577,-3.91924 -8.45577,-8.77577 0,-4.85653 3.76164,-8.74831 8.45577,-8.74831 z"
   inkscape:connector-curvature="0"
   style="fill:#f4f4f4;stroke-width:0.87096661" />
<path
   id="path19"
   d="m 146.03129,123.33278 c 0,10.81867 -9.1819,19.62811 -18.94521,19.62811 v 1.7718 c 10.74974,0 20.65777,-9.55093 20.65777,-21.39991 z"
   inkscape:connector-curvature="0"
   style="fill:#f4f4f4;stroke-width:0.87096661" />
<path
   id="polygon21"
   d="m 126.42246,123.97063 0.4016,0.99665 3.1845,7.75166 0.24062,0.63697 0.45468,-0.49877 4.14783,-4.56772 0.42814,-0.47042 -0.56172,-0.24894 -7.33233,-3.18394 z m 1.60553,1.63273 5.77989,2.54697 -3.29154,3.59943 z"
   inkscape:connector-curvature="0"
   style="fill:#f4f4f4;stroke-width:0.87096661" />
<path
   id="path23"
   d="m 127.06467,164.64251 v 1.77181 c 10.45604,0 18.97175,9.49779 18.97175,19.60064 h 1.71257 c 0,-11.12253 -9.23242,-21.37245 -20.68432,-21.37245 z"
   inkscape:connector-curvature="0"
   style="fill:#f4f4f4;stroke-width:0.87096661" />
<path
   id="polygon25"
   d="m 131.39745,177.54129 -0.24061,0.58115 -3.07748,7.586 -0.40159,0.99664 0.96331,-0.41549 7.49246,-3.29468 0.61566,-0.24894 -0.48208,-0.47041 -4.41498,-4.29132 z m 0.32111,1.52287 3.47906,3.37795 -5.94087,2.60279 z"
   inkscape:connector-curvature="0"
   style="fill:#f4f4f4;stroke-width:0.87096661" />
<path
   id="path27"
   d="m 187.64652,164.64251 c -10.74975,0 -20.65777,9.55183 -20.65777,21.39992 h 1.71256 c 0,-10.81779 9.1819,-19.62811 18.94521,-19.62811 z"
   inkscape:connector-curvature="0"
   style="fill:#f4f4f4;stroke-width:0.87096661" />
<path
   id="polygon29"
   d="m 184.48684,176.01753 -0.45468,0.49876 -4.14782,4.56773 -0.42814,0.47041 0.56172,0.24894 7.33233,3.18394 0.96331,0.41549 -0.40159,-0.99664 -3.18451,-7.75167 z m -0.29456,1.60614 2.51576,6.14641 -5.7799,-2.54698 z"
   inkscape:connector-curvature="0"
   style="fill:#f4f4f4;stroke-width:0.87096661" />
<path
   id="path31"
   d="m 469.03742,92.189691 c -3.4842,0.06821 -7.19018,0.264885 -11.05115,0.609502 -15.44473,1.37581 -33.39409,5.194059 -49.98538,13.316037 -12.38438,6.06224 -26.45564,15.21807 -38.53262,24.77786 -12.07698,9.55891 -22.15027,19.48636 -26.5447,27.32484 -4.41155,7.87038 -4.96985,18.16991 -3.29154,27.93258 1.67831,9.76355 5.58381,19.00176 10.43635,24.80532 9.62288,11.51322 26.1979,18.0069 47.33604,12.15462 10.55623,-2.9226 17.3157,-7.27239 24.3235,-12.34774 7.0078,-5.07535 14.27591,-10.89309 26.11656,-16.94293 23.72411,-12.12094 43.90322,-16.6364 54.88244,-20.32088 5.5487,-1.86305 11.31404,-5.08598 15.70847,-10.96307 4.39272,-5.87797 7.39741,-14.37557 7.5464,-26.68787 0.14985,-12.42039 -4.84312,-22.036 -11.4793,-28.90264 -6.63703,-6.86665 -14.88986,-11.021541 -21.51404,-12.734881 -4.98527,-1.290763 -13.49755,-2.226278 -23.95103,-2.020748 z m 0.0539,1.799272 c 10.35586,-0.194013 18.7474,0.716697 23.46637,1.938359 6.31421,1.632722 14.36153,5.667128 20.73911,12.264468 6.37587,6.59733 11.11452,15.7062 10.97067,27.62959 -0.14471,12.02793 -3.03552,20.10383 -7.17135,25.63631 -4.13498,5.53247 -9.54496,8.56404 -14.87788,10.35445 -10.76173,3.61006 -31.1335,8.18222 -54.98948,20.34746 l -0.13358,0.0833 c -11.98022,6.1216 -19.39646,12.01287 -26.35717,17.05367 -6.96156,5.04168 -13.43761,9.24087 -23.76178,12.09791 -20.6218,5.70965 -36.39877,-0.59622 -45.59694,-11.60004 -4.55798,-5.45274 -8.43094,-14.46593 -10.06129,-23.94688 -1.62951,-9.48007 -1.03867,-19.40131 3.07747,-26.74369 4.13412,-7.37427 14.13034,-17.31146 26.11655,-26.79862 11.98622,-9.48715 25.97699,-18.59425 38.21152,-24.58385 16.3464,-8.003262 34.13648,-11.787846 49.42366,-13.150368 3.82072,-0.340187 7.49245,-0.516482 10.94412,-0.582039 z"
   inkscape:connector-curvature="0"
   style="fill:#f4f4f4;stroke-width:0.87096661" />
<path
   id="path33"
   d="m 481.9587,103.34677 c -7.25184,-0.22679 -14.96693,1.25799 -22.45082,4.26386 -19.70644,7.91113 -44.37931,17.94489 -55.95365,24.08598 -9.20587,4.88488 -21.42842,10.05767 -31.81511,16.91546 -10.38668,6.85779 -19.01456,15.45904 -20.68431,27.24157 -3.3138,23.38433 16.64952,40.65416 37.75684,36.59849 10.44234,-2.00658 17.52292,-6.35725 24.83213,-11.6275 7.30921,-5.27025 14.88815,-11.43791 26.57124,-17.33007 11.69422,-5.89835 24.13341,-10.14803 35.00047,-13.56585 10.8662,-3.41782 20.11146,-6.00555 25.55483,-8.66504 5.55298,-2.71352 10.59733,-8.65971 13.05828,-16.14029 2.46095,-7.48058 2.30254,-16.50706 -2.67588,-25.24828 -4.98012,-8.74477 -12.96408,-13.8591 -22.12971,-15.72481 -2.29141,-0.46599 -4.64703,-0.72733 -7.06431,-0.80352 z m -0.0531,1.77181 c 2.32994,0.0718 4.60336,0.32867 6.79715,0.77517 8.77345,1.78598 16.25477,6.57164 20.97887,14.86637 4.72582,8.29738 4.86111,16.76043 2.5423,23.80868 -2.31881,7.04826 -7.14223,12.65604 -12.17545,15.11531 -5.14368,2.51331 -14.41891,5.09926 -25.31422,8.52683 -10.89532,3.42756 -23.43469,7.70825 -35.26848,13.67659 -11.84493,5.97454 -19.56516,12.27067 -26.81272,17.49662 -7.24841,5.22684 -14.01988,9.37464 -24.16338,11.32275 -20.06522,3.85545 -38.90339,-12.32294 -35.74971,-34.57775 1.56443,-11.0366 9.7068,-19.28703 19.90852,-26.02344 10.20173,-6.73554 22.36776,-11.88973 31.68238,-16.83219 11.36456,-6.03035 36.11877,-16.09335 55.81922,-24.0027 7.2938,-2.92792 14.76656,-4.3684 21.75552,-4.15224 z"
   inkscape:connector-curvature="0"
   style="fill:#f4f4f4;stroke-width:0.87096661" />
<path
   id="circle35"
   d="m 383.03261,152.31958 c -14.47114,0 -26.22359,12.15904 -26.22359,27.13083 0,14.9709 11.75245,27.13083 26.22359,27.13083 14.47114,0 26.22359,-12.15993 26.22359,-27.13083 0,-14.97179 -11.75245,-27.13083 -26.22359,-27.13083 z m 0,1.77181 c 13.5455,0 24.51103,11.34489 24.51103,25.35902 0,14.01324 -10.96553,25.35902 -24.51103,25.35902 -13.54465,0 -24.51103,-11.34578 -24.51103,-25.35902 0,-14.01413 10.96553,-25.35902 24.51103,-25.35902 z"
   inkscape:connector-curvature="0"
   style="fill:#f4f4f4;stroke-width:0.87096661" />
<path
   id="circle37"
   d="m 383.03261,157.3338 c -11.79098,0 -21.35393,9.92036 -21.35393,22.12015 0,12.19891 9.56209,22.12016 21.35393,22.12016 11.79184,0 21.38047,-9.92036 21.38047,-22.12016 0,-12.19979 -9.58863,-22.12015 -21.38047,-22.12015 z m 0,1.77181 c 10.8662,0 19.66791,9.10621 19.66791,20.34834 0,11.24125 -8.80086,20.34835 -19.66791,20.34835 -10.86535,0 -19.64136,-9.10622 -19.64136,-20.34835 0,-11.24213 8.77516,-20.34834 19.64136,-20.34834 z"
   inkscape:connector-curvature="0"
   style="fill:#f4f4f4;stroke-width:0.87096661" />
<path
   id="circle39"
   d="m 431.57515,126.32714 c -14.47114,0 -26.22359,12.13158 -26.22359,27.10337 0,14.97178 11.75245,27.13082 26.22359,27.13082 14.47029,0 26.19705,-12.15992 26.19705,-27.13082 0,-14.97091 -11.72591,-27.10337 -26.19705,-27.10337 z m 0,1.77181 c 13.54465,0 24.48449,11.31655 24.48449,25.33156 0,14.01412 -10.93813,25.35901 -24.48449,25.35901 -13.54636,0 -24.51103,-11.34578 -24.51103,-25.35901 0,-14.01324 10.96553,-25.33156 24.51103,-25.33156 z"
   inkscape:connector-curvature="0"
   style="fill:#f4f4f4;stroke-width:0.87096661" />
<path
   id="circle41"
   d="m 431.57515,131.3325 c -11.79184,0 -21.38132,9.8929 -21.38132,22.09269 0,12.19979 9.58863,22.12015 21.38132,22.12015 11.79184,0 21.35392,-9.92036 21.35392,-22.12015 0,-12.19979 -9.56208,-22.09269 -21.35392,-22.09269 z m 0,1.77181 c 10.86534,0 19.64136,9.07787 19.64136,20.32088 0,11.24213 -8.7743,20.34834 -19.64136,20.34834 -10.86706,0 -19.66876,-9.10621 -19.66876,-20.34834 0,-11.24213 8.80256,-20.32088 19.66876,-20.32088 z"
   inkscape:connector-curvature="0"
   style="fill:#f4f4f4;stroke-width:0.87096661" />
<path
   id="circle43"
   d="m 482.95198,107.13933 c -14.472,0 -26.22359,12.15816 -26.22359,27.13083 0,14.97267 11.75159,27.13083 26.22359,27.13083 14.47114,0 26.22359,-12.15816 26.22359,-27.13083 0,-14.97267 -11.75159,-27.13083 -26.22359,-27.13083 z m 0,1.77181 c 13.5455,0 24.51103,11.34401 24.51103,25.35902 0,14.01501 -10.96553,25.35902 -24.51103,25.35902 -13.54636,0 -24.51103,-11.34401 -24.51103,-25.35902 0,-14.01501 10.96467,-25.35902 24.51103,-25.35902 z"
   inkscape:connector-curvature="0"
   style="fill:#f4f4f4;stroke-width:0.87096661" />
<path
   id="circle45"
   d="m 482.95198,112.15267 c -11.79184,0 -21.35392,9.92036 -21.35392,22.12015 0,12.19979 9.56208,22.12015 21.35392,22.12015 11.79184,0 21.38047,-9.92036 21.38047,-22.12015 0,-12.19979 -9.58863,-22.12015 -21.38047,-22.12015 z m 0,1.7718 c 10.86535,0 19.66791,9.10622 19.66791,20.34835 0,11.24213 -8.80171,20.34834 -19.66791,20.34834 -10.8662,0 -19.64136,-9.10621 -19.64136,-20.34834 0,-11.24213 8.77431,-20.34835 19.64136,-20.34835 z"
   inkscape:connector-curvature="0"
   style="fill:#f4f4f4;stroke-width:0.87096661" />
<path
   id="path47"
   d="m 417.1297,64.22877 c -1.60724,-0.114282 -3.25387,0.116053 -4.87053,0.691891 l -35.19312,12.513403 c -6.46492,2.303352 -9.90717,9.616494 -7.68084,16.30596 2.22804,6.689466 9.29492,10.278266 15.7607,7.973146 L 420.33989,89.1723 c 6.46492,-2.304238 9.90631,-9.616495 7.67998,-16.30596 -1.66974,-5.015992 -6.07017,-8.293839 -10.89017,-8.63757 z m -0.10704,1.771809 c 4.15639,0.291463 7.92145,3.109525 9.366,7.446914 1.92577,5.784071 -1.01897,12.043873 -6.60963,14.036273 l -35.18457,12.540864 c -5.59065,1.99329 -11.64113,-1.05334 -13.5669,-6.838297 -1.92578,-5.784957 1.01983,-12.072221 6.60962,-14.063735 l 35.18457,-12.540866 c 1.39745,-0.497878 2.81631,-0.678602 4.20091,-0.581153 z"
   inkscape:connector-curvature="0"
   style="fill:#f4f4f4;stroke-width:0.87096661" />
<path
   id="path49"
   d="m 416.21348,69.98715 c -0.91023,-0.06556 -1.86755,0.03366 -2.78291,0.359677 l -34.06199,12.153725 c -3.66231,1.304938 -5.5975,5.457173 -4.33534,9.247072 1.2613,3.7899 5.27468,5.818622 8.93785,4.512798 l 34.03715,-12.153725 c 3.66231,-1.304937 5.62234,-5.457172 4.3619,-9.247072 -0.94619,-2.841982 -3.4217,-4.675804 -6.15495,-4.872475 h -0.002 z m -0.13358,1.74346 c 2.06877,0.144402 3.96201,1.546789 4.683,3.710168 0.95989,2.884506 -0.5035,6.010863 -3.29155,7.003962 l -34.06369,12.126262 c -2.78719,0.993985 -5.80986,-0.520026 -6.76975,-3.405417 -0.9599,-2.883619 0.50434,-6.010863 3.29154,-7.003962 l 34.07226,-12.126262 c 0.69615,-0.248053 1.39745,-0.35259 2.08761,-0.304751 z"
   inkscape:connector-curvature="0"
   style="fill:#f4f4f4;stroke-width:0.87096661" />
</svg>