<?xml version="1.0" encoding="utf-8"?>
<!-- Generator: Adobe Illustrator 13.0.0, SVG Export Plug-In . SVG Version: 6.00 Build 14948)  -->
<!DOCTYPE svg [
	<!ENTITY ns_flows "http://ns.adobe.com/Flows/1.0/">
	<!ENTITY ns_extend "http://ns.adobe.com/Extensibility/1.0/">
	<!ENTITY ns_ai "http://ns.adobe.com/AdobeIllustrator/10.0/">
	<!ENTITY ns_graphs "http://ns.adobe.com/Graphs/1.0/">
	<!ENTITY ns_vars "http://ns.adobe.com/Variables/1.0/">
	<!ENTITY ns_imrep "http://ns.adobe.com/ImageReplacement/1.0/">
	<!ENTITY ns_sfw "http://ns.adobe.com/SaveForWeb/1.0/">
	<!ENTITY ns_custom "http://ns.adobe.com/GenericCustomNamespace/1.0/">
	<!ENTITY ns_adobe_xpath "http://ns.adobe.com/XPath/1.0/">
]>
<svg version="1.2" baseProfile="tiny"
	 id="Layer_3" xmlns:x="&ns_extend;" xmlns:i="&ns_ai;" xmlns:graph="&ns_graphs;" xmlns:rdf="http://www.w3.org/1999/02/22-rdf-syntax-ns#" xmlns:dc="http://purl.org/dc/elements/1.1/" xmlns:cc="http://creativecommons.org/ns#"
	 xmlns="http://www.w3.org/2000/svg" xmlns:xlink="http://www.w3.org/1999/xlink" xmlns:a="http://ns.adobe.com/AdobeSVGViewerExtensions/3.0/"
	 x="0px" y="0px" width="598.189px" height="350.26px" viewBox="0 0 598.189 350.26" xml:space="preserve">
<metadata  id="metadata55">
	<rdf:RDF>
		<cc:Work  rdf:about="">
			<dc:format>image/svg+xml</dc:format>
			<dc:type  rdf:resource="http://purl.org/dc/dcmitype/StillImage"></dc:type>
			<dc:title></dc:title>
		</cc:Work>
	</rdf:RDF>
	<sfw  xmlns="&ns_sfw;">
		<slices></slices>
		<sliceSourceBounds  x="679.719" y="423.384" width="560.161" height="233.458" bottomLeftOrigin="true"></sliceSourceBounds>
	</sfw>
</metadata>
<path fill="#F4F4F4" d="M18.313,202.613c0.002-48.949,39.68-88.631,88.631-88.633l0,0v0.918v0.919
	c-23.97,0-45.663,9.715-61.372,25.421l0,0c-15.707,15.712-25.42,37.404-25.42,61.375l0,0c0,23.969,9.714,45.663,25.421,61.371l0,0
	c15.709,15.708,37.402,25.422,61.373,25.422l0,0c23.97,0,45.662-9.714,61.372-25.422l0,0c15.708-15.708,25.42-37.402,25.422-61.371
	l0,0c-0.002-23.971-9.714-45.663-25.422-61.374l0,0c-15.71-15.706-37.402-25.421-61.372-25.421l0,0v-0.919v-0.918
	c48.95,0.001,88.631,39.684,88.631,88.633l0,0c0,48.948-39.682,88.63-88.631,88.632l0,0
	C57.994,291.243,18.315,251.562,18.313,202.613L18.313,202.613z"/>
<path fill="#F4F4F4" d="M69.56,202.612c0-20.647,16.737-37.384,37.385-37.384l0,0v0.919v0.919c-9.818,0-18.699,3.978-25.136,10.411
	l0,0c-6.435,6.435-10.412,15.314-10.412,25.136l0,0c0,9.818,3.977,18.701,10.412,25.136l0,0
	c6.437,6.436,15.316,10.412,25.136,10.412l0,0c9.822,0,18.702-3.977,25.137-10.412l0,0c6.436-6.435,10.411-15.317,10.413-25.136l0,0
	c-0.002-9.821-3.977-18.701-10.413-25.136l0,0c-6.436-6.434-15.315-10.411-25.137-10.411l0,0v-0.919v-0.919
	c20.648,0,37.385,16.736,37.388,37.384l0,0c-0.002,20.647-16.74,37.386-37.388,37.386l0,0
	C86.297,239.998,69.56,223.26,69.56,202.612L69.56,202.612z"/>
<polygon fill="#F4F4F4" points="101.843,161.286 106.946,141.912 112.049,161.286 "/>
<polygon fill="#F4F4F4" points="74.114,176.999 64.024,159.691 81.332,169.782 "/>
<polygon fill="#F4F4F4" points="65.618,207.717 46.245,202.613 65.618,197.51 "/>
<polygon fill="#F4F4F4" points="81.332,235.444 64.024,245.536 74.114,228.228 "/>
<polygon fill="#F4F4F4" points="112.049,243.94 106.946,263.313 101.843,243.94 "/>
<polygon fill="#F4F4F4" points="139.777,228.228 149.868,245.536 132.56,235.444 "/>
<polygon fill="#F4F4F4" points="148.275,197.51 167.647,202.613 148.275,207.717 "/>
<polygon fill="#F4F4F4" points="132.56,169.782 149.868,159.691 139.777,176.999 "/>
<g>
	<path fill="#F4F4F4" d="M265.771,171.37c0.002-18.104,14.677-32.779,32.782-32.781l0,0v0.92v0.918
		c-17.09,0.03-30.913,13.854-30.944,30.943l0,0c0.031,17.086,13.854,30.91,30.944,30.94l0,0c17.087-0.03,30.911-13.854,30.941-30.94
		l0,0c-0.03-17.089-13.854-30.913-30.941-30.943l0,0v-0.918v-0.92c18.102,0.002,32.78,14.676,32.78,32.781l0,0
		c0,18.101-14.678,32.778-32.78,32.779l0,0C280.449,204.147,265.773,189.471,265.771,171.37L265.771,171.37z"/>
	<path fill="#F4F4F4" d="M276.264,171.37c0-12.309,9.979-22.287,22.288-22.287l0,0v0.919v0.918
		c-11.294,0.021-20.43,9.156-20.45,20.45l0,0c0.02,11.293,9.156,20.428,20.45,20.448l0,0c11.292-0.02,20.428-9.154,20.448-20.448
		l0,0c-0.021-11.293-9.156-20.429-20.448-20.45l0,0v-0.918v-0.919c12.308,0,22.285,9.979,22.287,22.287l0,0
		c-0.002,12.306-9.979,22.286-22.287,22.288l0,0C286.243,193.655,276.264,183.677,276.264,171.37L276.264,171.37z"/>
</g>
<g>
	<path fill="#F4F4F4" d="M348.942,162.179c0.002-18.104,14.678-32.778,32.78-32.779l0,0v0.92v0.919
		c-17.09,0.03-30.911,13.854-30.94,30.94l0,0c0.029,17.089,13.851,30.911,30.94,30.94l0,0c17.088-0.029,30.909-13.851,30.94-30.94
		l0,0c-0.031-17.088-13.853-30.91-30.94-30.94l0,0v-0.919v-0.92c18.103,0.001,32.778,14.675,32.779,32.779l0,0
		c-0.001,18.103-14.677,32.779-32.779,32.779l0,0C363.62,194.958,348.944,180.282,348.942,162.179L348.942,162.179z"/>
	<path fill="#F4F4F4" d="M359.436,162.179c0-12.309,9.977-22.287,22.287-22.287l0,0v0.92v0.918
		c-11.295,0.021-20.429,9.155-20.449,20.449l0,0c0.021,11.293,9.154,20.427,20.449,20.448l0,0
		c11.293-0.021,20.429-9.155,20.448-20.448l0,0c-0.02-11.293-9.155-20.428-20.448-20.449l0,0v-0.918v-0.92
		c12.307,0,22.285,9.978,22.287,22.287l0,0c-0.002,12.308-9.98,22.286-22.287,22.286l0,0
		C369.413,184.466,359.436,174.489,359.436,162.179L359.436,162.179z"/>
</g>
<g>
	<path fill="#F4F4F4" d="M432.112,152.99c0.002-18.105,14.676-32.779,32.78-32.779l0,0v0.918v0.919
		c-17.09,0.03-30.911,13.853-30.94,30.941l0,0c0.029,17.088,13.851,30.91,30.94,30.94l0,0c17.087-0.03,30.91-13.853,30.941-30.94
		l0,0c-0.031-17.088-13.854-30.912-30.941-30.941l0,0v-0.919v-0.918c18.1,0,32.778,14.674,32.78,32.779l0,0
		c-0.002,18.104-14.681,32.777-32.78,32.779l0,0C446.788,185.767,432.114,171.093,432.112,152.99L432.112,152.99z"/>
	<path fill="#F4F4F4" d="M442.604,152.99c0.002-12.31,9.978-22.286,22.288-22.288l0,0v0.919v0.92
		c-11.294,0.02-20.43,9.154-20.448,20.448l0,0c0.019,11.293,9.154,20.428,20.448,20.448l0,0c11.295-0.02,20.43-9.155,20.45-20.448
		l0,0c-0.02-11.294-9.155-20.428-20.45-20.448l0,0v-0.92v-0.919c12.31,0.002,22.287,9.979,22.287,22.288l0,0
		c0,12.311-9.978,22.287-22.287,22.287l0,0C452.582,175.276,442.605,165.299,442.604,152.99L442.604,152.99z"/>
</g>
<g>
	<path fill="#F4F4F4" d="M512.916,90.567c0-18.104,14.676-32.779,32.78-32.779l0,0v0.919v0.918
		c-17.09,0.032-30.91,13.853-30.942,30.942l0,0c0.032,17.088,13.853,30.91,30.942,30.94l0,0
		c17.088-0.031,30.908-13.852,30.939-30.94l0,0c-0.031-17.089-13.852-30.91-30.939-30.942l0,0v-0.918v-0.919
		c18.103,0,32.778,14.675,32.778,32.779l0,0c0,18.104-14.676,32.779-32.778,32.779l0,0
		C527.592,123.346,512.916,108.671,512.916,90.567L512.916,90.567z"/>
	<path fill="#F4F4F4" d="M523.407,90.567c0.002-12.31,9.979-22.288,22.289-22.288l0,0v0.918v0.919
		c-11.295,0.021-20.428,9.155-20.449,20.449l0,0c0.02,11.293,9.154,20.428,20.449,20.449l0,0
		c11.295-0.021,20.428-9.157,20.448-20.449l0,0c-0.021-11.294-9.153-20.429-20.448-20.449l0,0v-0.919V68.28
		c12.31,0,22.286,9.978,22.287,22.288l0,0c-0.001,12.308-9.978,22.287-22.287,22.287l0,0
		C533.386,112.854,523.409,102.875,523.407,90.567L523.407,90.567z"/>
</g>
<g>
	<path fill="#F4F4F4" d="M265.771,253.005c0-18.104,14.676-32.781,32.781-32.781l0,0v0.921v0.919
		c-17.09,0.031-30.913,13.852-30.944,30.941l0,0c0.031,17.088,13.854,30.91,30.944,30.942l0,0
		c17.087-0.032,30.91-13.854,30.941-30.942l0,0c-0.031-17.09-13.854-30.91-30.941-30.941l0,0v-0.919v-0.921
		c18.104,0,32.78,14.677,32.781,32.781l0,0c-0.001,18.104-14.678,32.778-32.781,32.78l0,0
		C280.449,285.783,265.771,271.108,265.771,253.005L265.771,253.005z"/>
	<path fill="#F4F4F4" d="M276.265,253.006c0-12.31,9.977-22.287,22.288-22.289l0,0v0.92v0.919
		c-11.296,0.021-20.43,9.154-20.449,20.45l0,0c0.019,11.294,9.154,20.429,20.449,20.45l0,0c11.292-0.021,20.428-9.156,20.449-20.45
		l0,0c-0.021-11.296-9.157-20.429-20.449-20.45l0,0v-0.919v-0.92c12.307,0.002,22.285,9.979,22.287,22.289l0,0
		c-0.003,12.31-9.979,22.286-22.287,22.288l0,0C286.242,275.292,276.265,265.315,276.265,253.006L276.265,253.006z"/>
</g>
<g>
	<path fill="#F4F4F4" d="M348.942,243.816c0.002-18.104,14.678-32.781,32.78-32.781l0,0v0.921v0.918
		c-17.09,0.029-30.911,13.854-30.94,30.942l0,0c0.029,17.087,13.851,30.909,30.94,30.938l0,0
		c17.088-0.029,30.909-13.852,30.94-30.938l0,0c-0.031-17.089-13.853-30.913-30.94-30.942l0,0v-0.918v-0.921
		c18.103,0,32.778,14.677,32.779,32.781l0,0c-0.001,18.103-14.677,32.779-32.779,32.779l0,0
		C363.62,276.596,348.944,261.919,348.942,243.816L348.942,243.816z"/>
	<path fill="#F4F4F4" d="M359.436,243.816c0-12.31,9.977-22.287,22.287-22.287l0,0v0.919v0.92
		c-11.295,0.019-20.429,9.153-20.449,20.448l0,0c0.021,11.292,9.154,20.428,20.449,20.447l0,0
		c11.293-0.02,20.429-9.155,20.448-20.447l0,0c-0.02-11.295-9.155-20.43-20.448-20.448l0,0v-0.92v-0.919
		c12.307,0,22.285,9.978,22.287,22.287l0,0c-0.002,12.309-9.98,22.283-22.287,22.286l0,0
		C369.413,266.1,359.436,256.125,359.436,243.816L359.436,243.816z"/>
</g>
<path fill="#F4F4F4" d="M432.112,234.626c0.002-18.104,14.676-32.779,32.78-32.781l0,0v0.92v0.919
	c-17.09,0.031-30.911,13.853-30.94,30.942l0,0c0.029,17.088,13.851,30.91,30.94,30.94l0,0c17.087-0.03,30.91-13.853,30.941-30.94
	l0,0c-0.031-17.09-13.854-30.911-30.941-30.942l0,0v-0.919v-0.92c18.1,0.002,32.778,14.677,32.78,32.781l0,0
	c-0.002,18.104-14.681,32.777-32.78,32.781l0,0C446.788,267.403,432.114,252.729,432.112,234.626L432.112,234.626z"/>
<path fill="#F4F4F4" d="M442.604,234.626c0.002-12.31,9.978-22.288,22.288-22.288l0,0v0.919v0.92
	c-11.294,0.02-20.43,9.154-20.448,20.449l0,0c0.019,11.293,9.154,20.429,20.448,20.447l0,0c11.295-0.02,20.43-9.154,20.45-20.447
	l0,0c-0.02-11.295-9.155-20.429-20.45-20.449l0,0v-0.92v-0.919c12.31,0,22.287,9.979,22.287,22.288l0,0
	c0,12.309-9.978,22.286-22.287,22.286l0,0C452.582,256.912,442.605,246.935,442.604,234.626L442.604,234.626z"/>
</svg>
