<?xml version="1.0" encoding="utf-8"?>
<!-- Generator: Adobe Illustrator 13.0.0, SVG Export Plug-In . SVG Version: 6.00 Build 14948)  -->
<!DOCTYPE svg [
	<!ENTITY ns_flows "http://ns.adobe.com/Flows/1.0/">
	<!ENTITY ns_extend "http://ns.adobe.com/Extensibility/1.0/">
	<!ENTITY ns_ai "http://ns.adobe.com/AdobeIllustrator/10.0/">
	<!ENTITY ns_graphs "http://ns.adobe.com/Graphs/1.0/">
	<!ENTITY ns_vars "http://ns.adobe.com/Variables/1.0/">
	<!ENTITY ns_imrep "http://ns.adobe.com/ImageReplacement/1.0/">
	<!ENTITY ns_sfw "http://ns.adobe.com/SaveForWeb/1.0/">
	<!ENTITY ns_custom "http://ns.adobe.com/GenericCustomNamespace/1.0/">
	<!ENTITY ns_adobe_xpath "http://ns.adobe.com/XPath/1.0/">
]>
<svg version="1.2" baseProfile="tiny"
	 id="Layer_3" xmlns:x="&ns_extend;" xmlns:i="&ns_ai;" xmlns:graph="&ns_graphs;" xmlns:rdf="http://www.w3.org/1999/02/22-rdf-syntax-ns#" xmlns:dc="http://purl.org/dc/elements/1.1/" xmlns:cc="http://creativecommons.org/ns#"
	 xmlns="http://www.w3.org/2000/svg" xmlns:xlink="http://www.w3.org/1999/xlink" xmlns:a="http://ns.adobe.com/AdobeSVGViewerExtensions/3.0/"
	 x="0px" y="0px" width="598.189px" height="350.26px" viewBox="0 0 598.189 350.26" xml:space="preserve">
<metadata  id="metadata55">
	<rdf:RDF>
		<cc:Work  rdf:about="">
			<dc:format>image/svg+xml</dc:format>
			<dc:type  rdf:resource="http://purl.org/dc/dcmitype/StillImage"></dc:type>
			<dc:title></dc:title>
		</cc:Work>
	</rdf:RDF>
	<sfw  xmlns="&ns_sfw;">
		<slices></slices>
		<sliceSourceBounds  x="708.486" y="-7652" width="503.928" height="16383" bottomLeftOrigin="true"></sliceSourceBounds>
	</sfw>
</metadata>
<g id="g3">
	<path id="polyline5" fill="#F4F4F4" d="M82.189,26.116v83.276h-3.15v1.708h4.005h0.854v-0.854V26.116H82.189z"/>
	<path id="rect7" fill="#F4F4F4" d="M47.081,25.262v0.854v84.129v0.854h0.854h27.768h0.854v-0.854V26.116v-0.854h-0.854H47.935
		H47.081z M48.789,26.971h26.058v82.42H48.789V26.971z"/>
	<path id="rect9" fill="#F4F4F4" d="M269.116,25.262v0.854v84.129v0.854h0.854h280.184h0.854v-0.854V26.116v-0.854h-0.854H269.97
		H269.116z M270.824,26.971H549.3v82.42H270.824V26.971z"/>
	<path id="polyline11" fill="#F4F4F4" d="M89.532,26.116v83.276h-3.15v1.708h4.004h0.854v-0.854V26.116H89.532z"/>
	<path id="polyline13" fill="#F4F4F4" d="M96.874,26.116v83.276h-3.15v1.708h4.005h0.854v-0.854V26.116H96.874z"/>
	<path id="polyline15" fill="#F4F4F4" d="M104.243,26.116v83.276h-3.177v1.708h4.032h0.854v-0.854V26.116H104.243z"/>
	<path id="polyline17" fill="#F4F4F4" d="M111.585,26.116v83.276h-3.177v1.708h4.032h0.854v-0.854V26.116H111.585z"/>
	<path id="polyline19" fill="#F4F4F4" d="M118.928,26.116v83.276h-3.177v1.708h4.032h0.854v-0.854V26.116H118.928z"/>
	<path id="polyline21" fill="#F4F4F4" d="M126.271,26.116v83.276h-3.177v1.708h4.031h0.855v-0.854V26.116H126.271z"/>
	<path id="polyline23" fill="#F4F4F4" d="M133.611,26.116v83.276h-3.177v1.708h4.032h0.854v-0.854V26.116H133.611z"/>
	<path id="polyline25" fill="#F4F4F4" d="M140.959,26.116v83.276h-3.177v1.708h4.032h0.854v-0.854V26.116H140.959z"/>
	<path id="polyline27" fill="#F4F4F4" d="M148.298,26.116v83.276h-3.177v1.708h4.031h0.854v-0.854V26.116H148.298z"/>
	<path id="polyline29" fill="#F4F4F4" d="M155.638,26.116v83.276h-3.177v1.708h4.032h0.854v-0.854V26.116H155.638z"/>
	<path id="polyline31" fill="#F4F4F4" d="M162.985,26.116v83.276h-3.177v1.708h4.032h0.854v-0.854V26.116H162.985z"/>
	<path id="polyline33" fill="#F4F4F4" d="M170.324,26.116v83.276h-3.178v1.708h4.032h0.854v-0.854V26.116H170.324z"/>
	<path id="polyline35" fill="#F4F4F4" d="M177.663,26.116v83.276h-3.177v1.708h4.032h0.854v-0.854V26.116H177.663z"/>
	<path id="polyline37" fill="#F4F4F4" d="M185.011,26.116v83.276h-3.177v1.708h4.032h0.854v-0.854V26.116H185.011z"/>
	<path id="polyline39" fill="#F4F4F4" d="M192.35,26.116v83.276h-3.178v1.708h4.032h0.854v-0.854V26.116H192.35z"/>
	<path id="polyline41" fill="#F4F4F4" d="M199.689,26.116v83.276h-3.177v1.708h4.032h0.854v-0.854V26.116H199.689z"/>
	<path id="polyline43" fill="#F4F4F4" d="M207.037,26.116v83.276h-3.177v1.708h4.032h0.854v-0.854V26.116H207.037z"/>
	<path id="polyline45" fill="#F4F4F4" d="M214.376,26.116v83.276h-3.178v1.708h4.032h0.855v-0.854V26.116H214.376z"/>
	<path id="polyline47" fill="#F4F4F4" d="M221.724,26.116v83.276h-3.178v1.708h4.032h0.854v-0.854V26.116H221.724z"/>
	<path id="polyline49" fill="#F4F4F4" d="M229.063,26.116v83.276h-3.177v1.708h4.032h0.854v-0.854V26.116H229.063z"/>
	<path id="polyline51" fill="#F4F4F4" d="M236.402,26.116v83.276h-3.178v1.708h4.032h0.855v-0.854V26.116H236.402z"/>
	<path id="polyline53" fill="#F4F4F4" d="M243.749,26.116v83.276h-3.177v1.708h4.032h0.854v-0.854V26.116H243.749z"/>
	<path id="polyline55" fill="#F4F4F4" d="M251.088,26.116v83.276h-3.177v1.708h4.032h0.854v-0.854V26.116H251.088z"/>
	<path id="polyline57" fill="#F4F4F4" d="M258.436,26.116v83.276h-3.177v1.708h4.032h0.854v-0.854V26.116H258.436z"/>
	<path id="polyline59" fill="#F4F4F4" d="M265.775,26.116v83.276h-3.178v1.708h4.032h0.854v-0.854V26.116H265.775z"/>
	<path id="path61" fill="#F4F4F4" d="M341.737,35.461c-0.906,0-1.656,0.749-1.656,1.655v32.893c0,0.905,0.75,1.656,1.656,1.656
		H538.62c0.906,0,1.655-0.75,1.655-1.656V37.116c0-0.905-0.749-1.655-1.655-1.655H341.737z M341.791,37.169h196.772v32.787H341.791
		V37.169z"/>
	<path id="path63" fill="#F4F4F4" d="M347.53,40.24c-1.128,0-2.082,0.928-2.082,2.056V64.83c0,1.128,0.954,2.056,2.082,2.056
		h148.261c0.799,0,1.368-0.527,1.708-1.201h0.348V64.83V42.296c0-1.128-0.926-2.056-2.056-2.056H347.53L347.53,40.24z
		 M347.53,41.949h148.261c0.205,0,0.347,0.142,0.347,0.347v21.68v0.854c0,0.205-0.142,0.347-0.347,0.347H347.53
		c-0.204,0-0.373-0.143-0.373-0.347V42.296C347.157,42.091,347.326,41.949,347.53,41.949z"/>
	<path id="path65" fill="#F4F4F4" d="M349.794,43.043c-0.684,0-1.255,0.568-1.255,1.255v18.529c0,0.687,0.571,1.255,1.255,1.255
		h143.988c0.686,0,1.256-0.571,1.256-1.255V44.298c0-0.685-0.57-1.255-1.256-1.255H349.794L349.794,43.043z M350.248,44.752H493.33
		v17.622H350.248V44.752z"/>
	<path id="circle67" fill="#F4F4F4" d="M520.482,41.842c-6.465,0-11.721,5.257-11.721,11.722c0,6.464,5.255,11.721,11.721,11.721
		c6.465,0,11.722-5.257,11.722-11.721C532.204,47.099,526.947,41.842,520.482,41.842z M520.482,43.551
		c5.54,0,10.013,4.471,10.013,10.013c0,5.541-4.473,10.012-10.013,10.012c-5.541,0-10.012-4.471-10.012-10.012
		C510.471,48.022,514.941,43.551,520.482,43.551z"/>
</g>
<path id="path69" fill="#F4F4F4" d="M52.287,114.276c-0.906,0-1.682,0.748-1.682,1.655V324.45c0,0.906,0.774,1.656,1.682,1.656
	h493.505c0.906,0,1.656-0.751,1.656-1.656V115.932c0-0.905-0.752-1.655-1.656-1.655H52.287z M52.313,115.985h493.429V324.4H52.313
	V115.985z"/>
<path id="path71" fill="#F4F4F4" d="M52.287,16.852c-0.907,0-1.682,0.749-1.682,1.655v7.716h1.708V18.56h493.429v7.45h1.708v-7.503
	c0-0.906-0.752-1.656-1.658-1.656H52.279L52.287,16.852z"/>
<path id="path73" fill="#F4F4F4" d="M75.354,167.06c-1.795,0-3.284,1.487-3.284,3.284v15.993c0,1.796,1.487,3.284,3.284,3.284
	h15.993c1.796,0,3.258-1.487,3.258-3.284v-0.854v-15.139c0-1.795-1.462-3.284-3.258-3.284H75.354z M75.354,168.768h15.993
	c0.874,0,1.549,0.704,1.549,1.576v15.993c0,0.872-0.677,1.575-1.549,1.575H75.354c-0.872,0-1.575-0.704-1.575-1.575v-15.993
	C73.779,169.47,74.481,168.768,75.354,168.768z"/>
<path id="path75" fill="#F4F4F4" d="M99.224,167.06c-1.795,0-3.284,1.487-3.284,3.284v15.993c0,1.796,1.487,3.284,3.284,3.284
	h15.993c1.796,0,3.284-1.487,3.284-3.284v-15.993c0-1.796-1.489-3.284-3.284-3.284H99.224z M99.224,168.768h15.993
	c0.874,0,1.575,0.704,1.575,1.576v15.993c0,0.872-0.702,1.575-1.575,1.575H99.224c-0.873,0-1.575-0.704-1.575-1.575v-15.993
	C97.648,169.47,98.35,168.768,99.224,168.768z"/>
<path id="path77" fill="#F4F4F4" d="M123.093,167.06c-1.794,0-3.284,1.487-3.284,3.284v15.993c0,1.795,1.487,3.284,3.284,3.284
	h15.993c1.795,0,3.284-1.487,3.284-3.284v-15.993c0-1.795-1.488-3.284-3.284-3.284H123.093z M123.093,168.768h15.993
	c0.873,0,1.575,0.704,1.575,1.576v15.993c0,0.872-0.703,1.575-1.575,1.575h-15.993c-0.873,0-1.575-0.704-1.575-1.575v-15.993
	C121.518,169.47,122.221,168.768,123.093,168.768z"/>
<path id="path79" fill="#F4F4F4" d="M146.965,167.06c-1.794,0-3.256,1.487-3.256,3.284v15.993c0,1.796,1.46,3.284,3.256,3.284
	h15.994c1.796,0,3.284-1.487,3.284-3.284v-15.993c0-1.796-1.489-3.284-3.284-3.284H146.965z M146.965,168.768h15.994
	c0.874,0,1.575,0.704,1.575,1.576v15.993c0,0.872-0.702,1.575-1.575,1.575h-15.994c-0.872,0-1.548-0.704-1.548-1.575v-15.993
	C145.417,169.47,146.091,168.768,146.965,168.768z"/>
<path id="path81" fill="#F4F4F4" d="M170.828,167.06c-1.794,0-3.257,1.487-3.257,3.284v15.993c0,1.795,1.46,3.284,3.257,3.284h16.02
	c1.795,0,3.257-1.487,3.257-3.284v-15.993c0-1.795-1.462-3.284-3.257-3.284H170.828z M170.828,168.768h16.02
	c0.874,0,1.548,0.704,1.548,1.576v15.993c0,0.872-0.676,1.575-1.548,1.575h-16.02c-0.873,0-1.548-0.704-1.548-1.575v-15.993
	C169.28,169.47,169.955,168.768,170.828,168.768z"/>
<path id="path83" fill="#F4F4F4" d="M194.699,167.06c-1.795,0-3.257,1.487-3.257,3.284v15.993c0,1.796,1.461,3.284,3.257,3.284
	h16.02c1.796,0,3.257-1.487,3.257-3.284v-15.993c0-1.796-1.462-3.284-3.257-3.284H194.699z M194.699,168.768h16.02
	c0.874,0,1.549,0.704,1.549,1.576v15.993c0,0.872-0.676,1.575-1.549,1.575h-16.02c-0.872,0-1.548-0.704-1.548-1.575v-15.993
	C193.151,169.47,193.826,168.768,194.699,168.768z"/>
<path id="path85" fill="#F4F4F4" d="M218.597,167.06c-1.794,0-3.284,1.487-3.284,3.284v15.993c0,1.796,1.488,3.284,3.284,3.284
	h15.993c1.795,0,3.257-1.487,3.257-3.284v-15.993c0-1.796-1.463-3.284-3.257-3.284H218.597z M218.597,168.768h15.993
	c0.872,0,1.548,0.704,1.548,1.576v15.993c0,0.872-0.678,1.575-1.548,1.575h-15.993c-0.871,0-1.575-0.704-1.575-1.575v-15.993
	C217.021,169.47,217.725,168.768,218.597,168.768z"/>
<path id="path87" fill="#F4F4F4" d="M242.468,167.06c-1.794,0-3.284,1.487-3.284,3.284v15.993c0,1.796,1.489,3.284,3.284,3.284
	h15.993c1.795,0,3.284-1.487,3.284-3.284v-15.993c0-1.796-1.49-3.284-3.284-3.284H242.468z M242.468,168.768h15.993
	c0.871,0,1.576,0.704,1.576,1.576v15.993c0,0.872-0.705,1.575-1.576,1.575h-15.993c-0.871,0-1.576-0.704-1.576-1.575v-15.993
	C240.892,169.47,241.596,168.768,242.468,168.768z"/>
<path id="path89" fill="#F4F4F4" d="M266.331,167.06c-1.794,0-3.257,1.487-3.257,3.284v15.993c0,1.795,1.46,3.284,3.257,3.284
	h15.993c1.797,0,3.284-1.487,3.284-3.284v-15.993c0-1.796-1.488-3.284-3.284-3.284H266.331z M266.331,168.768h15.993
	c0.874,0,1.575,0.704,1.575,1.576v15.993c0,0.872-0.702,1.575-1.575,1.575h-15.993c-0.873,0-1.548-0.704-1.548-1.575v-15.993
	C264.782,169.47,265.458,168.768,266.331,168.768z"/>
<path id="path91" fill="#F4F4F4" d="M290.202,167.06c-1.795,0-3.258,1.487-3.258,3.284v15.993c0,1.795,1.461,3.284,3.258,3.284
	h15.993c1.796,0,3.284-1.487,3.284-3.284v-15.993c0-1.795-1.488-3.284-3.284-3.284H290.202z M290.202,168.768h15.993
	c0.872,0,1.575,0.704,1.575,1.576v15.993c0,0.872-0.704,1.575-1.575,1.575h-15.993c-0.873,0-1.549-0.704-1.549-1.575v-15.993
	C288.653,169.47,289.329,168.768,290.202,168.768z"/>
<path id="path93" fill="#F4F4F4" d="M454.755,132.723c-1.795,0-3.283,1.462-3.283,3.257v16.018c0,1.796,1.488,3.257,3.283,3.257
	h15.993c1.794,0,3.284-1.46,3.284-3.257V135.98c0-1.796-1.489-3.257-3.284-3.257H454.755z M454.755,134.431h15.993
	c0.871,0,1.575,0.677,1.575,1.549v16.018c0,0.874-0.704,1.549-1.575,1.549h-15.993c-0.875,0-1.575-0.675-1.575-1.549V135.98
	C453.18,135.106,453.882,134.431,454.755,134.431z"/>
<path id="path95" fill="#F4F4F4" d="M478.618,132.723c-1.796,0-3.258,1.461-3.258,3.257v16.018c0,1.796,1.462,3.257,3.258,3.257
	h15.992c1.796,0,3.284-1.461,3.284-3.257V135.98c0-1.795-1.486-3.257-3.284-3.257H478.618z M478.618,134.431h15.992
	c0.874,0,1.576,0.676,1.576,1.549v16.018c0,0.874-0.702,1.549-1.576,1.549h-15.992c-0.873,0-1.549-0.675-1.549-1.549V135.98
	C477.069,135.107,477.747,134.431,478.618,134.431z"/>
<path id="path97" fill="#F4F4F4" d="M502.489,132.723c-1.794,0-3.258,1.461-3.258,3.257v16.018c0,1.796,1.464,3.257,3.258,3.257
	h16.02c1.794,0,3.258-1.46,3.258-3.257V135.98c0-1.796-1.463-3.257-3.258-3.257H502.489z M502.489,134.431h16.02
	c0.871,0,1.549,0.677,1.549,1.549v16.018c0,0.874-0.678,1.549-1.549,1.549h-16.02c-0.872,0-1.549-0.675-1.549-1.549V135.98
	C500.94,135.107,501.619,134.431,502.489,134.431z"/>
<path id="path99" fill="#F4F4F4" d="M314.073,167.06c-1.796,0-3.257,1.487-3.257,3.284v15.993c0,1.796,1.46,3.284,3.257,3.284
	h16.021c1.793,0,3.256-1.487,3.256-3.284v-15.993c0-1.796-1.463-3.284-3.256-3.284H314.073z M314.073,168.768h16.021
	c0.872,0,1.548,0.704,1.548,1.576v15.993c0,0.871-0.68,1.575-1.548,1.575h-16.021c-0.872,0-1.549-0.704-1.549-1.575v-15.993
	C312.524,169.472,313.201,168.768,314.073,168.768z"/>
<path id="path101" fill="#F4F4F4" d="M337.944,167.06c-1.794,0-3.258,1.487-3.258,3.284v15.993c0,1.795,1.46,3.284,3.258,3.284
	h16.02c1.796,0,3.258-1.487,3.258-3.284v-15.993c0-1.795-1.462-3.284-3.258-3.284H337.944z M337.944,168.768h16.02
	c0.873,0,1.549,0.704,1.549,1.576v15.993c0,0.872-0.678,1.575-1.549,1.575h-16.02c-0.873,0-1.548-0.704-1.548-1.575v-15.993
	C336.396,169.47,337.071,168.768,337.944,168.768z"/>
<path id="path103" fill="#F4F4F4" d="M361.841,167.06c-1.794,0-3.284,1.487-3.284,3.284v15.993c0,1.796,1.488,3.284,3.284,3.284
	h15.992c1.798,0,3.258-1.487,3.258-3.284v-15.993c0-1.795-1.462-3.284-3.258-3.284H361.841z M361.841,168.768h15.992
	c0.875,0,1.549,0.704,1.549,1.576v15.993c0,0.872-0.675,1.575-1.549,1.575h-15.992c-0.871,0-1.576-0.704-1.576-1.575v-15.993
	C360.265,169.472,360.968,168.768,361.841,168.768z"/>
<path id="path105" fill="#F4F4F4" d="M385.703,167.06c-1.794,0-3.284,1.487-3.284,3.284v15.993c0,1.795,1.489,3.284,3.284,3.284
	h15.993c1.797,0,3.284-1.487,3.284-3.284v-15.993c0-1.795-1.488-3.284-3.284-3.284H385.703z M385.703,168.768h15.993
	c0.874,0,1.575,0.704,1.575,1.576v15.993c0,0.872-0.703,1.575-1.575,1.575h-15.993c-0.871,0-1.575-0.704-1.575-1.575v-15.993
	C384.128,169.47,384.83,168.768,385.703,168.768z"/>
<path id="path107" fill="#F4F4F4" d="M409.576,167.06c-1.796,0-3.258,1.487-3.258,3.284v15.993c0,1.796,1.461,3.284,3.258,3.284
	h15.993c1.793,0,3.283-1.487,3.283-3.284v-15.993c0-1.796-1.49-3.284-3.283-3.284H409.576z M409.576,168.768h15.993
	c0.871,0,1.575,0.704,1.575,1.576v15.993c0,0.871-0.706,1.575-1.575,1.575h-15.993c-0.873,0-1.549-0.704-1.549-1.575v-15.993
	C408.027,169.472,408.703,168.768,409.576,168.768z"/>
<path id="path109" fill="#F4F4F4" d="M87.556,214.854c-1.795,0-3.284,1.463-3.284,3.258v15.992c0,1.797,1.489,3.284,3.284,3.284
	h21.227c1.795,0,3.284-1.487,3.284-3.284v-0.854v-15.138c0-1.795-1.487-3.258-3.284-3.258H87.556z M87.556,216.563h21.227
	c0.873,0,1.575,0.678,1.575,1.549v15.992c0,0.874-0.702,1.576-1.575,1.576H87.556c-0.873,0-1.575-0.701-1.575-1.576v-15.992
	C85.98,217.239,86.685,216.563,87.556,216.563z"/>
<path id="path111" fill="#F4F4F4" d="M116.659,214.854c-1.796,0-3.257,1.461-3.257,3.258v15.992c0,1.796,1.46,3.284,3.257,3.284
	h15.993c1.795,0,3.285-1.487,3.285-3.284v-15.992c0-1.797-1.489-3.258-3.285-3.258H116.659z M116.659,216.563h15.993
	c0.874,0,1.576,0.676,1.576,1.549v15.992c0,0.873-0.702,1.576-1.576,1.576h-15.993c-0.873,0-1.549-0.704-1.549-1.576v-15.992
	C115.11,217.237,115.786,216.563,116.659,216.563z"/>
<path id="path113" fill="#F4F4F4" d="M140.532,214.854c-1.795,0-3.258,1.461-3.258,3.258v15.992c0,1.795,1.461,3.284,3.258,3.284
	h16.02c1.795,0,3.257-1.487,3.257-3.284v-15.992c0-1.795-1.461-3.258-3.257-3.258H140.532z M140.532,216.563h16.02
	c0.873,0,1.548,0.676,1.548,1.549v15.992c0,0.873-0.676,1.576-1.548,1.576h-16.02c-0.873,0-1.549-0.704-1.549-1.576v-15.992
	C138.983,217.237,139.66,216.563,140.532,216.563z"/>
<path id="path115" fill="#F4F4F4" d="M164.395,214.854c-1.795,0-3.257,1.461-3.257,3.258v15.992c0,1.796,1.461,3.284,3.257,3.284
	h16.02c1.796,0,3.258-1.487,3.258-3.284v-15.992c0-1.797-1.462-3.258-3.258-3.258H164.395z M164.395,216.563h16.02
	c0.874,0,1.549,0.676,1.549,1.549v15.992c0,0.873-0.675,1.576-1.549,1.576h-16.02c-0.873,0-1.549-0.704-1.549-1.576v-15.992
	C162.846,217.237,163.521,216.563,164.395,216.563z"/>
<path id="path117" fill="#F4F4F4" d="M188.292,214.854c-1.794,0-3.284,1.461-3.284,3.258v15.992c0,1.795,1.488,3.284,3.284,3.284
	h15.993c1.795,0,3.257-1.487,3.257-3.284v-15.992c0-1.795-1.461-3.258-3.257-3.258H188.292z M188.292,216.563h15.993
	c0.873,0,1.548,0.676,1.548,1.549v15.992c0,0.873-0.676,1.576-1.548,1.576h-15.993c-0.873,0-1.575-0.704-1.575-1.576v-15.992
	C186.716,217.237,187.419,216.563,188.292,216.563z"/>
<path id="path119" fill="#F4F4F4" d="M212.163,214.854c-1.796,0-3.284,1.461-3.284,3.258v15.992c0,1.796,1.487,3.284,3.284,3.284
	h15.993c1.796,0,3.285-1.487,3.285-3.284v-15.992c0-1.797-1.488-3.258-3.285-3.258H212.163z M212.163,216.563h15.993
	c0.874,0,1.576,0.676,1.576,1.549v15.992c0,0.873-0.702,1.576-1.576,1.576h-15.993c-0.873,0-1.575-0.704-1.575-1.576v-15.992
	C210.588,217.237,211.29,216.563,212.163,216.563z"/>
<path id="path121" fill="#F4F4F4" d="M236.034,214.854c-1.794,0-3.284,1.461-3.284,3.258v15.992c0,1.797,1.489,3.284,3.284,3.284
	h15.993c1.796,0,3.284-1.487,3.284-3.284v-15.992c0-1.797-1.488-3.258-3.284-3.258H236.034z M236.034,216.563h15.993
	c0.874,0,1.575,0.676,1.575,1.549v15.992c0,0.873-0.702,1.576-1.575,1.576h-15.993c-0.871,0-1.575-0.704-1.575-1.576v-15.992
	C234.459,217.237,235.163,216.563,236.034,216.563z"/>
<path id="path123" fill="#F4F4F4" d="M259.897,214.854c-1.794,0-3.257,1.461-3.257,3.258v15.992c0,1.796,1.462,3.284,3.257,3.284
	h15.993c1.794,0,3.284-1.487,3.284-3.284v-15.992c0-1.797-1.489-3.258-3.284-3.258H259.897z M259.897,216.563h15.993
	c0.871,0,1.576,0.676,1.576,1.549v15.992c0,0.873-0.705,1.576-1.576,1.576h-15.993c-0.871,0-1.549-0.704-1.549-1.576v-15.992
	C258.348,217.237,259.025,216.563,259.897,216.563z"/>
<path id="path125" fill="#F4F4F4" d="M283.769,214.854c-1.795,0-3.258,1.461-3.258,3.258v15.992c0,1.795,1.461,3.284,3.258,3.284
	h16.019c1.796,0,3.258-1.487,3.258-3.284v-15.992c0-1.795-1.461-3.258-3.258-3.258H283.769z M283.769,216.563h16.019
	c0.875,0,1.549,0.676,1.549,1.549v15.992c0,0.873-0.676,1.576-1.549,1.576h-16.019c-0.873,0-1.549-0.704-1.549-1.576v-15.992
	C282.22,217.237,282.896,216.563,283.769,216.563z"/>
<path id="path127" fill="#F4F4F4" d="M307.64,214.854c-1.796,0-3.257,1.461-3.257,3.258v15.992c0,1.795,1.461,3.284,3.257,3.284
	h16.02c1.795,0,3.256-1.487,3.256-3.284v-15.992c0-1.795-1.46-3.258-3.256-3.258H307.64z M307.64,216.563h16.02
	c0.874,0,1.548,0.676,1.548,1.549v15.992c0,0.873-0.676,1.576-1.548,1.576h-16.02c-0.871,0-1.549-0.704-1.549-1.576v-15.992
	C306.091,217.237,306.769,216.563,307.64,216.563z"/>
<path id="path129" fill="#F4F4F4" d="M331.536,214.854c-1.795,0-3.283,1.461-3.283,3.258v15.992c0,1.796,1.488,3.284,3.283,3.284
	h15.994c1.795,0,3.257-1.487,3.257-3.284v-15.992c0-1.797-1.462-3.258-3.257-3.258H331.536z M331.536,216.563h15.994
	c0.872,0,1.548,0.676,1.548,1.549v15.992c0,0.872-0.678,1.576-1.548,1.576h-15.994c-0.873,0-1.574-0.704-1.574-1.576v-15.992
	C329.962,217.237,330.663,216.563,331.536,216.563z"/>
<path id="path131" fill="#F4F4F4" d="M355.407,214.854c-1.794,0-3.284,1.461-3.284,3.258v15.992c0,1.795,1.489,3.284,3.284,3.284
	H371.4c1.796,0,3.284-1.487,3.284-3.284v-15.992c0-1.795-1.488-3.258-3.284-3.258H355.407z M355.407,216.563H371.4
	c0.873,0,1.575,0.676,1.575,1.549v15.992c0,0.873-0.702,1.576-1.575,1.576h-15.993c-0.872,0-1.574-0.704-1.574-1.576v-15.992
	C353.833,217.237,354.535,216.563,355.407,216.563z"/>
<path id="path133" fill="#F4F4F4" d="M379.271,214.854c-1.794,0-3.258,1.461-3.258,3.258v15.992c0,1.796,1.462,3.284,3.258,3.284
	h15.993c1.796,0,3.284-1.487,3.284-3.284v-15.992c0-1.795-1.488-3.258-3.284-3.258H379.271z M379.271,216.563h15.993
	c0.872,0,1.575,0.676,1.575,1.549v15.992c0,0.873-0.703,1.576-1.575,1.576h-15.993c-0.873,0-1.549-0.704-1.549-1.576v-15.992
	C377.722,217.237,378.397,216.563,379.271,216.563z"/>
<path id="path135" fill="#F4F4F4" d="M403.141,214.854c-1.793,0-3.257,1.461-3.257,3.258v15.992c0,1.795,1.462,3.284,3.257,3.284
	h16.021c1.796,0,3.258-1.487,3.258-3.284v-15.992c0-1.795-1.462-3.258-3.258-3.258H403.141z M403.141,216.563h16.021
	c0.872,0,1.548,0.676,1.548,1.549v15.992c0,0.873-0.676,1.576-1.548,1.576h-16.021c-0.872,0-1.548-0.704-1.548-1.576v-15.992
	C401.593,217.237,402.269,216.563,403.141,216.563z"/>
<path id="path137" fill="#F4F4F4" d="M92.79,238.725c-1.796,0-3.284,1.487-3.284,3.284v15.992c0,1.796,1.488,3.285,3.284,3.285
	h27.26c1.795,0,3.284-1.488,3.284-3.285v-15.992c0-1.796-1.487-3.284-3.284-3.284H92.79z M92.79,240.433h27.26
	c0.872,0,1.575,0.704,1.575,1.576v15.992c0,0.874-0.703,1.577-1.575,1.577H92.79c-0.873,0-1.576-0.704-1.576-1.577v-15.992
	C91.214,241.137,91.918,240.433,92.79,240.433z"/>
<path id="path139" fill="#F4F4F4" d="M127.925,238.725c-1.795,0-3.257,1.487-3.257,3.284v15.992c0,1.796,1.461,3.285,3.257,3.285
	h16.02c1.796,0,3.257-1.488,3.257-3.285v-15.992c0-1.796-1.46-3.284-3.257-3.284H127.925z M127.925,240.433h16.02
	c0.872,0,1.548,0.704,1.548,1.576v15.992c0,0.874-0.675,1.577-1.548,1.577h-16.02c-0.873,0-1.548-0.704-1.548-1.577v-15.992
	C126.377,241.137,127.054,240.433,127.925,240.433z"/>
<path id="path141" fill="#F4F4F4" d="M151.793,238.725c-1.796,0-3.257,1.487-3.257,3.284v15.992c0,1.796,1.46,3.285,3.257,3.285
	h16.019c1.796,0,3.258-1.488,3.258-3.285v-15.992c0-1.796-1.461-3.284-3.258-3.284H151.793z M151.793,240.433h16.019
	c0.873,0,1.548,0.704,1.548,1.576v15.992c0,0.874-0.675,1.577-1.548,1.577h-16.019c-0.873,0-1.549-0.704-1.549-1.577v-15.992
	C150.244,241.137,150.921,240.433,151.793,240.433z"/>
<path id="path143" fill="#F4F4F4" d="M175.69,238.725c-1.796,0-3.284,1.489-3.284,3.284v15.992c0,1.796,1.488,3.285,3.284,3.285
	h15.993c1.796,0,3.257-1.488,3.257-3.285v-15.992c0-1.796-1.46-3.284-3.257-3.284H175.69z M175.69,240.433h15.993
	c0.873,0,1.549,0.704,1.549,1.576v15.992c0,0.874-0.675,1.577-1.549,1.577H175.69c-0.874,0-1.575-0.704-1.575-1.577v-15.992
	C174.115,241.136,174.816,240.433,175.69,240.433z"/>
<path id="path145" fill="#F4F4F4" d="M199.561,238.725c-1.796,0-3.284,1.489-3.284,3.284v15.992c0,1.796,1.487,3.285,3.284,3.285
	h15.993c1.796,0,3.284-1.488,3.284-3.285v-15.992c0-1.796-1.487-3.284-3.284-3.284H199.561z M199.561,240.433h15.993
	c0.873,0,1.575,0.704,1.575,1.576v15.992c0,0.874-0.702,1.577-1.575,1.577h-15.993c-0.872,0-1.575-0.704-1.575-1.577v-15.992
	C197.985,241.136,198.688,240.433,199.561,240.433z"/>
<path id="path147" fill="#F4F4F4" d="M223.432,238.725c-1.796,0-3.284,1.489-3.284,3.284v15.992c0,1.796,1.488,3.285,3.284,3.285
	h15.993c1.796,0,3.284-1.488,3.284-3.285v-15.992c0-1.796-1.488-3.284-3.284-3.284H223.432z M223.432,240.433h15.993
	c0.873,0,1.575,0.704,1.575,1.576v15.992c0,0.874-0.702,1.577-1.575,1.577h-15.993c-0.873,0-1.575-0.704-1.575-1.577v-15.992
	C221.857,241.136,222.559,240.433,223.432,240.433z"/>
<path id="path149" fill="#F4F4F4" d="M247.294,238.725c-1.795,0-3.257,1.487-3.257,3.284v15.992c0,1.796,1.461,3.285,3.257,3.285
	h15.994c1.795,0,3.284-1.488,3.284-3.285v-15.992c0-1.795-1.488-3.284-3.284-3.284H247.294z M247.294,240.433h15.994
	c0.872,0,1.576,0.704,1.576,1.576v15.992c0,0.874-0.704,1.577-1.576,1.577h-15.994c-0.873,0-1.548-0.704-1.548-1.577v-15.992
	C245.746,241.137,246.423,240.433,247.294,240.433z"/>
<path id="path151" fill="#F4F4F4" d="M271.166,238.725c-1.795,0-3.257,1.487-3.257,3.284v15.992c0,1.797,1.461,3.285,3.257,3.285
	h16.02c1.796,0,3.257-1.488,3.257-3.285v-15.992c0-1.795-1.46-3.284-3.257-3.284H271.166z M271.166,240.433h16.02
	c0.873,0,1.549,0.704,1.549,1.576v15.992c0,0.874-0.677,1.577-1.549,1.577h-16.02c-0.871,0-1.548-0.704-1.548-1.577v-15.992
	C269.618,241.137,270.294,240.433,271.166,240.433z"/>
<path id="path153" fill="#F4F4F4" d="M295.063,238.725c-1.796,0-3.284,1.487-3.284,3.284v15.992c0,1.796,1.487,3.285,3.284,3.285
	h15.993c1.795,0,3.257-1.488,3.257-3.285v-15.992c0-1.795-1.46-3.284-3.257-3.284H295.063z M295.063,240.433h15.993
	c0.872,0,1.548,0.704,1.548,1.576v15.992c0,0.874-0.676,1.577-1.548,1.577h-15.993c-0.873,0-1.575-0.704-1.575-1.577v-15.992
	C293.488,241.137,294.191,240.433,295.063,240.433z"/>
<path id="path155" fill="#F4F4F4" d="M318.934,238.725c-1.795,0-3.283,1.487-3.283,3.284v15.992c0,1.797,1.488,3.285,3.283,3.285
	h15.993c1.796,0,3.258-1.488,3.258-3.285v-15.992c0-1.795-1.46-3.284-3.258-3.284H318.934z M318.934,240.433h15.993
	c0.873,0,1.55,0.704,1.55,1.576v15.992c0,0.874-0.677,1.577-1.55,1.577h-15.993c-0.872,0-1.574-0.704-1.574-1.577v-15.992
	C317.359,241.137,318.063,240.433,318.934,240.433z"/>
<path id="path157" fill="#F4F4F4" d="M342.797,238.725c-1.795,0-3.283,1.487-3.283,3.284v15.992c0,1.796,1.488,3.285,3.283,3.285
	h15.993c1.796,0,3.284-1.488,3.284-3.285v-0.854v-15.139c0-1.795-1.487-3.284-3.284-3.284H342.797z M342.797,240.433h15.993
	c0.872,0,1.576,0.704,1.576,1.576v15.992c0,0.874-0.704,1.577-1.576,1.577h-15.993c-0.873,0-1.575-0.704-1.575-1.577v-15.992
	C341.222,241.137,341.926,240.433,342.797,240.433z"/>
<path id="path159" fill="#F4F4F4" d="M366.669,238.725c-1.796,0-3.258,1.487-3.258,3.284v15.992c0,1.797,1.462,3.285,3.258,3.285
	h15.992c1.795,0,3.284-1.488,3.284-3.285v-15.992c0-1.795-1.487-3.284-3.284-3.284H366.669z M366.669,240.433h15.992
	c0.873,0,1.575,0.704,1.575,1.576v15.992c0,0.874-0.702,1.577-1.575,1.577h-15.992c-0.874,0-1.55-0.704-1.55-1.577v-15.992
	C365.119,241.137,365.797,240.433,366.669,240.433z"/>
<path id="path161" fill="#F4F4F4" d="M390.539,238.725c-1.795,0-3.257,1.487-3.257,3.284v15.992c0,1.796,1.462,3.285,3.257,3.285
	h28.89c1.795,0,3.283-1.488,3.283-3.285v-15.992c0-1.795-1.486-3.284-3.283-3.284H390.539z M390.539,240.433h28.89
	c0.872,0,1.574,0.704,1.574,1.576v15.992c0,0.874-0.702,1.577-1.574,1.577h-28.89c-0.873,0-1.549-0.704-1.549-1.577v-15.992
	C388.99,241.137,389.668,240.433,390.539,240.433z"/>
<path id="path163" fill="#F4F4F4" d="M127.952,262.621c-1.795,0-3.284,1.462-3.284,3.258v16.02c0,1.796,1.488,3.258,3.284,3.258
	h15.993c1.796,0,3.284-1.462,3.284-3.258v-0.854v-15.165c0-1.796-1.487-3.258-3.284-3.258H127.952z M127.952,264.331h15.993
	c0.872,0,1.575,0.677,1.575,1.548v16.02c0,0.873-0.703,1.549-1.575,1.549h-15.993c-0.872,0-1.575-0.678-1.575-1.549v-16.02
	C126.377,265.008,127.08,264.331,127.952,264.331z"/>
<path id="path165" fill="#F4F4F4" d="M151.818,262.621c-1.795,0-3.284,1.462-3.284,3.258v16.02c0,1.796,1.488,3.258,3.284,3.258
	h15.994c1.795,0,3.284-1.462,3.284-3.258v-16.02c0-1.796-1.489-3.258-3.284-3.258H151.818z M151.818,264.331h15.994
	c0.872,0,1.575,0.677,1.575,1.548v16.02c0,0.873-0.704,1.549-1.575,1.549h-15.994c-0.872,0-1.575-0.678-1.575-1.549v-16.02
	C150.243,265.008,150.946,264.331,151.818,264.331z"/>
<path id="path167" fill="#F4F4F4" d="M175.69,262.621c-1.796,0-3.257,1.462-3.257,3.258v16.02c0,1.796,1.461,3.258,3.257,3.258
	h186.279c1.796,0,3.284-1.462,3.284-3.258v-16.02c0-1.795-1.486-3.258-3.284-3.258H175.69z M175.69,264.331h186.279
	c0.873,0,1.575,0.677,1.575,1.548v16.02c0,0.873-0.702,1.549-1.575,1.549H175.69c-0.872,0-1.549-0.678-1.549-1.549v-16.02
	C174.141,265.008,174.818,264.331,175.69,264.331z"/>
<path id="path169" fill="#F4F4F4" d="M80.588,190.956c-1.795,0-3.284,1.461-3.284,3.258v16.02c0,1.796,1.489,3.258,3.284,3.258
	h22.027c1.49,0,2.708-1.032,3.097-2.403h0.187v-0.854v-16.02c0-1.796-1.487-3.258-3.284-3.258H80.588L80.588,190.956z
	 M80.588,192.665h22.027c0.873,0,1.575,0.677,1.575,1.549v15.165v0.854c0,0.873-0.702,1.549-1.575,1.549H80.588
	c-0.871,0-1.575-0.678-1.575-1.549v-16.02C79.013,193.341,79.717,192.665,80.588,192.665z"/>
<path id="path171" fill="#F4F4F4" d="M110.491,190.956c-1.795,0-3.284,1.461-3.284,3.258v16.02c0,1.796,1.488,3.258,3.284,3.258
	h15.993c1.796,0,3.284-1.462,3.284-3.258v-16.02c0-1.796-1.487-3.258-3.284-3.258H110.491z M110.491,192.665h15.993
	c0.873,0,1.575,0.677,1.575,1.549v16.02c0,0.873-0.702,1.549-1.575,1.549h-15.993c-0.873,0-1.575-0.677-1.575-1.549v-16.02
	C108.916,193.341,109.619,192.665,110.491,192.665z"/>
<path id="path173" fill="#F4F4F4" d="M134.363,190.956c-1.795,0-3.257,1.461-3.257,3.258v16.02c0,1.796,1.461,3.258,3.257,3.258
	h15.993c1.796,0,3.284-1.462,3.284-3.258v-16.02c0-1.796-1.487-3.258-3.284-3.258H134.363z M134.363,192.665h15.993
	c0.873,0,1.575,0.677,1.575,1.549v16.02c0,0.873-0.702,1.549-1.575,1.549h-15.993c-0.873,0-1.548-0.677-1.548-1.549v-16.02
	C132.815,193.341,133.491,192.665,134.363,192.665z"/>
<path id="path175" fill="#F4F4F4" d="M158.226,190.956c-1.796,0-3.257,1.462-3.257,3.258v16.02c0,1.795,1.461,3.258,3.257,3.258
	h16.02c1.796,0,3.257-1.462,3.257-3.258v-16.02c0-1.796-1.461-3.258-3.257-3.258H158.226z M158.226,192.665h16.02
	c0.873,0,1.548,0.677,1.548,1.549v16.02c0,0.873-0.675,1.549-1.548,1.549h-16.02c-0.873,0-1.548-0.676-1.548-1.549v-16.02
	C156.678,193.34,157.353,192.665,158.226,192.665z"/>
<path id="path177" fill="#F4F4F4" d="M182.097,190.956c-1.795,0-3.257,1.461-3.257,3.258v16.02c0,1.796,1.461,3.258,3.257,3.258
	h16.02c1.796,0,3.258-1.462,3.258-3.258v-16.02c0-1.796-1.461-3.258-3.258-3.258H182.097z M182.097,192.665h16.02
	c0.875,0,1.549,0.676,1.549,1.549v16.02c0,0.873-0.675,1.549-1.549,1.549h-16.02c-0.873,0-1.548-0.677-1.548-1.549v-16.02
	C180.549,193.341,181.225,192.665,182.097,192.665z"/>
<path id="path179" fill="#F4F4F4" d="M205.994,190.956c-1.796,0-3.284,1.462-3.284,3.258v16.02c0,1.795,1.487,3.258,3.284,3.258
	h15.993c1.796,0,3.257-1.462,3.257-3.258v-16.02c0-1.796-1.461-3.258-3.257-3.258H205.994z M205.994,192.665h15.993
	c0.873,0,1.548,0.677,1.548,1.549v16.02c0,0.873-0.675,1.549-1.548,1.549h-15.993c-0.874,0-1.575-0.676-1.575-1.549v-16.02
	C204.419,193.34,205.12,192.665,205.994,192.665z"/>
<path id="path181" fill="#F4F4F4" d="M229.866,190.956c-1.795,0-3.284,1.461-3.284,3.258v16.02c0,1.796,1.488,3.258,3.284,3.258
	h15.993c1.796,0,3.285-1.462,3.285-3.258v-16.02c0-1.796-1.488-3.258-3.285-3.258H229.866z M229.866,192.665h15.993
	c0.873,0,1.576,0.676,1.576,1.549v16.02c0,0.873-0.704,1.549-1.576,1.549h-15.993c-0.873,0-1.575-0.677-1.575-1.549v-16.02
	C228.291,193.341,228.994,192.665,229.866,192.665z"/>
<path id="path183" fill="#F4F4F4" d="M253.737,190.956c-1.795,0-3.257,1.461-3.257,3.258v16.02c0,1.796,1.462,3.258,3.257,3.258
	h15.993c1.796,0,3.284-1.462,3.284-3.258v-16.02c0-1.796-1.487-3.258-3.284-3.258H253.737z M253.737,192.665h15.993
	c0.873,0,1.575,0.677,1.575,1.549v16.02c0,0.873-0.702,1.549-1.575,1.549h-15.993c-0.872,0-1.548-0.678-1.548-1.549v-16.02
	C252.188,193.341,252.865,192.665,253.737,192.665z"/>
<path id="path185" fill="#F4F4F4" d="M277.6,190.956c-1.795,0-3.258,1.461-3.258,3.258v16.02c0,1.796,1.462,3.258,3.258,3.258
	h15.993c1.796,0,3.284-1.462,3.284-3.258v-16.02c0-1.796-1.487-3.258-3.284-3.258H277.6z M277.6,192.665h15.993
	c0.873,0,1.575,0.676,1.575,1.549v16.02c0,0.873-0.703,1.549-1.575,1.549H277.6c-0.873,0-1.549-0.677-1.549-1.549v-16.02
	C276.051,193.341,276.728,192.665,277.6,192.665z"/>
<path id="path187" fill="#F4F4F4" d="M301.472,190.956c-1.796,0-3.258,1.461-3.258,3.258v16.02c0,1.796,1.461,3.258,3.258,3.258
	h16.02c1.795,0,3.257-1.462,3.257-3.258v-16.02c0-1.796-1.462-3.258-3.257-3.258H301.472z M301.472,192.665h16.02
	c0.873,0,1.548,0.676,1.548,1.549v16.02c0,0.873-0.677,1.549-1.548,1.549h-16.02c-0.873,0-1.549-0.678-1.549-1.549v-16.02
	C299.923,193.341,300.599,192.665,301.472,192.665z"/>
<path id="path189" fill="#F4F4F4" d="M325.343,190.956c-1.796,0-3.258,1.461-3.258,3.258v16.02c0,1.796,1.462,3.258,3.258,3.258
	h16.019c1.797,0,3.259-1.462,3.259-3.258v-16.02c0-1.796-1.462-3.258-3.259-3.258H325.343z M325.343,192.665h16.019
	c0.873,0,1.55,0.676,1.55,1.549v16.02c0,0.873-0.677,1.549-1.55,1.549h-16.019c-0.874,0-1.55-0.677-1.55-1.549v-16.02
	C323.793,193.341,324.469,192.665,325.343,192.665z"/>
<path id="path191" fill="#F4F4F4" d="M349.24,190.956c-1.796,0-3.284,1.461-3.284,3.258v16.02c0,1.796,1.486,3.258,3.284,3.258
	h15.993c1.794,0,3.258-1.462,3.258-3.258v-16.02c0-1.796-1.462-3.258-3.258-3.258H349.24z M349.24,192.665h15.993
	c0.872,0,1.548,0.676,1.548,1.549v16.02c0,0.873-0.677,1.549-1.548,1.549H349.24c-0.874,0-1.576-0.678-1.576-1.549v-16.02
	C347.664,193.341,348.367,192.665,349.24,192.665z"/>
<path id="path193" fill="#F4F4F4" d="M373.103,190.956c-1.795,0-3.283,1.461-3.283,3.258v16.02c0,1.796,1.486,3.258,3.283,3.258
	h15.993c1.794,0,3.284-1.461,3.284-3.258v-16.02c0-1.796-1.489-3.258-3.284-3.258H373.103z M373.103,192.665h15.993
	c0.873,0,1.575,0.677,1.575,1.549v16.02c0,0.873-0.704,1.549-1.575,1.549h-15.993c-0.874,0-1.577-0.677-1.577-1.549v-16.02
	C371.525,193.341,372.23,192.665,373.103,192.665z"/>
<path id="path195" fill="#F4F4F4" d="M396.974,190.956c-1.796,0-3.257,1.461-3.257,3.258v16.02c0,1.796,1.46,3.258,3.257,3.258
	h28.488c1.794,0,3.258-1.462,3.258-3.258v-16.02c0-1.796-1.462-3.258-3.258-3.258H396.974z M396.974,192.665h28.488
	c0.873,0,1.549,0.676,1.549,1.549v16.02c0,0.873-0.677,1.549-1.549,1.549h-28.488c-0.872,0-1.548-0.677-1.548-1.549v-16.02
	C395.426,193.341,396.102,192.665,396.974,192.665z"/>
<path id="path197" fill="#F4F4F4" d="M96.767,131.953c-1.796,0-3.257,1.461-3.257,3.257v16.02c0,1.795,1.461,3.257,3.257,3.257
	h25.685c1.794,0,3.257-1.461,3.257-3.257v-16.02c0-1.796-1.462-3.257-3.257-3.257H96.767z M96.767,133.663h25.685
	c0.871,0,1.548,0.675,1.548,1.548v16.02c0,0.873-0.677,1.549-1.548,1.549H96.767c-0.873,0-1.548-0.676-1.548-1.549v-16.02
	C95.219,134.337,95.895,133.663,96.767,133.663z"/>
<path id="path199" fill="#F4F4F4" d="M131.93,131.953c-1.796,0-3.284,1.461-3.284,3.257v16.02c0,1.794,1.488,3.257,3.284,3.257
	h25.658c1.795,0,3.284-1.461,3.284-3.257v-16.02c0-1.796-1.489-3.257-3.284-3.257H131.93z M131.93,133.663h25.658
	c0.871,0,1.575,0.675,1.575,1.548v16.02c0,0.873-0.704,1.549-1.575,1.549H131.93c-0.873,0-1.576-0.676-1.576-1.549v-16.02
	C130.354,134.337,131.058,133.663,131.93,133.663z"/>
<path id="path201" fill="#F4F4F4" d="M167.069,131.953c-1.796,0-3.257,1.462-3.257,3.257v16.02c0,1.794,1.46,3.257,3.257,3.257
	h25.684c1.795,0,3.257-1.461,3.257-3.257v-16.02c0-1.796-1.462-3.257-3.257-3.257H167.069z M167.069,133.663h25.684
	c0.872,0,1.548,0.675,1.548,1.548v16.02c0,0.873-0.677,1.549-1.548,1.549h-25.684c-0.874,0-1.549-0.676-1.549-1.549v-16.02
	C165.521,134.336,166.197,133.663,167.069,133.663z"/>
<path id="path203" fill="#F4F4F4" d="M202.227,131.953c-1.796,0-3.285,1.462-3.285,3.257v16.02c0,1.794,1.488,3.257,3.285,3.257
	h25.657c1.796,0,3.285-1.461,3.285-3.257v-0.854V135.21c0-1.796-1.489-3.257-3.285-3.257H202.227z M202.227,133.663h25.657
	c0.872,0,1.576,0.675,1.576,1.548v16.02c0,0.873-0.703,1.549-1.576,1.549h-25.657c-0.874,0-1.576-0.676-1.576-1.549v-16.02
	C200.651,134.336,201.354,133.663,202.227,133.663z"/>
<path id="path205" fill="#F4F4F4" d="M237.367,131.953c-1.795,0-3.257,1.461-3.257,3.257v16.02c0,1.794,1.461,3.257,3.257,3.257
	h25.685c1.795,0,3.257-1.461,3.257-3.257v-16.02c0-1.795-1.461-3.257-3.257-3.257H237.367z M237.367,133.663h25.685
	c0.873,0,1.548,0.674,1.548,1.548v16.02c0,0.873-0.676,1.549-1.548,1.549h-25.685c-0.872,0-1.548-0.676-1.548-1.549v-16.02
	C235.818,134.337,236.495,133.663,237.367,133.663z"/>
<path id="path207" fill="#F4F4F4" d="M361.919,131.953c-1.795,0-3.283,1.461-3.283,3.257v16.02c0,1.796,1.488,3.257,3.283,3.257
	h25.657c1.797,0,3.257-1.461,3.257-3.257v-16.02c0-1.795-1.46-3.257-3.257-3.257H361.919z M361.919,133.663h25.657
	c0.874,0,1.548,0.674,1.548,1.548v16.02c0,0.873-0.674,1.549-1.548,1.549h-25.657c-0.871,0-1.575-0.676-1.575-1.549v-16.02
	C360.344,134.338,361.048,133.663,361.919,133.663z"/>
<path id="path209" fill="#F4F4F4" d="M397.05,131.953c-1.795,0-3.257,1.461-3.257,3.257v16.02c0,1.796,1.462,3.257,3.257,3.257
	h25.684c1.796,0,3.258-1.461,3.258-3.257v-16.02c0-1.794-1.46-3.257-3.258-3.257H397.05z M397.05,133.663h25.684
	c0.873,0,1.549,0.674,1.549,1.548v16.02c0,0.873-0.676,1.549-1.549,1.549H397.05c-0.872,0-1.548-0.676-1.548-1.549v-16.02
	C395.502,134.338,396.18,133.663,397.05,133.663z"/>
<path id="path211" fill="#F4F4F4" d="M486.845,184.549c-3.623,0-7.254,1.384-10.013,4.135l-24.675,24.675
	c-5.514,5.513-5.514,14.481,0,19.997l24.296,24.271c5.516,5.516,14.484,5.513,19.998,0l24.671-24.671
	c5.507-5.506,5.515-14.453,0.026-19.972l-0.026-0.026l-24.297-24.269c-2.757-2.758-6.365-4.139-9.986-4.139L486.845,184.549z
	 M486.845,186.231c3.181,0,6.354,1.228,8.784,3.657l24.297,24.297c4.862,4.862,4.862,12.706,0,17.568l-24.671,24.669
	c-4.861,4.862-12.707,4.864-17.567,0l-24.296-24.296c-4.862-4.862-4.86-12.709,0-17.567l24.669-24.671
	C480.492,187.457,483.665,186.231,486.845,186.231z"/>
<g id="g213">
	<path id="path215" fill="#F4F4F4" d="M486.657,185.882c-3.104,0-6.207,1.187-8.569,3.551l-12.202,12.201l-0.16,0.16l-0.454,0.427
		l0.026,0.027l-0.16,0.133l-12.201,12.201c-4.728,4.729-4.728,12.413,0,17.142l12.201,12.201l0.16,0.134l-0.026,0.026l0.454,0.427
		l0.16,0.16l12.202,12.201c4.727,4.729,12.413,4.729,17.141,0l12.199-12.201l0.16-0.16l0.428-0.427l0.16-0.16l12.202-12.201
		c4.728-4.728,4.728-12.412,0-17.14l-12.202-12.202l-0.16-0.16l-0.428-0.427l-0.16-0.161l-12.199-12.199
		c-2.364-2.364-5.467-3.551-8.571-3.551V185.882z M486.657,187.591c2.664,0,5.332,1.007,7.369,3.044l11.586,11.585l-18.957,18.958
		L467.7,202.22l11.586-11.585c2.038-2.037,4.705-3.044,7.369-3.044H486.657z M465.726,204.198l18.957,18.956l-18.957,18.957
		l-11.588-11.587c-4.073-4.075-4.073-10.662,0-14.738l11.586-11.594L465.726,204.198z M507.59,204.198l11.586,11.587
		c4.075,4.074,4.075,10.662,0,14.738l-11.584,11.593l-18.96-18.959l18.96-18.957L507.59,204.198z M486.657,225.104l18.957,18.983
		l-11.588,11.586c-4.073,4.077-10.662,4.077-14.738,0l-11.594-11.61l18.96-18.959H486.657z"/>
</g>
<path id="path217" fill="#F4F4F4" d="M451.628,182.438c-3.129,0-5.687,2.558-5.687,5.687v70.061c0,3.129,2.558,5.687,5.687,5.687
	h70.059c3.132,0,5.687-2.558,5.687-5.687v-70.061c0-3.129-2.555-5.687-5.687-5.687H451.628z M451.628,184.146h70.059
	c2.207,0,3.979,1.772,3.979,3.978v70.061c0,2.206-1.771,3.979-3.979,3.979h-70.059c-2.204,0-3.979-1.773-3.979-3.979v-70.061
	C447.649,185.919,449.424,184.146,451.628,184.146L451.628,184.146z"/>
<path id="path219" fill="#F4F4F4" d="M77.25,137.584c-0.908,0-1.655,0.75-1.655,1.656v6.968c0,0.905,0.749,1.682,1.655,1.682h9.131
	c0.907,0,1.655-0.776,1.655-1.682v-6.968c0-0.906-0.748-1.656-1.655-1.656H77.25z M77.303,139.293h9.024v6.889h-9.024V139.293z"/>
<path id="path221" fill="#F4F4F4" d="M68.119,222.653c-0.906,0-1.655,0.776-1.655,1.683v2.67c0,0.905,0.75,1.655,1.655,1.655h7.796
	c0.905,0,1.655-0.747,1.655-1.655v-2.67c0-0.907-0.748-1.683-1.655-1.683H68.119z"/>
<path id="path223" fill="#F4F4F4" d="M431.789,222.653c-0.906,0-1.656,0.776-1.656,1.683v2.67c0,0.905,0.751,1.655,1.656,1.655
	h7.769c0.906,0,1.656-0.747,1.656-1.655v-2.67c0-0.906-0.748-1.683-1.656-1.683H431.789z"/>
<path id="line233" fill="#F4F4F4" d="M51.779,110.594v4.486h1.709v-4.486H51.779z"/>
<path id="line235" fill="#F4F4F4" d="M543.927,110.329v4.699h1.709v-4.699H543.927z"/>
<path id="path237" fill="#F4F4F4" d="M369.42,44.779c-0.906,0-1.655,0.775-1.655,1.682v14.178c0,0.906,0.749,1.655,1.655,1.655
	h0.508c0.905,0,1.654-0.75,1.654-1.655V46.461c0-0.905-0.749-1.682-1.654-1.682H369.42z M369.474,46.488h0.4v14.098h-0.4V46.488z"/>
<path id="path239" fill="#F4F4F4" d="M474.294,44.779c-0.906,0-1.655,0.777-1.655,1.682v14.178c0,0.905,0.749,1.655,1.655,1.655
	h0.508c0.906,0,1.655-0.749,1.655-1.655V46.461c0-0.906-0.749-1.682-1.655-1.682H474.294z M474.348,46.488h0.4v14.098h-0.4V46.488z"
	/>
</svg>
