<?xml version="1.0" encoding="utf-8"?>
<!-- Generator: Adobe Illustrator 13.0.0, SVG Export Plug-In . SVG Version: 6.00 Build 14948)  -->
<!DOCTYPE svg [
	<!ENTITY ns_flows "http://ns.adobe.com/Flows/1.0/">
	<!ENTITY ns_extend "http://ns.adobe.com/Extensibility/1.0/">
	<!ENTITY ns_ai "http://ns.adobe.com/AdobeIllustrator/10.0/">
	<!ENTITY ns_graphs "http://ns.adobe.com/Graphs/1.0/">
	<!ENTITY ns_vars "http://ns.adobe.com/Variables/1.0/">
	<!ENTITY ns_imrep "http://ns.adobe.com/ImageReplacement/1.0/">
	<!ENTITY ns_sfw "http://ns.adobe.com/SaveForWeb/1.0/">
	<!ENTITY ns_custom "http://ns.adobe.com/GenericCustomNamespace/1.0/">
	<!ENTITY ns_adobe_xpath "http://ns.adobe.com/XPath/1.0/">
]>
<svg version="1.2" baseProfile="tiny"
	 id="Layer_3" xmlns:x="&ns_extend;" xmlns:i="&ns_ai;" xmlns:graph="&ns_graphs;" xmlns:rdf="http://www.w3.org/1999/02/22-rdf-syntax-ns#" xmlns:dc="http://purl.org/dc/elements/1.1/" xmlns:cc="http://creativecommons.org/ns#"
	 xmlns="http://www.w3.org/2000/svg" xmlns:xlink="http://www.w3.org/1999/xlink" xmlns:a="http://ns.adobe.com/AdobeSVGViewerExtensions/3.0/"
	 x="0px" y="0px" width="598.189px" height="350.26px" viewBox="0 0 598.189 350.26" xml:space="preserve">
<metadata  id="metadata55">
	<rdf:RDF>
		<cc:Work  rdf:about="">
			<dc:format>image/svg+xml</dc:format>
			<dc:type  rdf:resource="http://purl.org/dc/dcmitype/StillImage"></dc:type>
			<dc:title></dc:title>
		</cc:Work>
	</rdf:RDF>
	<sfw  xmlns="&ns_sfw;">
		<slices></slices>
		<sliceSourceBounds  x="788.102" y="-7652" width="342.555" height="16383" bottomLeftOrigin="true"></sliceSourceBounds>
	</sfw>
</metadata>
<path id="path3" fill="#F4F4F4" d="M132.578,118.871l-1.493,0.047c0.188,4.141-1.065,14.976-2.543,25.128
	c-1.496,10.275-4.074,43.734,1.983,71.534c3.014,13.837,6.548,27.614,11.176,38.288c4.627,10.673,10.375,18.39,18.059,19.644
	c7.462,1.219,12.823-1.296,16.705-6.719c3.882-5.422,6.438-13.658,8.913-24.147c4.936-20.932,10.158-44.334,11.246-49.275
	c0.493-2.239,2.223-4.853,4.503-6.838c2.28-1.984,5.095-3.331,7.583-3.242l0.047-1.471c-3.041-0.108-6.128,1.409-8.61,3.57
	c-2.482,2.16-4.375,4.978-4.97,7.676c-1.083,4.927-6.336,28.313-11.269,49.229c-2.461,10.435-5.013,18.523-8.656,23.612
	c-3.644,5.089-8.212,7.264-15.259,6.113c-6.825-1.115-12.388-8.262-16.939-18.76c-4.551-10.497-8.076-24.206-11.083-38.007
	c-5.984-27.469-3.424-60.917-1.96-70.974C131.494,134.1,132.785,123.417,132.578,118.871z"/>
<path id="path5" fill="#F4F4F4" d="M224.504,33.524c-0.575,0.016-1.397,0.154-3.313,0.351c-2.067,0.212-10.274,1.605-19.389,3.359
	c-9.115,1.754-19.028,3.834-24.288,5.437c-5.285,1.61-11.05,4.629-15.632,7.35c-2.291,1.359-4.292,2.632-5.763,3.64
	c-0.736,0.504-1.343,0.942-1.796,1.283s-0.71,0.542-0.934,0.793c-0.633,0.712-0.742,1.682-0.792,3.103
	c-0.052,1.421,0.017,3.338,0.116,5.903l1.493-0.07c-0.098-2.567-0.164-4.445-0.116-5.763c0.047-1.317,0.264-2.017,0.42-2.193
	c-0.027,0.03,0.293-0.26,0.723-0.583c0.429-0.323,1.005-0.743,1.727-1.237c1.443-0.988,3.408-2.25,5.669-3.593
	c4.523-2.684,10.251-5.662,15.329-7.209c5.104-1.555,15.03-3.64,24.125-5.39c9.094-1.75,17.465-3.177,19.248-3.359
	c1.934-0.198,2.834-0.317,3.197-0.327c0.181-0.004,0.189,0.001,0.187,0c-0.003-0.001,0.066,0.051,0.256,0.187l0.863-1.213
	c-0.155-0.111-0.269-0.217-0.513-0.327C225.077,33.556,224.792,33.517,224.504,33.524z"/>
<path id="path7" fill="#F4F4F4" d="M297.741,7.114c-27.119,0-51.562,6.695-68.851,17.476l-0.42,0.256l0.07,0.466l9.262,65.351
	l-13.299-49.182l-1.423,0.396l16.425,60.826v0.023l0.024,0.07l1.446-0.28v-0.094l-0.023-0.093L230.08,25.616
	c16.968-10.454,40.99-17.009,67.661-17.009h0.444c26.664,0,50.694,6.562,67.661,17.009l-10.873,76.807l-0.023,0.094l1.471,0.28
	l16.448-60.919l-1.446-0.396l-13.321,49.323l9.285-65.492l0.07-0.466l-0.396-0.256c-17.289-10.78-41.755-17.476-68.875-17.476
	H297.741z"/>
<path id="path9" fill="#F4F4F4" d="M228.494,25.195c0,0-1.992,4.088-3.687,8.773c-0.852,2.354-1.309,4.09-2.077,5.296
	c-0.767,1.206-1.816,2-4.223,2.612c-2.361,0.603-9.328,1.519-17.545,2.94c-8.218,1.421-17.76,3.372-25.618,6.159
	c-26.018,9.229-44.283,34.542-44.283,63.742c0,37.542,30.455,67.094,67.964,67.988c16.527,0.393,27.768,2.494,35.417,5.53
	c7.65,3.036,11.708,6.979,14.092,11.175c1.087,1.914,2.283,6.95,3.36,13.533c1.077,6.582,2.118,14.781,3.15,23.354
	c2.063,17.146,4.12,35.763,6.649,46.126c3.063,12.55,7.081,27.383,12.716,39.15c2.817,5.884,6.051,10.989,9.8,14.676
	c3.748,3.686,8.058,5.949,12.948,5.949h1.609c4.892,0,9.225-2.264,12.973-5.949c3.747-3.687,6.959-8.792,9.775-14.676
	c5.636-11.768,9.653-26.601,12.716-39.15c2.531-10.362,4.609-28.98,6.674-46.126c1.031-8.573,2.05-16.771,3.125-23.354
	c1.078-6.584,2.274-11.619,3.36-13.533c2.386-4.196,6.467-8.139,14.114-11.175c7.65-3.036,18.869-5.137,35.396-5.53
	c37.509-0.894,67.964-30.445,67.964-67.988c0-29.2-18.266-54.513-44.283-63.742c-7.857-2.787-17.399-4.738-25.617-6.159
	c-8.218-1.421-15.185-2.338-17.546-2.94c-2.407-0.612-3.455-1.406-4.224-2.612c-0.766-1.206-1.2-2.942-2.051-5.296
	c-1.695-4.685-3.688-8.773-3.688-8.773l-1.354,0.654c0,0,1.955,4.016,3.615,8.609c0.828,2.284,1.258,4.092,2.218,5.6
	c0.96,1.508,2.482,2.598,5.109,3.267c2.673,0.681,9.48,1.548,17.662,2.963c8.183,1.415,17.68,3.356,25.384,6.09
	c25.415,9.014,43.281,33.764,43.281,62.341c0,36.735-29.772,65.62-66.52,66.495c-16.637,0.396-28.011,2.49-35.905,5.622
	c-7.896,3.134-12.313,7.342-14.863,11.83c-1.379,2.43-2.438,7.394-3.523,14.021c-1.083,6.629-2.117,14.848-3.149,23.425
	c-2.063,17.157-4.149,35.797-6.625,45.94c-3.057,12.52-7.081,27.295-12.623,38.871c-2.771,5.786-5.913,10.778-9.473,14.278
	c-3.558,3.499-7.486,5.505-11.923,5.505h-1.609c-4.436,0-8.363-2.006-11.922-5.505c-3.559-3.5-6.701-8.492-9.473-14.278
	c-5.542-11.576-9.566-26.352-12.622-38.871c-2.477-10.145-4.562-28.783-6.625-45.94c-1.033-8.577-2.066-16.797-3.15-23.425
	c-1.083-6.627-2.143-11.592-3.523-14.021c-2.55-4.488-6.967-8.696-14.862-11.83c-7.895-3.132-19.27-5.227-35.907-5.622
	c-36.747-0.875-66.518-29.76-66.518-66.495c0-28.577,17.865-53.327,43.28-62.341c7.705-2.733,17.202-4.675,25.384-6.09
	c8.183-1.415,14.989-2.282,17.663-2.963c2.626-0.669,4.149-1.758,5.109-3.267c0.96-1.508,1.39-3.315,2.216-5.6
	c1.662-4.593,3.616-8.609,3.616-8.609L228.494,25.195z"/>
<path id="path11" fill="#F4F4F4" d="M463.349,118.871c-0.206,4.545,1.084,15.229,2.566,25.408
	c1.464,10.057,4.024,43.505-1.96,70.974c-3.006,13.801-6.531,27.51-11.082,38.007c-4.552,10.498-10.114,17.645-16.938,18.76
	c-7.047,1.15-11.592-1.024-15.236-6.113c-3.643-5.089-6.218-13.178-8.679-23.612c-4.934-20.916-10.161-44.302-11.247-49.229
	c-0.593-2.698-2.51-5.516-4.993-7.676c-2.481-2.161-5.568-3.679-8.608-3.57l0.069,1.471c2.488-0.089,5.28,1.258,7.56,3.242
	c2.281,1.985,4.012,4.599,4.504,6.838c1.087,4.94,6.332,28.344,11.269,49.275c2.475,10.489,5.03,18.726,8.912,24.147
	c3.884,5.423,9.244,7.938,16.706,6.719c7.684-1.254,13.432-8.971,18.059-19.644c4.628-10.674,8.161-24.451,11.176-38.288
	c6.056-27.8,3.479-61.259,1.983-71.534c-1.479-10.153-2.756-20.988-2.567-25.128L463.349,118.871z"/>
<path id="path13" fill="#F4F4F4" d="M371.445,33.524c-0.287-0.007-0.572,0.031-0.816,0.141c-0.243,0.109-0.382,0.215-0.537,0.327
	l0.863,1.213c0.192-0.136,0.285-0.188,0.281-0.187c-0.004,0.001-0.019-0.004,0.162,0c0.364,0.009,1.264,0.129,3.197,0.327
	c1.783,0.183,10.153,1.609,19.248,3.359s19.045,3.835,24.148,5.39c5.077,1.548,10.783,4.525,15.306,7.209
	c2.262,1.343,4.227,2.605,5.668,3.593c0.723,0.495,1.322,0.915,1.75,1.237c0.43,0.322,0.728,0.614,0.701,0.583
	c0.156,0.177,0.396,0.876,0.443,2.193c0.048,1.318-0.019,3.196-0.117,5.763l1.47,0.07c0.099-2.565,0.192-4.481,0.14-5.903
	c-0.051-1.421-0.183-2.391-0.816-3.103c-0.224-0.252-0.479-0.453-0.934-0.793c-0.453-0.34-1.059-0.779-1.796-1.283
	c-1.472-1.008-3.449-2.28-5.739-3.64c-4.582-2.72-10.369-5.739-15.655-7.35c-5.261-1.603-15.173-3.682-24.288-5.437
	c-9.114-1.754-17.299-3.147-19.365-3.359C372.843,33.678,372.021,33.54,371.445,33.524z"/>
<path id="circle15" fill="#F4F4F4" d="M189.974,79.745c-21.771,0-39.43,17.683-39.43,39.453s17.659,39.43,39.43,39.43
	c21.771,0,39.43-17.66,39.43-39.43S211.745,79.745,189.974,79.745z M189.974,81.238c20.964,0,37.937,16.996,37.937,37.96
	c0,20.964-16.973,37.938-37.937,37.938c-20.964,0-37.937-16.973-37.937-37.938C152.037,98.234,169.009,81.238,189.974,81.238z"/>
<path id="circle17" fill="#F4F4F4" d="M297.975,111.429c-10.215,0-18.525,8.31-18.525,18.525c0,10.215,8.31,18.501,18.525,18.501
	s18.501-8.286,18.501-18.501C316.477,119.738,308.19,111.429,297.975,111.429z M297.975,112.922c9.408,0,17.007,7.624,17.007,17.032
	c0,9.407-7.6,17.009-17.007,17.009s-17.032-7.602-17.032-17.009C280.943,120.545,288.567,112.922,297.975,112.922z"/>
<path id="circle19" fill="#F4F4F4" d="M297.975,161.871c-20.899,0-37.867,16.969-37.867,37.867s16.968,37.844,37.867,37.844
	s37.842-16.945,37.842-37.844S318.874,161.871,297.975,161.871z M297.975,163.364c20.091,0,36.35,16.282,36.35,36.374
	s-16.259,36.351-36.35,36.351c-20.092,0-36.374-16.259-36.374-36.351S277.883,163.364,297.975,163.364z"/>
<path id="circle21" fill="#F4F4F4" d="M297.975,115.979c-7.708,0-13.976,6.268-13.976,13.976c0,7.707,6.268,13.976,13.976,13.976
	c7.708,0,13.975-6.269,13.975-13.976C311.95,122.246,305.684,115.979,297.975,115.979z M297.975,117.472
	c6.901,0,12.482,5.582,12.482,12.482s-5.581,12.482-12.482,12.482s-12.482-5.581-12.482-12.482S291.074,117.472,297.975,117.472z"/>
<path id="circle23" fill="#F4F4F4" d="M370.396,114.112c-8.471,0-15.354,6.881-15.354,15.352c0,8.471,6.883,15.352,15.354,15.352
	s15.354-6.881,15.354-15.352C385.749,120.993,378.866,114.112,370.396,114.112z M370.396,115.605
	c7.664,0,13.859,6.195,13.859,13.859c0,7.663-6.195,13.858-13.859,13.858c-7.663,0-13.859-6.195-13.859-13.858
	C356.536,121.8,362.732,115.605,370.396,115.605z"/>
<path id="circle25" fill="#F4F4F4" d="M395.664,138.983c-8.472,0-15.354,6.881-15.354,15.352c0,8.471,6.882,15.352,15.354,15.352
	c8.471,0,15.352-6.881,15.352-15.352C411.016,145.864,404.135,138.983,395.664,138.983z M395.664,140.476
	c7.664,0,13.858,6.195,13.858,13.859c0,7.664-6.194,13.859-13.858,13.859s-13.859-6.195-13.859-13.859
	C381.805,146.671,388,140.476,395.664,140.476z"/>
<path id="path27" fill="#F4F4F4" d="M182.274,88.051c-2.803,0-5.086,2.284-5.086,5.086v11.572c0,0.687-0.091,1.133-0.233,1.33
	c-0.143,0.197-0.383,0.374-1.237,0.374h-11.805c-2.802,0-5.086,2.284-5.086,5.086v15.399c0,2.802,2.284,5.086,5.086,5.086h11.642
	c0.568,0.001,0.964,0.136,1.213,0.374c0.249,0.238,0.42,0.611,0.42,1.259v11.643c0,2.802,2.284,5.086,5.086,5.086h15.398
	c2.802,0,5.087-2.284,5.087-5.086v-11.666c0-0.877,0.185-1.195,0.373-1.353c0.188-0.157,0.573-0.257,1.19-0.257h11.712
	c2.802,0,5.086-2.284,5.086-5.086v-15.399c0-2.802-2.284-5.086-5.086-5.086h-11.689c-0.897,0-1.586-0.574-1.586-1.633V93.137
	c0-2.802-2.285-5.086-5.087-5.086H182.274z M182.274,89.543h15.398c1.994,0,3.593,1.599,3.593,3.593v11.643
	c0,1.803,1.445,3.126,3.08,3.126h11.689c1.995,0,3.593,1.598,3.593,3.593v15.399c0,1.994-1.598,3.593-3.593,3.593h-11.712
	c-0.748,0-1.524,0.084-2.146,0.606c-0.622,0.521-0.91,1.384-0.91,2.496v11.666c0,1.994-1.599,3.593-3.593,3.593h-15.398
	c-1.996,0-3.593-1.599-3.593-3.593v-11.643c0-0.946-0.304-1.776-0.886-2.333c-0.582-0.556-1.394-0.793-2.24-0.793h-11.642
	c-1.996,0-3.593-1.6-3.593-3.593v-15.399c0-1.995,1.597-3.593,3.593-3.593h11.805c1.105,0,1.972-0.342,2.45-1.003
	c0.479-0.662,0.513-1.417,0.513-2.193V93.137C178.681,91.142,180.279,89.543,182.274,89.543z"/>
<path id="path29" fill="#F4F4F4" d="M183.301,90.477c-2.486,0-4.527,2.042-4.527,4.527v11.619c0,0.59-0.084,0.956-0.187,1.096
	c-0.102,0.141-0.279,0.28-1.003,0.28h-11.806c-2.485,0-4.526,2.018-4.526,4.503v13.369c0,2.485,2.041,4.526,4.526,4.526h11.689
	c0.475,0,0.786,0.118,0.979,0.303c0.194,0.186,0.327,0.46,0.327,1.004v11.688c0,2.485,2.041,4.503,4.527,4.503h13.345
	c2.485,0,4.526-2.018,4.526-4.503v-11.712c0-0.747,0.146-0.984,0.281-1.097c0.134-0.112,0.453-0.187,0.98-0.187h11.735
	c2.486,0,4.526-2.041,4.526-4.526v-13.369c0-2.485-2.041-4.503-4.526-4.503h-11.712c-0.731,0-1.284-0.437-1.284-1.307V95.003
	c0-2.485-2.041-4.527-4.526-4.527H183.301z M183.301,91.971h13.345c1.678,0,3.033,1.354,3.033,3.033v11.689
	c0,1.614,1.309,2.8,2.776,2.8h11.712c1.679,0,3.033,1.332,3.033,3.01v13.369c0,1.678-1.354,3.033-3.033,3.033h-11.735
	c-0.659,0-1.368,0.061-1.938,0.537c-0.568,0.477-0.816,1.26-0.816,2.24v11.712c0,1.679-1.355,3.01-3.033,3.01h-13.345
	c-1.679,0-3.034-1.331-3.034-3.01v-11.688c0-0.841-0.266-1.573-0.793-2.077c-0.527-0.504-1.253-0.724-2.006-0.724h-11.689
	c-1.678,0-3.033-1.355-3.033-3.033v-13.369c0-1.678,1.354-3.01,3.033-3.01h11.806c0.975,0,1.779-0.304,2.216-0.91
	c0.438-0.606,0.467-1.28,0.467-1.959V95.003C180.268,93.325,181.622,91.971,183.301,91.971z"/>
<path id="path31" fill="#F4F4F4" d="M204.439,112.456c-1.167,0-2.124,0.957-2.124,2.123v9.216c0,1.166,0.957,2.146,2.124,2.146
	c0.419,0,0.811-0.137,1.144-0.35c0.007-0.006,0.015-0.019,0.023-0.024h0.023l7.559-4.573h0.023c0.605-0.375,1.003-1.04,1.003-1.796
	c0-0.802-0.455-1.505-1.12-1.867l-0.023-0.023l-7.466-4.502c-0.006-0.004-0.017,0.003-0.023,0
	C205.249,112.586,204.866,112.456,204.439,112.456L204.439,112.456z M204.439,113.948c0.134,0,0.249,0.025,0.35,0.093v0.023h0.023
	l7.513,4.55h0.023l0.023,0.023c0.202,0.106,0.35,0.309,0.35,0.56c0,0.233-0.125,0.426-0.304,0.537l-7.605,4.573v0.023h-0.023
	c-0.1,0.068-0.214,0.117-0.35,0.117c-0.359,0-0.629-0.293-0.629-0.653v-9.216C203.81,114.219,204.08,113.948,204.439,113.948
	L204.439,113.948z"/>
<path id="circle33" fill="#F4F4F4" d="M189.974,112.712c-3.565,0-6.463,2.921-6.463,6.486c0,3.565,2.898,6.463,6.463,6.463
	c3.565,0,6.463-2.898,6.463-6.463C196.437,115.633,193.539,112.712,189.974,112.712z M189.974,114.206
	c2.758,0,4.969,2.234,4.969,4.992s-2.211,4.97-4.969,4.97c-2.758,0-4.97-2.212-4.97-4.97S187.215,114.206,189.974,114.206z"/>
<path id="path35" fill="#F4F4F4" d="M189.974,94.957c-0.791,0-1.478,0.447-1.843,1.096c-0.011,0.019-0.037,0.027-0.047,0.047
	l-4.479,7.466l-0.023-0.023c-0.008,0.013,0.008,0.034,0,0.046c-0.21,0.33-0.35,0.725-0.35,1.143c0,1.166,0.956,2.123,2.124,2.123
	h9.239c1.167,0,2.123-0.956,2.123-2.123c0-0.43-0.15-0.83-0.374-1.167v-0.023l-4.549-7.583h-0.023
	C191.395,95.358,190.732,94.957,189.974,94.957z M189.974,96.45c0.233,0,0.424,0.123,0.537,0.303l4.572,7.583l0.023,0.023v0.023
	c0.068,0.101,0.117,0.216,0.117,0.35c0,0.359-0.269,0.63-0.629,0.63h-9.239c-0.361,0-0.631-0.27-0.631-0.63
	c0-0.134,0.049-0.248,0.117-0.35v-0.023l4.55-7.537V96.8h0.023C189.519,96.597,189.722,96.45,189.974,96.45z"/>
<path id="path37" fill="#F4F4F4" d="M175.508,112.456c-0.42,0-0.813,0.113-1.144,0.326l-0.046,0.023l-7.56,4.573h-0.024
	c-0.603,0.375-1.002,1.062-1.002,1.819c0,0.804,0.455,1.506,1.12,1.867l0.023,0.023l7.466,4.479l0.023,0.024v-0.024
	c0.335,0.219,0.718,0.374,1.144,0.374c1.166,0,2.146-0.98,2.146-2.146v-9.216C177.655,113.411,176.674,112.456,175.508,112.456
	L175.508,112.456z M175.508,113.948c0.359,0,0.653,0.271,0.653,0.63v9.216c0,0.359-0.293,0.653-0.653,0.653
	c-0.136,0-0.25-0.048-0.35-0.117l-0.023-0.023l-7.513-4.526l-0.023-0.023h-0.023c-0.203-0.106-0.35-0.31-0.35-0.561
	c0-0.233,0.124-0.425,0.303-0.536l7.606-4.597l0.023-0.023C175.259,113.973,175.373,113.948,175.508,113.948L175.508,113.948z"/>
<path id="path39" fill="#F4F4F4" d="M185.354,131.517c-1.167,0-2.124,0.957-2.124,2.124c0,0.419,0.136,0.833,0.35,1.166l0.023,0.047
	l4.549,7.559h0.024c0.375,0.605,1.039,1.003,1.796,1.003c0.792,0,1.478-0.448,1.843-1.097h0.023
	c0.008-0.015,0.016-0.031,0.024-0.047l4.502-7.442v-0.024c0.219-0.334,0.35-0.74,0.35-1.166c0-1.168-0.957-2.124-2.123-2.124
	H185.354L185.354,131.517z M185.354,133.01h9.239c0.359,0,0.629,0.271,0.629,0.63c0,0.133-0.048,0.271-0.117,0.373v0.023
	l-4.55,7.513v0.023l-0.023,0.023c-0.106,0.204-0.309,0.327-0.56,0.327c-0.234,0-0.425-0.1-0.537-0.28l-4.573-7.606l-0.023-0.023
	c-0.067-0.1-0.117-0.239-0.117-0.373C184.724,133.281,184.994,133.01,185.354,133.01z"/>
<path id="polygon41" fill="#F4F4F4" d="M296.552,176.407l-0.21,0.069l-16.728,6.393l-0.373,0.14l-0.093,0.374l-4.457,17.522
	l-0.047,0.232l0.07,0.234l6.393,16.729l0.14,0.349l0.373,0.094l17.544,4.456l0.21,0.048l0.234-0.069l16.729-6.395l0.35-0.14
	l0.094-0.373l4.455-17.521l0.071-0.234l-0.094-0.232l-6.393-16.705l-0.141-0.374l-0.372-0.094l-17.522-4.455L296.552,176.407z
	 M296.646,177.97l16.915,4.293l6.159,16.146l-4.294,16.915l-16.145,6.16l-16.915-4.293l-6.16-16.146l4.293-16.915L296.646,177.97z"
	/>
<path id="circle43" fill="#F4F4F4" d="M297.975,181.75c-9.925,0-17.989,8.063-17.989,17.988s8.064,17.965,17.989,17.965
	c9.924,0,17.988-8.04,17.988-17.965S307.899,181.75,297.975,181.75z M297.975,183.244c9.118,0,16.495,7.376,16.495,16.494
	c0,9.117-7.377,16.472-16.495,16.472s-16.495-7.354-16.495-16.472C281.48,190.62,288.857,183.244,297.975,183.244z"/>
<path id="line45" fill="#F4F4F4" d="M379.682,140.663l-1.003,1.073l4.619,4.363l1.026-1.097L379.682,140.663z"/>
<path id="line47" fill="#F4F4F4" d="M382.947,137.093l-1.026,1.097l4.645,4.339l1.025-1.073L382.947,137.093z"/>
<g id="g49">
	<path id="path51" fill="#F4F4F4" d="M402.872,99.087c-0.419,0-0.812,0.114-1.143,0.326l-0.047,0.024l-7.559,4.572h-0.023
		c-0.604,0.376-1.003,1.039-1.003,1.797c0,0.803,0.456,1.505,1.118,1.867l0.024,0.023l7.466,4.503l0.023,0.023v-0.023
		c0.334,0.216,0.718,0.35,1.143,0.35c1.167,0,2.147-0.957,2.147-2.123v-9.216C405.02,100.042,404.039,99.087,402.872,99.087
		L402.872,99.087z M402.872,100.58c0.361,0,0.653,0.271,0.653,0.63v9.216c0,0.359-0.291,0.629-0.653,0.629
		c-0.132,0-0.246-0.025-0.35-0.093v-0.023H402.5l-7.514-4.526l-0.022-0.023h-0.023c-0.201-0.106-0.351-0.332-0.351-0.583
		c0-0.226,0.133-0.399,0.304-0.513l7.606-4.597h0.022v-0.023C402.626,100.604,402.738,100.58,402.872,100.58L402.872,100.58z"/>
	<path id="circle53" fill="#F4F4F4" d="M400.237,94.163c-6.428,0-11.644,5.24-11.644,11.666c0,6.427,5.216,11.643,11.644,11.643
		c6.425,0,11.665-5.216,11.665-11.643C411.902,99.403,406.662,94.163,400.237,94.163z M400.237,95.657
		c5.619,0,10.172,4.553,10.172,10.172c0,5.62-4.553,10.15-10.172,10.15s-10.149-4.53-10.149-10.15
		C390.088,100.209,394.618,95.657,400.237,95.657z"/>
	<path id="path55" fill="#F4F4F4" d="M441.627,99.087c-1.167,0-2.147,0.957-2.147,2.123v9.216c0,1.167,0.98,2.123,2.147,2.123
		c0.419,0,0.811-0.113,1.144-0.327c0.008-0.005,0.016-0.018,0.022-0.023h0.023l7.559-4.573h0.024
		c0.604-0.375,1.003-1.039,1.003-1.797c0-0.802-0.455-1.505-1.12-1.867l-0.023-0.023l-7.466-4.502c-0.006-0.005-0.017,0.003-0.022,0
		C442.436,99.218,442.054,99.087,441.627,99.087L441.627,99.087z M441.627,100.58c0.132,0,0.247,0.024,0.349,0.093v0.023H442
		l7.513,4.527l0.022,0.023h0.023c0.207,0.107,0.351,0.33,0.351,0.583c0,0.227-0.135,0.401-0.304,0.514L442,110.938l-0.024,0.023
		c-0.099,0.067-0.211,0.093-0.349,0.093c-0.359,0-0.654-0.27-0.654-0.629v-9.216C440.973,100.85,441.268,100.58,441.627,100.58
		L441.627,100.58z"/>
	<path id="circle57" fill="#F4F4F4" d="M444.263,94.163c-6.427,0-11.665,5.24-11.665,11.666c0,6.427,5.238,11.643,11.665,11.643
		s11.643-5.216,11.643-11.643C455.905,99.403,450.689,94.163,444.263,94.163z M444.263,95.657c5.619,0,10.15,4.553,10.15,10.172
		c0,5.62-4.531,10.15-10.15,10.15c-5.62,0-10.173-4.53-10.173-10.15C434.09,100.209,438.643,95.657,444.263,95.657z"/>
</g>
<g id="g59">
	<path id="path61" fill="#F4F4F4" d="M422.262,76.665c-0.757,0-1.444,0.4-1.82,1.003v0.023l-4.572,7.559
		c-0.005,0.006,0.004,0.018,0,0.024l-0.024,0.023c-0.211,0.332-0.326,0.724-0.326,1.143c0,1.166,0.956,2.146,2.123,2.146h9.216
		c1.167,0,2.147-0.979,2.147-2.146c0-0.426-0.152-0.808-0.373-1.143v-0.023l-4.504-7.467c-0.004-0.01-0.017-0.013-0.023-0.023
		C423.744,77.121,423.064,76.665,422.262,76.665L422.262,76.665z M422.262,78.158c0.251,0,0.454,0.147,0.56,0.35v0.023l0.023,0.023
		l4.526,7.513l0.023,0.023c0.067,0.1,0.116,0.217,0.116,0.35c0,0.359-0.292,0.654-0.653,0.654h-9.216
		c-0.361,0-0.63-0.294-0.63-0.654c0-0.136,0.025-0.25,0.093-0.35l0.023-0.023l4.597-7.606
		C421.839,78.29,422.034,78.158,422.262,78.158z"/>
	<path id="circle63" fill="#F4F4F4" d="M422.262,72.162c-6.427,0-11.666,5.215-11.666,11.642c0,6.427,5.239,11.666,11.666,11.666
		c6.428,0,11.642-5.239,11.642-11.666C433.903,77.377,428.689,72.162,422.262,72.162z M422.262,73.655
		c5.619,0,10.148,4.528,10.148,10.149c0,5.62-4.529,10.173-10.148,10.173c-5.62,0-10.173-4.553-10.173-10.173
		C412.089,78.184,416.642,73.655,422.262,73.655z"/>
	<path id="path65" fill="#F4F4F4" d="M417.642,123.048c-1.167,0-2.123,0.979-2.123,2.146c0,0.425,0.13,0.809,0.351,1.143h-0.024
		l0.024,0.024l4.503,7.466l0.022,0.023c0.362,0.665,1.064,1.12,1.867,1.12c0.757,0,1.421-0.401,1.796-1.003v-0.023l4.574-7.56
		v-0.023c0.005-0.008,0.018-0.015,0.021-0.024c0.214-0.33,0.352-0.721,0.352-1.143c0-1.167-0.979-2.146-2.147-2.146H417.642
		L417.642,123.048z M417.642,124.541h9.216c0.361,0,0.653,0.294,0.653,0.653c0,0.134-0.046,0.248-0.116,0.351l-0.023,0.023
		l-4.597,7.606c-0.113,0.172-0.287,0.304-0.513,0.304c-0.253,0-0.478-0.147-0.584-0.35v-0.023l-0.023-0.023l-4.526-7.513
		l-0.023-0.023c-0.065-0.099-0.093-0.215-0.093-0.351C417.012,124.834,417.282,124.541,417.642,124.541L417.642,124.541z"/>
	<path id="circle67" fill="#F4F4F4" d="M422.262,116.165c-6.427,0-11.666,5.239-11.666,11.666c0,6.426,5.239,11.642,11.666,11.642
		s11.642-5.216,11.642-11.642C433.903,121.404,428.688,116.165,422.262,116.165z M422.262,117.658
		c5.619,0,10.148,4.553,10.148,10.173c0,5.619-4.529,10.149-10.148,10.149c-5.62,0-10.173-4.53-10.173-10.149
		C412.089,122.211,416.642,117.658,422.262,117.658z"/>
</g>
<path id="path69" fill="#F4F4F4" d="M411.226,81.028c-6.164,2.744-11.121,7.704-13.835,13.882l1.376,0.606
	c2.564-5.836,7.244-10.544,13.065-13.136L411.226,81.028z"/>
<path id="path71" fill="#F4F4F4" d="M398.836,116.305l-1.352,0.606c2.729,6.09,7.623,10.978,13.719,13.695l0.629-1.353
	C406.075,126.687,401.416,122.057,398.836,116.305z"/>
<path id="path73" fill="#F4F4F4" d="M445.639,116.305c-2.563,5.707-7.151,10.304-12.854,12.879l0.63,1.376
	c6.037-2.726,10.888-7.607,13.603-13.649L445.639,116.305z"/>
<path id="path75" fill="#F4F4F4" d="M433.414,81.075l-0.63,1.376c5.707,2.577,10.316,7.186,12.879,12.902l1.354-0.63
	C444.304,88.672,439.455,83.803,433.414,81.075z"/>
</svg>
