<?xml version="1.0" encoding="utf-8"?>
<!-- Generator: Adobe Illustrator 13.0.0, SVG Export Plug-In . SVG Version: 6.00 Build 14948)  -->
<!DOCTYPE svg [
	<!ENTITY ns_flows "http://ns.adobe.com/Flows/1.0/">
	<!ENTITY ns_extend "http://ns.adobe.com/Extensibility/1.0/">
	<!ENTITY ns_ai "http://ns.adobe.com/AdobeIllustrator/10.0/">
	<!ENTITY ns_graphs "http://ns.adobe.com/Graphs/1.0/">
	<!ENTITY ns_vars "http://ns.adobe.com/Variables/1.0/">
	<!ENTITY ns_imrep "http://ns.adobe.com/ImageReplacement/1.0/">
	<!ENTITY ns_sfw "http://ns.adobe.com/SaveForWeb/1.0/">
	<!ENTITY ns_custom "http://ns.adobe.com/GenericCustomNamespace/1.0/">
	<!ENTITY ns_adobe_xpath "http://ns.adobe.com/XPath/1.0/">
]>
<svg version="1.2" baseProfile="tiny"
	 id="Layer_3" xmlns:x="&ns_extend;" xmlns:i="&ns_ai;" xmlns:graph="&ns_graphs;" xmlns:rdf="http://www.w3.org/1999/02/22-rdf-syntax-ns#" xmlns:dc="http://purl.org/dc/elements/1.1/" xmlns:cc="http://creativecommons.org/ns#"
	 xmlns="http://www.w3.org/2000/svg" xmlns:xlink="http://www.w3.org/1999/xlink" xmlns:a="http://ns.adobe.com/AdobeSVGViewerExtensions/3.0/"
	 x="0px" y="0px" width="598.189px" height="350.26px" viewBox="0 0 598.189 350.26" xml:space="preserve">
<metadata  id="metadata55">
	<rdf:RDF>
		<cc:Work  rdf:about="">
			<dc:format>image/svg+xml</dc:format>
			<dc:type  rdf:resource="http://purl.org/dc/dcmitype/StillImage"></dc:type>
			<dc:title></dc:title>
		</cc:Work>
	</rdf:RDF>
	<sfw  xmlns="&ns_sfw;">
		<slices></slices>
		<sliceSourceBounds  x="805.998" y="-7652" width="310.002" height="16383" bottomLeftOrigin="true"></sliceSourceBounds>
	</sfw>
</metadata>
<path fill="#F4F4F4" d="M415.095,188.464V163.13h37.499v-138c-0.009-4.418-3.582-7.992-8-8l0,0H154.595c-4.42,0.008-7.994,3.582-8,8
	l0,0l-0.002,138h37.501v24.75h-2v-22.75h-37.5V25.128c0-5.522,4.478-9.999,10.001-9.999l0,0h289.999
	c5.523,0,10.001,4.477,10.001,9.999l0,0V165.13l-37.5-0.002v23.336H415.095L415.095,188.464z"/>
<path fill="#F4F4F4" d="M154.595,337.128c-5.525,0-10-4.478-10-10l0,0v-149h1.999v149c0.008,4.42,3.583,7.992,8.001,8.002l0,0
	h289.999c4.419-0.01,7.991-3.582,8.001-8.002l0,0v-149h1.999v149c0,5.522-4.478,10-10,10l0,0H154.595L154.595,337.128z"/>
<path fill="#F4F4F4" d="M156.259,189.464v-0.002v-1v-1l286.67,0.002c5.337-0.012,9.654-4.328,9.663-9.668l0,0
	c-0.009-5.336-4.326-9.656-9.663-9.666l0,0h-286.67c-5.337,0.009-9.655,4.328-9.666,9.666l0,0c0.011,5.34,4.328,9.658,9.666,9.668
	l0,0v0.998v1c-6.441,0-11.664-5.223-11.666-11.666l0,0c0.002-6.444,5.225-11.666,11.666-11.666l0,0h286.67
	c6.441,0,11.663,5.222,11.663,11.666l0,0c0,6.443-5.222,11.666-11.663,11.666l0,0h-286.67V189.464z"/>
<path fill="#F4F4F4" d="M223.763,156.796c-2.765,0-5-2.238-5.003-5l0,0V36.462c0.003-2.761,2.238-5,5.003-5l0,0h151.666
	c2.763,0,4.997,2.238,4.997,5l0,0v115.333c0,2.761-2.234,5-4.997,5l0,0H223.763L223.763,156.796z M220.76,36.462v115.333
	c0.005,1.656,1.345,2.996,3.003,3l0,0h151.666c1.655-0.004,2.996-1.344,3-3l0,0V36.462c-0.004-1.657-1.345-2.996-3-3l0,0H223.763
	C222.104,33.466,220.765,34.807,220.76,36.462L220.76,36.462z"/>
<path fill="#F4F4F4" d="M229.095,149.796c-1.658-0.002-3-1.342-3.002-3l0,0l0.002-105.333c0-1.657,1.342-3,3-3l0,0h140.999
	c1.657,0,2.999,1.344,2.999,3l0,0v105.333c0,1.656-1.342,3-2.999,3l0,0H229.095L229.095,149.796z M228.095,41.462l-0.002,105.333
	c0.002,0.549,0.45,0.998,1.002,1l0,0h140.999c0.554-0.002,0.998-0.447,1-1l0,0V41.462c-0.002-0.552-0.446-0.998-1-1l0,0H229.095
	C228.543,40.464,228.095,40.911,228.095,41.462L228.095,41.462z"/>
<path fill="#F4F4F4" d="M218.345,317.255V197.503c0-2.209,1.79-3.998,4-3.998l0,0l154.499-0.002c2.21,0.002,4,1.791,4,4l0,0v119.752
	c0,2.207-1.79,3.998-4,3.998l0,0l-154.499,0.002C220.135,321.253,218.345,319.462,218.345,317.255L218.345,317.255z
	 M220.344,197.503v119.752c0.003,1.104,0.897,1.996,2.001,1.998l0,0h154.499c1.104-0.002,1.997-0.896,1.999-1.998l0,0h0.002
	l-0.002-119.752c-0.002-1.104-0.895-1.998-1.999-2l0,0H222.345C221.241,195.505,220.347,196.399,220.344,197.503L220.344,197.503z"
	/>
<path fill="#F4F4F4" d="M227.969,312.753c-1.104,0-1.999-0.896-1.999-1.998l0,0v-106.75c0-1.107,0.895-2.002,1.999-2.002l0,0h143.25
	c1.104,0,1.999,0.895,1.999,2.002l0,0v106.75c0,1.104-0.895,1.998-1.999,1.998l0,0H227.969L227.969,312.753z M227.969,204.005
	v106.75h143.25v-106.75v-0.002h-143.25V204.005L227.969,204.005z"/>
<path fill="#F4F4F4" d="M173.845,267.003c-1.105,0-2.001-0.895-2.001-2l0,0v-12.062h-12.063c-1.105,0-1.999-0.896-1.999-1.999l0,0
	v-13.251c0-1.104,0.894-2,1.999-2l0,0h12.063v-12.063c0-1.104,0.896-1.998,2.001-1.998l0,0h13.249c1.105,0,2,0.895,2,1.998l0,0
	v12.063h12.063c1.105,0,1.999,0.896,1.999,2l0,0v13.251c0,1.104-0.893,1.999-1.999,1.999l0,0h-12.063v12.063
	c0,1.104-0.896,1.998-2,1.998l0,0H173.845L173.845,267.003z M173.845,265.003h13.249v-12.188c0.006-0.307,0.025-0.742,0.354-1.199
	l0,0c0.334-0.469,0.956-0.693,1.502-0.675l0,0h12.208v-13.25h-12.146c-0.395,0-0.891-0.083-1.317-0.455l0,0
	c-0.43-0.376-0.608-0.954-0.6-1.481l0,0v-12.127h-13.249v12.168c-0.002,0.375-0.075,0.842-0.417,1.266l0,0
	c-0.343,0.428-0.929,0.645-1.458,0.631l0,0h-12.188v13.249h12.085c0.391,0.015,0.823-0.008,1.34,0.345l0,0
	c0.53,0.393,0.648,1.022,0.638,1.469l0,0V265.003L173.845,265.003z"/>
<path fill="#F4F4F4" d="M407.763,219.794c0-5.246,4.253-9.5,9.499-9.5l0,0c5.247,0,9.5,4.254,9.5,9.5l0,0c0,5.246-4.253,9.5-9.5,9.5
	l0,0C412.016,229.294,407.763,225.042,407.763,219.794L407.763,219.794z M409.761,219.794c0.008,4.143,3.359,7.494,7.501,7.502l0,0
	c4.144-0.008,7.493-3.359,7.5-7.502l0,0c-0.007-4.143-3.356-7.492-7.5-7.5l0,0C413.12,212.302,409.769,215.652,409.761,219.794
	L409.761,219.794z"/>
<path fill="#F4F4F4" d="M407.763,255.296c0-5.25,4.253-9.502,9.499-9.502l0,0c5.247,0,9.5,4.252,9.5,9.502l0,0
	c0,5.244-4.253,9.498-9.5,9.498l0,0C412.016,264.794,407.763,260.542,407.763,255.296L407.763,255.296z M409.761,255.296
	c0.008,4.141,3.359,7.49,7.501,7.5l0,0c4.144-0.01,7.493-3.359,7.5-7.5l0,0c-0.007-4.146-3.356-7.494-7.5-7.502l0,0
	C413.12,247.802,409.769,251.151,409.761,255.296L409.761,255.296z"/>
<path fill="#F4F4F4" d="M390.095,237.628c0-5.246,4.256-9.5,9.501-9.5l0,0c5.246,0,9.5,4.254,9.5,9.5l0,0c0,5.246-4.254,9.5-9.5,9.5
	l0,0C394.351,247.128,390.095,242.876,390.095,237.628L390.095,237.628z M392.096,237.628c0.009,4.144,3.358,7.492,7.5,7.502l0,0
	c4.143-0.01,7.492-3.358,7.5-7.502l0,0c-0.008-4.142-3.357-7.494-7.5-7.5l0,0C395.454,230.134,392.103,233.487,392.096,237.628
	L392.096,237.628z"/>
<path fill="#F4F4F4" d="M425.931,237.628c0-5.246,4.252-9.5,9.5-9.5l0,0c5.245,0,9.499,4.254,9.499,9.5l0,0
	c0,5.248-4.254,9.5-9.499,9.5l0,0C430.183,247.128,425.931,242.876,425.931,237.628L425.931,237.628z M427.93,237.628
	c0.009,4.144,3.357,7.492,7.501,7.502l0,0c4.142-0.01,7.493-3.358,7.499-7.502l0,0c-0.006-4.142-3.357-7.492-7.499-7.5l0,0
	C431.287,230.136,427.937,233.487,427.93,237.628L427.93,237.628z"/>
<path fill="#F4F4F4" d="M390.429,295.128c0-2.946,2.387-5.334,5.334-5.334l0,0c2.943,0,5.331,2.388,5.331,5.334l0,0
	c0,2.945-2.388,5.332-5.331,5.332l0,0C392.813,300.46,390.429,298.075,390.429,295.128L390.429,295.128z M392.427,295.128
	c0.004,1.84,1.493,3.33,3.336,3.332l0,0c1.84-0.002,3.327-1.492,3.331-3.332l0,0c-0.004-1.842-1.491-3.33-3.331-3.334l0,0
	C393.92,291.798,392.431,293.288,392.427,295.128L392.427,295.128z"/>
<path fill="#F4F4F4" d="M390.429,312.796c0-2.947,2.388-5.334,5.333-5.334l0,0c2.945,0,5.332,2.387,5.332,5.334l0,0
	c0,2.945-2.387,5.332-5.332,5.332l0,0C392.815,318.128,390.429,315.741,390.429,312.796L390.429,312.796z M392.427,312.796
	c0.005,1.84,1.493,3.328,3.335,3.332l0,0c1.841-0.004,3.33-1.492,3.332-3.332l0,0c-0.002-1.842-1.491-3.33-3.332-3.334l0,0
	C393.92,309.466,392.432,310.954,392.427,312.796L392.427,312.796z"/>
<g>
	<path fill="#F4F4F4" d="M185.135,162.63c-1.657,0-2.999-1.344-2.999-3l0,0v-5.25c0-1.658,1.342-3,2.999-3l0,0h5.251
		c1.656,0,2.998,1.342,3,3l0,0v5.25c-0.002,1.656-1.344,3-3,3l0,0H185.135L185.135,162.63z M184.136,154.378v5.252
		c0,0.549,0.447,0.996,0.999,0.998l0,0h5.251c0.55-0.002,0.997-0.449,1-0.998l0,0v-5.252c-0.002-0.551-0.45-0.998-1-0.998l0,0
		h-5.251C184.583,153.38,184.136,153.827,184.136,154.378L184.136,154.378z"/>
	<path fill="#F4F4F4" d="M408.803,162.628c-1.657,0-2.999-1.342-2.999-2.998l0,0v-5.252c0-1.655,1.342-2.998,2.999-2.998l0,0h5.251
		c1.656,0,2.997,1.34,2.999,2.998l0,0v5.252c-0.002,1.658-1.343,2.998-2.999,2.998l0,0H408.803L408.803,162.628z M407.802,154.378
		v5.252c0.002,0.552,0.448,0.998,1.001,0.998l0,0h5.251c0.549,0,0.997-0.447,0.999-0.998l0,0v-5.252
		c-0.002-0.549-0.45-0.998-0.999-1l0,0h-5.251C408.25,153.38,407.804,153.827,407.802,154.378L407.802,154.378z"/>
</g>
<g>
	<path fill="#F4F4F4" d="M185.136,38.629c-1.658,0-3-1.344-3-3l0,0v-5.251c0-1.656,1.342-3,3-3l0,0h5.25c1.658,0,3,1.343,3,3l0,0
		v5.251c0,1.656-1.341,3-3,3l0,0H185.136L185.136,38.629z M184.135,30.378v5.251c0.002,0.55,0.449,0.999,1,0.999l0,0h5.25
		c0.552,0,0.999-0.449,1-0.999l0,0v-5.251c-0.002-0.55-0.448-0.999-1-1l0,0h-5.25C184.584,29.38,184.137,29.829,184.135,30.378
		L184.135,30.378z"/>
	<path fill="#F4F4F4" d="M408.803,38.628c-1.657,0-2.999-1.343-2.999-2.999l0,0v-5.251c0-1.656,1.342-2.999,2.999-2.999l0,0h5.251
		c1.656,0,2.997,1.341,2.999,2.999l0,0v5.251c-0.002,1.658-1.343,2.999-2.999,2.999l0,0H408.803L408.803,38.628z M407.802,30.379
		v5.251c0.002,0.553,0.448,0.999,1.001,0.999l0,0h5.251c0.549,0,0.997-0.448,0.999-0.999l0,0v-5.251
		c-0.002-0.551-0.45-0.999-0.999-1.001l0,0h-5.251C408.25,29.38,407.804,29.827,407.802,30.379L407.802,30.379z"/>
</g>
<path fill="#F4F4F4" d="M434.262,183.798c0,0.553-0.448,1-1,1h-0.332c-0.552,0-1-0.447-1-1v-12c0-0.553,0.448-1,1-1h0.332
	c0.552,0,1,0.447,1,1V183.798z"/>
<path fill="#F4F4F4" d="M439.596,183.798c0,0.553-0.448,1-1,1h-0.332c-0.552,0-1-0.447-1-1v-12c0-0.553,0.448-1,1-1h0.332
	c0.552,0,1,0.447,1,1V183.798z"/>
<path fill="#F4F4F4" d="M301.345,179.38c0,0.828-0.672,1.5-1.5,1.5l0,0c-0.828,0-1.5-0.672-1.5-1.5v-5.25c0-0.83,0.672-1.5,1.5-1.5
	l0,0c0.828,0,1.5,0.67,1.5,1.5V179.38z"/>
<g>
	<g>
		<circle fill="#F4F4F4" cx="405.563" cy="90.942" r="1.563"/>
		<circle fill="#F4F4F4" cx="417.188" cy="90.942" r="1.563"/>
		<circle fill="#F4F4F4" cx="428.813" cy="90.942" r="1.563"/>
		<circle fill="#F4F4F4" cx="405.563" cy="102.317" r="1.563"/>
		<circle fill="#F4F4F4" cx="417.188" cy="102.317" r="1.563"/>
		<circle fill="#F4F4F4" cx="428.813" cy="102.317" r="1.563"/>
	</g>
	<g>
		<circle fill="#F4F4F4" cx="170.376" cy="90.942" r="1.563"/>
		<circle fill="#F4F4F4" cx="182.001" cy="90.942" r="1.563"/>
		<circle fill="#F4F4F4" cx="193.626" cy="90.942" r="1.563"/>
		<circle fill="#F4F4F4" cx="170.376" cy="102.317" r="1.563"/>
		<circle fill="#F4F4F4" cx="182.001" cy="102.317" r="1.563"/>
		<circle fill="#F4F4F4" cx="193.626" cy="102.317" r="1.563"/>
	</g>
</g>
</svg>
