<?xml version="1.0" encoding="utf-8"?>
<!-- Generator: Adobe Illustrator 13.0.0, SVG Export Plug-In . SVG Version: 6.00 Build 14948)  -->
<!DOCTYPE svg [
	<!ENTITY ns_flows "http://ns.adobe.com/Flows/1.0/">
	<!ENTITY ns_extend "http://ns.adobe.com/Extensibility/1.0/">
	<!ENTITY ns_ai "http://ns.adobe.com/AdobeIllustrator/10.0/">
	<!ENTITY ns_graphs "http://ns.adobe.com/Graphs/1.0/">
	<!ENTITY ns_vars "http://ns.adobe.com/Variables/1.0/">
	<!ENTITY ns_imrep "http://ns.adobe.com/ImageReplacement/1.0/">
	<!ENTITY ns_sfw "http://ns.adobe.com/SaveForWeb/1.0/">
	<!ENTITY ns_custom "http://ns.adobe.com/GenericCustomNamespace/1.0/">
	<!ENTITY ns_adobe_xpath "http://ns.adobe.com/XPath/1.0/">
]>
<svg version="1.2" baseProfile="tiny"
	 id="Layer_3" xmlns:x="&ns_extend;" xmlns:i="&ns_ai;" xmlns:graph="&ns_graphs;" xmlns:rdf="http://www.w3.org/1999/02/22-rdf-syntax-ns#" xmlns:dc="http://purl.org/dc/elements/1.1/" xmlns:cc="http://creativecommons.org/ns#"
	 xmlns="http://www.w3.org/2000/svg" xmlns:xlink="http://www.w3.org/1999/xlink" xmlns:a="http://ns.adobe.com/AdobeSVGViewerExtensions/3.0/"
	 x="0px" y="0px" width="598.189px" height="350.26px" viewBox="0 0 598.189 350.26" xml:space="preserve">
<metadata  id="metadata55">
	<rdf:RDF>
		<cc:Work  rdf:about="">
			<dc:format>image/svg+xml</dc:format>
			<dc:type  rdf:resource="http://purl.org/dc/dcmitype/StillImage"></dc:type>
			<dc:title></dc:title>
		</cc:Work>
	</rdf:RDF>
	<sfw  xmlns="&ns_sfw;">
		<slices></slices>
		<sliceSourceBounds  x="712.69" y="-7652" width="493.792" height="16383" bottomLeftOrigin="true"></sliceSourceBounds>
	</sfw>
</metadata>
<path id="path3" fill="#F4F4F4" d="M434.132,41.827c-4.058,0.231-8.121,1.247-11.996,3.153
	c-28.748,14.133-53.001,31.475-72.775,51.781c-19.791,20.285-34.998,43.455-46.091,68.495c-7.005,15.79,0.128,34.29,15.919,41.296
	c4.123,1.83,8.449,2.717,12.689,2.718c12,0.001,23.431-6.944,28.607-18.61c8.402-18.895,19.287-35.399,33.684-50.192
	c14.408-14.772,32.453-27.921,55.601-39.323c15.499-7.627,21.88-26.385,14.252-41.886C458.302,47.633,446.309,41.133,434.132,41.827
	z M434.235,43.441c11.537-0.663,22.898,5.506,28.325,16.534c7.236,14.706,1.17,32.472-13.535,39.708
	c-23.292,11.473-41.463,24.716-56.011,39.63c-14.532,14.934-25.544,31.628-34.017,50.679c-4.911,11.068-15.753,17.638-27.12,17.637
	c-4.017-0.001-8.112-0.828-12.023-2.563c-14.979-6.648-21.718-24.164-15.072-39.144c11.021-24.875,26.109-47.87,45.757-68.008
	c19.634-20.16,43.715-37.387,72.314-51.448C426.529,44.657,430.389,43.662,434.235,43.441z"/>
<path id="circle5" fill="#F4F4F4" d="M332.441,156.412c-11.892,0-21.559,9.641-21.559,21.533c0,11.892,9.667,21.559,21.559,21.559
	s21.532-9.667,21.532-21.559C353.974,166.052,344.333,156.412,332.441,156.412z M332.441,158.052
	c11.005,0,19.892,8.886,19.892,19.892s-8.887,19.918-19.892,19.918s-19.918-8.912-19.918-19.918S321.437,158.052,332.441,158.052z"
	/>
<path id="circle7" fill="#F4F4F4" d="M360.178,112.475c-11.892,0-21.559,9.667-21.559,21.558c0,11.892,9.667,21.533,21.559,21.533
	s21.532-9.641,21.532-21.533C381.71,122.141,372.069,112.475,360.178,112.475z M360.178,114.115
	c11.005,0,19.892,8.912,19.892,19.917s-8.887,19.892-19.892,19.892s-19.918-8.887-19.918-19.892S349.173,114.115,360.178,114.115z"
	/>
<path id="circle9" fill="#F4F4F4" d="M395.322,75.946c-11.892,0-21.559,9.667-21.559,21.558c0,11.892,9.667,21.559,21.559,21.559
	s21.532-9.667,21.532-21.559C416.854,85.612,407.214,75.946,395.322,75.946z M395.322,77.586c11.005,0,19.892,8.912,19.892,19.917
	c0,11.006-8.887,19.918-19.892,19.918s-19.918-8.912-19.918-19.918C375.404,86.499,384.317,77.586,395.322,77.586z"/>
<path id="circle11" fill="#F4F4F4" d="M437.311,50.696c-11.892,0-21.532,9.667-21.532,21.559c0,11.892,9.641,21.533,21.532,21.533
	c11.893,0,21.559-9.641,21.559-21.533C458.869,60.362,449.203,50.696,437.311,50.696z M437.311,52.336
	c11.006,0,19.918,8.913,19.918,19.918s-8.912,19.892-19.918,19.892c-11.005,0-19.892-8.887-19.892-19.892
	S426.306,52.336,437.311,52.336z"/>
<path id="circle13" fill="#F4F4F4" d="M188.71,64.564c-36.002,0-65.213,29.211-65.213,65.213s29.211,65.188,65.213,65.188
	c36.002,0,65.188-29.187,65.188-65.188S224.712,64.564,188.71,64.564z M188.71,66.205c35.116,0,63.547,28.457,63.547,63.573
	s-28.432,63.548-63.547,63.548s-63.573-28.432-63.573-63.548S153.595,66.205,188.71,66.205z"/>
<path id="circle15" fill="#F4F4F4" d="M188.71,97.914c-17.579,0-31.863,14.285-31.863,31.863s14.285,31.838,31.863,31.838
	s31.837-14.259,31.837-31.838S206.289,97.914,188.71,97.914z M188.71,99.555c16.692,0,30.197,13.531,30.197,30.223
	s-13.505,30.197-30.197,30.197s-30.223-13.505-30.223-30.197S172.019,99.555,188.71,99.555z"/>
<path id="path17" fill="#F4F4F4" d="M259.512,38.52c-4.084-0.549-7.859,2.325-8.407,6.409c-0.549,4.084,2.35,7.859,6.434,8.408
	l18.738,2.538c4.084,0.549,7.859-2.351,8.408-6.434c0.549-4.084-2.35-7.859-6.434-8.408L259.512,38.52z M259.307,40.16l18.739,2.512
	c3.205,0.431,5.429,3.357,4.998,6.563c-0.431,3.204-3.357,5.429-6.563,4.999l-18.738-2.512c-3.205-0.43-5.429-3.357-4.999-6.562
	C253.175,41.954,256.102,39.729,259.307,40.16z"/>
<path id="path19" fill="#F4F4F4" d="M340.645,38.52l-18.739,2.512c-4.083,0.549-6.957,4.324-6.408,8.408
	c0.548,4.083,4.325,6.983,8.408,6.434l18.738-2.538c4.084-0.549,6.957-4.324,6.409-8.408
	C348.504,40.844,344.728,37.971,340.645,38.52z M340.875,40.16c3.204-0.431,6.132,1.794,6.563,4.999s-1.794,6.132-4.999,6.562
	l-18.764,2.512c-3.205,0.431-6.133-1.794-6.563-4.999c-0.432-3.205,1.819-6.132,5.024-6.563L340.875,40.16z"/>
<path id="path21" fill="#F4F4F4" d="M57.873,12.809c-3.627,0-6.588,2.96-6.588,6.588v315.48c0,3.629,2.96,6.588,6.588,6.588h480.616
	c3.628,0,6.588-2.96,6.588-6.588V19.396c0-3.627-2.959-6.588-6.588-6.588H57.873z M57.873,14.449h480.616
	c2.742,0,4.947,2.206,4.947,4.947v315.48c0,2.742-2.205,4.947-4.947,4.947H57.873c-2.741,0-4.947-2.205-4.947-4.947V19.396
	C52.926,16.655,55.132,14.449,57.873,14.449z"/>
<path id="path23" fill="#F4F4F4" d="M72.946,12.809l-0.103,1.641c0,0,43.037,2.578,89.925,5.152s97.59,5.152,113.175,5.152h44.476
	c16.201,0,66.928-2.578,113.662-5.152s89.438-5.152,89.438-5.152l-0.103-1.641c0,0-42.709,2.579-89.438,5.152
	c-46.729,2.574-97.533,5.152-113.56,5.152h-44.476c-15.404,0-66.215-2.578-113.098-5.152
	C115.962,15.387,72.946,12.809,72.946,12.809z"/>
</svg>
