<?xml version="1.0" encoding="utf-8"?>
<!-- Generator: Adobe Illustrator 13.0.0, SVG Export Plug-In . SVG Version: 6.00 Build 14948)  -->
<!DOCTYPE svg [
	<!ENTITY ns_flows "http://ns.adobe.com/Flows/1.0/">
	<!ENTITY ns_extend "http://ns.adobe.com/Extensibility/1.0/">
	<!ENTITY ns_ai "http://ns.adobe.com/AdobeIllustrator/10.0/">
	<!ENTITY ns_graphs "http://ns.adobe.com/Graphs/1.0/">
	<!ENTITY ns_vars "http://ns.adobe.com/Variables/1.0/">
	<!ENTITY ns_imrep "http://ns.adobe.com/ImageReplacement/1.0/">
	<!ENTITY ns_sfw "http://ns.adobe.com/SaveForWeb/1.0/">
	<!ENTITY ns_custom "http://ns.adobe.com/GenericCustomNamespace/1.0/">
	<!ENTITY ns_adobe_xpath "http://ns.adobe.com/XPath/1.0/">
]>
<svg version="1.2" baseProfile="tiny"
	 id="Layer_3" xmlns:x="&ns_extend;" xmlns:i="&ns_ai;" xmlns:graph="&ns_graphs;" xmlns:rdf="http://www.w3.org/1999/02/22-rdf-syntax-ns#" xmlns:dc="http://purl.org/dc/elements/1.1/" xmlns:cc="http://creativecommons.org/ns#"
	 xmlns="http://www.w3.org/2000/svg" xmlns:xlink="http://www.w3.org/1999/xlink" xmlns:a="http://ns.adobe.com/AdobeSVGViewerExtensions/3.0/"
	 x="0px" y="0px" width="598.189px" height="350.26px" viewBox="0 0 598.189 350.26" xml:space="preserve">
<metadata  id="metadata55">
	<rdf:RDF>
		<cc:Work  rdf:about="">
			<dc:format>image/svg+xml</dc:format>
			<dc:type  rdf:resource="http://purl.org/dc/dcmitype/StillImage"></dc:type>
			<dc:title></dc:title>
		</cc:Work>
	</rdf:RDF>
	<sfw  xmlns="&ns_sfw;">
		<slices></slices>
		<sliceSourceBounds  x="-7231" y="-7652" width="16383" height="16383" bottomLeftOrigin="true"></sliceSourceBounds>
	</sfw>
</metadata>
<path id="path3" fill="#F4F4F4" d="M19.381,43.455c-4.282,0-7.78,3.499-7.78,7.779v234.245c0,4.282,3.498,7.75,7.78,7.75h559.24
	c4.282,0,7.751-3.468,7.751-7.75V51.234c0-4.281-3.47-7.779-7.753-7.779H19.381L19.381,43.455z M19.381,45.341h559.24
	c3.264,0,5.865,2.631,5.865,5.893v234.245c0,3.263-2.602,5.864-5.865,5.864H19.381c-3.264,0-5.894-2.604-5.894-5.865V51.233
	C13.488,47.971,16.118,45.34,19.381,45.341L19.381,45.341z"/>
<path id="path5" fill="#F4F4F4" d="M33.526,84.445c-2.666,0-4.833,2.196-4.833,4.863v181.023c0,2.665,2.167,4.862,4.833,4.862
	h530.452c2.665,0,4.832-2.197,4.832-4.862V89.308c0-2.667-2.167-4.863-4.832-4.863H33.526L33.526,84.445z M33.526,86.331h530.452
	c1.644,0,2.947,1.33,2.947,2.977v181.023c0,1.646-1.304,2.976-2.947,2.976H33.526c-1.647,0-2.947-1.33-2.947-2.976V89.308
	C30.579,87.661,31.88,86.331,33.526,86.331z"/>
<path id="path7" fill="#F4F4F4" d="M208.363,189.853c-5.901,0-10.698,4.797-10.698,10.696v37.572c0,5.9,4.798,10.727,10.698,10.727
	H346.48c5.566,0,9.99-4.346,10.489-9.782h0.207v-0.944v-37.572c0-5.899-4.797-10.696-10.696-10.696H208.363L208.363,189.853z
	 M208.363,191.739H346.48c4.882,0,8.81,3.93,8.81,8.81v36.63v0.942c0,4.88-3.928,8.84-8.81,8.84H208.363
	c-4.881,0-8.811-3.96-8.811-8.84v-37.572C199.552,195.669,203.481,191.739,208.363,191.739z"/>
<path id="path9" fill="#F4F4F4" d="M207.156,196.189c-2.397,0-4.361,1.965-4.361,4.36v37.571c0,2.398,1.965,4.362,4.361,4.362
	h140.531c2.396,0,4.361-1.965,4.361-4.362V200.55c0-2.396-1.965-4.36-4.361-4.36H207.156z M207.156,198.076h140.531
	c1.377,0,2.475,1.1,2.475,2.474v37.571c0,1.379-1.098,2.477-2.475,2.477H207.156c-1.376,0-2.476-1.099-2.476-2.477V200.55
	C204.681,199.176,205.778,198.076,207.156,198.076z"/>
<path id="path11" fill="#F4F4F4" d="M205.439,154.227c-4.821,0-8.752,3.93-8.752,8.752v11.728c0,4.823,3.931,8.722,8.752,8.722
	h143.952c4.824,0,8.753-3.899,8.753-8.722v-11.728c0-4.822-3.929-8.752-8.753-8.752H205.439z M205.439,156.113h143.952
	c3.807,0,6.867,3.063,6.867,6.866v11.728c0,3.802-3.061,6.835-6.867,6.835H205.439c-3.802,0-6.866-3.034-6.866-6.835v-11.728
	C198.573,159.176,201.638,156.113,205.439,156.113z"/>
<path id="path13" fill="#F4F4F4" d="M205.439,119.571c-4.821,0-8.752,3.931-8.752,8.752v11.729c0,4.822,3.931,8.752,8.752,8.752
	h143.952c4.824,0,8.753-3.931,8.753-8.752v-11.731c0-4.82-3.929-8.751-8.753-8.751H205.439V119.571z M205.439,121.457h143.952
	c3.807,0,6.867,3.065,6.867,6.866v11.729c0,3.803-3.061,6.866-6.867,6.866H205.439c-3.802,0-6.866-3.063-6.866-6.866v-11.729
	C198.573,124.522,201.638,121.457,205.439,121.457z"/>
<path id="path15" fill="#F4F4F4" d="M196.688,85.388v17.563c0,4.821,3.932,8.752,8.752,8.752h143.953
	c4.824,0,8.753-3.932,8.753-8.752V85.388h-1.886v17.563c0,3.803-3.063,6.866-6.867,6.866H205.44c-3.801,0-6.866-3.064-6.866-6.866
	V85.388H196.688z"/>
<path id="path17" fill="#F4F4F4" d="M205.439,258.161c-4.821,0-8.752,3.93-8.752,8.752v7.396h1.886v-7.396
	c0-3.802,3.065-6.865,6.866-6.865h143.952c3.807,0,6.867,3.063,6.867,6.865v7.338h1.886v-7.338c0-4.821-3.929-8.752-8.753-8.752
	H205.439z"/>
<path id="path19" fill="#F4F4F4" d="M388.055,187.41c-2.934,0-5.333,2.399-5.333,5.332v53.19c0,2.936,2.399,5.335,5.333,5.335h53.19
	c2.936,0,5.333-2.399,5.333-5.335v-53.19c0-2.933-2.397-5.332-5.333-5.332H388.055z M388.055,189.296h53.19
	c1.916,0,3.447,1.534,3.447,3.446v53.19c0,1.916-1.531,3.448-3.447,3.448h-53.19c-1.912,0-3.447-1.532-3.447-3.448v-53.19
	C384.607,190.83,386.143,189.296,388.055,189.296z"/>
<path id="circle21" fill="#F4F4F4" d="M414.639,193.276c-14.391,0-26.049,11.689-26.049,26.078
	c0,14.388,11.658,26.078,26.049,26.078c14.388,0,26.077-11.69,26.077-26.078C440.716,204.966,429.026,193.276,414.639,193.276z
	 M414.639,195.162c13.37,0,24.19,10.822,24.19,24.192s-10.82,24.192-24.19,24.192c-13.369,0-24.163-10.822-24.163-24.192
	S401.268,195.162,414.639,195.162z"/>
<path id="path23" fill="#F4F4F4" d="M462.229,187.41c-2.935,0-5.334,2.399-5.334,5.332v53.19c0,2.936,2.401,5.335,5.334,5.335h53.19
	c2.934,0,5.335-2.399,5.335-5.335v-53.19c0-2.933-2.401-5.332-5.335-5.332H462.229z M462.229,189.296h53.19
	c1.915,0,3.446,1.534,3.446,3.446v53.19c0,1.916-1.531,3.448-3.446,3.448h-53.19c-1.915,0-3.446-1.532-3.446-3.448v-53.19
	C458.783,190.83,460.314,189.296,462.229,189.296z"/>
<path id="circle25" fill="#F4F4F4" d="M488.832,193.276c-14.39,0-26.079,11.689-26.079,26.078c0,14.388,11.689,26.078,26.079,26.078
	c14.388,0,26.048-11.69,26.048-26.078C514.88,204.966,503.22,193.276,488.832,193.276z M488.832,195.162
	c13.369,0,24.161,10.822,24.161,24.192s-10.792,24.192-24.161,24.192c-13.37,0-24.193-10.822-24.193-24.192
	S475.462,195.162,488.832,195.162z"/>
<path id="polyline27" fill="#F4F4F4" d="M160.592,46.991v6.041v0.943h0.943h22.13h0.943v-0.943v-6.041h-1.886v5.098h-20.245v-5.098
	H160.592z"/>
<g id="g29">
	<path fill="#F4F4F4" d="M225.773,229.146h-0.004v-0.941v-0.944h0.004h28.788c4.553-0.01,8.238-3.691,8.247-8.248l0,0
		c-0.009-4.555-3.693-8.237-8.247-8.247l0,0H225.77c-4.555,0.01-8.24,3.692-8.249,8.247l0,0c0.008,4.557,3.693,8.238,8.249,8.248
		l0,0v0.944v0.941c-5.597,0-10.133-4.535-10.133-10.134l0,0c0-5.598,4.536-10.133,10.133-10.133l0,0h28.792
		c5.596,0,10.131,4.535,10.131,10.133l0,0c0,5.599-4.536,10.134-10.131,10.134l0,0H225.773L225.773,229.146z"/>
	<path fill="#F4F4F4" d="M300.273,229.146v-0.941v-0.944h28.792c4.552-0.01,8.238-3.691,8.246-8.248l0,0
		c-0.008-4.555-3.694-8.237-8.246-8.247l0,0h-28.792c-4.555,0.01-8.239,3.692-8.248,8.247l0,0c0.009,4.557,3.695,8.238,8.248,8.248
		l0,0v0.944V229.146c-5.595,0-10.133-4.535-10.133-10.134l0,0c0-5.598,4.536-10.133,10.133-10.133l0,0h28.792
		c5.594,0,10.131,4.535,10.131,10.133l0,0c0,5.599-4.537,10.134-10.131,10.134l0,0H300.273L300.273,229.146z"/>
</g>
<path id="path35" fill="#F4F4F4" d="M96.352,132.331c-5.361,0.002-9.722,4.363-9.724,9.724V165.1H63.583
	c-5.361,0.001-9.722,4.363-9.724,9.724v33.033c0.002,5.361,4.363,9.721,9.724,9.723h23.044v23.046
	c0.002,5.361,4.363,9.722,9.724,9.725h33.004c5.361-0.002,9.723-4.363,9.724-9.725v-23.046h23.074
	c5.362-0.001,9.722-4.361,9.724-9.723v-33.033c-0.002-5.362-4.363-9.722-9.724-9.724H139.08v-23.045c0-5.358-4.366-9.72-9.722-9.722
	H96.354L96.352,132.331z M96.352,134.217h33.004c4.344,0.002,7.836,3.495,7.838,7.838v23.987v0.942h0.943h24.017
	c4.344,0.002,7.837,3.494,7.839,7.838v33.034c-0.002,4.344-3.496,7.838-7.839,7.839h-24.017h-0.943v0.942v23.987
	c-0.002,4.345-3.496,7.837-7.838,7.839H96.352c-4.344-0.003-7.836-3.495-7.839-7.839v-23.987v-0.942H87.57H63.583
	c-4.344-0.002-7.836-3.496-7.838-7.839v-33.034c0.001-4.344,3.496-7.836,7.838-7.838H87.57h0.942v-0.942v-23.987
	C88.515,137.712,92.008,134.219,96.352,134.217z M96.352,138.166c-2.125,0.003-3.856,1.766-3.861,3.89v25.489c0,0,0,0.028,0,0.06
	c0,0.016,0,0.004,0,0.029c-0.009,0.567-0.06,1.137-0.471,1.857c-0.339,0.615-1.274,1.186-1.769,1.296l-0.029,0.03
	c-0.449,0.119-0.822,0.146-1.238,0.147H63.583c-2.124,0.004-3.886,1.735-3.89,3.86v33.033c0.004,2.125,1.766,3.856,3.89,3.86h25.519
	h0.03c0.004,0,0.031,0,0.059,0c0.733,0,1.776,0.313,2.417,1.032c0.694,0.772,0.856,1.678,0.854,2.445v25.431
	c0.004,2.125,1.766,3.86,3.89,3.861h33.004c2.125-0.003,3.885-1.737,3.89-3.861v-25.431c-0.009-0.884,0.358-1.879,1.001-2.505
	c0.647-0.644,1.588-0.978,2.447-0.973h25.459c2.124-0.004,3.856-1.735,3.86-3.86v-0.027v-33.006c-0.003-2.125-1.736-3.858-3.86-3.86
	h-25.459c-0.583-0.006-1.149-0.067-1.857-0.442c-0.585-0.294-1.261-1.154-1.415-1.709v-0.029c-0.141-0.452-0.169-0.876-0.169-1.311
	V142.07c-0.004-2.124-1.766-3.888-3.891-3.889H96.357L96.352,138.166z M96.352,140.052h33.004c1.106,0,2.002,0.896,2.004,2.004
	v25.401v0.03c0.002,0.541,0.059,1.151,0.265,1.827c0.002,0.008-0.002,0.021,0,0.03c0.326,1.148,1.158,2.225,2.328,2.828v0.03
	c0.006,0.004,0.023-0.003,0.03,0c1.043,0.542,2.038,0.641,2.711,0.648h25.459c1.107,0.001,1.972,0.865,1.974,1.974v33.006
	c-0.001,1.107-0.865,2-1.974,2.002h-25.459c-1.341-0.007-2.71,0.515-3.743,1.533h-0.03c-1.046,1.029-1.576,2.442-1.562,3.831v25.431
	c-0.002,1.107-0.898,1.975-2.004,1.976H96.352c-1.106-0.001-2.001-0.867-2.004-1.976v-25.431c0.003-1.074-0.242-2.505-1.326-3.713
	c-1.091-1.227-2.616-1.651-3.831-1.651c-0.021,0-0.055-0.001-0.088,0h-0.03H63.583c-1.11-0.002-2.002-0.865-2.004-1.974v-33.034
	c0.002-1.108,0.897-1.972,2.004-1.974h25.402c0.49-0.001,1.077-0.042,1.709-0.206c0.008-0.002,0.021,0.002,0.029,0
	c1.099-0.254,2.265-1.001,2.947-2.24c0.628-1.098,0.697-2.127,0.707-2.771v-0.028c-0.001-0.074,0-0.06,0-0.06v-25.489
	C94.38,140.95,95.245,140.054,96.352,140.052L96.352,140.052z"/>
<path id="polygon37" fill="#F4F4F4" d="M81.058,176.707l-1.621,1.621L67.12,190.675l-0.678,0.649l0.678,0.678l12.317,12.347
	l1.621,1.593v-2.271v-3.152h7.602h0.943v-0.942v-16.475v-0.941H88.66h-7.602v-3.184V176.707L81.058,176.707z M79.171,181.274v1.827
	v0.944h0.943h7.602v14.585h-7.602h-0.943v0.944v1.797L69.123,191.32l10.048-10.043V181.274z"/>
<path id="circle39" fill="#F4F4F4" d="M112.858,179.159c-6.709,0-12.17,5.461-12.17,12.17c0,6.708,5.462,12.17,12.17,12.17
	c6.708,0,12.17-5.462,12.17-12.17C125.028,184.62,119.566,179.159,112.858,179.159z M112.858,181.046
	c5.689,0,10.284,4.594,10.284,10.283c0,5.688-4.594,10.284-10.284,10.284s-10.284-4.596-10.284-10.284
	C102.575,185.64,107.169,181.046,112.858,181.046z"/>
<path id="polygon41" fill="#F4F4F4" d="M103.688,214.578v0.942v7.602h-3.182h-2.269l1.622,1.622l12.347,12.347l0.648,0.648
	l0.678-0.648l12.348-12.347l1.59-1.622h-2.268h-3.153v-7.602v-0.942h-0.943h-16.474H103.688L103.688,214.578z M105.574,216.463
	h14.588v7.604v0.941h0.942h1.827l-10.079,10.078l-10.079-10.078h1.856h0.943v-0.941L105.574,216.463L105.574,216.463z"/>
<path id="polygon43" fill="#F4F4F4" d="M144.646,176.707v2.27v3.184h-7.604H136.1v0.941v16.474v0.942h0.943h7.604v3.152v2.271
	l1.621-1.593l12.347-12.346l0.648-0.678l-0.648-0.649l-12.347-12.347L144.646,176.707L144.646,176.707z M146.532,181.246
	l10.079,10.079l-10.079,10.077v-1.826v-0.944h-0.943h-7.603v-14.586h7.603h0.943v-0.943V181.246L146.532,181.246z"/>
<path id="polygon45" fill="#F4F4F4" d="M112.858,144.91l-0.648,0.678l-12.347,12.316l-1.621,1.621h2.269h3.183v7.602v0.943h0.942
	h16.473h0.943v-0.943v-7.602h3.154h2.269l-1.591-1.621l-12.348-12.316L112.858,144.91L112.858,144.91z M112.858,147.592
	l10.048,10.049h-1.797h-0.943v0.942v7.603h-14.587v-7.603v-0.942h-0.943h-1.827L112.858,147.592L112.858,147.592z"/>
</svg>
