<?xml version="1.0" encoding="utf-8"?>
<!-- Generator: Adobe Illustrator 13.0.0, SVG Export Plug-In . SVG Version: 6.00 Build 14948)  -->
<!DOCTYPE svg [
	<!ENTITY ns_flows "http://ns.adobe.com/Flows/1.0/">
	<!ENTITY ns_extend "http://ns.adobe.com/Extensibility/1.0/">
	<!ENTITY ns_ai "http://ns.adobe.com/AdobeIllustrator/10.0/">
	<!ENTITY ns_graphs "http://ns.adobe.com/Graphs/1.0/">
	<!ENTITY ns_vars "http://ns.adobe.com/Variables/1.0/">
	<!ENTITY ns_imrep "http://ns.adobe.com/ImageReplacement/1.0/">
	<!ENTITY ns_sfw "http://ns.adobe.com/SaveForWeb/1.0/">
	<!ENTITY ns_custom "http://ns.adobe.com/GenericCustomNamespace/1.0/">
	<!ENTITY ns_adobe_xpath "http://ns.adobe.com/XPath/1.0/">
]>
<svg version="1.2" baseProfile="tiny"
	 id="Layer_3" xmlns:x="&ns_extend;" xmlns:i="&ns_ai;" xmlns:graph="&ns_graphs;" xmlns:rdf="http://www.w3.org/1999/02/22-rdf-syntax-ns#" xmlns:dc="http://purl.org/dc/elements/1.1/" xmlns:cc="http://creativecommons.org/ns#"
	 xmlns="http://www.w3.org/2000/svg" xmlns:xlink="http://www.w3.org/1999/xlink" xmlns:a="http://ns.adobe.com/AdobeSVGViewerExtensions/3.0/"
	 x="0px" y="0px" width="598.189px" height="350.26px" viewBox="0 0 598.189 350.26" xml:space="preserve">
<metadata  id="metadata55">
	<rdf:RDF>
		<cc:Work  rdf:about="">
			<dc:format>image/svg+xml</dc:format>
			<dc:type  rdf:resource="http://purl.org/dc/dcmitype/StillImage"></dc:type>
			<dc:title></dc:title>
		</cc:Work>
	</rdf:RDF>
	<sfw  xmlns="&ns_sfw;">
		<slices></slices>
		<sliceSourceBounds  x="-7231" y="-7652" width="16383" height="16383" bottomLeftOrigin="true"></sliceSourceBounds>
	</sfw>
</metadata>
<path fill="#F4F4F4" d="M255.844,336.128c-53.157,0-101.513-2.58-137.833-5.549l0,0c-36.362-2.979-60.511-6.297-65.752-7.904l0,0
	l-0.044-0.014l-0.036-0.016c-13.149-5.359-22.417-18.273-22.417-33.352l0,0V28.129c0.002-3.997,2.604-7.386,6.209-8.558l0,0
	l0.034-0.013l0.03-0.006c2.052-0.514,12.852-1.834,25.585-3.075l0,0c12.699-1.232,27.15-2.347,36.141-2.349l0,0h401.082
	c8.991,0.002,23.442,1.117,36.143,2.349l0,0c12.731,1.24,23.532,2.561,25.647,3.094l0,0c3.607,1.172,6.209,4.562,6.211,8.558l0,0
	v261.167c-0.002,15.078-9.267,27.99-22.418,33.352l0,0l-0.049,0.02l-0.032,0.01c-5.241,1.607-29.391,4.926-65.752,7.904l0,0
	c-36.319,2.969-84.674,5.549-137.831,5.549l0,0v-1v-1c53.092,0,101.398-2.578,137.669-5.543l0,0
	c36.125-2.942,60.455-6.318,65.279-7.808l0,0c12.398-5.075,21.134-17.258,21.132-31.483l0,0V28.129
	c0.002-3.109-2.025-5.744-4.766-6.638l0,0c-1.635-0.429-12.656-1.803-25.285-3.024l0,0c-12.661-1.229-27.105-2.338-35.948-2.338l0,0
	H97.761c-8.842,0-23.287,1.108-35.948,2.338l0,0c-12.562,1.214-23.533,2.581-25.259,3.017l0,0c-2.784,0.924-4.794,3.55-4.792,6.645
	l0,0v261.167c-0.002,14.226,8.735,26.408,21.132,31.482l0,0c4.826,1.488,29.159,4.864,65.279,7.809l0,0
	c36.271,2.965,84.578,5.541,137.671,5.541l0,0h84.917v1.002v1h-84.917V336.128z"/>
<path fill="#F4F4F4" d="M177.269,274.442c-2.873-0.167-4.542-0.275-5.156-0.402l0,0c-2.314-0.438-4.059-2.47-4.062-4.912l0,0V30.13
	c0-2.764,2.237-5,5.001-5l0,0h250.5c2.762,0,4.998,2.237,4.998,5l0,0l0.002,238.998c-0.004,2.334-1.596,4.293-3.76,4.848l0,0
	l-0.001-0.003l0.001,0.003l-0.001-0.003c-0.41,0.108-0.767,0.116-1.558,0.19l0,0c-0.805,0.064-1.911,0.137-3.299,0.213l0,0
	c-2.77,0.158-6.645,0.342-11.341,0.545l0,0c-9.39,0.406-22.056,0.877-35.684,1.328l0,0c-27.254,0.9-58.332,1.713-74.692,1.715l0,0
	C269.009,277.962,197.115,275.556,177.269,274.442L177.269,274.442z M170.051,30.13l0.002,238.998
	c-0.004,1.465,1.051,2.686,2.465,2.955l0,0c0.207,0.057,2.072,0.213,4.861,0.362l0,0c2.822,0.159,6.714,0.345,11.391,0.546l0,0
	c9.356,0.4,21.862,0.864,35.302,1.305l0,0c26.879,0.883,57.508,1.668,74.147,1.668l0,0c16.052,0,46.419-0.787,73.348-1.672l0,0
	c26.882-0.877,50.531-1.875,52.655-2.238l0,0l0.001,0.005l0.03-0.011l0.044-0.012c1.293-0.332,2.256-1.508,2.254-2.908l0,0V30.13
	c-0.004-1.656-1.345-2.998-2.999-3.001l0,0h-250.5C171.396,27.132,170.056,28.475,170.051,30.13L170.051,30.13z"/>
<path fill="#F4F4F4" d="M189.303,253.128c-1.104,0-2.001-0.895-2.001-1.998l0,0V45.128c0-1.104,0.894-1.999,2.001-1.999l0,0h217.999
	c1.104,0,1.998,0.894,1.998,1.999l0,0V251.13c0,1.104-0.894,1.998-1.998,1.998l0,0H189.303L189.303,253.128z M189.303,251.13
	h217.999V45.128H189.303V251.13L189.303,251.13z"/>
<g>
	<path fill="#F4F4F4" d="M67.262,66.962c-7.181,0-13.001-5.82-13.001-12.999l0,0c0-7.181,5.82-13,13.001-13l0,0h23.165
		c5.87,0.002,10.83,3.887,12.446,9.23l0,0c0.001,0.003,0.003,0.006,0.005,0.01l0,0c0.024,0.041,0.063,0.101,0.107,0.148l0,0
		c0.1,0.109,0.138,0.114,0.15,0.112l0,0h19.376c0.396-0.021,0.357-0.14,0.438-0.236l0,0l0.001,0.001l0.013-0.054l0.024-0.061
		c1.536-3.896,5.333-6.649,9.772-6.652l0,0c5.799,0.002,10.499,4.702,10.499,10.501l0,0c0,5.797-4.699,10.499-10.499,10.499l0,0
		c-4.459-0.002-8.269-2.778-9.792-6.702l0,0c-0.026-0.038-0.072-0.092-0.125-0.142l0,0c-0.118-0.106-0.215-0.156-0.333-0.156l0,0
		h-19.373c-0.083,0-0.143,0.003-0.187,0.008l0,0c-1.531,5.479-6.558,9.49-12.522,9.493l0,0H67.262L67.262,66.962z M56.262,53.963
		c0.01,6.075,4.925,10.988,11,10.998l0,0h23.165c5.095,0.002,9.381-3.464,10.631-8.161l0,0l0.021-0.071l0.028-0.067
		c0.077-0.181,0.251-0.572,0.657-0.848l0,0c0.402-0.272,0.863-0.351,1.372-0.351l0,0h19.376c1.599,0.065,2.173,1.301,2.234,1.37l0,0
		l-0.876,0.479l0.876-0.479l0.034,0.063l0.024,0.063c1.211,3.214,4.316,5.505,7.957,5.503l0,0c4.695-0.008,8.492-3.805,8.5-8.498
		l0,0c-0.008-4.695-3.805-8.492-8.5-8.5l0,0c-3.581-0.002-6.646,2.216-7.897,5.352l0,0c-0.049,0.158-0.166,0.464-0.443,0.801l0,0
		c-0.343,0.428-1.037,0.86-1.908,0.846l0,0h-19.376c-0.8-0.002-1.36-0.448-1.654-0.79l0,0c-0.307-0.353-0.435-0.659-0.463-0.718l0,0
		l-0.022-0.053l-0.016-0.057c-1.345-4.554-5.56-7.883-10.554-7.881l0,0H67.262C61.187,42.974,56.272,47.889,56.262,53.963
		L56.262,53.963z"/>
</g>
<path fill="#F4F4F4" d="M67.292,61.681v-0.998v-1.001h23.563c3.158-0.004,5.712-2.559,5.719-5.719l0,0
	c-0.006-3.157-2.561-5.712-5.719-5.718l0,0H67.292c-3.158,0.006-5.712,2.561-5.719,5.718l0,0c0.006,3.16,2.561,5.714,5.719,5.719
	l0,0v1.001V61.681c-4.263,0-7.718-3.454-7.718-7.718l0,0c0-4.262,3.456-7.718,7.718-7.718l0,0h23.563
	c4.263,0,7.718,3.456,7.718,7.718l0,0c0,4.265-3.456,7.718-7.718,7.718l0,0H67.292L67.292,61.681z"/>
<circle fill="#F4F4F4" cx="132.793" cy="53.963" r="6.281"/>
<path fill="#F4F4F4" d="M57.98,138.129c0-29.134,23.617-52.749,52.75-52.75l0,0c29.132,0.002,52.749,23.617,52.75,52.75l0,0
	c-0.002,29.134-23.619,52.749-52.75,52.75l0,0C81.597,190.878,57.98,167.263,57.98,138.129L57.98,138.129z M74.845,102.245
	c-9.187,9.187-14.865,21.867-14.865,35.885l0,0c0,14.018,5.678,26.7,14.865,35.885l0,0c9.187,9.186,21.867,14.863,35.885,14.863l0,0
	c14.016,0,26.699-5.68,35.885-14.863l0,0c9.185-9.188,14.863-21.867,14.865-35.885l0,0c-0.002-14.018-5.68-26.699-14.865-35.885l0,0
	c-9.188-9.187-21.869-14.865-35.885-14.865l0,0C96.712,87.379,84.032,93.058,74.845,102.245L74.845,102.245z"/>
<polyline fill="#F4F4F4" points="106.824,94.504 106.824,88.254 114.699,88.254 114.699,94.504 "/>
<polyline fill="#F4F4F4" points="67.137,142.067 60.887,142.067 60.887,134.192 67.137,134.192 "/>
<polyline fill="#F4F4F4" points="114.699,181.755 114.699,188.005 106.824,188.005 106.824,181.755 "/>
<polyline fill="#F4F4F4" points="154.387,134.192 160.637,134.192 160.637,142.067 154.387,142.067 "/>
<polyline fill="#F4F4F4" points="78.434,108.939 74.014,104.521 77.108,101.426 81.527,105.846 "/>
<polyline fill="#F4F4F4" points="81.541,170.427 77.121,174.847 74.027,171.753 78.447,167.333 "/>
<polyline fill="#F4F4F4" points="143.027,167.319 147.447,171.739 144.353,174.833 139.934,170.413 "/>
<polyline fill="#F4F4F4" points="139.92,105.833 144.34,101.414 147.434,104.507 143.014,108.926 "/>
<path fill="#F4F4F4" d="M66.354,138.129c0.002-24.509,19.868-44.374,44.376-44.376l0,0c24.506,0.002,44.374,19.867,44.375,44.376
	l0,0c-0.002,24.506-19.869,44.374-44.375,44.375l0,0C86.222,182.503,66.357,162.636,66.354,138.129L66.354,138.129z M80.766,108.166
	c-7.668,7.673-12.411,18.26-12.411,29.965l0,0c0,11.705,4.742,22.292,12.411,29.962l0,0c7.673,7.67,18.26,12.41,29.965,12.41l0,0
	c11.705,0,22.292-4.74,29.962-12.41l0,0c7.671-7.671,12.411-18.258,12.413-29.962l0,0c-0.002-11.705-4.742-22.292-12.413-29.965l0,0
	c-7.671-7.668-18.258-12.411-29.962-12.411l0,0C99.026,95.754,88.438,100.497,80.766,108.166L80.766,108.166z"/>
<path fill="#F4F4F4" d="M78.356,138.128c0-17.88,14.493-32.375,32.375-32.375l0,0c17.88,0,32.375,14.495,32.375,32.375l0,0
	c0,17.881-14.495,32.375-32.375,32.375l0,0C92.849,170.503,78.356,156.01,78.356,138.128L78.356,138.128z M80.355,138.128
	c0.031,16.776,13.599,30.346,30.375,30.375l0,0c16.776-0.028,30.344-13.599,30.375-30.375l0,0
	c-0.031-16.774-13.599-30.344-30.375-30.375l0,0C93.955,107.785,80.386,121.354,80.355,138.128L80.355,138.128z"/>
<path fill="#F4F4F4" d="M91.917,138.129c0-10.39,8.422-18.812,18.812-18.812l0,0c10.39,0,18.813,8.422,18.813,18.812l0,0
	c0,10.39-8.422,18.811-18.813,18.813l0,0C100.34,156.94,91.917,148.521,91.917,138.129L91.917,138.129z M93.918,138.129
	c0.016,9.284,7.528,16.795,16.812,16.812l0,0c9.286-0.017,16.796-7.528,16.814-16.812l0,0c-0.018-9.286-7.528-16.795-16.814-16.814
	l0,0C101.446,121.334,93.934,128.843,93.918,138.129L93.918,138.129z"/>
<g>
	<circle fill="#F4F4F4" cx="91.595" cy="233.963" r="2.833"/>
	<circle fill="#F4F4F4" cx="101.303" cy="233.963" r="2.833"/>
	<circle fill="#F4F4F4" cx="111.011" cy="233.963" r="2.833"/>
	<circle fill="#F4F4F4" cx="120.72" cy="233.963" r="2.833"/>
	<circle fill="#F4F4F4" cx="130.428" cy="233.963" r="2.833"/>
</g>
<g>
	<circle fill="#F4F4F4" cx="91.595" cy="243.742" r="2.833"/>
	<circle fill="#F4F4F4" cx="101.303" cy="243.742" r="2.833"/>
	<circle fill="#F4F4F4" cx="111.011" cy="243.742" r="2.833"/>
	<circle fill="#F4F4F4" cx="120.72" cy="243.742" r="2.833"/>
	<circle fill="#F4F4F4" cx="130.428" cy="243.742" r="2.833"/>
</g>
<g>
	<circle fill="#F4F4F4" cx="91.595" cy="253.52" r="2.833"/>
	<circle fill="#F4F4F4" cx="101.303" cy="253.52" r="2.833"/>
	<circle fill="#F4F4F4" cx="111.011" cy="253.52" r="2.833"/>
	<circle fill="#F4F4F4" cx="120.72" cy="253.52" r="2.833"/>
	<circle fill="#F4F4F4" cx="130.428" cy="253.52" r="2.833"/>
</g>
<g>
	<circle fill="#F4F4F4" cx="91.595" cy="263.297" r="2.833"/>
	<circle fill="#F4F4F4" cx="101.303" cy="263.297" r="2.833"/>
	<circle fill="#F4F4F4" cx="111.011" cy="263.297" r="2.833"/>
	<circle fill="#F4F4F4" cx="120.72" cy="263.297" r="2.833"/>
	<circle fill="#F4F4F4" cx="130.428" cy="263.297" r="2.833"/>
</g>
<g>
	<circle fill="#F4F4F4" cx="462.262" cy="215.297" r="4.167"/>
	<circle fill="#F4F4F4" cx="462.262" cy="255.047" r="4.167"/>
	<circle fill="#F4F4F4" cx="462.262" cy="294.797" r="4.167"/>
</g>
<g>
	<circle fill="#F4F4F4" cx="497.595" cy="211.465" r="4.167"/>
	<circle fill="#F4F4F4" cx="497.595" cy="251.215" r="4.167"/>
	<circle fill="#F4F4F4" cx="497.595" cy="290.965" r="4.167"/>
</g>
<g>
	<circle fill="#F4F4F4" cx="532.928" cy="207.797" r="4.167"/>
	<circle fill="#F4F4F4" cx="532.928" cy="247.547" r="4.167"/>
	<circle fill="#F4F4F4" cx="532.928" cy="287.297" r="4.167"/>
</g>
<path fill="#F4F4F4" d="M449.26,156.253c0.002-12.426,10.074-22.5,22.502-22.5l0,0c12.426,0,22.498,10.074,22.5,22.5l0,0
	c-0.002,12.425-10.074,22.5-22.5,22.5l0,0C459.334,178.753,449.262,168.681,449.26,156.253L449.26,156.253z M451.262,156.253
	c0.021,11.324,9.179,20.48,20.5,20.5l0,0c11.321-0.02,20.479-9.176,20.498-20.5l0,0c-0.019-11.32-9.177-20.479-20.498-20.5l0,0
	C460.439,135.775,451.281,144.934,451.262,156.253L451.262,156.253z"/>
<path fill="#F4F4F4" d="M504.135,118.378c0.002-12.426,10.074-22.499,22.501-22.499l0,0c12.427,0,22.499,10.072,22.501,22.499l0,0
	c-0.002,12.427-10.074,22.499-22.501,22.501l0,0C514.209,140.877,504.137,130.806,504.135,118.378L504.135,118.378z
	 M506.135,118.378c0.021,11.323,9.18,20.479,20.501,20.5l0,0c11.322-0.021,20.479-9.178,20.501-20.5l0,0
	c-0.021-11.32-9.179-20.479-20.501-20.498l0,0C515.313,97.899,506.156,107.059,506.135,118.378L506.135,118.378z"/>
<path fill="#F4F4F4" d="M514.636,52.879c0-8.492,6.886-15.374,15.376-15.376l0,0c8.49,0.002,15.374,6.884,15.374,15.376l0,0
	c0,8.492-6.884,15.374-15.374,15.376l0,0C521.52,68.253,514.636,61.372,514.636,52.879L514.636,52.879z M516.636,52.879
	c0.013,7.386,5.988,13.362,13.376,13.375l0,0c7.387-0.013,13.361-5.988,13.374-13.375l0,0c-0.013-7.386-5.987-13.361-13.374-13.374
	l0,0C522.624,39.519,516.648,45.494,516.636,52.879L516.636,52.879z"/>
<path fill="#F4F4F4" d="M519.886,52.88c0-5.593,4.535-10.125,10.125-10.125l0,0c5.591,0,10.125,4.532,10.125,10.125l0,0
	c0,5.591-4.534,10.123-10.125,10.123l0,0C524.421,63.003,519.886,58.471,519.886,52.88L519.886,52.88z M521.885,52.88
	c0.01,4.486,3.639,8.116,8.126,8.125l0,0c4.486-0.008,8.116-3.639,8.125-8.125l0,0c-0.009-4.488-3.639-8.118-8.125-8.126l0,0
	C525.523,44.762,521.895,48.393,521.885,52.88L521.885,52.88z"/>
</svg>
