<?xml version="1.0" encoding="utf-8"?>
<!-- Generator: Adobe Illustrator 13.0.0, SVG Export Plug-In . SVG Version: 6.00 Build 14948)  -->
<!DOCTYPE svg [
	<!ENTITY ns_flows "http://ns.adobe.com/Flows/1.0/">
	<!ENTITY ns_extend "http://ns.adobe.com/Extensibility/1.0/">
	<!ENTITY ns_ai "http://ns.adobe.com/AdobeIllustrator/10.0/">
	<!ENTITY ns_graphs "http://ns.adobe.com/Graphs/1.0/">
	<!ENTITY ns_vars "http://ns.adobe.com/Variables/1.0/">
	<!ENTITY ns_imrep "http://ns.adobe.com/ImageReplacement/1.0/">
	<!ENTITY ns_sfw "http://ns.adobe.com/SaveForWeb/1.0/">
	<!ENTITY ns_custom "http://ns.adobe.com/GenericCustomNamespace/1.0/">
	<!ENTITY ns_adobe_xpath "http://ns.adobe.com/XPath/1.0/">
]>
<svg version="1.2" baseProfile="tiny"
	 id="Layer_3" xmlns:x="&ns_extend;" xmlns:i="&ns_ai;" xmlns:graph="&ns_graphs;" xmlns:rdf="http://www.w3.org/1999/02/22-rdf-syntax-ns#" xmlns:dc="http://purl.org/dc/elements/1.1/" xmlns:cc="http://creativecommons.org/ns#"
	 xmlns="http://www.w3.org/2000/svg" xmlns:xlink="http://www.w3.org/1999/xlink" xmlns:a="http://ns.adobe.com/AdobeSVGViewerExtensions/3.0/"
	 x="0px" y="0px" width="598.189px" height="350.26px" viewBox="0 0 598.189 350.26" xml:space="preserve">
<metadata  id="metadata55">
	<rdf:RDF>
		<cc:Work  rdf:about="">
			<dc:format>image/svg+xml</dc:format>
			<dc:type  rdf:resource="http://purl.org/dc/dcmitype/StillImage"></dc:type>
			<dc:title></dc:title>
		</cc:Work>
	</rdf:RDF>
	<sfw  xmlns="&ns_sfw;">
		<slices></slices>
		<sliceSourceBounds  x="-7231" y="-7652" width="16383" height="16383" bottomLeftOrigin="true"></sliceSourceBounds>
	</sfw>
</metadata>
<path id="path3" fill="#F4F4F4" d="M180.012,7.94c-4.947,0-8.98,4.033-8.98,8.98v315.1c0,4.947,4.033,8.955,8.98,8.955H418.47
	c4.947,0,8.98-4.008,8.98-8.955v-0.796V16.92c0-4.946-4.029-8.979-8.98-8.979L180.012,7.94L180.012,7.94z M180.012,9.532H418.47
	c4.087,0,7.388,3.301,7.388,7.388v315.1c0,4.086-3.302,7.363-7.388,7.363H180.012c-4.085,0.008-7.387-3.273-7.387-7.363V16.92
	C172.625,12.834,175.927,9.532,180.012,9.532L180.012,9.532z"/>
<path id="path5" fill="#F4F4F4" d="M215.087,33.338c-8.276,0-15,6.725-15,15v52.14v0.796h0.796h68.383h0.796v-0.796V34.134v-0.796
	h-0.796H215.087z M215.087,34.93h53.383v64.752h-66.791V48.338C201.679,40.923,207.672,34.93,215.087,34.93z"/>
<path id="path7" fill="#F4F4F4" d="M271.482,33.338v0.796v68.235h-70.374h-0.796v0.796v195.695c0,8.276,6.725,15,15,15h167.866
	c8.277,0,15.001-6.725,15.001-15V48.334c0-8.276-6.724-15-15.001-15H272.285h-0.796L271.482,33.338z M273.074,34.93h110.099
	c7.417,0,13.408,5.992,13.408,13.408v250.525c0,7.415-5.991,13.409-13.408,13.409H215.307c-7.415,0-13.408-5.994-13.408-13.409
	V103.964h70.374h0.796v-0.796V34.934L273.074,34.93z"/>
<path id="path9" fill="#F4F4F4" d="M219.391,106.122c-5.424,0.002-9.826,4.403-9.826,9.826v117.741
	c0.001,5.422,4.402,9.825,9.826,9.825h159.698c5.422,0,9.825-4.402,9.826-9.825V115.948c-0.001-5.423-4.404-9.825-9.826-9.826
	H219.391z M219.391,107.714h159.698c4.554,0.001,8.221,3.682,8.234,8.234c0,0.009,0,0.016,0,0.025v117.716
	c-0.001,4.563-3.673,8.234-8.234,8.234H219.391c-4.564,0-8.232-3.671-8.234-8.234V115.973v-0.025
	C211.171,111.396,214.835,107.715,219.391,107.714z M219.391,109.58c-3.519,0.006-6.387,2.849-6.394,6.368v117.741
	c0.008,3.518,2.875,6.386,6.394,6.392h159.698c3.518-0.006,6.386-2.874,6.394-6.392V115.948c-0.008-3.52-2.875-6.362-6.394-6.368
	H219.391L219.391,109.58z M219.391,111.172h159.698c2.652,0.004,4.783,2.125,4.802,4.776c0,0.009,0,0.016,0,0.025v117.716
	c-0.007,2.662-2.141,4.796-4.802,4.802H219.391c-2.662-0.007-4.796-2.14-4.801-4.802V115.973c0-0.009,0-0.017,0-0.025
	C214.607,113.297,216.737,111.176,219.391,111.172z"/>
<path id="path11" fill="#F4F4F4" d="M299.24,125.68c-2.409,0-4.81,0.928-6.643,2.761l-4.303,4.279
	c-2.78,2.908-4.33,3.781-9.278,3.781h-5.921c-5.185,0-9.402,4.218-9.402,9.402v5.597c0,2.452-0.125,3.951-0.572,5.199
	c-0.447,1.247-1.245,2.344-2.811,4.005l-4.697,4.696c-3.667,3.666-3.667,9.643,0,13.309l4.502,4.502h0.025v0.025
	c1.443,1.275,2.284,2.27,2.811,3.731c0.527,1.461,0.747,3.469,0.747,6.716v4.528c0,5.185,4.219,9.402,9.403,9.402h5.597
	c5.245,0,6.943,1.182,9.577,3.731l4.328,4.329c3.667,3.666,9.617,3.666,13.284,0l4.079-4.055c1.686-1.696,2.721-2.675,3.932-3.234
	c1.209-0.562,2.713-0.771,5.473-0.771h6.02c5.186,0,9.403-4.218,9.403-9.402v-5.498c0-3.162,0.4-5.07,1.169-6.567
	c0.767-1.497,1.959-2.653,3.731-4.254l0.024-0.024l3.159-3.159c3.667-3.666,3.667-9.643,0-13.309l-3.433-3.434l-0.024-0.024
	c-1.69-1.464-2.814-2.523-3.532-3.98c-0.721-1.455-1.095-3.39-1.095-6.667v-5.397c0-5.186-4.22-9.402-9.403-9.402h-6.02
	c-2.729,0-4.357-0.36-5.697-1.045c-1.34-0.686-2.447-1.744-4.029-3.284l-3.757-3.731c-1.833-1.833-4.233-2.761-6.642-2.761
	L299.24,125.68z M299.24,127.272c1.997,0,3.993,0.759,5.522,2.289l3.756,3.731v0.025c1.582,1.539,2.814,2.731,4.428,3.557
	c1.614,0.826,3.549,1.219,6.418,1.219h6.02c4.324,0,7.812,3.486,7.812,7.811v5.398c0,3.396,0.396,5.596,1.269,7.363
	c0.865,1.751,2.165,2.985,3.855,4.452c0.015,0.013,0.035,0.012,0.05,0.025l3.384,3.383c3.058,3.057,3.058,8.011,0,11.069
	l-3.135,3.109l-0.025,0.025c-1.775,1.604-3.14,2.917-4.055,4.7c-0.919,1.794-1.343,3.996-1.343,7.289v5.497
	c0,4.325-3.485,7.812-7.811,7.812h-6.021c-2.838,0-4.613,0.211-6.144,0.92s-2.686,1.854-4.378,3.558l-4.068,4.044
	c-3.059,3.059-7.986,3.059-11.045,0l-4.329-4.328h-0.025v-0.025c-2.725-2.638-5.154-4.179-10.671-4.179h-5.597
	c-4.324,0-7.811-3.486-7.811-7.812v-4.527c0-3.315-0.21-5.501-0.846-7.264c-0.632-1.751-1.697-3.013-3.208-4.354l-0.025-0.024
	l-4.478-4.453c-3.058-3.057-3.058-8.012,0-11.069l4.727-4.701l0.025-0.025c1.619-1.717,2.605-3.007,3.159-4.552
	s0.647-3.25,0.647-5.746v-5.597c0-4.325,3.486-7.811,7.811-7.811h5.92c5.169,0,7.52-1.217,10.423-4.254l4.278-4.279
	c1.529-1.53,3.525-2.289,5.523-2.289L299.24,127.272z"/>
<path id="path13" fill="#F4F4F4" d="M299.24,130.704c-2.166,0-4.323,0.814-5.971,2.463l-3.831,3.831
	c-2.468,2.58-3.817,3.333-8.208,3.333h-5.249c-4.661,0-8.458,3.796-8.458,8.458v4.975c0,2.181-0.105,3.509-0.498,4.603
	c-0.392,1.094-1.096,2.058-2.487,3.532l-4.179,4.179c-3.296,3.296-3.296,8.67,0,11.965l4.005,4.005v0.025h0.025
	c1.28,1.132,2,1.999,2.463,3.283c0.463,1.284,0.671,3.059,0.671,5.945v4.03c0,4.662,3.796,8.458,8.458,8.458h4.975
	c4.653,0,6.121,1.046,8.458,3.309l3.856,3.855c3.295,3.298,8.644,3.298,11.939,0l3.633-3.632c1.498-1.509,2.398-2.37,3.457-2.86
	c1.059-0.491,2.4-0.672,4.852-0.672h5.373c4.661,0,8.433-3.796,8.433-8.458v-4.876c0-2.808,0.345-4.48,1.021-5.796
	c0.674-1.315,1.731-2.357,3.308-3.781l0.025-0.024l2.811-2.812c3.295-3.296,3.295-8.669,0-11.965l-3.034-3.034l-0.025-0.025
	l-0.024-0.024c-1.502-1.303-2.479-2.229-3.11-3.508c-0.631-1.278-0.97-2.986-0.97-5.895v-4.801c0-4.661-3.771-8.458-8.433-8.458
	h-5.373c-2.42,0-3.849-0.319-5.025-0.92c-1.174-0.601-2.158-1.549-3.557-2.911h-0.025l-3.309-3.333h-0.025
	C303.563,131.518,301.405,130.704,299.24,130.704L299.24,130.704z M299.24,132.271c1.755,0,3.506,0.67,4.851,2.015l3.334,3.358
	h0.024c1.407,1.369,2.503,2.441,3.955,3.183c1.45,0.743,3.187,1.096,5.747,1.095h5.373c3.799,0,6.841,3.066,6.841,6.866v4.801
	c0,3.027,0.334,5.002,1.118,6.592c0.781,1.579,1.972,2.669,3.482,3.98c0.011,0.009,0.016,0.017,0.025,0.024l3.017,3.01
	c2.687,2.687,2.687,7.038,0,9.727l-2.786,2.762c-1.594,1.44-2.829,2.616-3.656,4.229c-0.827,1.613-1.194,3.604-1.194,6.542v4.876
	c0,3.802-3.04,6.865-6.841,6.865h-5.373c-2.529,0-4.119,0.183-5.498,0.821s-2.422,1.667-3.93,3.185l-3.633,3.632
	c-2.688,2.689-7.014,2.688-9.701,0l-3.856-3.881h-0.025c-2.428-2.35-4.627-3.757-9.552-3.757h-4.975
	c-3.801,0-6.865-3.063-6.865-6.865v-4.03c0-2.954-0.2-4.906-0.771-6.492c-0.565-1.567-1.52-2.689-2.86-3.88l-0.025-0.025
	l-3.98-3.979c-2.688-2.688-2.688-7.039,0-9.728l4.204-4.179v-0.024c1.444-1.531,2.337-2.689,2.836-4.08
	c0.498-1.392,0.597-2.925,0.597-5.149v-4.975c0-3.8,3.064-6.866,6.865-6.866h5.249c4.604,0,6.744-1.133,9.329-3.831h0.025
	l3.806-3.805c1.344-1.344,3.096-2.016,4.851-2.015H299.24z"/>
<path id="circle15" fill="#F4F4F4" d="M299.24,149.012c-12.714,0-23.036,10.346-23.036,23.06s10.321,23.036,23.036,23.036
	c12.713,0,23.035-10.321,23.035-23.036C322.275,159.358,311.953,149.012,299.24,149.012z M299.24,150.604
	c11.852,0,21.442,9.614,21.442,21.468s-9.589,21.444-21.442,21.444c-11.853,0-21.443-9.59-21.443-21.444
	C277.797,160.219,287.386,150.604,299.24,150.604z"/>
<path id="circle17" fill="#F4F4F4" d="M299.24,156.772c-8.434,0-15.299,6.865-15.299,15.299c0,8.435,6.864,15.275,15.299,15.275
	c8.433,0,15.299-6.841,15.299-15.275C314.539,163.638,307.675,156.772,299.24,156.772z M299.24,158.365
	c7.573,0,13.706,6.133,13.706,13.706c0,7.574-6.133,13.683-13.706,13.683c-7.574,0-13.707-6.108-13.707-13.683
	C285.533,164.498,291.666,158.365,299.24,158.365z"/>
<path id="path19" fill="#F4F4F4" d="M272.573,40.005c-0.44,0.02-0.781,0.391-0.761,0.831s0.392,0.78,0.832,0.761
	c0.001,0,0.002,0,0.004,0h108.809c4.325,0,7.812,3.486,7.812,7.811v248.383c0,4.324-3.486,7.812-7.812,7.812H217.029
	c-4.325,0-7.812-3.488-7.812-7.812v-194.58c0.006-0.44-0.345-0.802-0.785-0.808c-0.439-0.006-0.801,0.345-0.807,0.785
	c0,0.008,0,0.015,0,0.023v194.58c0,5.184,4.218,9.403,9.403,9.403h164.426c5.186,0,9.403-4.22,9.403-9.403V49.408
	c0-5.185-4.218-9.403-9.403-9.403H272.647C272.623,40.004,272.598,40.004,272.573,40.005L272.573,40.005z"/>
<path id="path21" fill="#F4F4F4" d="M217.027,40.005c-5.185,0-9.403,4.218-9.403,9.403v51.095c-0.006,0.44,0.345,0.801,0.785,0.807
	c0.439,0.006,0.801-0.345,0.807-0.785c0-0.007,0-0.015,0-0.022V49.408c0-4.325,3.487-7.811,7.811-7.811h52.14
	c0.439,0.006,0.801-0.345,0.807-0.785c0.006-0.439-0.345-0.801-0.785-0.807c-0.007,0-0.015,0-0.022,0L217.027,40.005L217.027,40.005
	z"/>
</svg>
