<?xml version="1.0" encoding="utf-8"?>
<!-- Generator: Adobe Illustrator 13.0.0, SVG Export Plug-In . SVG Version: 6.00 Build 14948)  -->
<!DOCTYPE svg [
	<!ENTITY ns_flows "http://ns.adobe.com/Flows/1.0/">
	<!ENTITY ns_extend "http://ns.adobe.com/Extensibility/1.0/">
	<!ENTITY ns_ai "http://ns.adobe.com/AdobeIllustrator/10.0/">
	<!ENTITY ns_graphs "http://ns.adobe.com/Graphs/1.0/">
	<!ENTITY ns_vars "http://ns.adobe.com/Variables/1.0/">
	<!ENTITY ns_imrep "http://ns.adobe.com/ImageReplacement/1.0/">
	<!ENTITY ns_sfw "http://ns.adobe.com/SaveForWeb/1.0/">
	<!ENTITY ns_custom "http://ns.adobe.com/GenericCustomNamespace/1.0/">
	<!ENTITY ns_adobe_xpath "http://ns.adobe.com/XPath/1.0/">
]>
<svg version="1.2" baseProfile="tiny"
	 id="Layer_3" xmlns:x="&ns_extend;" xmlns:i="&ns_ai;" xmlns:graph="&ns_graphs;" xmlns:rdf="http://www.w3.org/1999/02/22-rdf-syntax-ns#" xmlns:dc="http://purl.org/dc/elements/1.1/" xmlns:cc="http://creativecommons.org/ns#"
	 xmlns="http://www.w3.org/2000/svg" xmlns:xlink="http://www.w3.org/1999/xlink" xmlns:a="http://ns.adobe.com/AdobeSVGViewerExtensions/3.0/"
	 x="0px" y="0px" width="598.189px" height="350.26px" viewBox="0 0 598.189 350.26" xml:space="preserve">
<metadata  id="metadata55">
	<rdf:RDF>
		<cc:Work  rdf:about="">
			<dc:format>image/svg+xml</dc:format>
			<dc:type  rdf:resource="http://purl.org/dc/dcmitype/StillImage"></dc:type>
			<dc:title></dc:title>
		</cc:Work>
	</rdf:RDF>
	<sfw  xmlns="&ns_sfw;">
		<slices></slices>
		<sliceSourceBounds  x="-7231" y="-7652" width="16383" height="16383" bottomLeftOrigin="true"></sliceSourceBounds>
	</sfw>
</metadata>
<path id="circle3" fill="#F4F4F4" d="M122.456,80.856c-39.209,0-71.001,31.792-71.001,71.001s31.792,71.031,71.001,71.031
	c39.208,0,71.031-31.822,71.031-71.031S161.664,80.856,122.456,80.856z M122.456,82.747c38.187,0,69.14,30.923,69.14,69.11
	c0,38.187-30.953,69.14-69.14,69.14c-38.187,0-69.11-30.953-69.11-69.14C53.345,113.67,84.269,82.747,122.456,82.747z"/>
<path id="circle5" fill="#F4F4F4" d="M122.456,96.279c-30.683,0-55.548,24.896-55.548,55.578s24.866,55.578,55.548,55.578
	s55.578-24.896,55.578-55.578S153.138,96.279,122.456,96.279z M122.456,98.17c29.66,0,53.687,24.026,53.687,53.687
	c0,29.66-24.026,53.687-53.687,53.687c-29.661,0-53.657-24.026-53.657-53.687C68.798,122.197,92.795,98.17,122.456,98.17z"/>
<path id="circle7" fill="#F4F4F4" d="M122.456,138.738c-7.234,0-13.119,5.885-13.119,13.119s5.885,13.119,13.119,13.119
	s13.119-5.884,13.119-13.119S129.69,138.738,122.456,138.738z M122.456,140.629c6.212,0,11.228,5.016,11.228,11.228
	c0,6.212-5.016,11.228-11.228,11.228c-6.212,0-11.228-5.016-11.228-11.228C111.228,145.645,116.243,140.629,122.456,140.629z"/>
<path id="circle9" fill="#F4F4F4" d="M499.119,93.532c-2.552,0-4.639,2.087-4.639,4.639s2.087,4.639,4.639,4.639
	c2.553,0,4.64-2.087,4.64-4.639S501.672,93.532,499.119,93.532z M499.119,95.423c1.529,0,2.748,1.218,2.748,2.748
	s-1.219,2.748-2.748,2.748c-1.53,0-2.747-1.218-2.747-2.748S497.589,95.423,499.119,95.423z"/>
<path id="circle11" fill="#F4F4F4" d="M513.656,84.579c-2.552,0-4.668,2.087-4.668,4.639s2.116,4.639,4.668,4.639
	c2.553,0,4.64-2.087,4.64-4.639S516.209,84.579,513.656,84.579z M513.656,86.47c1.529,0,2.748,1.218,2.748,2.748
	s-1.219,2.748-2.748,2.748c-1.53,0-2.777-1.218-2.777-2.748S512.126,86.47,513.656,86.47z"/>
<path id="circle13" fill="#F4F4F4" d="M533.275,96.22c-2.552,0-4.639,2.087-4.639,4.639s2.087,4.639,4.639,4.639
	c2.553,0,4.64-2.087,4.64-4.639S535.828,96.22,533.275,96.22z M533.275,98.111c1.529,0,2.748,1.218,2.748,2.748
	c0,1.53-1.219,2.748-2.748,2.748c-1.53,0-2.747-1.218-2.747-2.748C530.528,99.329,531.745,98.111,533.275,98.111z"/>
<path id="circle15" fill="#F4F4F4" d="M549.763,111.969c-2.552,0-4.639,2.087-4.639,4.639c0,2.551,2.087,4.639,4.639,4.639
	c2.553,0,4.639-2.087,4.639-4.639C554.401,114.056,552.315,111.969,549.763,111.969z M549.763,113.86
	c1.529,0,2.748,1.218,2.748,2.748c0,1.53-1.219,2.748-2.748,2.748c-1.531,0-2.748-1.218-2.748-2.748
	C547.015,115.078,548.231,113.86,549.763,113.86z"/>
<path id="circle17" fill="#F4F4F4" d="M562.32,131.027c-2.552,0-4.639,2.117-4.639,4.668c0,2.551,2.087,4.639,4.639,4.639
	s4.639-2.087,4.639-4.639C566.959,133.144,564.872,131.027,562.32,131.027z M562.32,132.917c1.529,0,2.748,1.248,2.748,2.778
	c0,1.53-1.219,2.748-2.748,2.748c-1.531,0-2.748-1.218-2.748-2.748C559.572,134.165,560.789,132.917,562.32,132.917z"/>
<path id="circle19" fill="#F4F4F4" d="M570.239,152.448c-2.553,0-4.64,2.087-4.64,4.639s2.087,4.639,4.64,4.639
	c2.552,0,4.639-2.087,4.639-4.639S572.791,152.448,570.239,152.448z M570.239,154.339c1.528,0,2.747,1.218,2.747,2.748
	c0,1.53-1.219,2.748-2.747,2.748c-1.531,0-2.748-1.218-2.748-2.748C567.491,155.557,568.708,154.339,570.239,154.339z"/>
<path id="circle21" fill="#F4F4F4" d="M573.135,175.081c-2.553,0-4.64,2.088-4.64,4.639s2.087,4.64,4.64,4.64
	c2.552,0,4.639-2.089,4.639-4.64S575.687,175.081,573.135,175.081z M573.135,176.972c1.528,0,2.747,1.219,2.747,2.748
	c0,1.53-1.219,2.748-2.747,2.748c-1.531,0-2.748-1.218-2.748-2.748C570.387,178.19,571.604,176.972,573.135,176.972z"/>
<path id="circle23" fill="#F4F4F4" d="M570.889,197.773c-2.552,0-4.639,2.087-4.639,4.639c0,2.551,2.087,4.64,4.639,4.64
	c2.553,0,4.639-2.089,4.639-4.64C575.527,199.86,573.441,197.773,570.889,197.773z M570.889,199.665
	c1.529,0,2.748,1.217,2.748,2.747c0,1.529-1.219,2.748-2.748,2.748c-1.53,0-2.748-1.219-2.748-2.748
	C568.141,200.882,569.358,199.665,570.889,199.665z"/>
<path id="circle25" fill="#F4F4F4" d="M563.562,219.402c-2.553,0-4.639,2.086-4.639,4.639c0,2.55,2.086,4.639,4.639,4.639
	c2.552,0,4.639-2.089,4.639-4.639C568.2,221.488,566.113,219.402,563.562,219.402z M563.562,221.293
	c1.529,0,2.748,1.217,2.748,2.748c0,1.528-1.219,2.748-2.748,2.748c-1.531,0-2.748-1.22-2.748-2.748
	C560.813,222.51,562.03,221.293,563.562,221.293z"/>
<path id="circle27" fill="#F4F4F4" d="M551.595,238.814c-2.552,0-4.639,2.087-4.639,4.639c0,2.55,2.087,4.639,4.639,4.639
	s4.639-2.089,4.639-4.639C556.233,240.901,554.146,238.814,551.595,238.814z M551.595,240.705c1.529,0,2.748,1.217,2.748,2.748
	c0,1.529-1.219,2.748-2.748,2.748c-1.531,0-2.748-1.219-2.748-2.748C548.847,241.922,550.063,240.705,551.595,240.705z"/>
<path id="circle29" fill="#F4F4F4" d="M535.551,255.035c-2.552,0-4.639,2.087-4.639,4.64c0,2.55,2.087,4.639,4.639,4.639
	s4.639-2.089,4.639-4.639C540.189,257.122,538.103,255.035,535.551,255.035z M535.551,256.927c1.529,0,2.748,1.217,2.748,2.748
	c0,1.528-1.219,2.747-2.748,2.747c-1.531,0-2.748-1.219-2.748-2.747C532.803,258.144,534.02,256.927,535.551,256.927z"/>
<path id="circle31" fill="#F4F4F4" d="M516.257,267.238c-2.553,0-4.639,2.087-4.639,4.639c0,2.551,2.086,4.64,4.639,4.64
	c2.552,0,4.639-2.089,4.639-4.64C520.896,269.325,518.809,267.238,516.257,267.238z M516.257,269.129
	c1.529,0,2.748,1.218,2.748,2.748c0,1.529-1.219,2.748-2.748,2.748c-1.531,0-2.748-1.219-2.748-2.748
	C513.509,270.347,514.726,269.129,516.257,269.129z"/>
<path id="circle33" fill="#F4F4F4" d="M517.113,101.687c-2.552,0-4.639,2.087-4.639,4.639c0,2.552,2.087,4.639,4.639,4.639
	c2.553,0,4.639-2.087,4.639-4.639C521.752,103.774,519.666,101.687,517.113,101.687z M517.113,103.578
	c1.529,0,2.748,1.218,2.748,2.748c0,1.53-1.219,2.748-2.748,2.748c-1.53,0-2.748-1.218-2.748-2.748
	C514.365,104.795,515.583,103.578,517.113,103.578z"/>
<path id="circle35" fill="#F4F4F4" d="M532.803,113.683c-2.552,0-4.639,2.087-4.639,4.639c0,2.552,2.087,4.639,4.639,4.639
	s4.639-2.087,4.639-4.639C537.441,115.77,535.354,113.683,532.803,113.683z M532.803,115.574c1.529,0,2.748,1.218,2.748,2.748
	c0,1.53-1.219,2.748-2.748,2.748c-1.53,0-2.748-1.218-2.748-2.748C530.055,116.792,531.272,115.574,532.803,115.574z"/>
<path id="circle37" fill="#F4F4F4" d="M545.39,128.87c-2.552,0-4.639,2.087-4.639,4.639c0,2.551,2.087,4.639,4.639,4.639
	c2.553,0,4.639-2.087,4.639-4.639C550.028,130.957,547.942,128.87,545.39,128.87z M545.39,130.761c1.529,0,2.748,1.218,2.748,2.748
	c0,1.53-1.219,2.748-2.748,2.748c-1.53,0-2.748-1.218-2.748-2.748C542.642,131.979,543.859,130.761,545.39,130.761z"/>
<path id="circle39" fill="#F4F4F4" d="M554.225,146.539c-2.552,0-4.639,2.087-4.639,4.639s2.087,4.639,4.639,4.639
	s4.639-2.087,4.639-4.639S556.776,146.539,554.225,146.539z M554.225,148.43c1.528,0,2.748,1.218,2.748,2.748
	c0,1.53-1.22,2.748-2.748,2.748c-1.531,0-2.748-1.218-2.748-2.748C551.477,149.647,552.693,148.43,554.225,148.43z"/>
<path id="circle41" fill="#F4F4F4" d="M558.863,165.715c-2.552,0-4.639,2.087-4.639,4.639s2.087,4.639,4.639,4.639
	s4.639-2.087,4.639-4.639S561.415,165.715,558.863,165.715z M558.863,167.605c1.529,0,2.748,1.218,2.748,2.748
	c0,1.53-1.219,2.748-2.748,2.748c-1.531,0-2.748-1.218-2.748-2.748C556.115,168.824,557.332,167.605,558.863,167.605z"/>
<path id="circle43" fill="#F4F4F4" d="M559.1,185.452c-2.552,0-4.639,2.087-4.639,4.639c0,2.551,2.087,4.64,4.639,4.64
	s4.639-2.089,4.639-4.64C563.738,187.539,561.651,185.452,559.1,185.452z M559.1,187.344c1.529,0,2.748,1.217,2.748,2.747
	c0,1.529-1.219,2.748-2.748,2.748c-1.531,0-2.748-1.219-2.748-2.748C556.352,188.561,557.568,187.344,559.1,187.344z"/>
<path id="circle45" fill="#F4F4F4" d="M554.845,204.717c-2.552,0-4.639,2.087-4.639,4.64c0,2.55,2.087,4.668,4.639,4.668
	c2.553,0,4.639-2.118,4.639-4.668C559.483,206.804,557.397,204.717,554.845,204.717z M554.845,206.608
	c1.529,0,2.748,1.217,2.748,2.748c0,1.528-1.219,2.777-2.748,2.777c-1.531,0-2.748-1.249-2.748-2.777
	C552.097,207.825,553.313,206.608,554.845,206.608z"/>
<path id="circle47" fill="#F4F4F4" d="M546.395,222.563c-2.552,0-4.639,2.087-4.639,4.639c0,2.551,2.087,4.639,4.639,4.639
	s4.639-2.088,4.639-4.639C551.033,224.65,548.946,222.563,546.395,222.563z M546.395,224.454c1.529,0,2.748,1.218,2.748,2.748
	c0,1.529-1.219,2.748-2.748,2.748c-1.531,0-2.748-1.219-2.748-2.748C543.646,225.672,544.863,224.454,546.395,224.454z"/>
<path id="circle49" fill="#F4F4F4" d="M534.133,238.046c-2.553,0-4.64,2.087-4.64,4.639c0,2.551,2.087,4.64,4.64,4.64
	c2.552,0,4.639-2.089,4.639-4.64C538.771,240.133,536.685,238.046,534.133,238.046z M534.133,239.937
	c1.528,0,2.747,1.218,2.747,2.748c0,1.529-1.219,2.748-2.747,2.748c-1.531,0-2.748-1.219-2.748-2.748
	C531.385,241.154,532.602,239.937,534.133,239.937z"/>
<path id="circle51" fill="#F4F4F4" d="M518.709,250.367c-2.552,0-4.639,2.087-4.639,4.639c0,2.551,2.087,4.639,4.639,4.639
	s4.639-2.088,4.639-4.639C523.348,252.454,521.261,250.367,518.709,250.367z M518.709,252.258c1.529,0,2.748,1.217,2.748,2.748
	c0,1.529-1.219,2.748-2.748,2.748c-1.531,0-2.748-1.219-2.748-2.748C515.961,253.475,517.178,252.258,518.709,252.258z"/>
<path id="circle53" fill="#F4F4F4" d="M500.922,258.906c-2.552,0-4.639,2.087-4.639,4.639c0,2.551,2.087,4.639,4.639,4.639
	s4.639-2.088,4.639-4.639C505.561,260.993,503.474,258.906,500.922,258.906z M500.922,260.797c1.529,0,2.748,1.217,2.748,2.748
	c0,1.529-1.219,2.748-2.748,2.748c-1.531,0-2.748-1.219-2.748-2.748C498.174,262.014,499.391,260.797,500.922,260.797z"/>
<path id="circle55" fill="#F4F4F4" d="M96.897,63.837c-2.552,0-4.639,2.117-4.639,4.668s2.087,4.639,4.639,4.639
	s4.639-2.087,4.639-4.639S99.449,63.837,96.897,63.837z M96.897,65.728c1.53,0,2.748,1.248,2.748,2.777s-1.218,2.748-2.748,2.748
	c-1.53,0-2.748-1.218-2.748-2.748S95.367,65.728,96.897,65.728z"/>
<path id="circle57" fill="#F4F4F4" d="M82.36,54.884c-2.552,0-4.639,2.087-4.639,4.639c0,2.552,2.087,4.639,4.639,4.639
	s4.639-2.087,4.639-4.639C86.999,56.972,84.912,54.884,82.36,54.884z M82.36,56.775c1.53,0,2.748,1.218,2.748,2.748
	c0,1.53-1.218,2.748-2.748,2.748c-1.53,0-2.748-1.218-2.748-2.748C79.612,57.993,80.83,56.775,82.36,56.775z"/>
<path id="circle59" fill="#F4F4F4" d="M62.741,66.526c-2.552,0-4.639,2.087-4.639,4.639s2.087,4.639,4.639,4.639
	s4.639-2.087,4.639-4.639S65.293,66.526,62.741,66.526z M62.741,68.417c1.53,0,2.748,1.218,2.748,2.748s-1.218,2.748-2.748,2.748
	c-1.53,0-2.748-1.218-2.748-2.748S61.211,68.417,62.741,68.417z"/>
<path id="circle61" fill="#F4F4F4" d="M46.254,82.274c-2.552,0-4.639,2.087-4.639,4.639s2.087,4.639,4.639,4.639
	s4.639-2.087,4.639-4.639S48.806,82.274,46.254,82.274z M46.254,84.165c1.53,0,2.748,1.218,2.748,2.748s-1.218,2.748-2.748,2.748
	s-2.748-1.218-2.748-2.748S44.724,84.165,46.254,84.165z"/>
<path id="circle63" fill="#F4F4F4" d="M33.696,101.361c-2.552,0-4.639,2.087-4.639,4.639s2.087,4.639,4.639,4.639
	s4.639-2.087,4.639-4.639S36.248,101.361,33.696,101.361z M33.696,103.252c1.53,0,2.748,1.218,2.748,2.748s-1.218,2.748-2.748,2.748
	c-1.53,0-2.748-1.218-2.748-2.748S32.167,103.252,33.696,103.252z"/>
<path id="circle65" fill="#F4F4F4" d="M25.778,122.753c-2.552,0-4.639,2.087-4.639,4.639c0,2.551,2.087,4.639,4.639,4.639
	s4.639-2.087,4.639-4.639C30.417,124.841,28.33,122.753,25.778,122.753z M25.778,124.645c1.53,0,2.748,1.218,2.748,2.748
	c0,1.53-1.218,2.748-2.748,2.748s-2.748-1.218-2.748-2.748C23.03,125.862,24.248,124.645,25.778,124.645z"/>
<path id="circle67" fill="#F4F4F4" d="M22.882,145.386c-2.552,0-4.639,2.087-4.639,4.639s2.087,4.639,4.639,4.639
	s4.639-2.087,4.639-4.639S25.434,145.386,22.882,145.386z M22.882,147.277c1.53,0,2.748,1.218,2.748,2.748
	c0,1.53-1.218,2.748-2.748,2.748s-2.748-1.218-2.748-2.748C20.134,148.495,21.353,147.277,22.882,147.277z"/>
<path id="circle69" fill="#F4F4F4" d="M25.128,168.079c-2.552,0-4.639,2.087-4.639,4.639c0,2.551,2.087,4.639,4.639,4.639
	s4.639-2.088,4.639-4.639C29.767,170.166,27.68,168.079,25.128,168.079z M25.128,169.97c1.53,0,2.748,1.218,2.748,2.748
	c0,1.529-1.218,2.748-2.748,2.748c-1.53,0-2.748-1.219-2.748-2.748C22.38,171.188,23.598,169.97,25.128,169.97z"/>
<path id="circle71" fill="#F4F4F4" d="M32.456,189.707c-2.552,0-4.668,2.087-4.668,4.639c0,2.551,2.117,4.64,4.668,4.64
	s4.639-2.089,4.639-4.64C37.094,191.794,35.007,189.707,32.456,189.707z M32.456,191.599c1.53,0,2.748,1.217,2.748,2.747
	c0,1.529-1.218,2.748-2.748,2.748s-2.777-1.219-2.777-2.748C29.678,192.815,30.926,191.599,32.456,191.599z"/>
<path id="circle73" fill="#F4F4F4" d="M44.422,209.119c-2.552,0-4.639,2.087-4.639,4.64c0,2.55,2.087,4.639,4.639,4.639
	s4.639-2.089,4.639-4.639C49.061,211.206,46.974,209.119,44.422,209.119z M44.422,211.011c1.53,0,2.748,1.217,2.748,2.748
	c0,1.528-1.218,2.748-2.748,2.748c-1.53,0-2.748-1.22-2.748-2.748C41.674,212.228,42.892,211.011,44.422,211.011z"/>
<path id="circle75" fill="#F4F4F4" d="M60.466,225.341c-2.552,0-4.639,2.087-4.639,4.639c0,2.551,2.087,4.669,4.639,4.669
	s4.639-2.118,4.639-4.669C65.105,227.428,63.018,225.341,60.466,225.341z M60.466,227.231c1.53,0,2.748,1.218,2.748,2.748
	c0,1.529-1.218,2.777-2.748,2.777c-1.53,0-2.748-1.248-2.748-2.777C57.718,228.449,58.936,227.231,60.466,227.231z"/>
<path id="circle77" fill="#F4F4F4" d="M79.76,237.544c-2.552,0-4.639,2.087-4.639,4.639c0,2.55,2.087,4.639,4.639,4.639
	c2.551,0,4.639-2.089,4.639-4.639C84.399,239.631,82.312,237.544,79.76,237.544z M79.76,239.435c1.53,0,2.748,1.217,2.748,2.748
	c0,1.529-1.218,2.748-2.748,2.748c-1.53,0-2.748-1.219-2.748-2.748C77.012,240.651,78.23,239.435,79.76,239.435z"/>
<path id="circle79" fill="#F4F4F4" d="M78.903,71.992c-2.552,0-4.639,2.087-4.639,4.639s2.087,4.639,4.639,4.639
	s4.639-2.087,4.639-4.639S81.455,71.992,78.903,71.992z M78.903,73.883c1.53,0,2.748,1.218,2.748,2.748
	c0,1.53-1.218,2.748-2.748,2.748c-1.53,0-2.748-1.218-2.748-2.748C76.155,75.101,77.373,73.883,78.903,73.883z"/>
<path id="circle81" fill="#F4F4F4" d="M63.214,83.988c-2.552,0-4.639,2.087-4.639,4.639s2.087,4.639,4.639,4.639
	s4.639-2.087,4.639-4.639S65.766,83.988,63.214,83.988z M63.214,85.879c1.53,0,2.748,1.218,2.748,2.748
	c0,1.53-1.218,2.748-2.748,2.748c-1.53,0-2.748-1.218-2.748-2.748C60.466,87.097,61.684,85.879,63.214,85.879z"/>
<path id="circle83" fill="#F4F4F4" d="M50.627,99.175c-2.552,0-4.639,2.087-4.639,4.639s2.087,4.668,4.639,4.668
	s4.639-2.117,4.639-4.668S53.179,99.175,50.627,99.175z M50.627,101.066c1.53,0,2.748,1.218,2.748,2.748s-1.218,2.777-2.748,2.777
	c-1.53,0-2.748-1.248-2.748-2.777S49.097,101.066,50.627,101.066z"/>
<path id="circle85" fill="#F4F4F4" d="M41.792,116.844c-2.552,0-4.639,2.087-4.639,4.639s2.087,4.639,4.639,4.639
	c2.551,0,4.639-2.087,4.639-4.639S44.344,116.844,41.792,116.844z M41.792,118.735c1.53,0,2.748,1.218,2.748,2.748
	s-1.218,2.748-2.748,2.748c-1.53,0-2.748-1.218-2.748-2.748S40.262,118.735,41.792,118.735z"/>
<path id="circle87" fill="#F4F4F4" d="M37.153,136.02c-2.552,0-4.639,2.087-4.639,4.639c0,2.551,2.087,4.639,4.639,4.639
	s4.639-2.087,4.639-4.639C41.792,138.107,39.705,136.02,37.153,136.02z M37.153,137.911c1.53,0,2.748,1.218,2.748,2.748
	c0,1.53-1.218,2.748-2.748,2.748c-1.53,0-2.748-1.218-2.748-2.748C34.406,139.129,35.624,137.911,37.153,137.911z"/>
<path id="circle89" fill="#F4F4F4" d="M36.917,155.757c-2.552,0-4.639,2.087-4.639,4.639c0,2.551,2.087,4.639,4.639,4.639
	s4.639-2.087,4.639-4.639C41.556,157.845,39.469,155.757,36.917,155.757z M36.917,157.648c1.53,0,2.748,1.218,2.748,2.748
	c0,1.53-1.218,2.748-2.748,2.748c-1.53,0-2.748-1.218-2.748-2.748C34.169,158.866,35.387,157.648,36.917,157.648z"/>
<path id="circle91" fill="#F4F4F4" d="M41.172,175.052c-2.551,0-4.639,2.088-4.639,4.639s2.087,4.639,4.639,4.639
	s4.639-2.088,4.639-4.639S43.723,175.052,41.172,175.052z M41.172,176.942c1.529,0,2.748,1.219,2.748,2.748
	s-1.219,2.748-2.748,2.748c-1.529,0-2.748-1.219-2.748-2.748S39.643,176.942,41.172,176.942z"/>
<path id="circle93" fill="#F4F4F4" d="M49.622,192.869c-2.551,0-4.639,2.087-4.639,4.639c0,2.55,2.087,4.639,4.639,4.639
	c2.552,0,4.639-2.089,4.639-4.639C54.261,194.956,52.174,192.869,49.622,192.869z M49.622,194.76c1.53,0,2.748,1.217,2.748,2.748
	c0,1.529-1.218,2.748-2.748,2.748c-1.53,0-2.748-1.219-2.748-2.748C46.875,195.977,48.092,194.76,49.622,194.76z"/>
<path id="circle95" fill="#F4F4F4" d="M61.884,208.352c-2.552,0-4.639,2.087-4.639,4.639c0,2.55,2.087,4.639,4.639,4.639
	s4.639-2.089,4.639-4.639C66.523,210.438,64.436,208.352,61.884,208.352z M61.884,210.242c1.53,0,2.748,1.217,2.748,2.748
	c0,1.529-1.218,2.748-2.748,2.748s-2.748-1.219-2.748-2.748C59.136,211.459,60.354,210.242,61.884,210.242z"/>
<path id="circle97" fill="#F4F4F4" d="M77.308,220.673c-2.552,0-4.639,2.086-4.639,4.639c0,2.55,2.087,4.639,4.639,4.639
	s4.639-2.089,4.639-4.639C81.947,222.759,79.859,220.673,77.308,220.673z M77.308,222.563c1.53,0,2.748,1.217,2.748,2.748
	c0,1.529-1.218,2.748-2.748,2.748c-1.53,0-2.748-1.219-2.748-2.748C74.56,223.78,75.778,222.563,77.308,222.563z"/>
<path id="circle99" fill="#F4F4F4" d="M95.095,229.212c-2.551,0-4.639,2.086-4.639,4.639c0,2.55,2.087,4.639,4.639,4.639
	c2.552,0,4.639-2.089,4.639-4.639C99.734,231.298,97.646,229.212,95.095,229.212z M95.095,231.103c1.53,0,2.748,1.217,2.748,2.748
	c0,1.529-1.218,2.748-2.748,2.748c-1.53,0-2.748-1.219-2.748-2.748C92.347,232.319,93.565,231.103,95.095,231.103z"/>
<g id="g101">
	<path id="circle103" fill="#F4F4F4" d="M458.049,105.055c-16.909,0-30.64,13.731-30.64,30.641c0,16.909,13.73,30.64,30.64,30.64
		c16.908,0,30.611-13.731,30.611-30.64C488.66,118.786,474.957,105.055,458.049,105.055z M458.049,106.946
		c15.888,0,28.72,12.862,28.72,28.75c0,15.887-12.832,28.749-28.72,28.749c-15.887,0-28.749-12.862-28.749-28.749
		C429.3,119.808,442.162,106.946,458.049,106.946z"/>
	<path id="circle105" fill="#F4F4F4" d="M458.049,113.978c-11.99,0-21.746,9.728-21.746,21.717c0,11.989,9.756,21.717,21.746,21.717
		c11.989,0,21.718-9.728,21.718-21.717C479.767,123.706,470.038,113.978,458.049,113.978z M458.049,115.869
		c10.968,0,19.826,8.858,19.826,19.826c0,10.967-8.858,19.826-19.826,19.826c-10.967,0-19.855-8.858-19.855-19.826
		C438.193,124.728,447.082,115.869,458.049,115.869z"/>
</g>
<g id="g107">
	<path id="circle109" fill="#F4F4F4" d="M458.049,196.119c-16.909,0-30.64,13.729-30.64,30.64c0,16.908,13.73,30.641,30.64,30.641
		c16.908,0,30.611-13.732,30.611-30.641C488.66,209.849,474.957,196.119,458.049,196.119z M458.049,198.01
		c15.888,0,28.72,12.862,28.72,28.749c0,15.888-12.832,28.749-28.72,28.749c-15.887,0-28.749-12.861-28.749-28.749
		C429.3,210.872,442.162,198.01,458.049,198.01z"/>
	<path id="circle111" fill="#F4F4F4" d="M458.049,205.013c-11.99,0-21.746,9.756-21.746,21.746c0,11.989,9.756,21.717,21.746,21.717
		c11.989,0,21.718-9.728,21.718-21.717C479.767,214.769,470.038,205.013,458.049,205.013z M458.049,206.903
		c10.968,0,19.826,8.889,19.826,19.855c0,10.968-8.858,19.826-19.826,19.826c-10.967,0-19.855-8.858-19.855-19.826
		C438.193,215.792,447.082,206.903,458.049,206.903z"/>
</g>
<g id="g113">
	<path id="circle115" fill="#F4F4F4" d="M403.003,149.789c-16.91,0-30.64,13.731-30.64,30.64c0,16.909,13.729,30.641,30.64,30.641
		c16.908,0,30.641-13.731,30.641-30.641C433.644,163.52,419.911,149.789,403.003,149.789z M403.003,151.68
		c15.888,0,28.75,12.862,28.75,28.749c0,15.888-12.862,28.75-28.75,28.75c-15.887,0-28.749-12.862-28.749-28.75
		C374.254,164.542,387.116,151.68,403.003,151.68z"/>
	<path id="circle117" fill="#F4F4F4" d="M403.003,158.712c-11.99,0-21.717,9.728-21.717,21.717s9.727,21.718,21.717,21.718
		c11.989,0,21.747-9.729,21.747-21.718S414.992,158.712,403.003,158.712z M403.003,160.603c10.968,0,19.855,8.858,19.855,19.826
		c0,10.969-8.888,19.827-19.855,19.827c-10.967,0-19.825-8.858-19.825-19.827C383.178,169.461,392.036,160.603,403.003,160.603z"/>
</g>
<g id="g119">
	<path id="circle121" fill="#F4F4F4" d="M512.268,149.789c-16.91,0-30.64,13.731-30.64,30.64c0,16.909,13.729,30.641,30.64,30.641
		c16.908,0,30.641-13.731,30.641-30.641C542.908,163.52,529.176,149.789,512.268,149.789z M512.268,151.68
		c15.888,0,28.749,12.862,28.749,28.749c0,15.888-12.861,28.75-28.749,28.75c-15.887,0-28.749-12.862-28.749-28.75
		C483.519,164.542,496.381,151.68,512.268,151.68z"/>
	<path id="circle123" fill="#F4F4F4" d="M512.268,158.712c-11.99,0-21.717,9.728-21.717,21.717s9.727,21.718,21.717,21.718
		c11.989,0,21.747-9.729,21.747-21.718S524.257,158.712,512.268,158.712z M512.268,160.603c10.968,0,19.855,8.858,19.855,19.826
		c0,10.969-8.888,19.827-19.855,19.827c-10.967,0-19.826-8.858-19.826-19.827C492.441,169.461,501.301,160.603,512.268,160.603z"/>
</g>
<path id="path125" fill="#F4F4F4" d="M138.706,99.648c-3.81,4.599-7.014,12.519-8.391,20.358
	c-1.377,7.838-1.012,15.661,3.162,19.855c4.509,4.533,12.249,5.746,20.18,4.846c7.932-0.901,16.114-3.958,21.628-8.451l-1.182-1.448
	c-5.123,4.174-13.056,7.145-20.653,8.007s-14.798-0.419-18.644-4.284c-3.344-3.361-3.958-10.647-2.63-18.201
	c1.328-7.554,4.527-15.306,7.978-19.471L138.706,99.648z"/>
<path id="path127" fill="#F4F4F4" d="M97.399,159.096c-1.913-0.057-3.897,0.041-5.88,0.266c-7.931,0.901-16.084,3.958-21.599,8.45
	l1.182,1.448c5.123-4.174,13.056-7.144,20.653-8.007c7.597-0.863,14.798,0.419,18.644,4.285c3.344,3.362,3.957,10.647,2.629,18.202
	c-1.328,7.553-4.527,15.305-7.978,19.471l1.448,1.212c3.81-4.599,7.014-12.521,8.392-20.358c1.377-7.838,1.012-15.661-3.162-19.855
	C108.348,160.809,103.139,159.269,97.399,159.096z"/>
<path id="path129" fill="#F4F4F4" d="M148.516,159.066c-5.702-0.282-10.889,0.712-14.035,3.841
	c-4.532,4.51-5.717,12.25-4.816,20.181c0.9,7.932,3.928,16.114,8.421,21.628l1.477-1.182c-4.174-5.123-7.174-13.056-8.037-20.653
	s0.419-14.799,4.284-18.645c3.361-3.343,10.647-3.958,18.201-2.629c7.554,1.328,15.335,4.526,19.501,7.978l1.182-1.448
	c-4.599-3.811-12.519-7.014-20.358-8.392C152.377,159.402,150.417,159.161,148.516,159.066z"/>
<path id="path131" fill="#F4F4F4" d="M106.825,99.618l-1.448,1.211c4.174,5.123,7.144,13.027,8.007,20.624
	c0.863,7.597-0.419,14.798-4.284,18.644c-3.361,3.344-10.647,3.987-18.201,2.659c-7.554-1.328-15.307-4.527-19.472-7.978
	l-1.211,1.448c4.598,3.81,12.519,7.014,20.358,8.391c7.839,1.378,15.66,1.012,19.855-3.162c4.532-4.509,5.747-12.278,4.846-20.21
	C114.375,113.315,111.317,105.132,106.825,99.618z"/>
<path id="path133" fill="#F4F4F4" d="M383.089,69.924l-0.266,0.207l-0.178,0.118l-0.089,0.089l-0.059,0.088L236.004,263.102
	l-0.029,0.03l-0.029,0.059l-0.237,0.384l-0.827,1.419h1.655h157.928c2.829,0,5.969,2.984,5.969,2.984l0.029,0.029l0.03,0.029
	c19.593,16.626,44.979,26.651,72.685,26.651c62.061,0,112.396-50.31,112.396-112.367c0-62.059-50.338-112.396-112.396-112.396
	h-89.763H383.089L383.089,69.924z M383.827,71.814h89.35c61.037,0,110.506,49.469,110.506,110.506
	c0,61.037-49.469,110.477-110.506,110.477c-27.22,0-52.128-9.834-71.385-26.149c0,0-0.058-0.06-0.06-0.06
	c-0.096-0.103-3.3-3.486-7.269-3.486H238.368L383.827,71.814z"/>
<path id="path135" fill="#F4F4F4" d="M123.224,40.229c-62.06,0-112.396,50.338-112.396,112.396s50.337,112.368,112.396,112.368
	h106.191h0.414l0.266-0.296l0.384-0.384l0.029-0.029l0.03-0.06L377.002,71.578l0.562-0.738l-0.709-0.591l-0.178-0.118l-0.266-0.207
	h-0.325H203c-1.719,0-3.858-0.964-5.496-1.98c-1.637-1.016-2.777-2.039-2.777-2.039h-0.029
	C175.271,49.873,150.374,40.229,123.224,40.229z M123.224,42.12c26.704,0,51.161,9.47,70.263,25.233v-0.03h0.029
	c0.016,0.014,1.214,1.118,2.984,2.216c1.781,1.105,4.127,2.275,6.5,2.275h171.432L229.09,263.013l-0.059,0.089h-0.03H123.224
	c-61.038,0-110.505-49.439-110.505-110.476S62.186,42.12,123.224,42.12z"/>
<path id="line137" fill="#F4F4F4" d="M375.643,70.958v1.891h7.032v-1.891H375.643z"/>
<path id="line139" fill="#F4F4F4" d="M230.213,262.127v1.891h6.766v-1.891H230.213z"/>
<path id="circle141" fill="#F4F4F4" d="M122.456,142.934c-4.92,0-8.923,4.002-8.923,8.923c0,4.92,4.003,8.923,8.923,8.923
	s8.953-4.002,8.953-8.923C131.408,146.937,127.376,142.934,122.456,142.934z M122.456,144.825c3.898,0,7.062,3.134,7.062,7.032
	c0,3.898-3.164,7.032-7.062,7.032c-3.898,0-7.032-3.134-7.032-7.032C115.423,147.959,118.557,144.825,122.456,144.825z"/>
</svg>
