<?xml version="1.0" encoding="utf-8"?>
<!-- Generator: Adobe Illustrator 13.0.0, SVG Export Plug-In . SVG Version: 6.00 Build 14948)  -->
<svg version="1.2" baseProfile="tiny"
	 id="Layer_3" xmlns:rdf="http://www.w3.org/1999/02/22-rdf-syntax-ns#" xmlns:cc="http://creativecommons.org/ns#" xmlns:dc="http://purl.org/dc/elements/1.1/"
	 xmlns="http://www.w3.org/2000/svg" xmlns:xlink="http://www.w3.org/1999/xlink" x="0px" y="0px" width="598.189px"
	 height="350.26px" viewBox="0 0 598.189 350.26" xml:space="preserve">
<path id="path3" fill="#F4F4F4" d="M213.29,37.7c-0.172,0-0.176,0.019-0.302,0.031c-0.125,0.013-0.303,0.037-0.513,0.061
	c-0.42,0.047-1.022,0.091-1.78,0.181c-1.515,0.181-3.666,0.447-6.397,0.785c-5.463,0.674-13.18,1.647-22.391,2.806
	c-18.42,2.318-42.853,5.423-67.261,8.54c-24.409,3.117-48.809,6.233-67.202,8.63c-9.196,1.199-16.887,2.224-22.33,2.958
	c-2.722,0.367-4.894,0.66-6.397,0.875c-0.756,0.108-1.335,0.206-1.754,0.272c-0.209,0.034-0.383,0.067-0.513,0.091
	c-0.064,0.012-0.096,0.018-0.15,0.03c-0.054,0.012-0.076-0.011-0.242,0.06c-4.717,2.012-8.027,6.72-8.027,12.161V286.71
	c0,7.279,5.913,13.189,13.187,13.189h554.386c7.274,0,13.219-5.914,13.219-13.187V75.183c0-5.224-3.064-9.757-7.484-11.889
	c-0.169-0.082-0.181-0.075-0.241-0.09c-0.06-0.015-0.144-0.046-0.211-0.061c-0.136-0.027-0.3-0.055-0.514-0.09
	c-0.426-0.071-1.021-0.16-1.78-0.271c-1.525-0.224-3.698-0.529-6.431-0.905c-5.477-0.75-13.191-1.775-22.423-2.988
	c-18.463-2.426-42.94-5.583-67.438-8.721c-24.5-3.138-49.007-6.241-67.508-8.57c-9.251-1.164-17.014-2.159-22.512-2.836
	c-2.748-0.339-4.928-0.604-6.457-0.785c-0.766-0.091-1.354-0.133-1.78-0.181c-0.214-0.024-0.384-0.048-0.514-0.061
	c-0.129-0.013-0.172-0.03-0.332-0.03v1.931c-0.102,0,0.006-0.011,0.121,0c0.114,0.011,0.304,0.037,0.513,0.061
	c0.419,0.047,0.988,0.122,1.751,0.211c1.523,0.181,3.711,0.446,6.457,0.785c5.494,0.677,13.261,1.642,22.512,2.807
	c18.499,2.328,43.006,5.433,67.504,8.57c24.495,3.136,48.98,6.295,67.441,8.721c9.23,1.213,16.957,2.269,22.42,3.018
	c2.732,0.375,4.896,0.653,6.398,0.875c0.752,0.111,1.349,0.205,1.75,0.272c0.2,0.033,0.354,0.07,0.452,0.09
	c0.009,0.004,0.021-0.003,0.029,0c0.03,0.006,0.053,0.028,0.062,0.031c3.703,1.842,6.275,5.682,6.275,10.109v211.53
	c0,6.229-5.055,11.257-11.285,11.257H21.211c-6.235,0-11.259-5.021-11.259-11.261V75.18c0-4.636,2.801-8.62,6.79-10.35
	c0.02-0.004,0.027,0.006,0.06,0c0.101-0.019,0.252-0.06,0.453-0.091c0.401-0.063,1.003-0.134,1.75-0.242
	c1.495-0.213,3.648-0.539,6.367-0.905c5.437-0.732,13.104-1.729,22.3-2.927c18.391-2.396,42.794-5.543,67.203-8.66
	c24.408-3.118,48.842-6.192,67.261-8.51c9.21-1.159,16.901-2.132,22.36-2.807c2.73-0.337,4.918-0.604,6.427-0.785
	c0.755-0.09,1.338-0.165,1.75-0.211c0.206-0.023,0.372-0.049,0.483-0.061c0.112-0.011,0.24,0,0.121,0v-1.932L213.29,37.7z"/>
<path id="path5" fill="#F4F4F4" d="M216.398,26.625c-1.261,0-2.336,0.589-2.957,1.448c-0.621,0.86-0.845,1.931-0.845,2.988v76.344
	c0,47.394,38.426,85.851,85.82,85.851c47.395,0,85.851-38.457,85.851-85.851V31.062c0-1.106-0.23-2.189-0.874-3.048
	c-0.647-0.857-1.729-1.386-3.023-1.386H216.396L216.398,26.625z M216.398,28.557h163.975c0.836,0,1.191,0.222,1.479,0.604
	c0.285,0.381,0.483,1.058,0.483,1.901v76.344c0,46.351-37.571,83.919-83.92,83.919c-46.352,0-83.889-37.569-83.889-83.919V31.062
	c0-0.759,0.184-1.457,0.483-1.871c0.299-0.413,0.656-0.632,1.391-0.632L216.398,28.557z"/>
<path id="path7" fill="#F4F4F4" d="M92.498,161.002c-4.331,0-8.55,0.531-12.583,1.509c-19.22,4.655-34.366,19.741-39.107,38.926
	c-1.014,4.105-1.54,8.379-1.54,12.795c0,4.242,0.479,8.385,1.418,12.343c4.597,19.377,19.782,34.651,39.108,39.378
	c4.069,0.996,8.332,1.509,12.704,1.509c4.318,0,8.532-0.509,12.554-1.479c19.579-4.728,34.928-20.266,39.379-39.951
	c0.858-3.793,1.298-7.749,1.298-11.799c0-4.39-0.537-8.652-1.539-12.735c-4.708-19.173-19.782-34.252-38.958-38.957
	c-4.079-1-8.35-1.539-12.735-1.54L92.498,161.002z M92.498,162.934c4.229,0.001,8.322,0.515,12.252,1.478
	c18.474,4.533,33.032,19.067,37.568,37.54c0.966,3.932,1.479,8.049,1.479,12.281c0,3.906-0.441,7.723-1.268,11.377
	c-4.288,18.967-19.066,33.947-37.93,38.504c-3.876,0.934-7.937,1.419-12.101,1.419c-4.217,0-8.301-0.49-12.221-1.449
	c-18.62-4.555-33.262-19.292-37.689-37.961c-0.905-3.813-1.389-7.798-1.389-11.89c0-4.26,0.502-8.385,1.479-12.34
	c4.568-18.486,19.171-33.024,37.689-37.51C84.255,163.441,88.321,162.935,92.498,162.934L92.498,162.934z"/>
<path id="path9" fill="#F4F4F4" d="M92.498,161.002c-4.331,0-8.55,0.531-12.583,1.509h-0.03h-0.061
	c-0.87,0.296-1.643,0.832-2.142,1.629c-0.5,0.798-0.695,1.781-0.695,2.988v29.24c0,0.939-0.162,1.525-0.393,1.811
	c-0.229,0.285-0.636,0.543-1.811,0.543H45.393c-1.049,0-1.952,0.06-2.776,0.452c-0.824,0.396-1.426,1.173-1.78,2.175v0.028
	l-0.03,0.062c-1.014,4.104-1.539,8.377-1.539,12.795c0,4.242,0.479,8.384,1.418,12.343h0.03c0.261,1.012,0.713,1.923,1.54,2.474
	c0.827,0.549,1.859,0.693,3.138,0.693h29.361c0.937,0,1.441,0.18,1.72,0.453s0.513,0.816,0.513,1.932v29.21
	c0,1.397,0.254,2.44,0.785,3.198c0.531,0.757,1.294,1.15,1.931,1.388h0.061l0.03,0.03c4.069,0.995,8.332,1.509,12.704,1.509
	c4.318,0,8.531-0.508,12.553-1.479h0.03c0.789-0.219,1.57-0.688,2.112-1.479c0.542-0.789,0.815-1.854,0.815-3.167v-29.239
	c0-0.899,0.223-1.449,0.543-1.781c0.32-0.332,0.851-0.573,1.871-0.573h29.18c1.509,0,2.656-0.388,3.44-1.115
	c0.784-0.729,1.158-1.668,1.388-2.565v-0.029c0.858-3.793,1.297-7.749,1.297-11.799c0-4.389-0.536-8.653-1.539-12.735v-0.03
	c-0.271-0.988-0.768-1.824-1.6-2.263c-0.831-0.438-1.761-0.483-2.987-0.483h-29.15c-1.145,0-1.681-0.248-1.961-0.543
	c-0.281-0.295-0.483-0.834-0.483-1.811v-29.239c0-1.164-0.073-2.105-0.513-2.928c-0.441-0.823-1.271-1.381-2.233-1.659h-0.03
	c-4.079-1.001-8.35-1.54-12.735-1.54L92.498,161.002z M92.498,162.934c4.219,0,8.301,0.518,12.222,1.478
	c0.009,0.002,0.021-0.002,0.03,0c0.628,0.187,0.848,0.362,1.026,0.694c0.182,0.34,0.302,0.987,0.302,2.022v29.24
	c0,1.217,0.225,2.357,0.996,3.169c0.771,0.81,1.956,1.116,3.38,1.116h29.15c1.144,0,1.797,0.121,2.082,0.271
	c0.279,0.146,0.436,0.316,0.634,1.026c0.002,0.009-0.002,0.02,0,0.029c0.961,3.925,1.479,8.028,1.479,12.252
	c0,3.906-0.442,7.723-1.268,11.377c-0.19,0.726-0.421,1.261-0.784,1.599c-0.372,0.346-0.949,0.604-2.143,0.604h-29.18
	c-1.349,0-2.489,0.377-3.259,1.177c-0.771,0.799-1.086,1.903-1.086,3.108v29.24c0,1.038-0.216,1.693-0.482,2.08
	c-0.268,0.389-0.607,0.57-1.057,0.693c-3.858,0.928-7.896,1.42-12.041,1.42c-4.184,0-8.237-0.475-12.13-1.42
	c-0.016-0.006-0.013-0.022-0.03-0.028c-0.448-0.172-0.739-0.342-0.965-0.664c-0.234-0.334-0.453-0.929-0.453-2.081v-29.211
	c0-1.389-0.302-2.52-1.086-3.29c-0.785-0.769-1.889-1.024-3.078-1.024H45.394c-1.101,0-1.712-0.168-2.052-0.393
	c-0.338-0.229-0.556-0.529-0.754-1.298c-0.905-3.813-1.389-7.798-1.389-11.89c0-4.228,0.486-8.322,1.449-12.252h0.03
	c0.251-0.711,0.445-0.924,0.785-1.086c0.339-0.162,0.964-0.242,1.931-0.242h29.392c1.482,0,2.629-0.379,3.32-1.236
	c0.689-0.857,0.814-1.948,0.814-3.048v-29.24c0-0.992,0.158-1.586,0.393-1.962c0.227-0.362,0.557-0.586,1.116-0.785
	c0.018-0.005,0.012-0.023,0.03-0.03C84.317,163.424,88.354,162.934,92.498,162.934L92.498,162.934z"/>
<path id="circle11" fill="#F4F4F4" d="M92.498,199.841c-7.934,0-14.393,6.459-14.393,14.393c0,7.936,6.459,14.395,14.393,14.395
	c7.935,0,14.394-6.46,14.394-14.395S100.432,199.841,92.498,199.841z M92.498,201.771c6.891,0,12.463,5.571,12.463,12.463
	c0,6.891-5.572,12.461-12.463,12.461c-6.89,0-12.462-5.57-12.462-12.461C80.036,207.342,85.608,201.771,92.498,201.771z"/>
<path id="path13" fill="#F4F4F4" d="M61.658,82.873c-7.274,0-13.188,5.913-13.188,13.187v56.188c0,3.152,0.652,5.452,1.75,7.091
	c1.099,1.638,2.657,2.532,4.255,2.897c3.186,0.727,6.448-0.42,8.178-1.479c0.008-0.005,0.022,0.005,0.03,0
	c8.826-4.934,18.98-7.755,29.814-7.755c33.825,0,61.227,27.401,61.227,61.226c0,20.45-10.012,38.551-25.408,49.67l-0.091,0.061
	l-0.06,0.092l-1.811,2.021l-0.061,0.061c-1.822,1.854-2.957,4.413-2.957,7.212c0,5.66,4.601,10.261,10.259,10.261h7.967h335.854
	h0.966h28.004c25.572,0,46.319-20.748,46.319-46.32c0-9.213-2.69-17.801-7.332-25.016c-0.006-0.011,0.006-0.021,0-0.029
	c-0.447-0.754-0.634-0.952-0.634-2.958V96.061c0-7.274-5.914-13.187-13.188-13.187H420.113c-4.325,0-7.789,1.727-10.081,4.497
	c-2.289,2.77-3.439,6.53-3.439,10.651v8.872c0,59.757-48.423,108.15-108.18,108.15c-59.756,0-108.179-48.394-108.179-108.15v-8.872
	c0-4.372-0.792-8.106-2.776-10.833c-1.989-2.721-5.185-4.31-9.482-4.31H61.646L61.658,82.873z M61.658,84.804h116.329
	c3.852,0,6.311,1.266,7.937,3.5c1.626,2.235,2.384,5.583,2.384,9.716v8.872c0,60.8,49.312,110.082,110.11,110.082
	c60.8,0,110.111-49.282,110.111-110.082V98.02c0-3.764,1.047-7.098,2.986-9.445c1.941-2.342,4.779-3.767,8.604-3.767h111.442
	c6.229,0,11.256,5.025,11.256,11.255v113.22c0,2.224,0.438,3.192,0.904,3.983h0.03v0.029c4.456,6.92,7.031,15.143,7.031,23.989
	c0,24.528-19.859,44.39-44.39,44.39h-27.038h-0.966H141.571h-7.967c-4.615,0-8.329-3.714-8.329-8.328
	c0-2.308,0.935-4.373,2.444-5.885l0.03-0.029v-0.031l1.69-1.932c0.022-0.016,0.037-0.044,0.06-0.06
	c15.841-11.474,26.163-30.128,26.163-51.179c0-34.869-28.29-63.158-63.158-63.158c-11.178,0-21.7,2.929-30.809,8.027h-0.03
	c-1.27,0.781-4.339,1.82-6.76,1.268c-1.21-0.276-2.257-0.888-3.078-2.112c-0.821-1.225-1.418-3.111-1.418-6.005V96.065
	c-0.006-6.227,5.019-11.252,11.25-11.252L61.658,84.804z"/>
<path id="circle15" fill="#F4F4F4" d="M442.028,209.824c-16.033,0-29.061,13.026-29.061,29.061c0,16.031,13.026,29.06,29.061,29.06
	c16.03,0,29.026-13.027,29.026-29.06C471.056,222.853,458.061,209.824,442.028,209.824z M442.028,211.756
	c14.987,0,27.097,12.14,27.097,27.129c0,14.987-12.11,27.128-27.097,27.128c-14.99,0-27.128-12.141-27.128-27.128
	C414.9,223.896,427.038,211.756,442.028,211.756z"/>
<path id="circle17" fill="#F4F4F4" d="M442.028,214.257c-13.587,0-24.623,11.038-24.623,24.624
	c0,13.585,11.036,24.622,24.623,24.622c13.585,0,24.622-11.037,24.622-24.622C466.65,225.295,455.613,214.257,442.028,214.257z
	 M442.028,216.188c12.54,0,22.689,10.149,22.689,22.691c0,12.541-10.149,22.691-22.689,22.691c-12.542,0-22.692-10.15-22.692-22.691
	S429.486,216.188,442.028,216.188z"/>
<path id="path19" fill="#F4F4F4" d="M442.028,202.312c-20.189,0-36.574,16.385-36.574,36.573c0,20.19,16.385,36.573,36.574,36.573
	h67.684c20.189,0,36.573-16.383,36.573-36.573c0-20.188-16.384-36.573-36.573-36.573H442.028z M442.028,204.243h67.684
	c19.146,0,34.642,15.494,34.642,34.642s-15.494,34.642-34.642,34.642h-67.684c-19.146,0-34.643-15.493-34.643-34.642
	C407.387,219.738,422.882,204.243,442.028,204.243z"/>
<path id="circle21" fill="#F4F4F4" d="M509.708,209.824c-16.031,0-29.06,13.026-29.06,29.061c0,16.031,13.027,29.06,29.06,29.06
	s29.029-13.027,29.029-29.06S525.74,209.824,509.708,209.824z M509.708,211.756c14.989,0,27.098,12.14,27.098,27.129
	c0,14.987-12.109,27.128-27.098,27.128s-27.129-12.141-27.129-27.128C482.579,223.896,494.72,211.756,509.708,211.756z"/>
<path id="circle23" fill="#F4F4F4" d="M509.708,214.257c-13.586,0-24.624,11.038-24.624,24.624
	c0,13.585,11.038,24.622,24.624,24.622s24.624-11.037,24.624-24.622C534.332,225.295,523.294,214.257,509.708,214.257z
	 M509.708,216.188c12.541,0,22.692,10.149,22.692,22.691c0,12.541-10.151,22.691-22.692,22.691s-22.693-10.15-22.693-22.691
	S497.167,216.188,509.708,216.188z"/>
<path id="path29" fill="#F4F4F4" d="M251.287,229.522c-4.974,0-9.022,4.078-9.022,9.054c0,4.975,4.049,9.022,9.022,9.022h25.167
	c4.974,0,9.022-4.05,9.022-9.022c0-4.976-4.048-9.054-9.022-9.054H251.287z M251.287,231.454h25.167c3.93,0,7.091,3.189,7.091,7.122
	c0,3.93-3.161,7.091-7.091,7.091h-25.167c-3.93,0-7.092-3.16-7.092-7.091S247.356,231.454,251.287,231.454z"/>
<path id="path31" fill="#F4F4F4" d="M251.287,224.492c-7.763,0-14.061,6.33-14.061,14.093c0,7.762,6.298,14.063,14.061,14.063
	h25.167c7.763,0,14.092-6.301,14.092-14.063c0-7.763-6.329-14.093-14.092-14.093H251.287z M251.287,226.424h25.167
	c6.719,0,12.161,5.441,12.161,12.161c0,6.719-5.442,12.13-12.161,12.13h-25.167c-6.72,0-12.13-5.412-12.13-12.13
	C239.157,231.865,244.568,226.424,251.287,226.424z"/>
<path id="path33" fill="#F4F4F4" d="M320.928,229.522c-4.974,0-9.021,4.078-9.021,9.054c0,4.975,4.049,9.022,9.021,9.022h25.167
	c4.976,0,9.023-4.05,9.023-9.022c0-4.976-4.049-9.054-9.023-9.054H320.928z M320.928,231.454h25.167
	c3.929,0,7.093,3.191,7.093,7.122c0,3.93-3.161,7.091-7.093,7.091h-25.167c-3.929,0-7.091-3.16-7.091-7.091
	S316.999,231.454,320.928,231.454z"/>
<path id="path35" fill="#F4F4F4" d="M320.928,224.492c-7.763,0-14.092,6.33-14.092,14.093c0,7.762,6.329,14.063,14.092,14.063
	h25.167c7.765,0,14.062-6.301,14.062-14.063c0-7.763-6.297-14.093-14.062-14.093H320.928z M320.928,226.424h25.167
	c6.722,0,12.13,5.441,12.13,12.161c0,6.719-5.408,12.13-12.13,12.13h-25.167c-6.72,0-12.16-5.412-12.16-12.13
	C308.768,231.865,314.208,226.424,320.928,226.424z"/>
<path id="path37" fill="#F4F4F4" d="M92.498,137.248c-13.553,0-26.318,3.524-37.388,9.687l-2.776,1.539l-0.845,0.483l0.453,0.845
	l3.108,5.552l0.483,0.845l0.845-0.453l2.776-1.569c9.876-5.495,21.229-8.6,33.344-8.6c18.979,0.001,36.115,7.664,48.553,20.097
	c12.434,12.437,20.126,29.573,20.127,48.552c-0.002,21.893-10.248,41.368-26.192,53.955l-2.505,1.963l-0.754,0.604l0.604,0.754
	l3.953,5.01l0.604,0.754l0.754-0.604l2.505-1.961c17.857-14.087,29.332-35.967,29.331-60.475
	C169.475,171.724,135.001,137.249,92.498,137.248L92.498,137.248z M92.498,139.179c41.461,0.002,75.046,33.587,75.048,75.046
	c0.001,23.904-11.197,45.229-28.607,58.965l-1.75,1.356l-2.746-3.5l1.75-1.358c16.389-12.938,26.915-32.972,26.917-55.463
	c-0.001-19.502-7.921-37.129-20.702-49.913c-12.785-12.778-30.412-20.668-49.911-20.669c-12.449,0-24.126,3.223-34.28,8.872
	l-1.931,1.086l-2.173-3.893l1.932-1.086C66.836,142.616,79.278,139.178,92.498,139.179L92.498,139.179z"/>
</svg>
