<svg id="a344fa22-371f-4a56-ba65-00595de33d60" data-name="Layer 1" xmlns="http://www.w3.org/2000/svg" viewBox="0 0 583.3 263.1"><title>controller</title><path id="bf784b3d-45ec-43d5-b135-fcbfabf2a2a1" data-name="path29" d="M590.64,450.81c-5,0-9,2.08-9,7.06s4,7,9,7h19.17c5,0,9-2.05,9-7s-4-7.06-9-7.06Zm0,1.93h19.17c3.93,0,7.09,1.19,7.09,5.13s-3.16,5.09-7.09,5.09H590.64c-3.93,0-7.09-1.16-7.09-5.09S586.71,452.74,590.64,452.74Z" transform="translate(-331.97 -265.3)" fill="#fff"/><path id="bf8f72a3-ea04-45c4-8e8b-abc2d9082e5e" data-name="path29" d="M637.54,450.81c-5,0-9,2.08-9,7.06s4.05,7,9,7h19.17c5,0,9-2.05,9-7s-4.05-7.06-9-7.06Zm0,1.93h19.17c3.93,0,7.09,1.19,7.09,5.13s-3.16,5.09-7.09,5.09H637.54c-3.93,0-7.09-1.16-7.09-5.09S633.61,452.74,637.54,452.74Z" transform="translate(-331.97 -265.3)" fill="#fff"/><path d="M733.57,528.3a16.31,16.31,0,0,1-8.1-2.1,18.47,18.47,0,0,1-5.1-4.4,70.82,70.82,0,0,0-7-7.4,64.56,64.56,0,0,0-10.8-7.8,60.11,60.11,0,0,0-15.3-5.8,102.28,102.28,0,0,0-11.1-1.6l-1.1-.1c-5.4-.5-10.7-1-15.8-1.3l-10-.6-2-.1c-2.2-.1-4.8-.3-7.2-.3s-4.9-.1-7.3-.1c-2.7,0-5.5-.1-8.2-.2h-2.9c-2.7.1-5.5.1-8.2.2-2.4,0-4.9.1-7.3.1l-7.2.3-2,.1-10,.6c-5,.4-10.4.8-15.8,1.3l-1.1.1a106,106,0,0,0-11.1,1.6,53.49,53.49,0,0,0-15.3,5.8,56.09,56.09,0,0,0-10.8,7.8,61.69,61.69,0,0,0-7,7.4,17.15,17.15,0,0,1-5.1,4.4,16.67,16.67,0,0,1-8.5,2c-1.9,0-3.8-.1-5.7-.2h-.7l-6.7-.3L487,527c-2.5-.1-5-.3-7.6-.4-1.4-.1-2.7-.1-4.1-.2s-2.7-.1-4-.2c-1.1,0-2.2-.1-3.2-.2l-1.6-.1c-2.5-.2-5.1-.3-7.6-.4h-1.5l-3.1-.3c-1.6-.1-3.2-.3-4.7-.4-.9-.1-1.8-.1-2.7-.2s-1.6-.1-2.4-.1l-4.2-.3-3.5-.3a16.2,16.2,0,0,0-2.2-.1c-.9-.1-1.9-.1-2.8-.2-3-.2-6-.5-8.9-.8l-5.1-.5c-2.5-.2-4.9-.4-7.4-.7l-1.7-.2c-2.4-.2-4.8-.4-7.2-.8a69.6,69.6,0,0,1-8.1-1.5,83.63,83.63,0,0,1-16-5.4A90.56,90.56,0,0,1,367,508a76.36,76.36,0,0,1-15.6-13.4,77.4,77.4,0,0,1-11.2-16.5,70.51,70.51,0,0,1-6.5-18.5c-.5-2.3-.8-4.7-1.1-7-.1-.9-.2-1.8-.3-2.6a16.35,16.35,0,0,1-.2-2.2c0-.3-.1-.7-.1-1v-8.2a.37.37,0,0,1,.1-.3c0-.1.1-.2.1-.4,0-.8.1-1.6.1-2.3.1-1.3.1-2.6.2-3.8.2-3.2.5-6.6.8-10.1.2-2.7.5-5.5.9-8.3l.1-.9c.4-3.3.8-6.7,1.4-10,.7-4,1.5-8.1,2.3-12.1l.2-1.2a203.35,203.35,0,0,1,5.3-21.1c2.1-6.8,4.1-13.1,6.3-19.1,1.9-5.3,4-10.5,6.1-15.4,1.7-4.1,3.5-8,5.3-11.7a115.89,115.89,0,0,1,6.3-11.5,44.6,44.6,0,0,1,14.1-13.9,41.88,41.88,0,0,1,12.5-5.5c2.7-.7,5.4-1.2,8.1-1.8l1.6-.3c4.9-1,9.4-1.9,13.7-2.8,1.3-.3,2.7-.5,4-.7l2.1-.3c2-.3,3.9-.7,5.9-1l1.4-.3c.5-.1,1.1-.2,1.7-.3.9-.2,1.8-.3,2.6-.4,1-.2,2-.3,3-.5a22.11,22.11,0,0,0,2.5-.5,27.41,27.41,0,0,1,2.8-.5c1.3-.2,2.7-.5,4.1-.7,1.1-.2,2.2-.4,3.3-.5.9-.2,1.9-.3,2.8-.5l3.2-.6c1.4-.2,2.8-.5,4.3-.7.9-.1,1.9-.3,2.8-.4.6-.1,1.2-.2,1.7-.3l2.1-.3c.5-.1.9-.1,1.4-.2s.8-.1,1.2-.2a20,20,0,0,0,2.4-.4c1-.2,2.1-.3,3.2-.5,1.3-.2,2.5-.3,3.8-.5l9.3-1.2c.5-.1,1-.1,1.5-.2l1.8-.3c1.1-.2,2.1-.3,3.2-.5s2.3-.3,3.5-.4c.7-.1,1.4-.1,2.1-.2l2.6-.3c1.2-.1,2.3-.3,3.5-.4l2.6-.3a19.42,19.42,0,0,1,2.4-.2c1.1-.1,2.2-.2,3.3-.4l5.5-.6c1.9-.2,3.9-.3,5.8-.5l3.8-.3,3.4-.3c1.5-.1,3-.3,4.5-.4,3.6-.3,7.2-.5,10.9-.8l1.4-.1c5.2-.3,10.4-.7,15.6-1,4.4-.3,8.9-.5,13.3-.7h.5c1.9-.1,3.8-.2,5.8-.2l5-.2,7.2-.3c2-.1,4-.1,6-.2s3.7-.1,5.6-.2c.6,0,1.2-.1,1.8-.1.8,0,1.6-.1,2.4-.1,1.9,0,4-.1,6.2-.1,1,0,2,.1,3,.1l1,.1,1-.1c1-.1,2-.1,3-.1,2.2,0,4.3,0,6.2.1.8,0,1.6.1,2.4.1.6,0,1.2.1,1.8.1,1.9.1,3.7.1,5.6.2s4,.1,6,.2l7.2.3,5,.2c1.9.1,3.8.1,5.7.2h.5c4.4.2,8.9.4,13.3.7,5.2.3,10.4.6,15.6,1l.2.2c3.6.2,7.2.5,10.9.8,1.5.1,3,.3,4.5.4l3.4.3,3.8.3c1.9.2,3.9.3,5.8.5l5.5.6c1.1.1,2.2.3,3.3.4a19.42,19.42,0,0,0,2.4.2l2.6.3c1.2.1,2.3.3,3.5.4l2.6.3a14.92,14.92,0,0,0,2.1.2c1.2.1,2.3.2,3.5.4s2.1.3,3.2.5l1.8.3c.5.1,1,.1,1.5.2l9.3,1.2c1.3.2,2.5.3,3.8.5,1.1.2,2.1.3,3.2.5a20,20,0,0,1,2.4.4c.4.1.8.1,1.2.2s.9.1,1.4.2l2.1.3c.6.1,1.2.2,1.7.3.9.1,1.9.3,2.8.4,1.4.2,2.8.4,4.3.7l3.2.6c.9.2,1.9.3,2.8.5,1.1.2,2.2.4,3.3.5,1.4.2,2.7.4,4.1.7.9.2,1.9.3,2.8.5s1.7.3,2.5.5c1,.2,2,.3,3,.5s1.8.3,2.6.4l1.7.3,1.4.3c2,.4,3.9.7,5.9,1l2.1.3c1.3.2,2.7.4,4,.7,4.3.8,8.8,1.8,13.7,2.8l1.6.3q4,.75,8.1,1.8a44.22,44.22,0,0,1,12.5,5.5,45.66,45.66,0,0,1,14.1,13.9c2.3,3.7,4.3,7.6,6.3,11.5,1.8,3.7,3.6,7.6,5.3,11.7,2.1,4.9,4.2,10.1,6.1,15.4,2.2,6.1,4.2,12.3,6.3,19.1a217,217,0,0,1,5.3,21.1l.2,1.2c.8,3.9,1.6,8,2.3,12,.6,3.4,1,6.8,1.4,10.1l.1.9c.4,2.8.7,5.6.9,8.3.3,3.4.5,6.9.8,10.1.1,1.3.1,2.6.2,3.9,0,.8.1,1.5.1,2.3h0a.76.76,0,0,0,.1.4.37.37,0,0,0,.1.3v8.1c0,.4-.1.8-.1,1.1-.1.7-.1,1.5-.2,2.2-.1.9-.2,1.8-.3,2.6-.3,2.3-.6,4.7-1.1,7a78.57,78.57,0,0,1-6.5,18.5,77.4,77.4,0,0,1-11.2,16.5,73.79,73.79,0,0,1-15.6,13.4,66.92,66.92,0,0,1-10.4,5.7,88.59,88.59,0,0,1-16,5.4c-2.4.6-5,1-8.1,1.5-2.4.3-4.9.6-7.2.8l-1.7.2c-2.5.2-4.9.5-7.4.7l-5.1.5c-3,.3-6,.5-8.9.8-.9.1-1.9.1-2.8.2-.7,0-1.5.1-2.2.1l-3.5.3-4.2.3a19.27,19.27,0,0,1-2.4.1,24.52,24.52,0,0,0-2.7.2c-1.6.1-3.2.3-4.7.4l-3.1.3h-1.5c-2.5.1-5.1.3-7.6.4l-1.6.1c-1.1.1-2.2.1-3.2.2-1.3.1-2.7.1-4,.2s-2.7.1-4.1.2c-2.5.1-5,.2-7.6.4l-12.2.7-6.7.3h-.7c-1.9.1-3.8.2-5.7.2C733.87,528.3,733.67,528.3,733.57,528.3Zm-109.7-33.9h.8c2.7.1,5.5.1,8.2.2,2.4,0,4.9.1,7.3.1l7.3.3,2,.1,10,.6c5.1.4,10.5.8,15.8,1.3l1.1.1a109.7,109.7,0,0,1,11.3,1.6,57,57,0,0,1,15.8,6,68.93,68.93,0,0,1,11.2,8,74.21,74.21,0,0,1,7.2,7.6,14.47,14.47,0,0,0,4.5,3.9,13.9,13.9,0,0,0,7.5,1.8c1.9,0,3.8-.1,5.7-.2h.7l6.6-.3,12.2-.7c2.5-.1,5.1-.3,7.6-.4,1.4-.1,2.7-.1,4.1-.2s2.7-.1,4-.2c1.1,0,2.1-.1,3.2-.2l1.6-.1c2.5-.2,5.1-.3,7.6-.4h1.5l3.1-.3c1.6-.1,3.2-.3,4.8-.4.9-.1,1.9-.1,2.8-.2s1.6-.1,2.4-.1l4.2-.3,3.6-.3a17.7,17.7,0,0,1,2.3-.1c.9-.1,1.8-.1,2.8-.2,3-.2,6-.5,8.9-.8l5.1-.5c2.5-.2,4.9-.4,7.4-.7l1.7-.2c2.3-.2,4.8-.4,7.1-.8,3-.4,5.6-.9,7.9-1.4a93.51,93.51,0,0,0,15.7-5.3,78.91,78.91,0,0,0,10.1-5.6,72.72,72.72,0,0,0,15.2-13.1,76.23,76.23,0,0,0,17.3-34.1,54.63,54.63,0,0,0,1-6.9c.1-.9.2-1.8.3-2.6a14.92,14.92,0,0,0,.2-2.1c0-.3.1-.7.1-1v-7.8a1.7,1.7,0,0,1-.1-.7h0c0-.8-.1-1.5-.1-2.3-.1-1.3-.1-2.6-.2-3.8-.2-3.2-.5-6.6-.8-10-.2-2.7-.5-5.4-.9-8.2l-.1-.9c-.4-3.3-.8-6.7-1.4-10-.7-4-1.5-8-2.2-12l-.2-1.2c-1.4-7.1-3.2-14.1-5.2-20.9s-4.1-13-6.3-19c-1.9-5.2-4-10.4-6.1-15.3-1.7-4-3.5-7.9-5.3-11.5-2-3.9-3.9-7.7-6.2-11.3a42.9,42.9,0,0,0-13.5-13.3,40,40,0,0,0-11.9-5.2c-2.6-.7-5.4-1.2-8-1.8l-1.6-.3c-4.9-1-9.4-1.9-13.7-2.8-1.3-.3-2.6-.5-4-.7a15.52,15.52,0,0,1-2.1-.4c-2-.3-3.9-.7-5.9-1l-1.4-.3-1.6-.3a23.36,23.36,0,0,0-2.6-.4c-1-.2-2-.3-3-.5a22.11,22.11,0,0,1-2.5-.5,25.58,25.58,0,0,0-2.7-.5c-1.3-.2-2.7-.4-4-.7-1.1-.2-2.2-.4-3.3-.5-.9-.2-1.9-.3-2.8-.5l-3.1-.6c-1.4-.2-2.8-.5-4.2-.7-.9-.1-1.9-.3-2.8-.4l-1.8-.3-2.1-.3c-.4-.1-.9-.1-1.3-.2s-.9-.1-1.3-.2a20,20,0,0,1-2.4-.4c-1-.2-2.1-.3-3.1-.5-1.2-.2-2.5-.3-3.7-.5l-9.4-1c-.5-.1-1-.1-1.5-.2l-1.8-.3c-1-.2-2.1-.3-3.1-.5s-2.3-.3-3.4-.4a14.92,14.92,0,0,0-2.1-.2l-2.6-.3c-1.2-.1-2.3-.3-3.5-.4l-2.6-.3a19.42,19.42,0,0,0-2.4-.2c-1.1-.1-2.2-.2-3.3-.4l-5.5-.6c-1.9-.2-3.8-.3-5.8-.5l-3.8-.3-3.4-.3c-1.5-.1-3-.3-4.4-.4-3.6-.3-7.2-.5-10.8-.8l-1.4-.1c-5.2-.3-10.4-.7-15.5-1-4.4-.3-8.9-.5-13.3-.7h-.5c-1.9-.1-3.8-.2-5.7-.2l-5-.2-7.2-.3c-2-.1-4-.1-6-.2s-3.7-.1-5.6-.2c-.6,0-1.2-.1-1.8-.1-.8,0-1.5-.1-2.3-.1-1.8,0-4-.1-6.1-.1-.9,0-1.9.1-2.8.1l-1.2.1-1.1-.1a27.15,27.15,0,0,0-2.8-.1c-2.1,0-4.3,0-6.1.1-.8,0-1.5.1-2.3.1-.6,0-1.2.1-1.8.1-1.9.1-3.7.1-5.6.2s-4,.1-6,.2l-7.2.3-5,.2c-1.9.1-3.8.1-5.7.2h-.5c-4.3.2-8.8.4-13.3.7-5.2.3-10.4.6-15.6,1l-1.6.2c-3.6.2-7.2.5-10.8.8-1.5.1-3,.3-4.4.4l-3.4.3-3.8.3c-1.9.1-3.8.3-5.8.5l-5.5.6c-1.1.1-2.2.3-3.3.4a19.42,19.42,0,0,1-2.4.2l-2.6.3c-1.2.1-2.3.3-3.5.4l-2.6.3a14.92,14.92,0,0,1-2.1.2c-1.1.1-2.3.2-3.4.4s-2.1.3-3.1.5l-1.8.3c-.5.1-1,.1-1.5.2l-9.3,1.2c-1.3.2-2.5.3-3.8.5-1,.2-2.1.3-3.1.5a20,20,0,0,0-2.4.4c-.4.1-.8.1-1.3.2s-.9.1-1.3.2l-2.1.3-1.8.3c-.9.1-1.9.3-2.8.4-1.4.2-2.8.4-4.2.7l-3.1.6c-.9.2-1.9.3-2.8.5-1.1.2-2.2.4-3.3.5-1.3.2-2.7.4-4,.7-.9.2-1.8.3-2.7.5s-1.7.3-2.5.5c-1,.2-2,.3-3,.5s-1.7.3-2.6.4l-1.6.3-1.4.3c-2,.4-3.9.7-5.9,1a15.52,15.52,0,0,0-2.1.4c-1.3.2-2.7.4-4,.7-4.3.8-8.8,1.8-13.7,2.8l-1.6.3c-2.6.5-5.3,1.1-8,1.8A43.91,43.91,0,0,0,369,311.7c-2.3,3.6-4.2,7.4-6.2,11.3-1.8,3.6-3.6,7.5-5.3,11.5-2,4.9-4.2,10.1-6.1,15.3-2.1,6-4.2,12.3-6.3,19a205.82,205.82,0,0,0-5.2,20.9l-.2,1.2c-.8,3.9-1.6,8-2.3,12-.6,3.3-1,6.7-1.4,10l-.1.9c-.3,2.7-.6,5.5-.9,8.2-.3,3.4-.5,6.8-.8,10-.1,1.3-.1,2.5-.2,3.8,0,.8-.1,1.6-.1,2.3,0,.3-.1.5-.1.7v7.9c0,.2.1.6.1.9.1.7.1,1.4.2,2.1.1.9.2,1.8.3,2.6.3,2.3.6,4.6,1,6.9a70.64,70.64,0,0,0,6.4,18,80,80,0,0,0,10.9,16.1,79.14,79.14,0,0,0,15.2,13.1A86.29,86.29,0,0,0,378,512a80.53,80.53,0,0,0,15.7,5.3c2.3.5,4.9,1,7.9,1.4,2.4.3,4.8.5,7.1.8l1.7.2c2.5.2,4.9.4,7.4.7l5.1.5c3,.3,5.9.5,8.9.8.9.1,1.8.1,2.8.2.8,0,1.5.1,2.3.1l3.6.3,4.2.3a19.27,19.27,0,0,0,2.4.1,26.35,26.35,0,0,1,2.8.2c1.6.1,3.2.3,4.8.4l3.1.3h1.5c2.5.1,5.1.3,7.6.4l1.6.1c1.1.1,2.1.1,3.2.2,1.3.1,2.7.1,4,.2s2.7.1,4.1.2c2.5.1,5.1.2,7.6.4l12.2.7,6.6.3h.7c1.9.1,3.8.2,5.7.2a13.9,13.9,0,0,0,7.5-1.8,15.93,15.93,0,0,0,4.5-3.9,74.77,74.77,0,0,1,7.2-7.6,64.85,64.85,0,0,1,11.2-8,60.36,60.36,0,0,1,15.8-6,75,75,0,0,1,11.3-1.6l1.1-.1c5.4-.6,10.8-1,15.8-1.3l10-.6,2-.1c2.2-.1,4.8-.3,7.3-.3s4.9-.1,7.3-.1c2.7,0,5.5-.1,8.2-.2H623l.3-.1.3.1C623.57,494.4,623.67,494.4,623.87,494.4Z" transform="translate(-331.97 -265.3)" fill="#fff"/><path d="M791.41,346.13a21.22,21.22,0,1,0,21.21,21.21A21.21,21.21,0,0,0,791.41,346.13Zm0,1.53a19.69,19.69,0,1,1-19.66,19.68A19.68,19.68,0,0,1,791.41,347.66Z" transform="translate(-331.97 -265.3)" fill="#fff"/><path d="M811.41,397.13a21.22,21.22,0,1,0,21.21,21.21A21.21,21.21,0,0,0,811.41,397.13Zm0,1.53a19.69,19.69,0,1,1-19.66,19.68A19.68,19.68,0,0,1,811.41,398.66Z" transform="translate(-331.97 -265.3)" fill="#fff"/><path d="M841.41,331.13a21.22,21.22,0,1,0,21.21,21.21A21.21,21.21,0,0,0,841.41,331.13Zm0,1.53a19.69,19.69,0,1,1-19.66,19.68A19.68,19.68,0,0,1,841.41,332.66Z" transform="translate(-331.97 -265.3)" fill="#fff"/><path d="M861.41,382.13a21.22,21.22,0,1,0,21.21,21.21A21.21,21.21,0,0,0,861.41,382.13Zm0,1.53a19.69,19.69,0,1,1-19.66,19.68A19.68,19.68,0,0,1,861.41,383.66Z" transform="translate(-331.97 -265.3)" fill="#fff"/><path d="M742.41,369.13a21.22,21.22,0,1,0,21.21,21.21A21.21,21.21,0,0,0,742.41,369.13Zm0,1.53a19.69,19.69,0,1,1-19.66,19.68A19.68,19.68,0,0,1,742.41,370.66Z" transform="translate(-331.97 -265.3)" fill="#fff"/><path d="M762.41,420.13a21.22,21.22,0,1,0,21.21,21.21A21.21,21.21,0,0,0,762.41,420.13Zm0,1.53a19.69,19.69,0,1,1-19.66,19.68A19.68,19.68,0,0,1,762.41,421.66Z" transform="translate(-331.97 -265.3)" fill="#fff"/><path d="M440.89,345.85A59,59,0,1,0,455,347.56a58.88,58.88,0,0,0-14.11-1.71Zm0,2.14a56.88,56.88,0,1,1-13.45,1.61A57.32,57.32,0,0,1,440.89,348Z" transform="translate(-331.97 -265.3)" fill="#fff"/><path d="M439.79,459.85c-.75,0-1.48,0-2.2-.06-7.52-.41-13.37-2.81-16.06-6.57-2.16-3-.78-7.53.68-12.29,1.89-6.11,3.83-12.44-.65-16.87s-10.78-2.53-16.84-.67c-4.83,1.49-9.4,2.9-12.28.32-5.08-4.54-6.92-14.4-6.49-22.16.42-7.52,2.81-13.37,6.58-16.06,3-2.15,7.46-.79,12.18.65,6.06,1.85,12.34,3.76,16.78-.68s2.54-10.72.69-16.79c-1.44-4.72-2.8-9.17-.65-12.18,2.69-3.77,8.54-6.16,16.06-6.58,7.77-.42,17.62,1.42,22.16,6.49,2.58,2.88,1.17,7.45-.32,12.28-1.86,6.06-3.79,12.33.67,16.84s10.75,2.54,16.87.66c4.76-1.47,9.26-2.85,12.28-.69,3.77,2.69,6.16,8.54,6.58,16.06.43,7.76-1.41,17.62-6.49,22.16-2.89,2.59-7.5,1.16-12.38-.36-6.11-1.89-12.43-3.86-16.93.64s-2.53,10.82-.64,16.93c1.52,4.88,2.95,9.49.36,12.38C455.63,457.91,447.12,459.85,439.79,459.85Zm-25.25-40.49a11.46,11.46,0,0,1,8.43,3.28c5.34,5.28,3.12,12.51,1.16,18.88-1.32,4.28-2.56,8.31-1,10.53,2.3,3.22,7.73,5.37,14.54,5.74,8.61.47,17.07-1.92,20.56-5.82,1.83-2.05.62-6-.78-10.46-1.88-6.05-4.22-13.58,1.14-18.93s12.88-3,18.93-1.14c4.51,1.41,8.41,2.62,10.46.78,3.9-3.49,6.3-12,5.82-20.56-.37-6.81-2.52-12.24-5.74-14.54h0c-2.22-1.59-6.26-.35-10.53,1-6.38,2-13.6,4.18-18.88-1.16s-3-12.83-1.16-18.83c1.38-4.47,2.56-8.33.74-10.37-3.49-3.9-12-6.3-20.56-5.82-6.81.37-12.24,2.52-14.54,5.74-1.58,2.21-.36,6.2.93,10.44,1.93,6.32,4.11,13.49-1.18,18.78s-12.46,3.11-18.79,1.18c-4.23-1.29-8.22-2.51-10.43-.93-3.22,2.3-5.37,7.73-5.74,14.54-.48,8.61,1.92,17.07,5.82,20.56,2,1.82,5.9.64,10.36-.74C407.36,420.49,411,419.36,414.54,419.36Z" transform="translate(-331.97 -265.3)" fill="#fff"/><path d="M618,414.21a4.25,4.25,0,1,1,4.25-4.25A4.25,4.25,0,0,1,618,414.21Zm0-6.8a2.55,2.55,0,1,0,2.55,2.55A2.55,2.55,0,0,0,618,407.41Z" transform="translate(-331.97 -265.3)" fill="#fff"/><path d="M618,373.1a4.25,4.25,0,1,1,4.25-4.25A4.25,4.25,0,0,1,618,373.1Zm0-6.8a2.55,2.55,0,1,0,2.55,2.55A2.55,2.55,0,0,0,618,366.3Z" transform="translate(-331.97 -265.3)" fill="#fff"/><path d="M475.46,500.85H454l-1.57-.21c-1.09-.16-2.21-.32-3.31-.41-3.8-.35-7.59-.65-11.39-1-7.86-.62-16-1.27-23.94-2.27-20.39-2.57-36.35-12.18-48.77-29.37-7.64-10.57-11.61-19.71-12.88-29.65V418.71c.23-1.54.43-3.08.64-4.62.46-3.34.92-6.79,1.53-10.17l.37-2.09c2.17-12.15,4.42-24.71,9.18-36.64,2.17-5.41,4-11.09,5.8-16.58,1.85-5.69,3.77-11.57,6.05-17.22s5-12.39,12.27-13.53c7.57-1.18,15.34-.66,22.87-.16l2.35.15c24.41,1.57,47.24,9.3,66.34,16.66l.84.32c8.21,3.16,16.7,6.42,23.95,11.77,16,11.81,25.69,28,28.79,48.1V414c-3,17.28-10.41,34.1-22.73,51.43-8.85,12.46-20.19,24-34.64,35.19Zm-21.27-2h20.59c14.17-11,25.29-22.33,34-34.55,12.13-17.06,19.44-33.59,22.37-50.54V394.93c-3-19.53-12.45-35.25-28-46.72-7-5.19-15.39-8.4-23.47-11.51l-.85-.33c-19-7.3-41.6-15-65.75-16.52l-2.36-.16c-7.41-.49-15.08-1-22.42.15-6.15,1-8.58,7-10.73,12.3-2.25,5.59-4.16,11.44-6,17.09s-3.65,11.23-5.84,16.7c-4.69,11.74-6.92,24.2-9.07,36.25l-.37,2.09c-.6,3.34-1.06,6.77-1.52,10.09q-.3,2.28-.63,4.56v18.87c1.23,9.56,5.09,18.41,12.51,28.67,12.08,16.71,27.59,26.06,47.4,28.55,7.91,1,16,1.64,23.85,2.27,3.8.3,7.61.6,11.41.94,1.14.11,2.3.27,3.41.43Z" transform="translate(-331.97 -265.3)" fill="#fff"/><path d="M793.19,500.85H771.78l-.27-.21c-14.46-11.22-25.79-22.73-34.65-35.19-12.32-17.33-19.75-34.15-22.72-51.43l0-.17V394.7c3.1-20.1,12.79-36.29,28.8-48.1,7.24-5.35,15.73-8.61,23.94-11.77l.84-.32c19.11-7.36,41.93-15.09,66.35-16.66l2.35-.15c7.52-.5,15.3-1,22.87.16,7.26,1.14,10,8,12.27,13.53s4.19,11.53,6,17.22c1.79,5.49,3.64,11.17,5.8,16.58,4.77,11.93,7,24.49,9.18,36.64l.37,2.09c.61,3.38,1.08,6.83,1.53,10.17.21,1.54.42,3.08.64,4.62V438c-1.26,9.94-5.23,19.08-12.87,29.65-12.43,17.19-28.38,26.8-48.78,29.37-8,1-16.08,1.65-23.94,2.27-3.79.3-7.59.6-11.38,1-1.1.09-2.23.25-3.32.41l-1.57.21Zm-20.73-2h20.6l1.48-.2c1.12-.16,2.27-.32,3.42-.43,3.8-.34,7.6-.64,11.4-.94,7.84-.63,15.94-1.27,23.85-2.27,19.82-2.49,35.32-11.84,47.41-28.55,7.41-10.26,11.27-19.11,12.5-28.67V418.92c-.22-1.52-.42-3-.63-4.56-.45-3.32-.92-6.75-1.51-10.09l-.38-2.09c-2.15-12.05-4.38-24.51-9.07-36.25-2.19-5.47-4-11.18-5.84-16.7s-3.74-11.5-6-17.09c-2.14-5.32-4.57-11.34-10.72-12.3-7.35-1.15-15-.64-22.43-.15l-2.35.16c-24.15,1.55-46.79,9.22-65.76,16.52l-.84.33c-8.09,3.11-16.45,6.32-23.47,11.51-15.55,11.47-25,27.19-28,46.72v18.83c2.93,16.95,10.25,33.48,22.37,50.53C747.18,476.52,758.29,487.82,772.46,498.85Z" transform="translate(-331.97 -265.3)" fill="#fff"/><path id="ad7f44ec-db9d-4d81-9f31-b2e36ebfb934" data-name="path29" d="M618,402.81c-5,0-9,2.08-9,7.06s4.05,7,9,7h11.17c5,0,9-2.05,9-7s-4.05-7.06-9-7.06Zm0,1.93h11.17c3.93,0,7.09,1.19,7.09,5.13s-3.16,5.09-7.09,5.09H618c-3.93,0-7.09-1.16-7.09-5.09S614.11,404.74,618,404.74Z" transform="translate(-331.97 -265.3)" fill="#fff"/><path id="f1342471-3b4d-43fa-9e53-9da1404b7691" data-name="path29" d="M618,361.81c-5,0-9,2.08-9,7.06s4.05,7,9,7h11.17c5,0,9-2.05,9-7s-4.05-7.06-9-7.06Zm0,1.93h11.17c3.93,0,7.09,1.19,7.09,5.13s-3.16,5.09-7.09,5.09H618c-3.93,0-7.09-1.16-7.09-5.09S614.11,363.74,618,363.74Z" transform="translate(-331.97 -265.3)" fill="#fff"/><circle cx="108.92" cy="100.02" r="3" fill="#fff"/><circle cx="69.38" cy="139.55" r="3" fill="#fff"/><circle cx="108.92" cy="179.09" r="3" fill="#fff"/><circle cx="148.45" cy="139.55" r="3" fill="#fff"/></svg>