<?xml version="1.0" encoding="utf-8"?>
<!-- Generator: Adobe Illustrator 13.0.0, SVG Export Plug-In . SVG Version: 6.00 Build 14948)  -->
<!DOCTYPE svg [
	<!ENTITY ns_flows "http://ns.adobe.com/Flows/1.0/">
	<!ENTITY ns_extend "http://ns.adobe.com/Extensibility/1.0/">
	<!ENTITY ns_ai "http://ns.adobe.com/AdobeIllustrator/10.0/">
	<!ENTITY ns_graphs "http://ns.adobe.com/Graphs/1.0/">
	<!ENTITY ns_vars "http://ns.adobe.com/Variables/1.0/">
	<!ENTITY ns_imrep "http://ns.adobe.com/ImageReplacement/1.0/">
	<!ENTITY ns_sfw "http://ns.adobe.com/SaveForWeb/1.0/">
	<!ENTITY ns_custom "http://ns.adobe.com/GenericCustomNamespace/1.0/">
	<!ENTITY ns_adobe_xpath "http://ns.adobe.com/XPath/1.0/">
]>
<svg version="1.2" baseProfile="tiny"
	 id="Layer_3" xmlns:x="&ns_extend;" xmlns:i="&ns_ai;" xmlns:graph="&ns_graphs;" xmlns:dc="http://purl.org/dc/elements/1.1/" xmlns:rdf="http://www.w3.org/1999/02/22-rdf-syntax-ns#" xmlns:cc="http://creativecommons.org/ns#"
	 xmlns="http://www.w3.org/2000/svg" xmlns:xlink="http://www.w3.org/1999/xlink" xmlns:a="http://ns.adobe.com/AdobeSVGViewerExtensions/3.0/"
	 x="0px" y="0px" width="598.189px" height="350.26px" viewBox="0 0 598.189 350.26" xml:space="preserve">
<metadata  id="metadata55">
	<rdf:RDF>
		<cc:Work  rdf:about="">
			<dc:format>image/svg+xml</dc:format>
			<dc:type  rdf:resource="http://purl.org/dc/dcmitype/StillImage"></dc:type>
			<dc:title></dc:title>
		</cc:Work>
	</rdf:RDF>
	<sfw  xmlns="&ns_sfw;">
		<slices></slices>
		<sliceSourceBounds  height="299.999" width="456" y="394.54" x="736.998" bottomLeftOrigin="true"></sliceSourceBounds>
	</sfw>
</metadata>
<g>
	<path fill="#F4F4F4" d="M98.749,320.09c-12.79,0-23.154-10.365-23.156-23.154l0,0l0.002-99.69
		c0-12.787,10.364-23.154,23.154-23.154l0,0h99.692c12.788,0,23.152,10.367,23.154,23.154l0,0v99.69
		c-0.002,12.789-10.367,23.154-23.154,23.154l0,0H98.749L98.749,320.09z M77.595,197.245v99.69
		c0.021,11.685,9.471,21.133,21.154,21.154l0,0h99.692c11.681-0.021,21.131-9.47,21.152-21.154l0,0l0.002-99.69
		c-0.023-11.683-9.473-21.133-21.154-21.154l0,0H98.749C87.066,176.112,77.616,185.563,77.595,197.245L77.595,197.245z"/>
	<path fill="#F4F4F4" d="M112.703,291.706c-8.684-0.002-15.723-7.041-15.723-15.726l0,0v-71.781c0-8.685,7.039-15.724,15.723-15.726
		l0,0h71.782c8.685,0.002,15.724,7.041,15.724,15.726l0,0v71.781c0,8.685-7.039,15.724-15.724,15.726l0,0H112.703L112.703,291.706z
		 M98.979,204.199v71.781c0.015,7.58,6.145,13.71,13.724,13.725l0,0h71.782c7.579-0.015,13.711-6.145,13.724-13.725l0,0v-71.781
		c-0.013-7.58-6.145-13.71-13.724-13.725l0,0h-71.782C105.126,190.489,98.994,196.622,98.979,204.199L98.979,204.199z"/>
</g>
<g>
	<path fill="#F4F4F4" d="M253.748,320.09c-12.787,0-23.154-10.365-23.154-23.154l0,0v-99.69c0-12.787,10.367-23.154,23.154-23.154
		l0,0h99.692c12.787,0,23.153,10.367,23.153,23.154l0,0v99.69c0,12.789-10.366,23.154-23.153,23.154l0,0H253.748L253.748,320.09z
		 M232.594,197.245v99.69c0.021,11.685,9.471,21.133,21.154,21.154l0,0h99.692c11.683-0.021,21.133-9.47,21.153-21.154l0,0v-99.69
		c-0.021-11.683-9.471-21.133-21.153-21.154l0,0h-99.692C242.065,176.112,232.615,185.563,232.594,197.245L232.594,197.245z"/>
	<path fill="#F4F4F4" d="M267.704,291.706c-8.684-0.002-15.724-7.041-15.724-15.726l0,0l-0.002-71.781
		c0.002-8.685,7.042-15.724,15.726-15.726l0,0h71.782c8.685,0.002,15.724,7.041,15.724,15.726l0,0v71.781
		c0,8.685-7.041,15.724-15.724,15.726l0,0H267.704L267.704,291.706z M253.98,204.199v71.781c0.012,7.58,6.145,13.71,13.724,13.725
		l0,0h71.782c7.579-0.015,13.709-6.145,13.724-13.725l0,0v-71.781c-0.015-7.58-6.146-13.71-13.724-13.725l0,0h-71.782
		C260.125,190.489,253.992,196.622,253.98,204.199L253.98,204.199z"/>
</g>
<g>
	<path fill="#F4F4F4" d="M253.749,166.091c-12.788-0.002-23.153-10.366-23.155-23.154l0,0V43.245
		c0.002-12.788,10.368-23.154,23.155-23.154l0,0h99.69c12.788,0,23.153,10.366,23.155,23.154l0,0v99.692
		c-0.002,12.788-10.367,23.152-23.155,23.154l0,0H253.749L253.749,166.091z M232.594,43.245v99.692
		c0.021,11.684,9.471,21.132,21.155,21.153l0,0h99.69c11.684-0.021,21.133-9.469,21.153-21.153l0,0V43.245
		c-0.021-11.682-9.47-21.132-21.153-21.153l0,0h-99.69C242.065,22.112,232.615,31.563,232.594,43.245L232.594,43.245z"/>
	<path fill="#F4F4F4" d="M267.703,137.705c-8.683,0-15.723-7.038-15.725-15.723l0,0V50.201c0.002-8.685,7.04-15.725,15.725-15.725
		l0,0h71.781c8.686,0,15.725,7.04,15.725,15.725l0,0v71.781c0,8.685-7.041,15.723-15.725,15.723l0,0H267.703L267.703,137.705z
		 M253.978,50.201v71.781c0.015,7.58,6.146,13.709,13.725,13.723l0,0h71.781c7.58-0.014,13.711-6.143,13.726-13.723l0,0
		l-0.002-71.781c-0.013-7.58-6.146-13.711-13.724-13.726l0,0h-71.781C260.125,36.49,253.993,42.623,253.978,50.201L253.978,50.201z"
		/>
</g>
<g>
	<path fill="#F4F4F4" d="M408.749,320.09c-12.789,0-23.154-10.365-23.156-23.154l0,0l0.002-99.69
		c0-12.788,10.365-23.153,23.154-23.153l0,0h99.69c12.788,0,23.153,10.365,23.153,23.153l0,0v99.69
		c0,12.789-10.365,23.154-23.153,23.154l0,0H408.749L408.749,320.09z M387.595,197.245v99.69
		c0.021,11.684,9.471,21.134,21.154,21.154l0,0h99.69c11.683-0.021,21.133-9.471,21.153-21.154l0,0v-99.69
		c-0.021-11.683-9.471-21.133-21.153-21.153l0,0h-99.69C397.065,176.112,387.615,185.563,387.595,197.245L387.595,197.245z"/>
	<path fill="#F4F4F4" d="M406.979,275.98V204.2c0-8.687,7.039-15.726,15.726-15.726l0,0h71.78c8.687,0,15.723,7.039,15.723,15.726
		l0,0v71.78c0,8.685-7.039,15.724-15.723,15.724l0,0l-71.78,0.002C414.02,291.704,406.979,284.665,406.979,275.98L406.979,275.98z
		 M408.978,204.2v71.78c0.015,7.581,6.146,13.71,13.727,13.725l0,0h71.78c7.579-0.015,13.711-6.144,13.727-13.725l0,0l-0.003-71.78
		c-0.013-7.579-6.145-13.711-13.724-13.726l0,0h-71.78C415.125,190.489,408.992,196.621,408.978,204.2L408.978,204.2z"/>
</g>
<g>
	<path fill="#F4F4F4" d="M295.038,90.629l-7.701-23.053l-7.651,23.053h-8.014l-11.198-39.8h9.258l6.854,24.332l7.637-24.332h6.261
		l7.938,23.714l6.566-23.714h7.941v1.001V50.83h1.333l-11.653,39.8H295.038L295.038,90.629z M296.478,88.629h4.633l10.483-35.8
		h-5.087l-7.904,28.558l-9.559-28.558h-3.351l-9.21,29.349l-8.266-29.349h-5.105l10.076,35.8h5.054l9.089-27.382L296.478,88.629
		L296.478,88.629z"/>
</g>
<g>
	<path fill="#F4F4F4" d="M134.293,244.629l-3.238-9.128h-11.17l-3.241,9.128h-9.307l14.16-39.8h7.943l13.683,38.465l-0.941,0.336
		v-1.001v1.001l0.941-0.336l0.477,1.335H134.293L134.293,244.629z M132.465,233.504l3.243,9.125h5.057l-12.734-35.801h-5.123
		l-12.733,35.801h5.059l3.238-9.125H132.465L132.465,233.504z M120.142,228.807l5.293-15.068l4.891,13.733l-0.941,0.335v-0.999
		v0.999l0.941-0.335l0.477,1.335H120.142L120.142,228.807z M122.965,226.808h5.002l-2.52-7.071L122.965,226.808L122.965,226.808z"/>
</g>
<g>
	<path fill="#F4F4F4" d="M269.082,244.546c-2.297-0.556-4.097-1.224-5.433-2.071l0,0l-0.522-0.334l1.086-10.563l1.482,1.457
		c1.021,1.002,2.507,1.901,4.487,2.652l0,0c1.938,0.733,4.163,1.109,6.693,1.109l0,0c2.15,0.006,3.676-0.345,4.541-0.884l0,0
		c0.853-0.552,1.182-1.136,1.211-2.237l0,0c-0.004-0.639-0.145-1.157-0.427-1.63l0,0c-0.315-0.528-0.715-0.984-1.222-1.385l0,0
		c-0.531-0.419-1.109-0.775-1.741-1.069l0,0c-0.666-0.31-1.321-0.564-1.993-0.778l0,0l-5.134-1.813l-2.15-0.913
		c-2.366-0.979-4.169-2.164-5.366-3.646l0,0c-1.219-1.514-1.833-3.54-1.949-6.025l0,0c0-1.565,0.296-3.094,0.881-4.558l0,0
		c0.595-1.486,1.511-2.82,2.724-3.973l0,0c1.23-1.168,2.774-2.09,4.603-2.774l0,0c1.868-0.701,4.021-1.037,6.455-1.037l0,0
		c1.238,0,2.484,0.096,3.739,0.282l0,0c1.233,0.185,2.409,0.415,3.524,0.692l0,0c1.12,0.282,2.138,0.61,3.057,0.993l0,0
		c0.894,0.374,1.634,0.73,2.235,1.091l0,0l0.543,0.323l-0.913,9.206l-1.325-0.719c-4.083-2.219-7.628-3.282-10.591-3.28l0,0
		c-0.885,0-1.71,0.068-2.474,0.201l0,0c-0.748,0.13-1.378,0.336-1.903,0.607l0,0c-0.514,0.265-0.889,0.58-1.167,0.949l0,0
		c-0.236,0.323-0.363,0.69-0.369,1.238l0,0c0.004,0.785,0.185,1.244,0.433,1.534l0,0c0.317,0.371,0.856,0.763,1.65,1.117l0,0
		c0.83,0.373,1.901,0.768,3.208,1.172l0,0c1.362,0.423,2.927,0.98,4.71,1.671l0,0l2.909,1.132c0.835,0.319,1.688,0.766,2.565,1.338
		l0,0c0.908,0.593,1.742,1.32,2.499,2.173l0,0c0.775,0.875,1.416,1.896,1.922,3.042l0,0c0.529,1.204,0.786,2.546,0.786,3.993l0,0
		c0,1.235-0.153,2.548-0.454,3.938l0,0c-0.327,1.51-1.063,2.919-2.165,4.194l0,0c-1.146,1.331-2.768,2.376-4.814,3.193l0,0
		c-2.125,0.842-4.846,1.228-8.2,1.231l0,0v-1.002v-0.999c3.197,0.002,5.695-0.384,7.46-1.089l0,0
		c1.839-0.733,3.172-1.632,4.041-2.642l0,0c0.915-1.063,1.472-2.156,1.723-3.311l0,0c0.276-1.273,0.411-2.444,0.411-3.515l0,0
		c-0.002-1.215-0.213-2.267-0.618-3.189l0,0c-0.431-0.977-0.96-1.812-1.588-2.519l0,0c-0.649-0.73-1.346-1.336-2.092-1.825l0,0
		c-0.779-0.508-1.511-0.887-2.194-1.146l0,0l-2.913-1.134c-1.75-0.678-3.278-1.22-4.58-1.624l0,0c-1.36-0.423-2.5-0.839-3.434-1.258
		l0,0c-0.973-0.438-1.765-0.965-2.345-1.637l0,0c-0.653-0.754-0.92-1.752-0.918-2.84l0,0c-0.004-0.892,0.247-1.746,0.767-2.438l0,0
		c0.475-0.633,1.109-1.148,1.854-1.528l0,0c0.736-0.38,1.563-0.641,2.474-0.798l0,0c0.892-0.154,1.829-0.23,2.817-0.23l0,0
		c3.082,0.002,6.479,0.966,10.221,2.832l0,0l0.49-4.951c-0.399-0.206-0.876-0.428-1.428-0.657l0,0
		c-0.811-0.336-1.735-0.639-2.774-0.897l0,0c-1.047-0.262-2.159-0.479-3.336-0.657l0,0c-1.159-0.173-2.306-0.258-3.442-0.26l0,0
		c-2.25,0-4.163,0.313-5.751,0.91l0,0c-1.627,0.609-2.926,1.399-3.927,2.352l0,0c-1.022,0.975-1.76,2.053-2.246,3.268l0,0
		c-0.495,1.236-0.738,2.499-0.74,3.766l0,0c0.102,2.169,0.638,3.744,1.507,4.818l0,0c0.892,1.113,2.401,2.158,4.58,3.057l0,0
		l2.103,0.896l5.046,1.779c0.726,0.231,1.458,0.518,2.198,0.86l0,0c0.769,0.358,1.486,0.796,2.144,1.316l0,0
		c0.682,0.541,1.254,1.188,1.694,1.926l0,0c0.475,0.792,0.711,1.703,0.709,2.656l0,0c0.029,1.645-0.767,3.123-2.167,3.944l0,0
		c-1.385,0.837-3.234,1.173-5.583,1.177l0,0c-2.727,0-5.2-0.406-7.4-1.239l0,0c-1.409-0.535-2.635-1.151-3.675-1.865l0,0
		l-0.554,5.401c1.03,0.552,2.472,1.068,4.303,1.509l0,0c2.144,0.52,4.531,0.783,7.164,0.783l0,0v0.999v1.002
		C273.948,245.384,271.402,245.107,269.082,244.546L269.082,244.546z"/>
</g>
<g>
	<path fill="#F4F4F4" d="M436.899,244.628h-15.148V204.83h15.148c2.842,0,5.481,0.458,7.894,1.389l0,0
		c2.405,0.929,4.494,2.268,6.233,4.006l0,0c1.739,1.739,3.093,3.843,4.057,6.28l0,0c0.97,2.455,1.447,5.204,1.447,8.224l0,0
		c0,3.02-0.478,5.777-1.447,8.249l0,0c-0.962,2.456-2.317,4.564-4.061,6.286l0,0c-1.739,1.721-3.826,3.049-6.229,3.975l0,0
		c-2.412,0.933-5.052,1.392-7.894,1.392l0,0V244.628L436.899,244.628z M423.752,242.629h13.147v0.999v1v-1v-0.999
		c2.628,0,5.013-0.423,7.173-1.257l0,0c2.171-0.836,4.006-2.012,5.544-3.531l0,0c1.531-1.515,2.732-3.367,3.606-5.592l0,0
		c0.865-2.209,1.307-4.708,1.307-7.521l0,0c0-2.812-0.441-5.301-1.307-7.488l0,0c-0.874-2.209-2.075-4.063-3.613-5.601l0,0
		c-1.535-1.536-3.369-2.716-5.537-3.554l0,0c-2.16-0.834-4.545-1.255-7.173-1.258l0,0h-13.147V242.629L423.752,242.629z
		 M436.899,238.04h-8.236v-26.623h8.236v1v0.999v-0.999v-1c3.786-0.01,6.884,1.161,8.987,3.568l0,0
		c2.095,2.385,3.086,5.687,3.084,9.743l0,0c0.002,4.057-0.989,7.359-3.084,9.745l0,0c-2.093,2.394-5.168,3.566-8.927,3.566l0,0
		C436.94,238.04,436.92,238.04,436.899,238.04L436.899,238.04z M430.664,236.041h6.235c3.413-0.01,5.807-0.988,7.484-2.887l0,0
		c1.683-1.918,2.584-4.673,2.586-8.426l0,0c-0.002-3.753-0.903-6.508-2.586-8.425l0,0c-1.678-1.898-4.071-2.875-7.484-2.886l0,0
		v-0.002h-6.235V236.041L430.664,236.041z"/>
</g>
</svg>
