<?xml version="1.0" encoding="utf-8"?>
<!-- Generator: Adobe Illustrator 13.0.0, SVG Export Plug-In . SVG Version: 6.00 Build 14948)  -->
<svg version="1.2" baseProfile="tiny" id="Layer_2" xmlns="http://www.w3.org/2000/svg" xmlns:xlink="http://www.w3.org/1999/xlink"
	 x="0px" y="0px" width="598.189px" height="350.26px" viewBox="0 0 598.189 350.26" xml:space="preserve">
<path fill="#F4F4F4" d="M38.671,88.637"/>
<path fill="#F4F4F4" d="M39.845,85.162c0.893-1.426,4.216-6.902,6.056-9.507l0,0c4.764-7.16,12.915-11.879,22.161-11.879l0,0h38.659
	v2.001H68.062c-8.555-0.002-16.083,4.362-20.512,11.009l0,0c-1.775,2.513-5.108,7.996-6.009,9.435l0,0v0.002L39.845,85.162
	L39.845,85.162z"/>
<path fill="#F4F4F4" d="M68.982,303.271c-9.246,0-17.395-4.717-22.143-11.855l0,0c-1.858-2.626-5.181-8.103-6.072-9.529l0,0
	l1.695-1.061c0.9,1.44,4.232,6.924,6.023,9.459l0,0c4.412,6.625,11.941,10.988,20.496,10.986l0,0l38.661,0.002v2L68.982,303.271
	L68.982,303.271z"/>
<path fill="#F4F4F4" d="M37.646,90.07"/>
<path fill="#F4F4F4" d="M38.671,279.343"/>
<path fill="#F4F4F4" d="M37.646,277.911"/>
<path fill="#F4F4F4" d="M556.966,88.637"/>
<path fill="#F4F4F4" d="M548.069,76.762c-4.41-6.624-11.938-10.987-20.496-10.987l0,0h-38.658v-2h38.658
	c9.249,0,17.398,4.72,22.146,11.856l0,0c1.857,2.627,5.18,8.104,6.072,9.528l0,0v0.002l-1.693,1.06
	C553.194,84.781,549.863,79.298,548.069,76.762L548.069,76.762z"/>
<path fill="#F4F4F4" d="M557.99,90.07"/>
<path fill="#F4F4F4" d="M556.966,279.343"/>
<path fill="#F4F4F4" d="M557.99,277.911"/>
<path fill="#F4F4F4" d="M132.685,272.844c-1.739,0-3.151-1.409-3.151-3.15l0,0V81.98c0-1.741,1.41-3.151,3.151-3.151l0,0h330.268
	c1.741,0,3.148,1.41,3.15,3.151l0,0v187.713h-0.002c0,1.741-1.41,3.15-3.148,3.15l0,0H132.685L132.685,272.844z M131.533,81.98
	v187.713c0.002,0.636,0.514,1.149,1.152,1.149l0,0l330.268,0.002c0.636-0.002,1.147-0.516,1.149-1.151l0,0V81.98
	c-0.002-0.636-0.517-1.149-1.149-1.151l0,0H132.685C132.049,80.831,131.535,81.344,131.533,81.98L131.533,81.98z"/>
<path fill="#F4F4F4" d="M103.197,121.587c-2.269,0-4.109-1.84-4.109-4.109c0-2.27,1.84-4.109,4.109-4.109h6.758
	c2.27,0,4.109,1.839,4.109,4.109c0,2.269-1.839,4.109-4.109,4.109H103.197z"/>
<path fill="#F4F4F4" d="M486.167,121.587c-2.27,0-4.109-1.84-4.109-4.109c0-2.27,1.84-4.109,4.109-4.109h6.759
	c2.27,0,4.109,1.839,4.109,4.109c0,2.269-1.84,4.109-4.109,4.109H486.167z"/>
<path fill="#F4F4F4" d="M242.617,291.092c-1.046,0-1.894-0.849-1.894-1.893c0-1.049,0.848-1.896,1.894-1.896h4.455
	c1.046,0,1.895,0.848,1.895,1.896c0,1.044-0.848,1.893-1.895,1.893H242.617z"/>
<path fill="#F4F4F4" d="M53.491,246.307c0.002-11.773,9.545-21.316,21.316-21.318l0,0c11.773,0.002,21.314,9.545,21.316,21.318l0,0
	c-0.002,11.771-9.543,21.315-21.316,21.318l0,0C63.036,267.622,53.493,258.078,53.491,246.307L53.491,246.307z M55.493,246.307
	c0.019,10.667,8.649,19.297,19.314,19.315l0,0c10.667-0.019,19.297-8.648,19.316-19.315l0,0
	c-0.019-10.668-8.649-19.298-19.316-19.316l0,0C64.142,227.009,55.512,235.639,55.493,246.307L55.493,246.307z"/>
<path fill="#F4F4F4" d="M27.977,227.222c0,1.738-1.409,3.147-3.148,3.147s-3.149-1.409-3.149-3.147c0-1.741,1.41-3.15,3.149-3.15
	S27.977,225.48,27.977,227.222z"/>
<path fill="#F4F4F4" d="M30.528,168.618"/>
<path fill="#F4F4F4" d="M111.022,168.618"/>
<path fill="#F4F4F4" d="M60.201,147.086"/>
<g>
	<path fill="#F4F4F4" d="M71.049,163.092c-1.24,0-2.392-0.439-3.282-1.172l0,0l-0.043-0.035l-9.49-9.753
		c-0.796-0.907-1.281-2.106-1.281-3.41l0,0v-16.369c0-0.866,0.351-1.659,0.942-2.258l0,0c0.361-0.345,0.893-0.731,1.599-0.908l0,0
		c3.708-1.014,7.604-1.381,11.555-1.381l0,0h0.152c3.954,0,7.85,0.368,11.547,1.377l0,0c0.714,0.181,1.248,0.566,1.638,0.94l0,0
		c0.563,0.571,0.911,1.365,0.911,2.229l0,0v16.369c0,1.302-0.482,2.502-1.315,3.451l0,0l-9.451,9.708l-0.045,0.039
		c-0.893,0.731-2.042,1.172-3.284,1.172l0,0v-1v-1c0.757-0.002,1.44-0.26,1.988-0.698l0,0l9.323-9.578
		c0.491-0.561,0.784-1.287,0.784-2.094l0,0v-16.369c0-0.329-0.125-0.612-0.306-0.796l0,0c-0.252-0.228-0.404-0.341-0.759-0.439l0,0
		c-3.479-0.953-7.201-1.312-11.03-1.312l0,0h-0.152c-3.829,0-7.548,0.359-11.038,1.313l0,0c-0.347,0.097-0.499,0.208-0.718,0.407
		l0,0c-0.211,0.217-0.339,0.501-0.339,0.827l0,0v16.369c0,0.805,0.296,1.534,0.75,2.055l0,0l9.369,9.626
		c0.544,0.432,1.227,0.689,1.977,0.689l0,0h0.152v1v1H71.049L71.049,163.092z"/>
	<path fill="#F4F4F4" d="M59.5,208.407c-0.712-0.182-1.243-0.565-1.639-0.941l0,0c-0.558-0.569-0.908-1.362-0.908-2.228l0,0v-16.369
		c0-1.303,0.485-2.502,1.317-3.45l0,0l9.451-9.709l0.048-0.039c0.89-0.729,2.04-1.17,3.28-1.17l0,0v1.001v1
		c-0.751,0-1.433,0.256-1.978,0.688l0,0l-9.331,9.586c-0.492,0.562-0.787,1.288-0.787,2.094l0,0v16.369
		c0,0.326,0.128,0.611,0.305,0.797l0,0c0.252,0.228,0.407,0.341,0.762,0.442l0,0c3.48,0.949,7.199,1.309,11.028,1.309l0,0h0.153
		c3.828,0,7.548-0.359,11.037-1.312l0,0c0.347-0.099,0.502-0.212,0.719-0.406l0,0c0.212-0.219,0.338-0.504,0.34-0.83l0,0v-16.369
		c-0.002-0.806-0.295-1.532-0.75-2.053l0,0l-9.369-9.628c-0.543-0.432-1.229-0.688-1.977-0.688l0,0h-0.153v-1v-0.999l0.153-0.002
		c1.241,0,2.391,0.442,3.283,1.17l0,0l0.043,0.035l9.489,9.752c0.797,0.909,1.282,2.108,1.282,3.411l0,0l-0.002,16.369
		c0.002,0.865-0.349,1.658-0.941,2.261l0,0c-0.361,0.345-0.892,0.727-1.598,0.906l0,0c-3.706,1.014-7.604,1.379-11.555,1.379l0,0
		l-0.153,0.002C67.097,209.784,63.2,209.419,59.5,208.407L59.5,208.407z"/>
	<path fill="#F4F4F4" d="M91.199,182.966c-1.303,0.002-2.5-0.481-3.451-1.313l0,0l-9.714-9.459L78,172.155
		c-0.73-0.891-1.171-2.042-1.171-3.282l0,0v-0.152c0-1.241,0.44-2.391,1.171-3.282l0,0l0.033-0.041l9.756-9.493
		c0.909-0.796,2.107-1.28,3.41-1.28l0,0h16.37c0.866,0,1.658,0.35,2.261,0.942l0,0c0.344,0.362,0.727,0.893,0.903,1.597l0,0
		c1.015,3.708,1.383,7.604,1.383,11.557l0,0v0.152c0,3.953-0.368,7.848-1.378,11.545l0,0c-0.181,0.715-0.566,1.247-0.938,1.639l0,0
		c-0.574,0.565-1.369,0.911-2.23,0.911l0,0L91.199,182.966L91.199,182.966z M89.104,180.184c0.562,0.488,1.288,0.782,2.095,0.782
		l0,0l16.37,0.002c0.329-0.002,0.613-0.128,0.796-0.305l0,0c0.228-0.255,0.339-0.405,0.44-0.764l0,0
		c0.951-3.479,1.311-7.197,1.311-11.027l0,0v-0.152c0-3.83-0.36-7.548-1.313-11.038l0,0c-0.099-0.348-0.21-0.5-0.405-0.72l0,0
		c-0.216-0.209-0.504-0.337-0.829-0.337l0,0h-16.37c-0.805,0-1.531,0.294-2.056,0.749l0,0l-9.625,9.369
		c-0.433,0.545-0.687,1.225-0.688,1.978l0,0v0.152c0.002,0.752,0.255,1.434,0.688,1.977l0,0L89.104,180.184L89.104,180.184z"/>
	<path fill="#F4F4F4" d="M34.683,182.966c-0.864,0.002-1.656-0.346-2.261-0.94l0,0c-0.342-0.36-0.727-0.893-0.903-1.597l0,0
		c-1.015-3.708-1.383-7.604-1.383-11.556l0,0v-0.152c0-3.953,0.368-7.848,1.378-11.546l0,0c0.181-0.716,0.566-1.247,0.94-1.64l0,0
		c0.57-0.562,1.364-0.91,2.229-0.91l0,0h16.37c1.303,0,2.5,0.483,3.449,1.315l0,0l9.713,9.456l0.037,0.043
		c0.73,0.891,1.171,2.04,1.169,3.282l0,0l0.002,0.152c0,1.241-0.44,2.391-1.171,3.282l0,0l-0.035,0.041l-9.754,9.492
		c-0.91,0.795-2.107,1.28-3.41,1.28l0,0L34.683,182.966L34.683,182.966z M33.884,156.931c-0.227,0.251-0.337,0.403-0.438,0.759l0,0
		c-0.951,3.482-1.311,7.2-1.311,11.03l0,0v0.152c0,3.83,0.358,7.547,1.313,11.038l0,0c0.097,0.346,0.209,0.5,0.405,0.72l0,0
		c0.216,0.21,0.502,0.336,0.829,0.336l0,0h16.37c0.805,0,1.531-0.294,2.054-0.747l0,0l9.618-9.36
		c0.437-0.545,0.695-1.231,0.697-1.986l0,0v-0.152c-0.002-0.75-0.258-1.433-0.691-1.98l0,0l-9.585-9.332
		c-0.562-0.49-1.288-0.784-2.093-0.784l0,0h-16.37C34.355,156.625,34.071,156.752,33.884,156.931L33.884,156.931z"/>
</g>
<path fill="#F4F4F4" d="M25.577,168.796c0.002-25.155,20.394-45.547,45.549-45.547l0,0c25.156,0,45.547,20.392,45.547,45.547l0,0
	c0,25.155-20.392,45.547-45.547,45.549l0,0C45.971,214.343,25.579,193.951,25.577,168.796L25.577,168.796z M40.333,138.003
	c-7.882,7.883-12.755,18.764-12.755,30.792l0,0c0,12.028,4.873,22.908,12.755,30.792l0,0c7.883,7.883,18.765,12.756,30.792,12.756
	l0,0c12.028,0,22.908-4.873,30.792-12.756l0,0c7.883-7.884,12.755-18.764,12.755-30.792l0,0c0-12.028-4.873-22.91-12.755-30.792l0,0
	c-7.884-7.882-18.764-12.753-30.792-12.755l0,0C59.098,125.25,48.216,130.121,40.333,138.003L40.333,138.003z"/>
<g>
	<path fill="#F4F4F4" d="M490.574,185.438l1.812-0.844c3.477,7.489,9.425,13.603,16.792,17.281l0,0h0.002l-0.896,1.79
		C500.51,199.781,494.239,193.338,490.574,185.438L490.574,185.438z"/>
	<path fill="#F4F4F4" d="M540.75,202.306c7.43-3.46,13.503-9.361,17.18-16.671l0,0v0.003l1.785,0.896
		c-3.879,7.711-10.279,13.931-18.119,17.585l0,0L540.75,202.306L540.75,202.306z"/>
	<path fill="#F4F4F4" d="M541.691,136.767h0.002l0.894-1.788c7.785,3.903,14.056,10.371,17.705,18.301l0,0l-1.818,0.835
		C555.018,146.602,549.067,140.464,541.691,136.767L541.691,136.767z"/>
	<path fill="#F4F4F4" d="M491.033,152.227c3.895-7.824,10.377-14.125,18.332-17.792l0,0l0.835,1.816
		c-7.537,3.473-13.687,9.454-17.377,16.868l0,0L491.033,152.227L491.033,152.227z"/>
</g>
<path fill="#F4F4F4" d="M508.75,135.847c0-9.491,7.691-17.182,17.18-17.182l0,0c9.488,0,17.18,7.691,17.182,17.182l0,0
	c-0.002,9.489-7.693,17.18-17.182,17.18l0,0C516.439,153.027,508.75,145.336,508.75,135.847L508.75,135.847z M510.751,135.847
	c0.015,8.384,6.795,15.165,15.179,15.179l0,0c8.384-0.015,15.167-6.795,15.18-15.179l0,0c-0.013-8.385-6.796-15.167-15.18-15.181
	l0,0C517.546,120.681,510.766,127.462,510.751,135.847L510.751,135.847z"/>
<path fill="#F4F4F4" d="M541.689,169.829c0.002-9.489,7.693-17.181,17.181-17.181l0,0c9.489,0,17.181,7.691,17.183,17.181l0,0
	c-0.002,9.487-7.693,17.179-17.183,17.181l0,0C549.383,187.008,541.691,179.316,541.689,169.829L541.689,169.829z M543.691,169.829
	c0.015,8.384,6.797,15.164,15.179,15.181l0,0c8.385-0.017,15.166-6.797,15.181-15.181l0,0c-0.015-8.384-6.796-15.166-15.181-15.181
	l0,0C550.488,154.663,543.706,161.445,543.691,169.829L543.691,169.829z"/>
<path fill="#F4F4F4" d="M507.709,202.771c0-9.49,7.689-17.183,17.18-17.183l0,0c9.489,0,17.18,7.692,17.18,17.183l0,0h0.002
	c-0.002,9.487-7.692,17.18-17.182,17.18l0,0C515.398,219.95,507.709,212.258,507.709,202.771L507.709,202.771z M509.709,202.771
	c0.015,8.384,6.797,15.164,15.18,15.179l0,0c8.385-0.015,15.166-6.795,15.179-15.179l0,0h0.003
	c-0.016-8.387-6.797-15.167-15.182-15.182l0,0C516.506,187.604,509.724,194.384,509.709,202.771L509.709,202.771z"/>
<path fill="#F4F4F4" d="M474.77,168.788c0-9.488,7.689-17.18,17.18-17.18l0,0c9.488,0,17.178,7.692,17.178,17.18l0,0h0.002
	c-0.002,9.488-7.691,17.18-17.18,17.182l0,0C482.459,185.968,474.77,178.275,474.77,168.788L474.77,168.788z M476.771,168.788
	c0.012,8.383,6.795,15.167,15.179,15.181l0,0c8.381-0.015,15.164-6.798,15.179-15.181l0,0c-0.015-8.383-6.798-15.165-15.179-15.179
	l0,0C483.563,153.623,476.782,160.404,476.771,168.788L476.771,168.788z"/>
<path fill="#F4F4F4" d="M174.437,297.155v-1.001v-1h5.174c3.18-0.006,5.752-2.578,5.758-5.76l0,0
	c-0.006-3.18-2.579-5.753-5.758-5.757l0,0h-5.174c-3.18,0.004-5.752,2.577-5.759,5.757l0,0c0.006,3.18,2.581,5.754,5.759,5.76l0,0v1
	V297.155c-4.284-0.002-7.757-3.474-7.759-7.761l0,0c0.002-4.286,3.476-7.758,7.759-7.758l0,0h5.174c4.285,0,7.757,3.472,7.759,7.758
	l0,0c-0.002,4.285-3.474,7.759-7.759,7.761l0,0H174.437L174.437,297.155z"/>
<path fill="#F4F4F4" d="M212.074,297.155v-1.001v-1h5.172c3.18-0.006,5.754-2.578,5.758-5.76l0,0
	c-0.004-3.18-2.579-5.753-5.758-5.757l0,0h-5.172c-3.182,0.004-5.754,2.577-5.761,5.757l0,0c0.006,3.182,2.581,5.754,5.761,5.76l0,0
	v1V297.155c-4.286-0.002-7.759-3.476-7.759-7.761l0,0c0-4.286,3.474-7.758,7.759-7.758l0,0h5.172c4.286,0,7.759,3.472,7.759,7.758
	l0,0c0,4.285-3.474,7.759-7.759,7.761l0,0H212.074L212.074,297.155z"/>
<path fill="#F4F4F4" d="M382.582,297.155v-1.001v-1h5.175c3.177-0.006,5.752-2.578,5.758-5.76l0,0
	c-0.006-3.18-2.578-5.753-5.758-5.757l0,0h-5.175c-3.18,0.004-5.754,2.577-5.759,5.757l0,0c0.005,3.18,2.581,5.754,5.759,5.76l0,0v1
	V297.155c-4.285-0.002-7.76-3.474-7.76-7.761l0,0c0-4.286,3.477-7.758,7.76-7.758l0,0h5.175c4.283,0,7.757,3.472,7.759,7.758l0,0
	c-0.002,4.285-3.474,7.759-7.759,7.761l0,0H382.582L382.582,297.155z"/>
<path fill="#F4F4F4" d="M358.006,297.155v-1.001v-1h5.173c3.18-0.006,5.754-2.58,5.758-5.76l0,0
	c-0.004-3.18-2.578-5.753-5.758-5.757l0,0h-5.173c-3.182,0.004-5.756,2.577-5.761,5.757l0,0c0.005,3.182,2.579,5.754,5.761,5.76l0,0
	v1V297.155c-4.287-0.002-7.761-3.476-7.761-7.761l0,0c0-4.286,3.474-7.758,7.761-7.758l0,0h5.173c4.283,0,7.759,3.472,7.759,7.758
	l0,0c0,4.287-3.476,7.759-7.759,7.761l0,0H358.006L358.006,297.155z"/>
<circle fill="#F4F4F4" cx="560.803" cy="255.362" r="3.149"/>
<circle fill="#F4F4F4" cx="34.889" cy="255.408" r="3.149"/>
<circle fill="#F4F4F4" cx="570.738" cy="229.094" r="3.149"/>
<path fill="#F4F4F4" d="M110.867,303.635c-3.488-0.009-6.423-1.269-8.168-3.02l0,0c-2.173-2.201-4.784-5.297-7.025-8.009l0,0
	c-2.222-2.692-4.152-5.069-4.68-5.552l0,0c-2.962-2.782-6.878-4.542-11.23-4.542l0,0c0,0-28.303,0.077-37.33,0.077l0,0
	c-1.22,0-2.456-0.435-3.282-1.427l0,0c-18.513-22.505-30.45-65.229-30.478-93.558l0,0v-8.168
	c0.028-28.328,11.965-71.053,30.478-93.559l0,0c0.824-0.989,2.062-1.426,3.282-1.428l0,0c9.027,0,37.33,0.079,37.328,0.079l0,0
	c4.354-0.002,8.27-1.76,11.232-4.542l0,0c0.527-0.485,2.458-2.862,4.68-5.552l0,0c2.241-2.711,4.852-5.81,7.025-8.011l0,0
	c1.745-1.751,4.68-3.011,8.168-3.02l0,0H485.26c3.488,0.008,6.423,1.268,8.17,3.02l0,0c2.173,2.201,4.782,5.299,7.023,8.011l0,0
	c2.222,2.69,4.152,5.067,4.68,5.552l0,0c2.96,2.782,6.878,4.54,11.232,4.542l0,0c0,0,28.303-0.079,37.33-0.079l0,0
	c1.218,0.002,2.456,0.438,3.279,1.428l0,0c18.516,22.505,30.45,65.23,30.48,93.559l0,0v8.168
	c-0.03,28.328-11.965,71.053-30.48,93.558l0,0c-0.823,0.992-2.062,1.427-3.279,1.427l0,0c-9.027,0-37.33-0.077-37.328-0.077l0,0
	c-4.356,0-8.274,1.76-11.234,4.542l0,0c-0.527,0.482-2.458,2.859-4.68,5.552l0,0c-2.241,2.712-4.851,5.808-7.025,8.009l0,0
	c-1.745,1.751-4.68,3.011-8.168,3.02l0,0H110.867L110.867,303.635z M485.26,301.635c2.99,0.006,5.477-1.131,6.747-2.425l0,0
	c2.081-2.106,4.678-5.182,6.905-7.878l0,0c2.252-2.716,4.057-4.978,4.851-5.735l0,0c3.292-3.097,7.701-5.084,12.607-5.084l0,0
	c0.038,0,28.304,0.078,37.325,0.078l0,0c0.751,0,1.4-0.28,1.736-0.7l0,0c18.073-21.86,30.05-64.494,30.021-92.285l0,0v-8.168
	c0.029-27.792-11.947-70.425-30.021-92.286l0,0c-0.336-0.419-0.985-0.703-1.736-0.7l0,0c-9.021,0-37.287,0.077-37.328,0.077l0,0
	c-4.903,0.002-9.313-1.986-12.604-5.082l0,0c-0.794-0.758-2.599-3.02-4.851-5.735l0,0c-2.228-2.697-4.824-5.774-6.905-7.879l0,0
	c-1.271-1.296-3.757-2.432-6.747-2.426l0,0H110.867c-2.99-0.006-5.476,1.13-6.744,2.426l0,0c-2.083,2.105-4.68,5.182-6.908,7.879
	l0,0c-2.251,2.715-4.056,4.978-4.85,5.735l0,0c-3.292,3.096-7.702,5.084-12.607,5.082l0,0c-0.036,0-28.303-0.077-37.324-0.077l0,0
	c-0.751-0.002-1.4,0.281-1.739,0.7l0,0c-18.07,21.86-30.048,64.494-30.02,92.286l0,0v8.168c-0.028,27.791,11.95,70.425,30.02,92.285
	l0,0c0.336,0.42,0.985,0.7,1.739,0.698l0,0c9.021,0.002,37.288-0.076,37.328-0.076l0,0c4.903,0,9.311,1.987,12.603,5.084l0,0
	c0.794,0.758,2.599,3.02,4.85,5.735l0,0c2.229,2.696,4.825,5.771,6.908,7.878l0,0c1.266,1.294,3.754,2.431,6.744,2.425l0,0H485.26
	L485.26,301.635z"/>
<path fill="#F4F4F4" d="M126.614,298.96v-0.002v-0.998v-1.001h17.356c4.24-0.007,7.671-3.438,7.68-7.68l0,0
	c-0.008-4.241-3.439-7.672-7.68-7.678l0,0l-17.356-0.002c-4.243,0.008-7.674,3.438-7.68,7.68l0,0c0.006,4.242,3.437,7.673,7.68,7.68
	l0,0v1.001v0.998c-5.347,0-9.679-4.332-9.679-9.679l0,0c0-5.345,4.333-9.68,9.679-9.68l0,0h17.356c5.347,0,9.679,4.335,9.681,9.68
	l0,0c-0.002,5.347-4.334,9.679-9.681,9.681l0,0H126.614L126.614,298.96z"/>
<path fill="#F4F4F4" d="M451.656,298.958v-0.998v-1h17.359c4.239-0.009,7.673-3.439,7.681-7.681l0,0
	c-0.008-4.239-3.441-7.671-7.681-7.679l0,0h-17.359c-4.237,0.008-7.67,3.439-7.677,7.679l0,0c0.007,4.241,3.439,7.672,7.677,7.681
	l0,0v1V298.958c-5.345,0-9.677-4.332-9.677-9.679l0,0c0-5.345,4.332-9.679,9.677-9.679l0,0h17.359c5.345,0,9.679,4.332,9.681,9.679
	l0,0c-0.002,5.347-4.336,9.679-9.681,9.679l0,0H451.656L451.656,298.958z"/>
<path fill="#F4F4F4" d="M413.256,298.959v-1v-1.002l17.357,0.003c4.238-0.009,7.671-3.44,7.679-7.68l0,0
	c-0.008-4.241-3.44-7.673-7.679-7.679l0,0h-17.357c-4.243,0.006-7.673,3.438-7.681,7.679l0,0c0.008,4.241,3.438,7.671,7.681,7.677
	l0,0v1.002V298.959c-5.348,0-9.681-4.333-9.681-9.679l0,0c0-5.347,4.333-9.68,9.681-9.68l0,0h17.357c5.345,0,9.678,4.333,9.68,9.68
	l0,0c-0.002,5.346-4.335,9.679-9.68,9.679l0,0H413.256L413.256,298.959z"/>
</svg>
