<?xml version="1.0" encoding="UTF-8" standalone="no"?>
<!-- Generator: Adobe Illustrator 13.0.0, SVG Export Plug-In . SVG Version: 6.00 Build 14948)  -->

<svg
   xmlns:dc="http://purl.org/dc/elements/1.1/"
   xmlns:cc="http://creativecommons.org/ns#"
   xmlns:rdf="http://www.w3.org/1999/02/22-rdf-syntax-ns#"
   xmlns:svg="http://www.w3.org/2000/svg"
   xmlns="http://www.w3.org/2000/svg"
   xmlns:sodipodi="http://sodipodi.sourceforge.net/DTD/sodipodi-0.dtd"
   xmlns:inkscape="http://www.inkscape.org/namespaces/inkscape"
   version="1.2"
   id="Layer_2"
   x="0px"
   y="0px"
   width="598.189px"
   height="350.26px"
   viewBox="0 0 598.189 350.26"
   xml:space="preserve"
   sodipodi:docname="controller.svg"
   inkscape:version="0.92.4 (5da689c313, 2019-01-14)"><metadata
   id="metadata99"><rdf:RDF><cc:Work
       rdf:about=""><dc:format>image/svg+xml</dc:format><dc:type
         rdf:resource="http://purl.org/dc/dcmitype/StillImage" /><dc:title></dc:title></cc:Work></rdf:RDF></metadata><defs
   id="defs97" /><sodipodi:namedview
   pagecolor="#ffffff"
   bordercolor="#666666"
   borderopacity="1"
   objecttolerance="10"
   gridtolerance="10"
   guidetolerance="10"
   inkscape:pageopacity="0"
   inkscape:pageshadow="2"
   inkscape:window-width="1920"
   inkscape:window-height="1017"
   id="namedview95"
   showgrid="false"
   inkscape:zoom="0.6352507"
   inkscape:cx="341.59742"
   inkscape:cy="175.13"
   inkscape:window-x="-4"
   inkscape:window-y="-4"
   inkscape:window-maximized="1"
   inkscape:current-layer="Layer_2" />






































<g
   id="g910"><path
     id="path2"
     d="M 38.671,88.637"
     inkscape:connector-curvature="0"
     style="fill:#f4f4f4" /><path
     id="path4"
     d="m 39.845,85.162 c 0.893,-1.426 4.216,-6.902 6.056,-9.507 v 0 c 4.764,-7.16 12.915,-11.879 22.161,-11.879 v 0 h 38.659 v 2.001 H 68.062 C 59.507,65.775 51.979,70.139 47.55,76.786 v 0 c -1.775,2.513 -5.108,7.996 -6.009,9.435 v 0 0.002 z"
     inkscape:connector-curvature="0"
     style="fill:#f4f4f4" /><path
     id="path6"
     d="m 68.982,303.271 c -9.246,0 -17.395,-4.717 -22.143,-11.855 v 0 c -1.858,-2.626 -5.181,-8.103 -6.072,-9.529 v 0 l 1.695,-1.061 c 0.9,1.44 4.232,6.924 6.023,9.459 v 0 c 4.412,6.625 11.941,10.988 20.496,10.986 v 0 l 38.661,0.002 v 2 z"
     inkscape:connector-curvature="0"
     style="fill:#f4f4f4" /><path
     id="path8"
     d="M 37.646,90.07"
     inkscape:connector-curvature="0"
     style="fill:#f4f4f4" /><path
     id="path10"
     d="M 38.671,279.343"
     inkscape:connector-curvature="0"
     style="fill:#f4f4f4" /><path
     id="path12"
     d="M 37.646,277.911"
     inkscape:connector-curvature="0"
     style="fill:#f4f4f4" /><path
     id="path14"
     d="M 556.966,88.637"
     inkscape:connector-curvature="0"
     style="fill:#f4f4f4" /><path
     id="path16"
     d="m 548.069,76.762 c -4.41,-6.624 -11.938,-10.987 -20.496,-10.987 v 0 h -38.658 v -2 h 38.658 c 9.249,0 17.398,4.72 22.146,11.856 v 0 c 1.857,2.627 5.18,8.104 6.072,9.528 v 0 0.002 l -1.693,1.06 c -0.904,-1.44 -4.235,-6.923 -6.029,-9.459 z"
     inkscape:connector-curvature="0"
     style="fill:#f4f4f4" /><path
     id="path18"
     d="M 557.99,90.07"
     inkscape:connector-curvature="0"
     style="fill:#f4f4f4" /><path
     id="path20"
     d="M 556.966,279.343"
     inkscape:connector-curvature="0"
     style="fill:#f4f4f4" /><path
     id="path22"
     d="M 557.99,277.911"
     inkscape:connector-curvature="0"
     style="fill:#f4f4f4" /><path
     id="path24"
     d="m 132.685,272.844 c -1.739,0 -3.151,-1.409 -3.151,-3.15 v 0 V 81.98 c 0,-1.741 1.41,-3.151 3.151,-3.151 v 0 h 330.268 c 1.741,0 3.148,1.41 3.15,3.151 v 0 187.713 h -0.002 c 0,1.741 -1.41,3.15 -3.148,3.15 v 0 H 132.685 Z M 131.533,81.98 v 187.713 c 0.002,0.636 0.514,1.149 1.152,1.149 v 0 l 330.268,0.002 c 0.636,-0.002 1.147,-0.516 1.149,-1.151 v 0 V 81.98 c -0.002,-0.636 -0.517,-1.149 -1.149,-1.151 v 0 H 132.685 c -0.636,0.002 -1.15,0.515 -1.152,1.151 z"
     inkscape:connector-curvature="0"
     style="fill:#f4f4f4" /><path
     id="path26"
     d="m 103.197,121.587 c -2.269,0 -4.109,-1.84 -4.109,-4.109 0,-2.27 1.84,-4.109 4.109,-4.109 h 6.758 c 2.27,0 4.109,1.839 4.109,4.109 0,2.269 -1.839,4.109 -4.109,4.109 z"
     inkscape:connector-curvature="0"
     style="fill:#f4f4f4" /><path
     id="path28"
     d="m 486.167,121.587 c -2.27,0 -4.109,-1.84 -4.109,-4.109 0,-2.27 1.84,-4.109 4.109,-4.109 h 6.759 c 2.27,0 4.109,1.839 4.109,4.109 0,2.269 -1.84,4.109 -4.109,4.109 z"
     inkscape:connector-curvature="0"
     style="fill:#f4f4f4" /><path
     id="path30"
     d="m 242.617,291.092 c -1.046,0 -1.894,-0.849 -1.894,-1.893 0,-1.049 0.848,-1.896 1.894,-1.896 h 4.455 c 1.046,0 1.895,0.848 1.895,1.896 0,1.044 -0.848,1.893 -1.895,1.893 z"
     inkscape:connector-curvature="0"
     style="fill:#f4f4f4" /><path
     id="path32"
     d="m 53.491,246.307 c 0.002,-11.773 9.545,-21.316 21.316,-21.318 v 0 c 11.773,0.002 21.314,9.545 21.316,21.318 v 0 c -0.002,11.771 -9.543,21.315 -21.316,21.318 v 0 C 63.036,267.622 53.493,258.078 53.491,246.307 Z m 2.002,0 c 0.019,10.667 8.649,19.297 19.314,19.315 v 0 c 10.667,-0.019 19.297,-8.648 19.316,-19.315 v 0 C 94.104,235.639 85.474,227.009 74.807,226.991 v 0 c -10.665,0.018 -19.295,8.648 -19.314,19.316 z"
     inkscape:connector-curvature="0"
     style="fill:#f4f4f4" /><path
     id="path34"
     d="m 27.977,227.222 c 0,1.738 -1.409,3.147 -3.148,3.147 -1.739,0 -3.149,-1.409 -3.149,-3.147 0,-1.741 1.41,-3.15 3.149,-3.15 1.739,0 3.148,1.408 3.148,3.15 z"
     inkscape:connector-curvature="0"
     style="fill:#f4f4f4" /><path
     id="path36"
     d="M 30.528,168.618"
     inkscape:connector-curvature="0"
     style="fill:#f4f4f4" /><path
     id="path38"
     d="M 111.022,168.618"
     inkscape:connector-curvature="0"
     style="fill:#f4f4f4" /><path
     id="path40"
     d="M 60.201,147.086"
     inkscape:connector-curvature="0"
     style="fill:#f4f4f4" /><g
     id="g50">
	<path
   style="fill:#f4f4f4"
   inkscape:connector-curvature="0"
   id="path42"
   d="m 71.049,163.092 c -1.24,0 -2.392,-0.439 -3.282,-1.172 v 0 l -0.043,-0.035 -9.49,-9.753 c -0.796,-0.907 -1.281,-2.106 -1.281,-3.41 v 0 -16.369 c 0,-0.866 0.351,-1.659 0.942,-2.258 v 0 c 0.361,-0.345 0.893,-0.731 1.599,-0.908 v 0 c 3.708,-1.014 7.604,-1.381 11.555,-1.381 v 0 h 0.152 c 3.954,0 7.85,0.368 11.547,1.377 v 0 c 0.714,0.181 1.248,0.566 1.638,0.94 v 0 c 0.563,0.571 0.911,1.365 0.911,2.229 v 0 16.369 c 0,1.302 -0.482,2.502 -1.315,3.451 v 0 l -9.451,9.708 -0.045,0.039 c -0.893,0.731 -2.042,1.172 -3.284,1.172 v 0 -1 -1 c 0.757,-0.002 1.44,-0.26 1.988,-0.698 v 0 l 9.323,-9.578 c 0.491,-0.561 0.784,-1.287 0.784,-2.094 v 0 -16.369 c 0,-0.329 -0.125,-0.612 -0.306,-0.796 v 0 c -0.252,-0.228 -0.404,-0.341 -0.759,-0.439 v 0 c -3.479,-0.953 -7.201,-1.312 -11.03,-1.312 v 0 H 71.05 c -3.829,0 -7.548,0.359 -11.038,1.313 v 0 c -0.347,0.097 -0.499,0.208 -0.718,0.407 v 0 c -0.211,0.217 -0.339,0.501 -0.339,0.827 v 0 16.369 c 0,0.805 0.296,1.534 0.75,2.055 v 0 l 9.369,9.626 c 0.544,0.432 1.227,0.689 1.977,0.689 v 0 h 0.152 v 1 1 h -0.154 z" />
	<path
   style="fill:#f4f4f4"
   inkscape:connector-curvature="0"
   id="path44"
   d="m 59.5,208.407 c -0.712,-0.182 -1.243,-0.565 -1.639,-0.941 v 0 c -0.558,-0.569 -0.908,-1.362 -0.908,-2.228 v 0 -16.369 c 0,-1.303 0.485,-2.502 1.317,-3.45 v 0 l 9.451,-9.709 0.048,-0.039 c 0.89,-0.729 2.04,-1.17 3.28,-1.17 v 0 1.001 1 c -0.751,0 -1.433,0.256 -1.978,0.688 v 0 l -9.331,9.586 c -0.492,0.562 -0.787,1.288 -0.787,2.094 v 0 16.369 c 0,0.326 0.128,0.611 0.305,0.797 v 0 c 0.252,0.228 0.407,0.341 0.762,0.442 v 0 c 3.48,0.949 7.199,1.309 11.028,1.309 v 0 h 0.153 c 3.828,0 7.548,-0.359 11.037,-1.312 v 0 c 0.347,-0.099 0.502,-0.212 0.719,-0.406 v 0 c 0.212,-0.219 0.338,-0.504 0.34,-0.83 v 0 -16.369 c -0.002,-0.806 -0.295,-1.532 -0.75,-2.053 v 0 l -9.369,-9.628 c -0.543,-0.432 -1.229,-0.688 -1.977,-0.688 v 0 h -0.153 v -1 -0.999 l 0.153,-0.002 c 1.241,0 2.391,0.442 3.283,1.17 v 0 l 0.043,0.035 9.489,9.752 c 0.797,0.909 1.282,2.108 1.282,3.411 v 0 l -0.002,16.369 c 0.002,0.865 -0.349,1.658 -0.941,2.261 v 0 c -0.361,0.345 -0.892,0.727 -1.598,0.906 v 0 c -3.706,1.014 -7.604,1.379 -11.555,1.379 v 0 l -0.153,0.002 C 67.097,209.784 63.2,209.419 59.5,208.407 Z" />
	<path
   style="fill:#f4f4f4"
   inkscape:connector-curvature="0"
   id="path46"
   d="m 91.199,182.966 c -1.303,0.002 -2.5,-0.481 -3.451,-1.313 v 0 L 78.034,172.194 78,172.155 c -0.73,-0.891 -1.171,-2.042 -1.171,-3.282 v 0 -0.152 c 0,-1.241 0.44,-2.391 1.171,-3.282 v 0 l 0.033,-0.041 9.756,-9.493 c 0.909,-0.796 2.107,-1.28 3.41,-1.28 v 0 h 16.37 c 0.866,0 1.658,0.35 2.261,0.942 v 0 c 0.344,0.362 0.727,0.893 0.903,1.597 v 0 c 1.015,3.708 1.383,7.604 1.383,11.557 v 0 0.152 c 0,3.953 -0.368,7.848 -1.378,11.545 v 0 c -0.181,0.715 -0.566,1.247 -0.938,1.639 v 0 c -0.574,0.565 -1.369,0.911 -2.23,0.911 v 0 z m -2.095,-2.782 c 0.562,0.488 1.288,0.782 2.095,0.782 v 0 l 16.37,0.002 c 0.329,-0.002 0.613,-0.128 0.796,-0.305 v 0 c 0.228,-0.255 0.339,-0.405 0.44,-0.764 v 0 c 0.951,-3.479 1.311,-7.197 1.311,-11.027 v 0 -0.152 c 0,-3.83 -0.36,-7.548 -1.313,-11.038 v 0 c -0.099,-0.348 -0.21,-0.5 -0.405,-0.72 v 0 c -0.216,-0.209 -0.504,-0.337 -0.829,-0.337 v 0 h -16.37 c -0.805,0 -1.531,0.294 -2.056,0.749 v 0 l -9.625,9.369 c -0.433,0.545 -0.687,1.225 -0.688,1.978 v 0 0.152 c 0.002,0.752 0.255,1.434 0.688,1.977 v 0 z" />
	<path
   style="fill:#f4f4f4"
   inkscape:connector-curvature="0"
   id="path48"
   d="m 34.683,182.966 c -0.864,0.002 -1.656,-0.346 -2.261,-0.94 v 0 c -0.342,-0.36 -0.727,-0.893 -0.903,-1.597 v 0 c -1.015,-3.708 -1.383,-7.604 -1.383,-11.556 v 0 -0.152 c 0,-3.953 0.368,-7.848 1.378,-11.546 v 0 c 0.181,-0.716 0.566,-1.247 0.94,-1.64 v 0 c 0.57,-0.562 1.364,-0.91 2.229,-0.91 v 0 h 16.37 c 1.303,0 2.5,0.483 3.449,1.315 v 0 l 9.713,9.456 0.037,0.043 c 0.73,0.891 1.171,2.04 1.169,3.282 v 0 l 0.002,0.152 c 0,1.241 -0.44,2.391 -1.171,3.282 v 0 l -0.035,0.041 -9.754,9.492 c -0.91,0.795 -2.107,1.28 -3.41,1.28 v 0 z m -0.799,-26.035 c -0.227,0.251 -0.337,0.403 -0.438,0.759 v 0 c -0.951,3.482 -1.311,7.2 -1.311,11.03 v 0 0.152 c 0,3.83 0.358,7.547 1.313,11.038 v 0 c 0.097,0.346 0.209,0.5 0.405,0.72 v 0 c 0.216,0.21 0.502,0.336 0.829,0.336 v 0 h 16.37 c 0.805,0 1.531,-0.294 2.054,-0.747 v 0 l 9.618,-9.36 c 0.437,-0.545 0.695,-1.231 0.697,-1.986 v 0 -0.152 c -0.002,-0.75 -0.258,-1.433 -0.691,-1.98 v 0 l -9.585,-9.332 c -0.562,-0.49 -1.288,-0.784 -2.093,-0.784 v 0 h -16.37 c -0.327,0 -0.611,0.127 -0.798,0.306 z" />
</g><path
     id="path52"
     d="m 25.577,168.796 c 0.002,-25.155 20.394,-45.547 45.549,-45.547 v 0 c 25.156,0 45.547,20.392 45.547,45.547 v 0 c 0,25.155 -20.392,45.547 -45.547,45.549 v 0 C 45.971,214.343 25.579,193.951 25.577,168.796 Z m 14.756,-30.793 c -7.882,7.883 -12.755,18.764 -12.755,30.792 v 0 c 0,12.028 4.873,22.908 12.755,30.792 v 0 c 7.883,7.883 18.765,12.756 30.792,12.756 v 0 c 12.028,0 22.908,-4.873 30.792,-12.756 v 0 c 7.883,-7.884 12.755,-18.764 12.755,-30.792 v 0 c 0,-12.028 -4.873,-22.91 -12.755,-30.792 v 0 C 94.033,130.121 83.153,125.25 71.125,125.248 v 0 c -12.027,0.002 -22.909,4.873 -30.792,12.755 z"
     inkscape:connector-curvature="0"
     style="fill:#f4f4f4" /><g
     id="g62">
	<path
   style="fill:#f4f4f4"
   inkscape:connector-curvature="0"
   id="path54"
   d="m 490.574,185.438 1.812,-0.844 c 3.477,7.489 9.425,13.603 16.792,17.281 v 0 h 0.002 l -0.896,1.79 c -7.774,-3.884 -14.045,-10.327 -17.71,-18.227 z" />
	<path
   style="fill:#f4f4f4"
   inkscape:connector-curvature="0"
   id="path56"
   d="m 540.75,202.306 c 7.43,-3.46 13.503,-9.361 17.18,-16.671 v 0 0.003 l 1.785,0.896 c -3.879,7.711 -10.279,13.931 -18.119,17.585 v 0 z" />
	<path
   style="fill:#f4f4f4"
   inkscape:connector-curvature="0"
   id="path58"
   d="m 541.691,136.767 h 0.002 l 0.894,-1.788 c 7.785,3.903 14.056,10.371 17.705,18.301 v 0 l -1.818,0.835 c -3.456,-7.513 -9.407,-13.651 -16.783,-17.348 z" />
	<path
   style="fill:#f4f4f4"
   inkscape:connector-curvature="0"
   id="path60"
   d="m 491.033,152.227 c 3.895,-7.824 10.377,-14.125 18.332,-17.792 v 0 l 0.835,1.816 c -7.537,3.473 -13.687,9.454 -17.377,16.868 v 0 z" />
</g><path
     id="path64"
     d="m 508.75,135.847 c 0,-9.491 7.691,-17.182 17.18,-17.182 v 0 c 9.488,0 17.18,7.691 17.182,17.182 v 0 c -0.002,9.489 -7.693,17.18 -17.182,17.18 v 0 c -9.491,0 -17.18,-7.691 -17.18,-17.18 z m 2.001,0 c 0.015,8.384 6.795,15.165 15.179,15.179 v 0 c 8.384,-0.015 15.167,-6.795 15.18,-15.179 v 0 c -0.013,-8.385 -6.796,-15.167 -15.18,-15.181 v 0 c -8.384,0.015 -15.164,6.796 -15.179,15.181 z"
     inkscape:connector-curvature="0"
     style="fill:#f4f4f4" /><path
     id="path66"
     d="m 541.689,169.829 c 0.002,-9.489 7.693,-17.181 17.181,-17.181 v 0 c 9.489,0 17.181,7.691 17.183,17.181 v 0 c -0.002,9.487 -7.693,17.179 -17.183,17.181 v 0 c -9.487,-0.002 -17.179,-7.694 -17.181,-17.181 z m 2.002,0 c 0.015,8.384 6.797,15.164 15.179,15.181 v 0 c 8.385,-0.017 15.166,-6.797 15.181,-15.181 v 0 c -0.015,-8.384 -6.796,-15.166 -15.181,-15.181 v 0 c -8.382,0.015 -15.164,6.797 -15.179,15.181 z"
     inkscape:connector-curvature="0"
     style="fill:#f4f4f4" /><path
     id="path68"
     d="m 507.709,202.771 c 0,-9.49 7.689,-17.183 17.18,-17.183 v 0 c 9.489,0 17.18,7.692 17.18,17.183 v 0 h 0.002 c -0.002,9.487 -7.692,17.18 -17.182,17.18 v 0 c -9.491,-0.001 -17.18,-7.693 -17.18,-17.18 z m 2,0 c 0.015,8.384 6.797,15.164 15.18,15.179 v 0 c 8.385,-0.015 15.166,-6.795 15.179,-15.179 v 0 h 0.003 c -0.016,-8.387 -6.797,-15.167 -15.182,-15.182 v 0 c -8.383,0.015 -15.165,6.795 -15.18,15.182 z"
     inkscape:connector-curvature="0"
     style="fill:#f4f4f4" /><path
     id="path70"
     d="m 474.77,168.788 c 0,-9.488 7.689,-17.18 17.18,-17.18 v 0 c 9.488,0 17.178,7.692 17.178,17.18 v 0 h 0.002 c -0.002,9.488 -7.691,17.18 -17.18,17.182 v 0 c -9.491,-0.002 -17.18,-7.695 -17.18,-17.182 z m 2.001,0 c 0.012,8.383 6.795,15.167 15.179,15.181 v 0 c 8.381,-0.015 15.164,-6.798 15.179,-15.181 v 0 c -0.015,-8.383 -6.798,-15.165 -15.179,-15.179 v 0 c -8.387,0.014 -15.168,6.795 -15.179,15.179 z"
     inkscape:connector-curvature="0"
     style="fill:#f4f4f4" /><path
     id="path72"
     d="m 174.437,297.155 v -1.001 -1 h 5.174 c 3.18,-0.006 5.752,-2.578 5.758,-5.76 v 0 c -0.006,-3.18 -2.579,-5.753 -5.758,-5.757 v 0 h -5.174 c -3.18,0.004 -5.752,2.577 -5.759,5.757 v 0 c 0.006,3.18 2.581,5.754 5.759,5.76 v 0 1 1.001 c -4.284,-0.002 -7.757,-3.474 -7.759,-7.761 v 0 c 0.002,-4.286 3.476,-7.758 7.759,-7.758 v 0 h 5.174 c 4.285,0 7.757,3.472 7.759,7.758 v 0 c -0.002,4.285 -3.474,7.759 -7.759,7.761 v 0 z"
     inkscape:connector-curvature="0"
     style="fill:#f4f4f4" /><path
     id="path74"
     d="m 212.074,297.155 v -1.001 -1 h 5.172 c 3.18,-0.006 5.754,-2.578 5.758,-5.76 v 0 c -0.004,-3.18 -2.579,-5.753 -5.758,-5.757 v 0 h -5.172 c -3.182,0.004 -5.754,2.577 -5.761,5.757 v 0 c 0.006,3.182 2.581,5.754 5.761,5.76 v 0 1 1.001 c -4.286,-0.002 -7.759,-3.476 -7.759,-7.761 v 0 c 0,-4.286 3.474,-7.758 7.759,-7.758 v 0 h 5.172 c 4.286,0 7.759,3.472 7.759,7.758 v 0 c 0,4.285 -3.474,7.759 -7.759,7.761 v 0 z"
     inkscape:connector-curvature="0"
     style="fill:#f4f4f4" /><path
     id="path76"
     d="m 382.582,297.155 v -1.001 -1 h 5.175 c 3.177,-0.006 5.752,-2.578 5.758,-5.76 v 0 c -0.006,-3.18 -2.578,-5.753 -5.758,-5.757 v 0 h -5.175 c -3.18,0.004 -5.754,2.577 -5.759,5.757 v 0 c 0.005,3.18 2.581,5.754 5.759,5.76 v 0 1 1.001 c -4.285,-0.002 -7.76,-3.474 -7.76,-7.761 v 0 c 0,-4.286 3.477,-7.758 7.76,-7.758 v 0 h 5.175 c 4.283,0 7.757,3.472 7.759,7.758 v 0 c -0.002,4.285 -3.474,7.759 -7.759,7.761 v 0 z"
     inkscape:connector-curvature="0"
     style="fill:#f4f4f4" /><path
     id="path78"
     d="m 358.006,297.155 v -1.001 -1 h 5.173 c 3.18,-0.006 5.754,-2.58 5.758,-5.76 v 0 c -0.004,-3.18 -2.578,-5.753 -5.758,-5.757 v 0 h -5.173 c -3.182,0.004 -5.756,2.577 -5.761,5.757 v 0 c 0.005,3.182 2.579,5.754 5.761,5.76 v 0 1 1.001 c -4.287,-0.002 -7.761,-3.476 -7.761,-7.761 v 0 c 0,-4.286 3.474,-7.758 7.761,-7.758 v 0 h 5.173 c 4.283,0 7.759,3.472 7.759,7.758 v 0 c 0,4.287 -3.476,7.759 -7.759,7.761 v 0 z"
     inkscape:connector-curvature="0"
     style="fill:#f4f4f4" /><path
     style="fill:#f4f4f4"
     d="m 563.95198,255.362 a 3.1489999,3.1489999 0 0 1 -3.149,3.149 3.1489999,3.1489999 0 0 1 -3.149,-3.149 3.1489999,3.1489999 0 0 1 3.149,-3.149 3.1489999,3.1489999 0 0 1 3.149,3.149 z"
     id="circle80"
     inkscape:connector-curvature="0" /><path
     style="fill:#f4f4f4"
     d="m 38.038,255.408 a 3.1489999,3.1489999 0 0 1 -3.149,3.149 3.1489999,3.1489999 0 0 1 -3.149,-3.149 3.1489999,3.1489999 0 0 1 3.149,-3.149 3.1489999,3.1489999 0 0 1 3.149,3.149 z"
     id="circle82"
     inkscape:connector-curvature="0" /><path
     style="fill:#f4f4f4"
     d="m 573.88698,229.09399 a 3.1489999,3.1489999 0 0 1 -3.149,3.149 3.1489999,3.1489999 0 0 1 -3.149,-3.149 3.1489999,3.1489999 0 0 1 3.149,-3.149 3.1489999,3.1489999 0 0 1 3.149,3.149 z"
     id="circle84"
     inkscape:connector-curvature="0" /><path
     id="path86"
     d="m 110.867,303.635 c -3.488,-0.009 -6.423,-1.269 -8.168,-3.02 v 0 c -2.173,-2.201 -4.784,-5.297 -7.025,-8.009 v 0 c -2.222,-2.692 -4.152,-5.069 -4.68,-5.552 v 0 c -2.962,-2.782 -6.878,-4.542 -11.23,-4.542 v 0 c 0,0 -28.303,0.077 -37.33,0.077 v 0 c -1.22,0 -2.456,-0.435 -3.282,-1.427 v 0 C 20.639,258.657 8.702,215.933 8.674,187.604 v 0 -8.168 C 8.702,151.108 20.639,108.383 39.152,85.877 v 0 c 0.824,-0.989 2.062,-1.426 3.282,-1.428 v 0 c 9.027,0 37.33,0.079 37.328,0.079 v 0 c 4.354,-0.002 8.27,-1.76 11.232,-4.542 v 0 c 0.527,-0.485 2.458,-2.862 4.68,-5.552 v 0 c 2.241,-2.711 4.852,-5.81 7.025,-8.011 v 0 c 1.745,-1.751 4.68,-3.011 8.168,-3.02 v 0 H 485.26 c 3.488,0.008 6.423,1.268 8.17,3.02 v 0 c 2.173,2.201 4.782,5.299 7.023,8.011 v 0 c 2.222,2.69 4.152,5.067 4.68,5.552 v 0 c 2.96,2.782 6.878,4.54 11.232,4.542 v 0 c 0,0 28.303,-0.079 37.33,-0.079 v 0 c 1.218,0.002 2.456,0.438 3.279,1.428 v 0 c 18.516,22.505 30.45,65.23 30.48,93.559 v 0 8.168 c -0.03,28.328 -11.965,71.053 -30.48,93.558 v 0 c -0.823,0.992 -2.062,1.427 -3.279,1.427 v 0 c -9.027,0 -37.33,-0.077 -37.328,-0.077 v 0 c -4.356,0 -8.274,1.76 -11.234,4.542 v 0 c -0.527,0.482 -2.458,2.859 -4.68,5.552 v 0 c -2.241,2.712 -4.851,5.808 -7.025,8.009 v 0 c -1.745,1.751 -4.68,3.011 -8.168,3.02 v 0 z m 374.393,-2 c 2.99,0.006 5.477,-1.131 6.747,-2.425 v 0 c 2.081,-2.106 4.678,-5.182 6.905,-7.878 v 0 c 2.252,-2.716 4.057,-4.978 4.851,-5.735 v 0 c 3.292,-3.097 7.701,-5.084 12.607,-5.084 v 0 c 0.038,0 28.304,0.078 37.325,0.078 v 0 c 0.751,0 1.4,-0.28 1.736,-0.7 v 0 c 18.073,-21.86 30.05,-64.494 30.021,-92.285 v 0 -8.168 c 0.029,-27.792 -11.947,-70.425 -30.021,-92.286 v 0 c -0.336,-0.419 -0.985,-0.703 -1.736,-0.7 v 0 c -9.021,0 -37.287,0.077 -37.328,0.077 v 0 c -4.903,0.002 -9.313,-1.986 -12.604,-5.082 v 0 c -0.794,-0.758 -2.599,-3.02 -4.851,-5.735 v 0 c -2.228,-2.697 -4.824,-5.774 -6.905,-7.879 v 0 c -1.271,-1.296 -3.757,-2.432 -6.747,-2.426 v 0 H 110.867 c -2.99,-0.006 -5.476,1.13 -6.744,2.426 v 0 c -2.083,2.105 -4.68,5.182 -6.908,7.879 v 0 c -2.251,2.715 -4.056,4.978 -4.85,5.735 v 0 c -3.292,3.096 -7.702,5.084 -12.607,5.082 v 0 c -0.036,0 -28.303,-0.077 -37.324,-0.077 v 0 c -0.751,-0.002 -1.4,0.281 -1.739,0.7 v 0 c -18.07,21.86 -30.048,64.494 -30.02,92.286 v 0 8.168 c -0.028,27.791 11.95,70.425 30.02,92.285 v 0 c 0.336,0.42 0.985,0.7 1.739,0.698 v 0 c 9.021,0.002 37.288,-0.076 37.328,-0.076 v 0 c 4.903,0 9.311,1.987 12.603,5.084 v 0 c 0.794,0.758 2.599,3.02 4.85,5.735 v 0 c 2.229,2.696 4.825,5.771 6.908,7.878 v 0 c 1.266,1.294 3.754,2.431 6.744,2.425 v 0 z"
     inkscape:connector-curvature="0"
     style="fill:#f4f4f4" /><path
     id="path88"
     d="m 126.614,298.96 v -0.002 -0.998 -1.001 h 17.356 c 4.24,-0.007 7.671,-3.438 7.68,-7.68 v 0 c -0.008,-4.241 -3.439,-7.672 -7.68,-7.678 v 0 l -17.356,-0.002 c -4.243,0.008 -7.674,3.438 -7.68,7.68 v 0 c 0.006,4.242 3.437,7.673 7.68,7.68 v 0 1.001 0.998 c -5.347,0 -9.679,-4.332 -9.679,-9.679 v 0 c 0,-5.345 4.333,-9.68 9.679,-9.68 v 0 h 17.356 c 5.347,0 9.679,4.335 9.681,9.68 v 0 c -0.002,5.347 -4.334,9.679 -9.681,9.681 v 0 z"
     inkscape:connector-curvature="0"
     style="fill:#f4f4f4" /><path
     id="path90"
     d="m 451.656,298.958 v -0.998 -1 h 17.359 c 4.239,-0.009 7.673,-3.439 7.681,-7.681 v 0 c -0.008,-4.239 -3.441,-7.671 -7.681,-7.679 v 0 h -17.359 c -4.237,0.008 -7.67,3.439 -7.677,7.679 v 0 c 0.007,4.241 3.439,7.672 7.677,7.681 v 0 1 0.998 c -5.345,0 -9.677,-4.332 -9.677,-9.679 v 0 c 0,-5.345 4.332,-9.679 9.677,-9.679 v 0 h 17.359 c 5.345,0 9.679,4.332 9.681,9.679 v 0 c -0.002,5.347 -4.336,9.679 -9.681,9.679 v 0 z"
     inkscape:connector-curvature="0"
     style="fill:#f4f4f4" /><path
     id="path92"
     d="m 413.256,298.959 v -1 -1.002 l 17.357,0.003 c 4.238,-0.009 7.671,-3.44 7.679,-7.68 v 0 c -0.008,-4.241 -3.44,-7.673 -7.679,-7.679 v 0 h -17.357 c -4.243,0.006 -7.673,3.438 -7.681,7.679 v 0 c 0.008,4.241 3.438,7.671 7.681,7.677 v 0 1.002 1 c -5.348,0 -9.681,-4.333 -9.681,-9.679 v 0 c 0,-5.347 4.333,-9.68 9.681,-9.68 v 0 h 17.357 c 5.345,0 9.678,4.333 9.68,9.68 v 0 c -0.002,5.346 -4.335,9.679 -9.68,9.679 v 0 z"
     inkscape:connector-curvature="0"
     style="fill:#f4f4f4" /><g
     aria-label="minis"
     style="font-style:normal;font-variant:normal;font-weight:normal;font-stretch:normal;font-size:27.45213509px;line-height:1.25;font-family:'BankGothic Lt BT';-inkscape-font-specification:'BankGothic Lt BT';letter-spacing:0px;word-spacing:0px;fill:#cccccc;fill-opacity:1;stroke:none;stroke-width:0.68630338"
     id="text908"><path
       d="m 257.55082,284.11259 q 0,0.25469 0.0268,0.69703 0.0268,0.72384 0.0268,0.9249 v 7.85496 h -1.80959 v -11.63499 h 1.80959 l 5.79068,7.54666 5.32153,-7.54666 h 2.03747 v 11.63499 h -2.03747 v -7.85496 q 0,-0.42894 0.0268,-0.83107 0.0402,-0.40213 0.10724,-0.77745 -0.18766,0.54958 -0.38873,0.97852 -0.20106,0.41553 -0.37532,0.63 l -4.47706,6.01856 h -0.57639 l -4.63791,-5.96494 q -0.24127,-0.3083 -0.45574,-0.72384 -0.21447,-0.41553 -0.38873,-0.95171 z"
       style="fill:#cccccc;stroke-width:0.68630338"
       id="path915"
       inkscape:connector-curvature="0" /><path
       d="m 278.30077,293.58948 h -2.18491 V 281.9813 h 2.18491 z"
       style="fill:#cccccc;stroke-width:0.68630338"
       id="path917"
       inkscape:connector-curvature="0" /><path
       d="m 285.48551,284.28685 q 0.0804,0.50937 0.12064,1.03214 0.0402,0.52277 0.0402,1.04554 v 7.22495 h -2.02405 v -11.63499 h 1.67554 l 8.53858,7.60027 q 0.37532,0.32171 0.71043,0.71044 0.34851,0.38872 0.68362,0.88468 -0.0938,-0.52277 -0.14744,-1.05894 -0.0402,-0.53618 -0.0402,-1.11256 v -7.02389 h 2.02406 v 11.63499 h -1.50129 l -8.71283,-7.70751 q -0.45575,-0.42894 -0.79086,-0.80426 -0.32171,-0.38873 -0.57639,-0.79086 z"
       style="fill:#cccccc;stroke-width:0.68630338"
       id="path919"
       inkscape:connector-curvature="0" /><path
       d="m 304.57332,293.58948 h -2.18491 V 281.9813 h 2.18491 z"
       style="fill:#cccccc;stroke-width:0.68630338"
       id="path921"
       inkscape:connector-curvature="0" /><path
       d="m 320.1626,283.68365 h -8.16326 v 3.01599 h 7.46623 q 1.63533,0 2.22512,0.57638 0.6032,0.56299 0.6032,2.17151 v 1.39405 q 0,1.60853 -0.58979,2.18491 -0.57639,0.56299 -2.23853,0.56299 h -7.0775 q -1.66215,0 -2.26534,-0.56299 -0.58979,-0.57638 -0.58979,-2.18491 v -0.3217 l 2.01065,-0.41554 v 1.72917 h 8.77986 v -3.27067 h -7.49304 q -1.64874,0 -2.23853,-0.56298 -0.58979,-0.57639 -0.58979,-2.18491 v -1.09916 q 0,-1.59512 0.58979,-2.17151 0.58979,-0.58979 2.23853,-0.58979 h 6.47431 q 1.62192,0 2.23853,0.56298 0.6166,0.56299 0.6166,1.98385 v 0.28149 l -1.99725,0.42894 z"
       style="fill:#cccccc;stroke-width:0.68630338"
       id="path923"
       inkscape:connector-curvature="0" /></g></g>
</svg>