<?xml version="1.0" encoding="utf-8"?>
<!-- Generator: Adobe Illustrator 13.0.0, SVG Export Plug-In . SVG Version: 6.00 Build 14948)  -->
<!DOCTYPE svg [
	<!ENTITY ns_flows "http://ns.adobe.com/Flows/1.0/">
	<!ENTITY ns_extend "http://ns.adobe.com/Extensibility/1.0/">
	<!ENTITY ns_ai "http://ns.adobe.com/AdobeIllustrator/10.0/">
	<!ENTITY ns_graphs "http://ns.adobe.com/Graphs/1.0/">
	<!ENTITY ns_vars "http://ns.adobe.com/Variables/1.0/">
	<!ENTITY ns_imrep "http://ns.adobe.com/ImageReplacement/1.0/">
	<!ENTITY ns_sfw "http://ns.adobe.com/SaveForWeb/1.0/">
	<!ENTITY ns_custom "http://ns.adobe.com/GenericCustomNamespace/1.0/">
	<!ENTITY ns_adobe_xpath "http://ns.adobe.com/XPath/1.0/">
]>
<svg version="1.2" baseProfile="tiny"
	 id="Layer_3" xmlns:x="&ns_extend;" xmlns:i="&ns_ai;" xmlns:graph="&ns_graphs;" xmlns:rdf="http://www.w3.org/1999/02/22-rdf-syntax-ns#" xmlns:dc="http://purl.org/dc/elements/1.1/" xmlns:cc="http://creativecommons.org/ns#"
	 xmlns="http://www.w3.org/2000/svg" xmlns:xlink="http://www.w3.org/1999/xlink" xmlns:a="http://ns.adobe.com/AdobeSVGViewerExtensions/3.0/"
	 x="0px" y="0px" width="598.189px" height="350.26px" viewBox="0 0 598.189 350.26" xml:space="preserve">
<metadata  id="metadata55">
	<rdf:RDF>
		<cc:Work  rdf:about="">
			<dc:format>image/svg+xml</dc:format>
			<dc:type  rdf:resource="http://purl.org/dc/dcmitype/StillImage"></dc:type>
			<dc:title></dc:title>
		</cc:Work>
	</rdf:RDF>
	<sfw  xmlns="&ns_sfw;">
		<slices></slices>
		<sliceSourceBounds  x="-7231" y="-7652" width="16383" height="16383" bottomLeftOrigin="true"></sliceSourceBounds>
	</sfw>
</metadata>
<path id="circle3" fill="#F4F4F4" d="M146.177,40.312c-48.809,0-88.395,39.583-88.395,88.394c0,48.808,39.584,88.395,88.395,88.395
	c48.809,0,88.395-39.583,88.395-88.395C234.564,79.899,194.985,40.312,146.177,40.312z M146.177,42.025
	c47.882,0,86.681,38.795,86.681,86.68c0,47.882-38.795,86.681-86.681,86.681c-47.883,0-86.681-38.799-86.681-86.681
	C59.496,80.825,98.293,42.025,146.177,42.025z"/>
<path id="path5" fill="#F4F4F4" d="M146.177,10.776c-14.385,0-27.405,3.786-37.755,9.345c-1.877,1.009-3.052,3.353-4.097,6.32
	c-1.045,2.968-1.875,6.625-2.544,10.309c-1.336,7.369-2.094,15.019-2.57,17.218l1.685,0.375c0.564-2.604,1.251-10.025,2.571-17.299
	c0.66-3.637,1.471-7.198,2.463-10.015c0.992-2.816,2.248-4.833,3.321-5.409c10.108-5.429,22.841-9.131,36.925-9.131
	c14.19,0,27.281,3.327,37.113,9.238c1.636,0.983,3.057,3.295,4.124,6.346c1.067,3.051,1.792,6.798,2.302,10.47
	c0.51,3.671,0.803,7.274,0.991,10.122c0.094,1.424,0.153,2.656,0.214,3.615c0.062,0.959,0.098,1.589,0.187,2.035l1.688-0.347
	c-0.031-0.154-0.1-0.848-0.161-1.794c-0.061-0.948-0.12-2.182-0.214-3.615c-0.19-2.866-0.499-6.519-1.018-10.256
	c-0.519-3.736-1.254-7.563-2.383-10.791c-1.129-3.229-2.606-5.91-4.847-7.257c-10.163-6.109-23.538-9.477-37.994-9.477
	L146.177,10.776z"/>
<path id="path7" fill="#F4F4F4" d="M146.177,8.5c-8.937,0-17.073,1.168-23.324,3.106h-0.027H122.8
	c-1.329,0.466-2.165,1.364-2.651,2.168c-0.243,0.402-0.399,0.795-0.509,1.098s-0.184,0.581-0.188,0.589l1.634,0.536
	c0.057-0.172,0.078-0.309,0.161-0.536c0.083-0.228,0.205-0.523,0.375-0.803c0.333-0.549,0.854-1.1,1.714-1.419
	c0.021-0.009,0.032-0.02,0.053-0.027c6.026-1.861,14.026-2.999,22.788-2.999c8.607,0,16.481,1.115,22.466,2.918
	c0.008,0.001,0.02-0.002,0.027,0c1.006,0.331,1.744,0.938,2.222,1.5c0.242,0.282,0.403,0.543,0.509,0.75
	c0.105,0.206,0.134,0.416,0.134,0.214h1.714c0-0.442-0.149-0.655-0.321-0.991c-0.163-0.336-0.386-0.714-0.72-1.098
	c-0.651-0.768-1.654-1.566-3.025-2.008h-0.026C162.96,9.628,154.949,8.5,146.183,8.5H146.177z"/>
<path id="circle9" fill="#F4F4F4" d="M452.269,40.312c-48.809,0-88.395,39.583-88.395,88.394c0,48.808,39.584,88.395,88.395,88.395
	c48.809,0,88.395-39.583,88.395-88.395C540.655,79.899,501.076,40.312,452.269,40.312z M452.269,42.025
	c47.883,0,86.681,38.795,86.681,86.68c0,47.882-38.795,86.681-86.681,86.681c-47.883,0-86.681-38.795-86.681-86.681
	C365.588,80.824,404.384,42.025,452.269,42.025z"/>
<path id="path11" fill="#F4F4F4" d="M57.812,118.205c-0.96,14.776-3.274,52.669-5.355,87.932
	c-1.041,17.635-2.038,34.618-2.758,47.72c-0.721,13.11-1.178,22.271-1.178,24.532c0,31.678,25.706,57.384,57.383,57.384
	c10.802,0,18.655-2.999,24.93-8.221c6.274-5.222,10.974-12.604,15.691-21.396c8.933-16.649,19.282-36.637,28.357-53.821
	c9.074-17.185,16.917-31.636,20.671-37.033c3.798-5.459,7.15-8.669,11.247-10.631c4.097-1.962,9.012-2.679,15.933-2.919
	c13.863-0.478,46.765,0,57.838,0h37.301c11.072,0,43.977-0.478,57.839,0c6.921,0.24,11.836,0.957,15.933,2.919
	c4.097,1.963,7.476,5.173,11.273,10.631c3.754,5.396,11.569,19.848,20.645,37.033s19.449,37.172,28.384,53.821
	c4.718,8.792,9.391,16.174,15.665,21.396s14.128,8.221,24.93,8.221c31.678,0,57.384-25.705,57.384-57.384
	c0-2.264-0.457-11.421-1.179-24.527c-0.72-13.106-1.689-30.085-2.73-47.718c-2.082-35.266-4.422-73.161-5.383-87.933l-1.713,0.134
	c0.96,14.765,3.3,52.646,5.382,87.907c1.04,17.632,2.011,34.614,2.731,47.717s1.178,22.403,1.178,24.421
	c0,30.752-24.918,55.67-55.67,55.67c-10.489,0-17.847-2.84-23.832-7.819c-5.983-4.979-10.579-12.186-15.261-20.911
	c-8.926-16.634-19.278-36.576-28.358-53.77c-9.079-17.194-16.849-31.57-20.779-37.222c-3.889-5.589-7.486-9.098-11.915-11.219
	c-4.431-2.122-9.619-2.838-16.629-3.08c-13.994-0.482-46.869,0-57.893,0h-37.3c-11.023,0-43.896-0.482-57.892,0
	c-7.009,0.242-12.199,0.958-16.628,3.08c-4.43,2.121-8.027,5.63-11.916,11.219c-3.931,5.651-11.7,20.026-20.779,37.222
	c-9.08,17.193-19.434,37.137-28.357,53.77c-4.683,8.726-9.279,15.933-15.263,20.911c-5.984,4.979-13.342,7.819-23.832,7.819
	c-30.74,0-55.658-24.918-55.658-55.671c0-2.019,0.458-11.318,1.178-24.421c0.72-13.102,1.69-30.085,2.731-47.717
	c2.081-35.264,4.422-73.145,5.382-87.907l-1.714-0.134L57.812,118.205z"/>
<path id="path13" fill="#F4F4F4" d="M452.269,10.776c-14.456,0-27.806,3.369-37.969,9.479c-2.243,1.347-3.745,4.028-4.875,7.256
	c-1.128,3.229-1.862,7.055-2.383,10.792c-0.519,3.737-0.828,7.389-1.017,10.256c-0.095,1.433-0.153,2.667-0.215,3.615
	c-0.061,0.946-0.129,1.64-0.16,1.794l1.687,0.348c0.09-0.447,0.127-1.077,0.188-2.035c0.063-0.959,0.121-2.192,0.215-3.615
	c0.188-2.848,0.48-6.451,0.99-10.122c0.511-3.671,1.236-7.418,2.303-10.47c1.066-3.052,2.488-5.363,4.124-6.346
	c9.833-5.911,22.923-9.238,37.113-9.238c14.083,0,26.843,3.702,36.952,9.131c1.072,0.576,2.303,2.593,3.293,5.409
	c0.992,2.816,1.805,6.378,2.465,10.015c1.317,7.273,2.005,14.695,2.57,17.299l1.679-0.377c-0.477-2.199-1.234-9.849-2.57-17.218
	c-0.668-3.685-1.472-7.341-2.517-10.309c-1.046-2.968-2.247-5.312-4.124-6.32c-10.351-5.559-23.367-9.344-37.754-9.344H452.269z"/>
<path id="path15" fill="#F4F4F4" d="M452.269,8.5c-8.766,0-16.777,1.128-22.973,2.999h-0.026c-1.367,0.442-2.371,1.24-3.025,2.008
	c-0.327,0.383-0.551,0.762-0.724,1.098c-0.172,0.336-0.321,0.549-0.321,0.99h1.714c0,0.202,0.028-0.009,0.134-0.214
	c0.105-0.206,0.269-0.466,0.509-0.75c0.479-0.561,1.217-1.168,2.223-1.5c0.007-0.002,0.019,0.002,0.027,0
	c5.98-1.803,13.854-2.918,22.467-2.918c8.762,0,16.763,1.138,22.788,2.999c0.017,0.005,0.035,0.021,0.053,0.027
	c0.861,0.319,1.382,0.87,1.714,1.418c0.17,0.281,0.292,0.576,0.375,0.803s0.103,0.362,0.161,0.535l1.636-0.562
	c-0.002-0.007-0.076-0.259-0.187-0.563c-0.111-0.303-0.267-0.696-0.516-1.098c-0.488-0.805-1.318-1.703-2.646-2.168h-0.027
	c-6.255-1.938-14.412-3.106-23.35-3.106H452.269z"/>
<path id="line17" fill="#F4F4F4" d="M207.572,65.054v1.714h183.722v-1.714H207.572z"/>
<path id="path19" fill="#F4F4F4" d="M124.406,59.136c-2.055,0-3.749,1.695-3.749,3.749v37.969l-0.134,0.161H82.526
	c-2.054,0-3.722,1.667-3.722,3.722v43.567c0,2.056,1.668,3.722,3.722,3.722h38.078l0.054,0.054v38.077
	c0,2.056,1.694,3.748,3.749,3.748h43.539c2.055,0,3.749-1.692,3.749-3.748v-38.023l0.08-0.107h38.05
	c2.054,0,3.749-1.667,3.749-3.722v-43.566c0-2.054-1.695-3.722-3.749-3.722h-38.023l-0.107-0.134V62.885
	c0-2.055-1.695-3.749-3.749-3.749H124.406L124.406,59.136z M124.406,60.85h43.539c1.128,0,2.035,0.907,2.035,2.035v38.292v0.295
	l0.188,0.241l0.509,0.669l0.268,0.348h0.429h38.452c1.128,0,2.035,0.88,2.035,2.008v43.567c0,1.129-0.907,2.008-2.035,2.008h-38.506
	h-0.455l-0.241,0.375l-0.482,0.669l-0.161,0.214v0.294v38.292c0,1.128-0.907,2.034-2.035,2.034h-43.539
	c-1.128,0-2.035-0.906-2.035-2.034v-38.426v-0.348l-0.241-0.241l-0.55-0.548l-0.24-0.266h-0.348H82.539
	c-1.127,0-2.008-0.879-2.008-2.008v-43.566c0-1.128,0.881-2.009,2.008-2.009h38.452h0.402l0.268-0.348l0.563-0.724l0.161-0.214
	v-0.295V62.902c0-1.128,0.907-2.035,2.035-2.035L124.406,60.85z"/>
<path id="path21" fill="#F4F4F4" d="M432.45,56.807c-2.09,0-3.803,1.712-3.803,3.802v38.826l-0.134,0.161h-38.827
	c-2.091,0-3.803,1.714-3.803,3.803v44.477c0,2.089,1.714,3.802,3.803,3.802h38.881l0.08,0.053v38.935
	c0,2.089,1.714,3.802,3.803,3.802h44.504c2.09,0,3.802-1.714,3.802-3.802v-38.88l0.08-0.107h38.882c2.09,0,3.802-1.713,3.802-3.802
	v-44.476c0-2.09-1.713-3.802-3.802-3.802h-38.854l-0.107-0.134V60.608c0-2.089-1.714-3.803-3.802-3.803L432.45,56.807L432.45,56.807
	z M432.45,58.521h44.504c1.162,0,2.088,0.925,2.088,2.088v39.148v0.294l0.188,0.214l0.509,0.696l0.269,0.349h0.428h39.283
	c1.162,0,2.088,0.925,2.088,2.088v44.477c0,1.163-0.925,2.089-2.088,2.089h-39.337h-0.428l-0.269,0.375l-0.481,0.696l-0.161,0.214
	v0.268v39.148c0,1.161-0.925,2.088-2.088,2.088H432.45c-1.162,0-2.089-0.927-2.089-2.088v-39.255v-0.375l-0.24-0.241l-0.563-0.563
	l-0.269-0.268h-0.348h-39.256c-1.162,0-2.089-0.926-2.089-2.089v-44.477c0-1.162,0.927-2.088,2.089-2.088h39.256h0.428l0.241-0.348
	l0.59-0.723l0.16-0.241v-0.294V60.61C430.361,59.447,431.286,58.521,432.45,58.521L432.45,58.521z"/>
<path id="path23" fill="#F4F4F4" d="M134.498,78.978c-3.644,0-6.611,2.993-6.611,6.641v14.405c0,1.175,0.291,2.281,0.831,3.24
	l0.053,0.081l0.081,0.08l11.407,12.049l0.026,0.054l0.027-0.026c1.389,1.716,3.487,2.838,5.864,2.838
	c2.428,0,4.585-1.188,5.971-2.972l0.027,0.027l0.054-0.081l11.407-12.077l0.081-0.08l0.053-0.134
	c0.464-0.904,0.723-1.916,0.723-2.999V85.618c0-3.648-2.968-6.641-6.614-6.641h-23.376L134.498,78.978z M134.498,80.692h23.376
	c2.721,0,4.9,2.206,4.9,4.927v14.405c0,0.788-0.182,1.512-0.508,2.169l-11.354,12.022l-0.027,0.027l-0.027,0.054
	c-1.072,1.415-2.769,2.33-4.686,2.33c-1.866,0-3.502-0.872-4.579-2.222l-0.027-0.027l-0.027-0.027l-11.353-11.97
	c-0.383-0.699-0.59-1.501-0.59-2.356l-0.006-14.404c0-2.721,2.18-4.927,4.9-4.927L134.498,80.692z"/>
<path id="polygon25" fill="#F4F4F4" d="M146.177,65.349l-0.589,0.616l-6.881,6.854l-1.446,1.473h2.061h13.737h2.062l-1.473-1.473
	l-6.855-6.854L146.177,65.349L146.177,65.349z M146.203,67.785l4.793,4.793h-9.613l4.824-4.793H146.203z"/>
<path id="path27" fill="#F4F4F4" d="M105.288,108.223c-3.646,0-6.641,2.966-6.641,6.614v23.375c0,3.647,2.995,6.615,6.641,6.615
	h14.406c1.174,0,2.281-0.316,3.24-0.856l0.08-0.027l0.08-0.081l12.05-11.407c0.02-0.016,0.034-0.038,0.053-0.054
	c1.71-1.39,2.785-3.52,2.785-5.891c0-2.428-1.162-4.558-2.945-5.945l0.034-0.042l-0.08-0.054l-12.077-11.407l-0.107-0.081
	l-0.107-0.053c-0.903-0.462-1.915-0.723-2.999-0.723h-14.406L105.288,108.223z M105.288,109.937h14.406
	c0.798,0,1.532,0.2,2.196,0.535c0.007,0.004,0.019-0.004,0.026,0l11.97,11.3l0.027,0.053l0.053,0.027
	c1.415,1.072,2.303,2.743,2.303,4.66c0,1.866-0.844,3.529-2.195,4.605l-0.027,0.027l-0.027,0.027l-11.996,11.354
	c-0.698,0.382-1.474,0.589-2.33,0.589h-14.406c-2.72,0-4.927-2.18-4.927-4.9v-23.376
	C100.361,112.116,102.567,109.937,105.288,109.937L105.288,109.937z"/>
<path id="polygon29" fill="#F4F4F4" d="M93.934,117.588l-1.447,1.448l-6.881,6.881l-0.589,0.589l0.589,0.616l6.881,6.855
	l1.446,1.473v-2.062v-13.737v-2.062L93.934,117.588z M92.22,121.739v9.56l-3.319-6.212l4.766-4.79L92.22,121.739z"/>
<path id="path31" fill="#F4F4F4" d="M146.177,134.7c-2.428,0-4.584,1.163-5.971,2.945c-0.016,0.02-0.038,0.034-0.054,0.054
	l-11.406,12.104l-0.08,0.08l-0.054,0.107c-0.465,0.905-0.723,1.942-0.723,3.026v14.406c0,3.646,2.967,6.615,6.614,6.615h23.376
	c3.646,0,6.614-2.968,6.614-6.615v-14.406c0-1.175-0.317-2.281-0.856-3.24l-0.054-0.107l-0.053-0.054l-11.407-12.049
	c-0.016-0.02-0.038-0.034-0.053-0.054C150.68,135.802,148.549,134.701,146.177,134.7L146.177,134.7z M146.177,136.414
	c1.867,0,3.531,0.872,4.605,2.222l0.027,0.027l0.027,0.027l11.354,12.022c0.367,0.688,0.589,1.465,0.589,2.303v14.405
	c0,2.721-2.18,4.9-4.9,4.9h-23.376c-2.721,0-4.9-2.179-4.9-4.9v-14.405c0-0.789,0.181-1.539,0.509-2.196l11.327-11.996l0.027-0.053
	l0.034-0.026c1.072-1.415,2.77-2.33,4.687-2.33L146.177,136.414z"/>
<path id="polygon33" fill="#F4F4F4" d="M137.257,178.752l1.446,1.473l6.881,6.855l0.589,0.615l0.616-0.615l6.855-6.855l1.473-1.473
	h-2.062H139.32H137.257L137.257,178.752z M141.381,180.465h9.613l-4.793,4.821L141.381,180.465L141.381,180.465z"/>
<path id="path35" fill="#F4F4F4" d="M172.689,108.223c-1.175,0-2.281,0.29-3.24,0.83l-0.107,0.053l-0.08,0.08l-12.023,11.407
	l-0.053,0.054c-1.709,1.389-2.812,3.493-2.812,5.864c0,2.435,1.154,4.611,2.946,5.998l0.053,0.026l12.104,11.434l0.08,0.081
	l0.107,0.053c0.905,0.464,1.942,0.723,3.026,0.723h14.405c3.646,0,6.614-2.966,6.614-6.614v-23.376c0-3.646-2.967-6.614-6.614-6.614
	L172.689,108.223L172.689,108.223z M172.689,109.937h14.405c2.72,0,4.9,2.18,4.9,4.9v23.375c0,2.722-2.18,4.901-4.9,4.901h-14.405
	c-0.77,0-1.498-0.196-2.143-0.509l-12.049-11.354l-0.053-0.027l-0.027-0.026c-1.415-1.074-2.329-2.771-2.329-4.686
	c0-1.867,0.872-3.504,2.222-4.58l0.027-0.027l0.027-0.026l11.916-11.328h0.027C171.012,110.159,171.821,109.936,172.689,109.937
	L172.689,109.937z"/>
<path id="polygon37" fill="#F4F4F4" d="M198.421,117.588v2.062v13.736v2.062l1.473-1.473l6.855-6.855l0.616-0.616l-0.616-0.589
	l-6.855-6.881L198.421,117.588L198.421,117.588z M200.134,121.712l4.82,4.82l-4.82,4.793V121.712L200.134,121.712z"/>
<path id="path39" fill="#F4F4F4" d="M257.673,150.715c-2.32,0-4.204,1.911-4.204,4.23v12.157c0,2.321,1.884,4.23,4.204,4.23h20.512
	c2.017,0,3.633-1.475,4.043-3.374h0.161v-0.857v-12.157c0-2.319-1.884-4.23-4.204-4.23H257.673L257.673,150.715z M257.673,152.429
	h20.512c1.395,0,2.49,1.125,2.49,2.517v11.3v0.857c0,1.395-1.096,2.517-2.49,2.517h-20.512c-1.394,0-2.491-1.122-2.491-2.517
	v-12.157C255.183,153.553,256.279,152.429,257.673,152.429z"/>
<path id="path41" fill="#F4F4F4" d="M324.697,150.715c-2.188,0-3.989,1.802-3.989,3.989v12.8c0,2.188,1.804,3.99,3.989,3.99
	c0.567,0,1.093-0.162,1.581-0.375v0.027l0.134-0.054l21.931-6.721l0.08-0.026l0.054-0.054c1.26-0.668,2.115-1.99,2.115-3.507
	c0-1.486-0.817-2.8-2.035-3.481l-0.08-0.053l-0.107-0.027l-22.306-6.266c-0.026-0.009-0.054-0.018-0.08-0.026
	C325.578,150.791,325.146,150.715,324.697,150.715L324.697,150.715z M324.697,152.429c0.276,0,0.534,0.045,0.776,0.134l0.027,0.026
	h0.026l22.253,6.239c0.665,0.395,1.098,1.118,1.098,1.955c0,0.847-0.473,1.564-1.152,1.954l-21.957,6.775h-0.054l-0.053,0.026
	c-0.298,0.143-0.612,0.242-0.965,0.242c-1.26,0-2.275-1.014-2.275-2.276v-12.8C322.422,153.443,323.438,152.428,324.697,152.429
	L324.697,152.429z"/>
<path id="circle43" fill="#F4F4F4" d="M411.833,103.287c-12.334,0-22.359,10.025-22.359,22.36c0,12.333,10.025,22.331,22.359,22.331
	s22.358-9.998,22.358-22.331C434.191,113.313,424.167,103.287,411.833,103.287z M411.833,105c11.409,0,20.645,9.237,20.645,20.646
	c0,11.408-9.235,20.618-20.645,20.618c-11.408,0-20.646-9.21-20.646-20.618C391.188,114.238,400.425,105,411.833,105z"/>
<path id="circle45" fill="#F4F4F4" d="M454.702,146.165c-12.334,0-22.359,10.025-22.359,22.36s10.025,22.359,22.359,22.359
	s22.359-10.024,22.359-22.359S467.036,146.165,454.702,146.165z M454.702,147.878c11.408,0,20.646,9.237,20.646,20.646
	c0,11.407-9.237,20.646-20.646,20.646s-20.646-9.238-20.646-20.646C434.057,157.116,443.294,147.878,454.702,147.878z"/>
<path id="circle47" fill="#F4F4F4" d="M497.572,103.287c-12.331,0-22.331,10.026-22.331,22.365c0,12.334,9.999,22.332,22.332,22.332
	c12.334,0,22.359-9.998,22.359-22.332s-10.024-22.359-22.359-22.359L497.572,103.287z M497.572,105
	c11.407,0,20.645,9.237,20.645,20.646c0,11.408-9.237,20.618-20.645,20.618c-11.409,0-20.618-9.21-20.618-20.618
	C476.954,114.238,486.164,105,497.572,105z"/>
<path id="circle49" fill="#F4F4F4" d="M454.702,60.394c-12.334,0-22.359,10.024-22.359,22.359c0,12.334,10.025,22.359,22.359,22.359
	s22.359-10.024,22.359-22.359C477.062,70.418,467.036,60.394,454.702,60.394z M454.702,62.108c11.408,0,20.646,9.237,20.646,20.645
	c0,11.409-9.237,20.646-20.646,20.646s-20.646-9.237-20.646-20.646C434.057,71.345,443.294,62.108,454.702,62.108z"/>
<path id="line51" fill="#F4F4F4" d="M222.362,189.942v1.714h153.731v-1.714H222.362z"/>
</svg>
