<?xml version="1.0" encoding="utf-8"?>
<!-- Generator: Adobe Illustrator 13.0.0, SVG Export Plug-In . SVG Version: 6.00 Build 14948)  -->
<svg version="1.2" baseProfile="tiny" id="Layer_3" xmlns="http://www.w3.org/2000/svg" xmlns:xlink="http://www.w3.org/1999/xlink"
	 x="0px" y="0px" width="598.189px" height="350.26px" viewBox="0 0 598.189 350.26" xml:space="preserve">
<path fill="#F4F4F4" d="M268.936,295.11c-0.332,0-0.595,0.007-0.776,0.017l0,0c-1.768,0.065-3.141,0.522-4.697,0.547l0,0
	c-0.747,0.007-1.625-0.158-2.375-0.696l0,0c-0.751-0.534-1.273-1.319-1.678-2.285l0,0c-0.801-1.94-1.3-4.824-1.809-9.659l0,0
	c-1.502-14.521-4.002-42.518-5.252-57.277l0,0c-1.244-14.679-3.23-25.06-5.932-33.416l0,0c-2.024-6.223-4.296-9.246-4.258-23.563
	l0,0c0-4.518,0.208-10.183,0.688-17.496l0,0c1.329-20.258,1.552-48.583,1.552-68.679l0,0c0-10.053-0.056-18.046-0.056-21.971l0,0
	c0-11.768,0.25-32.016,0.25-32.02l0,0l0.014-1.056l1-0.344c17.573-6.024,49.376-14.537,52.544-15.514l0,0
	c1.254-0.388,2.647-0.695,4.325-0.692l0,0c2.974,0.004,6.717,0.908,12.712,3.499l0,0c9.118,3.946,32.197,11.977,37.086,13.439l0,0
	c5.338,1.517,7.44,4.423,8.909,7.516l0,0c1.173,2.415,3.969,4.816,3.925,11.036l0,0c0,0.305-0.006,0.615-0.017,0.943l0,0
	c-0.254,6.558-9.493,214.174-11.006,228.846l0,0c-0.558,5.373-0.585,9.428-1.05,12.63l0,0c-0.42,3.147-1.517,5.834-4.281,7.249l0,0
	c-1.795,0.929-4.057,1.331-7.099,1.465l0,0c-0.874,0.037-1.96,0.052-3.234,0.052l0,0
	C322.651,297.679,277.152,295.108,268.936,295.11L268.936,295.11z M338.422,294.681c1.248,0,2.302-0.017,3.109-0.05l0,0
	c2.833-0.115,4.696-0.526,5.831-1.129l0,0c1.127-0.611,1.678-1.309,2.16-2.619l0,0c0.96-2.62,0.841-7.58,1.579-14.908l0,0
	c1.486-14.328,10.748-222.211,10.992-228.642l0,0c0.011-0.296,0.017-0.576,0.015-0.838l0,0c-0.042-5.346-1.92-6.389-3.605-9.694l0,0
	c-1.531-2.907-2.427-4.5-7.09-5.984l0,0c-5.11-1.536-28.031-9.506-37.414-13.561l0,0c-5.819-2.518-9.198-3.257-11.522-3.25l0,0
	c-1.325,0.002-2.345,0.223-3.44,0.559l0,0c-3.269,1.003-33.843,9.193-51.454,15.144l0,0c-0.051,4.31-0.238,20.785-0.238,30.923l0,0
	c0,3.904,0.054,11.91,0.056,21.971l0,0c-0.002,20.125-0.221,48.469-1.559,68.875l0,0c-0.478,7.27-0.682,12.876-0.682,17.3l0,0
	c0.037,14.121,1.951,15.929,4.112,22.641l0,0c2.796,8.645,4.812,19.264,6.068,34.086l0,0c1.248,14.739,3.75,42.743,5.246,57.222l0,0
	c0.365,3.547,0.751,5.982,1.172,7.541l0,0c0.416,1.582,0.878,2.157,1.066,2.266l0,0c0.129,0.086,0.246,0.138,0.639,0.145l0,0
	c0.803,0.024,2.418-0.44,4.542-0.545l0,0c0.267-0.015,0.57-0.019,0.931-0.021l0,0C277.388,292.114,322.813,294.681,338.422,294.681
	L338.422,294.681z"/>
<path fill="#F4F4F4" d="M334.866,203.677l0.604-0.797l-0.637,0.772c-9.141-7.481-14.709-13.213-16.725-25.229l0,0
	c-0.281-1.644-0.418-3.383-0.418-5.169l0,0c0.004-5.742,1.405-11.969,4.184-16.95l0,0c2.763-4.964,7.014-8.759,12.646-9.171l0,0
	c0.426-0.031,0.844-0.045,1.256-0.047l0,0c5.744-0.017,10.208,3.032,13.06,7.731l0,0c2.872,4.7,4.279,11.04,4.284,17.981l0,0
	c0,0.575-0.009,1.154-0.027,1.757l0,0c-0.482,9.887-2.541,17.36-5.252,22.433l0,0c-2.715,5.041-6.088,7.835-9.507,7.876l0,0
	C337.093,204.864,335.891,204.453,334.866,203.677L334.866,203.677z M338.334,202.861c2.186,0.042,5.217-2.069,7.743-6.82l0,0
	c2.529-4.721,4.549-11.926,5.017-21.566l0,0c0.019-0.563,0.024-1.122,0.024-1.678l0,0c0.005-6.67-1.378-12.686-3.987-16.938l0,0
	c-2.63-4.254-6.336-6.756-11.354-6.773l0,0c-0.362,0-0.732,0.015-1.109,0.042l0,0c-4.753,0.346-8.455,3.532-11.048,8.151l0,0
	c-2.576,4.604-3.932,10.56-3.928,15.975l0,0c-0.002,1.683,0.13,3.313,0.389,4.833l0,0c1.984,11.479,6.914,16.499,16.017,24.014l0,0
	C336.803,202.619,337.533,202.859,338.334,202.861L338.334,202.861z"/>
<path fill="#F4F4F4" d="M276.02,197.344c-5.593-5.503-7.749-14.204-7.754-24.167l0,0c0-1.792,0.072-3.625,0.206-5.494l0,0
	c0.448-6.144,1.574-11.566,3.692-15.582l0,0c2.087-4.009,5.376-6.672,9.784-6.721l0,0c0.219-0.004,0.431-0.004,0.637-0.004l0,0
	c7.773-0.068,11.346,2.62,16.648,8.984l0,0c4.174,4.956,5.279,11.929,5.288,17.987l0,0c0,2.419-0.182,4.7-0.436,6.662l0,0
	c-0.887,7.012-4.142,12.725-13.467,20.633l0,0l-0.058,0.049l-0.058,0.037c-1.244,0.78-3.203,1.886-5.761,1.888l0,0
	c-0.007,0-0.014,0-0.021,0l0,0C282.205,201.613,279.23,200.501,276.02,197.344L276.02,197.344z M281.984,147.379
	c-3.586,0.076-6.109,2.038-8.054,5.655l0,0c-1.912,3.607-3.036,8.811-3.465,14.792l0,0c-0.13,1.826-0.2,3.611-0.2,5.35l0,0
	c-0.006,9.702,2.147,17.852,7.154,22.739l0,0c2.979,2.907,5.394,3.691,7.322,3.697l0,0c1.928,0.002,3.484-0.821,4.631-1.54l0,0
	c9.132-7.816,11.867-12.845,12.729-19.321l0,0c0.245-1.888,0.42-4.085,0.418-6.406l0,0c0.009-5.824-1.128-12.362-4.813-16.695l0,0
	c-5.412-6.297-7.811-8.208-15.122-8.277l0,0C282.384,147.373,282.187,147.375,281.984,147.379L281.984,147.379z"/>
<path fill="#F4F4F4" d="M324.375,219.575c-3.207-3.309-7.431-4.434-11.548-4.438l0,0c-5.119-0.021-10.036,1.828-11.789,3.064l0,0
	l-2.4,1.66l0.876-2.783c5.012-15.923,9.693-25.041,10.539-26.976l0,0c0.378-0.892,1.071-1.712,2.154-1.73l0,0
	c1.735,0.159,2.576,1.653,3.453,3.92l0,0c1.214,3.42,8.967,20.513,10.404,26.348l0,0l0.883,3.592L324.375,219.575L324.375,219.575z
	 M301.423,217.679l-0.953-0.3L301.423,217.679L301.423,217.679z M323.142,215.973c-2.511-7.111-8.271-19.966-9.365-23.008l0,0
	c-0.533-1.545-1.197-2.396-1.484-2.547l0,0c-0.034-0.022-0.055-0.033-0.066-0.039l0,0c-0.006,0.005-0.014,0.011-0.022,0.02l0,0
	c-0.066,0.057-0.194,0.22-0.318,0.507l0,0c-0.858,1.96-5.021,10.064-9.71,24.429l0,0c2.639-1.159,6.494-2.184,10.652-2.197l0,0
	c0.008,0,0.015,0,0.022,0l0,0C316.292,213.137,319.957,213.884,323.142,215.973L323.142,215.973z"/>
<path fill="#F4F4F4" d="M277.618,119.694l0.726-0.689l0.864,0.506l-0.864-0.506L277.618,119.694l-0.519-0.547l0.383-0.65
	c1.495-2.449,4.723-4.789,6.921-5.566l0,0l0.798-0.267l0.399,0.742c4.499,8.371,14.857,27.47,14.874,27.497l0,0l-1.605,1.166
	L277.618,119.694L277.618,119.694z M295.111,135.208c-3.265-6.026-7.99-14.752-10.846-20.061l0,0
	c-1.463,0.73-3.562,2.329-4.647,3.747l0,0L295.111,135.208L295.111,135.208z"/>
<path fill="#F4F4F4" d="M307.283,115.097c-1.389-7.364-2.413-11.988-2.415-12l0,0l0.977-0.217l0.707,0.707l-0.707-0.707
	l-0.977,0.217l-0.12-0.536l0.388-0.387c1.661-1.612,4.564-2.447,7.469-2.471l0,0c2.601,0.008,5.303,0.721,6.812,2.86l0,0
	l0.225,0.324l-0.058,0.392c-2.999,19.948-5.756,37.998-5.74,39.976l0,0l-1.99,0.132
	C310.418,132.535,308.672,122.458,307.283,115.097L307.283,115.097z M312.766,135.523c1.045-7.446,2.854-19.284,4.776-32.125l0,0
	c-0.966-1.112-2.858-1.705-4.938-1.697l0,0c-2.188-0.022-4.49,0.678-5.658,1.542l0,0
	C307.565,106.113,310.351,119.306,312.766,135.523L312.766,135.523z"/>
<path fill="#F4F4F4" d="M320.476,142.509c3.984-6.971,7.788-14.456,10.596-20.193l0,0c2.806-5.739,4.606-9.715,4.612-9.725l0,0
	l0.327-0.722l0.779,0.155c2.38,0.519,4.29,2.611,5.828,4.784l0,0c1.52,2.216,2.58,4.482,2.836,5.907l0,0l0.105,0.624l-0.521,0.362
	c-5.985,4.144-20.664,17.805-23.007,20.03l0,0L320.476,142.509L320.476,142.509z M325.275,137.986
	c5.27-4.841,13.461-12.197,18.059-15.526l0,0c-0.347-1.064-1.225-2.896-2.359-4.51l0,0c-1.134-1.67-2.594-3.139-3.84-3.723l0,0
	C335.793,117.137,330.974,127.462,325.275,137.986L325.275,137.986z"/>
<path fill="#F4F4F4" d="M251.595,53.63c6,15,8.25,32.75,8.75,54s-1,39.25-1.75,52.75s-1,25,0.5,36.75s4.75,45-3,54.5c-1-6-1-6-1-6
	s3-9,3.5-16.25s-1-24.75-2.25-31.5s-2-34.5-0.25-47.25s3.5-36.5,1.5-54.5s-4.5-30.75-6.5-34.5S250.595,52.13,251.595,53.63z"/>
<polygon fill="#F4F4F4" points="283.346,312.545 284.347,294.794 287.343,294.964 286.341,312.713 283.346,312.545 "/>
<polygon fill="#F4F4F4" points="302.866,295.882 305.822,295.375 308.822,312.875 305.866,313.383 302.866,295.882 "/>
<path fill="#F4F4F4" d="M283.624,273.999c-5.456-0.495-13.376-5.908-13.364-17.953l0,0c0-0.725,0.027-1.474,0.087-2.245l0,0h0
	c0.422-5.477,1.226-10.977,3.279-15.283l0,0c2.019-4.306,5.542-7.465,10.93-7.638l0,0c3.122-0.118,8.053-0.173,13.595-0.175l0,0
	c12.372,0.002,27.679,0.277,32.551,0.806l0,0c6.906,0.687,12.091,2.466,14.939,9.485l0,0c1.527,3.712,1.881,8.865,1.89,13.622l0,0
	c0,4.354-0.325,8.368-0.439,10.442l0,0c-0.129,2.318-0.778,4.82-2.724,6.801l0,0c-1.943,1.979-5.063,3.321-9.833,3.64l0,0
	c-1.5,0.101-3.64,0.142-6.223,0.144l0,0C314.506,275.643,288.132,274.423,283.624,273.999L283.624,273.999z M272.341,253.956
	c-0.056,0.719-0.081,1.415-0.081,2.09l0,0c0.013,11.09,7.109,15.516,11.554,15.964l0,0c4.335,0.411,30.815,1.635,44.5,1.635l0,0
	c2.561,0,4.675-0.043,6.088-0.139l0,0c4.479-0.307,7.048-1.525,8.542-3.047l0,0c1.492-1.52,2.031-3.457,2.152-5.511l0,0
	c0.118-2.118,0.437-6.066,0.437-10.33l0,0c0.009-4.637-0.397-9.658-1.737-12.856l0,0c-2.651-6.23-6.468-7.452-13.311-8.264l0,0
	c-4.624-0.508-20.021-0.793-32.333-0.791l0,0c-5.525-0.002-10.451,0.057-13.521,0.171l0,0c-4.611,0.202-7.3,2.615-9.2,6.503l0,0
	c-1.865,3.884-2.685,9.196-3.09,14.573l0,0l-0.997-0.074L272.341,253.956L272.341,253.956z"/>
<polygon fill="#F4F4F4" points="289.471,273.366 289.97,231.992 291.969,232.016 291.47,273.392 289.471,273.366 "/>
<polygon fill="#F4F4F4" points="309.095,274.229 310.094,232.23 312.094,232.278 311.093,274.277 309.095,274.229 "/>
<polygon fill="#F4F4F4" points="330.721,274.333 332.596,233.208 334.593,233.3 332.718,274.425 330.721,274.333 "/>
<polygon fill="#F4F4F4" points="271.698,253.379 271.742,251.38 346.366,253.005 346.322,255.005 271.698,253.379 "/>
</svg>