<?xml version="1.0" encoding="utf-8"?>
<!-- Generator: Adobe Illustrator 13.0.0, SVG Export Plug-In . SVG Version: 6.00 Build 14948)  -->
<!DOCTYPE svg PUBLIC "-//W3C//DTD SVG 1.1//EN" "http://www.w3.org/Graphics/SVG/1.1/DTD/svg11.dtd">
<svg version="1.1" id="Layer_4" xmlns="http://www.w3.org/2000/svg" xmlns:xlink="http://www.w3.org/1999/xlink" x="0px" y="0px"
	 width="598.189px" height="350.26px" viewBox="0 0 598.189 350.26" enable-background="new 0 0 598.189 350.26"
	 xml:space="preserve">
<path fill="#F4F4F4" d="M58.296,111.342c-1.11,0-2.005-0.897-2.005-2.005l0,0V86.56c0-1.107,0.897-2.005,2.005-2.005l0,0h22.776
	c1.108,0,2.005,0.897,2.005,2.005l0,0v22.776c0,1.108-0.897,2.005-2.005,2.005l0,0H58.296L58.296,111.342z M58.289,86.56v22.776
	l0.006,0.006h22.776l0.006-0.006h-0.002l0.002-22.776l-0.006-0.006H58.296L58.289,86.56L58.289,86.56z"/>
<path fill="#F4F4F4" d="M86.065,111.342c-1.107,0-2.003-0.897-2.005-2.005l0,0V86.56c0.002-1.107,0.897-2.005,2.005-2.005l0,0
	h22.778c1.107,0.002,2.003,0.897,2.005,2.005l0,0v22.776c0,1.108-0.897,2.005-2.005,2.005l0,0H86.065L86.065,111.342z M86.061,86.56
	v22.776l0.004,0.006h22.778l0.006-0.006h-0.002l0.002-22.776l-0.006-0.006H86.065L86.061,86.56L86.061,86.56z"/>
<path fill="#F4F4F4" d="M113.837,111.342c-1.107,0-2.005-0.897-2.005-2.005l0,0V86.56c0-1.107,0.897-2.005,2.005-2.005l0,0h22.778
	c1.106,0,2.003,0.897,2.005,2.005l0,0v22.776h-0.002c0,1.108-0.896,2.005-2.003,2.005l0,0H113.837L113.837,111.342z M113.833,86.56
	l-0.002,22.776l0.006,0.006h22.778l0.004-0.006V86.56l-0.004-0.006h-22.778C113.837,86.554,113.831,86.56,113.833,86.56
	L113.833,86.56z"/>
<path fill="#F4F4F4" d="M141.609,111.342c-1.107,0-2.005-0.897-2.005-2.005l0,0V86.56c0-1.107,0.898-2.005,2.005-2.005l0,0h22.776
	c1.107,0,2.005,0.897,2.005,2.005l0,0v22.776c0,1.108-0.896,2.005-2.005,2.005l0,0H141.609L141.609,111.342z M141.602,86.56v22.776
	l0.006,0.006h22.776l0.006-0.006h-0.002l0.002-22.776l-0.006-0.006h-22.776L141.602,86.56L141.602,86.56z"/>
<path fill="#F4F4F4" d="M169.38,111.342c-1.109,0-2.005-0.897-2.007-2.005l0,0V86.56c0-1.107,0.899-2.005,2.007-2.005l0,0h22.776
	c1.108,0,2.005,0.897,2.005,2.005l0,0v22.776c-0.002,1.108-0.897,2.005-2.005,2.005l0,0H169.38L169.38,111.342z M169.374,86.56
	v22.776l0.006,0.006h22.776l0.004-0.006V86.56l-0.004-0.006H169.38L169.374,86.56L169.374,86.56z"/>
<path fill="#F4F4F4" d="M197.15,111.342c-1.108,0-2.003-0.897-2.005-2.005l0,0V86.56c0-1.107,0.897-2.005,2.005-2.005l0,0h22.776
	c1.108,0.002,2.005,0.897,2.007,2.005l0,0v22.776c0,1.108-0.897,2.005-2.007,2.005l0,0H197.15L197.15,111.342z M197.146,86.56
	v22.776l0.004,0.006h22.776l0.006-0.006V86.56l-0.006-0.006H197.15L197.146,86.56L197.146,86.56z"/>
<path fill="#F4F4F4" d="M224.922,111.342c-1.109,0-2.004-0.897-2.006-2.005l0,0l0.002-22.777c0-1.108,0.897-2.005,2.004-2.005l0,0
	h22.778c1.107,0,2.004,0.897,2.004,2.005l0,0v22.777c-0.002,1.108-0.897,2.005-2.004,2.005l0,0H224.922L224.922,111.342z
	 M247.699,109.343l0.004-0.006V86.56l-0.004-0.004h-22.778l-0.006,0.004v22.777c0,0,0.006,0.006,0.006,0.004l0,0L247.699,109.343
	L247.699,109.343z"/>
<path fill="#F4F4F4" d="M252.693,111.341c-1.109,0-2.005-0.898-2.005-2.003l0,0V86.561c0-1.107,0.898-2.005,2.005-2.005l0,0h22.777
	c1.107,0,2.003,0.898,2.003,2.005l0,0v22.777c0,1.105-0.896,2.003-2.003,2.005l0,0L252.693,111.341L252.693,111.341z
	 M252.687,86.561v22.777l0.006,0.004h22.777l0.004-0.004V86.561l-0.004-0.006h-22.777L252.687,86.561L252.687,86.561z"/>
<path fill="#F4F4F4" d="M280.463,111.342c-1.107,0-2.004-0.897-2.006-2.004l0,0l0.002-22.777c0-1.109,0.897-2.006,2.004-2.006l0,0
	h22.777c1.108,0.002,2.004,0.897,2.006,2.006l0,0v22.777c-0.002,1.105-0.897,2.002-2.006,2.004l0,0H280.463L280.463,111.342z
	 M280.459,86.561v22.777l0.004,0.004h22.777l0.006-0.004V86.561l-0.006-0.006h-22.777L280.459,86.561L280.459,86.561z"/>
<path fill="#F4F4F4" d="M308.234,111.342c-1.108,0-2.005-0.898-2.005-2.004l0,0V86.56c0-1.109,0.898-2.005,2.005-2.005l0,0h22.777
	c1.106,0,2.005,0.896,2.007,2.005l0,0v22.777h-0.002c0,1.108-0.896,2.004-2.005,2.004l0,0H308.234L308.234,111.342z M308.23,86.56
	l-0.002,22.777l0.006,0.004h22.777l0.007-0.004h-0.002l0.002-22.777c0,0-0.007-0.006-0.007-0.004l0,0l-22.777-0.002
	C308.234,86.554,308.228,86.56,308.23,86.56L308.23,86.56z"/>
<path fill="#F4F4F4" d="M336.008,111.341c-1.11,0-2.008-0.897-2.008-2.005l0,0V86.561c0-1.108,0.899-2.005,2.008-2.007l0,0
	l22.775,0.002c1.106,0.002,2.001,0.896,2.005,2.005l0,0v22.776h-0.002c0,1.108-0.895,2.005-2.003,2.007l0,0L336.008,111.341
	L336.008,111.341z M336.001,86.561l-0.002,22.776l0.009,0.006h22.775l0.004-0.006V86.561l-0.004-0.006h-22.775
	C336.008,86.554,335.999,86.561,336.001,86.561L336.001,86.561z"/>
<path fill="#F4F4F4" d="M363.778,111.342c-1.11,0-2.006-0.898-2.008-2.006l0,0l0.002-22.775c0.002-1.108,0.896-2.003,2.006-2.007
	l0,0l22.775,0.002c1.107,0,2.005,0.896,2.007,2.005l0,0v22.775h-0.002c0,1.108-0.897,2.006-2.005,2.006l0,0H363.778L363.778,111.342
	z M363.771,86.561v22.775l0.007,0.006h22.775l0.006-0.006V86.561l-0.006-0.006h-22.775L363.771,86.561L363.771,86.561z"/>
<path fill="#F4F4F4" d="M100.64,139.056c-1.107,0-2.006-0.896-2.006-2.005l0,0v-22.776c0-1.107,0.899-2.006,2.006-2.006l0,0h22.778
	c1.107,0,2.004,0.898,2.004,2.006l0,0v22.776c0,1.109-0.896,2.005-2.004,2.005l0,0H100.64L100.64,139.056z M100.634,114.274v22.776
	l0.006,0.006h22.778l0.004-0.006v-22.776c0,0-0.004-0.006-0.004-0.004l0,0l-22.778-0.002L100.634,114.274L100.634,114.274z"/>
<path fill="#F4F4F4" d="M128.41,139.056c-1.107,0-2.004-0.896-2.004-2.005l0,0v-22.776c0-1.107,0.896-2.006,2.004-2.006l0,0h22.778
	c1.107,0.002,2.004,0.898,2.006,2.006l0,0v22.776c-0.002,1.109-0.898,2.003-2.006,2.005l0,0H128.41L128.41,139.056z
	 M128.406,114.274v22.776l0.004,0.006h22.778l0.006-0.006h-0.002l0.002-22.776c0,0-0.006-0.006-0.006-0.004l0,0l-22.778-0.002
	L128.406,114.274L128.406,114.274z"/>
<path fill="#F4F4F4" d="M156.182,139.056c-1.107,0-2.006-0.896-2.006-2.005l0,0v-22.776c0-1.107,0.899-2.006,2.006-2.006l0,0h22.776
	c1.107,0,2.006,0.898,2.006,2.006l0,0v22.776c0,1.109-0.898,2.005-2.006,2.005l0,0H156.182L156.182,139.056z M156.177,114.274
	v22.776l0.006,0.006h22.776l0.006-0.006v-22.776c0,0-0.006-0.006-0.006-0.004l0,0l-22.776-0.002L156.177,114.274L156.177,114.274z"
	/>
<path fill="#F4F4F4" d="M183.953,139.056c-1.107,0-2.004-0.896-2.006-2.005l0,0l0.002-22.776c0-1.107,0.896-2.006,2.004-2.006l0,0
	h22.778c1.107,0,2.004,0.898,2.004,2.006l0,0v22.776c0,1.109-0.896,2.005-2.004,2.005l0,0H183.953L183.953,139.056z
	 M183.948,114.274v22.776l0.004,0.006h22.778l0.004-0.006v-22.776c0,0-0.004-0.006-0.004-0.004l0,0l-22.778-0.002L183.948,114.274
	L183.948,114.274z"/>
<path fill="#F4F4F4" d="M211.725,139.056c-1.107,0-2.006-0.896-2.006-2.005l0,0v-22.776c0-1.107,0.899-2.006,2.006-2.006l0,0h22.776
	c1.107,0,2.006,0.898,2.006,2.006l0,0v22.776c0,1.109-0.898,2.005-2.006,2.005l0,0H211.725L211.725,139.056z M211.719,114.274
	v22.776l0.006,0.006h22.776l0.006-0.006v-22.776c0,0-0.006-0.006-0.006-0.004l0,0l-22.776-0.002L211.719,114.274L211.719,114.274z"
	/>
<path fill="#F4F4F4" d="M239.495,139.055c-1.107,0-2.004-0.896-2.004-2.004l0,0v-22.778c0-1.107,0.897-2.004,2.004-2.006l0,0
	l22.777,0.002c1.107,0,2.004,0.896,2.006,2.004l0,0v22.778h-0.002c0,1.107-0.896,2.004-2.004,2.006l0,0L239.495,139.055
	L239.495,139.055z M239.491,114.273v22.778l0.004,0.004h22.777l0.006-0.004h-0.002l0.002-22.778c0,0-0.006-0.006-0.006-0.004l0,0
	l-22.777-0.002L239.491,114.273L239.491,114.273z"/>
<path fill="#F4F4F4" d="M267.266,139.056c-1.107,0-2.005-0.897-2.005-2.005l0,0v-22.777c0-1.107,0.898-2.005,2.005-2.005l0,0h22.777
	c1.109,0,2.004,0.897,2.006,2.005l0,0v22.777h-0.002c0,1.107-0.896,2.005-2.004,2.005l0,0H267.266L267.266,139.056z
	 M290.043,137.057l0.006-0.006v-22.777c0,0-0.006-0.006-0.006-0.004l0,0l-22.777-0.002l-0.004,0.006v22.777
	c0,0,0.004,0.006,0.004,0.004l0,0L290.043,137.057L290.043,137.057z"/>
<path fill="#F4F4F4" d="M295.039,139.057c-1.109,0-2.005-0.898-2.007-2.005l0,0l0.002-22.778c0-1.107,0.896-2.005,2.005-2.005l0,0
	h22.776c1.106,0.002,2.003,0.898,2.005,2.005l0,0v22.778h-0.002c0,1.107-0.896,2.003-2.003,2.005l0,0H295.039L295.039,139.057z
	 M295.033,114.273v22.778l0.006,0.004h22.776l0.004-0.004v-22.778l-0.004-0.004h-22.776L295.033,114.273L295.033,114.273z"/>
<path fill="#F4F4F4" d="M322.808,139.055c-1.106,0-2.004-0.896-2.006-2.004l0,0l0.002-22.777c0-1.108,0.897-2.006,2.004-2.006l0,0
	h22.778c1.106,0,2.004,0.897,2.007,2.006l0,0v22.777h-0.003c0,1.108-0.897,2.004-2.004,2.006l0,0L322.808,139.055L322.808,139.055z
	 M345.587,137.058l0.005-0.006v-22.777l-0.005-0.006h-22.778c0,0-0.006,0.006-0.004,0.006l0,0l-0.002,22.777
	c0,0,0.006,0.006,0.006,0.004l0,0L345.587,137.058L345.587,137.058z"/>
<path fill="#F4F4F4" d="M350.578,139.056c-1.105,0-2.004-0.896-2.004-2.004l0,0v-22.776c0-1.108,0.898-2.006,2.004-2.006l0,0h22.779
	c1.107,0,2.004,0.898,2.006,2.006l0,0v22.776h-0.002c0,1.108-0.896,2.004-2.004,2.004l0,0H350.578L350.578,139.056z
	 M350.574,114.275v22.776l0.004,0.004h22.779l0.006-0.004h-0.002l0.002-22.776l-0.006-0.006h-22.779L350.574,114.275
	L350.574,114.275z"/>
<path fill="#F4F4F4" d="M378.351,139.055c-1.108-0.002-2.003-0.897-2.007-2.005l0,0l0.002-22.776
	c0.002-1.108,0.896-2.003,2.005-2.007l0,0l22.775,0.002c1.107,0.002,2.003,0.897,2.007,2.005l0,0v22.776h-0.002
	c-0.002,1.107-0.897,2.003-2.005,2.007l0,0L378.351,139.055L378.351,139.055z M378.346,114.274l-0.002,22.776l0.007,0.006h22.775
	l0.007-0.006h-0.002l0.002-22.776l-0.007-0.006h-22.775C378.351,114.268,378.344,114.274,378.346,114.274L378.346,114.274z"/>
<path fill="#F4F4F4" d="M406.122,139.055c-1.106,0-2.005-0.896-2.007-2.003l0,0l0.002-22.777c0-1.109,0.898-2.005,2.005-2.005l0,0
	h22.777c1.107,0,2.005,0.896,2.008,2.005l0,0v22.777h-0.003c0,1.107-0.897,2.003-2.005,2.005l0,0L406.122,139.055L406.122,139.055z
	 M406.116,114.274v22.777l0.006,0.004h22.777l0.006-0.004v-22.777l-0.006-0.006h-22.777L406.116,114.274L406.116,114.274z"/>
<path fill="#F4F4F4" d="M107.526,166.77c-1.107,0-2.004-0.897-2.006-2.004l0,0l0.002-22.778c0-1.107,0.897-2.004,2.004-2.004l0,0
	h22.778c1.107,0,2.004,0.897,2.004,2.004l0,0v22.778c0,1.107-0.897,2.004-2.004,2.004l0,0H107.526L107.526,166.77z M130.303,164.771
	l0.004-0.006v-22.778c0,0-0.004-0.006-0.004-0.004l0,0l-22.778-0.002l-0.006,0.006v22.778c0,0,0.006,0.006,0.006,0.004l0,0
	L130.303,164.771L130.303,164.771z"/>
<path fill="#F4F4F4" d="M135.296,166.77c-1.107,0-2.004-0.897-2.004-2.004l0,0v-22.778c0-1.107,0.897-2.004,2.004-2.004l0,0h22.778
	c1.107,0,2.006,0.897,2.006,2.004l0,0v22.778c0,1.107-0.899,2.004-2.006,2.004l0,0H135.296L135.296,166.77z M158.073,164.771
	l0.006-0.006v-22.778c0,0-0.006-0.006-0.006-0.004l0,0l-22.778-0.002l-0.004,0.006v22.778c0,0,0.004,0.006,0.004,0.004l0,0
	L158.073,164.771L158.073,164.771z"/>
<path fill="#F4F4F4" d="M163.068,166.77c-1.109,0-2.004-0.897-2.007-2.004l0,0l0.002-22.778c0-1.107,0.895-2.004,2.004-2.004l0,0
	h22.777c1.107,0,2.004,0.897,2.004,2.004l0,0v22.778c0,1.107-0.897,2.004-2.004,2.004l0,0H163.068L163.068,166.77z M185.845,164.771
	l0.004-0.006v-22.778c0,0-0.004-0.006-0.004-0.004l0,0l-22.777-0.002c0,0-0.006,0.006-0.004,0.006l0,0l-0.002,22.778
	c0,0,0.006,0.006,0.006,0.004l0,0L185.845,164.771L185.845,164.771z"/>
<path fill="#F4F4F4" d="M190.84,166.77c-1.109,0-2.006-0.897-2.006-2.004l0,0v-22.778c0-1.107,0.897-2.004,2.006-2.004l0,0h22.778
	c1.107,0,2.002,0.897,2.004,2.004l0,0v22.778h-0.002c0,1.107-0.895,2.004-2.002,2.004l0,0H190.84L190.84,166.77z M213.618,164.771
	l0.004-0.006h-0.002l0.002-22.778c0,0-0.004-0.006-0.004-0.004l0,0l-22.778-0.002l-0.006,0.006v22.778c0,0,0.006,0.006,0.006,0.004
	l0,0L213.618,164.771L213.618,164.771z"/>
<path fill="#F4F4F4" d="M218.61,166.77c-1.107,0-2.004-0.897-2.006-2.004l0,0l0.002-22.778c0-1.107,0.897-2.004,2.004-2.004l0,0
	h22.778c1.107,0,2.004,0.897,2.004,2.004l0,0v22.778c0,1.107-0.897,2.004-2.004,2.004l0,0H218.61L218.61,166.77z M241.388,164.771
	l0.004-0.006v-22.778c0,0-0.004-0.006-0.004-0.004l0,0l-22.778-0.002l-0.006,0.006v22.778c0,0,0.006,0.006,0.006,0.004l0,0
	L241.388,164.771L241.388,164.771z"/>
<path fill="#F4F4F4" d="M246.38,166.77c-1.107,0-2.004-0.897-2.004-2.004l0,0v-22.778c0-1.107,0.897-2.004,2.004-2.004l0,0h22.778
	c1.107,0,2.006,0.897,2.006,2.004l0,0v22.778c0,1.107-0.899,2.004-2.006,2.004l0,0H246.38L246.38,166.77z M269.158,164.771
	l0.006-0.006v-22.778c0,0-0.006-0.006-0.006-0.004l0,0l-22.778-0.002l-0.004,0.006v22.778c0,0,0.004,0.006,0.004,0.004l0,0
	L269.158,164.771L269.158,164.771z"/>
<path fill="#F4F4F4" d="M274.152,166.769c-1.108,0-2.004-0.896-2.004-2.004l0,0v-22.776c0-1.108,0.896-2.006,2.004-2.006l0,0h22.778
	c1.108,0,2.004,0.898,2.004,2.006l0,0v22.776c0,1.108-0.896,2.004-2.004,2.006l0,0L274.152,166.769L274.152,166.769z
	 M274.148,141.989v22.776l0.004,0.006h22.778l0.004-0.006v-22.776l-0.004-0.006h-22.778L274.148,141.989L274.148,141.989z"/>
<path fill="#F4F4F4" d="M301.925,166.77c-1.107-0.002-2.005-0.897-2.007-2.005l0,0v-22.776c0.002-1.108,0.899-2.003,2.007-2.005l0,0
	h22.776c1.107,0,2.003,0.897,2.005,2.005l0,0v22.776h-0.002c0,1.106-0.896,2.005-2.003,2.005l0,0H301.925L301.925,166.77z
	 M324.701,164.771l0.004-0.006v-22.776l-0.004-0.006h-22.776l-0.007,0.006v22.776c0,0,0.007,0.006,0.007,0.004l0,0L324.701,164.771
	L324.701,164.771z"/>
<path fill="#F4F4F4" d="M329.695,166.769c-1.107,0-2.006-0.896-2.006-2.003l0,0v-22.777c0-1.109,0.898-2.005,2.006-2.005l0,0h22.775
	c1.106,0.002,2.003,0.898,2.007,2.005l0,0v22.777h-0.002c-0.002,1.107-0.898,2.003-2.005,2.006l0,0L329.695,166.769L329.695,166.769
	z M329.689,141.988v22.777l0.006,0.004h22.775l0.006-0.004v-22.777l-0.006-0.006h-22.775L329.689,141.988L329.689,141.988z"/>
<path fill="#F4F4F4" d="M357.465,166.771c-1.107,0-2.004-0.899-2.004-2.006l0,0v-22.777c0-1.107,0.896-2.004,2.004-2.006l0,0
	l22.778,0.002c1.107,0,2.005,0.895,2.005,2.004l0,0v22.777c0,1.109-0.897,2.004-2.005,2.006l0,0H357.465L357.465,166.771z
	 M357.461,141.988v22.777l0.004,0.006h22.778l0.005-0.006v-22.777c0,0-0.005-0.006-0.005-0.004l0,0l-22.778-0.002L357.461,141.988
	L357.461,141.988z"/>
<path fill="#F4F4F4" d="M385.237,166.77c-1.108-0.002-2.005-0.898-2.007-2.004l0,0l0.002-22.776c0-1.108,0.896-2.004,2.005-2.006
	l0,0h22.776c1.106,0,2.004,0.898,2.004,2.006l0,0v22.776c0,1.108-0.897,2.004-2.004,2.004l0,0H385.237L385.237,166.77z
	 M408.013,164.771l0.006-0.006h-0.002l0.002-22.776l-0.006-0.006h-22.776l-0.006,0.006v22.776c0,0,0.006,0.006,0.006,0.004l0,0
	L408.013,164.771L408.013,164.771z"/>
<path fill="#F4F4F4" d="M413.008,167.114c-1.106,0-2.006-0.897-2.006-2.005l0,0v-22.777c0-1.108,0.899-2.005,2.006-2.005l0,0
	c3.871,0,16.006,0,17.685,0l0,0c0.683-0.048,0.639-0.069,0.83-0.344l0,0c0.19-0.324,0.355-1.251,0.352-2.758l0,0h-0.002
	l0.002-22.779c0-1.107,0.897-2.004,2.006-2.006l0,0l22.777,0.002c0.547-0.021,1.138,0.285,1.421,0.717l0,0
	c0.293,0.426,0.366,0.872,0.371,1.287l0,0l-0.003,50.664c0,1.106-0.896,2.005-2.005,2.005l0,0H413.008L413.008,167.114z
	 M413.002,142.332v22.777l0.006,0.004h43.434c0,0,0.006-0.004,0.004-0.004l0,0l0.002-50.664c0-0.001,0-0.003,0-0.004l0,0H433.88
	l-0.007,0.004v22.779h-0.999l0.999,0.002c-0.019,1.616-0.104,2.741-0.58,3.687l0,0c-0.476,0.995-1.604,1.463-2.601,1.413l0,0
	c-1.679,0-13.813,0-17.685,0l0,0L413.002,142.332L413.002,142.332z"/>
<path fill="#F4F4F4" d="M121.297,194.482c-1.108,0-2.005-0.896-2.005-2.003l0,0v-22.778c0-1.108,0.898-2.005,2.005-2.007l0,0
	l22.778,0.002c1.107,0,2.003,0.896,2.003,2.005l0,0v22.778c0,1.107-0.896,2.003-2.003,2.006l0,0L121.297,194.482L121.297,194.482z
	 M144.075,192.484l0.004-0.005v-22.778l-0.004-0.006h-22.778l-0.006,0.006v22.778c0,0,0.006,0.005,0.006,0.003l0,0L144.075,192.484
	L144.075,192.484z"/>
<path fill="#F4F4F4" d="M58.294,194.482c-1.108,0-2.003-0.896-2.005-2.003l0,0v-22.778c0-1.108,0.898-2.005,2.005-2.005l0,0h57.894
	c1.106,0,2.005,0.896,2.005,2.005l0,0v22.778c-0.002,1.107-0.898,2.003-2.005,2.006l0,0L58.294,194.482L58.294,194.482z
	 M116.188,192.484l0.004-0.005v-22.778c0,0-0.004-0.006-0.004-0.004l0,0l-57.894-0.002l-0.004,0.006v22.778
	c0,0,0.004,0.005,0.004,0.003l0,0L116.188,192.484L116.188,192.484z"/>
<path fill="#F4F4F4" d="M149.068,194.482c-1.108,0-2.005-0.896-2.005-2.003l0,0v-22.778c0-1.108,0.896-2.005,2.005-2.007l0,0
	l22.776,0.002c1.109,0,2.005,0.896,2.007,2.005l0,0v22.778h-0.002c0,1.107-0.896,2.003-2.005,2.006l0,0L149.068,194.482
	L149.068,194.482z M171.844,192.484l0.006-0.005v-22.778l-0.006-0.006h-22.776c0,0-0.006,0.006-0.004,0.006l0,0l-0.002,22.778
	c0,0,0.006,0.005,0.006,0.003l0,0L171.844,192.484L171.844,192.484z"/>
<path fill="#F4F4F4" d="M176.84,194.482c-1.109,0-2.005-0.896-2.007-2.003l0,0l0.002-22.778c0-1.108,0.896-2.005,2.005-2.007l0,0
	l22.776,0.002c1.108,0,2.005,0.896,2.005,2.005l0,0v22.778c0,1.107-0.896,2.003-2.005,2.006l0,0L176.84,194.482L176.84,194.482z
	 M199.616,192.484l0.004-0.005v-22.778l-0.004-0.006H176.84l-0.006,0.006v22.778c0,0,0.006,0.005,0.006,0.003l0,0L199.616,192.484
	L199.616,192.484z"/>
<path fill="#F4F4F4" d="M204.611,194.482c-1.109,0-2.005-0.896-2.007-2.003l0,0v-22.778c0-1.108,0.898-2.005,2.007-2.007l0,0
	l22.776,0.002c1.108,0,2.005,0.896,2.005,2.005l0,0v22.778c-0.002,1.107-0.896,2.003-2.005,2.006l0,0L204.611,194.482
	L204.611,194.482z M227.387,192.484l0.004-0.005v-22.778l-0.004-0.006h-22.776l-0.006,0.006v22.778c0,0,0.006,0.005,0.006,0.003l0,0
	L227.387,192.484L227.387,192.484z"/>
<path fill="#F4F4F4" d="M232.38,194.482c-1.106,0-2.003-0.896-2.005-2.003l0,0v-22.778c0.002-1.108,0.898-2.003,2.005-2.007l0,0
	l22.779,0.002c1.106,0.002,2.003,0.896,2.005,2.005l0,0v22.778c-0.002,1.107-0.898,2.003-2.005,2.006l0,0L232.38,194.482
	L232.38,194.482z M255.159,192.484l0.004-0.005v-22.778l-0.004-0.006H232.38l-0.004,0.006v22.778c0,0,0.004,0.005,0.004,0.003l0,0
	L255.159,192.484L255.159,192.484z"/>
<path fill="#F4F4F4" d="M260.152,194.482c-1.108,0-2.003-0.896-2.005-2.003l0,0v-22.778c0-1.108,0.896-2.005,2.005-2.007l0,0
	l22.776,0.002c1.109,0,2.007,0.896,2.007,2.005l0,0v22.778c-0.002,1.107-0.898,2.003-2.007,2.006l0,0L260.152,194.482
	L260.152,194.482z M282.928,192.484l0.006-0.005v-22.778l-0.006-0.006h-22.776l-0.004,0.006v22.778c0,0,0.004,0.005,0.004,0.003l0,0
	L282.928,192.484L282.928,192.484z"/>
<path fill="#F4F4F4" d="M287.923,194.482c-1.108,0-2.005-0.896-2.005-2.003l0,0v-22.778c0-1.108,0.896-2.005,2.005-2.007l0,0
	l22.779,0.002c1.106,0.002,2,0.898,2.003,2.005l0,0v22.778c0,1.107-0.896,2.003-2.003,2.006l0,0L287.923,194.482L287.923,194.482z
	 M310.702,192.484l0.004-0.005h-0.002l0.002-22.778l-0.004-0.006h-22.779c0,0-0.006,0.006-0.004,0.006l0,0l-0.002,22.778
	c0,0,0.006,0.005,0.006,0.003l0,0L310.702,192.484L310.702,192.484z"/>
<path fill="#F4F4F4" d="M315.694,194.483c-1.11,0-2.005-0.898-2.005-2.004l0,0v-22.778c0.002-1.107,0.897-2.006,2.005-2.006l0,0
	h22.779c1.107,0,2,0.899,2.004,2.006l0,0v22.778h-0.002c0,1.105-0.895,2.004-2.002,2.004l0,0H315.694L315.694,194.483z
	 M315.689,169.702v22.778l0.005,0.004h22.779l0.004-0.004h-0.002l0.002-22.778l-0.004-0.006h-22.779L315.689,169.702
	L315.689,169.702z"/>
<path fill="#F4F4F4" d="M343.466,194.482c-1.109,0-2.005-0.896-2.007-2.003l0,0l0.002-22.777c0-1.109,0.897-2.007,2.005-2.007l0,0
	h22.777c1.107,0,2.001,0.899,2.005,2.007l0,0v22.777h-0.002c0,1.104-0.894,2.003-2.003,2.005l0,0L343.466,194.482L343.466,194.482z
	 M343.46,169.702v22.777l0.006,0.004h22.777l0.005-0.004v-22.777l-0.005-0.006h-22.777L343.46,169.702L343.46,169.702z"/>
<path fill="#F4F4F4" d="M371.235,194.483c-1.109-0.002-2.003-0.896-2.006-2.004l0,0v-22.777c0-1.108,0.899-2.007,2.006-2.007l0,0
	h22.779c1.106,0,2.003,0.899,2.005,2.007l0,0v22.777h-0.002c0,1.107-0.896,2.002-2.003,2.004l0,0H371.235L371.235,194.483z
	 M394.014,192.484l0.004-0.005v-22.777c0,0-0.004-0.008-0.004-0.006l0,0l-22.779-0.002l-0.004,0.008v22.777
	c0,0,0.004,0.005,0.004,0.003l0,0L394.014,192.484L394.014,192.484z"/>
<path fill="#F4F4F4" d="M399.009,194.483c-1.11,0-2.005-0.896-2.008-2.004l0,0l0.003-22.777c0-1.108,0.896-2.005,2.005-2.008l0,0
	h56.859c1.106,0,2.003,0.899,2.006,2.008l0,0v22.777h-0.003c0,1.107-0.896,2.002-2.003,2.004l0,0H399.009L399.009,194.483z
	 M399.003,169.703l-0.002,22.777l0.008,0.005h56.859l0.004-0.005v-22.777l-0.004-0.006h-56.859
	C399.009,169.696,399.001,169.703,399.003,169.703L399.003,169.703z"/>
<path fill="#F4F4F4" d="M462.295,111.342c-1.108,0-2.006-0.898-2.006-2.004l0,0V86.56c0-1.108,0.897-2.004,2.006-2.006l0,0h22.777
	c1.106,0.002,2.004,0.898,2.006,2.006l0,0v22.777h-0.002c0,1.106-0.896,2.004-2.004,2.004l0,0H462.295L462.295,111.342z
	 M462.289,86.56v22.777l0.006,0.004h22.777l0.007-0.004h-0.003l0.003-22.777l-0.007-0.006h-22.777L462.289,86.56L462.289,86.56z"/>
<path fill="#F4F4F4" d="M489.32,111.341c-1.109,0-2.004-0.897-2.006-2.004l0,0l0.002-22.777c0.002-1.108,0.896-2.002,2.004-2.006
	l0,0l22.777,0.002c1.105,0,2.004,0.896,2.006,2.004l0,0v22.777h-0.002c0,1.107-0.896,2.004-2.004,2.006l0,0L489.32,111.341
	L489.32,111.341z M512.097,109.343l0.006-0.006h-0.002l0.002-22.777c0,0-0.006-0.006-0.006-0.004l0,0l-22.777-0.002
	c0,0-0.006,0.006-0.004,0.006l0,0l-0.002,22.777c0,0,0.006,0.006,0.006,0.004l0,0L512.097,109.343L512.097,109.343z"/>
<path fill="#F4F4F4" d="M516.518,111.341c-1.108,0-2.006-0.896-2.008-2.004l0,0l0.002-22.777c0-1.109,0.897-2.004,2.006-2.006l0,0
	l22.777,0.002c1.106,0,2.004,0.896,2.006,2.004l0,0v22.777H541.3c0,1.109-0.897,2.004-2.004,2.006l0,0L516.518,111.341
	L516.518,111.341z M516.512,86.56l-0.002,22.777l0.008,0.006h22.777l0.006-0.006H539.3l0.002-22.777c0,0-0.006-0.006-0.006-0.004
	l0,0l-22.777-0.002C516.518,86.554,516.51,86.56,516.512,86.56L516.512,86.56z"/>
<path fill="#F4F4F4" d="M462.295,139.057c-1.108-0.002-2.006-0.898-2.006-2.006l0,0v-22.777c0-1.108,0.897-2.004,2.006-2.004l0,0
	h22.777c1.106,0,2.004,0.896,2.006,2.004l0,0v22.777h-0.002c0,1.108-0.897,2.004-2.004,2.006l0,0H462.295L462.295,139.057z
	 M462.289,114.273v22.777l0.006,0.006h22.777l0.007-0.006h-0.003l0.003-22.777l-0.007-0.004h-22.777L462.289,114.273
	L462.289,114.273z"/>
<path fill="#F4F4F4" d="M489.32,139.055c-1.107,0-2.002-0.896-2.006-2.004l0,0l0.002-22.777c0.002-1.106,0.896-2.002,2.004-2.007
	l0,0l22.777,0.002c1.105,0,2.004,0.896,2.006,2.004l0,0v22.777h-0.002c0,1.107-0.898,2.004-2.004,2.006l0,0L489.32,139.055
	L489.32,139.055z M512.097,137.057l0.006-0.006h-0.002l0.002-22.777c0,0-0.006-0.006-0.006-0.004l0,0l-22.777-0.002
	c0,0-0.006,0.006-0.004,0.006l0,0l-0.002,22.777c0,0,0.006,0.006,0.006,0.004l0,0L512.097,137.057L512.097,137.057z"/>
<path fill="#F4F4F4" d="M516.518,139.056c-1.108,0-2.006-0.897-2.008-2.004l0,0l0.002-22.776c0-1.109,0.897-2.007,2.006-2.007l0,0
	h22.777c1.106,0,2.004,0.897,2.006,2.007l0,0v22.776H541.3c0,1.107-0.897,2.004-2.004,2.004l0,0H516.518L516.518,139.056z
	 M516.512,114.275l-0.002,22.776l0.008,0.004h22.777l0.006-0.004H539.3l0.002-22.776l-0.006-0.006h-22.777
	C516.518,114.269,516.51,114.275,516.512,114.275L516.512,114.275z"/>
<path fill="#F4F4F4" d="M462.295,166.77c-1.108,0-2.006-0.898-2.006-2.004l0,0v-22.777c0-1.108,0.897-2.006,2.006-2.006l0,0h22.777
	c1.106,0,2.004,0.898,2.006,2.006l0,0v22.777h-0.002c0,1.106-0.897,2.004-2.004,2.004l0,0H462.295L462.295,166.77z M462.289,141.988
	v22.777l0.006,0.004h22.777l0.007-0.004h-0.003l0.003-22.777l-0.007-0.006h-22.777L462.289,141.988L462.289,141.988z"/>
<path fill="#F4F4F4" d="M489.32,166.771c-1.107-0.002-2.002-0.899-2.006-2.007l0,0l0.002-22.777
	c0.002-1.105,0.896-2.002,2.004-2.004l0,0h22.777c1.105,0,2.004,0.896,2.006,2.004l0,0v22.777h-0.002
	c0,1.108-0.898,2.007-2.004,2.007l0,0H489.32L489.32,166.771z M489.316,141.987l-0.002,22.777l0.006,0.006h22.777l0.006-0.006
	h-0.002l0.002-22.777c0,0-0.006-0.006-0.006-0.004l0,0l-22.777-0.002C489.32,141.981,489.314,141.987,489.316,141.987
	L489.316,141.987z"/>
<path fill="#F4F4F4" d="M516.518,166.77c-1.108,0-2.006-0.897-2.008-2.004l0,0l0.002-22.778c0-1.107,0.897-2.004,2.006-2.004l0,0
	h22.777c1.106,0,2.004,0.897,2.006,2.004l0,0v22.778H541.3c0,1.107-0.897,2.004-2.004,2.004l0,0H516.518L516.518,166.77z
	 M516.512,141.987l-0.002,22.778l0.008,0.004h22.777l0.006-0.004H539.3l0.002-22.778l-0.006-0.004h-22.777
	C516.518,141.983,516.51,141.987,516.512,141.987L516.512,141.987z"/>
<path fill="#F4F4F4" d="M462.295,194.482c-1.108,0-2.004-0.896-2.006-2.004l0,0v-22.777c0-1.108,0.897-2.004,2.006-2.006l0,0h22.777
	c1.106,0.002,2.004,0.898,2.006,2.006l0,0v22.777h-0.002c0,1.108-0.896,2.004-2.004,2.006l0,0L462.295,194.482L462.295,194.482z
	 M485.072,192.484l0.007-0.006h-0.003l0.003-22.777l-0.007-0.006h-22.777l-0.006,0.006v22.777c0,0,0.006,0.006,0.006,0.004l0,0
	L485.072,192.484L485.072,192.484z"/>
<path fill="#F4F4F4" d="M489.32,194.482c-1.109,0-2.004-0.896-2.006-2.002l0,0l0.002-22.779c0.002-1.107,0.896-2.004,2.004-2.006
	l0,0l22.777,0.002c1.105,0,2.004,0.897,2.006,2.004l0,0v22.779h-0.002c0,1.105-0.896,2.002-2.004,2.004l0,0L489.32,194.482
	L489.32,194.482z M512.097,192.484l0.006-0.004h-0.002l0.002-22.779c0,0-0.006-0.006-0.006-0.004l0,0l-22.777-0.002
	c0,0-0.006,0.006-0.004,0.006l0,0l-0.002,22.779c0,0,0.006,0.004,0.006,0.002l0,0L512.097,192.484L512.097,192.484z"/>
<path fill="#F4F4F4" d="M516.518,194.482c-1.108,0-2.006-0.896-2.008-2.002l0,0l0.002-22.779c0-1.109,0.897-2.006,2.006-2.006l0,0
	h22.777c1.106,0,2.004,0.897,2.006,2.006l0,0v22.779H541.3c0,1.106-0.897,2.002-2.004,2.004l0,0L516.518,194.482L516.518,194.482z
	 M539.296,192.484l0.006-0.004H539.3l0.002-22.779l-0.006-0.006h-22.777c0,0-0.008,0.006-0.006,0.006l0,0l-0.002,22.779
	c0,0,0.008,0.004,0.008,0.002l0,0L539.296,192.484L539.296,192.484z"/>
<path fill="#F4F4F4" d="M462.295,222.197c-1.106,0-2.006-0.896-2.006-2.004l0,0v-22.777c0.002-1.108,0.897-2.004,2.006-2.006l0,0
	h22.777c1.108,0.002,2.004,0.897,2.006,2.006l0,0v22.777h-0.002c0,1.108-0.897,2.004-2.004,2.004l0,0H462.295L462.295,222.197z
	 M462.289,197.416v22.777l0.006,0.004h22.777l0.007-0.004h-0.003l0.003-22.777l-0.007-0.006h-22.777L462.289,197.416
	L462.289,197.416z"/>
<path fill="#F4F4F4" d="M489.32,222.196c-1.107-0.003-2.004-0.897-2.006-2.003l0,0l0.002-22.778c0-1.108,0.895-2.005,2.004-2.005
	l0,0h22.777c1.107,0,2.004,0.896,2.006,2.005l0,0v22.778h-0.002c0,1.108-0.898,2.003-2.004,2.005l0,0L489.32,222.196L489.32,222.196
	z M512.097,220.198l0.006-0.005h-0.002l0.002-22.778l-0.006-0.005H489.32c0,0-0.006,0.005-0.004,0.005l0,0l-0.002,22.778
	c0,0,0.006,0.005,0.006,0.003l0,0L512.097,220.198L512.097,220.198z"/>
<path fill="#F4F4F4" d="M516.518,222.197c-1.108,0-2.006-0.896-2.008-2.003l0,0l0.002-22.778c0-1.109,0.897-2.005,2.006-2.007l0,0
	l22.777,0.002c1.106,0,2.004,0.896,2.006,2.005l0,0v22.778H541.3c0,1.107-0.897,2.003-2.004,2.003l0,0H516.518L516.518,222.197z
	 M539.296,220.199l0.006-0.005H539.3l0.002-22.778c0,0-0.006-0.007-0.006-0.004l0,0l-22.777-0.003c0,0-0.008,0.007-0.006,0.007l0,0
	l-0.002,22.778c0,0,0.008,0.005,0.008,0.002l0,0L539.296,220.199L539.296,220.199z"/>
<path fill="#F4F4F4" d="M391.548,111.342c-1.106,0-2.006-0.896-2.006-2.006l0,0V86.56c0-1.107,0.899-2.004,2.006-2.006l0,0
	l22.777,0.002c1.107,0.002,2.002,0.899,2.006,2.004l0,0v22.777h-0.002c0,1.107-0.895,2.006-2.004,2.006l0,0H391.548L391.548,111.342
	z M391.542,86.56v22.777l0.006,0.006h22.777l0.006-0.006h-0.002l0.002-22.777l-0.006-0.004h-22.777L391.542,86.56L391.542,86.56z"/>
<path fill="#F4F4F4" d="M420.294,111.343c-1.106-0.002-2.006-0.897-2.006-2.005l0,0V86.56c0-1.108,0.899-2.006,2.006-2.006l0,0
	h36.205c1.106,0.002,2.001,0.899,2.005,2.006l0,0v22.777h-0.002c0,1.106-0.895,2.005-2.003,2.005l0,0H420.294L420.294,111.343z
	 M420.289,86.56l-0.002,22.777l0.007,0.004h36.205l0.004-0.004V86.56c0,0-0.004-0.006-0.004-0.004l0,0l-36.205-0.002
	C420.294,86.554,420.287,86.56,420.289,86.56L420.289,86.56z"/>
<path fill="#F4F4F4" d="M413.065,222.196c-1.109,0-2.006-0.894-2.008-2.002l0,0l0.002-22.779c0-1.108,0.896-2.003,2.006-2.006l0,0
	l43.434,0.003c1.108,0,2.003,0.896,2.005,2.003l0,0v22.779h-0.002c0,1.106-0.896,2-2.003,2.004l0,0L413.065,222.196L413.065,222.196
	z M456.499,220.199l0.004-0.005v-22.779c0,0-0.004-0.006-0.004-0.004l0,0l-43.434-0.002l-0.007,0.006v22.779
	c0,0,0.007,0.005,0.007,0.002l0,0L456.499,220.199L456.499,220.199z"/>
<path fill="#F4F4F4" d="M58.296,222.196c-1.108,0-2.006-0.896-2.006-2.002l0,0v-22.778c0-1.108,0.897-2.006,2.006-2.006l0,0h41.367
	c1.108,0,2.005,0.897,2.005,2.006l0,0v22.778c0,1.108-0.899,2.002-2.005,2.004l0,0L58.296,222.196L58.296,222.196z M99.663,220.199
	l0.006-0.005v-22.778c0,0-0.006-0.007-0.006-0.004l0,0l-41.367-0.003l-0.006,0.007v22.778c0,0,0.006,0.005,0.006,0.002l0,0
	L99.663,220.199L99.663,220.199z"/>
<path fill="#F4F4F4" d="M58.295,166.77c-1.107,0-2.005-0.897-2.005-2.004l0,0v-22.778c0-1.107,0.897-2.004,2.005-2.004l0,0h43.434
	c1.109,0,2.006,0.897,2.006,2.004l0,0v22.778c0,1.107-0.897,2.004-2.006,2.004l0,0H58.295L58.295,166.77z M101.728,164.771
	l0.006-0.006v-22.778c0,0-0.006-0.006-0.006-0.004l0,0l-43.434-0.002l-0.004,0.006v22.778c0,0,0.004,0.006,0.004,0.004l0,0
	L101.728,164.771L101.728,164.771z"/>
<path fill="#F4F4F4" d="M58.295,139.056c-1.107,0-2.006-0.896-2.006-2.003l0,0v-22.778c0-1.107,0.898-2.006,2.006-2.006l0,0h37.236
	c1.107,0,2.006,0.898,2.006,2.006l0,0v22.778c0,1.107-0.898,2.003-2.006,2.003l0,0H58.295L58.295,139.056z M58.291,114.274
	l-0.002,22.778l0.006,0.004h37.236l0.006-0.004v-22.778c0,0-0.006-0.006-0.006-0.004l0,0l-37.236-0.002
	C58.295,114.268,58.289,114.274,58.291,114.274L58.291,114.274z"/>
<path fill="#F4F4F4" d="M370.029,222.196c-1.106,0-2.004-0.895-2.006-2.003l0,0l0.002-22.779c0-1.106,0.897-2.004,2.004-2.004l0,0
	h38.271c1.109,0,2.003,0.897,2.005,2.004l0,0v22.779h-0.002c0,1.106-0.896,2.001-2.003,2.005l0,0L370.029,222.196L370.029,222.196z
	 M370.025,197.414l-0.002,22.779l0.006,0.005h38.271l0.005-0.005h-0.002l0.002-22.779l-0.005-0.004h-38.271
	C370.029,197.41,370.023,197.414,370.025,197.414L370.025,197.414z"/>
<path fill="#F4F4F4" d="M104.943,222.196c-1.108,0-2.005-0.894-2.007-2.002l0,0l0.002-22.778c0-1.108,0.897-2.006,2.005-2.006l0,0
	h40.335c1.108,0,2.004,0.897,2.006,2.006l0,0v22.778h-0.002c0,1.106-0.897,2.002-2.004,2.004l0,0L104.943,222.196L104.943,222.196z
	 M145.278,220.199l0.004-0.005v-22.778c0,0-0.004-0.007-0.004-0.004l0,0l-40.335-0.003l-0.006,0.007v22.778
	c0,0,0.006,0.005,0.006,0.002l0,0L145.278,220.199L145.278,220.199z"/>
<path fill="#F4F4F4" d="M150.387,222.198c-1.107,0-2.007-0.896-2.007-2.005l0,0v-22.777c0-1.108,0.898-2.004,2.007-2.007l0,0
	l214.879,0.003c1.106,0,2.005,0.896,2.005,2.004l0,0v22.777c0,1.109-0.898,2.005-2.005,2.005l0,0H150.387L150.387,222.198z
	 M150.381,197.416v22.777l0.006,0.004h214.879l0.006-0.004h-0.002l0.002-22.777l-0.006-0.006H150.387L150.381,197.416
	L150.381,197.416z"/>
<path fill="#F4F4F4" d="M49.62,228.18V77.711h498.522v149.466v1.002H49.62L49.62,228.18z M547.142,227.178v-0.999V227.178
	L547.142,227.178z M51.62,226.179H546.14V79.713H51.62V226.179L51.62,226.179z"/>
<path fill="#F4F4F4" d="M32.675,324.102v-1.001l0.999-0.032l-0.999,0.032V324.102h-0.969L22.863,43.759h550.485l-8.843,280.342
	H32.675L32.675,324.102z M562.568,322.1l8.716-276.341H24.926L33.642,322.1H562.568L562.568,322.1z"/>
<path fill="#F4F4F4" d="M7.403,346.308V2.963h580.891v342.345v1H7.403L7.403,346.308z M587.293,345.308v-1.002V345.308
	L587.293,345.308z M9.403,344.306h576.888V4.964H9.403V344.306L9.403,344.306z"/>
<polygon fill="#F4F4F4" points="31.674,345.306 31.674,323.102 33.674,323.102 33.674,345.306 31.674,345.306 "/>
<polygon fill="#F4F4F4" points="197.956,345.049 197.956,323.102 199.956,323.102 199.956,345.049 197.956,345.049 "/>
<polygon fill="#F4F4F4" points="396.256,345.306 396.256,323.102 398.256,323.102 398.256,345.306 396.256,345.306 "/>
<polygon fill="#F4F4F4" points="562.537,345.048 562.537,323.103 564.538,323.103 564.538,345.048 562.537,345.048 "/>
<polygon fill="#F4F4F4" points="37.354,44.931 37.354,19.078 35.912,19.078 35.912,44.931 33.913,44.931 33.913,17.079 
	39.355,17.079 39.355,44.931 37.354,44.931 "/>
<polygon fill="#F4F4F4" points="55.37,44.931 55.37,19.078 53.927,19.078 53.927,44.931 51.927,44.931 51.927,17.079 57.369,17.079 
	57.369,44.931 55.37,44.931 "/>
<polygon fill="#F4F4F4" points="73.384,44.931 73.384,19.078 71.942,19.078 71.942,44.931 69.943,44.931 69.943,17.079 
	75.385,17.079 75.385,44.931 73.384,44.931 "/>
<polygon fill="#F4F4F4" points="91.4,44.931 91.4,19.078 89.957,19.078 89.957,44.931 87.957,44.931 87.957,17.079 93.399,17.079 
	93.399,44.931 91.4,44.931 "/>
<polygon fill="#F4F4F4" points="109.414,44.931 109.414,19.078 107.971,19.078 107.971,44.931 105.972,44.931 105.972,17.079 
	111.413,17.079 111.415,44.931 109.414,44.931 "/>
<polygon fill="#F4F4F4" points="127.429,44.931 127.429,19.078 125.987,19.078 125.987,44.931 123.987,44.931 123.987,17.079 
	129.428,17.079 129.428,44.931 127.429,44.931 "/>
<polygon fill="#F4F4F4" points="145.444,44.931 145.444,19.078 144.001,19.078 144.001,44.931 142.002,44.931 142.002,17.079 
	147.443,17.079 147.445,44.931 145.444,44.931 "/>
<polygon fill="#F4F4F4" points="163.459,44.931 163.457,19.078 162.015,19.078 162.015,44.931 162.017,44.931 160.016,44.931 
	160.016,17.079 165.458,17.079 165.458,44.931 163.459,44.931 "/>
<polygon fill="#F4F4F4" points="181.474,44.931 181.472,19.078 180.031,19.078 180.031,44.931 178.031,44.931 178.031,17.079 
	183.472,17.079 183.472,44.931 181.474,44.931 "/>
<polygon fill="#F4F4F4" points="199.488,44.932 199.488,19.078 198.046,19.078 198.046,44.932 196.045,44.932 196.045,17.079 
	201.487,17.079 201.489,44.932 199.488,44.932 "/>
<polygon fill="#F4F4F4" points="217.502,44.93 217.502,19.078 216.061,19.078 216.061,44.93 214.06,44.93 214.06,17.078 
	219.501,17.078 219.504,44.93 217.502,44.93 "/>
<polygon fill="#F4F4F4" points="235.517,44.932 235.517,19.078 234.075,19.078 234.075,44.932 232.075,44.932 232.075,17.079 
	237.517,17.079 237.517,44.932 235.517,44.932 "/>
<polygon fill="#F4F4F4" points="253.532,44.931 253.532,19.078 252.091,19.078 252.091,44.931 250.091,44.931 250.091,17.078 
	255.532,17.078 255.532,44.931 253.532,44.931 "/>
<polygon fill="#F4F4F4" points="271.548,44.932 271.548,19.079 270.105,19.079 270.105,44.932 268.105,44.932 268.105,17.079 
	273.546,17.079 273.548,44.932 271.548,44.932 "/>
<polygon fill="#F4F4F4" points="289.562,44.93 289.562,19.078 288.12,19.078 288.12,44.93 286.119,44.93 286.119,17.077 
	291.562,17.077 291.562,44.93 289.562,44.93 "/>
<polygon fill="#F4F4F4" points="307.577,44.932 307.575,19.078 306.134,19.078 306.134,44.932 304.135,44.932 304.135,17.079 
	309.575,17.079 309.577,44.932 307.577,44.932 "/>
<polygon fill="#F4F4F4" points="325.591,44.931 325.591,19.078 324.146,19.078 324.146,44.931 324.149,44.931 322.147,44.931 
	322.147,17.079 327.59,17.079 327.592,44.931 325.591,44.931 "/>
<polygon fill="#F4F4F4" points="343.606,44.931 343.606,19.079 342.163,19.079 342.163,44.931 342.165,44.931 340.164,44.931 
	340.164,17.078 345.605,17.078 345.607,44.931 343.606,44.931 "/>
<polygon fill="#F4F4F4" points="361.62,44.932 361.62,19.077 360.177,19.077 360.177,44.932 358.178,44.932 358.178,17.078 
	363.62,17.078 363.62,44.932 361.62,44.932 "/>
<polygon fill="#F4F4F4" points="379.636,44.932 379.635,19.077 378.191,19.077 378.191,44.932 378.193,44.932 376.192,44.932 
	376.192,17.079 381.635,17.079 381.636,44.932 379.636,44.932 "/>
<polygon fill="#F4F4F4" points="397.651,44.931 397.651,19.078 396.207,19.078 396.207,44.931 396.209,44.931 394.209,44.931 
	394.209,17.078 399.65,17.078 399.65,44.931 397.651,44.931 "/>
<polygon fill="#F4F4F4" points="415.666,44.931 415.666,19.078 414.222,19.078 414.222,44.931 412.222,44.931 412.222,17.078 
	417.664,17.078 417.666,44.931 415.666,44.931 "/>
<polygon fill="#F4F4F4" points="433.68,44.931 433.68,19.079 432.236,19.079 432.236,44.931 432.238,44.931 430.238,44.931 
	430.238,17.079 435.678,17.079 435.68,44.931 433.68,44.931 "/>
<polygon fill="#F4F4F4" points="451.696,44.932 451.694,19.078 450.253,19.078 450.253,44.932 448.252,44.932 448.252,17.078 
	453.694,17.078 453.696,44.932 451.696,44.932 "/>
<polygon fill="#F4F4F4" points="469.711,44.932 469.709,19.078 468.266,19.078 468.266,44.932 468.268,44.932 466.268,44.932 
	466.268,17.079 471.709,17.079 471.711,44.932 469.711,44.932 "/>
<polygon fill="#F4F4F4" points="487.724,44.932 487.724,19.076 486.281,19.076 486.281,44.932 486.283,44.932 484.282,44.932 
	484.282,17.078 489.722,17.078 489.724,44.932 487.724,44.932 "/>
<polygon fill="#F4F4F4" points="505.74,44.932 505.74,19.077 504.296,19.077 504.296,44.932 502.295,44.932 502.295,17.079 
	507.738,17.079 507.74,44.932 505.74,44.932 "/>
<polygon fill="#F4F4F4" points="523.756,44.932 523.753,19.077 522.31,19.077 522.31,44.932 522.312,44.932 520.311,44.932 
	520.311,17.079 525.754,17.079 525.756,44.932 523.756,44.932 "/>
<polygon fill="#F4F4F4" points="541.769,44.932 541.769,19.077 540.326,19.077 540.326,44.932 538.327,44.932 538.327,17.078 
	543.768,17.078 543.77,44.932 541.769,44.932 "/>
<polygon fill="#F4F4F4" points="559.784,44.931 559.784,19.077 558.34,19.077 558.34,44.931 558.342,44.931 556.341,44.931 
	556.341,17.079 561.783,17.079 561.785,44.931 559.784,44.931 "/>
<path fill="#F4F4F4" d="M2.929,73.592c-0.002-4.353,1.917-8.264,4.953-10.921l0,0l1.317,1.504c-2.619,2.297-4.271,5.66-4.271,9.417
	l0,0c0,3.692,1.596,7.002,4.139,9.297l0,0l-1.34,1.484C4.781,81.722,2.927,77.867,2.929,73.592L2.929,73.592z"/>
<path fill="#F4F4F4" d="M2.929,293.237c-0.002-4.354,1.919-8.265,4.953-10.921l0,0L9.2,283.82c-2.621,2.297-4.272,5.659-4.272,9.417
	l0,0c0,3.69,1.595,7.002,4.139,9.295l0,0v0.002l-1.34,1.484C4.782,301.365,2.927,297.513,2.929,293.237L2.929,293.237z"/>
<path fill="#F4F4F4" d="M586.423,82.889c2.542-2.293,4.138-5.605,4.138-9.297l0,0c0-3.756-1.652-7.119-4.27-9.417l0,0l1.315-1.503
	c3.035,2.656,4.955,6.569,4.953,10.92l0,0c0.002,4.276-1.853,8.13-4.798,10.781l0,0v0.002L586.423,82.889L586.423,82.889z"/>
<path fill="#F4F4F4" d="M586.423,302.532c2.542-2.294,4.138-5.604,4.138-9.295l0,0c0-3.759-1.65-7.119-4.27-9.417l0,0l1.315-1.505
	c3.035,2.657,4.955,6.569,4.955,10.922l0,0c0,4.275-1.854,8.128-4.8,10.781l0,0L586.423,302.532L586.423,302.532z"/>
</svg>
