<?xml version="1.0" encoding="utf-8"?>
<!-- Generator: Adobe Illustrator 13.0.0, SVG Export Plug-In . SVG Version: 6.00 Build 14948)  -->
<!DOCTYPE svg [
	<!ENTITY ns_flows "http://ns.adobe.com/Flows/1.0/">
	<!ENTITY ns_extend "http://ns.adobe.com/Extensibility/1.0/">
	<!ENTITY ns_ai "http://ns.adobe.com/AdobeIllustrator/10.0/">
	<!ENTITY ns_graphs "http://ns.adobe.com/Graphs/1.0/">
	<!ENTITY ns_vars "http://ns.adobe.com/Variables/1.0/">
	<!ENTITY ns_imrep "http://ns.adobe.com/ImageReplacement/1.0/">
	<!ENTITY ns_sfw "http://ns.adobe.com/SaveForWeb/1.0/">
	<!ENTITY ns_custom "http://ns.adobe.com/GenericCustomNamespace/1.0/">
	<!ENTITY ns_adobe_xpath "http://ns.adobe.com/XPath/1.0/">
]>
<svg version="1.2" baseProfile="tiny"
	 id="Layer_3" xmlns:x="&ns_extend;" xmlns:i="&ns_ai;" xmlns:graph="&ns_graphs;" xmlns:rdf="http://www.w3.org/1999/02/22-rdf-syntax-ns#" xmlns:dc="http://purl.org/dc/elements/1.1/" xmlns:cc="http://creativecommons.org/ns#"
	 xmlns="http://www.w3.org/2000/svg" xmlns:xlink="http://www.w3.org/1999/xlink" xmlns:a="http://ns.adobe.com/AdobeSVGViewerExtensions/3.0/"
	 x="0px" y="0px" width="598.189px" height="350.26px" viewBox="0 0 598.189 350.26" xml:space="preserve">
<metadata  id="metadata55">
	<rdf:RDF>
		<cc:Work  rdf:about="">
			<dc:format>image/svg+xml</dc:format>
			<dc:type  rdf:resource="http://purl.org/dc/dcmitype/StillImage"></dc:type>
			<dc:title></dc:title>
		</cc:Work>
	</rdf:RDF>
	<sfw  xmlns="&ns_sfw;">
		<slices></slices>
		<sliceSourceBounds  x="-7231" y="-7652" width="16383" height="16383" bottomLeftOrigin="true"></sliceSourceBounds>
	</sfw>
</metadata>
<path id="path3" fill="#F4F4F4" d="M179.554,8.949c-17.037,0.789-61.16,4.455-89.405,44.125l1.625,1.156
	c27.71-38.916,70.96-42.498,87.88-43.281l-0.094-2H179.554z"/>
<path id="path5" fill="#F4F4F4" d="M293.243,34.574c-44.134,0-91.349,3.159-132.379,13.031
	c-41.026,9.872-75.901,26.427-95.218,53.375c-20.514,28.619-31.714,57.876-32.281,84.875c-0.567,26.997,9.536,51.731,31.469,71.124
	c22.496,19.891,40.432,27.779,54.78,32.375c14.349,4.596,24.973,5.945,33.188,12.562l1.28-1.56c-8.76-7.061-19.689-8.37-33.87-12.91
	c-14.18-4.54-31.732-12.25-54.03-31.97c-21.531-19.03-31.369-43.109-30.813-69.589c0.557-26.47,11.568-55.34,31.906-83.718
	c18.877-26.333,53.278-42.779,94.067-52.592c40.78-9.813,87.867-13,131.909-13h9.688c44.037,0,91.124,3.187,131.909,13
	c40.78,9.813,75.217,26.26,94.093,52.593c20.339,28.374,31.35,57.244,31.905,83.719c0.557,26.475-9.281,50.557-30.812,69.594
	c-22.319,19.719-39.899,27.43-54.079,31.969c-14.18,4.54-25.08,5.85-33.84,12.91l1.25,1.563c8.214-6.617,18.869-7.967,33.219-12.563
	c14.349-4.595,32.254-12.483,54.749-32.374c21.933-19.394,32.068-44.126,31.5-71.124c-0.567-26.998-11.767-56.256-32.28-84.875
	c-19.315-26.947-54.224-43.503-95.25-53.375c-41.025-9.873-88.238-13.031-132.378-13.031h-9.688L293.243,34.574z"/>
<path id="path7" fill="#F4F4F4" d="M203.494,7.386c-11.155-0.267-27.503,1.253-45.375,6.188c-23.829,6.58-50.278,19.27-70.25,42.094
	C48.116,101.097,6.525,178.416,4.148,234.516v0.031c-2.359,55.866,17.659,82.522,39.438,94.249
	c16.199,8.724,36.669,7.123,55.656,1.531s36.52-15.222,47-22.844c20.74-15.09,80.069-57.789,139.469-57.789h24.781
	c59.403,0,118.698,42.696,139.438,57.779c10.479,7.623,28.013,17.252,46.999,22.845c18.987,5.592,39.489,7.191,55.688-1.531
	c21.783-11.729,41.776-38.393,39.406-94.28c-2.38-56.09-43.95-133.409-83.689-178.838c-19.979-22.823-46.46-35.514-70.289-42.093
	c-23.82-6.579-44.94-7.105-54.649-5.406c-19.101,3.343-45.79,15.094-81.88,15.094h-6.875c-36.09,0-62.743-11.752-81.843-15.094
	c-2.428-0.425-5.595-0.692-9.313-0.781L203.494,7.386z M203.494,9.386c3.631,0.083,6.682,0.35,8.969,0.75
	c18.621,3.258,45.664,15.125,82.187,15.125h6.875c36.522,0,63.597-11.866,82.219-15.125c9.148-1.601,30.223-1.161,53.78,5.344
	c23.559,6.505,49.677,19.059,69.312,41.5c39.461,45.102,80.849,122.408,83.187,177.588c2.349,55.389-17.249,81.063-38.374,92.438
	c-15.485,8.339-35.414,6.886-54.125,1.375c-18.71-5.51-36.14-15.033-46.405-22.5c-20.751-15.092-80.265-58.188-140.618-58.188
	h-24.781c-60.359,0-119.869,43.096-140.619,58.188c-10.267,7.467-27.696,16.989-46.406,22.5
	c-18.711,5.511-38.669,6.965-54.155-1.375c-21.131-11.38-40.728-37.049-38.38-92.439c2.339-55.18,43.756-132.488,83.217-177.598
	c19.634-22.44,45.724-34.994,69.284-41.5c17.669-4.878,33.949-6.341,44.839-6.094L203.494,9.386z"/>
<path id="path9" fill="#F4F4F4" d="M416.622,8.949l-0.094,2c16.911,0.783,60.166,4.365,87.874,43.281l1.625-1.156
	c-28.24-39.67-72.369-43.335-89.399-44.125H416.622z"/>
<path id="path11" fill="#F4F4F4" d="M264.243,56.26c-2.083,0-4.727,0.224-7.313,1.5c-2.586,1.277-5.081,3.636-6.813,7.594
	c-3.385,7.735-8.063,24.875-8.063,24.875l1.938,0.531c0,0,4.751-17.272,7.969-24.625c1.569-3.585,3.687-5.481,5.875-6.562
	c2.188-1.081,4.481-1.313,6.406-1.313h29h9.688h28.999c1.926,0,4.25,0.232,6.438,1.313c2.188,1.081,4.275,2.977,5.844,6.562
	c3.218,7.354,7.969,24.625,7.969,24.625l1.938-0.531c0,0-4.678-17.139-8.063-24.875c-1.731-3.958-4.227-6.316-6.813-7.594
	c-2.585-1.276-5.229-1.5-7.313-1.5h-28.999h-9.688L264.243,56.26L264.243,56.26z"/>
<path id="ellipse13" fill="#F4F4F4" d="M197.774,86.772c-32.184-22.613-80.623-8.752-108.269,30.596
	c-27.647,39.348-24.269,89.617,7.914,112.229c32.184,22.613,80.647,8.771,108.299-30.578c27.647-39.347,24.244-89.634-7.939-112.249
	L197.774,86.772z M196.624,88.409c31.094,21.848,34.596,70.832,7.453,109.459c-27.143,38.629-74.416,51.938-105.509,30.09
	c-31.085-21.84-34.562-70.809-7.419-109.438c27.139-38.626,74.388-51.953,105.479-30.105L196.624,88.409z"/>
<path id="circle15" fill="#F4F4F4" d="M148.904,98.135c-33.873,0-61.375,27.471-61.375,61.343c0,33.872,27.502,61.374,61.375,61.374
	s61.343-27.502,61.343-61.374C210.248,125.606,182.777,98.135,148.904,98.135z M148.904,100.135
	c32.792,0,59.343,26.552,59.343,59.343c0,32.792-26.552,59.374-59.343,59.374c-32.792,0-59.375-26.582-59.375-59.374
	C89.53,126.687,116.112,100.135,148.904,100.135z"/>
<path id="path17" fill="#F4F4F4" d="M146.554,106.51c-2.105,0.09-4.177,0.323-6.219,0.656c-0.01,0.001-0.021-0.002-0.031,0v0.031
	c-0.613,0.091-1.285,0.361-1.688,0.906c-0.412,0.556-0.562,1.248-0.625,2.063l-1.313,16.781c-0.433,5.602-2.213,9.627-5.188,12.188
	c-2.974,2.56-7.247,3.749-12.906,3.313l-16.422-1.28c-0.825-0.063-1.486-0.096-2.156,0.156c-0.67,0.252-1.195,0.846-1.469,1.5v0.063
	v0.031c-1.301,3.967-2.164,8.153-2.5,12.5c-0.321,4.151-0.169,8.208,0.438,12.156v0.031c0.271,1.478,1.688,2.692,3.656,2.844
	l16.312,1.25c5.46,0.422,9.459,2.272,12.031,5.375c2.572,3.102,3.76,7.557,3.313,13.344l-1.188,15.5
	c-0.076,0.989-0.064,1.771,0.219,2.469c0.284,0.697,0.885,1.186,1.5,1.469l0.063,0.031l0.031,0.031
	c3.935,1.283,8.1,2.105,12.406,2.438c4.21,0.324,8.343,0.159,12.344-0.469h0.031l0.031-0.031c0.684-0.15,1.376-0.523,1.844-1.156
	s0.704-1.438,0.781-2.438l1.188-15.438c0.438-5.673,2.348-9.914,5.344-12.656c2.996-2.743,7.138-4.059,12.344-3.656l16.688,1.281
	c0.912,0.07,1.664,0.089,2.406-0.25s1.24-1.023,1.563-1.844l0.031-0.031v-0.031c1.222-3.836,2.021-7.877,2.344-12.062
	c0.325-4.204,0.157-8.318-0.469-12.312V151.2l-0.031-0.063c-0.155-0.574-0.407-1.188-0.938-1.688
	c-0.531-0.5-1.287-0.806-2.188-0.875l-17.219-1.313c-5.147-0.397-9.05-2.253-11.594-5.25c-2.544-2.997-3.789-7.206-3.375-12.562
	l1.25-16.469c0.06-0.778,0.169-1.408,0-2.125c-0.17-0.717-0.809-1.401-1.594-1.688l-0.031-0.031c-3.994-1.32-8.214-2.161-12.594-2.5
	c-2.164-0.167-4.291-0.216-6.406-0.125L146.554,106.51z M146.617,108.51c2.036-0.087,4.104-0.036,6.188,0.125
	c4.208,0.326,8.26,1.142,12.094,2.406c0.01,0.003,0.022-0.003,0.031,0c0.305,0.109,0.27,0.07,0.313,0.25
	c0.045,0.192,0.03,0.742-0.031,1.531l-1.281,16.469c-0.444,5.749,0.906,10.539,3.844,14s7.421,5.509,12.969,5.938l17.229,1.34
	c0.588,0.045,0.817,0.169,0.969,0.313c0.135,0.127,0.277,0.368,0.375,0.688c0.003,0.011-0.003,0.02,0,0.031
	c0.598,3.833,0.75,7.774,0.438,11.812c-0.309,4.007-1.054,7.892-2.219,11.562c-0.007,0.021-0.024,0.041-0.031,0.063
	c-0.197,0.473-0.334,0.611-0.5,0.688c-0.179,0.082-0.626,0.156-1.438,0.094l-16.688-1.313c-5.626-0.436-10.43,1.033-13.875,4.188
	c-3.445,3.154-5.502,7.928-5.969,13.969l-1.17,15.439c-0.06,0.765-0.241,1.184-0.406,1.406c-0.165,0.224-0.317,0.332-0.656,0.406
	c-3.83,0.597-7.778,0.749-11.812,0.438c-4.103-0.316-8.063-1.1-11.812-2.313c-0.343-0.157-0.415-0.197-0.5-0.406
	s-0.128-0.709-0.063-1.563l1.188-15.5c0.475-6.143-0.806-11.162-3.781-14.75c-2.975-3.588-7.596-5.673-13.438-6.125l-16.281-1.25
	c-1.291-0.1-1.701-0.625-1.813-1.156c-0.583-3.798-0.747-7.72-0.438-11.719c0.322-4.162,1.103-8.171,2.344-11.969
	c0.013-0.032,0.02-0.004,0.031-0.031c0.003-0.01-0.003-0.021,0-0.031c0.108-0.243,0.166-0.3,0.281-0.344
	c0.133-0.05,0.57-0.088,1.313-0.031l16.438,1.25c6.014,0.464,10.911-0.768,14.375-3.75s5.415-7.608,5.875-13.562l1.28-16.8
	c0.046-0.595,0.194-0.882,0.281-1c0.087-0.118,0.111-0.157,0.344-0.188h0.031c1.973-0.323,3.965-0.538,6-0.625L146.617,108.51z"/>
<path id="circle19" fill="#F4F4F4" d="M148.904,147.264c-6.747,0-12.25,5.472-12.25,12.219s5.503,12.25,12.25,12.25
	s12.219-5.503,12.219-12.25C161.123,152.736,155.651,147.264,148.904,147.264z M148.904,149.264c5.666,0,10.219,4.553,10.219,10.219
	s-4.553,10.25-10.219,10.25s-10.25-4.584-10.25-10.25S143.238,149.264,148.904,149.264z"/>
<path id="polygon21" fill="#F4F4F4" d="M116.555,121.734l0.25,1l1.813,6.844l0.219,0.75l0.594-0.5l4.656-4l0.594-0.5l-0.71-0.35
	l-6.469-2.813l-0.938-0.438L116.555,121.734z"/>
<path id="polygon23" fill="#F4F4F4" d="M114.714,183.693l-0.313,0.719l-2.844,6.469l-0.438,0.938l1-0.25l6.844-1.813l0.75-0.219
	l-0.5-0.594l-4-4.656L114.714,183.693L114.714,183.693z"/>
<path id="polygon25" fill="#F4F4F4" d="M178.934,188.663l-0.594,0.5l-4.656,4l-0.594,0.5l0.719,0.313l6.469,2.844l0.938,0.438
	l-0.25-1.031l-1.813-6.813L178.934,188.663L178.934,188.663z"/>
<path id="polygon27" fill="#F4F4F4" d="M186.654,127.164l-1,0.25l-6.844,1.813l-0.75,0.219l0.5,0.593l4,4.656l0.5,0.594l0.344-0.719
	l2.813-6.469L186.654,127.164L186.654,127.164z"/>
<path id="circle29" fill="#F4F4F4" d="M384.402,123.044c-11.999,0-21.75,9.751-21.75,21.75c0,11.999,9.751,21.75,21.75,21.75
	c11.998,0,21.75-9.751,21.75-21.75C406.152,132.795,396.4,123.044,384.402,123.044z M384.402,125.044
	c10.918,0,19.75,8.832,19.75,19.75c0,10.918-8.833,19.75-19.75,19.75c-10.918,0-19.75-8.832-19.75-19.75
	C364.652,133.876,373.484,125.044,384.402,125.044z"/>
<path id="circle31" fill="#F4F4F4" d="M430.932,91.604c-11.999,0-21.75,9.751-21.75,21.75s9.752,21.75,21.75,21.75
	s21.75-9.751,21.75-21.75S442.93,91.604,430.932,91.604z M430.932,93.604c10.918,0,19.75,8.832,19.75,19.75
	s-8.832,19.75-19.75,19.75s-19.75-8.832-19.75-19.75S420.014,93.604,430.932,93.604z"/>
<path id="circle33" fill="#F4F4F4" d="M479.651,73.698c-11.998,0-21.75,9.752-21.75,21.75s9.752,21.75,21.75,21.75
	s21.75-9.751,21.75-21.75S491.649,73.698,479.651,73.698z M479.651,75.698c10.917,0,19.75,8.833,19.75,19.75
	c0,10.917-8.833,19.75-19.75,19.75s-19.75-8.833-19.75-19.75C459.901,84.531,468.734,75.698,479.651,75.698z"/>
<path id="circle35" fill="#F4F4F4" d="M404.521,182.794c-16.686,0-30.219,13.532-30.219,30.219
	c0,16.686,13.533,30.249,30.219,30.249c16.687,0,30.25-13.563,30.25-30.249C434.771,196.326,421.208,182.794,404.521,182.794z
	 M404.521,184.794c15.605,0,28.25,12.613,28.25,28.219c0,15.604-12.645,28.249-28.25,28.249c-15.604,0-28.219-12.646-28.219-28.249
	C376.303,197.407,388.917,184.794,404.521,184.794z"/>
<path id="circle37" fill="#F4F4F4" d="M460.491,145.694c-16.686,0-30.25,13.533-30.25,30.219c0,16.686,13.564,30.249,30.25,30.249
	c16.687,0,30.219-13.563,30.219-30.249C490.71,159.227,477.178,145.694,460.491,145.694z M460.491,147.694
	c15.604,0,28.219,12.614,28.219,28.219c0,15.604-12.614,28.249-28.219,28.249s-28.25-12.646-28.25-28.249
	C432.241,160.308,444.887,147.694,460.491,147.694z"/>
<path id="circle39" fill="#F4F4F4" d="M521.461,122.414c-16.685,0-30.25,13.565-30.25,30.25c0,16.685,13.565,30.218,30.25,30.218
	s30.219-13.532,30.219-30.218C551.68,135.979,538.146,122.414,521.461,122.414z M521.461,124.414
	c15.604,0,28.219,12.646,28.219,28.25s-12.614,28.218-28.219,28.218c-15.604,0-28.25-12.613-28.25-28.218
	C493.211,137.06,505.857,124.414,521.461,124.414z"/>
<path id="ellipse41" fill="#F4F4F4" d="M298.083,187.323c-10.372,0-19.765,2.013-26.656,5.313c-6.891,3.3-11.438,8-11.438,13.469
	s4.546,10.139,11.438,13.438c6.891,3.301,16.284,5.313,26.656,5.313c10.371,0,19.765-2.012,26.655-5.313
	c6.892-3.299,11.438-7.969,11.438-13.438s-4.547-10.169-11.438-13.469C317.848,189.336,308.454,187.323,298.083,187.323z
	 M298.083,189.323c10.113,0,19.278,1.996,25.812,5.125c6.534,3.129,10.281,7.316,10.281,11.656s-3.748,8.527-10.281,11.656
	c-6.533,3.128-15.698,5.094-25.812,5.094c-10.114,0-19.247-1.966-25.781-5.094c-6.534-3.129-10.312-7.316-10.312-11.656
	s3.778-8.527,10.312-11.656S287.97,189.323,298.083,189.323z"/>
<path id="ellipse43" fill="#F4F4F4" d="M298.083,194.263c-6.976,0-13.273,1.213-17.938,3.25c-2.333,1.02-4.273,2.229-5.656,3.656
	c-1.383,1.429-2.219,3.131-2.219,4.938s0.835,3.479,2.219,4.906c1.383,1.429,3.324,2.638,5.656,3.656
	c4.665,2.037,10.962,3.281,17.938,3.281c6.975,0,13.304-1.244,17.969-3.281c2.332-1.019,4.241-2.228,5.625-3.656
	c1.383-1.428,2.25-3.1,2.25-4.906s-0.867-3.509-2.25-4.938c-1.384-1.428-3.293-2.637-5.625-3.656
	C311.387,195.476,305.059,194.263,298.083,194.263z M298.083,196.263c6.739,0,12.833,1.207,17.155,3.094
	c2.162,0.944,3.87,2.053,5,3.219c1.131,1.168,1.688,2.344,1.688,3.531c0,1.188-0.558,2.365-1.688,3.531
	c-1.13,1.167-2.838,2.275-5,3.219c-4.322,1.889-10.417,3.094-17.155,3.094c-6.739,0-12.833-1.205-17.156-3.094
	c-2.161-0.943-3.87-2.052-5-3.219c-1.13-1.166-1.656-2.343-1.656-3.531c0-1.188,0.526-2.364,1.656-3.531
	c1.13-1.166,2.838-2.273,5-3.219C285.25,197.47,291.344,196.263,298.083,196.263z"/>
</svg>
