<?xml version="1.0" encoding="utf-8"?>
<!-- Generator: Adobe Illustrator 13.0.0, SVG Export Plug-In . SVG Version: 6.00 Build 14948)  -->
<!DOCTYPE svg [
	<!ENTITY ns_flows "http://ns.adobe.com/Flows/1.0/">
	<!ENTITY ns_extend "http://ns.adobe.com/Extensibility/1.0/">
	<!ENTITY ns_ai "http://ns.adobe.com/AdobeIllustrator/10.0/">
	<!ENTITY ns_graphs "http://ns.adobe.com/Graphs/1.0/">
	<!ENTITY ns_vars "http://ns.adobe.com/Variables/1.0/">
	<!ENTITY ns_imrep "http://ns.adobe.com/ImageReplacement/1.0/">
	<!ENTITY ns_sfw "http://ns.adobe.com/SaveForWeb/1.0/">
	<!ENTITY ns_custom "http://ns.adobe.com/GenericCustomNamespace/1.0/">
	<!ENTITY ns_adobe_xpath "http://ns.adobe.com/XPath/1.0/">
]>
<svg version="1.2" baseProfile="tiny"
	 id="Layer_3" xmlns:x="&ns_extend;" xmlns:i="&ns_ai;" xmlns:graph="&ns_graphs;" xmlns:rdf="http://www.w3.org/1999/02/22-rdf-syntax-ns#" xmlns:dc="http://purl.org/dc/elements/1.1/" xmlns:cc="http://creativecommons.org/ns#"
	 xmlns="http://www.w3.org/2000/svg" xmlns:xlink="http://www.w3.org/1999/xlink" xmlns:a="http://ns.adobe.com/AdobeSVGViewerExtensions/3.0/"
	 x="0px" y="0px" width="598.189px" height="350.26px" viewBox="0 0 598.189 350.26" xml:space="preserve">
<metadata  id="metadata55">
	<rdf:RDF>
		<cc:Work  rdf:about="">
			<dc:format>image/svg+xml</dc:format>
			<dc:type  rdf:resource="http://purl.org/dc/dcmitype/StillImage"></dc:type>
			<dc:title></dc:title>
		</cc:Work>
	</rdf:RDF>
	<sfw  xmlns="&ns_sfw;">
		<slices></slices>
		<sliceSourceBounds  x="-7231" y="-7652" width="16383" height="16383" bottomLeftOrigin="true"></sliceSourceBounds>
	</sfw>
</metadata>
<path id="ellipse3" fill="#F4F4F4" d="M220.665,89.864c-36.656-33.883-100.118-24.541-141.759,20.52
	c-41.65,45.062-45.998,109.076-9.34,142.956c36.658,33.89,100.156,24.539,141.807-20.521
	c41.651-45.058,45.958-109.075,9.294-142.964L220.665,89.864z M219.365,91.27c35.728,33.014,31.679,95.811-9.398,140.256
	c-41.086,44.445-103.382,53.432-139.099,20.413c-35.719-33.008-31.636-95.8,9.446-140.255
	c41.082-44.447,103.343-53.428,139.06-20.414H219.365z"/>
<path id="ellipse5" fill="#F4F4F4" d="M205.572,101.549c-30.099-27.824-82.364-19.948-116.741,17.242
	c-34.378,37.191-38.132,89.906-8.033,117.737c30.099,27.822,82.364,19.945,116.742-17.246
	c34.377-37.191,38.128-89.906,8.029-117.737L205.572,101.549z M204.272,102.955c29.154,26.95,25.675,78.45-8.138,115.028
	c-33.814,36.579-84.883,44.086-114.033,17.136c-29.156-26.941-25.677-78.44,8.136-115.019
	c33.812-36.583,84.88-44.089,114.033-17.139L204.272,102.955z"/>
<path id="path7" fill="#F4F4F4" d="M289.994,19.325c-33.468,0-69.873,4.176-105.276,14.057c-0.688,0.2-1.309,0.72-1.436,1.406
	c-0.127,0.686,0.168,1.258,0.538,1.674c0,0,5.863,6.771,9.362,10.02c1.587,1.474,3.045,3.654,5.772,5.084s6.623,1.968,12.831,0.479
	c11.909-2.858,57.564-8.942,74.83-8.942h22.79c17.265,0,62.918,6.084,74.83,8.942c6.207,1.489,10.074,0.951,12.801-0.479
	s4.217-3.611,5.802-5.084c3.492-3.242,9.093-9.661,9.093-9.661l-1.466-1.256c0,0-5.603,6.438-8.913,9.511
	c-1.812,1.684-3.131,3.634-5.383,4.815c-2.253,1.181-5.549,1.723-11.484,0.299c-12.378-2.97-57.571-9.003-75.278-9.003h-22.79
	c-17.708,0-62.902,6.033-75.278,9.003c-5.937,1.424-9.232,0.882-11.485-0.299c-2.252-1.182-3.57-3.132-5.383-4.815
	c-3.292-3.057-9.14-9.787-9.188-9.842c35.19-9.816,71.415-13.997,104.711-13.997h15.992c34.192,0,71.468,4.468,107.554,14.864
	c-0.27,0.313-7.83,9.078-11.036,12.053c-1.78,1.652-3.319,3.584-5.831,4.785s-6.063,1.752-11.994,0.329
	c-12.383-2.971-57.575-9.003-75.281-9.003h-22.789c-17.708,0-62.901,6.032-75.278,9.002c-5.931,1.424-9.48,0.872-11.993-0.329
	c-2.512-1.2-4.051-3.132-5.832-4.785c-3.284-3.049-11.245-11.993-11.245-11.993c-1.043-1.186-2.641-1.322-3.924-0.926
	C137.219,47.56,97.786,67.749,66.359,98.28c-29.897,29.046-50.694,67.654-57.573,105.066c-6.879,37.415,0.198,73.74,26.26,97.916
	c28.719,26.641,53.625,28.939,76.056,22.281c22.432-6.658,42.46-22.075,61.969-30.626c18.913-8.288,63.788-28.323,106.234-28.323
	h37.384c42.446,0,87.32,20.035,106.233,28.323c19.509,8.551,39.509,23.969,61.938,30.626c22.432,6.658,47.37,4.358,76.087-22.281
	c26.063-24.178,33.139-60.504,26.261-97.916c-6.883-37.412-27.68-76.02-57.578-105.066
	c-60.007-58.296-149.146-78.957-223.653-78.957h-16.001L289.994,19.325z M414.047,36.222C456.025,48.386,496.364,68.64,528.3,99.657
	c29.607,28.762,50.237,67.05,57.035,104.023c6.798,36.969-0.202,72.538-25.691,96.184c-28.357,26.306-52.246,28.379-74.201,21.863
	c-21.954-6.518-41.894-21.841-61.729-30.536c-18.892-8.279-63.965-28.502-107.009-28.502h-37.385
	c-43.046,0-88.12,20.223-107.008,28.502c-19.837,8.695-39.777,24.02-61.73,30.536c-21.965,6.518-45.855,4.44-74.214-21.869
	c-25.488-23.64-32.488-59.213-25.691-96.185c6.797-36.96,27.427-75.252,57.034-104.012c31.157-30.268,70.291-50.341,111.162-62.598
	c0.767-0.236,1.52-0.136,1.944,0.359c0,0,7.848,8.877,11.366,12.143c1.62,1.504,3.358,3.704,6.31,5.114
	c2.953,1.41,7.066,1.94,13.279,0.449c11.911-2.858,57.564-8.943,74.83-8.943h22.79c17.265,0,62.918,6.084,74.829,8.943
	c6.214,1.491,10.328,0.961,13.279-0.449c2.953-1.41,4.691-3.61,6.311-5.114c3.538-3.284,11.306-12.382,11.306-12.382l-1.076-0.958
	L414.047,36.222z"/>
<path id="path9" fill="#F4F4F4" d="M419.167,66.489c-23.602,0.603-45.641,9.221-61.76,26.229
	c-36.844,38.876-28.561,106.501,18.155,151.061c46.713,44.563,114.464,49.433,151.301,10.558
	c36.843-38.876,28.59-106.501-18.126-151.061c-26.28-25.068-59.231-37.563-89.57-36.789V66.489z M419.316,68.403
	c29.785-0.746,62.181,11.514,88.109,36.249c46.096,43.972,54.016,110.405,18.034,148.373
	c-35.982,37.966-102.491,33.354-148.583-10.617c-46.096-43.973-54.048-110.406-18.064-148.373
	C374.556,77.424,396.15,68.983,419.316,68.403z"/>
<path id="path11" fill="#F4F4F4" d="M426.575,89.249c-18.995,0.519-36.874,7.615-50.007,21.534
	c-25.401,26.924-24.646,70.421-0.718,104.165l1.561-1.099c-23.492-33.134-24.143-75.587,0.539-101.745
	c22.683-24.043,60.07-27.231,92.385-10.528l0.87-1.707c-14.413-7.449-29.85-11.021-44.627-10.618L426.575,89.249z"/>
<path id="path13" fill="#F4F4F4" d="M497.675,119.423l-1.35,1.35c8.043,8.122,14.432,17.2,19.141,26.708l1.732-0.871
	c-4.801-9.692-11.342-18.919-19.529-27.186H497.675z"/>
<path id="path15" fill="#F4F4F4" d="M525.036,191.863c-0.902,16.388-6.89,31.783-18.214,43.785
	c-22.895,24.266-60.765,27.285-93.283,10.049l-0.896,1.704c33.144,17.569,72.021,14.537,95.585-10.438
	c11.657-12.346,17.792-28.224,18.721-45.001l-1.914-0.09L525.036,191.863z"/>
<path id="circle17" fill="#F4F4F4" d="M142.004,108.958c-31.77,0-57.542,25.772-57.542,57.542c0,31.771,25.772,57.543,57.542,57.543
	c31.771,0,57.543-25.772,57.543-57.543C199.547,134.731,173.774,108.958,142.004,108.958z M142.004,110.873
	c30.737,0,55.629,24.892,55.629,55.628c0,30.737-24.892,55.629-55.629,55.629c-30.736,0-55.628-24.892-55.628-55.629
	C86.375,135.765,111.268,110.873,142.004,110.873z"/>
<path id="path19" fill="#F4F4F4" d="M144.311,116.792c-4.056-0.187-8.025,0.124-11.843,0.867c-0.01,0.002-0.02-0.002-0.03,0v0.03
	c-0.575,0.104-1.19,0.401-1.555,0.927c-0.372,0.539-0.502,1.207-0.538,1.974l-0.748,15.761c-0.243,5.26-1.778,9.063-4.486,11.544
	c-2.708,2.482-6.679,3.714-11.993,3.47l-15.462-0.718c-0.775-0.035-1.378-0.049-2.003,0.209c-0.626,0.258-1.108,0.842-1.346,1.465
	v0.06v0.029c-1.106,3.758-1.786,7.699-1.974,11.784c-0.179,3.901,0.094,7.711,0.778,11.395v0.03
	c0.298,1.385,1.644,2.486,3.499,2.572l15.313,0.688c5.126,0.234,8.929,1.867,11.425,4.695c2.497,2.827,3.75,6.948,3.499,12.381
	l-0.658,14.565c-0.043,0.931,0.011,1.653,0.299,2.303c0.288,0.651,0.848,1.129,1.436,1.376l0.06,0.029h0.06
	c3.726,1.087,7.616,1.76,11.664,1.945c3.958,0.183,7.841-0.102,11.575-0.809h0.03l0.03-0.029c0.64-0.161,1.282-0.525,1.705-1.137
	c0.422-0.61,0.614-1.392,0.658-2.333l0.688-14.505c0.246-5.325,1.882-9.339,4.606-11.993c2.724-2.652,6.568-3.993,11.455-3.769
	l15.672,0.718c0.858,0.041,1.581,0.045,2.273-0.299c0.692-0.342,1.157-1.013,1.436-1.794v-0.03v-0.03
	c1.035-3.632,1.673-7.46,1.854-11.394c0.182-3.951-0.104-7.817-0.808-11.544v-0.029l-0.047-0.058
	c-0.163-0.536-0.411-1.129-0.928-1.585c-0.516-0.456-1.244-0.709-2.093-0.748l-16.174-0.746c-4.832-0.223-8.54-1.816-11.007-4.546
	c-2.467-2.73-3.76-6.664-3.529-11.694l0.717-15.433c0.034-0.73,0.122-1.362-0.06-2.034c-0.181-0.672-0.807-1.309-1.555-1.556h-0.03
	c-3.782-1.122-7.757-1.814-11.873-2.004L144.311,116.792z M144.221,118.706c3.961,0.182,7.789,0.866,11.426,1.944
	c0.233,0.074,0.227,0.055,0.27,0.209c0.046,0.173,0.034,0.694,0,1.435l-0.718,15.433c-0.249,5.405,1.18,9.908,4.038,13.07
	c2.857,3.162,7.106,4.933,12.322,5.174l16.18,0.748c0.548,0.025,0.784,0.143,0.927,0.27c0.136,0.12,0.223,0.355,0.329,0.688
	c0.005,0.018,0.024,0.012,0.03,0.03c0.659,3.546,0.921,7.217,0.748,10.976c-0.173,3.767-0.779,7.412-1.765,10.886
	c-0.196,0.551-0.287,0.64-0.449,0.719c-0.161,0.08-0.585,0.155-1.346,0.119l-15.672-0.718c-5.29-0.242-9.749,1.247-12.891,4.307
	c-3.141,3.062-4.913,7.603-5.173,13.279l-0.689,14.5c-0.033,0.715-0.184,1.137-0.329,1.346c-0.146,0.211-0.287,0.28-0.598,0.359
	c-3.57,0.671-7.278,0.952-11.065,0.777c-3.862-0.177-7.57-0.795-11.125-1.825c-0.01-0.001-0.021,0.004-0.03,0
	c-0.289-0.123-0.339-0.178-0.419-0.358c-0.084-0.188-0.157-0.665-0.12-1.466l0.658-14.565c0.267-5.773-1.081-10.445-3.978-13.728
	c-2.896-3.28-7.279-5.071-12.771-5.323l-15.313-0.718c-1.217-0.056-1.59-0.529-1.705-1.017c-0.002-0.009,0.002-0.021,0-0.03
	c-0.653-3.531-0.919-7.202-0.748-10.947c0.18-3.908,0.802-7.681,1.854-11.274c0.012-0.031,0.02-0.003,0.03-0.03
	c0.002-0.01-0.003-0.021,0-0.03c0.091-0.223,0.137-0.287,0.239-0.329c0.119-0.049,0.53-0.092,1.226-0.06l15.433,0.718
	c5.654,0.26,10.204-1.078,13.369-3.978c3.165-2.899,4.856-7.295,5.115-12.891l0.748-15.732c0.026-0.558,0.134-0.849,0.209-0.957
	s0.085-0.145,0.299-0.18h0.03c3.678-0.718,7.513-1.018,11.425-0.837V118.706z"/>
<path id="circle21" fill="#F4F4F4" d="M142.004,154.987c-6.336,0-11.484,5.178-11.484,11.514c0,6.336,5.148,11.484,11.484,11.484
	c6.337,0,11.485-5.148,11.485-11.484S148.341,154.987,142.004,154.987z M142.004,156.901c5.303,0,9.571,4.298,9.571,9.6
	c0,5.303-4.268,9.57-9.571,9.57c-5.302,0-9.57-4.268-9.57-9.57C132.434,161.199,136.702,156.901,142.004,156.901z"/>
<path id="polygon23" fill="#F4F4F4" d="M109.857,131.214l0.568,1.914l1.884,6.34l0.449,1.466l1.106-1.047l4.247-3.858l1.137-1.017
	l-1.406-0.568l-6.161-2.482L109.857,131.214L109.857,131.214z M112.818,134.474l2.901,1.167l-2.034,1.824L112.818,134.474z"/>
<path id="polygon25" fill="#F4F4F4" d="M110.518,189.259l-0.568,1.406l-2.483,6.131l-0.717,1.854l1.884-0.568l6.341-1.885
	l1.465-0.448l-1.017-1.137l-3.888-4.217L110.518,189.259L110.518,189.259z M111.145,192.788l1.825,2.004l-2.991,0.897
	L111.145,192.788L111.145,192.788z"/>
<path id="polygon27" fill="#F4F4F4" d="M171.252,192.072l-1.107,1.017l-4.247,3.858l-1.137,1.017l1.436,0.599l6.131,2.452
	l1.854,0.748l-0.598-1.914l-1.885-6.341L171.252,192.072L171.252,192.072z M170.294,195.512l0.898,2.991l-2.9-1.167L170.294,195.512
	L170.294,195.512z"/>
<path id="polygon29" fill="#F4F4F4" d="M177.3,134.324l-1.914,0.568l-6.34,1.914l-1.466,0.419l1.017,1.136l3.888,4.247l1.017,1.107
	l0.568-1.406l2.482-6.131L177.3,134.324L177.3,134.324z M174.01,137.315l-1.136,2.871l-1.825-2.003L174.01,137.315L174.01,137.315z"
	/>
<path id="circle31" fill="#F4F4F4" d="M402.055,195.001c-15.183,0-27.516,12.333-27.516,27.516s12.333,27.515,27.516,27.515
	s27.485-12.332,27.485-27.515S417.237,195.001,402.055,195.001z M402.055,196.916c14.148,0,25.571,11.452,25.571,25.601
	s-11.423,25.601-25.571,25.601s-25.602-11.452-25.602-25.601S387.906,196.916,402.055,196.916z"/>
<path id="circle33" fill="#F4F4F4" d="M452.894,164.232c-15.182,0-27.516,12.332-27.516,27.515
	c0,15.184,12.334,27.515,27.516,27.515c15.184,0,27.486-12.331,27.486-27.515C480.38,176.564,468.077,164.232,452.894,164.232z
	 M452.894,166.146c14.147,0,25.572,11.453,25.572,25.601s-11.425,25.601-25.572,25.601s-25.602-11.452-25.602-25.601
	S438.746,166.146,452.894,166.146z"/>
<path id="circle35" fill="#F4F4F4" d="M507.925,144.814c-15.184,0-27.516,12.333-27.516,27.515s12.332,27.486,27.516,27.486
	c15.183,0,27.515-12.304,27.515-27.486S523.107,144.814,507.925,144.814z M507.925,146.728c14.147,0,25.601,11.453,25.601,25.601
	S522.072,197.9,507.925,197.9c-14.148,0-25.602-11.423-25.602-25.571S493.776,146.728,507.925,146.728z"/>
<path id="circle37" fill="#F4F4F4" d="M382.282,136.057c-11.069,0-20.068,8.999-20.068,20.068c0,11.07,8.999,20.068,20.068,20.068
	s20.068-8.999,20.068-20.068C402.351,145.056,393.352,136.057,382.282,136.057z M382.282,137.971
	c10.035,0,18.154,8.12,18.154,18.154c0,10.034-8.119,18.154-18.154,18.154c-10.036,0-18.154-8.12-18.154-18.154
	C364.128,146.09,372.246,137.971,382.282,137.971z"/>
<path id="circle39" fill="#F4F4F4" d="M428.91,111.771c-11.07,0-20.039,8.999-20.039,20.068s8.969,20.068,20.039,20.068
	c11.069,0,20.067-8.999,20.067-20.068S439.979,111.771,428.91,111.771z M428.91,113.685c10.035,0,18.153,8.119,18.153,18.154
	c0,10.035-8.118,18.154-18.153,18.154s-18.126-8.12-18.126-18.154C410.784,121.804,418.875,113.685,428.91,113.685z"/>
<path id="circle41" fill="#F4F4F4" d="M478.141,98.491c-11.069,0-20.068,8.999-20.068,20.068s8.999,20.069,20.068,20.069
	s20.068-9,20.068-20.069S489.21,98.491,478.141,98.491z M478.141,100.405c10.034,0,18.154,8.12,18.154,18.154
	c0,10.035-8.118,18.155-18.154,18.155c-10.034,0-18.153-8.12-18.153-18.155C459.987,108.525,468.106,100.405,478.141,100.405z"/>
<path id="path43" fill="#F4F4F4" d="M272.432,147.005c-4.586,0-8.314,3.729-8.314,8.315s3.729,8.314,8.314,8.314h34.155
	c4.587,0,8.345-3.729,8.345-8.314s-3.758-8.315-8.345-8.315H272.432z M272.432,148.919h34.155c3.553,0,6.431,2.849,6.431,6.4
	c0,3.551-2.878,6.4-6.431,6.4h-34.155c-3.551,0-6.4-2.849-6.4-6.4C266.031,151.768,268.881,148.919,272.432,148.919z"/>
<path id="path45" fill="#F4F4F4" d="M272.432,143.11c-6.732,0-12.202,5.47-12.202,12.202c0,6.733,5.47,12.202,12.202,12.202h34.155
	c6.732,0,12.203-5.469,12.203-12.202c0-6.732-5.471-12.202-12.203-12.202H272.432z M272.432,145.024h34.155
	c5.697,0,10.288,4.59,10.288,10.288c0,5.698-4.591,10.288-10.288,10.288h-34.155c-5.698,0-10.288-4.59-10.288-10.288
	C262.144,149.614,266.734,145.024,272.432,145.024z"/>
<path id="path47" fill="#F4F4F4" d="M183.282,35.116c-0.093,0.077-0.288,0.203-0.538,0.299c-0.5,0.193-1.209,0.285-1.465,0.269
	l-0.12,1.914c0.715,0.044,1.514-0.096,2.273-0.389c0.38-0.146,0.748-0.33,1.078-0.598c0.329-0.269,0.677-0.678,0.718-1.256
	l-1.915-0.149C183.323,35.053,183.376,35.039,183.282,35.116L183.282,35.116z"/>
</svg>
