<?xml version="1.0" encoding="utf-8"?>
<!-- Generator: Adobe Illustrator 13.0.0, SVG Export Plug-In . SVG Version: 6.00 Build 14948)  -->
<!DOCTYPE svg [
	<!ENTITY ns_flows "http://ns.adobe.com/Flows/1.0/">
	<!ENTITY ns_extend "http://ns.adobe.com/Extensibility/1.0/">
	<!ENTITY ns_ai "http://ns.adobe.com/AdobeIllustrator/10.0/">
	<!ENTITY ns_graphs "http://ns.adobe.com/Graphs/1.0/">
	<!ENTITY ns_vars "http://ns.adobe.com/Variables/1.0/">
	<!ENTITY ns_imrep "http://ns.adobe.com/ImageReplacement/1.0/">
	<!ENTITY ns_sfw "http://ns.adobe.com/SaveForWeb/1.0/">
	<!ENTITY ns_custom "http://ns.adobe.com/GenericCustomNamespace/1.0/">
	<!ENTITY ns_adobe_xpath "http://ns.adobe.com/XPath/1.0/">
]>
<svg version="1.2" baseProfile="tiny"
	 id="Layer_3" xmlns:x="&ns_extend;" xmlns:i="&ns_ai;" xmlns:graph="&ns_graphs;" xmlns:rdf="http://www.w3.org/1999/02/22-rdf-syntax-ns#" xmlns:dc="http://purl.org/dc/elements/1.1/" xmlns:cc="http://creativecommons.org/ns#"
	 xmlns="http://www.w3.org/2000/svg" xmlns:xlink="http://www.w3.org/1999/xlink" xmlns:a="http://ns.adobe.com/AdobeSVGViewerExtensions/3.0/"
	 x="0px" y="0px" width="598.189px" height="350.26px" viewBox="0 0 598.189 350.26" xml:space="preserve">
<metadata  id="metadata55">
	<rdf:RDF>
		<cc:Work  rdf:about="">
			<dc:format>image/svg+xml</dc:format>
			<dc:type  rdf:resource="http://purl.org/dc/dcmitype/StillImage"></dc:type>
			<dc:title></dc:title>
		</cc:Work>
	</rdf:RDF>
	<sfw  xmlns="&ns_sfw;">
		<slices></slices>
		<sliceSourceBounds  x="-7231" y="-7652" width="16383" height="16383" bottomLeftOrigin="true"></sliceSourceBounds>
	</sfw>
</metadata>
<path id="path3" fill="#F4F4F4" d="M204.93,37.925c-5.133,0.001-9.848,1.824-13.328,4.864c-3.481,3.032-5.744,7.378-5.74,12.234
	v176.188c-0.014,11.386,3.213,20.748,8.853,28.091c8.464,11.023,21.882,17.366,37.115,21.038c15.253,3.667,32.482,4.691,49.08,4.694
	c18.184,0,18.143,0.001,34.901,0c23.109-0.039,48.132-12.276,67.663-29.308c19.476-17.072,33.706-39.03,33.781-59.806V55.028
	c0.004-4.855-2.282-9.202-5.764-12.234c-3.481-3.041-8.195-4.863-13.328-4.865H204.931L204.93,37.925z M204.93,39.482h193.232
	c4.767,0.001,9.119,1.69,12.307,4.475c3.177,2.768,5.231,6.697,5.229,11.066v140.892c-0.074,20.066-13.988,41.733-33.247,58.614
	c-19.313,16.841-44.082,28.905-66.641,28.942c-16.758,0.002-16.717,0-34.901,0c-16.533-0.004-33.656-1.049-48.716-4.669
	c-15.04-3.627-28.11-9.829-36.265-20.453c-5.425-7.066-8.526-16.048-8.514-27.139V55.023c-0.003-4.369,2.027-8.298,5.205-11.066
	c3.188-2.785,7.54-4.474,12.306-4.475H204.93z M204.93,43.154c-3.899-0.001-7.406,1.37-9.899,3.551
	c-2.489,2.189-3.961,5.118-3.964,8.318v176.188c0.013,10.427,2.877,18.504,7.782,24.928c4.915,6.42,11.966,11.209,20.479,14.74
	c17.018,7.074,39.751,8.939,61.581,8.926h34.901c21.239,0.039,45.464-11.581,64.233-28.019
	c18.827-16.396,32.058-37.558,31.982-55.865V55.029c-0.003-3.201-1.474-6.13-3.965-8.318c-2.493-2.182-5.998-3.553-9.898-3.551
	H204.93L204.93,43.154z M204.93,44.711h193.232c3.529-0.001,6.682,1.241,8.877,3.162c2.206,1.938,3.426,4.422,3.43,7.15v140.892
	c0.072,17.547-12.851,38.503-31.448,54.699c-18.542,16.237-42.547,27.667-63.211,27.629h-34.901
	c-21.74,0.015-44.346-1.882-60.998-8.806c-8.335-3.453-15.119-8.1-19.823-14.249c-4.702-6.155-7.455-13.838-7.467-23.979V55.022
	c0.003-2.728,1.249-5.211,3.454-7.151c2.193-1.912,5.333-3.163,8.853-3.161L204.93,44.711z"/>
<path id="path5" fill="#F4F4F4" d="M389.849,157.95c-11.068,0.926-28.906,8.942-56.55,28.531l-0.024,0.024h-0.025
	c-9.18,7.323-20.646,18.48-30.741,29.283c-10.095,10.804-18.786,21.222-22.449,27.216c-3.636,5.95-5.389,11.222-3.624,15.469
	c0.882,2.122,2.646,3.885,5.302,5.229c2.655,1.345,6.226,2.295,10.847,2.846c18.514,2.204,51.438-3.24,74.911-23.64
	c23.458-20.391,35.665-52.832,36.992-70.289c0.334-4.417-0.444-8.328-2.822-11.042c-2.377-2.713-6.288-4.084-11.82-3.624
	L389.849,157.95z M393.546,159.483c3.226,0.275,5.459,1.405,6.956,3.113c1.994,2.277,2.747,5.731,2.432,9.898
	c-1.282,16.876-13.419,49.192-36.459,69.22c-23.028,20.016-55.726,25.44-73.718,23.3c-4.505-0.537-7.896-1.478-10.312-2.7
	c-2.417-1.222-3.852-2.691-4.572-4.426c-1.44-3.468-0.008-8.299,3.527-14.083c3.507-5.738,12.195-16.183,22.254-26.947
	c10.049-10.754,21.479-21.877,30.547-29.112c0.009-0.007,0.017-0.018,0.025-0.024c27.529-19.506,45.3-27.343,55.744-28.213
	C391.275,159.399,392.47,159.391,393.546,159.483L393.546,159.483z"/>
<path id="ellipse7" fill="#F4F4F4" d="M385.374,185.401c-2.027-2.479-5.114-3.846-8.821-4.256
	c-3.709-0.408-8.063,0.117-12.837,1.479c-9.545,2.727-20.733,8.789-31.414,17.524c-10.682,8.734-18.843,18.498-23.408,27.315
	c-2.282,4.405-3.682,8.586-4.016,12.301c-0.336,3.715,0.412,6.997,2.438,9.474c2.026,2.479,5.11,3.88,8.817,4.288
	c3.709,0.41,8.065-0.149,12.839-1.514c9.547-2.726,20.749-8.77,31.431-17.505c10.681-8.735,18.827-18.518,23.393-27.333
	c2.283-4.408,3.678-8.552,4.013-12.267C388.144,191.194,387.399,187.879,385.374,185.401L385.374,185.401z M384.169,186.386
	c1.717,2.101,2.408,4.936,2.099,8.369c-0.31,3.433-1.638,7.451-3.854,11.729c-4.435,8.561-12.456,18.2-22.997,26.82
	s-21.599,14.586-30.868,17.232c-4.635,1.324-8.817,1.814-12.244,1.436c-3.426-0.378-6.067-1.617-7.785-3.718
	s-2.395-4.918-2.084-8.35c0.31-3.433,1.619-7.435,3.835-11.716c4.434-8.559,12.477-18.213,23.016-26.834
	c10.54-8.621,21.58-14.572,30.85-17.219c4.635-1.323,8.835-1.827,12.262-1.45C379.823,183.064,382.45,184.285,384.169,186.386
	L384.169,186.386z"/>
<path id="circle9" fill="#F4F4F4" d="M336.458,224.517c-1.241,0-2.263,1.021-2.263,2.263c0,1.239,1.021,2.262,2.263,2.262
	s2.262-1.022,2.262-2.262C338.72,225.537,337.699,224.517,336.458,224.517z M336.458,226.073c0.399,0,0.705,0.307,0.705,0.706
	c0,0.398-0.306,0.705-0.705,0.705s-0.705-0.307-0.705-0.705C335.753,226.38,336.059,226.073,336.458,226.073z"/>
<path id="circle11" fill="#F4F4F4" d="M342.685,219.505c-1.24,0-2.263,1.021-2.263,2.262s1.022,2.263,2.263,2.263
	c1.241,0,2.262-1.021,2.262-2.263S343.926,219.505,342.685,219.505z M342.685,221.062c0.398,0,0.705,0.306,0.705,0.705
	c0,0.398-0.307,0.705-0.705,0.705c-0.399,0-0.706-0.307-0.706-0.705C341.979,221.367,342.285,221.062,342.685,221.062z"/>
<path id="circle13" fill="#F4F4F4" d="M348.988,214.523c-1.24,0-2.261,1.022-2.261,2.263c0,1.239,1.021,2.261,2.261,2.261
	s2.262-1.021,2.262-2.261C351.25,215.546,350.229,214.523,348.988,214.523z M348.988,216.081c0.398,0,0.706,0.305,0.706,0.705
	c0,0.397-0.308,0.705-0.706,0.705c-0.399,0-0.705-0.308-0.705-0.705C348.283,216.386,348.589,216.081,348.988,216.081z"/>
<path id="circle15" fill="#F4F4F4" d="M355.215,209.511c-1.24,0-2.261,1.022-2.261,2.263s1.021,2.262,2.261,2.262
	s2.262-1.021,2.262-2.262S356.455,209.511,355.215,209.511z M355.215,211.069c0.398,0,0.705,0.304,0.705,0.704
	c0,0.398-0.307,0.705-0.705,0.705c-0.4,0-0.705-0.307-0.705-0.705C354.51,211.373,354.814,211.069,355.215,211.069z"/>
<path id="path17" fill="#F4F4F4" d="M427.758,186.481c0,38.657-12.25,57.139-36.846,82.017
	c-25.531,25.816-65.012,29.599-91.301,29.599c-13.054,0-37.142-3.248-61.217-3.502c-24.075-0.255-48.214,2.433-61.558,14.738
	l1.044,1.136c12.731-11.74,36.541-14.577,60.487-14.323c23.946,0.252,47.93,3.502,61.242,3.502c26.439,0,66.357-3.729,92.397-30.063
	c24.688-24.965,37.31-44.116,37.31-83.105h-1.557L427.758,186.481z"/>
<path id="rect19" fill="#F4F4F4" d="M190.751,86.278v0.779v2.286v0.778h0.778h219.67h0.778v-0.778v-2.286v-0.779h-0.778h-219.67
	H190.751z M192.307,87.835h218.115v0.729H192.307V87.835z"/>
<path id="path21" fill="#F4F4F4" d="M184.889,5.772c-10.981,0-19.895,8.914-19.895,19.895v263.791
	c0,25.718,14.775,39.118,32.177,45.871c17.402,6.752,37.473,7.077,48.569,7.077h74.302c66.424,0,115.941-53.903,115.941-120.291
	V25.669c0-10.979-8.92-19.894-19.9-19.894h-13.131c-0.555,0-1.059,0.343-1.289,0.706c-0.229,0.362-0.292,0.701-0.292,0.997v16.319
	c0,1.979-1.57,3.551-3.551,3.551H205.291c-1.979,0-3.575-1.571-3.575-3.551V7.43c0-0.386-0.04-0.782-0.316-1.143
	c-0.277-0.361-0.762-0.511-1.143-0.511h-15.371L184.889,5.772z M184.889,7.329h15.273c0.006,0.029,0-0.016,0,0.097v16.369
	c0,2.82,2.311,5.107,5.132,5.107h192.53c2.822,0,5.108-2.287,5.108-5.107V7.475c0-0.038,0.036-0.113,0.048-0.146h13.106
	c10.141,0,18.339,8.199,18.339,18.338v196.447c0,65.616-48.8,118.734-114.385,118.734H245.74c-11.066,0-30.972-0.346-48.011-6.957
	c-17.03-6.607-31.171-19.301-31.171-44.432V25.669c0-10.139,8.198-18.337,18.338-18.337L184.889,7.329z"/>
<path id="path23" fill="#F4F4F4" d="M203.373,5.772v0.778v15.348c0,1.259,0.381,2.343,1.241,2.991s2.011,0.827,3.454,0.827h0.778
	v-0.778V6.551V5.773h-0.778h-3.916L203.373,5.772L203.373,5.772z M204.93,7.329h2.36v16.757c-0.799-0.073-1.417-0.203-1.727-0.438
	c-0.413-0.311-0.633-0.764-0.633-1.751"/>
<path id="rect25" fill="#F4F4F4" d="M209.77,5.772v0.778v18.387v0.779h0.778h3.916h0.778v-0.779V6.551V5.772h-0.778h-3.916H209.77z
	 M211.327,7.329h2.359v16.83h-2.359V7.329z"/>
<path id="rect27" fill="#F4F4F4" d="M216.143,5.772v0.778v18.387v0.779h0.778h3.916h0.778v-0.779V6.551V5.772h-0.778h-3.916H216.143
	z M217.699,7.329h2.359v16.83h-2.359V7.329z"/>
<path id="rect29" fill="#F4F4F4" d="M222.539,5.772v0.778v18.387v0.779h0.778h3.916h0.779v-0.779V6.551V5.772h-0.779h-3.916H222.539
	z M224.096,7.329h2.359v16.83h-2.359V7.329z"/>
<path id="rect31" fill="#F4F4F4" d="M228.911,5.772v0.778v18.387v0.779h0.778h3.916h0.778v-0.779V6.551V5.772h-0.778h-3.916H228.911
	z M230.467,7.329h2.36v16.83h-2.36V7.329z"/>
<path id="rect33" fill="#F4F4F4" d="M235.307,5.772v0.778v18.387v0.779h0.778h3.892h0.778v-0.779V6.551V5.772h-0.778h-3.892H235.307
	z M236.864,7.329h2.334v16.83h-2.334V7.329z"/>
<path id="rect35" fill="#F4F4F4" d="M241.68,5.772v0.778v18.387v0.779h0.778h3.915h0.778v-0.779V6.551V5.772h-0.778h-3.915H241.68z
	 M243.236,7.329h2.359v16.83h-2.359V7.329z"/>
<path id="rect37" fill="#F4F4F4" d="M248.076,5.772v0.778v18.387v0.779h0.778h3.892h0.778v-0.779V6.551V5.772h-0.778h-3.892H248.076
	z M249.633,7.329h2.334v16.83h-2.334V7.329z"/>
<path id="rect39" fill="#F4F4F4" d="M254.451,5.772v0.778v18.387v0.779h0.778h3.916h0.778v-0.779V6.551V5.772h-0.778h-3.916H254.451
	z M256.007,7.329h2.359v16.83h-2.359V7.329z"/>
<path id="rect41" fill="#F4F4F4" d="M260.848,5.772v0.778v18.387v0.779h0.778h3.892h0.778v-0.779V6.551V5.772h-0.778h-3.892H260.848
	z M262.405,7.329h2.334v16.83h-2.334V7.329z"/>
<path id="rect43" fill="#F4F4F4" d="M267.214,5.772v0.778v18.387v0.779h0.778h3.916h0.778v-0.779V6.551V5.772h-0.778h-3.916H267.214
	z M268.771,7.329h2.359v16.83h-2.359V7.329z"/>
<path id="rect45" fill="#F4F4F4" d="M273.612,5.772v0.778v18.387v0.779h0.778h3.892h0.778v-0.779V6.551V5.772h-0.778h-3.892H273.612
	z M275.168,7.329h2.334v16.83h-2.334V7.329z"/>
<path id="rect47" fill="#F4F4F4" d="M279.986,5.772v0.778v18.387v0.779h0.778h3.916h0.778v-0.779V6.551V5.772h-0.778h-3.916H279.986
	z M281.542,7.329h2.36v16.83h-2.36V7.329z"/>
<path id="rect49" fill="#F4F4F4" d="M286.36,5.772v0.778v18.387v0.779h0.777h3.917h0.778v-0.779V6.551V5.772h-0.778h-3.917H286.36z
	 M287.917,7.329h2.359v16.83h-2.359V7.329z"/>
<path id="rect51" fill="#F4F4F4" d="M292.758,5.772v0.778v18.387v0.779h0.778h3.916h0.779v-0.779V6.551V5.772h-0.779h-3.916H292.758
	z M294.314,7.329h2.36v16.83h-2.36V7.329z"/>
<path id="rect53" fill="#F4F4F4" d="M299.125,5.772v0.778v18.387v0.779h0.777h3.917h0.778v-0.779V6.551V5.772h-0.778h-3.917H299.125
	z M300.681,7.329h2.359v16.83h-2.359V7.329z"/>
<path id="rect55" fill="#F4F4F4" d="M305.521,5.772v0.778v18.387v0.779h0.779h3.916h0.778v-0.779V6.551V5.772h-0.778H306.3H305.521z
	 M307.078,7.329h2.358v16.83h-2.358V7.329z"/>
<path id="rect57" fill="#F4F4F4" d="M311.896,5.772v0.778v18.387v0.779h0.777h3.916h0.778v-0.779V6.551V5.772h-0.778h-3.916H311.896
	z M313.452,7.329h2.358v16.83h-2.358V7.329z"/>
<path id="rect59" fill="#F4F4F4" d="M318.291,5.772v0.778v18.387v0.779h0.78h3.915h0.778v-0.779V6.551V5.772h-0.778h-3.915H318.291z
	 M319.849,7.329h2.359v16.83h-2.359V7.329z"/>
<path id="rect61" fill="#F4F4F4" d="M324.668,5.772v0.778v18.387v0.779h0.777h3.917h0.777v-0.779V6.551V5.772h-0.777h-3.917H324.668
	z M326.224,7.329h2.359v16.83h-2.359V7.329z"/>
<path id="rect63" fill="#F4F4F4" d="M331.064,5.772v0.778v18.387v0.779h0.778h3.914h0.78v-0.779V6.551V5.772h-0.78h-3.914H331.064z
	 M332.62,7.329h2.359v16.83h-2.359V7.329z"/>
<path id="rect65" fill="#F4F4F4" d="M337.432,5.772v0.778v18.387v0.779h0.777h3.916h0.777v-0.779V6.551V5.772h-0.777h-3.916H337.432
	z M338.987,7.329h2.358v16.83h-2.358V7.329z"/>
<path id="rect67" fill="#F4F4F4" d="M343.827,5.772v0.778v18.387v0.779h0.78h3.89h0.778v-0.779V6.551V5.772h-0.778h-3.89H343.827z
	 M345.385,7.329h2.335v16.83h-2.335V7.329z"/>
<path id="rect69" fill="#F4F4F4" d="M350.201,5.772v0.778v18.387v0.779h0.778h3.917h0.777v-0.779V6.551V5.772h-0.777h-3.917H350.201
	z M351.759,7.329h2.358v16.83h-2.358V7.329z"/>
<path id="rect71" fill="#F4F4F4" d="M356.6,5.772v0.778v18.387v0.779h0.778h3.892h0.779v-0.779V6.551V5.772h-0.779h-3.892H356.6z
	 M358.156,7.329h2.335v16.83h-2.335V7.329z"/>
<path id="rect73" fill="#F4F4F4" d="M362.974,5.772v0.778v18.387v0.779h0.778h3.916h0.777v-0.779V6.551V5.772h-0.777h-3.916H362.974
	z M364.53,7.329h2.358v16.83h-2.358V7.329z"/>
<path id="rect75" fill="#F4F4F4" d="M369.364,5.772v0.778v18.387v0.779h0.778h3.891h0.778v-0.779V6.551V5.772h-0.778h-3.891H369.364
	z M370.921,7.329h2.335v16.83h-2.335V7.329z"/>
<path id="rect77" fill="#F4F4F4" d="M375.737,5.772v0.778v18.387v0.779h0.778h3.917h0.777v-0.779V6.551V5.772h-0.777h-3.917H375.737
	z M377.294,7.329h2.359v16.83h-2.359V7.329z"/>
<path id="rect79" fill="#F4F4F4" d="M382.111,5.772v0.778v18.387v0.779h0.778h3.916h0.777v-0.779V6.551V5.772h-0.777h-3.916H382.111
	z M383.668,7.329h2.358v16.83h-2.358V7.329z"/>
<path id="rect81" fill="#F4F4F4" d="M388.51,5.772v0.778v18.387v0.779h0.778h3.915h0.778v-0.779V6.551V5.772h-0.778h-3.915H388.51z
	 M390.065,7.329h2.359v16.83h-2.359V7.329z"/>
<path id="path83" fill="#F4F4F4" d="M394.883,5.772v0.778v18.387v0.779h0.779c1.476,0,2.614-0.134,3.478-0.779
	c0.863-0.644,1.216-1.743,1.216-3.04V6.551V5.772h-0.778h-3.915H394.883L394.883,5.772z M396.44,7.329h2.358v14.569
	c0.001,1.057-0.196,1.511-0.584,1.799c-0.267,0.2-1.059,0.24-1.774,0.316"/>
<path id="line85" fill="#F4F4F4" d="M200.869,7.232v1.557h3.308V7.232H200.869z"/>
<path id="line87" fill="#F4F4F4" d="M208.043,7.232v1.557h2.432V7.232H208.043z"/>
<path id="line89" fill="#F4F4F4" d="M214.489,7.232v1.557h2.457V7.232H214.489z"/>
<path id="line91" fill="#F4F4F4" d="M220.861,7.232v1.557h2.432V7.232H220.861z"/>
<path id="line93" fill="#F4F4F4" d="M227.232,7.232v1.557h2.433V7.232H227.232z"/>
<path id="line95" fill="#F4F4F4" d="M233.63,7.232v1.557h2.456V7.232H233.63z"/>
<path id="line97" fill="#F4F4F4" d="M240.026,7.232v1.557h2.456V7.232H240.026z"/>
<path id="line99" fill="#F4F4F4" d="M246.45,7.232v1.557h2.432V7.232H246.45z"/>
<path id="line101" fill="#F4F4F4" d="M252.847,7.232v1.557h2.432V7.232H252.847z"/>
<path id="line103" fill="#F4F4F4" d="M259.073,7.232v1.557h2.432V7.232H259.073z"/>
<path id="line105" fill="#F4F4F4" d="M265.588,7.232v1.557h2.432V7.232H265.588z"/>
<path id="line107" fill="#F4F4F4" d="M271.884,7.232v1.557h2.433V7.232H271.884z"/>
<path id="line109" fill="#F4F4F4" d="M278.359,7.232v1.557h2.432V7.232H278.359z"/>
<path id="line111" fill="#F4F4F4" d="M284.655,7.232v1.557h2.457V7.232H284.655z"/>
<path id="line113" fill="#F4F4F4" d="M291.076,7.232v1.557h2.457V7.232H291.076z"/>
<path id="line115" fill="#F4F4F4" d="M297.475,7.232v1.557h2.431V7.232H297.475z"/>
<path id="line117" fill="#F4F4F4" d="M303.941,7.232v1.557h2.433V7.232H303.941z"/>
<path id="line119" fill="#F4F4F4" d="M310.27,7.232v1.557h2.456V7.232H310.27z"/>
<path id="line121" fill="#F4F4F4" d="M316.636,7.232v1.557h2.432V7.232H316.636z"/>
<path id="line123" fill="#F4F4F4" d="M323.01,7.232v1.557h2.432V7.232H323.01z"/>
<path id="line125" fill="#F4F4F4" d="M329.338,7.232v1.557h2.456V7.232H329.338z"/>
<path id="line127" fill="#F4F4F4" d="M335.703,7.232v1.557h2.433V7.232H335.703z"/>
<path id="line129" fill="#F4F4F4" d="M342.225,7.232v1.557h2.433V7.232H342.225z"/>
<path id="line131" fill="#F4F4F4" d="M348.545,7.232v1.557h2.457V7.232H348.545z"/>
<path id="line133" fill="#F4F4F4" d="M354.896,7.232v1.557h2.456V7.232H354.896z"/>
<path id="line135" fill="#F4F4F4" d="M361.292,7.232v1.557h2.432V7.232H361.292z"/>
<path id="line137" fill="#F4F4F4" d="M367.613,7.232v1.557h2.456V7.232H367.613z"/>
<path id="line139" fill="#F4F4F4" d="M373.965,7.232v1.557h2.455V7.232H373.965z"/>
<path id="line141" fill="#F4F4F4" d="M380.432,7.232v1.557h2.456V7.232H380.432z"/>
<path id="line143" fill="#F4F4F4" d="M386.781,7.232v1.557h2.433V7.232H386.781z"/>
<path id="line145" fill="#F4F4F4" d="M393.124,7.232v1.557h2.456V7.232H393.124z"/>
<path id="line147" fill="#F4F4F4" d="M399.553,7.232v1.557h2.456V7.232H399.553z"/>
<path id="path149" fill="#F4F4F4" d="M422.56,243.71c-2.825,0-5.399,1.4-6.835,3.647c-6.897,10.807-10.616,14.714-12.306,16.854
	c-0.892,1.129-1.759,2.722-1.606,4.427c0.077,0.854,0.457,1.713,1.192,2.408c0.737,0.695,1.786,1.234,3.235,1.58
	c2.728,0.655,5.926,1.364,9.023,1.192c3.096-0.171,6.134-1.29,8.292-4.208c2.073-2.802,3.885-6.436,5.182-9.751
	c1.292-3.305,2.102-6.175,2.042-7.93c0-0.008,0-0.016,0-0.024C430.766,247.386,427.082,243.709,422.56,243.71L422.56,243.71z
	 M422.56,245.267c3.691,0,6.664,2.975,6.664,6.664v0.024c0.043,1.125-0.664,4.127-1.921,7.345c-1.258,3.215-3.039,6.757-4.987,9.387
	c-1.86,2.516-4.352,3.421-7.15,3.575c-2.797,0.154-5.856-0.494-8.561-1.143c-1.268-0.304-2.053-0.743-2.529-1.191
	c-0.476-0.449-0.684-0.916-0.729-1.435c-0.094-1.04,0.55-2.373,1.289-3.309c1.57-1.987,5.46-6.122,12.403-17.001
	c1.138-1.78,3.209-2.919,5.521-2.919V245.267z"/>
<path id="path151" fill="#F4F4F4" d="M423.144,247.912c-0.394,0.016-0.787,0.156-1.119,0.341c-0.1,0.055-0.525,0.217-1.047,0.34
	c-0.52,0.123-1.156,0.231-1.823,0.316c-1.336,0.17-2.813,0.192-3.526,0.023l-0.364,1.509c1.134,0.267,2.649,0.207,4.085,0.024
	c0.717-0.092,1.407-0.227,1.995-0.365c0.586-0.139,1.044-0.27,1.435-0.486c0.313-0.173,0.497-0.112,0.486-0.122
	c-0.006-0.004,0.029,0.014,0.049,0.195c0.021,0.182-0.003,0.498-0.146,0.972c-0.293,0.973-1.328,3.541-2.505,6.276
	c-1.179,2.734-2.514,5.694-3.43,7.637c-0.918,1.944-1.521,3.032-2.019,3.574c-0.499,0.542-0.841,0.678-1.802,0.779h-0.022
	c-2.008,0.21-6.546,0.422-10.24,0l-0.193,1.532c3.899,0.445,8.474,0.225,10.604,0c1.105-0.116,2.045-0.424,2.795-1.241
	c0.754-0.816,1.358-2.021,2.287-3.988c0.93-1.97,2.27-4.934,3.453-7.686c1.182-2.743,2.19-5.19,2.555-6.396v-0.024
	c0.184-0.611,0.271-1.132,0.219-1.605c-0.053-0.474-0.263-0.926-0.607-1.216C423.917,248.012,423.537,247.896,423.144,247.912
	L423.144,247.912z"/>
<path id="path153" fill="#F4F4F4" d="M420.364,250.954c-2.592,7.023-5.82,13.817-7.199,15.785l1.289,0.899
	c1.666-2.378,4.747-9.047,7.369-16.149L420.364,250.954L420.364,250.954z"/>
</svg>
