<?xml version="1.0" encoding="utf-8"?>
<!-- Generator: Adobe Illustrator 13.0.0, SVG Export Plug-In . SVG Version: 6.00 Build 14948)  -->
<!DOCTYPE svg [
	<!ENTITY ns_flows "http://ns.adobe.com/Flows/1.0/">
	<!ENTITY ns_extend "http://ns.adobe.com/Extensibility/1.0/">
	<!ENTITY ns_ai "http://ns.adobe.com/AdobeIllustrator/10.0/">
	<!ENTITY ns_graphs "http://ns.adobe.com/Graphs/1.0/">
	<!ENTITY ns_vars "http://ns.adobe.com/Variables/1.0/">
	<!ENTITY ns_imrep "http://ns.adobe.com/ImageReplacement/1.0/">
	<!ENTITY ns_sfw "http://ns.adobe.com/SaveForWeb/1.0/">
	<!ENTITY ns_custom "http://ns.adobe.com/GenericCustomNamespace/1.0/">
	<!ENTITY ns_adobe_xpath "http://ns.adobe.com/XPath/1.0/">
]>
<svg version="1.2" baseProfile="tiny"
	 id="Layer_3" xmlns:x="&ns_extend;" xmlns:i="&ns_ai;" xmlns:graph="&ns_graphs;" xmlns:rdf="http://www.w3.org/1999/02/22-rdf-syntax-ns#" xmlns:dc="http://purl.org/dc/elements/1.1/" xmlns:cc="http://creativecommons.org/ns#"
	 xmlns="http://www.w3.org/2000/svg" xmlns:xlink="http://www.w3.org/1999/xlink" xmlns:a="http://ns.adobe.com/AdobeSVGViewerExtensions/3.0/"
	 x="0px" y="0px" width="598.189px" height="350.26px" viewBox="0 0 598.189 350.26" xml:space="preserve">
<metadata  id="metadata55">
	<rdf:RDF>
		<cc:Work  rdf:about="">
			<dc:format>image/svg+xml</dc:format>
			<dc:type  rdf:resource="http://purl.org/dc/dcmitype/StillImage"></dc:type>
			<dc:title></dc:title>
		</cc:Work>
	</rdf:RDF>
	<sfw  xmlns="&ns_sfw;">
		<slices></slices>
		<sliceSourceBounds  x="-7231" y="-7652" width="16383" height="16383" bottomLeftOrigin="true"></sliceSourceBounds>
	</sfw>
</metadata>
<path id="path3" fill="#F4F4F4" d="M234.975,7.421c-2.833,0-5.153,2.32-5.153,5.152v324.854c0,2.833,2.32,5.129,5.153,5.129H364.13
	c2.832,0,5.152-2.296,5.152-5.129V12.573c0-2.833-2.32-5.152-5.152-5.152H234.975z M234.975,8.955H364.13
	c2.004,0,3.618,1.615,3.618,3.619v324.854c0,2.005-1.614,3.596-3.618,3.596H234.975c-2.004,0-3.62-1.591-3.62-3.596V12.573
	C231.355,10.57,232.971,8.955,234.975,8.955z"/>
<g id="g5">
	<path id="circle7" fill="#F4F4F4" d="M299.563,84.906c-29.611,0-53.636,24.024-53.636,53.636c0,29.611,24.024,53.636,53.636,53.636
		c29.61,0,53.612-24.024,53.612-53.636C353.175,108.931,329.173,84.906,299.563,84.906z M299.563,86.44
		c28.782,0,52.077,23.319,52.077,52.102c0,28.782-23.295,52.102-52.077,52.102c-28.782,0-52.103-23.319-52.103-52.102
		C247.46,109.76,270.78,86.44,299.563,86.44z"/>
	<path id="circle9" fill="#F4F4F4" d="M299.563,109.876c-15.829,0-28.687,12.834-28.687,28.663s12.858,28.688,28.687,28.688
		c15.829,0,28.663-12.858,28.663-28.688S315.392,109.876,299.563,109.876z M299.563,111.41c15,0,27.129,12.129,27.129,27.129
		s-12.13,27.154-27.129,27.154c-15,0-27.153-12.154-27.153-27.154S284.563,111.41,299.563,111.41z"/>
	<path id="path11" fill="#F4F4F4" d="M299.563,94.516c-1.584,0-2.9,1.292-2.9,2.876v7.597c0,1.583,1.316,2.876,2.9,2.876
		s2.875-1.293,2.875-2.876v-7.597C302.438,95.808,301.146,94.516,299.563,94.516z M299.563,96.049c0.752,0,1.341,0.587,1.341,1.342
		v7.597c0,0.755-0.587,1.342-1.341,1.342s-1.366-0.588-1.366-1.342v-7.597C298.197,96.637,298.808,96.049,299.563,96.049z"/>
	<path id="circle13" fill="#F4F4F4" d="M299.563,91.517c-25.966,0-47.045,21.055-47.045,47.021s21.079,47.045,47.045,47.045
		c25.965,0,47.02-21.08,47.02-47.045C346.583,112.57,325.532,91.518,299.563,91.517L299.563,91.517z M299.563,93.051
		c25.136,0,45.487,20.351,45.487,45.487s-20.351,45.511-45.487,45.511c-25.137,0-45.511-20.375-45.511-45.511
		c0.001-25.132,20.376-45.485,45.512-45.485L299.563,93.051z"/>
	<path id="path15" fill="#F4F4F4" d="M270.444,106.563c-0.74,0-1.477,0.279-2.037,0.839c-1.12,1.119-1.12,2.955,0,4.074l5.368,5.368
		c1.12,1.12,2.955,1.12,4.074,0c1.12-1.119,1.12-2.954,0-4.074l-5.369-5.369c-0.56-0.552-1.297-0.836-2.037-0.836L270.444,106.563z
		 M270.444,108.073c0.343,0,0.692,0.141,0.958,0.407l5.369,5.369c0.533,0.534,0.533,1.384,0,1.917
		c-0.521,0.52-1.334,0.517-1.87,0.024l-0.048-0.024l-5.369-5.368c-0.534-0.534-0.533-1.384,0-1.917
		C269.752,108.214,270.101,108.073,270.444,108.073z"/>
	<path id="path17" fill="#F4F4F4" d="M258.389,135.66c-1.584,0-2.876,1.292-2.876,2.875c0,1.583,1.292,2.9,2.876,2.9h7.597
		c1.583,0,2.876-1.317,2.876-2.9c0.001-1.583-1.293-2.875-2.876-2.875H258.389z M258.389,137.194h7.597
		c0.754,0,1.342,0.588,1.342,1.342c0,0.755-0.588,1.366-1.342,1.366h-7.597c-0.754,0-1.342-0.612-1.342-1.366
		S257.634,137.194,258.389,137.194z"/>
	<path id="path19" fill="#F4F4F4" d="M275.813,159.412c-0.739-0.001-1.477,0.278-2.037,0.838l-5.368,5.369
		c-1.12,1.118-1.12,2.954,0,4.074c1.12,1.119,2.954,1.119,4.074,0l5.369-5.368c1.12-1.119,1.12-2.954,0-4.074
		C277.29,159.69,276.552,159.412,275.813,159.412L275.813,159.412z M275.813,160.921c0.344,0,0.692,0.141,0.959,0.408
		c0.533,0.533,0.533,1.36,0,1.894l-5.369,5.368c-0.534,0.533-1.384,0.533-1.917,0c-0.534-0.534-0.533-1.36,0-1.893l5.369-5.369
		C275.121,161.061,275.469,160.921,275.813,160.921z"/>
	<path id="path21" fill="#F4F4F4" d="M299.563,169.235c-1.583,0-2.9,1.293-2.9,2.876v7.597c0,1.584,1.317,2.876,2.9,2.876
		c1.583,0,2.875-1.292,2.875-2.876v-7.597C302.438,170.527,301.146,169.235,299.563,169.235z M299.563,170.769
		c0.752,0,1.341,0.588,1.341,1.342v7.597c0,0.754-0.587,1.343-1.341,1.343c-0.753,0-1.366-0.588-1.366-1.343v-7.597
		C298.197,171.357,298.809,170.769,299.563,170.769z"/>
	<path id="path23" fill="#F4F4F4" d="M323.291,159.412c-0.739-0.001-1.478,0.278-2.037,0.838c-1.119,1.119-1.12,2.954,0,4.074
		l5.368,5.368c1.119,1.119,2.954,1.119,4.074,0c1.119-1.12,1.119-2.955,0-4.074l-5.369-5.369
		C324.769,159.69,324.03,159.412,323.291,159.412L323.291,159.412z M323.291,160.921c0.343,0,0.692,0.14,0.958,0.408l5.369,5.369
		c0.533,0.533,0.533,1.359,0,1.893c-0.534,0.533-1.384,0.533-1.918,0l-5.368-5.368c-0.534-0.534-0.532-1.36,0-1.894
		C322.6,161.061,322.947,160.921,323.291,160.921z"/>
	<path id="path25" fill="#F4F4F4" d="M333.114,135.66c-1.584,0-2.876,1.293-2.876,2.875c0,1.307,0.909,2.384,2.109,2.732v0.167
		h0.767h7.598c1.583,0,2.875-1.317,2.875-2.9c0-1.583-1.292-2.875-2.875-2.875H333.114L333.114,135.66z M333.114,137.194h7.598
		c0.754,0,1.342,0.588,1.342,1.342c0,0.753-0.587,1.366-1.342,1.366h-6.83h-0.768c-0.754,0-1.342-0.614-1.342-1.366
		C331.772,137.781,332.358,137.194,333.114,137.194z"/>
	<path id="path27" fill="#F4F4F4" d="M328.659,106.563c-0.739,0-1.478,0.28-2.037,0.839l-5.368,5.369c-1.12,1.12-1.12,2.954,0,4.074
		c1.118,1.12,2.954,1.12,4.073,0l5.369-5.368c1.118-1.119,1.119-2.955,0-4.074C330.137,106.843,329.398,106.563,328.659,106.563
		L328.659,106.563z M328.659,108.073c0.344,0,0.691,0.141,0.959,0.407c0.533,0.534,0.532,1.385,0,1.917l-5.369,5.368
		c-0.532,0.533-1.385,0.533-1.917,0c-0.534-0.534-0.534-1.383,0-1.917l5.32-5.32l0.048-0.048
		C327.967,108.214,328.315,108.073,328.659,108.073z"/>
	<path id="circle29" fill="#F4F4F4" d="M299.563,121.572c-9.361,0-16.968,7.607-16.968,16.968c0,9.361,7.607,16.968,16.968,16.968
		c9.361,0,16.967-7.606,16.967-16.968C316.53,129.179,308.924,121.572,299.563,121.572z M299.563,123.105
		c8.532,0,15.433,6.902,15.433,15.434c0,8.532-6.901,15.434-15.433,15.434c-8.532,0-15.434-6.902-15.434-15.434
		C284.129,130.008,291.03,123.105,299.563,123.105z"/>
	<path id="circle31" fill="#F4F4F4" d="M299.563,115.291c-12.828,0-23.247,10.42-23.247,23.247c0,12.827,10.42,23.246,23.247,23.246
		s23.222-10.419,23.222-23.246c0-12.823-10.392-23.245-23.222-23.245L299.563,115.291z M299.563,116.825
		c11.999,0,21.689,9.715,21.689,21.713c0,11.998-9.69,21.712-21.689,21.712s-21.713-9.715-21.713-21.712
		c0-11.995,9.715-21.711,21.713-21.711L299.563,116.825z"/>
</g>
<path id="rect33" fill="#F4F4F4" d="M236.054,13.795v0.767v37.075v0.767h0.767h124.938h0.767v-0.767V14.563v-0.767h-0.767H236.82
	H236.054z M237.587,15.329h123.404v35.542H237.587V15.329z"/>
<path id="path35" fill="#F4F4F4" d="M232.027,5.623c-3.558,0-6.471,2.89-6.471,6.447v81.745c0,3.025,2.092,5.561,4.913,6.255
	l0.359-1.488c-2.147-0.529-3.739-2.447-3.739-4.771V12.067c0-2.729,2.208-4.914,4.937-4.914h5.824c1.397,0,2.651,0.581,3.547,1.51
	l1.103-1.079c-1.173-1.217-2.829-1.965-4.65-1.965h-5.823L232.027,5.623z"/>
<path id="path37" fill="#F4F4F4" d="M361.321,5.623c-1.822,0-3.475,0.748-4.649,1.965l1.103,1.078c0.898-0.93,2.147-1.51,3.543-1.51
	h5.848c2.731,0,4.914,2.184,4.914,4.913v81.745c0,2.32-1.592,4.24-3.739,4.769l0.384,1.486c2.821-0.695,4.889-3.231,4.889-6.255
	V12.07c-0.015-3.561-2.898-6.45-6.457-6.45h-5.848L361.321,5.623z"/>
</svg>
