<?xml version="1.0" encoding="utf-8"?>
<!-- Generator: Adobe Illustrator 13.0.0, SVG Export Plug-In . SVG Version: 6.00 Build 14948)  -->
<!DOCTYPE svg [
	<!ENTITY ns_flows "http://ns.adobe.com/Flows/1.0/">
	<!ENTITY ns_extend "http://ns.adobe.com/Extensibility/1.0/">
	<!ENTITY ns_ai "http://ns.adobe.com/AdobeIllustrator/10.0/">
	<!ENTITY ns_graphs "http://ns.adobe.com/Graphs/1.0/">
	<!ENTITY ns_vars "http://ns.adobe.com/Variables/1.0/">
	<!ENTITY ns_imrep "http://ns.adobe.com/ImageReplacement/1.0/">
	<!ENTITY ns_sfw "http://ns.adobe.com/SaveForWeb/1.0/">
	<!ENTITY ns_custom "http://ns.adobe.com/GenericCustomNamespace/1.0/">
	<!ENTITY ns_adobe_xpath "http://ns.adobe.com/XPath/1.0/">
]>
<svg version="1.2" baseProfile="tiny"
	 id="Layer_3" xmlns:x="&ns_extend;" xmlns:i="&ns_ai;" xmlns:graph="&ns_graphs;" xmlns:rdf="http://www.w3.org/1999/02/22-rdf-syntax-ns#" xmlns:dc="http://purl.org/dc/elements/1.1/" xmlns:cc="http://creativecommons.org/ns#"
	 xmlns="http://www.w3.org/2000/svg" xmlns:xlink="http://www.w3.org/1999/xlink" xmlns:a="http://ns.adobe.com/AdobeSVGViewerExtensions/3.0/"
	 x="0px" y="0px" width="598.189px" height="350.26px" viewBox="0 0 598.189 350.26" xml:space="preserve">
<metadata  id="metadata55">
	<rdf:RDF>
		<cc:Work  rdf:about="">
			<dc:format>image/svg+xml</dc:format>
			<dc:type  rdf:resource="http://purl.org/dc/dcmitype/StillImage"></dc:type>
			<dc:title></dc:title>
		</cc:Work>
	</rdf:RDF>
	<sfw  xmlns="&ns_sfw;">
		<slices></slices>
		<sliceSourceBounds  x="-7231" y="-7652" width="16383" height="16383" bottomLeftOrigin="true"></sliceSourceBounds>
	</sfw>
</metadata>
<path id="path3" fill="#F4F4F4" d="M131.387,26.941c-22.057,0-42.807,4.733-60.807,14.856c-0.007,0.004-0.022-0.004-0.03,0v0.03
	c-0.983,0.542-1.52,1.496-1.628,2.435c-0.109,0.954,0,1.939,0,3.218h1.925c0-1.383-0.098-2.417-0.03-3.007
	c0.068-0.59,0.095-0.689,0.662-0.992h0.03c17.677-9.946,38.082-14.616,59.878-14.616h62.638c1.36,0,2.875,0.173,3.909,0.632
	c1.034,0.459,1.563,0.988,1.563,2.255h1.925c0-1.977-1.232-3.375-2.707-4.03c-1.481-0.654-3.205-0.782-4.696-0.782h-62.641H131.387z
	"/>
<path id="path5" fill="#F4F4F4" d="M130.357,30.76C61.765,30.76,6.131,86.365,6.131,154.957
	c0,68.594,55.634,124.226,124.226,124.226c27.078,0,52.123-8.655,72.535-23.366l0.03-0.03l2.556-1.955v-0.03h0.029
	c4.11-3.281,9.304-5.231,14.976-5.231h45.83h64.626h45.83c5.674,0,10.867,1.95,14.976,5.231h0.03v0.03l2.556,1.955l0.03,0.03
	c20.411,14.711,45.457,23.366,72.534,23.366c68.595,0,124.227-55.634,124.227-124.226c0-68.594-55.635-124.197-124.227-124.197
	H331.873h-24.991h-0.961v0.962v1.263h-14.314v-1.263V30.76h-0.962h-25.261H130.36H130.357z M130.357,32.685H265.38h24.298v1.264
	v0.962h0.962h16.238h0.963v-0.962v-1.264h24.028h135.022c67.556,0,122.301,54.721,122.301,122.272
	c0,67.555-54.749,122.301-122.301,122.301c-26.657,0-51.299-8.531-71.393-23.006h-0.029l-2.526-1.954
	c-4.438-3.543-10.062-5.653-16.179-5.653h-45.83H266.31h-45.831c-6.117,0-11.741,2.11-16.178,5.653l-2.526,1.954h-0.03
	c-20.084,14.483-44.719,23.01-71.385,23.01c-67.552,0-122.301-54.746-122.301-122.301c0-67.552,54.75-122.272,122.301-122.272
	L130.357,32.685z"/>
<path id="path7" fill="#F4F4F4" d="M403.241,26.941c-1.495,0-3.217,0.127-4.691,0.782c-1.474,0.655-2.706,2.053-2.706,4.03h1.925
	c0-1.267,0.529-1.796,1.563-2.255c1.029-0.459,2.541-0.632,3.907-0.632h62.637c21.793,0,42.197,4.669,59.874,14.616h0.031
	c0.566,0.303,0.594,0.402,0.661,0.992c0.068,0.591-0.03,1.624-0.03,3.007h1.925c0-1.279,0.109-2.264,0-3.218
	c-0.108-0.94-0.645-1.894-1.624-2.436c-0.007-0.004,0.007-0.027,0-0.03c-0.008-0.004-0.022,0.004-0.029,0
	c-18.006-10.123-38.754-14.856-60.81-14.856h-62.641H403.241z"/>
<path id="circle9" fill="#F4F4F4" d="M130.963,87.868c-36.827,0-66.7,29.874-66.7,66.7c0,36.827,29.874,66.701,66.7,66.701
	c36.827,0,66.731-29.876,66.731-66.701C197.694,117.741,167.791,87.868,130.963,87.868z M130.963,89.792
	c35.787,0,64.807,28.99,64.807,64.775c0,35.786-29.02,64.776-64.807,64.776s-64.776-28.99-64.776-64.776
	C66.188,118.78,95.178,89.792,130.963,89.792z"/>
<path id="path11" fill="#F4F4F4" d="M119.801,105.34c-3.101,0-5.624,2.524-5.624,5.624v26.223c0,0.511-0.074,0.657,0,0.572
	c0.074-0.086,0.001,0.029-0.631,0.029H87.382c-3.1,0-5.654,2.524-5.654,5.624v22.314c0,3.1,2.554,5.624,5.654,5.624h26.073
	c0.457,0,0.606,0.098,0.631,0.12c0.025,0.022,0.091,0.113,0.091,0.511v26.193c0,3.102,2.523,5.624,5.624,5.624h22.344
	c3.1,0,5.624-2.522,5.624-5.624v-26.282c0-0.294,0.048-0.351,0.09-0.391c0.042-0.041,0.183-0.15,0.571-0.15h26.133
	c3.1,0,5.654-2.523,5.654-5.624v-22.314c0-3.1-2.554-5.624-5.654-5.624h-26.163c-0.32,0-0.453-0.092-0.512-0.15
	c-0.059-0.057-0.12-0.154-0.12-0.451v-26.222c0-3.101-2.524-5.624-5.624-5.624L119.801,105.34L119.801,105.34z M119.801,107.265
	h22.344c2.06,0,3.699,1.639,3.699,3.699v26.223c0,0.678,0.21,1.361,0.692,1.835c0.481,0.473,1.179,0.691,1.864,0.691h26.164
	c2.06,0,3.729,1.639,3.729,3.699v22.314c0,2.06-1.669,3.699-3.729,3.699H148.43c-0.714,0-1.404,0.217-1.895,0.691
	c-0.491,0.476-0.692,1.13-0.692,1.775v26.283c0,2.061-1.638,3.699-3.699,3.699h-22.344c-2.06,0-3.699-1.639-3.699-3.699v-26.193
	c0-0.705-0.193-1.44-0.722-1.925c-0.529-0.484-1.213-0.631-1.925-0.631H87.383c-2.061,0-3.729-1.639-3.729-3.699v-22.315
	c0-2.06,1.669-3.699,3.729-3.699h26.163c0.828,0,1.568-0.108,2.075-0.691c0.507-0.584,0.481-1.244,0.481-1.834v-26.223
	C116.103,108.903,117.741,107.265,119.801,107.265L119.801,107.265z"/>
<path id="path13" fill="#F4F4F4" d="M117.731,102.754c-3.101,0-5.624,2.523-5.624,5.624v26.223c0,0.511-0.075,0.626,0,0.542
	c0.075-0.086,0,0.03-0.631,0.03H85.313c-3.1,0-5.654,2.552-5.654,5.653v27.484c0,3.102,2.554,5.654,5.654,5.654h26.073
	c0.456,0,0.606,0.098,0.632,0.121c0.025,0.023,0.09,0.083,0.09,0.481v26.193c0,3.102,2.523,5.623,5.624,5.623h26.494
	c3.1,0,5.624-2.521,5.624-5.623v-26.253c0-0.293,0.048-0.38,0.09-0.42c0.042-0.041,0.182-0.122,0.572-0.121h26.132
	c3.1,0,5.653-2.553,5.653-5.654v-27.485c0-3.1-2.553-5.653-5.653-5.653h-26.164c-0.319,0-0.452-0.063-0.511-0.121
	c-0.059-0.059-0.12-0.156-0.12-0.451v-26.223c0-3.1-2.523-5.624-5.624-5.624H117.731L117.731,102.754z M117.731,104.678h26.494
	c2.06,0,3.699,1.639,3.699,3.699v26.223c0,0.677,0.21,1.361,0.692,1.834c0.481,0.472,1.178,0.662,1.865,0.662h26.163
	c2.06,0,3.729,1.669,3.729,3.729v27.484c0,2.06-1.669,3.729-3.729,3.729h-26.132c-0.716,0-1.404,0.188-1.895,0.661
	c-0.491,0.476-0.691,1.16-0.691,1.804v26.254c0,2.06-1.64,3.699-3.699,3.699h-26.494c-2.06,0-3.699-1.64-3.699-3.699v-26.193
	c0-0.704-0.193-1.44-0.722-1.925c-0.529-0.485-1.213-0.601-1.925-0.601H85.314c-2.06,0-3.729-1.669-3.729-3.729v-27.485
	c0-2.06,1.669-3.729,3.729-3.729h26.163c0.828,0,1.568-0.108,2.075-0.692c0.507-0.583,0.481-1.213,0.481-1.804v-26.223
	C114.033,106.316,115.672,104.677,117.731,104.678L117.731,104.678z"/>
<path id="circle15" fill="#F4F4F4" d="M130.963,141.938c-6.97,0-12.63,5.661-12.63,12.63s5.661,12.63,12.63,12.63
	c6.969,0,12.66-5.661,12.66-12.63S137.932,141.938,130.963,141.938z M130.963,143.863c5.929,0,10.736,4.776,10.736,10.706
	c0,5.929-4.807,10.706-10.736,10.706s-10.706-4.777-10.706-10.706C120.257,148.639,125.034,143.863,130.963,143.863z"/>
<path id="path17" fill="#F4F4F4" d="M130.963,109.49c-1.408,0-2.639,0.796-3.278,1.955v0.03l-0.029,0.03l-7.277,15.216
	c-0.225,0.482-0.361,1.028-0.361,1.594c0,2.061,1.699,3.729,3.759,3.729h14.404c2.061,0,3.759-1.668,3.759-3.729
	c0-0.573-0.131-1.138-0.36-1.624l-7.338-15.277l-0.03-0.06l-0.03-0.03C133.525,110.234,132.321,109.489,130.963,109.49
	L130.963,109.49z M130.963,111.415c0.656,0,1.24,0.363,1.563,0.872l0.03,0.03l7.278,15.216c0.112,0.237,0.18,0.499,0.18,0.782
	c0,1.021-0.814,1.804-1.834,1.804h-14.405c-1.021,0-1.835-0.783-1.835-1.804c0-0.28,0.071-0.546,0.181-0.782l7.247-15.157l0.03-0.06
	C129.718,111.783,130.289,111.414,130.963,111.415L130.963,111.415z"/>
<path id="path19" fill="#F4F4F4" d="M104.711,143.623c-0.571,0-1.106,0.13-1.593,0.361l-15.307,7.338h-0.03l-0.06,0.03
	c-1.089,0.656-1.804,1.861-1.804,3.218c0,1.408,0.767,2.638,1.925,3.278l0.03,0.03h0.03l15.216,7.277v0.03
	c0.482,0.225,1.028,0.331,1.594,0.331c2.06,0,3.759-1.668,3.759-3.729v-14.405C108.47,145.32,106.771,143.623,104.711,143.623
	L104.711,143.623z M104.711,145.547c1.021,0,1.834,0.813,1.834,1.835v14.404c0,1.022-0.813,1.805-1.834,1.805
	c-0.269,0-0.523-0.049-0.752-0.15h-0.029l-15.157-7.277c-0.007-0.004-0.023,0.003-0.03,0c-0.554-0.314-0.902-0.905-0.902-1.594
	c0-0.643,0.322-1.176,0.812-1.503l15.277-7.338C104.166,145.615,104.429,145.547,104.711,145.547L104.711,145.547z"/>
<path id="path21" fill="#F4F4F4" d="M123.775,177.091c-2.061,0-3.759,1.697-3.759,3.76c0,0.57,0.129,1.105,0.361,1.594l7.338,15.307
	l0.03,0.031l0.03,0.029c0.657,1.087,1.831,1.834,3.188,1.834c1.407,0,2.669-0.795,3.308-1.954v-0.03h0.03l7.277-15.217v-0.03
	c0.225-0.482,0.36-0.998,0.36-1.563c0-2.061-1.698-3.76-3.758-3.76H123.775L123.775,177.091z M123.775,179.017h14.405
	c1.021,0,1.834,0.813,1.834,1.834c0,0.279-0.071,0.517-0.18,0.752l-7.248,15.157c-0.01,0.018-0.019,0.041-0.03,0.06
	c-0.317,0.531-0.919,0.902-1.593,0.902c-0.633,0-1.174-0.331-1.504-0.813l-0.03-0.061c-0.008-0.012-0.022-0.018-0.03-0.029
	l-7.285-15.195c-0.004-0.009,0.004-0.021,0-0.03c-0.105-0.229-0.18-0.478-0.18-0.752c0-1.021,0.813-1.834,1.833-1.834
	L123.775,179.017z"/>
<path id="path23" fill="#F4F4F4" d="M157.245,143.623c-2.061,0-3.759,1.697-3.759,3.759v14.404c0,2.061,1.698,3.729,3.759,3.729
	c0.57,0,1.105-0.129,1.594-0.361l15.306-7.338h0.03l0.06-0.03c1.089-0.657,1.804-1.861,1.804-3.218c0-1.408-0.765-2.639-1.924-3.278
	l-0.03-0.03h-0.03l-15.216-7.278C158.354,143.756,157.81,143.623,157.245,143.623L157.245,143.623z M157.245,145.547
	c0.268,0,0.523,0.077,0.751,0.181c0.008,0.004,0.021-0.004,0.03,0l15.156,7.248l0.03,0.03c0.542,0.315,0.902,0.881,0.902,1.563
	c0,0.646-0.313,1.208-0.812,1.534c-0.019,0.011-0.041,0.019-0.061,0.03l-15.216,7.308c-0.24,0.124-0.5,0.163-0.789,0.163
	c-1.021,0-1.834-0.784-1.834-1.804v-14.405c0-1.022,0.814-1.834,1.834-1.834L157.245,145.547z"/>
<path id="path25" fill="#F4F4F4" d="M258.769,152.735c-2.254-0.198-4.601,0.482-6.466,2.045l-25.17,21.111
	c-3.73,3.127-4.24,8.721-1.113,12.451c3.126,3.729,8.72,4.208,12.451,1.082l25.201-21.112c3.73-3.126,4.208-8.72,1.083-12.451
	c-1.563-1.865-3.73-2.929-5.984-3.127H258.769z M258.588,154.66c1.76,0.155,3.463,0.969,4.692,2.435
	c2.458,2.934,2.091,7.285-0.842,9.744l-25.201,21.111c-2.933,2.457-7.285,2.091-9.744-0.842c-2.458-2.933-2.061-7.286,0.872-9.743
	l25.203-21.114c1.467-1.229,3.263-1.748,5.022-1.594L258.588,154.66z"/>
<path id="path27" fill="#F4F4F4" d="M256.575,148.01c-2.605,0.27-5.154,1.292-7.308,3.097l-25.204,21.142
	c-5.744,4.816-6.497,13.383-1.684,19.126c4.815,5.744,13.412,6.498,19.156,1.685l25.202-21.111
	c5.743-4.816,6.498-13.382,1.684-19.126c-3.009-3.591-7.507-5.261-11.848-4.812L256.575,148.01z M259.011,149.905
	c2.972,0.262,5.866,1.677,7.938,4.15c4.147,4.947,3.473,12.273-1.473,16.418l-25.171,21.111c-4.947,4.147-12.304,3.504-16.45-1.443
	c-4.146-4.947-3.504-12.273,1.443-16.418l25.201-21.112C252.974,150.539,256.039,149.643,259.011,149.905L259.011,149.905z"/>
<path id="path29" fill="#F4F4F4" d="M321.743,152.735c-2.255-0.198-4.57,0.482-6.436,2.045l-25.201,21.111
	c-3.724,3.12-4.22,8.689-1.113,12.418v0.031c3.126,3.73,8.721,4.209,12.451,1.082l25.201-21.111
	c3.729-3.126,4.208-8.719,1.082-12.45C326.164,153.998,323.997,152.934,321.743,152.735L321.743,152.735z M321.562,154.66
	c1.76,0.155,3.463,0.969,4.692,2.435c2.458,2.934,2.091,7.285-0.843,9.744L300.21,187.95c-2.931,2.457-7.284,2.091-9.743-0.842
	s-2.061-7.286,0.872-9.743l25.201-21.112c1.467-1.229,3.264-1.748,5.023-1.593H321.562z"/>
<path id="path31" fill="#F4F4F4" d="M319.549,148.01c-2.605,0.27-5.154,1.292-7.308,3.097l-25.203,21.142
	c-5.744,4.816-6.499,13.383-1.684,19.126c4.813,5.744,13.412,6.498,19.156,1.685l25.193-21.113
	c5.745-4.816,6.498-13.382,1.685-19.126c-3.009-3.591-7.508-5.261-11.849-4.812L319.549,148.01z M321.985,149.905
	c2.971,0.262,5.866,1.677,7.938,4.15c4.146,4.947,3.474,12.273-1.474,16.418l-25.171,21.111c-4.947,4.147-12.304,3.503-16.449-1.443
	c-4.146-4.947-3.504-12.273,1.443-16.418l25.202-21.112C315.948,150.539,319.014,149.643,321.985,149.905L321.985,149.905z"/>
<path id="path33" fill="#F4F4F4" d="M467.448,44.233c-61.001,0-110.483,49.486-110.483,110.483c0,61,49.484,110.455,110.483,110.455
	c34.631,0,65.541-15.923,85.796-40.868l0.089-0.12l0.061-0.12l0.211-0.512l0.481-1.143l-1.233-0.181
	c-0.691-0.095-1.232-0.657-1.232-1.383c0-0.795,0.619-1.414,1.413-1.414c0.663,0,1.221,0.428,1.384,1.022l0.57,2.135l1.174-1.863
	l0.541-0.902l0.03-0.061c13.317-18.248,21.171-40.731,21.171-65.046c0-61-49.455-110.484-110.455-110.484V44.233z M467.448,46.157
	c59.96,0,108.529,48.603,108.529,108.559c0,23.837-7.697,45.849-20.72,63.753c-0.6-0.564-1.343-0.963-2.226-0.963
	c-1.834,0-3.338,1.507-3.338,3.339c0,1.184,0.744,2.053,1.684,2.646c-19.908,24.258-50.098,39.757-83.932,39.757
	c-59.96,0-108.56-48.571-108.56-108.531c0-59.96,48.603-108.559,108.56-108.559L467.448,46.157z"/>
<path id="circle35" fill="#F4F4F4" d="M411.209,132.825c-12.558,0-22.764,10.207-22.764,22.765
	c0,12.558,10.206,22.765,22.764,22.765c12.559,0,22.766-10.207,22.766-22.765C433.975,143.032,423.768,132.825,411.209,132.825z
	 M411.209,134.749c11.519,0,20.841,9.323,20.841,20.841c0,11.518-9.322,20.84-20.841,20.84c-11.517,0-20.839-9.322-20.839-20.84
	C390.37,144.072,399.692,134.749,411.209,134.749L411.209,134.749z"/>
<path id="circle37" fill="#F4F4F4" d="M466.485,89.763c-12.559,0-22.735,10.205-22.735,22.765c0,12.557,10.177,22.764,22.735,22.764
	c12.558,0,22.765-10.207,22.765-22.764C489.25,99.968,479.043,89.763,466.485,89.763z M466.485,91.687
	c11.518,0,20.84,9.322,20.84,20.84c0,11.518-9.322,20.839-20.84,20.839s-20.811-9.321-20.811-20.839
	C445.675,101.009,454.966,91.687,466.485,91.687z"/>
<path id="path39" fill="#F4F4F4" d="M464.561,83.507c-5.524,0.373-10.98,2.331-15.676,5.985l-55.274,43.064
	c-12.508,9.742-14.764,27.819-5.022,40.326c9.742,12.509,27.819,14.734,40.328,4.993l55.275-43.045
	c12.51-9.739,14.762-27.813,5.022-40.322c-6.091-7.818-15.454-11.628-24.654-11.007L464.561,83.507z M464.711,85.402
	c8.584-0.583,17.287,2.98,22.975,10.285c9.104,11.689,6.998,28.519-4.69,37.621l-55.273,43.063
	c-11.688,9.103-28.519,6.997-37.621-4.691c-9.104-11.689-6.997-28.517,4.691-37.621l55.273-43.034
	C454.448,87.612,459.562,85.751,464.711,85.402L464.711,85.402z"/>
<path id="circle41" fill="#F4F4F4" d="M468.313,174.868c-12.559,0-22.765,10.206-22.765,22.765s10.206,22.735,22.765,22.735
	s22.734-10.177,22.734-22.735S480.872,174.868,468.313,174.868z M468.313,176.793c11.519,0,20.81,9.322,20.81,20.84
	c0,11.519-9.291,20.81-20.81,20.81s-20.84-9.291-20.84-20.81C447.474,186.115,456.795,176.793,468.313,176.793z"/>
<path id="circle43" fill="#F4F4F4" d="M523.589,131.805c-12.558,0-22.766,10.207-22.766,22.764
	c0,12.559,10.208,22.765,22.766,22.765c12.559,0,22.764-10.206,22.764-22.765C546.353,142.012,536.147,131.805,523.589,131.805z
	 M523.589,133.729c11.518,0,20.84,9.322,20.84,20.839c0,11.519-9.322,20.84-20.84,20.84s-20.84-9.322-20.84-20.84
	C502.749,143.051,512.071,133.729,523.589,133.729z"/>
<path id="path45" fill="#F4F4F4" d="M521.665,125.55c-5.522,0.373-11.008,2.332-15.698,5.984l-55.273,43.063
	c-12.508,9.743-14.765,27.818-5.022,40.327c9.742,12.507,27.818,14.733,40.328,4.992l55.272-43.034
	c12.509-9.742,14.766-27.819,5.022-40.328C540.206,128.738,530.868,124.928,521.665,125.55L521.665,125.55z M521.785,127.444
	c8.583-0.582,17.287,2.98,22.974,10.286c9.104,11.688,7.028,28.517-4.66,37.621l-55.274,43.063
	c-11.688,9.103-28.518,6.996-37.62-4.691c-9.103-11.689-7.025-28.518,4.662-37.62l55.303-43.034
	C511.552,129.653,516.634,127.794,521.785,127.444L521.785,127.444z"/>
</svg>
