<?xml version="1.0" encoding="utf-8"?>
<!-- Generator: Adobe Illustrator 22.1.0, SVG Export Plug-In . SVG Version: 6.00 Build 0)  -->
<svg version="1.1" id="Layer_5" xmlns="http://www.w3.org/2000/svg" xmlns:xlink="http://www.w3.org/1999/xlink" x="0px" y="0px"
	 width="600" height="350" viewBox="0 0 600 350" enable-background="new 0 0 600 350" xml:space="preserve">
<path fill="#F4F4F4" d="M459.44,57.99c30.22,0,58.64,11.77,80.01,33.14c21.37,21.37,33.14,49.79,33.14,80.01
	s-11.77,58.64-33.14,80.01c-21.37,21.37-49.79,33.14-80.01,33.14c-15.68,0-30.85-3.15-45.11-9.37c-13.76-6-26.04-14.56-36.5-25.45
	c-0.38-0.39-0.9-0.61-1.44-0.61H300h-76.39c-0.54,0-1.07,0.22-1.44,0.61c-10.46,10.89-22.74,19.45-36.5,25.45
	c-14.26,6.21-29.43,9.37-45.11,9.37c-30.22,0-58.64-11.77-80.01-33.14c-21.37-21.37-33.14-49.79-33.14-80.01
	s11.77-58.64,33.14-80.01c21.37-21.37,49.79-33.14,80.01-33.14H300H459.44 M459.44,55.99H300H140.56
	c-63.6,0-115.15,51.56-115.15,115.15S76.96,286.3,140.56,286.3c32.65,0,62.1-13.61,83.05-35.43H300h76.39
	c20.96,21.82,50.4,35.43,83.05,35.43c63.6,0,115.15-51.56,115.15-115.15S523.04,55.99,459.44,55.99L459.44,55.99z"/>
<path fill="#F4F4F4" d="M572.6,163.14v2v4.35v23.65c0,30.22-11.77,58.64-33.14,80.01c-21.37,21.37-49.79,33.14-80.01,33.14
	c-15.68,0-30.85-3.15-45.11-9.37c-13.76-6-26.04-14.56-36.5-25.45c-0.38-0.39-0.9-0.61-1.44-0.61H300h-76.39
	c-0.54,0-1.07,0.22-1.44,0.61c-10.46,10.89-22.74,19.45-36.5,25.45c-14.26,6.21-29.43,9.37-45.11,9.37
	c-30.22,0-58.64-11.77-80.01-33.14S27.4,223.37,27.4,193.14v-23.65v-4.35v-2h-2c0,9.56,0,19.62,0,30
	c0,63.6,51.56,115.15,115.15,115.15c32.65,0,62.1-13.61,83.05-35.43H300h76.39c20.96,21.82,50.4,35.43,83.05,35.43
	c63.6,0,115.15-51.56,115.15-115.15c0-14.6,0-24.06,0-30H572.6z"/>
<path fill="#F4F4F4" d="M74.22,79.46c0.62-0.45,1.23-0.89,1.86-1.32c-2.21-0.82-3.53-2.69-4.07-4.47c-0.71-2.35-0.37-5.58,2.73-7.64
	c17.76-11.82,42.37-18.88,65.84-18.88h44.28c3.78,0,6.86,3.08,6.86,6.86v4h2v-4c0-4.89-3.96-8.86-8.86-8.86h-44.28
	c-23.54,0-48.72,7.08-66.95,19.22C67.73,68.27,68.91,76.48,74.22,79.46z"/>
<path fill="#F4F4F4" d="M408.3,57.99v-4c0-3.78,3.08-6.86,6.86-6.86h44.28c23.47,0,48.08,7.06,65.84,18.88
	c3.09,2.06,3.44,5.3,2.73,7.64c-0.54,1.78-1.86,3.65-4.07,4.47c0.62,0.43,1.24,0.88,1.86,1.32c5.31-2.97,6.48-11.18,0.59-15.1
	c-18.23-12.14-43.4-19.22-66.95-19.22h-44.28c-4.89,0-8.86,3.97-8.86,8.86v4H408.3z"/>
<path fill="#F4F4F4" d="M343.4,163.08h-54.84c-0.4,0-0.77-0.24-0.92-0.62c-0.15-0.37-0.07-0.8,0.22-1.09l23.34-23.34
	c-0.64-0.9-0.95-1.91-0.93-3.01c0.07-3.1,2.79-6.05,4.41-7.53c0.39-0.36,1-0.35,1.38,0.03l2.44,2.45c1.38,1.38,1.52,2.71,1.4,3.58
	c-0.22,1.59-1.42,2.83-2.34,3.56l5.48,5.49c1.11-3.13,3.18-10.86-1.34-15.37l-0.56-0.56c-1.93-1.93-3.23-3.23-4.13-4.14
	c-0.39-0.39-0.39-1.02,0-1.41l8.64-8.63c0.27-0.27,0.68-0.36,1.04-0.23c1.96,0.7,4.16,0.21,5.62-1.25c1.03-1.02,1.59-2.38,1.59-3.82
	c0-1.44-0.56-2.79-1.59-3.81c-1.02-1.02-2.37-1.59-3.81-1.59c0,0,0,0,0,0c-1.44,0-2.79,0.56-3.81,1.58
	c-1.49,1.49-1.97,3.66-1.24,5.67c0.13,0.36,0.04,0.77-0.23,1.05l-8.62,8.61c-0.39,0.39-1.02,0.39-1.41,0
	c-0.76-0.75-1.8-1.79-3.25-3.25l-1.46-1.47c-4.51-4.51-12.24-2.44-15.36-1.34l5.48,5.49c0.73-0.92,1.96-2.12,3.55-2.34
	c0.88-0.12,2.21,0.02,3.59,1.4c0.85,0.86,1.67,1.69,2.44,2.44c0.38,0.38,0.4,0.99,0.04,1.39c-1.18,1.3-4.28,4.33-7.51,4.41
	c-1.13,0.02-2.13-0.28-3.03-0.93l-13.39,13.39c-8.74,8.74-19.02,19.03-24.89,24.9c-0.19,0.19-0.44,0.29-0.71,0.29h-2.95
	c-0.35,0-0.67-0.18-0.85-0.48c-4.98-8.2-7.62-17.57-7.62-27.09c0-28.84,23.47-52.3,52.31-52.3c28.84,0,52.3,23.46,52.3,52.3
	c0,9.51-2.63,18.88-7.61,27.09C344.08,162.89,343.75,163.08,343.4,163.08z M290.98,161.08h51.85c4.6-7.78,7.03-16.6,7.03-25.57
	c0-27.74-22.56-50.3-50.3-50.3c-27.74,0-50.31,22.57-50.31,50.3c0,8.97,2.43,17.8,7.04,25.57h1.96c5.91-5.91,16-16.01,24.6-24.6
	l14.04-14.04c0.39-0.39,1.02-0.39,1.41,0c0.69,0.69,1.43,1.01,2.34,0.99c2.04-0.05,4.23-1.9,5.42-3.07
	c-0.56-0.56-1.15-1.16-1.75-1.76c-0.65-0.64-1.26-0.92-1.9-0.83c-1.29,0.18-2.5,1.84-2.82,2.41c-0.15,0.27-0.43,0.46-0.74,0.5
	c-0.32,0.04-0.62-0.06-0.84-0.28l-7.41-7.42c-0.23-0.23-0.33-0.56-0.28-0.88c0.06-0.32,0.27-0.6,0.57-0.73
	c0.5-0.23,12.28-5.49,18.98,1.21l1.46,1.47c1.05,1.05,1.88,1.88,2.54,2.55l7.48-7.48c-0.69-2.57,0.01-5.26,1.9-7.15
	c1.39-1.4,3.25-2.17,5.22-2.17c0,0,0,0,0,0c1.97,0,3.83,0.77,5.22,2.17c1.4,1.39,2.17,3.25,2.17,5.22c0,1.98-0.77,3.84-2.18,5.23
	c-1.84,1.85-4.57,2.56-7.08,1.9l-7.5,7.5c0.84,0.84,1.95,1.96,3.42,3.43l0.56,0.56c6.71,6.71,1.43,18.49,1.21,18.99
	c-0.14,0.3-0.41,0.51-0.73,0.57c-0.32,0.06-0.65-0.05-0.88-0.28l-7.41-7.42c-0.22-0.22-0.33-0.53-0.28-0.84
	c0.04-0.31,0.23-0.58,0.5-0.73c0.61-0.35,2.24-1.53,2.41-2.82c0.08-0.62-0.19-1.24-0.84-1.89l-1.75-1.75
	c-1.17,1.2-3.03,3.41-3.07,5.43c-0.02,0.88,0.31,1.64,0.99,2.32c0.19,0.19,0.29,0.44,0.29,0.71c0,0.27-0.11,0.52-0.29,0.71
	L290.98,161.08z"/>
<path fill="#F4F4F4" d="M150.11,113.42c2.21,0,4,1.79,4,4v31.46h31.46c2.21,0,4,1.79,4,4v18.53c0,2.21-1.79,4-4,4h-31.46v31.46
	c0,2.21-1.79,4-4,4h-18.53c-2.21,0-4-1.79-4-4v-31.46H96.12c-2.21,0-4-1.79-4-4v-18.53c0-2.21,1.79-4,4-4h31.46v-31.46
	c0-2.21,1.79-4,4-4H150.11 M150.11,111.42h-18.53c-3.31,0-6,2.69-6,6v29.46H96.12c-3.31,0-6,2.69-6,6v18.53c0,3.31,2.69,6,6,6h29.46
	v29.46c0,3.31,2.69,6,6,6h18.53c3.31,0,6-2.69,6-6v-29.46h29.46c3.31,0,6-2.69,6-6v-18.53c0-3.31-2.69-6-6-6h-29.46v-29.46
	C156.11,114.12,153.41,111.42,150.11,111.42L150.11,111.42z"/>
<path fill="#F4F4F4" d="M125.58,183.41H96.12c-2.21,0-4-1.79-4-4v-10h-2v10c0,3.31,2.69,6,6,6h29.46V183.41z"/>
<path fill="#F4F4F4" d="M154.11,204.86v10c0,2.21-1.79,4-4,4h-18.53c-2.21,0-4-1.79-4-4v-10h-2v10c0,3.31,2.69,6,6,6h18.53
	c3.31,0,6-2.69,6-6v-10H154.11z"/>
<path fill="#F4F4F4" d="M189.56,169.41v10c0,2.21-1.79,4-4,4h-29.46v2h29.46c3.31,0,6-2.69,6-6v-10H189.56z"/>
<path fill="#F4F4F4" d="M140.84,133.17c-0.55,0-1-0.45-1-1v-12.75c0-0.55,0.45-1,1-1s1,0.45,1,1v12.75
	C141.84,132.73,141.4,133.17,140.84,133.17z"/>
<path fill="#F4F4F4" d="M140.84,205.86c-0.55,0-1-0.45-1-1v-12.75c0-0.55,0.45-1,1-1s1,0.45,1,1v12.75
	C141.84,205.41,141.4,205.86,140.84,205.86z"/>
<path fill="#F4F4F4" d="M110.87,163.14H98.12c-0.55,0-1-0.45-1-1s0.45-1,1-1h12.75c0.55,0,1,0.45,1,1S111.43,163.14,110.87,163.14z"
	/>
<path fill="#F4F4F4" d="M183.56,163.14h-12.75c-0.55,0-1-0.45-1-1s0.45-1,1-1h12.75c0.55,0,1,0.45,1,1S184.11,163.14,183.56,163.14z
	"/>
<path fill="#F4F4F4" d="M417.01,146.85c9.78,0,17.72,7.93,17.72,17.72c0,9.78-7.93,17.72-17.72,17.72s-17.72-7.93-17.72-17.72
	C399.3,154.78,407.23,146.85,417.01,146.85 M417.01,144.85c-10.87,0-19.72,8.84-19.72,19.72s8.84,19.72,19.72,19.72
	s19.72-8.84,19.72-19.72S427.88,144.85,417.01,144.85L417.01,144.85z"/>
<path fill="#F4F4F4" d="M434.73,171.4c0,9.78-7.93,17.72-17.72,17.72h0c-9.78,0-17.72-7.93-17.72-17.72v-6.84l-2,0v6.84
	c0,10.87,8.84,19.72,19.72,19.72s19.72-8.84,19.72-19.72v-6.84h-2V171.4z"/>
<path fill="#F4F4F4" d="M503.88,146.85c9.78,0,17.72,7.93,17.72,17.72c0,9.78-7.93,17.72-17.72,17.72s-17.72-7.93-17.72-17.72
	C486.16,154.78,494.09,146.85,503.88,146.85 M503.88,144.85c-10.87,0-19.72,8.84-19.72,19.72s8.84,19.72,19.72,19.72
	s19.72-8.84,19.72-19.72S514.75,144.85,503.88,144.85L503.88,144.85z"/>
<path fill="#F4F4F4" d="M521.59,171.4c0,9.78-7.93,17.72-17.72,17.72h0c-9.78,0-17.72-7.93-17.72-17.72v-6.84l-2,0v6.84
	c0,10.87,8.84,19.72,19.72,19.72c10.87,0,19.72-8.84,19.72-19.72v-6.84h-2V171.4z"/>
<path fill="#F4F4F4" d="M460.44,111.43c9.78,0,17.72,7.93,17.72,17.72s-7.93,17.72-17.72,17.72s-17.72-7.93-17.72-17.72
	S450.66,111.43,460.44,111.43 M460.44,109.43c-10.87,0-19.72,8.84-19.72,19.72s8.84,19.72,19.72,19.72s19.72-8.84,19.72-19.72
	S471.31,109.43,460.44,109.43L460.44,109.43z"/>
<path fill="#F4F4F4" d="M478.16,135.99c0,9.78-7.93,17.72-17.72,17.72h0c-9.78,0-17.72-7.93-17.72-17.72v-6.84l-2,0v6.84
	c0,10.87,8.84,19.72,19.72,19.72s19.72-8.84,19.72-19.72v-6.84h-2V135.99z"/>
<path fill="#F4F4F4" d="M460.44,182.58c9.78,0,17.72,7.93,17.72,17.72c0,9.78-7.93,17.72-17.72,17.72s-17.72-7.93-17.72-17.72
	C442.73,190.51,450.66,182.58,460.44,182.58 M460.44,180.58c-10.87,0-19.72,8.84-19.72,19.72s8.84,19.72,19.72,19.72
	s19.72-8.84,19.72-19.72S471.31,180.58,460.44,180.58L460.44,180.58z"/>
<path fill="#F4F4F4" d="M478.16,207.14c0,9.78-7.93,17.72-17.72,17.72h0c-9.78,0-17.72-7.93-17.72-17.72v-6.84l-2,0v6.84
	c0,10.87,8.84,19.72,19.72,19.72s19.72-8.84,19.72-19.72v-6.84h-2V207.14z"/>
<path fill="#F4F4F4" d="M460.71,249.65c-43.13,0-78.22-35.09-78.22-78.22c0-43.13,35.09-78.23,78.22-78.23
	c43.13,0,78.23,35.09,78.23,78.23C538.94,214.56,503.84,249.65,460.71,249.65z M460.71,95.2c-42.03,0-76.22,34.19-76.22,76.23
	c0,42.03,34.19,76.22,76.22,76.22c42.03,0,76.23-34.19,76.23-76.22C536.94,129.4,502.74,95.2,460.71,95.2z"/>
<path fill="#F4F4F4" d="M140.84,249.65c-43.13,0-78.23-35.09-78.23-78.22c0-43.13,35.09-78.23,78.23-78.23s78.23,35.09,78.23,78.23
	C219.07,214.56,183.98,249.65,140.84,249.65z M140.84,95.2c-42.03,0-76.23,34.19-76.23,76.23c0,42.03,34.19,76.22,76.23,76.22
	s76.23-34.19,76.23-76.22C217.07,129.4,182.87,95.2,140.84,95.2z"/>
</svg>
