<?xml version="1.0" encoding="utf-8"?>
<!-- Generator: Adobe Illustrator 13.0.0, SVG Export Plug-In . SVG Version: 6.00 Build 14948)  -->
<svg version="1.2" baseProfile="tiny"
	 id="Layer_3" xmlns:cc="http://creativecommons.org/ns#" xmlns:dc="http://purl.org/dc/elements/1.1/" xmlns:rdf="http://www.w3.org/1999/02/22-rdf-syntax-ns#"
	 xmlns="http://www.w3.org/2000/svg" xmlns:xlink="http://www.w3.org/1999/xlink" x="0px" y="0px" width="598.189px"
	 height="350.26px" viewBox="0 0 598.189 350.26" xml:space="preserve">
<g>
	<g>
		<polygon fill="#F4F4F4" points="160.078,38.753 160.078,36.753 165.048,36.753 165.048,38.753 160.078,38.753 		"/>
		<polygon fill="#F4F4F4" points="160.13,28.813 160.13,26.813 165.103,26.813 165.103,28.813 160.13,28.813 		"/>
		<polygon fill="#F4F4F4" points="169.072,38.755 169.072,36.755 174.044,36.755 174.044,38.755 169.072,38.755 		"/>
		<polygon fill="#F4F4F4" points="169.125,28.813 169.125,26.813 174.097,26.813 174.097,28.813 169.125,28.813 		"/>
	</g>
	<g>
		<polygon fill="#F4F4F4" points="177.295,38.754 177.295,36.754 182.267,36.754 182.267,38.754 177.295,38.754 		"/>
		<polygon fill="#F4F4F4" points="177.35,28.812 177.35,26.812 182.32,26.812 182.32,28.812 177.35,28.812 		"/>
		<polygon fill="#F4F4F4" points="186.291,38.754 186.291,36.754 191.262,36.754 191.262,38.754 186.291,38.754 		"/>
		<polygon fill="#F4F4F4" points="186.345,28.813 186.345,26.813 191.316,26.813 191.316,28.813 186.345,28.813 		"/>
	</g>
	<g>
		<polygon fill="#F4F4F4" points="194.516,38.754 194.516,36.754 199.487,36.754 199.487,38.754 194.516,38.754 		"/>
		<polygon fill="#F4F4F4" points="194.568,28.813 194.568,26.813 199.538,26.813 199.538,28.813 194.568,28.813 		"/>
		<polygon fill="#F4F4F4" points="203.51,38.754 203.51,36.754 208.481,36.754 208.481,38.754 203.51,38.754 		"/>
		<polygon fill="#F4F4F4" points="203.562,28.813 203.562,26.813 208.533,26.813 208.533,28.813 203.562,28.813 		"/>
	</g>
	<g>
		<polygon fill="#F4F4F4" points="211.733,38.755 211.733,36.754 216.703,36.754 216.703,38.755 211.733,38.755 		"/>
		<polygon fill="#F4F4F4" points="211.787,28.813 211.787,26.813 216.756,26.813 216.756,28.813 211.787,28.813 		"/>
		<polygon fill="#F4F4F4" points="220.729,38.754 220.729,36.753 225.698,36.753 225.698,38.754 220.729,38.754 		"/>
		<polygon fill="#F4F4F4" points="220.782,28.813 220.782,26.812 225.751,26.812 225.751,28.813 220.782,28.813 		"/>
	</g>
	<g>
		<polygon fill="#F4F4F4" points="228.951,38.753 228.951,36.755 233.923,36.755 233.923,38.753 228.951,38.753 		"/>
		<polygon fill="#F4F4F4" points="229.004,28.813 229.004,26.812 233.975,26.812 233.975,28.813 229.004,28.813 		"/>
		<polygon fill="#F4F4F4" points="237.947,38.754 237.947,36.755 242.918,36.755 242.918,38.754 237.947,38.754 		"/>
		<polygon fill="#F4F4F4" points="237.999,28.811 237.999,26.813 242.971,26.813 242.971,28.811 237.999,28.811 		"/>
	</g>
	<g>
		<polygon fill="#F4F4F4" points="246.171,38.754 246.171,36.755 251.14,36.755 251.14,38.754 246.171,38.754 		"/>
		<polygon fill="#F4F4F4" points="246.224,28.812 246.224,26.813 251.194,26.813 251.194,28.812 246.224,28.812 		"/>
		<polygon fill="#F4F4F4" points="255.167,38.754 255.167,36.753 260.137,36.753 260.137,38.754 255.167,38.754 		"/>
		<polygon fill="#F4F4F4" points="255.218,28.813 255.218,26.812 260.19,26.812 260.19,28.813 255.218,28.813 		"/>
	</g>
	<g>
		<polygon fill="#F4F4F4" points="263.389,38.754 263.389,36.753 268.359,36.753 268.359,38.754 263.389,38.754 		"/>
		<polygon fill="#F4F4F4" points="263.441,28.812 263.441,26.813 268.412,26.813 268.412,28.812 263.441,28.812 		"/>
		<polygon fill="#F4F4F4" points="272.384,38.754 272.384,36.753 277.354,36.753 277.354,38.754 272.384,38.754 		"/>
		<polygon fill="#F4F4F4" points="272.436,28.813 272.436,26.812 277.408,26.812 277.408,28.813 272.436,28.813 		"/>
	</g>
	<g>
		<polygon fill="#F4F4F4" points="280.607,38.754 280.607,36.753 285.578,36.753 285.578,38.754 280.607,38.754 		"/>
		<polygon fill="#F4F4F4" points="280.661,28.812 280.661,26.813 285.631,26.813 285.631,28.812 280.661,28.812 		"/>
		<polygon fill="#F4F4F4" points="289.602,38.753 289.602,36.754 294.574,36.754 294.574,38.753 289.602,38.753 		"/>
		<polygon fill="#F4F4F4" points="289.655,28.812 289.655,26.813 294.625,26.813 294.625,28.812 289.655,28.812 		"/>
	</g>
	<g>
		<polygon fill="#F4F4F4" points="297.825,38.754 297.825,36.755 302.796,36.755 302.796,38.754 297.825,38.754 		"/>
		<polygon fill="#F4F4F4" points="297.879,28.812 297.879,26.813 302.85,26.813 302.85,28.812 297.879,28.812 		"/>
		<polygon fill="#F4F4F4" points="306.819,38.755 306.819,36.754 311.792,36.754 311.792,38.755 306.819,38.755 		"/>
		<polygon fill="#F4F4F4" points="306.873,28.813 306.873,26.812 311.846,26.812 311.846,28.813 306.873,28.813 		"/>
	</g>
	<g>
		<polygon fill="#F4F4F4" points="315.044,38.754 315.044,36.755 320.016,36.755 320.016,38.754 315.044,38.754 		"/>
		<polygon fill="#F4F4F4" points="315.096,28.812 315.096,26.813 320.068,26.813 320.068,28.812 315.096,28.812 		"/>
		<polygon fill="#F4F4F4" points="324.04,38.754 324.04,36.754 329.01,36.754 329.01,38.754 324.04,38.754 		"/>
		<polygon fill="#F4F4F4" points="324.091,28.813 324.091,26.812 329.063,26.812 329.063,28.813 324.091,28.813 		"/>
	</g>
	<g>
		<polygon fill="#F4F4F4" points="332.263,38.754 332.263,36.755 337.232,36.755 337.232,38.754 332.263,38.754 		"/>
		<polygon fill="#F4F4F4" points="332.315,28.813 332.315,26.812 337.286,26.812 337.286,28.813 332.315,28.813 		"/>
		<polygon fill="#F4F4F4" points="341.258,38.753 341.258,36.754 346.228,36.754 346.228,38.753 341.258,38.753 		"/>
		<polygon fill="#F4F4F4" points="341.309,28.813 341.309,26.812 346.281,26.812 346.281,28.813 341.309,28.813 		"/>
	</g>
	<g>
		<polygon fill="#F4F4F4" points="349.481,38.754 349.481,36.754 354.452,36.754 354.452,38.754 349.481,38.754 		"/>
		<polygon fill="#F4F4F4" points="349.533,28.812 349.533,26.813 354.502,26.813 354.502,28.812 349.533,28.812 		"/>
		<polygon fill="#F4F4F4" points="358.476,38.754 358.476,36.754 363.448,36.754 363.448,38.754 358.476,38.754 		"/>
		<polygon fill="#F4F4F4" points="358.529,28.813 358.529,26.812 363.5,26.812 363.5,28.813 358.529,28.813 		"/>
	</g>
	<g>
		<polygon fill="#F4F4F4" points="366.7,38.754 366.7,36.755 371.671,36.755 371.671,38.754 366.7,38.754 		"/>
		<polygon fill="#F4F4F4" points="366.753,28.813 366.753,26.812 371.724,26.812 371.724,28.813 366.753,28.813 		"/>
		<polygon fill="#F4F4F4" points="375.694,38.755 375.694,36.753 380.665,36.753 380.665,38.755 375.694,38.755 		"/>
		<polygon fill="#F4F4F4" points="375.746,28.812 375.746,26.812 380.719,26.812 380.719,28.812 375.746,28.812 		"/>
	</g>
	<g>
		<polygon fill="#F4F4F4" points="383.917,38.753 383.917,36.754 388.889,36.754 388.889,38.753 383.917,38.753 		"/>
		<polygon fill="#F4F4F4" points="383.971,28.813 383.971,26.812 388.941,26.812 388.941,28.813 383.971,28.813 		"/>
		<polygon fill="#F4F4F4" points="392.913,38.754 392.913,36.755 397.886,36.755 397.886,38.754 392.913,38.754 		"/>
		<polygon fill="#F4F4F4" points="392.964,28.813 392.964,26.813 397.937,26.813 397.937,28.813 392.964,28.813 		"/>
	</g>
	<g>
		<polygon fill="#F4F4F4" points="401.137,38.754 401.137,36.755 406.107,36.755 406.107,38.754 401.137,38.754 		"/>
		<polygon fill="#F4F4F4" points="401.189,28.813 401.189,26.813 406.16,26.813 406.16,28.813 401.189,28.813 		"/>
		<polygon fill="#F4F4F4" points="410.131,38.754 410.131,36.754 415.103,36.754 415.103,38.754 410.131,38.754 		"/>
		<polygon fill="#F4F4F4" points="410.185,28.812 410.185,26.812 415.155,26.812 415.155,28.812 410.185,28.812 		"/>
	</g>
	<g>
		<polygon fill="#F4F4F4" points="418.355,38.753 418.355,36.754 423.324,36.754 423.324,38.753 418.355,38.753 		"/>
		<polygon fill="#F4F4F4" points="418.407,28.813 418.407,26.812 423.378,26.812 423.378,28.813 418.407,28.813 		"/>
		<polygon fill="#F4F4F4" points="427.35,38.755 427.35,36.753 432.32,36.753 432.32,38.755 427.35,38.755 		"/>
		<polygon fill="#F4F4F4" points="427.401,28.812 427.401,26.813 432.374,26.813 432.374,28.812 427.401,28.812 		"/>
	</g>
	<path fill="#F4F4F4" d="M155.447,61.058V24.235h5.578v18.726c0.002,0.873,0.707,1.577,1.579,1.579l0,0
		c0.87-0.002,1.574-0.706,1.576-1.579l0,0V24.235h5.841l-0.002,18.726c0.002,0.873,0.708,1.577,1.578,1.579l0,0
		c0.873-0.002,1.577-0.706,1.579-1.579l0,0V24.235h5.069l-0.002,18.726c0.002,0.873,0.707,1.577,1.579,1.579l0,0
		c0.872-0.002,1.576-0.706,1.578-1.579l0,0V24.235h5.839v18.726c0.002,0.873,0.707,1.577,1.579,1.579l0,0
		c0.87-0.002,1.574-0.706,1.576-1.579l0,0V24.235h5.069l-0.002,18.726c0.002,0.873,0.708,1.577,1.579,1.579l0,0
		c0.872-0.002,1.576-0.706,1.579-1.579l0,0V24.235h5.839v18.726c0.002,0.873,0.707,1.577,1.579,1.579l0,0
		c0.87-0.002,1.574-0.706,1.576-1.579l0,0V24.235h5.069v18.726c0.002,0.873,0.706,1.577,1.578,1.579l0,0
		c0.87-0.002,1.574-0.706,1.577-1.579l0,0V24.235h5.841l-0.002,18.726c0.002,0.873,0.708,1.577,1.579,1.579l0,0
		c0.872-0.002,1.576-0.706,1.579-1.579l0,0V24.235h5.069l-0.002,18.726c0.002,0.873,0.708,1.577,1.578,1.579l0,0
		c0.87-0.002,1.577-0.706,1.577-1.579l0,0V24.235h5.841v18.726c0.002,0.873,0.706,1.577,1.576,1.579l0,0
		c0.872-0.002,1.576-0.706,1.579-1.579l0,0V24.235h5.069v18.726c0,0.873,0.707,1.577,1.577,1.579l0,0
		c0.872-0.002,1.576-0.706,1.578-1.579l0,0V24.235h5.839v18.726c0.002,0.873,0.706,1.577,1.578,1.579l0,0
		c0.87-0.002,1.574-0.706,1.577-1.579l0,0V24.235h5.069v18.726c0.002,0.873,0.707,1.577,1.579,1.579l0,0
		c0.87-0.002,1.574-0.706,1.576-1.579l0,0V24.235h5.841v18.726c0,0.873,0.704,1.577,1.577,1.579l0,0
		c0.87-0.002,1.576-0.706,1.578-1.579l0,0V24.235h5.067v18.726c0.002,0.873,0.706,1.577,1.578,1.579l0,0
		c0.87-0.002,1.574-0.706,1.576-1.579l0,0V24.235h5.841v18.726c0.002,0.873,0.707,1.577,1.577,1.579l0,0
		c0.872-0.002,1.576-0.706,1.578-1.579l0,0V24.235h5.069l-0.002,18.726c0.002,0.873,0.708,1.577,1.578,1.579l0,0
		c0.872-0.002,1.576-0.706,1.576-1.579l0,0V24.235h5.842v18.726c0.002,0.873,0.708,1.577,1.578,1.579l0,0
		c0.87-0.002,1.574-0.706,1.576-1.579l0,0V24.235h5.069v18.726c0.002,0.873,0.706,1.577,1.579,1.579l0,0
		c0.869-0.002,1.573-0.706,1.573-1.579l0,0V24.235h5.844l-0.002,18.726c0.002,0.873,0.708,1.577,1.581,1.579l0,0
		c0.867-0.002,1.573-0.706,1.573-1.579l0,0V24.235h5.071l-0.002,18.726c0.002,0.873,0.707,1.577,1.576,1.579l0,0
		c0.873-0.002,1.577-0.706,1.579-1.579l0,0V24.235h5.841l-0.002,18.726c0.002,0.873,0.708,1.577,1.578,1.579l0,0
		c0.872-0.002,1.577-0.706,1.577-1.579l0,0V24.235h5.071l-0.003,18.726c0.003,0.873,0.707,1.577,1.579,1.579l0,0
		c0.872-0.002,1.576-0.706,1.576-1.579l0,0V24.235h5.841v18.726c0.003,0.873,0.707,1.577,1.579,1.579l0,0
		c0.867-0.002,1.574-0.706,1.574-1.579l0,0V24.235h5.071v18.726c0,0.873,0.704,1.577,1.576,1.579l0,0
		c0.872-0.002,1.576-0.706,1.576-1.579l0,0V24.235h5.844l-0.003,18.726c0.003,0.873,0.709,1.577,1.579,1.579l0,0
		c0.87-0.002,1.576-0.706,1.576-1.579l0,0V24.235h5.069v18.726c0.002,0.873,0.708,1.577,1.578,1.579l0,0
		c0.868-0.002,1.574-0.706,1.574-1.579l0,0V24.235h5.844l-0.003,18.726c0.003,0.873,0.709,1.577,1.579,1.579l0,0
		c0.87-0.002,1.576-0.706,1.576-1.579l0,0V24.235h5.071l-0.002,18.726c0.002,0.873,0.708,1.577,1.578,1.579l0,0
		c0.872-0.002,1.576-0.706,1.578-1.579l0,0V24.235h5.84l-0.003,18.726c0.003,0.873,0.709,1.577,1.581,1.579l0,0
		c0.868-0.002,1.574-0.706,1.574-1.579l0,0V24.235h5.071l-0.002,18.726c0.002,0.873,0.706,1.577,1.578,1.579l0,0
		c0.872-0.002,1.576-0.706,1.578-1.579l0,0V24.235h5.84v18.726c0.002,0.873,0.706,1.577,1.578,1.579l0,0
		c0.868-0.002,1.574-0.706,1.576-1.579l0,0V24.246l5.842-0.062l-0.003,18.739c0.003,0.87,0.707,1.574,1.579,1.576l0,0
		c0.872-0.002,1.576-0.706,1.578-1.576l0,0V25.194v-1h143.29v36.863H155.447L155.447,61.058z M157.447,59.058h424.287V26.194
		H442.447v16.729c0,1.976-1.603,3.576-3.578,3.576l0,0c-1.977,0-3.576-1.602-3.578-3.576l0,0V26.205l-1.84,0.019v16.737
		c0,1.977-1.603,3.578-3.576,3.578l0,0c-1.977,0-3.578-1.602-3.578-3.578l0,0l-0.002-16.726h-1.838v16.726
		c0,1.977-1.602,3.578-3.578,3.578l0,0c-1.977,0-3.576-1.602-3.578-3.578l0,0V26.235h-1.07v16.726c0,1.977-1.597,3.578-3.573,3.578
		l0,0c-1.977,0-3.578-1.602-3.58-3.578l0,0V26.235h-1.838v16.726c0,1.977-1.602,3.578-3.578,3.578l0,0
		c-1.977,0-3.576-1.602-3.578-3.578l0,0V26.235h-1.067v16.726c0,1.977-1.603,3.578-3.578,3.578l0,0
		c-1.977,0-3.576-1.602-3.578-3.578l0,0V26.235h-1.843v16.726c0,1.977-1.597,3.578-3.573,3.578l0,0
		c-1.977,0-3.578-1.602-3.578-3.578l0,0l-0.002-16.726h-1.065v16.726c0,1.977-1.603,3.578-3.578,3.578l0,0
		c-1.977,0-3.578-1.602-3.578-3.578l0,0V26.235h-1.84v16.726c0,1.977-1.603,3.578-3.578,3.578l0,0c-1.977,0-3.576-1.602-3.578-3.578
		l0,0V26.235h-1.068v16.726c0,1.977-1.602,3.578-3.575,3.578l0,0c-1.977,0-3.578-1.602-3.58-3.578l0,0V26.235h-1.838v16.726
		c0,1.977-1.603,3.578-3.578,3.578l0,0c-1.977,0-3.578-1.602-3.578-3.578l0,0l-0.002-16.726h-1.066v16.726
		c0,1.977-1.602,3.578-3.578,3.578l0,0c-1.976,0-3.577-1.602-3.577-3.578l0,0V26.235h-1.841v16.726c0,1.977-1.6,3.578-3.578,3.578
		l0,0c-1.976,0-3.575-1.602-3.575-3.578l0,0l-0.002-16.726h-1.066v16.726c0,1.977-1.602,3.578-3.575,3.578l0,0
		c-1.979,0-3.581-1.602-3.581-3.578l0,0V26.235h-1.84v16.726c0,1.977-1.602,3.578-3.575,3.578l0,0c-1.979,0-3.578-1.602-3.58-3.578
		l0,0V26.235h-1.068v16.726c0,1.977-1.602,3.578-3.576,3.578l0,0c-1.978,0-3.578-1.602-3.578-3.578l0,0V26.235h-1.84v16.726
		c0,1.977-1.602,3.578-3.578,3.578l0,0c-1.976,0-3.575-1.602-3.578-3.578l0,0V26.235h-1.068v16.726c0,1.977-1.602,3.578-3.578,3.578
		l0,0c-1.977,0-3.576-1.602-3.576-3.578l0,0V26.235h-1.842v16.726c0,1.977-1.6,3.578-3.576,3.578l0,0
		c-1.976,0-3.578-1.602-3.578-3.578l0,0V26.235h-1.068v16.726c0,1.977-1.602,3.578-3.578,3.578l0,0
		c-1.977,0-3.576-1.602-3.578-3.578l0,0V26.235h-1.84v16.726c0,1.977-1.6,3.578-3.576,3.578l0,0c-1.976,0-3.578-1.602-3.578-3.578
		l0,0V26.235h-1.07v16.726c0,1.977-1.6,3.578-3.576,3.578l0,0c-1.976,0-3.578-1.602-3.578-3.578l0,0V26.235h-1.84v16.726
		c0,1.977-1.602,3.578-3.578,3.578l0,0c-1.977,0-3.576-1.602-3.578-3.578l0,0V26.235h-1.068v16.726c0,1.977-1.602,3.578-3.578,3.578
		l0,0c-1.976,0-3.576-1.602-3.576-3.578l0,0V26.235h-1.84v16.726c-0.002,1.977-1.602,3.578-3.578,3.578l0,0
		c-1.976,0-3.576-1.602-3.578-3.578l0,0V26.235h-1.068v16.726c-0.002,1.977-1.602,3.578-3.578,3.578l0,0
		c-1.976,0-3.576-1.602-3.578-3.578l0,0V26.235h-1.84v16.726c0,1.977-1.6,3.578-3.576,3.578l0,0c-1.976,0-3.578-1.602-3.578-3.578
		l0,0V26.235h-1.07v16.726c0,1.977-1.6,3.578-3.576,3.578l0,0c-1.976,0-3.578-1.602-3.578-3.578l0,0V26.235h-1.84v16.726
		c0,1.977-1.602,3.578-3.578,3.578l0,0c-1.976,0-3.576-1.602-3.578-3.578l0,0V26.235h-1.068v16.726c0,1.977-1.602,3.578-3.576,3.578
		l0,0c-1.976,0-3.578-1.602-3.578-3.578l0,0l-0.002-16.726h-1.838v16.726c0,1.977-1.602,3.578-3.578,3.578l0,0
		c-1.976,0-3.576-1.602-3.578-3.578l0,0V26.235h-1.068v16.726c0,1.977-1.602,3.578-3.578,3.578l0,0
		c-1.976,0-3.576-1.602-3.578-3.578l0,0V26.235h-1.84v16.726c0,1.977-1.6,3.578-3.576,3.578l0,0c-1.977,0-3.578-1.602-3.578-3.578
		l0,0V26.235h-1.579V59.058L157.447,59.058z M441.447,26.194v-1V26.194L441.447,26.194z"/>
	<polygon fill="#F4F4F4" points="436.345,38.715 436.345,36.715 441.314,36.715 441.314,38.715 436.345,38.715 	"/>
	<polygon fill="#F4F4F4" points="436.397,28.773 436.397,26.774 441.369,26.774 441.369,28.773 436.397,28.773 	"/>
	<path fill="#F4F4F4" d="M17.418,60.532V24.13h17.467v35.4v1.001H17.418L17.418,60.532z M33.884,59.531v-1V59.531L33.884,59.531z
		 M19.419,58.531h13.466l-0.002-32.402H19.419V58.531L19.419,58.531z"/>
	<path fill="#F4F4F4" d="M6.415,305.785V74.188h586.646v230.597v1H6.415L6.415,305.785z M592.061,304.785v-1.001V304.785
		L592.061,304.785z M8.415,303.784h582.646L591.06,76.188H8.415V303.784L8.415,303.784z"/>
	<polygon fill="#F4F4F4" points="6.402,74.653 17.606,58.95 19.233,60.112 8.03,75.814 6.402,74.653 	"/>
	<polygon fill="#F4F4F4" points="581.886,60.582 583.587,59.532 592.913,74.665 591.209,75.712 581.886,60.582 	"/>
	<polygon fill="#F4F4F4" points="584.313,30.443 582.526,30.443 582.526,28.442 586.209,28.442 588.258,67.37 586.262,67.475 
		584.313,30.443 	"/>
	<polygon fill="#F4F4F4" points="11.85,66.487 15.511,27.707 18.209,27.707 18.209,29.707 17.331,29.707 13.84,66.674 11.85,66.487 
			"/>
	<polygon fill="#F4F4F4" points="3.5,300.396 6.375,209.416 8.372,209.479 5.565,298.397 7.268,298.397 7.268,300.396 3.5,300.396 	
		"/>
	<polygon fill="#F4F4F4" points="592.225,300.396 592.225,298.398 593.927,298.396 591.121,209.479 593.12,209.415 595.993,300.396 
		592.225,300.396 	"/>
	<polygon fill="#F4F4F4" points="37.567,29.392 33.885,29.392 33.885,27.391 37.567,27.393 156.134,27.393 156.134,29.392 
		37.567,29.392 	"/>
	<polygon fill="#F4F4F4" points="36.567,34.335 36.567,28.393 38.567,28.393 38.565,32.334 152.398,32.334 152.398,28.708 
		154.398,28.708 154.398,34.335 36.567,34.335 	"/>
	<polygon fill="#F4F4F4" points="132.83,59.06 132.83,58.059 132.828,57.586 124.625,57.586 124.625,58.849 64.341,58.849 
		64.341,57.848 64.341,57.586 56.03,57.586 56.03,58.849 33.884,58.849 33.884,56.849 54.031,56.849 54.031,55.586 66.341,55.586 
		66.341,56.585 66.339,56.847 122.624,56.847 122.624,55.586 134.829,55.586 134.829,56.585 134.829,57.058 156.554,57.06 
		156.554,59.06 132.83,59.06 	"/>
	<path fill="#F4F4F4" d="M45.405,283.828c-10.838,0-19.621-8.784-19.623-19.621l0,0l0.002-154.02
		c0-10.837,8.783-19.621,19.621-19.621l0,0h507.507c10.835,0,19.619,8.784,19.621,19.621l0,0v154.02h-0.002
		c0,10.837-8.784,19.621-19.619,19.621l0,0H45.405L45.405,283.828z M27.783,110.187v154.02c0.017,9.732,7.89,17.603,17.622,17.622
		l0,0l507.507-0.002c9.729-0.018,17.604-7.888,17.62-17.62l0,0v-154.02c-0.017-9.732-7.891-17.603-17.62-17.622l0,0H45.405
		C35.673,92.584,27.8,100.455,27.783,110.187L27.783,110.187z"/>
	<path fill="#F4F4F4" d="M53.61,266.468c-6.129,0-11.099-4.967-11.099-11.097l0,0V119.024c0-6.129,4.97-11.099,11.099-11.099l0,0
		h491.095c6.131,0,11.099,4.97,11.101,11.099l0,0v136.347c-0.002,6.13-4.972,11.097-11.101,11.097l0,0H53.61L53.61,266.468z
		 M44.511,119.024v136.347c0.01,5.022,4.075,9.087,9.1,9.098l0,0l491.095-0.002c5.024-0.009,9.091-4.073,9.1-9.096l0,0V119.024
		c-0.009-5.025-4.075-9.091-9.1-9.1l0,0H53.61C48.585,109.933,44.521,113.999,44.511,119.024L44.511,119.024z"/>
	<path fill="#F4F4F4" d="M426.93,229.726c0-3.907,3.167-7.075,7.075-7.075l0,0c3.907,0,7.073,3.168,7.073,7.075l0,0
		c0,3.908-3.166,7.075-7.073,7.075l0,0C430.097,236.801,426.93,233.634,426.93,229.726L426.93,229.726z M428.927,229.726
		c0.007,2.802,2.273,5.069,5.078,5.075l0,0c2.803-0.006,5.067-2.273,5.074-5.075l0,0c-0.007-2.803-2.271-5.07-5.074-5.076l0,0
		C431.2,224.655,428.934,226.923,428.927,229.726L428.927,229.726z"/>
	<g>
		<path fill="#F4F4F4" d="M72.548,147.797c-3.168,0-5.735-2.565-5.735-5.733l0,0v-16.728c0-3.167,2.567-5.733,5.735-5.735l0,0
			h17.043c3.167,0.002,5.733,2.567,5.735,5.735l0,0v16.728h-0.002c0,3.167-2.565,5.733-5.733,5.735l0,0L72.548,147.797
			L72.548,147.797z M68.813,125.337v16.728c0.004,2.061,1.672,3.731,3.735,3.733l0,0h17.043c2.061-0.002,3.731-1.672,3.735-3.733
			l0,0h-0.002l0.002-16.728c-0.004-2.063-1.674-3.731-3.735-3.733l0,0l-17.043-0.002C70.485,121.606,68.817,123.273,68.813,125.337
			L68.813,125.337z"/>
		<path fill="#F4F4F4" d="M76.177,142.59c-3.166,0-5.733-2.566-5.733-5.733l0,0v-9.311c0-3.168,2.565-5.733,5.733-5.736l0,0h9.311
			c3.167,0.002,5.733,2.568,5.735,5.736l0,0v9.311h-0.002c0,3.167-2.566,5.733-5.733,5.733l0,0H76.177L76.177,142.59z
			 M72.444,127.546l-0.002,9.311c0.004,2.062,1.673,3.73,3.735,3.732l0,0l9.311,0.002c2.062-0.004,3.73-1.673,3.735-3.735l0,0
			v-9.311c-0.004-2.062-1.673-3.731-3.735-3.735l0,0h-9.311C74.115,123.815,72.446,125.484,72.444,127.546L72.444,127.546z"/>
	</g>
	<g>
		<path fill="#F4F4F4" d="M99.44,147.797c-3.167,0-5.733-2.565-5.735-5.733l0,0l0.002-16.728c0-3.167,2.565-5.733,5.733-5.735l0,0
			h17.043c3.168,0.002,5.735,2.567,5.735,5.735l0,0v16.728c0,3.167-2.567,5.733-5.735,5.735l0,0L99.44,147.797L99.44,147.797z
			 M95.708,125.337v16.728c0.002,2.061,1.672,3.731,3.733,3.733l0,0h17.043c2.062-0.002,3.731-1.672,3.735-3.733l0,0v-16.728
			c-0.004-2.061-1.674-3.731-3.735-3.733l0,0l-17.043-0.002C97.379,121.606,95.709,123.273,95.708,125.337L95.708,125.337z"/>
		<path fill="#F4F4F4" d="M103.07,142.59c-3.168,0-5.733-2.566-5.736-5.733l0,0v-9.311c0.002-3.168,2.568-5.733,5.736-5.736l0,0
			h9.311c3.167,0.002,5.733,2.568,5.733,5.736l0,0v9.311c0,3.167-2.566,5.733-5.733,5.733l0,0H103.07L103.07,142.59z
			 M99.335,127.546v9.311c0.004,2.062,1.673,3.73,3.735,3.732l0,0l9.311,0.002c2.062-0.004,3.73-1.673,3.735-3.735l0,0h-0.002
			l0.002-9.311c-0.004-2.062-1.673-3.731-3.735-3.735l0,0h-9.311C101.008,123.815,99.339,125.484,99.335,127.546L99.335,127.546z"/>
	</g>
	<g>
		<path fill="#F4F4F4" d="M126.333,147.797c-3.168,0-5.733-2.565-5.733-5.733l0,0v-16.728c0-3.167,2.565-5.733,5.733-5.735l0,0
			h17.043c3.167,0.002,5.733,2.567,5.735,5.735l0,0v16.728c-0.002,3.167-2.567,5.733-5.735,5.735l0,0L126.333,147.797
			L126.333,147.797z M122.6,125.337v16.728c0.004,2.061,1.672,3.731,3.733,3.733l0,0h17.043c2.063-0.002,3.731-1.672,3.735-3.733
			l0,0v-16.728c-0.004-2.063-1.672-3.731-3.735-3.733l0,0l-17.043-0.002C124.271,121.606,122.604,123.273,122.6,125.337
			L122.6,125.337z"/>
		<path fill="#F4F4F4" d="M129.964,142.59c-3.168,0-5.736-2.566-5.736-5.733l0,0v-9.311c0-3.168,2.568-5.733,5.736-5.736l0,0h9.311
			c3.166,0.002,5.731,2.568,5.733,5.736l0,0v9.311c-0.002,3.167-2.568,5.733-5.733,5.733l0,0H129.964L129.964,142.59z
			 M126.229,127.546v9.311c0.004,2.062,1.671,3.73,3.735,3.732l0,0h9.311c2.062-0.002,3.729-1.67,3.733-3.732l0,0v-9.311
			c-0.004-2.062-1.673-3.731-3.733-3.735l0,0h-9.311C127.9,123.815,126.233,125.484,126.229,127.546L126.229,127.546z"/>
	</g>
	<g>
		<path fill="#F4F4F4" d="M153.227,147.797c-3.167,0-5.735-2.565-5.735-5.733l0,0v-16.728c0-3.167,2.567-5.733,5.735-5.735l0,0
			h17.043c3.166,0.002,5.733,2.567,5.733,5.735l0,0v16.728c0,3.167-2.567,5.733-5.733,5.735l0,0L153.227,147.797L153.227,147.797z
			 M149.492,125.337v16.728c0.004,2.061,1.672,3.731,3.735,3.733l0,0h17.043c2.062-0.002,3.729-1.672,3.733-3.733l0,0v-16.728
			c-0.004-2.063-1.672-3.731-3.733-3.733l0,0l-17.043-0.002C151.164,121.606,149.496,123.273,149.492,125.337L149.492,125.337z"/>
		<path fill="#F4F4F4" d="M156.855,142.59c-3.167,0-5.733-2.566-5.733-5.733l0,0v-9.311c0-3.168,2.565-5.733,5.733-5.736l0,0h9.311
			c3.167,0.002,5.733,2.568,5.735,5.736l0,0v9.311c-0.002,3.167-2.568,5.733-5.735,5.733l0,0H156.855L156.855,142.59z
			 M153.123,127.546l-0.002,9.311c0.004,2.062,1.673,3.73,3.735,3.732l0,0l9.311,0.002c2.064-0.004,3.73-1.673,3.735-3.735l0,0
			v-9.311c-0.004-2.062-1.671-3.731-3.735-3.735l0,0h-9.311C154.793,123.815,153.125,125.484,153.123,127.546L153.123,127.546z"/>
	</g>
	<g>
		<path fill="#F4F4F4" d="M180.12,147.797c-3.168,0-5.733-2.565-5.735-5.733l0,0v-16.728c0.002-3.167,2.567-5.733,5.735-5.735l0,0
			h17.043c3.166,0.002,5.733,2.567,5.735,5.735l0,0v16.728c-0.002,3.167-2.569,5.733-5.735,5.735l0,0L180.12,147.797L180.12,147.797
			z M176.384,125.337v16.728c0.004,2.061,1.672,3.731,3.735,3.733l0,0h17.043c2.061-0.002,3.731-1.672,3.735-3.733l0,0v-16.728
			c-0.004-2.061-1.674-3.731-3.735-3.733l0,0l-17.043-0.002C178.056,121.606,176.388,123.273,176.384,125.337L176.384,125.337z"/>
		<path fill="#F4F4F4" d="M183.749,142.59c-3.168,0-5.733-2.566-5.733-5.733l0,0v-9.311c0-3.168,2.565-5.733,5.733-5.736l0,0h9.311
			c3.167,0.002,5.733,2.568,5.733,5.736l0,0v9.311c0,3.167-2.565,5.733-5.733,5.733l0,0H183.749L183.749,142.59z M180.016,127.546
			l-0.002,9.311c0.004,2.062,1.673,3.73,3.735,3.732l0,0l9.311,0.002c2.062-0.004,3.73-1.673,3.735-3.735l0,0v-9.311
			c-0.004-2.062-1.673-3.731-3.735-3.735l0,0h-9.311C181.687,123.815,180.018,125.484,180.016,127.546L180.016,127.546z"/>
	</g>
	<g>
		<path fill="#F4F4F4" d="M207.012,147.797c-3.167,0-5.733-2.565-5.735-5.733l0,0v-16.728c0.002-3.167,2.567-5.733,5.735-5.735l0,0
			h17.043c3.168,0.002,5.735,2.567,5.735,5.735l0,0v16.728c0,3.167-2.567,5.733-5.735,5.735l0,0L207.012,147.797L207.012,147.797z
			 M203.278,125.337l-0.002,16.728c0.004,2.061,1.672,3.731,3.735,3.733l0,0h17.043c2.063-0.002,3.731-1.672,3.735-3.733l0,0
			v-16.728c-0.004-2.063-1.672-3.731-3.735-3.733l0,0l-17.043-0.002C204.948,121.606,203.281,123.273,203.278,125.337
			L203.278,125.337z"/>
		<path fill="#F4F4F4" d="M210.643,142.59c-3.168,0-5.736-2.566-5.736-5.733l0,0v-9.311c0-3.168,2.568-5.733,5.736-5.736l0,0h9.311
			c3.166,0.002,5.733,2.568,5.733,5.736l0,0v9.311c0,3.167-2.568,5.733-5.733,5.733l0,0H210.643L210.643,142.59z M206.908,127.546
			v9.311c0.004,2.062,1.67,3.73,3.735,3.732l0,0l9.311,0.002c2.062-0.004,3.73-1.673,3.732-3.735l0,0v-9.311
			c-0.002-2.062-1.67-3.731-3.732-3.735l0,0h-9.311C208.578,123.815,206.912,125.484,206.908,127.546L206.908,127.546z"/>
	</g>
	<g>
		<path fill="#F4F4F4" d="M233.906,147.797c-3.168,0-5.735-2.565-5.735-5.733l0,0v-16.728c0-3.167,2.567-5.733,5.735-5.735l0,0
			h17.041c3.167,0.002,5.735,2.567,5.735,5.735l0,0v16.728c0,3.167-2.567,5.733-5.735,5.735l0,0L233.906,147.797L233.906,147.797z
			 M230.171,125.337v16.728c0.004,2.061,1.672,3.731,3.735,3.733l0,0h17.041c2.063-0.002,3.731-1.672,3.735-3.733l0,0v-16.728
			c-0.004-2.063-1.672-3.731-3.735-3.733l0,0l-17.041-0.002C231.843,121.606,230.175,123.273,230.171,125.337L230.171,125.337z"/>
		<path fill="#F4F4F4" d="M237.536,142.59c-3.168,0-5.736-2.566-5.736-5.733l0,0v-9.311c0-3.168,2.568-5.733,5.736-5.736l0,0h9.308
			c3.168,0.002,5.736,2.568,5.736,5.736l0,0v9.311c0,3.167-2.568,5.733-5.736,5.733l0,0H237.536L237.536,142.59z M233.801,127.546
			v9.311c0.002,2.062,1.67,3.73,3.735,3.732l0,0l9.308,0.002c2.062-0.004,3.731-1.673,3.735-3.735l0,0v-9.311
			c-0.004-2.062-1.673-3.731-3.735-3.735l0,0h-9.308C235.472,123.815,233.803,125.484,233.801,127.546L233.801,127.546z"/>
	</g>
	<g>
		<path fill="#F4F4F4" d="M260.796,147.799c-3.166-0.002-5.731-2.569-5.733-5.735l0,0v-16.727c0.002-3.168,2.567-5.733,5.733-5.735
			l0,0h17.045c3.166,0.002,5.733,2.567,5.735,5.735l0,0v16.727h-0.002c0,3.168-2.567,5.733-5.733,5.735l0,0H260.796L260.796,147.799
			z M257.064,125.337v16.727c0.004,2.063,1.672,3.73,3.732,3.734l0,0h17.045c2.06-0.004,3.73-1.672,3.734-3.734l0,0v-16.727
			c-0.004-2.062-1.674-3.73-3.734-3.734l0,0h-17.045C258.736,121.606,257.068,123.275,257.064,125.337L257.064,125.337z"/>
		<path fill="#F4F4F4" d="M264.429,142.591c-3.168,0-5.734-2.566-5.736-5.734l0,0v-9.311c0.002-3.167,2.568-5.732,5.736-5.734l0,0
			h9.309c3.168,0.002,5.734,2.568,5.734,5.734l0,0v9.311c0,3.168-2.565,5.734-5.734,5.734l0,0H264.429L264.429,142.591z
			 M260.694,127.545l-0.002,9.311c0.004,2.063,1.674,3.73,3.737,3.734l0,0h9.309c2.063-0.004,3.73-1.671,3.734-3.734l0,0v-9.311
			c-0.004-2.061-1.671-3.73-3.734-3.735l0,0h-9.309C262.366,123.815,260.696,125.484,260.694,127.545L260.694,127.545z"/>
	</g>
	<g>
		<path fill="#F4F4F4" d="M287.69,147.798c-3.167,0-5.733-2.565-5.735-5.733l0,0l0.002-16.727c0-3.168,2.567-5.735,5.733-5.735l0,0
			h17.043c3.166,0,5.733,2.567,5.735,5.735l0,0v16.727h-0.002c0,3.168-2.567,5.733-5.733,5.733l0,0H287.69L287.69,147.798z
			 M283.956,125.338v16.727c0.004,2.061,1.671,3.73,3.734,3.734l0,0h17.043c2.063-0.004,3.73-1.674,3.734-3.734l0,0v-16.727
			c-0.004-2.063-1.671-3.732-3.734-3.734l0,0l-17.043-0.002C285.627,121.605,283.96,123.275,283.956,125.338L283.956,125.338z"/>
		<path fill="#F4F4F4" d="M291.32,142.59c-3.167,0-5.732-2.566-5.735-5.732l0,0v-9.311c0.002-3.169,2.568-5.735,5.735-5.735l0,0
			h9.311c3.167,0,5.732,2.566,5.734,5.735l0,0v9.311h-0.002c0,3.167-2.565,5.732-5.732,5.734l0,0L291.32,142.59L291.32,142.59z
			 M287.585,127.547v9.311c0.004,2.062,1.673,3.73,3.735,3.732l0,0l9.311,0.002c2.062-0.004,3.73-1.673,3.734-3.734l0,0h-0.002
			l0.002-9.311c-0.004-2.064-1.673-3.73-3.734-3.735l0,0h-9.311C289.258,123.816,287.59,125.483,287.585,127.547L287.585,127.547z"
			/>
	</g>
	<g>
		<path fill="#F4F4F4" d="M314.583,147.798c-3.166,0-5.733-2.567-5.735-5.733l0,0l0.002-16.728c0-3.168,2.567-5.733,5.733-5.735l0,0
			l17.044,0.002c3.168,0,5.733,2.565,5.733,5.733l0,0v16.728c0,3.166-2.565,5.733-5.733,5.733l0,0H314.583L314.583,147.798z
			 M310.849,125.337v16.728c0.004,2.061,1.673,3.73,3.734,3.734l0,0h17.044c2.061-0.004,3.729-1.673,3.733-3.734l0,0v-16.728
			c-0.004-2.063-1.673-3.73-3.733-3.734l0,0h-17.044C312.521,121.607,310.853,123.276,310.849,125.337L310.849,125.337z"/>
		<path fill="#F4F4F4" d="M318.214,142.59c-3.169,0-5.734-2.566-5.737-5.732l0,0l0.003-9.313c0-3.167,2.565-5.733,5.734-5.735l0,0
			l9.311,0.002c3.166,0,5.732,2.566,5.734,5.733l0,0v9.313h-0.002c0,3.167-2.566,5.732-5.732,5.732l0,0H318.214L318.214,142.59z
			 M314.478,127.545v9.313c0.004,2.06,1.672,3.73,3.736,3.732l0,0h9.311c2.063-0.002,3.73-1.67,3.734-3.732l0,0h-0.002l0.002-9.313
			c-0.004-2.063-1.672-3.73-3.734-3.734l0,0h-9.311C316.149,123.815,314.481,125.485,314.478,127.545L314.478,127.545z"/>
	</g>
	<g>
		<path fill="#F4F4F4" d="M341.279,147.798c-3.168,0-5.733-2.567-5.735-5.733l0,0l0.002-16.729c0-3.166,2.565-5.733,5.733-5.733l0,0
			h17.043c3.167,0,5.734,2.565,5.734,5.733l0,0v16.729c0,3.166-2.567,5.733-5.734,5.733l0,0H341.279L341.279,147.798z
			 M337.546,125.336l-0.002,16.729c0.004,2.062,1.672,3.729,3.735,3.734l0,0h17.043c2.063-0.004,3.73-1.672,3.734-3.734l0,0v-16.729
			c-0.004-2.062-1.672-3.729-3.734-3.734l0,0h-17.043C339.216,121.607,337.548,123.275,337.546,125.336L337.546,125.336z"/>
		<path fill="#F4F4F4" d="M344.909,142.59c-3.169,0-5.734-2.566-5.736-5.733l0,0l0.002-9.312c0-3.167,2.565-5.732,5.734-5.734l0,0
			h9.312c3.167,0.002,5.73,2.568,5.732,5.734l0,0v9.312h-0.002c0,3.167-2.563,5.733-5.73,5.735l0,0L344.909,142.59L344.909,142.59z
			 M341.175,127.545l-0.002,9.312c0.004,2.063,1.672,3.73,3.736,3.734l0,0h9.312c2.061-0.004,3.728-1.671,3.732-3.734l0,0h-0.002
			l0.002-9.312c-0.005-2.063-1.672-3.73-3.732-3.734l0,0h-9.312C342.845,123.815,341.177,125.483,341.175,127.545L341.175,127.545z"
			/>
	</g>
	<g>
		<path fill="#F4F4F4" d="M368.172,147.799c-3.166-0.002-5.733-2.567-5.735-5.733l0,0l0.002-16.729c0-3.168,2.567-5.733,5.733-5.735
			l0,0l17.043,0.002c3.168,0,5.733,2.565,5.735,5.733l0,0v16.729h-0.002c0,3.166-2.565,5.731-5.733,5.733l0,0H368.172
			L368.172,147.799z M364.438,125.337l-0.002,16.729c0.004,2.06,1.674,3.729,3.735,3.731l0,0l17.043,0.002
			c2.063-0.004,3.731-1.674,3.735-3.734l0,0h-0.002l0.002-16.729c-0.004-2.062-1.673-3.731-3.735-3.733l0,0l-17.043-0.002
			C366.11,121.605,364.44,123.275,364.438,125.337L364.438,125.337z"/>
		<path fill="#F4F4F4" d="M371.802,142.591c-3.167-0.002-5.735-2.566-5.735-5.735l0,0v-9.311c0-3.167,2.568-5.733,5.735-5.735l0,0
			h9.311c3.167,0.002,5.732,2.568,5.734,5.735l0,0v9.311h-0.002c0,3.169-2.565,5.733-5.732,5.735l0,0H371.802L371.802,142.591z
			 M368.067,127.546l-0.002,9.311c0.004,2.061,1.673,3.729,3.736,3.734l0,0h9.311c2.062-0.004,3.729-1.67,3.733-3.734l0,0v-9.311
			c-0.004-2.062-1.672-3.73-3.733-3.734l0,0h-9.311C369.738,123.816,368.069,125.484,368.067,127.546L368.067,127.546z"/>
	</g>
	<g>
		<path fill="#F4F4F4" d="M395.064,147.797c-3.166,0-5.733-2.565-5.735-5.733l0,0l0.002-16.727c0-3.168,2.567-5.733,5.733-5.735l0,0
			h17.044c3.166,0.002,5.733,2.567,5.733,5.735l0,0v16.727c0,3.168-2.567,5.733-5.733,5.735l0,0L395.064,147.797L395.064,147.797z
			 M391.331,125.337l-0.002,16.727c0.004,2.063,1.673,3.731,3.735,3.733l0,0l17.044,0.002c2.061-0.004,3.73-1.673,3.732-3.735l0,0
			v-16.727c-0.002-2.063-1.672-3.731-3.732-3.735l0,0h-17.044C393.002,121.606,391.333,123.275,391.331,125.337L391.331,125.337z"/>
		<path fill="#F4F4F4" d="M398.694,142.591c-3.167,0-5.735-2.566-5.735-5.735l0,0v-9.31c0-3.168,2.568-5.734,5.735-5.734l0,0h9.312
			c3.166,0,5.732,2.566,5.734,5.734l0,0v9.31h-0.002c0,3.169-2.566,5.735-5.732,5.735l0,0H398.694L398.694,142.591z
			 M394.961,127.546l-0.002,9.31c0.004,2.062,1.674,3.731,3.735,3.734l0,0l9.312,0.002c2.062-0.004,3.729-1.674,3.733-3.736l0,0
			v-9.31c-0.004-2.062-1.672-3.731-3.733-3.735l0,0h-9.312C396.633,123.815,394.963,125.485,394.961,127.546L394.961,127.546z"/>
	</g>
	<g>
		<path fill="#F4F4F4" d="M468.354,163.105c-3.169,0-5.735-2.567-5.735-5.733l0,0v-16.729c0-3.167,2.566-5.733,5.735-5.733l0,0
			h17.042c3.167,0,5.733,2.567,5.735,5.733l0,0v16.729h-0.002c0,3.167-2.566,5.733-5.733,5.733l0,0H468.354L468.354,163.105z
			 M464.62,140.644l-0.003,16.729c0.005,2.062,1.673,3.73,3.737,3.732l0,0h17.042c2.063-0.002,3.73-1.67,3.734-3.732l0,0v-16.729
			c-0.004-2.062-1.672-3.73-3.734-3.732l0,0l-17.042-0.002C466.29,136.913,464.622,138.582,464.62,140.644L464.62,140.644z"/>
		<path fill="#F4F4F4" d="M471.981,157.899c-3.167-0.002-5.732-2.567-5.734-5.735l0,0l0.002-9.312c0-3.167,2.565-5.733,5.732-5.733
			l0,0h9.313c3.165,0,5.732,2.565,5.734,5.733l0,0v9.312h-0.002c0,3.167-2.565,5.733-5.732,5.735l0,0H471.981L471.981,157.899z
			 M468.249,142.853l-0.002,9.312c0.004,2.061,1.674,3.731,3.734,3.735l0,0h9.313c2.061-0.004,3.73-1.674,3.734-3.735l0,0h-0.002
			l0.002-9.312c-0.004-2.061-1.674-3.729-3.734-3.733l0,0h-9.313C469.919,139.124,468.251,140.792,468.249,142.853L468.249,142.853z
			"/>
	</g>
	<g>
		<path fill="#F4F4F4" d="M495.246,163.105c-3.167,0-5.733-2.566-5.735-5.733l0,0l0.002-16.728c0-3.168,2.566-5.735,5.733-5.735l0,0
			h17.044c3.166,0,5.732,2.567,5.734,5.735l0,0v16.728h-0.002c0,3.167-2.566,5.733-5.732,5.733l0,0H495.246L495.246,163.105z
			 M491.512,140.645v16.728c0.004,2.06,1.672,3.73,3.734,3.734l0,0h17.044c2.062-0.004,3.729-1.671,3.733-3.734l0,0v-16.728
			c-0.004-2.062-1.672-3.731-3.733-3.734l0,0l-17.044-0.002C493.184,136.913,491.516,138.583,491.512,140.645L491.512,140.645z"/>
		<path fill="#F4F4F4" d="M498.876,157.898c-3.169,0-5.732-2.567-5.734-5.734l0,0l0.002-9.311c0-3.167,2.563-5.734,5.732-5.734l0,0
			h9.311c3.168,0,5.733,2.567,5.736,5.734l0,0v9.311h-0.003c0,3.167-2.565,5.734-5.733,5.734l0,0H498.876L498.876,157.898z
			 M495.144,142.854l-0.002,9.311c0.004,2.063,1.673,3.73,3.734,3.734l0,0h9.311c2.063-0.004,3.731-1.673,3.736-3.734l0,0h-0.003
			l0.003-9.311c-0.005-2.063-1.674-3.73-3.736-3.734l0,0h-9.311C496.814,139.124,495.146,140.791,495.144,142.854L495.144,142.854z"
			/>
	</g>
	<g>
		<path fill="#F4F4F4" d="M522.14,163.106c-3.168-0.002-5.734-2.569-5.736-5.734l0,0l0.002-16.728c0-3.168,2.566-5.734,5.734-5.734
			l0,0h17.042c3.167,0,5.733,2.566,5.733,5.734l0,0v16.728c0,3.166-2.566,5.732-5.733,5.734l0,0H522.14L522.14,163.106z
			 M518.404,140.644v16.728c0.005,2.063,1.671,3.729,3.735,3.733l0,0h17.042c2.063-0.004,3.73-1.671,3.735-3.733l0,0v-16.728
			c-0.005-2.063-1.673-3.731-3.735-3.733l0,0l-17.042-0.002C520.075,136.913,518.409,138.582,518.404,140.644L518.404,140.644z"/>
		<path fill="#F4F4F4" d="M525.767,157.897c-3.166,0-5.73-2.565-5.733-5.733l0,0l0.003-9.311c0-3.168,2.564-5.733,5.73-5.735l0,0
			l9.313,0.002c3.167,0,5.734,2.565,5.734,5.733l0,0v9.311c0,3.168-2.567,5.733-5.734,5.735l0,0L525.767,157.897L525.767,157.897z
			 M522.033,142.854v9.311c0.005,2.062,1.675,3.731,3.733,3.733l0,0l9.313,0.002c2.062-0.004,3.731-1.674,3.733-3.735l0,0v-9.311
			c-0.002-2.062-1.672-3.731-3.733-3.733l0,0l-9.313-0.002C523.708,139.122,522.038,140.792,522.033,142.854L522.033,142.854z"/>
	</g>
	<g>
		<path fill="#F4F4F4" d="M468.354,189.143c-3.169,0-5.735-2.567-5.735-5.733l0,0v-16.727c0-3.167,2.566-5.733,5.735-5.736l0,0
			l17.042,0.002c3.167,0,5.733,2.564,5.735,5.733l0,0v16.727h-0.002c0,3.168-2.566,5.733-5.733,5.735l0,0L468.354,189.143
			L468.354,189.143z M464.62,166.683l-0.003,16.727c0.005,2.062,1.675,3.73,3.737,3.734l0,0h17.042
			c2.063-0.004,3.73-1.673,3.734-3.734l0,0v-16.727c-0.004-2.062-1.672-3.73-3.734-3.735l0,0h-17.042
			C466.29,162.952,464.622,164.621,464.62,166.683L464.62,166.683z"/>
		<path fill="#F4F4F4" d="M471.981,183.936c-3.167,0-5.732-2.567-5.734-5.734l0,0l0.002-9.31c0-3.167,2.565-5.732,5.732-5.735l0,0
			h9.313c3.165,0.002,5.732,2.568,5.734,5.735l0,0v9.31h-0.002c0,3.169-2.567,5.734-5.732,5.734l0,0H471.981L471.981,183.936z
			 M468.249,168.891l-0.002,9.31c0.004,2.063,1.672,3.73,3.734,3.734l0,0h9.313c2.061-0.004,3.73-1.672,3.734-3.734l0,0h-0.002
			l0.002-9.31c-0.004-2.061-1.674-3.73-3.734-3.732l0,0l-9.313-0.002C469.919,165.161,468.251,166.831,468.249,168.891
			L468.249,168.891z"/>
	</g>
	<g>
		<path fill="#F4F4F4" d="M495.246,189.143c-3.167,0-5.733-2.566-5.735-5.732l0,0l0.002-16.728c0-3.168,2.566-5.735,5.733-5.735l0,0
			h17.044c3.166,0,5.732,2.567,5.734,5.735l0,0v16.728h-0.002c0,3.166-2.564,5.732-5.732,5.734l0,0L495.246,189.143L495.246,189.143
			z M491.512,166.683v16.728c0.004,2.06,1.674,3.729,3.734,3.733l0,0h17.044c2.062-0.004,3.729-1.674,3.733-3.733l0,0v-16.728
			c-0.004-2.062-1.672-3.731-3.733-3.734l0,0l-17.044-0.002C493.184,162.951,491.516,164.621,491.512,166.683L491.512,166.683z"/>
		<path fill="#F4F4F4" d="M498.876,183.936c-3.169,0-5.732-2.567-5.734-5.734l0,0l0.002-9.31c0-3.167,2.563-5.734,5.732-5.734l0,0
			h9.311c3.168,0,5.733,2.567,5.736,5.734l0,0v9.31h-0.003c0,3.167-2.565,5.734-5.733,5.734l0,0H498.876L498.876,183.936z
			 M495.144,168.892l-0.002,9.31c0.004,2.063,1.673,3.73,3.734,3.734l0,0h9.311c2.063-0.004,3.731-1.671,3.736-3.734l0,0h-0.003
			l0.003-9.31c-0.005-2.063-1.674-3.73-3.736-3.734l0,0h-9.311C496.814,165.162,495.146,166.829,495.144,168.892L495.144,168.892z"
			/>
	</g>
	<g>
		<path fill="#F4F4F4" d="M522.14,189.143c-3.17,0-5.734-2.566-5.736-5.732l0,0l0.002-16.728c0-3.167,2.566-5.734,5.734-5.734l0,0
			h17.042c3.167,0,5.733,2.566,5.733,5.734l0,0v16.728c0,3.166-2.566,5.732-5.733,5.734l0,0L522.14,189.143L522.14,189.143z
			 M518.404,166.683v16.728c0.005,2.061,1.673,3.729,3.735,3.733l0,0h17.042c2.063-0.004,3.73-1.673,3.735-3.733l0,0v-16.728
			c-0.005-2.063-1.673-3.731-3.735-3.735l0,0H522.14C520.075,162.952,518.409,164.62,518.404,166.683L518.404,166.683z"/>
		<path fill="#F4F4F4" d="M525.767,183.936c-3.166,0-5.73-2.566-5.733-5.733l0,0l0.003-9.31c0-3.168,2.564-5.734,5.73-5.736l0,0
			h9.313c3.167,0.002,5.734,2.567,5.734,5.736l0,0v9.31c0,3.167-2.567,5.733-5.734,5.733l0,0H525.767L525.767,183.936z
			 M522.033,168.893v9.31c0.005,2.062,1.675,3.729,3.733,3.733l0,0h9.313c2.062-0.004,3.731-1.672,3.733-3.733l0,0v-9.31
			c-0.002-2.063-1.672-3.731-3.733-3.736l0,0h-9.313C523.708,165.161,522.038,166.829,522.033,168.893L522.033,168.893z"/>
	</g>
	<g>
		<path fill="#F4F4F4" d="M468.354,215.339c-3.169,0-5.735-2.566-5.735-5.733l0,0v-16.727c0-3.166,2.566-5.735,5.735-5.735l0,0
			h17.042c3.167,0,5.733,2.566,5.735,5.735l0,0v16.727h-0.002c0,3.169-2.566,5.733-5.733,5.733l0,0H468.354L468.354,215.339z
			 M464.62,192.879l-0.003,16.727c0.005,2.063,1.673,3.73,3.737,3.732l0,0l17.042,0.002c2.063-0.004,3.73-1.672,3.734-3.734l0,0
			v-16.727c-0.004-2.062-1.672-3.732-3.734-3.734l0,0l-17.042-0.002C466.292,189.146,464.622,190.815,464.62,192.879L464.62,192.879
			z"/>
		<path fill="#F4F4F4" d="M471.981,210.132c-3.167,0-5.732-2.567-5.734-5.734l0,0l0.002-9.31c0-3.167,2.565-5.733,5.732-5.735l0,0
			l9.313,0.002c3.165,0,5.732,2.563,5.734,5.733l0,0v9.31h-0.002c0,3.167-2.565,5.734-5.732,5.734l0,0H471.981L471.981,210.132z
			 M468.249,195.088l-0.002,9.31c0.004,2.063,1.674,3.73,3.734,3.734l0,0h9.313c2.061-0.004,3.73-1.674,3.734-3.734l0,0h-0.002
			l0.002-9.31c-0.004-2.062-1.674-3.731-3.734-3.733l0,0l-9.313-0.002C469.919,191.356,468.251,193.024,468.249,195.088
			L468.249,195.088z"/>
	</g>
	<g>
		<path fill="#F4F4F4" d="M495.246,215.339c-3.167,0-5.733-2.564-5.735-5.732l0,0l0.002-16.728c0-3.168,2.566-5.735,5.733-5.735l0,0
			h17.044c3.168,0,5.732,2.567,5.734,5.735l0,0v16.728h-0.002c0,3.166-2.566,5.732-5.732,5.732l0,0H495.246L495.246,215.339z
			 M491.512,192.879v16.728c0.004,2.061,1.672,3.729,3.734,3.731l0,0l17.044,0.003c2.062-0.005,3.729-1.672,3.733-3.734l0,0v-16.728
			c-0.004-2.063-1.672-3.731-3.733-3.734l0,0l-17.044-0.002C493.186,189.147,491.516,190.816,491.512,192.879L491.512,192.879z"/>
		<path fill="#F4F4F4" d="M498.876,210.132c-3.169,0-5.732-2.567-5.734-5.734l0,0l0.002-9.31c0-3.167,2.563-5.734,5.732-5.734l0,0
			h9.311c3.168,0,5.733,2.567,5.736,5.734l0,0v9.31h-0.003c0,3.167-2.565,5.734-5.733,5.734l0,0H498.876L498.876,210.132z
			 M495.144,195.088l-0.002,9.31c0.004,2.062,1.673,3.73,3.734,3.734l0,0h9.311c2.063-0.004,3.731-1.673,3.736-3.734l0,0h-0.003
			l0.003-9.31c-0.005-2.063-1.674-3.73-3.736-3.734l0,0h-9.311C496.814,191.357,495.146,193.024,495.144,195.088L495.144,195.088z"
			/>
	</g>
	<g>
		<path fill="#F4F4F4" d="M522.14,215.338c-3.168,0-5.734-2.564-5.736-5.731l0,0l0.002-16.729c0-3.166,2.564-5.734,5.734-5.734l0,0
			h17.042c3.167,0,5.733,2.568,5.733,5.734l0,0v16.729c0,3.167-2.566,5.731-5.733,5.733l0,0L522.14,215.338L522.14,215.338z
			 M518.404,192.878v16.729c0.005,2.063,1.671,3.729,3.735,3.732l0,0h17.042c2.063-0.004,3.73-1.67,3.735-3.732l0,0v-16.729
			c-0.005-2.063-1.673-3.731-3.735-3.733l0,0l-17.042-0.002C520.077,189.146,518.409,190.815,518.404,192.878L518.404,192.878z"/>
		<path fill="#F4F4F4" d="M525.767,210.132c-3.166,0-5.73-2.567-5.733-5.734l0,0l0.003-9.31c0-3.169,2.566-5.733,5.73-5.736l0,0
			l9.313,0.003c3.167,0,5.734,2.564,5.734,5.733l0,0v9.31c0,3.167-2.567,5.734-5.734,5.734l0,0H525.767L525.767,210.132z
			 M522.033,195.088v9.31c0.005,2.062,1.675,3.731,3.733,3.733l0,0h9.313c2.062-0.002,3.731-1.672,3.733-3.733l0,0v-9.31
			c-0.002-2.062-1.672-3.731-3.733-3.733l0,0l-9.313-0.003C523.706,191.356,522.038,193.026,522.033,195.088L522.033,195.088z"/>
	</g>
	<g>
		<path fill="#F4F4F4" d="M468.354,241.693c-3.169,0-5.735-2.566-5.735-5.733l0,0v-16.729c0-3.166,2.566-5.733,5.735-5.735l0,0
			l17.042,0.002c3.167,0,5.733,2.564,5.735,5.733l0,0v16.729h-0.002c0,3.167-2.566,5.733-5.733,5.733l0,0H468.354L468.354,241.693z
			 M464.62,219.231l-0.003,16.729c0.005,2.061,1.673,3.73,3.737,3.732l0,0l17.042,0.003c2.063-0.005,3.73-1.675,3.734-3.735l0,0
			v-16.729c-0.004-2.062-1.672-3.73-3.734-3.734l0,0h-17.042C466.29,215.501,464.622,217.167,464.62,219.231L464.62,219.231z"/>
		<path fill="#F4F4F4" d="M471.981,236.484c-3.167,0-5.732-2.565-5.734-5.732l0,0l0.002-9.311c0-3.167,2.565-5.734,5.732-5.736l0,0
			l9.313,0.002c3.167,0,5.732,2.567,5.734,5.734l0,0v9.311h-0.002c0,3.167-2.567,5.732-5.732,5.732l0,0H471.981L471.981,236.484z
			 M468.249,221.441l-0.002,9.311c0.004,2.061,1.672,3.729,3.734,3.732l0,0h9.313c2.061-0.004,3.73-1.672,3.734-3.732l0,0h-0.002
			l0.002-9.311c-0.004-2.063-1.674-3.732-3.734-3.734l0,0l-9.313-0.002C469.921,217.709,468.251,219.379,468.249,221.441
			L468.249,221.441z"/>
	</g>
	<g>
		<path fill="#F4F4F4" d="M495.246,241.691c-3.167,0-5.733-2.564-5.735-5.73l0,0l0.002-16.729c0-3.168,2.566-5.734,5.733-5.734l0,0
			h17.044c3.166,0,5.732,2.566,5.734,5.734l0,0v16.729h-0.002c0,3.166-2.566,5.73-5.732,5.733l0,0L495.246,241.691L495.246,241.691z
			 M491.512,219.231v16.729c0.004,2.059,1.674,3.729,3.734,3.732l0,0h17.044c2.062-0.003,3.729-1.674,3.733-3.732l0,0v-16.729
			c-0.004-2.063-1.672-3.731-3.733-3.733l0,0h-17.044C493.184,215.5,491.516,217.169,491.512,219.231L491.512,219.231z"/>
		<path fill="#F4F4F4" d="M498.876,236.484c-3.167,0-5.732-2.565-5.734-5.731l0,0l0.002-9.311c0-3.169,2.563-5.736,5.732-5.736l0,0
			h9.311c3.168,0,5.733,2.567,5.736,5.736l0,0v9.311h-0.003c0,3.166-2.565,5.731-5.733,5.731l0,0H498.876L498.876,236.484z
			 M495.144,221.442l-0.002,9.311c0.004,2.061,1.671,3.728,3.734,3.731l0,0h9.311c2.063-0.004,3.731-1.671,3.736-3.731l0,0h-0.003
			l0.003-9.311c-0.005-2.063-1.674-3.732-3.736-3.736l0,0h-9.311C496.814,217.71,495.146,219.379,495.144,221.442L495.144,221.442z"
			/>
	</g>
	<g>
		<path fill="#F4F4F4" d="M522.14,241.692c-3.168,0-5.734-2.566-5.736-5.732l0,0l0.002-16.729c0-3.166,2.566-5.732,5.734-5.734l0,0
			l17.042,0.002c3.167,0,5.733,2.566,5.733,5.732l0,0v16.729c0,3.166-2.566,5.732-5.733,5.734l0,0L522.14,241.692L522.14,241.692z
			 M518.404,219.23v16.729c0.005,2.061,1.671,3.729,3.735,3.733l0,0h17.042c2.063-0.004,3.73-1.673,3.735-3.733l0,0V219.23
			c-0.005-2.063-1.673-3.729-3.735-3.733l0,0H522.14C520.075,215.501,518.409,217.168,518.404,219.23L518.404,219.23z"/>
		<path fill="#F4F4F4" d="M525.767,236.483c-3.164,0-5.73-2.563-5.733-5.731l0,0l0.003-9.311c0-3.168,2.564-5.735,5.73-5.735l0,0
			h9.313c3.167,0,5.734,2.567,5.734,5.735l0,0v9.311c0,3.168-2.567,5.731-5.734,5.733l0,0L525.767,236.483L525.767,236.483z
			 M522.033,221.441v9.311c0.005,2.062,1.673,3.729,3.733,3.731l0,0l9.313,0.002c2.062-0.004,3.731-1.672,3.733-3.733l0,0v-9.311
			c-0.002-2.063-1.672-3.731-3.733-3.735l0,0h-9.313C523.708,217.71,522.038,219.378,522.033,221.441L522.033,221.441z"/>
	</g>
	<g>
		<path fill="#F4F4F4" d="M59.923,173.836c-3.167,0-5.733-2.567-5.735-5.733l0,0l0.002-16.728c0-3.167,2.565-5.735,5.733-5.735l0,0
			h17.044c3.167,0,5.733,2.567,5.733,5.735l0,0v16.728c0,3.167-2.565,5.733-5.733,5.733l0,0H59.923L59.923,173.836z M56.19,151.375
			l-0.002,16.728c0.004,2.062,1.673,3.73,3.735,3.733l0,0h17.044c2.062-0.002,3.731-1.671,3.733-3.733l0,0v-16.728
			c-0.002-2.062-1.671-3.732-3.733-3.735l0,0H59.923C57.861,147.643,56.192,149.314,56.19,151.375L56.19,151.375z"/>
		<path fill="#F4F4F4" d="M63.552,168.63c-3.166-0.002-5.733-2.567-5.735-5.735l0,0l0.002-9.312c0-3.167,2.567-5.733,5.733-5.733
			l0,0h9.312c3.167,0,5.733,2.566,5.735,5.733l0,0v9.312h-0.002c0,3.166-2.566,5.733-5.733,5.735l0,0H63.552L63.552,168.63z
			 M59.817,153.584v9.312c0.004,2.06,1.674,3.73,3.734,3.734l0,0h9.312c2.063-0.004,3.73-1.672,3.735-3.734l0,0v-9.312
			c-0.004-2.061-1.672-3.73-3.735-3.732l0,0h-9.312C61.492,149.854,59.822,151.523,59.817,153.584L59.817,153.584z"/>
	</g>
	<g>
		<path fill="#F4F4F4" d="M86.817,173.836c-3.167,0-5.735-2.565-5.735-5.733l0,0v-16.728c0-3.167,2.567-5.735,5.735-5.735l0,0
			h17.042c3.17,0,5.735,2.567,5.735,5.735l0,0v16.728c0,3.166-2.567,5.733-5.735,5.733l0,0H86.817L86.817,173.836z M83.082,151.375
			v16.728c0.004,2.062,1.671,3.73,3.735,3.733l0,0h17.042c2.064-0.002,3.731-1.671,3.735-3.733l0,0v-16.728
			c-0.004-2.062-1.673-3.732-3.735-3.735l0,0H86.817C84.755,147.643,83.086,149.314,83.082,151.375L83.082,151.375z"/>
		<path fill="#F4F4F4" d="M90.445,168.628c-3.167,0-5.733-2.567-5.733-5.733l0,0v-9.312c0-3.167,2.568-5.733,5.733-5.733l0,0h9.312
			c3.168,0,5.733,2.566,5.735,5.733l0,0v9.312h-0.002c0,3.167-2.565,5.733-5.733,5.735l0,0L90.445,168.628L90.445,168.628z
			 M86.712,153.584l-0.002,9.312c0.004,2.062,1.674,3.73,3.734,3.734l0,0h9.312c2.061-0.004,3.73-1.674,3.735-3.734l0,0v-9.312
			c-0.004-2.061-1.672-3.73-3.735-3.732l0,0l-9.312-0.002C88.383,149.854,86.715,151.523,86.712,153.584L86.712,153.584z"/>
	</g>
	<g>
		<path fill="#F4F4F4" d="M113.708,173.836c-3.167,0-5.733-2.565-5.735-5.733l0,0v-16.728c0.002-3.167,2.567-5.735,5.735-5.735l0,0
			h17.044c3.167,0,5.732,2.567,5.735,5.735l0,0v16.728h-0.002c0,3.167-2.567,5.733-5.732,5.733l0,0H113.708L113.708,173.836z
			 M109.974,151.375v16.728c0.004,2.062,1.673,3.73,3.735,3.733l0,0h17.044c2.062-0.002,3.73-1.671,3.735-3.733l0,0h-0.002
			l0.002-16.728c-0.004-2.062-1.673-3.732-3.735-3.735l0,0h-17.044C111.647,147.643,109.978,149.314,109.974,151.375
			L109.974,151.375z"/>
		<path fill="#F4F4F4" d="M117.338,168.628c-3.167,0-5.733-2.567-5.735-5.733l0,0l0.002-9.312c0-3.167,2.566-5.733,5.733-5.733l0,0
			h9.312c3.165,0,5.733,2.566,5.733,5.733l0,0v9.312c0,3.166-2.565,5.733-5.733,5.735l0,0L117.338,168.628L117.338,168.628z
			 M113.604,153.584v9.312c0.004,2.062,1.672,3.73,3.735,3.734l0,0h9.312c2.06-0.004,3.73-1.672,3.732-3.734l0,0v-9.312
			c-0.002-2.063-1.67-3.73-3.732-3.732l0,0l-9.312-0.002C115.276,149.854,113.608,151.523,113.604,153.584L113.604,153.584z"/>
	</g>
	<g>
		<path fill="#F4F4F4" d="M140.602,173.836c-3.167,0-5.734-2.565-5.734-5.733l0,0v-16.728c0-3.167,2.567-5.735,5.734-5.735l0,0
			h17.044c3.167,0,5.733,2.567,5.733,5.735l0,0v16.728c0,3.166-2.567,5.733-5.733,5.733l0,0H140.602L140.602,173.836z
			 M136.867,151.375v16.728c0.004,2.062,1.673,3.73,3.735,3.733l0,0h17.044c2.062-0.002,3.729-1.671,3.733-3.733l0,0v-16.728
			c-0.004-2.062-1.671-3.732-3.733-3.735l0,0h-17.044C138.541,147.643,136.872,149.314,136.867,151.375L136.867,151.375z"/>
		<path fill="#F4F4F4" d="M144.231,168.628c-3.167,0-5.733-2.567-5.735-5.733l0,0l0.002-9.312c0-3.167,2.566-5.733,5.733-5.733l0,0
			h9.31c3.167,0,5.735,2.566,5.735,5.733l0,0v9.312c0,3.166-2.567,5.733-5.735,5.735l0,0L144.231,168.628L144.231,168.628z
			 M140.497,153.584v9.312c0.004,2.062,1.672,3.73,3.734,3.734l0,0h9.31c2.062-0.004,3.732-1.672,3.734-3.734l0,0v-9.312
			c-0.002-2.061-1.672-3.73-3.734-3.732l0,0l-9.31-0.002C142.169,149.854,140.501,151.521,140.497,153.584L140.497,153.584z"/>
	</g>
	<g>
		<path fill="#F4F4F4" d="M167.494,173.836c-3.167,0-5.733-2.567-5.733-5.733l0,0v-16.728c0-3.167,2.565-5.735,5.733-5.735l0,0
			h17.044c3.167,0,5.732,2.567,5.734,5.735l0,0v16.728c-0.002,3.166-2.567,5.733-5.734,5.733l0,0H167.494L167.494,173.836z
			 M163.761,151.375v16.728c0.004,2.062,1.671,3.73,3.733,3.733l0,0h17.044c2.062-0.002,3.73-1.671,3.734-3.733l0,0v-16.728
			c-0.004-2.062-1.673-3.732-3.734-3.735l0,0h-17.044C165.432,147.643,163.765,149.314,163.761,151.375L163.761,151.375z"/>
		<path fill="#F4F4F4" d="M171.125,168.628c-3.167,0-5.733-2.567-5.735-5.733l0,0v-9.312c0.002-3.167,2.568-5.733,5.735-5.733l0,0
			h9.31c3.167,0,5.735,2.566,5.735,5.733l0,0v9.312c0,3.167-2.567,5.733-5.735,5.735l0,0L171.125,168.628L171.125,168.628z
			 M167.39,153.584v9.312c0.004,2.062,1.672,3.73,3.734,3.734l0,0h9.31c2.062-0.004,3.732-1.674,3.736-3.734l0,0h-0.002l0.002-9.312
			c-0.004-2.061-1.674-3.73-3.736-3.732l0,0l-9.31-0.002C169.062,149.854,167.394,151.523,167.39,153.584L167.39,153.584z"/>
	</g>
	<g>
		<path fill="#F4F4F4" d="M194.388,173.836c-3.167,0-5.735-2.565-5.735-5.733l0,0v-16.728c0-3.167,2.567-5.735,5.735-5.735l0,0
			h17.044c3.166,0,5.733,2.567,5.733,5.735l0,0v16.728c0,3.167-2.567,5.733-5.733,5.733l0,0H194.388L194.388,173.836z
			 M190.653,151.375v16.728c0.004,2.062,1.673,3.73,3.735,3.733l0,0h17.044c2.06-0.002,3.729-1.671,3.733-3.733l0,0v-16.728
			c-0.004-2.062-1.673-3.732-3.733-3.735l0,0h-17.044C192.326,147.643,190.657,149.314,190.653,151.375L190.653,151.375z"/>
		<path fill="#F4F4F4" d="M198.018,168.628c-3.167,0-5.733-2.567-5.735-5.733l0,0l0.002-9.312c0-3.167,2.566-5.733,5.733-5.733l0,0
			h9.31c3.167,0,5.735,2.566,5.735,5.733l0,0v9.312c0,3.166-2.568,5.733-5.735,5.735l0,0L198.018,168.628L198.018,168.628z
			 M194.283,153.584v9.312c0.004,2.062,1.672,3.73,3.734,3.734l0,0h9.31c2.063-0.004,3.73-1.672,3.734-3.734l0,0v-9.312
			c-0.004-2.061-1.672-3.73-3.734-3.732l0,0l-9.31-0.002C195.955,149.854,194.287,151.521,194.283,153.584L194.283,153.584z"/>
	</g>
	<g>
		<path fill="#F4F4F4" d="M221.282,173.836c-3.167,0-5.735-2.565-5.737-5.733l0,0l0.002-16.728c0-3.167,2.565-5.735,5.735-5.735l0,0
			h17.042c3.167,0,5.735,2.567,5.735,5.735l0,0v16.728c0,3.167-2.567,5.733-5.735,5.733l0,0H221.282L221.282,173.836z
			 M217.547,151.375l-0.002,16.728c0.004,2.062,1.673,3.73,3.737,3.733l0,0h17.042c2.062-0.002,3.731-1.671,3.735-3.733l0,0v-16.728
			c-0.004-2.062-1.673-3.732-3.735-3.735l0,0h-17.042C219.218,147.643,217.549,149.314,217.547,151.375L217.547,151.375z"/>
		<path fill="#F4F4F4" d="M224.911,168.628c-3.167,0-5.733-2.567-5.735-5.733l0,0l0.002-9.312c0-3.167,2.565-5.733,5.733-5.733l0,0
			h9.31c3.167,0,5.733,2.566,5.735,5.733l0,0v9.312h-0.002c0,3.166-2.565,5.733-5.733,5.735l0,0L224.911,168.628L224.911,168.628z
			 M221.176,153.584v9.312c0.004,2.062,1.672,3.73,3.734,3.734l0,0h9.31c2.063-0.004,3.73-1.672,3.734-3.734l0,0v-9.312
			c-0.004-2.063-1.672-3.73-3.734-3.732l0,0l-9.31-0.002C222.848,149.854,221.18,151.521,221.176,153.584L221.176,153.584z"/>
	</g>
	<g>
		<path fill="#F4F4F4" d="M248.173,173.836c-3.167,0-5.733-2.565-5.735-5.733l0,0l0.002-16.728c0-3.167,2.565-5.735,5.733-5.735l0,0
			h17.044c3.167,0,5.732,2.567,5.732,5.735l0,0v16.728c0,3.166-2.565,5.733-5.732,5.733l0,0H248.173L248.173,173.836z
			 M244.44,151.375l-0.002,16.728c0.004,2.062,1.673,3.73,3.735,3.733l0,0h17.044c2.062-0.002,3.73-1.671,3.733-3.733l0,0v-16.728
			c-0.002-2.062-1.671-3.732-3.733-3.735l0,0h-17.044C246.112,147.643,244.442,149.314,244.44,151.375L244.44,151.375z"/>
		<path fill="#F4F4F4" d="M251.802,168.628c-3.167,0-5.733-2.567-5.733-5.733l0,0v-9.312c0-3.167,2.568-5.733,5.733-5.733l0,0h9.312
			c3.167,0,5.733,2.566,5.735,5.733l0,0v9.312c-0.002,3.167-2.568,5.733-5.735,5.735l0,0L251.802,168.628L251.802,168.628z
			 M248.069,153.584l-0.002,9.312c0.004,2.062,1.674,3.73,3.734,3.734l0,0h9.312c2.061-0.004,3.73-1.674,3.734-3.734l0,0v-9.312
			c-0.004-2.061-1.672-3.73-3.734-3.732l0,0l-9.312-0.002C249.741,149.854,248.071,151.523,248.069,153.584L248.069,153.584z"/>
	</g>
	<g>
		<path fill="#F4F4F4" d="M275.066,173.835c-3.167,0-5.733-2.565-5.735-5.732l0,0v-16.728c0.002-3.167,2.567-5.735,5.735-5.735l0,0
			h17.044c3.167,0,5.733,2.567,5.733,5.735l0,0v16.728c0,3.167-2.565,5.732-5.733,5.735l0,0L275.066,173.835L275.066,173.835z
			 M271.332,151.375v16.728c0.004,2.062,1.673,3.73,3.735,3.733l0,0h17.044c2.062-0.002,3.729-1.671,3.733-3.733l0,0v-16.728
			c-0.004-2.062-1.671-3.731-3.733-3.735l0,0h-17.044C273.005,147.644,271.336,149.313,271.332,151.375L271.332,151.375z"/>
		<path fill="#F4F4F4" d="M278.696,168.629c-3.168,0-5.734-2.568-5.734-5.734l0,0v-9.311c0-3.168,2.566-5.734,5.734-5.734l0,0h9.311
			c3.166,0,5.734,2.566,5.734,5.734l0,0v9.311c0,3.166-2.568,5.734-5.734,5.734l0,0H278.696L278.696,168.629z M274.961,153.585
			v9.311c0.004,2.061,1.672,3.731,3.735,3.733l0,0h9.311c2.061-0.002,3.731-1.672,3.735-3.733l0,0v-9.311
			c-0.004-2.063-1.674-3.731-3.735-3.735l0,0h-9.311C276.633,149.854,274.965,151.522,274.961,153.585L274.961,153.585z"/>
	</g>
	<g>
		<path fill="#F4F4F4" d="M301.96,173.836c-3.167,0-5.735-2.565-5.735-5.733l0,0v-16.727c0-3.168,2.565-5.735,5.735-5.737l0,0
			l17.042,0.002c3.168,0,5.733,2.567,5.735,5.735l0,0v16.727h-0.002c0,3.166-2.565,5.733-5.733,5.733l0,0H301.96L301.96,173.836z
			 M298.226,151.376v16.727c0.002,2.06,1.672,3.73,3.734,3.732l0,0h17.042c2.063-0.002,3.731-1.67,3.735-3.732l0,0h-0.002
			l0.002-16.727c-0.004-2.063-1.673-3.733-3.735-3.737l0,0H301.96C299.897,147.644,298.228,149.314,298.226,151.376L298.226,151.376
			z"/>
		<path fill="#F4F4F4" d="M305.588,168.63c-3.168-0.002-5.731-2.568-5.734-5.734l0,0l0.003-9.311c0-3.168,2.565-5.734,5.731-5.734
			l0,0h9.313c3.164,0,5.732,2.566,5.734,5.734l0,0v9.311h-0.002c0,3.166-2.566,5.732-5.732,5.734l0,0H305.588L305.588,168.63z
			 M301.855,153.585l-0.002,9.311c0.004,2.061,1.674,3.731,3.734,3.733l0,0l9.313,0.002c2.06-0.004,3.729-1.674,3.733-3.735l0,0
			v-9.311c-0.004-2.061-1.674-3.73-3.733-3.735l0,0h-9.313C303.525,149.854,301.857,151.522,301.855,153.585L301.855,153.585z"/>
	</g>
	<g>
		<path fill="#F4F4F4" d="M328.853,173.837c-3.167-0.002-5.735-2.568-5.735-5.733l0,0v-16.728c0-3.167,2.565-5.735,5.735-5.735l0,0
			h17.042c3.168,0,5.733,2.568,5.735,5.735l0,0v16.728h-0.002c0,3.166-2.565,5.731-5.733,5.733l0,0H328.853L328.853,173.837z
			 M325.118,151.376l-0.002,16.728c0.004,2.061,1.674,3.729,3.736,3.732l0,0h17.042c2.063-0.004,3.73-1.671,3.735-3.732l0,0v-16.728
			c-0.005-2.063-1.674-3.732-3.735-3.736l0,0h-17.042C326.79,147.644,325.12,149.313,325.118,151.376L325.118,151.376z"/>
		<path fill="#F4F4F4" d="M332.483,168.629c-3.171,0-5.735-2.568-5.737-5.734l0,0l0.002-9.312c0-3.166,2.566-5.732,5.735-5.732l0,0
			h9.308c3.168,0,5.734,2.566,5.736,5.732l0,0v9.312h-0.002c0,3.166-2.566,5.734-5.734,5.734l0,0H332.483L332.483,168.629z
			 M328.748,153.583l-0.002,9.312c0.004,2.062,1.673,3.731,3.737,3.735l0,0h9.308c2.063-0.004,3.732-1.673,3.736-3.735l0,0h-0.002
			l0.002-9.312c-0.004-2.06-1.673-3.729-3.736-3.732l0,0h-9.308C330.419,149.854,328.75,151.521,328.748,153.583L328.748,153.583z"
			/>
	</g>
	<g>
		<path fill="#F4F4F4" d="M355.745,173.836c-3.168,0-5.733-2.568-5.735-5.733l0,0l0.002-16.729c0-3.165,2.565-5.733,5.733-5.735l0,0
			h17.041c3.17,0.002,5.735,2.567,5.737,5.735l0,0v16.729h-0.002c0,3.167-2.567,5.733-5.735,5.733l0,0H355.745L355.745,173.836z
			 M352.011,151.375v16.729c0.004,2.061,1.673,3.73,3.734,3.732l0,0l17.041,0.002c2.063-0.004,3.732-1.673,3.736-3.734l0,0v-16.729
			c-0.004-2.061-1.673-3.73-3.736-3.734l0,0h-17.041C353.684,147.645,352.015,149.313,352.011,151.375L352.011,151.375z"/>
		<path fill="#F4F4F4" d="M359.375,168.63c-3.168-0.002-5.734-2.568-5.736-5.734l0,0l0.002-9.311c0-3.168,2.566-5.732,5.734-5.734
			l0,0h9.31c3.166,0.002,5.734,2.566,5.736,5.734l0,0v9.311h-0.002c0,3.166-2.566,5.732-5.734,5.734l0,0H359.375L359.375,168.63z
			 M355.641,153.584l-0.002,9.311c0.004,2.061,1.674,3.73,3.736,3.734l0,0h9.31c2.063-0.004,3.732-1.674,3.736-3.734l0,0h-0.002
			l0.002-9.311c-0.004-2.06-1.674-3.73-3.736-3.734l0,0h-9.31C357.313,149.854,355.643,151.522,355.641,153.584L355.641,153.584z"/>
	</g>
	<g>
		<path fill="#F4F4F4" d="M382.638,173.836c-3.168,0-5.733-2.567-5.735-5.733l0,0l0.002-16.729c0-3.167,2.565-5.735,5.733-5.735l0,0
			h17.043c3.167,0,5.732,2.568,5.734,5.735l0,0v16.729h-0.002c0,3.166-2.565,5.733-5.732,5.733l0,0H382.638L382.638,173.836z
			 M378.903,151.375v16.729c0.004,2.062,1.672,3.73,3.734,3.732l0,0l17.043,0.002c2.062-0.004,3.729-1.672,3.733-3.734l0,0v-16.729
			c-0.004-2.062-1.672-3.732-3.733-3.734l0,0l-17.043-0.002C380.575,147.643,378.907,149.313,378.903,151.375L378.903,151.375z"/>
		<path fill="#F4F4F4" d="M386.267,168.628c-3.168,0-5.732-2.566-5.734-5.734l0,0l0.002-9.31c0-3.166,2.564-5.732,5.732-5.732l0,0
			h9.313c3.165,0,5.731,2.566,5.731,5.732l0,0v9.31c0,3.168-2.566,5.734-5.731,5.734l0,0H386.267L386.267,168.628z M382.534,153.583
			l-0.002,9.31c0.004,2.063,1.674,3.732,3.734,3.736l0,0h9.313c2.061-0.004,3.729-1.673,3.733-3.736l0,0h-0.002l0.002-9.31
			c-0.004-2.061-1.673-3.73-3.733-3.734l0,0h-9.313C384.206,149.854,382.536,151.523,382.534,153.583L382.534,153.583z"/>
	</g>
	<g>
		<path fill="#F4F4F4" d="M408.677,173.835c-3.167,0-5.734-2.565-5.734-5.732l0,0v-16.727c0-3.169,2.567-5.734,5.734-5.736l0,0
			h17.042c3.167,0.002,5.734,2.567,5.734,5.736l0,0v16.727c0,3.167-2.567,5.732-5.734,5.734l0,0L408.677,173.835L408.677,173.835z
			 M404.941,151.376v16.727c0.004,2.062,1.673,3.729,3.735,3.733l0,0h17.042c2.062-0.004,3.73-1.671,3.735-3.733l0,0v-16.727
			c-0.005-2.062-1.674-3.733-3.735-3.735l0,0l-17.042-0.002C406.614,147.643,404.945,149.314,404.941,151.376L404.941,151.376z"/>
		<path fill="#F4F4F4" d="M412.306,168.63c-3.168-0.002-5.734-2.568-5.734-5.736l0,0v-9.311c0-3.167,2.566-5.733,5.734-5.733l0,0
			h9.31c3.168,0,5.733,2.566,5.733,5.733l0,0v9.311c0,3.167-2.565,5.733-5.733,5.736l0,0H412.306L412.306,168.63z M408.572,153.584
			l-0.003,9.311c0.005,2.063,1.675,3.731,3.736,3.735l0,0h9.31c2.062-0.004,3.731-1.672,3.735-3.735l0,0h-0.002l0.002-9.311
			c-0.004-2.063-1.672-3.729-3.735-3.733l0,0h-9.31C410.242,149.855,408.574,151.521,408.572,153.584L408.572,153.584z"/>
	</g>
	<g>
		<path fill="#F4F4F4" d="M66.235,200.031c-3.167,0-5.732-2.566-5.735-5.732l0,0v-16.729c0.002-3.167,2.567-5.732,5.735-5.734l0,0
			l17.045,0.002c3.165,0,5.732,2.565,5.732,5.732l0,0v16.729c0,3.166-2.565,5.732-5.732,5.735l0,0L66.235,200.031L66.235,200.031z
			 M62.5,177.569v16.729c0.004,2.061,1.672,3.73,3.734,3.732l0,0l17.045,0.002c2.06-0.004,3.73-1.674,3.732-3.734l0,0v-16.729
			c-0.002-2.062-1.672-3.729-3.732-3.734l0,0H66.235C64.173,173.84,62.504,175.508,62.5,177.569L62.5,177.569z"/>
		<path fill="#F4F4F4" d="M69.866,194.823c-3.169,0-5.735-2.567-5.735-5.732l0,0v-9.311c0-3.167,2.565-5.735,5.735-5.735l0,0h9.311
			c3.166,0,5.733,2.568,5.733,5.735l0,0v9.311c0,3.165-2.567,5.732-5.733,5.735l0,0L69.866,194.823L69.866,194.823z M66.13,179.78
			v9.311c0.004,2.061,1.673,3.729,3.736,3.734l0,0h9.311c2.061-0.005,3.73-1.674,3.734-3.734l0,0h-0.002l0.002-9.311
			c-0.004-2.063-1.673-3.732-3.734-3.734l0,0l-9.311-0.002C67.803,176.048,66.134,177.718,66.13,179.78L66.13,179.78z"/>
	</g>
	<g>
		<path fill="#F4F4F4" d="M93.128,200.031c-3.167,0-5.732-2.566-5.734-5.732l0,0v-16.729c0.002-3.167,2.567-5.732,5.734-5.734l0,0
			l17.043,0.002c3.167,0,5.734,2.565,5.734,5.732l0,0v16.729c0,3.166-2.567,5.732-5.734,5.735l0,0L93.128,200.031L93.128,200.031z
			 M89.394,177.569v16.729c0.004,2.061,1.672,3.73,3.734,3.732l0,0l17.043,0.002c2.062-0.004,3.73-1.674,3.734-3.734l0,0v-16.729
			c-0.004-2.062-1.672-3.729-3.734-3.734l0,0H93.128C91.066,173.84,89.398,175.508,89.394,177.569L89.394,177.569z"/>
		<path fill="#F4F4F4" d="M96.758,194.823c-3.169,0-5.735-2.565-5.735-5.732l0,0v-9.311c0-3.17,2.565-5.735,5.735-5.735l0,0h9.311
			c3.167,0,5.733,2.568,5.735,5.735l0,0v9.311h-0.002c0,3.165-2.565,5.732-5.733,5.735l0,0L96.758,194.823L96.758,194.823z
			 M93.022,179.78v9.311c0.004,2.061,1.673,3.729,3.736,3.734l0,0h9.311c2.061-0.005,3.73-1.674,3.734-3.734l0,0v-9.311
			c-0.004-2.063-1.673-3.732-3.734-3.734l0,0l-9.311-0.002C94.696,176.048,93.026,177.718,93.022,179.78L93.022,179.78z"/>
	</g>
	<g>
		<path fill="#F4F4F4" d="M120.021,200.031c-3.167,0-5.732-2.566-5.734-5.732l0,0v-16.729c0.002-3.167,2.567-5.732,5.734-5.734l0,0
			l17.043,0.002c3.167,0,5.732,2.565,5.734,5.732l0,0v16.729c-0.002,3.166-2.567,5.732-5.734,5.735l0,0L120.021,200.031
			L120.021,200.031z M116.287,177.569v16.729c0.004,2.061,1.672,3.73,3.734,3.732l0,0l17.043,0.002
			c2.062-0.004,3.73-1.674,3.734-3.734l0,0v-16.729c-0.004-2.062-1.672-3.729-3.734-3.734l0,0h-17.043
			C117.959,173.84,116.291,175.508,116.287,177.569L116.287,177.569z"/>
		<path fill="#F4F4F4" d="M123.651,194.823c-3.167,0-5.733-2.567-5.735-5.732l0,0v-9.311c0.002-3.167,2.568-5.735,5.735-5.735l0,0
			h9.31c3.167,0,5.733,2.568,5.733,5.735l0,0v9.311c0,3.165-2.565,5.732-5.733,5.735l0,0L123.651,194.823L123.651,194.823z
			 M119.917,179.78v9.311c0.002,2.061,1.671,3.729,3.734,3.734l0,0h9.31c2.061-0.005,3.73-1.674,3.734-3.734l0,0v-9.311
			c-0.004-2.063-1.673-3.732-3.734-3.734l0,0l-9.31-0.002C121.588,176.048,119.919,177.718,119.917,179.78L119.917,179.78z"/>
	</g>
	<g>
		<path fill="#F4F4F4" d="M146.915,200.031c-3.167,0-5.735-2.566-5.735-5.732l0,0v-16.729c0-3.167,2.567-5.732,5.735-5.734l0,0
			l17.042,0.002c3.167,0,5.733,2.565,5.735,5.732l0,0v16.729c-0.002,3.166-2.567,5.732-5.735,5.735l0,0L146.915,200.031
			L146.915,200.031z M143.18,177.569l-0.002,16.729c0.004,2.061,1.672,3.73,3.737,3.732l0,0l17.042,0.002
			c2.062-0.004,3.73-1.674,3.734-3.734l0,0v-16.729c-0.004-2.062-1.672-3.729-3.734-3.734l0,0h-17.042
			C144.85,173.84,143.182,175.508,143.18,177.569L143.18,177.569z"/>
		<path fill="#F4F4F4" d="M150.544,194.823c-3.167,0-5.733-2.567-5.735-5.732l0,0l0.002-9.311c0-3.167,2.565-5.735,5.733-5.735l0,0
			h9.31c3.167,0,5.733,2.568,5.733,5.735l0,0v9.311c0,3.165-2.566,5.732-5.733,5.735l0,0L150.544,194.823L150.544,194.823z
			 M146.81,179.78v9.311c0.004,2.061,1.671,3.729,3.734,3.734l0,0h9.31c2.061-0.005,3.73-1.674,3.734-3.734l0,0v-9.311
			c-0.004-2.063-1.673-3.732-3.734-3.734l0,0l-9.31-0.002C148.481,176.048,146.814,177.718,146.81,179.78L146.81,179.78z"/>
	</g>
	<g>
		<path fill="#F4F4F4" d="M173.808,200.031c-3.167,0-5.734-2.566-5.734-5.732l0,0v-16.729c0-3.167,2.567-5.732,5.734-5.734l0,0
			l17.043,0.002c3.167,0,5.732,2.565,5.734,5.732l0,0v16.729h-0.002c0,3.166-2.565,5.732-5.732,5.735l0,0L173.808,200.031
			L173.808,200.031z M170.073,177.569v16.729c0.004,2.061,1.672,3.73,3.734,3.732l0,0l17.043,0.002
			c2.062-0.004,3.73-1.674,3.734-3.734l0,0h-0.002l0.002-16.729c-0.004-2.062-1.672-3.729-3.734-3.734l0,0h-17.043
			C171.746,173.84,170.077,175.508,170.073,177.569L170.073,177.569z"/>
		<path fill="#F4F4F4" d="M177.437,194.823c-3.167,0-5.733-2.567-5.735-5.732l0,0v-9.311c0.002-3.167,2.568-5.735,5.735-5.735l0,0
			h9.311c3.167,0,5.733,2.568,5.735,5.735l0,0v9.311h-0.002c0,3.165-2.566,5.732-5.733,5.735l0,0L177.437,194.823L177.437,194.823z
			 M173.702,179.78v9.311c0.004,2.061,1.673,3.729,3.734,3.734l0,0h9.311c2.063-0.005,3.729-1.674,3.734-3.734l0,0v-9.311
			c-0.004-2.063-1.671-3.732-3.734-3.734l0,0l-9.311-0.002C175.375,176.048,173.707,177.718,173.702,179.78L173.702,179.78z"/>
	</g>
	<g>
		<path fill="#F4F4F4" d="M200.701,200.031c-3.169,0-5.734-2.566-5.734-5.732l0,0v-16.729c0-3.167,2.565-5.732,5.734-5.734l0,0
			l17.043,0.002c3.167,0,5.732,2.565,5.734,5.732l0,0v16.729h-0.002c0,3.166-2.565,5.732-5.732,5.735l0,0L200.701,200.031
			L200.701,200.031z M196.966,177.569v16.729c0.002,2.061,1.672,3.73,3.734,3.732l0,0l17.043,0.002
			c2.06-0.004,3.73-1.674,3.734-3.734l0,0h-0.002l0.002-16.729c-0.004-2.062-1.672-3.729-3.734-3.734l0,0h-17.043
			C198.637,173.84,196.969,175.508,196.966,177.569L196.966,177.569z"/>
		<path fill="#F4F4F4" d="M204.329,194.823c-3.167,0-5.733-2.567-5.735-5.732l0,0l0.002-9.311c0-3.167,2.565-5.735,5.733-5.735l0,0
			h9.311c3.167,0,5.733,2.568,5.735,5.735l0,0v9.311h-0.002c0,3.165-2.566,5.732-5.733,5.735l0,0L204.329,194.823L204.329,194.823z
			 M200.595,179.78v9.311c0.004,2.061,1.673,3.729,3.734,3.734l0,0h9.311c2.061-0.005,3.73-1.674,3.734-3.734l0,0v-9.311
			c-0.004-2.063-1.673-3.732-3.734-3.734l0,0l-9.311-0.002C202.269,176.048,200.599,177.718,200.595,179.78L200.595,179.78z"/>
	</g>
	<g>
		<path fill="#F4F4F4" d="M227.592,200.031c-3.167,0-5.732-2.566-5.734-5.732l0,0l0.002-16.729c0-3.167,2.565-5.732,5.732-5.734l0,0
			l17.045,0.002c3.166,0,5.732,2.565,5.735,5.732l0,0v16.729h-0.002c0,3.166-2.565,5.732-5.732,5.735l0,0L227.592,200.031
			L227.592,200.031z M223.86,177.569l-0.002,16.729c0.004,2.061,1.674,3.73,3.734,3.732l0,0l17.045,0.002
			c2.06-0.004,3.73-1.674,3.734-3.734l0,0h-0.002l0.002-16.729c-0.004-2.062-1.672-3.729-3.734-3.734l0,0h-17.045
			C225.53,173.84,223.862,175.508,223.86,177.569L223.86,177.569z"/>
		<path fill="#F4F4F4" d="M231.222,194.823c-3.167,0-5.733-2.567-5.735-5.732l0,0l0.002-9.311c0-3.167,2.565-5.735,5.733-5.735l0,0
			h9.311c3.169,0,5.735,2.568,5.735,5.735l0,0v9.311c0,3.165-2.565,5.732-5.735,5.735l0,0L231.222,194.823L231.222,194.823z
			 M227.488,179.78v9.311c0.004,2.061,1.671,3.729,3.734,3.734l0,0h9.311c2.063-0.005,3.732-1.674,3.736-3.734l0,0h-0.002
			l0.002-9.311c-0.004-2.063-1.673-3.732-3.736-3.734l0,0l-9.311-0.002C229.159,176.048,227.492,177.718,227.488,179.78
			L227.488,179.78z"/>
	</g>
	<g>
		<path fill="#F4F4F4" d="M254.485,200.031c-3.167,0-5.733-2.566-5.735-5.732l0,0v-16.729c0.002-3.167,2.567-5.732,5.735-5.734l0,0
			l17.042,0.002c3.169,0,5.735,2.565,5.735,5.732l0,0v16.729c0,3.166-2.565,5.732-5.735,5.735l0,0L254.485,200.031L254.485,200.031z
			 M250.751,177.569v16.729c0.004,2.061,1.672,3.73,3.734,3.732l0,0l17.042,0.002c2.064-0.004,3.732-1.674,3.736-3.734l0,0h-0.002
			l0.002-16.729c-0.004-2.062-1.672-3.729-3.736-3.734l0,0h-17.042C252.423,173.84,250.755,175.508,250.751,177.569L250.751,177.569
			z"/>
		<path fill="#F4F4F4" d="M258.116,194.823c-3.169,0-5.735-2.567-5.735-5.732l0,0v-9.311c0-3.167,2.566-5.735,5.735-5.735l0,0h9.311
			c3.167,0,5.733,2.568,5.733,5.735l0,0v9.311c0,3.165-2.565,5.732-5.733,5.735l0,0L258.116,194.823L258.116,194.823z
			 M254.382,179.78l-0.002,9.311c0.004,2.061,1.673,3.729,3.736,3.734l0,0h9.311c2.061-0.005,3.73-1.674,3.734-3.734l0,0h-0.002
			l0.002-9.311c-0.004-2.063-1.673-3.732-3.734-3.734l0,0l-9.311-0.002C256.054,176.048,254.384,177.718,254.382,179.78
			L254.382,179.78z"/>
	</g>
	<g>
		<path fill="#F4F4F4" d="M281.378,200.031c-3.167,0-5.734-2.566-5.734-5.732l0,0v-16.729c0-3.167,2.567-5.732,5.734-5.734l0,0
			l17.043,0.002c3.167,0,5.734,2.565,5.734,5.732l0,0v16.729c0,3.166-2.567,5.732-5.734,5.735l0,0L281.378,200.031L281.378,200.031z
			 M277.644,177.569v16.729c0.004,2.061,1.672,3.73,3.734,3.732l0,0l17.043,0.002c2.062-0.004,3.73-1.674,3.734-3.734l0,0v-16.729
			c-0.004-2.062-1.672-3.729-3.734-3.734l0,0h-17.043C279.316,173.84,277.648,175.508,277.644,177.569L277.644,177.569z"/>
		<path fill="#F4F4F4" d="M285.007,194.826c-3.167-0.003-5.733-2.57-5.733-5.735l0,0v-9.311c0-3.167,2.566-5.735,5.733-5.735l0,0
			h9.313c3.167,0,5.732,2.568,5.732,5.735l0,0v9.311c0,3.165-2.565,5.732-5.732,5.735l0,0H285.007L285.007,194.826z M281.275,179.78
			l-0.002,9.311c0.004,2.061,1.673,3.729,3.734,3.734l0,0h9.313c2.061-0.005,3.73-1.674,3.734-3.734l0,0h-0.002l0.002-9.311
			c-0.004-2.063-1.673-3.732-3.734-3.734l0,0h-9.313C282.946,176.048,281.277,177.718,281.275,179.78L281.275,179.78z"/>
	</g>
	<g>
		<path fill="#F4F4F4" d="M308.271,200.032c-3.168,0-5.733-2.567-5.735-5.733l0,0l0.002-16.729c0-3.168,2.565-5.733,5.733-5.733l0,0
			h17.043c3.168,0,5.732,2.567,5.735,5.733l0,0v16.729h-0.003c0,3.166-2.564,5.733-5.732,5.733l0,0H308.271L308.271,200.032z
			 M304.537,177.57v16.729c0.003,2.06,1.672,3.729,3.734,3.733l0,0h17.043c2.062-0.004,3.73-1.674,3.733-3.733l0,0V177.57
			c-0.003-2.062-1.67-3.729-3.733-3.733l0,0h-17.043C306.209,173.841,304.54,175.508,304.537,177.57L304.537,177.57z"/>
		<path fill="#F4F4F4" d="M311.9,194.823c-3.168,0-5.734-2.565-5.734-5.732l0,0v-9.312c0-3.168,2.566-5.734,5.734-5.734l0,0h9.312
			c3.167,0,5.732,2.568,5.735,5.734l0,0v9.312h-0.003c0,3.165-2.565,5.732-5.732,5.734l0,0L311.9,194.823L311.9,194.823z
			 M308.167,179.779l-0.002,9.312c0.004,2.062,1.675,3.729,3.735,3.731l0,0l9.312,0.003c2.062-0.005,3.729-1.673,3.734-3.734l0,0
			h-0.003l0.003-9.312c-0.005-2.063-1.673-3.731-3.734-3.733l0,0l-9.312-0.002C309.84,176.048,308.169,177.719,308.167,179.779
			L308.167,179.779z"/>
	</g>
	<g>
		<path fill="#F4F4F4" d="M335.164,200.031c-3.168,0-5.733-2.567-5.735-5.731l0,0l0.002-16.729c0-3.167,2.565-5.735,5.733-5.735l0,0
			h17.043c3.168,0,5.733,2.567,5.735,5.735l0,0V194.3h-0.002c0,3.166-2.565,5.731-5.733,5.733l0,0L335.164,200.031L335.164,200.031z
			 M331.429,177.571V194.3c0.005,2.061,1.674,3.729,3.735,3.731l0,0l17.043,0.002c2.063-0.005,3.731-1.673,3.735-3.733l0,0h-0.002
			l0.002-16.729c-0.004-2.064-1.673-3.73-3.735-3.735l0,0h-17.043C333.101,173.841,331.434,175.507,331.429,177.571L331.429,177.571
			z"/>
		<path fill="#F4F4F4" d="M338.794,194.823c-3.169,0-5.734-2.566-5.734-5.733l0,0v-9.311c0-3.166,2.565-5.732,5.734-5.734l0,0h9.311
			c3.167,0.002,5.732,2.568,5.734,5.734l0,0v9.311h-0.002c0,3.167-2.565,5.733-5.732,5.735l0,0L338.794,194.823L338.794,194.823z
			 M335.061,179.779l-0.002,9.311c0.004,2.062,1.674,3.731,3.735,3.733l0,0l9.311,0.002c2.062-0.004,3.729-1.674,3.733-3.735l0,0
			v-9.311c-0.004-2.062-1.672-3.731-3.733-3.733l0,0l-9.311-0.002C336.732,176.048,335.063,177.718,335.061,179.779L335.061,179.779
			z"/>
	</g>
	<g>
		<path fill="#F4F4F4" d="M411.045,200.031c-3.17,0-5.736-2.566-5.736-5.731l0,0V177.57c0-3.168,2.566-5.734,5.736-5.734l0,0h17.041
			c3.166,0,5.733,2.566,5.736,5.734l0,0V194.3h-0.003c0,3.165-2.567,5.731-5.733,5.733l0,0L411.045,200.031L411.045,200.031z
			 M407.309,177.57V194.3c0.005,2.061,1.672,3.729,3.736,3.731l0,0l17.041,0.002c2.061-0.004,3.731-1.673,3.734-3.733l0,0V177.57
			c-0.003-2.063-1.674-3.73-3.734-3.734l0,0h-17.041C408.98,173.84,407.313,175.508,407.309,177.57L407.309,177.57z"/>
		<path fill="#F4F4F4" d="M414.672,194.823c-3.168,0-5.734-2.565-5.734-5.733l0,0v-9.311c0-3.167,2.566-5.733,5.734-5.733l0,0h9.312
			c3.168,0,5.733,2.566,5.733,5.733l0,0v9.311c0,3.166-2.565,5.733-5.733,5.735l0,0L414.672,194.823L414.672,194.823z
			 M410.938,179.779v9.311c0.003,2.062,1.674,3.73,3.734,3.734l0,0h9.312c2.062-0.004,3.729-1.673,3.734-3.734l0,0h-0.002
			l0.002-9.311c-0.005-2.062-1.673-3.73-3.734-3.734l0,0h-9.312C412.611,176.049,410.94,177.718,410.938,179.779L410.938,179.779z"
			/>
	</g>
	<g>
		<path fill="#F4F4F4" d="M106.791,226.07c-3.167,0-5.732-2.567-5.734-5.734l0,0l0.002-16.727c0-3.167,2.565-5.734,5.732-5.736l0,0
			l17.043,0.002c3.169,0,5.734,2.567,5.736,5.734l0,0v16.727h-0.002c0,3.167-2.565,5.734-5.734,5.736l0,0L106.791,226.07
			L106.791,226.07z M103.057,203.609v16.727c0.004,2.063,1.673,3.731,3.734,3.734l0,0l17.043,0.002
			c2.063-0.005,3.731-1.674,3.736-3.736l0,0h-0.002l0.002-16.727c-0.004-2.063-1.673-3.731-3.736-3.735l0,0h-17.043
			C104.73,199.878,103.061,201.547,103.057,203.609L103.057,203.609z"/>
		<path fill="#F4F4F4" d="M110.422,220.863c-3.169,0-5.735-2.568-5.735-5.735l0,0v-9.311c0-3.167,2.568-5.732,5.735-5.734l0,0
			l9.311,0.002c3.165,0,5.732,2.565,5.732,5.732l0,0v9.311c0,3.167-2.565,5.735-5.732,5.735l0,0H110.422L110.422,220.863z
			 M106.687,205.817v9.311c0.004,2.063,1.672,3.731,3.735,3.733l0,0l9.311,0.003c2.061-0.005,3.729-1.673,3.733-3.736l0,0v-9.311
			c-0.004-2.062-1.672-3.729-3.733-3.733l0,0h-9.311C108.359,202.088,106.69,203.756,106.687,205.817L106.687,205.817z"/>
	</g>
	<g>
		<path fill="#F4F4F4" d="M66.393,226.071c-3.167,0-5.734-2.568-5.734-5.735l0,0v-16.727c0-3.169,2.567-5.734,5.734-5.734l0,0
			h30.932c3.167,0,5.732,2.567,5.734,5.734l0,0v16.727h-0.002c0,3.167-2.565,5.735-5.732,5.735l0,0H66.393L66.393,226.071z
			 M62.659,203.609v16.727c0.004,2.062,1.673,3.731,3.734,3.735l0,0h30.932c2.06-0.004,3.729-1.674,3.733-3.735l0,0v-16.727
			c-0.004-2.063-1.673-3.732-3.733-3.736l0,0H66.393C64.333,199.877,62.664,201.547,62.659,203.609L62.659,203.609z"/>
		<path fill="#F4F4F4" d="M70.023,220.863c-3.167,0-5.734-2.568-5.734-5.735l0,0v-9.311c0-3.167,2.567-5.732,5.734-5.734l0,0
			l23.197,0.002c3.167,0,5.734,2.565,5.734,5.732l0,0v9.311c0,3.167-2.567,5.735-5.734,5.735l0,0H70.023L70.023,220.863z
			 M66.29,205.817l-0.002,9.311c0.004,2.063,1.674,3.731,3.735,3.733l0,0l23.197,0.003c2.061-0.005,3.731-1.673,3.735-3.736l0,0
			h-0.002l0.002-9.311c-0.004-2.062-1.672-3.729-3.735-3.733l0,0H70.023C67.96,202.088,66.292,203.756,66.29,205.817L66.29,205.817z
			"/>
	</g>
	<g>
		<path fill="#F4F4F4" d="M375.484,226.071c-3.168,0-5.733-2.567-5.733-5.735l0,0v-16.728c0-3.166,2.565-5.733,5.733-5.733l0,0
			h30.929c3.168,0,5.733,2.567,5.735,5.733l0,0v16.728h-0.002c0,3.168-2.565,5.735-5.733,5.735l0,0H375.484L375.484,226.071z
			 M371.751,203.608l-0.002,16.728c0.004,2.063,1.674,3.732,3.735,3.737l0,0h30.929c2.062-0.005,3.73-1.674,3.734-3.737l0,0v-16.728
			c-0.004-2.062-1.673-3.73-3.734-3.735l0,0h-30.929C373.423,199.878,371.753,201.547,371.751,203.608L371.751,203.608z"/>
		<path fill="#F4F4F4" d="M379.113,220.862c-3.168,0-5.734-2.566-5.734-5.733l0,0v-9.312c0-3.166,2.566-5.732,5.734-5.734l0,0
			l23.198,0.002c3.166,0,5.732,2.564,5.734,5.732l0,0v9.312h-0.002c0,3.167-2.566,5.733-5.732,5.735l0,0L379.113,220.862
			L379.113,220.862z M375.381,205.817l-0.003,9.312c0.005,2.063,1.673,3.731,3.735,3.733l0,0l23.198,0.002
			c2.06-0.004,3.73-1.673,3.734-3.735l0,0h-0.002l0.002-9.312c-0.004-2.062-1.672-3.73-3.734-3.732l0,0l-23.198-0.002
			C377.051,202.087,375.383,203.756,375.381,205.817L375.381,205.817z"/>
	</g>
	<g>
		<path fill="#F4F4F4" d="M361.95,200.032c-3.169,0-5.734-2.566-5.734-5.732l0,0v-16.728c0-3.168,2.565-5.734,5.734-5.734l0,0
			h39.452c3.166,0,5.732,2.566,5.732,5.734l0,0V194.3c0,3.166-2.566,5.732-5.732,5.734l0,0L361.95,200.032L361.95,200.032z
			 M358.217,177.572l-0.002,16.728c0.005,2.063,1.673,3.73,3.735,3.732l0,0h39.452c2.062-0.002,3.729-1.67,3.732-3.732l0,0v-16.728
			c-0.004-2.062-1.671-3.73-3.732-3.734l0,0H361.95C359.888,173.842,358.22,175.51,358.217,177.572L358.217,177.572z"/>
		<path fill="#F4F4F4" d="M365.579,194.826c-3.168,0-5.733-2.568-5.733-5.735l0,0v-9.308c0-3.169,2.565-5.736,5.733-5.736l0,0h31.72
			c3.167,0,5.733,2.567,5.735,5.736l0,0v9.308h-0.002c0,3.167-2.566,5.735-5.733,5.735l0,0H365.579L365.579,194.826z
			 M361.847,179.783l-0.002,9.308c0.004,2.063,1.674,3.732,3.734,3.735l0,0h31.72c2.063-0.003,3.73-1.672,3.735-3.735l0,0h-0.002
			l0.002-9.308c-0.005-2.065-1.672-3.733-3.735-3.737l0,0h-31.72C363.519,176.05,361.849,177.718,361.847,179.783L361.847,179.783z"
			/>
	</g>
	<g>
		<path fill="#F4F4F4" d="M133.303,252.424c-3.167,0-5.733-2.566-5.733-5.733l0,0v-16.729c0-3.167,2.567-5.733,5.733-5.733l0,0
			h205.149c3.167,0,5.733,2.566,5.733,5.733l0,0v16.729c0,3.167-2.566,5.733-5.733,5.735l0,0L133.303,252.424L133.303,252.424z
			 M129.57,229.962v16.729c0.002,2.063,1.672,3.731,3.733,3.733l0,0l205.149,0.002c2.061-0.004,3.731-1.673,3.735-3.735l0,0h-0.002
			l0.002-16.729c-0.004-2.061-1.673-3.731-3.735-3.733l0,0H133.303C131.24,226.23,129.572,227.901,129.57,229.962L129.57,229.962z"
			/>
		<path fill="#F4F4F4" d="M136.933,247.216c-3.167,0-5.734-2.567-5.734-5.732l0,0v-9.312c0-3.167,2.568-5.734,5.734-5.734l0,0
			h197.416c3.167,0,5.732,2.567,5.734,5.734l0,0v9.312h-0.002c0,3.165-2.565,5.732-5.732,5.734l0,0L136.933,247.216L136.933,247.216
			z M133.198,232.172v9.312c0.004,2.062,1.673,3.729,3.735,3.733l0,0h197.416c2.063-0.004,3.73-1.672,3.735-3.733l0,0h-0.003
			l0.003-9.312c-0.005-2.062-1.672-3.73-3.735-3.733l0,0l-197.416-0.002C134.872,228.441,133.202,230.11,133.198,232.172
			L133.198,232.172z"/>
	</g>
	<g>
		<path fill="#F4F4F4" d="M133.685,226.07c-3.167,0-5.734-2.567-5.734-5.734l0,0v-16.727c0-3.167,2.567-5.734,5.734-5.736l0,0
			l17.043,0.002c3.167,0,5.734,2.567,5.734,5.734l0,0v16.727c0,3.167-2.567,5.734-5.734,5.736l0,0L133.685,226.07L133.685,226.07z
			 M129.951,203.609v16.727c0.004,2.063,1.671,3.731,3.734,3.734l0,0l17.043,0.002c2.063-0.005,3.731-1.674,3.734-3.736l0,0v-16.727
			c-0.002-2.063-1.671-3.731-3.734-3.735l0,0h-17.043C131.622,199.878,129.955,201.547,129.951,203.609L129.951,203.609z"/>
		<path fill="#F4F4F4" d="M137.315,220.863c-3.169,0-5.734-2.568-5.737-5.735l0,0l0.002-9.311c0-3.167,2.567-5.732,5.734-5.734l0,0
			l9.309,0.002c3.167,0,5.734,2.565,5.734,5.732l0,0v9.311c0,3.167-2.567,5.735-5.734,5.735l0,0H137.315L137.315,220.863z
			 M133.58,205.817v9.311c0.004,2.063,1.672,3.731,3.735,3.733l0,0l9.309,0.003c2.061-0.005,3.731-1.673,3.735-3.736l0,0v-9.311
			c-0.004-2.062-1.672-3.729-3.735-3.733l0,0h-9.309C135.252,202.088,133.583,203.756,133.58,205.817L133.58,205.817z"/>
	</g>
	<g>
		<path fill="#F4F4F4" d="M160.578,226.07c-3.169,0-5.734-2.567-5.736-5.734l0,0l0.002-16.727c0-3.167,2.565-5.734,5.734-5.736l0,0
			l17.043,0.002c3.167,0,5.734,2.565,5.734,5.734l0,0v16.727c0,3.167-2.567,5.734-5.734,5.736l0,0L160.578,226.07L160.578,226.07z
			 M156.842,203.609v16.727c0.004,2.063,1.673,3.731,3.736,3.734l0,0l17.043,0.002c2.061-0.005,3.729-1.674,3.734-3.736l0,0v-16.727
			c-0.004-2.063-1.673-3.731-3.734-3.735l0,0h-17.043C158.516,199.878,156.846,201.547,156.842,203.609L156.842,203.609z"/>
		<path fill="#F4F4F4" d="M164.208,220.863c-3.169,0-5.734-2.568-5.736-5.735l0,0l0.002-9.311c0-3.167,2.567-5.732,5.734-5.734l0,0
			l9.309,0.002c3.167,0,5.735,2.565,5.735,5.732l0,0v9.311c0,3.167-2.566,5.735-5.735,5.735l0,0H164.208L164.208,220.863z
			 M160.473,205.817v9.311c0.004,2.063,1.672,3.731,3.735,3.733l0,0l9.309,0.003c2.063-0.005,3.731-1.673,3.735-3.736l0,0v-9.311
			c-0.004-2.062-1.672-3.729-3.735-3.733l0,0h-9.309C162.145,202.088,160.477,203.756,160.473,205.817L160.473,205.817z"/>
	</g>
	<g>
		<path fill="#F4F4F4" d="M187.472,226.07c-3.169,0-5.734-2.567-5.734-5.734l0,0v-16.727c0-3.167,2.565-5.734,5.734-5.736l0,0
			l17.041,0.002c3.169,0,5.734,2.565,5.736,5.734l0,0v16.727h-0.002c0,3.167-2.565,5.734-5.734,5.736l0,0L187.472,226.07
			L187.472,226.07z M183.738,203.609l-0.002,16.727c0.004,2.063,1.673,3.731,3.736,3.734l0,0l17.041,0.002
			c2.063-0.005,3.732-1.674,3.736-3.736l0,0v-16.727c-0.004-2.063-1.673-3.731-3.736-3.735l0,0h-17.041
			C185.409,199.878,183.74,201.547,183.738,203.609L183.738,203.609z"/>
		<path fill="#F4F4F4" d="M191.099,220.863c-3.167,0-5.732-2.568-5.732-5.735l0,0v-9.311c0-3.167,2.565-5.732,5.732-5.734l0,0
			l9.313,0.002c3.165,0,5.732,2.565,5.732,5.732l0,0v9.311c0,3.167-2.568,5.735-5.732,5.735l0,0H191.099L191.099,220.863z
			 M187.366,205.817v9.311c0.004,2.063,1.672,3.731,3.733,3.733l0,0l9.313,0.003c2.061-0.005,3.729-1.673,3.733-3.736l0,0h-0.002
			l0.002-9.311c-0.004-2.062-1.672-3.729-3.733-3.733l0,0h-9.313C189.038,202.088,187.37,203.756,187.366,205.817L187.366,205.817z"
			/>
	</g>
	<g>
		<path fill="#F4F4F4" d="M214.363,226.072c-3.167-0.002-5.734-2.569-5.734-5.736l0,0v-16.727c0-3.169,2.567-5.734,5.734-5.736l0,0
			l17.043,0.002c3.167,0,5.734,2.567,5.734,5.734l0,0v16.727c0,3.167-2.567,5.734-5.734,5.736l0,0H214.363L214.363,226.072z
			 M210.629,203.609v16.727c0.002,2.063,1.673,3.731,3.734,3.734l0,0l17.043,0.002c2.063-0.005,3.729-1.674,3.734-3.736l0,0v-16.727
			c-0.004-2.063-1.671-3.731-3.734-3.735l0,0h-17.043C212.303,199.878,210.631,201.547,210.629,203.609L210.629,203.609z"/>
		<path fill="#F4F4F4" d="M217.993,220.863c-3.167,0-5.733-2.568-5.735-5.735l0,0v-9.311c0.002-3.167,2.567-5.732,5.735-5.734l0,0
			l9.311,0.002c3.167,0,5.733,2.565,5.735,5.732l0,0v9.311h-0.002c0,3.167-2.565,5.735-5.733,5.735l0,0H217.993L217.993,220.863z
			 M214.259,205.817v9.311c0.002,2.063,1.672,3.731,3.734,3.733l0,0l9.311,0.003c2.062-0.005,3.729-1.673,3.734-3.736l0,0v-9.311
			c-0.004-2.062-1.672-3.729-3.734-3.733l0,0h-9.311C215.931,202.088,214.261,203.756,214.259,205.817L214.259,205.817z"/>
	</g>
	<g>
		<path fill="#F4F4F4" d="M241.257,226.07c-3.169,0-5.734-2.567-5.736-5.734l0,0l0.002-16.727c0-3.167,2.565-5.734,5.734-5.736l0,0
			l17.043,0.002c3.167,0,5.732,2.565,5.734,5.734l0,0v16.727c-0.002,3.167-2.567,5.734-5.734,5.736l0,0L241.257,226.07
			L241.257,226.07z M237.523,203.609l-0.002,16.727c0.004,2.063,1.673,3.731,3.736,3.734l0,0l17.043,0.002
			c2.061-0.005,3.73-1.674,3.734-3.736l0,0v-16.727c-0.004-2.063-1.673-3.731-3.734-3.735l0,0h-17.043
			C239.194,199.878,237.525,201.547,237.523,203.609L237.523,203.609z"/>
		<path fill="#F4F4F4" d="M244.886,220.863c-3.167,0-5.733-2.568-5.735-5.735l0,0v-9.311c0.002-3.167,2.568-5.732,5.735-5.734l0,0
			l9.311,0.002c3.167,0,5.732,2.565,5.734,5.732l0,0v9.311c-0.002,3.167-2.567,5.735-5.734,5.735l0,0H244.886L244.886,220.863z
			 M241.152,205.817v9.311c0.002,2.063,1.672,3.731,3.733,3.733l0,0l9.311,0.003c2.061-0.005,3.729-1.673,3.733-3.736l0,0v-9.311
			c-0.004-2.062-1.672-3.729-3.733-3.733l0,0h-9.311C242.822,202.088,241.154,203.756,241.152,205.817L241.152,205.817z"/>
	</g>
	<g>
		<path fill="#F4F4F4" d="M268.148,226.07c-3.167,0-5.734-2.567-5.734-5.734l0,0v-16.727c0-3.169,2.567-5.734,5.734-5.736l0,0
			l17.045,0.002c3.167,0,5.732,2.565,5.734,5.734l0,0v16.727c-0.002,3.169-2.567,5.734-5.734,5.736l0,0L268.148,226.07
			L268.148,226.07z M264.415,203.609v16.727c0.004,2.063,1.673,3.731,3.734,3.734l0,0l17.045,0.002
			c2.061-0.005,3.73-1.674,3.734-3.736l0,0v-16.727c-0.004-2.063-1.673-3.731-3.734-3.735l0,0h-17.045
			C266.088,199.878,264.419,201.547,264.415,203.609L264.415,203.609z"/>
		<path fill="#F4F4F4" d="M271.779,220.863c-3.167,0-5.735-2.568-5.735-5.735l0,0v-9.311c0-3.167,2.568-5.732,5.735-5.734l0,0
			l9.311,0.002c3.167,0,5.732,2.565,5.734,5.732l0,0v9.311h-0.002c0,3.167-2.565,5.735-5.732,5.735l0,0H271.779L271.779,220.863z
			 M268.045,205.817l-0.002,9.311c0.004,2.063,1.674,3.731,3.735,3.733l0,0l9.311,0.003c2.061-0.005,3.729-1.673,3.733-3.736l0,0
			v-9.311c-0.004-2.062-1.672-3.729-3.733-3.733l0,0h-9.311C269.718,202.088,268.047,203.756,268.045,205.817L268.045,205.817z"/>
	</g>
	<g>
		<path fill="#F4F4F4" d="M295.042,226.072c-3.167-0.002-5.734-2.567-5.736-5.736l0,0l0.002-16.727c0-3.169,2.567-5.734,5.734-5.736
			l0,0l17.043,0.002c3.167,0,5.731,2.567,5.734,5.734l0,0v16.727h-0.003c0,3.167-2.564,5.734-5.731,5.736l0,0H295.042
			L295.042,226.072z M291.308,203.609l-0.002,16.727c0.004,2.063,1.676,3.731,3.736,3.734l0,0l17.043,0.002
			c2.061-0.005,3.729-1.674,3.733-3.736l0,0v-16.727c-0.004-2.063-1.673-3.731-3.733-3.735l0,0h-17.043
			C292.982,199.878,291.311,201.547,291.308,203.609L291.308,203.609z"/>
		<path fill="#F4F4F4" d="M298.672,220.863c-3.167,0-5.734-2.568-5.734-5.735l0,0v-9.311c0-3.167,2.567-5.732,5.734-5.734l0,0
			l9.311,0.002c3.165,0,5.735,2.565,5.735,5.732l0,0v9.311c0,3.17-2.568,5.735-5.735,5.735l0,0H298.672L298.672,220.863z
			 M294.938,205.817l-0.002,9.311c0.004,2.063,1.674,3.731,3.735,3.733l0,0l9.311,0.003c2.06-0.005,3.731-1.675,3.736-3.736l0,0
			h-0.003l0.003-9.311c-0.005-2.062-1.675-3.729-3.736-3.733l0,0h-9.311C296.609,202.088,294.94,203.756,294.938,205.817
			L294.938,205.817z"/>
	</g>
	<g>
		<path fill="#F4F4F4" d="M321.934,226.07c-3.167,0-5.732-2.567-5.734-5.734l0,0l0.002-16.727c0-3.167,2.565-5.734,5.732-5.736l0,0
			l17.045,0.002c3.167,0,5.734,2.565,5.734,5.734l0,0v16.727c0,3.167-2.567,5.734-5.734,5.736l0,0L321.934,226.07L321.934,226.07z
			 M318.201,203.609l-0.002,16.727c0.005,2.063,1.674,3.731,3.734,3.734l0,0l17.045,0.002c2.063-0.005,3.731-1.674,3.735-3.736l0,0
			h-0.002l0.002-16.727c-0.004-2.063-1.673-3.731-3.735-3.735l0,0h-17.045C319.873,199.878,318.204,201.547,318.201,203.609
			L318.201,203.609z"/>
		<path fill="#F4F4F4" d="M325.564,220.863c-3.167,0-5.734-2.565-5.736-5.735l0,0l0.002-9.311c0-3.167,2.567-5.732,5.734-5.734l0,0
			l9.31,0.002c3.167,0,5.734,2.565,5.734,5.732l0,0v9.311c0,3.167-2.565,5.735-5.734,5.735l0,0H325.564L325.564,220.863z
			 M321.829,205.817v9.311c0.004,2.062,1.675,3.731,3.735,3.733l0,0l9.31,0.003c2.063-0.005,3.731-1.673,3.735-3.736l0,0h-0.002
			l0.002-9.311c-0.004-2.062-1.673-3.729-3.735-3.733l0,0h-9.31C323.502,202.088,321.833,203.756,321.829,205.817L321.829,205.817z"
			/>
	</g>
	<g>
		<path fill="#F4F4F4" d="M348.827,226.071c-3.167,0-5.733-2.568-5.733-5.735l0,0v-16.727c0-3.167,2.566-5.734,5.733-5.736l0,0
			l17.044,0.002c3.167,0,5.732,2.565,5.734,5.734l0,0v16.727h-0.002c0,3.167-2.565,5.735-5.732,5.735l0,0H348.827L348.827,226.071z
			 M345.094,203.609v16.727c0.004,2.063,1.672,3.731,3.733,3.735l0,0h17.044c2.06-0.004,3.73-1.673,3.732-3.735l0,0v-16.727
			c-0.002-2.062-1.673-3.733-3.732-3.735l0,0h-17.044C346.766,199.876,345.098,201.546,345.094,203.609L345.094,203.609z"/>
		<path fill="#F4F4F4" d="M352.457,220.862c-3.167,0-5.733-2.566-5.735-5.734l0,0l0.002-9.31c0-3.169,2.566-5.733,5.733-5.735l0,0
			l9.311,0.002c3.167,0,5.733,2.564,5.735,5.733l0,0v9.31h-0.002c0,3.168-2.566,5.734-5.733,5.736l0,0L352.457,220.862
			L352.457,220.862z M348.724,205.818l-0.002,9.31c0.005,2.063,1.675,3.731,3.735,3.735l0,0h9.311
			c2.06-0.004,3.73-1.673,3.735-3.735l0,0h-0.002l0.002-9.31c-0.005-2.063-1.673-3.731-3.735-3.733l0,0l-9.311-0.002
			C350.395,202.087,348.727,203.756,348.724,205.818L348.724,205.818z"/>
	</g>
	<polygon fill="#F4F4F4" points="217.624,108.767 217.624,91.514 219.625,91.514 219.625,108.767 217.624,108.767 	"/>
	<polygon fill="#F4F4F4" points="373.538,108.874 373.538,91.514 375.538,91.514 375.538,108.874 373.538,108.874 	"/>
</g>
</svg>
