<?xml version="1.0" encoding="utf-8"?>
<!-- Generator: Adobe Illustrator 13.0.0, SVG Export Plug-In . SVG Version: 6.00 Build 14948)  -->
<!DOCTYPE svg [
	<!ENTITY ns_flows "http://ns.adobe.com/Flows/1.0/">
	<!ENTITY ns_extend "http://ns.adobe.com/Extensibility/1.0/">
	<!ENTITY ns_ai "http://ns.adobe.com/AdobeIllustrator/10.0/">
	<!ENTITY ns_graphs "http://ns.adobe.com/Graphs/1.0/">
	<!ENTITY ns_vars "http://ns.adobe.com/Variables/1.0/">
	<!ENTITY ns_imrep "http://ns.adobe.com/ImageReplacement/1.0/">
	<!ENTITY ns_sfw "http://ns.adobe.com/SaveForWeb/1.0/">
	<!ENTITY ns_custom "http://ns.adobe.com/GenericCustomNamespace/1.0/">
	<!ENTITY ns_adobe_xpath "http://ns.adobe.com/XPath/1.0/">
]>
<svg version="1.2" baseProfile="tiny"
	 id="Layer_3" xmlns:x="&ns_extend;" xmlns:i="&ns_ai;" xmlns:graph="&ns_graphs;" xmlns:rdf="http://www.w3.org/1999/02/22-rdf-syntax-ns#" xmlns:dc="http://purl.org/dc/elements/1.1/" xmlns:cc="http://creativecommons.org/ns#"
	 xmlns="http://www.w3.org/2000/svg" xmlns:xlink="http://www.w3.org/1999/xlink" xmlns:a="http://ns.adobe.com/AdobeSVGViewerExtensions/3.0/"
	 x="0px" y="0px" width="598.189px" height="350.26px" viewBox="0 0 598.189 350.26" xml:space="preserve">
<metadata  id="metadata55">
	<rdf:RDF>
		<cc:Work  rdf:about="">
			<dc:format>image/svg+xml</dc:format>
			<dc:type  rdf:resource="http://purl.org/dc/dcmitype/StillImage"></dc:type>
			<dc:title></dc:title>
		</cc:Work>
	</rdf:RDF>
	<sfw  xmlns="&ns_sfw;">
		<slices></slices>
		<sliceSourceBounds  x="-7231" y="-7652" width="16383" height="16383" bottomLeftOrigin="true"></sliceSourceBounds>
	</sfw>
</metadata>
<path id="path3" fill="#F4F4F4" d="M39.132,82.143c-7.519,0-13.624,6.105-13.624,13.624v142.041c0,7.52,6.105,13.653,13.624,13.653
	H557.26c7.519,0,13.625-6.134,13.625-13.653V95.767c0-7.519-6.106-13.624-13.625-13.624H344.896v1.933H557.26
	c6.474,0,11.691,5.215,11.691,11.69v142.041c0,6.475-5.218,11.72-11.691,11.72H39.132c-6.475,0-11.691-5.245-11.691-11.72V95.767
	c0-6.474,5.216-11.69,11.691-11.69h252.935v-1.933H39.132L39.132,82.143z"/>
<path id="path5" fill="#F4F4F4" d="M23.455,63.474c-7.519,0-13.624,6.105-13.624,13.625v185.394c0,7.52,6.105,13.625,13.624,13.624
	h549.458c7.518,0,13.654-6.104,13.654-13.624V77.108c0-7.525-6.129-13.629-13.65-13.629H344.844h-0.756l-0.181,0.694l-0.121,0.454
	l-0.029,0.121v0.151v31.174c0,14.148-11.47,25.587-25.617,25.587s-25.586-11.44-25.586-25.587V64.898v-0.211l-0.061-0.151
	l-0.174-0.454l-0.27-0.604h-0.639H23.463L23.455,63.474z M23.455,65.407H290.62v30.661c0,15.192,12.327,27.521,27.518,27.521
	c15.193,0,27.551-12.327,27.551-27.521V65.407H572.91c6.474,0,11.721,5.217,11.721,11.692v185.385
	c0,6.474-5.247,11.689-11.721,11.689H23.454c-6.47,0.01-11.687-5.209-11.687-11.677V77.103c0-6.475,5.217-11.69,11.691-11.69
	L23.455,65.407z"/>
<path id="path7" fill="#F4F4F4" d="M287.831,83.2v12.867c0,16.728,13.574,30.3,30.299,30.3c16.727,0,30.329-13.572,30.329-30.3
	V83.29h-1.934v12.777c0,15.682-12.714,28.367-28.396,28.367s-28.365-12.684-28.365-28.367V83.2H287.831z"/>
<path id="line9" fill="#F4F4F4" d="M291.524,64.32v1.934h53.136V64.32H291.524z"/>
<path id="circle11" fill="#F4F4F4" d="M149.726,133.043c-19.673,0-35.646,15.974-35.646,35.646s15.973,35.646,35.646,35.646
	c19.672,0,35.645-15.974,35.645-35.646S169.398,133.043,149.726,133.043z M149.726,134.977c18.627,0,33.712,15.085,33.712,33.713
	c0,18.626-15.085,33.712-33.712,33.712c-18.628,0-33.713-15.086-33.713-33.712C116.013,150.062,131.098,134.977,149.726,134.977z"/>
<path id="circle13" fill="#F4F4F4" d="M149.726,152.377c-8.993,0-16.313,7.32-16.313,16.313c0,8.992,7.319,16.313,16.313,16.313
	c8.992,0,16.282-7.32,16.282-16.313C166.007,159.697,158.718,152.377,149.726,152.377z M149.726,154.311
	c7.947,0,14.349,6.431,14.349,14.379c0,7.947-6.401,14.379-14.349,14.379c-7.948,0-14.379-6.432-14.379-14.379
	C135.347,160.742,141.777,154.311,149.726,154.311z"/>
<path id="circle15" fill="#F4F4F4" d="M149.726,155.941c-7.029,0-12.749,5.719-12.749,12.748c0,7.028,5.72,12.748,12.749,12.748
	c7.028,0,12.748-5.719,12.748-12.748C162.473,161.661,156.754,155.941,149.726,155.941z M149.726,157.875
	c5.983,0,10.815,4.831,10.815,10.815c0,5.982-4.832,10.814-10.815,10.814c-5.984,0-10.815-4.831-10.815-10.814
	S143.741,157.875,149.726,157.875z"/>
<path id="circle17" fill="#F4F4F4" d="M149.938,142.378c-14.763,0-26.733,12.002-26.733,26.764
	c0,14.763,11.972,26.735,26.733,26.735c14.763,0,26.765-11.973,26.765-26.735S164.701,142.378,149.938,142.378z M149.938,144.312
	c13.718,0,24.832,11.114,24.832,24.831c0,13.718-11.114,24.801-24.832,24.801c-13.717,0-24.8-11.084-24.8-24.801
	C125.138,155.425,136.221,144.312,149.938,144.312z"/>
<path id="circle19" fill="#F4F4F4" d="M279.102,144.825c-13.458,0-24.377,10.92-24.377,24.378s10.92,24.408,24.377,24.408
	c13.458,0,24.378-10.95,24.378-24.408S292.56,144.825,279.102,144.825z M279.102,146.758c12.413,0,22.445,10.032,22.445,22.445
	s-10.032,22.474-22.445,22.474c-12.413,0-22.444-10.062-22.444-22.474S266.689,146.758,279.102,146.758z"/>
<path id="circle21" fill="#F4F4F4" d="M354.231,144.825c-13.458,0-24.378,10.92-24.378,24.378s10.92,24.408,24.378,24.408
	s24.377-10.95,24.377-24.408S367.689,144.825,354.231,144.825z M354.231,146.758c12.411,0,22.444,10.032,22.444,22.445
	s-10.033,22.474-22.444,22.474c-12.414,0-22.445-10.062-22.445-22.474S341.817,146.758,354.231,146.758z"/>
<path id="circle23" fill="#F4F4F4" d="M429.359,144.825c-13.458,0-24.378,10.92-24.378,24.378s10.92,24.408,24.378,24.408
	s24.377-10.95,24.377-24.408S442.817,144.825,429.359,144.825z M429.359,146.758c12.413,0,22.444,10.032,22.444,22.445
	s-10.031,22.474-22.444,22.474c-12.412,0-22.445-10.062-22.445-22.474S416.947,146.758,429.359,146.758z"/>
<path id="circle25" fill="#F4F4F4" d="M504.489,144.825c-13.456,0-24.381,10.92-24.381,24.383c0,13.458,10.921,24.408,24.379,24.408
	c13.457,0,24.377-10.95,24.377-24.408c0-13.458-10.92-24.378-24.377-24.378L504.489,144.825z M504.489,146.758
	c12.411,0,22.443,10.032,22.443,22.445s-10.032,22.474-22.443,22.474c-12.414,0-22.445-10.062-22.445-22.474
	S492.075,146.758,504.489,146.758z"/>
<path id="path27" fill="#F4F4F4" d="M149.599,116.157c-14.418,0-27.459,5.835-36.915,15.285
	c-9.449,9.456-15.283,22.498-15.285,36.915c0.003,14.418,5.836,27.458,15.285,36.915c9.456,9.451,22.496,15.283,36.915,15.284
	c14.419-0.002,27.459-5.835,36.915-15.284c9.45-9.455,15.284-22.495,15.285-36.915c-0.001-14.417-5.835-27.459-15.285-36.915
	c-9.454-9.449-22.494-15.284-36.917-15.285H149.599z M149.599,118.091c13.897,0.001,26.447,5.608,35.555,14.711
	c9.104,9.109,14.71,21.66,14.711,35.555c-0.001,13.898-5.608,26.416-14.711,35.524c-9.108,9.103-21.658,14.74-35.555,14.741
	c-13.896,0-26.446-5.638-35.554-14.741c-9.1-9.105-14.706-21.623-14.708-35.524c0.002-13.896,5.609-26.445,14.708-35.555
	C123.15,123.698,135.708,118.091,149.599,118.091L149.599,118.091z"/>
<path id="path29" fill="#F4F4F4" d="M279.102,140.505c-7.936,0.001-15.094,3.196-20.3,8.398c-5.202,5.206-8.426,12.364-8.428,20.3
	c0.001,7.935,3.227,15.125,8.428,20.331c5.206,5.201,12.364,8.396,20.3,8.397c7.936-0.001,15.094-3.197,20.3-8.397
	c5.2-5.206,8.426-12.395,8.427-20.331c-0.001-7.935-3.227-15.093-8.427-20.3C294.196,143.702,287.038,140.506,279.102,140.505
	L279.102,140.505z M279.102,142.438c7.416,0.001,14.08,2.968,18.941,7.824c4.855,4.86,7.852,11.525,7.854,18.941
	c-0.002,7.415-2.999,14.079-7.854,18.941c-4.861,4.855-11.526,7.853-18.941,7.854c-7.416-0.001-14.08-2.998-18.94-7.854
	c-4.856-4.861-7.853-11.526-7.854-18.941c0-7.416,2.997-14.08,7.854-18.941C265.021,145.406,271.686,142.439,279.102,142.438z"/>
<path id="path31" fill="#F4F4F4" d="M354.231,140.505c-7.938,0.001-15.095,3.198-20.3,8.398c-5.202,5.206-8.427,12.364-8.429,20.3
	c0.002,7.935,3.227,15.125,8.429,20.331c5.203,5.201,12.362,8.396,20.3,8.397c7.933-0.002,15.092-3.197,20.3-8.397
	c5.199-5.206,8.426-12.395,8.428-20.331c-0.002-7.936-3.229-15.094-8.428-20.3C369.323,143.703,362.166,140.506,354.231,140.505
	L354.231,140.505z M354.231,142.438c7.414,0.001,14.079,2.969,18.94,7.824c4.854,4.859,7.853,11.524,7.854,18.941
	c-0.002,7.415-3,14.08-7.854,18.941c-4.861,4.855-11.526,7.852-18.94,7.854c-7.416-0.002-14.083-2.999-18.94-7.854
	c-4.856-4.86-7.853-11.526-7.854-18.941c0.002-7.417,2.998-14.08,7.854-18.941C340.148,145.408,346.815,142.439,354.231,142.438z"/>
<path id="path33" fill="#F4F4F4" d="M429.359,140.505c-7.936,0.001-15.091,3.198-20.3,8.398c-5.2,5.207-8.427,12.364-8.429,20.3
	c0.002,7.934,3.229,15.125,8.429,20.331c5.209,5.2,12.364,8.396,20.3,8.397c7.933-0.001,15.092-3.197,20.3-8.397
	c5.199-5.206,8.426-12.396,8.428-20.331c-0.002-7.936-3.229-15.092-8.428-20.3C444.451,143.703,437.294,140.506,429.359,140.505
	L429.359,140.505z M429.359,142.438c7.414,0.001,14.079,2.969,18.94,7.824c4.855,4.861,7.853,11.524,7.854,18.941
	c-0.002,7.414-2.999,14.079-7.854,18.941c-4.861,4.855-11.526,7.853-18.94,7.854c-7.414-0.001-14.077-2.998-18.94-7.854
	c-4.854-4.861-7.853-11.527-7.854-18.941c0.002-7.416,3-14.079,7.854-18.941c4.852-4.869,11.513-7.838,18.927-7.838L429.359,142.438
	z"/>
<path id="path35" fill="#F4F4F4" d="M504.489,140.505c-7.936,0.001-15.096,3.197-20.3,8.398c-5.202,5.207-8.429,12.365-8.429,20.3
	s3.227,15.125,8.429,20.331c5.204,5.2,12.364,8.396,20.3,8.397c7.933-0.002,15.09-3.197,20.3-8.397
	c5.198-5.206,8.423-12.395,8.427-20.331c-0.002-7.935-3.229-15.092-8.427-20.3C519.581,143.702,512.424,140.508,504.489,140.505
	L504.489,140.505z M504.489,142.438c7.414,0.002,14.076,2.968,18.94,7.824c4.855,4.861,7.853,11.525,7.854,18.941
	c-0.002,7.415-2.999,14.079-7.854,18.941c-4.862,4.855-11.526,7.852-18.94,7.854c-7.416-0.002-14.081-2.998-18.941-7.854
	c-4.855-4.861-7.854-11.526-7.854-18.941c0-7.416,2.998-14.079,7.854-18.941C490.408,145.406,497.073,142.439,504.489,142.438z"/>
<path id="path37" fill="none" stroke="#F4F4F4" stroke-width="1.9333" d="M204.167,171.682"/>
<path id="path39" fill="#F4F4F4" d="M149.599,109.481c-32.501,0.003-58.872,26.374-58.875,58.875
	c0.002,32.5,26.373,58.873,58.875,58.875c31.051-0.003,56.452-24.095,58.665-54.587h35.676
	c1.732,17.927,16.789,31.958,35.162,31.959c18.368-0.001,33.421-14.041,35.163-31.959h4.803
	c1.741,17.917,16.795,31.956,35.163,31.959c18.366-0.003,33.39-14.044,35.132-31.959h4.833
	c1.737,17.921,16.793,31.958,35.163,31.959c18.37-0.001,33.425-14.036,35.162-31.959h4.803
	c1.745,17.916,16.796,31.958,35.161,31.959c19.535-0.001,35.371-15.868,35.373-35.403c-0.002-19.535-15.838-35.373-35.373-35.374
	c-17.772,0.001-32.471,13.122-34.981,30.207h-5.195c-2.514-17.094-17.178-30.214-34.953-30.217
	c-17.776,0.003-32.44,13.123-34.951,30.208h-5.226c-2.512-17.086-17.178-30.208-34.951-30.208
	c-17.773,0.001-32.44,13.12-34.951,30.208h-5.226c-2.519-17.075-17.185-30.205-34.95-30.208
	c-17.771,0.004-32.437,13.125-34.951,30.208h-35.886c-2.21-30.493-27.612-54.552-58.665-54.556L149.599,109.481z M149.599,111.415
	c30.316,0.003,55.059,23.664,56.821,53.529v0.03l0.03,0.061v0.936h0.967h37.428h0.363l0.272-0.211l0.09-0.06l0.272-0.242l0.06-0.393
	c2.042-16.523,16.113-29.299,33.199-29.301c17.06,0.003,31.123,12.756,33.2,29.241l0.029,0.182l0.091,0.181l0.091,0.151l0.302,0.453
	h0.544h6.706h0.815l0.121-0.815l0.031-0.211c2.103-16.458,16.158-29.18,33.198-29.181c17.065,0.001,31.131,12.744,33.199,29.242
	l0.029,0.272l0.182,0.211l0.091,0.151l0.302,0.332h0.453h6.677h0.694l0.211-0.664l0.061-0.151l0.03-0.091v-0.09
	c2.117-16.493,16.171-29.219,33.232-29.221c17.063,0.001,31.117,12.728,33.195,29.211v0.03l0.03,0.151l0.121,0.816h0.815h6.767
	h0.635l0.241-0.574l0.03-0.091l0.061-0.121l0.03-0.151c2.054-16.509,16.123-29.271,33.198-29.272
	c18.489,0.001,33.438,14.949,33.44,33.44c-0.002,18.49-14.951,33.469-33.44,33.471c-17.654-0.002-32.105-13.64-33.38-30.962v-0.242
	l-0.12-0.181l-0.061-0.091l-0.272-0.483h-0.544h-6.403h-0.847l-0.121,0.846v0.091l-0.029,0.029v0.03
	c-1.286,17.313-15.709,30.962-33.359,30.962c-17.668-0.002-32.125-13.684-33.379-31.024v-0.302l-0.211-0.242l-0.03-0.03
	l-0.302-0.363h-0.453h-6.344h-0.423l-0.272,0.302l-0.09,0.091l-0.241,0.242l-0.031,0.362c-1.272,17.322-15.694,30.958-33.35,30.962
	c-17.646-0.004-32.095-13.625-33.38-30.933v-0.09v-0.061l-0.03-0.121l-0.181-0.755h-0.756h-6.374h-0.544l-0.271,0.483l-0.091,0.151
	l-0.12,0.181l-0.031,0.241c-1.299,17.295-15.715,30.901-33.349,30.903c-17.583-0.002-31.976-13.53-33.351-30.752
	c0,0.006-0.002-0.07,0-0.09v-0.061c0-0.084,0.006-0.182-0.06-0.362c-0.067-0.181-0.237-0.444-0.483-0.574l-0.242-0.121h-0.242
	H207.44h-0.967v0.967v0.029v0.03c-1.75,29.879-26.527,53.557-56.851,53.56c-31.493-0.029-56.975-25.511-56.977-56.965
	c0.002-31.457,25.485-56.939,56.941-56.942L149.599,111.415z"/>
<path id="path41" fill="none" stroke="#F4F4F4" stroke-width="1.9333" d="M244.748,171.663"/>
</svg>
