<?xml version="1.0" encoding="UTF-8" standalone="no"?>
<svg
   xmlns:dc="http://purl.org/dc/elements/1.1/"
   xmlns:cc="http://creativecommons.org/ns#"
   xmlns:rdf="http://www.w3.org/1999/02/22-rdf-syntax-ns#"
   xmlns:svg="http://www.w3.org/2000/svg"
   xmlns="http://www.w3.org/2000/svg"
   xmlns:sodipodi="http://sodipodi.sourceforge.net/DTD/sodipodi-0.dtd"
   xmlns:inkscape="http://www.inkscape.org/namespaces/inkscape"
   version="1.0"
   width="1280.000000pt"
   height="720.000000pt"
   viewBox="0 0 1280.000000 720.000000"
   preserveAspectRatio="xMidYMid meet"
   id="svg20"
   sodipodi:docname="controller.svg"
   inkscape:version="0.92.4 (5da689c313, 2019-01-14)">
  <metadata
     id="metadata26">
    <rdf:RDF>
      <cc:Work
         rdf:about="">
        <dc:format>image/svg+xml</dc:format>
        <dc:type
           rdf:resource="http://purl.org/dc/dcmitype/StillImage" />
      </cc:Work>
    </rdf:RDF>
  </metadata>
  <defs
     id="defs24" />
  <sodipodi:namedview
     pagecolor="#ffffff"
     bordercolor="#666666"
     borderopacity="1"
     objecttolerance="10"
     gridtolerance="10"
     guidetolerance="10"
     inkscape:pageopacity="0"
     inkscape:pageshadow="2"
     inkscape:window-width="716"
     inkscape:window-height="480"
     id="namedview22"
     showgrid="false"
     inkscape:zoom="0.20917969"
     inkscape:cx="853.33333"
     inkscape:cy="480"
     inkscape:window-x="525"
     inkscape:window-y="195"
     inkscape:window-maximized="0"
     inkscape:current-layer="svg20" />
  <g
     transform="translate(0.000000,720.000000) scale(0.100000,-0.100000)"
     fill="#000000"
     stroke="none"
     id="g18"
     style="fill:#f4f4f4;fill-opacity:1">
    <path
       d="M2990 6214 c-566 -25 -844 -122 -1092 -382 -249 -261 -387 -636 -439 -1192 -15 -161 -21 -1709 -8 -1955 34 -630 175 -1048 448 -1329 244 -251 487 -334 1045 -356 323 -13 6857 -13 7051 0 353 24 561 77 758 193 92 54 287 246 352 347 170 262 266 593 305 1050 14 163 21 1606 9 1888 -28 636 -167 1071 -434 1361 -211 227 -465 330 -895 360 -123 9 -6914 23 -7100 15z m-551 -739 c214 -57 361 -247 361 -468 0 -29 -8 -83 -19 -119 -38 -138 -127 -243 -261 -307 -66 -31 -86 -36 -171 -39 -149 -6 -248 29 -351 126 -168 157 -199 417 -71 609 110 167 322 249 512 198z m8214 0 c241 -63 393 -290 355 -533 -27 -177 -158 -330 -329 -383 -72 -23 -191 -25 -265 -5 -246 65 -402 328 -339 569 57 219 238 363 460 366 34 1 87 -6 118 -14z m-1405 -1878 l2 -1637 -2812 2 -2813 3 -3 1625 c-1 894 0 1631 3 1638 3 10 571 12 2812 10 l2808 -3 3 -1638z m999 792 c107 -52 126 -205 34 -282 -66 -55 -155 -56 -221 -1 -42 36 -60 75 -60 131 0 66 33 120 89 150 55 29 102 29 158 2z m-7377 -229 l5 -165 165 -5 165 -5 3 -119 c2 -89 -1 -121 -10 -128 -7 -4 -84 -8 -170 -8 l-158 0 0 -164 c0 -140 -2 -165 -16 -170 -30 -11 -219 -7 -232 6 -8 8 -12 60 -12 170 l0 158 -159 0 c-123 0 -161 3 -170 14 -8 9 -11 52 -9 127 l3 114 165 5 165 5 3 155 c1 85 4 161 7 168 3 9 35 12 127 10 l123 -3 5 -165z m6987 -186 c60 -45 88 -113 73 -181 -18 -78 -75 -125 -157 -130 -47 -3 -66 1 -97 19 -47 27 -86 95 -86 148 0 53 39 121 86 148 49 29 139 27 181 -4z m805 4 c112 -63 115 -228 4 -293 -49 -29 -121 -33 -165 -10 -70 36 -112 128 -92 197 33 110 155 161 253 106z m-412 -403 c163 -83 86 -343 -96 -322 -92 10 -154 79 -154 172 0 128 134 209 250 150z m-449 -630 c40 -21 69 -71 69 -120 0 -108 -121 -173 -211 -112 -41 28 -59 60 -59 110 0 104 108 170 201 122z m0 -517 c79 -44 93 -153 26 -215 -48 -43 -94 -51 -149 -24 -53 25 -78 65 -78 123 0 54 27 99 71 121 46 22 84 21 130 -5z"
       id="path2"
       style="fill:#f4f4f4;fill-opacity:1" />
    <path
       d="M2244 5400 c-71 -14 -137 -52 -200 -115 -83 -82 -108 -146 -109 -275 0 -86 3 -101 31 -160 120 -253 456 -308 643 -105 83 90 122 214 103 325 -41 228 -247 374 -468 330z m148 -31 c244 -52 364 -310 247 -530 -37 -69 -89 -118 -169 -157 -47 -23 -67 -27 -145 -27 -77 0 -98 4 -147 27 -79 37 -142 98 -181 177 -29 59 -32 74 -32 156 0 76 4 99 26 145 48 103 133 176 239 204 68 18 95 19 162 5z"
       id="path4"
       style="fill:#f4f4f4;fill-opacity:1" />
    <path
       d="M10462 5399 c-204 -40 -349 -248 -312 -446 70 -384 577 -455 743 -105 29 61 32 75 32 167 0 88 -3 107 -27 158 -54 114 -168 204 -289 227 -59 11 -87 11 -147 -1z m198 -44 c62 -21 139 -81 178 -139 125 -186 53 -437 -153 -533 -52 -24 -72 -28 -150 -28 -78 1 -98 5 -149 30 -222 107 -279 392 -115 570 103 111 248 149 389 100z"
       id="path6"
       style="fill:#f4f4f4;fill-opacity:1" />
    <path
       d="M3732 3598 l3 -1533 2685 -3 c1477 -1 2695 0 2708 3 l22 5 -2 1528 -3 1527 -2708 3 -2707 2 2 -1532z m5366 7 c2 -1383 1 -1481 -15 -1493 -22 -16 -5263 -18 -5294 -2 -19 11 -19 38 -19 1480 0 807 3 1475 6 1484 6 15 247 16 2663 14 l2656 -3 3 -1480z"
       id="path8"
       style="fill:#f4f4f4;fill-opacity:1" />
    <path
       d="M2710 4125 l0 -56 33 3 c31 3 32 4 32 53 0 49 -1 50 -32 53 l-33 3 0 -56z"
       id="path10"
       style="fill:#f4f4f4;fill-opacity:1" />
    <path
       d="M2430 3865 l0 -35 50 0 50 0 0 35 0 35 -50 0 -50 0 0 -35z"
       id="path12"
       style="fill:#f4f4f4;fill-opacity:1" />
    <path
       d="M2957 3894 c-4 -4 -7 -20 -7 -36 0 -27 1 -28 56 -28 l55 0 -3 33 c-3 30 -5 32 -48 35 -25 2 -49 0 -53 -4z"
       id="path14"
       style="fill:#f4f4f4;fill-opacity:1" />
    <path
       d="M2710 3600 l0 -50 35 0 35 0 0 50 0 50 -35 0 -35 0 0 -50z"
       id="path16"
       style="fill:#f4f4f4;fill-opacity:1" />
  </g>
</svg>
