<?xml version="1.0" encoding="utf-8"?>
<!-- Generator: Adobe Illustrator 13.0.0, SVG Export Plug-In . SVG Version: 6.00 Build 14948)  -->
<!DOCTYPE svg [
	<!ENTITY ns_flows "http://ns.adobe.com/Flows/1.0/">
	<!ENTITY ns_extend "http://ns.adobe.com/Extensibility/1.0/">
	<!ENTITY ns_ai "http://ns.adobe.com/AdobeIllustrator/10.0/">
	<!ENTITY ns_graphs "http://ns.adobe.com/Graphs/1.0/">
	<!ENTITY ns_vars "http://ns.adobe.com/Variables/1.0/">
	<!ENTITY ns_imrep "http://ns.adobe.com/ImageReplacement/1.0/">
	<!ENTITY ns_sfw "http://ns.adobe.com/SaveForWeb/1.0/">
	<!ENTITY ns_custom "http://ns.adobe.com/GenericCustomNamespace/1.0/">
	<!ENTITY ns_adobe_xpath "http://ns.adobe.com/XPath/1.0/">
]>
<svg version="1.2" baseProfile="tiny"
	 id="Layer_3" xmlns:x="&ns_extend;" xmlns:i="&ns_ai;" xmlns:graph="&ns_graphs;" xmlns:rdf="http://www.w3.org/1999/02/22-rdf-syntax-ns#" xmlns:dc="http://purl.org/dc/elements/1.1/" xmlns:cc="http://creativecommons.org/ns#"
	 xmlns="http://www.w3.org/2000/svg" xmlns:xlink="http://www.w3.org/1999/xlink" xmlns:a="http://ns.adobe.com/AdobeSVGViewerExtensions/3.0/"
	 x="0px" y="0px" width="598.189px" height="350.26px" viewBox="0 0 598.189 350.26" xml:space="preserve">
<metadata  id="metadata55">
	<rdf:RDF>
		<cc:Work  rdf:about="">
			<dc:format>image/svg+xml</dc:format>
			<dc:type  rdf:resource="http://purl.org/dc/dcmitype/StillImage"></dc:type>
			<dc:title></dc:title>
		</cc:Work>
	</rdf:RDF>
	<sfw  xmlns="&ns_sfw;">
		<slices></slices>
		<sliceSourceBounds  x="-7231" y="-7652" width="16383" height="16383" bottomLeftOrigin="true"></sliceSourceBounds>
	</sfw>
</metadata>
<path fill="#F4F4F4" d="M32.841,289.71c-4.099-16.084-16.586-50.963-16.58-110.748l0,0l0.002-10.332
	C16.252,103.22,33.569,61.797,39.095,45.338l0,0c5.539-16.884,21.091-29.221,39.659-30.004l0,0
	c18.504-0.295,98.828-2.039,184.507-2.039l0,0h79.334c11.516,0,22.771-0.004,33.686-0.002l0,0
	c74.392,0.002,132.889,0.145,151.438,2.58l0,0c16.291,2.678,29.537,14.357,34.472,29.765l0,0c0.702,2.2,1.237,4.479,1.587,6.807l0,0
	c0.744,4.688,2.092,18.341,3.701,36.737l0,0c4.657,53.359,11.444,146.229,11.448,172.113l0,0
	c-0.002,15.287-8.725,28.541-21.403,35.014l0,0c-12.142,7.273-65.34,29.635-128.932,29.654l0,0
	c-42.695-0.004-86.715-1.664-115.826-6.348l0,0c-0.004,0-0.009,0-0.013-0.002l0,0c-0.643-0.01-1.306-0.015-1.983-0.015l0,0
	c-33.201-0.005-109.069,10.721-133.124,12.028l0,0c-24.687,1.334-57.696,2.334-85.386,2.336l0,0
	C64.203,333.962,40.497,315.327,32.841,289.71L32.841,289.71z M78.814,17.333c-17.691,0.744-32.534,12.524-37.82,28.635l0,0
	c-5.566,16.578-22.725,57.571-22.733,122.663l0,0v10.332c0.008,59.549,12.377,94.006,16.506,110.215l0,0
	c7.399,24.746,30.34,42.787,57.495,42.787l0,0c27.643,0,60.634-1,85.278-2.33l0,0c21.894-1.184,87.544-10.316,124.1-11.823l0,0
	c-23.591-3.823-58.608-9.257-82.385-9.254l0,0c-8.482-0.007-15.537,0.704-19.98,2.348l0,0l-0.692-1.88
	c4.889-1.786,12.074-2.462,20.673-2.468l0,0c28.139,0.004,71.391,7.476,93.669,11.063l0,0c0.233,0.004,0.464,0.008,0.691,0.012l0,0
	h0.002l-0.002,0.099c28.896,4.584,72.604,6.235,114.979,6.233l0,0c63.076,0.021,116.206-22.328,127.961-29.399l0,0
	c12.097-6.181,20.374-18.755,20.372-33.267l0,0c0.005-25.68-6.784-118.641-11.44-171.94l0,0c-1.603-18.366-2.96-32.071-3.686-36.607
	l0,0c-0.333-2.23-0.843-4.4-1.515-6.5l0,0c-4.704-14.697-17.354-25.851-32.856-28.395l0,0c-18.171-2.4-76.806-2.563-151.147-2.561
	l0,0c-10.914,0-22.168,0.004-33.686,0.004l0,0h-79.334C177.605,15.295,97.304,17.038,78.814,17.333L78.814,17.333z"/>
<path fill="#F4F4F4" d="M164.008,285.376c-1.671-4.94-19.072-63.811-19.08-129.412l0,0c-0.013-68.136,17.991-113.225,19.69-119.297
	l0,0c1.381-6.297,6.621-11.137,13.178-11.93l0,0c6.572-0.397,32.784-1.106,90.049-1.106l0,0
	c120.614,0.009,194.821,14.465,197.77,15.274l0,0l0.04,0.011l0.035,0.013c2.936,1.07,5.252,3.404,6.301,6.349l0,0
	c0.621,1.383,2.167,6.683,4.307,14.833l0,0c2.161,8.263,4.856,19.303,7.493,31.443l0,0c5.269,24.284,10.3,52.919,10.304,72.577l0,0
	c-0.008,26.371-4.346,86.813-6.383,96.746l0,0c-0.135,0.596-0.204,0.976-0.393,1.367l0,0c-0.889,4.113-3.713,7.922-7.919,9.002l0,0
	l0,0l0,0l0,0c-1.366,0.409-7.601,1.575-17.063,3.201l0,0c-9.6,1.643-22.379,3.709-36.089,5.736l0,0
	c-27.429,4.051-58.545,7.941-75.527,7.945l0,0c-2.853,0-5.172-2.271-5.248-5.104l0,0l-0.269-0.991
	c-1.482-4.861-6.007-8.404-11.359-8.402l0,0h-22.249c-4.231,0-7.938,2.209-10.046,5.541l0,0c-0.428,0.881-0.664,2.063-1.527,3.154
	l0,0l-0.028,0.035l-0.029,0.031c-1.041,1.07-2.506,1.736-4.119,1.736l0,0c-1.453,0-2.79-0.543-3.801-1.437l0,0l-0.073-0.063
	l-2.639-3.354l-0.025-0.042c-2.098-3.365-5.828-5.604-10.085-5.604l0,0h-72.624c-6.56,0.013-11.864,5.316-11.877,11.875l0,0v2.418
	c0,3.521-2.853,6.373-6.375,6.373l0,0l-11.749,0.002C170.782,294.296,165.835,290.577,164.008,285.376L164.008,285.376z
	 M177.977,26.728c-5.643,0.679-10.209,4.899-11.42,10.422l0,0c-1.787,6.373-19.616,50.949-19.629,118.814l0,0
	c-0.008,65.229,17.371,124.056,18.973,128.759l0,0c1.55,4.411,5.752,7.577,10.695,7.575l0,0h11.749
	c2.416-0.004,4.371-1.957,4.375-4.375l0,0v-2.418c0-7.662,6.21-13.875,13.876-13.875l0,0h72.624c4.953,0,9.307,2.601,11.759,6.504
	l0,0l2.453,3.117c0.655,0.549,1.492,0.879,2.413,0.879l0,0c1.042,0,1.974-0.42,2.657-1.104l0,0c0.482-0.591,0.735-1.619,1.277-2.787
	l0,0l0.024-0.055l0.03-0.044c2.449-3.908,6.806-6.511,11.763-6.511l0,0h22.249c6.252,0,11.54,4.133,13.281,9.85l0,0l0.343,1.264
	v0.137c0.004,1.797,1.454,3.246,3.252,3.25l0,0c25.105,0.006,82.541-8.732,111.278-13.654l0,0c9.543-1.63,16.081-2.883,16.843-3.148
	l0,0l0.044-0.018l0.027-0.005c3.282-0.808,5.744-4.009,6.472-7.593l0,0l0.038-0.187l0.103-0.155h-0.003
	c0.013-0.035,0.034-0.1,0.061-0.182l0,0c0.049-0.166,0.107-0.41,0.171-0.717l0,0c0.126-0.612,0.27-1.473,0.42-2.533l0,0
	c0.301-2.126,0.641-5.068,0.994-8.613l0,0c0.715-7.093,1.499-16.598,2.229-26.894l0,0c1.461-20.591,2.698-44.354,2.698-58.302l0,0
	c0.01-29.031-11.268-78.819-17.731-103.515l0,0c-2.136-8.193-3.816-13.786-4.203-14.535l0,0l-0.024-0.05l-0.02-0.057
	c-0.837-2.382-2.714-4.282-5.077-5.154l0,0c-3.22-0.843-77.393-15.198-197.193-15.19l0,0
	C210.609,25.629,184.374,26.34,177.977,26.728L177.977,26.728z"/>
<path fill="#F4F4F4" d="M185.261,246.298c-2.525-0.002-4.742-1.34-5.969-3.344l0,0l-0.029-0.049l-0.023-0.048
	c-0.365-0.799-1.185-3.481-2.34-8.013l0,0c-1.141-4.5-2.555-10.713-3.932-18.188l0,0c-2.756-14.951-5.374-34.947-5.374-56.363l0,0
	v-12.998c0.002-32.125,5.885-61.059,9.306-74.553l0,0c1.156-4.53,1.976-7.212,2.34-8.011l0,0l0.023-0.051l0.029-0.046
	c1.227-2.003,3.443-3.341,5.969-3.341l0,0h270.333c2.523,0,4.74,1.338,5.97,3.341l0,0l0.026,0.048l0.023,0.048
	c0.364,0.799,1.187,3.481,2.34,8.011l0,0c1.142,4.501,2.555,10.713,3.935,18.189l0,0c2.756,14.949,5.371,34.949,5.371,56.363l0,0v13
	h0.002c-0.002,32.121-5.887,61.055-9.308,74.549l0,0c-1.153,4.531-1.976,7.214-2.34,8.013l0,0l-0.023,0.048l-0.026,0.049
	c-1.229,2.004-3.445,3.342-5.97,3.344l0,0H185.261V246.298z M185.261,244.296h270.333c1.786,0,3.347-0.933,4.234-2.34l0,0
	c0.233-0.535,1.11-3.33,2.188-7.603l0,0c1.132-4.455,2.536-10.629,3.905-18.058l0,0c2.739-14.859,5.34-34.75,5.338-56l0,0h0.002
	l-0.002-13c0.002-31.879-5.852-60.689-9.243-74.061l0,0c-1.077-4.271-1.954-7.067-2.188-7.602l0,0
	c-0.89-1.408-2.448-2.339-4.234-2.339l0,0H185.261c-1.786,0-3.348,0.932-4.236,2.339l0,0c-0.233,0.535-1.111,3.331-2.188,7.602l0,0
	c-1.13,4.455-2.534,10.629-3.903,18.058l0,0c-2.741,14.861-5.339,34.749-5.339,56.002l0,0v13
	c-0.002,31.877,5.851,60.688,9.243,74.058l0,0c1.077,4.271,1.955,7.065,2.188,7.603l0,0
	C181.914,243.364,183.476,244.296,185.261,244.296L185.261,244.296z"/>
<path fill="#F4F4F4" d="M186.594,236.96c-1.104,0-1.999-0.894-2.001-1.996l0,0l0.002-162.334c0-1.105,0.894-1.999,1.999-2.001l0,0
	h269c1.105,0,1.999,0.896,2.001,2.001l0,0v162.334h-0.002c0,1.104-0.894,1.996-1.999,1.996l0,0H186.594L186.594,236.96z
	 M186.594,234.964h269V72.629h-269V234.964L186.594,234.964z"/>
<path fill="#F4F4F4" d="M75.675,296.001c-15.797-1.281-28.914-12.028-33.665-26.556l0,0c-5.025-14.678-12.411-51.385-12.417-107.481
	l0,0c0.015-49.541,14.26-98.24,19.365-110.23l0,0c5.08-12.43,16.423-21.63,30.11-23.675l0,0
	c13.653-2.089,75.965-11.428,173.525-11.428l0,0c123.073,0,216.363,14.994,233.998,17.501l0,0l-0.141,0.99l0.161-0.986
	c18.424,2.997,32.479,18.979,32.479,38.247l0,0c-0.005,19.166,1.859,41.099,3.03,46.796l0,0c1.146,5.479,4.094,10.3,8.226,13.835
	l0,0c8.683,8.016,18.976,17.685,24.489,23.573l0,0c5.653,5.906,9.365,13.601,10.478,22.117l0,0
	c1.405,10.774,2.65,37.231,2.779,46.678l0,0c-0.002,16.943-10.874,31.347-26.044,36.617l0,0
	c-14.984,4.957-96.754,25.611-182.875,32.629l0,0c-9.318,0.762-13.107,1.986-15.484,3.049l0,0c-2.336,1.047-3.718,2.203-7.528,2.451
	l0,0c-3.141,0.213-49.291,1-148.067,1.002l0,0C144.789,301.128,91.084,296.876,75.675,296.001L75.675,296.001z M79.368,30.035
	c-12.977,1.937-23.743,10.668-28.564,22.47l0,0c-4.976,11.627-19.223,60.333-19.208,109.458l0,0
	c-0.006,55.902,7.39,92.502,12.313,106.849l0,0c4.507,13.784,16.952,23.985,31.905,25.194l0,0
	c15.433,0.877,69.087,5.123,112.282,5.123l0,0c98.722,0.002,145.002-0.793,147.93-0.996l0,0c3.438-0.252,4.186-1.082,6.85-2.28l0,0
	c2.623-1.181,6.711-2.454,16.139-3.22l0,0c85.879-6.984,167.685-27.651,182.396-32.528l0,0
	c14.367-4.993,24.687-18.653,24.687-34.711l0,0c-0.122-9.319-1.379-35.86-2.764-46.433l0,0c-1.059-8.101-4.581-15.397-9.945-21l0,0
	c-5.433-5.803-15.728-15.479-24.364-23.453l0,0c-4.43-3.791-7.616-8.998-8.857-14.926l0,0c-1.229-6.045-3.064-27.869-3.068-47.202
	l0,0c0.002-18.273-13.34-33.432-30.805-36.272l0,0l0,0C468.597,33.59,375.48,18.628,252.598,18.628l0,0
	C155.155,18.628,92.97,27.956,79.368,30.035L79.368,30.035z"/>
<polygon fill="#F4F4F4" points="559.428,61.255 559.428,59.253 563.803,59.253 563.803,61.255 "/>
<polygon fill="#F4F4F4" points="554.095,55.878 554.095,53.879 563.22,53.879 563.22,55.878 "/>
<polygon fill="#F4F4F4" points="562.387,69.17 562.387,67.171 564.553,67.171 564.553,69.17 "/>
<polygon fill="#F4F4F4" points="560.761,63.796 560.761,61.795 564.053,61.795 564.053,63.796 "/>
<polygon fill="#F4F4F4" points="561.47,77.087 561.47,75.088 565.303,75.088 565.303,77.087 "/>
<polygon fill="#F4F4F4" points="562.469,71.713 562.469,69.712 564.928,69.712 564.928,71.713 "/>
<polygon fill="#F4F4F4" points="556.301,85.003 556.301,83.003 566.011,83.003 566.011,85.003 "/>
<polygon fill="#F4F4F4" points="560.428,79.628 560.428,77.629 565.636,77.629 565.636,79.628 "/>
<path fill="#F4F4F4" d="M524.22,70.255c0-10.709,8.767-19.356,19.563-19.375l0,0c10.796,0.02,19.56,8.666,19.562,19.375l0,0
	c-0.002,10.708-8.766,19.354-19.562,19.374l0,0C532.985,89.609,524.22,80.962,524.22,70.255L524.22,70.255z M526.219,70.255
	c0.019,9.586,7.854,17.375,17.563,17.375l0,0c9.707,0,17.544-7.788,17.563-17.375l0,0c-0.019-9.59-7.854-17.376-17.563-17.376l0,0
	C534.073,52.878,526.236,60.666,526.219,70.255L526.219,70.255z"/>
<path fill="#F4F4F4" d="M564.334,88.346c-0.813-0.392-2.118-0.587-3.662-0.583l0,0c-4.612-0.011-11.118,1.611-15.035,1.781l0,0
	l-0.083-1.998c3.542-0.129,10.133-1.775,15.118-1.784l0,0c1.696,0.004,3.238,0.18,4.517,0.774l0,0
	c1.277,0.568,2.278,1.765,2.403,3.33l0,0l-1.993,0.191C565.486,89.167,565.146,88.765,564.334,88.346L564.334,88.346z
	 M545.634,89.545c0.001,0,0.002,0,0.003,0l0,0l0,0H545.634L545.634,89.545z"/>
<path fill="#F4F4F4" d="M562.292,54.315c-0.907-0.046-1.552-0.475-2.568-1.094l0,0c-0.771-0.521-3.118-1.157-7.074-1.141l0,0
	c-3.514,0-8.32,0.454-14.608,1.696l0,0l-0.389-1.96c6.388-1.264,11.313-1.734,14.997-1.734l0,0c4.17,0.015,6.705,0.558,8.15,1.455
	l0,0c0.354,0.229,0.667,0.411,0.916,0.54l0,0c-0.005-0.025-0.01-0.05-0.015-0.076l0,0l1.956-0.409
	c0.076,0.377,0.127,0.708,0.127,1.043l0,0c-0.002,0.341-0.04,0.716-0.313,1.104l0,0c-0.262,0.383-0.764,0.578-1.129,0.578l0,0
	C562.325,54.316,562.31,54.316,562.292,54.315L562.292,54.315z M538.038,53.777c0,0,0.001,0,0.002,0l0,0l0,0H538.038L538.038,53.777
	z"/>
<path fill="#F4F4F4" d="M542.427,237.452l-0.051-0.039l-13.964-14.431c-1.11-0.929-1.818-2.333-1.818-3.896l0,0
	c0-1.401,0.569-2.678,1.478-3.584l0,0l14.117-14.582l0.047-0.041c1.801-1.533,4.143-2.459,6.691-2.459l0,0
	c4.255,0.002,7.91,2.57,9.482,6.22l0,0c1.663,3.649,1.795,9.024,1.81,15.552l0,0c0.013,8.198-0.683,11.197-2.373,14.449l0,0
	c-1.791,3.057-5.118,5.111-8.919,5.111l0,0C546.468,239.753,544.198,238.891,542.427,237.452L542.427,237.452z M548.927,237.753
	c3.068,0,5.744-1.655,7.166-4.078l0,0c1.488-2.908,2.113-5.309,2.126-13.482l0,0c0.016-6.475-0.227-11.744-1.636-14.734l0,0
	c-1.278-2.965-4.227-5.039-7.656-5.037l0,0c-2.046,0-3.91,0.734-5.361,1.955l0,0l-14.067,14.529
	c-0.56,0.563-0.903,1.327-0.903,2.184l0,0c0,0.967,0.44,1.82,1.137,2.391l0,0l-0.632,0.775l-0.719,0.695l0.719-0.695l0.632-0.775
	l0.047,0.036l13.959,14.424C545.162,237.075,546.959,237.753,548.927,237.753L548.927,237.753z"/>
<g>
	<g>
		<path fill="#F4F4F4" d="M91.567,222.712c-1.401-0.012-2.673-0.596-3.567-1.512l0,0l-14.456-14.271l-0.029-0.035
			c-1.494-1.792-2.396-4.104-2.394-6.615l0,0c0-0.021-0.002-0.066,0-0.102l0,0c0.043-4.252,2.648-7.883,6.313-9.42l0,0
			c3.226-1.438,7.77-1.658,13.264-1.672l0,0c0.75,0,1.519,0.006,2.305,0.018l0,0c8.199,0.066,11.19,0.793,14.425,2.514l0,0
			c3.013,1.805,5.024,5.105,5.024,8.867l0,0c0,0.041,0,0.059,0,0.104l0,0c-0.025,2.459-0.909,4.719-2.368,6.478l0,0l-0.033,0.041
			L95.49,220.921c-0.921,1.088-2.3,1.781-3.829,1.791l0,0l-0.017,0.002h-0.077V222.712z M89.416,219.792
			c0.544,0.551,1.281,0.896,2.112,0.922l0,0c0.048-0.004,0.073-0.004,0.083-0.004l0,0c0.006,0.002,0.011,0.002,0.011,0.002l0,0
			c0.954,0,1.798-0.43,2.367-1.109l0,0l0.037-0.046l14.551-13.808c1.157-1.414,1.856-3.209,1.877-5.144l0,0
			c-0.002-0.06-0.002-0.104-0.002-0.122l0,0c0-3.035-1.621-5.691-4.004-7.124l0,0c-2.895-1.515-5.289-2.165-13.468-2.258l0,0
			c-0.778-0.011-1.54-0.015-2.281-0.015l0,0c-5.421-0.012-9.822,0.291-12.465,1.504l0,0c-2.976,1.252-5.078,4.176-5.113,7.647l0,0
			c0,0,0,0,0,0.039l0,0c0.002,2.021,0.716,3.863,1.911,5.308l0,0L89.416,219.792L89.416,219.792z"/>
		<path fill="#F4F4F4" d="M77.459,276.929c-3.689-1.545-6.295-5.176-6.337-9.398l0,0c-0.002-0.068-0.002-0.117-0.002-0.136l0,0
			c0-2.509,0.9-4.823,2.396-6.612l0,0l0.023-0.027l14.45-14.268c0.894-0.914,2.142-1.494,3.519-1.521l0,0
			c0.058-0.006,0.084-0.004,0.096-0.004l0,0c0.008,0,0.01,0,0.013,0l0,0c1.542,0,2.936,0.692,3.867,1.787l0,0l14.57,13.824
			l0.034,0.04c1.458,1.759,2.343,4.019,2.366,6.522l0,0c0,0,0,0.015,0,0.057l0,0c0,3.758-2.012,7.063-5.073,8.896l0,0
			c-3.187,1.695-6.179,2.42-14.38,2.486l0,0c-0.779,0.004-1.542,0.012-2.29,0.014l0,0C85.209,278.575,80.664,278.356,77.459,276.929
			L77.459,276.929z M73.12,267.395c0,0.039,0,0.052,0.002,0.083l0,0c0.031,3.434,2.135,6.357,5.135,7.619l0,0
			c2.621,1.199,7.024,1.502,12.452,1.49l0,0c0.737,0,1.496-0.006,2.272-0.01l0,0c8.177-0.095,10.571-0.744,13.417-2.232l0,0
			c2.433-1.461,4.054-4.119,4.054-7.152l0,0c0-0.021,0-0.061,0-0.081l0,0c-0.021-1.968-0.716-3.761-1.868-5.175l0,0l-14.515-13.773
			l0.687-0.725l0.769-0.641l-0.769,0.641l-0.687,0.725l-0.048-0.045l-0.033-0.041c-0.571-0.685-1.418-1.115-2.373-1.115l0,0h-0.021
			h-0.008c-0.854,0.012-1.615,0.361-2.183,0.938l0,0l-14.374,14.192C73.836,263.534,73.12,265.38,73.12,267.395L73.12,267.395z"/>
	</g>
	<g>
		<path fill="#F4F4F4" d="M125.04,254.503c-2.459-0.021-4.719-0.908-6.479-2.364l0,0l-0.046-0.04l-13.811-14.557
			c-1.098-0.932-1.795-2.326-1.793-3.873l0,0c0.001-0.002-0.004-0.015,0-0.09l0,0c0.024-1.386,0.604-2.642,1.512-3.531l0,0
			l14.26-14.443l0.048-0.038c1.788-1.495,4.098-2.396,6.607-2.396l0,0c0.009,0,0.052-0.002,0.124,0.002l0,0
			c4.247,0.051,7.869,2.654,9.404,6.313l0,0c1.438,3.231,1.658,7.783,1.668,13.288l0,0c0,0.741-0.004,1.5-0.01,2.277l0,0
			c-0.069,8.199-0.794,11.193-2.516,14.428l0,0c-1.807,3.01-5.108,5.021-8.87,5.021l0,0c-0.025-0.002-0.025,0-0.025,0l0,0
			l-0.038,0.002H125.04L125.04,254.503z M125.029,252.503c0.036-0.002,0.063-0.002,0.082-0.002l0,0c0.017,0,0.025,0,0.029,0l0,0
			c3.037,0.002,5.693-1.619,7.127-4.002l0,0c1.514-2.896,2.167-5.289,2.258-13.465l0,0c0.006-0.775,0.012-1.527,0.012-2.261l0,0
			c0.011-5.435-0.291-9.842-1.504-12.487l0,0c-1.25-2.978-4.175-5.082-7.606-5.113l0,0l-0.052-0.002l-0.035-0.004v0.002v0.002
			c-2.01,0-3.848,0.711-5.288,1.898l0,0l-14.215,14.396c-0.565,0.557-0.916,1.315-0.924,2.172l0,0l-0.002,0.058
			c0.008,0.94,0.438,1.78,1.115,2.345l0,0l-0.64,0.77l-0.725,0.688l0.725-0.688l0.64-0.77l0.042,0.035l13.808,14.553
			C121.284,251.779,123.068,252.476,125.029,252.503L125.029,252.503z"/>
		<path fill="#F4F4F4" d="M58.492,254.503l-0.027-0.002c-0.002,0.002,0,0-0.033,0.002l0,0c-3.76-0.002-7.061-2.015-8.895-5.071l0,0
			c-1.695-3.187-2.42-6.181-2.488-14.378l0,0c-0.008-0.781-0.013-1.545-0.013-2.285l0,0c0.011-5.503,0.231-10.053,1.66-13.258l0,0
			c1.541-3.678,5.155-6.278,9.393-6.338l0,0c0.087-0.006,0.132-0.002,0.144-0.002l0,0c2.509-0.002,4.821,0.899,6.612,2.396l0,0
			l0.033,0.028l14.26,14.443c0.926,0.907,1.51,2.18,1.522,3.582l0,0l0.002,0.067l-0.002,0.019c-0.01,1.525-0.699,2.905-1.783,3.828
			l0,0L65.06,252.095l-0.05,0.044c-1.757,1.456-4.018,2.343-6.477,2.364l0,0H58.492L58.492,254.503z M58.197,215.171l-0.052,0.002
			c-3.432,0.031-6.356,2.137-7.615,5.138l0,0c-1.203,2.62-1.506,7.03-1.494,12.458l0,0c0,0.734,0.002,1.488,0.013,2.264l0,0
			c0.091,8.178,0.741,10.571,2.231,13.418l0,0c1.46,2.432,4.117,4.055,7.152,4.055l0,0c0.007,0,0.044-0.004,0.107,0l0,0
			c1.961-0.026,3.749-0.725,5.158-1.877l0,0l13.766-14.506l0.042-0.047l0.044-0.035c0.683-0.568,1.111-1.414,1.111-2.367l0,0
			c0.001,0-0.001-0.014,0.001-0.067l0,0c-0.017-0.843-0.366-1.59-0.934-2.149l0,0l-14.213-14.395
			c-1.44-1.184-3.276-1.891-5.281-1.893l0,0c-0.005,0-0.01,0-0.014,0l0,0L58.197,215.171L58.197,215.171z"/>
	</g>
</g>
<path fill="#F4F4F4" d="M503.327,261.187c-3.131-1.654-5.329-4.891-5.494-8.68l0,0c-0.006-0.152-0.011-0.307-0.011-0.463l0,0
	c-0.002-2.287,0.748-4.42,2.026-6.14l0,0l0.043-0.058l13.8-14.565c0.879-1.153,2.255-1.924,3.813-1.991l0,0
	c0.06-0.004,0.135-0.008,0.229-0.008l0,0c1.313,0,2.524,0.506,3.42,1.327l0,0l15.188,13.478l0.036,0.039
	c1.608,1.73,2.639,4.03,2.748,6.58l0,0c0.006,0.153,0.008,0.307,0.011,0.451l0,0c-0.003,4.063-2.366,7.62-5.813,9.288l0,0
	c-3.574,1.822-8.939,2.188-15.458,2.485l0,0c-1.632,0.07-3.053,0.105-4.307,0.105l0,0c-0.043,0-0.084,0-0.127,0l0,0
	C508.449,263.036,505.957,262.415,503.327,261.187L503.327,261.187z M499.82,252.044c0,0.117,0.004,0.238,0.01,0.369l0,0
	c0.134,3.064,1.903,5.666,4.383,6.981l0,0c2.4,1.097,4.388,1.63,9.347,1.642l0,0c1.219,0,2.61-0.031,4.22-0.105l0,0
	c6.469-0.266,11.724-0.734,14.647-2.273l0,0c2.799-1.355,4.71-4.229,4.708-7.5l0,0c0-0.127-0.002-0.248-0.007-0.367l0,0
	c-0.088-2.043-0.905-3.877-2.188-5.274l0,0l-15.127-13.423c-0.556-0.506-1.281-0.809-2.08-0.812l0,0
	c-0.027,0-0.07,0.003-0.137,0.007l0,0c-0.968,0.043-1.801,0.519-2.34,1.238l0,0l-0.036,0.049l-13.802,14.568
	C500.411,248.523,499.822,250.218,499.82,252.044L499.82,252.044z"/>
<path fill="#F4F4F4" d="M84.296,115.622"/>
<path fill="#F4F4F4" d="M62.19,262.208l20.165-26.272l0.044-0.045c0.27-0.235,0.582-1.077,0.567-1.986l0,0
	c0.004-0.836-0.229-1.707-0.565-2.175l0,0L62.022,205.65l1.397-1.407l26.192,20.104c0.752,0.494,1.51,0.72,2.243,0.72l0,0
	c0.707,0,1.404-0.204,2.081-0.64l0,0l26.042-20.354l1.408,1.396l-20.163,26.269c-0.389,0.438-0.709,1.283-0.703,2.154l0,0
	c0,0.729,0.204,1.462,0.653,2.058l0,0l20.379,26.078l-1.396,1.41l-26.2-20.111c-0.38-0.299-1.373-0.549-2.31-0.533l0,0
	c-0.925-0.026-1.84,0.271-1.969,0.433l0,0l-26.079,20.379L62.19,262.208L62.19,262.208z M68.566,257.184l19.845-15.505
	c0.877-0.701,2.011-0.861,3.236-0.889l0,0c1.218,0.014,2.485,0.219,3.504,0.933l0,0l19.982,15.338l-15.546-19.894
	c-0.755-1.004-1.067-2.176-1.067-3.274l0,0c0.006-1.317,0.42-2.558,1.152-3.416l0,0l15.336-19.981l-19.905,15.557l-0.04,0.027
	c-0.979,0.645-2.086,0.989-3.208,0.986l0,0c-1.163,0.003-2.327-0.367-3.377-1.072l0,0l0.555-0.83l-0.607,0.793l-19.984-15.338
	l15.565,19.918c0.686,0.99,0.955,2.203,0.958,3.367l0,0c-0.014,1.229-0.282,2.438-1.076,3.32l0,0L68.566,257.184L68.566,257.184z"/>
<path fill="#F4F4F4" d="M37.912,233.839c0.002-29.756,24.122-53.875,53.876-53.877l0,0c29.755,0.002,53.875,24.121,53.875,53.877
	l0,0c0,29.754-24.12,53.873-53.875,53.875l0,0C62.033,287.712,37.914,263.593,37.912,233.839L37.912,233.839z M55.105,197.159
	c-9.387,9.389-15.191,22.352-15.193,36.68l0,0c0,14.328,5.806,27.291,15.193,36.682l0,0c9.391,9.391,22.355,15.193,36.683,15.193
	l0,0c14.328,0,27.29-5.805,36.681-15.193l0,0c9.389-9.391,15.193-22.354,15.193-36.682l0,0c0-14.328-5.804-27.291-15.193-36.68l0,0
	c-9.392-9.39-22.353-15.193-36.681-15.193l0,0C77.458,181.964,64.496,187.77,55.105,197.159L55.105,197.159z"/>
<g>
	<g>
		<path fill="#F4F4F4" d="M94.825,74.864c-1.364-0.01-2.603-0.579-3.473-1.469l0,0L77.373,59.592l-0.028-0.035
			c-1.449-1.737-2.325-3.981-2.323-6.415l0,0c0-0.021-0.002-0.067,0-0.102l0,0c0.042-4.125,2.571-7.646,6.125-9.136l0,0
			c3.129-1.394,7.521-1.607,12.833-1.618l0,0c0.728,0,1.471,0.004,2.233,0.012l0,0c7.928,0.065,10.83,0.768,13.965,2.437l0,0
			c2.922,1.75,4.873,4.955,4.873,8.602l0,0c0,0.041,0,0.057,0,0.1l0,0c-0.021,2.386-0.882,4.579-2.294,6.283l0,0l-0.041,0.049
			L98.644,73.121c-0.905,1.068-2.263,1.744-3.768,1.744l0,0C94.876,74.864,94.87,74.864,94.825,74.864L94.825,74.864z
			 M94.876,72.864c0.913,0,1.719-0.411,2.264-1.063l0,0l0.039-0.046l14.076-13.356c1.109-1.361,1.777-3.086,1.799-4.939l0,0
			c-0.002-0.063-0.002-0.104-0.002-0.122l0,0c0-2.922-1.561-5.48-3.854-6.858l0,0c-2.794-1.463-5.099-2.091-13.005-2.181l0,0
			c-0.754-0.008-1.492-0.012-2.211-0.012l0,0c-5.239-0.01-9.488,0.285-12.035,1.451l0,0c-2.865,1.205-4.891,4.02-4.924,7.362l0,0
			c0,0,0,0.002,0,0.043l0,0c0,1.933,0.682,3.698,1.82,5.087l0,0l13.925,13.753c0.532,0.541,1.26,0.874,2.03,0.882l0,0
			c0.021,0,0.037-0.001,0.048-0.001l0,0C94.869,72.863,94.876,72.864,94.876,72.864L94.876,72.864z"/>
		<path fill="#F4F4F4" d="M81.171,127.284c-3.58-1.5-6.106-5.021-6.147-9.113l0,0c-0.004-0.071-0.002-0.119-0.002-0.137l0,0
			c0-2.436,0.874-4.68,2.324-6.414l0,0l0.029-0.035l13.966-13.791c0.87-0.89,2.085-1.455,3.426-1.482l0,0
			c0.053-0.004,0.081-0.004,0.093-0.002l0,0c0.006,0,0.01,0,0.01,0l0,0c1.507,0,2.868,0.678,3.774,1.747l0,0l14.072,13.354
			l0.041,0.047c1.414,1.705,2.271,3.898,2.295,6.328l0,0c0,0,0,0.014,0,0.055l0,0c0,3.646-1.954,6.849-4.922,8.627l0,0
			c-3.087,1.644-5.99,2.346-13.919,2.41l0,0c-0.757,0.006-1.497,0.013-2.221,0.013l0,0C88.675,128.88,84.279,128.667,81.171,127.284
			L81.171,127.284z M77.02,118.034c0,0.041,0,0.045,0.002,0.082l0,0c0.031,3.305,2.058,6.121,4.947,7.336l0,0
			c2.524,1.156,6.777,1.451,12.021,1.438l0,0c0.714,0,1.45-0.005,2.203-0.011l0,0c7.904-0.09,10.21-0.717,12.955-2.151l0,0
			c2.342-1.407,3.903-3.968,3.903-6.888l0,0c0-0.021,0-0.061,0-0.078l0,0c-0.02-1.9-0.691-3.629-1.805-4.992l0,0L97.221,99.463
			l0.688-0.724l0.769-0.641l-0.769,0.641l-0.688,0.724l-0.047-0.045l-0.035-0.041c-0.546-0.655-1.356-1.066-2.271-1.066l0,0h-0.024
			c-0.818,0.01-1.544,0.344-2.089,0.896l0,0l-13.906,13.732C77.706,114.327,77.022,116.099,77.02,118.034L77.02,118.034z"/>
	</g>
	<g>
		<path fill="#F4F4F4" d="M120.905,103.308l-0.049-0.041l-13.351-14.071c-1.067-0.906-1.746-2.265-1.746-3.77l0,0
			c0.001,0-0.004-0.023,0.003-0.108l0,0c0.027-1.34,0.591-2.556,1.47-3.417l0,0l13.806-13.979l0.031-0.026
			c1.736-1.448,3.978-2.321,6.409-2.321l0,0c0.021,0,0.069-0.002,0.106,0.002l0,0c4.126,0.039,7.647,2.568,9.139,6.124l0,0
			c1.395,3.133,1.605,7.535,1.615,12.857l0,0c0,0.72-0.004,1.454-0.01,2.205l0,0c-0.065,7.929-0.769,10.833-2.438,13.967l0,0
			c-1.752,2.921-4.955,4.873-8.602,4.873l0,0c-0.041,0-0.055,0-0.1,0.002l0,0C124.803,105.583,122.61,104.721,120.905,103.308
			L120.905,103.308z M127.163,103.605c0.065-0.002,0.104-0.002,0.125-0.002l0,0c2.921,0,5.481-1.561,6.86-3.855l0,0
			c1.462-2.795,2.091-5.1,2.18-13.002l0,0c0.006-0.749,0.01-1.479,0.01-2.188l0,0c0.012-5.25-0.281-9.51-1.45-12.06l0,0
			c-1.204-2.864-4.021-4.892-7.36-4.924l0,0c0,0.002-0.008,0-0.051,0.002l0,0c-1.94,0-3.712,0.687-5.1,1.834l0,0l-13.734,13.907
			c-0.541,0.534-0.875,1.261-0.883,2.081l0,0v0.057l-0.001,0.011c0.014,0.894,0.421,1.69,1.064,2.227l0,0l-0.638,0.769l-0.724,0.688
			l0.724-0.688l0.638-0.769l0.045,0.035l13.358,14.078C123.589,102.915,125.313,103.584,127.163,103.605L127.163,103.605z"/>
		<path fill="#F4F4F4" d="M54.157,100.683c-1.642-3.086-2.344-5.991-2.409-13.918l0,0c-0.01-0.755-0.015-1.493-0.015-2.213l0,0
			c0.013-5.32,0.223-9.72,1.61-12.827l0,0c1.499-3.58,5.021-6.109,9.108-6.148l0,0c0.075-0.004,0.12-0.002,0.143-0.002l0,0
			c2.434,0,4.675,0.873,6.414,2.321l0,0l0.039,0.033l13.784,13.963c0.902,0.883,1.469,2.121,1.481,3.533l0,0
			c0,0,0,0.004,0.002,0.004l0,0c0,1.504-0.68,2.861-1.746,3.767l0,0l-13.349,14.071l-0.051,0.041
			c-1.706,1.414-3.898,2.274-6.324,2.294l0,0c0,0-0.019,0-0.059,0.002l0,0C59.138,105.603,55.936,103.649,54.157,100.683
			L54.157,100.683z M62.51,67.576c-3.305,0.031-6.122,2.058-7.335,4.947l0,0c-1.159,2.523-1.452,6.782-1.44,12.029l0,0
			c0,0.714,0.004,1.442,0.012,2.193l0,0c0.09,7.905,0.716,10.209,2.152,12.957l0,0c1.406,2.342,3.965,3.902,6.887,3.902l0,0
			c0.018,0,0.061,0,0.082,0l0,0c1.892-0.018,3.618-0.688,4.98-1.798l0,0l13.315-14.033l0.035-0.037l0.051-0.043
			c0.655-0.545,1.065-1.354,1.065-2.264l0,0c0,0-0.002-0.015,0-0.033l0,0c-0.008-0.818-0.343-1.544-0.896-2.089l0,0L67.689,69.4
			c-1.39-1.142-3.158-1.826-5.095-1.828l0,0C62.553,67.574,62.549,67.574,62.51,67.576L62.51,67.576z"/>
	</g>
</g>
<path fill="#F4F4F4" d="M66.393,112.999l19.501-25.407l0.043-0.043c0.251-0.216,0.553-1.023,0.537-1.897l0,0
	c0.006-0.804-0.219-1.64-0.537-2.083l0,0L66.231,58.354l1.397-1.409l25.339,19.447c0.719,0.472,1.438,0.681,2.137,0.681l0,0
	c0.675,0,1.344-0.197,1.995-0.616l0,0l25.174-19.674l1.409,1.395L104.184,83.58c-0.369,0.421-0.678,1.229-0.671,2.063l0,0
	c0,0.699,0.196,1.399,0.625,1.967l0,0l19.706,25.218l-1.396,1.408l-25.33-19.445c-0.357-0.28-1.315-0.522-2.216-0.51l0,0
	c-0.89-0.027-1.772,0.263-1.882,0.41l0,0l-25.218,19.706L66.393,112.999L66.393,112.999z M72.772,107.975l18.979-14.829
	c0.864-0.688,1.962-0.837,3.151-0.864l0,0c1.183,0.012,2.41,0.21,3.408,0.906l0,0l19.114,14.67l-14.872-19.03
	c-0.735-0.977-1.04-2.118-1.04-3.186l0,0c0.008-1.282,0.411-2.485,1.123-3.322l0,0l14.674-19.12L98.261,78.086l-0.039,0.027
	c-0.952,0.627-2.028,0.962-3.118,0.962l0,0c-1.131,0-2.265-0.359-3.286-1.043l0,0l0.558-0.832l-0.61,0.792l-19.114-14.67
	l14.891,19.056c0.668,0.964,0.927,2.142,0.933,3.273l0,0c-0.016,1.207-0.28,2.389-1.071,3.255l0,0L72.772,107.975L72.772,107.975z"
	/>
<path fill="#F4F4F4" d="M42.912,85.59C42.914,56.8,66.25,33.465,95.037,33.465l0,0c28.788,0,52.124,23.336,52.125,52.125l0,0
	c-0.002,28.788-23.338,52.124-52.125,52.124l0,0C66.249,137.714,42.914,114.378,42.912,85.59L42.912,85.59z M59.594,50.146
	c-9.072,9.075-14.681,21.6-14.681,35.445l0,0c0,13.844,5.609,26.37,14.681,35.444l0,0c9.075,9.071,21.598,14.68,35.443,14.68l0,0
	c13.844,0,26.369-5.607,35.443-14.68l0,0c9.072-9.074,14.682-21.6,14.682-35.444l0,0c0-13.846-5.609-26.371-14.682-35.445l0,0
	c-9.074-9.072-21.6-14.679-35.443-14.681l0,0C81.191,35.465,68.668,41.072,59.594,50.146L59.594,50.146z"/>
<path fill="#F4F4F4" d="M313.596,297.394v-0.934v-0.932h17.869c5.19-0.011,9.39-4.209,9.399-9.4l0,0
	c-0.01-5.191-4.209-9.392-9.399-9.401l0,0h-17.869c-5.191,0.011-9.392,4.21-9.401,9.401l0,0c0.011,5.191,4.209,9.391,9.401,9.4l0,0
	v0.932V297.394c-6.222,0-11.267-5.044-11.267-11.266l0,0c0-6.224,5.045-11.267,11.267-11.267l0,0h17.869
	c6.222,0,11.265,5.043,11.265,11.267l0,0c0,6.222-5.043,11.266-11.265,11.266l0,0H313.596L313.596,297.394z"/>
<path fill="#F4F4F4" d="M258.844,295.462v-1.002v-1h17.667c3.636-0.006,6.578-2.945,6.584-6.582l0,0
	c-0.006-3.637-2.948-6.578-6.584-6.584l0,0h-17.667c-3.634,0.006-6.576,2.947-6.582,6.584l0,0c0.006,3.637,2.948,6.576,6.582,6.582
	l0,0v1V295.462c-4.741-0.002-8.582-3.844-8.582-8.584l0,0c0-4.74,3.841-8.584,8.582-8.584l0,0h17.667
	c4.741,0,8.583,3.844,8.583,8.584l0,0c0,4.74-3.843,8.582-8.583,8.584l0,0H258.844L258.844,295.462z"/>
<path fill="#F4F4F4" d="M208.679,295.462v-1.002v-1h17.667c3.634-0.006,6.576-2.945,6.582-6.582l0,0
	c-0.006-3.637-2.948-6.578-6.582-6.584l0,0h-17.667c-3.636,0.006-6.578,2.947-6.584,6.584l0,0c0.006,3.637,2.948,6.576,6.584,6.582
	l0,0v1V295.462c-4.741-0.002-8.583-3.844-8.583-8.584l0,0c0-4.74,3.841-8.584,8.583-8.584l0,0h17.667
	c4.741,0,8.582,3.844,8.582,8.584l0,0c0,4.74-3.841,8.582-8.582,8.584l0,0H208.679L208.679,295.462z"/>
</svg>
