<?xml version="1.0" encoding="utf-8"?>
<!-- Generator: Adobe Illustrator 13.0.0, SVG Export Plug-In . SVG Version: 6.00 Build 14948)  -->
<!DOCTYPE svg [
	<!ENTITY ns_flows "http://ns.adobe.com/Flows/1.0/">
	<!ENTITY ns_extend "http://ns.adobe.com/Extensibility/1.0/">
	<!ENTITY ns_ai "http://ns.adobe.com/AdobeIllustrator/10.0/">
	<!ENTITY ns_graphs "http://ns.adobe.com/Graphs/1.0/">
	<!ENTITY ns_vars "http://ns.adobe.com/Variables/1.0/">
	<!ENTITY ns_imrep "http://ns.adobe.com/ImageReplacement/1.0/">
	<!ENTITY ns_sfw "http://ns.adobe.com/SaveForWeb/1.0/">
	<!ENTITY ns_custom "http://ns.adobe.com/GenericCustomNamespace/1.0/">
	<!ENTITY ns_adobe_xpath "http://ns.adobe.com/XPath/1.0/">
]>
<svg version="1.2" baseProfile="tiny"
	 id="Layer_3" xmlns:x="&ns_extend;" xmlns:i="&ns_ai;" xmlns:graph="&ns_graphs;" xmlns:rdf="http://www.w3.org/1999/02/22-rdf-syntax-ns#" xmlns:dc="http://purl.org/dc/elements/1.1/" xmlns:cc="http://creativecommons.org/ns#"
	 xmlns="http://www.w3.org/2000/svg" xmlns:xlink="http://www.w3.org/1999/xlink" xmlns:a="http://ns.adobe.com/AdobeSVGViewerExtensions/3.0/"
	 x="0px" y="0px" width="598.189px" height="350.26px" viewBox="0 0 598.189 350.26" xml:space="preserve">
<metadata  id="metadata55">
	<rdf:RDF>
		<cc:Work  rdf:about="">
			<dc:format>image/svg+xml</dc:format>
			<dc:type  rdf:resource="http://purl.org/dc/dcmitype/StillImage"></dc:type>
			<dc:title></dc:title>
		</cc:Work>
	</rdf:RDF>
	<sfw  xmlns="&ns_sfw;">
		<slices></slices>
		<sliceSourceBounds  x="-7231" y="-7652" width="16383" height="16383" bottomLeftOrigin="true"></sliceSourceBounds>
	</sfw>
</metadata>
<path id="path3" fill="#F4F4F4" d="M35.325,4.909c-2.444,0-4.725-0.055-6.587,0.65c-0.931,0.352-1.752,0.943-2.318,1.81
	s-0.848,1.962-0.848,3.308v325.047c0,1.345,0.277,2.418,0.876,3.224c0.599,0.805,1.471,1.274,2.403,1.499
	c1.865,0.447,4.084,0.169,6.475,0.169h526.988c2.391,0,4.609,0.278,6.475-0.169c0.934-0.225,1.806-0.694,2.404-1.499
	c0.448-0.604,0.658-1.412,0.763-2.318h0.113v-0.905V10.677c0-1.346-0.254-2.441-0.82-3.308s-1.415-1.457-2.347-1.81
	c-1.863-0.701-4.144-0.646-6.587-0.646H35.327L35.325,4.909z M35.325,6.718h526.988c2.447,0,4.595,0.029,5.938,0.537
	c0.672,0.253,1.141,0.597,1.471,1.103c0.335,0.504,0.543,1.217,0.543,2.318v324.143v0.904c0,1.101-0.212,1.749-0.509,2.149
	c-0.298,0.4-0.716,0.631-1.386,0.791c-1.341,0.322-3.549,0.142-6.051,0.142H35.331c-2.501,0-4.71,0.181-6.051-0.142
	c-0.669-0.163-1.087-0.398-1.384-0.796c-0.298-0.398-0.509-1.05-0.509-2.154V10.677c0-1.101,0.208-1.814,0.537-2.318
	c0.33-0.506,0.798-0.85,1.471-1.103c1.343-0.509,3.49-0.537,5.937-0.537H35.325z"/>
<path id="path5" fill="#F4F4F4" d="M52.318,96.32c-8.13,0-15.267,4.208-19.368,10.574l1.499,0.99
	c3.78-5.868,10.365-9.755,17.87-9.755h492.489c7.604,0,14.257,3.983,18.011,9.98l1.528-0.958
	c-4.073-6.509-11.299-10.83-19.538-10.83H52.32L52.318,96.32z"/>
<path id="path7" fill="#F4F4F4" d="M42.14,106.047c-3.426,0-6.545,1.346-8.85,3.533l1.244,1.33c1.982-1.882,4.653-3.054,7.606-3.054
	h512.847c3.265,0,6.176,1.43,8.199,3.676l1.357-1.217c-2.353-2.611-5.77-4.27-9.557-4.27L42.14,106.047L42.14,106.047z"/>
<path id="path9" fill="#F4F4F4" d="M50.114,133.308c-1.712,0-3.11,1.398-3.11,3.11v17.926c0,1.712,1.398,3.139,3.11,3.139h28.783
	c1.711,0,3.139-1.427,3.139-3.139v-0.905h-0.028v-17.021c0-1.712-1.399-3.11-3.11-3.11H50.114L50.114,133.308z M50.114,135.117
	h28.783c0.733,0,1.301,0.567,1.301,1.301v17.926v0.057c-0.035,0.701-0.591,1.272-1.301,1.272H50.114
	c-0.734,0-1.301-0.595-1.301-1.329v-17.926C48.813,135.685,49.379,135.117,50.114,135.117L50.114,135.117z"/>
<path id="path11" fill="#F4F4F4" d="M97.898,133.308c-1.712,0-3.11,1.398-3.11,3.11v17.926c0,1.712,1.398,3.139,3.11,3.139h28.783
	c1.712,0,3.11-1.427,3.11-3.139v-0.905v-17.021c0-1.711-1.398-3.11-3.11-3.11H97.898z M97.898,135.117h28.783
	c0.734,0,1.301,0.567,1.301,1.301v17.926c0,0.734-0.568,1.329-1.301,1.329H97.898c-0.733,0-1.301-0.595-1.301-1.329v-17.926
	C96.598,135.685,97.166,135.117,97.898,135.117z"/>
<path id="path13" fill="#F4F4F4" d="M145.683,133.308c-1.712,0-3.11,1.398-3.11,3.11v17.926c0,1.711,1.398,3.139,3.11,3.139h28.783
	c1.711,0,3.11-1.427,3.11-3.139v-17.926c0-1.712-1.399-3.11-3.11-3.11H145.683z M145.683,135.117h28.783
	c0.733,0,1.301,0.567,1.301,1.301v17.926c0,0.734-0.568,1.329-1.301,1.329h-28.783c-0.734,0-1.301-0.594-1.301-1.329v-17.926
	C144.382,135.685,144.949,135.117,145.683,135.117z"/>
<path id="path15" fill="#F4F4F4" d="M193.465,133.308c-1.712,0-3.139,1.398-3.139,3.11v17.926c0,1.711,1.427,3.139,3.139,3.139
	h28.783c1.712,0,3.11-1.427,3.11-3.139v-17.926c0-1.711-1.398-3.11-3.11-3.11H193.465z M193.465,135.117h28.783
	c0.734,0,1.301,0.567,1.301,1.301v17.926c0,0.735-0.566,1.329-1.301,1.329h-28.783c-0.735,0-1.33-0.594-1.33-1.329v-17.926
	C192.135,135.685,192.731,135.117,193.465,135.117z"/>
<path id="path17" fill="#F4F4F4" d="M241.256,133.308c-1.711,0-3.139,1.398-3.139,3.11v17.926c0,1.711,1.426,3.139,3.139,3.139
	h28.783c1.712,0,3.11-1.427,3.11-3.139v-17.926c0-1.712-1.398-3.11-3.11-3.11H241.256z M241.256,135.117h28.783
	c0.733,0,1.301,0.567,1.301,1.301v17.926c0,0.734-0.568,1.329-1.301,1.329h-28.783c-0.734,0-1.329-0.594-1.329-1.329v-17.926
	C239.927,135.685,240.523,135.117,241.256,135.117z"/>
<path id="path19" fill="#F4F4F4" d="M289.011,133.308c-1.712,0-3.11,1.398-3.11,3.11v17.926c0,1.712,1.398,3.139,3.11,3.139h28.783
	c1.711,0,3.139-1.427,3.139-3.139v-17.926c0-1.711-1.426-3.11-3.139-3.11H289.011z M289.011,135.117h28.783
	c0.734,0,1.329,0.567,1.329,1.301v17.926c0,0.734-0.596,1.329-1.329,1.329h-28.783c-0.733,0-1.301-0.595-1.301-1.329v-17.926
	C287.71,135.685,288.278,135.117,289.011,135.117z"/>
<path id="path21" fill="#F4F4F4" d="M336.793,133.308c-1.712,0-3.11,1.398-3.11,3.11v17.926c0,1.711,1.398,3.139,3.11,3.139h28.783
	c1.712,0,3.139-1.427,3.139-3.139v-17.926c0-1.711-1.426-3.11-3.139-3.11H336.793z M336.793,135.117h28.783
	c0.734,0,1.329,0.567,1.329,1.301v17.926c0,0.734-0.596,1.329-1.329,1.329h-28.783c-0.735,0-1.301-0.594-1.301-1.329v-17.926
	C335.492,135.685,336.059,135.117,336.793,135.117z"/>
<path id="path23" fill="#F4F4F4" d="M384.575,133.308c-1.712,0-3.11,1.398-3.11,3.11v17.926c0,1.711,1.398,3.139,3.11,3.139h28.783
	c1.711,0,3.11-1.427,3.11-3.139v-17.926c0-1.711-1.397-3.11-3.11-3.11H384.575z M384.575,135.117h28.783
	c0.734,0,1.301,0.567,1.301,1.301v17.926c0,0.734-0.567,1.329-1.301,1.329h-28.783c-0.734,0-1.301-0.594-1.301-1.329v-17.926
	C383.274,135.685,383.842,135.117,384.575,135.117z"/>
<path id="path25" fill="#F4F4F4" d="M432.357,133.308c-1.712,0-3.11,1.398-3.11,3.11v17.926c0,1.711,1.397,3.139,3.11,3.139h28.782
	c1.713,0,3.11-1.427,3.11-3.139v-17.926c0-1.711-1.397-3.11-3.11-3.11H432.357z M432.357,135.117h28.782
	c0.735,0,1.301,0.567,1.301,1.301v17.926c0,0.734-0.566,1.329-1.301,1.329h-28.782c-0.734,0-1.301-0.594-1.301-1.329v-17.926
	C431.057,135.685,431.624,135.117,432.357,135.117z"/>
<path id="path27" fill="#F4F4F4" d="M480.148,133.308c-1.711,0-3.138,1.398-3.138,3.11v17.926c0,1.711,1.426,3.139,3.138,3.139
	h28.783c1.712,0,3.11-1.427,3.11-3.139v-17.926c0-1.711-1.398-3.11-3.11-3.11H480.148z M480.148,135.117h28.783
	c0.734,0,1.301,0.567,1.301,1.301v17.926c0,0.734-0.567,1.329-1.301,1.329h-28.783c-0.733,0-1.329-0.594-1.329-1.329v-17.926
	C478.819,135.685,479.415,135.117,480.148,135.117z"/>
<path id="path29" fill="#F4F4F4" d="M75.363,180.014c-1.712,0-3.11,1.397-3.11,3.11v17.954c0,1.711,1.398,3.11,3.11,3.11h28.783
	c1.712,0,3.11-1.398,3.11-3.11v-17.954c0-1.713-1.397-3.11-3.11-3.11H75.363z M75.363,181.823h28.783c0.734,0,1.3,0.567,1.3,1.301
	v17.954c0,0.732-0.566,1.301-1.3,1.301H75.363c-0.733,0-1.301-0.569-1.301-1.301v-17.954
	C74.062,182.389,74.63,181.823,75.363,181.823z"/>
<path id="path31" fill="#F4F4F4" d="M123.144,180.014c-1.712,0-3.139,1.397-3.139,3.11v17.954c0,1.711,1.426,3.11,3.139,3.11h28.783
	c1.712,0,3.11-1.399,3.11-3.11v-17.954c0-1.712-1.397-3.11-3.11-3.11H123.144z M123.144,181.823h28.783
	c0.734,0,1.301,0.566,1.301,1.301v17.954c0,0.733-0.566,1.301-1.301,1.301h-28.783c-0.734,0-1.329-0.569-1.329-1.301v-17.954
	C121.815,182.389,122.41,181.823,123.144,181.823z"/>
<path id="path33" fill="#F4F4F4" d="M170.936,180.014c-1.712,0-3.139,1.397-3.139,3.11v17.954c0,1.711,1.426,3.11,3.139,3.11h28.783
	c1.712,0,3.11-1.398,3.11-3.11v-17.954c0-1.713-1.397-3.11-3.11-3.11H170.936z M170.936,181.823h28.783
	c0.734,0,1.301,0.567,1.301,1.301v17.954c0,0.732-0.566,1.301-1.301,1.301h-28.783c-0.734,0-1.33-0.569-1.33-1.301v-17.954
	C169.606,182.389,170.202,181.823,170.936,181.823z"/>
<path id="path35" fill="#F4F4F4" d="M218.69,180.014c-1.712,0-3.11,1.397-3.11,3.11v17.954c0,1.711,1.397,3.11,3.11,3.11h28.783
	c1.711,0,3.139-1.398,3.139-3.11v-17.954c0-1.712-1.426-3.11-3.139-3.11H218.69z M218.69,181.823h28.783
	c0.734,0,1.329,0.566,1.329,1.301v17.954c0,0.732-0.596,1.301-1.329,1.301H218.69c-0.734,0-1.301-0.569-1.301-1.301v-17.954
	C217.39,182.389,217.956,181.823,218.69,181.823z"/>
<path id="path37" fill="#F4F4F4" d="M266.473,180.014c-1.712,0-3.11,1.397-3.11,3.11v17.954c0,1.711,1.397,3.11,3.11,3.11h28.783
	c1.712,0,3.139-1.399,3.139-3.11v-17.954c0-1.712-1.426-3.11-3.139-3.11H266.473z M266.473,181.823h28.783
	c0.734,0,1.329,0.566,1.329,1.301v17.954c0,0.733-0.595,1.301-1.329,1.301h-28.783c-0.734,0-1.301-0.569-1.301-1.301v-17.954
	C265.172,182.389,265.739,181.823,266.473,181.823z"/>
<path id="path39" fill="#F4F4F4" d="M314.255,180.014c-1.712,0-3.111,1.396-3.111,3.11v17.954c0,1.711,1.398,3.11,3.111,3.11h28.783
	c1.711,0,3.139-1.398,3.139-3.11v-17.954c0-1.713-1.427-3.11-3.139-3.11H314.255z M314.255,181.823h28.783
	c0.732,0,1.329,0.567,1.329,1.301v17.954c0,0.732-0.598,1.301-1.329,1.301h-28.783c-0.734,0-1.301-0.569-1.301-1.301v-17.954
	C312.954,182.39,313.522,181.823,314.255,181.823z"/>
<path id="path41" fill="#F4F4F4" d="M362.046,180.014c-1.712,0-3.11,1.397-3.11,3.11v17.954c0,1.711,1.397,3.11,3.11,3.11h28.783
	c1.712,0,3.11-1.398,3.11-3.11v-17.954c0-1.712-1.397-3.11-3.11-3.11H362.046z M362.046,181.823h28.783
	c0.733,0,1.301,0.566,1.301,1.301v17.954c0,0.732-0.568,1.301-1.301,1.301h-28.783c-0.733,0-1.301-0.569-1.301-1.301v-17.954
	C360.745,182.389,361.313,181.823,362.046,181.823z"/>
<path id="path43" fill="#F4F4F4" d="M409.828,180.014c-1.712,0-3.11,1.397-3.11,3.11v17.954c0,1.71,1.396,3.11,3.11,3.11h28.783
	c1.712,0,3.11-1.398,3.11-3.11v-17.954c0-1.713-1.398-3.11-3.11-3.11H409.828z M409.828,181.823h28.783
	c0.734,0,1.301,0.567,1.301,1.301v17.954c0,0.732-0.568,1.301-1.301,1.301h-28.783c-0.735,0-1.3-0.568-1.3-1.301v-17.954
	C408.528,182.389,409.093,181.823,409.828,181.823z"/>
<path id="path45" fill="#F4F4F4" d="M457.61,180.014c-1.712,0-3.139,1.396-3.139,3.11v17.954c0,1.711,1.426,3.11,3.139,3.11h28.783
	c1.712,0,3.109-1.398,3.109-3.11v-17.954c0-1.712-1.396-3.11-3.109-3.11H457.61z M457.61,181.823h28.783
	c0.733,0,1.3,0.566,1.3,1.301v17.954c0,0.732-0.567,1.301-1.3,1.301H457.61c-0.732,0-1.329-0.569-1.329-1.301v-17.954
	C456.281,182.39,456.879,181.823,457.61,181.823z"/>
<path id="path47" fill="#F4F4F4" d="M505.392,180.014c-1.711,0-3.138,1.397-3.138,3.11v17.954c0,1.711,1.426,3.11,3.138,3.11h28.784
	c1.712,0,3.11-1.399,3.11-3.11v-17.954c0-1.712-1.398-3.11-3.11-3.11H505.392z M505.392,181.823h28.784
	c0.733,0,1.301,0.566,1.301,1.301v17.954c0,0.733-0.567,1.301-1.301,1.301h-28.784c-0.733,0-1.328-0.569-1.328-1.301v-17.954
	C504.063,182.389,504.659,181.823,505.392,181.823z"/>
<path id="path49" fill="#F4F4F4" d="M87.549,226.728c-1.712,0-3.138,1.427-3.138,3.139v17.926c0,1.711,1.426,3.11,3.138,3.11h28.784
	c1.711,0,3.11-1.398,3.11-3.11v-0.905v-17.021c0-1.711-1.398-3.139-3.11-3.139H87.549z M87.549,228.538h28.784
	c0.733,0,1.3,0.595,1.3,1.328v17.926c0,0.734-0.567,1.301-1.3,1.301H87.549c-0.733,0-1.329-0.567-1.329-1.301v-17.926
	C86.221,229.132,86.816,228.538,87.549,228.538z"/>
<path id="path51" fill="#F4F4F4" d="M135.304,226.728c-1.712,0-3.11,1.427-3.11,3.139v17.926c0,1.711,1.398,3.11,3.11,3.11h28.784
	c1.712,0,3.138-1.399,3.138-3.11v-17.926c0-1.711-1.426-3.139-3.138-3.139H135.304z M135.304,228.538h28.784
	c0.733,0,1.329,0.595,1.329,1.328v17.926c0,0.735-0.594,1.301-1.329,1.301h-28.784c-0.734,0-1.3-0.567-1.3-1.301v-17.926
	C134.004,229.132,134.57,228.538,135.304,228.538z"/>
<path id="path53" fill="#F4F4F4" d="M183.086,226.728c-1.711,0-3.11,1.427-3.11,3.139v17.926c0,1.711,1.398,3.11,3.11,3.11h28.784
	c1.712,0,3.138-1.398,3.138-3.11v-17.926c0-1.712-1.426-3.139-3.138-3.139H183.086z M183.086,228.538h28.784
	c0.733,0,1.329,0.595,1.329,1.328v17.926c0,0.734-0.594,1.301-1.329,1.301h-28.784c-0.733,0-1.3-0.567-1.3-1.301v-17.926
	C181.786,229.132,182.354,228.538,183.086,228.538z"/>
<path id="path55" fill="#F4F4F4" d="M230.878,226.728c-1.712,0-3.11,1.427-3.11,3.139v17.926c0,1.711,1.398,3.11,3.11,3.11h28.783
	c1.711,0,3.138-1.398,3.138-3.11v-17.926c0-1.712-1.426-3.139-3.138-3.139H230.878z M230.878,228.538h28.783
	c0.733,0,1.329,0.595,1.329,1.328v17.926c0,0.734-0.595,1.301-1.329,1.301h-28.783c-0.734,0-1.301-0.567-1.301-1.301v-17.926
	C229.577,229.132,230.144,228.538,230.878,228.538z"/>
<path id="path57" fill="#F4F4F4" d="M278.66,226.728c-1.711,0-3.11,1.427-3.11,3.139v17.926c0,1.711,1.398,3.11,3.11,3.11h28.784
	c1.711,0,3.11-1.398,3.11-3.11v-17.926c0-1.711-1.398-3.139-3.11-3.139H278.66z M278.66,228.538h28.784
	c0.733,0,1.301,0.595,1.301,1.328v17.926c0,0.734-0.567,1.301-1.301,1.301H278.66c-0.734,0-1.3-0.567-1.3-1.301v-17.926
	C277.359,229.132,277.927,228.538,278.66,228.538z"/>
<path id="path59" fill="#F4F4F4" d="M326.442,226.728c-1.713,0-3.11,1.427-3.11,3.139v17.926c0,1.711,1.397,3.11,3.11,3.11h28.783
	c1.711,0,3.11-1.398,3.11-3.11v-17.926c0-1.711-1.398-3.139-3.11-3.139H326.442z M326.442,228.538h28.783
	c0.734,0,1.301,0.595,1.301,1.328v17.926c0,0.734-0.567,1.301-1.301,1.301h-28.783c-0.734,0-1.301-0.567-1.301-1.301v-17.926
	C325.142,229.132,325.709,228.538,326.442,228.538z"/>
<path id="path61" fill="#F4F4F4" d="M374.225,226.728c-1.712,0-3.139,1.427-3.139,3.139v17.926c0,1.711,1.426,3.11,3.139,3.11
	h28.782c1.712,0,3.11-1.398,3.11-3.11v-17.926c0-1.711-1.396-3.139-3.11-3.139H374.225z M374.225,228.538h28.782
	c0.734,0,1.301,0.595,1.301,1.328v17.926c0,0.734-0.566,1.301-1.301,1.301h-28.782c-0.734,0-1.329-0.567-1.329-1.301v-17.926
	C372.896,229.132,373.491,228.538,374.225,228.538z"/>
<path id="path63" fill="#F4F4F4" d="M422.016,226.728c-1.712,0-3.139,1.427-3.139,3.139v17.926c0,1.711,1.426,3.11,3.139,3.11
	h28.783c1.711,0,3.11-1.398,3.11-3.11v-17.926c0-1.711-1.398-3.139-3.11-3.139H422.016z M422.016,228.538h28.783
	c0.734,0,1.301,0.595,1.301,1.328v17.926c0,0.734-0.567,1.301-1.301,1.301h-28.783c-0.735,0-1.329-0.567-1.329-1.301v-17.926
	C420.687,229.132,421.281,228.538,422.016,228.538z"/>
<path id="path65" fill="#F4F4F4" d="M469.771,226.728c-1.712,0-3.109,1.427-3.109,3.139v17.926c0,1.711,1.396,3.11,3.109,3.11
	h28.783c1.712,0,3.139-1.399,3.139-3.11v-17.926c0-1.71-1.425-3.139-3.139-3.139H469.771z M469.771,228.538h28.783
	c0.735,0,1.329,0.594,1.329,1.328v17.926c0,0.735-0.595,1.301-1.329,1.301h-28.783c-0.735,0-1.3-0.566-1.3-1.301v-17.926
	C468.471,229.132,469.036,228.538,469.771,228.538z"/>
<path id="path67" fill="#F4F4F4" d="M110.084,273.46c-1.71,0-3.139,1.398-3.139,3.11v17.927c0,1.711,1.427,3.138,3.139,3.138h28.783
	c1.712,0,3.11-1.427,3.11-3.138V276.57c0-1.712-1.398-3.11-3.11-3.11H110.084z M110.084,275.27h28.783
	c0.735,0,1.301,0.566,1.301,1.301v17.927c0,0.733-0.566,1.328-1.301,1.328h-28.783c-0.733,0-1.329-0.596-1.329-1.328V276.57
	C108.755,275.835,109.35,275.27,110.084,275.27z"/>
<path id="path69" fill="#F4F4F4" d="M50.735,273.46c-1.711,0-3.11,1.398-3.11,3.11v17.927c0,1.711,1.398,3.138,3.11,3.138h37.209
	c1.711,0,3.11-1.426,3.11-3.138v-0.905V276.57c0-1.712-1.399-3.11-3.11-3.11H50.735z M50.735,275.27h37.209
	c0.735,0,1.301,0.566,1.301,1.301v17.927c0,0.733-0.567,1.328-1.301,1.328H50.735c-0.733,0-1.301-0.596-1.301-1.328V276.57
	C49.435,275.835,50.001,275.27,50.735,275.27z"/>
<path id="path71" fill="#F4F4F4" d="M157.87,273.46c-1.71,0-3.138,1.398-3.138,3.11v17.927c0,1.71,1.426,3.138,3.138,3.138h28.784
	c1.711,0,3.11-1.426,3.11-3.138V276.57c0-1.712-1.398-3.11-3.11-3.11H157.87z M157.87,275.27h28.784c0.733,0,1.3,0.566,1.3,1.301
	v17.927c0,0.733-0.567,1.328-1.3,1.328H157.87c-0.734,0-1.329-0.596-1.329-1.328V276.57
	C156.541,275.835,157.136,275.27,157.87,275.27z"/>
<path id="path73" fill="#F4F4F4" d="M205.625,273.46c-1.711,0-3.11,1.398-3.11,3.11v17.927c0,1.711,1.398,3.138,3.11,3.138h28.783
	c1.712,0,3.139-1.426,3.139-3.138V276.57c0-1.712-1.427-3.11-3.139-3.11H205.625z M205.625,275.27h28.783
	c0.735,0,1.329,0.566,1.329,1.301v17.927c0,0.733-0.594,1.328-1.329,1.328h-28.783c-0.733,0-1.301-0.596-1.301-1.328V276.57
	C204.324,275.835,204.891,275.27,205.625,275.27z"/>
<path id="path75" fill="#F4F4F4" d="M253.407,273.46c-1.711,0-3.11,1.398-3.11,3.11v17.927c0,1.71,1.398,3.138,3.11,3.138h28.783
	c1.711,0,3.139-1.426,3.139-3.138V276.57c0-1.712-1.427-3.11-3.139-3.11H253.407z M253.407,275.27h28.783
	c0.733,0,1.329,0.566,1.329,1.301v17.927c0,0.733-0.596,1.328-1.329,1.328h-28.783c-0.734,0-1.301-0.596-1.301-1.328V276.57
	C252.106,275.834,252.672,275.27,253.407,275.27z"/>
<path id="path77" fill="#F4F4F4" d="M301.189,273.46c-1.712,0-3.11,1.398-3.11,3.11v17.927c0,1.71,1.398,3.138,3.11,3.138h28.783
	c1.712,0,3.11-1.427,3.11-3.138V276.57c0-1.712-1.398-3.11-3.11-3.11H301.189z M301.189,275.27h28.783c0.735,0,1.3,0.565,1.3,1.301
	v17.927c0,0.733-0.564,1.328-1.3,1.328h-28.783c-0.735,0-1.301-0.596-1.301-1.328V276.57
	C299.889,275.834,300.454,275.27,301.189,275.27z"/>
<path id="path79" fill="#F4F4F4" d="M348.98,273.46c-1.711,0-3.11,1.398-3.11,3.11v17.927c0,1.71,1.398,3.138,3.11,3.138h28.783
	c1.712,0,3.11-1.426,3.11-3.138V276.57c0-1.712-1.397-3.11-3.11-3.11H348.98z M348.98,275.27h28.783
	c0.736,0,1.301,0.566,1.301,1.301v17.927c0,0.733-0.566,1.328-1.301,1.328H348.98c-0.734,0-1.301-0.596-1.301-1.328V276.57
	C347.68,275.834,348.247,275.27,348.98,275.27z"/>
<path id="path81" fill="#F4F4F4" d="M396.763,273.46c-1.711,0-3.11,1.398-3.11,3.11v17.927c0,1.71,1.397,3.138,3.11,3.138h28.783
	c1.712,0,3.11-1.426,3.11-3.138V276.57c0-1.712-1.398-3.11-3.11-3.11H396.763z M396.763,275.27h28.783
	c0.736,0,1.301,0.566,1.301,1.301v17.927c0,0.733-0.565,1.328-1.301,1.328h-28.783c-0.736,0-1.301-0.596-1.301-1.328V276.57
	C395.462,275.834,396.027,275.27,396.763,275.27z"/>
<path id="path83" fill="#F4F4F4" d="M444.545,273.46c-1.711,0-3.139,1.398-3.139,3.11v17.927c0,1.71,1.426,3.138,3.139,3.138h28.783
	c1.711,0,3.11-1.426,3.11-3.138V276.57c0-1.712-1.398-3.11-3.11-3.11H444.545z M444.545,275.27h28.783
	c0.734,0,1.301,0.566,1.301,1.301v17.927c0,0.733-0.567,1.328-1.301,1.328h-28.783c-0.734,0-1.329-0.596-1.329-1.328V276.57
	C443.216,275.835,443.812,275.27,444.545,275.27z"/>
<path id="path85" fill="#F4F4F4" d="M493.458,273.46c-1.71,0-3.11,1.398-3.11,3.11v17.927c0,1.71,1.398,3.138,3.11,3.138h49.623
	c1.711,0,3.109-1.426,3.109-3.138V276.57c0-1.712-1.398-3.11-3.109-3.11H493.458z M493.458,275.27h49.623
	c0.734,0,1.3,0.566,1.3,1.301v17.927c0,0.733-0.567,1.328-1.3,1.328h-49.623c-0.734,0-1.301-0.596-1.301-1.328V276.57
	C492.157,275.835,492.724,275.27,493.458,275.27z"/>
<path id="path87" fill="#F4F4F4" d="M517.553,226.728c-1.712,0-3.11,1.427-3.11,3.139v17.926c0,1.711,1.398,3.11,3.11,3.11h28.783
	c1.712,0,3.139-1.398,3.139-3.11v-17.926c0-1.711-1.425-3.139-3.139-3.139H517.553z M517.553,228.538h28.783
	c0.735,0,1.329,0.595,1.329,1.328v17.926c0,0.734-0.594,1.301-1.329,1.301h-28.783c-0.734,0-1.301-0.566-1.301-1.301v-17.926
	C516.252,229.132,516.819,228.538,517.553,228.538z"/>
<path id="path89" fill="none" stroke="#F4F4F4" stroke-width="1.8096" d="M489.649,339.465"/>
<path id="line91" fill="#F4F4F4" d="M507.094,296.424l-14.618,34.156l1.668,0.706l14.59-34.155L507.094,296.424L507.094,296.424z"/>
<path id="line93" fill="#F4F4F4" d="M527.025,249.8l-10.349,24.204l1.669,0.706l10.349-24.203L527.025,249.8z"/>
<path id="line95" fill="#F4F4F4" d="M570.229,148.743l-33.533,78.406l1.669,0.707l33.532-78.406L570.229,148.743z"/>
<path id="path97" fill="none" stroke="#F4F4F4" stroke-width="1.8096" d="M496.888,339.465"/>
<path id="line99" fill="#F4F4F4" d="M514.269,296.506l-14.533,33.957l1.668,0.735l14.533-33.985L514.269,296.506L514.269,296.506z"
	/>
<path id="line101" fill="#F4F4F4" d="M534.21,249.882l-10.292,24.09l1.64,0.707l10.323-24.095l-1.664-0.706L534.21,249.882z"/>
<path id="line103" fill="#F4F4F4" d="M570.311,165.429l-26.465,61.893l1.668,0.706l26.466-61.893L570.311,165.429z"/>
<path id="path105" fill="none" stroke="#F4F4F4" stroke-width="1.8096" d="M504.116,339.465"/>
<path id="line107" fill="#F4F4F4" d="M521.543,296.397l-14.788,34.608l1.668,0.706l14.788-34.607L521.543,296.397z"/>
<path id="line109" fill="#F4F4F4" d="M541.476,249.764l-10.35,24.231l1.669,0.706l10.35-24.23L541.476,249.764z"/>
<path id="line111" fill="#F4F4F4" d="M570.148,182.728l-22.507,52.592l1.668,0.707l22.507-52.592L570.148,182.728z"/>
<path id="path113" fill="none" stroke="#F4F4F4" stroke-width="1.8096" d="M511.354,339.465"/>
<path id="line115" fill="#F4F4F4" d="M528.637,296.705l-14.59,34.184l1.668,0.707l14.59-34.185l-1.665-0.706H528.637z"/>
<path id="line117" fill="#F4F4F4" d="M570.456,198.878l-32.148,75.239l1.64,0.735l32.177-75.269L570.456,198.878L570.456,198.878z"
	/>
<path id="path119" fill="none" stroke="#F4F4F4" stroke-width="1.8096" d="M518.584,339.465"/>
<path id="line121" fill="#F4F4F4" d="M536.02,296.397l-14.621,34.183l1.664,0.733l14.622-34.211l-1.668-0.707L536.02,296.397z"/>
<path id="line123" fill="#F4F4F4" d="M570.43,215.897l-25.958,60.706l1.669,0.707l25.957-60.707L570.43,215.897z"/>
<path id="polygon125" fill="#F4F4F4" d="M45.562,14.042v0.905v13.176v0.905h0.905h25.221v0.311H46.353h-0.905v0.905v4.863v0.905
	h0.905h33.76h0.905v-0.905V22.58v-0.905h-0.905H53.336v-0.17h27.116h0.905V20.6v-5.655v-0.905h-0.905H46.466L45.562,14.042
	L45.562,14.042z M47.371,15.851h32.176v3.845H52.432h-0.905v0.905v1.979v0.905h0.905h26.776v10.716h-31.95v-3.054h25.334h0.905
	v-0.905v-2.121v-0.905h-0.905H47.371V15.851L47.371,15.851z"/>
<path id="rect127" fill="#F4F4F4" d="M81.696,13.815v0.904v20.386v0.905h0.905h6.871h0.905v-0.905V14.72v-0.904h-0.905h-6.871
	H81.696z M83.506,15.625h5.061v18.576h-5.061V15.625z"/>
<path id="rect129" fill="#F4F4F4" d="M81.498,9.065V9.97v2.714v0.905h0.905h7.125h0.905v-0.905V9.97V9.065h-0.905h-7.125H81.498z
	 M83.308,10.875h5.316v0.905h-5.316V10.875z"/>
<path id="rect131" fill="#F4F4F4" d="M205.254,13.815v0.904v20.839v0.905h0.905h6.871h0.905v-0.905V14.72v-0.904h-0.905h-6.871
	H205.254z M207.063,15.625h5.062v19.029h-5.062V15.625z"/>
<path id="rect133" fill="#F4F4F4" d="M205.028,9.065V9.97v2.714v0.905h0.905h7.153h0.905v-0.905V9.97V9.065h-0.905h-7.153H205.028z
	 M206.837,10.875h5.344v0.905h-5.344V10.875z"/>
<path id="polygon135" fill="#F4F4F4" d="M90.575,14.042v0.905v20.047v0.905h0.905h6.022h0.905v-0.905V21.902h18.463v13.26v0.905
	h0.905h6.079h0.905v-0.905V14.945v-0.905h-0.905H91.479L90.575,14.042L90.575,14.042z M92.384,15.851h30.565v18.407h-4.27v-13.26
	v-0.905h-0.905H97.502h-0.904v0.905v13.091h-4.213V15.851L92.384,15.851z"/>
<path id="polygon137" fill="#F4F4F4" d="M125.442,13.759v0.905v20.611v0.905h0.904h33.93h0.905v-0.905v-6.164v-0.905h-0.905h-25.448
	v-6.361h25.023h0.905V20.94v-6.277v-0.905h-0.905h-33.506H125.442L125.442,13.759z M127.252,15.568h31.696v4.467h-25.023h-0.905
	v0.905v8.171v0.905h0.905h25.447v4.354h-32.12V15.568L127.252,15.568z"/>
<path id="rect139" fill="#F4F4F4" d="M161.091,9.348v0.905v25.022v0.905h0.905h6.701h0.905v-0.905V10.252V9.348h-0.905h-6.701
	H161.091z M162.9,11.157h4.892V34.37H162.9V11.157z"/>
<path id="polygon141" fill="#F4F4F4" d="M169.578,13.759v0.905v5.429v0.905h0.905h26.38v1.301h-26.352h-0.905v0.904v12.074v0.905
	h0.905h33.45h0.905v-0.905V14.664v-0.905h-0.905h-33.478H169.578L169.578,13.759z M171.388,15.568h31.668V34.37h-31.64V24.106
	h26.352h0.905v-0.905v-3.11v-0.905h-0.905h-26.38V15.568L171.388,15.568z"/>
<path id="polygon143" fill="#F4F4F4" d="M213.687,13.759v0.905v20.837v0.905h0.905h6.813h0.905v-0.905V21.392h27.087h0.905v-0.905
	v-5.825v-0.905h-0.905h-34.806L213.687,13.759L213.687,13.759z M215.497,15.568h32.997v4.015h-27.088h-0.904v0.905v14.109h-5.005
	L215.497,15.568L215.497,15.568z"/>
<path id="rect145" fill="#F4F4F4" d="M176.645,26.284v0.905v4.043v0.905h0.904h20.16h0.905v-0.905v-4.043v-0.905h-0.905h-20.16
	H176.645z M178.454,28.094h18.35v2.234h-18.35V28.094z"/>
<path id="line147" fill="#F4F4F4" d="M26.419,330.154v1.81h544.74v-1.81H26.419z"/>
</svg>
