<?xml version="1.0" encoding="UTF-8" standalone="no"?>
<svg
   xmlns:dc="http://purl.org/dc/elements/1.1/"
   xmlns:cc="http://creativecommons.org/ns#"
   xmlns:rdf="http://www.w3.org/1999/02/22-rdf-syntax-ns#"
   xmlns:svg="http://www.w3.org/2000/svg"
   xmlns="http://www.w3.org/2000/svg"
   xmlns:sodipodi="http://sodipodi.sourceforge.net/DTD/sodipodi-0.dtd"
   xmlns:inkscape="http://www.inkscape.org/namespaces/inkscape"
   viewBox="0 0 49.414665 49.414665"
   height="49.414665"
   width="49.414665"
   xml:space="preserve"
   id="svg2"
   version="1.1"
   inkscape:version="0.91 r13725"
   sodipodi:docname="F1.svg"><sodipodi:namedview
     pagecolor="#ffffff"
     bordercolor="#666666"
     borderopacity="1"
     objecttolerance="10"
     gridtolerance="10"
     guidetolerance="10"
     inkscape:pageopacity="0"
     inkscape:pageshadow="2"
     inkscape:window-width="1855"
     inkscape:window-height="1056"
     id="namedview18"
     showgrid="false"
     inkscape:zoom="13.508314"
     inkscape:cx="26.95176"
     inkscape:cy="28.534337"
     inkscape:window-x="65"
     inkscape:window-y="24"
     inkscape:window-maximized="1"
     inkscape:current-layer="g14" /><metadata
     id="metadata8"><rdf:RDF><cc:Work
         rdf:about=""><dc:format>image/svg+xml</dc:format><dc:type
           rdf:resource="http://purl.org/dc/dcmitype/StillImage" /><dc:title /></cc:Work></rdf:RDF></metadata><defs
     id="defs6"><clipPath
       id="clipPath18"
       clipPathUnits="userSpaceOnUse"><path
         id="path16"
         d="M 0,37.061 H 37.061 V 0 H 0 Z" /></clipPath></defs><g
     transform="matrix(1.3333333,0,0,-1.3333333,0,49.414667)"
     id="g10"><g
       id="g12"><g
         clip-path="url(#clipPath18)"
         id="g14"><path
           style="fill:#f6ffd5;fill-opacity:1"
           d="m -0.0743987,36.007208 0,-3.860336 0,-32.88673806 38.1606417,0 0,36.74707406 -33.9221406,0 -2.1098119,0 z m 4.2011726,-7.810546 12.5683561,0 0,-2.490235 -9.6093711,0 0,-6.445313 8.6718701,0 0,-2.490236 -8.6718701,0 0,-10.4443375 -2.958985,0 z m 22.8662081,0 2.958984,0 0,-19.3798864 4.833984,0 0,-2.4902351 -12.597656,0 0,2.4902351 4.833984,0 0,16.6845734 -5.258789,-1.054687 0,2.695312 z"
           id="rect4227"
           inkscape:connector-curvature="0"
           sodipodi:nodetypes="ccccccccccccccccccccccccccccccc" /><g
           transform="matrix(1,0,0,-1,0.47111488,-1.9571635e-8)"
           style="font-style:normal;font-weight:normal;font-size:30px;line-height:125%;font-family:sans-serif;letter-spacing:0px;word-spacing:0px;fill:#ffffff;fill-opacity:1;stroke:none;stroke-width:1px;stroke-linecap:butt;stroke-linejoin:miter;stroke-opacity:1"
           id="text4206" /></g></g></g></svg>