<?xml version="1.0" encoding="UTF-8" standalone="no"?>
<svg
   xmlns:dc="http://purl.org/dc/elements/1.1/"
   xmlns:cc="http://creativecommons.org/ns#"
   xmlns:rdf="http://www.w3.org/1999/02/22-rdf-syntax-ns#"
   xmlns:svg="http://www.w3.org/2000/svg"
   xmlns="http://www.w3.org/2000/svg"
   id="svg4"
   version="1.1"
   viewBox="0 0 24 24"
   height="24"
   width="24">
  <metadata
     id="metadata10">
    <rdf:RDF>
      <cc:Work
         rdf:about="">
        <dc:format>image/svg+xml</dc:format>
        <dc:type
           rdf:resource="http://purl.org/dc/dcmitype/StillImage" />
        <dc:title></dc:title>
      </cc:Work>
    </rdf:RDF>
  </metadata>
  <defs
     id="defs8" />
  <path
     style="fill:#ffffff"
     id="path2"
     d="M17.622 3c-1.913 0-2.558 1.382-5.623 1.382-3.009 0-3.746-1.382-5.623-1.382-5.209 0-6.376 10.375-6.376 14.348 0 2.145.817 3.652 2.469 3.652 3.458 0 2.926-5 6.915-5h5.23c3.989 0 3.457 5 6.915 5 1.652 0 2.471-1.506 2.471-3.651 0-3.973-1.169-14.349-6.378-14.349zm-10.622 10c-1.657 0-3-1.343-3-3s1.343-3 3-3 3 1.343 3 3-1.343 3-3 3zm10-6c.552 0 1 .447 1 1 0 .553-.448 1-1 1s-1-.447-1-1c0-.553.448-1 1-1zm-2 4c-.552 0-1-.447-1-1 0-.553.448-1 1-1s1 .447 1 1c0 .553-.448 1-1 1zm2 2c-.552 0-1-.447-1-1 0-.553.448-1 1-1s1 .447 1 1c0 .553-.448 1-1 1zm2-2c-.552 0-1-.447-1-1 0-.553.448-1 1-1s1 .447 1 1c0 .553-.448 1-1 1zm-10.25-1c0 .965-.785 1.75-1.75 1.75s-1.75-.785-1.75-1.75.785-1.75 1.75-1.75 1.75.785 1.75 1.75z" />
</svg>
