<?xml version="1.0" encoding="utf-8"?>
<!-- Generator: Adobe Illustrator 22.0.1, SVG Export Plug-In . SVG Version: 6.00 Build 0)  -->
<svg xmlns="http://www.w3.org/2000/svg" xmlns:xlink="http://www.w3.org/1999/xlink" version="1.1" id="Calque_1" x="0px" y="0px" viewBox="0 0 960 960" style="enable-background:new 0 0 960 960;" xml:space="preserve">
<g>
	<path d="M233.8,575.3c4.9,2.9,8.5,7,11,12.2c2.4,5.2,3.1,10.8,1.8,16.6c-0.8,3.6-2.2,6.9-4.2,9.8c-2.1,2.9-4.5,5.3-7.4,7.1   c-2.9,1.8-6.1,3.1-9.5,3.8c-3.5,0.7-7,0.7-10.7-0.1l-28.9-6c-3.8-0.8-6.8-2.8-8.9-6c-2.1-3.2-2.8-6.8-2-10.6l13.5-64.5   c0.8-3.9,2.8-6.9,6.1-9c3.2-2.1,6.7-2.8,10.6-2l14.7,3.2c3.7,0.8,7,2.2,9.9,4.2c2.9,2.1,5.3,4.5,7.3,7.4c1.9,2.9,3.3,6.1,4,9.6   c0.7,3.5,0.7,7.1-0.1,10.7C239.8,567.2,237.4,571.7,233.8,575.3z M217.7,611c3.4,0.7,6.6,0.1,9.6-1.8c2.9-1.9,4.8-4.6,5.5-8   c0.7-3.5,0.1-6.8-1.8-9.7c-1.9-2.9-4.6-4.8-8-5.5l-28.9-6l-5.2,25L217.7,611z M202.2,540.5l-5.4,25.8l14.7,3.1l0-0.1   c3.6,0.8,6.9,0.2,9.9-1.8c3-2,4.9-4.8,5.6-8.4c0.7-3.5,0.1-6.8-1.8-9.8c-2-3-4.8-4.9-8.4-5.6L202.2,540.5z"/>
	<path d="M335.5,567.4c2.5,5.3,4,11.1,4.7,17.3c0.6,6.3,0.3,12.6-1.1,19.1l-6.6,30.9c-0.8,3.9-2.9,6.9-6.2,9.1   c-3.3,2.2-6.9,2.8-10.8,2l2.9-14l3.5-16.9l-49.1-10.2l-6.4,30.9c-3.9-0.8-6.9-2.9-9.1-6.2c-2.2-3.3-2.8-6.9-2-10.8l6.4-30.9   c1.4-6.5,3.5-12.5,6.6-18c3-5.5,6.7-10.2,11.1-14c4.8-4.2,9.8-7.1,15.1-8.6c5.3-1.6,10.7-1.8,16.1-0.7c5.4,1.1,10.3,3.5,14.5,7.1   C329.5,557,332.9,561.7,335.5,567.4z M324.9,600.9c1-4.8,1.3-9.4,0.9-14c-0.4-4.6-1.4-8.7-3-12.3c-1.6-3.7-3.6-6.8-6.2-9.3   c-2.6-2.5-5.5-4.1-8.8-4.8c-3.3-0.7-6.7-0.4-10,0.9c-3.4,1.3-6.5,3.3-9.4,6c-2.9,2.7-5.5,6.1-7.7,10.1c-2.2,4-3.8,8.4-4.8,13.2   L324.9,600.9z"/>
	<path d="M414.3,570.2c-0.8,3.9-2.8,6.9-6.1,9c-3.2,2.1-6.8,2.8-10.7,1.9l-13.7-2.9l-13.5,64.5c-0.8,3.8-2.8,6.8-6,8.9   c-3.2,2.1-6.8,2.8-10.6,2l2.9-13.7l13.5-64.5l-13.9-2.9c-3.8-0.8-6.8-2.8-8.9-6c-2.1-3.2-2.8-6.8-1.9-10.7l13.7,2.9l41.4,8.6   L414.3,570.2z"/>
	<path d="M436.2,673.5c-6.7-1.4-12.7-4-18.1-7.7c-5.4-3.8-9.8-8.3-13.3-13.6c-3.5-5.3-5.9-11.2-7.1-17.6c-1.3-6.4-1.2-13,0.1-19.7   c1.4-6.7,4-12.7,7.7-18c3.8-5.3,8.3-9.7,13.6-13.2c5.3-3.5,11.2-5.9,17.6-7.2c6.4-1.3,13-1.2,19.7,0.1c6.7,1.4,12.7,4,18.1,7.7   c5.4,3.8,9.8,8.3,13.3,13.6c3.5,5.3,5.9,11.2,7.2,17.5c1.3,6.4,1.3,12.9-0.1,19.6c-1.4,6.7-4,12.7-7.7,18.1   c-3.8,5.4-8.3,9.8-13.6,13.3c-5.3,3.5-11.2,5.9-17.6,7.1C449.4,675,442.9,674.9,436.2,673.5z M453.6,590.4c-4.8-1-9.4-1-14-0.1   c-4.6,0.9-8.8,2.6-12.6,5.1s-7.1,5.6-9.7,9.5c-2.7,3.8-4.5,8.1-5.5,12.9c-1,4.8-1,9.5-0.1,14.1c0.9,4.6,2.6,8.8,5.1,12.6   c2.5,3.8,5.6,7.1,9.5,9.7c3.8,2.7,8.1,4.5,12.9,5.5c4.8,1,9.4,1,14,0.1c4.6-0.9,8.8-2.7,12.6-5.1c3.8-2.5,7.1-5.7,9.8-9.5   c2.7-3.9,4.5-8.2,5.5-13c1-4.8,1-9.4,0.1-14c-0.9-4.6-2.7-8.8-5.1-12.6s-5.6-7.1-9.5-9.7C462.6,593.2,458.3,591.4,453.6,590.4z"/>
	<path d="M560.2,682.5c3.8,0.8,6.8,2.8,8.9,6c2.1,3.2,2.8,6.8,2,10.6l-13.7-2.9l-12.4-2.6c-6.9-1.4-13-4-18.5-7.6   c-5.5-3.6-10-8-13.6-13.1c-3.6-5.1-6.1-10.7-7.5-16.9c-1.4-6.2-1.4-12.4-0.1-18.7c1.3-6.3,3.8-12,7.6-17.1   c3.8-5.1,8.3-9.2,13.6-12.5c5.3-3.2,11.3-5.4,17.7-6.6c6.5-1.2,13.1-1.1,20,0.4l12.4,2.6l13.7,2.9c-0.8,3.9-2.8,6.9-6.1,9   c-3.2,2.1-6.8,2.8-10.6,2l-12.4-2.6c-5-1-9.8-1.2-14.5-0.4c-4.7,0.8-8.9,2.3-12.8,4.6c-3.8,2.3-7.1,5.2-9.7,8.7   c-2.7,3.5-4.5,7.5-5.4,11.9c-0.9,4.5-0.9,8.9,0.2,13.2c1,4.3,2.9,8.2,5.4,11.8c2.6,3.6,5.9,6.7,9.9,9.2c4,2.6,8.5,4.4,13.4,5.4   L560.2,682.5z"/>
	<path d="M620.2,695c3.8,0.8,6.8,2.8,8.9,6c2.1,3.2,2.8,6.8,2,10.6l-13.7-2.9l-27.6-5.8c-3.8-0.8-6.8-2.8-8.9-6   c-2.1-3.2-2.8-6.8-2-10.6l13.5-64.5c0.8-3.9,2.8-6.9,6.1-9c3.2-2.1,6.8-2.8,10.6-2l27.6,5.8l13.7,2.9c-0.8,3.9-2.8,6.9-6.1,9   c-3.2,2.1-6.8,2.8-10.6,2l-27.6-5.8l-4.6,21.9l13.9,2.9c3.8,0.8,6.8,2.8,8.9,6c2.1,3.2,2.8,6.8,1.9,10.7l-13.7-2.9l-13.9-2.9   l-6,28.8L620.2,695z"/>
	<path d="M693.3,710.3L701,722c-1.6,1.1-3.4,1.7-5.2,2.1c-1.9,0.3-3.7,0.3-5.4-0.1c-1.8-0.4-3.4-1.1-4.9-2.1c-1.5-1-2.8-2.3-3.9-3.9   l-23.2-35.5l-4.1,19.6c-0.8,3.8-2.8,6.8-6,8.9s-6.8,2.8-10.6,2l2.9-13.7l10.1-48.5l0.2-0.9c0.9-4.3,2.5-8.2,5-11.6   c2.4-3.4,5.3-6.3,8.8-8.5c3.5-2.3,7.2-3.8,11.3-4.7c4.1-0.8,8.3-0.8,12.6,0.1c4.3,0.9,8.2,2.6,11.7,5c3.5,2.4,6.3,5.4,8.6,8.8   c2.3,3.5,3.8,7.2,4.7,11.3c0.8,4.1,0.8,8.3-0.1,12.6c-0.8,4-2.3,7.7-4.5,11c-2.2,3.3-4.8,6.1-7.9,8.3c-3.1,2.2-6.5,3.9-10.3,4.9   c-3.8,1.1-7.6,1.4-11.6,0.9L693.3,710.3z M664.5,652.8c-0.5,2.5-0.5,4.9-0.1,7.2c0.5,2.3,1.3,4.4,2.6,6.3c1.2,1.9,2.8,3.5,4.8,4.9   c2,1.4,4.1,2.3,6.5,2.8c2.4,0.5,4.7,0.5,7.1,0.1c2.3-0.5,4.5-1.3,6.4-2.5c1.9-1.2,3.6-2.8,5-4.8c1.4-2,2.3-4.1,2.8-6.5   c0.5-2.4,0.5-4.7,0.1-7.1c-0.5-2.3-1.3-4.5-2.6-6.4c-1.3-1.9-2.9-3.5-4.9-4.9c-2-1.4-4.1-2.3-6.5-2.8c-2.4-0.5-4.7-0.5-7.1-0.1   c-2.3,0.5-4.5,1.3-6.4,2.6s-3.5,2.8-4.9,4.8C665.9,648.2,665,650.4,664.5,652.8z"/>
	<path d="M793.3,662.9c2.5,5.3,4,11.1,4.7,17.3c0.6,6.3,0.3,12.6-1.1,19.1l-6.6,30.9c-0.8,3.9-2.9,6.9-6.2,9.1   c-3.3,2.2-6.9,2.8-10.8,2l2.9-14l3.5-16.9l-49.1-10.2l-6.4,30.9c-3.9-0.8-6.9-2.9-9.1-6.2c-2.2-3.3-2.8-6.9-2-10.8l6.4-30.9   c1.4-6.5,3.5-12.5,6.6-18c3-5.5,6.8-10.2,11.1-14c4.8-4.2,9.8-7.1,15.1-8.6c5.3-1.6,10.7-1.8,16.1-0.7c5.4,1.1,10.3,3.5,14.5,7.1   C787.3,652.6,790.7,657.2,793.3,662.9z M782.8,696.4c1-4.8,1.3-9.4,0.9-14c-0.4-4.6-1.4-8.7-3-12.3c-1.6-3.7-3.6-6.8-6.2-9.3   c-2.6-2.5-5.5-4.1-8.8-4.8c-3.3-0.7-6.7-0.4-10,0.9c-3.4,1.3-6.5,3.3-9.4,6c-2.9,2.7-5.5,6.1-7.7,10.1c-2.2,4-3.8,8.4-4.8,13.2   L782.8,696.4z"/>
</g>
<g>
	<path d="M177.7,655.3c-2-0.4-3.8-1.2-5.3-2.3c-1.6-1.1-2.9-2.4-3.9-4c-1-1.6-1.7-3.3-2.1-5.2c-0.4-1.9-0.4-3.8,0-5.8   c0.4-2,1.2-3.7,2.3-5.3s2.4-2.9,4-3.9c1.6-1,3.3-1.7,5.2-2.1c1.9-0.4,3.8-0.4,5.8,0c2,0.4,3.8,1.2,5.3,2.3c1.6,1.1,2.9,2.4,3.9,4   c1,1.6,1.7,3.3,2.1,5.2c0.4,1.9,0.4,3.8,0,5.8c-0.4,2-1.2,3.8-2.3,5.3c-1.1,1.6-2.4,2.9-4,3.9c-1.6,1-3.3,1.7-5.2,2.1   C181.6,655.8,179.6,655.8,177.7,655.3z M182.8,630.8c-1.4-0.3-2.8-0.3-4.1,0c-1.4,0.3-2.6,0.8-3.7,1.5c-1.1,0.7-2.1,1.7-2.9,2.8   c-0.8,1.1-1.3,2.4-1.6,3.8c-0.3,1.4-0.3,2.8,0,4.2c0.3,1.4,0.8,2.6,1.5,3.7c0.7,1.1,1.7,2.1,2.8,2.9c1.1,0.8,2.4,1.3,3.8,1.6   c1.4,0.3,2.8,0.3,4.1,0c1.4-0.3,2.6-0.8,3.7-1.5c1.1-0.7,2.1-1.7,2.9-2.8c0.8-1.1,1.3-2.4,1.6-3.8c0.3-1.4,0.3-2.8,0-4.1   c-0.3-1.4-0.8-2.6-1.5-3.7c-0.7-1.1-1.7-2.1-2.8-2.9C185.5,631.6,184.2,631.1,182.8,630.8z"/>
	<path d="M206.3,643.6c0.3-1.6,0.9-3.1,1.7-4.4c0.8-1.3,1.8-2.4,2.9-3.2c1.1-0.9,2.4-1.5,3.7-1.8c1.4-0.3,2.7-0.4,4.1-0.1   s2.7,0.9,3.8,1.7c1.1,0.9,2,1.9,2.7,3.2c0.7,1.3,1.2,2.6,1.4,4.2c0.2,1.5,0.2,3.1-0.1,4.7l-2.5,12.3l-0.8,4.1   c-1.1-0.2-2-0.8-2.6-1.8c-0.6-1-0.8-2-0.6-3.1l2.5-12.3c0.2-1,0.3-2.1,0.1-3c-0.1-1-0.4-1.9-0.8-2.7c-0.4-0.8-0.9-1.5-1.6-2   c-0.7-0.5-1.4-0.9-2.2-1.1c-0.8-0.2-1.7-0.1-2.5,0.1c-0.8,0.2-1.6,0.6-2.3,1.2c-0.7,0.6-1.3,1.3-1.8,2.1c-0.5,0.8-0.9,1.8-1.1,2.8   l-2.6,12.3c-0.2,1.1-0.8,2-1.8,2.6s-2,0.8-3.1,0.6l0.8-4.1L206.3,643.6z"/>
	<path d="M247.6,665c1.1,0.2,2,0.8,2.6,1.8c0.6,1,0.8,2,0.6,3.1l-4.1-0.8l-8.1-1.7c-0.6-0.1-1.1-0.3-1.5-0.6   c-0.4-0.3-0.8-0.7-1.1-1.1c-0.3-0.4-0.5-0.9-0.6-1.5c-0.1-0.5-0.1-1.1,0-1.7l4-19l0.8-4.1c1.2,0.2,2,0.8,2.7,1.8   c0.6,1,0.8,2,0.6,3.1l-4,19.1L247.6,665z"/>
	<path d="M277.4,655.9c-0.2,1.1-0.7,2.1-1.3,3.1c-0.6,0.9-1.4,1.7-2.3,2.3c-0.9,0.6-1.9,1.1-3,1.5c-1.1,0.3-2.3,0.5-3.5,0.4   l-1.2,5.6c-0.2,1.1-0.8,2-1.8,2.6s-2,0.8-3.1,0.6l0.8-4.1l1.2-5.6c-1.1-0.5-2.1-1.1-2.9-1.8c-0.9-0.8-1.6-1.6-2.1-2.5s-0.9-2-1.1-3   c-0.2-1.1-0.2-2.2,0-3.3l0.9-4.4l0.8-4.1c1.1,0.2,2,0.8,2.6,1.8c0.6,1,0.8,2,0.6,3.1l-0.9,4.4c-0.1,0.7-0.1,1.4,0,2.1   c0.2,0.7,0.5,1.3,0.9,1.9c0.5,0.6,1,1.1,1.7,1.5c0.7,0.4,1.5,0.7,2.3,0.9c0.8,0.2,1.7,0.2,2.5,0.1c0.8-0.1,1.5-0.3,2.2-0.7   c0.6-0.3,1.2-0.8,1.6-1.4c0.4-0.6,0.7-1.2,0.9-1.9l0.9-4.4c0.2-1.1,0.8-2,1.8-2.6c1-0.6,2-0.8,3.1-0.6l-0.8,4.1L277.4,655.9z"/>
	<path d="M319,679.8c1.1,0.2,2,0.8,2.6,1.8c0.6,1,0.8,2,0.6,3.1l-4.1-0.8l-3.7-0.8c-2-0.4-3.8-1.2-5.5-2.2s-3-2.4-4-3.9   c-1.1-1.5-1.8-3.2-2.2-5c-0.4-1.8-0.4-3.7,0-5.5s1.1-3.5,2.2-5c1.1-1.5,2.4-2.7,4-3.7c1.6-0.9,3.3-1.6,5.2-2   c1.9-0.4,3.9-0.3,5.9,0.1l3.7,0.8l4.1,0.8c-0.2,1.2-0.8,2-1.8,2.7c-1,0.6-2,0.8-3.1,0.6l-3.7-0.8c-1.5-0.3-2.9-0.3-4.3-0.1   c-1.4,0.2-2.6,0.7-3.8,1.4c-1.1,0.7-2.1,1.5-2.9,2.6c-0.8,1-1.3,2.2-1.6,3.5c-0.3,1.3-0.3,2.6,0,3.9c0.3,1.3,0.8,2.4,1.6,3.5   c0.8,1.1,1.7,2,2.9,2.7c1.2,0.8,2.5,1.3,4,1.6L319,679.8z"/>
	<path d="M341,689.4c-2-0.4-3.8-1.2-5.3-2.3c-1.6-1.1-2.9-2.4-3.9-4c-1-1.6-1.7-3.3-2.1-5.2s-0.4-3.8,0-5.8c0.4-2,1.2-3.7,2.3-5.3   s2.4-2.9,4-3.9c1.6-1,3.3-1.7,5.2-2.1c1.9-0.4,3.8-0.4,5.8,0s3.8,1.2,5.3,2.3c1.6,1.1,2.9,2.4,3.9,4c1,1.6,1.7,3.3,2.1,5.2   c0.4,1.9,0.4,3.8,0,5.8c-0.4,2-1.2,3.8-2.3,5.3c-1.1,1.6-2.4,2.9-4,3.9c-1.6,1-3.3,1.7-5.2,2.1C344.9,689.8,342.9,689.8,341,689.4z    M346.1,664.9c-1.4-0.3-2.8-0.3-4.1,0c-1.4,0.3-2.6,0.8-3.7,1.5c-1.1,0.7-2.1,1.7-2.9,2.8c-0.8,1.1-1.3,2.4-1.6,3.8s-0.3,2.8,0,4.2   c0.3,1.4,0.8,2.6,1.5,3.7c0.7,1.1,1.7,2.1,2.8,2.9c1.1,0.8,2.4,1.3,3.8,1.6c1.4,0.3,2.8,0.3,4.1,0c1.3-0.3,2.6-0.8,3.7-1.5   c1.1-0.7,2.1-1.7,2.9-2.8c0.8-1.1,1.3-2.4,1.6-3.8s0.3-2.8,0-4.1c-0.3-1.4-0.8-2.6-1.5-3.7c-0.7-1.1-1.7-2.1-2.8-2.9   C348.7,665.7,347.5,665.2,346.1,664.9z"/>
	<path d="M381.9,693l2.3,3.5c-0.5,0.3-1,0.5-1.5,0.6c-0.5,0.1-1.1,0.1-1.6,0c-0.5-0.1-1-0.3-1.5-0.6c-0.5-0.3-0.8-0.7-1.1-1.2   l-6.9-10.5l-1.2,5.8c-0.2,1.1-0.8,2-1.8,2.6s-2,0.8-3.1,0.6l0.8-4.1l3-14.3l0.1-0.3c0.3-1.3,0.8-2.4,1.5-3.4c0.7-1,1.6-1.9,2.6-2.5   c1-0.7,2.1-1.1,3.3-1.4c1.2-0.2,2.5-0.2,3.7,0c1.3,0.3,2.4,0.8,3.4,1.5c1,0.7,1.9,1.6,2.5,2.6c0.7,1,1.1,2.1,1.4,3.3   c0.2,1.2,0.2,2.5,0,3.7c-0.2,1.2-0.7,2.3-1.3,3.2c-0.6,1-1.4,1.8-2.3,2.5c-0.9,0.7-1.9,1.1-3,1.5c-1.1,0.3-2.3,0.4-3.4,0.3   L381.9,693z M373.4,676c-0.2,0.7-0.2,1.4,0,2.1c0.1,0.7,0.4,1.3,0.8,1.9c0.4,0.6,0.8,1,1.4,1.4c0.6,0.4,1.2,0.7,1.9,0.8   c0.7,0.1,1.4,0.2,2.1,0c0.7-0.1,1.3-0.4,1.9-0.8c0.6-0.4,1.1-0.8,1.5-1.4c0.4-0.6,0.7-1.2,0.8-1.9c0.1-0.7,0.2-1.4,0-2.1   c-0.1-0.7-0.4-1.3-0.8-1.9c-0.4-0.6-0.9-1-1.4-1.4c-0.6-0.4-1.2-0.7-1.9-0.8c-0.7-0.1-1.4-0.2-2.1,0c-0.7,0.1-1.3,0.4-1.9,0.8   c-0.6,0.4-1,0.8-1.4,1.4C373.8,674.6,373.5,675.3,373.4,676z"/>
	<path d="M408,698.4c1.1,0.2,2,0.8,2.6,1.8c0.6,1,0.8,2,0.6,3.1l-4.1-0.8l-8.2-1.7c-1.1-0.2-2-0.8-2.6-1.8c-0.6-1-0.8-2-0.6-3.1   l4-19c0.2-1.2,0.8-2,1.8-2.7c1-0.6,2-0.8,3.1-0.6l8.2,1.7l4.1,0.8c-0.2,1.2-0.8,2-1.8,2.7c-1,0.6-2,0.8-3.1,0.6l-8.2-1.7l-1.3,6.5   l4.1,0.9c1.1,0.2,2,0.8,2.6,1.8c0.6,1,0.8,2,0.6,3.2l-4.1-0.8l-4.1-0.9l-1.8,8.5L408,698.4z"/>
	<path d="M433.3,683.8c-0.6-0.1-1.1-0.1-1.7,0c-0.5,0.1-1,0.3-1.5,0.5s-0.8,0.6-1.1,1c-0.3,0.4-0.5,0.9-0.6,1.4   c-0.1,0.5-0.1,1,0,1.5c0.1,0.5,0.3,0.9,0.6,1.3c0.3,0.4,0.7,0.8,1.2,1.1c0.5,0.3,1,0.5,1.5,0.6l0,0c1.1,0.3,2.1,0.7,2.9,1.3   c0.9,0.6,1.6,1.4,2.1,2.2s1,1.8,1.2,2.8c0.2,1,0.2,2.1,0,3.1c-0.2,1.1-0.7,2.1-1.3,3s-1.4,1.6-2.3,2.2c-0.9,0.6-1.9,0.9-2.9,1.2   c-1.1,0.2-2.2,0.2-3.3,0l-3.9-0.8l-4.1-0.8c0.2-1.1,0.8-2,1.8-2.6c1-0.6,2-0.8,3.1-0.6l3.9,0.8c0.5,0.1,1.1,0.1,1.6,0   c0.5-0.1,1-0.3,1.5-0.6c0.4-0.3,0.8-0.6,1.1-1c0.3-0.4,0.5-0.9,0.6-1.4c0.1-0.5,0.1-1.1,0-1.6c-0.1-0.5-0.3-1-0.6-1.4   c-0.3-0.4-0.7-0.8-1.1-1.1c-0.5-0.3-0.9-0.5-1.5-0.6l0,0c-1.1-0.3-2.1-0.7-3-1.3c-0.9-0.6-1.6-1.3-2.2-2.2c-0.6-0.8-1-1.8-1.2-2.8   c-0.2-1-0.2-2,0-3.1c0.2-1.1,0.7-2,1.3-2.9c0.6-0.9,1.4-1.5,2.3-2.1c0.9-0.5,1.9-0.9,2.9-1.1c1.1-0.2,2.2-0.2,3.3,0.1l2.1,0.4   l1.9,0.4l4.1,0.9c-0.1,0.6-0.3,1.1-0.6,1.5c-0.3,0.4-0.7,0.8-1.2,1.1c-0.5,0.3-1,0.5-1.5,0.6c-0.5,0.1-1.1,0.1-1.7,0L433.3,683.8z"/>
	<path d="M488.7,691.1c-0.2,1.2-0.8,2-1.8,2.7c-1,0.6-2,0.8-3.2,0.6l-4.1-0.8l-4,19c-0.2,1.1-0.8,2-1.8,2.6c-1,0.6-2,0.8-3.1,0.6   l0.8-4.1l4-19l-4.1-0.9c-1.1-0.2-2-0.8-2.6-1.8c-0.6-1-0.8-2-0.6-3.2l4.1,0.8l12.2,2.5L488.7,691.1z"/>
	<path d="M513.8,720.5l-0.8,4.1c-1.1-0.2-2-0.8-2.6-1.8c-0.6-1-0.8-2-0.6-3.1l1.8-8.8l-12.2-2.5l-1.8,8.8c-0.2,1.1-0.8,2-1.8,2.6   s-2,0.8-3.1,0.6l0.8-4.1l4-19.1l0.8-4.1c1.1,0.2,2,0.8,2.6,1.8c0.6,1,0.8,2,0.6,3.1l-1.3,6.1l12.2,2.5l1.3-6.1   c0.2-1.1,0.8-2,1.8-2.6c1-0.6,2-0.8,3.1-0.6l-0.8,4.1L513.8,720.5z"/>
	<path d="M548.7,707.6c0.7,1.6,1.2,3.3,1.4,5.1c0.2,1.8,0.1,3.7-0.3,5.6l-1.9,9.1c-0.2,1.2-0.8,2-1.8,2.7c-1,0.6-2,0.8-3.2,0.6   l0.9-4.1l1-5l-14.5-3l-1.9,9.1c-1.2-0.2-2.1-0.8-2.7-1.8c-0.6-1-0.8-2-0.6-3.2l1.9-9.1c0.4-1.9,1-3.7,1.9-5.3c0.9-1.6,2-3,3.3-4.1   c1.4-1.2,2.9-2.1,4.5-2.6c1.6-0.5,3.2-0.5,4.8-0.2c1.6,0.3,3,1,4.3,2.1C546.9,704.6,547.9,705.9,548.7,707.6z M545.6,717.5   c0.3-1.4,0.4-2.8,0.3-4.1c-0.1-1.3-0.4-2.6-0.9-3.6c-0.5-1.1-1.1-2-1.8-2.7c-0.8-0.7-1.6-1.2-2.6-1.4c-1-0.2-2-0.1-3,0.3   c-1,0.4-1.9,1-2.8,1.8c-0.9,0.8-1.6,1.8-2.3,3c-0.7,1.2-1.1,2.5-1.4,3.9L545.6,717.5z"/>
	<path d="M579.3,710c-0.2,1.2-0.8,2-1.8,2.7s-2,0.8-3.2,0.6l-4.1-0.8l-4,19.1c-0.2,1.1-0.8,2-1.8,2.6c-1,0.6-2,0.8-3.1,0.6l0.8-4.1   l4-19.1l-4.1-0.9c-1.1-0.2-2-0.8-2.6-1.8c-0.6-1-0.8-2-0.6-3.2l4.1,0.8l12.2,2.5L579.3,710z"/>
	<path d="M639.4,746.7l-0.8,4.1c-1.2-0.2-2-0.8-2.7-1.8c-0.6-1-0.8-2-0.6-3.1l2.8-13.6c0.2-0.8,0.2-1.7,0-2.5   c-0.2-0.8-0.5-1.6-0.9-2.2c-0.4-0.7-1-1.2-1.7-1.7c-0.7-0.5-1.4-0.8-2.3-1c-0.8-0.2-1.7-0.2-2.5,0c-0.8,0.2-1.5,0.5-2.2,0.9   c-0.7,0.4-1.2,1-1.7,1.7c-0.5,0.7-0.8,1.4-1,2.3l-0.8,4c-0.1,0.6-0.3,1.1-0.6,1.5c-0.3,0.4-0.7,0.8-1.1,1.1s-0.9,0.5-1.5,0.6   c-0.6,0.1-1.1,0.1-1.7,0l1.7-8.1c0.2-0.8,0.2-1.7,0-2.5c-0.2-0.8-0.5-1.6-0.9-2.2c-0.4-0.7-1-1.2-1.6-1.7c-0.7-0.5-1.4-0.8-2.3-1   c-0.8-0.2-1.7-0.2-2.5,0c-0.8,0.2-1.6,0.5-2.2,0.9c-0.7,0.4-1.2,1-1.7,1.7c-0.5,0.7-0.8,1.4-1,2.3l-2.8,13.6   c-0.2,1.1-0.8,2-1.8,2.6c-1,0.6-2,0.8-3.1,0.6l0.8-4.1l2.8-13.6c0.3-1.4,0.8-2.7,1.6-3.8c0.8-1.1,1.7-2.1,2.8-2.8   c1.1-0.7,2.3-1.2,3.7-1.5c1.3-0.3,2.7-0.3,4.1,0c1.7,0.4,3.2,1,4.4,2.1c1.3,1,2.2,2.3,2.9,3.7c1.2-1.1,2.6-1.8,4.1-2.3   c1.6-0.4,3.2-0.5,4.8-0.1c1.4,0.3,2.7,0.8,3.8,1.6s2.1,1.7,2.8,2.8s1.2,2.3,1.5,3.7c0.3,1.4,0.3,2.7,0,4.1L639.4,746.7z"/>
	<path d="M674.2,733.8c0.7,1.6,1.2,3.3,1.4,5.1s0.1,3.7-0.3,5.6l-1.9,9.1c-0.2,1.2-0.8,2-1.8,2.7c-1,0.6-2,0.8-3.2,0.6l0.9-4.1l1-5   l-14.5-3l-1.9,9.1c-1.2-0.2-2-0.8-2.7-1.8c-0.6-1-0.8-2-0.6-3.2l1.9-9.1c0.4-1.9,1-3.7,1.9-5.3s2-3,3.3-4.1   c1.4-1.2,2.9-2.1,4.5-2.6c1.6-0.5,3.2-0.5,4.8-0.2s3,1,4.3,2.1C672.4,730.8,673.4,732.1,674.2,733.8z M671.1,743.7   c0.3-1.4,0.4-2.8,0.3-4.1c-0.1-1.3-0.4-2.6-0.9-3.6c-0.5-1.1-1.1-2-1.8-2.7c-0.8-0.7-1.6-1.2-2.6-1.4c-1-0.2-2-0.1-3,0.3   s-1.9,1-2.8,1.8c-0.9,0.8-1.6,1.8-2.3,3c-0.7,1.2-1.1,2.5-1.4,3.9L671.1,743.7z"/>
	<path d="M704.8,736.2c-0.2,1.2-0.8,2-1.8,2.7c-1,0.6-2,0.8-3.2,0.6l-4.1-0.8l-4,19c-0.2,1.1-0.8,2-1.8,2.6c-1,0.6-2,0.8-3.1,0.6   l0.8-4.1l4-19l-4.1-0.9c-1.1-0.2-2-0.8-2.6-1.8c-0.6-1-0.8-2-0.6-3.2l4.1,0.8l12.2,2.5L704.8,736.2z"/>
	<path d="M733,742.1c-0.2,1.2-0.8,2-1.8,2.7c-1,0.6-2,0.8-3.2,0.6l-4.1-0.8l-4,19.1c-0.2,1.1-0.8,2-1.8,2.6c-1,0.6-2,0.8-3.1,0.6   l0.8-4.1l4-19l-4.1-0.9c-1.1-0.2-2-0.8-2.6-1.8c-0.6-1-0.8-2-0.6-3.2l4.1,0.8l12.2,2.5L733,742.1z"/>
	<path d="M749.8,769.7c1.1,0.2,2,0.8,2.6,1.8c0.6,1,0.8,2,0.6,3.1l-4.1-0.8l-8.2-1.7c-1.1-0.2-2-0.8-2.6-1.8s-0.8-2-0.6-3.1l4-19   c0.2-1.2,0.8-2,1.8-2.7c1-0.6,2-0.8,3.1-0.6l8.2,1.7l4.1,0.8c-0.2,1.2-0.8,2-1.8,2.7c-1,0.6-2,0.8-3.1,0.6l-8.2-1.7l-1.3,6.5   l4.1,0.9c1.1,0.2,2,0.8,2.6,1.8c0.6,1,0.8,2,0.6,3.2l-4.1-0.8l-4.1-0.9l-1.8,8.5L749.8,769.7z"/>
	<path d="M778.7,775.8l2.3,3.5c-0.5,0.3-1,0.5-1.5,0.6c-0.5,0.1-1.1,0.1-1.6,0c-0.5-0.1-1-0.3-1.5-0.6c-0.5-0.3-0.8-0.7-1.1-1.2   l-6.9-10.5l-1.2,5.8c-0.2,1.1-0.8,2-1.8,2.6s-2,0.8-3.1,0.6l0.8-4.1l3-14.3l0.1-0.3c0.3-1.3,0.8-2.4,1.5-3.4c0.7-1,1.6-1.9,2.6-2.5   c1-0.7,2.1-1.1,3.3-1.4s2.5-0.2,3.7,0c1.3,0.3,2.4,0.8,3.4,1.5c1,0.7,1.9,1.6,2.5,2.6c0.7,1,1.1,2.1,1.4,3.3c0.2,1.2,0.2,2.5,0,3.7   c-0.2,1.2-0.7,2.3-1.3,3.2c-0.6,1-1.4,1.8-2.3,2.5c-0.9,0.7-1.9,1.1-3,1.5c-1.1,0.3-2.3,0.4-3.4,0.3L778.7,775.8z M770.2,758.8   c-0.2,0.7-0.2,1.4,0,2.1c0.1,0.7,0.4,1.3,0.8,1.9c0.4,0.6,0.8,1,1.4,1.4s1.2,0.7,1.9,0.8c0.7,0.1,1.4,0.2,2.1,0   c0.7-0.1,1.3-0.4,1.9-0.8c0.6-0.4,1.1-0.8,1.5-1.4c0.4-0.6,0.7-1.2,0.8-1.9c0.1-0.7,0.2-1.4,0-2.1c-0.1-0.7-0.4-1.3-0.8-1.9   c-0.4-0.6-0.9-1-1.4-1.4c-0.6-0.4-1.2-0.7-1.9-0.8c-0.7-0.1-1.4-0.2-2.1,0s-1.3,0.4-1.9,0.8c-0.6,0.4-1,0.8-1.4,1.4   C770.6,757.4,770.4,758.1,770.2,758.8z"/>
</g>
<g>
	<path d="M641.7,355.8c2.2,3.6,3.8,7.6,4.5,11.9c0.5,3.1,0.7,6.2,0.3,9.5L635,478.8c-1.8,15.5-16.4,26-31.7,22.8l-152.7-32.5   c-13.6-2.9-21.7-17-17.3-30.3l27-80.5l2.8-8.5c0.6-1.7,1.2-3.3,2-4.9c1.3-2.6,2.8-5.1,4.5-7.3c3.9-5,8.9-9,14.5-11.7l-45.7-8.5   c-23.4-4.4-46.8,7.4-57.3,28.7l-33.8,69c-13.8-2.8-42.4-7.4-62.7-1.7c-32.1,9.1-38.8,28.8-44.8,46.1c-4.7,13.7-8.8,25.6-25.2,32.8   c-8.5,3.7-25.9,4-39.8,4.2c-12.4,0.2-23.1,0.4-29.7,2.5c-23.3,7.7-40.8,26.2-46.8,49.5c-2.7,10.5-2.5,19.8,0.6,27.7   c8,20.4,30.6,28.2,38.1,30.7c0.4,0.2,0.8,0.3,1.1,0.4l0.4,0.1l59.3,14.3l3.3-13.6L142.8,594c-0.3-0.1-0.6-0.2-0.9-0.3   c-5.9-2-24-8.1-29.5-22.5c-2-5.1-2-11.6-0.1-19.2c4.8-18.6,18.8-33.5,37.6-39.6c4.5-1.5,15.2-1.7,25.5-1.8   c16-0.3,34.2-0.5,45.3-5.4c22-9.7,27.7-26.4,32.8-41.1c5.5-16.1,10.3-30,35.3-37.1c14.9-4.2,36.4-1.7,50.1,0.8   c1.5-1.9,3.2-3.7,5.1-5.3c2.8-2.3,6.1-4.4,9.7-6c6-2.7,13-4.2,20.4-4.2c22.6,0,41,14.1,41,31.5v12.6c0,0.5,0,1,0,1.5   c0,0.2,0,0.3,0,0.5c0,0.3-0.1,0.7-0.1,1c0,0.2-0.1,0.4-0.1,0.6c0,0.3-0.1,0.6-0.2,0.9c0,0.2-0.1,0.4-0.1,0.6c0,0.1,0,0.2-0.1,0.3   c0,0.2-0.1,0.4-0.1,0.6c0,0.2-0.1,0.4-0.2,0.6c-0.1,0.3-0.2,0.6-0.3,0.9c-0.1,0.2-0.1,0.4-0.2,0.6c-0.1,0.3-0.2,0.6-0.4,1   c-0.1,0.2-0.1,0.3-0.2,0.5c-0.2,0.5-0.4,0.9-0.6,1.4c0,0,0,0,0,0c-0.2,0.5-0.5,1-0.8,1.5c-0.1,0.2-0.2,0.3-0.3,0.5   c-0.2,0.3-0.4,0.7-0.6,1c-0.1,0.2-0.2,0.4-0.4,0.6c-0.2,0.3-0.4,0.6-0.6,0.8c-0.1,0.2-0.3,0.4-0.4,0.6c-0.2,0.3-0.4,0.5-0.6,0.8   c0,0-0.1,0.1-0.1,0.1c-0.1,0.1-0.2,0.2-0.3,0.3c-0.3,0.4-0.6,0.8-1,1.1c-0.2,0.2-0.3,0.3-0.4,0.5c-0.3,0.4-0.7,0.7-1,1.1   c-0.1,0.1-0.3,0.3-0.4,0.4c-0.5,0.5-1,0.9-1.5,1.3c-0.1,0.1-0.2,0.2-0.3,0.2c-0.4,0.4-0.9,0.7-1.3,1.1c-0.2,0.1-0.4,0.3-0.5,0.4   c-0.4,0.3-0.8,0.6-1.2,0.9c-0.2,0.1-0.4,0.2-0.5,0.3c-0.6,0.4-1.2,0.8-1.8,1.1c0,0,0,0,0,0c-0.6,0.4-1.3,0.7-1.9,1   c-0.2,0.1-0.4,0.2-0.6,0.3c-0.5,0.2-1,0.5-1.4,0.7c-0.2,0.1-0.4,0.2-0.7,0.3c-0.5,0.2-1.1,0.5-1.7,0.7c-0.1,0-0.3,0.1-0.4,0.2   c-0.7,0.3-1.4,0.5-2.1,0.7c-0.2,0.1-0.4,0.1-0.6,0.2c-0.5,0.2-1.1,0.3-1.7,0.5c-0.2,0.1-0.5,0.1-0.7,0.2c-0.6,0.1-1.1,0.3-1.7,0.4   c-0.2,0-0.4,0.1-0.6,0.1c-0.8,0.1-1.5,0.3-2.3,0.4c-0.2,0-0.3,0-0.5,0.1c-0.6,0.1-1.3,0.2-2,0.2c-0.3,0-0.5,0.1-0.8,0.1   c-0.6,0-1.2,0.1-1.8,0.1c-0.3,0-0.5,0-0.7,0c-0.8,0-1.7,0.1-2.5,0.1c-22.6,0-41-14.1-41-31.5v-11.8l-6.7,13.7   c-17.4,35.4,3.3,77.7,41.9,85.7l232.9,48.3c32.1,6.6,62.8-16.2,65.7-48.8l11.7-132.5C680.8,385.9,665.1,363.1,641.7,355.8z    M428.5,452.4l0.4-1.1c0.5,12.1,9,23,21.7,25.6L604,508.4c12.6,2.6,24.7-3.9,30-14.9l-0.1,1.4c-1.7,15.8-16.5,26.6-32.1,23.4   l-153.4-31.2C432.6,483.9,423.3,467.6,428.5,452.4z M656.3,540.6c-1.2,5.2-3.1,10.3-6,15l-1.1,1.8l-1.2,1.7   c-0.4,0.6-0.8,1.1-1.3,1.7c-0.4,0.5-0.9,1.1-1.4,1.6c-1.9,2.1-3.9,4-6.2,5.7c-2.3,1.7-4.6,3.2-7.1,4.5c-2.5,1.3-5.1,2.4-7.8,3.2   c-10.7,3.4-22.1,3.5-32.9,1.5c-1.4-0.2-2.6-0.5-3.9-0.8l-3.8-0.8l-7.6-1.6c-5.1-1.1-10.1-2.2-15.2-3.3c-20.2-4.4-40.4-9-60.5-13.9   c-10-2.5-20.1-5-30.1-7.6c-5-1.3-10-2.6-15-4c-5-1.4-10-2.8-15-4.2c5.2,0.6,10.3,1.3,15.4,2.1c5.1,0.7,10.3,1.5,15.4,2.3   c10.3,1.5,20.5,3.3,30.7,5c20.4,3.5,40.8,7.3,61.1,11.3c5.1,1,10.2,2,15.2,3l15.1,3.1c9.5,1.9,19.4,2,28.6-0.3c4.6-1.2,9-3,13-5.5   c2-1.3,3.9-2.7,5.7-4.3c1.7-1.6,3.5-3.3,5-5.3c6.2-7.6,9.9-17.3,12.2-27.4C658,530.1,657.5,535.4,656.3,540.6z"/>
	<path d="M414.6,448.8c0,0.1,0,0.2-0.1,0.4c0,0.2-0.1,0.3-0.1,0.5C414.4,449.4,414.5,449.1,414.6,448.8z"/>
	<path d="M413.2,453.1c-0.1,0.2-0.2,0.5-0.3,0.7h0C413,453.6,413.1,453.4,413.2,453.1z"/>
	<polygon points="490.9,366.8 490.9,366.8 490.9,366.8  "/>
	<path d="M598.7,394.8c0,0.1-0.1,0.1-0.2,0.2c-0.1,0.1-0.2,0.3-0.3,0.4C598.4,395.1,598.5,394.9,598.7,394.8z"/>
	<path d="M603.6,387.3c0,0.1-0.1,0.2-0.2,0.3c0,0.1-0.1,0.1-0.1,0.2C603.5,387.6,603.5,387.4,603.6,387.3z"/>
	<path d="M574.5,333.2l-1.4,8.1c0.9,0.5,1.7,1.1,2.6,1.7c5.5,3.9,9.7,9,12,14.7c1.3,3.2,2,6.6,2,10.1c0,0.3,0,0.6,0,0.8   c-0.6,16.8-17.8,30.2-38.8,30.1c-21.4-0.1-40.7-15.3-40.6-32.5c0-3.2,0.7-6.2,1.9-9.1c1.7-4,4.5-7.7,8.1-10.9   c2.5-2.2,5.3-4.1,8.5-5.7c0.8-0.4,1.6-0.9,2.5-1.2l0-4.6l0.1-8.6l0.5-50.2c-22.3-12.1-37.4-36-37.3-63.5   c0.2-39.5,31.7-71.4,70.4-71.2c38.7,0.2,70,32.3,69.8,71.8c-0.2,32.6-21.6,59.9-50.8,68.5L574.5,333.2z"/>
	<path d="M607.2,374.3l-2.6,39.9c0,0.7-0.1,1.3-0.2,2c0,0.2,0,0.4-0.1,0.6c-0.1,0.5-0.1,1-0.3,1.5c0,0.2-0.1,0.4-0.1,0.6   c-0.1,0.6-0.3,1.2-0.4,1.8c0,0.1,0,0.1,0,0.2c0,0,0,0,0,0c-0.2,0.6-0.4,1.3-0.6,1.9c-0.1,0.2-0.1,0.4-0.2,0.6   c-0.2,0.5-0.3,0.9-0.5,1.3c-0.1,0.2-0.2,0.5-0.3,0.7c-0.2,0.4-0.4,0.8-0.6,1.2c-0.1,0.2-0.2,0.4-0.3,0.6c0,0.1-0.1,0.2-0.1,0.3   c-0.1,0.3-0.3,0.5-0.4,0.7c-0.2,0.3-0.3,0.6-0.5,0.9c-0.2,0.3-0.4,0.7-0.6,1c-0.2,0.3-0.4,0.6-0.6,0.9c-0.2,0.3-0.4,0.6-0.7,1   c-0.2,0.3-0.4,0.6-0.6,0.9c-0.2,0.3-0.5,0.6-0.7,0.9c-0.2,0.3-0.5,0.6-0.7,0.9c0,0.1-0.1,0.1-0.2,0.2c-0.1,0.1-0.2,0.3-0.3,0.4   c-0.5,0.5-1,1.1-1.5,1.6c-0.2,0.2-0.4,0.4-0.6,0.6c-0.6,0.6-1.2,1.2-1.9,1.8c-0.1,0.1-0.1,0.1-0.2,0.2c-0.7,0.6-1.5,1.3-2.3,1.8   c-0.2,0.2-0.4,0.3-0.7,0.5c-0.6,0.5-1.2,0.9-1.8,1.3c-0.2,0.2-0.5,0.3-0.7,0.5c-0.8,0.6-1.7,1.1-2.6,1.6c-0.1,0-0.1,0.1-0.2,0.1   c-0.8,0.5-1.7,0.9-2.5,1.4c-0.3,0.1-0.5,0.3-0.8,0.4c-0.7,0.4-1.4,0.7-2.2,1c-0.3,0.1-0.5,0.2-0.8,0.3c-1,0.4-2,0.8-3,1.2   c-0.2,0.1-0.4,0.1-0.5,0.2c-0.8,0.3-1.7,0.6-2.6,0.9c-0.3,0.1-0.6,0.2-0.9,0.3c-0.8,0.3-1.7,0.5-2.5,0.7c-0.2,0.1-0.5,0.1-0.7,0.2   c-1.1,0.3-2.2,0.5-3.3,0.7c-0.3,0.1-0.5,0.1-0.8,0.2c-0.9,0.2-1.8,0.3-2.6,0.5c-0.3,0-0.7,0.1-1,0.1c-1,0.1-2,0.3-3,0.4   c-0.2,0-0.3,0-0.5,0c-1.2,0.1-2.3,0.2-3.5,0.2c-0.3,0-0.6,0-1,0c-0.9,0-1.8,0-2.7,0c-0.3,0-0.7,0-1,0c-1.2,0-2.4-0.1-3.7-0.1   c-32.1-2.1-56.9-23.2-55.4-47.3l2.6-39.9c0,0.7-0.1,1.3-0.1,2v0.3c0,2.2,0.2,4.4,0.7,6.6c0.3,1.4,0.7,2.9,1.2,4.3   c1.9,5.6,5.3,10.8,9.7,15.4c10,10.4,25.8,17.6,43.9,18.7c1.2,0.1,2.4,0.1,3.7,0.1c0.3,0,0.7,0,1,0c0.9,0,1.8,0,2.7,0   c0.3,0,0.6,0,1,0c1.2-0.1,2.3-0.1,3.5-0.2c0.2,0,0.3,0,0.5-0.1c1-0.1,2-0.2,3-0.3c0.3,0,0.7-0.1,1-0.2c0.9-0.1,1.8-0.3,2.6-0.4   c0.3-0.1,0.5-0.1,0.8-0.1c1.1-0.2,2.2-0.5,3.3-0.7c0.2-0.1,0.5-0.1,0.7-0.2c0.9-0.2,1.7-0.5,2.5-0.7c0.3-0.1,0.6-0.2,0.9-0.3   c0.9-0.3,1.7-0.6,2.5-0.9c0.2-0.1,0.4-0.1,0.5-0.2c1-0.4,2-0.8,3-1.2c0.3-0.1,0.5-0.2,0.8-0.3c0.7-0.3,1.5-0.7,2.2-1   c0.3-0.1,0.5-0.3,0.8-0.4c0.9-0.4,1.7-0.9,2.5-1.4c0.1,0,0.1-0.1,0.2-0.1c0.9-0.5,1.7-1,2.6-1.6c0.2-0.2,0.5-0.3,0.7-0.5   c0.6-0.4,1.2-0.9,1.8-1.3c0.2-0.2,0.5-0.3,0.7-0.5c0.8-0.6,1.5-1.2,2.3-1.8c0.1-0.1,0.1-0.1,0.2-0.2c0.7-0.6,1.3-1.2,1.9-1.8   c0.2-0.2,0.4-0.4,0.6-0.6c0.5-0.5,1-1.1,1.5-1.6c0.1-0.1,0.2-0.2,0.3-0.4c0-0.1,0.1-0.1,0.2-0.2c0.2-0.3,0.5-0.6,0.7-0.9   c0.2-0.3,0.5-0.6,0.7-0.9c0.2-0.3,0.4-0.6,0.6-0.9c0.2-0.3,0.5-0.6,0.7-0.9c0.2-0.3,0.4-0.6,0.6-0.9c0.2-0.3,0.4-0.7,0.6-1   c0.2-0.3,0.4-0.6,0.5-0.9c0.1-0.2,0.2-0.4,0.3-0.5c0-0.1,0.1-0.1,0.1-0.2c0.1-0.1,0.1-0.2,0.2-0.3c0.1-0.2,0.2-0.4,0.3-0.6   c0.2-0.4,0.4-0.8,0.6-1.2c0.1-0.2,0.2-0.5,0.3-0.7c0.2-0.4,0.3-0.9,0.5-1.3l0.2-0.6c0.2-0.6,0.4-1.3,0.6-1.9c0,0,0,0,0,0   c0,0,0-0.1,0-0.2c0.1-0.6,0.3-1.2,0.4-1.8c0-0.2,0.1-0.4,0.1-0.6c0.1-0.5,0.2-1,0.3-1.5c0-0.2,0.1-0.4,0.1-0.6   C607.1,375.6,607.2,374.9,607.2,374.3z"/>		
	<path fill="#831308" d="M333.1,444.4L333.1,444.4l0-0.7C333.1,444,333.1,444.2,333.1,444.4z"/>
	<path fill="#831308" d="M415.1,443.7v12.6c0,0.5,0,1,0,1.5c0,0.2,0,0.3,0,0.5c0,0.3-0.1,0.7-0.1,1c0,0.2-0.1,0.4-0.1,0.6   c0,0.3-0.1,0.6-0.2,0.9c0,0.2-0.1,0.4-0.1,0.6c0,0.1,0,0.2-0.1,0.3c0,0.2-0.1,0.4-0.1,0.6c0,0.2-0.1,0.4-0.2,0.6   c-0.1,0.3-0.2,0.6-0.3,0.9c-0.1,0.2-0.1,0.4-0.2,0.6c-0.1,0.3-0.2,0.6-0.4,1c-0.1,0.2-0.1,0.3-0.2,0.5c-0.2,0.5-0.4,0.9-0.6,1.4   c0,0,0,0,0,0c-0.2,0.5-0.5,1-0.8,1.5c-0.1,0.2-0.2,0.3-0.3,0.5c-0.2,0.3-0.4,0.7-0.6,1c-0.1,0.2-0.2,0.4-0.4,0.6   c-0.2,0.3-0.4,0.6-0.6,0.8c-0.1,0.2-0.3,0.4-0.4,0.6c-0.2,0.3-0.4,0.5-0.6,0.8c0,0-0.1,0.1-0.1,0.1c-0.1,0.1-0.2,0.2-0.3,0.3   c-0.3,0.4-0.6,0.8-1,1.1c-0.2,0.2-0.3,0.3-0.4,0.5c-0.3,0.4-0.7,0.7-1,1.1c-0.1,0.1-0.3,0.3-0.4,0.4c-0.5,0.5-1,0.9-1.5,1.3   c-0.1,0.1-0.2,0.2-0.3,0.2c-0.4,0.4-0.9,0.7-1.3,1.1c-0.2,0.1-0.4,0.3-0.5,0.4c-0.4,0.3-0.8,0.6-1.2,0.9c-0.2,0.1-0.4,0.2-0.5,0.3   c-0.6,0.4-1.2,0.8-1.8,1.1c0,0,0,0,0,0c-0.6,0.4-1.3,0.7-1.9,1c-0.2,0.1-0.4,0.2-0.6,0.3c-0.5,0.2-1,0.5-1.4,0.7   c-0.2,0.1-0.4,0.2-0.7,0.3c-0.5,0.2-1.1,0.5-1.7,0.7c-0.1,0-0.3,0.1-0.4,0.2c-0.7,0.3-1.4,0.5-2.1,0.7c-0.2,0.1-0.4,0.1-0.6,0.2   c-0.5,0.2-1.1,0.3-1.7,0.5c-0.2,0.1-0.5,0.1-0.7,0.2c-0.6,0.1-1.1,0.3-1.7,0.4c-0.2,0-0.4,0.1-0.6,0.1c-0.8,0.1-1.5,0.3-2.3,0.4   c-0.2,0-0.3,0-0.5,0.1c-0.6,0.1-1.3,0.2-2,0.2c-0.3,0-0.5,0.1-0.8,0.1c-0.6,0-1.2,0.1-1.8,0.1c-0.3,0-0.5,0-0.7,0   c-0.8,0-1.7,0.1-2.5,0.1c-22.6,0-41-14.1-41-31.5v-11.8l0,0c0.5,17.1,18.6,30.8,41,30.8c0.8,0,1.7,0,2.5-0.1c0.3,0,0.5,0,0.7,0   c0.6,0,1.2-0.1,1.8-0.1c0.3,0,0.5,0,0.8-0.1c0.7-0.1,1.3-0.2,2-0.3c0.2,0,0.3,0,0.5-0.1c0.8-0.1,1.5-0.3,2.3-0.4   c0.2,0,0.4-0.1,0.6-0.1c0.6-0.1,1.1-0.3,1.7-0.4c0.2-0.1,0.5-0.1,0.7-0.2c0.6-0.1,1.1-0.3,1.7-0.5c0.2-0.1,0.4-0.1,0.6-0.2   c0.7-0.2,1.4-0.5,2.1-0.7c0.1,0,0.3-0.1,0.4-0.2c0.6-0.2,1.1-0.4,1.7-0.7c0.2-0.1,0.4-0.2,0.7-0.3c0.5-0.2,1-0.4,1.4-0.7   c0.2-0.1,0.4-0.2,0.6-0.3c0.7-0.3,1.3-0.7,1.9-1c0,0,0,0,0,0c0.6-0.4,1.2-0.7,1.8-1.1l0.5-0.4c0.4-0.3,0.8-0.6,1.2-0.9l0.5-0.4   c0.5-0.3,0.9-0.7,1.3-1c0.1-0.1,0.2-0.2,0.3-0.2c0.5-0.4,1-0.9,1.5-1.3c0.1-0.1,0.3-0.3,0.4-0.4c0.4-0.3,0.7-0.7,1-1   c0.2-0.2,0.3-0.3,0.4-0.5c0.3-0.4,0.7-0.7,1-1.1c0.1-0.1,0.2-0.3,0.3-0.4c0.2-0.3,0.4-0.5,0.6-0.8c0.1-0.2,0.3-0.4,0.4-0.6   c0.2-0.3,0.4-0.6,0.6-0.8c0.1-0.2,0.3-0.4,0.4-0.5c0.2-0.3,0.4-0.7,0.6-1c0.1-0.2,0.2-0.3,0.3-0.4c0.3-0.5,0.5-1,0.8-1.5   c0.1-0.2,0.2-0.5,0.3-0.7c0,0,0,0,0,0c0.1-0.2,0.2-0.5,0.3-0.7c0.1-0.1,0.1-0.3,0.2-0.5c0.1-0.3,0.3-0.6,0.4-1   c0.1-0.2,0.1-0.4,0.2-0.6c0.1-0.3,0.2-0.6,0.3-0.9c0.1-0.2,0.1-0.4,0.2-0.6c0-0.2,0.1-0.3,0.1-0.5c0-0.1,0-0.2,0.1-0.4   c0-0.2,0.1-0.4,0.1-0.6c0-0.3,0.1-0.6,0.2-0.9c0-0.2,0.1-0.4,0.1-0.5c0-0.3,0.1-0.7,0.1-1c0-0.2,0-0.3,0-0.5   C415.1,444.7,415.1,444.2,415.1,443.7z"/>
	<path fill="#BF1617" d="M374.6,438.1c1.7,0.4,3.4,0.3,5-0.4c1.6-0.7,2.7-1.7,3.2-3.2c0.6-1.4,0.5-2.7-0.3-3.9   c-0.7-1.2-1.9-2.1-3.6-2.5c-2.7-0.6-4.1-1-6.8-1.6c-1.9,4-2.8,5.9-4.7,9.9C370.3,437.1,371.7,437.4,374.6,438.1   C374.6,438.1,374.6,438.1,374.6,438.1z"/>
	<path fill="#BF1617" d="M412.9,453.8L412.9,453.8c0.1-0.2,0.2-0.5,0.3-0.7C413.1,453.4,413,453.6,412.9,453.8z"/>
	<path fill="#BF1617" d="M374.1,412.3c-7.4,0-14.4,1.5-20.4,4.2c-3.6,1.6-6.9,3.6-9.7,6c-1.9,1.6-3.6,3.4-5.1,5.3   c-3.6,4.7-5.7,10.2-5.7,16c0,0.2,0,0.5,0,0.7c0.5,17.1,18.6,30.8,41,30.8c0.8,0,1.7,0,2.5-0.1c0.3,0,0.5,0,0.7,0   c0.6,0,1.2-0.1,1.8-0.1c0.3,0,0.5,0,0.8-0.1c0.7-0.1,1.3-0.2,2-0.3c0.2,0,0.3,0,0.5-0.1c0.8-0.1,1.5-0.3,2.3-0.4   c0.2,0,0.4-0.1,0.6-0.1c0.6-0.1,1.1-0.3,1.7-0.4c0.2-0.1,0.5-0.1,0.7-0.2c0.6-0.1,1.1-0.3,1.7-0.5c0.2-0.1,0.4-0.1,0.6-0.2   c0.7-0.2,1.4-0.5,2.1-0.7c0.1,0,0.3-0.1,0.4-0.2c0.6-0.2,1.1-0.4,1.7-0.7c0.2-0.1,0.4-0.2,0.7-0.3c0.5-0.2,1-0.4,1.4-0.7   c0.2-0.1,0.4-0.2,0.6-0.3c0.7-0.3,1.3-0.7,1.9-1c0,0,0,0,0,0c0.6-0.4,1.2-0.7,1.8-1.1l0.5-0.4c0.4-0.3,0.8-0.6,1.2-0.9l0.5-0.4   c0.5-0.3,0.9-0.7,1.3-1c0.1-0.1,0.2-0.2,0.3-0.2c0.5-0.4,1-0.9,1.5-1.3c0.1-0.1,0.3-0.3,0.4-0.4c0.4-0.3,0.7-0.7,1-1   c0.2-0.2,0.3-0.3,0.4-0.5c0.3-0.4,0.7-0.7,1-1.1c0.1-0.1,0.2-0.3,0.3-0.4c0.2-0.3,0.4-0.5,0.6-0.8c0.1-0.2,0.3-0.4,0.4-0.6   c0.2-0.3,0.4-0.6,0.6-0.8c0.1-0.2,0.3-0.4,0.4-0.5c0.2-0.3,0.4-0.7,0.6-1c0.1-0.2,0.2-0.3,0.3-0.4c0.3-0.5,0.5-1,0.8-1.5   c0.1-0.2,0.2-0.5,0.3-0.7v0c0.1-0.2,0.2-0.5,0.3-0.7c0.1-0.1,0.1-0.3,0.2-0.5c0.1-0.3,0.3-0.6,0.4-1c0.1-0.2,0.1-0.4,0.2-0.6   c0.1-0.3,0.2-0.6,0.3-0.9c0.1-0.2,0.1-0.4,0.2-0.6c0.1-0.3,0.1-0.6,0.2-0.9c0-0.2,0.1-0.4,0.1-0.6c0-0.3,0.1-0.6,0.2-0.9   c0-0.2,0.1-0.4,0.1-0.5c0-0.3,0.1-0.7,0.1-1c0-0.2,0-0.3,0-0.5c0-0.5,0-1,0-1.5C415.1,426.3,396.8,412.3,374.1,412.3z M390.3,453.3   c-0.5,1.5-1.3,2.7-2.5,3.8c-1.2,1.1-2.5,2-4.1,2.6c-1.6,0.6-3.3,1-5.1,1.1c-1.9,0.1-3.8,0-5.6-0.5c-6-1.5-9-2.2-15-3.7   c-2-0.5-3.4-1.4-4.3-2.8s-0.9-2.8-0.2-4.2c5-9.8,7.5-14.8,12.5-24.6c0.8-1.5,2-2.6,3.7-3.3c1.7-0.7,3.4-0.9,5.1-0.5   c2.6,0.7,4,1,6.6,1.6c1.7,0.4,3.1,1,4.3,1.9c1.2,0.9,2.2,1.9,2.9,3.1c0.7,1.2,1.2,2.5,1.3,4s0,2.9-0.6,4.3   c-0.8,2.1-2.2,3.8-4.1,5.2c2.2,1.3,3.9,3.1,4.9,5.3C391,448.7,391.1,451,390.3,453.3z"/>
	<path fill="#BF1617" d="M380.2,454.6c1.6-0.7,2.7-1.7,3.2-3c0.5-1.4,0.4-2.7-0.5-4c-0.8-1.3-2.1-2.1-3.8-2.5   c-5.7-1.4-8.5-2.1-14.2-3.4c-1.8,3.9-2.7,5.8-4.6,9.6c5.9,1.5,8.8,2.2,14.7,3.6C376.9,455.4,378.6,455.3,380.2,454.6z"/>

</g>
</svg>
