<?xml version="1.0" encoding="utf-8"?>
<svg version="1.1" xmlns="http://www.w3.org/2000/svg">
  <path d="M 1.5878906 4 C 0.7173351 4 1.4802974e-16 4.7173351 0 5.5878906 L 0 10.412109 C 0 11.282665 0.71733509 12 1.5878906 12 L 12.412109 12 C 13.282665 12 14 11.282665 14 10.412109 L 14 10 L 15 10 C 15.546531 10 16 9.5465314 16 9 L 16 7 C 16 6.4534686 15.546531 6 15 6 L 14 6 L 14 5.5878906 C 14 4.7173351 13.282665 4 12.412109 4 L 1.5878906 4 z M 1.5878906 5 L 12.412109 5 C 12.741554 5 13 5.2584462 13 5.5878906 L 13 10.412109 C 13 10.741554 12.741554 11 12.412109 11 L 1.5878906 11 C 1.2584462 11 1 10.741554 1 10.412109 L 1 5.5878906 C 1 5.2584462 1.2584462 5 1.5878906 5 z M 14 7 L 15 7 L 15 9 L 14 9 L 14 7 z" style="fill: rgb(255, 255, 255);"/>
</svg>