<?xml version="1.0" encoding="utf-8"?>
<svg xmlns="http://www.w3.org/2000/svg" xmlns:bx="https://boxy-svg.com">
  <ellipse style="paint-order: stroke; stroke: rgb(102, 102, 102); fill: none;" transform="matrix(1, 0, -0.000001, 1, 2.179012, -2.888)" cx="7.321" cy="6.388" rx="3" ry="3" bx:origin="0.5 2.208"/>
  <ellipse style="stroke: rgb(102, 102, 102); fill: none;" transform="matrix(1, 0, -0.000001, 1, 2.116377, 9.112)" cx="7.321" cy="6.388" rx="3" ry="3" bx:origin="0.5 2.208"/>
  <ellipse style="stroke: rgb(102, 102, 102); fill-rule: evenodd; fill: none;" transform="matrix(1, 0, -0.000001, 1, -3.820991, 3.112001)" cx="7.321" cy="6.388" rx="3" ry="3" bx:origin="0.5 2.208"/>
  <ellipse style="stroke: rgb(102, 102, 102); fill: rgb(102, 102, 102);" transform="matrix(1, 0, -0.000001, 1, 8.179002, 3.112001)" cx="7.321" cy="6.388" rx="3" ry="3" bx:origin="0.5 2.208"/>
  <path d="M 23.6 15.85 L 23.6 3.25 L 25.9 3.25 L 25.9 13.8 L 31.08 13.8 L 31.08 15.85 L 23.6 15.85 Z M 40.17 15.85 L 39.13 12.86 L 34.54 12.86 L 33.5 15.85 L 31.26 15.85 L 35.75 3.25 L 37.92 3.25 L 42.41 15.85 L 40.17 15.85 Z M 35.26 10.85 L 38.41 10.85 L 36.84 6.35 L 35.26 10.85 Z M 48.614 16.1 L 48.614 16.1 C 46.887 16.1 45.587 15.6 44.714 14.6 L 44.714 14.6 L 44.714 14.6 C 43.834 13.6 43.394 12.217 43.394 10.45 L 43.394 10.45 L 43.394 3.25 L 45.704 3.25 L 45.704 9.86 L 45.704 9.86 C 45.704 10.733 45.78 11.46 45.934 12.04 L 45.934 12.04 L 45.934 12.04 C 46.087 12.627 46.377 13.08 46.804 13.4 L 46.804 13.4 L 46.804 13.4 C 47.23 13.727 47.834 13.89 48.614 13.89 L 48.614 13.89 L 48.614 13.89 C 49.394 13.89 49.997 13.727 50.424 13.4 L 50.424 13.4 L 50.424 13.4 C 50.85 13.08 51.14 12.627 51.294 12.04 L 51.294 12.04 L 51.294 12.04 C 51.454 11.46 51.534 10.733 51.534 9.86 L 51.534 9.86 L 51.534 3.25 L 53.834 3.25 L 53.834 10.45 L 53.834 10.45 C 53.834 12.217 53.397 13.6 52.524 14.6 L 52.524 14.6 L 52.524 14.6 C 51.644 15.6 50.34 16.1 48.614 16.1 L 48.614 16.1 Z M 56.468 15.85 L 56.468 3.25 L 58.728 3.25 L 64.118 11.39 L 64.118 3.25 L 66.418 3.25 L 66.418 15.85 L 64.528 15.85 L 58.768 7.21 L 58.768 15.85 L 56.468 15.85 Z M 74.893 16.1 L 74.893 16.1 C 73.62 16.1 72.497 15.83 71.523 15.29 L 71.523 15.29 L 71.523 15.29 C 70.543 14.75 69.783 13.987 69.243 13 L 69.243 13 L 69.243 13 C 68.703 12.007 68.433 10.857 68.433 9.55 L 68.433 9.55 L 68.433 9.55 C 68.433 8.257 68.713 7.113 69.273 6.12 L 69.273 6.12 L 69.273 6.12 C 69.827 5.133 70.6 4.367 71.593 3.82 L 71.593 3.82 L 71.593 3.82 C 72.58 3.273 73.703 3 74.963 3 L 74.963 3 L 74.963 3 C 76.177 3 77.263 3.247 78.223 3.74 L 78.223 3.74 L 77.973 5.93 L 77.973 5.93 C 77.46 5.703 76.967 5.527 76.493 5.4 L 76.493 5.4 L 76.493 5.4 C 76.013 5.273 75.5 5.21 74.953 5.21 L 74.953 5.21 L 74.953 5.21 C 73.667 5.21 72.68 5.607 71.993 6.4 L 71.993 6.4 L 71.993 6.4 C 71.3 7.193 70.953 8.243 70.953 9.55 L 70.953 9.55 L 70.953 9.55 C 70.953 10.857 71.293 11.907 71.973 12.7 L 71.973 12.7 L 71.973 12.7 C 72.647 13.493 73.62 13.89 74.893 13.89 L 74.893 13.89 L 74.893 13.89 C 75.46 13.89 75.98 13.83 76.453 13.71 L 76.453 13.71 L 76.453 13.71 C 76.927 13.59 77.433 13.41 77.973 13.17 L 77.973 13.17 L 78.223 15.36 L 78.223 15.36 C 77.183 15.853 76.073 16.1 74.893 16.1 L 74.893 16.1 Z M 80.155 15.85 L 80.155 3.25 L 82.455 3.25 L 82.455 8.24 L 88.215 8.24 L 88.215 3.25 L 90.515 3.25 L 90.515 15.85 L 88.215 15.85 L 88.215 10.4 L 82.455 10.4 L 82.455 15.85 L 80.155 15.85 Z" style="fill: rgb(102, 102, 102); white-space: pre;"/>
</svg>