<?xml version="1.0" encoding="utf-8"?>
<svg xmlns="http://www.w3.org/2000/svg" xmlns:bx="https://boxy-svg.com">
  <ellipse style="paint-order: stroke; stroke: rgb(102, 102, 102); fill: none;" transform="matrix(1, 0, -0.000001, 1, 2.179012, -2.888)" cx="7.321" cy="6.388" rx="3" ry="3" bx:origin="0.5 2.208"/>
  <ellipse style="stroke: rgb(102, 102, 102); fill: none;" transform="matrix(1, 0, -0.000001, 1, 2.116377, 9.112)" cx="7.321" cy="6.388" rx="3" ry="3" bx:origin="0.5 2.208"/>
  <ellipse style="stroke: rgb(102, 102, 102); fill-rule: evenodd; fill: rgb(102, 102, 102);" transform="matrix(1, 0, -0.000001, 1, -3.820991, 3.112001)" cx="7.321" cy="6.388" rx="3" ry="3" bx:origin="0.5 2.208"/>
  <ellipse style="stroke: rgb(102, 102, 102); fill: none;" transform="matrix(1, 0, -0.000001, 1, 8.179002, 3.112001)" cx="7.321" cy="6.388" rx="3" ry="3" bx:origin="0.5 2.208"/>
  <path d="M 23.4 15.85 L 23.4 3.25 L 31.15 3.25 L 31.15 5.48 L 25.7 5.48 L 25.7 8.16 L 29.91 8.16 L 29.91 10.4 L 25.7 10.4 L 25.7 15.85 L 23.4 15.85 Z M 39.466 15.85 L 38.426 12.86 L 33.836 12.86 L 32.796 15.85 L 30.556 15.85 L 35.046 3.25 L 37.216 3.25 L 41.706 15.85 L 39.466 15.85 Z M 34.556 10.85 L 37.706 10.85 L 36.136 6.35 L 34.556 10.85 Z M 49.784 3.25 L 52.104 3.25 L 47.624 15.85 L 45.444 15.85 L 40.964 3.25 L 43.284 3.25 L 46.524 12.52 L 49.784 3.25 Z M 58.748 16.1 L 58.748 16.1 C 57.561 16.1 56.498 15.827 55.558 15.28 L 55.558 15.28 L 55.558 15.28 C 54.611 14.733 53.871 13.967 53.338 12.98 L 53.338 12.98 L 53.338 12.98 C 52.804 11.987 52.538 10.843 52.538 9.55 L 52.538 9.55 L 52.538 9.55 C 52.538 8.257 52.804 7.113 53.338 6.12 L 53.338 6.12 L 53.338 6.12 C 53.871 5.133 54.611 4.367 55.558 3.82 L 55.558 3.82 L 55.558 3.82 C 56.498 3.273 57.561 3 58.748 3 L 58.748 3 L 58.748 3 C 59.934 3 61.001 3.273 61.948 3.82 L 61.948 3.82 L 61.948 3.82 C 62.888 4.367 63.624 5.133 64.158 6.12 L 64.158 6.12 L 64.158 6.12 C 64.691 7.113 64.958 8.257 64.958 9.55 L 64.958 9.55 L 64.958 9.55 C 64.958 10.843 64.691 11.987 64.158 12.98 L 64.158 12.98 L 64.158 12.98 C 63.624 13.967 62.888 14.733 61.948 15.28 L 61.948 15.28 L 61.948 15.28 C 61.001 15.827 59.934 16.1 58.748 16.1 L 58.748 16.1 Z M 58.748 13.87 L 58.748 13.87 C 59.974 13.87 60.914 13.473 61.568 12.68 L 61.568 12.68 L 61.568 12.68 C 62.221 11.887 62.548 10.843 62.548 9.55 L 62.548 9.55 L 62.548 9.55 C 62.548 8.257 62.221 7.213 61.568 6.42 L 61.568 6.42 L 61.568 6.42 C 60.914 5.627 59.974 5.23 58.748 5.23 L 58.748 5.23 L 58.748 5.23 C 57.521 5.23 56.581 5.627 55.928 6.42 L 55.928 6.42 L 55.928 6.42 C 55.274 7.213 54.948 8.257 54.948 9.55 L 54.948 9.55 L 54.948 9.55 C 54.948 10.843 55.274 11.887 55.928 12.68 L 55.928 12.68 L 55.928 12.68 C 56.581 13.473 57.521 13.87 58.748 13.87 L 58.748 13.87 Z M 66.977 15.85 L 66.977 3.25 L 71.577 3.25 L 71.577 3.25 C 72.924 3.25 73.984 3.57 74.757 4.21 L 74.757 4.21 L 74.757 4.21 C 75.531 4.857 75.917 5.81 75.917 7.07 L 75.917 7.07 L 75.917 7.07 C 75.917 7.943 75.731 8.66 75.357 9.22 L 75.357 9.22 L 75.357 9.22 C 74.991 9.773 74.464 10.22 73.777 10.56 L 73.777 10.56 L 76.617 15.85 L 74.047 15.85 L 71.617 11.17 L 69.277 11.17 L 69.277 15.85 L 66.977 15.85 Z M 69.277 9.24 L 70.967 9.24 L 70.967 9.24 C 72.661 9.24 73.507 8.557 73.507 7.19 L 73.507 7.19 L 73.507 7.19 C 73.507 6.53 73.314 6.03 72.927 5.69 L 72.927 5.69 L 72.927 5.69 C 72.547 5.35 71.924 5.18 71.057 5.18 L 71.057 5.18 L 69.277 5.18 L 69.277 9.24 Z M 78.245 15.85 L 78.245 3.25 L 80.545 3.25 L 80.545 15.85 L 78.245 15.85 Z M 85.761 15.85 L 85.761 5.48 L 82.201 5.48 L 82.201 3.25 L 91.631 3.25 L 91.631 5.48 L 88.071 5.48 L 88.071 15.85 L 85.761 15.85 Z M 93.293 15.85 L 93.293 3.25 L 101.353 3.25 L 101.353 5.48 L 95.643 5.48 L 95.643 8.16 L 100.073 8.16 L 100.073 10.4 L 95.643 10.4 L 95.643 13.62 L 101.533 13.62 L 101.533 15.85 L 93.293 15.85 Z" style="fill: rgb(102, 102, 102); white-space: pre;"/>
</svg>