<?xml version="1.0" encoding="utf-8"?>
<svg version="1.0" xmlns="http://www.w3.org/2000/svg">
  <g transform="matrix(0.00400716,0,0,-0.00408343,6.9044127,50.533433)">
    <path d="M 5905,9230 C 4107,9115 2415,8316 730,6786 639,6703 437,6509 281,6355 l -283,-281 528,-506 529,-506 270,267 c 149,146 335,325 415,397 1869,1685 3702,2322 5595,1943 1358,-271 2797,-1094 4214,-2409 74,-69 158,-146 187,-173 l 52,-47 448,467 c 247,258 475,495 507,529 l 57,61 -173,160 c -1962,1823 -3826,2779 -5767,2958 -194,18 -768,27 -955,15 z" style="fill: rgb(255, 255, 255);"/>
    <path d="M 5945,6613 C 5458,6574 5092,6499 4645,6346 3725,6034 2832,5447 1936,4569 c -125,-122 -226,-225 -226,-229 0,-5 199,-199 442,-431 244,-233 480,-459 525,-503 l 82,-79 189,184 c 300,294 518,484 797,694 642,485 1278,784 1915,899 231,41 342,51 610,51 267,-1 368,-9 610,-51 936,-163 1919,-718 2938,-1658 85,-77 156,-140 158,-139 14,9 1004,1045 1004,1052 0,16 -394,372 -610,552 -967,804 -1919,1320 -2880,1559 -281,70 -549,114 -855,140 -108,9 -591,11 -690,3 z" style="fill: rgb(255, 255, 255);"/>
    <path d="m 6035,4054 c -671,-53 -1337,-336 -1945,-827 -199,-161 -545,-486 -539,-506 2,-5 239,-235 527,-510 l 522,-500 103,101 c 574,564 1131,825 1664,778 326,-29 633,-144 983,-368 180,-115 437,-319 593,-471 l 68,-66 57,60 c 32,33 258,269 502,524 245,255 446,468 447,475 1,6 -49,57 -110,113 -761,692 -1495,1072 -2273,1178 -114,16 -490,27 -599,19 z" style="fill: rgb(255, 255, 255);"/>
    <path d="m 6115,1659 c -299,-43 -565,-236 -689,-500 -55,-116 -70,-187 -70,-324 0,-137 15,-208 70,-324 154,-326 504,-527 884,-507 354,18 652,207 791,502 54,113 72,197 72,329 0,136 -19,220 -78,340 -167,344 -570,543 -980,484 z" style="fill: rgb(255, 255, 255);"/>
  </g>
</svg>