<svg xmlns="http://www.w3.org/2000/svg" viewBox="67 322 745 150"><path fill="#c2c4d2" d="M67 392v53l48 27h649l48-27v-53l-48-27H524l-25-43H381l-25 43H115z"/><linearGradient id="a" gradientUnits="userSpaceOnUse" x1="464.335" y1="236.5" x2="464.335" y2="98.5" gradientTransform="matrix(1 0 0 -1 -24.5 564.5)"><stop offset="0" stop-color="#d9dde9"/><stop offset=".39" stop-color="#777489"/><stop offset=".98" stop-color="#d9dde9"/></linearGradient><path fill="url(#a)" d="M520 371l-25-43H384.67l-25 43H115.33L73 394.75v47.5L115.33 466h649.01l42.33-23.75v-47.5L764.34 371z"/><path d="M473.66 339.7l-9.37 28.55h4.63l9.391-27.57c.34-1.26 1.369-2.18 2.579-2.18 1.221 0 2.25.92 2.591 2.18L491.42 364h-12.46v4.25h18.54l-9.37-28.55a7.525 7.525 0 0 0-7.24-5.45c-3.43 0-6.329 2.3-7.23 5.45zm5.49 17.73l1.64-4.87 1.71 4.87h-3.35zm-.68-13.98l-8.39 24.8h5.41l3.47-10.28v4.86h10.9l-6.471-19.38c-.329-1.08-1.31-4.18-2.46-4.18-1.159 0-2.139 3.1-2.459 4.18zm-29.63-3.79h16.221v-4.64h-16.61c-4.48 0-8.11 3.64-8.11 8.12v17c0 4.48 3.63 8.11 8.11 8.11h16.61v-21.64H451.93v4.25h8.49v12.75h-11.58a3.855 3.855 0 0 1-3.859-3.86v-16.23a3.854 3.854 0 0 1 3.859-3.86zm3.09 12.36v4.64h2.7v1.16h-2.7c-.64 0-1.16-.52-1.16-1.16v-10.05c0-.64.521-1.16 1.16-1.16h13.131v-4.63H450c-2.14 0-3.87 1.73-3.87 3.86v13.91c0 2.13 1.73 3.86 3.87 3.86h9.27v-10.43h-7.34zm-29.74-12.36h16.22v-4.64H421.8c-4.48 0-8.11 3.64-8.11 8.12v16.81c0 4.48 3.63 8.12 8.11 8.12h16.61v-4.64h-16.22c-2.13 0-3.86-1.73-3.86-3.86v-16.05c0-2.13 1.73-3.86 3.86-3.86zm12.74 11.2v-4.25h-10.81c0-.64.52-1.16 1.16-1.16h13.13v-4.63h-15.06c-2.13 0-3.86 1.73-3.86 3.86v6.18h15.44zm0 1.55v4.25h-10.81c0 .64.52 1.16 1.16 1.16h13.13v4.63h-15.06c-2.13 0-3.86-1.73-3.86-3.86v-6.18h15.44zm-39.69 5.79h-9.74v4.25H400.56c2.79-.1 5.02-2.4 5.02-5.21 0-2.88-2.33-5.22-5.21-5.22h-5.86c-2.37-.9-4.38-3.25-4.38-5.99 0-3.52 3.24-6.37 6.76-6.37h14.49v-4.64h-15.07c-5.97 0-10.81 4.85-10.81 10.82 0 5.98 5.23 10.82 11.2 10.82v-.05l.03.05h3.45a.77.77 0 0 1 0 1.54h-4.94zm6.39-13.13h9.75v-4.25H396.31a5.217 5.217 0 0 0 .2 10.43h5.86c2.37.91 4.37 3.25 4.37 5.99 0 3.52-3.24 6.37-6.76 6.37H385.5v4.64h15.06c5.97 0 10.82-4.84 10.82-10.82 0-5.97-5.23-10.82-11.2-10.82v.06l-.04-.06h-3.44a.77.77 0 0 1 0-1.54h4.93z" fill="#181c4e"/><linearGradient id="b" gradientUnits="userSpaceOnUse" x1="349.977" y1="187.023" x2="417.093" y2="119.907" gradientTransform="matrix(1 0 0 -1 -24.5 564.5)"><stop offset="0"/><stop offset=".11" stop-color="#181c4e"/><stop offset=".22" stop-color="#181818"/><stop offset=".34" stop-color="#181c4e"/><stop offset=".47"/><stop offset=".59" stop-color="#181c4e"/><stop offset=".72"/><stop offset=".84" stop-color="#181c4e"/><stop offset=".98"/></linearGradient><path fill="url(#b)" d="M413 383v70h-24v-25.86l-46-25.709V453h-24v-70h25l45 25.14V383z"/><linearGradient id="c" gradientUnits="userSpaceOnUse" x1="645.52" y1="170.946" x2="712.267" y2="99.942" gradientTransform="matrix(1 0 0 -1 -24.5 564.5)"><stop offset="0"/><stop offset=".11" stop-color="#181c4e"/><stop offset=".22" stop-color="#181818"/><stop offset=".34" stop-color="#181c4e"/><stop offset=".47"/><stop offset=".59" stop-color="#181c4e"/><stop offset=".72"/><stop offset=".84" stop-color="#181c4e"/><stop offset=".98"/></linearGradient><path fill="url(#c)" d="M632 383h24v70h-24z"/><linearGradient id="d" gradientUnits="userSpaceOnUse" x1="453.714" y1="185.786" x2="520.117" y2="119.383" gradientTransform="matrix(1 0 0 -1 -24.5 564.5)"><stop offset="0"/><stop offset=".11" stop-color="#181c4e"/><stop offset=".22" stop-color="#181818"/><stop offset=".34" stop-color="#181c4e"/><stop offset=".47"/><stop offset=".59" stop-color="#181c4e"/><stop offset=".72"/><stop offset=".84" stop-color="#181c4e"/><stop offset=".98"/></linearGradient><path fill="url(#d)" d="M489 397h-40v14h48l-23 14h-25v14h65l-23 14h-66v-54l24-16h63z"/><linearGradient id="e" gradientUnits="userSpaceOnUse" x1="241.714" y1="185.786" x2="308.117" y2="119.383" gradientTransform="matrix(1 0 0 -1 -24.5 564.5)"><stop offset="0"/><stop offset=".11" stop-color="#181c4e"/><stop offset=".22" stop-color="#181818"/><stop offset=".34" stop-color="#181c4e"/><stop offset=".47"/><stop offset=".59" stop-color="#181c4e"/><stop offset=".72"/><stop offset=".84" stop-color="#181c4e"/><stop offset=".98"/></linearGradient><path fill="url(#e)" d="M277 397h-40v14h48l-23 14h-25v14h65l-23 14h-66v-54l24-16h63z"/><linearGradient id="f" gradientUnits="userSpaceOnUse" x1="143.25" y1="180.25" x2="208.75" y2="114.75" gradientTransform="matrix(1 0 0 -1 -24.5 564.5)"><stop offset="0"/><stop offset=".11" stop-color="#181c4e"/><stop offset=".22" stop-color="#181818"/><stop offset=".34" stop-color="#181c4e"/><stop offset=".47"/><stop offset=".59" stop-color="#181c4e"/><stop offset=".72"/><stop offset=".84" stop-color="#181c4e"/><stop offset=".98"/></linearGradient><path fill="url(#f)" d="M104 399l24-16h73l-23 14h-50v42h45v-17h-28l23-14h29v29l-24 16h-69z"/><linearGradient id="g" gradientUnits="userSpaceOnUse" x1="552.459" y1="186.541" x2="619.359" y2="119.641" gradientTransform="matrix(1 0 0 -1 -24.5 564.5)"><stop offset="0"/><stop offset=".11" stop-color="#181c4e"/><stop offset=".22" stop-color="#181818"/><stop offset=".34" stop-color="#181c4e"/><stop offset=".47"/><stop offset=".59" stop-color="#181c4e"/><stop offset=".72"/><stop offset=".84" stop-color="#181c4e"/><stop offset=".98"/></linearGradient><path fill="url(#g)" d="M589 439v-14h-68v-27l23-14h72l-23 14h-47v13h69v28l-23 14h-71l23-14z"/><linearGradient id="h" gradientUnits="userSpaceOnUse" x1="705.46" y1="186.54" x2="772.359" y2="119.641" gradientTransform="matrix(1 0 0 -1 -24.5 564.5)"><stop offset="0"/><stop offset=".11" stop-color="#181c4e"/><stop offset=".22" stop-color="#181818"/><stop offset=".34" stop-color="#181c4e"/><stop offset=".47"/><stop offset=".59" stop-color="#181c4e"/><stop offset=".72"/><stop offset=".84" stop-color="#181c4e"/><stop offset=".98"/></linearGradient><path fill="url(#h)" d="M742 439v-14h-68v-27l23-14h72l-23 14h-47v13h69v28l-23 14h-71l23-14z"/></svg>