<svg xmlns="http://www.w3.org/2000/svg" viewBox="0 0 561.527 149.949"><g fill="#23568f" stroke="#fff" stroke-width="1.5" stroke-miterlimit="10"><path d="M421.511 68.35l.674-2.268h40.578l-.796 2.268c-3.678 0-6.488.818-8.428 2.452-1.942 1.635-3.647 5.046-5.12 10.236l-15.2 53.205c-1.104 3.76-1.655 6.272-1.655 7.54 0 1.47.571 2.614 1.716 3.432 1.472 1.063 4.25 1.635 8.336 1.716l-.613 2.268h-41.252l.675-2.268c4.127 0 7.151-.786 9.071-2.36 1.92-1.572 3.657-5.016 5.21-10.328l15.325-53.205c.94-3.269 1.41-5.741 1.41-7.417 0-1.511-.572-2.696-1.717-3.555-1.145-.858-3.882-1.43-8.214-1.716zM470.364 68.35l.675-2.268h40.577l-.797 2.268c-3.678 0-6.487.818-8.428 2.452-1.941 1.635-3.647 5.046-5.119 10.236l-15.2 53.205c-1.104 3.76-1.656 6.272-1.656 7.54 0 1.47.573 2.614 1.716 3.432 1.472 1.063 4.25 1.635 8.337 1.716l-.613 2.268h-41.252l.674-2.268c4.128 0 7.152-.786 9.072-2.36 1.92-1.572 3.658-5.016 5.21-10.328l15.324-53.205c.94-3.269 1.41-5.741 1.41-7.417 0-1.511-.572-2.696-1.717-3.555-1.144-.858-3.882-1.43-8.213-1.716zM519.216 68.35l.675-2.268h40.578l-.797 2.268c-3.677 0-6.487.818-8.428 2.452-1.94 1.635-3.648 5.046-5.118 10.236l-15.202 53.205c-1.103 3.76-1.654 6.272-1.654 7.54 0 1.47.571 2.614 1.716 3.432 1.47 1.063 4.249 1.635 8.336 1.716l-.614 2.268h-41.251l.673-2.268c4.128 0 7.152-.786 9.072-2.36 1.921-1.572 3.658-5.016 5.211-10.328l15.324-53.205c.94-3.269 1.41-5.741 1.41-7.417 0-1.511-.573-2.696-1.717-3.555-1.144-.858-3.882-1.43-8.214-1.716z" stroke-width="1.609035"/><path d="M421.511 68.35l.674-2.268h40.578l-.796 2.268c-3.678 0-6.488.818-8.428 2.452-1.942 1.635-3.647 5.046-5.12 10.236l-15.2 53.205c-1.104 3.76-1.655 6.272-1.655 7.54 0 1.47.571 2.614 1.716 3.432 1.472 1.063 4.25 1.635 8.336 1.716l-.613 2.268h-41.252l.675-2.268c4.127 0 7.151-.786 9.071-2.36 1.92-1.572 3.657-5.016 5.21-10.328l15.325-53.205c.94-3.269 1.41-5.741 1.41-7.417 0-1.511-.572-2.696-1.717-3.555-1.145-.858-3.882-1.43-8.214-1.716zM470.364 68.35l.675-2.268h40.577l-.797 2.268c-3.678 0-6.487.818-8.428 2.452-1.941 1.635-3.647 5.046-5.119 10.236l-15.2 53.205c-1.104 3.76-1.656 6.272-1.656 7.54 0 1.47.573 2.614 1.716 3.432 1.472 1.063 4.25 1.635 8.337 1.716l-.613 2.268h-41.252l.674-2.268c4.128 0 7.152-.786 9.072-2.36 1.92-1.572 3.658-5.016 5.21-10.328l15.324-53.205c.94-3.269 1.41-5.741 1.41-7.417 0-1.511-.572-2.696-1.717-3.555-1.144-.858-3.882-1.43-8.213-1.716zM519.216 68.35l.675-2.268h40.578l-.797 2.268c-3.677 0-6.487.818-8.428 2.452-1.94 1.635-3.648 5.046-5.118 10.236l-15.202 53.205c-1.103 3.76-1.654 6.272-1.654 7.54 0 1.47.571 2.614 1.716 3.432 1.47 1.063 4.249 1.635 8.336 1.716l-.614 2.268h-41.251l.673-2.268c4.128 0 7.152-.786 9.072-2.36 1.921-1.572 3.658-5.016 5.211-10.328l15.324-53.205c.94-3.269 1.41-5.741 1.41-7.417 0-1.511-.573-2.696-1.717-3.555-1.144-.858-3.882-1.43-8.214-1.716z" stroke-width="1.609035"/><g><path d="M.976 149.2l14.65-54.936h18.311l21.975 43.949 43.947-43.949h18.312L103.522 149.2H85.21l7.325-25.636-25.636 25.636H41.262L26.612 119.9l-7.324 29.3H.976zM107.185 149.2l43.947-54.936h21.975l32.961 54.935h-21.974l-7.325-10.986h-36.624l7.325-10.987h21.974l-10.986-18.313-32.962 40.286h-18.311zM224.38 94.264h87.896c4.884 0 6.816 2.34 5.799 7.02l-4.578 18.616c-1.628 4.884-4.476 7.326-8.546 7.326h-25.636l25.636 21.973h-21.974l-36.623-32.96h49.06l2.976-10.988h-58.598l-11.75 43.948H209.73l14.65-54.935zM312.276 149.2l14.65-54.936h18.311l-8.087 30.291 48.373-30.29h29.299l-53.41 31.13 35.098 23.804h-29.298l-30.444-23.042-6.18 23.042h-18.312z" stroke-width="1.001445"/><path d="M.976 149.2l14.65-54.936h18.311l21.975 43.949 43.947-43.949h18.312L103.522 149.2H85.21l7.325-25.636-25.636 25.636H41.262L26.612 119.9l-7.324 29.3H.976zM107.185 149.2l43.947-54.936h21.975l32.961 54.935h-21.974l-7.325-10.986h-36.624l7.325-10.987h21.974l-10.986-18.313-32.962 40.286h-18.311zM224.38 94.264h87.896c4.884 0 6.816 2.34 5.799 7.02l-4.578 18.616c-1.628 4.884-4.476 7.326-8.546 7.326h-25.636l25.636 21.973h-21.974l-36.623-32.96h49.06l2.976-10.988h-58.598l-11.75 43.948H209.73l14.65-54.935zM312.276 149.2l14.65-54.936h18.311l-8.087 30.291 48.373-30.29h29.299l-53.41 31.13 35.098 23.804h-29.298l-30.444-23.042-6.18 23.042h-18.312z" stroke-width="1.001445"/></g><g><path d="M24.699 27.267l5.05-18.94C31.014 3.275 34.17.75 39.22.75h90.916l-2.367 11.365H47.586l-3.078 11.364h70.476c6.314 0 8.839 2.526 7.576 7.576l-5.05 18.941c-1.684 5.05-5.052 7.576-10.102 7.576H16.49l2.368-11.364H99.04l3.079-11.364H31.644c-5.893 0-8.208-2.526-6.945-7.577zM124.77 49.996l11.049-41.67c1.262-5.05 4.42-7.576 9.47-7.576h90.916l-2.367 11.365h-80.183l-3.078 11.364h66.687l-2.367 11.365h-67.32L144.5 46.208h80.34l-2.21 11.364h-92.494c-5.05 0-6.84-2.525-5.366-7.576zM230.839 49.996l11.049-41.67c1.262-5.05 4.42-7.576 9.47-7.576h94.704l-2.368 11.365h-83.97l-9.155 34.093h65.188l3.788-11.364h-17.52l2.367-11.365h34.094l-7.261 26.833c-1.684 4.84-4.314 7.26-7.892 7.26h-87.128c-5.05 0-6.84-2.525-5.366-7.576zM334.698 57.572L380.156.75h22.729l34.093 56.822H414.25l-7.576-11.364h-37.882l7.577-11.364h22.729l-11.365-18.942-34.094 41.67h-18.94z" stroke-width="1.0358399999999999"/><path d="M24.699 27.267l5.05-18.94C31.014 3.275 34.17.75 39.22.75h90.916l-2.367 11.365H47.586l-3.078 11.364h70.476c6.314 0 8.839 2.526 7.576 7.576l-5.05 18.941c-1.684 5.05-5.052 7.576-10.102 7.576H16.49l2.368-11.364H99.04l3.079-11.364H31.644c-5.893 0-8.208-2.526-6.945-7.577zM124.77 49.996l11.049-41.67c1.262-5.05 4.42-7.576 9.47-7.576h90.916l-2.367 11.365h-80.183l-3.078 11.364h66.687l-2.367 11.365h-67.32L144.5 46.208h80.34l-2.21 11.364h-92.494c-5.05 0-6.84-2.525-5.366-7.576zM230.839 49.996l11.049-41.67c1.262-5.05 4.42-7.576 9.47-7.576h94.704l-2.368 11.365h-83.97l-9.155 34.093h65.188l3.788-11.364h-17.52l2.367-11.365h34.094l-7.261 26.833c-1.684 4.84-4.314 7.26-7.892 7.26h-87.128c-5.05 0-6.84-2.525-5.366-7.576zM334.698 57.572L380.156.75h22.729l34.093 56.822H414.25l-7.576-11.364h-37.882l7.577-11.364h22.729l-11.365-18.942-34.094 41.67h-18.94z" stroke-width="1.0358399999999999"/></g></g></svg>