<svg xmlns="http://www.w3.org/2000/svg" viewBox="0 0 664.144 73.493"><path d="M.486 54.49h107.175v18.2H.486zM.486 2.468h107.175v50.779H.486z"/><g fill="#0a0"><path d="M60.414 8.1h12.783v38.91H60.414zM75.949 8.118a40.461 40.461 0 0 0-.46-.01l-.079 13.33h.031v-.041c.217-.029.436-.043.66-.048l2.684-13.063c-1.048-.129-2.034-.143-2.836-.168zm4.922.37l-3.768 12.918c.336.046.665.12.981.218l6.19-12.283a19.109 19.109 0 0 0-3.403-.853zm5.471 1.72L78.94 21.959c.247.12.487.257.715.408l9.509-10.462a19.16 19.16 0 0 0-2.822-1.697zm4.601 3.157L80.304 22.86c.254.221.492.463.708.722l12.518-7.288a19.485 19.485 0 0 0-2.587-2.929zm3.558 4.425l-13.025 6.421c.149.233.283.476.401.729l14.3-3.44a19.405 19.405 0 0 0-1.676-3.71zm2.21 5.686l-14.573 2.131c.149.45.25.924.294 1.413H97.14a19.48 19.48 0 0 0-.429-3.544zm-14.279 4.711c-.302 3.162-2.953 5.634-6.176 5.634-.277 0-.548-.02-.815-.055v-.269h-.031v13.459c1.104-.008 1.673-.054 2.532-.054 10.407 0 18.881-8.324 19.198-18.714H82.432z"/></g><g fill="red"><path d="M32.383 7.315v39.358H5.92L32.383 7.315z"/><path d="M54.528 7.315v39.358H28.065L54.528 7.315z"/></g><g fill="red"><path d="M114.1 67.962c-.026.628.145 1.314.513 2.062.368.747 1.086 1.394 2.153 1.94 1.068.547 2.638.834 4.711.86.561.023 1.372-.064 2.436-.261a6.842 6.842 0 0 0 2.938-1.32c.896-.684 1.371-1.743 1.427-3.18-.041-1.277-.5-2.194-1.375-2.754-.876-.559-1.924-.944-3.142-1.157l-4.205-.871a3.71 3.71 0 0 1-1.183-.388c-.398-.203-.612-.58-.643-1.132.04-.649.37-1.104.988-1.365a4.946 4.946 0 0 1 2.015-.378c1.519.05 2.489.335 2.911.852.423.517.63.962.622 1.337h3.46c.007-.62-.186-1.29-.58-2.011-.395-.722-1.08-1.344-2.06-1.867-.979-.524-2.341-.797-4.088-.823-1.845.026-3.247.292-4.208.8-.96.51-1.61 1.108-1.949 1.797-.339.689-.497 1.316-.475 1.881.055 1.545.619 2.589 1.695 3.134 1.074.544 2.337.924 3.784 1.142l1.85.364c.929.164 1.678.369 2.247.613.568.245.861.642.876 1.19-.043.752-.431 1.259-1.162 1.52-.731.26-1.545.382-2.441.364-1.528-.046-2.528-.338-2.998-.871-.47-.534-.69-1.027-.655-1.48l-3.463.002zM143.726 57.89H131.04v14.55h13.096v-2.574h-9.564v-3.769h8.41v-2.573h-8.41v-3.06h9.155v-2.573zM155.188 67.05h4.013c-.451 1.418-1.141 2.32-2.073 2.702-.93.383-1.633.55-2.108.499-1.282.04-2.425-.299-3.43-1.013-1.005-.715-1.536-2.046-1.592-3.992.045-1.848.549-3.186 1.51-4.012.962-.825 2.108-1.23 3.44-1.216 1.271.065 2.217.392 2.84.983.623.591.934 1.06.931 1.409h3.605c-.056-.693-.347-1.414-.873-2.163-.526-.75-1.335-1.388-2.428-1.916-1.092-.527-2.515-.801-4.269-.825h-.047c-1.927.022-3.51.395-4.748 1.118-1.239.724-2.157 1.667-2.751 2.83a8.065 8.065 0 0 0-.888 3.752c.071 2.55.873 4.459 2.406 5.724 1.533 1.265 3.375 1.897 5.523 1.895 1.544-.037 2.72-.293 3.53-.77.808-.476 1.426-.957 1.853-1.439l.36 1.824h2.404v-7.841h-7.21l.002 2.45zM169.422 69.44h6.367l1.106 3h3.917l-6.08-14.548h-4.157l-6.151 14.548h3.796l1.202-3zm3.171-8.266h.048l2.139 5.754h-4.398l2.211-5.754zM200.01 65.915v6.524h3.605V57.891h-3.605v5.511h-6.727v-5.511h-3.605v14.548h3.605v-6.524h6.727zM210.48 57.89h-3.605v14.55h3.605V57.89zM221.926 67.05h4.013c-.45 1.418-1.141 2.32-2.072 2.702-.931.383-1.634.55-2.108.499-1.282.04-2.426-.299-3.43-1.013-1.006-.715-1.536-2.046-1.593-3.992.046-1.848.549-3.186 1.51-4.012.962-.825 2.109-1.23 3.44-1.216 1.272.065 2.218.392 2.84.983.624.591.934 1.06.932 1.409h3.604c-.056-.693-.347-1.414-.873-2.163-.526-.75-1.335-1.388-2.427-1.916-1.093-.527-2.516-.801-4.27-.825h-.047c-1.926.022-3.51.395-4.748 1.118-1.238.724-2.156 1.667-2.75 2.83a8.065 8.065 0 0 0-.888 3.752c.07 2.55.872 4.459 2.405 5.724 1.534 1.265 3.375 1.897 5.524 1.895 1.544-.037 2.72-.293 3.529-.77.808-.476 1.427-.957 1.853-1.439l.36 1.824h2.404v-7.841h-7.209l.001 2.45zM242.72 65.915v6.524h3.604V57.891h-3.605v5.511h-6.727v-5.511h-3.605v14.548h3.605v-6.524h6.727zM264.274 68.488l1.73 1.377c-.328.14-.658.24-.991.299a5.327 5.327 0 0 1-.955.086c-1.047.042-2.071-.296-3.073-1.016-1.002-.72-1.54-2.076-1.613-4.07.074-1.993.611-3.35 1.613-4.07 1.002-.72 2.025-1.057 3.073-1.015 1.046-.042 2.071.296 3.073 1.016 1.002.72 1.54 2.076 1.613 4.07-.003.676-.075 1.272-.217 1.787a4.7 4.7 0 0 1-.577 1.333l-1.826-1.44-1.85 1.643zm8.145 3.363l-1.874-1.5c.538-.562.97-1.27 1.298-2.121.328-.853.496-1.874.504-3.065-.06-2.244-.607-3.917-1.642-5.02-1.034-1.103-2.196-1.826-3.485-2.17-1.288-.344-2.342-.5-3.163-.468-.821-.032-1.875.124-3.164.468-1.288.344-2.449 1.068-3.484 2.17-1.035 1.103-1.583 2.776-1.643 5.02.06 2.245.608 3.918 1.643 5.02 1.034 1.103 2.196 1.827 3.484 2.17s2.343.501 3.164.469c.524.01 1.183-.05 1.976-.183a9.258 9.258 0 0 0 2.445-.79l2.043 1.64 1.898-1.64zM289.033 57.89h-3.677v9.585c.01.887-.261 1.57-.813 2.049-.552.479-1.442.721-2.67.727-.864.005-1.587-.228-2.169-.699-.581-.471-.884-1.21-.907-2.219v-9.442h-3.676v9.644c.018.73.132 1.389.34 1.976a3.963 3.963 0 0 0 1.006 1.55 6.327 6.327 0 0 0 2.721 1.42c1.013.245 1.932.358 2.758.342 2.198.01 3.923-.422 5.174-1.3 1.253-.877 1.89-2.268 1.914-4.171l-.001-9.461zM296.233 69.44h6.367l1.106 3h3.917l-6.08-14.548h-4.157l-6.151 14.548h3.796l1.202-3zm3.171-8.266h.048l2.139 5.754h-4.397l2.21-5.754zM313.55 57.89h-3.604v14.55h12.182v-2.635h-8.578V57.89zM327.95 57.89h-3.604v14.55h3.605V57.89zM338.628 60.464h5.214V57.89H329.81v2.573h5.214v11.975h3.604V60.464zM354.088 66.989l5.767-9.097h-4.085l-3.412 6.321-3.58-6.321h-4.254l5.959 9.057v5.491h3.605v-5.451zM383.315 62.653c-.057-.74-.347-1.502-.87-2.29-.522-.785-1.32-1.452-2.395-2s-2.47-.833-4.185-.857c-2.275.002-4.152.646-5.632 1.932-1.479 1.286-2.246 3.202-2.298 5.747.041 2.517.782 4.417 2.22 5.703 1.438 1.286 3.325 1.931 5.661 1.935 2.16-.026 3.86-.526 5.1-1.5 1.24-.973 2.04-2.263 2.397-3.87h-3.605c-.223.894-.665 1.573-1.324 2.037-.659.463-1.491.697-2.496.698-1.514-.043-2.608-.544-3.283-1.502-.676-.958-1.007-2.112-.995-3.462.07-2.011.567-3.373 1.49-4.085.924-.712 1.852-1.046 2.788-1 1.445.05 2.417.36 2.92.929.501.57.801 1.097.9 1.583h3.607zM385.301 65.165c.06 2.245.608 3.918 1.642 5.02 1.035 1.103 2.197 1.827 3.485 2.17 1.288.345 2.342.501 3.164.469.82.032 1.875-.124 3.163-.468s2.45-1.068 3.485-2.17c1.034-1.103 1.582-2.776 1.642-5.02-.06-2.245-.608-3.918-1.642-5.021-1.035-1.103-2.197-1.826-3.485-2.17-1.288-.344-2.342-.5-3.163-.468-.822-.032-1.876.124-3.164.468-1.288.344-2.45 1.068-3.485 2.17-1.034 1.102-1.582 2.776-1.642 5.02zm3.605 0c.074-1.993.61-3.35 1.612-4.07 1.002-.72 2.026-1.057 3.074-1.015 1.046-.042 2.07.296 3.073 1.015 1.002.72 1.54 2.077 1.612 4.07-.074 1.994-.61 3.351-1.612 4.07-1.002.72-2.026 1.058-3.073 1.016-1.047.042-2.072-.296-3.074-1.016-1.001-.72-1.54-2.076-1.612-4.07zM421.305 57.89h-5.214l-3.075 11.47h-.048l-3.123-11.47h-5.262v14.55h3.364V60.281h.047l3.149 12.157h3.532l3.22-12.157h.048v12.157h3.364l-.002-14.548zM428.346 67.191h4.133c1.528-.033 2.691-.336 3.488-.91.797-.574 1.337-1.221 1.62-1.941.282-.72.413-1.317.396-1.788-.014-1.445-.49-2.578-1.427-3.401-.936-.824-2.247-1.244-3.932-1.26h-7.882V72.44h3.604v-5.249zm0-2.512v-4.276h2.86c1.11-.005 1.918.153 2.424.471.507.32.756.831.748 1.535.056.378-.056.837-.336 1.377s-1.065.838-2.355.892h-3.34zM454.61 57.89h-3.677v9.585c.01.887-.261 1.57-.813 2.049-.553.479-1.442.721-2.67.727-.864.005-1.587-.228-2.169-.699-.581-.471-.884-1.21-.907-2.219v-9.442h-3.676v9.644c.018.73.131 1.389.34 1.976a3.963 3.963 0 0 0 1.006 1.55 6.327 6.327 0 0 0 2.721 1.42c1.013.245 1.93.358 2.757.342 2.199.01 3.924-.422 5.175-1.3 1.253-.877 1.89-2.268 1.914-4.171l-.002-9.461zM465.487 60.464h5.214V57.89H456.67v2.573h5.214v11.975h3.604V60.464zM485.536 57.89h-12.688v14.55h13.096v-2.574h-9.564v-3.769h8.41v-2.573h-8.41v-3.06h9.156v-2.573zM488.898 72.44h3.533v-5.694h3.724c1.284-.01 2.087.202 2.406.633.32.432.455 1.139.405 2.122.001.736.035 1.326.102 1.774.068.446.162.834.282 1.165h3.99v-.385c-.369-.094-.593-.341-.674-.742-.08-.4-.112-1.12-.095-2.155-.003-1.309-.19-2.197-.562-2.665-.373-.467-.914-.809-1.625-1.023.857-.257 1.515-.695 1.973-1.315.459-.619.69-1.336.694-2.15.017-.447-.111-.988-.388-1.625s-.808-1.204-1.594-1.701c-.786-.498-1.936-.76-3.448-.787h-8.723v14.547zm3.533-8.146v-3.89h4.493c1.03.03 1.715.252 2.055.663.34.411.496.825.468 1.242.001.712-.23 1.223-.69 1.532-.462.31-1.161.461-2.096.454h-4.23zM519.175 68.914h-.048l-3.7-11.023h-3.87l5.816 14.548h3.436l5.863-14.548h-3.748l-3.749 11.023zM532.295 57.89h-3.604v14.55h3.604V57.89zM535.643 72.44h7.473c1.881-.037 3.344-.465 4.387-1.283 1.043-.818 1.77-1.81 2.182-2.975.411-1.165.608-2.286.592-3.362.02-.953-.155-1.96-.527-3.021-.373-1.062-1.068-1.969-2.087-2.725-1.018-.755-2.486-1.15-4.404-1.184h-7.617v14.55zm3.533-12.037h3.46c.533-.022 1.102.06 1.711.249.608.188 1.13.614 1.567 1.28.437.664.666 1.702.686 3.111.02 1.25-.266 2.362-.859 3.338-.592.976-1.612 1.491-3.058 1.546h-3.508v-9.524zM565.696 57.89h-12.688v14.55h13.096v-2.574h-9.563v-3.769h8.41v-2.573h-8.41v-3.06h9.155v-2.573zM568.29 65.165c.06 2.245.608 3.918 1.643 5.02 1.034 1.103 2.196 1.827 3.485 2.17s2.342.501 3.163.469c.821.032 1.875-.124 3.164-.468s2.449-1.068 3.484-2.17c1.035-1.103 1.583-2.776 1.643-5.02-.06-2.245-.608-3.918-1.643-5.021-1.034-1.103-2.196-1.826-3.484-2.17-1.289-.344-2.343-.5-3.164-.468-.82-.032-1.875.124-3.163.468-1.289.344-2.45 1.068-3.485 2.17-1.036 1.102-1.582 2.776-1.642 5.02zm3.605 0c.074-1.993.611-3.35 1.613-4.07 1.002-.72 2.026-1.057 3.073-1.015 1.047-.042 2.071.296 3.073 1.015 1.002.72 1.54 2.077 1.613 4.07-.074 1.994-.61 3.351-1.613 4.07-1.002.72-2.025 1.058-3.073 1.016-1.046.042-2.071-.296-3.073-1.016-1.002-.72-1.54-2.076-1.613-4.07zM601.799 67.05h4.013c-.451 1.418-1.142 2.32-2.073 2.702-.93.383-1.633.55-2.108.499-1.282.04-2.425-.299-3.43-1.013-1.005-.715-1.536-2.046-1.592-3.992.045-1.848.548-3.186 1.51-4.012.962-.825 2.108-1.23 3.44-1.216 1.271.065 2.217.392 2.84.983.623.591.934 1.06.931 1.409h3.605c-.057-.693-.348-1.414-.874-2.163-.525-.75-1.335-1.388-2.427-1.916-1.092-.527-2.515-.801-4.269-.825h-.048c-1.926.022-3.51.395-4.748 1.118-1.238.724-2.155 1.667-2.75 2.83a8.065 8.065 0 0 0-.888 3.752c.07 2.55.872 4.459 2.406 5.724 1.533 1.265 3.374 1.897 5.523 1.895 1.544-.037 2.72-.293 3.53-.77.807-.476 1.426-.957 1.853-1.439l.36 1.824h2.404v-7.841h-7.21v2.45zM616.033 69.44h6.367l1.105 3h3.918l-6.08-14.548h-4.157l-6.152 14.548h3.797l1.202-3zm3.171-8.266h.048l2.139 5.754h-4.398l2.211-5.754zM646.301 57.89h-5.214l-3.075 11.47h-.048l-3.123-11.47h-5.262v14.55h3.364V60.281h.048l3.148 12.157h3.532l3.22-12.157h.048v12.157h3.364l-.002-14.548zM662.426 57.89h-12.688v14.55h13.096v-2.574h-9.563v-3.769h8.41v-2.573h-8.41v-3.06h9.155v-2.573z"/></g><g fill="#99989d" stroke="#000" stroke-width="4.472" stroke-miterlimit="10"><path d="M411.545 42.1h18.542c.883 0 1.545-.399 1.987-1.196l5.629-12.092.331-1.329-.331-1.329-5.629-11.959c-.442-.886-1.104-1.329-1.987-1.329h-18.542V42.1zM395.653 2.236h44.367c1.324 0 2.428.886 3.311 2.658l10.264 21.261.331 1.329-.331 1.329-10.264 21.261c-.883 1.772-1.987 2.658-3.311 2.658h-44.367V2.236zM459.224 2.236h42.381c1.324 0 2.428.886 3.311 2.658l6.953 14.617.331 1.329-.331 1.329-10.264 11.959L512.2 52.731h-15.893l-15.231-25.247h7.946c.883 0 1.545-.221 1.987-.664l5.298-5.98-2.649-6.644c-.442-.886-1.104-1.329-1.987-1.329h-16.555v39.864h-15.893V2.236h.001zM533.39 52.731h-15.893V2.236h15.893v50.495zM554.58 18.846L570.473 42.1l15.893-23.254V2.236h15.893v18.603c0 1.772-.221 3.101-.662 3.986L583.718 52.73H557.23l-17.88-27.904c-.441-.886-.662-2.215-.662-3.986V2.236h15.893l-.001 16.61zM623.449 42.1h37.083v10.63h-52.976V19.51c0-.886.221-1.772.662-2.658l7.284-13.288c.441-.886 1.324-1.329 2.649-1.329h42.381v10.63h-31.786c-.883 0-1.545.443-1.987 1.329l-3.311 7.973h37.083l-5.298 10.63h-31.786l.002 9.303z"/></g><g fill="#99989d" stroke="#000" stroke-width="4.472" stroke-miterlimit="10"><path d="M116.569 51.7l26.824-44.559c1.277-2.546 2.555-3.819 3.832-3.819h19.16v5.92l1.277-2.101c1.277-2.546 2.555-3.819 3.832-3.819h22.992V51.7h-15.328V13.507L156.166 51.7h-15.328l22.992-38.193h-7.664c-.852 0-1.703.424-2.555 1.273L131.897 51.7h-15.328zM271.127 41.515h25.547v-8.912h-10.219l5.109-10.185h20.438v26.735c0 1.697-.852 2.546-2.555 2.546h-51.094c-1.703 0-2.555-.849-2.555-2.546v-29.28c0-.849.213-1.697.639-2.546l7.025-12.731c.426-.849 1.277-1.273 2.555-1.273h43.43v10.185h-33.211c-.852 0-1.49.424-1.916 1.273l-3.193 7.639v19.095zM350.323 7.142c-1.277-2.546-2.555-3.819-3.832-3.819h-29.379V51.7h15.328V32.285l5.109 9.23h18.522l7.025 10.185h17.883L350.323 7.142zm-1.342 24.189H332.44V13.507h2.555c.852 0 1.703.424 2.555 1.273l11.431 16.551zM215.489 41.07h37.083V51.7h-52.976V18.48c0-.886.221-1.772.662-2.658l7.284-13.288c.441-.886 1.324-1.329 2.649-1.329h42.381v10.63h-31.786c-.883 0-1.545.443-1.987 1.329l-3.311 7.973h37.083l-5.298 10.63h-31.786l.002 9.303z"/></g><g fill="#fff"><path d="M96.962 46.085h-1.044v-4.112h-1.51v-.883h4.063v.883h-1.51l.001 4.112zM103.887 46.085h-.974v-4.174h-.014l-.932 4.174h-1.023l-.912-4.174h-.014v4.174h-.974V41.09h1.524l.904 3.938h.014l.89-3.938h1.51l.001 4.995z"/></g><g fill="#fff"><path d="M65.371 62.834l-1.915-3.967c-.165-.331-.371-.496-.618-.496H54.56v9.422h8.278c.247 0 .453-.165.618-.496l1.915-3.967.062-.248-.062-.248zm-2.965.496l-1.05 2.256a.398.398 0 0 1-.371.223h-3.46v-5.455h3.46c.165 0 .288.083.371.248l1.05 2.231.062.248-.062.249zM66.421 58.372h7.908c.247 0 .453.165.618.496l1.297 2.727.062.248-.062.248-1.915 2.231 1.977 3.471H73.34l-2.842-4.711h1.483c.165 0 .288-.041.371-.124l.988-1.116-.494-1.24c-.082-.165-.206-.248-.371-.248h-3.089v7.438h-2.965v-9.42zM77.294 58.372h2.965v9.422h-2.965zM84.213 61.471l2.965 4.339 2.965-4.339v-3.099h2.965v3.471c0 .331-.041.579-.124.744l-3.336 5.207h-4.942l-3.336-5.207c-.082-.165-.124-.413-.124-.744v-3.471h2.965l.002 3.099zM97.063 65.81h6.919v1.983h-9.884v-6.198c0-.165.041-.331.124-.496l1.359-2.479c.082-.165.247-.248.494-.248h7.908v1.983h-5.931c-.165 0-.288.083-.371.248l-.618 1.488h6.919l-.988 1.983h-5.931v1.736z"/></g><g fill="#fff"><path d="M3.055 67.601l5.005-8.314c.238-.475.477-.713.715-.713h3.575v1.105l.238-.392c.238-.475.477-.713.715-.713h4.29v9.027h-2.86v-7.126l-4.29 7.126h-2.86l4.29-7.126h-1.43c-.159 0-.318.079-.477.238l-4.052 6.889-2.859-.001zM21.407 64.038V65.7h6.673v1.9h-9.533v-5.939c0-.158.04-.317.119-.475l1.311-2.375c.079-.158.238-.238.477-.238h7.627v1.9h-5.72c-.159 0-.278.079-.358.238l-.596 1.425h6.673l-.953 1.9h-5.72zM31.893 65.7h4.767v-1.663h-1.907l.953-1.9h3.813v4.988c0 .317-.159.475-.477.475H29.51c-.318 0-.477-.158-.477-.475v-5.463c0-.158.04-.317.119-.475l1.311-2.375c.079-.158.238-.238.477-.238h8.103v1.9h-6.197c-.159 0-.278.079-.357.238l-.596 1.425V65.7zM46.67 59.287c-.238-.475-.477-.713-.715-.713h-5.482v9.027h2.86v-3.623l.953 1.722h3.456l1.311 1.9h3.337l-5.72-8.313zM43.333 63.8v-3.326h.477c.159 0 .318.079.477.238L46.42 63.8h-3.087z"/></g></svg>