<svg xmlns="http://www.w3.org/2000/svg" viewBox="159.3 374.4 399.99999 219.5704">
  <path d="M159.3 374.39999h400V593.9704h-400z"/>
  <path fill="#5a97d0" d="M356.91337 542.89641l54.8926-54.41527c0-.47733.47732-.95465.47732-1.43198l-55.36992 42.00477 56.32458-58.71121-56.32458 42.95942 53.93794-57.27923-53.93794 43.91408 52.02863-58.71122c-18.61575-15.75179-63.00716-1.90931-101.67064 32.45823-40.09547 36.27685-59.18854 80.66826-42.00477 100.23867 17.18377 19.09308 63.96181 5.72792 104.05728-30.54893 10.97852-9.54654 20.04773-20.04773 27.68496-30.54892l-40.09546 30.07159z"/>
  <path fill="#010101" d="M332.56969 496.11837h-19.09308v47.7327h19.09308v-12.88783h18.13842v29.11695H304.4074c-4.77327 0-9.06921-4.77327-9.06921-9.06922v-61.09785c0-6.68258 3.34128-9.06921 8.59188-9.06921h46.30072v31.50358h-18.13843v-16.22912h.47733z"/>
  <path fill="#dead2c" d="M452.85609 424.042l-54.89261 54.41527c0 .47733-.47732.95466-.47732 1.43198l55.36993-42.00477-56.32459 58.71122 56.32459-42.95943-53.93795 57.27924 53.93795-43.91408-52.02864 58.71121c18.61575 15.75179 63.00716 1.90931 101.67064-32.45823 40.09547-36.27685 59.18854-80.66826 42.00477-100.23866-17.18377-19.09308-63.96181-5.72793-104.05728 30.54892-10.97852 9.54654-20.04773 20.04773-27.68496 30.54893l40.09547-30.0716z"/>
  <path fill="#010101" d="M515.38592 478.45727c0 4.29595-4.77327 9.06922-9.06921 9.06922h-46.30072v-78.75895h46.30072c4.29594.47732 9.06921 4.29594 9.06921 9.06921v60.62052zm-36.75418-7.1599h19.09308v-47.7327h-19.09308v47.7327z"/>
  <path fill="#fff" d="M195.57685 390.62911c1.43198-2.38663 3.81862-4.29594 6.68258-4.29594h16.70644v5.72792c2.38664-2.38663 4.77327-5.72792 8.11456-5.25059h22.91169v44.3914h-15.27446V399.221c-2.86396-.47733-4.29594 2.38663-5.72792 4.77327-5.72793 9.06921-11.45585 18.13842-16.70645 27.20763h-16.22911c6.68257-10.97852 13.36515-21.47971 20.04773-32.45823-3.34129 0-7.63723-.95465-10.50119 1.90931-6.20525 10.02386-12.41051 20.52506-19.09308 30.54892h-16.22912c8.11456-13.84248 16.70644-27.20763 25.29833-40.57279zm60.62052.95466c1.90931-2.86397 6.20526-5.72793 10.02387-5.2506h34.36754v10.02386c-8.59188.47733-17.18377 0-25.29833 0-3.34129.95466-3.81861 5.2506-5.72792 7.63724h31.98091c-1.90931 2.86396-4.29595 5.72792-6.20525 8.59188h-25.77566v8.59189h31.50358v9.54654h-47.25537v-27.20764c-.95465-4.77327 0-8.59189 2.38663-11.93317zm51.55132-1.43199c1.43198-1.9093 5.25059-4.29594 8.11456-4.29594h36.75417v10.02387h-23.86635c-5.25059-.47733-7.63723 5.72792-9.06921 10.02386 0 6.68258-1.43198 6.68258-.47733 14.79714 9.06922.47733 10.97852.47733 22.43437 0 .47733-2.38663 0-4.77327.47733-7.1599-3.81862-.47733-2.86396-.47733-10.50119-.47733 1.9093-3.34129 3.81861-6.20525 5.25059-9.54654h19.09308v22.43437c0 1.43198-.47733 2.86396-.95465 4.29594-14.79714.47733-29.11695 0-43.91408.47733-3.81862.47732-6.20525-3.34129-6.20525-6.68258v-24.34368c-.95466-4.29594.95465-6.68257 2.86396-9.54654zM359.3 385.85584h24.821c4.29595-.47733 7.63723 3.34129 9.54654 6.68258 7.63723 12.88783 15.75179 25.29833 23.38902 38.18616h-16.70644c-2.38664-2.86397-3.81862-6.20525-6.68258-8.59189h-14.79713l-4.29595-7.1599v15.75179H359.3v-44.86874zm15.75179 10.02387v16.70644h13.36516c-2.86397-4.29594-5.2506-9.54654-8.11456-13.84248-1.43198-1.90931-3.34129-2.38664-5.2506-2.86396zm126.96897 188.06682v-25.77565h-9.06921v-5.2506h24.34368v5.2506h-9.06922v25.77565h-6.20525zm19.09308 0v-30.54892h9.06921l5.72793 21.00238 5.72792-21.00238h9.54654v30.54892h-5.72792v-24.34367l-6.20525 24.34367h-6.20525l-6.20525-24.34367v24.34367h-5.72793z"/>
</svg>
