<svg xmlns="http://www.w3.org/2000/svg" viewBox="0 0 399.99999 104.89408">
  <path d="M14.609204 59.897735l46.749452 44.996345H400V76.260044l-18.99196-16.362309M76.84441 0v11.979547c0 2.337472-1.460918 4.090577-4.674943 4.967129-2.921841.876552-7.012418 1.460921-11.979547 1.460921-5.259314 0-9.349891-.584369-12.563916-1.460921-2.92184-.876552-4.382761-2.337472-4.382761-4.382761V0h12.8561v11.687363c0 .876552.292184 1.46092 1.168736 2.045288.876552.292184 2.045288.584368 4.090577.584368 1.46092 0 2.629657 0 3.798393-.292184.876552-.584368 1.46092-.876552 1.46092-1.168736.292184-.292184.292184-1.168736.292184-2.045288V0h9.934257zm16.94668 11.687363v6.720234H82.39591V0h15.48576c3.79839 0 6.72023.292184 8.76552.584368 2.04529.584368 3.50621 1.168736 4.67494 2.045288 1.16874.876553 2.04529 2.045289 2.04529 3.214025 0 1.753105-1.16873 3.214025-3.50621 4.090577-2.62965 1.168737-5.84368 1.753105-9.93426 1.753105h-6.13586zm-.29219-4.090577h3.7984c3.21402 0 4.96713-.584368 4.96713-1.753105 0-1.168736-1.46092-1.753104-4.67495-1.753104H93.4989v3.506209zm50.25567 6.428049v4.382762h-27.46531V0h27.46531v4.090577h-16.36231v2.629656h13.44046v4.090578h-13.44046v2.92184h16.36231zm33.89335 4.382762h-12.27173l-5.25932-7.012418h-3.50621v7.012418h-11.10299V0h18.69978c4.09058 0 7.3046.584368 9.64208 1.46092 2.62965.876552 3.79839 2.337473 3.79839 3.798393 0 1.168736-.29219 2.045289-1.16874 2.921841-.87655.876552-2.62965 1.46092-4.96713 2.045288l6.13587 8.181155zM156.90285 7.304602h4.67494c1.46092 0 2.62966-.292184 3.21403-.584369.87655 0 1.16874-.584368 1.16874-1.168736 0-1.168736-1.46093-1.753104-4.09058-1.753104h-4.96713v3.506209zM23.082542 18.699781c-2.921841 0-5.259313-.292184-7.596786-.584369-2.337473-.292184-3.798393-.876552-5.259313-1.46092-1.460921-.584368-2.629657-1.46092-3.214025-2.045288-.876552-.876553-1.168736-1.753105-1.168736-2.629657h7.304601c0 .584368.584369 1.168736 1.168737 1.753104.584368.584368 1.168736.876553 2.045288 1.168737.876552.292184 1.753105.584368 2.921841.584368 1.168736 0 2.337473.292184 3.506209.292184s2.337473 0 3.214025-.292184c.876552 0 1.753104-.292184 2.629656-.584368l1.753105-.876553c.292184-.292184.584368-.584368.584368-.876552s-.292184-.584368-.584368-.876552-.876552-.584368-1.753105-.876552c-.876552-.292184-2.045288-.292184-3.214024-.584368-1.460921-.292185-3.214025-.292185-4.96713-.584369-2.337472-.292184-4.382761-.584368-5.843681-.876552-1.753105-.292184-2.921841-.584368-4.090577-1.168736-1.168737-.292184-1.753105-.876552-2.337473-1.460921-.584368-.584368-.876552-1.168736-.876552-1.753104 0-.876552.292184-1.46092 1.168736-2.045289.584368-.584368 1.753105-1.168736 2.921841-1.753104C12.563915.584368 14.31702.292184 16.070124 0h5.843682c2.337472 0 4.382761 0 6.135865.292184 1.753105.292184 3.506209.584368 4.96713 1.168736 1.46092.584368 2.337472 1.168736 3.214024 2.045289.876553.876552 1.168737 1.753104 1.168737 2.629656H30.09496c-.584368-2.045288-3.214025-3.214025-8.181154-3.214025-2.337473 0-4.382761.292185-5.551498.584369-1.168736.292184-2.045288.876552-2.045288 1.46092 0 .292184 0 .584368.292184.584368s.876552.292184 1.46092.584368 1.460921.292184 2.337473.584368c.876552 0 2.045288.292185 3.506209.292185 1.168736 0 2.337472.292184 3.798393.292184 1.168736 0 2.629656.292184 3.798393.584368 1.168736.292184 2.337472.292184 3.506209.584368 1.168736.292184 2.045288.584368 2.92184.876552.876553.292184 1.460921.876552 2.045289 1.460921.584368.584368.584368 1.168736.584368 1.753104 0 .876552-.292184 1.46092-1.168736 2.337473-.876553.584368-1.753105 1.168736-3.214025 1.753104s-2.921841.876552-4.967129 1.168736c-1.753105.584369-3.798393.876553-6.135866.876553zM369.02849 48.502556h-3.21403v8.181154h-2.04529v-8.181154h-3.21402v-1.753104h8.47334v1.753104zm11.97955 8.181154h-2.04529v-6.428049l-2.33748 6.428049h-1.7531l-2.33747-6.428049v6.428049h-2.04529v-9.934258h2.62966l2.33747 7.012418 2.33747-7.012418h2.62966v9.934258z"/>
  <path d="M108.69248 97.297297V83.272461l2.04528-.584368c21.03726-7.88897 54.63843-26.588751 56.39153-32.432432.29219-.876552 0-1.753105-.58437-2.921841-1.46092-1.753104-4.09057-3.214025-6.72023-3.214025-3.50621 0-6.72023 2.337473-7.3046 5.259314l-.29219 2.045288h-44.41198l.87656-3.798393c4.09057-16.070124 24.54346-26.588751 51.71658-26.588751 30.38714 0 51.71658 10.810811 51.71658 26.588751 0 11.102995-11.39518 20.160701-34.47772 27.465303h32.43243v21.621622H108.69248z"/>
  <path fill="#fff" d="M169.17458 50.840029c1.46092-4.967129-4.67495-9.642075-10.51863-9.642075-4.96713 0-9.0577 3.214025-10.22644 7.596786h-37.10738c3.50621-13.732651 21.91381-24.251278 48.79474-24.251278 26.88094 0 48.79474 9.349891 48.79474 23.66691 0 12.563915-17.82322 21.037254-40.02921 26.880935v3.506209h38.27611v15.77794h-95.83638V85.31775c16.94668-6.42805 55.80716-26.004383 57.85245-34.477721z"/>
  <path d="M53.469686 100.51132c-13.148284 0-37.107378-1.753103-47.918189-12.563913C2.045289 84.149014 0 80.058437 0 75.091307v-2.921841h42.658875l.584368 2.337473c.292184 2.337473 4.090577 4.674945 9.642075 4.674945 6.135865 0 10.810811-2.629656 10.810811-5.259313 0-2.629657-4.674946-5.259313-10.810811-5.259313h-1.753105l-3.214025.584368V49.671293l4.382762.584368h1.168736c4.967129 0 8.473338-2.337473 8.473338-4.674945 0-2.337473-3.798393-4.674946-8.473338-4.674946s-8.181154 2.045289-8.473338 4.090577l-.584368 2.337473H4.090577v-2.921841c0-6.135865 5.843682-12.856099 14.609204-16.946676 8.473338-4.090577 20.452885-6.135866 35.646457-6.135866 24.543462 0 49.379112 7.012418 49.379112 20.160702 0 5.551497-4.96713 11.102994-12.56392 14.901387 11.103 4.090577 15.48576 11.687363 15.48576 17.823229.29218 15.193572-23.37473 26.296565-53.177504 26.296565z"/>
  <path fill="#fff" d="M2.921841 75.091307h37.399561c.876553 4.090577 6.135866 7.304602 12.563916 7.304602 7.596786 0 13.732651-3.798393 13.732651-8.181154 0-4.382761-6.135865-8.181154-13.732651-8.181154h-2.337473V53.177502c.876552 0 1.460921.292184 2.337473.292184 6.428049 0 11.395179-3.214025 11.395179-7.596786 0-4.090577-5.259314-7.596786-11.395179-7.596786-5.843682 0-10.810811 2.92184-11.395179 6.720233H7.012418c0-4.674945 4.967129-10.518626 12.856099-14.317019 8.765522-4.090577 20.74507-5.843682 34.477721-5.843682 26.296562 0 46.457272 7.596786 46.457272 17.238861 0 5.843681-7.59679 11.102995-19.86852 14.024835v3.214025c15.19357 1.753105 22.49817 7.88897 22.49817 15.77794 0 12.271731-22.49817 22.498174-50.547842 22.498174-28.049672 0-49.963477-6.720234-49.963477-22.498174"/>
  <path fill="#1d46a5" d="M393.57195 100.80351H281.37327L177.35573 0h112.19869v.292184L393.57195 101.09569"/>
  <path d="M309.13075 97.297297l-16.65449-15.193572-16.36231 15.193572h-62.81957l47.33382-44.41198L213.00219 9.34989h63.40395l15.48575 14.024836L306.79328 9.34989h62.81958l-45.8729 43.243243 48.79474 44.704164"/>
  <path fill="#fff" d="M264.71877 52.885317l-44.11979-40.613586h54.63842l16.65449 15.193572 16.07013-15.193572h54.34623L319.3572 52.593133l45.58071 41.782323h-54.63842l-17.82323-16.362308-17.23886 16.362308h-54.63842l44.11979-41.490139z"/>
</svg>
