<svg xmlns="http://www.w3.org/2000/svg" viewBox="-22.8 345 399.99998 74.087181">
  <path fill="#030303" d="M264.94034 388.39394h-5.57417v-18.76875h20.46216c3.52796 0 6.27977 2.54013 6.42089 6.06809v12.77122h-5.22138v-11.71283c0-1.76398-.98783-2.96348-2.75181-3.1046-.91727-.0706-1.9051 0-2.89293 0v14.81743h-5.50362v-14.88799h-4.86858c-.0706 4.86858-.0706 14.81743-.0706 14.81743zm84.45934 0h-5.57417v-18.76875h20.46216c3.52796 0 6.27977 2.54013 6.42089 6.06809v12.77122h-5.22138v-11.71283c0-1.76398-.98783-2.96348-2.75181-3.1046-.91727-.0706-1.9051 0-2.89293 0v14.81743h-5.50361v-14.88799h-4.86859c-.0706 4.86858-.0706 14.81743-.0706 14.81743zm-151.70224-7.12648c1.76398 2.32845 3.59852 4.79802 5.43306 7.19704h-6.20921l-4.79802-6.98536h-5.29194v6.98536h-5.50362v-18.76875h15.09967c3.88075 0 6.70312 3.52796 5.92697 7.33816-.42336 2.11677-1.76398 3.38684-3.73964 4.02187-.28224 0-.56447.0706-.91727.21168zm-10.86611-3.17516h7.19703c.3528 0 .77616-.14112 1.12895-.3528.77615-.3528 1.34063-.84671 1.34063-1.83454 0-.98783-.3528-1.76398-1.34063-2.18733-.56447-.21168-1.12895-.3528-1.69342-.3528h-6.63256v4.72747zm69.43023 10.30164h-13.97072c-1.05838 0-2.11677-.21168-3.1046-.49392-2.54013-.77615-3.95131-2.82237-3.73964-5.43306.14112-2.68124 1.83454-4.72746 4.37467-5.29193.56448-.14112 1.19951-.21168 1.83454-.21168h8.89046c.21168 0-.21168 0 0 0 0-2.04622-1.69342-3.73964-3.88076-3.73964h-9.73716v-3.59852h11.36003c4.37466 0 7.76151 3.24573 7.90262 7.6204v11.14835h.0706zm-5.50361-7.90263h-6.84424c-1.41119 0-2.39902.84671-2.46958 2.18733 0 1.27007.91727 2.11678 2.39902 2.11678h6.9148v-4.30411zm-158.969838 7.90263v-3.66908h12.277298c1.12895 0 1.83454-.56447 2.04621-1.69342.21168-.84671-.35279-1.69342-1.34062-2.04622-.42335-.14112-.91727-.28223-1.41118-.28223h-7.549835c-3.104604-.0706-4.868583-1.9051-5.15082-5.15082-.211678-2.54014 1.69342-5.43306 4.233551-5.92698h16.158054v3.8102H99.479063c-.352796 0-.705592 0-.987829.0706-.84671.14112-1.481743.70559-1.622861 1.48174-.141119.77615.211677 1.5523.84671 2.04622.211678.14112.564473.21168.84671.21168h8.184867c2.04621.0705 3.95131.56447 4.93914 2.54013 1.76398 3.4574.42336 8.4671-4.86858 8.53766l-15.029108.0706zm237.854998-19.1921c2.11678.0706 4.16299.28224 6.06809 1.1995 2.68125 1.19951 4.65691 3.17517 5.22138 6.06809.70559 3.66908.0706 7.12648-2.89293 9.73717-1.69342 1.48174-3.81019 2.11678-5.92697 2.54013-3.38684.56448-6.562 0-9.59605-1.48174-2.82236-1.41118-4.02187-3.95132-4.37466-6.9148-.14112-1.48174-.14112-3.03405.35279-4.51579 1.12895-3.4574 3.73964-5.22138 7.05592-5.99753 1.34062-.42335 2.11677-.63503 4.09243-.63503zm6.13865 9.80772c0-.35279 0-.70559-.0706-1.05838-.14112-2.54013-1.69342-4.51579-4.02187-5.15082-1.41119-.3528-2.75181-.3528-4.16299 0-1.97566.42335-3.31629 1.62286-3.88076 3.59852-.42335 1.5523-.42335 3.17516-.21168 4.72746.28224 1.83454 1.41119 3.1046 3.17517 3.59852 1.05838.28224 2.18733.42335 3.31628.35279 3.88075-.0706 5.92697-2.32845 5.85641-6.06809zm-157.41753-1.83453v3.59851h-13.05345c0 2.2579 1.62286 3.88076 3.81019 3.88076h9.1727v3.8102h-10.51332c-5.22138-.21168-8.39654-3.95132-8.25542-8.8199.0705-1.62286.14111-3.17517.77615-4.65691 1.27006-3.24572 4.23355-5.29194 7.76151-5.29194h10.3722v3.8102h-8.8199c-2.11678 0-3.8102 1.5523-4.09243 3.73964 4.23355-.0706 8.4671-.0706 12.84177-.0706zm-49.60311 7.40871v-14.95855h5.3625v18.76875h-14.11184c-1.76398 0-3.17516-.63504-4.23355-1.97566-1.05839-1.27007-1.69342-2.61069-1.62286-4.37467.0706-3.73964 0-12.41842 0-12.41842h5.3625v11.99506c-.0706 1.76398.91727 2.82237 2.54013 2.96349h6.70312zm13.8296-2.54013v6.35033h-5.22138v-18.76875h14.25296c2.54013-.0706 5.08026 1.83454 5.78585 4.58635 1.12895 4.09243-1.76398 7.83207-5.99753 7.83207h-8.8199zm.14112-3.66908h7.19704c.28223 0 .63503-.21168.84671-.35279.77615-.56448 1.34062-1.97566 1.05838-2.75181-.42335-1.27007-1.1995-1.83454-2.46957-1.83454h-6.70312v4.93914h.0706zm91.23302-8.74934v3.59852h-9.17269c-1.5523.0706-2.89293.77615-3.8102 2.04622-.28223.42335-.49391.98783-.56447 1.76398h13.26512v3.95131h-13.33568v7.40872h-5.43306v-11.0778c0-4.02187 3.03405-7.54983 7.05592-7.69095h11.99506zm82.48368 15.09967v3.66908h-9.87828c-4.09243 0-7.19704-2.39902-8.25542-6.42089-.77616-3.1046-.42336-6.27977 1.34062-8.96102 1.48174-2.25789 3.59852-3.38684 6.35033-3.38684h10.58387v3.73964h-8.96101c-1.76398 0-2.89293.84671-3.4574 2.46957-.70559 1.9051-.77615 4.09243-.14112 6.06809.56447 1.83454 1.97566 2.82237 3.95131 2.82237h8.4671zm-118.96278 20.81496v-3.38684h13.05345v-5.57418h-12.84177v-3.24572h15.66414v12.2773c-5.29194-.0706-10.58388-.0706-15.87582-.0706zm-106.40324-9.10214v-3.31628h13.05345c.35279 2.39901.14112 4.65691-.63504 6.9148-.0705.21168-.21167.56447-.21167.56447s2.39901 3.38685 3.52796 4.93915h-3.66908s-1.27007-1.69342-1.76398-2.39902c-.28224.21168-.49391.3528-.70559.56448-1.552303 1.1995-3.175165 1.9051-5.221381 1.83454h-4.868583v-3.38684h3.4574c1.481742 0 2.892926-.14112 4.23355-.63504 2.116774-.84671 3.386844-2.7518 3.245724-5.08026H91.08252zm198.48298-26.81249h5.78585v18.76875h-5.78585zm-138.78991 35.91463v-3.38684h6.77368c2.75181.14111 4.86858-1.62286 4.79802-5.00971 0-.21167 0-.42335-.0706-.70559h-12.34785v-3.17516h14.88798v6.06809c0 .56447-.21167 1.19951-.42335 1.69342-.98783 2.68125-3.03405 4.30411-5.85641 4.51579h-7.76151zm15.31134-6.56201v-2.89292h13.12401v4.30411c0 1.69342-1.19951 2.46957-6.06809 2.46957 0 0-.0706.77615-.21168.98783-.49391 1.27006-1.48174 1.76398-2.96349 1.76398h-3.1046v-2.96349h3.1046s1.34063-.21168 1.48175-1.27006c.0706-.28224.0706-.63504.14112-.98783h4.02187c.91727 0 1.1995-.28224 1.1995-1.34063-3.52795-.0706-7.12647-.0706-10.72499-.0706zm64.56165-5.57417v6.9148c-.56447 3.88075-4.02187 5.29194-6.562 5.22138H215.055v-3.38684h9.24325c1.9051.0706 3.8102-1.69342 3.8102-3.88076v-4.79802c.91727-.0706 1.76398-.0706 2.54013-.0706zm-104.49815-.28224h2.82237v4.79803c-.21168 3.17516 2.04622 4.09243 4.09243 4.09243h.84671v3.38684c-4.58634.28224-7.62039-1.76398-7.76151-6.27977-.0706-1.76398 0-3.52796 0-5.29194v-.70559zm69.85359 8.53766l-15.3819-1.97565v-2.96349l15.3819 1.83454m0-.98783l-15.3819-1.9051v-2.96348l15.3819 1.83453m0 8.18487v3.1046c-5.15082-.63503-10.30164-1.27006-15.45246-1.97565v-3.03405c5.15082.56448 10.30164 1.34063 15.45246 1.9051zm-78.88516 2.68125v-3.38684c.70559-.0706 1.34062-.0706 1.97565-.14112 1.9051-.28224 2.96349-1.62286 2.96349-3.52796v-5.15082h2.89293v4.16299c0 .91727 0 1.9051-.14112 2.75181-.63503 3.17516-2.61069 4.79802-5.92697 5.08026-.56448.21168-1.12895.21168-1.76398.21168z"/>
  <path fill="#030303" d="M117.40109 397.77831v3.1046h-11.78338v-3.1046h11.78338zm16.65197-.14112h11.78338v3.1046h-11.78338v-3.1046zm90.31575-4.37467v3.24572H215.055v-3.24572h9.31381zm-90.17463 1.97566c0 1.27006-1.05839 2.25789-2.25789 2.25789-1.19951 0-2.2579-.98783-2.2579-2.25789 0-1.27007.98783-2.32846 2.2579-2.32846 1.27006.0706 2.25789 1.05839 2.25789 2.32846zm-1.41118 0c0-.49392-.49392-.98783-.98783-.98783-.49392 0-.98783.49391-.91727 1.05839.0706.56447.42335.91727.98783.91727.63503-.0706.91727-.49392.91727-.98783z"/>
  <path d="M233.04759 395.44985v-2.96348h1.34063c.28223 0 .49391 0 .63503.0706.14112.0706.28224.14112.3528.28223.0705.14112.14111.28224.14111.42336 0 .21168-.0706.42335-.21167.56447-.14112.14112-.3528.21168-.63504.28224.0706.0706.21168.0706.21168.14112.14112.0706.21168.21168.3528.42335l.49391.84671h-.49391l-.42336-.63503c-.14112-.21168-.21168-.28224-.28224-.42335l-.21167-.21168c-.0706-.0706-.14112-.0706-.21168-.0706h-.63503v1.34062h-.42336v-.0706zm.42336-1.69342h.84671c.21167 0 .35279 0 .42335-.0706.0706-.0705.21168-.0705.21168-.21167.0706-.0706.0706-.14112.0706-.28224s-.0706-.28224-.14112-.3528c-.0706-.0706-.28224-.14111-.49391-.14111h-.91727v1.05838z"/>
  <path d="M234.2471 396.71992c-1.5523 0-2.75181-1.27007-2.75181-2.75181 0-1.5523 1.27007-2.75181 2.75181-2.75181 1.5523 0 2.75181 1.27007 2.75181 2.75181 0 1.5523-1.19951 2.75181-2.75181 2.75181zm0-5.0097c-1.27007 0-2.2579.98783-2.2579 2.25789 0 1.27007.98783 2.2579 2.2579 2.2579 1.27006 0 2.25789-.98783 2.25789-2.2579 0-1.27006-.98783-2.25789-2.25789-2.25789zm139.07215-20.60328v-2.96349h1.34062c.28224 0 .49391 0 .63503.0706.14112.0706.28224.14112.3528.28224.0706.14112.14112.28223.14112.42335 0 .21168-.0706.42336-.21168.56448-.14112.14111-.3528.21167-.63503.28223.0706.0706.21167.0706.21167.14112.14112.0706.21168.21168.3528.42336l.49391.84671h-.49391l-.42336-.63504c-.14111-.21167-.21167-.28223-.28223-.42335l-.21168-.21168c-.0706-.0706-.14112-.0706-.21168-.0706h-.63503v1.34063l-.42335-.0706zm.35279-1.69342h.84671c.21168 0 .3528 0 .42336-.0706.0706-.0706.21167-.0706.21167-.21168.0706-.0706.0706-.14112.0706-.28224s-.0706-.28223-.14112-.35279c-.0705-.0706-.28223-.14112-.49391-.14112h-.91727v1.05839z"/>
  <path d="M374.44819 372.377c-1.5523 0-2.75181-1.27006-2.75181-2.75181 0-1.48174 1.27007-2.7518 2.75181-2.7518 1.5523 0 2.75181 1.27006 2.75181 2.7518 0 1.48175-1.19951 2.75181-2.75181 2.75181zm0-5.0097c-1.27006 0-2.25789.98783-2.25789 2.25789 0 1.27007.98783 2.2579 2.25789 2.2579 1.27007 0 2.2579-.98783 2.2579-2.2579 0-1.27006-.98783-2.25789-2.2579-2.25789z"/>
  <path fill="#01954b" d="M22.07564 390.15792c0 6.2092-10.019403 11.21891-22.43781952 11.21891-12.41841548 0-22.43781948-5.00971-22.43781948-11.21891 0-6.20921 10.019404-11.21891 22.43781948-11.21891 12.41841652 0 22.43781952 5.0097 22.43781952 11.21891z"/>
  <path fill="#f9ec2b" d="M60.742072 407.86827c0 6.20921-10.019404 11.21891-22.43782 11.21891-12.418416 0-22.43782-5.0097-22.43782-11.21891s10.019404-11.21891 22.43782-11.21891c12.418416 0 22.43782 5.0097 22.43782 11.21891z"/>
  <path fill="#323b98" d="M22.922351 345.00004c-11.289469 0-20.5327224 9.03157-20.7443999 20.32104.4939142 0 .9172693-.0706 1.4111836-.0706 11.5011463 0 20.8149583 9.31382 20.8149583 20.81496v.49392c10.795555-.70559 19.333216-9.73717 19.333216-20.7444 0-11.50115-9.313812-20.81496-20.814958-20.81496z"/>
  <path fill="#eb2d2f" d="M62.294374 363.20431c-11.501147 0-20.744399 9.31381-20.744399 20.81496v.77615h.84671c11.21891 0 20.391603 8.89045 20.744399 20.03881 11.077792-.42336 19.968248-9.52549 19.968248-20.7444-.07056-11.57171-9.384371-20.88552-20.814958-20.88552z"/>
</svg>
