<?xml version="1.0" encoding="UTF-8" standalone="no"?>
<svg
   xmlns:dc="http://purl.org/dc/elements/1.1/"
   xmlns:cc="http://creativecommons.org/ns#"
   xmlns:rdf="http://www.w3.org/1999/02/22-rdf-syntax-ns#"
   xmlns:svg="http://www.w3.org/2000/svg"
   xmlns="http://www.w3.org/2000/svg"
   xmlns:sodipodi="http://sodipodi.sourceforge.net/DTD/sodipodi-0.dtd"
   xmlns:inkscape="http://www.inkscape.org/namespaces/inkscape"
   width="43.916"
   height="21.959"
   version="1.1"
   id="svg6"
   sodipodi:docname="off.svg"
   inkscape:version="0.92.4 (5da689c313, 2019-01-14)">
  <metadata
     id="metadata12">
    <rdf:RDF>
      <cc:Work
         rdf:about="">
        <dc:format>image/svg+xml</dc:format>
        <dc:type
           rdf:resource="http://purl.org/dc/dcmitype/StillImage" />
      </cc:Work>
    </rdf:RDF>
  </metadata>
  <defs
     id="defs10" />
  <sodipodi:namedview
     pagecolor="#ffffff"
     bordercolor="#666666"
     borderopacity="1"
     objecttolerance="10"
     gridtolerance="10"
     guidetolerance="10"
     inkscape:pageopacity="0"
     inkscape:pageshadow="2"
     inkscape:window-width="1920"
     inkscape:window-height="1017"
     id="namedview8"
     showgrid="false"
     inkscape:zoom="8.1063848"
     inkscape:cx="-38.179781"
     inkscape:cy="10.9795"
     inkscape:window-x="1912"
     inkscape:window-y="-8"
     inkscape:window-maximized="1"
     inkscape:current-layer="svg6" />
  <path
     inkscape:connector-curvature="0"
     d="m 10.433336,3.2447139 c -3.9517024,0 -7.1666696,3.4606288 -7.1666696,7.7142851 0,4.253654 3.2149672,7.714288 7.1666696,7.714288 3.9517,0 7.166664,-3.460634 7.166664,-7.714288 0,-4.2536563 -3.214964,-7.7142851 -7.166664,-7.7142851 z m 0,13.8857201 C 7.2721164,17.130434 4.7,14.361768 4.7,10.958999 c 0,-3.402771 2.5721164,-6.1714279 5.733336,-6.1714279 3.161214,0 5.733328,2.7686569 5.733328,6.1714279 0,3.402769 -2.572114,6.171435 -5.733328,6.171435 z"
     id="path2-2"
     style="fill:#ffffff;stroke-width:0.74354357" />
  <path
     inkscape:connector-curvature="0"
     d="M 33.366664,0.159 H 10.433336 C 4.9006664,0.159 0.4,5.0035711 0.4,10.958999 0.4,16.914434 4.9006664,21.759 10.433336,21.759 H 33.366664 C 38.899336,21.759 43.4,16.914434 43.4,10.958999 43.4,5.0035711 38.899336,0.159 33.366664,0.159 Z m 0,20.057147 H 10.433336 c -4.742186,0 -8.6000024,-4.1526 -8.6000024,-9.257148 0,-5.1045428 3.8578164,-9.2571425 8.6000024,-9.2571425 h 22.933328 c 4.742186,0 8.6,4.1525997 8.6,9.2571425 0,5.104548 -3.857814,9.257148 -8.6,9.257148 z"
     id="path4-6"
     style="fill:#ffffff;stroke-width:0.74354357" />
</svg>
