<?xml version="1.0" encoding="UTF-8" standalone="no"?>
<!-- Created with Inkscape (http://www.inkscape.org/) -->

<svg
   xmlns:dc="http://purl.org/dc/elements/1.1/"
   xmlns:cc="http://creativecommons.org/ns#"
   xmlns:rdf="http://www.w3.org/1999/02/22-rdf-syntax-ns#"
   xmlns:svg="http://www.w3.org/2000/svg"
   xmlns="http://www.w3.org/2000/svg"
   xmlns:xlink="http://www.w3.org/1999/xlink"
   xmlns:sodipodi="http://sodipodi.sourceforge.net/DTD/sodipodi-0.dtd"
   xmlns:inkscape="http://www.inkscape.org/namespaces/inkscape"
   version="1.0"
   width="1300.391"
   height="300"
   id="svg2"
   inkscape:version="0.91 r13725"
   sodipodi:docname="Logo_Acclaim.svg">
  <metadata
     id="metadata23">
    <rdf:RDF>
      <cc:Work
         rdf:about="">
        <dc:format>image/svg+xml</dc:format>
        <dc:type
           rdf:resource="http://purl.org/dc/dcmitype/StillImage" />
        <dc:title></dc:title>
      </cc:Work>
    </rdf:RDF>
  </metadata>
  <sodipodi:namedview
     pagecolor="#ffffff"
     bordercolor="#666666"
     borderopacity="1"
     objecttolerance="10"
     gridtolerance="10"
     guidetolerance="10"
     inkscape:pageopacity="0"
     inkscape:pageshadow="2"
     inkscape:window-width="1920"
     inkscape:window-height="1017"
     id="namedview21"
     showgrid="false"
     inkscape:zoom="0.4375"
     inkscape:cx="-125.27775"
     inkscape:cy="-37.13834"
     inkscape:window-x="-8"
     inkscape:window-y="-8"
     inkscape:window-maximized="1"
     inkscape:current-layer="svg2" />
  <defs
     id="defs4">
    <linearGradient
       id="linearGradient3549">
      <stop
         id="stop3551"
         style="stop-color:#bf0000;stop-opacity:1"
         offset="0" />
      <stop
         id="stop3557"
         style="stop-color:#fff20c;stop-opacity:1"
         offset="0.24505855" />
      <stop
         id="stop3559"
         style="stop-color:#0ce500;stop-opacity:1"
         offset="0.44498077" />
      <stop
         id="stop3561"
         style="stop-color:#31e1fd;stop-opacity:1"
         offset="0.64282119" />
      <stop
         id="stop3553"
         style="stop-color:#0019bf;stop-opacity:1"
         offset="1" />
    </linearGradient>
    <linearGradient
       id="linearGradient3539">
      <stop
         id="stop3541"
         style="stop-color:#bf0000;stop-opacity:1"
         offset="0" />
      <stop
         id="stop3547"
         style="stop-color:#bf0000;stop-opacity:1"
         offset="0.3747088" />
      <stop
         id="stop3543"
         style="stop-color:#fbe40a;stop-opacity:1"
         offset="1" />
    </linearGradient>
    <linearGradient
       x1="287.04117"
       y1="350.87671"
       x2="348.69205"
       y2="275.90128"
       id="linearGradient3545"
       xlink:href="#linearGradient3539"
       gradientUnits="userSpaceOnUse"
       gradientTransform="matrix(2.0183387,0,0,2.0183387,-521.63657,-516.58087)" />
    <linearGradient
       x1="289.83875"
       y1="355.51709"
       x2="639.31293"
       y2="355.51709"
       id="linearGradient3555"
       xlink:href="#linearGradient3549"
       gradientUnits="userSpaceOnUse"
       gradientTransform="matrix(2.0183387,0,0,2.0183387,-521.63657,-516.58087)" />
  </defs>
  <g
     id="layer1"
     transform="matrix(1.7474016,0,0,1.7474016,-42.859864,-63.57199)">
    <path
       d="M 199.35187,36.380871 C 195.84206,41.989188 132.67044,141.0437 105.12068,184.22418 l 40.61907,0 c 5.64945,-8.88141 7.25661,-11.45155 12.48847,-19.6788 l 41.37594,-0.31537 c 0.002,6.65858 -0.001,13.33557 0,19.99417 l 38.28537,0 c 0.0152,-49.27455 -0.0369,-98.568859 -0.12615,-147.843309 l -38.41151,0 z m 90.82524,0 -31.03195,48.629349 -0.2523,0.315365 -0.18922,0.315366 c -18.50136,28.165819 -17.41539,23.455939 0.31537,52.413729 l 0.25229,0.44152 0.25229,0.44151 29.95972,45.28647 41.12365,0 -41.88053,-63.32538 c -0.0259,-0.045 -0.0373,-0.0815 -0.0631,-0.12614 -3.48,-6.03514 -5.16348,-9.4694 -0.25229,-17.97583 l 42.38511,-66.415959 -40.61907,0 z m 56.19812,0 -31.03195,48.629349 -0.2523,0.315365 -0.18922,0.315366 c -18.50136,28.165819 -17.41539,23.455939 0.31537,52.413729 l 0.25229,0.44152 0.25229,0.44151 29.95972,45.28647 41.06058,0 -41.81746,-63.32538 c -0.026,-0.045 -0.0373,-0.0815 -0.0631,-0.12614 -3.48,-6.03514 -5.16348,-9.4694 -0.25229,-17.97583 l 42.38511,-66.415959 -40.61907,0 z m 46.10643,0 0,147.843309 36.89775,0 0,-147.843309 -36.89775,0 z m 165.62992,0 0,27.626011 36.96083,0 0,-27.626011 -36.96083,0 z m -64.77606,32.987224 c -31.63449,0 -57.6488,26.014307 -57.6488,57.648795 0,29.32782 22.36947,53.79069 50.83691,57.20729 l 13.56071,0 c 5.99094,-0.72476 11.72544,-2.35992 17.02974,-4.79355 l 0,4.79355 33.87024,0 0,-113.846916 -33.87024,0 0,4.225897 c -7.2703,-3.335648 -15.31223,-5.235066 -23.77856,-5.235066 z m 64.77606,2.018338 0,112.837747 36.96083,0 0,-112.837747 -36.96083,0 z m 45.60184,0.252293 0,112.585454 34.31176,0 0,-64.01918 c 0,-8.40341 6.22954,-14.63295 14.63296,-14.63295 8.40341,0 14.63295,6.22954 14.63295,14.63295 l 0,64.01918 37.0239,0 0,-63.70381 c -4e-5,-8.4034 6.22955,-14.63296 14.63296,-14.63296 8.40337,2e-5 14.63296,6.22954 14.63296,14.63296 l 0,63.70381 34.31175,0 0,-63.70381 c -4e-5,-26.818598 -10.77294,-48.18784 -49.32315,-47.430963 -12.08355,0 -19.90691,5.365027 -27.43679,12.740763 -7.53595,-8.418592 -19.80445,-13.430127 -38.85302,-13.056129 -4.36625,0 -8.67623,0.617249 -12.80384,1.766047 l 0,-2.901362 -35.76244,0 z m -404.2354,27.941377 c 0.0104,6.320207 0.0542,5.981027 0.0631,14.506807 0.004,4.26836 -0.005,7.5414 0,11.79467 l -16.84051,0.12614 c 8.07004,-12.69248 8.72854,-13.76622 16.77744,-26.427617 z m 293.8575,4.099747 c 13.06969,0 23.33704,10.26735 23.33704,23.33704 0,13.0697 -10.26735,23.33705 -23.33704,23.33705 -13.06969,0 -23.33704,-10.26735 -23.33704,-23.33705 0,-13.06969 10.26735,-23.33704 23.33704,-23.33704 z"
       id="path3440"
       style="opacity:1;fill:#000000;fill-opacity:1;fill-rule:evenodd;stroke:none;stroke-width:17;stroke-linecap:butt;stroke-linejoin:miter;stroke-miterlimit:4;stroke-dasharray:none;stroke-opacity:1"
       inkscape:connector-curvature="0" />
    <path
       d="M 183.74765,40.281391 24.52777,208.06436 l 744.18569,0 0,-14.18261 -696.28593,0 111.32012,-153.600359 z"
       id="path3526"
       style="opacity:1;fill:url(#linearGradient3545);fill-opacity:1;fill-rule:evenodd;stroke:none;stroke-width:1px;stroke-linecap:butt;stroke-linejoin:miter;stroke-opacity:1"
       inkscape:connector-curvature="0" />
    <path
       d="m 63.356167,208.06436 705.357293,0 0,-14.18261 -696.28593,0 -9.071363,14.18261 z"
       id="path3528"
       style="opacity:1;fill:url(#linearGradient3555);fill-opacity:1;fill-rule:evenodd;stroke:none;stroke-width:1px;stroke-linecap:butt;stroke-linejoin:miter;stroke-opacity:1"
       inkscape:connector-curvature="0" />
  </g>
</svg>
