<?xml version="1.0" encoding="utf-8"?>
<!-- Generator: Adobe Illustrator 13.0.0, SVG Export Plug-In . SVG Version: 6.00 Build 14948)  -->
<!DOCTYPE svg PUBLIC "-//W3C//DTD SVG 1.1//EN" "http://www.w3.org/Graphics/SVG/1.1/DTD/svg11.dtd">
<svg version="1.1" id="Layer_1" xmlns:svg="http://www.w3.org/2000/svg"
	 xmlns="http://www.w3.org/2000/svg" xmlns:xlink="http://www.w3.org/1999/xlink" x="0px" y="0px" width="568.929px"
	 height="116.145px" viewBox="-1 -1 568.929 116.145" enable-background="new -1 -1 568.929 116.145" xml:space="preserve">
<g>
	<g>
		<path fill="#FCFCFC" d="M82.587,54.496c0,0.368-0.255,0.624-0.766,0.766c-0.613,0.163-2.513,0.245-5.701,0.245
			c-2.922,0-4.802-0.082-5.64-0.245c-0.695-0.143-1.134-0.603-1.318-1.379c-0.695-2.942-1.236-4.516-1.625-4.72
			c-0.327-0.143-3.065-0.214-8.214-0.214c-3.474,0-5.323,0.092-5.548,0.275c-0.348,0.327-0.736,1.421-1.165,3.28
			c-0.388,1.696-0.858,2.616-1.41,2.759c-0.695,0.163-3.024,0.245-6.989,0.245c-3.126,0-4.689-0.296-4.689-0.889
			c0-0.531,2.309-7.06,6.927-19.586c5.006-13.548,7.724-20.996,8.153-22.345c0.245-0.776,0.531-1.165,0.858-1.165
			c0.552,0,1.405,0.051,2.56,0.153c1.154,0.103,2.018,0.153,2.59,0.153c0.552,0,1.364-0.036,2.437-0.107
			c1.073-0.071,1.875-0.107,2.406-0.107c0.388,0,0.746,0.337,1.073,1.012c1.001,2.146,3.923,9.502,8.766,22.069
			C80.156,47.344,82.587,53.944,82.587,54.496z M60.856,26.572c-0.429,0.899-1.155,2.851-2.176,5.854
			c-1.104,3.188-1.655,5.058-1.655,5.609c0,0.368,0.613,0.572,1.839,0.613c0.633,0.042,1.675,0.062,3.126,0.062
			c1.349,0,2.094-0.164,2.238-0.49c0.041-0.102,0.061-0.246,0.061-0.429c0-0.674-0.47-2.534-1.41-5.579
			C61.959,29.269,61.285,27.39,60.856,26.572z"/>
		<path fill="#9FCFFF" d="M70.179,56.73c-1.244-0.195-2.267-1.336-2.477-2.504l0,0c-0.401-1.76-0.81-3.068-1.042-3.666l0,0
			c-0.343-0.022-0.835-0.043-1.461-0.061l0,0c-1.344-0.035-3.31-0.054-5.876-0.051l0,0c-2.218-0.013-3.863,0.052-4.599,0.111l0,0
			c-0.027,0.068-0.056,0.145-0.086,0.23l0,0c-0.165,0.46-0.36,1.155-0.565,2.047l0,0c-0.214,0.921-0.444,1.667-0.771,2.311l0,0
			c-0.327,0.61-0.76,1.283-1.759,1.575l0,0c-1.11,0.234-3.293,0.271-7.33,0.286l0,0c-2.46-0.043-3.881-0.066-5.139-0.697l0,0
			c-0.409-0.204-1.053-0.806-1.051-1.692l0,0c0.025-0.493,0.086-0.563,0.165-0.892l0,0c0.083-0.286,0.193-0.646,0.341-1.098l0,0
			c0.296-0.904,0.732-2.168,1.312-3.807l0,0c1.157-3.277,2.892-8.043,5.203-14.311l0,0c4.999-13.528,7.735-21.032,8.129-22.276l0,0
			c0.156-0.481,0.321-0.898,0.621-1.312l0,0c0.271-0.393,0.859-0.902,1.667-0.902l0,0c0.642,0,1.515,0.056,2.693,0.158l0,0
			c1.131,0.101,1.969,0.148,2.458,0.148l0,0c0.489,0,1.283-0.033,2.337-0.104l0,0c1.09-0.072,1.91-0.109,2.506-0.109l0,0
			c0.646-0.006,1.227,0.309,1.587,0.66l0,0c0.374,0.357,0.619,0.754,0.845,1.217l0,0c1.053,2.261,3.955,9.575,8.806,22.165l0,0
			c4.265,11.096,6.641,17.47,7.221,19.425l0,0c0.083,0.335,0.148,0.411,0.175,0.915l0,0c0.015,0.53-0.236,1.153-0.631,1.527l0,0
			c-0.389,0.385-0.82,0.565-1.25,0.689l0,0c-1.056,0.25-2.82,0.279-6.086,0.296l0,0C73.147,57.001,71.297,56.94,70.179,56.73
			L70.179,56.73z M80.863,53.887c-0.045-0.137-0.096-0.29-0.153-0.456l0,0c-0.296-0.874-0.749-2.138-1.355-3.78l0,0
			c-1.21-3.289-3.034-8.097-5.463-14.417l0,0c-4.833-12.545-7.776-19.945-8.715-21.953l0,0c-0.031-0.064-0.059-0.118-0.083-0.161
			l0,0c-0.471,0.012-1.127,0.044-1.945,0.1l0,0c-1.092,0.072-1.924,0.109-2.537,0.109l0,0c-0.658,0-1.543-0.053-2.724-0.158l0,0
			c-0.743-0.066-1.356-0.109-1.822-0.131l0,0c-0.011,0.032-0.023,0.067-0.034,0.104l0,0c-0.462,1.449-3.162,8.841-8.175,22.408l0,0
			c-3.604,9.77-5.811,15.927-6.573,18.312l0,0c0.644,0.089,1.644,0.146,2.929,0.145l0,0c3.354,0.012,5.656-0.081,6.385-0.161l0,0
			c0.011-0.019,0.022-0.04,0.034-0.063l0,0c0.144-0.278,0.341-0.839,0.516-1.618l0,0c0.224-0.964,0.438-1.745,0.662-2.378l0,0
			c0.249-0.641,0.403-1.11,0.938-1.657l0,0l0.049-0.045l0.029-0.022c0.395-0.294,0.565-0.298,0.74-0.357l0,0
			c0.168-0.042,0.319-0.066,0.485-0.088l0,0c0.331-0.043,0.719-0.074,1.207-0.099l0,0c0.968-0.047,2.314-0.07,4.066-0.07l0,0
			c3.88,0,6.376,0.039,7.622,0.125l0,0c0.473,0.056,0.592-0.002,1.192,0.214l0,0l0.049,0.022l0.051,0.027
			c0.639,0.384,0.75,0.717,0.95,1.042l0,0c0.17,0.329,0.314,0.693,0.467,1.129l0,0c0.298,0.871,0.614,2.031,0.968,3.529l0,0
			c0.047,0.197,0.093,0.236,0.093,0.238l0,0c0.004-0.004,0,0,0.053,0.014l0,0c0.569,0.122,2.479,0.224,5.353,0.218l0,0
			C78.357,54.018,80.04,53.951,80.863,53.887L80.863,53.887z M66.506,50.226l0.001-0.001l0,0l0,0L66.506,50.226L66.506,50.226z
			 M58.813,40.148c-1.048-0.095-1.737-0.017-2.697-0.771l0,0c-0.316-0.271-0.606-0.82-0.592-1.342l0,0
			c0.022-0.687,0.193-1.233,0.475-2.24l0,0c0.288-0.973,0.708-2.253,1.26-3.853l0,0c1.034-3.03,1.749-4.974,2.243-6.016l0,0
			l1.291-2.705l1.392,2.653c0.539,1.042,1.188,2.905,2.128,5.896l0,0c0.945,3.132,1.441,4.841,1.478,6.021l0,0
			c-0.006,0.296-0.019,0.594-0.189,1.032l0,0c-0.514,0.98-1.208,1.083-1.718,1.229l0,0c-0.553,0.119-1.155,0.156-1.891,0.158l0,0
			C60.521,40.21,59.468,40.191,58.813,40.148L58.813,40.148z M62.695,37.189c-0.174-0.828-0.59-2.444-1.248-4.529l0,0
			c-0.214-0.69-0.417-1.323-0.606-1.896l0,0c-0.228,0.644-0.476,1.362-0.744,2.153l0,0c-0.655,1.867-1.114,3.336-1.361,4.226l0,0
			c0.071,0.004,0.146,0.007,0.225,0.009l0,0c0.563,0.037,1.595,0.06,3.03,0.058l0,0C62.257,37.213,62.496,37.204,62.695,37.189
			L62.695,37.189z M59.528,27.268l1.328-0.697L59.528,27.268L59.528,27.268z"/>
	</g>
	<g>
		<path fill="#FCFCFC" d="M117.99,11.767c0-0.449-0.082,0.225-0.246,2.023c-0.225,2.269-0.398,5.17-0.521,8.705
			c-0.164,4.005-0.245,8.563-0.245,13.671c0,8.439,0.235,14.447,0.705,18.023c0.041,0.388,0.061,0.634,0.061,0.735
			c0,0.225-0.153,0.357-0.459,0.399c-0.736,0.102-3.444,0.153-8.123,0.153c-1.104,0-1.737-0.214-1.9-0.644
			c-0.042-0.776-0.082-1.553-0.123-2.33c-0.021-0.163-0.102-0.327-0.245-0.49c-0.123,0.061-0.276,0.184-0.459,0.368
			c-2.207,2.167-4.966,3.249-8.276,3.249c-4.312,0-7.766-1.512-10.36-4.536c-2.473-2.881-3.709-6.519-3.709-10.912
			c0-4.455,1.216-8.123,3.647-11.004c2.575-3.065,6.048-4.598,10.422-4.598c3.085,0,5.486,0.981,7.203,2.942
			c0.286,0.327,0.49,0.491,0.613,0.491c0.184,0,0.276-0.266,0.276-0.797c0-1.574-0.041-3.924-0.123-7.05
			c-0.082-3.126-0.123-5.466-0.123-7.019c0-0.592,0.163-0.93,0.49-1.011c1.308-0.062,3.106-0.184,5.395-0.368
			c4.087-0.51,5.896-0.766,5.425-0.766C117.765,11.001,117.99,11.257,117.99,11.767z M106.435,39.936
			c0-1.614-0.563-3.029-1.686-4.245c-1.124-1.216-2.483-1.824-4.077-1.824c-1.676,0-3.009,0.608-4,1.824
			c-0.991,1.216-1.487,2.672-1.487,4.368c0,1.655,0.5,3.055,1.502,4.199c1.022,1.226,2.35,1.839,3.985,1.839
			c1.635,0,3.004-0.613,4.107-1.839S106.435,41.592,106.435,39.936z"/>
		<path fill="#9FCFFF" d="M86.66,52.069c-2.73-3.168-4.08-7.219-4.072-11.888l0,0c-0.008-4.721,1.313-8.795,4-11.969l0,0
			c2.834-3.408,6.853-5.155,11.571-5.133l0,0c2.502-0.014,4.754,0.611,6.571,1.873l0,0c-0.019-1.304-0.054-2.888-0.103-4.749l0,0
			c-0.083-3.132-0.124-5.48-0.124-7.057l0,0c0.004-0.432,0.045-0.867,0.273-1.353l0,0c0.208-0.481,0.759-0.987,1.354-1.114l0,0
			l0.146-0.037l0.146-0.006c1.279-0.06,3.067-0.183,5.345-0.366l0,0l0,0c3.046-0.378,4.922-0.642,5.188-0.695l0,0
			c0.015-0.004,0.021-0.004,0.027-0.006l0,0l0.186,0.794c0.044-0.026,0.092-0.052,0.145-0.076l0,0V9.5
			c0.489-0.014,1.18,0.175,1.632,0.701l0,0c0.365,0.423,0.495,0.889,0.531,1.296l0,0c0.002,0.02,0.003,0.037,0.005,0.054l0,0
			c0.006,0.095,0.006,0.15,0.006,0.216l0,0h-0.808c-0.01,0.017-0.02,0.033-0.03,0.048l0,0l0.723,0.159l0.059,0.008
			c-0.008,0.056-0.025,0.181-0.043,0.35l0,0c-0.037,0.343-0.088,0.878-0.154,1.605l0,0c-0.22,2.22-0.393,5.096-0.514,8.617l0,0
			c-0.164,3.98-0.245,8.519-0.245,13.61l0,0c-0.002,8.407,0.239,14.393,0.697,17.869l0,0c0.041,0.416,0.065,0.629,0.067,0.89l0,0
			c0.023,0.444-0.216,1.067-0.631,1.402l0,0c-0.405,0.341-0.804,0.436-1.122,0.483l0,0c-0.999,0.127-3.602,0.162-8.327,0.167l0,0
			c-0.65-0.002-1.217-0.052-1.784-0.241l0,0c-0.543-0.173-1.223-0.592-1.52-1.369l0,0l-0.082-0.22l-0.012-0.234
			c0-0.011-0.001-0.021-0.002-0.032l0,0c-2.175,1.5-4.765,2.261-7.604,2.25l0,0c-0.028,0-0.055,0-0.083,0l0,0
			C93.454,57.13,89.497,55.408,86.66,52.069L86.66,52.069z M88.882,30.144c-2.175,2.588-3.285,5.848-3.293,10.037l0,0
			c0.008,4.118,1.13,7.341,3.346,9.935l0,0c2.337,2.693,5.256,3.992,9.224,4.013l0,0c2.986-0.014,5.281-0.929,7.215-2.81l0,0
			c0.249-0.24,0.467-0.448,0.851-0.649l0,0l1.036-0.516l0.762,0.872c0.28,0.319,0.537,0.754,0.603,1.291l0,0l0.008,0.056
			l0.002,0.053c0.027,0.512,0.054,1.023,0.081,1.534l0,0c0.124,0.011,0.273,0.019,0.445,0.018l0,0
			c3.327,0.003,5.715-0.031,6.973-0.079l0,0c-0.445-3.747-0.657-9.62-0.659-17.732l0,0c0.002-5.125,0.083-9.7,0.247-13.723l0,0
			c0.124-3.554,0.298-6.483,0.526-8.788l0,0c0.033-0.361,0.063-0.678,0.089-0.952l0,0c-0.04,0.005-0.08,0.011-0.122,0.017l0,0
			c-0.929,0.129-2.307,0.306-4.142,0.536l0,0l-0.021,0.002l-0.045,0.004c-1.797,0.145-3.296,0.251-4.502,0.322l0,0
			c0.006,1.521,0.045,3.707,0.12,6.542l0,0c0.082,3.134,0.124,5.492,0.124,7.089l0,0c-0.064,0.532,0.109,0.97-0.615,1.828l0,0
			c-0.265,0.273-0.75,0.483-1.162,0.468l0,0c-0.731-0.041-0.954-0.3-1.182-0.45l0,0c-0.214-0.172-0.38-0.347-0.559-0.551l0,0
			c-1.423-1.603-3.295-2.411-6.074-2.43l0,0C94.128,26.103,91.199,27.419,88.882,30.144L88.882,30.144z M104.744,27.392
			L104.744,27.392L104.744,27.392L104.744,27.392z M116.986,12.756l0.15-0.169c0,0,0,0,0,0l0,0L116.986,12.756L116.986,12.756z
			 M119.229,12.46l-0.709-0.468l0,0l0,0L119.229,12.46L119.229,12.46z M119.383,12.156l-0.77-0.282l0,0l0,0L119.383,12.156
			L119.383,12.156z M117.13,10.39C117.13,10.389,117.13,10.389,117.13,10.39L117.13,10.39l-0.301-0.771L117.13,10.39L117.13,10.39z
			 M95.559,45.246c-1.25-1.412-1.885-3.235-1.875-5.188l0,0c-0.008-1.984,0.608-3.836,1.825-5.316l0,0
			c1.24-1.558,3.128-2.398,5.162-2.376l0,0c1.981-0.017,3.83,0.82,5.178,2.306l0,0c1.357,1.449,2.097,3.297,2.086,5.265l0,0
			c0.01,1.987-0.705,3.856-2.041,5.324l0,0c-1.336,1.513-3.211,2.355-5.223,2.335l0,0c-0.026,0-0.052,0-0.078,0l0,0
			C98.615,47.596,96.778,46.744,95.559,45.246L95.559,45.246z M97.834,36.638c-0.767,0.954-1.141,2.014-1.149,3.42l0,0
			c0.01,1.356,0.376,2.335,1.153,3.24l0,0c0.785,0.904,1.572,1.274,2.833,1.299l0,0c1.258-0.021,2.121-0.405,2.993-1.342l0,0
			c0.87-0.984,1.258-1.998,1.271-3.317l0,0c-0.012-1.264-0.396-2.247-1.287-3.228l0,0c-0.9-0.945-1.768-1.326-2.977-1.342l0,0
			C99.353,35.39,98.574,35.766,97.834,36.638L97.834,36.638z"/>
	</g>
	<g>
		<path fill="#FCFCFC" d="M152.014,33.99c0,3.494-0.113,5.558-0.337,6.191c-0.47,1.451-1.88,3.914-4.23,7.387
			c-2.043,2.983-3.791,5.313-5.241,6.988c-0.532,0.634-2.136,0.95-4.813,0.95c-2.33,0-3.842-0.082-4.536-0.245
			c-0.429-0.102-0.787-0.307-1.073-0.613c-1.226-1.328-2.973-3.637-5.242-6.927c-2.432-3.535-3.882-5.957-4.353-7.265
			c-0.511-1.41-0.766-3.525-0.766-6.345c0-0.797,0.01-1.997,0.031-3.602c0.02-1.604,0.03-2.815,0.03-3.632
			c0-0.531,0.357-0.797,1.073-0.797c1.042,0,2.61,0.031,4.705,0.092c2.095,0.062,3.663,0.092,4.705,0.092
			c0.47,0,0.705,0.317,0.705,0.95c0,0.572-0.041,1.436-0.123,2.59c-0.082,1.155-0.123,2.028-0.123,2.621
			c0,2.125,0.061,3.862,0.184,5.211c0.061,0.695,0.653,2.003,1.777,3.923c1.165,2.023,2.013,3.035,2.544,3.035
			c0.51,0,1.328-0.991,2.452-2.974c1.083-1.859,1.665-3.126,1.747-3.801c0.163-1.451,0.245-3.208,0.245-5.272
			c0-0.592-0.062-1.486-0.184-2.682c-0.123-1.196-0.184-2.079-0.184-2.651c0-0.633,0.214-0.95,0.644-0.95
			c0.49,0,1.221,0.01,2.191,0.03c0.971,0.021,1.701,0.031,2.192,0.031c0.49,0,1.23-0.041,2.222-0.123
			c0.991-0.082,1.732-0.123,2.222-0.123c0.511,0,0.848,0.266,1.011,0.797C151.84,28.043,152.014,30.414,152.014,33.99z"/>
		<path fill="#9FCFFF" d="M132.509,56.719c-0.687-0.156-1.34-0.524-1.828-1.054l0,0c-1.324-1.437-3.085-3.772-5.375-7.094l0,0
			c-2.46-3.593-3.93-5.986-4.528-7.604l0,0c-0.61-1.708-0.849-3.942-0.855-6.855l0,0c0-0.81,0.01-2.015,0.031-3.622l0,0
			c0.021-1.599,0.031-2.808,0.031-3.613l0,0c-0.029-0.584,0.275-1.386,0.874-1.801l0,0c0.58-0.417,1.166-0.489,1.7-0.496l0,0
			c1.069,0,2.646,0.031,4.749,0.093l0,0c2.086,0.062,3.646,0.092,4.66,0.092l0,0c0.555-0.029,1.334,0.265,1.733,0.843l0,0
			c0.403,0.559,0.467,1.114,0.473,1.607l0,0c0,0.64-0.043,1.521-0.125,2.695l0,0c-0.083,1.135-0.12,1.988-0.12,2.514l0,0
			c0,2.097,0.06,3.796,0.177,5.081l0,0c-0.035,0.109,0.481,1.476,1.585,3.305l0,0c0.47,0.84,0.915,1.489,1.23,1.897l0,0
			c0.305-0.4,0.706-1.021,1.169-1.842l0,0c1.057-1.766,1.577-3.087,1.554-3.215l0,0c0.154-1.373,0.237-3.079,0.237-5.104l0,0
			c0-0.493-0.058-1.36-0.177-2.528l0,0c-0.125-1.225-0.191-2.131-0.191-2.804l0,0c0.006-0.479,0.056-0.997,0.417-1.554l0,0
			c0.354-0.578,1.153-0.933,1.725-0.896l0,0c0.51,0,1.248,0.01,2.224,0.029l0,0c0.964,0.023,1.688,0.031,2.161,0.031l0,0
			c0.411,0,1.128-0.037,2.099-0.117l0,0c1.013-0.082,1.776-0.127,2.345-0.127l0,0c1.071-0.092,2.253,0.888,2.448,1.869l0,0
			c0.438,1.523,0.574,3.893,0.584,7.54l0,0c0,1.764-0.027,3.174-0.086,4.251l0,0c-0.072,1.1-0.115,1.766-0.323,2.403l0,0
			c-0.59,1.772-2.035,4.23-4.419,7.772l0,0c-2.064,3.014-3.835,5.379-5.33,7.106l0,0c-0.697,0.777-1.515,1.014-2.46,1.219l0,0
			c-0.956,0.187-2.103,0.265-3.5,0.267l0,0C135.004,56.999,133.516,56.944,132.509,56.719L132.509,56.719z M141.073,53.572
			c1.391-1.607,3.113-3.898,5.13-6.844l0,0c2.318-3.412,3.694-5.879,4.06-7.048l0,0c0.006-0.002,0.127-0.639,0.168-1.604l0,0
			c0.054-0.986,0.083-2.355,0.083-4.086l0,0c0.009-3.174-0.164-5.417-0.384-6.402l0,0c-0.422,0.015-1.013,0.051-1.748,0.11l0,0
			c-1.015,0.084-1.776,0.127-2.345,0.127l0,0c-0.51,0-1.248-0.008-2.224-0.029l0,0c-0.492-0.01-0.922-0.018-1.288-0.023l0,0
			c0.024,0.485,0.077,1.141,0.159,1.941l0,0c0.125,1.223,0.193,2.144,0.193,2.834l0,0c0,2.105-0.083,3.912-0.257,5.454l0,0
			c-0.185,1.207-0.83,2.421-1.93,4.36l0,0c-0.588,1.034-1.102,1.831-1.605,2.444l0,0c-0.539,0.563-0.907,1.18-2.152,1.289l0,0
			c-1.237-0.104-1.632-0.719-2.185-1.295l0,0c-0.518-0.623-1.05-1.435-1.655-2.481l0,0c-1.151-2.022-1.817-3.271-1.975-4.545l0,0
			c-0.129-1.42-0.191-3.192-0.191-5.348l0,0c0-0.658,0.043-1.552,0.127-2.726l0,0c0.056-0.794,0.092-1.447,0.109-1.939l0,0
			c-1.006-0.011-2.317-0.04-3.944-0.088l0,0c-1.815-0.054-3.231-0.084-4.236-0.091l0,0c-0.004,0.766-0.014,1.748-0.029,2.948l0,0
			c-0.021,1.602-0.031,2.798-0.031,3.583l0,0c-0.006,2.724,0.265,4.719,0.678,5.835l0,0c0.341,0.995,1.772,3.445,4.177,6.921l0,0
			c2.245,3.26,3.979,5.544,5.102,6.757l0,0c0.088,0.088,0.15,0.129,0.321,0.175l0,0c0.384,0.104,1.92,0.213,4.193,0.206l0,0
			C139.469,54.043,140.854,53.714,141.073,53.572L141.073,53.572z"/>
	</g>
	<g>
		<path fill="#FCFCFC" d="M184.259,38.618c0,2.064-0.664,3.239-1.992,3.525c-0.225,0.041-2.34,0.266-6.345,0.674
			c-2.411,0.266-6.007,0.582-10.789,0.95c0.286,1.329,1.154,2.34,2.605,3.034c1.185,0.572,2.533,0.858,4.046,0.858
			c1.818,0,3.647-0.49,5.486-1.471c0.776-0.491,1.553-0.981,2.33-1.471c0.429,0.204,1.149,1.247,2.161,3.126
			c1.011,1.88,1.517,3.076,1.517,3.586c0,0.143-0.153,0.378-0.459,0.705c-2.494,2.677-6.366,4.015-11.617,4.015
			c-4.863,0-8.787-1.42-11.77-4.26c-3.065-2.881-4.598-6.733-4.598-11.556c0-4.7,1.369-8.552,4.107-11.556
			c2.82-3.106,6.56-4.659,11.219-4.659c3.923,0,7.254,1.431,9.992,4.292S184.259,34.675,184.259,38.618z M173.531,36.748
			c0-1.267-0.45-2.38-1.349-3.341c-0.899-0.96-1.972-1.44-3.218-1.44c-1.288,0-2.35,0.542-3.188,1.625
			c-0.777,1.001-1.165,2.176-1.165,3.525c0,0.552,0.286,0.828,0.858,0.828c1.512,0,3.862-0.235,7.05-0.705
			C173.194,37.137,173.531,36.973,173.531,36.748z"/>
		<path fill="#9FCFFF" d="M158.404,52.984c-3.39-3.167-5.088-7.518-5.071-12.648l0,0c-0.01-4.985,1.484-9.273,4.496-12.564l0,0
			c3.092-3.431,7.345-5.17,12.33-5.151l0,0c4.291-0.017,8.102,1.622,11.076,4.755l0,0c2.987,3.1,4.537,6.952,4.524,11.245l0,0
			c-0.004,1.188-0.179,2.243-0.692,3.166l0,0c-0.502,0.927-1.452,1.622-2.533,1.833l0,0c-0.199,0.034-0.732,0.095-1.65,0.193l0,0
			c0.314,0.286,0.521,0.602,0.811,0.989l0,0c0.411,0.596,0.863,1.363,1.386,2.333l0,0c0.52,0.966,0.917,1.766,1.198,2.432l0,0
			c0.275,0.691,0.473,1.151,0.498,1.865l0,0c-0.025,0.606-0.22,0.861-0.358,1.104l0,0c-0.152,0.23-0.316,0.422-0.503,0.623l0,0
			c-2.874,3.085-7.232,4.5-12.714,4.494l0,0c-0.021,0-0.041,0-0.061,0l0,0C166.021,57.65,161.664,56.1,158.404,52.984
			L158.404,52.984z M160.049,29.789c-2.463,2.714-3.704,6.128-3.714,10.546l0,0c0.014,4.514,1.381,7.865,4.13,10.468l0,0
			c2.687,2.545,6.154,3.836,10.737,3.848l0,0c4.986-0.008,8.36-1.251,10.48-3.496l0,0c-0.042-0.117-0.097-0.259-0.165-0.42l0,0
			c-0.224-0.528-0.586-1.267-1.077-2.181l0,0c-0.417-0.798-0.813-1.447-1.11-1.892l0,0c-0.42,0.265-0.839,0.53-1.258,0.794l0,0
			l-0.049,0.031l-0.047,0.024c-2.017,1.08-4.101,1.649-6.192,1.649l0,0c-1.7,0-3.287-0.325-4.693-1.005l0,0
			c-1.75-0.81-3.055-2.259-3.425-4.072l0,0l-0.36-1.68l1.712-0.131c4.771-0.368,8.358-0.683,10.751-0.948l0,0
			c3.959-0.401,6.208-0.647,6.182-0.647l0,0c0.296-0.084,0.341-0.119,0.504-0.368l0,0c0.15-0.25,0.308-0.816,0.304-1.689l0,0
			c-0.013-3.596-1.201-6.55-3.69-9.171l0,0c-2.504-2.59-5.353-3.811-8.91-3.828l0,0C165.825,25.639,162.6,27.004,160.049,29.789
			L160.049,29.789z M181.777,51.479C181.778,51.479,181.778,51.479,181.777,51.479L181.777,51.479L181.777,51.479L181.777,51.479z
			 M168.391,45.45c0.958,0.462,2.066,0.709,3.392,0.711l0,0c1.529-0.002,3.087-0.402,4.728-1.267l0,0
			c0.396-0.25,0.793-0.501,1.189-0.751l0,0c-0.497,0.051-1.034,0.106-1.614,0.166l0,0c-2,0.221-4.781,0.473-8.354,0.759l0,0
			C167.92,45.197,168.138,45.323,168.391,45.45L168.391,45.45z M163.784,38.816c-0.524-0.504-0.681-1.186-0.674-1.7l0,0
			c-0.006-1.634,0.496-3.187,1.48-4.442l0,0c1.04-1.39,2.656-2.232,4.375-2.208l0,0c1.636-0.016,3.192,0.693,4.313,1.916l0,0
			c1.13,1.192,1.766,2.74,1.753,4.366l0,0c-0.019,0.973-0.744,1.493-1.098,1.641l0,0c-0.409,0.193-0.769,0.265-1.196,0.335l0,0
			c-3.226,0.473-5.608,0.718-7.267,0.72l0,0c-0.008,0-0.015,0-0.023,0l0,0C164.94,39.443,164.298,39.308,163.784,38.816
			L163.784,38.816z M166.96,34.51c-0.439,0.576-0.701,1.183-0.802,1.919l0,0c1.331-0.055,3.268-0.258,5.745-0.617l0,0
			c-0.14-0.486-0.399-0.922-0.817-1.381l0,0c-0.678-0.697-1.269-0.948-2.122-0.964l0,0C168.107,33.492,167.597,33.732,166.96,34.51
			L166.96,34.51z"/>
	</g>
	<g>
		<path fill="#FCFCFC" d="M218.098,54.373c0,0.551-0.286,0.869-0.858,0.95c-0.572,0.081-2.064,0.123-4.475,0.123
			c-2.575,0-4.169-0.062-4.782-0.184c-0.613-0.123-0.919-0.541-0.919-1.257c0-0.96,0.03-2.411,0.092-4.353
			c0.062-1.941,0.092-3.402,0.092-4.383c0-0.756-0.021-1.885-0.061-3.387c-0.042-1.502-0.062-2.631-0.062-3.387
			c0-2.799-1.216-4.199-3.647-4.199c-0.797,0-1.727,0.348-2.789,1.042c-1.145,0.777-1.717,1.543-1.717,2.299v16.552
			c0,0.674-0.317,1.053-0.95,1.134c-0.715,0.081-2.176,0.123-4.383,0.123c-2.391,0-3.944-0.062-4.659-0.184
			c-0.634-0.102-0.95-0.439-0.95-1.012c0-1.594,0.01-3.995,0.031-7.203c0.02-3.208,0.03-5.619,0.03-7.233
			c0-5.088-0.398-9.083-1.195-11.985c-0.041-0.184-0.061-0.337-0.061-0.46c0-0.327,0.153-0.552,0.459-0.674
			c1.288-0.143,3.004-0.368,5.149-0.674c3.249-0.633,5.078-0.95,5.487-0.95c0.225,0,0.398,0.69,0.521,2.069
			c0.123,1.379,0.296,2.069,0.521,2.069c-0.225,0,0.874-0.71,3.295-2.13c2.421-1.42,4.541-2.13,6.36-2.13
			c2.595,0,4.761,0.613,6.498,1.839c1.941,1.41,2.912,3.372,2.912,5.885v9.778c0,1.329,0.01,3.316,0.031,5.962
			C218.087,51.058,218.098,53.045,218.098,54.373z"/>
		<path fill="#9FCFFF" d="M207.688,56.732c-0.573-0.103-1.21-0.438-1.605-0.991l0,0c-0.4-0.549-0.52-1.174-0.52-1.737l0,0
			c0-0.988,0.031-2.448,0.093-4.398l0,0c0.062-1.932,0.092-3.386,0.092-4.335l0,0c0-0.729-0.021-1.852-0.062-3.346l0,0
			c-0.041-1.511-0.062-2.647-0.062-3.429l0,0c0-1.198-0.27-1.86-0.545-2.167l0,0c-0.271-0.298-0.654-0.518-1.603-0.532l0,0
			c-0.352-0.01-1.046,0.189-1.947,0.783l0,0c-0.481,0.325-0.785,0.619-0.927,0.814l0,0c-0.148,0.201-0.129,0.243-0.131,0.245l0,0
			v16.551c0.002,0.559-0.138,1.215-0.588,1.753l0,0c-0.448,0.541-1.106,0.804-1.694,0.872l0,0c-0.861,0.095-2.316,0.129-4.551,0.132
			l0,0c-2.436-0.004-3.967-0.052-4.898-0.204l0,0c-0.524-0.083-1.108-0.296-1.568-0.783l0,0c-0.464-0.483-0.653-1.159-0.643-1.708
			l0,0c0-1.602,0.01-4.002,0.031-7.213l0,0c0.021-3.207,0.031-5.616,0.031-7.225l0,0c0.002-5.007-0.401-8.898-1.143-11.587l0,0
			l-0.008-0.031l-0.011-0.039c-0.055-0.257-0.094-0.502-0.096-0.788l0,0c-0.076-0.808,0.633-1.842,1.402-2.065l0,0l0.191-0.078
			l0.202-0.021c1.261-0.14,2.964-0.363,5.1-0.669l0,0c3.279-0.628,4.887-0.94,5.702-0.964l0,0c0.918,0.035,1.319,0.635,1.457,0.88
			l0,0c0.167,0.293,0.23,0.522,0.296,0.771l0,0c0.105,0.425,0.175,0.907,0.235,1.507l0,0c0.45-0.271,0.979-0.585,1.591-0.943l0,0
			c2.561-1.497,4.902-2.331,7.118-2.337l0,0c2.826-0.004,5.334,0.678,7.379,2.125l0,0c2.31,1.64,3.562,4.204,3.531,7.1l0,0v9.778
			c0,1.319,0.01,3.305,0.031,5.949l0,0c0.021,2.649,0.031,4.639,0.031,5.975l0,0c0.006,0.522-0.154,1.166-0.602,1.655l0,0
			c-0.442,0.491-1.036,0.711-1.546,0.779l0,0c-0.792,0.107-2.236,0.134-4.685,0.138l0,0
			C210.136,56.937,208.607,56.902,207.688,56.732L207.688,56.732z M212.765,53.947c1.82,0.003,3.152-0.029,3.831-0.07l0,0
			c-0.002-1.304-0.012-3.123-0.028-5.453l0,0c-0.022-2.649-0.031-4.639-0.033-5.973l0,0v-9.778c-0.031-2.131-0.72-3.492-2.275-4.66
			l0,0c-1.445-1.018-3.269-1.562-5.634-1.564l0,0c-1.422-0.008-3.318,0.58-5.602,1.924l0,0c-1.782,1.036-2.915,1.759-3.027,1.866
			l0,0l-0.612-0.752l-0.393-0.294h1.449h-1.47v1.515c-0.122-0.005-0.289,0.002-0.556-0.103l0,0
			c-0.089-0.032-0.171-0.069-0.245-0.111l0,0c-0.015-0.008-0.029-0.016-0.044-0.025l0,0c-0.342-0.205-0.526-0.489-0.612-0.639l0,0
			c-0.167-0.296-0.23-0.524-0.296-0.773l0,0c-0.121-0.487-0.195-1.052-0.261-1.784l0,0c-0.016-0.202-0.035-0.388-0.056-0.554l0,0
			c-0.122,0.021-0.253,0.042-0.394,0.067l0,0c-0.896,0.156-2.159,0.393-3.778,0.707l0,0l-0.037,0.006l-0.037,0.006
			c-1.625,0.232-3.006,0.418-4.151,0.558l0,0c0.74,3.032,1.084,6.925,1.086,11.75l0,0c0,1.622-0.01,4.035-0.031,7.244l0,0
			c-0.019,2.931-0.029,5.188-0.031,6.767l0,0c0.686,0.071,2.119,0.126,4.111,0.123l0,0c1.805,0,3.123-0.033,3.832-0.08l0,0V37.638
			c0.041-1.587,1.089-2.658,2.396-3.556l0,0c1.203-0.779,2.368-1.276,3.61-1.287l0,0c1.482-0.015,2.923,0.466,3.868,1.566l0,0
			c0.941,1.095,1.279,2.532,1.279,4.133l0,0c0,0.732,0.021,1.852,0.062,3.347l0,0c0.041,1.509,0.062,2.646,0.062,3.428l0,0
			c0,1.009-0.031,2.479-0.092,4.43l0,0c-0.058,1.816-0.087,3.2-0.09,4.132l0,0C209.199,53.894,210.69,53.953,212.765,53.947
			L212.765,53.947z M198.971,29.161l0.136-0.253h0L198.971,29.161L198.971,29.161L198.971,29.161z"/>
	</g>
	<g>
		<path fill="#FCFCFC" d="M243.723,46.281c0,0.613-0.077,1.543-0.23,2.79s-0.23,2.161-0.23,2.743s-0.061,0.956-0.184,1.119
			c-0.123,0.164-0.46,0.398-1.012,0.705c-2.636,1.451-5.559,2.176-8.766,2.176c-5.906,0-8.858-2.258-8.858-6.774
			c0-1.349,0.051-3.376,0.153-6.084c0.102-2.708,0.153-4.735,0.153-6.084c0-0.899-0.521-1.349-1.563-1.349c-0.082,0-0.214,0-0.398,0
			c-0.184,0.021-0.317,0.031-0.398,0.031c-0.777,0-1.165-0.276-1.165-0.828c0-0.327,0.025-0.828,0.077-1.502
			c0.051-0.674,0.077-1.175,0.077-1.502c0-0.429-0.026-1.083-0.077-1.961c-0.051-0.878-0.077-1.533-0.077-1.962
			c0-0.408,0.654-0.633,1.962-0.674c0.736-0.02,1.134-0.225,1.195-0.613c0.123-0.776,0.164-2.002,0.123-3.678
			c-0.082-2.636-0.123-3.893-0.123-3.77c0-2.371,0.225-3.556,0.674-3.556c0.552,0,1.338,0.123,2.36,0.368
			c1.165,0.266,1.972,0.419,2.421,0.46c1.042,0.143,2.615,0.337,4.72,0.582c0.511,0.042,0.767,0.215,0.767,0.521
			c0,0.817-0.067,2.053-0.199,3.708c-0.133,1.655-0.199,2.902-0.199,3.74c0,1.001,0.296,1.502,0.889,1.502
			c0.715,0,1.798-0.031,3.249-0.092c1.451-0.061,2.544-0.092,3.28-0.092c0.449,0,0.674,0.153,0.674,0.46
			c0,0.47-0.051,1.175-0.153,2.115c-0.103,0.94-0.153,1.645-0.153,2.115c0,0.491,0.01,1.206,0.031,2.146
			c0.02,0.94,0.031,1.655,0.031,2.146c0,0.429-0.296,0.644-0.889,0.644c-0.409,0-1.093-0.015-2.054-0.046s-1.645-0.046-2.053-0.046
			h-2.299c-0.307,0-0.46,0.45-0.46,1.349c0,0.49,0,1.216,0,2.176c0.02,0.981,0.031,1.707,0.031,2.176
			c0,1.716,0.194,2.902,0.582,3.556c0.552,0.878,1.635,1.318,3.249,1.318c0.511,0,1.242-0.117,2.192-0.353
			c0.95-0.235,1.619-0.353,2.008-0.353C243.508,45.607,243.723,45.832,243.723,46.281z"/>
		<path fill="#9FCFFF" d="M233.302,57.313c-3.133-0.004-5.678-0.58-7.557-2.002l0,0c-1.893-1.423-2.826-3.707-2.804-6.272l0,0
			c0.002-1.385,0.053-3.422,0.156-6.14l0,0c0.097-2.596,0.148-4.561,0.152-5.875l0,0c-0.02-0.001-0.041-0.001-0.063-0.001l0,0
			c-0.071,0-0.18,0-0.328,0l0,0c-0.169,0.017-0.307,0.029-0.47,0.031l0,0c-0.557-0.008-1.147-0.076-1.741-0.485l0,0
			c-0.615-0.403-0.954-1.231-0.923-1.844l0,0c0-0.401,0.029-0.921,0.081-1.614l0,0c0.049-0.656,0.074-1.137,0.072-1.39l0,0
			c0-0.372-0.022-1.011-0.074-1.875l0,0c-0.051-0.895-0.078-1.563-0.078-2.048l0,0c-0.014-0.514,0.259-1.064,0.58-1.35l0,0
			c0.316-0.302,0.629-0.44,0.923-0.545l0,0c0.539-0.178,1.081-0.241,1.742-0.272l0,0c0.031-0.429,0.05-0.978,0.049-1.625l0,0
			c0-0.349-0.004-0.731-0.013-1.126l0,0c-0.065-2.119-0.106-3.387-0.117-3.659l0,0c-0.002-0.014-0.002-0.021-0.002-0.026l0,0
			c-0.002-0.026-0.004-0.066-0.005-0.132l0,0h-0.001c0.043-1.893,0.024-2.96,0.578-4.076l0,0c0.177-0.362,0.748-0.98,1.597-0.979
			l0,0c0.767,0.002,1.624,0.15,2.695,0.403l0,0c1.13,0.261,1.93,0.407,2.224,0.43l0,0l0.039,0.004l0.029,0.004
			c1.021,0.14,2.59,0.333,4.637,0.574l0,0c0.399,0.039,0.82,0.104,1.295,0.415l0,0c0.489,0.288,0.884,1.026,0.849,1.602l0,0
			c0,0.894-0.07,2.15-0.204,3.827l0,0c-0.131,1.631-0.195,2.853-0.193,3.616l0,0c0.65-0.012,1.512-0.04,2.573-0.084l0,0
			c1.462-0.062,2.568-0.092,3.343-0.092l0,0c0.388,0.006,0.841,0.039,1.351,0.374l0,0c0.532,0.325,0.859,1.077,0.824,1.585l0,0
			c-0.002,0.573-0.058,1.307-0.163,2.277l0,0c-0.099,0.909-0.146,1.585-0.144,1.953l0,0c0,0.468,0.011,1.178,0.031,2.113l0,0
			c0.019,0.946,0.031,1.665,0.031,2.177l0,0c0.029,0.542-0.275,1.317-0.843,1.698l0,0c-0.551,0.384-1.079,0.44-1.546,0.446l0,0
			c-0.444,0-1.133-0.016-2.103-0.047l0,0c-0.952-0.031-1.632-0.045-2.004-0.045l0,0h-1.26c0,0.483,0,1.155,0,1.994l0,0
			c0.021,0.986,0.031,1.716,0.031,2.208l0,0c-0.021,1.595,0.243,2.633,0.354,2.756l0,0c0.158,0.266,0.586,0.601,1.978,0.617l0,0
			c0.29,0.004,0.948-0.086,1.832-0.308l0,0c1.011-0.243,1.702-0.386,2.368-0.397l0,0c0.456-0.008,1.1,0.138,1.568,0.633l0,0
			c0.467,0.493,0.578,1.096,0.576,1.542l0,0c-0.002,0.731-0.084,1.693-0.241,2.972l0,0c-0.152,1.215-0.222,2.101-0.22,2.562l0,0
			c-0.047,0.707,0.055,1.167-0.483,2.016l0,0c-0.485,0.582-0.859,0.742-1.488,1.121l0,0c-2.857,1.575-6.049,2.362-9.475,2.362l0,0
			C233.311,57.313,233.306,57.313,233.302,57.313L233.302,57.313z M222.787,34.021c0.183,0,0.316,0,0.399,0l0,0
			c0.721,0.002,1.497,0.146,2.152,0.703l0,0c0.662,0.557,0.927,1.428,0.911,2.146l0,0c0,1.385-0.052,3.422-0.154,6.142l0,0
			c-0.103,2.697-0.152,4.713-0.152,6.027l0,0c0.025,1.951,0.565,3.055,1.626,3.889l0,0c1.075,0.834,2.96,1.39,5.733,1.384l0,0
			c2.982-0.002,5.63-0.664,8.037-1.986l0,0c0.168-0.093,0.311-0.179,0.417-0.247l0,0c0.004-0.074,0.007-0.164,0.007-0.265l0,0
			c0.002-0.708,0.084-1.649,0.24-2.927l0,0c0.079-0.64,0.136-1.192,0.172-1.644l0,0c-0.219,0.045-0.47,0.102-0.743,0.171l0,0
			c-1.018,0.247-1.819,0.393-2.553,0.397l0,0c-1.835,0.014-3.573-0.526-4.539-2.054l0,0c-0.646-1.151-0.771-2.485-0.792-4.321l0,0
			c0-0.448-0.01-1.169-0.031-2.177l0,0c0-0.96,0-1.686,0-2.175l0,0c0.063-0.808-0.074-1.41,0.709-2.337l0,0
			c0.286-0.298,0.802-0.526,1.25-0.512l0,0h2.3c0.442,0,1.13,0.016,2.101,0.045l0,0c0.559,0.018,1.023,0.031,1.388,0.039l0,0
			c-0.005-0.356-0.013-0.773-0.023-1.25l0,0c-0.021-0.946-0.031-1.667-0.031-2.177l0,0c0-0.574,0.056-1.31,0.161-2.278l0,0
			c0.037-0.333,0.066-0.635,0.088-0.902l0,0c-0.623,0.014-1.403,0.04-2.333,0.08l0,0c-1.463,0.062-2.557,0.092-3.313,0.092l0,0
			c-0.719,0.045-1.62-0.454-1.957-1.11l0,0c-0.362-0.639-0.423-1.246-0.432-1.891l0,0c0.002-0.913,0.07-2.183,0.204-3.858l0,0
			c0.087-1.087,0.145-1.989,0.174-2.689l0,0c-1.797-0.211-3.17-0.381-4.131-0.513l0,0c-0.604-0.062-1.411-0.223-2.606-0.492l0,0
			c-0.418-0.102-0.789-0.178-1.104-0.231l0,0c-0.049,0.455-0.081,1.107-0.081,1.915l0,0c0,0.011,0.001,0.021,0.002,0.033l0,0
			c0.002,0.045,0.004,0.105,0.006,0.187l0,0c0.006,0.158,0.014,0.397,0.024,0.711l0,0c0.021,0.633,0.049,1.577,0.091,2.851l0,0
			c0.008,0.425,0.014,0.826,0.014,1.207l0,0c-0.002,1.131-0.045,2.017-0.156,2.738l0,0c-0.08,0.672-0.625,1.313-1.141,1.546l0,0
			c-0.521,0.257-0.997,0.314-1.488,0.333l0,0c-0.184,0.003-0.348,0.013-0.487,0.026l0,0c0.012,0.293,0.029,0.636,0.051,1.024l0,0
			c0.051,0.894,0.08,1.562,0.08,2.047l0,0c-0.002,0.403-0.029,0.921-0.082,1.616l0,0c-0.02,0.256-0.035,0.485-0.046,0.685l0,0
			H222.787L222.787,34.021z M223.223,20.006c0.129,0.156,0.479,0.53,1.157,0.547l0,0v-1.491h-0.03l-1.409,0.416
			C222.982,19.564,222.958,19.65,223.223,20.006L223.223,20.006z M225.435,20.121c0.276-0.282,0.358-0.543,0.399-0.699l0,0
			c0.047-0.209,0.05-0.316,0.047-0.386l0,0c0,0.009,0,0.018,0,0.026l0,0h-1.493L225.435,20.121L225.435,20.121z M224.311,19.064
			l0.018-0.001h-0.008L224.311,19.064L224.311,19.064z"/>
	</g>
	<g>
		<path fill="#FCFCFC" d="M278.481,27.4c0,1.513-0.072,3.781-0.215,6.805c-0.143,3.024-0.214,5.292-0.214,6.805
			c0,1.471,0.051,3.678,0.153,6.621c0.102,2.943,0.153,5.14,0.153,6.59c0,0.552-0.255,0.899-0.766,1.042
			c-0.777,0.204-2.421,0.307-4.935,0.307c-2.228,0-3.78-0.062-4.659-0.184c-0.389-0.061-0.634-0.307-0.736-0.735
			c-0.061-0.613-0.123-1.226-0.184-1.839c-0.102-0.939-0.245-1.41-0.429-1.41c0.286,0-0.747,0.695-3.096,2.084
			c-2.35,1.39-4.485,2.084-6.406,2.084c-5.416,0-8.624-2.442-9.625-7.326c-0.45-2.269-0.675-5.558-0.675-9.87
			c0-4.659,0.378-8.337,1.134-11.034c0.225-0.838,0.644-1.257,1.257-1.257c0.939,0,2.37,0.01,4.291,0.031
			c1.92,0.021,3.351,0.03,4.292,0.03c0.633,0,0.95,0.266,0.95,0.797c0,0.143-0.021,0.357-0.062,0.644
			c-0.429,2.779-0.644,5.599-0.644,8.46c0,3.555,0.112,5.987,0.337,7.295c0.368,2.248,1.706,3.372,4.016,3.372
			c0.899,0,1.875-0.398,2.927-1.195c1.052-0.797,1.599-1.625,1.64-2.483c0.041-0.756,0.062-5.885,0.062-15.387
			c0-0.674,0.051-1.073,0.153-1.195c0.123-0.204,0.49-0.307,1.103-0.307c1.001,0,2.508,0.011,4.521,0.031
			c2.012,0.021,3.52,0.031,4.521,0.031c0.613,0,0.97,0.153,1.073,0.46C278.46,26.828,278.481,27.073,278.481,27.4z"/>
		<path fill="#9FCFFF" d="M267.765,56.865c-0.952-0.082-1.842-1.042-1.961-1.871l0,0l-0.024-0.096l-0.01-0.101
			c-0.027-0.282-0.056-0.564-0.083-0.845l0,0c-0.396,0.243-0.851,0.516-1.368,0.823l0,0c-2.502,1.476-4.882,2.29-7.17,2.294l0,0
			c-2.925,0.002-5.439-0.664-7.377-2.14l0,0c-1.94-1.47-3.174-3.692-3.718-6.395l0,0c-0.483-2.442-0.701-5.794-0.705-10.163l0,0
			c0.004-4.74,0.378-8.526,1.186-11.422l0,0c0.158-0.578,0.401-1.139,0.872-1.614l0,0c0.46-0.483,1.188-0.769,1.835-0.754l0,0
			c0.95,0,2.382,0.01,4.307,0.031l0,0c1.917,0.021,3.344,0.031,4.275,0.031l0,0c0.512,0.002,1.12,0.095,1.675,0.551l0,0
			c0.565,0.457,0.792,1.203,0.775,1.746l0,0c-0.002,0.283-0.033,0.532-0.08,0.874l0,0c-0.417,2.703-0.625,5.445-0.625,8.23l0,0
			c-0.004,3.513,0.119,5.934,0.316,7.052l0,0c0.15,0.888,0.434,1.342,0.765,1.622l0,0c0.333,0.279,0.847,0.487,1.772,0.491l0,0
			c0.44,0.006,1.125-0.21,2.021-0.89l0,0c0.876-0.668,1.044-1.133,1.048-1.369l0,0c0.035-0.623,0.06-5.832,0.058-15.306l0,0
			c0.002-0.376,0.015-0.69,0.051-0.995l0,0c0.062-0.278,0.032-0.514,0.32-0.97l0,0l-0.003-0.002c0.37-0.592,0.882-0.795,1.251-0.902
			l0,0c0.391-0.107,0.747-0.13,1.139-0.132l0,0c1.009,0,2.52,0.01,4.537,0.031l0,0c2.008,0.021,3.513,0.031,4.505,0.031l0,0
			c0.43,0.002,0.851,0.041,1.318,0.236l0,0c0.458,0.177,0.991,0.645,1.176,1.248l0,0l0.021,0.06l0.014,0.056
			c0.088,0.378,0.101,0.701,0.105,1.096l0,0c0,1.558-0.074,3.837-0.216,6.875l0,0c-0.144,3.011-0.214,5.267-0.214,6.734l0,0
			c0,1.437,0.051,3.636,0.152,6.567l0,0c0.103,2.954,0.154,5.16,0.154,6.644l0,0c0.004,0.5-0.123,1.075-0.483,1.563l0,0
			c-0.355,0.489-0.888,0.792-1.402,0.929l0,0c-1.11,0.277-2.74,0.347-5.315,0.357l0,0C270.394,57.065,268.826,57.011,267.765,56.865
			L267.765,56.865z M276.858,53.883c-0.007-1.418-0.059-3.492-0.151-6.202l0,0c-0.103-2.952-0.154-5.169-0.154-6.672l0,0
			c0-1.558,0.072-3.84,0.216-6.875l0,0c0.132-2.811,0.204-4.963,0.211-6.43l0,0c-0.997-0.002-2.385-0.012-4.168-0.031l0,0
			c-1.852-0.019-3.277-0.029-4.263-0.03l0,0c0,0,0,0.001,0,0.001l0,0c-0.002,9.53-0.019,14.58-0.063,15.46l0,0
			c-0.078,1.488-1.003,2.681-2.232,3.607l0,0c-1.208,0.913-2.477,1.492-3.832,1.499l0,0c-1.388,0.004-2.697-0.347-3.702-1.194l0,0
			c-1.007-0.843-1.577-2.074-1.792-3.422l0,0c-0.255-1.511-0.355-3.953-0.359-7.55l0,0c0-2.843,0.206-5.649,0.619-8.402l0,0
			c-0.915-0.003-2.137-0.013-3.671-0.03l0,0c-1.762-0.019-3.11-0.029-4.037-0.03l0,0c-0.015,0.042-0.032,0.096-0.049,0.162l0,0
			c-0.701,2.483-1.081,6.053-1.079,10.629l0,0c-0.002,4.257,0.228,7.482,0.644,9.569l0,0c0.458,2.191,1.33,3.632,2.596,4.602l0,0
			c1.27,0.968,3.067,1.523,5.56,1.525l0,0c1.552,0.004,3.443-0.571,5.641-1.875l0,0c1.569-0.921,2.618-1.607,2.789-1.747l0,0
			c0.014-0.014,0.021-0.019,0.023-0.021l0,0l0.387,0.439l0.581,0.558h0.081v-1.523c0.032,0,0.063,0.002,0.093,0.004l0,0
			c0.118,0.004,0.275,0.018,0.509,0.115l0,0c0.041,0.017,0.08,0.034,0.117,0.053l0,0c0.002,0.001,0.005,0.002,0.008,0.003l0,0
			c0.084,0.03,0.172,0.087,0.258,0.161l0,0c0.182,0.138,0.308,0.289,0.377,0.396l0,0c0.185,0.275,0.252,0.481,0.318,0.685l0,0
			c0.119,0.401,0.181,0.81,0.241,1.344l0,0c0.043,0.431,0.086,0.862,0.13,1.293l0,0c0.831,0.073,2.178,0.117,3.957,0.115l0,0
			C274.68,54.076,276.164,53.986,276.858,53.883L276.858,53.883z M266.562,51.637L266.562,51.637l0.087-0.165V51.47L266.562,51.637
			L266.562,51.637z"/>
	</g>
	<g>
		<path fill="#FCFCFC" d="M303.861,36.166c0,0.797-0.439,1.195-1.318,1.195c-0.388,0-0.955-0.025-1.701-0.077
			c-0.746-0.051-1.303-0.077-1.67-0.077c-1.696,0-2.851,0.266-3.464,0.797c-0.613,0.532-0.92,1.604-0.92,3.218
			c0,0.879,0.016,2.212,0.047,4c0.03,1.789,0.046,3.122,0.046,4c0,0.593,0.04,1.477,0.122,2.651
			c0.082,1.175,0.123,2.049,0.123,2.621c0,0.49-0.338,0.766-1.012,0.828c-0.98,0.081-2.482,0.123-4.506,0.123
			c-1.941,0-3.494-0.062-4.659-0.184c-0.674-0.082-1.011-0.418-1.011-1.012c0-1.634,0.01-4.081,0.031-7.341
			c0.02-3.259,0.03-5.706,0.03-7.341c0-4.802-0.439-8.756-1.318-11.862c-0.041-0.184-0.061-0.337-0.061-0.46
			c0-0.306,0.153-0.51,0.459-0.613c1.124-0.123,2.769-0.347,4.935-0.674c3.229-0.633,4.894-0.95,4.996-0.95
			c0.368,0,0.603,0.644,0.705,1.931c0.102,1.287,0.286,1.931,0.552,1.931c-0.286,0,0.552-0.536,2.514-1.609
			c1.961-1.073,3.852-1.609,5.67-1.609c1.145,0,1.717,0.245,1.717,0.736c0,0.593-0.062,1.43-0.184,2.513
			c-0.123,1.165-0.194,2.003-0.215,2.514c0,0.593,0.01,1.379,0.03,2.36C303.84,34.981,303.861,35.778,303.861,36.166z"/>
		<path fill="#9FCFFF" d="M284.769,56.751c-0.54-0.066-1.148-0.255-1.641-0.742l0,0c-0.497-0.486-0.703-1.191-0.69-1.758l0,0
			c0-1.641,0.01-4.089,0.031-7.35l0,0c0.019-3.259,0.029-5.703,0.029-7.332l0,0c0.002-4.711-0.435-8.543-1.262-11.456l0,0
			l-0.01-0.037l-0.01-0.043c-0.056-0.258-0.095-0.503-0.097-0.787l0,0c-0.089-0.833,0.726-1.882,1.484-2.035l0,0l0.148-0.051
			l0.165-0.019c1.078-0.117,2.694-0.337,4.823-0.659l0,0c2.418-0.472,3.95-0.768,4.636-0.892l0,0c0.297-0.043,0.22-0.06,0.635-0.082
			l0,0c0.546-0.013,1.082,0.291,1.346,0.596l0,0c0.28,0.307,0.41,0.595,0.516,0.872l0,0c0.161,0.452,0.244,0.914,0.303,1.459l0,0
			c0.267-0.15,0.562-0.313,0.886-0.49l0,0c2.13-1.165,4.273-1.793,6.392-1.793l0,0c0.681,0.008,1.26,0.051,1.878,0.305l0,0
			c0.604,0.188,1.388,1.035,1.338,1.932l0,0c0,0.692-0.068,1.566-0.191,2.671l0,0c-0.122,1.148-0.19,1.973-0.206,2.356l0,0
			c0,0.575,0.008,1.354,0.028,2.309l0,0c0.041,1.214,0.062,2.01,0.062,2.442l0,0c0.013,0.653-0.208,1.459-0.82,2.007l0,0
			c-0.609,0.544-1.348,0.688-1.997,0.687l0,0c-0.451,0-1.039-0.027-1.804-0.081l0,0c-0.728-0.049-1.268-0.072-1.566-0.072l0,0
			c-1.55-0.025-2.424,0.321-2.481,0.431l0,0c-0.047,0.002-0.427,0.631-0.403,2.084l0,0c0,0.863,0.016,2.191,0.047,3.976l0,0
			c0.029,1.793,0.046,3.131,0.046,4.025l0,0c0,0.528,0.037,1.392,0.119,2.545l0,0c0.082,1.196,0.126,2.086,0.126,2.727l0,0
			c0.022,0.579-0.272,1.327-0.804,1.735l0,0c-0.52,0.413-1.064,0.534-1.586,0.587l0,0c-1.059,0.087-2.582,0.126-4.627,0.126l0,0
			C287.633,56.945,286.041,56.885,284.769,56.751L284.769,56.751z M289.608,53.946c1.747,0,3.098-0.031,4.004-0.089l0,0
			c-0.019-0.486-0.054-1.117-0.106-1.877l0,0c-0.084-1.195-0.125-2.098-0.125-2.756l0,0c0-0.861-0.017-2.191-0.046-3.974l0,0
			c-0.03-1.793-0.047-3.131-0.049-4.027l0,0c0.024-1.773,0.259-3.261,1.438-4.351l0,0c1.168-0.953,2.603-1.138,4.447-1.163l0,0
			c0.434,0,1.006,0.027,1.772,0.08l0,0c0.603,0.042,1.082,0.064,1.413,0.07l0,0c-0.007-0.424-0.026-1.115-0.059-2.053l0,0
			c-0.021-0.989-0.031-1.783-0.028-2.453l0,0c0.022-0.577,0.097-1.428,0.223-2.62l0,0c0.069-0.617,0.118-1.148,0.146-1.581l0,0
			c-0.058-0.002-0.12-0.003-0.188-0.002l0,0c-1.521,0.002-3.157,0.447-4.952,1.429l0,0c-1.278,0.69-2.115,1.202-2.229,1.298l0,0v0
			l-0.351-0.451l0.41,0.396l-1.014-0.979h1.394h-1.443v1.527c-0.051,0-0.1-0.002-0.148-0.007l0,0
			c-0.071-0.005-0.157-0.016-0.266-0.046l0,0c-0.104-0.027-0.203-0.064-0.294-0.107l0,0c-0.064-0.022-0.134-0.061-0.204-0.113l0,0
			c-0.24-0.154-0.412-0.345-0.502-0.487l0,0c-0.208-0.309-0.288-0.556-0.366-0.81l0,0c-0.139-0.499-0.209-1.043-0.267-1.741l0,0
			c-0.009-0.137-0.021-0.265-0.036-0.38l0,0c-0.069,0.013-0.143,0.027-0.219,0.042l0,0c-0.827,0.157-2.049,0.394-3.663,0.711l0,0
			l-0.035,0.006l-0.028,0.004c-1.581,0.239-2.887,0.424-3.927,0.556l0,0c0.803,3.172,1.186,7.017,1.186,11.572l0,0
			c0,1.641-0.009,4.087-0.029,7.35l0,0c-0.019,2.971-0.029,5.266-0.03,6.883l0,0C286.487,53.895,287.886,53.946,289.608,53.946
			L289.608,53.946z M295.27,29.877L295.27,29.877L295.27,29.877L295.27,29.877z"/>
	</g>
	<g>
		<path fill="#FCFCFC" d="M335.524,38.618c0,2.064-0.665,3.239-1.993,3.525c-0.225,0.041-2.34,0.266-6.345,0.674
			c-2.411,0.266-6.008,0.582-10.789,0.95c0.286,1.329,1.154,2.34,2.605,3.034c1.185,0.572,2.533,0.858,4.046,0.858
			c1.818,0,3.647-0.49,5.486-1.471c0.776-0.491,1.553-0.981,2.33-1.471c0.429,0.204,1.149,1.247,2.16,3.126
			c1.012,1.88,1.518,3.076,1.518,3.586c0,0.143-0.153,0.378-0.46,0.705c-2.493,2.677-6.365,4.015-11.616,4.015
			c-4.864,0-8.787-1.42-11.771-4.26c-3.065-2.881-4.598-6.733-4.598-11.556c0-4.7,1.369-8.552,4.107-11.556
			c2.819-3.106,6.56-4.659,11.218-4.659c3.924,0,7.254,1.431,9.993,4.292C334.154,31.272,335.524,34.675,335.524,38.618z
			 M324.795,36.748c0-1.267-0.449-2.38-1.349-3.341c-0.899-0.96-1.973-1.44-3.219-1.44c-1.287,0-2.35,0.542-3.188,1.625
			c-0.776,1.001-1.165,2.176-1.165,3.525c0,0.552,0.286,0.828,0.858,0.828c1.512,0,3.862-0.235,7.05-0.705
			C324.458,37.137,324.795,36.973,324.795,36.748z"/>
		<path fill="#9FCFFF" d="M309.668,52.983c-3.391-3.166-5.088-7.517-5.071-12.647l0,0c-0.01-4.984,1.483-9.273,4.496-12.565l0,0
			c3.091-3.431,7.345-5.168,12.329-5.15l0,0c4.291-0.019,8.103,1.622,11.077,4.754l0,0c2.984,3.1,4.536,6.95,4.523,11.243l0,0
			c-0.004,1.189-0.178,2.245-0.693,3.167l0,0c-0.501,0.927-1.452,1.622-2.53,1.833l0,0c-0.199,0.034-0.733,0.095-1.65,0.193l0,0
			c0.313,0.286,0.521,0.602,0.811,0.989l0,0c0.411,0.596,0.864,1.363,1.386,2.334l0,0c0.52,0.966,0.915,1.765,1.198,2.431l0,0
			c0.273,0.691,0.474,1.15,0.496,1.866l0,0c-0.022,0.606-0.219,0.861-0.357,1.103l0,0c-0.151,0.232-0.316,0.422-0.503,0.623l0,0
			c-2.874,3.085-7.231,4.5-12.714,4.494l0,0c-0.018,0-0.034,0-0.051,0l0,0C317.289,57.651,312.931,56.103,309.668,52.983
			L309.668,52.983z M311.314,29.789c-2.463,2.715-3.706,6.128-3.717,10.546l0,0c0.017,4.512,1.383,7.866,4.132,10.469l0,0
			c2.686,2.542,6.155,3.833,10.736,3.846l0,0c4.986-0.006,8.361-1.25,10.48-3.497l0,0c-0.042-0.116-0.097-0.257-0.167-0.417l0,0
			c-0.221-0.53-0.583-1.266-1.075-2.183l0,0c-0.417-0.798-0.813-1.446-1.11-1.891l0,0c-0.419,0.265-0.839,0.53-1.259,0.795l0,0
			l-0.048,0.031l-0.048,0.025c-2.017,1.078-4.101,1.649-6.19,1.647l0,0c-1.7,0.002-3.289-0.325-4.694-1.005l0,0
			c-1.748-0.809-3.056-2.257-3.424-4.072l0,0l-0.362-1.678l1.713-0.132c4.771-0.368,8.359-0.683,10.753-0.948l0,0
			c3.958-0.401,6.209-0.647,6.18-0.647l0,0c0.296-0.085,0.342-0.12,0.505-0.368l0,0c0.149-0.252,0.309-0.815,0.305-1.69l0,0
			c-0.013-3.596-1.202-6.548-3.691-9.17l0,0c-2.503-2.59-5.353-3.811-8.909-3.828l0,0C317.09,25.637,313.863,27.005,311.314,29.789
			L311.314,29.789z M319.654,45.449c0.958,0.464,2.068,0.71,3.395,0.71l0,0c1.527,0,3.08-0.4,4.719-1.261l0,0
			c0.399-0.252,0.799-0.504,1.198-0.756l0,0c-0.497,0.051-1.035,0.106-1.615,0.166l0,0c-2.001,0.221-4.782,0.473-8.355,0.76l0,0
			C319.183,45.197,319.401,45.323,319.654,45.449L319.654,45.449z M315.048,38.817c-0.523-0.503-0.681-1.186-0.675-1.701l0,0
			c-0.006-1.635,0.496-3.187,1.479-4.442l0,0c1.041-1.39,2.656-2.232,4.374-2.208l0,0c1.636-0.017,3.192,0.693,4.313,1.916l0,0
			c1.132,1.191,1.767,2.741,1.753,4.365l0,0c-0.017,0.973-0.743,1.492-1.097,1.641l0,0c-0.41,0.192-0.771,0.265-1.194,0.335l0,0
			c-3.228,0.474-5.611,0.718-7.269,0.72l0,0c-0.008,0-0.015,0-0.022,0l0,0C316.206,39.444,315.561,39.31,315.048,38.817
			L315.048,38.817z M318.224,34.511c-0.438,0.575-0.702,1.182-0.803,1.917l0,0c1.33-0.054,3.269-0.258,5.746-0.617l0,0
			c-0.139-0.486-0.398-0.922-0.816-1.379l0,0c-0.678-0.697-1.27-0.95-2.124-0.966l0,0C319.371,33.493,318.861,33.733,318.224,34.511
			L318.224,34.511z"/>
	</g>
	<g>
		<path fill="#FCFCFC" d="M395.141,54.281c0.041,0.552-0.245,0.828-0.858,0.828c-0.389,0-1.507-0.225-3.356-0.674
			c-1.85-0.449-2.988-0.756-3.417-0.919c-4.271,1.676-8.368,2.513-12.292,2.513c-6.313,0-11.494-2.104-15.54-6.314
			c-4.005-4.148-6.008-9.39-6.008-15.724c0-6.478,1.941-11.852,5.824-16.123c4.005-4.414,9.205-6.621,15.602-6.621
			c3.105,0,6.027,0.593,8.767,1.778c2.962,1.308,5.292,3.147,6.988,5.517c0.347,0.491,0.521,0.838,0.521,1.042
			c0,0.654-0.914,2.12-2.743,4.398c-1.829,2.279-3.009,3.417-3.54,3.417c-0.122,0-0.593-0.418-1.41-1.257
			c-1.001-1.001-2.022-1.777-3.064-2.329c-1.554-0.838-3.271-1.257-5.149-1.257c-3.065,0-5.498,1.145-7.296,3.433
			c-1.676,2.104-2.513,4.73-2.513,7.877c0,3.331,0.868,5.967,2.605,7.908c1.798,2.003,4.342,3.004,7.632,3.004
			c2.084,0,4.414-0.521,6.988-1.563c-0.062-0.674-0.245-2.391-0.552-5.149c-0.266-2.125-0.398-3.842-0.398-5.149
			c0-0.388,0.133-0.624,0.398-0.705c0.103-0.041,0.266-0.062,0.49-0.062c0.593,0,1.487,0.057,2.683,0.168
			c1.195,0.113,2.1,0.169,2.713,0.169c0.653,0,1.634-0.046,2.942-0.138c1.308-0.092,2.288-0.138,2.942-0.138
			c0.511,0,0.767,0.337,0.767,1.011c0,0.981-0.057,2.463-0.169,4.445s-0.169,3.463-0.169,4.444c0,2.636,0.194,6.58,0.583,11.832
			L395.141,54.281z"/>
		<path fill="#9FCFFF" d="M358.597,50.757c-4.284-4.42-6.441-10.122-6.429-16.768l0,0c-0.011-6.771,2.065-12.581,6.214-17.13l0,0
			c4.264-4.726,9.974-7.131,16.712-7.112l0,0c3.297-0.002,6.433,0.633,9.373,1.905l0,0c3.17,1.398,5.741,3.414,7.606,6.024l0,0
			c0.38,0.617,0.719,0.923,0.796,1.907l0,0c-0.05,0.981-0.421,1.536-0.912,2.384l0,0c-0.511,0.817-1.224,1.786-2.161,2.953l0,0
			c-1.428,1.761-2.409,2.861-3.359,3.516l0,0c-0.338,0.206-0.68,0.439-1.351,0.464l0,0c-0.814-0.079-0.821-0.269-1.021-0.354l0,0
			c-0.151-0.108-0.277-0.212-0.421-0.34l0,0c-0.281-0.252-0.619-0.583-1.029-1.002l0,0c-0.913-0.915-1.819-1.596-2.715-2.069l0,0
			c-1.332-0.717-2.78-1.075-4.438-1.077l0,0c-2.696,0.027-4.56,0.919-6.122,2.867l0,0c-1.44,1.815-2.18,4.056-2.187,6.944l0,0
			c0.007,3.083,0.784,5.292,2.222,6.904l0,0c1.49,1.64,3.514,2.49,6.517,2.507l0,0c1.566,0,3.363-0.34,5.38-1.057l0,0
			c-0.095-0.903-0.239-2.233-0.433-3.97l0,0c-0.271-2.165-0.41-3.928-0.41-5.335l0,0c0.002-0.363,0.054-0.773,0.293-1.207l0,0
			c0.231-0.434,0.709-0.807,1.165-0.934l0,0l0.001,0.001c0.38-0.124,0.637-0.121,0.931-0.128l0,0c0.684,0,1.601,0.06,2.822,0.175
			l0,0c1.169,0.11,2.046,0.163,2.573,0.163l0,0c0.586,0,1.546-0.044,2.836-0.135l0,0c1.328-0.092,2.326-0.14,3.049-0.14l0,0
			c0.565-0.027,1.351,0.26,1.77,0.846l0,0c0.419,0.569,0.49,1.148,0.496,1.665l0,0c0,1.036-0.059,2.532-0.171,4.529l0,0
			c-0.112,1.967-0.167,3.434-0.167,4.359l0,0c0,2.565,0.189,6.49,0.577,11.697l0,0l0.029,0.338l-1.492,0.133l1.497-0.085
			c0.004,0.06,0.006,0.123,0.004,0.186l0,0c0.019,0.519-0.198,1.244-0.746,1.692l0,0c-0.54,0.444-1.13,0.534-1.613,0.536l0,0
			c-0.8-0.025-1.79-0.263-3.711-0.717l0,0c-1.401-0.343-2.367-0.588-3.023-0.786l0,0c-4.237,1.604-8.352,2.422-12.332,2.422l0,0
			c-0.023,0-0.048,0-0.071,0l0,0C368.535,57.527,362.889,55.243,358.597,50.757L358.597,50.757z M360.602,18.876
			c-3.615,3.993-5.423,8.93-5.433,15.113l0,0c0.013,6.024,1.86,10.807,5.589,14.686l0,0c3.78,3.912,8.474,5.837,14.458,5.854l0,0
			c3.71,0,7.617-0.792,11.746-2.411l0,0l0.539-0.21l0.542,0.206c0.239,0.098,1.419,0.425,3.236,0.863l0,0
			c0.985,0.241,1.763,0.415,2.293,0.519l0,0c-0.362-4.992-0.544-8.772-0.544-11.382l0,0c0-1.036,0.056-2.532,0.17-4.528l0,0
			c0.093-1.642,0.147-2.936,0.161-3.856l0,0c-0.551,0.02-1.254,0.059-2.099,0.118l0,0c-1.327,0.094-2.328,0.142-3.047,0.142l0,0
			c-0.702,0-1.634-0.061-2.854-0.175l0,0c-0.778-0.073-1.424-0.121-1.916-0.145l0,0c0.039,1.118,0.162,2.533,0.375,4.234l0,0
			c0.307,2.763,0.49,4.474,0.555,5.179l0,0l0.101,1.108l-1.032,0.419c-2.703,1.094-5.216,1.671-7.55,1.671l0,0
			c-3.58,0.017-6.644-1.136-8.751-3.503l0,0c-2.036-2.267-2.994-5.329-2.988-8.907l0,0c-0.006-3.407,0.928-6.42,2.834-8.805l0,0
			c2.038-2.636,5.042-4.035,8.476-4.007l0,0c2.101-0.002,4.085,0.477,5.852,1.432l0,0c1.199,0.636,2.335,1.507,3.437,2.607l0,0
			c0.171,0.178,0.33,0.337,0.47,0.474l0,0c0.035-0.032,0.071-0.066,0.107-0.103l0,0c0.513-0.492,1.238-1.313,2.13-2.424l0,0
			c1.306-1.591,2.112-2.867,2.348-3.364l0,0c-0.046-0.073-0.104-0.163-0.176-0.264l0,0c-1.531-2.136-3.62-3.799-6.364-5.014l0,0
			c-2.549-1.103-5.256-1.652-8.171-1.655l0,0C369.038,12.764,364.349,14.773,360.602,18.876L360.602,18.876z M389.878,19.481
			C389.877,19.481,389.877,19.48,389.878,19.481L389.878,19.481L389.878,19.481L389.878,19.481z"/>
	</g>
	<g>
		<path fill="#FCFCFC" d="M430.022,39.936c0,1.574,0.092,3.913,0.275,7.019c0.185,3.106,0.276,5.436,0.276,6.989
			c0,0.817-0.357,1.256-1.073,1.318c-2.533,0.184-5.436,0.276-8.705,0.276c-0.388,0-0.648-0.587-0.781-1.763
			c-0.133-1.175-0.291-1.772-0.475-1.793c-0.164,0.082-0.379,0.256-0.645,0.521c-2.288,2.31-4.74,3.464-7.355,3.464
			c-3.985,0-7.285-1.573-9.901-4.72c-2.473-2.943-3.708-6.457-3.708-10.544c0-4.72,1.276-8.521,3.831-11.402
			c2.656-2.983,6.294-4.475,10.912-4.475c3.208,0,5.742,1.124,7.602,3.372c0.081,0.103,0.153,0.153,0.215,0.153
			c0.184,0,0.393-0.495,0.628-1.486c0.234-0.991,0.516-1.487,0.843-1.487c0.756,0,2.196,0.215,4.322,0.644
			c2.022,0.409,3.474,0.756,4.353,1.042c0.307,0.123,0.46,0.286,0.46,0.49c0,0.082-0.031,0.296-0.093,0.644
			C430.348,31.895,430.022,35.809,430.022,39.936z M420.152,40.12c0-1.737-0.547-3.173-1.64-4.307
			c-1.094-1.134-2.519-1.701-4.275-1.701c-1.758,0-3.178,0.562-4.261,1.686c-1.084,1.124-1.625,2.565-1.625,4.322
			c0,1.655,0.572,3.076,1.717,4.26c1.145,1.186,2.533,1.778,4.169,1.778c1.736,0,3.156-0.567,4.26-1.701
			S420.152,41.878,420.152,40.12z"/>
		<path fill="#9FCFFF" d="M400.49,52.211c-2.702-3.202-4.069-7.123-4.061-11.509l0,0c-0.009-4.981,1.37-9.205,4.211-12.399l0,0
			c2.942-3.328,7.102-4.998,12.032-4.979l0,0c2.761-0.018,5.242,0.79,7.216,2.384l0,0c0.085-0.243,0.185-0.472,0.311-0.699l0,0
			c0.229-0.413,0.743-1.103,1.761-1.132l0,0c1.006,0.006,2.444,0.241,4.619,0.674l0,0c2.053,0.415,3.526,0.764,4.521,1.086l0,0
			l0.046,0.015l0.046,0.019c0.283,0.115,0.588,0.272,0.881,0.58l0,0c0.298,0.297,0.534,0.818,0.521,1.302l0,0
			c-0.011,0.368-0.052,0.51-0.115,0.906l0,0c-0.638,3.604-0.958,7.43-0.956,11.478l0,0c-0.002,1.518,0.09,3.841,0.271,6.93l0,0
			c0.187,3.123,0.278,5.469,0.278,7.078l0,0c0,0.613-0.132,1.3-0.604,1.888l0,0c-0.473,0.594-1.214,0.883-1.858,0.925l0,0
			c-2.581,0.188-5.518,0.28-8.813,0.28l0,0c-1.074-0.015-1.675-0.85-1.858-1.333l0,0c-0.133-0.307-0.223-0.615-0.29-0.947l0,0
			c-2.156,1.755-4.564,2.716-7.109,2.709l0,0c-0.026,0-0.054,0-0.081,0l0,0C407.106,57.467,403.303,55.633,400.49,52.211
			L400.49,52.211z M402.883,30.296c-2.272,2.57-3.447,5.946-3.453,10.406l0,0c0.009,3.788,1.111,6.896,3.361,9.586l0,0
			c2.395,2.844,5.161,4.157,8.746,4.18l0,0c2.156-0.008,4.187-0.913,6.296-3.026l0,0c0.329-0.318,0.595-0.572,1.034-0.802l0,0
			l0.397-0.199l0.439,0.05c0.886,0.148,1.141,0.674,1.279,0.889l0,0c0.143,0.262,0.201,0.463,0.262,0.68l0,0
			c0.11,0.431,0.186,0.917,0.259,1.547l0,0c0.017,0.165,0.037,0.309,0.059,0.429l0,0c2.8-0.013,5.311-0.097,7.51-0.249l0,0
			c-0.006-1.499-0.096-3.76-0.273-6.744l0,0c-0.185-3.123-0.279-5.478-0.279-7.108l0,0c0-4.079,0.313-7.965,0.944-11.654l0,0
			c-0.816-0.222-1.989-0.49-3.479-0.791l0,0c-1.461-0.299-2.607-0.484-3.336-0.566l0,0c-0.024,0.084-0.05,0.18-0.073,0.284l0,0
			c-0.227,0.835-0.291,1.304-0.771,1.979l0,0c-0.172,0.208-0.544,0.637-1.316,0.662l0,0c-0.934-0.067-1.187-0.515-1.371-0.697l0,0
			c-1.599-1.898-3.581-2.805-6.446-2.828l0,0C408.368,26.344,405.25,27.658,402.883,30.296L402.883,30.296z M414.236,47.659
			c-1.999,0.015-3.868-0.783-5.247-2.237l0,0c-1.398-1.427-2.151-3.301-2.139-5.302l0,0c-0.013-2.059,0.674-3.959,2.045-5.362l0,0
			c1.362-1.434,3.271-2.162,5.341-2.146l0,0c2.072-0.017,3.985,0.72,5.356,2.16l0,0c1.372,1.406,2.071,3.3,2.059,5.347l0,0
			c0.013,2.066-0.692,3.973-2.08,5.383l0,0c-1.359,1.418-3.24,2.156-5.274,2.156l0,0C414.276,47.659,414.256,47.659,414.236,47.659
			L414.236,47.659z M411.054,36.838c-0.797,0.844-1.19,1.825-1.203,3.282l0,0c0.013,1.308,0.404,2.277,1.296,3.219l0,0
			c0.908,0.917,1.816,1.302,3.089,1.318l0,0c1.415-0.015,2.351-0.41,3.186-1.247l0,0c0.818-0.858,1.216-1.842,1.229-3.291l0,0
			c-0.013-1.427-0.406-2.405-1.218-3.265l0,0c-0.818-0.829-1.756-1.227-3.196-1.244l0,0
			C412.79,35.629,411.861,36.024,411.054,36.838L411.054,36.838z"/>
	</g>
	<g>
		<path fill="#FCFCFC" d="M485.103,54.128c0,0.716-0.307,1.114-0.92,1.196c-0.613,0.081-2.126,0.123-4.536,0.123
			c-2.494,0-4.046-0.062-4.659-0.184s-0.92-0.623-0.92-1.502c0-0.939,0.031-2.345,0.092-4.214c0.062-1.87,0.092-3.274,0.092-4.215
			c0-3.576-0.041-6.12-0.122-7.632c-0.123-2.431-1.277-3.647-3.464-3.647c-0.961,0-1.915,0.404-2.865,1.211
			c-0.951,0.808-1.477,1.701-1.579,2.682c-0.082,0.858-0.122,3.372-0.122,7.54c0,0.961,0.03,2.417,0.092,4.368
			c0.061,1.952,0.092,3.418,0.092,4.398c0,0.674-0.297,1.012-0.889,1.012h-9.288c-0.572,0-0.858-0.418-0.858-1.257
			c0-0.96,0.031-2.401,0.093-4.322c0.061-1.92,0.092-3.372,0.092-4.353c0-0.756-0.021-1.9-0.062-3.433
			c-0.041-1.532-0.062-2.687-0.062-3.463c0-2.922-1.113-4.383-3.341-4.383c-0.899,0-1.87,0.348-2.912,1.042
			c-1.145,0.756-1.716,1.553-1.716,2.391c0,1.86,0.01,4.639,0.03,8.337s0.03,6.467,0.03,8.306c0,0.511-0.061,0.828-0.184,0.95
			s-0.439,0.204-0.95,0.246c-0.92,0.081-2.371,0.123-4.353,0.123c-1.287,0-2.748-0.062-4.383-0.184
			c-0.49-0.041-0.782-0.112-0.874-0.214s-0.138-0.409-0.138-0.92c0-1.634,0.01-4.081,0.03-7.341
			c0.021-3.259,0.031-5.706,0.031-7.341c0-3.351-0.245-7.121-0.736-11.31c-0.041-0.245-0.061-0.429-0.061-0.552
			c0-0.347,0.143-0.583,0.429-0.705c0.449-0.184,1.298-0.337,2.544-0.46c1.533-0.143,2.441-0.234,2.729-0.276
			c0.204-0.041,1.011-0.255,2.421-0.644c1.001-0.286,1.809-0.429,2.422-0.429c0.388,0,0.592,0.71,0.613,2.13
			c0.02,1.42,0.102,2.13,0.245,2.13c0.204-0.082,0.438-0.225,0.705-0.429c1.839-1.43,3.289-2.411,4.353-2.942
			c1.573-0.756,3.279-1.134,5.118-1.134c1.88,0,3.556,0.419,5.027,1.257c1.655,0.94,2.728,2.258,3.218,3.954
			c1.083-1.471,2.575-2.708,4.476-3.709c1.9-1.001,3.749-1.502,5.548-1.502c2.697,0,4.894,0.624,6.59,1.87
			c1.921,1.41,2.882,3.423,2.882,6.039c0,1.083-0.031,2.712-0.093,4.889c-0.061,2.176-0.092,3.806-0.092,4.889
			c0,1.287,0.031,3.224,0.092,5.809C485.072,50.905,485.103,52.841,485.103,54.128z"/>
		<path fill="#9FCFFF" d="M474.693,56.733c-0.645-0.112-1.33-0.556-1.675-1.154l0,0c-0.356-0.594-0.447-1.211-0.451-1.818l0,0
			c0-0.971,0.031-2.385,0.093-4.266l0,0c0.062-1.86,0.091-3.255,0.091-4.165l0,0c0-3.562-0.042-6.096-0.12-7.556l0,0
			c-0.051-1.007-0.306-1.53-0.548-1.778l0,0c-0.24-0.244-0.586-0.434-1.418-0.446l0,0c-0.526,0.004-1.12,0.207-1.894,0.855l0,0
			c-0.748,0.647-0.996,1.165-1.058,1.681l0,0c-0.069,0.695-0.118,3.259-0.115,7.398l0,0c0,0.931,0.029,2.378,0.092,4.321l0,0
			c0.06,1.961,0.091,3.434,0.093,4.445l0,0c-0.002,0.541-0.113,1.188-0.596,1.748l0,0c-0.489,0.569-1.234,0.777-1.793,0.765l0,0
			h-9.29c-0.638,0.034-1.489-0.339-1.881-0.969l0,0c-0.402-0.609-0.47-1.207-0.476-1.789l0,0c0-0.99,0.031-2.439,0.093-4.369l0,0
			c0.061-1.913,0.092-3.356,0.092-4.306l0,0c0-0.731-0.021-1.866-0.063-3.391l0,0c-0.04-1.542-0.062-2.703-0.062-3.505l0,0
			c0.005-1.281-0.266-2.05-0.528-2.378l0,0c-0.264-0.314-0.508-0.48-1.313-0.505l0,0c-0.504-0.002-1.198,0.202-2.086,0.796l0,0
			c-0.969,0.647-1.057,1.054-1.042,1.138l0,0c0,1.856,0.01,4.632,0.029,8.329l0,0c0.021,3.701,0.031,6.472,0.031,8.314l0,0
			c-0.069,0.643,0.114,1.1-0.625,2.014l0,0c-0.824,0.678-1.252,0.566-1.877,0.676l0,0c-1.008,0.088-2.479,0.128-4.483,0.128l0,0
			c-1.335,0-2.831-0.063-4.508-0.189l0,0c-0.295-0.025-0.552-0.057-0.819-0.123l0,0c-0.268-0.088-0.566-0.105-1.045-0.583l0,0
			c-0.426-0.529-0.406-0.813-0.472-1.087l0,0c-0.04-0.274-0.051-0.535-0.053-0.836l0,0c0.002-1.639,0.011-4.088,0.031-7.35l0,0
			c0.021-3.259,0.032-5.702,0.03-7.333l0,0c0.002-3.27-0.237-6.973-0.722-11.103l0,0c-0.044-0.273-0.071-0.496-0.073-0.759l0,0
			c-0.073-0.74,0.519-1.801,1.359-2.092l0,0c0.767-0.301,1.649-0.426,2.974-0.567l0,0c1.416-0.13,2.327-0.223,2.604-0.259l0,0
			c0.17-0.039,1.008-0.259,2.273-0.609l0,0c1.081-0.306,1.988-0.482,2.833-0.487l0,0c0.577-0.017,1.154,0.335,1.409,0.674l0,0
			c0.276,0.339,0.386,0.646,0.477,0.943l0,0c0.123,0.445,0.181,0.902,0.208,1.435l0,0c1.225-0.893,2.263-1.559,3.173-2.016l0,0
			c1.778-0.855,3.723-1.283,5.768-1.281l0,0c2.101-0.004,4.058,0.476,5.768,1.451l0,0c1.175,0.658,2.15,1.537,2.866,2.587l0,0
			c0.972-0.902,2.107-1.69,3.389-2.364l0,0c2.068-1.091,4.166-1.677,6.246-1.674l0,0c2.921-0.004,5.47,0.682,7.478,2.159l0,0
			c2.307,1.66,3.524,4.274,3.495,7.249l0,0c-0.002,1.11-0.032,2.747-0.095,4.929l0,0c-0.06,2.169-0.091,3.792-0.091,4.849l0,0
			c0,1.264,0.031,3.193,0.091,5.772l0,0c0.063,2.591,0.093,4.533,0.093,5.843l0,0c0.002,0.563-0.116,1.195-0.54,1.751l0,0
			c-0.421,0.562-1.102,0.868-1.683,0.933l0,0c-0.812,0.101-2.286,0.133-4.731,0.135l0,0
			C477.098,56.937,475.607,56.901,474.693,56.733L474.693,56.733z M479.647,53.946c1.9,0.002,3.271-0.03,3.956-0.074l0,0
			c-0.004-1.263-0.035-3.106-0.093-5.516l0,0c-0.061-2.591-0.093-4.533-0.093-5.844l0,0c0-1.112,0.032-2.749,0.093-4.931l0,0
			c0.062-2.17,0.093-3.792,0.093-4.847l0,0c-0.031-2.256-0.735-3.667-2.271-4.831l0,0c-1.384-1.015-3.228-1.576-5.702-1.578l0,0
			c-1.518,0-3.118,0.419-4.848,1.329l0,0c-1.738,0.917-3.037,2.008-3.969,3.271l0,0l-1.806,2.448l-0.842-2.922
			c-0.396-1.325-1.148-2.273-2.52-3.067l0,0c-1.232-0.699-2.627-1.058-4.285-1.06l0,0c-1.633,0.002-3.101,0.331-4.449,0.975l0,0
			c-0.896,0.447-2.307,1.386-4.107,2.792l0,0c-0.339,0.257-0.666,0.472-1.063,0.632l0,0l-0.268,0.107h-0.287
			c-0.692-0.004-1.129-0.444-1.268-0.655l0,0c-0.166-0.238-0.213-0.392-0.259-0.524l0,0c-0.08-0.259-0.105-0.451-0.135-0.683l0,0
			c-0.051-0.449-0.074-1.011-0.085-1.746l0,0c0-0.204-0.009-0.388-0.021-0.549l0,0c-0.319,0.061-0.694,0.149-1.117,0.271l0,0
			c-1.437,0.396-2.178,0.596-2.525,0.67l0,0l-0.031,0.006l-0.047,0.006c-0.377,0.053-1.255,0.141-2.797,0.285l0,0
			c-0.645,0.059-1.18,0.139-1.551,0.209l0,0c0.484,4.172,0.729,7.944,0.729,11.324l0,0c0,1.641-0.013,4.091-0.031,7.352l0,0
			c-0.02,3.041-0.03,5.375-0.031,6.996l0,0c1.453,0.104,2.754,0.153,3.896,0.153l0,0c1.779,0,3.123-0.035,3.985-0.098l0,0
			c-0.001-1.83-0.011-4.504-0.029-8.018l0,0c-0.021-3.701-0.031-6.479-0.031-8.346l0,0c0.017-1.59,1.068-2.778,2.383-3.638l0,0
			c1.202-0.801,2.449-1.292,3.745-1.296l0,0c1.424-0.025,2.85,0.54,3.699,1.688l0,0c0.849,1.133,1.135,2.557,1.142,4.196l0,0
			c0,0.752,0.021,1.9,0.061,3.423l0,0c0.04,1.54,0.062,2.692,0.062,3.474l0,0c0,1.011-0.031,2.471-0.091,4.401l0,0
			c-0.058,1.752-0.087,3.102-0.092,4.03l0,0l8.031,0.002c-0.008-0.935-0.037-2.227-0.088-3.863l0,0
			c-0.062-1.961-0.093-3.425-0.093-4.416l0,0c0.002-4.196,0.036-6.661,0.131-7.697l0,0c0.143-1.43,0.943-2.7,2.1-3.667l0,0
			c1.127-0.964,2.439-1.571,3.836-1.569l0,0c1.354-0.01,2.68,0.409,3.594,1.38l0,0c0.912,0.967,1.296,2.269,1.367,3.688l0,0
			c0.084,1.572,0.124,4.123,0.124,7.712l0,0c0,0.971-0.029,2.385-0.092,4.264l0,0c-0.06,1.86-0.091,3.259-0.091,4.167l0,0
			c0,0.025,0,0.048,0.001,0.07l0,0C476.193,53.893,477.639,53.951,479.647,53.946L479.647,53.946z"/>
	</g>
	<g>
		<path fill="#FCFCFC" d="M519.004,38.618c0,2.064-0.665,3.239-1.993,3.525c-0.225,0.041-2.34,0.266-6.345,0.674
			c-2.411,0.266-6.008,0.582-10.789,0.95c0.286,1.329,1.154,2.34,2.605,3.034c1.185,0.572,2.533,0.858,4.046,0.858
			c1.818,0,3.647-0.49,5.486-1.471c0.776-0.491,1.553-0.981,2.33-1.471c0.429,0.204,1.149,1.247,2.16,3.126
			c1.012,1.88,1.518,3.076,1.518,3.586c0,0.143-0.153,0.378-0.46,0.705c-2.493,2.677-6.365,4.015-11.616,4.015
			c-4.864,0-8.787-1.42-11.771-4.26c-3.065-2.881-4.598-6.733-4.598-11.556c0-4.7,1.369-8.552,4.107-11.556
			c2.819-3.106,6.56-4.659,11.218-4.659c3.924,0,7.254,1.431,9.993,4.292C517.634,31.272,519.004,34.675,519.004,38.618z
			 M508.276,36.748c0-1.267-0.449-2.38-1.349-3.341c-0.899-0.96-1.973-1.44-3.219-1.44c-1.287,0-2.35,0.542-3.188,1.625
			c-0.776,1.001-1.165,2.176-1.165,3.525c0,0.552,0.286,0.828,0.858,0.828c1.512,0,3.862-0.235,7.05-0.705
			C507.939,37.137,508.276,36.973,508.276,36.748z"/>
		<path fill="#9FCFFF" d="M493.149,52.982c-3.391-3.166-5.087-7.517-5.071-12.648l0,0c-0.011-4.983,1.484-9.272,4.496-12.563l0,0
			c3.093-3.43,7.346-5.169,12.329-5.152l0,0c4.291-0.017,8.103,1.624,11.076,4.754l0,0c2.986,3.101,4.536,6.952,4.523,11.246l0,0
			c-0.002,1.189-0.177,2.244-0.691,3.167l0,0c-0.503,0.926-1.453,1.622-2.531,1.833l0,0c-0.2,0.033-0.733,0.095-1.649,0.192l0,0
			c0.313,0.286,0.52,0.603,0.81,0.988l0,0c0.412,0.597,0.863,1.364,1.386,2.335l0,0c0.52,0.964,0.915,1.764,1.199,2.433l0,0
			c0.272,0.689,0.474,1.148,0.497,1.863l0,0c-0.023,0.607-0.221,0.861-0.357,1.104l0,0c-0.155,0.23-0.317,0.423-0.504,0.624l0,0
			c-2.874,3.083-7.231,4.499-12.714,4.492l0,0c-0.018,0-0.034,0-0.052,0l0,0C500.77,57.65,496.41,56.102,493.149,52.982
			L493.149,52.982z M494.794,29.789c-2.464,2.716-3.707,6.129-3.716,10.545l0,0c0.015,4.514,1.383,7.866,4.131,10.47l0,0
			c2.686,2.544,6.154,3.834,10.737,3.845l0,0c4.982-0.006,8.359-1.248,10.479-3.494l0,0c-0.041-0.117-0.097-0.258-0.165-0.419l0,0
			c-0.223-0.529-0.584-1.267-1.076-2.183l0,0c-0.417-0.798-0.813-1.447-1.11-1.892l0,0c-0.42,0.265-0.84,0.53-1.259,0.794l0,0
			l-0.049,0.032l-0.047,0.025c-2.016,1.076-4.101,1.647-6.19,1.647l0,0c-1.7,0-3.289-0.326-4.693-1.005l0,0
			c-1.749-0.81-3.056-2.259-3.426-4.073l0,0l-0.36-1.68l1.712-0.131c4.771-0.368,8.36-0.683,10.752-0.948l0,0
			c3.96-0.399,6.21-0.647,6.181-0.647l0,0c0.296-0.084,0.343-0.121,0.506-0.368l0,0c0.149-0.254,0.307-0.816,0.304-1.69l0,0
			c-0.013-3.596-1.201-6.55-3.69-9.171l0,0c-2.504-2.591-5.354-3.811-8.91-3.828l0,0C500.571,25.637,497.343,27.005,494.794,29.789
			L494.794,29.789z M503.134,45.45c0.958,0.461,2.068,0.708,3.395,0.708l0,0c1.537,0,3.099-0.405,4.75-1.278l0,0
			c0.389-0.247,0.777-0.493,1.167-0.738l0,0c-0.497,0.051-1.034,0.106-1.615,0.166l0,0c-2.001,0.22-4.783,0.473-8.356,0.759l0,0
			C502.663,45.197,502.881,45.323,503.134,45.45L503.134,45.45z M498.528,38.816c-0.522-0.501-0.682-1.185-0.673-1.701l0,0
			c-0.009-1.633,0.495-3.185,1.479-4.441l0,0c1.041-1.39,2.656-2.233,4.374-2.206l0,0c1.637-0.017,3.193,0.692,4.314,1.914l0,0
			c1.132,1.191,1.767,2.741,1.754,4.366l0,0c-0.018,0.973-0.745,1.493-1.098,1.641l0,0c-0.411,0.192-0.771,0.265-1.195,0.334l0,0
			c-3.228,0.474-5.611,0.719-7.27,0.722l0,0c-0.004,0-0.008,0-0.013,0l0,0C499.695,39.444,499.045,39.313,498.528,38.816
			L498.528,38.816z M501.705,34.51c-0.438,0.577-0.702,1.184-0.803,1.92l0,0c1.331-0.055,3.269-0.259,5.746-0.618l0,0
			c-0.139-0.485-0.399-0.922-0.817-1.381l0,0c-0.677-0.696-1.269-0.948-2.123-0.965l0,0
			C502.851,33.492,502.341,33.733,501.705,34.51L501.705,34.51z"/>
	</g>
</g>
<g>
	<g>
		<path fill="#FCFCFC" d="M221.201,95.161c0,4.148-1.747,7.704-5.241,10.667c-3.065,2.615-6.794,4.28-11.188,4.996
			c-0.164,0.02-0.296,0.03-0.398,0.03c-0.47,0-1.512-1.436-3.126-4.307c-1.614-2.87-2.421-4.623-2.421-5.257
			c0-0.225,0.153-0.367,0.46-0.429c2.962-0.675,4.924-1.246,5.885-1.717c2.125-1.063,3.188-2.636,3.188-4.72
			c0-1.328-0.695-2.81-2.084-4.445c-2.411-2.778-3.719-4.321-3.923-4.628c-1.41-2.125-2.115-4.475-2.115-7.05
			c0-3.739,1.727-6.846,5.18-9.318c2.82-2.043,6.283-3.371,10.391-3.984c0.225-0.021,0.398-0.03,0.521-0.03
			c0.307,0,0.552,0.245,0.736,0.735c0.531,1.492,1.767,4.189,3.708,8.092c0.062,0.123,0.092,0.226,0.092,0.307
			c0,0.348-0.184,0.521-0.552,0.521c-0.164,0-0.44-0.031-0.828-0.093c-0.389-0.061-0.685-0.092-0.889-0.092
			c-1.471,0-2.758,0.337-3.862,1.012c-1.329,0.776-1.992,1.859-1.992,3.249c0,1.247,0.735,2.779,2.207,4.598
			c2.595,3.27,3.954,4.986,4.077,5.149C220.475,90.697,221.201,92.934,221.201,95.161z"/>
		<path fill="#9FCFFF" d="M202.88,111.673c-0.298-0.285-0.563-0.612-0.856-1.016l0,0c-0.582-0.801-1.262-1.91-2.086-3.375l0,0
			c-0.817-1.457-1.438-2.639-1.871-3.574l0,0c-0.422-0.977-0.701-1.54-0.743-2.417l0,0c-0.017-0.451,0.213-1.043,0.594-1.374l0,0
			c0.373-0.34,0.753-0.46,1.033-0.518l0,0c2.91-0.656,4.863-1.25,5.548-1.596l0,0c1.765-0.947,2.307-1.84,2.359-3.379l0,0
			c0.013-0.784-0.453-1.982-1.717-3.463l0,0c-1.209-1.391-2.14-2.475-2.8-3.253l0,0c-0.677-0.803-1.014-1.2-1.242-1.527l0,0
			c-1.568-2.356-2.369-5.03-2.363-7.88l0,0c-0.027-4.222,2.055-7.891,5.799-10.533l0,0c3.046-2.206,6.754-3.613,11.051-4.253l0,0
			l0.017-0.004l0.068-0.007c0.252-0.022,0.458-0.035,0.658-0.035l0,0c0.563-0.014,1.145,0.273,1.474,0.621l0,0
			c0.341,0.35,0.523,0.716,0.674,1.109l0,0c0.48,1.357,1.709,4.054,3.636,7.926l0,0c0.116,0.244,0.242,0.516,0.25,0.977l0,0
			c0.01,0.418-0.13,1.035-0.606,1.481l0,0c-0.476,0.443-1.043,0.543-1.444,0.538l0,0c-0.339-0.002-0.636-0.045-1.058-0.109l0,0
			c-0.35-0.056-0.602-0.076-0.658-0.072l0,0c-1.246,0.002-2.231,0.275-3.106,0.807l0,0c-0.979,0.625-1.208,1.064-1.25,1.954l0,0
			c-0.027,0.642,0.488,1.966,1.883,3.665l0,0c2.605,3.282,3.934,4.96,4.099,5.18l0,0l0.038,0.05l0.024,0.039
			c1.573,2.432,2.417,4.967,2.415,7.526l0,0c0.021,4.58-2.005,8.646-5.767,11.809l0,0c-3.282,2.804-7.297,4.583-11.92,5.335l0,0
			l-0.033,0.004l-0.031,0.004c-0.194,0.022-0.37,0.041-0.575,0.041l0,0C203.481,112.294,203.197,111.926,202.88,111.673
			L202.88,111.673z M200.792,102.452c0.375,0.814,0.966,1.945,1.761,3.36l0,0c0.963,1.762,1.823,3.01,2.21,3.491l0,0
			c4.059-0.7,7.427-2.237,10.225-4.621l0,0c3.222-2.761,4.691-5.807,4.712-9.521l0,0c-0.002-1.885-0.601-3.812-1.911-5.859l0,0
			c-0.245-0.313-1.614-2.042-4.009-5.061l0,0c-1.556-1.95-2.512-3.69-2.539-5.54l0,0c-0.042-1.892,1.057-3.617,2.708-4.53l0,0
			c1.36-0.834,2.947-1.235,4.646-1.231l0,0c0.027,0,0.054,0.001,0.08,0.002l0,0c-1.421-2.905-2.383-5.021-2.909-6.418l0,0
			c-3.801,0.602-6.935,1.837-9.478,3.679l0,0c-3.156,2.299-4.528,4.842-4.555,8.1l0,0c0.006,2.301,0.614,4.325,1.864,6.219l0,0
			c0.002,0,0.015,0.021,0.062,0.082l0,0c0.05,0.063,0.12,0.151,0.211,0.261l0,0c0.178,0.22,0.432,0.524,0.755,0.905l0,0
			c0.648,0.763,1.575,1.842,2.79,3.24l0,0c1.504,1.779,2.427,3.545,2.439,5.416l0,0c0.052,2.63-1.531,4.884-4.027,6.067l0,0
			c-1.079,0.518-2.735,1.006-5.201,1.594l0,0C200.678,102.199,200.732,102.322,200.792,102.452L200.792,102.452z"/>
	</g>
	<g>
		<path fill="#FCFCFC" d="M246.581,100.281c0,0.612-0.077,1.543-0.23,2.789s-0.23,2.161-0.23,2.743s-0.061,0.955-0.184,1.119
			c-0.123,0.163-0.46,0.398-1.012,0.704c-2.636,1.451-5.559,2.177-8.766,2.177c-5.906,0-8.858-2.258-8.858-6.774
			c0-1.349,0.051-3.376,0.153-6.084c0.102-2.707,0.153-4.735,0.153-6.084c0-0.899-0.521-1.349-1.563-1.349c-0.082,0-0.214,0-0.398,0
			c-0.184,0.021-0.317,0.03-0.398,0.03c-0.777,0-1.165-0.275-1.165-0.827c0-0.327,0.025-0.828,0.077-1.502
			c0.051-0.675,0.077-1.175,0.077-1.502c0-0.43-0.026-1.083-0.077-1.962c-0.051-0.879-0.077-1.532-0.077-1.962
			c0-0.408,0.654-0.633,1.962-0.674c0.736-0.021,1.134-0.225,1.195-0.613c0.123-0.776,0.164-2.003,0.123-3.679
			c-0.082-2.636-0.123-3.893-0.123-3.77c0-2.37,0.225-3.556,0.674-3.556c0.552,0,1.338,0.122,2.36,0.368
			c1.165,0.266,1.972,0.419,2.421,0.459c1.042,0.144,2.615,0.338,4.72,0.583c0.511,0.041,0.767,0.214,0.767,0.521
			c0,0.817-0.067,2.054-0.199,3.709c-0.133,1.655-0.199,2.902-0.199,3.739c0,1.002,0.296,1.502,0.889,1.502
			c0.715,0,1.798-0.03,3.249-0.092c1.451-0.062,2.544-0.092,3.28-0.092c0.449,0,0.674,0.153,0.674,0.46
			c0,0.47-0.051,1.175-0.153,2.115c-0.103,0.939-0.153,1.645-0.153,2.114c0,0.49,0.01,1.206,0.031,2.146
			c0.02,0.94,0.031,1.655,0.031,2.146c0,0.43-0.296,0.645-0.889,0.645c-0.409,0-1.093-0.016-2.054-0.047
			c-0.96-0.03-1.645-0.046-2.053-0.046h-2.299c-0.307,0-0.46,0.45-0.46,1.349c0,0.491,0,1.217,0,2.177
			c0.02,0.98,0.031,1.706,0.031,2.176c0,1.717,0.194,2.902,0.582,3.556c0.552,0.879,1.635,1.318,3.249,1.318
			c0.511,0,1.242-0.117,2.192-0.353c0.95-0.234,1.619-0.353,2.008-0.353C246.366,99.606,246.581,99.831,246.581,100.281z"/>
		<path fill="#9FCFFF" d="M236.159,111.313c-3.132-0.006-5.678-0.579-7.554-2.003l0,0c-1.894-1.424-2.829-3.706-2.804-6.271l0,0
			c0-1.385,0.052-3.423,0.155-6.142l0,0c0.097-2.594,0.147-4.562,0.15-5.875l0,0c-0.02-0.001-0.041-0.001-0.063-0.001l0,0
			c-0.068,0-0.171,0-0.312,0l0,0c-0.176,0.018-0.315,0.029-0.485,0.031l0,0c-0.557-0.007-1.146-0.075-1.742-0.484l0,0
			c-0.615-0.403-0.954-1.231-0.923-1.844l0,0c0.002-0.401,0.029-0.921,0.081-1.614l0,0c0.05-0.655,0.075-1.138,0.073-1.388l0,0
			c0-0.375-0.023-1.013-0.073-1.877l0,0c-0.054-0.895-0.081-1.563-0.081-2.049l0,0c-0.012-0.513,0.261-1.063,0.58-1.349l0,0
			c0.318-0.303,0.631-0.441,0.925-0.545l0,0c0.539-0.179,1.082-0.242,1.742-0.271l0,0c0.032-0.43,0.05-0.979,0.05-1.628l0,0
			c0-0.35-0.006-0.73-0.015-1.127l0,0c-0.066-2.117-0.107-3.388-0.118-3.658l0,0c-0.003-0.022-0.002-0.029-0.001-0.031l0,0
			c-0.004-0.047-0.006-0.096-0.005-0.127l0,0c0-0.005,0-0.011,0-0.017l0,0c-0.001-0.035-0.001-0.078,0.003-0.13l0,0
			c0.04-1.802,0.036-2.841,0.572-3.927l0,0c0.178-0.362,0.749-0.983,1.599-0.981l0,0c0.766,0.004,1.625,0.151,2.694,0.405l0,0
			c1.132,0.261,1.931,0.404,2.22,0.429l0,0l0.045,0.004l0.027,0.005c1.022,0.139,2.588,0.333,4.635,0.572l0,0
			c0.399,0.038,0.822,0.104,1.297,0.414l0,0c0.488,0.288,0.884,1.026,0.849,1.602l0,0c0,0.895-0.07,2.152-0.203,3.83l0,0
			c-0.132,1.63-0.194,2.854-0.195,3.615l0,0c0.649-0.013,1.511-0.041,2.574-0.085l0,0c1.463-0.063,2.568-0.094,3.344-0.094l0,0
			c0.387,0.007,0.838,0.042,1.351,0.375l0,0c0.53,0.325,0.856,1.078,0.824,1.585l0,0c-0.002,0.573-0.058,1.308-0.164,2.278l0,0
			c-0.1,0.908-0.145,1.585-0.145,1.951l0,0c0,0.47,0.01,1.18,0.031,2.114l0,0c0.021,0.943,0.031,1.666,0.031,2.177l0,0
			c0.029,0.545-0.275,1.316-0.842,1.697l0,0c-0.551,0.385-1.078,0.44-1.546,0.446l0,0c-0.445,0-1.134-0.014-2.102-0.047l0,0
			c-0.952-0.029-1.633-0.046-2.005-0.046l0,0h-1.26c0,0.482,0,1.157,0,1.995l0,0c0.021,0.986,0.031,1.715,0.031,2.207l0,0
			c-0.021,1.596,0.242,2.635,0.352,2.759l0,0c0.159,0.263,0.587,0.6,1.98,0.616l0,0c0.288,0.004,0.948-0.087,1.833-0.311l0,0
			c1.007-0.242,1.699-0.387,2.367-0.395l0,0c0.456-0.009,1.099,0.139,1.566,0.633l0,0c0.466,0.494,0.58,1.095,0.575,1.542l0,0
			c0,0.729-0.084,1.692-0.24,2.971l0,0c-0.151,1.215-0.222,2.103-0.219,2.562l0,0c-0.046,0.706,0.054,1.169-0.486,2.021l0,0
			c-0.482,0.575-0.857,0.739-1.486,1.115l0,0c-2.858,1.575-6.048,2.363-9.476,2.363l0,0
			C236.168,111.313,236.163,111.313,236.159,111.313L236.159,111.313z M225.646,88.021c0.184,0,0.316,0,0.397,0l0,0
			c0.722,0.002,1.496,0.146,2.152,0.701l0,0c0.664,0.559,0.927,1.43,0.913,2.147l0,0c0,1.385-0.052,3.423-0.155,6.142l0,0
			c-0.102,2.696-0.151,4.713-0.151,6.027l0,0c0.025,1.949,0.565,3.054,1.625,3.888l0,0c1.076,0.836,2.961,1.391,5.733,1.385l0,0
			c2.982-0.002,5.632-0.664,8.039-1.989l0,0c0.168-0.091,0.31-0.176,0.416-0.243l0,0c0.004-0.074,0.007-0.164,0.006-0.266l0,0
			c0.002-0.707,0.085-1.648,0.242-2.928l0,0c0.079-0.64,0.135-1.192,0.171-1.645l0,0c-0.219,0.045-0.47,0.102-0.745,0.172l0,0
			c-1.016,0.25-1.819,0.393-2.551,0.398l0,0c-1.837,0.015-3.576-0.527-4.54-2.055l0,0c-0.646-1.15-0.77-2.482-0.792-4.32l0,0
			c0-0.448-0.011-1.169-0.029-2.175l0,0c-0.002-0.962-0.002-1.686,0-2.177l0,0c0.062-0.809-0.076-1.411,0.708-2.338l0,0
			c0.285-0.298,0.803-0.525,1.251-0.511l0,0h2.299c0.443,0,1.132,0.015,2.101,0.045l0,0c0.559,0.019,1.023,0.032,1.387,0.04l0,0
			c-0.005-0.357-0.012-0.774-0.022-1.25l0,0c-0.021-0.945-0.031-1.668-0.031-2.179l0,0c0-0.573,0.056-1.308,0.161-2.276l0,0
			c0.037-0.333,0.066-0.636,0.088-0.902l0,0c-0.624,0.014-1.403,0.04-2.333,0.079l0,0c-1.465,0.064-2.56,0.093-3.313,0.093l0,0
			c-0.72,0.046-1.62-0.453-1.959-1.111l0,0c-0.362-0.637-0.422-1.245-0.43-1.889l0,0c0-0.912,0.068-2.183,0.205-3.859l0,0
			c0.087-1.087,0.144-1.989,0.173-2.689l0,0c-1.822-0.214-3.208-0.386-4.17-0.518l0,0v-0.001c-0.602-0.062-1.4-0.221-2.568-0.485
			l0,0c-0.417-0.102-0.788-0.178-1.103-0.23l0,0c-0.049,0.455-0.081,1.107-0.081,1.913l0,0c0,0.011,0.001,0.021,0.002,0.033l0,0
			c0,0.045,0.004,0.105,0.006,0.186l0,0c0.006,0.16,0.015,0.397,0.025,0.714l0,0c0.021,0.632,0.05,1.577,0.089,2.85l0,0
			c0.01,0.427,0.015,0.825,0.015,1.206l0,0c0,1.132-0.043,2.018-0.155,2.738l0,0c-0.079,0.674-0.625,1.315-1.142,1.547l0,0
			c-0.52,0.259-0.995,0.314-1.488,0.334l0,0c-0.184,0.003-0.347,0.013-0.486,0.025l0,0c0.012,0.294,0.029,0.636,0.052,1.023l0,0
			c0.052,0.894,0.079,1.562,0.079,2.051l0,0c0,0.398-0.029,0.918-0.081,1.613l0,0c-0.02,0.256-0.035,0.485-0.046,0.686l0,0H225.646
			L225.646,88.021z M226.08,74.004c0.128,0.155,0.48,0.531,1.159,0.548l0,0c0.151,0.004,0.65-0.024,1.078-0.459l0,0
			c0.403-0.441,0.408-0.838,0.42-0.981l0,0c0-0.018,0-0.035,0-0.052l0,0h-1.528l-1.41,0.414
			C225.84,73.561,225.815,73.648,226.08,74.004L226.08,74.004z M227.171,73.062l0.016-0.002h-0.008L227.171,73.062L227.171,73.062z
			 M228.727,72.862c0.003,0.024,0.005,0.04,0.006,0.052l0,0c-0.003-0.056-0.008-0.074-0.01-0.083l0,0
			C228.724,72.842,228.725,72.852,228.727,72.862L228.727,72.862z"/>
	</g>
	<g>
		<path fill="#FCFCFC" d="M281.339,81.399c0,1.513-0.072,3.781-0.215,6.805c-0.143,3.024-0.214,5.293-0.214,6.805
			c0,1.472,0.051,3.678,0.153,6.621c0.102,2.942,0.153,5.139,0.153,6.59c0,0.552-0.255,0.899-0.766,1.042
			c-0.777,0.204-2.421,0.307-4.935,0.307c-2.228,0-3.78-0.062-4.659-0.184c-0.389-0.062-0.634-0.307-0.736-0.736
			c-0.061-0.612-0.123-1.226-0.184-1.839c-0.102-0.939-0.245-1.41-0.429-1.41c0.286,0-0.747,0.695-3.096,2.085
			c-2.35,1.39-4.485,2.084-6.406,2.084c-5.416,0-8.624-2.441-9.625-7.326c-0.45-2.268-0.675-5.558-0.675-9.869
			c0-4.659,0.378-8.338,1.134-11.035c0.225-0.837,0.644-1.257,1.257-1.257c0.939,0,2.37,0.011,4.291,0.031
			c1.92,0.021,3.351,0.03,4.292,0.03c0.633,0,0.95,0.266,0.95,0.797c0,0.144-0.021,0.358-0.062,0.644
			c-0.429,2.779-0.644,5.6-0.644,8.46c0,3.556,0.112,5.988,0.337,7.295c0.368,2.248,1.706,3.372,4.016,3.372
			c0.899,0,1.875-0.398,2.927-1.195c1.052-0.797,1.599-1.625,1.64-2.482c0.041-0.756,0.062-5.886,0.062-15.388
			c0-0.674,0.051-1.072,0.153-1.195c0.123-0.204,0.49-0.307,1.103-0.307c1.001,0,2.508,0.011,4.521,0.031
			c2.012,0.021,3.52,0.03,4.521,0.03c0.613,0,0.97,0.153,1.073,0.46C281.318,80.827,281.339,81.073,281.339,81.399z"/>
		<path fill="#9FCFFF" d="M270.622,110.865c-0.95-0.083-1.841-1.043-1.961-1.873l0,0l-0.023-0.101l-0.01-0.096
			c-0.027-0.282-0.056-0.564-0.083-0.846l0,0c-0.396,0.243-0.851,0.517-1.369,0.823l0,0c-2.502,1.478-4.881,2.29-7.169,2.294l0,0
			c-2.924,0-5.438-0.664-7.376-2.139l0,0c-1.943-1.472-3.174-3.693-3.72-6.397l0,0c-0.482-2.44-0.702-5.794-0.704-10.16l0,0
			c0.004-4.742,0.376-8.528,1.186-11.425l0,0c0.159-0.577,0.401-1.137,0.871-1.612l0,0c0.459-0.482,1.188-0.77,1.835-0.755l0,0
			c0.95,0,2.383,0.013,4.306,0.031l0,0c1.918,0.021,3.346,0.03,4.277,0.03l0,0c0.511,0.002,1.119,0.096,1.676,0.549l0,0
			c0.565,0.459,0.791,1.204,0.774,1.748l0,0c-0.002,0.283-0.031,0.532-0.079,0.873l0,0c-0.418,2.702-0.627,5.444-0.627,8.231l0,0
			c-0.002,3.513,0.12,5.936,0.317,7.051l0,0c0.151,0.89,0.434,1.343,0.765,1.623l0,0c0.333,0.279,0.849,0.488,1.771,0.492l0,0
			c0.44,0.006,1.125-0.211,2.021-0.892l0,0c0.875-0.667,1.042-1.132,1.047-1.368l0,0c0.037-0.623,0.06-5.831,0.06-15.305l0,0
			c0-0.377,0.012-0.693,0.05-0.995l0,0c0.062-0.278,0.034-0.515,0.321-0.971l0,0l-0.004-0.002c0.37-0.592,0.881-0.797,1.252-0.904
			l0,0c0.391-0.105,0.747-0.129,1.138-0.131l0,0c1.012,0,2.52,0.011,4.538,0.031l0,0c2.009,0.021,3.513,0.031,4.504,0.031l0,0
			c0.431,0.002,0.853,0.041,1.32,0.235l0,0c0.457,0.177,0.989,0.646,1.175,1.248l0,0l0.019,0.056l0.017,0.061
			c0.089,0.378,0.101,0.699,0.103,1.095l0,0c0,1.558-0.072,3.84-0.215,6.875l0,0c-0.143,3.013-0.213,5.269-0.213,6.735l0,0
			c0,1.438,0.05,3.635,0.153,6.569l0,0c0.102,2.95,0.153,5.156,0.153,6.642l0,0c0.002,0.499-0.124,1.076-0.484,1.563l0,0
			c-0.354,0.488-0.888,0.792-1.401,0.929l0,0c-1.111,0.277-2.739,0.348-5.315,0.357l0,0
			C273.252,111.064,271.684,111.01,270.622,110.865L270.622,110.865z M279.715,107.881c-0.007-1.419-0.057-3.492-0.152-6.2l0,0
			c-0.101-2.953-0.153-5.169-0.153-6.673l0,0c0-1.559,0.072-3.839,0.215-6.876l0,0c0.133-2.809,0.205-4.962,0.212-6.43l0,0
			c-0.996-0.003-2.384-0.012-4.169-0.03l0,0c-1.853-0.019-3.275-0.03-4.262-0.032l0,0c0,0.001,0,0.002,0,0.004l0,0
			c-0.002,9.528-0.019,14.581-0.064,15.458l0,0c-0.079,1.489-1.001,2.682-2.232,3.606l0,0c-1.208,0.914-2.477,1.494-3.832,1.5l0,0
			c-1.386,0.004-2.696-0.348-3.702-1.194l0,0c-1.008-0.844-1.577-2.075-1.792-3.424l0,0c-0.256-1.509-0.356-3.95-0.36-7.548l0,0
			c0-2.844,0.208-5.651,0.619-8.404l0,0c-0.915-0.003-2.136-0.011-3.671-0.027l0,0c-1.762-0.02-3.11-0.029-4.038-0.031l0,0
			c-0.016,0.043-0.033,0.096-0.051,0.161l0,0c-0.699,2.483-1.08,6.055-1.078,10.631l0,0c-0.002,4.257,0.228,7.482,0.646,9.568l0,0
			c0.455,2.19,1.328,3.631,2.594,4.602l0,0c1.271,0.968,3.069,1.522,5.56,1.526l0,0c1.552,0.002,3.443-0.573,5.64-1.876l0,0
			c1.57-0.92,2.62-1.609,2.792-1.749l0,0c0.014-0.014,0.019-0.019,0.022-0.021l0,0l0.403,0.457l-0.44-0.422l1.003,0.964h0.081
			v-1.522c0.035,0,0.069,0.002,0.103,0.004l0,0c0.115,0.006,0.266,0.021,0.487,0.109l0,0c0.03,0.012,0.06,0.024,0.088,0.038l0,0
			c0.013,0.006,0.026,0.012,0.04,0.019l0,0c0.086,0.029,0.178,0.088,0.267,0.166l0,0c0.182,0.138,0.308,0.289,0.376,0.396l0,0
			c0.187,0.273,0.252,0.478,0.319,0.683l0,0c0.12,0.401,0.182,0.812,0.242,1.345l0,0c0.042,0.431,0.085,0.862,0.129,1.293l0,0
			c0.831,0.073,2.178,0.118,3.958,0.116l0,0C277.538,108.074,279.021,107.985,279.715,107.881L279.715,107.881z M269.424,105.632
			l0.002-0.001l0.081-0.158v-0.003L269.424,105.632L269.424,105.632z"/>
	</g>
	<g>
		<path fill="#FCFCFC" d="M318.887,65.767c0-0.449-0.082,0.225-0.245,2.022c-0.226,2.269-0.398,5.17-0.521,8.705
			c-0.164,4.006-0.245,8.563-0.245,13.671c0,8.439,0.234,14.447,0.705,18.022c0.041,0.389,0.062,0.634,0.062,0.736
			c0,0.225-0.153,0.357-0.46,0.398c-0.735,0.102-3.443,0.153-8.123,0.153c-1.104,0-1.737-0.215-1.9-0.644
			c-0.041-0.776-0.082-1.553-0.122-2.33c-0.021-0.163-0.103-0.326-0.245-0.49c-0.123,0.062-0.276,0.184-0.46,0.368
			c-2.207,2.166-4.966,3.249-8.276,3.249c-4.312,0-7.765-1.513-10.36-4.537c-2.473-2.881-3.708-6.518-3.708-10.911
			c0-4.455,1.215-8.123,3.647-11.004c2.574-3.065,6.048-4.599,10.421-4.599c3.086,0,5.487,0.981,7.203,2.943
			c0.286,0.327,0.49,0.49,0.613,0.49c0.184,0,0.275-0.266,0.275-0.797c0-1.573-0.041-3.924-0.122-7.05
			c-0.082-3.127-0.123-5.466-0.123-7.02c0-0.593,0.164-0.93,0.491-1.012c1.307-0.061,3.105-0.184,5.395-0.367
			c4.087-0.511,5.895-0.767,5.425-0.767C318.662,65,318.887,65.256,318.887,65.767z M307.332,93.935
			c0-1.613-0.563-3.028-1.686-4.245c-1.125-1.215-2.483-1.823-4.077-1.823c-1.676,0-3.009,0.608-4,1.823
			c-0.991,1.217-1.486,2.672-1.486,4.368c0,1.655,0.5,3.055,1.502,4.199c1.021,1.227,2.35,1.839,3.984,1.839
			s3.004-0.612,4.107-1.839C306.78,97.031,307.332,95.59,307.332,93.935z"/>
		<path fill="#9FCFFF" d="M287.555,106.07c-2.729-3.17-4.078-7.222-4.07-11.89l0,0c-0.006-4.72,1.312-8.796,4-11.968l0,0
			c2.834-3.408,6.853-5.158,11.57-5.134l0,0c2.502-0.015,4.755,0.61,6.571,1.872l0,0c-0.019-1.304-0.053-2.887-0.102-4.746l0,0
			c-0.082-3.135-0.124-5.48-0.124-7.06l0,0c0.004-0.433,0.046-0.869,0.273-1.354l0,0c0.209-0.481,0.759-0.984,1.354-1.112l0,0
			l0.143-0.038l0.153-0.006c1.268-0.06,3.04-0.181,5.299-0.36l0,0c3.061-0.381,4.95-0.646,5.226-0.7l0,0
			c0.017-0.005,0.023-0.005,0.029-0.007l0,0l0.187,0.798c0.044-0.027,0.093-0.054,0.147-0.078l0,0v-0.788
			c0.018-0.001,0.036-0.001,0.055-0.001l0,0c0.005,0,0.011,0,0.017,0l0,0c0.482,0.005,1.129,0.2,1.561,0.702l0,0
			c0.363,0.42,0.493,0.883,0.53,1.288l0,0c0.002,0.021,0.004,0.038,0.006,0.055l0,0c0.006,0.098,0.006,0.153,0.006,0.224l0,0h-0.81
			c-0.01,0.017-0.02,0.032-0.028,0.047l0,0l0.78,0.173l-0.054-0.013l0.056,0.008c-0.008,0.057-0.022,0.181-0.041,0.35l0,0
			c-0.037,0.342-0.089,0.876-0.155,1.604l0,0c-0.22,2.221-0.392,5.097-0.516,8.62l0,0c-0.163,3.979-0.244,8.517-0.242,13.608l0,0
			c-0.002,8.407,0.236,14.394,0.695,17.865l0,0c0.042,0.418,0.066,0.635,0.07,0.896l0,0c0.021,0.445-0.219,1.066-0.633,1.401l0,0
			c-0.405,0.341-0.805,0.437-1.121,0.482l0,0c-1,0.128-3.601,0.161-8.328,0.167l0,0c-0.65-0.004-1.219-0.054-1.784-0.24l0,0
			c-0.544-0.174-1.223-0.592-1.519-1.369l0,0l-0.085-0.222l-0.01-0.233c-0.001-0.011-0.002-0.021-0.002-0.032l0,0
			c-2.175,1.5-4.765,2.262-7.604,2.25l0,0c-0.03,0-0.061,0-0.091,0l0,0C294.346,111.128,290.392,109.404,287.555,106.07
			L287.555,106.07z M289.779,84.143c-2.174,2.588-3.285,5.848-3.292,10.037l0,0c0.009,4.12,1.13,7.341,3.347,9.934l0,0
			c2.336,2.692,5.255,3.994,9.222,4.015l0,0c2.985-0.015,5.28-0.93,7.213-2.808l0,0c0.25-0.244,0.474-0.453,0.853-0.65l0,0
			l1.039-0.521l0.763,0.878c0.275,0.314,0.532,0.747,0.601,1.287l0,0l0.008,0.056l0.002,0.054c0.026,0.513,0.053,1.023,0.08,1.534
			l0,0c0.124,0.012,0.274,0.02,0.446,0.018l0,0c3.325,0.004,5.714-0.03,6.974-0.079l0,0c-0.446-3.747-0.657-9.619-0.659-17.732l0,0
			c0.002-5.123,0.083-9.699,0.246-13.722l0,0c0.124-3.557,0.298-6.484,0.527-8.786l0,0c0.032-0.363,0.062-0.682,0.088-0.956l0,0
			c-0.039,0.006-0.079,0.012-0.12,0.018l0,0c-0.928,0.128-2.306,0.308-4.143,0.537l0,0l-0.037,0.005l-0.029,0.002
			c-1.798,0.144-3.297,0.251-4.504,0.32l0,0c0.007,1.523,0.046,3.708,0.121,6.545l0,0c0.081,3.133,0.122,5.489,0.122,7.089l0,0
			c-0.063,0.531,0.11,0.968-0.612,1.825l0,0c-0.263,0.274-0.751,0.483-1.162,0.47l0,0c-0.729-0.04-0.954-0.299-1.182-0.449l0,0
			c-0.214-0.174-0.381-0.348-0.561-0.553l0,0c-1.422-1.602-3.292-2.412-6.073-2.432l0,0C295.025,80.1,292.096,81.417,289.779,84.143
			L289.779,84.143z M317.882,66.754l0.15-0.171l0,0l0,0L317.882,66.754L317.882,66.754z M320.125,66.46l-0.711-0.47l0,0l0,0
			L320.125,66.46L320.125,66.46z M320.278,66.156l-0.771-0.283l0,0l0,0L320.278,66.156L320.278,66.156z M296.455,99.243
			c-1.25-1.411-1.883-3.232-1.873-5.186l0,0c-0.008-1.986,0.608-3.836,1.823-5.317l0,0c1.241-1.557,3.13-2.398,5.164-2.373l0,0
			c1.98-0.02,3.826,0.816,5.18,2.305l0,0c1.354,1.45,2.094,3.298,2.081,5.262l0,0h0.002c0.011,1.988-0.703,3.856-2.042,5.326l0,0
			c-1.335,1.515-3.209,2.354-5.221,2.334l0,0c-0.028,0-0.057,0-0.085,0l0,0C299.505,101.594,297.672,100.742,296.455,99.243
			L296.455,99.243z M298.73,90.636c-0.766,0.953-1.14,2.013-1.148,3.422l0,0c0.011,1.355,0.377,2.334,1.155,3.238l0,0
			c0.781,0.906,1.57,1.276,2.832,1.3l0,0c1.256-0.02,2.121-0.404,2.992-1.344l0,0c0.869-0.982,1.258-1.996,1.269-3.318l0,0h0.002
			c-0.013-1.263-0.397-2.245-1.287-3.226l0,0c-0.9-0.946-1.77-1.324-2.976-1.343l0,0C300.251,89.39,299.471,89.765,298.73,90.636
			L298.73,90.636z"/>
	</g>
	<g>
		<path fill="#FCFCFC" d="M334.764,95.192c0,1.492,0.031,3.715,0.092,6.667c0.062,2.953,0.092,5.165,0.092,6.636
			c0,0.43-0.255,0.686-0.766,0.767c-0.695,0.123-2.259,0.184-4.689,0.184c-2.452,0-4.026-0.061-4.721-0.184
			c-0.45-0.081-0.726-0.215-0.828-0.398c-0.041-0.081-0.061-0.388-0.061-0.92c0-1.409,0.03-3.529,0.092-6.359
			s0.092-4.961,0.092-6.392c0-5.803-0.225-10.421-0.674-13.854c-0.042-0.326-0.062-0.541-0.062-0.644
			c0-0.408,0.275-0.613,0.827-0.613c0.572,0,1.445,0.062,2.621,0.185c1.175,0.122,2.059,0.184,2.651,0.184
			c0.592,0,1.481-0.051,2.666-0.153c1.186-0.102,2.074-0.153,2.667-0.153c0.49,0,0.735,0.205,0.735,0.613
			c0,0.082-0.021,0.275-0.061,0.582C334.989,85.323,334.764,89.941,334.764,95.192z M335.561,72.418
			c0,3.556-2.003,5.333-6.008,5.333c-1.716,0-3.137-0.449-4.26-1.349c-1.227-0.98-1.84-2.309-1.84-3.984
			c0-1.594,0.634-2.901,1.9-3.924c1.165-0.939,2.564-1.41,4.199-1.41c1.594,0,2.974,0.48,4.139,1.441
			C334.938,69.547,335.561,70.845,335.561,72.418z"/>
		<path fill="#9FCFFF" d="M324.504,110.736c-0.592-0.141-1.281-0.229-1.899-1.195l0,0c-0.238-0.563-0.164-0.625-0.205-0.871l0,0
			c-0.013-0.209-0.017-0.441-0.019-0.727l0,0c0.002-1.43,0.031-3.557,0.093-6.394l0,0c0.063-2.824,0.092-4.947,0.092-6.358l0,0
			c0-5.762-0.226-10.333-0.662-13.662l0,0c-0.044-0.362-0.07-0.571-0.073-0.836l0,0c-0.026-0.523,0.257-1.28,0.813-1.665l0,0
			c0.538-0.385,1.062-0.443,1.515-0.447l0,0c0.565,0,1.292,0.047,2.225,0.137l0,0c-0.736-0.273-1.419-0.653-2.028-1.145l0,0
			c-1.574-1.227-2.429-3.118-2.402-5.153l0,0c-0.024-1.999,0.88-3.851,2.458-5.093l0,0c1.431-1.164,3.222-1.752,5.143-1.742l0,0
			c1.893-0.01,3.67,0.601,5.087,1.779l0,0c1.555,1.244,2.444,3.079,2.421,5.056l0,0h-0.002c0.015,2.037-0.606,3.888-2.005,5.12l0,0
			c-0.589,0.519-1.267,0.903-2.021,1.177l0,0c0.698-0.05,1.268-0.075,1.729-0.075l0,0c0.441,0.002,0.993,0.078,1.513,0.502l0,0
			c0.53,0.427,0.741,1.128,0.723,1.612l0,0c-0.005,0.279-0.031,0.435-0.068,0.749l0,0c-0.443,3.912-0.666,8.479-0.666,13.687l0,0
			c0,1.472,0.03,3.689,0.091,6.636l0,0c0.062,2.959,0.093,5.177,0.093,6.666l0,0c0.013,0.501-0.187,1.146-0.629,1.575l0,0
			c-0.437,0.43-0.952,0.602-1.376,0.67l0,0c-0.941,0.157-2.475,0.201-4.949,0.207l0,0
			C326.996,110.939,325.452,110.895,324.504,110.736L324.504,110.736z M333.445,107.839c-0.007-1.43-0.036-3.417-0.089-5.951l0,0
			c-0.061-2.958-0.092-5.185-0.092-6.697l0,0h-0.002c0.002-5.066,0.209-9.564,0.63-13.522l0,0c-0.455,0.024-1.015,0.064-1.666,0.121
			l0,0c-1.211,0.104-2.123,0.157-2.795,0.157l0,0c-0.693,0-1.604-0.066-2.809-0.19l0,0c-0.668-0.07-1.234-0.119-1.684-0.147l0,0
			c0.422,3.48,0.627,7.992,0.627,13.582l0,0c0,1.45-0.031,3.588-0.091,6.425l0,0c-0.061,2.748-0.092,4.822-0.094,6.213l0,0
			c0.697,0.067,2.134,0.119,4.111,0.114l0,0C331.33,107.948,332.697,107.902,333.445,107.839L333.445,107.839z M333.946,107.781
			c0,0,0-0.001,0-0.003l0,0V107.781L333.946,107.781z M326.294,69.66c-0.954,0.803-1.316,1.566-1.344,2.759l0,0
			c0.027,1.313,0.399,2.077,1.279,2.812l0,0c0.827,0.656,1.86,1.014,3.323,1.02l0,0c1.796,0,2.9-0.405,3.509-0.955l0,0
			c0.604-0.545,0.984-1.359,0.999-2.876l0,0h-0.002c-0.022-1.174-0.381-1.935-1.322-2.738l0,0c-0.908-0.738-1.891-1.088-3.184-1.099
			l0,0C328.202,68.591,327.194,68.945,326.294,69.66L326.294,69.66z"/>
	</g>
	<g>
		<path fill="#FCFCFC" d="M370.167,94.181c0,4.658-1.425,8.439-4.275,11.341s-6.596,4.353-11.234,4.353
			c-4.495,0-8.194-1.431-11.096-4.291c-2.901-2.861-4.353-6.539-4.353-11.035c0-4.74,1.39-8.587,4.169-11.54
			c2.778-2.953,6.539-4.43,11.279-4.43c4.618,0,8.357,1.446,11.219,4.338C368.736,85.808,370.167,89.563,370.167,94.181z
			 M360.113,94.181c0-1.614-0.501-3.04-1.502-4.276s-2.299-1.854-3.893-1.854c-1.614,0-2.942,0.634-3.984,1.9
			c-0.981,1.186-1.472,2.596-1.472,4.23c0,1.654,0.49,3.075,1.472,4.26c1.042,1.268,2.37,1.9,3.984,1.9
			c1.594,0,2.912-0.633,3.954-1.9C359.632,97.256,360.113,95.835,360.113,94.181z"/>
		<path fill="#9FCFFF" d="M354.656,111.374c-4.808,0.013-8.974-1.577-12.148-4.725l0,0c-3.197-3.133-4.813-7.288-4.8-12.103l0,0
			c-0.012-5.026,1.509-9.32,4.577-12.568l0,0c3.069-3.282,7.33-4.917,12.371-4.903l0,0c4.924-0.012,9.142,1.59,12.285,4.785l0,0
			c3.158,3.175,4.739,7.398,4.725,12.321l0,0c0.013,4.953-1.559,9.201-4.706,12.391l0,0c-3.121,3.194-7.323,4.802-12.237,4.802l0,0
			C354.7,111.374,354.677,111.374,354.656,111.374L354.656,111.374z M344.468,84.034c-2.49,2.659-3.75,6.059-3.762,10.513l0,0
			c0.017,4.179,1.302,7.378,3.907,9.967l0,0c2.627,2.574,5.859,3.846,10.042,3.858l0,0c4.334-0.015,7.598-1.31,10.164-3.902l0,0
			c2.554-2.615,3.833-5.93,3.846-10.288l0,0c-0.015-4.317-1.295-7.603-3.856-10.212l0,0c-2.58-2.587-5.84-3.879-10.153-3.892l0,0
			C350.215,80.093,346.956,81.412,344.468,84.034L344.468,84.034z M349.578,99.397c-1.209-1.448-1.826-3.269-1.815-5.215l0,0
			c-0.011-1.935,0.608-3.744,1.812-5.185l0,0c1.266-1.576,3.133-2.472,5.145-2.447l0,0c1.984-0.024,3.829,0.854,5.057,2.41l0,0
			c1.212,1.479,1.845,3.295,1.837,5.222l0,0c0.008,1.94-0.592,3.754-1.783,5.21l0,0c-1.261,1.573-3.116,2.471-5.11,2.448l0,0
			c-0.027,0-0.055,0-0.082,0l0,0C352.657,101.84,350.822,100.948,349.578,99.397L349.578,99.397z M351.888,90.907
			c-0.756,0.926-1.118,1.936-1.128,3.274l0,0c0.01,1.358,0.374,2.379,1.132,3.305l0,0c0.818,0.958,1.606,1.33,2.826,1.354l0,0
			c1.19-0.023,1.972-0.391,2.788-1.345l0,0c0.735-0.921,1.097-1.949,1.105-3.313l0,0c-0.009-1.306-0.376-2.342-1.168-3.335l0,0
			c-0.772-0.916-1.522-1.273-2.726-1.297l0,0C353.5,89.573,352.71,89.945,351.888,90.907L351.888,90.907z"/>
	</g>
</g>
</svg>
