<?xml version="1.0" encoding="utf-8"?>
<!-- Generator: Adobe Illustrator 13.0.0, SVG Export Plug-In . SVG Version: 6.00 Build 14948)  -->
<!DOCTYPE svg PUBLIC "-//W3C//DTD SVG 1.1//EN" "http://www.w3.org/Graphics/SVG/1.1/DTD/svg11.dtd">
<svg version="1.1" id="Ebene_1" xmlns="http://www.w3.org/2000/svg" xmlns:xlink="http://www.w3.org/1999/xlink" x="0px" y="0px"
	 width="566.929px" height="129.21px" viewBox="0 0 566.929 129.21" enable-background="new 0 0 566.929 129.21"
	 xml:space="preserve">
<g id="Ebene_2">
</g>
<g>
	<path fill="#F4B20C" d="M2.794,113.106L55.462,21.59c6.676,11.93,14.773,27.044,24.295,45.341l23.829,45.896L2.794,113.106z
		 M55.458,27.549 M7.606,110.324 M57.964,77.501c0.186,1.484-0.062,2.813-0.742,3.986c-0.804,1.362-1.947,2.04-3.431,2.04
		c-1.854,0-3.277-0.987-4.265-2.967c-0.185-1.174-0.092-2.317,0.278-3.431c0.494-1.359,1.328-2.193,2.503-2.504
		c0.371-0.061,0.742-0.093,1.113-0.093C55.336,74.534,56.851,75.524,57.964,77.501z"/>
	<path fill="#F4B20C" d="M192.707,111.79c-14.467,0.252-28.935,0.473-43.403,0.663c-17.313,0.25-31.935,0.313-43.867,0.189V20.755
		c3.461,0.434,14.372,0.371,32.731-0.185c14.464-0.371,25.374,0.866,32.73,3.709c10.508,4.019,17.214,11.869,20.121,23.552
		c0.06,0.804,0.093,1.639,0.093,2.505c0,8.593-4.142,16.104-12.426,22.533c-2.227,1.731-5.101,3.153-8.625,4.265
		c-3.091,0.867-6.184,1.701-9.273,2.504L192.707,111.79z M154.301,48.943c0.123,0.433,0.186,0.897,0.186,1.391
		c0,1.36-0.434,2.488-1.298,3.384c-0.866,0.896-1.947,1.344-3.245,1.344c-1.855,0-3.308-0.987-4.358-2.966
		c-0.433-2.782,0.371-4.759,2.411-5.934c0.557-0.247,1.113-0.371,1.669-0.371C152.013,45.791,153.559,46.842,154.301,48.943z
		 M175.425,105.241c-4.508,0.061-11.148-0.126-19.919-0.561v-0.842c1.73-0.249,4.326-0.344,7.789-0.279
		c3.461,0.061,6.057-0.064,7.788-0.373l-15.577-15.949l1.945,0.003L175.425,105.241z M183.044,52.56
		c-0.185,3.029-1.298,5.98-3.337,8.854c-2.041,2.875-4.513,4.96-7.418,6.259l-8.344,3.709v-2.041
		c11.126-3.584,17.091-9.18,17.895-16.782H183.044z"/>
	<path fill="#F4B20C" d="M280.586,82.507c-3.029,8.655-8.576,15.732-16.643,21.234c-8.066,5.5-16.675,8.22-25.823,8.158
		c-8.284,0-16.01-2.21-23.181-6.629c-7.171-4.42-12.765-10.4-16.783-17.941c-3.152-5.935-4.729-12.825-4.729-20.677
		c0-7.356,1.421-13.783,4.266-19.286c4.017-7.913,9.689-14.141,17.014-18.684c7.326-4.544,15.314-6.815,23.969-6.815
		c2.472,0,4.945,0.186,7.418,0.556c6.675,1.052,12.918,3.679,18.729,7.88c6.058,4.39,10.538,9.676,13.444,15.856
		c-7.85,4.761-19.626,11.868-35.326,21.326C256.541,73.484,269.09,78.491,280.586,82.507z M267.05,87.33
		c0,1.608-1.02,3.37-3.06,5.285c-1.608,1.483-3.462,2.75-5.563,3.802l-0.835-0.649c1.298-1.051,2.596-2.133,3.895-3.245
		c1.607-1.359,2.688-2.72,3.245-4.08c-2.906-1.421-6.894-3.09-11.961-5.007c-6.119-2.348-10.168-3.955-12.146-4.82V77.13
		L267.05,87.33z"/>
	<path fill="#F4B20C" d="M267.049,113.106l52.667-91.516c6.676,11.93,14.773,27.044,24.295,45.341l23.829,45.896L267.049,113.106z
		 M322.219,77.501c0.185,1.484-0.063,2.813-0.742,3.986c-0.805,1.362-1.947,2.04-3.432,2.04c-1.854,0-3.276-0.987-4.266-2.967
		c-0.186-1.174-0.093-2.317,0.278-3.431c0.494-1.359,1.329-2.193,2.504-2.504c0.371-0.061,0.742-0.093,1.112-0.093
		C319.59,74.534,321.106,75.524,322.219,77.501z M355.414,105.689l-19.01,0.371v-1.206l15.857-0.463
		c-0.682-2.226-2.195-5.472-4.545-9.736c-2.473-4.512-4.079-7.882-4.821-10.106l1.112-0.649L355.414,105.689z"/>
	<path fill="#F4B20C" d="M462.414,89.046c-4.636,9.501-11.623,16.133-20.955,19.896c-7.109,2.837-16.69,4.256-28.745,4.256
		c-3.276,0-8.283-0.125-15.02-0.371c-6.738-0.247-11.746-0.371-15.022-0.371c-5.067,0-9.518,0.247-13.351,0.742l0.278-92.443
		c3.709,0.371,7.941,0.557,12.701,0.557c3.276,0,8.314-0.093,15.115-0.278c6.799-0.186,11.869-0.278,15.205-0.278
		c10.323,0,18.762,1.111,25.313,3.331c8.406,2.838,15.083,7.834,20.028,14.992c6.306,7.094,9.457,16.317,9.457,27.667
		C467.419,74.828,465.751,82.262,462.414,89.046z M424.768,77.13c0.124,0.434,0.186,0.896,0.186,1.392
		c0,1.112-0.356,2.117-1.066,3.013c-0.711,0.896-1.622,1.407-2.735,1.529c-2.597-0.492-4.204-1.451-4.821-2.873
		c-0.063-0.433-0.093-0.834-0.093-1.205c0-2.164,0.988-3.74,2.967-4.73c0.371-0.061,0.742-0.092,1.113-0.092
		C422.172,74.164,423.656,75.153,424.768,77.13z M460.467,68.043c-0.928,7.543-3.093,14.157-6.491,19.842
		c-3.957,6.677-9.212,11.282-15.764,13.816c-3.648,1.421-6.338,2.379-8.065,2.874c-3.029,0.866-5.874,1.328-8.531,1.392
		l-0.464-1.113c14.525-2.535,24.603-7.82,30.228-15.855c3.832-5.501,6.306-12.485,7.418-20.955H460.467z"/>
	<path fill="#F4B20C" d="M561.625,63.129h-50.44c-0.557,1.498-0.835,3.246-0.835,5.241c0,1.997,0.278,3.68,0.835,5.053h17.895
		v11.589l-17.895,0.835v9.087l50.162,0.371v17.802h-89.662V20.755h89.662L561.625,63.129z M516.84,29.563l-36.439,0.278
		l-0.278,30.228h-1.297V27.895c8.529-0.122,21.2,0.033,38.015,0.464V29.563z"/>
</g>
<g>
	<path d="M2.794,113.106L55.462,21.59c6.676,11.93,14.773,27.044,24.295,45.341l23.829,45.896L2.794,113.106z M98.812,110.138
		L55.458,27.549L7.606,110.324L98.812,110.138z M57.964,77.501c0.186,1.484-0.062,2.813-0.742,3.986
		c-0.804,1.362-1.947,2.04-3.431,2.04c-1.854,0-3.277-0.987-4.265-2.967c-0.185-1.174-0.092-2.317,0.278-3.431
		c0.494-1.359,1.328-2.193,2.503-2.504c0.371-0.061,0.742-0.093,1.113-0.093C55.336,74.534,56.851,75.524,57.964,77.501z
		 M91.159,105.689L72.15,106.06v-1.206l15.855-0.463c-0.681-2.226-2.195-5.472-4.543-9.736c-2.473-4.512-4.08-7.882-4.822-10.106
		l1.113-0.649L91.159,105.689z"/>
	<path d="M192.707,111.79c-14.467,0.252-28.935,0.473-43.403,0.663c-17.313,0.25-31.935,0.313-43.867,0.189V20.755
		c3.461,0.434,14.372,0.371,32.731-0.185c14.464-0.371,25.374,0.866,32.73,3.709c10.508,4.019,17.214,11.869,20.121,23.552
		c0.06,0.804,0.093,1.639,0.093,2.505c0,8.593-4.142,16.104-12.426,22.533c-2.227,1.731-5.101,3.153-8.625,4.265
		c-3.091,0.867-6.184,1.701-9.273,2.504L192.707,111.79z M188.145,47.802c-2.536-9.446-7.728-16.053-15.578-19.819
		c-6.059-2.839-14.557-4.26-25.499-4.26c-3.029,0-7.603,0.138-13.723,0.417s-10.632,0.418-13.538,0.418
		c-4.45,0-8.314-0.216-11.59-0.649v85.581h77.979L156.87,79.94c-0.354-0.432-0.529-0.957-0.529-1.575
		c-0.062-0.803,0.217-1.327,0.835-1.573c6.551,0,12.888-2.007,19.008-6.022C184.713,65.277,188.701,57.619,188.145,47.802z
		 M154.301,48.943c0.123,0.433,0.186,0.897,0.186,1.391c0,1.36-0.434,2.488-1.298,3.384c-0.866,0.896-1.947,1.344-3.245,1.344
		c-1.855,0-3.308-0.987-4.358-2.966c-0.433-2.782,0.371-4.759,2.411-5.934c0.557-0.247,1.113-0.371,1.669-0.371
		C152.013,45.791,153.559,46.842,154.301,48.943z M175.425,105.241c-4.508,0.061-11.148-0.126-19.919-0.561v-0.842
		c1.73-0.249,4.326-0.344,7.789-0.279c3.461,0.061,6.057-0.064,7.788-0.373l-15.577-15.949l1.945,0.003L175.425,105.241z
		 M183.044,52.56c-0.185,3.029-1.298,5.98-3.337,8.854c-2.041,2.875-4.513,4.96-7.418,6.259l-8.344,3.709v-2.041
		c11.126-3.584,17.091-9.18,17.895-16.782H183.044z"/>
	<path d="M280.586,82.507c-3.029,8.655-8.576,15.732-16.643,21.234c-8.066,5.5-16.675,8.22-25.823,8.158
		c-8.284,0-16.01-2.21-23.181-6.629c-7.171-4.42-12.765-10.4-16.783-17.941c-3.152-5.935-4.729-12.825-4.729-20.677
		c0-7.356,1.421-13.783,4.266-19.286c4.017-7.913,9.689-14.141,17.014-18.684c7.326-4.544,15.314-6.815,23.969-6.815
		c2.472,0,4.945,0.186,7.418,0.556c6.675,1.052,12.918,3.679,18.729,7.88c6.058,4.39,10.538,9.676,13.444,15.856
		c-7.85,4.761-19.626,11.868-35.326,21.326C256.541,73.484,269.09,78.491,280.586,82.507z M275.731,84.263
		c-14.334-5.404-27.371-10.81-39.108-16.213c4.824-2.779,11.164-6.61,19.021-11.493c9.401-5.931,15.618-9.824,18.649-11.679
		c-2.906-5.319-7.11-9.742-12.612-13.269c-5.008-3.217-10.604-5.413-16.785-6.59c-1.669-0.122-3.308-0.185-4.915-0.185
		c-8.161,0-15.58,1.793-22.256,5.377c-7.048,3.834-12.521,9.273-16.415,16.32c-3.337,5.997-5.006,12.765-5.006,20.306
		c0,10.262,2.873,18.792,8.618,25.591c4.388,5.193,9.5,9.256,15.339,12.193c5.838,2.936,11.94,4.404,18.306,4.404
		c4.448,0,8.804-0.74,13.067-2.219c5.623-1.908,10.628-4.773,15.015-8.593C271.653,93.904,274.678,89.252,275.731,84.263z
		 M267.05,87.33c0,1.608-1.02,3.37-3.06,5.285c-1.608,1.483-3.462,2.75-5.563,3.802l-0.835-0.649
		c1.298-1.051,2.596-2.133,3.895-3.245c1.607-1.359,2.688-2.72,3.245-4.08c-2.906-1.421-6.894-3.09-11.961-5.007
		c-6.119-2.348-10.168-3.955-12.146-4.82V77.13L267.05,87.33z"/>
	<path d="M267.049,113.106l52.667-91.516c6.676,11.93,14.773,27.044,24.295,45.341l23.829,45.896L267.049,113.106z M363.067,110.138
		l-43.355-82.589l-47.852,82.775L363.067,110.138z M322.219,77.501c0.185,1.484-0.063,2.813-0.742,3.986
		c-0.805,1.362-1.947,2.04-3.432,2.04c-1.854,0-3.276-0.987-4.266-2.967c-0.186-1.174-0.093-2.317,0.278-3.431
		c0.494-1.359,1.329-2.193,2.504-2.504c0.371-0.061,0.742-0.093,1.112-0.093C319.59,74.534,321.106,75.524,322.219,77.501z
		 M355.414,105.689l-19.01,0.371v-1.206l15.857-0.463c-0.682-2.226-2.195-5.472-4.545-9.736c-2.473-4.512-4.079-7.882-4.821-10.106
		l1.112-0.649L355.414,105.689z"/>
	<path d="M462.414,89.046c-4.636,9.501-11.623,16.133-20.955,19.896c-7.109,2.837-16.69,4.256-28.745,4.256
		c-3.276,0-8.283-0.125-15.02-0.371c-6.738-0.247-11.746-0.371-15.022-0.371c-5.067,0-9.518,0.247-13.351,0.742l0.278-92.443
		c5.184,0.078,8.987,0.264,13.748,0.264c3.275,0,7.342-0.016,14.429,0c6.801,0.014,11.509-0.264,14.845-0.264
		c10.323,0,18.762,1.111,25.313,3.331c8.406,2.838,15.083,7.834,20.028,14.992c6.306,7.094,9.457,16.317,9.457,27.667
		C467.419,74.828,465.751,82.262,462.414,89.046z M463.249,54.905c-2.165-7.463-6.538-14.048-13.12-19.753
		c-6.584-5.705-13.709-9.238-21.373-10.595l-17.76-0.747l-38.894,0.098v86.415c3.214-0.37,6.862-0.556,10.94-0.556
		c3.462,0,8.747,0.186,15.856,0.556c7.107,0.371,12.425,0.557,15.948,0.557c16.504,0,28.682-3.978,36.532-11.935
		c9.088-9.313,13.631-19.954,13.631-31.921C465.01,62.954,464.421,58.915,463.249,54.905z M424.768,77.13
		c0.124,0.434,0.186,0.896,0.186,1.392c0,1.112-0.356,2.117-1.066,3.013c-0.711,0.896-1.622,1.407-2.735,1.529
		c-2.597-0.492-4.204-1.451-4.821-2.873c-0.063-0.433-0.093-0.834-0.093-1.205c0-2.164,0.988-3.74,2.967-4.73
		c0.371-0.061,0.742-0.092,1.113-0.092C422.172,74.164,423.656,75.153,424.768,77.13z M460.467,68.043
		c-0.928,7.543-3.093,14.157-6.491,19.842c-3.957,6.677-9.212,11.282-15.764,13.816c-3.648,1.421-6.338,2.379-8.065,2.874
		c-3.029,0.866-5.874,1.328-8.531,1.392l-0.464-1.113c14.525-2.535,24.603-7.82,30.228-15.855
		c3.832-5.501,6.306-12.485,7.418-20.955H460.467z"/>
	<path d="M561.625,63.129h-50.44c-0.557,1.498-0.835,3.246-0.835,5.241c0,1.997,0.278,3.68,0.835,5.053h17.895v11.589l-17.895,0.835
		v9.087l50.162,0.371v17.802h-89.662V20.755h89.662L561.625,63.129z M558.751,110.417V98.365h-49.514
		c-0.927-3.339-1.053-8.624-0.37-15.857h17.616v-6.211h-17.891c-0.435-1.359-0.714-2.967-0.839-4.822
		c-0.126-1.174-0.154-2.875-0.093-5.1c0.061-2.472,0.093-4.172,0.093-5.1l0.835-0.835h50.162V23.909h-84.471v86.508H558.751z
		 M516.84,29.563l-36.439,0.278l-0.278,30.228h-1.297V27.895c8.529-0.122,21.2,0.033,38.015,0.464V29.563z"/>
</g>
</svg>
