<?xml version="1.0" encoding="UTF-8" standalone="no"?>
<!-- Generator: Adobe Illustrator 13.0.0, SVG Export Plug-In . SVG Version: 6.00 Build 14948)  -->

<svg
   xmlns:dc="http://purl.org/dc/elements/1.1/"
   xmlns:cc="http://creativecommons.org/ns#"
   xmlns:rdf="http://www.w3.org/1999/02/22-rdf-syntax-ns#"
   xmlns:svg="http://www.w3.org/2000/svg"
   xmlns="http://www.w3.org/2000/svg"
   xmlns:sodipodi="http://sodipodi.sourceforge.net/DTD/sodipodi-0.dtd"
   xmlns:inkscape="http://www.inkscape.org/namespaces/inkscape"
   version="1.1"
   id="Layer_2_1_"
   x="0px"
   y="0px"
   width="566.929px"
   height="129.21px"
   viewBox="0 0 566.929 129.21"
   enable-background="new 0 0 566.929 129.21"
   xml:space="preserve"
   sodipodi:docname="All_games_udb_text_only_v2.svg"
   inkscape:version="0.92.0 r15299"><metadata
     id="metadata58"><rdf:RDF><cc:Work
         rdf:about=""><dc:format>image/svg+xml</dc:format><dc:type
           rdf:resource="http://purl.org/dc/dcmitype/StillImage" /><dc:title></dc:title></cc:Work></rdf:RDF></metadata><defs
     id="defs56" /><sodipodi:namedview
     pagecolor="#ffffff"
     bordercolor="#666666"
     borderopacity="1"
     objecttolerance="10"
     gridtolerance="10"
     guidetolerance="10"
     inkscape:pageopacity="0"
     inkscape:pageshadow="2"
     inkscape:window-width="1920"
     inkscape:window-height="1137"
     id="namedview54"
     showgrid="false"
     inkscape:zoom="1.1077225"
     inkscape:cx="416.8183"
     inkscape:cy="13.632838"
     inkscape:window-x="1912"
     inkscape:window-y="-8"
     inkscape:window-maximized="1"
     inkscape:current-layer="g5137" /><g
     transform="matrix(0.10252157,0,0,0.10252157,199.56464,0.76250092)"
     id="g5137"><g
       id="g4615"><g
         transform="matrix(1.0975706,0,0,1.0975706,-1181.1446,-52.504109)"
         id="g4598"><g
           id="g4582"><path
             sodipodi:nodetypes="sccssssss"
             inkscape:connector-curvature="0"
             id="rect5207"
             d="M 22.541566,311.66294 H 3725.2015 c 109.7821,0 190.7631,81.14813 168.5678,163.98197 l -79.8299,291.0433 c -20.001,72.9195 -100.4971,136.48517 -176.1099,136.48517 H -114.36133 c -75.6128,0 -156.4862,-63.56567 -136.4852,-136.48517 l 87.372,-318.5401 c 17.0436,-62.13726 82.886096,-136.48517 186.016096,-136.48517 z"
             style="color:#000000;clip-rule:nonzero;display:inline;overflow:visible;visibility:visible;opacity:1;isolation:auto;mix-blend-mode:normal;color-interpolation:sRGB;color-interpolation-filters:linearRGB;solid-color:#000000;solid-opacity:1;vector-effect:none;fill:#2285c8;fill-opacity:1;fill-rule:nonzero;stroke:none;stroke-width:13.65566254;stroke-linecap:round;stroke-linejoin:miter;stroke-miterlimit:4;stroke-dasharray:none;stroke-dashoffset:0;stroke-opacity:1;color-rendering:auto;image-rendering:auto;shape-rendering:auto;text-rendering:auto;enable-background:accumulate" /><g
             id="text5221"
             style="font-style:normal;font-variant:normal;font-weight:normal;font-stretch:normal;font-size:490.40808105px;line-height:306.5050354px;font-family:'namco regular';-inkscape-font-specification:'namco regular, ';letter-spacing:0px;word-spacing:0px;fill:#ffffff;fill-opacity:1;stroke:none;stroke-width:12.26020241px;stroke-linecap:butt;stroke-linejoin:miter;stroke-opacity:1"
             aria-label="GAMES"><path
               inkscape:connector-curvature="0"
               id="path4557"
               style="font-style:italic;font-variant:normal;font-weight:500;font-stretch:normal;font-size:468.19415283px;font-family:Nougat;-inkscape-font-specification:'Nougat Medium Italic';fill:#ffffff;fill-opacity:1;stroke-width:12.26020241px"
               d="m 2529.8144,586.59412 q -16.855,79.12481 -76.3157,132.03075 -59.4606,52.90594 -128.2852,52.90594 -62.2698,0 -101.5981,-36.05095 -38.8601,-36.51915 -38.8601,-95.97981 0,-17.79137 4.2137,-36.98733 14.9823,-70.69732 81.4658,-119.85771 59.4607,-44.01025 118.4531,-44.01025 31.3691,0 50.565,12.64124 l 7.0229,-5.61832 62.738,36.98733 -88.0205,75.84746 q -9.3638,-5.61833 -15.4504,-8.4275 -19.6641,-8.89569 -36.0509,-8.89569 -30.9008,0 -54.3105,21.53693 -20.6006,19.19596 -26.2189,44.94664 -0.9364,4.21375 -1.4046,7.9593 -0.4682,3.27736 -0.4682,7.49111 0,23.40971 16.855,36.51914 17.3232,13.10944 42.6057,13.10944 14.514,0 26.687,-6.08652 12.6413,-6.08653 22.0052,-16.3868 h -51.5014 l 38.8601,-82.87037 h 149.8222 q -0.9364,5.15014 -0.9364,7.49111 -1.4046,9.36388 -1.8728,11.70486 z" /><path
               inkscape:connector-curvature="0"
               id="path4559"
               style="font-style:italic;font-variant:normal;font-weight:500;font-stretch:normal;font-size:468.19415283px;font-family:Nougat;-inkscape-font-specification:'Nougat Medium Italic';fill:#ffffff;fill-opacity:1;stroke-width:12.26020241px"
               d="m 2810.3066,765.91248 h -106.2801 l 0.4682,-44.47845 h -90.8297 l -22.4733,44.47845 H 2488.189 L 2601.0238,531.8154 h -22.4733 l 49.6286,-86.14772 h 159.186 z m -108.1529,-128.7534 -4.6819,-95.04341 -45.4148,95.04341 z" /><path
               inkscape:connector-curvature="0"
               id="path4561"
               style="font-style:italic;font-variant:normal;font-weight:500;font-stretch:normal;font-size:468.19415283px;font-family:Nougat;-inkscape-font-specification:'Nougat Medium Italic';fill:#ffffff;fill-opacity:1;stroke-width:12.26020241px"
               d="m 3130.7782,765.91248 h -93.1707 l 37.9238,-178.38198 -71.6337,68.82454 -46.8195,-63.6744 -36.9873,173.23184 h -100.1935 l 47.2876,-222.39223 h -22.4734 l 43.0739,-97.85257 h 101.1299 l 44.0103,67.41995 67.42,-67.41995 h 98.3207 z" /><path
               inkscape:connector-curvature="0"
               id="path4563"
               style="font-style:italic;font-variant:normal;font-weight:500;font-stretch:normal;font-size:468.19415283px;font-family:Nougat;-inkscape-font-specification:'Nougat Medium Italic';fill:#ffffff;fill-opacity:1;stroke-width:12.26020241px"
               d="m 3463.7739,433.02643 -49.6286,112.3666 h -100.6617 l -3.7456,18.25957 h 117.5168 l -39.3283,82.40217 h -95.9798 l -4.2138,19.66416 h 115.644 l -44.9467,100.19355 h -191.9596 l 47.2876,-223.32862 h -22.4733 l 43.0739,-96.91618 h 132.9671 l 7.0229,-12.64125 z" /><path
               inkscape:connector-curvature="0"
               id="path4565"
               style="font-style:italic;font-variant:normal;font-weight:500;font-stretch:normal;font-size:468.19415283px;font-family:Nougat;-inkscape-font-specification:'Nougat Medium Italic';fill:#ffffff;fill-opacity:1;stroke-width:12.26020241px"
               d="m 3665.2144,661.97337 q -9.3638,43.07387 -44.9466,73.97468 -42.1375,36.51914 -103.9391,36.51914 -21.5369,0 -45.883,-6.08652 -32.3054,-7.9593 -59.4607,-25.28248 l 44.9467,-92.70245 q 35.5827,17.79138 50.0967,22.94152 14.5141,5.15013 29.4963,5.15013 21.0687,0 23.8779,-14.98221 2.3409,-10.76847 -24.3461,-20.60054 -39.7965,-14.98222 -52.906,-23.87791 -29.4962,-20.60054 -29.4962,-54.77871 0,-12.64124 2.341,-23.40971 9.3639,-44.47844 44.4784,-71.6337 35.1146,-27.15526 85.2114,-27.15526 8.8956,0 14.9822,0 6.0865,0 21.0687,1.87277 l 5.6183,-10.30027 80.5294,16.3868 -50.0967,101.59813 q -15.4505,-10.76847 -36.9874,-17.32319 -21.0687,-6.55471 -31.369,-6.55471 -9.8321,0 -16.855,3.74555 -7.0229,3.27736 -8.8957,11.23666 -1.8728,8.89569 24.8143,18.72776 36.9874,13.57763 51.5014,24.3461 28.5598,20.60054 28.5598,54.77872 0,12.64124 -2.341,23.4097 z" /></g></g><g
           id="g4573"><path
             style="color:#000000;clip-rule:nonzero;display:inline;overflow:visible;visibility:visible;opacity:1;isolation:auto;mix-blend-mode:normal;color-interpolation:sRGB;color-interpolation-filters:linearRGB;solid-color:#000000;solid-opacity:1;vector-effect:none;fill:#050608;fill-opacity:1;fill-rule:nonzero;stroke:none;stroke-width:24.72670746;stroke-linecap:round;stroke-linejoin:miter;stroke-miterlimit:4;stroke-dasharray:none;stroke-dashoffset:0;stroke-opacity:1;color-rendering:auto;image-rendering:auto;shape-rendering:auto;text-rendering:auto;enable-background:accumulate"
             d="M 520.93398,79.668492 H 1882.0155 c 138.9076,0 274.5207,147.305758 229.4344,311.680718 L 2006.7455,773.07958 C 1935.1853,1040.1461 1755.073,1146.1889 1611.8039,1150.7339 H 259.92825 c -136.91429,0 -283.354084,-115.1003 -247.137687,-247.13779 L 167.51028,339.52003 C 205.57281,197.46899 398.79289,83.797917 520.93398,79.668492 Z"
             id="path5211"
             inkscape:connector-curvature="0"
             sodipodi:nodetypes="cccccsscc" /><g
             id="text5215"
             style="font-style:normal;font-variant:normal;font-weight:normal;font-stretch:normal;font-size:390.1618042px;line-height:243.85112px;font-family:'namco regular';-inkscape-font-specification:'namco regular, ';letter-spacing:0px;word-spacing:0px;fill:#ed1e24;fill-opacity:1;stroke:none;stroke-width:9.75404453px;stroke-linecap:butt;stroke-linejoin:miter;stroke-opacity:1"
             transform="skewX(-3.4829607)"
             aria-label="ALL
"><path
               inkscape:connector-curvature="0"
               id="path4550"
               style="font-style:italic;font-variant:normal;font-weight:500;font-stretch:normal;font-size:1196.49621582px;font-family:Nougat;-inkscape-font-specification:'Nougat Medium Italic';fill:#ed1e24;fill-opacity:1;stroke-width:9.75404453px"
               d="M 981.37204,1024.403 H 709.7674 l 1.1965,-113.66719 H 478.84363 L 421.41181,1024.403 H 158.18265 L 446.53823,426.15485 H 389.10642 L 515.93501,205.99954 H 922.74373 Z M 704.98142,695.36649 693.01645,452.47776 576.95632,695.36649 Z" /><path
               inkscape:connector-curvature="0"
               id="path4552"
               style="font-style:italic;font-variant:normal;font-weight:500;font-stretch:normal;font-size:1196.49621582px;font-family:Nougat;-inkscape-font-specification:'Nougat Medium Italic';fill:#ed1e24;fill-opacity:1;stroke-width:9.75404453px"
               d="M 1488.0695,769.54926 1375.5989,1024.403 h -369.7174 l 122.0426,-573.12173 h -57.4318 l 108.8812,-245.28173 h 256.0502 L 1315.774,769.54926 Z" /><path
               inkscape:connector-curvature="0"
               id="path4554"
               style="font-style:italic;font-variant:normal;font-weight:500;font-stretch:normal;font-size:1196.49621582px;font-family:Nougat;-inkscape-font-specification:'Nougat Medium Italic';fill:#ed1e24;fill-opacity:1;stroke-width:9.75404453px"
               d="M 1950.777,769.54926 1838.3064,1024.403 H 1468.589 l 122.0427,-573.12173 h -57.4319 L 1642.081,205.99954 h 256.0502 l -119.6496,563.54972 z" /></g></g></g></g><g
       aria-label="ALL
"
       style="font-style:normal;font-variant:normal;font-weight:normal;font-stretch:normal;font-size:390.1618042px;line-height:243.85112px;font-family:'namco regular';-inkscape-font-specification:'namco regular, ';letter-spacing:0px;word-spacing:0px;fill:#ed1e24;fill-opacity:1;stroke:none;stroke-width:9.75404453px;stroke-linecap:butt;stroke-linejoin:miter;stroke-opacity:1"
       id="text4502" /></g></svg>