<?xml version="1.0" encoding="UTF-8" standalone="no"?>
<!-- Created with Inkscape (http://www.inkscape.org/) -->

<svg
   xmlns:dc="http://purl.org/dc/elements/1.1/"
   xmlns:cc="http://creativecommons.org/ns#"
   xmlns:rdf="http://www.w3.org/1999/02/22-rdf-syntax-ns#"
   xmlns:svg="http://www.w3.org/2000/svg"
   xmlns="http://www.w3.org/2000/svg"
   xmlns:xlink="http://www.w3.org/1999/xlink"
   xmlns:sodipodi="http://sodipodi.sourceforge.net/DTD/sodipodi-0.dtd"
   xmlns:inkscape="http://www.inkscape.org/namespaces/inkscape"
   width="397.32849"
   height="103.70829"
   viewBox="0 0 105.12649 27.439486"
   version="1.1"
   id="svg9136"
   inkscape:version="0.92.4 (5da689c313, 2019-01-14)"
   sodipodi:docname="system-fr.svg">
  <defs
     id="defs9130">
    <linearGradient
       inkscape:collect="always"
       id="linearGradient853">
      <stop
         style="stop-color:#000000;stop-opacity:1;"
         offset="0"
         id="stop849" />
      <stop
         style="stop-color:#000000;stop-opacity:0;"
         offset="1"
         id="stop851" />
    </linearGradient>
    <radialGradient
       inkscape:collect="always"
       xlink:href="#linearGradient853"
       id="radialGradient857"
       cx="60.35236"
       cy="253.12825"
       fx="60.35236"
       fy="253.12825"
       r="52.697178"
       gradientTransform="matrix(1,0,0,0.19039974,0,204.9327)"
       gradientUnits="userSpaceOnUse" />
  </defs>
  <sodipodi:namedview
     id="base"
     pagecolor="#ffffff"
     bordercolor="#666666"
     borderopacity="1.0"
     inkscape:pageopacity="0.0"
     inkscape:pageshadow="2"
     inkscape:zoom="1.979899"
     inkscape:cx="125.25974"
     inkscape:cy="98.781551"
     inkscape:document-units="px"
     inkscape:current-layer="layer1"
     showgrid="false"
     units="px"
     inkscape:window-width="1920"
     inkscape:window-height="1017"
     inkscape:window-x="1912"
     inkscape:window-y="-8"
     inkscape:window-maximized="1"
     fit-margin-top="0"
     fit-margin-left="0"
     fit-margin-right="0"
     fit-margin-bottom="0"
     inkscape:snap-global="false" />
  <metadata
     id="metadata9133">
    <rdf:RDF>
      <cc:Work
         rdf:about="">
        <dc:format>image/svg+xml</dc:format>
        <dc:type
           rdf:resource="http://purl.org/dc/dcmitype/StillImage" />
        <dc:title />
      </cc:Work>
    </rdf:RDF>
  </metadata>
  <g
     inkscape:label="Layer 1"
     inkscape:groupmode="layer"
     id="layer1"
     transform="translate(-10.547501,-271.9401)">
    <g
       aria-label="Joués récemment"
       style="font-style:normal;font-variant:normal;font-weight:bold;font-stretch:normal;font-size:28.22221947px;line-height:1.25;font-family:'Caflisch Script';-inkscape-font-specification:'Caflisch Script Bold';letter-spacing:0px;word-spacing:0px;fill:#333333;fill-opacity:1;stroke:none;stroke-width:0.79374999;stroke-miterlimit:4;stroke-dasharray:none;stroke-opacity:1"
       id="text819-7-1"
       transform="matrix(0.98247959,0,0,1.0874283,-4.8025645,13.876968)">
      <path
         style="font-style:normal;font-variant:normal;font-weight:bold;font-stretch:normal;font-size:20.46111107px;line-height:0;font-family:'Caflisch Script Pro';-inkscape-font-specification:'Caflisch Script Pro Bold';letter-spacing:-0.79374993px;fill:#333333;fill-opacity:1;stroke:none;stroke-width:0.79374999;stroke-miterlimit:4;stroke-dasharray:none;stroke-opacity:1"
         d="m 24.400391,243.22461 c -1.679845,0.28611 -4.860427,1.92741 -2.482422,3.72461 -1.098187,2.41304 -1.108272,6.83879 -3.265625,8.0957 -2.859287,-1.72574 -4.31685,3.13557 -1.09375,3.45899 6.103964,0.78977 7.05549,-7.21919 8.287109,-11.42188 1.248742,-1.71038 1.162825,-3.76707 -1.445312,-3.85742 z"
         id="path948"
         inkscape:connector-curvature="0" />
      <path
         style="font-style:normal;font-variant:normal;font-weight:bold;font-stretch:normal;font-size:20.46111107px;line-height:0;font-family:'Caflisch Script Pro';-inkscape-font-specification:'Caflisch Script Pro Bold';letter-spacing:-0.79374993px;fill:#333333;fill-opacity:1;stroke:none;stroke-width:0.79374999;stroke-miterlimit:4;stroke-dasharray:none;stroke-opacity:1"
         d="m 28.554688,245.32812 c -3.420126,0.72658 -5.662533,5.10611 -4.886719,8.45313 3.490836,4.52657 11.043403,-3.65261 6.714843,-7.28906 -0.205331,-0.7873 -1.04933,-1.23323 -1.828124,-1.16407 z"
         id="path950"
         inkscape:connector-curvature="0" />
      <path
         style="font-style:normal;font-variant:normal;font-weight:bold;font-stretch:normal;font-size:20.46111107px;line-height:0;font-family:'Caflisch Script Pro';-inkscape-font-specification:'Caflisch Script Pro Bold';letter-spacing:-0.79374993px;fill:#333333;fill-opacity:1;stroke:none;stroke-width:0.79374999;stroke-miterlimit:4;stroke-dasharray:none;stroke-opacity:1"
         d="m 37.480469,245.5957 c -1.766635,0.15138 -1.888211,3.25669 -2.828125,0.72266 -3.555921,-2.12634 -4.737749,4.45651 -5.046875,6.90625 0.333033,3.31458 4.147873,0.8002 4.914062,0.75781 2.366971,3.14787 6.706135,-1.4299 7.859375,-3.7207 0.942045,-2.83152 -2.914912,-2.29125 -3.498047,-0.0586 -1.534571,0.87366 2.42729,-4.0652 -0.865234,-4.55078 -0.172098,-0.0514 -0.356272,-0.0751 -0.535156,-0.0566 z"
         id="path952"
         inkscape:connector-curvature="0" />
      <path
         style="font-style:normal;font-variant:normal;font-weight:bold;font-stretch:normal;font-size:20.46111107px;line-height:0;font-family:'Caflisch Script Pro';-inkscape-font-specification:'Caflisch Script Pro Bold';letter-spacing:-0.79374993px;fill:#333333;fill-opacity:1;stroke:none;stroke-width:0.79374999;stroke-miterlimit:4;stroke-dasharray:none;stroke-opacity:1"
         d="m 44.931641,241.74609 c -2.945138,0.71698 -3.140625,4.49531 -5.353516,6.08399 -2.261189,2.1673 -2.275888,7.7636 1.857422,7.26562 2.76658,-0.45808 7.628207,-2.72292 6.792969,-6.05664 -1.360276,-1.54952 -2.966408,1.90102 -2.292969,-0.96289 -0.265828,-1.56814 -2.361067,-1.81132 -0.07422,-2.80469 2.000383,-1.00915 1.298445,-3.59511 -0.929686,-3.52539 z"
         id="path954"
         inkscape:connector-curvature="0" />
      <path
         style="font-style:normal;font-variant:normal;font-weight:bold;font-stretch:normal;font-size:20.46111107px;line-height:0;font-family:'Caflisch Script Pro';-inkscape-font-specification:'Caflisch Script Pro Bold';letter-spacing:-0.79374993px;fill:#333333;fill-opacity:1;stroke:none;stroke-width:0.79374999;stroke-miterlimit:4;stroke-dasharray:none;stroke-opacity:1"
         d="m 49.505859,245.6543 c -3.051389,-0.10242 -5.700848,3.53412 -3.972656,6.00781 -5.446104,3.65311 5.220835,5.49734 4.484375,0.24805 -0.932868,-1.83463 -1.692351,-2.97803 1.003906,-2.90821 2.140632,-1.04137 0.435147,-3.6601 -1.515625,-3.34765 z"
         id="path956"
         inkscape:connector-curvature="0" />
      <path
         style="font-style:normal;font-variant:normal;font-weight:bold;font-stretch:normal;font-size:20.46111107px;line-height:0;font-family:'Caflisch Script Pro';-inkscape-font-specification:'Caflisch Script Pro Bold';letter-spacing:-0.79374993px;fill:#333333;fill-opacity:1;stroke:none;stroke-width:0.79374999;stroke-miterlimit:4;stroke-dasharray:none;stroke-opacity:1"
         d="m 54.820312,245.5957 c -3.44412,0.80396 -2.585474,5.4197 -3.263671,7.99219 1.452697,3.21999 4.638555,0.26993 4.923828,-2.05664 0.589165,-2.17876 5.549763,-2.24982 3.498047,-5.39258 -1.826054,-1.63322 -3.359453,1.38875 -4.792969,-0.52344 -0.121587,-0.005 -0.243097,-0.0538 -0.365235,-0.0195 z"
         id="path958"
         inkscape:connector-curvature="0" />
      <path
         style="font-style:normal;font-variant:normal;font-weight:bold;font-stretch:normal;font-size:20.46111107px;line-height:0;font-family:'Caflisch Script Pro';-inkscape-font-specification:'Caflisch Script Pro Bold';letter-spacing:-0.79374993px;fill:#333333;fill-opacity:1;stroke:none;stroke-width:0.79374999;stroke-miterlimit:4;stroke-dasharray:none;stroke-opacity:1"
         d="m 64.056641,241.74609 c -3.014779,0.98036 -3.441281,4.74386 -5.703125,6.62696 -2.320054,2.38628 -1.25183,7.7482 2.734375,6.65625 2.787773,0.25343 9.642949,-5.90008 4.552734,-6.17188 -1.395525,1.85953 0.235728,-2.61237 -2.013672,-2.55273 2.269458,-1.00291 4.171412,-4.09623 0.429688,-4.5586 z"
         id="path960"
         inkscape:connector-curvature="0" />
      <path
         style="font-style:normal;font-variant:normal;font-weight:bold;font-stretch:normal;font-size:20.46111107px;line-height:0;font-family:'Caflisch Script Pro';-inkscape-font-specification:'Caflisch Script Pro Bold';letter-spacing:-0.79374993px;fill:#333333;fill-opacity:1;stroke:none;stroke-width:0.79374999;stroke-miterlimit:4;stroke-dasharray:none;stroke-opacity:1"
         d="m 68.978516,245.67188 c -4.426164,-0.22698 -8.461522,8.15618 -3.03711,9.43359 3.011987,-0.0926 7.480579,-2.56293 7.205078,-5.91211 -2.062884,-2.21556 -4.233938,3.19481 -5.865234,2.11914 -0.194643,-2.8576 4.189313,-0.53459 3.914062,-3.86133 -0.07377,-1.09139 -1.167274,-1.8519 -2.216796,-1.77929 z"
         id="path962"
         inkscape:connector-curvature="0" />
      <path
         style="font-style:normal;font-variant:normal;font-weight:bold;font-stretch:normal;font-size:20.46111107px;line-height:0;font-family:'Caflisch Script Pro';-inkscape-font-specification:'Caflisch Script Pro Bold';letter-spacing:-0.79374993px;fill:#333333;fill-opacity:1;stroke:none;stroke-width:0.79374999;stroke-miterlimit:4;stroke-dasharray:none;stroke-opacity:1"
         d="m 73.462891,245.57227 c -3.771215,0.64549 -7.115486,8.29903 -2.164063,9.52148 3.155854,0.0178 7.97791,-2.40522 7.705078,-5.97461 -1.739169,-1.44044 -2.465218,1.04495 -2.599609,-1.96289 -0.752331,-0.72498 -1.880721,-1.47192 -2.941406,-1.58398 z"
         id="path964"
         inkscape:connector-curvature="0" />
      <path
         style="font-style:normal;font-variant:normal;font-weight:bold;font-stretch:normal;font-size:20.46111107px;line-height:0;font-family:'Caflisch Script Pro';-inkscape-font-specification:'Caflisch Script Pro Bold';letter-spacing:-0.79374993px;fill:#333333;fill-opacity:1;stroke:none;stroke-width:0.79374999;stroke-miterlimit:4;stroke-dasharray:none;stroke-opacity:1"
         d="m 77.439453,245.61523 c -2.554343,1.04554 -2.071635,5.04161 -2.736328,7.33789 -0.04497,3.49487 3.9891,1.17823 4.169922,0.70508 0.624487,3.12468 4.057634,-0.35635 4.380859,-0.2207 2.178584,4.23535 7.325854,-0.61553 7.857422,-3.66602 -0.552801,-3.82255 -4.189577,1.86437 -4.248047,0.99024 1.105714,-1.54179 2.378756,-4.77334 -0.722656,-4.89258 -1.546964,0.29785 -2.070088,2.50228 -2.761719,0.22461 -2.107008,-1.7662 -3.519833,2.863 -4.671875,-0.0488 -0.359887,-0.2753 -0.808407,-0.46301 -1.267578,-0.42969 z"
         id="path966"
         inkscape:connector-curvature="0" />
      <path
         style="font-style:normal;font-variant:normal;font-weight:bold;font-stretch:normal;font-size:20.46111107px;line-height:0;font-family:'Caflisch Script Pro';-inkscape-font-specification:'Caflisch Script Pro Bold';letter-spacing:-0.79374993px;fill:#333333;fill-opacity:1;stroke:none;stroke-width:0.79374999;stroke-miterlimit:4;stroke-dasharray:none;stroke-opacity:1"
         d="m 89.644531,245.61523 c -2.553796,1.04873 -2.077103,5.04707 -2.734375,7.34766 -0.02607,3.4876 3.965824,1.16116 4.167969,0.69531 0.625095,3.12363 4.057453,-0.35571 4.380859,-0.2207 2.178784,4.23507 7.325756,-0.61533 7.857426,-3.66602 -0.55322,-3.82316 -4.188289,1.8648 -4.248051,0.99024 1.105031,-1.54175 2.379961,-4.77449 -0.722656,-4.89258 -1.54677,0.3006 -2.069328,2.50111 -2.759765,0.22656 -2.10626,-1.77227 -3.521876,2.86236 -4.673829,-0.0508 -0.359887,-0.2753 -0.808406,-0.46301 -1.267578,-0.42969 z"
         id="path968"
         inkscape:connector-curvature="0" />
      <path
         style="font-style:normal;font-variant:normal;font-weight:bold;font-stretch:normal;font-size:20.46111107px;line-height:0;font-family:'Caflisch Script Pro';-inkscape-font-specification:'Caflisch Script Pro Bold';letter-spacing:-0.79374993px;fill:#333333;fill-opacity:1;stroke:none;stroke-width:0.79374999;stroke-miterlimit:4;stroke-dasharray:none;stroke-opacity:1"
         d="m 103.88477,245.57227 c -3.77049,0.64667 -7.115822,8.29867 -2.16407,9.52148 3.15591,0.0176 7.97792,-2.40503 7.70508,-5.97461 -1.73894,-1.441 -2.46482,1.04482 -2.59961,-1.96289 -0.75233,-0.72498 -1.88072,-1.47192 -2.9414,-1.58398 z"
         id="path970"
         inkscape:connector-curvature="0" />
      <path
         style="font-style:normal;font-variant:normal;font-weight:bold;font-stretch:normal;font-size:20.46111107px;line-height:0;font-family:'Caflisch Script Pro';-inkscape-font-specification:'Caflisch Script Pro Bold';letter-spacing:-0.79374993px;fill:#333333;fill-opacity:1;stroke:none;stroke-width:0.79374999;stroke-miterlimit:4;stroke-dasharray:none;stroke-opacity:1"
         d="m 108.90039,245.30859 c -3.17549,1.00682 -3.55506,5.85077 -3.47266,8.64258 1.38818,2.80372 3.74677,-1.16259 4.07227,-1.24023 0.21183,4.11794 5.48822,2.56676 6.72656,-0.11524 1.75074,-1.00485 2.00628,-5.3601 -0.71289,-3.63672 -1.33139,1.80017 -3.15684,3.30988 -1.45898,0.0684 2.32892,-2.56831 -1.77293,-5.00649 -3.24414,-2.35937 -0.296,-0.76067 -1.0651,-1.40804 -1.91016,-1.35938 z"
         id="path972"
         inkscape:connector-curvature="0" />
      <path
         style="font-style:normal;font-variant:normal;font-weight:bold;font-stretch:normal;font-size:20.46111107px;line-height:0;font-family:'Caflisch Script Pro';-inkscape-font-specification:'Caflisch Script Pro Bold';letter-spacing:-0.79374993px;fill:#333333;fill-opacity:1;stroke:none;stroke-width:0.79374999;stroke-miterlimit:4;stroke-dasharray:none;stroke-opacity:1"
         d="m 118.23242,243.22266 c -2.59978,0.53825 -2.18378,3.90771 -4.73047,4.5 -0.83631,1.89955 1.80776,2.60965 0.0586,4.62109 -0.6781,4.86714 8.17921,2.33908 6.93164,-1.32031 -1.2393,-1.40532 -3.92763,1.8679 -2.25977,-1.30664 1.93503,0.44266 6.38846,-1.93545 3.10742,-3.35157 -3.21667,1.16232 0.54051,-3.04645 -3.10742,-3.14257 z"
         id="path974"
         inkscape:connector-curvature="0" />
    </g>
    <g
       aria-label="Joués récemment"
       style="font-style:normal;font-variant:normal;font-weight:bold;font-stretch:normal;font-size:28.22221947px;line-height:1.25;font-family:'Caflisch Script';-inkscape-font-specification:'Caflisch Script Bold';letter-spacing:0px;word-spacing:0px;fill:#f4c401;fill-opacity:1;stroke:none;stroke-width:0.79374999;stroke-miterlimit:4;stroke-dasharray:none;stroke-opacity:1"
       id="text819-7"
       transform="matrix(0.98247959,0,0,1.0874283,2.4185738,0.21705427)">
      <path
         d="m 17.012917,256.80529 q 0.347839,0 0.675216,0.18415 0.347839,0.18415 0.450145,0.45015 0.102305,0.24553 0,0.42968 -0.08185,0.18415 -0.18415,0.28646 -0.102306,0.1023 -0.225072,0.30691 -0.102306,0.20462 -0.18415,0.42969 -0.08185,0.22507 -0.163689,0.4706 -0.08184,0.22508 -0.225073,0.69568 -0.122766,0.45015 -0.347838,1.24813 -0.204612,0.79798 -0.572912,2.14842 -0.511527,1.86196 -1.043516,3.19193 -0.511528,1.32997 -1.063978,1.9438 -0.470606,0.53199 -0.92075,0.79799 -0.450144,0.28645 -0.613833,0.3683 -0.204611,0.0818 -0.429684,0.16369 -0.225072,0.1023 -0.388761,0.14322 -0.225072,0.0614 -0.429683,0.12277 -0.204611,0.0614 -0.388761,0.0614 -0.286456,0 -0.654756,-0.12276 -0.3682998,-0.12277 -0.6956776,-0.28646 -0.2046111,-0.1023 -0.3683,-0.38876 -0.1636889,-0.26599 -0.1636889,-0.49107 0,-0.24553 0.2864556,-0.42968 0.2659944,-0.18415 0.5319889,-0.18415 0.245533,0 0.593372,0.10231 0.327378,0.12276 0.470606,0.20461 0.102305,0.0614 0.245533,0.1023 0.122767,0.0614 0.286456,0.0614 0.163689,0 0.3683,-0.12277 0.225072,-0.10231 0.491066,-0.34784 0.286456,-0.34784 0.511528,-0.79798 0.245533,-0.45015 0.470606,-1.08444 0.265994,-0.7366 0.491066,-1.43228 0.245534,-0.71614 0.491067,-1.55504 0.265994,-0.85937 0.55245,-1.90289 0.306917,-1.06397 0.716139,-2.51671 0.02046,-0.16369 -0.143228,-0.18415 -0.347839,-0.0614 -0.634294,-0.266 -0.265995,-0.22507 -0.265995,-0.49106 0,-0.18415 0.102306,-0.28646 0.122766,-0.12277 0.265994,-0.18415 0.163689,-0.0818 0.347839,-0.12277 0.204611,-0.0409 0.470606,-0.0818 0.225072,-0.0409 0.347839,-0.10231 0.122766,-0.0614 0.306916,-0.24553 0.122767,-0.10231 0.265995,-0.18415 0.143227,-0.10231 0.3683,-0.10231 z"
         style="font-style:normal;font-variant:normal;font-weight:bold;font-stretch:normal;font-size:20.46111107px;line-height:0;font-family:'Caflisch Script Pro';-inkscape-font-specification:'Caflisch Script Pro Bold';letter-spacing:-0.79374993px;fill:#f4c401;fill-opacity:1;stroke:none;stroke-width:0.79374999;stroke-miterlimit:4;stroke-dasharray:none;stroke-opacity:1"
         id="path1005"
         inkscape:connector-curvature="0" />
      <path
         d="m 16.862744,265.03066 q 0,-0.40922 0.102306,-0.87983 0.102306,-0.4706 0.388761,-1.14582 0.122767,-0.26599 0.265995,-0.53199 0.143227,-0.26599 0.286455,-0.51153 0.163689,-0.24553 0.286456,-0.42968 0.143227,-0.20461 0.245533,-0.32738 0.122767,-0.16369 0.225072,-0.32737 0.102306,-0.16369 0.122767,-0.45015 0.02046,-0.18415 0.08184,-0.30692 0.08184,-0.12276 0.18415,-0.24553 0.245534,-0.24553 0.531989,-0.24553 0.204611,0 0.327378,-0.0614 0.122767,-0.0818 0.286456,-0.24553 0.409222,-0.40922 0.941211,-0.40922 0.286455,0 0.450144,0.0818 0.163689,0.0819 0.245533,0.20461 0.08185,0.12277 0.102306,0.266 0.02046,0.14323 0.02046,0.24553 0,0.10231 0.02046,0.16369 0.04092,0.0409 0.143228,0.0818 0.55245,0.28645 0.777522,0.87982 0.245534,0.59338 0.245534,1.18675 0,0.61383 -0.265995,1.32997 -0.245533,0.69568 -0.879828,1.41182 -0.7366,0.87982 -1.718733,1.43227 -0.961672,0.55245 -2.066572,0.55245 -0.55245,0 -0.961672,-0.49106 -0.388762,-0.51153 -0.388762,-1.22767 z m 1.923345,-0.34784 q 0,0.32738 0.143228,0.51153 0.143227,0.16369 0.286455,0.16369 0.204611,0 0.450145,-0.12277 0.265994,-0.14323 0.55245,-0.4706 0.225072,-0.24554 0.450144,-0.6343 0.225072,-0.38876 0.409222,-0.81844 0.18415,-0.42969 0.306917,-0.81845 0.122767,-0.40922 0.122767,-0.67521 0,-0.38876 -0.122767,-0.7366 -0.102306,-0.34784 -0.388761,-0.34784 -0.102306,0 -0.245533,0.12276 -0.122767,0.10231 -0.225073,0.22508 -0.347839,0.40922 -0.675216,0.90029 -0.306917,0.49106 -0.55245,0.98213 -0.225073,0.49107 -0.3683,0.94121 -0.143228,0.45014 -0.143228,0.77752 z"
         style="font-style:normal;font-variant:normal;font-weight:bold;font-stretch:normal;font-size:20.46111107px;line-height:0;font-family:'Caflisch Script Pro';-inkscape-font-specification:'Caflisch Script Pro Bold';letter-spacing:-0.79374993px;fill:#f4c401;fill-opacity:1;stroke:none;stroke-width:0.79374999;stroke-miterlimit:4;stroke-dasharray:none;stroke-opacity:1"
         id="path1007"
         inkscape:connector-curvature="0" />
      <path
         d="m 29.824924,264.94882 q 0.306917,0 0.7366,-0.266 0.450144,-0.26599 0.961672,-0.69568 0.531989,-0.45014 1.084439,-1.00259 0.55245,-0.57291 1.084439,-1.14582 0.122767,-0.12277 0.225072,-0.0614 0.102306,0.0614 0.102306,0.266 0,0.18415 -0.102306,0.49107 -0.102305,0.30691 -0.327378,0.59337 -0.593372,0.77752 -1.1049,1.30951 -0.511527,0.53199 -0.961672,0.90029 -0.429683,0.3683 -0.797983,0.59337 -0.347839,0.22507 -0.613834,0.34784 -0.429683,0.22507 -0.838905,0.32738 -0.388761,0.1023 -0.613833,0.1023 -0.470606,0 -0.716139,-0.49106 -0.225073,-0.49107 -0.04092,-1.39136 0.04092,-0.24553 0.08184,-0.42968 0.06138,-0.18415 0.102305,-0.34784 0.04092,-0.16369 -0.04092,-0.22507 -0.06138,-0.0614 -0.163689,0.0409 -0.122766,0.12276 -0.429683,0.40922 -0.286456,0.28646 -0.695678,0.65476 -0.388761,0.34783 -0.859366,0.71613 -0.470606,0.3683 -0.92075,0.65476 -0.327378,0.20461 -0.593373,0.26599 -0.245533,0.0818 -0.470605,0.0818 -0.327378,0 -0.593372,-0.38876 -0.265995,-0.40922 -0.265995,-0.90029 0,-0.12277 0.02046,-0.28646 0.02046,-0.18415 0.08185,-0.45014 0.06138,-0.266 0.18415,-0.65476 0.122766,-0.38876 0.347839,-0.96167 0.3683,-1.1049 0.777522,-1.9438 0.429683,-0.85937 0.675216,-1.32998 0.143228,-0.22507 0.286456,-0.30691 0.163689,-0.10231 0.347839,-0.10231 0.388761,0 0.695678,0.32738 0.327377,0.30692 0.327377,0.65475 0,0.20462 -0.18415,0.51153 -0.163688,0.30692 -0.306916,0.49107 -0.163689,0.20461 -0.327378,0.42968 -0.163689,0.22507 -0.265994,0.42969 -0.122767,0.22507 -0.265995,0.57291 -0.122767,0.32737 -0.306917,0.96167 -0.163688,0.49107 -0.102305,0.69568 0.06138,0.18415 0.245533,0.18415 0.327378,0 1.780117,-1.57551 0.3683,-0.42968 0.695678,-0.87983 0.327377,-0.4706 0.613833,-0.90029 0.286456,-0.45014 0.511528,-0.79798 0.225072,-0.3683 0.3683,-0.59337 0.245533,-0.3683 0.429683,-0.51153 0.204611,-0.14323 0.388761,-0.14323 0.18415,0 0.3683,0.12277 0.18415,0.10231 0.306917,0.26599 0.122767,0.16369 0.163689,0.3683 0.04092,0.20462 -0.04092,0.40923 -0.06138,0.14322 -0.163689,0.32737 -0.08184,0.18415 -0.245534,0.49107 -0.163689,0.32738 -0.327377,0.7366 -0.143228,0.38876 -0.265995,0.81845 -0.122767,0.40922 -0.225072,0.79798 -0.08185,0.38876 -0.122767,0.71614 -0.04092,0.34784 0.02046,0.53199 0.06138,0.18415 0.286456,0.18415 z"
         style="font-style:normal;font-variant:normal;font-weight:bold;font-stretch:normal;font-size:20.46111107px;line-height:0;font-family:'Caflisch Script Pro';-inkscape-font-specification:'Caflisch Script Pro Bold';letter-spacing:-0.79374993px;fill:#f4c401;fill-opacity:1;stroke:none;stroke-width:0.79374999;stroke-miterlimit:4;stroke-dasharray:none;stroke-opacity:1"
         id="path1009"
         inkscape:connector-curvature="0" />
      <path
         d="m 31.492901,264.68282 q 0,-0.69568 0.3683,-1.71873 0.3683,-1.02306 1.043517,-2.00519 0.143228,-0.20461 0.409222,-0.51153 0.265995,-0.32738 0.572911,-0.59337 0.327378,-0.28646 0.675217,-0.49107 0.347839,-0.20461 0.675217,-0.20461 0.286455,0 0.450144,0.12277 0.163689,0.1023 0.265995,0.28645 0.122766,0.16369 0.306916,0.18415 0.531989,0.0409 0.859367,0.3683 0.327378,0.30692 0.327378,0.90029 0,0.55245 -0.245534,1.0026 -0.225072,0.42968 -0.531988,0.77752 -0.327378,0.32738 -0.879828,0.65476 -0.531989,0.30691 -1.370895,0.30691 -0.163689,0 -0.327377,-0.0409 -0.163689,-0.0614 -0.306917,-0.12277 -0.18415,-0.0818 -0.265995,0.10231 -0.08184,0.16369 -0.122766,0.30692 -0.04092,0.14322 -0.04092,0.3683 0,0.34783 0.225072,0.55245 0.245533,0.20461 0.695678,0.20461 0.450144,0 1.023055,-0.14323 0.593372,-0.14323 1.248128,-0.45015 0.675217,-0.32737 1.411817,-0.85936 0.7366,-0.53199 1.514122,-1.32997 0.163689,-0.16369 0.286455,-0.16369 0.143228,0 0.204611,0.1023 0.08185,0.14323 0,0.38876 -0.06138,0.24554 -0.265994,0.51153 -0.531989,0.67522 -1.248128,1.30951 -0.716139,0.6343 -1.555044,1.12536 -0.818445,0.49107 -1.739195,0.79799 -0.900289,0.28645 -1.800577,0.28645 -0.347839,0 -0.695678,-0.14323 -0.327378,-0.12276 -0.593372,-0.38876 -0.265995,-0.26599 -0.429684,-0.63429 -0.143228,-0.3683 -0.143228,-0.85937 z m 2.76225,-2.10749 q 0.245534,0 0.511528,-0.14323 0.286456,-0.16369 0.511528,-0.38876 0.245533,-0.22507 0.388761,-0.47061 0.163689,-0.26599 0.163689,-0.49106 0,-0.22508 -0.143228,-0.32738 -0.122766,-0.12277 -0.327378,-0.12277 -0.163688,0 -0.347838,0.16369 -0.18415,0.16369 -0.388762,0.40922 -0.18415,0.24554 -0.347838,0.53199 -0.163689,0.28646 -0.245534,0.53199 -0.06138,0.18415 -0.02046,0.24553 0.04092,0.0614 0.245533,0.0614 z m 0.572912,-4.15361 q 0,-0.0818 0.04092,-0.20461 0.06138,-0.14323 0.143228,-0.24553 0.286455,-0.32738 0.634294,-0.81845 0.3683,-0.49106 0.961672,-1.26859 0.18415,-0.26599 0.347839,-0.40922 0.163689,-0.14323 0.511528,-0.14323 0.327378,0 0.572911,0.12277 0.245533,0.12277 0.409222,0.32738 0.306917,0.40922 -0.18415,0.8389 -1.186744,1.02306 -1.882422,1.4732 -0.675217,0.42969 -1.043517,0.51153 -0.18415,0.0409 -0.347839,0.0205 -0.163688,-0.0409 -0.163688,-0.20461 z"
         style="font-style:normal;font-variant:normal;font-weight:bold;font-stretch:normal;font-size:20.46111107px;line-height:0;font-family:'Caflisch Script Pro';-inkscape-font-specification:'Caflisch Script Pro Bold';letter-spacing:-0.79374993px;fill:#f4c401;fill-opacity:1;stroke:none;stroke-width:0.79374999;stroke-miterlimit:4;stroke-dasharray:none;stroke-opacity:1"
         id="path1011"
         inkscape:connector-curvature="0" />
      <path
         d="m 42.050911,259.24017 q 0.388761,0 0.634294,0.0818 0.245534,0.0614 0.450145,0.20461 0.204611,0.14323 0.265994,0.30692 0.08185,0.14323 0.08185,0.32738 0,0.28645 -0.204611,0.42968 -0.18415,0.12277 -0.450145,0.12277 -0.470605,0 -0.961672,0.1023 -0.470606,0.0818 -0.859367,0.24554 -0.388761,0.16368 -0.634294,0.3683 -0.225072,0.20461 -0.225072,0.45014 0,0.28646 0.163689,0.63429 0.18415,0.32738 0.450144,0.67522 0.347839,0.45015 0.55245,0.87983 0.225072,0.42968 0.225072,0.8389 0,0.22508 -0.163689,0.55245 -0.163689,0.32738 -0.347839,0.49107 -0.102305,0.10231 -0.286455,0.22507 -0.18415,0.10231 -0.409222,0.22508 -0.204611,0.12276 -0.429684,0.22507 -0.204611,0.12276 -0.3683,0.18415 -0.470605,0.18415 -0.777522,0.18415 -0.204611,0 -0.450144,-0.0614 -0.225073,-0.0409 -0.429684,-0.14322 -0.204611,-0.10231 -0.3683,-0.24554 -0.143227,-0.14322 -0.163689,-0.30691 0,-0.10231 0.02046,-0.20461 0.04092,-0.12277 0.143227,-0.22508 0.225073,-0.24553 0.409223,-0.3683 0.18415,-0.14322 0.327377,-0.20461 0.265995,-0.14323 0.511528,0.0409 0.163689,0.0614 0.265995,0.10231 0.122766,0.0205 0.347838,0.0205 0.204612,0 0.306917,-0.0818 0.122767,-0.10231 0.122767,-0.20461 0,-0.16369 -0.122767,-0.40923 -0.122767,-0.26599 -0.347839,-0.55245 -0.163689,-0.20461 -0.3683,-0.55245 -0.204611,-0.3683 -0.306916,-0.59337 -0.08185,-0.18415 -0.143228,-0.40922 -0.06138,-0.24553 -0.06138,-0.45015 0,-0.55245 0.388762,-1.1049 0.388761,-0.55245 0.838905,-0.90028 0.245533,-0.20462 0.531989,-0.3683 0.306917,-0.16369 0.634294,-0.28646 0.327378,-0.12277 0.634295,-0.18415 0.327378,-0.0614 0.572911,-0.0614 z"
         style="font-style:normal;font-variant:normal;font-weight:bold;font-stretch:normal;font-size:20.46111107px;line-height:0;font-family:'Caflisch Script Pro';-inkscape-font-specification:'Caflisch Script Pro Bold';letter-spacing:-0.79374993px;fill:#f4c401;fill-opacity:1;stroke:none;stroke-width:0.79374999;stroke-miterlimit:4;stroke-dasharray:none;stroke-opacity:1"
         id="path1013"
         inkscape:connector-curvature="0" />
      <path
         d="m 51.172884,259.19924 q 0.347839,0 0.593373,0.24554 0.245533,0.22507 0.18415,0.55245 -0.04092,0.24553 -0.18415,0.51153 -0.122767,0.26599 -0.286456,0.42968 -0.3683,0.42968 -0.634294,0.26599 -0.102306,-0.0614 -0.245534,-0.1023 -0.122766,-0.0614 -0.245533,-0.0614 -0.163689,0 -0.450144,0.22508 -0.265995,0.22507 -0.675217,0.7366 -0.3683,0.4706 -0.757061,1.04351 -0.3683,0.55245 -0.695678,1.1049 -0.306917,0.55245 -0.55245,1.0026 -0.225072,0.45014 -0.327378,0.69568 -0.306916,0.79798 -0.838905,0.79798 -0.470606,0 -0.879828,-0.47061 -0.163689,-0.18415 -0.204611,-0.3683 -0.04092,-0.20461 0.06138,-0.51152 0.18415,-0.49107 0.306917,-1.06398 0.143228,-0.57291 0.225072,-1.12536 0.102306,-0.55245 0.163689,-1.06398 0.06138,-0.51153 0.102305,-0.90029 0.08184,-0.69568 0.225073,-0.98213 0.143227,-0.28646 0.429683,-0.51153 0.204611,-0.16369 0.450144,-0.30692 0.245534,-0.16369 0.470606,-0.16369 0.286456,0 0.491067,0.266 0.204611,0.24553 0.204611,0.53199 0,0.14322 -0.102306,0.32737 -0.102305,0.16369 -0.204611,0.34784 -0.08184,0.14323 -0.18415,0.40923 -0.08184,0.24553 -0.18415,0.55245 -0.08184,0.28645 -0.163689,0.59337 -0.06138,0.30691 -0.102305,0.55245 -0.04092,0.16369 0.04092,0.16369 0.08184,-0.0205 0.18415,-0.16369 0.08184,-0.12277 0.245533,-0.3683 0.18415,-0.266 0.409222,-0.57291 0.225073,-0.32738 0.470606,-0.65476 0.265994,-0.34784 0.531989,-0.63429 0.470605,-0.51153 0.982133,-0.92075 0.511528,-0.40923 1.145822,-0.40923 z"
         style="font-style:normal;font-variant:normal;font-weight:bold;font-stretch:normal;font-size:20.46111107px;line-height:0;font-family:'Caflisch Script Pro';-inkscape-font-specification:'Caflisch Script Pro Bold';letter-spacing:-0.79374993px;fill:#f4c401;fill-opacity:1;stroke:none;stroke-width:0.79374999;stroke-miterlimit:4;stroke-dasharray:none;stroke-opacity:1"
         id="path1015"
         inkscape:connector-curvature="0" />
      <path
         d="m 50.617314,264.68282 q 0,-0.69568 0.3683,-1.71873 0.3683,-1.02306 1.043517,-2.00519 0.143227,-0.20461 0.409222,-0.51153 0.265994,-0.32738 0.572911,-0.59337 0.327378,-0.28646 0.675217,-0.49107 0.347839,-0.20461 0.675216,-0.20461 0.286456,0 0.450145,0.12277 0.163689,0.1023 0.265994,0.28645 0.122767,0.16369 0.306917,0.18415 0.531989,0.0409 0.859367,0.3683 0.327377,0.30692 0.327377,0.90029 0,0.55245 -0.245533,1.0026 -0.225072,0.42968 -0.531989,0.77752 -0.327378,0.32738 -0.879828,0.65476 -0.531989,0.30691 -1.370894,0.30691 -0.163689,0 -0.327378,-0.0409 -0.163689,-0.0614 -0.306917,-0.12277 -0.18415,-0.0818 -0.265994,0.10231 -0.08184,0.16369 -0.122767,0.30692 -0.04092,0.14322 -0.04092,0.3683 0,0.34783 0.225072,0.55245 0.245534,0.20461 0.695678,0.20461 0.450145,0 1.023056,-0.14323 0.593372,-0.14323 1.248127,-0.45015 0.675217,-0.32737 1.411817,-0.85936 0.7366,-0.53199 1.514122,-1.32997 0.163689,-0.16369 0.286456,-0.16369 0.143228,0 0.204611,0.1023 0.08184,0.14323 0,0.38876 -0.06138,0.24554 -0.265994,0.51153 -0.531989,0.67522 -1.248128,1.30951 -0.716139,0.6343 -1.555045,1.12536 -0.818444,0.49107 -1.739194,0.79799 -0.900289,0.28645 -1.800578,0.28645 -0.347839,0 -0.695678,-0.14323 -0.327377,-0.12276 -0.593372,-0.38876 -0.265994,-0.26599 -0.429683,-0.63429 -0.143228,-0.3683 -0.143228,-0.85937 z m 2.76225,-2.10749 q 0.245533,0 0.511528,-0.14323 0.286455,-0.16369 0.511528,-0.38876 0.245533,-0.22507 0.388761,-0.47061 0.163689,-0.26599 0.163689,-0.49106 0,-0.22508 -0.143228,-0.32738 -0.122767,-0.12277 -0.327378,-0.12277 -0.163689,0 -0.347839,0.16369 -0.18415,0.16369 -0.388761,0.40922 -0.18415,0.24554 -0.347839,0.53199 -0.163689,0.28646 -0.245533,0.53199 -0.06138,0.18415 -0.02046,0.24553 0.04092,0.0614 0.245533,0.0614 z m 0.572911,-4.15361 q 0,-0.0818 0.04092,-0.20461 0.06138,-0.14323 0.143228,-0.24553 0.286456,-0.32738 0.634295,-0.81845 0.3683,-0.49106 0.961672,-1.26859 0.18415,-0.26599 0.347839,-0.40922 0.163689,-0.14323 0.511527,-0.14323 0.327378,0 0.572912,0.12277 0.245533,0.12277 0.409222,0.32738 0.306916,0.40922 -0.18415,0.8389 -1.186745,1.02306 -1.882422,1.4732 -0.675217,0.42969 -1.043517,0.51153 -0.18415,0.0409 -0.347839,0.0205 -0.163689,-0.0409 -0.163689,-0.20461 z"
         style="font-style:normal;font-variant:normal;font-weight:bold;font-stretch:normal;font-size:20.46111107px;line-height:0;font-family:'Caflisch Script Pro';-inkscape-font-specification:'Caflisch Script Pro Bold';letter-spacing:-0.79374993px;fill:#f4c401;fill-opacity:1;stroke:none;stroke-width:0.79374999;stroke-miterlimit:4;stroke-dasharray:none;stroke-opacity:1"
         id="path1017"
         inkscape:connector-curvature="0" />
      <path
         d="m 61.502703,259.26063 q 0.593372,0 0.879828,0.28645 0.306917,0.28646 0.306917,0.61384 0,0.40922 -0.245534,0.69567 -0.225072,0.28646 -0.511527,0.42969 -0.204612,0.1023 -0.3683,0.1023 -0.163689,-0.0205 -0.245534,-0.0614 -0.204611,-0.10231 -0.163689,-0.40922 0.02046,-0.3683 -0.204611,-0.3683 -0.163689,0 -0.55245,0.26599 -0.3683,0.24554 -0.797983,0.90029 -0.531989,0.77752 -0.695678,1.43228 -0.163689,0.63429 -0.163689,1.06398 0,0.4706 0.225072,0.75706 0.245534,0.26599 0.593373,0.26599 0.55245,0 1.145822,-0.26599 0.613833,-0.266 1.227667,-0.67522 0.613833,-0.42968 1.207205,-0.94121 0.593372,-0.51153 1.1049,-1.02306 0.163689,-0.16368 0.306917,-0.14322 0.143228,0 0.204611,0.1023 0.08184,0.14323 0,0.38876 -0.06138,0.24554 -0.265995,0.51153 -0.55245,0.71614 -1.248127,1.35043 -0.695678,0.6343 -1.452739,1.12537 -0.757061,0.4706 -1.555045,0.75706 -0.777522,0.28645 -1.493661,0.28645 -0.3683,0 -0.716139,-0.12276 -0.347839,-0.10231 -0.634294,-0.34784 -0.265995,-0.24554 -0.429683,-0.65476 -0.163689,-0.40922 -0.163689,-1.02305 0,-0.34784 0.08184,-0.77753 0.102306,-0.45014 0.286456,-0.92075 0.18415,-0.49106 0.470605,-0.96167 0.286456,-0.49107 0.654756,-0.92075 0.634294,-0.71614 1.514122,-1.2072 0.879828,-0.51153 1.698272,-0.51153 z"
         style="font-style:normal;font-variant:normal;font-weight:bold;font-stretch:normal;font-size:20.46111107px;line-height:0;font-family:'Caflisch Script Pro';-inkscape-font-specification:'Caflisch Script Pro Bold';letter-spacing:-0.79374993px;fill:#f4c401;fill-opacity:1;stroke:none;stroke-width:0.79374999;stroke-miterlimit:4;stroke-dasharray:none;stroke-opacity:1"
         id="path1019"
         inkscape:connector-curvature="0" />
      <path
         d="m 62.275204,264.66236 q 0,-0.32738 0.08185,-0.75706 0.102305,-0.45014 0.286455,-0.94121 0.18415,-0.49107 0.429684,-1.0026 0.265994,-0.51152 0.613833,-1.00259 0.143228,-0.20461 0.409222,-0.51153 0.265995,-0.32738 0.572911,-0.59337 0.327378,-0.28646 0.675217,-0.49107 0.347839,-0.20461 0.675217,-0.20461 0.286455,0 0.450144,0.12277 0.163689,0.1023 0.265995,0.28645 0.122766,0.16369 0.306916,0.18415 0.531989,0.0409 0.859367,0.3683 0.327378,0.30692 0.327378,0.90029 0,0.55245 -0.245534,1.0026 -0.225072,0.42968 -0.531989,0.77752 -0.327377,0.32738 -0.859366,0.65476 -0.511528,0.30691 -1.227667,0.30691 -0.245533,0 -0.470605,-0.0409 -0.225073,-0.0614 -0.3683,-0.12277 -0.18415,-0.0818 -0.265995,0.10231 -0.08184,0.26599 -0.08184,0.61383 0,0.42969 0.245533,0.67522 0.265994,0.24553 0.613833,0.24553 0.613834,0 1.28905,-0.26599 0.695678,-0.266 1.370895,-0.69568 0.695678,-0.45014 1.350433,-1.02306 0.675217,-0.57291 1.268589,-1.16628 0.143228,-0.14323 0.286456,0.10231 0.08184,0.14322 0,0.42968 -0.06138,0.26599 -0.265995,0.53199 -0.55245,0.7366 -1.28905,1.39135 -0.716139,0.6343 -1.534583,1.12537 -0.797984,0.4706 -1.65735,0.75706 -0.838906,0.28645 -1.636889,0.28645 -0.3683,0 -0.716139,-0.1023 -0.347839,-0.10231 -0.634294,-0.34784 -0.265995,-0.24554 -0.429684,-0.6343 -0.163689,-0.38876 -0.163689,-0.96167 z m 2.76225,-2.08703 q 0.245534,0 0.511528,-0.14323 0.286456,-0.16369 0.511528,-0.38876 0.245533,-0.22507 0.388761,-0.47061 0.163689,-0.26599 0.163689,-0.49106 0,-0.22508 -0.143228,-0.32738 -0.122767,-0.12277 -0.327378,-0.12277 -0.163689,0 -0.3683,0.16369 -0.18415,0.16369 -0.388761,0.40922 -0.18415,0.24554 -0.3683,0.53199 -0.163689,0.28646 -0.245533,0.53199 -0.06138,0.18415 0,0.24553 0.06138,0.0614 0.265994,0.0614 z"
         style="font-style:normal;font-variant:normal;font-weight:bold;font-stretch:normal;font-size:20.46111107px;line-height:0;font-family:'Caflisch Script Pro';-inkscape-font-specification:'Caflisch Script Pro Bold';letter-spacing:-0.79374993px;fill:#f4c401;fill-opacity:1;stroke:none;stroke-width:0.79374999;stroke-miterlimit:4;stroke-dasharray:none;stroke-opacity:1"
         id="path1021"
         inkscape:connector-curvature="0" />
      <path
         d="m 74.774472,259.26063 q 0.102306,0 0.265995,0.0818 0.18415,0.0819 0.306917,0.266 0.122766,0.18415 0.143227,0.49106 0.04092,0.28646 -0.102305,0.71614 -0.06138,0.16369 -0.163689,0.42969 -0.102306,0.26599 -0.245533,0.57291 -0.122767,0.30691 -0.245534,0.61383 -0.122766,0.28646 -0.204611,0.51153 -0.18415,0.4706 -0.08184,0.51153 0.102305,0.0409 0.327377,-0.14323 0.245534,-0.24554 0.695678,-0.7366 0.470606,-0.49107 0.961672,-1.02306 0.491067,-0.53199 0.900289,-0.98213 0.429684,-0.45015 0.572911,-0.59337 0.531989,-0.53199 0.900289,-0.53199 0.347839,0 0.634295,0.30691 0.306916,0.30692 0.306916,0.65476 0,0.18415 -0.08184,0.30692 -0.06138,0.1023 -0.204611,0.22507 -0.102306,0.1023 -0.245533,0.24553 -0.143228,0.12277 -0.286456,0.40922 -0.163689,0.28646 -0.3683,0.87983 -0.204611,0.57291 -0.327378,1.45274 -0.102305,0.61383 0,1.0026 0.102306,0.3683 0.470606,0.3683 0.204611,0 0.511528,-0.14323 0.306916,-0.16369 0.716138,-0.53199 0.409223,-0.3683 0.941212,-0.96167 0.55245,-0.59338 1.248127,-1.4732 0.286456,-0.34784 0.429684,-0.12277 0.18415,0.24553 -0.265995,1.02306 -0.55245,0.96167 -1.145822,1.65735 -0.572911,0.69567 -1.125361,1.14582 -0.55245,0.45014 -1.043517,0.65475 -0.491066,0.20461 -0.859366,0.20461 -0.777523,0 -1.227667,-0.63429 -0.429683,-0.63429 -0.265995,-1.98473 0.04092,-0.26599 0.08185,-0.59337 0.06138,-0.32738 0.102305,-0.49107 0.06138,-0.22507 -0.02046,-0.22507 -0.06138,-0.0205 -0.225072,0.18415 -0.18415,0.22507 -0.572911,0.65476 -0.388761,0.42968 -0.818444,0.92075 -0.409223,0.4706 -0.797984,0.87982 -0.3683,0.40923 -0.531989,0.57292 -0.593372,0.57291 -1.002594,0.57291 -0.3683,0 -0.491067,-0.57291 -0.122766,-0.59338 0.102306,-1.41182 0.225072,-0.85937 0.531989,-1.78012 0.06138,-0.16369 0.08184,-0.28645 0.02046,-0.12277 -0.06138,-0.16369 -0.163689,-0.0819 -0.531989,0.34784 -0.122767,0.12276 -0.511528,0.61383 -0.3683,0.49107 -0.818444,1.04352 -0.450145,0.55245 -0.859367,1.06397 -0.388761,0.49107 -0.531989,0.65476 -0.286455,0.30692 -0.470605,0.40922 -0.163689,0.10231 -0.327378,0.10231 -0.122767,0 -0.286456,-0.10231 -0.143228,-0.1023 -0.265994,-0.32738 -0.122767,-0.22507 -0.18415,-0.57291 -0.06138,-0.3683 0,-0.90029 0.06138,-0.4706 0.265994,-1.18674 0.204611,-0.7366 0.491067,-1.78012 0.04092,-0.16369 0.06138,-0.24553 0.02046,-0.10231 0.06138,-0.22507 0.04092,-0.18415 0.06138,-0.38876 0.02046,-0.20461 0.102305,-0.55245 0.04092,-0.16369 0.08185,-0.3683 0.04092,-0.20461 0.122767,-0.3683 0.08184,-0.18415 0.204611,-0.28646 0.143227,-0.12277 0.347839,-0.12277 0.286455,0 0.572911,0.22508 0.327377,0.26599 0.511527,0.57291 0.18415,0.30691 -0.02046,0.71614 -0.18415,0.40922 -0.409222,1.00259 -0.225072,0.57291 -0.429683,1.22767 -0.143228,0.42968 -0.06138,0.53199 0.08185,0.1023 0.306917,-0.16369 0.654756,-0.71614 1.125361,-1.26859 0.491067,-0.55245 1.063978,-1.14582 0.245533,-0.24554 0.409222,-0.40923 0.163689,-0.18415 0.306917,-0.30691 0.143228,-0.14323 0.265994,-0.24554 0.122767,-0.1023 0.245534,-0.20461 0.531989,-0.4706 0.879827,-0.4706 z"
         style="font-style:normal;font-variant:normal;font-weight:bold;font-stretch:normal;font-size:20.46111107px;line-height:0;font-family:'Caflisch Script Pro';-inkscape-font-specification:'Caflisch Script Pro Bold';letter-spacing:-0.79374993px;fill:#f4c401;fill-opacity:1;stroke:none;stroke-width:0.79374999;stroke-miterlimit:4;stroke-dasharray:none;stroke-opacity:1"
         id="path1023"
         inkscape:connector-curvature="0" />
      <path
         d="m 86.979898,259.26063 q 0.102305,0 0.265994,0.0818 0.18415,0.0819 0.306917,0.266 0.122767,0.18415 0.143228,0.49106 0.04092,0.28646 -0.102306,0.71614 -0.06138,0.16369 -0.163689,0.42969 -0.102305,0.26599 -0.245533,0.57291 -0.122767,0.30691 -0.245533,0.61383 -0.122767,0.28646 -0.204612,0.51153 -0.18415,0.4706 -0.08184,0.51153 0.102306,0.0409 0.327378,-0.14323 0.245533,-0.24554 0.695678,-0.7366 0.470605,-0.49107 0.961672,-1.02306 0.491066,-0.53199 0.900289,-0.98213 0.429683,-0.45015 0.572911,-0.59337 0.531989,-0.53199 0.900289,-0.53199 0.347839,0 0.634294,0.30691 0.306917,0.30692 0.306917,0.65476 0,0.18415 -0.08185,0.30692 -0.06138,0.1023 -0.204611,0.22507 -0.102305,0.1023 -0.245533,0.24553 -0.143228,0.12277 -0.286456,0.40922 -0.163689,0.28646 -0.3683,0.87983 -0.204611,0.57291 -0.327377,1.45274 -0.102306,0.61383 0,1.0026 0.102305,0.3683 0.470605,0.3683 0.204611,0 0.511528,-0.14323 0.306917,-0.16369 0.716139,-0.53199 0.409222,-0.3683 0.941211,-0.96167 0.55245,-0.59338 1.248128,-1.4732 0.286455,-0.34784 0.429683,-0.12277 0.18415,0.24553 -0.265995,1.02306 -0.552449,0.96167 -1.145822,1.65735 -0.572911,0.69567 -1.125361,1.14582 -0.55245,0.45014 -1.043516,0.65475 -0.491067,0.20461 -0.859367,0.20461 -0.777522,0 -1.227667,-0.63429 -0.429683,-0.63429 -0.265994,-1.98473 0.04092,-0.26599 0.08184,-0.59337 0.06138,-0.32738 0.102306,-0.49107 0.06138,-0.22507 -0.02046,-0.22507 -0.06138,-0.0205 -0.225073,0.18415 -0.18415,0.22507 -0.572911,0.65476 -0.388761,0.42968 -0.818444,0.92075 -0.409222,0.4706 -0.797983,0.87982 -0.3683,0.40923 -0.531989,0.57292 -0.593373,0.57291 -1.002595,0.57291 -0.3683,0 -0.491066,-0.57291 -0.122767,-0.59338 0.102305,-1.41182 0.225072,-0.85937 0.531989,-1.78012 0.06138,-0.16369 0.08184,-0.28645 0.02046,-0.12277 -0.06138,-0.16369 -0.163689,-0.0819 -0.531989,0.34784 -0.122766,0.12276 -0.511528,0.61383 -0.3683,0.49107 -0.818444,1.04352 -0.450144,0.55245 -0.859367,1.06397 -0.388761,0.49107 -0.531989,0.65476 -0.286455,0.30692 -0.470605,0.40922 -0.163689,0.10231 -0.327378,0.10231 -0.122767,0 -0.286455,-0.10231 -0.143228,-0.1023 -0.265995,-0.32738 -0.122767,-0.22507 -0.18415,-0.57291 -0.06138,-0.3683 0,-0.90029 0.06138,-0.4706 0.265995,-1.18674 0.204611,-0.7366 0.491066,-1.78012 0.04092,-0.16369 0.06138,-0.24553 0.02046,-0.10231 0.06138,-0.22507 0.04092,-0.18415 0.06138,-0.38876 0.02046,-0.20461 0.102306,-0.55245 0.04092,-0.16369 0.08184,-0.3683 0.04092,-0.20461 0.122767,-0.3683 0.08184,-0.18415 0.204611,-0.28646 0.143228,-0.12277 0.347839,-0.12277 0.286455,0 0.572911,0.22508 0.327378,0.26599 0.511528,0.57291 0.18415,0.30691 -0.02046,0.71614 -0.18415,0.40922 -0.409223,1.00259 -0.225072,0.57291 -0.429683,1.22767 -0.143228,0.42968 -0.06138,0.53199 0.08184,0.1023 0.306916,-0.16369 0.654756,-0.71614 1.125362,-1.26859 0.491066,-0.55245 1.063977,-1.14582 0.245534,-0.24554 0.409223,-0.40923 0.163688,-0.18415 0.306916,-0.30691 0.143228,-0.14323 0.265995,-0.24554 0.122766,-0.1023 0.245533,-0.20461 0.531989,-0.4706 0.879828,-0.4706 z"
         style="font-style:normal;font-variant:normal;font-weight:bold;font-stretch:normal;font-size:20.46111107px;line-height:0;font-family:'Caflisch Script Pro';-inkscape-font-specification:'Caflisch Script Pro Bold';letter-spacing:-0.79374993px;fill:#f4c401;fill-opacity:1;stroke:none;stroke-width:0.79374999;stroke-miterlimit:4;stroke-dasharray:none;stroke-opacity:1"
         id="path1025"
         inkscape:connector-curvature="0" />
      <path
         d="m 92.697266,264.66236 q 0,-0.32738 0.08185,-0.75706 0.102305,-0.45014 0.286455,-0.94121 0.18415,-0.49107 0.429684,-1.0026 0.265994,-0.51152 0.613833,-1.00259 0.143228,-0.20461 0.409222,-0.51153 0.265995,-0.32738 0.572911,-0.59337 0.327378,-0.28646 0.675217,-0.49107 0.347839,-0.20461 0.675217,-0.20461 0.286455,0 0.450144,0.12277 0.163689,0.1023 0.265994,0.28645 0.122767,0.16369 0.306917,0.18415 0.531989,0.0409 0.859367,0.3683 0.327378,0.30692 0.327378,0.90029 0,0.55245 -0.245534,1.0026 -0.225072,0.42968 -0.531989,0.77752 -0.327377,0.32738 -0.859366,0.65476 -0.511528,0.30691 -1.227667,0.30691 -0.245533,0 -0.470606,-0.0409 -0.225072,-0.0614 -0.3683,-0.12277 -0.18415,-0.0818 -0.265994,0.10231 -0.08184,0.26599 -0.08184,0.61383 0,0.42969 0.245533,0.67522 0.265994,0.24553 0.613833,0.24553 0.613834,0 1.28905,-0.26599 0.695678,-0.266 1.370895,-0.69568 0.695677,-0.45014 1.350433,-1.02306 0.675217,-0.57291 1.268587,-1.16628 0.14323,-0.14323 0.28646,0.10231 0.0818,0.14322 0,0.42968 -0.0614,0.26599 -0.266,0.53199 -0.55245,0.7366 -1.289047,1.39135 -0.716139,0.6343 -1.534583,1.12537 -0.797984,0.4706 -1.65735,0.75706 -0.838906,0.28645 -1.636889,0.28645 -0.3683,0 -0.716139,-0.1023 -0.347839,-0.10231 -0.634295,-0.34784 -0.265994,-0.24554 -0.429683,-0.6343 -0.163689,-0.38876 -0.163689,-0.96167 z m 2.76225,-2.08703 q 0.245534,0 0.511528,-0.14323 0.286456,-0.16369 0.511528,-0.38876 0.245533,-0.22507 0.388761,-0.47061 0.163689,-0.26599 0.163689,-0.49106 0,-0.22508 -0.143228,-0.32738 -0.122767,-0.12277 -0.327378,-0.12277 -0.163689,0 -0.3683,0.16369 -0.18415,0.16369 -0.388761,0.40922 -0.18415,0.24554 -0.3683,0.53199 -0.163689,0.28646 -0.245533,0.53199 -0.06138,0.18415 0,0.24553 0.06138,0.0614 0.265994,0.0614 z"
         style="font-style:normal;font-variant:normal;font-weight:bold;font-stretch:normal;font-size:20.46111107px;line-height:0;font-family:'Caflisch Script Pro';-inkscape-font-specification:'Caflisch Script Pro Bold';letter-spacing:-0.79374993px;fill:#f4c401;fill-opacity:1;stroke:none;stroke-width:0.79374999;stroke-miterlimit:4;stroke-dasharray:none;stroke-opacity:1"
         id="path1027"
         inkscape:connector-curvature="0" />
      <path
         d="m 101.4678,258.89233 q 0.20461,0 0.38876,0.12276 0.18415,0.10231 0.30691,0.266 0.14323,0.16369 0.20461,0.34784 0.0818,0.18415 0.0818,0.34784 0,0.1023 -0.0818,0.18415 -0.0614,0.0818 -0.16368,0.0818 -0.24554,0 -0.55245,0.53199 -0.20462,0.34784 -0.34784,0.81844 -0.12277,0.45015 -0.22508,0.71614 -0.0614,0.16369 0.0205,0.20461 0.0818,0.0409 0.22507,-0.14322 0.14323,-0.14323 0.40922,-0.40923 0.28646,-0.28645 0.61383,-0.59337 0.32738,-0.30691 0.65476,-0.59337 0.32738,-0.28646 0.57291,-0.45014 0.40922,-0.30692 0.57291,-0.40923 0.18415,-0.12276 0.32738,-0.20461 0.0614,-0.0409 0.14323,-0.12276 0.1023,-0.10231 0.18415,-0.266 0.20461,-0.30692 0.4706,-0.30692 0.3683,0 0.6343,0.22508 0.28645,0.28645 0.28645,0.53199 0,0.22507 -0.1023,0.51152 -0.0614,0.14323 -0.20461,0.38876 -0.12277,0.24554 -0.266,0.55245 -0.24553,0.53199 -0.51153,1.28905 -0.24553,0.7366 -0.40922,1.35044 -0.22507,0.92075 -0.0614,1.28905 0.16369,0.34784 0.40922,0.34784 0.26599,0 0.71614,-0.30692 0.45014,-0.30692 0.94121,-0.77752 0.51153,-0.49107 1.04352,-1.06398 0.53199,-0.59337 1.00259,-1.14582 0.0819,-0.10231 0.18415,-0.12277 0.10231,-0.0205 0.16369,0.0614 0.0818,0.10231 0.0409,0.3683 -0.0409,0.24554 -0.28645,0.6343 -0.6343,1.1049 -1.26859,1.8415 -0.6343,0.71614 -1.20721,1.14582 -0.57291,0.42968 -1.08444,0.61383 -0.51152,0.18415 -0.90029,0.18415 -0.38876,0 -0.69567,-0.20461 -0.30692,-0.18415 -0.49107,-0.57291 -0.18415,-0.38876 -0.22507,-0.96167 -0.0409,-0.57291 0.12276,-1.30951 0.12277,-0.59337 0.22508,-0.98213 0.1023,-0.40923 0.20461,-0.67522 0.12276,-0.34784 0.0818,-0.42968 -0.0409,-0.0614 -0.14323,0 -0.1023,0.0614 -0.32737,0.28645 -0.90029,0.87983 -1.67781,1.88242 -0.77753,0.98214 -1.534588,2.14842 -0.163689,0.24553 -0.265995,0.32738 -0.102305,0.0818 -0.204611,0.0818 -0.204611,0 -0.347839,-0.1023 -0.143228,-0.12277 -0.265994,-0.28646 -0.102306,-0.12277 -0.143228,-0.40922 -0.02046,-0.30692 0.04092,-0.61383 0.409222,-1.92335 0.838906,-3.3147 0.429689,-1.41182 0.695679,-1.94381 0.266,-0.57291 0.57291,-0.75706 0.32738,-0.20461 0.61384,-0.20461 z"
         style="font-style:normal;font-variant:normal;font-weight:bold;font-stretch:normal;font-size:20.46111107px;line-height:0;font-family:'Caflisch Script Pro';-inkscape-font-specification:'Caflisch Script Pro Bold';letter-spacing:-0.79374993px;fill:#f4c401;fill-opacity:1;stroke:none;stroke-width:0.79374999;stroke-miterlimit:4;stroke-dasharray:none;stroke-opacity:1"
         id="path1029"
         inkscape:connector-curvature="0" />
      <path
         d="m 109.62291,265.11251 q 0.26599,0 0.55245,-0.0818 0.30692,-0.1023 0.59337,-0.22507 0.30692,-0.12277 0.57291,-0.266 0.266,-0.14322 0.45015,-0.26599 0.18415,-0.12277 0.28645,-0.0818 0.10231,0.0205 0.12277,0.14322 0.0205,0.10231 -0.0409,0.266 -0.0409,0.14323 -0.16369,0.28645 -0.28646,0.28646 -0.96167,0.77753 -0.65476,0.49106 -1.88243,0.87982 -0.4706,0.16369 -0.87982,0.16369 -0.45015,0 -0.87983,-0.30691 -0.42969,-0.30692 -0.42969,-0.83891 0,-0.32738 0.22508,-0.92075 0.0818,-0.20461 0.22507,-0.63429 0.14323,-0.45015 0.28645,-0.90029 0.16369,-0.45015 0.28646,-0.81845 0.14323,-0.38876 0.18415,-0.49106 0.0409,-0.10231 0.0205,-0.16369 0,-0.0614 -0.16369,-0.0409 -0.12276,0.0205 -0.32738,0.0409 -0.18415,0 -0.38876,0.0409 -0.16369,0.0205 -0.28645,-0.0409 -0.12277,-0.0818 -0.22507,-0.16369 -0.10231,-0.10231 -0.10231,-0.28646 0.0205,-0.20461 0.14323,-0.34784 0.14323,-0.16369 0.24553,-0.24553 0.12277,-0.10231 0.34784,-0.14323 0.18415,-0.0409 0.42968,-0.0818 0.266,-0.0614 0.57291,-0.12277 0.14323,-0.0409 0.22508,-0.0818 0.1023,-0.0614 0.16369,-0.22508 0.0409,-0.0818 0.16368,-0.40922 0.12277,-0.32738 0.266,-0.71614 0.14323,-0.40922 0.28645,-0.77752 0.14323,-0.3683 0.22508,-0.53199 0.14322,-0.28645 0.49106,-0.49106 0.34784,-0.20462 0.57291,-0.20462 0.266,0 0.49107,0.22508 0.45015,0.45014 0.12277,1.02305 -0.34784,0.61384 -0.57291,1.16629 -0.22508,0.55245 -0.28646,0.69567 -0.0409,0.12277 0.0409,0.14323 0.10231,0 0.20461,0 0.34784,0 0.75707,-0.0205 0.42968,-0.0205 0.8389,-0.0409 0.42968,-0.0205 0.77752,-0.0205 0.3683,-0.0205 0.57291,-0.0205 0.18415,0 0.24554,0.0818 0.0614,0.0614 0.0205,0.18415 -0.0205,0.10231 -0.12277,0.20461 -0.0818,0.10231 -0.18415,0.16369 -0.26599,0.14323 -1.14582,0.3683 -0.85937,0.20461 -2.23026,0.38876 -0.20461,0.0409 -0.28646,0.10231 -0.0818,0.0409 -0.16369,0.20461 -0.1023,0.24553 -0.24553,0.57291 -0.12277,0.32738 -0.24553,0.67522 -0.10231,0.34783 -0.20461,0.67521 -0.0819,0.30692 -0.10231,0.53199 -0.0818,0.47061 0,0.7366 0.10231,0.266 0.51153,0.266 z"
         style="font-style:normal;font-variant:normal;font-weight:bold;font-stretch:normal;font-size:20.46111107px;line-height:0;font-family:'Caflisch Script Pro';-inkscape-font-specification:'Caflisch Script Pro Bold';letter-spacing:-0.79374993px;fill:#f4c401;fill-opacity:1;stroke:none;stroke-width:0.79374999;stroke-miterlimit:4;stroke-dasharray:none;stroke-opacity:1"
         id="path1031"
         inkscape:connector-curvature="0" />
    </g>
  </g>
</svg>
