<?xml version="1.0" encoding="UTF-8" standalone="no"?>
<!-- Created with Inkscape (http://www.inkscape.org/) -->

<svg
   xmlns:dc="http://purl.org/dc/elements/1.1/"
   xmlns:cc="http://creativecommons.org/ns#"
   xmlns:rdf="http://www.w3.org/1999/02/22-rdf-syntax-ns#"
   xmlns:svg="http://www.w3.org/2000/svg"
   xmlns="http://www.w3.org/2000/svg"
   xmlns:sodipodi="http://sodipodi.sourceforge.net/DTD/sodipodi-0.dtd"
   xmlns:inkscape="http://www.inkscape.org/namespaces/inkscape"
   width="397.32849"
   height="103.70829"
   viewBox="0 0 105.12649 27.439486"
   version="1.1"
   id="svg9136"
   inkscape:version="0.92.4 (5da689c313, 2019-01-14)"
   sodipodi:docname="system.svg">
  <defs
     id="defs9130" />
  <sodipodi:namedview
     id="base"
     pagecolor="#ffffff"
     bordercolor="#666666"
     borderopacity="1.0"
     inkscape:pageopacity="0.0"
     inkscape:pageshadow="2"
     inkscape:zoom="1.979899"
     inkscape:cx="187.69241"
     inkscape:cy="-26.995972"
     inkscape:document-units="px"
     inkscape:current-layer="layer1"
     showgrid="false"
     units="px"
     inkscape:window-width="1920"
     inkscape:window-height="1017"
     inkscape:window-x="1912"
     inkscape:window-y="-8"
     inkscape:window-maximized="1"
     fit-margin-top="0"
     fit-margin-left="0"
     fit-margin-right="0"
     fit-margin-bottom="0"
     inkscape:snap-global="false" />
  <metadata
     id="metadata9133">
    <rdf:RDF>
      <cc:Work
         rdf:about="">
        <dc:format>image/svg+xml</dc:format>
        <dc:type
           rdf:resource="http://purl.org/dc/dcmitype/StillImage" />
        <dc:title />
      </cc:Work>
    </rdf:RDF>
  </metadata>
  <g
     inkscape:label="Layer 1"
     inkscape:groupmode="layer"
     id="layer1"
     transform="translate(-10.547501,-271.9401)">
    <g
       aria-label="Never Played"
       style="font-style:normal;font-variant:normal;font-weight:bold;font-stretch:normal;font-size:24.34166718px;line-height:1.25;font-family:'Caflisch Script Pro';-inkscape-font-specification:'Caflisch Script Pro Bold';letter-spacing:0px;word-spacing:0px;fill:#333333;fill-opacity:1;stroke:none;stroke-width:0.26458332"
       id="text849-6"
       transform="matrix(0.98492144,0,0,1,6.3491886,-44.500376)">
      <path
         style="font-size:24.34166718px;fill:#333333;fill-opacity:1;stroke-width:0.26458332"
         d="m 17.679688,320.8457 c -3.042173,0.0545 -3.04444,6.16567 -4.53125,5.51563 -1.841861,-1.47721 -0.217618,-5.58319 -3.6562505,-5.10352 -1.9553212,0.74388 -2.7668416,3.0402 -2.3828125,4.76953 -0.6729692,2.34155 -5.0647375,7.8607 -0.5917969,8.86524 3.3354451,0.0825 2.3480312,-4.98205 3.6445309,-5.61133 0.965701,2.06446 3.666108,7.67558 6.306641,4.17578 0.15591,-2.78973 0.308152,-6.25308 2.416016,-8.41406 2.097328,-0.62721 0.718702,-4.45788 -1.205078,-4.19727 z"
         id="path4573"
         inkscape:connector-curvature="0" />
      <path
         style="font-size:24.34166718px;fill:#333333;fill-opacity:1;stroke-width:0.26458332"
         d="m 22.201172,323.64258 c -3.965303,0.91945 -7.771069,8.13832 -3.445313,10.72851 3.969328,0.88257 9.32721,-2.19917 9.994141,-6.26953 -0.69422,-3.08999 -4.103181,2.09469 -2.859375,-0.87304 0.395769,-2.20032 -2.042081,-3.17405 -3.689453,-3.58594 z"
         id="path4575"
         inkscape:connector-curvature="0" />
      <path
         style="font-size:24.34166718px;fill:#333333;fill-opacity:1;stroke-width:0.26458332"
         d="m 32.912109,323.74219 c -2.199476,0.58696 -2.213273,2.44553 -3.851562,0.20703 -3.433643,0.71159 -3.840709,6.08934 -3.908203,9.02344 2.257443,3.97512 7.130387,-0.63052 8.623047,-3.22461 1.109411,-1.50092 5.544023,-0.39758 5.255859,-3.54688 -1.209654,-1.75407 -4.260373,0.56395 -5.035156,-2.15625 -0.315833,-0.21692 -0.699939,-0.33787 -1.083985,-0.30273 z m -2.335937,3.51562 c -0.107272,1.43636 -1.749203,3.35629 0,0 z"
         id="path4577"
         inkscape:connector-curvature="0" />
      <path
         style="font-size:24.34166718px;fill:#333333;fill-opacity:1;stroke-width:0.26458332"
         d="m 39.740234,323.64258 c -3.967035,0.91572 -7.775591,8.14111 -3.445312,10.73047 3.971395,0.87615 9.309396,-2.19689 9.99414,-6.26367 -0.683604,-3.10414 -4.109556,2.08636 -2.863281,-0.875 0.403068,-2.20431 -2.037864,-3.17661 -3.685547,-3.5918 z"
         id="path4579"
         inkscape:connector-curvature="0" />
      <path
         style="font-size:24.34166718px;fill:#333333;fill-opacity:1;stroke-width:0.26458332"
         d="m 46.117188,323.66602 c -3.930812,0.94502 -2.918082,6.21435 -3.767579,9.17382 1.184066,3.30508 5.023436,0.96539 5.144532,-1.74023 0.878185,-2.14401 2.11493,-3.10868 4.048828,-3.42578 2.850276,-2.02319 -0.618905,-5.56326 -2.863281,-3.26953 -1.124095,1.65535 -0.922789,-1.13929 -2.5625,-0.73828 z"
         id="path4581"
         inkscape:connector-curvature="0" />
      <path
         style="font-size:24.34166718px;fill:#333333;fill-opacity:1;stroke-width:0.26458332"
         d="m 60.791016,320.48242 c -1.410769,1.27348 -5.324667,2.11467 -4.271485,4.71289 2.736201,0.91327 -0.05847,3.75271 -0.234375,5.83594 -3.424335,1.42167 0.804356,5.59277 3,3.36914 2.008107,0.61117 5.437161,-2.31085 2.328125,-3.31055 -3.020764,-0.77197 2.529545,-0.63818 3.267578,-2.08984 3.556335,-1.71885 2.824007,-7.03256 -1.208984,-7.43359 -1.121202,0.025 -1.715678,-1.2031 -2.880859,-1.08399 z m 1.916015,4.58203 c 1.540957,0.72995 -2.079356,1.756 0,0 z"
         id="path4583"
         inkscape:connector-curvature="0" />
      <path
         style="font-size:24.34166718px;fill:#333333;fill-opacity:1;stroke-width:0.26458332"
         d="m 70.951172,318.07227 c -3.488507,2.01408 -3.819757,7.293 -5.519531,10.73046 -1.671504,2.48381 -0.170657,7.35339 3.345703,5.43165 2.420671,-1.32415 6.794578,-4.19228 5.083984,-7.33399 -2.04577,-1.12646 -4.949547,5.63755 -4.140625,1.76172 0.08333,-3.38235 5.179794,-7.08843 2.458985,-10.17773 -0.325149,-0.30411 -0.786635,-0.45765 -1.228516,-0.41211 z"
         id="path4585"
         inkscape:connector-curvature="0" />
      <path
         style="font-size:24.34166718px;fill:#333333;fill-opacity:1;stroke-width:0.26458332"
         d="m 76.986328,323.76953 c -3.908356,0.87395 -7.755284,5.57458 -6.78125,9.60352 1.274076,2.56804 4.263667,0.35012 5.390625,-0.38867 2.561666,4.19709 7.570429,-1.06115 8.541016,-4.08204 0.848579,-3.57549 -3.544597,-1.69528 -3.929688,0.6543 -2.650409,2.12101 0.904593,-3.22082 -0.154297,-4.52539 -0.759176,-0.94897 -2.00105,-0.97617 -3.066406,-1.26172 z"
         id="path4587"
         inkscape:connector-curvature="0" />
      <path
         style="font-size:24.34166718px;fill:#333333;fill-opacity:1;stroke-width:0.26458332"
         d="m 88.554688,323.54492 c -2.580473,0.0118 -2.609221,4.66265 -3.138672,4.43555 1.121952,-2.42836 -1.736522,-6.2761 -3.644532,-3.04492 -1.920602,3.46597 1.324461,8.3583 -2.191406,11.01562 -0.815965,2.177 -5.912382,4.68705 -2.519531,6.91016 2.301199,0.39217 3.80215,-2.10397 5.478515,-3.28711 0.664264,-4.38471 6.006285,-7.08521 7.421876,-11.54688 1.07044,-1.60915 0.819154,-4.17759 -1.40625,-4.48242 z"
         id="path4589"
         inkscape:connector-curvature="0" />
      <path
         style="font-size:24.34166718px;fill:#333333;fill-opacity:1;stroke-width:0.26458332"
         d="m 94.136719,323.64258 c -3.964157,0.92074 -7.770386,8.13658 -3.445313,10.72851 3.972605,0.88237 9.320524,-2.19796 9.998044,-6.26953 -0.702797,-3.08537 -4.104573,2.09343 -2.863278,-0.87304 0.396241,-2.20078 -2.041475,-3.17469 -3.689453,-3.58594 z"
         id="path4591"
         inkscape:connector-curvature="0" />
      <path
         style="font-size:24.34166718px;fill:#333333;fill-opacity:1;stroke-width:0.26458332"
         d="m 107.1543,317.81445 c -3.04417,1.46671 -1.77558,7.14897 -6.03516,6.85352 -2.986589,1.66917 -6.708097,6.55974 -3.917968,9.70117 2.611239,1.60401 4.877478,-3.27123 6.273438,-0.16602 3.57474,1.11395 7.79785,-3.3167 7.38086,-6.83007 -2.08696,-2.96887 -5.34656,6.30351 -4.19531,0.7539 -0.28638,-3.31028 5.22068,-7.63386 1.41406,-10.17187 -0.28412,-0.11977 -0.61433,-0.20065 -0.91992,-0.14063 z"
         id="path4593"
         inkscape:connector-curvature="0" />
    </g>
    <g
       aria-label="Never Played"
       style="font-style:normal;font-variant:normal;font-weight:bold;font-stretch:normal;font-size:24.34166718px;line-height:1.25;font-family:'Caflisch Script Pro';-inkscape-font-specification:'Caflisch Script Pro Bold';letter-spacing:0px;word-spacing:0px;fill:#f4c401;fill-opacity:1;stroke:none;stroke-width:0.26458332"
       id="text849"
       transform="matrix(0.98492144,0,0,1,3.0586951,-25.791509)">
      <path
         d="m 13.280123,303.55042 q 0.389466,0 0.5842,0.17039 0.219075,0.14605 0.365125,0.41381 0.14605,0.24342 0.121708,0.43815 -0.02434,0.19474 -0.121708,0.31644 -0.07302,0.1704 -0.121709,0.26776 -0.04868,0.073 -0.04868,0.14605 0,0.24342 0.219075,0.63289 0.07302,0.1217 0.267758,0.48683 0.219075,0.34078 0.486834,0.82762 0.267758,0.46249 0.559858,0.97366 0.316442,0.51118 0.5842,0.97367 0.2921,0.46249 0.486833,0.80327 0.194734,0.34079 0.243417,0.43815 0.121708,0.19474 0.170392,0.1704 0.04868,-0.0244 0.121708,-0.21908 0.365125,-1.11972 0.754592,-2.16641 0.413808,-1.07103 0.851958,-2.09338 0.486833,-1.1684 0.778933,-1.70392 0.316442,-0.53551 0.584201,-0.80327 0.43815,-0.43815 0.924983,-0.43815 0.316442,0 0.535517,0.21907 0.243416,0.21908 0.365125,0.51118 0.121708,0.2921 0.170391,0.60854 0.07303,0.2921 0.07303,0.46249 0,0.43815 -0.559858,0.48683 -0.194733,0.0244 -0.413808,0.1704 -0.194734,0.1217 -0.316442,0.38946 -0.365125,0.70591 -0.657225,1.36314 -0.2921,0.63288 -0.535517,1.2901 -0.243417,0.65723 -0.462492,1.36314 -0.219075,0.68156 -0.43815,1.48484 -0.170391,0.63288 -0.194733,0.92498 -0.02434,0.2921 -0.02434,0.55986 0,0.17039 0.07303,0.2921 0.09737,0.12171 0.219075,0.2921 0.09737,0.14605 0.07302,0.38947 -0.02434,0.24341 -0.194733,0.46249 -0.170392,0.21907 -0.365125,0.36512 -0.170392,0.14605 -0.462492,0.14605 -0.389466,0 -0.73025,-0.21907 -0.340783,-0.24342 -0.486833,-0.43815 -0.121708,-0.14605 -0.340783,-0.5842 -0.194734,-0.43815 -0.778934,-1.36313 -0.2921,-0.48684 -0.657225,-1.07104 -0.340783,-0.60854 -0.657225,-1.1684 -0.316441,-0.55986 -0.5842,-0.99801 -0.243416,-0.46249 -0.365125,-0.65722 -0.121708,-0.19473 -0.194733,-0.17039 -0.07302,0.0243 -0.14605,0.14605 -0.170392,0.34078 -0.389467,0.77893 -0.194733,0.43815 -0.389466,0.90064 -0.194734,0.46249 -0.365125,0.90064 -0.14605,0.41381 -0.219075,0.73025 -0.07302,0.34079 -0.09737,0.51118 0,0.14605 0,0.26776 0,0.43815 -0.02434,0.73025 -0.02434,0.2921 -0.09737,0.53551 -0.04868,0.21908 -0.170392,0.41381 -0.121708,0.19474 -0.316442,0.43815 -0.267758,0.31644 -0.5842,0.43815 -0.316441,0.14605 -0.559858,0.14605 -0.3894667,0 -0.7302501,-0.26776 -0.3407833,-0.26775 -0.3407833,-0.90064 0,-0.19473 0.1217083,-0.5842 0.14605,-0.41381 0.2434167,-0.60854 0.3407834,-0.75459 0.7545917,-1.70392 0.4138087,-0.97366 0.7789337,-1.84996 0.389466,-0.8763 0.681566,-1.55787 0.2921,-0.70591 0.389467,-0.92498 0.09737,-0.19474 0.04868,-0.31644 -0.02434,-0.14605 -0.14605,-0.26776 -0.170391,-0.17039 -0.267758,-0.31644 -0.09737,-0.1704 -0.02434,-0.43815 0.04868,-0.1704 0.194734,-0.38947 0.170391,-0.21908 0.413808,-0.38947 0.316442,-0.21907 0.316442,-0.41381 0,-0.0974 0.07302,-0.21907 0.09737,-0.12171 0.194733,-0.24342 0.2921,-0.2921 0.754592,-0.2921 z"
         style="font-size:24.34166718px;fill:#f4c401;fill-opacity:1;stroke-width:0.26458332"
         id="path4596"
         inkscape:connector-curvature="0" />
      <path
         d="m 21.127675,312.5325 q 0,-0.38947 0.09737,-0.90064 0.121708,-0.53552 0.340783,-1.11972 0.219075,-0.5842 0.511175,-1.19274 0.316442,-0.60854 0.73025,-1.19274 0.170392,-0.24342 0.486834,-0.60855 0.316441,-0.38946 0.681566,-0.7059 0.389467,-0.34079 0.803275,-0.5842 0.413809,-0.24342 0.803275,-0.24342 0.340784,0 0.535517,0.14605 0.194733,0.12171 0.316442,0.34078 0.14605,0.19474 0.365125,0.21908 0.632883,0.0487 1.02235,0.43815 0.389466,0.36512 0.389466,1.07103 0,0.65723 -0.2921,1.19274 -0.267758,0.51118 -0.632883,0.92499 -0.389467,0.38946 -1.02235,0.77893 -0.608542,0.36512 -1.4605,0.36512 -0.2921,0 -0.559858,-0.0487 -0.267759,-0.073 -0.43815,-0.14605 -0.219075,-0.0974 -0.316442,0.12171 -0.09737,0.31644 -0.09737,0.73025 0,0.51117 0.2921,0.80327 0.316442,0.2921 0.73025,0.2921 0.73025,0 1.533525,-0.31644 0.827617,-0.31644 1.630892,-0.82761 0.827617,-0.53552 1.60655,-1.21709 0.803275,-0.68156 1.509183,-1.38747 0.170392,-0.17039 0.340784,0.12171 0.09737,0.17039 0,0.51117 -0.07303,0.31644 -0.316442,0.63288 -0.657225,0.8763 -1.533525,1.65524 -0.851958,0.75459 -1.825625,1.33879 -0.949325,0.55986 -1.971675,0.90064 -0.998008,0.34078 -1.947333,0.34078 -0.43815,0 -0.851959,-0.1217 -0.413808,-0.12171 -0.754591,-0.41381 -0.316442,-0.2921 -0.511175,-0.75459 -0.194734,-0.4625 -0.194734,-1.14406 z m 3.286125,-2.48285 q 0.2921,0 0.608542,-0.17039 0.340783,-0.19474 0.608542,-0.4625 0.2921,-0.26775 0.462491,-0.55985 0.194734,-0.31645 0.194734,-0.5842 0,-0.26776 -0.170392,-0.38947 -0.14605,-0.14605 -0.389467,-0.14605 -0.194733,0 -0.43815,0.19473 -0.219075,0.19474 -0.462491,0.48684 -0.219075,0.2921 -0.43815,0.63288 -0.194734,0.34078 -0.2921,0.63288 -0.07303,0.21908 0,0.2921 0.07302,0.073 0.316441,0.073 z"
         style="font-size:24.34166718px;fill:#f4c401;fill-opacity:1;stroke-width:0.26458332"
         id="path4598"
         inkscape:connector-curvature="0" />
      <path
         d="m 36.31761,306.08196 q 0.219075,0 0.389466,0.1217 0.170392,0.12171 0.267759,0.2921 0.121708,0.14605 0.194733,0.34079 0.07303,0.17039 0.09737,0.31644 0.02434,0.14605 0.04868,0.26776 0.02434,0.12171 0.194733,0.24341 0.243417,0.14605 0.705909,0.24342 0.462491,0.0974 1.02235,0.0974 0.632883,-0.0243 1.095375,-0.073 0.486833,-0.0487 0.681566,-0.14605 0.340784,-0.17039 0.365125,0.073 0.02434,0.24341 -0.170391,0.43815 -0.413809,0.41381 -1.119717,0.75459 -0.705908,0.31644 -1.630892,0.31644 -0.511175,0 -0.778933,-0.0243 -0.267758,-0.0243 -0.413808,-0.073 -0.243417,-0.073 -0.365125,0.1704 -0.681567,1.21708 -1.338792,2.06904 -0.632883,0.82761 -1.241425,1.41181 -0.608542,0.5842 -1.192742,0.97367 -0.5842,0.36513 -1.119717,0.63288 -0.535516,0.26776 -0.900641,0.34079 -0.365125,0.073 -0.681567,0.073 -0.121708,0 -0.340783,-0.0974 -0.219075,-0.0974 -0.413809,-0.31645 -0.170391,-0.21907 -0.2921,-0.5842 -0.121708,-0.38946 -0.07303,-0.97366 0.04868,-0.34079 0.219075,-1.11972 0.170392,-0.80327 0.657225,-2.16641 0.04868,-0.12171 0.04868,-0.24341 0.02434,-0.12171 0.04868,-0.24342 0,-0.12171 0.02434,-0.24342 0.02434,-0.12171 0.07303,-0.24341 0.14605,-0.38947 0.316441,-0.82762 0.194734,-0.43815 0.413809,-0.80328 0.219075,-0.36512 0.43815,-0.5842 0.243416,-0.24341 0.486833,-0.24341 0.316442,0 0.5842,0.43815 0.267758,0.41381 0.316442,1.02235 0.02434,0.43815 -0.09737,0.80327 -0.09737,0.34079 -0.413808,0.90064 -0.316442,0.55986 -0.511175,1.09538 -0.170392,0.53552 -0.2921,1.09537 -0.14605,0.63289 -0.09737,0.94933 0.04868,0.31644 0.243417,0.31644 0.219075,0 0.705908,-0.36512 0.778934,-0.65723 1.4605,-1.55787 0.681567,-0.92498 1.1684,-2.06904 0.04868,-0.12171 0.02434,-0.21908 0,-0.12171 -0.121708,-0.21907 -0.365125,-0.2921 -0.365125,-0.92499 0,-0.26775 0.170391,-0.51117 0.170392,-0.26776 0.413809,-0.46249 0.243416,-0.21908 0.535516,-0.34079 0.2921,-0.1217 0.559859,-0.1217 z"
         style="font-size:24.34166718px;fill:#f4c401;fill-opacity:1;stroke-width:0.26458332"
         id="path4600"
         inkscape:connector-curvature="0" />
      <path
         d="m 38.66429,312.5325 q 0,-0.38947 0.09737,-0.90064 0.121709,-0.53552 0.340784,-1.11972 0.219075,-0.5842 0.511175,-1.19274 0.316441,-0.60854 0.73025,-1.19274 0.170391,-0.24342 0.486833,-0.60855 0.316442,-0.38946 0.681567,-0.7059 0.389466,-0.34079 0.803275,-0.5842 0.413808,-0.24342 0.803275,-0.24342 0.340783,0 0.535516,0.14605 0.194734,0.12171 0.316442,0.34078 0.14605,0.19474 0.365125,0.21908 0.632884,0.0487 1.02235,0.43815 0.389467,0.36512 0.389467,1.07103 0,0.65723 -0.2921,1.19274 -0.267758,0.51118 -0.632883,0.92499 -0.389467,0.38946 -1.022351,0.77893 -0.608541,0.36512 -1.4605,0.36512 -0.2921,0 -0.559858,-0.0487 -0.267758,-0.073 -0.43815,-0.14605 -0.219075,-0.0974 -0.316442,0.12171 -0.09737,0.31644 -0.09737,0.73025 0,0.51117 0.2921,0.80327 0.316441,0.2921 0.73025,0.2921 0.73025,0 1.533525,-0.31644 0.827616,-0.31644 1.630892,-0.82761 0.827616,-0.53552 1.60655,-1.21709 0.803275,-0.68156 1.509183,-1.38747 0.170392,-0.17039 0.340783,0.12171 0.09737,0.17039 0,0.51117 -0.07303,0.31644 -0.316441,0.63288 -0.657225,0.8763 -1.533525,1.65524 -0.851959,0.75459 -1.825625,1.33879 -0.949326,0.55986 -1.971676,0.90064 -0.998008,0.34078 -1.947333,0.34078 -0.43815,0 -0.851958,-0.1217 -0.413809,-0.12171 -0.754592,-0.41381 -0.316442,-0.2921 -0.511175,-0.75459 -0.194733,-0.4625 -0.194733,-1.14406 z m 3.286125,-2.48285 q 0.2921,0 0.608541,-0.17039 0.340784,-0.19474 0.608542,-0.4625 0.2921,-0.26775 0.462492,-0.55985 0.194733,-0.31645 0.194733,-0.5842 0,-0.26776 -0.170392,-0.38947 -0.14605,-0.14605 -0.389466,-0.14605 -0.194734,0 -0.43815,0.19473 -0.219075,0.19474 -0.462492,0.48684 -0.219075,0.2921 -0.43815,0.63288 -0.194733,0.34078 -0.2921,0.63288 -0.07302,0.21908 0,0.2921 0.07303,0.073 0.316442,0.073 z"
         style="font-size:24.34166718px;fill:#f4c401;fill-opacity:1;stroke-width:0.26458332"
         id="path4602"
         inkscape:connector-curvature="0" />
      <path
         d="m 53.982432,306.03327 q 0.413808,0 0.705908,0.2921 0.2921,0.26776 0.219075,0.65723 -0.04868,0.2921 -0.219075,0.60854 -0.14605,0.31644 -0.340783,0.51117 -0.43815,0.51118 -0.754592,0.31645 -0.121708,-0.073 -0.2921,-0.12171 -0.14605,-0.073 -0.2921,-0.073 -0.194733,0 -0.535517,0.26776 -0.316441,0.26776 -0.803275,0.8763 -0.43815,0.55986 -0.900641,1.24143 -0.43815,0.65722 -0.827617,1.31445 -0.365125,0.65722 -0.657225,1.19274 -0.267758,0.53551 -0.389467,0.82761 -0.365125,0.94933 -0.998008,0.94933 -0.559859,0 -1.046692,-0.55986 -0.194733,-0.21907 -0.243417,-0.43815 -0.04868,-0.24342 0.07303,-0.60854 0.219075,-0.5842 0.365125,-1.26577 0.170392,-0.68156 0.267759,-1.33879 0.121708,-0.65722 0.194733,-1.26577 0.07303,-0.60854 0.121708,-1.07103 0.09737,-0.82762 0.267759,-1.1684 0.170391,-0.34078 0.511175,-0.60854 0.243417,-0.19473 0.535517,-0.36513 0.2921,-0.19473 0.559858,-0.19473 0.340783,0 0.5842,0.31644 0.243417,0.2921 0.243417,0.63289 0,0.17039 -0.121709,0.38946 -0.121708,0.19474 -0.243416,0.41381 -0.09737,0.17039 -0.219075,0.48683 -0.09737,0.2921 -0.219075,0.65723 -0.09737,0.34078 -0.194734,0.70591 -0.07303,0.36512 -0.121708,0.65722 -0.04868,0.19474 0.04868,0.19474 0.09737,-0.0243 0.219075,-0.19474 0.09737,-0.14605 0.2921,-0.43815 0.219075,-0.31644 0.486834,-0.68156 0.267758,-0.38947 0.559858,-0.77894 0.316442,-0.41381 0.632883,-0.75459 0.559859,-0.60854 1.1684,-1.09537 0.608542,-0.48684 1.363134,-0.48684 z"
         style="font-size:24.34166718px;fill:#f4c401;fill-opacity:1;stroke-width:0.26458332"
         id="path4604"
         inkscape:connector-curvature="0" />
      <path
         d="m 69.590007,306.54445 q 0,0.41381 -0.194733,0.85196 -0.170392,0.43815 -0.462492,0.85195 -0.2921,0.38947 -0.657225,0.73025 -0.340783,0.34079 -0.681567,0.55986 -0.194733,0.14605 -0.486833,0.31644 -0.2921,0.1704 -0.632883,0.34079 -0.340784,0.17039 -0.705909,0.31644 -0.365125,0.14605 -0.705908,0.24342 -0.219075,0.0487 -0.413808,0.073 -0.194734,0.0243 -0.340784,0.0243 -0.14605,0 -0.316441,-0.0974 -0.14605,-0.12171 -0.14605,-0.31645 0,-0.17039 0.07303,-0.36512 0.09737,-0.19473 0.219075,-0.31644 0.14605,-0.19474 0.462491,-0.41381 0.316442,-0.24342 0.705909,-0.51118 0.316441,-0.21907 0.681566,-0.4138 0.365125,-0.21908 0.681567,-0.4625 0.316442,-0.24341 0.535517,-0.53551 0.219075,-0.31644 0.219075,-0.68157 0,-0.38947 -0.219075,-0.65722 -0.219075,-0.2921 -0.535517,-0.4625 -0.2921,-0.17039 -0.632883,-0.24341 -0.316442,-0.073 -0.535517,-0.073 -0.316442,0 -0.43815,0.26776 -0.219075,0.48683 -0.43815,1.09538 -0.219075,0.5842 -0.657225,1.77694 -0.389467,1.07103 -0.73025,2.09338 -0.340783,1.02235 -0.608542,2.0447 -0.121708,0.2921 -0.04868,0.41381 0.07302,0.0974 0.340783,0.17039 0.340784,0.0974 0.900642,0.17039 0.5842,0.0487 0.998008,0.0974 0.413809,0.0487 0.389467,0.2921 -0.02434,0.24342 -0.365125,0.48683 -0.267758,0.19474 -0.900642,0.36513 -0.608541,0.17039 -1.387475,0.17039 -0.194733,0 -0.413808,0.0243 -0.194733,0.0487 -0.340783,0.21908 -0.121709,0.1217 -0.365125,0.21907 -0.219075,0.0974 -0.486834,0.0974 -0.608541,0 -1.02235,-0.2921 -0.413808,-0.26776 -0.608541,-0.68157 -0.2921,-0.65722 0.681566,-1.04669 0.194734,-0.073 0.316442,-0.17039 0.14605,-0.12171 0.243417,-0.31644 0.14605,-0.60855 0.413808,-1.48485 0.267758,-0.8763 0.559858,-1.80128 0.2921,-0.94932 0.5842,-1.84997 0.2921,-0.92498 0.511175,-1.63089 0.09737,-0.26776 0.07303,-0.34078 -0.02434,-0.0974 -0.219075,0.0243 -0.267758,0.14605 -0.657225,0.34078 -0.365125,0.19474 -0.486833,0.19474 -0.14605,0 -0.340783,-0.0487 -0.194734,-0.0487 -0.340784,-0.21907 -0.121708,-0.12171 -0.14605,-0.34078 0,-0.24342 0.316442,-0.51118 0.413808,-0.36512 0.998008,-0.65722 0.608542,-0.2921 1.144059,-0.48684 0.170391,-0.073 0.219075,-0.12171 0.07302,-0.0487 0.121708,-0.17039 0.09737,-0.24341 0.316442,-0.55986 0.243416,-0.31644 0.5842,-0.31644 0.194733,0 0.511175,0.17039 0.340783,0.14605 0.754591,0.55986 0.121709,0.12171 0.194734,0.17039 0.07303,0.0244 0.219075,0.0244 0.316441,0 0.778933,0.1217 0.462492,0.12171 0.924983,0.34079 0.486834,0.21907 0.900642,0.51117 0.43815,0.2921 0.705908,0.63289 0.219075,0.2921 0.2921,0.63288 0.09737,0.34078 0.09737,0.55986 z"
         style="font-size:24.34166718px;fill:#f4c401;fill-opacity:1;stroke-width:0.26458332"
         id="path4606"
         inkscape:connector-curvature="0" />
      <path
         d="m 69.096706,313.38446 q 0,-0.26776 0.07303,-0.7546 0.07303,-0.51117 0.267759,-1.31445 0.219075,-0.80327 0.5842,-1.94733 0.389466,-1.14406 1.02235,-2.70192 1.119716,-2.7993 1.776941,-4.16243 0.657225,-1.38747 0.924984,-1.72826 0.2921,-0.36512 0.632883,-0.36512 0.267758,0 0.43815,0.17039 0.608542,0.51117 0.5842,0.94932 -0.02434,0.41381 -0.413808,1.1684 -0.681567,1.31445 -1.217084,2.58022 -0.535516,1.24143 -0.973666,2.36114 -0.413809,1.11972 -0.73025,2.06904 -0.2921,0.94933 -0.511175,1.6309 -0.2921,0.94932 -0.194734,1.2901 0.09737,0.31645 0.389467,0.31645 0.2921,0 0.778933,-0.24342 0.486834,-0.26776 1.095375,-0.75459 0.632884,-0.48684 1.31445,-1.1684 0.705909,-0.70591 1.411817,-1.55787 0.14605,-0.19473 0.243417,-0.12171 0.09737,0.073 0.09737,0.26776 0,0.53552 -0.267758,1.07103 -0.267758,0.53552 -0.949325,1.31445 -0.657225,0.77894 -1.533525,1.48485 -0.851958,0.7059 -1.825625,1.21708 -0.949325,0.51117 -1.776942,0.51117 -0.535516,0 -0.900641,-0.46249 -0.340784,-0.46249 -0.340784,-1.11971 z"
         style="font-size:24.34166718px;fill:#f4c401;fill-opacity:1;stroke-width:0.26458332"
         id="path4608"
         inkscape:connector-curvature="0" />
      <path
         d="m 80.430417,306.1063 q 0.267759,0 0.43815,0.19473 0.194734,0.17039 0.316442,0.31644 0.07303,0.21908 0.316442,0.0487 0.2921,-0.26776 0.5842,-0.073 0.511175,0.2921 0.511175,0.51118 0.02434,0.21907 -0.02434,0.38946 -0.486833,1.09538 -0.778933,2.21509 -0.2921,1.09538 -0.2921,2.19075 0,0.63289 0.170391,0.92499 0.170392,0.26776 0.43815,0.26776 0.413809,0 1.533525,-0.94933 1.144059,-0.97367 2.507192,-2.89666 0.121708,-0.19473 0.267758,-0.17039 0.170392,0.0243 0.170392,0.24342 0,0.55986 -0.365125,1.24142 -0.413808,0.80328 -1.02235,1.58221 -0.608542,0.77893 -1.290108,1.41182 -0.681567,0.63288 -1.363134,1.02235 -0.681566,0.38946 -1.265766,0.38946 -0.681567,0 -1.144059,-0.51117 -0.43815,-0.51118 -0.511175,-1.26577 -0.04868,-0.26776 -0.04868,-0.46249 0,-0.19473 0,-0.38947 -0.02434,-0.26775 -0.219075,-0.073 -0.121709,0.12171 -0.389467,0.38947 -0.267758,0.26775 -0.608542,0.55985 -0.316441,0.2921 -0.681566,0.5842 -0.340784,0.2921 -0.5842,0.4625 -0.949325,0.7059 -1.679575,0.7059 -0.121709,0 -0.340784,-0.0974 -0.194733,-0.0974 -0.389466,-0.26776 -0.194734,-0.19473 -0.365125,-0.46249 -0.14605,-0.26776 -0.14605,-0.60854 0,-0.36513 0.170391,-0.99801 0.170392,-0.63289 0.754592,-1.7526 0.486833,-0.97367 1.192742,-1.82563 0.705908,-0.8763 1.484841,-1.58221 0.511175,-0.43815 0.949325,-0.68156 0.43815,-0.26776 0.778934,-0.38947 0.340783,-0.12171 0.5842,-0.14605 0.243416,-0.0487 0.340783,-0.0487 z m -0.900642,1.82562 q -0.170391,0 -0.486833,0.24342 -0.2921,0.24342 -0.827617,0.8763 -0.316441,0.36512 -0.608541,0.80327 -0.267759,0.41381 -0.486834,0.82762 -0.219075,0.38947 -0.365125,0.75459 -0.14605,0.36513 -0.194733,0.60854 -0.04868,0.24342 -0.02434,0.4625 0.04868,0.19473 0.194734,0.19473 0.14605,0 0.389466,-0.14605 0.267759,-0.17039 0.535517,-0.41381 0.316442,-0.26776 0.608542,-0.63288 0.316441,-0.38947 0.8763,-1.02235 0.267758,-0.2921 0.511175,-0.70591 0.243416,-0.41381 0.316441,-0.53552 0.121709,-0.19473 0.14605,-0.38946 0.04868,-0.21908 0,-0.41381 -0.04868,-0.17039 -0.194733,-0.34079 -0.14605,-0.17039 -0.389467,-0.17039 z"
         style="font-size:24.34166718px;fill:#f4c401;fill-opacity:1;stroke-width:0.26458332"
         id="path4610"
         inkscape:connector-curvature="0" />
      <path
         d="m 85.579073,308.88125 q 0.02434,-0.38947 -0.02434,-0.55986 -0.02434,-0.17039 -0.07303,-0.2921 -0.04868,-0.12171 -0.02434,-0.31644 0.04868,-0.21908 0.219075,-0.51118 0.219075,-0.38946 0.535517,-0.77893 0.340783,-0.41381 0.754591,-0.41381 0.243417,0 0.413809,0.24342 0.170391,0.21907 0.243416,0.5842 0.09737,0.36512 0.121709,0.77893 0.02434,0.41381 0.02434,0.77893 0,0.36513 -0.04868,0.85196 -0.04868,0.46249 -0.121708,0.97367 -0.04868,0.48683 -0.09737,0.94932 -0.04868,0.4625 -0.07303,0.7546 -0.04868,0.46249 0.04868,0.68156 0.09737,0.21908 0.219075,0.21908 0.07303,0 0.632884,-0.68157 0.559858,-0.70591 1.557866,-2.40982 0.267759,-0.4625 0.316442,-0.73025 0.04868,-0.26776 0,-0.48684 -0.04868,-0.19473 -0.02434,-0.43815 0.02434,-0.26776 0.194734,-0.55986 0.170391,-0.2921 0.340783,-0.55985 0.170392,-0.26776 0.43815,-0.60855 0.194733,-0.19473 0.340783,-0.31644 0.170392,-0.14605 0.43815,-0.14605 0.09737,0 0.243417,0.12171 0.170392,0.0974 0.316442,0.2921 0.170391,0.17039 0.2921,0.38947 0.121708,0.21907 0.121708,0.46249 0,0.21907 -0.09737,0.5842 -0.07303,0.34078 -0.243416,0.75459 -0.170392,0.41381 -0.511175,1.04669 -0.340784,0.63289 -0.754592,1.33879 -0.413808,0.70591 -0.900642,1.41182 -0.462491,0.68157 -0.8763,1.19274 -1.971675,2.43417 -3.2131,3.91901 -1.217083,1.48484 -1.411816,1.80128 -0.340784,0.4625 -0.267759,0.55986 0.365125,0.12171 0.365125,0.46249 0,0.26776 -0.243416,0.51118 -0.219075,0.24342 -0.535517,0.46249 -0.2921,0.21908 -0.608542,0.36513 -0.316441,0.17039 -0.511175,0.26775 -0.365125,0.1704 -0.535517,0.36513 -0.194733,0.19473 -0.413808,0.53552 -0.219075,0.34078 -0.511175,0.46249 -0.2921,0.12171 -0.632883,0.12171 -0.389467,0 -0.657225,-0.26776 -0.2921,-0.24342 -0.170392,-0.5842 0.09737,-0.34079 0.267758,-0.63289 0.14605,-0.2921 0.389467,-0.60854 0.365125,-0.48683 0.632883,-0.65722 0.267759,-0.17039 0.413809,-0.21908 0.340783,-0.12171 0.535516,-0.51117 0.14605,-0.31644 0.43815,-0.73025 0.267759,-0.41381 0.851959,-1.24143 0.43815,-0.55986 1.046692,-1.36313 0.632883,-0.80328 1.4605,-1.80128 0.14605,-0.1704 0.07303,-0.1704 H 86.11459 q -0.340783,0 -0.511175,-0.53551 -0.170392,-0.55986 -0.121708,-1.80129 z"
         style="font-size:24.34166718px;fill:#f4c401;fill-opacity:1;stroke-width:0.26458332"
         id="path4612"
         inkscape:connector-curvature="0" />
      <path
         d="m 93.063755,312.5325 q 0,-0.38947 0.09737,-0.90064 0.121708,-0.53552 0.340783,-1.11972 0.219075,-0.5842 0.511175,-1.19274 0.316442,-0.60854 0.73025,-1.19274 0.170392,-0.24342 0.486834,-0.60855 0.316441,-0.38946 0.681566,-0.7059 0.389467,-0.34079 0.803275,-0.5842 0.413809,-0.24342 0.803275,-0.24342 0.340784,0 0.535517,0.14605 0.194733,0.12171 0.316442,0.34078 0.14605,0.19474 0.365125,0.21908 0.632883,0.0487 1.02235,0.43815 0.389463,0.36512 0.389463,1.07103 0,0.65723 -0.292097,1.19274 -0.267758,0.51118 -0.632883,0.92499 -0.389467,0.38946 -1.02235,0.77893 -0.608542,0.36512 -1.4605,0.36512 -0.2921,0 -0.559858,-0.0487 -0.267759,-0.073 -0.43815,-0.14605 -0.219075,-0.0974 -0.316442,0.12171 -0.09737,0.31644 -0.09737,0.73025 0,0.51117 0.2921,0.80327 0.316442,0.2921 0.73025,0.2921 0.73025,0 1.533525,-0.31644 0.827617,-0.31644 1.630892,-0.82761 0.827613,-0.53552 1.606553,-1.21709 0.80327,-0.68156 1.50918,-1.38747 0.17039,-0.17039 0.34078,0.12171 0.0974,0.17039 0,0.51117 -0.073,0.31644 -0.31644,0.63288 -0.65722,0.8763 -1.53352,1.65524 -0.85196,0.75459 -1.825628,1.33879 -0.949325,0.55986 -1.971675,0.90064 -0.998008,0.34078 -1.947333,0.34078 -0.43815,0 -0.851959,-0.1217 -0.413808,-0.12171 -0.754591,-0.41381 -0.316442,-0.2921 -0.511175,-0.75459 -0.194734,-0.4625 -0.194734,-1.14406 z m 3.286125,-2.48285 q 0.2921,0 0.608542,-0.17039 0.340783,-0.19474 0.608542,-0.4625 0.2921,-0.26775 0.462491,-0.55985 0.194734,-0.31645 0.194734,-0.5842 0,-0.26776 -0.170392,-0.38947 -0.14605,-0.14605 -0.389467,-0.14605 -0.194733,0 -0.43815,0.19473 -0.219075,0.19474 -0.462491,0.48684 -0.219075,0.2921 -0.43815,0.63288 -0.194734,0.34078 -0.2921,0.63288 -0.07303,0.21908 0,0.2921 0.07303,0.073 0.316441,0.073 z"
         style="font-size:24.34166718px;fill:#f4c401;fill-opacity:1;stroke-width:0.26458332"
         id="path4614"
         inkscape:connector-curvature="0" />
      <path
         d="m 106.86396,306.44708 q 0.31644,0 0.60854,0.073 0.0974,0.0243 0.12171,0.0243 0.0487,-0.0243 0.0974,-0.14605 0.38947,-0.94933 0.75459,-1.87431 0.38947,-0.92498 0.70591,-1.70392 0.34078,-0.80327 0.5842,-1.36313 0.24342,-0.5842 0.36512,-0.80328 0.14605,-0.31644 0.26776,-0.4138 0.14605,-0.0974 0.26776,-0.0974 0.19473,0 0.38947,0.0974 0.21907,0.0974 0.51117,0.43815 0.26776,0.31644 0.26776,0.60854 0.0243,0.26776 -0.17039,0.73025 -0.26776,0.63288 -0.70591,1.58221 -0.43815,0.92498 -1.04669,2.58021 -0.26776,0.73025 -0.51118,1.53353 -0.21907,0.80327 -0.38946,1.55786 -0.17039,0.7546 -0.2921,1.41182 -0.12171,0.65723 -0.14605,1.11972 -0.12171,1.21708 0.46249,1.21708 0.31644,0 0.85196,-0.41381 0.53551,-0.41381 1.09537,-0.99801 0.55986,-0.5842 1.07104,-1.21708 0.53551,-0.65722 0.82761,-1.11972 0.14605,-0.21907 0.2921,-0.17039 0.14605,0.0243 0.14605,0.2921 0,0.26776 -0.0487,0.5842 -0.0487,0.31644 -0.21908,0.65723 -0.2921,0.5842 -0.85195,1.31445 -0.55986,0.73025 -1.26577,1.38747 -0.70591,0.65723 -1.48484,1.09538 -0.77894,0.43815 -1.48484,0.43815 -0.36513,0 -0.63289,-0.17039 -0.26776,-0.1704 -0.43815,-0.43815 -0.17039,-0.2921 -0.24341,-0.60855 -0.073,-0.34078 -0.0487,-0.65722 0.0243,-0.41381 0.0487,-0.65723 0.0243,-0.26775 0.073,-0.48683 0.0243,-0.14605 -0.0487,-0.14605 -0.0487,-0.0243 -0.14605,0.0974 -0.21908,0.26776 -0.53552,0.5842 -0.31644,0.31644 -0.65722,0.63288 -0.31645,0.2921 -0.63289,0.55986 -0.31644,0.24342 -0.53551,0.38947 -0.80328,0.55985 -1.48485,0.80327 -0.68156,0.24342 -1.09537,0.24342 -0.41381,0 -0.75459,-0.31644 -0.34079,-0.34079 -0.34079,-1.26577 0,-0.38947 0.12171,-0.92498 0.12171,-0.55986 0.41381,-1.21709 0.2921,-0.65722 0.75459,-1.36313 0.46249,-0.73025 1.14406,-1.48484 0.99801,-1.09538 1.97168,-1.53353 0.97366,-0.46249 1.99601,-0.46249 z m -0.48683,1.41182 q -0.34078,0 -1.04669,0.5842 -0.68157,0.5842 -1.38748,1.58221 -0.77893,1.09537 -0.97367,1.60655 -0.19473,0.48683 -0.19473,0.75459 0,0.41381 0.31644,0.41381 0.21908,0 0.63289,-0.24342 0.43815,-0.26776 1.02235,-0.82762 0.31644,-0.31644 0.63288,-0.75459 0.34078,-0.43815 0.63288,-0.8763 0.2921,-0.43815 0.51118,-0.77893 0.21907,-0.36513 0.26776,-0.51118 0.12171,-0.24341 0.0974,-0.38946 0,-0.1704 -0.073,-0.2921 -0.14605,-0.26776 -0.43815,-0.26776 z"
         style="font-size:24.34166718px;fill:#f4c401;fill-opacity:1;stroke-width:0.26458332"
         id="path4616"
         inkscape:connector-curvature="0" />
    </g>
  </g>
</svg>
