<?xml version="1.0" encoding="UTF-8" standalone="no"?>
<svg xmlns:dc="http://purl.org/dc/elements/1.1/" xmlns:cc="http://creativecommons.org/ns#" xmlns:rdf="http://www.w3.org/1999/02/22-rdf-syntax-ns#" xmlns:svg="http://www.w3.org/2000/svg" xmlns="http://www.w3.org/2000/svg" xml:space="preserve" enable-background="new 0 0 566.929 129.21" viewBox="0 0 566.929 129.21" height="129.21px" width="566.929px" y="0px" x="0px" id="Layer_2_1_" version="1.1">
  <metadata id="metadata58">
    <rdf:RDF>
      <cc:Work rdf:about="">
        <dc:format>image/svg+xml</dc:format>
        <dc:type rdf:resource="http://purl.org/dc/dcmitype/StillImage"/>
        <dc:title/>
      </cc:Work>
    </rdf:RDF>
  </metadata>
  <defs id="defs56"/>
  <g id="g5137" transform="matrix(0.10252157,0,0,0.10252157,199.56464,0.76250092)">
    <g id="g4615">
      <g id="g4598" transform="matrix(1.0975706,0,0,1.0975706,-1181.1446,-52.504109)">
        <g id="g4582">
          <path style="color:#000000;clip-rule:nonzero;display:inline;overflow:visible;visibility:visible;opacity:1;isolation:auto;mix-blend-mode:normal;color-interpolation:sRGB;color-interpolation-filters:linearRGB;solid-color:#000000;solid-opacity:1;vector-effect:none;fill:#2285c8;fill-opacity:1;fill-rule:nonzero;stroke:none;stroke-width:13.65566254;stroke-linecap:round;stroke-linejoin:miter;stroke-miterlimit:4;stroke-dasharray:none;stroke-dashoffset:0;stroke-opacity:1;color-rendering:auto;image-rendering:auto;shape-rendering:auto;text-rendering:auto;enable-background:accumulate" d="M 22.541566,311.66294 H 3725.2015 c 109.7821,0 190.7631,81.14813 168.5678,163.98197 l -79.8299,291.0433 c -20.001,72.9195 -100.4971,136.48517 -176.1099,136.48517 H -114.36133 c -75.6128,0 -156.4862,-63.56567 -136.4852,-136.48517 l 87.372,-318.5401 c 17.0436,-62.13726 82.886096,-136.48517 186.016096,-136.48517 z" id="rect5207"/><g aria-label="GAMES" style="font-style:normal;font-variant:normal;font-weight:normal;font-stretch:normal;font-size:490.40808105px;line-height:306.5050354px;font-family:'namco regular';-inkscape-font-specification:'namco regular, ';letter-spacing:0px;word-spacing:0px;fill:#ffffff;fill-opacity:1;stroke:none;stroke-width:12.26020241px;stroke-linecap:butt;stroke-linejoin:miter;stroke-opacity:1" id="text5221"/></g><g transform="translate(-8.022714,4.011357)" id="g4573"><path id="path5211" d="M 520.93398,79.668492 H 1882.0155 c 138.9076,0 274.5207,147.305758 229.4344,311.680718 L 2006.7455,773.07958 C 1935.1853,1040.1461 1755.073,1146.1889 1611.8039,1150.7339 H 259.92825 c -136.91429,0 -283.354084,-115.1003 -247.137687,-247.13779 L 167.51028,339.52003 C 205.57281,197.46899 398.79289,83.797917 520.93398,79.668492 Z" style="color:#000000;clip-rule:nonzero;display:inline;overflow:visible;visibility:visible;opacity:1;isolation:auto;mix-blend-mode:normal;color-interpolation:sRGB;color-interpolation-filters:linearRGB;solid-color:#000000;solid-opacity:1;vector-effect:none;fill:#050608;fill-opacity:1;fill-rule:nonzero;stroke:none;stroke-width:24.72670746;stroke-linecap:round;stroke-linejoin:miter;stroke-miterlimit:4;stroke-dasharray:none;stroke-dashoffset:0;stroke-opacity:1;color-rendering:auto;image-rendering:auto;shape-rendering:auto;text-rendering:auto;enable-background:accumulate"/><g aria-label="ALL " transform="skewX(-3.4829607)" style="font-style:normal;font-variant:normal;font-weight:normal;font-stretch:normal;font-size:390.1618042px;line-height:243.85112px;font-family:'namco regular';-inkscape-font-specification:'namco regular, ';letter-spacing:0px;word-spacing:0px;fill:#ed1e24;fill-opacity:1;stroke:none;stroke-width:9.75404453px;stroke-linecap:butt;stroke-linejoin:miter;stroke-opacity:1" id="text5215"/>
        </g>
        <g id="text831" style="fill:#ff0000;fill-opacity:1;stroke:none;stroke-width:9.27223778" transform="matrix(1.197312,0,0,0.88493547,-78.843801,0)">
          <path id="path851" d="m 684.94336,207.34961 -265.08008,23.10937 -23.10742,86.05664 89.24609,-7.70117 c -19.30106,55.07001 -36.47801,110.84739 -51.52929,167.33399 -13.6347,50.9973 -25.58714,102.34908 -35.85743,154.05468 l 78.88672,2.39063 c 11.50982,-42.14361 23.10804,-84.90789 34.79493,-128.29102 14.16591,-53.83048 31.42946,-112.35294 51.79296,-175.56835 L 517.34375,315.1875 659.71094,302.43945 Z m 193.18164,8.35351 c -3.74069,0.10929 -7.57508,0.33466 -11.50391,0.67774 -48.69534,4.24977 -93.76,29.92566 -135.19531,77.02734 -36.47724,41.61238 -61.79893,88.62517 -75.96484,141.03907 -13.6347,51.35145 -13.36905,95.444 0.79687,132.27539 17.17618,42.67482 49.22579,61.88649 96.15039,57.63672 46.57046,-3.89564 90.22026,-27.00354 130.94727,-69.32422 38.07091,-38.95628 63.56969,-83.13543 76.49609,-132.53907 12.21811,-43.73726 10.44709,-80.56863 -5.3125,-110.49414 l 28.41992,-22.3125 C 969.18042,238.72535 934.23531,214.06381 878.125,215.70312 Z m 468.9863,0.14649 -83.4004,7.17187 c -46.2163,171.93884 -76.4082,267.02701 -90.5742,285.26563 -17.3532,21.78009 -37.3619,33.55543 -60.0273,35.32617 -22.8426,2.12489 -37.363,-8.94204 -43.5606,-33.20117 -4.781,-19.30106 -3.8069,-41.96622 2.9219,-67.99609 l 58.9648,-219.66016 -78.8867,6.64062 c -51.5285,192.83356 -69.67755,306.78115 -54.44919,341.8418 17.17619,39.31043 48.25169,57.01672 93.22849,53.1211 44.2685,-3.71856 85.5274,-25.23255 123.7754,-64.54297 36.3001,-36.83139 60.6478,-78.35596 73.043,-124.57227 z m 208.9707,0.66406 c -11.0228,-0.0885 -22.0676,0.30994 -33.1347,1.19531 -24.7904,2.12489 -45.1552,6.9952 -61.0918,14.60938 -20.0094,9.20785 -38.6897,23.4626 -56.043,42.76367 -17.1761,19.12399 -28.3316,38.86696 -33.4668,59.23047 -4.0727,15.58251 -3.1006,36.12244 2.9199,61.62109 5.1352,19.65521 10.2711,38.95738 15.4063,57.9043 5.3122,25.32158 6.4634,43.11643 3.4531,53.38672 -3.0102,12.21811 -11.8634,21.33886 -26.5605,27.35937 -18.4158,7.26004 -42.0549,12.8368 -70.918,16.73243 l -14.0781,94.29297 c 36.6543,-3.36441 71.626,-11.86531 104.916,-25.5 43.7372,-17.17618 74.1064,-40.28409 91.1054,-69.32422 5.1352,-9.03078 9.2066,-19.12364 12.2168,-30.2793 5.4894,-20.00936 6.1092,-44.53409 1.8594,-73.57422 -2.1249,-14.34299 -7.1703,-37.00815 -15.1387,-67.99609 -6.0205,-22.66548 -8.4114,-36.65458 -7.1718,-41.9668 1.5936,-4.95807 4.9586,-10.00548 10.0937,-15.14063 5.1352,-5.13514 10.2692,-8.58668 15.4043,-10.35742 l 64.2774,-5.3125 28.9531,-87.91797 c -10.9786,-1.06244 -21.9791,-1.63802 -33.002,-1.72656 z m -700.59177,86.31641 c 27.69548,0.73597 44.95219,13.26626 51.76954,37.5918 l -30.2793,23.63867 c 9.91614,17.88447 11.15586,40.28397 3.71875,67.19922 -6.72881,26.02987 -19.124,49.84619 -37.18555,71.44921 -21.24888,25.14451 -43.73693,38.77941 -67.46484,40.9043 -26.38402,2.12489 -42.32126,-10.00465 -47.81055,-36.38867 -4.42685,-20.54058 -2.74438,-45.86227 5.04688,-75.96484 8.1454,-30.27966 20.80624,-57.01815 37.98242,-80.21485 21.60302,-29.39428 45.50789,-45.32956 71.71484,-47.80859 4.38258,-0.37628 8.55132,-0.51139 12.50781,-0.40625 z m 274.35157,452.47656 c -33.2899,3.01026 -64.454,5.75339 -93.4941,8.23242 -49.22661,4.24978 -105.4487,7.70326 -168.66411,10.35938 l -20.45117,77.02734 30.01367,-2.65625 c -14.16591,53.47634 -28.24357,106.06786 -42.23242,157.77347 -14.69714,54.8929 -28.42059,111.3787 -41.16992,169.459 37.71676,-3.3644 75.34509,-6.6408 112.88477,-9.8282 37.18553,-3.1873 74.54819,-5.4877 112.08788,-6.9043 l 22.0469,-83.4023 c -23.1967,2.1249 -46.57219,4.073 -70.12307,5.8437 -23.72791,2.125 -47.45568,4.87 -71.18359,8.2344 1.77074,-13.2805 4.42727,-26.7383 7.96875,-40.373 3.71855,-13.6347 8.41176,-27.3582 14.07813,-41.17 21.24888,-3.7185 41.96591,-6.4636 62.15234,-8.23433 20.89474,-1.77074 41.43464,-2.65625 61.62114,-2.65625 l 22.8437,-83.40234 -62.6855,5.3125 c -20.5406,1.77074 -41.25765,4.16161 -62.15239,7.17187 3.01026,-16.46788 6.99505,-32.93642 11.95313,-49.4043 3.01025,-11.68688 6.02099,-22.48815 9.03125,-32.40429 21.7801,-2.12489 43.20551,-4.16157 64.27731,-6.10938 24.7904,-2.12489 51.3518,-3.7188 79.6836,-4.78125 z m 209.5,5.17774 c -11.0229,-0.0885 -22.0676,0.30994 -33.1348,1.19531 -24.7903,2.12489 -45.1531,6.99519 -61.0898,14.60937 -20.0094,9.20785 -38.6898,23.46261 -56.043,42.76367 -17.1762,19.124 -28.3336,38.86697 -33.4687,59.23047 -4.0728,15.58251 -3.0987,36.1244 2.9218,61.62305 5.1352,19.65521 10.2712,38.95543 15.4063,57.90234 5.3123,25.32161 6.4634,43.11841 3.4531,53.38871 -3.0102,12.2181 -11.8634,21.3369 -26.5605,27.3574 -18.4158,7.2601 -42.0569,12.8368 -70.92,16.7324 l -14.0761,94.293 c 36.6542,-3.3644 71.6261,-11.8634 104.916,-25.4981 43.7373,-17.1762 74.1063,-40.286 91.1055,-69.3261 5.1351,-9.0308 9.2065,-19.1237 12.2168,-30.2793 5.4892,-20.0094 6.1091,-44.5341 1.8593,-73.57426 -2.1248,-14.34298 -7.1703,-37.00814 -15.1386,-67.99609 -6.0205,-22.66547 -8.4114,-36.65458 -7.1719,-41.9668 1.5937,-4.95807 4.9567,-10.00352 10.0918,-15.13867 5.1352,-5.13515 10.2711,-8.58863 15.4062,-10.35937 l 64.2774,-5.3125 28.9531,-87.91797 c -10.9786,-1.06245 -21.9811,-1.63803 -33.0039,-1.72656 z m -601.27539,10.22656 -83.40235,1.85937 c -22.66546,66.7569 -43.3825,134.40011 -62.15234,202.92774 -17.53033,66.22565 -33.37901,134.57535 -47.54492,205.05075 22.66546,-0.3541 46.57033,-1.5939 71.71484,-3.7187 52.23682,-4.4269 90.3079,-8.6754 114.21289,-12.7481 l 28.95117,-86.0586 c -19.30106,3.3644 -37.98142,5.9324 -56.04297,7.7032 -18.59276,1.5936 -37.62928,2.2135 -57.10742,1.8593 10.27029,-37.5396 19.7433,-73.2218 28.41992,-107.04293 16.9991,-63.03834 37.98374,-132.98193 62.95118,-209.83203 z" style="font-style:normal;font-variant:normal;font-weight:normal;font-stretch:normal;font-size:543.97125244px;line-height:1;font-family:'SF Comic Script';-inkscape-font-specification:'SF Comic Script';text-align:center;text-anchor:middle;fill:#ff0000;fill-opacity:1;stroke-width:9.27223778"/>
        </g>
        <g id="text837" style="fill:#000000;fill-opacity:1;stroke:none;stroke-width:9.46601868" transform="scale(1.0651605,0.93882565)">
          <path d="m 2455.1367,429.14258 c -15.8969,-0.16948 -36.3187,0.82875 -61.2656,2.99804 -36.8781,3.07317 -78.0932,7.95587 -123.6484,14.64454 l -21.6934,81.07617 c 17.8967,-1.4462 30.5511,-2.53081 37.9629,-3.25391 7.4117,-0.90387 9.0386,5.60379 4.8808,19.52344 -41.0358,153.83922 -73.6668,231.84437 -97.8906,234.01367 -15.185,1.26542 -26.3013,-1.17592 -33.3515,-7.32226 l -70.7735,70.77343 c 15.9082,21.87374 42.3904,31.27434 79.4492,28.20118 26.2123,-2.1693 53.0574,-12.02151 80.5352,-29.55665 48.4476,-30.55091 79.6312,-72.03823 93.5508,-124.46289 4.8809,-17.35436 11.2091,-43.11484 18.9824,-77.28125 7.9541,-34.1664 14.4618,-59.74546 19.5234,-76.73828 1.8078,-8.31563 3.8863,-15.90986 6.2364,-22.77929 l -49.0801,-20.33594 c 16.089,-1.26542 32.3581,-2.44074 48.8086,-3.52539 16.6312,-1.08465 28.9248,-1.89909 36.8789,-2.44141 4.7001,-0.36155 10.8469,-0.99261 18.4394,-1.89648 l 26.8438,-81.07813 c -4.2934,-0.31635 -9.0897,-0.5021 -14.3887,-0.55859 z m 311.041,1.10156 c -33.9856,3.07317 -65.8022,5.8754 -95.4492,8.40625 -50.2554,4.33859 -107.651,7.8626 -172.1875,10.57422 l -20.8808,78.63672 30.6425,-2.71094 c -14.4619,54.59394 -28.834,108.28411 -43.1152,161.07031 -15.0043,56.04014 -29.0136,113.70592 -42.0293,173 38.505,-3.43472 76.918,-6.77731 115.2422,-10.03125 37.9627,-3.25394 76.1074,-5.60458 114.4316,-7.05078 l 22.5059,-85.14453 c -23.6815,2.1693 -47.5429,4.1571 -71.5859,5.96484 -24.2238,2.1693 -48.4481,4.97153 -72.6719,8.40625 1.8078,-13.5581 4.5193,-27.29715 8.1347,-41.21679 3.7963,-13.91965 8.5863,-27.92887 14.3711,-42.0293 21.693,-3.79627 42.8448,-6.5985 63.4532,-8.40625 C 2638.3705,677.90514 2659.3389,677 2679.9473,677 l 23.3203,-85.14453 -63.9942,5.42383 c -20.9698,1.80774 -42.1197,4.24714 -63.4511,7.32031 3.0731,-16.81205 7.1394,-33.62351 12.2011,-50.43555 3.0732,-11.93112 6.1475,-22.95865 9.2207,-33.08203 22.2353,-2.1693 44.1089,-4.24781 65.6211,-6.23633 25.3084,-2.16929 52.4237,-3.79621 81.3477,-4.88086 z m 606.5899,1.35547 c -45.5552,45.91676 -83.4279,86.5009 -113.6172,121.75195 -13.3773,-67.24816 -20.518,-104.75989 -21.4219,-112.5332 l -98.1601,36.06445 c 7.4118,43.92824 19.6126,103.3136 36.6054,178.1543 -32.3586,39.2281 -76.1966,97.43618 -131.5136,174.62695 l 52.0644,30.09961 c 33.2625,-52.78619 66.4339,-97.70877 99.5156,-134.76758 14.6428,54.41318 26.7549,95.44891 36.336,123.10743 l 93.0078,-26.30274 c -19.3429,-47.90529 -37.6906,-111.17553 -55.0449,-189.8125 56.5824,-65.07887 107.3797,-119.40206 152.3925,-162.96875 z m -265.4688,3.25391 -85.1445,7.32031 c -47.1822,175.53218 -78.0048,272.60873 -92.4668,291.22851 -17.7159,22.23529 -38.142,34.25671 -61.2813,36.06446 -23.3199,2.16929 -38.1436,-9.12841 -44.4707,-33.89453 -4.8809,-19.70444 -3.887,-42.8441 2.9825,-69.41797 l 60.1972,-224.25 -80.5351,6.77734 c -52.6054,196.86359 -71.1345,313.19295 -55.5879,348.98633 17.5351,40.13197 49.2609,58.20947 95.1777,54.23242 45.1937,-3.79627 87.3141,-25.76061 126.3613,-65.89258 37.0589,-37.60113 61.9161,-79.9936 74.5704,-127.17578 z" id="path832" style="font-style:normal;font-variant:normal;font-weight:normal;font-stretch:normal;font-size:555.33972168px;font-family:'SF Comic Script';-inkscape-font-specification:'SF Comic Script';fill:#ffffff;stroke-width:9.46601868"/>
      </g>
    </g>
  </g>
  </g>
</svg>
