<?xml version="1.0" encoding="UTF-8" standalone="no"?>
<!-- Created with Inkscape (http://www.inkscape.org/) -->

<svg
   xmlns:dc="http://purl.org/dc/elements/1.1/"
   xmlns:cc="http://creativecommons.org/ns#"
   xmlns:rdf="http://www.w3.org/1999/02/22-rdf-syntax-ns#"
   xmlns:svg="http://www.w3.org/2000/svg"
   xmlns="http://www.w3.org/2000/svg"
   xmlns:sodipodi="http://sodipodi.sourceforge.net/DTD/sodipodi-0.dtd"
   xmlns:inkscape="http://www.inkscape.org/namespaces/inkscape"
   width="500"
   height="209.21196"
   id="svg3383"
   version="1.1"
   inkscape:version="0.48.0 r9654"
   sodipodi:docname="New document 4">
  <defs
     id="defs3385" />
  <sodipodi:namedview
     id="base"
     pagecolor="#ffffff"
     bordercolor="#666666"
     borderopacity="1.0"
     inkscape:pageopacity="0.0"
     inkscape:pageshadow="2"
     inkscape:zoom="0.49497475"
     inkscape:cx="426.92547"
     inkscape:cy="-168.3205"
     inkscape:document-units="px"
     inkscape:current-layer="layer1"
     showgrid="false"
     fit-margin-top="0"
     fit-margin-left="0"
     fit-margin-right="0"
     fit-margin-bottom="0"
     inkscape:window-width="1366"
     inkscape:window-height="716"
     inkscape:window-x="-8"
     inkscape:window-y="-8"
     inkscape:window-maximized="1" />
  <metadata
     id="metadata3388">
    <rdf:RDF>
      <cc:Work
         rdf:about="">
        <dc:format>image/svg+xml</dc:format>
        <dc:type
           rdf:resource="http://purl.org/dc/dcmitype/StillImage" />
        <dc:title></dc:title>
      </cc:Work>
    </rdf:RDF>
  </metadata>
  <g
     inkscape:label="Layer 1"
     inkscape:groupmode="layer"
     id="layer1"
     transform="translate(-167.58127,-490.78279)">
    <g
       id="g3103"
       transform="matrix(9.280573,0,0,-9.280573,604.6497,526.00257)">
      <path
         inkscape:connector-curvature="0"
         d="M 0,0 C 0,1.657 1.349,3.006 3.003,3.006 4.659,3.006 6.009,1.657 6.009,0 6.009,-1.653 4.659,-3.002 3.003,-3.002 1.349,-3.002 0,-1.653 0,0 z m -0.774,0 c 0,-2.079 1.695,-3.774 3.777,-3.774 2.081,0 3.778,1.695 3.778,3.774 0,2.085 -1.697,3.779 -3.778,3.779 C 0.921,3.779 -0.774,2.085 -0.774,0"
         style="fill:#ed1c24;fill-opacity:1;fill-rule:nonzero;stroke:none"
         id="path3105" />
    </g>
    <g
       id="g3107"
       transform="matrix(9.280573,0,0,-9.280573,593.3182,493.1215)">
      <path
         inkscape:connector-curvature="0"
         d="m 0,0 -4.316,0 0,-0.771 c 0,0 1.249,0 1.771,0 0,-0.687 0,-6.546 0,-6.546 l 0.774,0 0,6.546 1.771,0 L 0,0"
         style="fill:#ed1c24;fill-opacity:1;fill-rule:nonzero;stroke:none"
         id="path3109" />
    </g>
    <g
       id="g3111"
       transform="matrix(9.280573,0,0,-9.280573,468.17903,553.86285)">
      <path
         inkscape:connector-curvature="0"
         d="m 0,0 c 0,0.308 0,1.453 0,2.667 l 2.281,0 0,0.773 -2.281,0 c 0,1.039 0,2.066 0,2.334 0.565,0 2.281,0 2.281,0 l 0,0.771 -3.05,0 0,-7.317 3.396,0 0,0.772 C 2.627,0 0.588,0 0,0"
         style="fill:#ed1c24;fill-opacity:1;fill-rule:nonzero;stroke:none"
         id="path3113" />
    </g>
    <g
       id="g3115"
       transform="matrix(9.280573,0,0,-9.280573,426.33292,498.35567)">
      <path
         inkscape:connector-curvature="0"
         d="M 0,0 C 0.798,0 1.449,-0.65 1.449,-1.449 1.449,-2.249 0.798,-2.9 0,-2.9 c -0.801,0 -1.453,0.651 -1.453,1.451 C -1.453,-0.65 -0.801,0 0,0 z m -2.221,-1.757 0,-4.991 0.768,0 0,3.564 2.849,-3.564 0.984,-0.005 -2.461,3.089 c 0.022,0 0.055,-0.005 0.081,-0.005 1.224,0 2.219,0.995 2.219,2.22 0,1.225 -0.995,2.218 -2.219,2.218 -1.226,0 -2.221,-0.993 -2.221,-2.218 l 0,-0.308"
         style="fill:#ed1c24;fill-opacity:1;fill-rule:nonzero;stroke:none"
         id="path3117" />
    </g>
    <g
       id="g3119"
       transform="matrix(9.280573,0,0,-9.280573,369.27581,531.27401)">
      <path
         inkscape:connector-curvature="0"
         d="m 0,0 c -0.994,0 -1.792,0.8 -1.792,1.79 0,0.977 0.798,1.784 1.792,1.784 0.979,0 1.781,-0.807 1.781,-1.784 C 1.781,0.8 0.979,0 0,0 z m -2.568,1.477 0,-4.683 0.776,0 0,3.163 c 0.456,-0.453 1.091,-0.729 1.792,-0.729 1.404,0 2.554,1.144 2.554,2.562 0,1.405 -1.15,2.557 -2.554,2.557 -1.421,0 -2.568,-1.152 -2.568,-2.557 l 0,-0.313"
         style="fill:#ed1c24;fill-opacity:1;fill-rule:nonzero;stroke:none"
         id="path3121" />
    </g>
    <g
       id="g3123"
       transform="matrix(9.280573,0,0,-9.280573,174.68091,526.43861)">
      <path
         inkscape:connector-curvature="0"
         d="m 0,0 1.293,-0.005 c 0.81,0 1.466,-0.66 1.466,-1.468 0,-0.822 -0.656,-1.482 -1.466,-1.482 l -1.298,0 L 0,0 z M 0,1.912 C 0.004,2.215 0.142,2.517 0.361,2.728 0.58,2.934 0.866,3.045 1.169,3.041 1.468,3.036 1.753,2.914 1.965,2.696 2.171,2.477 2.284,2.195 2.281,1.891 2.27,1.301 1.763,0.805 1.157,0.784 L 0,0.784 0,1.912 z m 1.293,-5.639 c 1.24,0 2.254,1.018 2.254,2.259 0,0.834 -0.463,1.563 -1.139,1.953 C 2.801,0.826 3.057,1.323 3.061,1.88 3.072,2.385 2.881,2.872 2.525,3.238 2.169,3.605 1.693,3.813 1.181,3.826 0.673,3.835 0.187,3.642 -0.181,3.287 -0.547,2.931 -0.756,2.456 -0.761,1.943 l -0.004,-5.67 2.058,0"
         style="fill:#ed1c24;fill-opacity:1;fill-rule:nonzero;stroke:none"
         id="path3125" />
    </g>
    <g
       id="g3127"
       transform="matrix(9.280573,0,0,-9.280573,506.82319,509.26041)">
      <path
         inkscape:connector-curvature="0"
         d="m 0,0 c 0,-0.732 0.33,-1.67 1.907,-1.979 1.071,-0.208 1.584,-0.462 1.584,-1.337 0,-0.824 -0.676,-1.496 -1.5,-1.496 -0.626,0 -1.189,0.394 -1.409,0.98 l -0.714,-0.262 c 0.326,-0.887 1.176,-1.484 2.123,-1.484 1.251,0 2.259,1.018 2.259,2.262 0,1.659 -1.428,1.939 -2.197,2.089 C 0.9,-0.997 0.769,-0.416 0.769,0 c 0,0.679 0.547,1.227 1.222,1.227 0.594,0 0.994,-0.61 1.101,-0.804 L 3.757,0.8 C 3.596,1.083 2.993,1.991 1.991,1.991 0.889,1.991 0,1.099 0,0"
         style="fill:#ed1c24;fill-opacity:1;fill-rule:nonzero;stroke:none"
         id="path3129" />
    </g>
    <g
       id="g3131"
       transform="matrix(9.280573,0,0,-9.280573,228.65665,527.71947)">
      <path
         inkscape:connector-curvature="0"
         d="M 0,0 0,1.3 C 0,3.136 1.44,3.191 1.601,3.191 1.768,3.191 3.21,3.136 3.21,1.3 L 3.21,0 0,0 z M 1.601,3.964 C 0.782,3.964 -0.775,3.407 -0.775,1.3 l 0,-4.889 0.775,0 0,2.817 3.21,0 0,-2.817 0.772,0 0,4.889 c 0,2.107 -1.555,2.664 -2.381,2.664"
         style="fill:#ed1c24;fill-opacity:1;fill-rule:nonzero;stroke:none"
         id="path3133" />
    </g>
    <g
       id="g3135"
       transform="matrix(9.280573,0,0,-9.280573,282.18707,515.6548)">
      <path
         inkscape:connector-curvature="0"
         d="m 0,0 0,-4.889 0.769,0 0,4.889 c 0,1.836 1.6,1.891 1.787,1.891 0.183,0 1.783,-0.055 1.783,-1.891 l 0,-4.889 0.77,0 0,4.889 C 5.109,2.107 3.436,2.664 2.556,2.664 1.669,2.664 0,2.107 0,0"
         style="fill:#ed1c24;fill-opacity:1;fill-rule:nonzero;stroke:none"
         id="path3137" />
    </g>
    <g
       id="g3139"
       transform="matrix(9.280573,0,0,-9.280573,537.92253,603.86658)">
      <path
         inkscape:connector-curvature="0"
         d="m 0,0 -8.334,0 c 0,-2.878 2.435,-3.958 3.936,-3.958 1.508,0 3.781,1.08 4.398,3.958 z m -21.95,-3.958 c 1.507,0 3.934,1.08 3.934,3.958 l -8.335,0 c 0.62,-2.878 2.898,-3.958 4.401,-3.958 z m 6.905,-2.547 -3.603,-3.853 -16.282,7.577 0,5.38 43.513,0 0,-5.38 -16.279,-7.577 -3.605,3.853 c -0.557,0.637 -1.062,0.965 -1.868,0.965 -0.815,0 -1.316,-0.328 -1.876,-0.965"
         style="fill:#231f20;fill-opacity:1;fill-rule:nonzero;stroke:none"
         id="path3141" />
    </g>
  </g>
</svg>
