<?xml version="1.0" encoding="utf-8"?>
<!-- Generator: Adobe Illustrator 13.0.0, SVG Export Plug-In . SVG Version: 6.00 Build 14948)  -->
<!DOCTYPE svg PUBLIC "-//W3C//DTD SVG 1.1//EN" "http://www.w3.org/Graphics/SVG/1.1/DTD/svg11.dtd">
<svg version="1.1" id="Layer_3" xmlns="http://www.w3.org/2000/svg" xmlns:xlink="http://www.w3.org/1999/xlink" x="0px" y="0px"
	 width="169.5px" height="67.609px" viewBox="187.964 0 169.5 67.609" enable-background="new 187.964 0 169.5 67.609"
	 xml:space="preserve">
<rect x="192.703" y="4.104" width="161.302" height="60.594"/>
<rect x="194.132" y="5.432" fill="#1F0200" width="48.983" height="57.878"/>
<g>
	<path fill="#F9F8E1" d="M265.563,28.495c0,5.628-4.411,8.442-13.232,8.442c-1.531,0-3.916-0.042-7.155-0.127
		c0.176-4.271,0.265-9.086,0.265-14.446c0-5.147-0.088-9.538-0.265-13.173h3.293c0.624,0,1.67-0.021,3.14-0.063
		s2.619-0.064,3.445-0.064c6.003,0,9.004,2.037,9.004,6.109c0,3.14-1.538,5.218-4.614,6.236v0.318
		c1.639,0.269,3.069,0.937,4.289,2.004C264.953,24.801,265.563,26.388,265.563,28.495z M258.591,16.85
		c0-2.531-1.518-3.797-4.553-3.797c-1.396,0-2.636,0.106-3.719,0.318c0.148,1.429,0.223,3.882,0.223,7.361
		c0.515,0.028,1.057,0.042,1.626,0.042C256.45,20.773,258.591,19.466,258.591,16.85z M260.075,28.729
		c0-2.814-2.364-4.222-7.094-4.222c-0.935,0-1.741,0.036-2.418,0.106c0,2.956,0.061,5.678,0.183,8.167
		c0.46,0.114,1.151,0.17,2.073,0.17c2.507,0,4.343-0.314,5.508-0.944S260.075,30.284,260.075,28.729z"/>
	<path fill="#F9F8E1" d="M290.442,28.495c0,5.628-4.411,8.442-13.232,8.442c-1.531,0-3.916-0.042-7.154-0.127
		c0.176-4.271,0.264-9.086,0.264-14.446c0-5.147-0.088-9.538-0.264-13.173h3.292c0.623,0,1.67-0.021,3.14-0.063
		c1.471-0.042,2.619-0.064,3.445-0.064c6.003,0,9.004,2.037,9.004,6.109c0,3.14-1.537,5.218-4.613,6.236v0.318
		c1.64,0.269,3.069,0.937,4.289,2.004C289.832,24.801,290.442,26.388,290.442,28.495z M283.47,16.85
		c0-2.531-1.518-3.797-4.553-3.797c-1.396,0-2.636,0.106-3.72,0.318c0.149,1.429,0.224,3.882,0.224,7.361
		c0.515,0.028,1.057,0.042,1.626,0.042C281.329,20.773,283.47,19.466,283.47,16.85z M284.954,28.729
		c0-2.814-2.365-4.222-7.093-4.222c-0.935,0-1.742,0.036-2.419,0.106c0,2.956,0.061,5.678,0.183,8.167
		c0.46,0.114,1.151,0.17,2.073,0.17c2.507,0,4.343-0.314,5.508-0.944S284.954,30.284,284.954,28.729z"/>
	<path fill="#F9F8E1" d="M313.877,31.783l-0.346,4.879c-1.925,0.48-3.821,0.721-5.691,0.721c-4.647,0-8.188-1.339-10.62-4.02
		c-2.433-2.68-3.648-5.936-3.648-9.769c0-3.973,1.291-7.431,3.872-10.373c2.581-2.941,6.122-4.412,10.62-4.412
		c1.653,0,3.219,0.198,4.695,0.594l-0.711,4.9c-1.6-0.538-3.131-0.806-4.594-0.806c-2.751,0-4.797,0.909-6.139,2.726
		c-1.342,1.817-2.012,4.027-2.012,6.629c0,2.659,0.795,4.964,2.389,6.915c1.592,1.952,3.824,2.928,6.696,2.928
		C310.07,32.695,311.899,32.392,313.877,31.783z"/>
</g>
<g>
	<path fill="#F9F8E1" d="M250.922,50.963l-3.193-9.094c-0.018-0.041-0.054-0.081-0.126-0.081s-0.161,0.054-0.161,0.136v9.039h-1.489
		v-9.962h2.745l2.798,7.736c0.036,0.081,0.09,0.122,0.162,0.122c0.108,0,0.198-0.055,0.215-0.136l2.727-7.723h2.781v9.962h-1.489
		v-8.984c0-0.082-0.072-0.123-0.126-0.123c-0.072,0-0.144,0.027-0.179,0.096l-3.157,9.012H250.922z"/>
	<path fill="#F9F8E1" d="M261.057,50.081h1.112V41.91h-1.112v-0.909h4.144v0.909h-1.166v8.171h1.166v0.882h-4.144V50.081z"/>
	<path fill="#F9F8E1" d="M274.42,43.893c-0.144-0.965-0.753-1.833-2.188-1.833c-1.31,0-1.866,0.773-2.152,1.303
		c-0.484,0.896-0.539,2.28-0.539,2.39c0,2.185,0.521,4.315,2.691,4.315c1.041,0,1.579-0.569,1.74-0.76
		c0.358-0.462,0.43-1.032,0.466-1.357l1.794,0.244c-0.072,0.787-0.448,1.642-1.237,2.239c-1.13,0.855-2.422,0.855-2.924,0.855
		c-1.077,0-4.323-0.421-4.323-5.212c0-2.294,0.771-5.198,4.484-5.198c0.843,0,1.938,0.189,2.745,0.814
		c0.897,0.691,1.076,1.479,1.166,1.954L274.42,43.893z"/>
	<path fill="#F9F8E1" d="M279.73,41.001h4.054c3.678,0,4.467,1.683,4.467,2.701c0,1.872-1.632,2.375-2.816,2.659l3.444,4.602h-2.152
		l-3.122-4.424h-2.027v4.424h-1.848V41.001z M281.56,42.168v3.299c1.004,0.014,2.296,0.014,2.977-0.096
		c0.719-0.122,1.848-0.407,1.848-1.52c0-1.168-1.039-1.684-3.013-1.684H281.56z"/>
	<path fill="#F9F8E1" d="M298.959,43.268c0.395,0.882,0.502,2.049,0.502,2.742c0,2.375-0.879,5.252-4.431,5.252
		c-3.229,0-4.449-2.457-4.449-5.117c0-1.52,0.324-2.904,1.077-3.813c1.095-1.33,2.403-1.479,3.372-1.479
		C297.255,40.852,298.421,42.073,298.959,43.268z M295.067,42.046c-1.13,0-1.829,0.597-2.206,1.534
		c-0.252,0.597-0.395,1.479-0.395,2.523c0,1.264,0.232,3.923,2.529,3.923c1.865,0,2.582-1.452,2.582-3.977
		C297.578,44.733,297.417,42.046,295.067,42.046z"/>
</g>
<circle fill="#F9F8E1" cx="199.287" cy="10.039" r="1.863"/>
<circle fill="#F9F8E1" cx="204.204" cy="10.039" r="1.863"/>
<circle fill="#F9F8E1" cx="209.121" cy="10.039" r="1.863"/>
<circle fill="#F9F8E1" cx="214.039" cy="10.039" r="1.863"/>
<circle fill="#F9F8E1" cx="218.956" cy="10.039" r="1.863"/>
<circle fill="#F9F8E1" cx="223.873" cy="10.039" r="1.863"/>
<circle fill="#F9F8E1" cx="228.79" cy="10.039" r="1.863"/>
<circle fill="#F9F8E1" cx="233.707" cy="10.039" r="1.863"/>
<circle fill="#F9F8E1" cx="238.624" cy="10.039" r="1.863"/>
<circle fill="#F9F8E1" cx="201.713" cy="12.854" r="1.863"/>
<circle fill="#F9F8E1" cx="216.465" cy="12.854" r="1.863"/>
<circle fill="#F9F8E1" cx="221.382" cy="12.854" r="1.863"/>
<circle fill="#F9F8E1" cx="236.133" cy="12.854" r="1.863"/>
<circle fill="#F9F8E1" cx="199.287" cy="15.584" r="1.863"/>
<circle fill="#F9F8E1" cx="209.121" cy="15.584" r="1.863"/>
<circle fill="#F9F8E1" cx="218.956" cy="15.584" r="1.863"/>
<circle fill="#F9F8E1" cx="228.79" cy="15.584" r="1.863"/>
<circle fill="#F9F8E1" cx="238.624" cy="15.584" r="1.863"/>
<circle fill="#F9F8E1" cx="206.63" cy="18.4" r="1.863"/>
<circle fill="#F9F8E1" cx="211.548" cy="18.4" r="1.863"/>
<circle fill="#F9F8E1" cx="226.299" cy="18.4" r="1.863"/>
<circle fill="#F9F8E1" cx="231.216" cy="18.4" r="1.863"/>
<circle fill="#F9F8E1" cx="199.287" cy="20.999" r="1.863"/>
<circle fill="#F9F8E1" cx="209.121" cy="20.999" r="1.863"/>
<circle fill="#F9F8E1" cx="228.79" cy="20.999" r="1.863"/>
<circle fill="#F9F8E1" cx="238.624" cy="20.999" r="1.863"/>
<circle fill="#F9F8E1" cx="201.713" cy="23.815" r="1.863"/>
<circle fill="#F9F8E1" cx="216.465" cy="23.815" r="1.863"/>
<circle fill="#F9F8E1" cx="221.382" cy="23.815" r="1.863"/>
<circle fill="#F9F8E1" cx="236.133" cy="23.815" r="1.863"/>
<circle fill="#F9F8E1" cx="199.287" cy="26.544" r="1.863"/>
<circle fill="#F9F8E1" cx="204.204" cy="26.544" r="1.863"/>
<circle fill="#F9F8E1" cx="218.956" cy="26.544" r="1.863"/>
<circle fill="#F9F8E1" cx="233.707" cy="26.544" r="1.863"/>
<circle fill="#F9F8E1" cx="238.624" cy="26.544" r="1.863"/>
<circle fill="#F9F8E1" cx="201.713" cy="29.36" r="1.863"/>
<circle fill="#F9F8E1" cx="206.63" cy="29.36" r="1.863"/>
<circle fill="#F9F8E1" cx="211.548" cy="29.36" r="1.863"/>
<circle fill="#F9F8E1" cx="216.465" cy="29.36" r="1.863"/>
<circle fill="#F9F8E1" cx="221.382" cy="29.36" r="1.863"/>
<circle fill="#F9F8E1" cx="226.299" cy="29.36" r="1.863"/>
<circle fill="#F9F8E1" cx="231.216" cy="29.36" r="1.863"/>
<circle fill="#F9F8E1" cx="199.287" cy="32.22" r="1.863"/>
<circle fill="#F9F8E1" cx="204.204" cy="32.22" r="1.863"/>
<circle fill="#F9F8E1" cx="209.121" cy="32.22" r="1.863"/>
<circle fill="#F9F8E1" cx="214.039" cy="32.22" r="1.863"/>
<circle fill="#F9F8E1" cx="218.956" cy="32.22" r="1.863"/>
<circle fill="#F9F8E1" cx="238.624" cy="32.22" r="1.863"/>
<circle fill="#F9F8E1" cx="201.713" cy="35.036" r="1.863"/>
<circle fill="#F9F8E1" cx="206.63" cy="35.036" r="1.863"/>
<circle fill="#F9F8E1" cx="211.548" cy="35.036" r="1.863"/>
<circle fill="#F9F8E1" cx="216.465" cy="35.036" r="1.863"/>
<circle fill="#F9F8E1" cx="221.382" cy="35.036" r="1.863"/>
<circle fill="#F9F8E1" cx="204.204" cy="37.765" r="1.863"/>
<circle fill="#F9F8E1" cx="209.121" cy="37.765" r="1.863"/>
<circle fill="#F9F8E1" cx="214.039" cy="37.765" r="1.863"/>
<circle fill="#F9F8E1" cx="218.956" cy="37.765" r="1.863"/>
<circle fill="#F9F8E1" cx="238.624" cy="37.765" r="1.863"/>
<circle fill="#F9F8E1" cx="206.63" cy="40.581" r="1.863"/>
<circle fill="#F9F8E1" cx="211.548" cy="40.581" r="1.863"/>
<circle fill="#F9F8E1" cx="216.465" cy="40.581" r="1.863"/>
<circle fill="#F9F8E1" cx="221.382" cy="40.581" r="1.863"/>
<circle fill="#F9F8E1" cx="209.121" cy="43.181" r="1.863"/>
<circle fill="#F9F8E1" cx="214.039" cy="43.181" r="1.863"/>
<circle fill="#F9F8E1" cx="218.956" cy="43.181" r="1.863"/>
<circle fill="#F9F8E1" cx="223.873" cy="43.181" r="1.863"/>
<circle fill="#F9F8E1" cx="238.624" cy="43.181" r="1.863"/>
<circle fill="#F9F8E1" cx="211.548" cy="45.996" r="1.863"/>
<circle fill="#F9F8E1" cx="216.465" cy="45.996" r="1.863"/>
<circle fill="#F9F8E1" cx="221.382" cy="45.996" r="1.863"/>
<circle fill="#F9F8E1" cx="226.299" cy="45.996" r="1.863"/>
<circle fill="#F9F8E1" cx="214.039" cy="48.726" r="1.863"/>
<circle fill="#F9F8E1" cx="218.956" cy="48.726" r="1.863"/>
<circle fill="#F9F8E1" cx="223.873" cy="48.726" r="1.863"/>
<circle fill="#F9F8E1" cx="228.79" cy="48.726" r="1.863"/>
<circle fill="#F9F8E1" cx="238.624" cy="48.726" r="1.863"/>
<circle fill="#F9F8E1" cx="216.465" cy="51.541" r="1.863"/>
<circle fill="#F9F8E1" cx="226.299" cy="51.541" r="1.863"/>
<circle fill="#F9F8E1" cx="231.216" cy="51.541" r="1.863"/>
<circle fill="#F9F8E1" cx="214.039" cy="54.285" r="1.863"/>
<circle fill="#F9F8E1" cx="223.873" cy="54.285" r="1.863"/>
<circle fill="#F9F8E1" cx="233.707" cy="54.285" r="1.863"/>
<circle fill="#F9F8E1" cx="238.624" cy="54.285" r="1.863"/>
<circle fill="#F9F8E1" cx="201.713" cy="57.102" r="1.863"/>
<circle fill="#F9F8E1" cx="206.63" cy="57.102" r="1.863"/>
<circle fill="#F9F8E1" cx="211.548" cy="57.102" r="1.863"/>
<circle fill="#F9F8E1" cx="216.465" cy="57.102" r="1.863"/>
<circle fill="#F9F8E1" cx="221.382" cy="57.102" r="1.863"/>
<circle fill="#F9F8E1" cx="226.299" cy="57.102" r="1.863"/>
<circle fill="#F9F8E1" cx="236.133" cy="57.102" r="1.863"/>
<circle fill="#F9F8E1" cx="238.624" cy="59.83" r="1.863"/>
</svg>
