<?xml version="1.0" encoding="UTF-8" standalone="no"?>
<!-- Created with Inkscape (http://www.inkscape.org/) -->

<svg
   xmlns:dc="http://purl.org/dc/elements/1.1/"
   xmlns:cc="http://creativecommons.org/ns#"
   xmlns:rdf="http://www.w3.org/1999/02/22-rdf-syntax-ns#"
   xmlns:svg="http://www.w3.org/2000/svg"
   xmlns="http://www.w3.org/2000/svg"
   xmlns:sodipodi="http://sodipodi.sourceforge.net/DTD/sodipodi-0.dtd"
   xmlns:inkscape="http://www.inkscape.org/namespaces/inkscape"
   width="313.20969mm"
   height="31.095339mm"
   viewBox="0 0 313.20969 31.095339"
   version="1.1"
   id="svg6572"
   inkscape:version="0.92.0 r15299"
   sodipodi:docname="c16_new_udb.svg">
  <defs
     id="defs6566" />
  <sodipodi:namedview
     id="base"
     pagecolor="#ffffff"
     bordercolor="#666666"
     borderopacity="1.0"
     inkscape:pageopacity="0.0"
     inkscape:pageshadow="2"
     inkscape:zoom="0.35"
     inkscape:cx="121.8923"
     inkscape:cy="-135.52288"
     inkscape:document-units="mm"
     inkscape:current-layer="layer1"
     showgrid="false"
     fit-margin-top="0"
     fit-margin-left="0"
     fit-margin-right="0"
     fit-margin-bottom="0"
     inkscape:window-width="1920"
     inkscape:window-height="1137"
     inkscape:window-x="-8"
     inkscape:window-y="-8"
     inkscape:window-maximized="1" />
  <metadata
     id="metadata6569">
    <rdf:RDF>
      <cc:Work
         rdf:about="">
        <dc:format>image/svg+xml</dc:format>
        <dc:type
           rdf:resource="http://purl.org/dc/dcmitype/StillImage" />
        <dc:title></dc:title>
      </cc:Work>
    </rdf:RDF>
  </metadata>
  <g
     inkscape:label="Layer 1"
     inkscape:groupmode="layer"
     id="layer1"
     transform="translate(49.2596,-81.880899)">
    <g
       id="g7217">
      <g
         style="stroke-width:0.63904369"
         transform="matrix(1.5648382,0,0,1.5648382,-1359.9567,186.39453)"
         id="g5304">
        <path
           style="fill:#5b5652;fill-opacity:1;fill-rule:evenodd;stroke-width:0.1690803"
           id="path5227"
           d="m 847.5286,-66.788778 h 180.2829 c 5.4652,0 9.9359,4.47072 9.9359,9.9354 v 0 c 0,5.46515 -4.4707,9.93588 -9.9359,9.93588 H 847.5286 c -5.46516,0 -9.93587,-4.47073 -9.93587,-9.93588 v 0 c 0,-5.46421 4.47071,-9.9354 9.93587,-9.9354 z"
           inkscape:connector-curvature="0" />
        <g
           id="g5225"
           transform="matrix(1.8983984,0,0,1.8983984,151.05659,-354.37327)"
           style="stroke-width:0.33662254">
          <rect
             y="154.0818"
             x="421.54565"
             height="5.279696"
             width="0.67967576"
             id="rect5037"
             style="color:#000000;clip-rule:nonzero;display:inline;overflow:visible;visibility:visible;opacity:1;isolation:auto;mix-blend-mode:normal;color-interpolation:sRGB;color-interpolation-filters:linearRGB;solid-color:#000000;solid-opacity:1;fill:#2fabc5;fill-opacity:1;fill-rule:nonzero;stroke:none;stroke-width:0.26719415;stroke-linecap:butt;stroke-linejoin:miter;stroke-miterlimit:4;stroke-dasharray:none;stroke-dashoffset:0;stroke-opacity:1;color-rendering:auto;image-rendering:auto;shape-rendering:auto;text-rendering:auto;enable-background:accumulate" />
          <rect
             y="154.0818"
             x="423.01361"
             height="5.279696"
             width="0.67967576"
             id="rect5041"
             style="color:#000000;clip-rule:nonzero;display:inline;overflow:visible;visibility:visible;opacity:1;isolation:auto;mix-blend-mode:normal;color-interpolation:sRGB;color-interpolation-filters:linearRGB;solid-color:#000000;solid-opacity:1;fill:#2c9fb9;fill-opacity:1;fill-rule:nonzero;stroke:none;stroke-width:0.26719415;stroke-linecap:butt;stroke-linejoin:miter;stroke-miterlimit:4;stroke-dasharray:none;stroke-dashoffset:0;stroke-opacity:1;color-rendering:auto;image-rendering:auto;shape-rendering:auto;text-rendering:auto;enable-background:accumulate" />
          <rect
             style="color:#000000;clip-rule:nonzero;display:inline;overflow:visible;visibility:visible;opacity:1;isolation:auto;mix-blend-mode:normal;color-interpolation:sRGB;color-interpolation-filters:linearRGB;solid-color:#000000;solid-opacity:1;fill:#2da6c0;fill-opacity:1;fill-rule:nonzero;stroke:none;stroke-width:0.26719415;stroke-linecap:butt;stroke-linejoin:miter;stroke-miterlimit:4;stroke-dasharray:none;stroke-dashoffset:0;stroke-opacity:1;color-rendering:auto;image-rendering:auto;shape-rendering:auto;text-rendering:auto;enable-background:accumulate"
             id="rect5043"
             width="0.67967576"
             height="5.279696"
             x="424.48157"
             y="154.0818" />
          <rect
             y="154.0818"
             x="425.94955"
             height="5.279696"
             width="0.67967576"
             id="rect5049"
             style="color:#000000;clip-rule:nonzero;display:inline;overflow:visible;visibility:visible;opacity:1;isolation:auto;mix-blend-mode:normal;color-interpolation:sRGB;color-interpolation-filters:linearRGB;solid-color:#000000;solid-opacity:1;fill:#269857;fill-opacity:1;fill-rule:nonzero;stroke:none;stroke-width:0.26719415;stroke-linecap:butt;stroke-linejoin:miter;stroke-miterlimit:4;stroke-dasharray:none;stroke-dashoffset:0;stroke-opacity:1;color-rendering:auto;image-rendering:auto;shape-rendering:auto;text-rendering:auto;enable-background:accumulate" />
          <rect
             style="color:#000000;clip-rule:nonzero;display:inline;overflow:visible;visibility:visible;opacity:1;isolation:auto;mix-blend-mode:normal;color-interpolation:sRGB;color-interpolation-filters:linearRGB;solid-color:#000000;solid-opacity:1;fill:#319b58;fill-opacity:1;fill-rule:nonzero;stroke:none;stroke-width:0.26719415;stroke-linecap:butt;stroke-linejoin:miter;stroke-miterlimit:4;stroke-dasharray:none;stroke-dashoffset:0;stroke-opacity:1;color-rendering:auto;image-rendering:auto;shape-rendering:auto;text-rendering:auto;enable-background:accumulate"
             id="rect5051"
             width="0.67967576"
             height="5.279696"
             x="427.41754"
             y="154.0818" />
          <rect
             y="154.0818"
             x="428.88553"
             height="5.279696"
             width="0.67967576"
             id="rect5053"
             style="color:#000000;clip-rule:nonzero;display:inline;overflow:visible;visibility:visible;opacity:1;isolation:auto;mix-blend-mode:normal;color-interpolation:sRGB;color-interpolation-filters:linearRGB;solid-color:#000000;solid-opacity:1;fill:#309a57;fill-opacity:1;fill-rule:nonzero;stroke:none;stroke-width:0.26719415;stroke-linecap:butt;stroke-linejoin:miter;stroke-miterlimit:4;stroke-dasharray:none;stroke-dashoffset:0;stroke-opacity:1;color-rendering:auto;image-rendering:auto;shape-rendering:auto;text-rendering:auto;enable-background:accumulate" />
          <rect
             y="154.0818"
             x="430.35349"
             height="5.279696"
             width="0.67967576"
             id="rect5057"
             style="color:#000000;clip-rule:nonzero;display:inline;overflow:visible;visibility:visible;opacity:1;isolation:auto;mix-blend-mode:normal;color-interpolation:sRGB;color-interpolation-filters:linearRGB;solid-color:#000000;solid-opacity:1;fill:#34a35c;fill-opacity:1;fill-rule:nonzero;stroke:none;stroke-width:0.26719415;stroke-linecap:butt;stroke-linejoin:miter;stroke-miterlimit:4;stroke-dasharray:none;stroke-dashoffset:0;stroke-opacity:1;color-rendering:auto;image-rendering:auto;shape-rendering:auto;text-rendering:auto;enable-background:accumulate" />
          <rect
             y="154.0818"
             x="431.82144"
             height="5.279696"
             width="0.67967576"
             id="rect5061"
             style="color:#000000;clip-rule:nonzero;display:inline;overflow:visible;visibility:visible;opacity:1;isolation:auto;mix-blend-mode:normal;color-interpolation:sRGB;color-interpolation-filters:linearRGB;solid-color:#000000;solid-opacity:1;fill:#68b057;fill-opacity:1;fill-rule:nonzero;stroke:none;stroke-width:0.26719415;stroke-linecap:butt;stroke-linejoin:miter;stroke-miterlimit:4;stroke-dasharray:none;stroke-dashoffset:0;stroke-opacity:1;color-rendering:auto;image-rendering:auto;shape-rendering:auto;text-rendering:auto;enable-background:accumulate" />
          <rect
             y="154.0818"
             x="433.28943"
             height="5.279696"
             width="0.67967576"
             id="rect5065"
             style="color:#000000;clip-rule:nonzero;display:inline;overflow:visible;visibility:visible;opacity:1;isolation:auto;mix-blend-mode:normal;color-interpolation:sRGB;color-interpolation-filters:linearRGB;solid-color:#000000;solid-opacity:1;fill:#6cae55;fill-opacity:1;fill-rule:nonzero;stroke:none;stroke-width:0.26719415;stroke-linecap:butt;stroke-linejoin:miter;stroke-miterlimit:4;stroke-dasharray:none;stroke-dashoffset:0;stroke-opacity:1;color-rendering:auto;image-rendering:auto;shape-rendering:auto;text-rendering:auto;enable-background:accumulate" />
          <rect
             y="154.0818"
             x="434.75735"
             height="5.279696"
             width="0.67967576"
             id="rect5069"
             style="color:#000000;clip-rule:nonzero;display:inline;overflow:visible;visibility:visible;opacity:1;isolation:auto;mix-blend-mode:normal;color-interpolation:sRGB;color-interpolation-filters:linearRGB;solid-color:#000000;solid-opacity:1;fill:#bac441;fill-opacity:1;fill-rule:nonzero;stroke:none;stroke-width:0.26719415;stroke-linecap:butt;stroke-linejoin:miter;stroke-miterlimit:4;stroke-dasharray:none;stroke-dashoffset:0;stroke-opacity:1;color-rendering:auto;image-rendering:auto;shape-rendering:auto;text-rendering:auto;enable-background:accumulate" />
          <rect
             style="color:#000000;clip-rule:nonzero;display:inline;overflow:visible;visibility:visible;opacity:1;isolation:auto;mix-blend-mode:normal;color-interpolation:sRGB;color-interpolation-filters:linearRGB;solid-color:#000000;solid-opacity:1;fill:#e0d640;fill-opacity:1;fill-rule:nonzero;stroke:none;stroke-width:0.26719415;stroke-linecap:butt;stroke-linejoin:miter;stroke-miterlimit:4;stroke-dasharray:none;stroke-dashoffset:0;stroke-opacity:1;color-rendering:auto;image-rendering:auto;shape-rendering:auto;text-rendering:auto;enable-background:accumulate"
             id="rect5071"
             width="0.67967576"
             height="5.279696"
             x="436.22534"
             y="154.0818" />
          <rect
             y="154.0818"
             x="437.6933"
             height="5.279696"
             width="0.67967576"
             id="rect5073"
             style="color:#000000;clip-rule:nonzero;display:inline;overflow:visible;visibility:visible;opacity:1;isolation:auto;mix-blend-mode:normal;color-interpolation:sRGB;color-interpolation-filters:linearRGB;solid-color:#000000;solid-opacity:1;fill:#dccc3d;fill-opacity:1;fill-rule:nonzero;stroke:none;stroke-width:0.26719415;stroke-linecap:butt;stroke-linejoin:miter;stroke-miterlimit:4;stroke-dasharray:none;stroke-dashoffset:0;stroke-opacity:1;color-rendering:auto;image-rendering:auto;shape-rendering:auto;text-rendering:auto;enable-background:accumulate" />
          <rect
             style="color:#000000;clip-rule:nonzero;display:inline;overflow:visible;visibility:visible;opacity:1;isolation:auto;mix-blend-mode:normal;color-interpolation:sRGB;color-interpolation-filters:linearRGB;solid-color:#000000;solid-opacity:1;fill:#ddce45;fill-opacity:1;fill-rule:nonzero;stroke:none;stroke-width:0.26719415;stroke-linecap:butt;stroke-linejoin:miter;stroke-miterlimit:4;stroke-dasharray:none;stroke-dashoffset:0;stroke-opacity:1;color-rendering:auto;image-rendering:auto;shape-rendering:auto;text-rendering:auto;enable-background:accumulate"
             id="rect5075"
             width="0.67967576"
             height="5.279696"
             x="439.16132"
             y="154.0818" />
          <rect
             style="color:#000000;clip-rule:nonzero;display:inline;overflow:visible;visibility:visible;opacity:1;isolation:auto;mix-blend-mode:normal;color-interpolation:sRGB;color-interpolation-filters:linearRGB;solid-color:#000000;solid-opacity:1;fill:#dc9f2d;fill-opacity:1;fill-rule:nonzero;stroke:none;stroke-width:0.26719415;stroke-linecap:butt;stroke-linejoin:miter;stroke-miterlimit:4;stroke-dasharray:none;stroke-dashoffset:0;stroke-opacity:1;color-rendering:auto;image-rendering:auto;shape-rendering:auto;text-rendering:auto;enable-background:accumulate"
             id="rect5079"
             width="0.67967576"
             height="5.279696"
             x="440.62927"
             y="154.0818" />
          <rect
             style="color:#000000;clip-rule:nonzero;display:inline;overflow:visible;visibility:visible;opacity:1;isolation:auto;mix-blend-mode:normal;color-interpolation:sRGB;color-interpolation-filters:linearRGB;solid-color:#000000;solid-opacity:1;fill:#e98f34;fill-opacity:1;fill-rule:nonzero;stroke:none;stroke-width:0.26719415;stroke-linecap:butt;stroke-linejoin:miter;stroke-miterlimit:4;stroke-dasharray:none;stroke-dashoffset:0;stroke-opacity:1;color-rendering:auto;image-rendering:auto;shape-rendering:auto;text-rendering:auto;enable-background:accumulate"
             id="rect5083"
             width="0.67967576"
             height="5.279696"
             x="442.09726"
             y="154.0818" />
          <rect
             y="154.0818"
             x="443.56522"
             height="5.279696"
             width="0.67967576"
             id="rect5085"
             style="color:#000000;clip-rule:nonzero;display:inline;overflow:visible;visibility:visible;opacity:1;isolation:auto;mix-blend-mode:normal;color-interpolation:sRGB;color-interpolation-filters:linearRGB;solid-color:#000000;solid-opacity:1;fill:#e37c20;fill-opacity:1;fill-rule:nonzero;stroke:none;stroke-width:0.26719415;stroke-linecap:butt;stroke-linejoin:miter;stroke-miterlimit:4;stroke-dasharray:none;stroke-dashoffset:0;stroke-opacity:1;color-rendering:auto;image-rendering:auto;shape-rendering:auto;text-rendering:auto;enable-background:accumulate" />
          <rect
             y="154.0818"
             x="445.03314"
             height="5.279696"
             width="0.67967576"
             id="rect5089"
             style="color:#000000;clip-rule:nonzero;display:inline;overflow:visible;visibility:visible;opacity:1;isolation:auto;mix-blend-mode:normal;color-interpolation:sRGB;color-interpolation-filters:linearRGB;solid-color:#000000;solid-opacity:1;fill:#dd561d;fill-opacity:1;fill-rule:nonzero;stroke:none;stroke-width:0.26719415;stroke-linecap:butt;stroke-linejoin:miter;stroke-miterlimit:4;stroke-dasharray:none;stroke-dashoffset:0;stroke-opacity:1;color-rendering:auto;image-rendering:auto;shape-rendering:auto;text-rendering:auto;enable-background:accumulate" />
          <rect
             y="154.0818"
             x="446.50113"
             height="5.279696"
             width="0.67967576"
             id="rect5093"
             style="color:#000000;clip-rule:nonzero;display:inline;overflow:visible;visibility:visible;opacity:1;isolation:auto;mix-blend-mode:normal;color-interpolation:sRGB;color-interpolation-filters:linearRGB;solid-color:#000000;solid-opacity:1;fill:#d65424;fill-opacity:1;fill-rule:nonzero;stroke:none;stroke-width:0.26719415;stroke-linecap:butt;stroke-linejoin:miter;stroke-miterlimit:4;stroke-dasharray:none;stroke-dashoffset:0;stroke-opacity:1;color-rendering:auto;image-rendering:auto;shape-rendering:auto;text-rendering:auto;enable-background:accumulate" />
          <rect
             y="154.0818"
             x="447.96909"
             height="5.279696"
             width="0.67967576"
             id="rect5097"
             style="color:#000000;clip-rule:nonzero;display:inline;overflow:visible;visibility:visible;opacity:1;isolation:auto;mix-blend-mode:normal;color-interpolation:sRGB;color-interpolation-filters:linearRGB;solid-color:#000000;solid-opacity:1;fill:#e13e28;fill-opacity:1;fill-rule:nonzero;stroke:none;stroke-width:0.26719415;stroke-linecap:butt;stroke-linejoin:miter;stroke-miterlimit:4;stroke-dasharray:none;stroke-dashoffset:0;stroke-opacity:1;color-rendering:auto;image-rendering:auto;shape-rendering:auto;text-rendering:auto;enable-background:accumulate" />
          <rect
             style="color:#000000;clip-rule:nonzero;display:inline;overflow:visible;visibility:visible;opacity:1;isolation:auto;mix-blend-mode:normal;color-interpolation:sRGB;color-interpolation-filters:linearRGB;solid-color:#000000;solid-opacity:1;fill:#dd261a;fill-opacity:1;fill-rule:nonzero;stroke:none;stroke-width:0.26719415;stroke-linecap:butt;stroke-linejoin:miter;stroke-miterlimit:4;stroke-dasharray:none;stroke-dashoffset:0;stroke-opacity:1;color-rendering:auto;image-rendering:auto;shape-rendering:auto;text-rendering:auto;enable-background:accumulate"
             id="rect5099"
             width="0.67967576"
             height="5.279696"
             x="449.4371"
             y="154.0818" />
          <rect
             style="color:#000000;clip-rule:nonzero;display:inline;overflow:visible;visibility:visible;opacity:1;isolation:auto;mix-blend-mode:normal;color-interpolation:sRGB;color-interpolation-filters:linearRGB;solid-color:#000000;solid-opacity:1;fill:#e22821;fill-opacity:1;fill-rule:nonzero;stroke:none;stroke-width:0.26719415;stroke-linecap:butt;stroke-linejoin:miter;stroke-miterlimit:4;stroke-dasharray:none;stroke-dashoffset:0;stroke-opacity:1;color-rendering:auto;image-rendering:auto;shape-rendering:auto;text-rendering:auto;enable-background:accumulate"
             id="rect5103"
             width="0.67967576"
             height="5.279696"
             x="450.90506"
             y="154.0818" />
          <rect
             style="color:#000000;clip-rule:nonzero;display:inline;overflow:visible;visibility:visible;opacity:1;isolation:auto;mix-blend-mode:normal;color-interpolation:sRGB;color-interpolation-filters:linearRGB;solid-color:#000000;solid-opacity:1;fill:#e11613;fill-opacity:1;fill-rule:nonzero;stroke:none;stroke-width:0.26719415;stroke-linecap:butt;stroke-linejoin:miter;stroke-miterlimit:4;stroke-dasharray:none;stroke-dashoffset:0;stroke-opacity:1;color-rendering:auto;image-rendering:auto;shape-rendering:auto;text-rendering:auto;enable-background:accumulate"
             id="rect5107"
             width="0.67967576"
             height="5.279696"
             x="452.37305"
             y="154.0818" />
          <rect
             y="154.0818"
             x="453.841"
             height="5.279696"
             width="0.67967576"
             id="rect5109"
             style="color:#000000;clip-rule:nonzero;display:inline;overflow:visible;visibility:visible;opacity:1;isolation:auto;mix-blend-mode:normal;color-interpolation:sRGB;color-interpolation-filters:linearRGB;solid-color:#000000;solid-opacity:1;fill:#e11413;fill-opacity:1;fill-rule:nonzero;stroke:none;stroke-width:0.26719415;stroke-linecap:butt;stroke-linejoin:miter;stroke-miterlimit:4;stroke-dasharray:none;stroke-dashoffset:0;stroke-opacity:1;color-rendering:auto;image-rendering:auto;shape-rendering:auto;text-rendering:auto;enable-background:accumulate" />
        </g>
        <g
           style="stroke-width:0.63904369"
           id="g5256"
           transform="translate(172.98685,-192.59026)">
          <path
             sodipodi:nodetypes="cccccccccccccccccccccccccccccscccccccc"
             style="fill:#ffffff;stroke-width:0.63904375"
             d="m 851.7787,140.59795 c -1.2635,-0.0901 -1.9293,-0.30384 -2.39468,-0.76864 -0.36268,-0.36222 -0.5504,-0.83214 -0.6403,-1.60276 -0.0659,-0.56498 -0.10588,-2.75046 -0.0697,-3.81524 0.0354,-1.04137 0.0801,-1.44654 0.20704,-1.8746 0.27242,-0.91857 0.92127,-1.34893 2.33685,-1.54996 0.70507,-0.10007 1.14634,-0.12097 2.93563,-0.13858 3.86214,-0.0379 4.96829,0.14759 5.49199,0.92181 0.20537,0.30356 0.30224,0.76601 0.32136,1.534 l 0.007,0.33849 -1.35159,-0.008 -1.35157,-0.008 -0.0294,-0.0989 c -0.12278,-0.41397 -0.16945,-0.43332 -1.16407,-0.48149 -0.89225,-0.0432 -3.35296,-0.021 -3.68988,0.0331 -0.38875,0.0626 -0.56756,0.12755 -0.69108,0.25102 -0.17997,0.17998 -0.22161,0.3667 -0.2405,1.07857 -0.008,0.33955 -0.007,0.64061 0.002,0.66898 0.0159,0.0413 0.0613,0.0191 0.22657,-0.11011 0.40339,-0.31571 0.85601,-0.47967 1.57803,-0.57161 0.47367,-0.0603 3.42743,-0.0612 3.93927,-0.001 1.40447,0.16461 2.03719,0.48376 2.40056,1.21088 0.20405,0.40833 0.28615,0.94153 0.28694,1.86362 10e-4,1.29681 -0.17491,1.96413 -0.63983,2.42546 -0.46575,0.46214 -1.05376,0.62472 -2.55894,0.70747 -0.70971,0.0391 -4.35723,0.0368 -4.91468,-0.002 z m 3.82622,-2.14124 c 0.90957,-0.0373 1.08232,-0.0702 1.24423,-0.23719 0.16144,-0.16658 0.20709,-0.33925 0.20709,-0.78356 0,-0.34057 -0.008,-0.40367 -0.0764,-0.53104 -0.1016,-0.19218 -0.28804,-0.2858 -0.70427,-0.35367 -0.42624,-0.0694 -3.69979,-0.0817 -4.01637,-0.0155 -0.40103,0.0845 -0.62853,0.26938 -0.71652,0.5823 -0.0482,0.17135 -0.0477,0.62133 10e-4,0.79806 0.0999,0.36306 0.3089,0.49576 0.84615,0.53693 0.52245,0.0401 2.27432,0.0418 3.21523,0.002 z"
             id="path4980"
             inkscape:connector-curvature="0" />
          <rect
             y="130.84706"
             x="844.63507"
             height="9.7801342"
             width="2.7403274"
             id="rect5252"
             style="color:#000000;clip-rule:nonzero;display:inline;overflow:visible;visibility:visible;opacity:1;isolation:auto;mix-blend-mode:normal;color-interpolation:sRGB;color-interpolation-filters:linearRGB;solid-color:#000000;solid-opacity:1;fill:#ffffff;fill-opacity:1;fill-rule:nonzero;stroke:none;stroke-width:0.50724095;stroke-linecap:butt;stroke-linejoin:miter;stroke-miterlimit:4;stroke-dasharray:none;stroke-dashoffset:0;stroke-opacity:1;color-rendering:auto;image-rendering:auto;shape-rendering:auto;text-rendering:auto;enable-background:accumulate" />
        </g>
        <g
           id="g5260"
           transform="matrix(0.88472389,0,0,0.88472389,594.91008,-154.09222)"
           style="stroke-width:0.7223087">
          <path
             inkscape:connector-curvature="0"
             d="m 385.1265,106.70726 h -2.26066 v 6.48562 h 2.35883 v -3.39004 c 0,-0.88405 0.54103,-1.32693 1.52443,-1.32693 0.98215,0 1.22869,0.29507 1.27714,1.12945 h 2.21209 c 0,-2.21095 -0.295,-3.04649 -2.65383,-3.04649 -1.42551,0 -1.91696,0.29507 -2.45737,1.37601 v -1.22762 z m 10.86021,5.20893 c -2.25954,0 -2.60374,-0.1969 -2.60374,-1.32748 h 6.19289 c -0.0982,-3.14351 -0.0982,-3.88145 -4.2758,-3.88145 -3.53956,0 -4.32601,0.63863 -4.32601,3.4397 0,2.60476 1.03299,3.24339 3.88314,3.29305 3.19486,0 4.71867,-0.14782 4.71867,-2.26061 h -2.31088 c -0.0982,0.49138 -0.29386,0.73679 -1.27827,0.73679 z m -2.65332,-2.70234 c 0.0982,-0.68828 0.29449,-0.93427 1.86738,-0.93427 1.72126,0 1.96617,0.0988 2.06421,0.93427 z m -87.87436,0.24541 h 2.35883 c -0.19645,-2.2121 -0.83553,-2.752 -4.12742,-2.752 -3.73539,0 -4.57091,0.58841 -4.57091,3.34154 0,2.752 0.78644,3.39063 4.27579,3.39063 3.68568,0 4.42317,-0.49138 4.42317,-2.80165 h -2.35896 c 0,0.63922 -0.24541,0.93484 -2.06421,0.93484 -1.57289,0 -1.91646,-0.39322 -1.91646,-1.67107 0,-1.22874 0.34357,-1.22874 2.21209,-1.22874 1.37492,0 1.62033,0.14781 1.76808,0.78645 z m 54.79839,0.39209 c 0,-2.65327 -0.78581,-3.19317 -4.57066,-3.19317 -4.07897,0 -4.56979,0.68771 -4.56979,3.43914 0,2.75256 0.68715,3.34211 4.56979,3.34211 4.12905,5.8e-4 4.57066,-0.68713 4.57066,-3.58808 z m -6.73266,0.14895 c 0,-1.32749 0.29512,-1.47416 2.01525,-1.47416 1.91647,0 2.26004,0.0485 2.26004,1.47416 0,1.32692 -0.24604,1.5729 -2.06434,1.5729 -1.96554,0 -2.21095,-0.19747 -2.21095,-1.5729 z m 27.9143,-0.14895 c 0,-2.65327 -0.73736,-3.19317 -4.52007,-3.19317 -4.03039,0 -4.52171,0.63749 -4.52171,3.39062 0,2.80108 0.68765,3.39063 4.52171,3.39063 4.12691,5.8e-4 4.52007,-0.68713 4.52007,-3.58808 z m -6.68308,0.14895 c 0,-1.32749 0.2945,-1.47416 2.01463,-1.47416 1.91709,0 2.26067,0.0485 2.26067,1.47416 0,1.32692 -0.24541,1.5729 -2.06371,1.5729 -1.96504,0 -2.21159,-0.19747 -2.21159,-1.5729 z m -56.46956,-0.14895 c 0,-2.65327 -0.73737,-3.19317 -4.52108,-3.19317 -4.07897,0 -4.57092,0.63749 -4.57092,3.39062 0,2.80108 0.68878,3.39063 4.57092,3.39063 4.12842,5.8e-4 4.52108,-0.68713 4.52108,-3.58808 z m -6.63576,0.14895 c 0,-1.32749 0.29525,-1.47416 1.9668,-1.47416 1.91646,0 2.26067,0.0485 2.26067,1.47416 0,1.32692 -0.24655,1.5729 -2.06434,1.5729 -1.9176,0 -2.16313,-0.19747 -2.16313,-1.5729 z m 56.8144,-6.04617 v 3.78442 c -0.54041,-0.73736 -1.03185,-1.12945 -2.9974,-1.12945 -3.14515,0 -3.73539,0.83554 -3.73539,3.39063 0,2.60531 0.83603,3.34096 3.88264,3.34096 1.91696,0 2.50658,-0.49081 2.94882,-1.32633 v 1.17795 h 2.35933 v -9.23875 h -2.458 z m -1.72026,4.52235 c 1.32635,0 1.76984,0.19633 1.76984,1.22761 0,1.57347 -0.0994,1.72186 -1.96554,1.72186 -1.86801,0 -2.35946,-0.0502 -2.35946,-1.37657 0,-1.52381 0.58961,-1.5729 2.55516,-1.5729 z m -44.7235,-1.76918 h -2.21095 v 6.48563 h 2.3587 v -3.34154 c 0,-0.98222 0.49145,-1.32578 1.81893,-1.32578 1.22869,0 1.57276,0.44174 1.57276,1.67049 v 2.99683 h 2.40804 v -3.43914 c 0,-0.93369 0.73661,-1.22818 1.86675,-1.22818 1.08144,0 1.57276,0.29506 1.57276,1.22818 v 3.43914 h 2.35883 V 109.36 c 0,-1.91533 -1.1796,-2.80108 -3.34147,-2.80108 -1.86801,0 -2.55629,0.68828 -2.80221,1.42508 -0.49145,-0.83553 -1.17922,-1.42508 -3.04711,-1.42508 -1.76921,0 -2.26066,0.58955 -2.55566,1.67107 v -1.52269 z m 15.8745,0 h -2.21159 v 6.48563 h 2.35871 v -3.34154 c 0,-0.98222 0.58949,-1.32578 1.76871,-1.32578 1.22932,0 1.57289,0.39322 1.57289,1.67049 v 2.99683 h 2.40904 v -3.43914 c 0,-0.93369 0.68816,-1.22818 1.81881,-1.22818 1.08093,0 1.62083,0.34356 1.62083,1.22818 v 3.43914 h 2.35934 V 109.36 c 0,-1.91533 -1.1791,-2.80108 -3.34161,-2.80108 -1.86725,0 -2.50708,0.63865 -2.80107,1.42508 -0.49195,-0.83553 -1.18023,-1.42508 -3.04761,-1.42508 -1.7195,0 -2.16175,0.58955 -2.50607,1.67107 v -1.52269 z"
             id="path5033"
             style="fill:#ffffff;stroke-width:0.1911108"
             sodipodi:nodetypes="ccccssccscccsccsscccscsccccsssccssscssscssssssssscssssssssscssssssccsssccccccsssssccccsssccsssccsscscccccccsssccsssccsscsccc" />
          <path
             sodipodi:nodetypes="ccccccccccccsssccsssc"
             style="fill:#ffffff;stroke-width:0.1911108"
             id="path5035"
             d="m 293.12849,110.2708 h -3.7958 v 3.11326 h 6.8229 z m 3.0266,-3.75189 h -6.82302 v 3.11268 h 3.75313 z m -7.03584,-0.21345 v -4.00815 c -0.80985,-0.21343 -1.36511,-0.29905 -2.17446,-0.29905 -4.22205,0 -7.93177,3.54015 -7.93177,7.93181 0,4.52065 3.752,7.88959 7.97406,7.88959 0.76757,0 1.19395,-0.0856 2.13217,-0.34244 v -4.09316 c -0.93872,0.46854 -1.40676,0.5964 -2.17446,0.5964 -2.34561,0 -4.13761,-1.96098 -4.13761,-4.13599 0,-2.25946 1.74858,-4.17934 4.09419,-4.17934 0.81112,0 1.4931,0.21401 2.21788,0.64033 z"
             inkscape:connector-curvature="0" />
        </g>
      </g>
    </g>
  </g>
</svg>
