<?xml version="1.0" encoding="UTF-8" standalone="no"?>
<!-- Generator: Adobe Illustrator 13.0.0, SVG Export Plug-In . SVG Version: 6.00 Build 14948)  -->

<svg
   xmlns:dc="http://purl.org/dc/elements/1.1/"
   xmlns:cc="http://creativecommons.org/ns#"
   xmlns:rdf="http://www.w3.org/1999/02/22-rdf-syntax-ns#"
   xmlns:svg="http://www.w3.org/2000/svg"
   xmlns="http://www.w3.org/2000/svg"
   xmlns:sodipodi="http://sodipodi.sourceforge.net/DTD/sodipodi-0.dtd"
   xmlns:inkscape="http://www.inkscape.org/namespaces/inkscape"
   version="1.0"
   id="Ebene_1"
   x="0px"
   y="0px"
   width="228.473px"
   height="40.655px"
   viewBox="0 0 228.473 40.655"
   enable-background="new 0 0 228.473 40.655"
   xml:space="preserve"
   inkscape:version="0.91 r13725"
   sodipodi:docname="Capcom.svg"><metadata
     id="metadata25"><rdf:RDF><cc:Work
         rdf:about=""><dc:format>image/svg+xml</dc:format><dc:type
           rdf:resource="http://purl.org/dc/dcmitype/StillImage" /></cc:Work></rdf:RDF></metadata><defs
     id="defs23" /><sodipodi:namedview
     pagecolor="#ffffff"
     bordercolor="#666666"
     borderopacity="1"
     objecttolerance="10"
     gridtolerance="10"
     guidetolerance="10"
     inkscape:pageopacity="0"
     inkscape:pageshadow="2"
     inkscape:window-width="1380"
     inkscape:window-height="768"
     id="namedview21"
     showgrid="false"
     inkscape:zoom="1.7201157"
     inkscape:cx="114.2365"
     inkscape:cy="20.327499"
     inkscape:window-x="0"
     inkscape:window-y="0"
     inkscape:window-maximized="0"
     inkscape:current-layer="Ebene_1" /><g
     id="g4153"><path
       id="path3"
       d="M222.73,10.716h0.003c1.373,0,2.619-0.559,3.519-1.459v0.001c0.899-0.899,1.456-2.141,1.456-3.512V5.739  V5.735c0-1.373-0.557-2.617-1.457-3.515c-0.898-0.898-2.142-1.456-3.514-1.457h-0.007h-0.003c-1.373,0-2.617,0.557-3.517,1.457  c-0.897,0.899-1.454,2.141-1.456,3.512v0.007v0.002c0,1.374,0.558,2.618,1.456,3.517h0.003c0.898,0.899,2.141,1.457,3.511,1.458  H222.73L222.73,10.716z M222.733,11.479h-0.003h-0.006c-1.581-0.002-3.015-0.644-4.052-1.681l0.002-0.001  c-1.039-1.038-1.683-2.474-1.684-4.056V5.739V5.732c0.001-1.581,0.644-3.013,1.681-4.049C219.71,0.644,221.146,0,222.728,0h0.003  h0.007c1.581,0.002,3.015,0.644,4.051,1.679c1.04,1.039,1.685,2.474,1.685,4.056v0.004v0.006c-0.001,1.58-0.644,3.013-1.681,4.05  v0.002C225.755,10.835,224.318,11.479,222.733,11.479L222.733,11.479z"
       fill="#004494" /><path
       id="path5"
       d="M219.769,2.294h3.622c1.907,0,2.35,1.695,2.35,2.311  c0,0.791-0.639,1.707-1.346,1.948l1.945,2.565h-1.608l-1.612-2.37h-1.883v2.37h-1.468V2.294L219.769,2.294z M223.279,5.445  c0.394,0,1.11-0.125,1.11-0.834c0-0.634-0.154-0.938-0.999-0.938h-2.154v1.772H223.279L223.279,5.445z"
       fill="#004494"
       clip-rule="evenodd"
       fill-rule="evenodd" /><path
       id="path7"
       d="M38.029,9.769L27.859,20.511l-6.717-4.605  c0,0,2.21-2.109,0.194-3.645c-1.572-1.198-5.982,1.343-5.791,6.332c0.224,5.755,3.78,9.015,7.708,9.015  c3.648,0,4.606-2.941,4.606-2.941h8.173v6.781l11.49-30.313h13.143L71.218,28.38c0,0,0.767,1.436,1.534,1.82  c0,0,0.044-17.872,0.044-18.374c0-0.5-0.066-1.053-0.379-1.412c-0.515-0.593-1.392-0.839-1.392-0.839V1.135c0,0,12.179,0,18.417,0  c9.553,0,12.003,2.59,14.773,7.579c3.824-5.149,9.089-8.539,16.596-8.539c7.723,0,13.188,2.847,16.309,7.578  c4.359-5.211,11.375-7.626,17.795-7.626c7.89,0,14.479,3.824,17.889,9.737V1.135h17.745l1.87,4.746l1.393-4.746h18.322v8.248  c0,0-1.057,0.29-1.349,0.766c-0.284,0.47-0.234,1.97-0.234,1.97l2.556,16.304c0.107,0.53,0.296,1.084,0.753,1.49  c0.53,0.474,1.246,0.385,1.246,0.385v9.398h-18.417v-7.099h-10.551v7.118h-17.315v-4.627c0,0-6.328,5.566-14.484,5.566  c-10.438,0-17.412-7.673-17.412-7.673v6.714c0,0-0.766,0-12.276,0c-10.927,0-20.307-5.979-22.927-16.883  c-1.242,1.188-6.719,5.098-13.287,6.571c-0.511,0.115-0.766,0.306-0.766,0.86c0,1.01,2.158,1.37,2.158,1.37v8.081  c0,0-56.788,0-67.338,0C10.019,39.696,0,31.159,0,20.32C0,9.48,7.811,0.27,20.76,0.27C33.136,0.27,38.029,9.769,38.029,9.769  L38.029,9.769z"
       fill="#004494"
       clip-rule="evenodd"
       fill-rule="evenodd" /><path
       id="path9"
       d="M33.183,9.937l-5.418,5.681c0,0-0.288,0.145-0.527,0.145  c-0.241,0-0.578-0.241-0.578-0.241l-0.67-0.573c0,0-0.193-0.047-0.193-0.241c0-0.189,0.528-0.672,0.528-1.583  c0-0.912-0.191-4.701-6.042-4.701c-5.851,0-8.441,5.468-8.441,9.977c0,4.509,2.78,12.758,11.896,12.758  c5.301,0,6.424-2.976,6.424-2.976h1.822v7.772h-9.975c-11.894,0-18.514-9.307-18.514-16.021c0-10.295,8.952-16.008,17.075-16.008  C28.436,3.927,33.183,9.937,33.183,9.937L33.183,9.937z"
       fill="#FFCC00"
       clip-rule="evenodd"
       fill-rule="evenodd" /><path
       id="path11"
       d="M49.972,4.781h8.201l9.977,26.092  c0.286,0.717,0.766,1.393,1.245,1.965c0.478,0.576,1.63,0.962,1.63,0.962v2.251H58.99v-2.302c0,0,0.765,0.099,1.15-0.574  c0.383-0.672,0.383-1.199,0.097-1.87c-0.288-0.673-2.307-5.995-2.307-5.995H48.1c0,0-2.013,5.371-2.207,5.85  c-0.192,0.479-0.192,1.248,0,1.726c0.319,0.798,1.44,0.915,1.44,0.915v2.251h-9.642v-2.251c0,0,0.877-0.302,1.535-0.962  c0.719-0.719,0.958-1.488,0.958-1.488L49.972,4.781L49.972,4.781z M49.73,20.416h6.333l-3.261-9.112L49.73,20.416L49.73,20.416z"
       fill="#FFCC00"
       clip-rule="evenodd"
       fill-rule="evenodd" /><path
       id="path13"
       d="M74.862,4.781c0,0,9.688,0,15.349,0  c5.66,0,11.318,2.012,11.318,8.535s-4.125,8.827-7.673,10.458c-4.097,1.882-9.496,3.358-9.496,3.358v4.986  c0,0,0.048,0.337,0.527,0.909c0.481,0.576,1.008,0.721,1.008,0.721v2.302H74.767v-2.251c0,0,0.671-0.146,1.153-0.625  c0.478-0.48,0.576-1.056,0.576-1.056V9.576c0,0,0.044-0.96-0.337-1.342c-0.383-0.387-1.296-0.912-1.296-0.912V4.781L74.862,4.781  L74.862,4.781z M84.455,9.48v13.333c0,0,9.016-3.74,9.016-9.016C93.471,7.274,84.455,9.48,84.455,9.48L84.455,9.48z"
       fill="#FFCC00"
       clip-rule="evenodd"
       fill-rule="evenodd" /><path
       id="path15"
       d="M134.769,9.992l-5.42,5.681c0,0-0.288,0.144-0.528,0.144  c-0.238,0-0.574-0.24-0.574-0.24L127.574,15c0,0-0.191-0.045-0.191-0.236c0-0.193,0.526-0.676,0.526-1.583  c0-0.913-0.189-4.702-6.042-4.702s-8.442,5.466-8.442,9.976c0,4.506,2.782,12.758,11.897,12.758c5.301,0,6.425-2.975,6.425-2.975  h1.824v7.77h-9.979c-11.893,0-18.514-9.304-18.514-16.019c0-10.294,8.951-16.009,17.075-16.009  C130.02,3.98,134.769,9.992,134.769,9.992L134.769,9.992z"
       fill="#FFCC00"
       clip-rule="evenodd"
       fill-rule="evenodd" /><path
       id="path17"
       d="M154.195,36.951c-10.362,0-17.809-7.566-17.809-16.773  c0-9.213,7.64-16.348,17.809-16.348C164.36,3.83,172,10.965,172,20.178C172,29.384,164.552,36.951,154.195,36.951L154.195,36.951z   M144.983,20.32c0,9.209,4.701,11.511,9.212,11.511c4.505,0,9.304-2.878,9.304-11.511c0-8.632-5.372-11.511-9.304-11.511  C150.261,8.809,144.983,11.109,144.983,20.32L144.983,20.32z"
       fill="#FFCC00"
       clip-rule="evenodd"
       fill-rule="evenodd" /><path
       id="path19"
       d="M176.638,4.801h11.417l4.125,12.738l4.411-12.758h11.941v1.869  c0,0-0.794,0.336-1.147,0.768c-0.432,0.528-0.432,0.911-0.337,1.681c0.096,0.765,3.165,21.582,3.262,22.35s0.191,1.199,0.383,1.727  c0.19,0.523,1.104,0.957,1.104,0.957v1.935h-11.465V33.99c0,0,1.007-0.143,1.345-0.625c0.336-0.48,0.478-0.768,0.383-1.534  c-0.096-0.767-2.828-18.226-2.828-18.226l-4.989,15.444H188.2l-4.942-14.487l-2.493,17.076c0,0-0.097,1.025,0.288,1.584  c0.527,0.768,1.489,0.768,1.489,0.768v2.061h-9.932v-2.203c0,0,0.791-0.122,1.366-0.795c0.575-0.669,0.672-1.535,0.672-1.535  L178.271,9c0,0,0.217-0.841-0.024-1.223c-0.253-0.404-1.608-0.743-1.608-0.743V4.801L176.638,4.801z"
       fill="#FFCC00"
       clip-rule="evenodd"
       fill-rule="evenodd" /></g></svg>