<?xml version="1.0" encoding="UTF-8" standalone="no"?>
<!-- Generator: Adobe Illustrator 13.0.0, SVG Export Plug-In . SVG Version: 6.00 Build 14948)  -->

<svg
   xmlns:ns="&amp;#38;#38;#38;#38;ns_sfw;"
   xmlns:dc="http://purl.org/dc/elements/1.1/"
   xmlns:cc="http://creativecommons.org/ns#"
   xmlns:rdf="http://www.w3.org/1999/02/22-rdf-syntax-ns#"
   xmlns:svg="http://www.w3.org/2000/svg"
   xmlns="http://www.w3.org/2000/svg"
   xmlns:xlink="http://www.w3.org/1999/xlink"
   xmlns:sodipodi="http://sodipodi.sourceforge.net/DTD/sodipodi-0.dtd"
   xmlns:inkscape="http://www.inkscape.org/namespaces/inkscape"
   version="1.1"
   id="svg2"
   x="0px"
   y="0px"
   width="253.14752"
   height="109.20614"
   viewBox="0.25 0 253.14752 109.20615"
   enable-background="new 0.25 0 567.927 113.032"
   xml:space="preserve"
   inkscape:version="0.91 r13725"
   sodipodi:docname="capcom_ps_1_udb.svg"><defs
     id="defs21"><linearGradient
       inkscape:collect="always"
       id="linearGradient4387"><stop
         style="stop-color:#009ee0;stop-opacity:1"
         offset="0"
         id="stop4389" /><stop
         id="stop4395"
         offset="0.51050597"
         style="stop-color:#0078bd;stop-opacity:1" /><stop
         style="stop-color:#003f86;stop-opacity:1"
         offset="1"
         id="stop4391" /></linearGradient><linearGradient
       inkscape:collect="always"
       xlink:href="#linearGradient4387"
       id="linearGradient4829"
       gradientUnits="userSpaceOnUse"
       gradientTransform="translate(-253.11758,-3.555022)"
       x1="254.86465"
       y1="462.59793"
       x2="254.86465"
       y2="790.39484" /></defs><sodipodi:namedview
     pagecolor="#ffffff"
     bordercolor="#666666"
     borderopacity="1"
     objecttolerance="10"
     gridtolerance="10"
     guidetolerance="10"
     inkscape:pageopacity="0"
     inkscape:pageshadow="2"
     inkscape:window-width="1920"
     inkscape:window-height="1137"
     id="namedview19"
     showgrid="false"
     inkscape:zoom="0.63916665"
     inkscape:cx="-26.599895"
     inkscape:cy="91.52842"
     inkscape:window-x="-8"
     inkscape:window-y="-8"
     inkscape:window-maximized="1"
     inkscape:current-layer="g4889"
     fit-margin-top="0"
     fit-margin-left="0"
     fit-margin-right="0"
     fit-margin-bottom="0" /><metadata
     id="metadata3"><ns:sfw><ns:slices /><ns:sliceSourceBounds
         x="677.036"
         y="482.984"
         width="567.927"
         height="113.032"
         bottomLeftOrigin="true" /></ns:sfw><rdf:RDF><cc:Work
         rdf:about=""><dc:format>image/svg+xml</dc:format><dc:type
           rdf:resource="http://purl.org/dc/dcmitype/StillImage" /><dc:title></dc:title></cc:Work></rdf:RDF></metadata><g
     transform="matrix(0.77798037,0,0,0.77798037,-29.57926,-210.77839)"
     id="g4889"><g
       id="g4937"><g
         transform="matrix(0.42825727,0,0,0.42825727,773.94871,540.63482)"
         id="g5018"><g
           id="g4781"
           transform="translate(-1338.1902,-1089.9192)"><path
             style="color:#000000;clip-rule:nonzero;display:inline;overflow:visible;visibility:visible;opacity:1;isolation:auto;mix-blend-mode:normal;color-interpolation:sRGB;color-interpolation-filters:linearRGB;solid-color:#000000;solid-opacity:1;fill:#999999;fill-opacity:1;fill-rule:evenodd;stroke:none;stroke-width:1px;stroke-linecap:butt;stroke-linejoin:miter;stroke-miterlimit:4;stroke-dasharray:none;stroke-dashoffset:0;stroke-opacity:1;color-rendering:auto;image-rendering:auto;shape-rendering:auto;text-rendering:auto;enable-background:accumulate"
             d="m -97.531229,462.27982 0,17.33254 0.44938,0 c 1.42382,0 65.29578,1.19519 65.29578,28.3863 l 0,234.20521 c 0,15.72617 -29.12165,28.3863 -65.29578,28.3863 l -0.44938,0 0,17.33003 86.3991,0 23.09667,0 86.39909,0 0,-17.33003 -0.44937,0 c -36.17413,0 -65.29578,-12.66013 -65.29578,-28.3863 l 0,-234.20521 c 0,-27.19111 63.87198,-28.3863 65.29578,-28.3863 l 0.44937,0 0,-17.33254 -86.39909,0 -23.09667,0 -86.3991,0 z"
             id="path4783"
             inkscape:connector-curvature="0" /><path
             inkscape:connector-curvature="0"
             id="path4785"
             d="m -97.531229,460.14682 0,17.33254 0.44938,0 c 1.42382,0 65.29578,1.19519 65.29578,28.3863 l 0,234.20521 c 0,15.72617 -29.12165,28.3863 -65.29578,28.3863 l -0.44938,0 0,17.33003 86.3991,0 23.09667,0 86.39909,0 0,-17.33003 -0.44937,0 c -36.17413,0 -65.29578,-12.66013 -65.29578,-28.3863 l 0,-234.20521 c 0,-27.19111 63.87198,-28.3863 65.29578,-28.3863 l 0.44937,0 0,-17.33254 -86.39909,0 -23.09667,0 -86.3991,0 z"
             style="color:#000000;clip-rule:nonzero;display:inline;overflow:visible;visibility:visible;opacity:1;isolation:auto;mix-blend-mode:normal;color-interpolation:sRGB;color-interpolation-filters:linearRGB;solid-color:#000000;solid-opacity:1;fill:url(#linearGradient4829);fill-opacity:1;fill-rule:evenodd;stroke:none;stroke-width:1px;stroke-linecap:butt;stroke-linejoin:miter;stroke-miterlimit:4;stroke-dasharray:none;stroke-dashoffset:0;stroke-opacity:1;color-rendering:auto;image-rendering:auto;shape-rendering:auto;text-rendering:auto;enable-background:accumulate" /></g><g
           id="g4995"
           transform="translate(0,2.3512573e-5)"><g
             id="g4787"
             transform="translate(-718.17197,-398.16246)"><rect
               style="color:#000000;clip-rule:nonzero;display:inline;overflow:visible;visibility:visible;opacity:1;isolation:auto;mix-blend-mode:normal;color-interpolation:sRGB;color-interpolation-filters:linearRGB;solid-color:#000000;solid-opacity:1;fill:#0c4da1;fill-opacity:1;fill-rule:evenodd;stroke:none;stroke-width:1px;stroke-linecap:butt;stroke-linejoin:miter;stroke-miterlimit:4;stroke-dasharray:none;stroke-dashoffset:0;stroke-opacity:1;color-rendering:auto;image-rendering:auto;shape-rendering:auto;text-rendering:auto;enable-background:accumulate"
               id="rect4789"
               width="643.28125"
               height="61.67963"
               x="-941.24268"
               y="-23.599487"
               rx="28.617928"
               ry="28.617928" /><g
               id="g4791"
               transform="translate(-1072.3506,-702.96121)"><path
                 d="m 298.40912,705.64587 q 0,1.84067 -0.64424,3.60772 -0.64424,1.74864 -1.84067,2.94508 -1.6382,1.61979 -3.66295,2.44809 -2.00633,0.82831 -5.00663,0.82831 l -4.39921,0 0,8.92727 -7.06819,0 0,-27.40764 11.63306,0 q 2.61376,0 4.39921,0.46016 1.80386,0.44177 3.18437,1.3437 1.65661,1.08599 2.52172,2.77942 0.88353,1.69342 0.88353,4.06789 z m -7.30748,0.16566 q 0,-1.15963 -0.62583,-1.98793 -0.62583,-0.84671 -1.45413,-1.17803 -1.10441,-0.44177 -2.15359,-0.47858 -1.04919,-0.0552 -2.79783,-0.0552 l -1.21484,0 0,8.20941 2.02474,0 q 1.80386,0 2.96349,-0.22088 1.17803,-0.22088 1.96952,-0.88353 0.68105,-0.58901 0.97555,-1.39891 0.31292,-0.8283 0.31292,-2.00633 z"
                 style="font-style:normal;font-variant:normal;font-weight:bold;font-stretch:normal;font-size:medium;line-height:125%;font-family:sans-serif;-inkscape-font-specification:'sans-serif Bold';letter-spacing:7.03102636px;word-spacing:0px;fill:#ffffff;fill-opacity:1;stroke:none;stroke-width:1px;stroke-linecap:butt;stroke-linejoin:miter;stroke-opacity:1"
                 id="path4793"
                 inkscape:connector-curvature="0" /><path
                 d="m 330.19721,724.40234 -19.76884,0 0,-27.40764 7.06819,0 0,22.10649 12.70065,0 0,5.30115 z"
                 style="font-style:normal;font-variant:normal;font-weight:bold;font-stretch:normal;font-size:medium;line-height:125%;font-family:sans-serif;-inkscape-font-specification:'sans-serif Bold';letter-spacing:7.03102636px;word-spacing:0px;fill:#ffffff;fill-opacity:1;stroke:none;stroke-width:1px;stroke-linecap:butt;stroke-linejoin:miter;stroke-opacity:1"
                 id="path4795"
                 inkscape:connector-curvature="0" /><path
                 sodipodi:nodetypes="ccccccccccccc"
                 d="m 367.74962,724.40234 -7.30748,0 -2.34027,-5.54043 -13.90292,0 -2.47358,5.54043 -7.12341,0 12.50594,-27.40764 8.13578,0 z m -11.75952,-10.56547 -4.90634,-9.8292 -4.86191,9.8292 z"
                 style="font-style:normal;font-variant:normal;font-weight:bold;font-stretch:normal;font-size:medium;line-height:125%;font-family:sans-serif;-inkscape-font-specification:'sans-serif Bold';letter-spacing:7.03102636px;word-spacing:0px;fill:#ffffff;fill-opacity:1;stroke:none;stroke-width:1px;stroke-linecap:butt;stroke-linejoin:miter;stroke-opacity:1"
                 id="path4797"
                 inkscape:connector-curvature="0" /><path
                 sodipodi:nodetypes="cccccccccc"
                 d="m 402.35357,696.9947 -10.54968,16.80535 0,10.60229 -7.06819,0 0,-10.27097 -10.80422,-17.13667 8.02534,0 6.46022,10.60228 6.16888,-10.60228 z"
                 style="font-style:normal;font-variant:normal;font-weight:bold;font-stretch:normal;font-size:medium;line-height:125%;font-family:sans-serif;-inkscape-font-specification:'sans-serif Bold';letter-spacing:7.03102636px;word-spacing:0px;fill:#ffffff;fill-opacity:1;stroke:none;stroke-width:1px;stroke-linecap:butt;stroke-linejoin:miter;stroke-opacity:1"
                 id="path4799"
                 inkscape:connector-curvature="0" /><path
                 sodipodi:nodetypes="scsccccssccscccccscsccccscccscccccs"
                 d="m 452.57694,715.291 c 0,2.69965 -1.14735,4.89619 -3.44206,6.58961 -2.28243,1.68115 -5.38704,2.52173 -9.31381,2.52173 -2.27017,0 -4.25196,-0.19634 -5.94538,-0.58902 -1.68115,-0.40495 -3.25799,-0.9142 -4.73053,-1.52776 l 2.27038,-5.29517 c 0.88841,0.50772 2.4065,1.06705 3.3989,1.41135 1.81613,0.62583 3.55863,0.93874 5.22751,0.93874 0.42949,0 0.99397,-0.0368 1.69342,-0.11044 0.69946,-0.0736 1.27007,-0.19634 1.71183,-0.36813 0.53993,-0.22089 0.98169,-0.49699 1.32528,-0.82831 0.35587,-0.33132 0.5338,-0.82217 0.5338,-1.47254 0,-0.60129 -0.25769,-1.11667 -0.77308,-1.54616 -0.50312,-0.44177 -1.24553,-0.77922 -2.22722,-1.01237 -1.03078,-0.24543 -2.12291,-0.47244 -3.2764,-0.68105 -1.14122,-0.22089 -2.21495,-0.49699 -3.22118,-0.82831 -2.30698,-0.74854 -3.96972,-1.76091 -4.98823,-3.03711 -1.00623,-1.28847 -1.50935,-2.88372 -1.50935,-4.78575 0,-2.55241 1.14122,-4.63237 3.42365,-6.23989 2.29471,-1.61979 5.23979,-2.42969 8.83524,-2.42969 1.80386,0 3.58318,0.17793 5.33796,0.5338 1.76705,0.34359 3.29481,0.77921 4.58328,1.30687 l -2.97936,4.89983 c -0.57247,-0.28959 -1.18687,-0.55463 -1.84321,-0.79512 -1.59525,-0.60129 -3.22732,-0.90193 -4.89619,-0.90193 -0.58902,0 -1.17804,0.043 -1.76705,0.12885 -0.57675,0.0736 -1.13509,0.22088 -1.67502,0.44176 -0.47857,0.18407 -0.88966,0.4663 -1.23325,0.84671 -0.34359,0.36813 -0.51539,0.79149 -0.51539,1.27006 0,0.724 0.2761,1.28234 0.82831,1.67502 0.5522,0.38041 1.59525,0.73013 3.12914,1.04918 1.00624,0.20861 1.96953,0.41109 2.88986,0.60742 0.93261,0.19634 1.93271,0.46631 3.0003,0.8099 2.09837,0.68719 3.64453,1.62593 4.6385,2.81623 1.00623,1.17803 1.50935,2.71193 1.50935,4.60169 z"
                 style="font-style:normal;font-variant:normal;font-weight:bold;font-stretch:normal;font-size:medium;line-height:125%;font-family:sans-serif;-inkscape-font-specification:'sans-serif Bold';letter-spacing:7.03102636px;word-spacing:0px;fill:#ffffff;fill-opacity:1;stroke:none;stroke-width:1px;stroke-linecap:butt;stroke-linejoin:miter;stroke-opacity:1"
                 id="path4801"
                 inkscape:connector-curvature="0" /><path
                 d="m 552.5198,702.29584 -8.55913,0 0,22.1065 -7.06819,0 0,-22.1065 -8.55914,0 0,-5.30114 24.18646,0 0,5.30114 z"
                 style="font-style:normal;font-variant:normal;font-weight:bold;font-stretch:normal;font-size:medium;line-height:125%;font-family:sans-serif;-inkscape-font-specification:'sans-serif Bold';letter-spacing:7.03102636px;word-spacing:0px;fill:#ffffff;fill-opacity:1;stroke:none;stroke-width:1px;stroke-linecap:butt;stroke-linejoin:miter;stroke-opacity:1"
                 id="path4803"
                 inkscape:connector-curvature="0" /><path
                 sodipodi:nodetypes="ccccccccccccc"
                 d="m 582.56926,724.40234 -21.08096,0 0,-27.40764 21.08096,0 0,5.30114 -14.04958,0 0,4.73054 13.12924,0 0,5.30114 -13.12924,0 0,6.77368 14.04958,0 z"
                 style="font-style:normal;font-variant:normal;font-weight:bold;font-stretch:normal;font-size:medium;line-height:125%;font-family:sans-serif;-inkscape-font-specification:'sans-serif Bold';letter-spacing:7.03102636px;word-spacing:0px;fill:#ffffff;fill-opacity:1;stroke:none;stroke-width:1px;stroke-linecap:butt;stroke-linejoin:miter;stroke-opacity:1"
                 id="path4805"
                 inkscape:connector-curvature="0" /><path
                 sodipodi:nodetypes="cccccccccccccc"
                 d="m 629.70979,724.40234 -7.40845,0 -0.62845,-13.21 -7.65102,13.20424 -4.87779,0 -7.65102,-13.20424 -0.62845,13.21 -7.04031,0 1.00552,-27.40764 6.88967,0 10.05676,18.94033 10.03835,-18.94033 6.88967,0 z"
                 style="font-style:normal;font-variant:normal;font-weight:bold;font-stretch:normal;font-size:medium;line-height:125%;font-family:sans-serif;-inkscape-font-specification:'sans-serif Bold';letter-spacing:7.03102636px;word-spacing:0px;fill:#ffffff;fill-opacity:1;stroke:none;stroke-width:1px;stroke-linecap:butt;stroke-linejoin:miter;stroke-opacity:1"
                 id="path4807"
                 inkscape:connector-curvature="0" /><path
                 inkscape:connector-curvature="0"
                 id="path4809"
                 style="font-style:normal;font-variant:normal;font-weight:bold;font-stretch:normal;font-size:medium;line-height:125%;font-family:sans-serif;-inkscape-font-specification:'sans-serif Bold';letter-spacing:7.03102636px;word-spacing:0px;fill:#ffffff;fill-opacity:1;stroke:none;stroke-width:1px;stroke-linecap:butt;stroke-linejoin:miter;stroke-opacity:1"
                 d="m 489.07899,696.9947 -10.54968,16.80535 0,10.60229 -7.06819,0 0,-10.27097 -10.80422,-17.13667 8.02534,0 6.46022,10.60228 6.16888,-10.60228 z"
                 sodipodi:nodetypes="cccccccccc" /><path
                 inkscape:connector-curvature="0"
                 id="path4811"
                 style="font-style:normal;font-variant:normal;font-weight:bold;font-stretch:normal;font-size:medium;line-height:125%;font-family:sans-serif;-inkscape-font-specification:'sans-serif Bold';letter-spacing:7.03102636px;word-spacing:0px;fill:#ffffff;fill-opacity:1;stroke:none;stroke-width:1px;stroke-linecap:butt;stroke-linejoin:miter;stroke-opacity:1"
                 d="m 519.19212,715.291 c 0,2.69965 -1.14735,4.89619 -3.44206,6.58961 -2.28243,1.68115 -5.38704,2.52173 -9.31381,2.52173 -2.27017,0 -4.25196,-0.19634 -5.94538,-0.58902 -1.68115,-0.40495 -3.25799,-0.9142 -4.73053,-1.52776 l 2.27038,-5.29517 c 0.88841,0.50772 2.4065,1.06705 3.3989,1.41135 1.81613,0.62583 3.55863,0.93874 5.22751,0.93874 0.42949,0 0.99397,-0.0368 1.69342,-0.11044 0.69946,-0.0736 1.27007,-0.19634 1.71183,-0.36813 0.53993,-0.22089 0.98169,-0.49699 1.32528,-0.82831 0.35587,-0.33132 0.5338,-0.82217 0.5338,-1.47254 0,-0.60129 -0.25769,-1.11667 -0.77308,-1.54616 -0.50312,-0.44177 -1.24553,-0.77922 -2.22722,-1.01237 -1.03078,-0.24543 -2.12291,-0.47244 -3.2764,-0.68105 -1.14122,-0.22089 -2.21495,-0.49699 -3.22118,-0.82831 -2.30698,-0.74854 -3.96972,-1.76091 -4.98823,-3.03711 -1.00623,-1.28847 -1.50935,-2.88372 -1.50935,-4.78575 0,-2.55241 1.14122,-4.63237 3.42365,-6.23989 2.29471,-1.61979 5.23979,-2.42969 8.83524,-2.42969 1.80386,0 3.58318,0.17793 5.33796,0.5338 1.76705,0.34359 3.29481,0.77921 4.58328,1.30687 l -2.97936,4.89983 c -0.57247,-0.28959 -1.18687,-0.55463 -1.84321,-0.79512 -1.59525,-0.60129 -3.22732,-0.90193 -4.89619,-0.90193 -0.58902,0 -1.17804,0.043 -1.76705,0.12885 -0.57675,0.0736 -1.13509,0.22088 -1.67502,0.44176 -0.47857,0.18407 -0.88966,0.4663 -1.23325,0.84671 -0.34359,0.36813 -0.51539,0.79149 -0.51539,1.27006 0,0.724 0.2761,1.28234 0.82831,1.67502 0.5522,0.38041 1.59525,0.73013 3.12914,1.04918 1.00624,0.20861 1.96953,0.41109 2.88986,0.60742 0.93261,0.19634 1.93271,0.46631 3.0003,0.8099 2.09837,0.68719 3.64453,1.62593 4.6385,2.81623 1.00623,1.17803 1.50935,2.71193 1.50935,4.60169 z"
                 sodipodi:nodetypes="scsccccssccscccccscsccccscccscccccs" /></g></g><g
             transform="translate(-1789.4636,-1102.0058)"
             id="g4813"><path
               style="clip-rule:evenodd;fill:#0c4da1;fill-opacity:1;fill-rule:evenodd"
               inkscape:connector-curvature="0"
               d="m 206.1153,564.37436 -35.92269,37.94312 -23.72592,-16.26587 c 0,0 7.80621,-7.44946 0.68525,-12.87495 -5.55265,-4.23161 -21.12975,4.74376 -20.45509,22.36602 0.79122,20.32793 13.35179,31.84297 27.22636,31.84297 12.88554,0 16.2694,-10.38825 16.2694,-10.38825 l 28.86885,0 0,23.95199 40.58521,-107.0722 46.42398,0 37.27552,96.23533 c 0,0 2.70922,5.07228 5.41842,6.42864 0,0 0.15554,-63.12784 0.15554,-64.90101 0,-1.76611 -0.23303,-3.71944 -1.33872,-4.98751 -1.81909,-2.0946 -4.91685,-2.96352 -4.91685,-2.96352 l 0,-29.81193 c 0,0 43.01892,0 65.05291,0 33.74331,0 42.39725,9.14844 52.18149,26.77069 13.50721,-18.1874 32.10437,-30.16164 58.62074,-30.16164 27.27935,0 46.58294,10.05624 57.607,26.76718 15.39695,-18.40642 40.179,-26.93673 62.85586,-26.93673 27.86921,0 51.14302,13.5072 63.18789,34.39323 l 0,-30.83273 62.67925,0 6.60525,16.76391 4.9204,-16.76391 64.71734,0 0,29.13375 c 0,0 -3.73354,1.02434 -4.76495,2.70568 -1.00316,1.66015 -0.82654,6.95848 -0.82654,6.95848 l 9.02835,57.5893 c 0.37793,1.8721 1.04553,3.82895 2.65976,5.26302 1.87208,1.67427 4.40114,1.3599 4.40114,1.3599 l 0,33.19582 -65.05289,0 0,-25.07523 -37.26849,0 0,25.14234 -61.16038,0 0,-16.34358 c 0,0 -22.35189,19.66033 -51.16069,19.66033 -36.86931,0 -61.50303,-27.10274 -61.50303,-27.10274 l 0,23.71534 c 0,0 -2.70567,0 -43.36154,0 -38.59657,0 -71.72879,-21.11914 -80.98323,-59.63448 -4.38701,4.19628 -23.73297,18.00725 -46.93262,23.21023 -1.80496,0.40621 -2.70568,1.08084 -2.70568,3.03772 0,3.56753 7.62254,4.83914 7.62254,4.83914 l 0,28.54387 c 0,0 -200.58775,0 -237.85267,0 -44.05386,0.008 -79.443181,-30.14752 -79.443181,-68.43326 0,-38.28926 27.590176,-70.82102 73.328901,-70.82102 43.71476,0 60.99792,33.55256 60.99792,33.55256 l 0,0 z"
               id="path4815" /><path
               style="clip-rule:evenodd;fill:#ffca08;fill-opacity:1;fill-rule:evenodd"
               inkscape:connector-curvature="0"
               d="m 188.99816,564.96779 -19.13757,20.06654 c 0,0 -1.01728,0.51217 -1.86148,0.51217 -0.85127,0 -2.04163,-0.85127 -2.04163,-0.85127 l -2.36658,-2.02396 c 0,0 -0.68172,-0.16598 -0.68172,-0.85127 0,-0.66757 1.86501,-2.37364 1.86501,-5.59149 0,-3.2214 -0.67466,-16.60497 -21.34168,-16.60497 -20.66702,0 -29.81547,19.31416 -29.81547,35.24096 0,15.92679 9.81957,45.06406 42.01929,45.06406 18.72431,0 22.69099,-10.51189 22.69099,-10.51189 l 6.43571,0 0,27.45242 -35.2339,0 c -42.01224,0 -65.395539,-32.87436 -65.395539,-56.58969 0,-36.36423 31.620439,-56.5438 60.312669,-56.5438 27.78445,0.003 44.5519,21.23219 44.5519,21.23219 l 0,0 z"
               id="path4817" /><path
               style="clip-rule:evenodd;fill:#ffca08;fill-opacity:1;fill-rule:evenodd"
               inkscape:connector-curvature="0"
               d="m 248.30061,546.75565 28.96773,0 35.24099,92.16269 c 1.01022,2.53261 2.70568,4.9204 4.39759,6.94084 1.68843,2.03454 5.75753,3.39798 5.75753,3.39798 l 0,7.95103 -42.51027,0 0,-8.13116 c 0,0 2.70213,0.34968 4.06206,-2.0275 1.35284,-2.37367 1.35284,-4.23513 0.34262,-6.60525 -1.01728,-2.37719 -8.14883,-21.17566 -8.14883,-21.17566 l -34.72173,0 c 0,0 -7.11036,18.97154 -7.79562,20.66349 -0.67818,1.69194 -0.67818,4.4082 0,6.09659 1.12678,2.81874 5.0864,3.23201 5.0864,3.23201 l 0,7.95103 -34.05767,0 0,-7.95103 c 0,0 3.09776,-1.06675 5.42196,-3.39801 2.53966,-2.53967 3.38387,-5.25593 3.38387,-5.25593 l 34.57337,-93.85112 0,0 z m -0.85479,55.22627 22.36954,0 -11.51857,-32.1856 -10.85097,32.1856 0,0 z"
               id="path4819" /><path
               style="clip-rule:evenodd;fill:#ffca08;fill-opacity:1;fill-rule:evenodd"
               inkscape:connector-curvature="0"
               d="m 336.21757,546.75565 c 0,0 34.22016,0 54.21608,0 19.99235,0 39.97766,7.10682 39.97766,30.14749 0,23.0407 -14.57041,31.17893 -27.10274,36.93997 -14.47151,6.64765 -33.54195,11.86121 -33.54195,11.86121 l 0,17.61164 c 0,0 0.16955,1.19035 1.86149,3.21079 1.69898,2.03456 3.56047,2.54674 3.56047,2.54674 l 0,8.13116 -39.30657,0 0,-7.951 c 0,0 2.37013,-0.51572 4.07267,-2.20766 1.6884,-1.69546 2.03454,-3.73003 2.03454,-3.73003 l 0,-79.6233 c 0,0 0.15554,-3.39094 -1.19035,-4.74024 -1.35284,-1.36699 -4.57775,-3.22139 -4.57775,-3.22139 l 0,-8.97538 -0.003,0 0,0 z m 33.88461,16.59791 0,47.09508 c 0,0 31.84649,-13.21048 31.84649,-31.84649 0,-23.04068 -31.84649,-15.24859 -31.84649,-15.24859 l 0,0 z"
               id="path4821" /><path
               style="clip-rule:evenodd;fill:#ffca08;fill-opacity:1;fill-rule:evenodd"
               inkscape:connector-curvature="0"
               d="m 547.82233,565.16205 -19.14464,20.06654 c 0,0 -1.01729,0.50865 -1.86502,0.50865 -0.84066,0 -2.0275,-0.84773 -2.0275,-0.84773 l -2.37718,-2.03811 c 0,0 -0.67463,-0.15883 -0.67463,-0.8336 0,-0.6817 1.85795,-2.38776 1.85795,-5.59149 0,-3.22491 -0.6676,-16.60852 -21.3417,-16.60852 -20.67407,0 -29.81899,19.30714 -29.81899,35.23745 0,15.91618 9.82662,45.06406 42.02282,45.06406 18.72431,0 22.69451,-10.50835 22.69451,-10.50835 l 6.44279,0 0,27.44536 -35.24805,0 c -42.0087,0 -65.39554,-32.86378 -65.39554,-56.58265 0,-36.36066 31.61693,-56.54732 60.31268,-56.54732 27.78798,0 44.5625,21.23571 44.5625,21.23571 l 0,0 z"
               id="path4823" /><path
               style="clip-rule:evenodd;fill:#ffca08;fill-opacity:1;fill-rule:evenodd"
               inkscape:connector-curvature="0"
               d="m 616.43924,660.38719 c -36.60086,0 -62.90531,-26.72478 -62.90531,-59.24594 0,-32.54234 26.98617,-57.74475 62.90531,-57.74475 35.90504,0 62.8912,25.20241 62.8912,57.74475 0,32.51762 -26.30798,59.24594 -62.8912,59.24594 l 0,0 z m -32.5388,-58.74437 c 0,32.52822 16.60497,40.65941 32.5388,40.65941 15.91267,0 32.8638,-10.16573 32.8638,-40.65941 0,-30.49011 -18.97509,-40.65938 -32.8638,-40.65938 -13.89575,0 -32.5388,8.1241 -32.5388,40.65938 l 0,0 z"
               id="path4825" /><path
               style="clip-rule:evenodd;fill:#ffca08;fill-opacity:1;fill-rule:evenodd"
               inkscape:connector-curvature="0"
               d="m 695.71288,546.8263 40.32737,0 14.57041,44.99342 15.58062,-45.06407 42.17826,0 0,6.60171 c 0,0 -2.80461,1.18683 -4.05146,2.71277 -1.52593,1.86501 -1.52593,3.21785 -1.19038,5.93765 0.33911,2.70214 11.17949,76.23238 11.52211,78.94512 0.34262,2.71275 0.67466,4.23514 1.35284,6.10015 0.67112,1.84737 3.89958,3.38034 3.89958,3.38034 l 0,6.83485 -40.49692,0 0,-7.33996 c 0,0 3.55695,-0.50511 4.75085,-2.20763 1.18683,-1.69546 1.68839,-2.71274 1.35284,-5.41842 -0.33911,-2.70923 -9.98911,-64.37826 -9.98911,-64.37826 l -17.62226,54.55161 -21.34521,0 -17.45624,-51.17127 -8.80583,60.31619 c 0,0 -0.34262,3.62052 1.01728,5.59504 1.86147,2.71274 5.25948,2.71274 5.25948,2.71274 l 0,7.27991 -35.08202,0 0,-7.78148 c 0,0 2.794,-0.43094 4.82502,-2.80812 2.03102,-2.36306 2.37364,-5.42197 2.37364,-5.42197 l 12.79724,-79.53852 c 0,0 0.76649,-2.97061 -0.0846,-4.31991 -0.89365,-1.42703 -5.67981,-2.62445 -5.67981,-2.62445 l 0,-7.88744 -0.003,0 z"
               id="path4827" /></g></g></g></g></g></svg>