<?xml version="1.0" encoding="utf-8"?>
<!-- Generator: Adobe Illustrator 13.0.0, SVG Export Plug-In . SVG Version: 6.00 Build 14948)  -->
<!DOCTYPE svg PUBLIC "-//W3C//DTD SVG 1.1//EN" "http://www.w3.org/Graphics/SVG/1.1/DTD/svg11.dtd">
<svg version="1.1" id="Layer_1" xmlns:svg="http://www.w3.org/2000/svg"
	 xmlns="http://www.w3.org/2000/svg" xmlns:xlink="http://www.w3.org/1999/xlink" x="0px" y="0px" width="568.929px"
	 height="116.145px" viewBox="-1 -1 568.929 116.145" enable-background="new -1 -1 568.929 116.145" xml:space="preserve">
<g>
	<path stroke="#FFFFFF" stroke-width="2" d="M34.216,86.073V32.865h47.952c3.215,0,5.951,0.313,8.208,0.936
		c2.255,0.625,4.068,1.548,5.436,2.772c1.368,1.224,2.363,2.736,2.988,4.536c0.624,1.8,0.936,3.876,0.936,6.228V71.6
		c0,2.354-0.313,4.429-0.936,6.229c-0.625,1.801-1.62,3.313-2.988,4.536c-1.368,1.224-3.181,2.149-5.436,2.772
		c-2.257,0.624-4.993,0.936-8.208,0.936H34.216z M44.656,75.633H82.24c2.352,0,4.068-0.371,5.148-1.117
		c1.08-0.743,1.62-1.859,1.62-3.348v-23.4c0-1.487-0.54-2.603-1.62-3.348c-1.08-0.744-2.796-1.116-5.148-1.116H44.656V75.633z"/>
	<path stroke="#FFFFFF" stroke-width="2" d="M108.952,86.073V32.865H174.4v10.44h-55.008v6.984h45v9.72h-45v15.625h55.152v10.439
		H108.952z"/>
	<path stroke="#FFFFFF" stroke-width="2" d="M182.175,86.073V75.633h46.08c2.352,0,4.068-0.371,5.148-1.117
		c1.08-0.743,1.619-1.859,1.619-3.348v-5.472c0-1.487-0.539-2.604-1.619-3.349c-1.08-0.743-2.797-1.115-5.148-1.115h-30.672
		c-10.272,0-15.408-3.816-15.408-11.448v-6.696c0-6.815,5.087-10.224,15.264-10.224h46.152v10.44H197.08
		c-1.584,0-2.664,0.156-3.24,0.468c-0.576,0.313-0.864,0.804-0.864,1.476v3.168c0,0.864,0.288,1.476,0.864,1.836
		c0.576,0.36,1.68,0.54,3.312,0.54h31.032c3.216,0,5.951,0.313,8.208,0.936c2.256,0.625,4.068,1.548,5.437,2.772
		c1.368,1.224,2.363,2.736,2.987,4.536s0.937,3.877,0.937,6.228V71.6c0,2.354-0.313,4.429-0.937,6.229
		c-0.624,1.801-1.619,3.313-2.987,4.536s-3.181,2.149-5.437,2.772c-2.257,0.624-4.992,0.936-8.208,0.936H182.175z"/>
	<path stroke="#FFFFFF" stroke-width="2" d="M254.823,86.073V32.865h10.44v20.016h6.336l32.328-20.016h19.871l-41.688,24.624
		l44.208,28.584h-19.296l-35.424-23.977h-6.336v23.977H254.823z"/>
	<path stroke="#FFFFFF" stroke-width="2" d="M351.302,86.073V43.304h-27.575v-10.44h65.592v10.44h-27.576v42.768H351.302z"/>
	<path stroke="#FFFFFF" stroke-width="2" d="M411.135,86.073c-3.265,0-6.013-0.312-8.244-0.936c-2.232-0.623-4.032-1.549-5.4-2.772
		s-2.364-2.735-2.987-4.536c-0.625-1.8-0.937-3.875-0.937-6.229V47.337c0-2.352,0.312-4.428,0.937-6.228
		c0.623-1.8,1.619-3.312,2.987-4.536s3.168-2.147,5.4-2.772c2.231-0.623,4.979-0.936,8.244-0.936h30.456
		c3.215,0,5.951,0.313,8.208,0.936c2.255,0.625,4.067,1.548,5.436,2.772s2.364,2.736,2.988,4.536c0.623,1.8,0.936,3.876,0.936,6.228
		V71.6c0,2.354-0.313,4.429-0.936,6.229c-0.624,1.801-1.62,3.313-2.988,4.536s-3.181,2.149-5.436,2.772
		c-2.257,0.624-4.993,0.936-8.208,0.936H411.135z M404.295,71.168c0,1.488,0.54,2.604,1.619,3.348
		c1.08,0.746,2.796,1.117,5.148,1.117h30.6c2.352,0,4.068-0.371,5.148-1.117c1.08-0.743,1.62-1.859,1.62-3.348v-23.4
		c0-1.487-0.54-2.603-1.62-3.348c-1.08-0.744-2.797-1.116-5.148-1.116h-30.6c-2.353,0-4.068,0.373-5.148,1.116
		c-1.079,0.745-1.619,1.861-1.619,3.348V71.168z"/>
	<path stroke="#FFFFFF" stroke-width="2" d="M468.375,86.073V32.865h48.024c3.215,0,5.951,0.313,8.208,0.936
		c2.255,0.625,4.067,1.548,5.436,2.772s2.363,2.736,2.988,4.536c0.623,1.8,0.936,3.876,0.936,6.228v6.912
		c0,2.353-0.313,4.428-0.936,6.229c-0.625,1.8-1.62,3.312-2.988,4.535c-1.368,1.225-3.181,2.149-5.436,2.772
		c-2.257,0.624-4.993,0.937-8.208,0.937h-37.584v17.352H468.375z M478.815,59h37.655c2.352,0,4.068-0.371,5.148-1.116
		c1.08-0.744,1.62-1.86,1.62-3.348v-6.768c0-1.487-0.54-2.603-1.62-3.348c-1.08-0.744-2.797-1.116-5.148-1.116h-37.655V59z"/>
</g>
</svg>
