<?xml version="1.0" encoding="utf-8"?>
<!-- Generator: Adobe Illustrator 21.0.2, SVG Export Plug-In . SVG Version: 6.00 Build 0)  -->
<svg version="1.1"
	 id="svg3414" inkscape:version="0.91 r13725" sodipodi:docname="Famicom Retropie Logo TEST.svg" xmlns:cc="http://creativecommons.org/ns#" xmlns:dc="http://purl.org/dc/elements/1.1/" xmlns:inkscape="http://www.inkscape.org/namespaces/inkscape" xmlns:rdf="http://www.w3.org/1999/02/22-rdf-syntax-ns#" xmlns:sodipodi="http://sodipodi.sourceforge.net/DTD/sodipodi-0.dtd" xmlns:svg="http://www.w3.org/2000/svg"
	 xmlns="http://www.w3.org/2000/svg" xmlns:xlink="http://www.w3.org/1999/xlink" x="0px" y="0px" viewBox="0 0 363.9 107.4"
	 enable-background="new 0 0 363.9 107.4" xml:space="preserve">
<sodipodi:namedview  bordercolor="#666666" borderopacity="1" gridtolerance="10" guidetolerance="10" id="namedview3416" inkscape:current-layer="svg3414" inkscape:cx="181.95" inkscape:cy="53.700001" inkscape:pageopacity="0" inkscape:pageshadow="2" inkscape:window-height="920" inkscape:window-maximized="0" inkscape:window-width="1884" inkscape:window-x="0" inkscape:window-y="0" inkscape:zoom="4.7980215" objecttolerance="10" pagecolor="#ffffff" showgrid="false">
	</sodipodi:namedview>
<g id="g3424">
	<path id="path3430" inkscape:connector-curvature="0" fill="#EB1B23" d="M6.9,90.3c-0.1-0.2-0.1-0.7-0.1-1
		c0.1-0.5,6.5-0.5,172.1-0.6c147.7-0.1,172,0,171.6,0.3c-0.2,0.2-1,0.7-1.6,1.1l-1.2,0.6H177.4C29.3,90.7,7,90.7,6.9,90.3z
		 M149,83.4c-5-0.9-9.6-4.2-11.5-8.2c-0.9-1.9-1-2.2-1-5.3c0-3,0.1-3.5,0.8-5.1c3.6-7.7,15.2-11.1,24.6-7.2c2.5,1.1,6.8,4.4,6.8,5.3
		c0,0.1-1.7,0.2-3.8,0.2c-3.5,0-3.9-0.1-5-0.7c-2.5-1.5-6.3-2-9.2-1.3c-6.5,1.5-10.2,7.4-7.6,12.2c1,1.9,2,3,4,4.1
		c4,2.3,8.5,2.3,12.9,0.1c1.5-0.7,1.8-0.8,5.2-0.7l3.6,0.1l-1,1.1c-2,2.2-5.5,4.4-8.6,5.2C157,83.8,151.6,83.9,149,83.4L149,83.4z
		 M236.8,83.6c-0.2-0.1-0.3-2.6-0.3-6.5c0-5.6-0.1-6.4-0.5-6.7c-1.2-0.7-1.2-0.7-5.6,7.7c-1.3,2.6-2.6,4.8-2.7,5
		c-0.2,0.3-1.2,0.4-3.5,0.3l-3.1-0.1l-3.2-6.2c-1.7-3.4-3.3-6.3-3.6-6.4c-0.2-0.1-0.7-0.1-1,0.1c-0.6,0.3-0.6,0.7-0.7,6.4l-0.1,6.1
		l-2.9,0.1l-2.9,0.1V70.1V56.5h3.6c2.7,0,3.7,0.1,3.9,0.4c0.2,0.2,1.8,3.3,3.6,6.8c5.4,10.7,6,11.7,6.9,11.7c0.6,0,1.2-0.6,1.2-1.1
		c0-0.2,0.5-1.2,1.1-2.3c1-1.7,3.8-7,6.8-13l1.2-2.4l3.4-0.1l3.4-0.1V70v13.5l-2.4,0.1C238.2,83.7,237,83.7,236.8,83.6L236.8,83.6z
		 M276.2,83.4c-2.1-0.6-2.9-1.1-4.6-2.5c-2.6-2.3-2.7-2.5-2.7-14.1V56.5h3h3v9.5v9.5l0.8,1.1c0.9,1.3,2.3,2,4.2,2
		c1.6,0,2.3-0.3,3.7-1.6l1-0.9v-9.8v-9.8h3h3v10.2c0,6.8-0.1,10.5-0.3,11.2c-0.6,1.9-2.3,3.6-4.7,4.7c-2,0.9-2.6,1.1-5,1.2
		C278.8,83.8,277.2,83.7,276.2,83.4z M312.7,83.7c-0.1-0.1-0.1-6.2,0-13.7l0.1-13.5h8.5h8.5v2.4v2.4h-4.9c-6,0-5.9-0.1-5.9,3.2
		c0,1.3,0.1,2.5,0.3,2.8c0.2,0.4,1.3,0.5,5.4,0.5l5.1,0.1l-0.1,2.5l-0.1,2.5l-4.9,0.1c-3.2,0-5,0.2-5.3,0.4
		c-0.5,0.5-0.6,4.8-0.1,5.3c0.3,0.3,1.9,0.4,5.4,0.4h5v2.4v2.4h-8.5C316.7,83.8,312.8,83.8,312.7,83.7L312.7,83.7z M332.5,70.2V56.5
		h7.2c6.2,0,7.5,0.1,9.5,0.6c3.6,0.9,5.9,2.7,7.3,5.7c1.5,3.2,0.3,7.3-2.7,9.6c-0.9,0.7-1.7,1.2-1.9,1.2c-0.4,0-1.3,1-1.3,1.4
		c0,0.2,1.3,2.1,3,4.3c1.6,2.2,3,4.1,3,4.2c0,0.1-1.5,0.2-3.4,0.2l-3.4,0l-3.8-5c-2.1-2.7-4.1-5.5-4.6-6.2c-0.9-1.4-1.7-1.9-2.5-1.6
		c-0.4,0.2-0.5,1.1-0.5,6.5v6.3h-3h-3V70.2L332.5,70.2z M348,69c1.4-0.7,2.5-2,2.5-3.2s-1.1-2.5-2.5-3.2c-1.3-0.6-2-0.7-4.8-0.7
		c-4.6,0-4.6,0.1-4.6,3.8c0,4,0,4,4.5,4C346,69.7,346.7,69.6,348,69z M6.9,83.2C6.8,83,6.8,76.9,6.8,69.6l0.1-13.2l9.1-0.1l9.1-0.1
		L25,58.5l-0.1,2.3l-4.8-0.1c-4.7-0.1-6.3,0.1-6.8,1c-0.1,0.2-0.2,1.4-0.2,2.7c0,3.3-0.2,3.2,6.3,3.2h5.4L24.7,70l-0.1,2.3l-5.4,0.2
		c-3,0.1-5.6,0.3-5.8,0.4C13.1,73,13,74.5,13,78.3v5.2h-3C7.9,83.5,7,83.4,6.9,83.2z M17.2,83.3c0-0.1,0.3-0.5,0.6-0.8
		c0.5-0.5,4-4.4,7.1-8c0.3-0.3,0.9-1,1.4-1.5c0.5-0.5,2.1-2.2,3.4-3.8s3.2-3.6,4-4.5c0.8-0.9,2.4-2.7,3.5-3.9
		c4.1-4.7,3.8-4.5,6.6-4.5h2.4v13.7v13.7l-2.8-0.1l-2.8-0.1l-0.1-1.9c-0.1-1.1-0.2-2-0.5-2.2c-0.2-0.1-2.9-0.2-6.1-0.2l-5.7,0
		l-2.2,2.2L24,83.5l-3.4,0C18.8,83.5,17.2,83.4,17.2,83.3z M40.3,74.2c0.4-0.4,0.6-6.2,0.3-6.8c-0.5-0.9-1.5-0.3-3.8,2.1
		c-4.3,4.6-4.3,5.1,0.3,5.1C39,74.5,40.1,74.4,40.3,74.2z M49.3,83.4c-0.1-0.1-0.2-6.3-0.2-13.7V56.2l3.7,0.1l3.7,0.1l1.1,2
		c0.6,1.1,1.4,2.5,1.7,3.1s1.1,2,1.8,3.2c0.6,1.1,1.4,2.5,1.8,3.1c0.4,0.6,1,1.8,1.5,2.7c2.1,4.1,2.9,4.7,4.1,3
		c0.3-0.5,0.6-1,0.6-1.1c0-0.1,0.9-1.8,2.1-3.7s2.6-4.5,3.3-5.8c0.7-1.2,1.7-3.2,2.4-4.3l1.2-2.1l3.4-0.1l3.4-0.1v13.7v13.7h-2.7H79
		v-6.3c0-5.7-0.1-6.3-0.5-6.6c-0.3-0.2-0.8-0.2-1-0.1c-0.4,0.1-5.3,8.1-5.3,8.7c0,0.1-0.6,1.1-1.3,2.2l-1.3,2.1h-2.8h-2.8l-1.3-2.3
		c-0.7-1.3-1.6-3-2.1-3.8c-3.3-6.1-3.3-6.2-4.1-6.2c-0.4,0-0.8,0.2-0.9,0.3c-0.1,0.2-0.2,2.9-0.2,6.1l0,5.7l-2.9,0.1
		C50.8,83.5,49.4,83.5,49.3,83.4z M87.1,69.9V56.2l2.9,0.1l2.9,0.1v13.5v13.5l-2.9,0.1l-2.9,0.1V69.9z M95.7,83.2
		c-0.1-0.2-0.1-6.3-0.1-13.6l0.1-13.2h3h3l0.2,10.7c0.1,8.3,0.2,10.8,0.6,11.2c0.3,0.4,1.1,0.5,4.3,0.6l3.9,0.1v2.2v2.2l-7.4,0.1
		C97.5,83.5,95.8,83.5,95.7,83.2z M114.9,83.2c-0.1-0.2-0.2-2.6-0.2-5.3l-0.1-4.9l-1.4-2.2c-0.8-1.2-2.6-4.1-4.1-6.3
		c-2.7-4.2-4.8-7.5-4.8-7.9c0-0.1,1.4-0.2,3.2-0.1l3.2,0.1l1.2,1.8c0.7,1,2.1,3.1,3.1,4.7c1.9,2.9,2.6,3.6,3.4,3.3
		c0.2-0.1,1.4-1.6,2.6-3.4s2.8-4,3.4-4.9l1.1-1.6h3.1c1.9,0,3.1,0.1,3.1,0.3c0,0.2-2.4,3.9-5.2,8.2l-5.2,7.9l-0.1,5.3l-0.1,5.3
		l-3.1,0.1C115.8,83.5,115,83.5,114.9,83.2L114.9,83.2z M181,83.1c-4.2-1.1-8.5-4.3-10.2-7.6c-3.4-6.6-0.6-13.9,6.9-17.6
		c3.8-1.9,9.4-2.5,14-1.4c6.1,1.5,9.7,4.3,11.8,9.2c0.9,2,1,5.6,0.2,7.8c-1.6,4.6-6.5,8.6-11.9,9.7C189.7,83.7,183.1,83.6,181,83.1z
		 M190.1,78.6c4.9-1.5,8.1-5.1,8.1-9c0-3-3.1-6.6-6.6-8c-1.6-0.6-2.5-0.7-4.9-0.7c-2.9,0-3.1,0-5.3,1.1c-3.4,1.7-5.8,4.8-5.9,7.6
		c-0.1,3.8,3.4,7.7,8.1,9C185.3,79.1,188.4,79.1,190.1,78.6L190.1,78.6z M244.6,70V56.5h6.8c7.9,0,9.2,0.2,11.7,2.2c2.6,2,3,3,3,6.3
		c0,2.6-0.1,2.9-1,4.2c-1,1.5-3.1,3-5.1,3.8c-0.7,0.3-2.7,0.5-4.7,0.6c-5,0.2-4.8,0-4.8,5.5v4.5h-3h-3L244.6,70L244.6,70z
		 M257.7,68.3c3.2-1.4,3.4-4.8,0.4-6.4c-1-0.5-1.7-0.6-3.9-0.5c-3.4,0.1-3.5,0.3-3.5,3.9c0,2.4,0.1,2.7,0.7,3.1
		C252.3,69.1,256.1,69,257.7,68.3z M298.4,72.8c0-12.4,0.3-11.5-3.1-11.5h-2v-2.4v-2.4h8.4h8.4v2.4v2.4h-2.2
		c-3.7,0-3.5-0.8-3.4,11.7l0.1,10.5l-3.1,0l-3.1,0L298.4,72.8L298.4,72.8z M93.6,48.6c-5.3-0.7-9-2-12.8-4.5
		c-4.8-3.1-8.6-8-9.8-12.6c-0.2-0.7-0.5-2-0.8-3c-0.8-3-0.6-5.3,1.1-10.4c2.1-6.6,8.6-12.6,16.5-15.1c5.2-1.7-0.6-1.6,95.1-1.6
		c78.5,0,88.4,0.1,90.6,0.5c11.7,2.2,20,9.6,21.7,19.5c0.5,2.9,0.5,4.7,0.1,7.4c-1.4,8.7-7.5,15.3-16.9,18.6
		c-2.3,0.8-4.2,1.2-7.3,1.6C267,49.2,97.1,49.1,93.6,48.6z M275.1,43.3c7.3-2.3,12.1-6.5,14.2-12.6c3.5-10.3-3-20.7-14.7-23.8
		c-2-0.5-5-0.6-91.6-0.6H93.3L91,7c-3.2,1-4.8,1.7-7.4,3.4c-9.1,6.3-10.6,18.7-3.1,26.7c3.2,3.4,6.9,5.4,12,6.5
		c2.5,0.5,5.3,0.6,91.3,0.5l88.6-0.1L275.1,43.3L275.1,43.3z M184,37c-6.2-1-10-6-8.1-10.4c2.1-5,9.8-7.3,16-4.9
		c2.9,1.1,5.5,3.7,5.8,5.9l0.2,1.1l-7.3,0.1l-7.3,0.1l-0.1,2.2c-0.1,3.3,1.1,5.1,3.6,5.1c1.9,0,3.2-1.3,3.8-3.7l0.2-0.8h3.3
		c2.1,0,3.3,0.1,3.3,0.3c0,0.2-0.7,1-1.6,1.9c-1.7,1.7-3.8,2.7-6.8,3.2C186.9,37.4,186.3,37.4,184,37L184,37z M190.3,26.8
		c0.8-0.8-0.1-3.5-1.6-4.4c-2.2-1.4-5-0.1-5.6,2.5c-0.5,2.1-0.2,2.3,3.5,2.3C188.8,27.1,190.1,27,190.3,26.8z M258.5,36.4
		c-3.8-1.2-6.5-4.3-6.5-7.5c0-4.1,3.4-7.2,8.9-8.2c5-0.8,10.3,1.2,12.4,4.6c2.2,3.8,0.5,8.1-4.3,10.5c-1.8,0.9-2.3,1-5.3,1.1
		C261.1,37,260,36.9,258.5,36.4z M264.9,35.5c1.6-1,1.9-2.1,1.9-6.5c0-5.1-0.6-6.5-2.9-7.3c-1.3-0.4-2.9,0.3-3.9,1.8
		c-0.6,0.9-0.7,1.4-0.7,5.3c0,4.8,0.2,5.7,1.9,6.7C262.5,36.3,263.7,36.3,264.9,35.5L264.9,35.5z M232.6,36.2
		c-3-1.2-4.4-2.5-5.2-4.9c-0.9-2.7-0.2-5.4,2-7.7c2.3-2.4,6.5-3.2,10-1.9c0.9,0.3,1.8,0.5,2,0.4c0.2-0.1,0.3-1.8,0.3-4.2v-4h3.5h3.5
		l-0.1,11.2l-0.1,11.2l-3.1,0.1c-2.2,0.1-3.3,0-3.9-0.3c-0.7-0.4-1-0.4-2.4,0.1C237.1,36.9,234.4,36.9,232.6,36.2L232.6,36.2z
		 M239.4,34.8c0.6-0.2,1.3-0.9,1.7-1.4c0.6-0.9,0.6-1.4,0.5-4.8l-0.1-3.8l-1-1c-0.8-0.8-1.2-1-2.5-1c-1.4,0-1.6,0.1-2.5,1.1l-1,1.1
		l0,3.7c0,4.2,0.4,5.3,2.2,6.1C237.9,35.3,238.1,35.3,239.4,34.8L239.4,34.8z M92.4,36.2c-0.2-0.2-0.3-4.4-0.2-11.2L92.3,14l3.5-0.1
		c1.9-0.1,3.6,0,3.9,0.1c0.4,0.2,9.6,13.3,10.3,14.5c0.4,0.7,1.5,1.4,1.7,1.2c0.1-0.1,0.1-3.7,0.1-8l0-7.8h3.6h3.6l-0.1,11.2
		l-0.1,11.2l-3.4,0.1c-1.9,0-3.6,0-3.8-0.2c-0.3-0.2-10-13.9-10.8-15.2c-0.2-0.3-0.6-0.5-0.9-0.6c-0.5-0.1-0.6,0.3-0.6,7.9l0,7.9
		L96,36.4C94.1,36.4,92.6,36.3,92.4,36.2L92.4,36.2z M124.6,36.3c-0.1-0.1-0.2-3.4-0.2-7.4v-7.1h3.6h3.6l-0.1,7.3l-0.1,7.3l-3.3,0.1
		C126.3,36.4,124.7,36.4,124.6,36.3L124.6,36.3z M136.9,36.3c-0.1-0.1-0.2-3.4-0.2-7.4v-7.1h3.4c3.2,0,3.4,0,3.4,0.6
		c0,0.8,0.7,0.8,2.9-0.3c1.7-0.8,2.2-0.9,4.3-0.9c2.9,0,5,0.9,6.7,2.8c1.3,1.4,1.4,1.9,1.5,7.7c0.1,5.4,0.5,4.9-4,4.8l-2.8-0.1
		l-0.2-5.5l-0.1-5.5l-1-0.9c-1.8-1.5-4.5-1.4-6,0.2c-0.7,0.8-0.7,1-0.9,6.2l-0.1,5.5l-3.3,0.1C138.6,36.4,137,36.4,136.9,36.3z
		 M164.4,36.1c-0.1-0.2-0.2-3.7-0.2-7.7l-0.1-7.4l-2.1-0.1c-1.9-0.1-2.1-0.2-2.1-0.8c0-0.5,0.2-0.6,2.1-0.8l2.1-0.1l0.1-1.5l0.1-1.5
		l3.1,0c1.7,0,3.3,0,3.5,0.1c0.2,0.1,0.4,0.7,0.4,1.6v1.5l2,0.1c1.8,0.1,2,0.2,2,0.7c0,0.5-0.2,0.6-2,0.7l-2,0.1v7.6
		c0,6.7-0.1,7.6-0.5,7.8C170,36.6,164.5,36.5,164.4,36.1L164.4,36.1z M201.6,36.2c-0.2-0.1-0.3-2.9-0.3-7.3v-7l3.4-0.1
		c3.1-0.1,3.4,0,3.5,0.5c0.3,0.8,0.7,0.8,2.8-0.3c1.6-0.8,2.1-1,4.2-0.9c2.8,0,4.7,0.7,6.4,2.4c1.6,1.6,2,3.2,2,8.3
		c0,3.6-0.1,4.3-0.5,4.4c-0.3,0.1-1.7,0.2-3.1,0.2c-1.5,0-2.9-0.1-3.1-0.2c-0.4-0.2-0.5-0.9-0.5-5.4c0-4.8,0-5.2-0.6-6
		c-1.3-1.6-3.3-2.1-5.2-1.2c-2,1-2.1,1.1-2.2,7.1l-0.1,5.4l-3.1,0.1C203.3,36.4,201.8,36.3,201.6,36.2L201.6,36.2z M124.6,17.7
		c-0.1-0.1-0.2-1-0.2-2v-1.8h3.6h3.6l-0.1,1.9l-0.1,1.9l-3.3,0.1C126.3,17.8,124.7,17.8,124.6,17.7L124.6,17.7z M274.6,16.4
		c0-0.2,0.1-0.4,0.3-0.5c0.2-0.1,0.3,0,0.3,0.3c0,0.3-0.1,0.5-0.3,0.5C274.8,16.6,274.6,16.5,274.6,16.4z"/>
</g>
<path fill="#9E9A9A" d="M66.4,104.5c-0.3-0.3-0.2-1.8,0.2-2.1c0.2-0.2,2.8-0.4,6.2-0.4c5.4-0.1,6-0.2,7.3-0.8
	c1.5-0.7,2.2-1.5,2.5-2.9c0.4-1.6,0.2-1.7-9-1.7c-4.7,0-8.7-0.1-9-0.2c-0.7-0.3-0.7-2.4,0-2.6c0.7-0.3,20.3-0.2,20.8,0.1
	c0.3,0.2,0.4,1,0.4,3c-0.1,4.2-0.9,5.4-4.7,7c-1.6,0.7-1.9,0.7-8.1,0.7C69.5,104.7,66.5,104.6,66.4,104.5L66.4,104.5z"/>
<path fill="#9E9A9A" d="M87.1,104.5c-0.3-0.3-0.2-1.9,0.2-2.1c0.2-0.1,1.8-0.3,3.5-0.4c2.8-0.1,3.2-0.2,3.3-0.8
	c0.2-1.2,0.6-1.3,3.7-1.3c2.7,0,3.7-0.3,3.2-0.8c-0.1-0.1-3.1-0.1-6.6-0.1c-7,0-7.3,0-7.1-1.7l0.1-0.8l8.6-0.1
	c6.7-0.1,8.6,0,8.7,0.3c0.1,0.2,0,1.2-0.1,2.3c-0.2,2.1-0.5,2.5-2.4,3c-0.6,0.2-1.9,0.3-3,0.3c-1.8,0-2,0.1-3.2,1.2l-1.3,1.2H91
	C89,104.7,87.2,104.6,87.1,104.5z"/>
<path fill="#9E9A9A" d="M121,104.3c-1.1-0.1-4.5-0.4-7.5-0.6c-6.8-0.4-7.2-0.5-7.3-1.7c-0.2-1.5-0.2-1.5,15.9-0.2
	c2.8,0.2,5.2,0.5,5.3,0.6c0.3,0.2,0.4,1.1,0.1,1.8C127.3,104.7,124.7,104.8,121,104.3L121,104.3z"/>
<path fill="#9E9A9A" d="M132.3,104.2c-0.1-0.2-0.1-0.8-0.1-1.3l0.1-0.9l5.6-0.2c5-0.1,5.7-0.2,6.8-0.8c1.8-1,2.3-1.8,2.4-4.7
	c0.1-2.4,0.2-2.5,0.9-2.7c0.4-0.1,1.1,0,1.5,0.2c0.7,0.3,0.7,0.4,0.7,2.8c0,1.4-0.2,2.9-0.3,3.4c-0.3,1.2-2.3,3-4.3,3.9
	c-1.5,0.7-2,0.7-7.3,0.7C133.5,104.7,132.4,104.6,132.3,104.2z"/>
<path fill="#9E9A9A" d="M180.7,104.2c-0.3-0.8-0.2-1.6,0.2-1.8c0.2-0.1,4.3-0.3,9.1-0.4l8.7-0.2v-2.6v-2.6l-8.8-0.2
	c-9.3-0.2-9.3-0.2-9.4-1.5c0-1.1,0.5-1.2,11.1-1.1l10.3,0.1v5.2v5.2l-10.5,0.1C182,104.7,180.8,104.6,180.7,104.2L180.7,104.2z"/>
<path fill="#9E9A9A" d="M203.9,103.5c0-0.8,0.2-1.2,0.5-1.3c0.3-0.1,3.3-0.2,6.8-0.2c3.5,0,6.9-0.1,7.5-0.3c1.8-0.5,3.1-1.8,3.5-3.6
	c0.2-0.9,0.4-2.1,0.4-2.8c0.1-1.2,0.1-1.2,1.3-1.2h1.2l0.1,2.7c0,1.5,0,3-0.1,3.4c-0.3,1.2-2.1,2.9-4,3.7l-1.9,0.8h-7.7h-7.7V103.5z
	"/>
<path fill="#9E9A9A" d="M228.5,103.9c-0.6-0.4-1.2-1.1-1.4-1.6c-0.1-0.5-0.2-2.5-0.1-4.6l0.2-3.8h1.2c1.2,0,1.2,0,1.4,1.2l0.1,1.2
	l5.7,0.2c4,0.1,5.9,0.3,6.4,0.5c0.9,0.5,1.2,0.2,0.6-0.7c-0.8-1.4,0.7-2.6,2.9-2.4c1.8,0.2,2.6,0.9,2.3,2.4c-0.1,0.6,0,1.2,0.1,1.3
	c0.5,0.3,0.3,1.6-0.2,1.8c-0.3,0.1-4.3,0.2-9,0.2c-7.3,0-8.5,0.1-8.9,0.5c-0.3,0.4-0.3,0.6,0.3,1.2l0.7,0.7h8.3c9.1,0,9.1,0,8.9,1.7
	l-0.1,0.8l-9.3,0.1l-9.3,0.1L228.5,103.9L228.5,103.9z"/>
<path fill="#9E9A9A" d="M245.9,96.6c1.3-0.7,0-2.2-1.4-1.5c-0.8,0.4-0.9,1.1-0.2,1.5C245,96.9,245.2,96.9,245.9,96.6z"/>
<path fill="#9E9A9A" d="M250,104.5c-0.2-0.2-0.3-2.1-0.1-2.3c0,0,2.5-0.1,5.5-0.2l5.4-0.2l0.1-0.9c0.1-0.5-0.1-1-0.2-1.2
	c-0.2-0.2-2.1-0.4-4.7-0.5l-4.4-0.2l-0.1-1c-0.1-0.6,0.1-1.1,0.3-1.3c0.6-0.4,11.3-0.3,11.5,0.1c0.1,0.2,0.2,1.1,0.2,2.1
	c-0.1,2.1,0.3,3,1.4,3c1.8,0,2.2,0.3,2.1,1.5l-0.1,1.1l-8.3,0.1C253.9,104.6,250.1,104.6,250,104.5L250,104.5z"/>
<path fill="#9E9A9A" d="M289,104.5c-0.5-0.5-0.2-1.6,0.5-2.1c0.6-0.4,1.3-0.4,4.9-0.3c4.2,0.2,7,0,7.9-0.5c0.9-0.6-0.2-0.7-3.8-0.7
	c-4.5,0.1-5.5-0.1-5.5-1.4c0-0.5,0.2-1,0.4-1.2c0.2-0.2,2.5-0.4,6.1-0.4c5.1-0.1,5.7-0.1,5.8-0.6c0.1-0.5-0.4-0.5-6.2-0.5h-6.3
	l-0.7,1.1c-0.8,1.2-2.7,2.3-3.8,2.2c-0.7-0.1-0.8-0.2-0.9-1.3c-0.1-1,0-1.3,0.5-1.4c1.1-0.3,2.1-1.4,2.1-2.1c0-0.4,0.2-0.8,0.4-1
	c0.5-0.5,17.7-0.5,18.2,0c0.2,0.2,0.4,1.3,0.4,2.9c0,3.6-0.7,4.8-3.8,6.5l-1.8,1h-7C292.4,104.7,289.1,104.6,289,104.5L289,104.5z"
	/>
<path fill="#9E9A9A" d="M121.2,100.7c-9.1-0.6-13.8-1-14.5-1.2c-0.5-0.2-0.7-0.5-0.7-1c0-1.4,0.6-1.5,4.6-1.1c2,0.2,4.8,0.4,6.1,0.5
	c5.1,0.3,10.2,0.8,10.4,1c0.2,0.2,0.3,1.1,0.3,1.8C127.4,101.1,127,101.1,121.2,100.7L121.2,100.7z"/>
<path fill="#9E9A9A" d="M265.6,100.7c-0.3-0.2-0.5-0.7-0.5-1.3c0-0.8,0.1-1.1,0.7-1.2c0.4-0.1,5-0.1,10.3-0.1l9.6,0.1l0.1,1.2
	c0.1,0.7-0.1,1.3-0.3,1.4C284.9,101.2,266.3,101.1,265.6,100.7L265.6,100.7z"/>
<path fill="#9E9A9A" d="M129.1,100.3c-0.1-0.1-0.2-1.6-0.2-3.3c0-3.4,0-3.4,1.9-3.4c1.5,0,1.7,0.5,1.6,3.8l-0.1,3l-1.5,0.1
	C130,100.5,129.2,100.4,129.1,100.3L129.1,100.3z"/>
<path fill="#9E9A9A" d="M151.9,100.3c-0.3-0.3-0.2-1.8,0.2-2.1c0.3-0.3,2.8-0.4,9.7-0.4c5.2,0,9.6,0.1,9.8,0.2
	c0.3,0.1,0.5,0.6,0.5,1.4v1.2h-10C156.6,100.5,152,100.4,151.9,100.3z"/>
<path fill="#9E9A9A" d="M125,97.6c-0.7-0.1-3.2-0.2-5.4-0.4s-5.1-0.4-6.4-0.5c-2.7-0.2-5.4-0.4-6.4-0.6c-0.5-0.1-0.7-0.3-0.7-1.2
	c0-0.6,0.1-1.1,0.3-1.2s3,0,6.2,0.3c3.2,0.3,7.9,0.7,10.3,0.9l4.3,0.4v1.2C127.2,97.7,127.2,97.7,125,97.6z"/>
<path fill="#9E9A9A" d="M204,96.1c-0.1-0.2-0.1-0.8-0.1-1.3L204,94h6h6v1.2v1.2l-5.9,0.1C205.2,96.6,204.2,96.5,204,96.1L204,96.1z"
	/>
</svg>
