<?xml version="1.0" encoding="UTF-8" standalone="no"?>
<svg
   xmlns:dc="http://purl.org/dc/elements/1.1/"
   xmlns:cc="http://creativecommons.org/ns#"
   xmlns:rdf="http://www.w3.org/1999/02/22-rdf-syntax-ns#"
   xmlns:svg="http://www.w3.org/2000/svg"
   xmlns="http://www.w3.org/2000/svg"
   xmlns:sodipodi="http://sodipodi.sourceforge.net/DTD/sodipodi-0.dtd"
   xmlns:inkscape="http://www.inkscape.org/namespaces/inkscape"
   viewBox="0 0 600.27198 171.83996"
   height="171.83997"
   width="600.27197"
   xml:space="preserve"
   version="1.1"
   id="svg2"
   sodipodi:docname="GBAH.svg"
   inkscape:version="0.92.4 (5da689c313, 2019-01-14)"><sodipodi:namedview
     pagecolor="#ffffff"
     bordercolor="#666666"
     borderopacity="1"
     objecttolerance="10"
     gridtolerance="10"
     guidetolerance="10"
     inkscape:pageopacity="0"
     inkscape:pageshadow="2"
     inkscape:window-width="1920"
     inkscape:window-height="1018"
     id="namedview52"
     showgrid="false"
     inkscape:zoom="1.1421655"
     inkscape:cx="281.23759"
     inkscape:cy="34.838317"
     inkscape:window-x="-8"
     inkscape:window-y="-8"
     inkscape:window-maximized="1"
     inkscape:current-layer="svg2" /><metadata
     id="metadata8"><rdf:RDF><cc:Work
         rdf:about=""><dc:format>image/svg+xml</dc:format><dc:type
           rdf:resource="http://purl.org/dc/dcmitype/StillImage" /><dc:title></dc:title></cc:Work></rdf:RDF></metadata><defs
     id="defs6"><clipPath
       id="clipPath16"
       clipPathUnits="userSpaceOnUse"><path
         id="path18"
         d="M 0,618.062 H 1949.984 V 0 H 0 Z"
         inkscape:connector-curvature="0" /></clipPath></defs><g
     id="g919"><g
       aria-label="L"
       style="font-style:normal;font-variant:normal;font-weight:normal;font-stretch:normal;font-size:185.35290527px;line-height:1.25;font-family:'Game Logos';-inkscape-font-specification:'Game Logos';letter-spacing:0px;word-spacing:0px;fill:#0000ff;fill-opacity:1;stroke:none;stroke-width:4.63382196"
       id="text909"><path
         d="m 69.818974,18.032732 q 6.787826,0 15.566748,3.34866 0.271513,-2.172104 1.629078,-2.172104 h 21.72104 q 1.53858,0 2.26261,10.045983 h 0.54303 q 2.80563,-10.045983 3.89169,-10.045983 h 105.34706 q 9.86497,0 16.6528,7.783374 7.51186,-7.783374 19.00591,-7.783374 h 60.72842 l 1.08605,0.543026 -3.34866,5.520765 v 0.633531 h 78.55777 q 5.06825,6.697322 7.24035,12.218087 0.81454,-0.0905 7.24035,-12.218087 h 52.31151 q 12.85162,9.955478 13.39465,9.955478 v -8.869426 q 0.181,-1.086052 1.17655,-1.086052 h 97.47319 q 1.08605,0.181009 1.08605,1.086052 v 45.704696 q 0,1.086052 -1.08605,1.086052 h -89.14679 q -2.44362,0 -14.48069,-10.045983 h -0.54303 v 8.959931 q 0,1.086052 -1.17656,1.086052 h -72.40347 q -2.80564,-1.810087 -5.52077,-8.3264 -7.42136,8.3264 -27.87534,8.3264 h -65.16313 q -5.06824,2.624626 -5.06824,6.697322 h -23.89315 q -1.17656,0 -1.17656,-1.086052 l 0.54303,-2.805635 q -6.33531,4.434713 -12.76111,4.434713 h -2.26261 q -9.05044,0 -17.28633,-7.783374 -2.44362,3.982191 -11.67507,6.697322 -47.51478,0.543026 -77.38121,0.543026 H 94.255148 q -1.538574,0 -2.172105,-10.589009 H 90.906487 Q 86.924296,80.480732 85.385722,80.480732 H 62.578626 q -1.267061,0 -2.262609,0.543026 -18.553391,0 -27.332313,-18.915409 -1.086052,-3.891687 -1.086052,-6.697322 v -5.068243 q 0,-21.721044 28.418365,-31.133496 4.434713,-1.176556 9.502957,-1.176556 z M 39.681026,52.605393 q 0,15.385739 16.743304,19.548939 h 5.520765 q 5.158748,0 10.045983,-2.805635 0,0.543026 0.543026,0.543026 l -0.543026,1.086052 v 1.176557 h 8.416904 q 0.905044,0 6.606818,-13.394644 h 10.045983 q 1.26706,0 3.348657,13.394644 h 14.4807 q 1.44807,0 8.3264,-23.983652 h 1.17656 q 3.71067,22.535582 5.52076,23.983652 h 4.52522 q 1.44807,-0.543026 11.67506,-26.246261 h 1.08605 q 1.08605,18.281878 1.08605,25.61273 l 1.17656,0.633531 h 7.78337 q 0,-10.679513 -1.71958,-45.16167 l -2.71513,0.543026 h -1.17656 l -3.34866,-0.543026 q -4.61572,0 -6.06379,5.520765 l -7.24035,17.829357 h -1.17655 l -4.43472,-23.350122 -2.80563,0.543026 h -4.97774 l -1.08605,-0.543026 -11.13204,35.115687 h -1.17655 l -5.52077,-35.115687 -1.17655,0.543026 H 94.255148 L 91.540017,26.992662 Q 76.787809,59.393219 75.339739,64.280454 H 74.253687 Q 76.425791,50.161775 76.425791,49.799758 H 60.316017 q -1.086052,0 -2.262609,8.416904 h 6.154296 q 1.086052,0.181009 1.086052,1.086052 -0.724034,3.891687 -2.172104,3.891687 h -5.61127 q -6.335304,0 -8.3264,-9.502956 V 49.799758 Q 53.075669,35.319062 71.991078,35.319062 l 7.240348,1.176557 v -0.633531 q 0,-1.991096 1.176556,-7.783374 Q 73.982174,25.90661 68.642417,25.90661 39.681026,30.250819 39.681026,52.605393 Z m 125.891544,-25.612731 -7.24034,44.528139 1.17655,0.633531 h 24.43618 l 1.71958,-9.502957 h -15.02372 l -1.17656,-0.543026 q 0.72404,-7.783374 2.26261,-7.783374 h 12.21809 q 1.35756,0 2.26261,-9.502956 h -12.85162 q -1.08605,0 -1.08605,-1.086053 0,-1.448069 1.08605,-6.697321 h 16.20028 q 1.08605,-7.602366 1.08605,-10.045983 h -0.54303 q -2.98664,0.543026 -4.97774,0.543026 h -15.02372 q -1.26706,0 -2.26261,-0.543026 -1.08605,0.543026 -1.71958,0.543026 0,-0.543026 -0.54303,-0.543026 z m 69.14533,26.698783 q 0,13.304139 12.76111,18.462887 2.1721,0.543026 4.43471,0.543026 h 1.71959 q 11.13203,0 17.82935,-16.200278 1.08605,-2.172105 1.08605,-6.154296 v -4.434713 q -2.62462,-18.372383 -16.7433,-18.372383 0,-0.543026 -0.54303,-0.543026 -13.84716,0 -20.54448,19.458435 z M 268.114,26.992662 q 0,1.357565 10.58901,23.983652 -3.34866,19.367931 -3.34866,21.178018 h 7.78337 q 1.9911,0 3.34866,-15.657252 0,-2.986644 16.74331,-28.418366 v -1.086052 l -1.17656,0.543026 q -0.54302,0 -0.54302,-0.543026 l -1.08606,0.543026 h -6.15429 l -1.08605,-0.543026 q -8.1454,13.93767 -8.95994,13.93767 h -1.08605 q -0.27151,-2.262609 -4.97774,-13.93767 l -1.17655,0.543026 h -6.06379 z m -62.99103,0.543026 q -5.52076,35.3872 -7.24034,43.985113 l 1.17655,0.633531 h 3.34866 q 1.62908,0 1.62908,-0.633531 l 2.80564,0.633531 h 6.69732 q 14.48069,0 18.37238,-9.502957 1.08605,-3.439165 1.08605,-4.434713 0,-4.344209 -4.43471,-8.95993 4.97774,-6.425809 4.97774,-11.132035 -3.16765,-10.589009 -11.67506,-10.589009 z m 117.56515,6.154296 q -0.0905,0.724035 -18.37238,31.133496 v 0.63353 h 21.72104 v -7.240348 h -8.3264 v -0.63353 q 7.60237,-15.023722 8.86943,-15.023722 12.67061,22.716591 13.39464,22.8976 h 21.72105 q 24.52668,0 24.52668,-15.657252 l -0.54303,-3.348661 h 0.54303 l 12.21808,19.005913 h 5.06825 q 15.38574,-24.9792 18.37238,-31.767026 l -1.17656,0.543026 h -7.78337 L 401.2459,53.691445 389.02781,34.23301 q -0.63353,0 -0.63353,-0.543026 l -1.08605,0.543026 h -6.69732 l -1.08606,-0.543026 v 1.086052 q 1.08606,1.810087 1.08606,2.805635 -6.1543,-3.348661 -9.41246,-3.348661 h -24.52667 v 25.069704 h -1.17656 L 331.01452,34.23301 h -7.24035 z m 111.41086,0.543026 h -6.1543 q -0.63353,0.181009 -18.91541,31.224 h 22.26407 v -7.240348 h -8.3264 q 0,-2.624626 8.3264,-15.657252 h 0.63353 l 12.21809,22.8976 h 15.56675 V 47.627653 q 0.181,-1.176556 1.17655,-1.176556 1.71959,2.443617 23.35012,19.005913 h 5.61127 v -31.224 h -8.4169 v 17.829356 h -0.54303 Q 458.53515,34.23301 456.36305,34.23301 h -4.97774 v 24.526678 h -1.08606 q -0.72403,-2.443617 -15.11422,-25.069704 z m 97.47318,-0.543026 V 65.45701 h 32.94358 l 1.08605,-0.63353 q 0,-0.543026 -0.54302,-0.543026 l 0.54302,-2.715131 q 0,-0.452522 -0.54302,-3.348661 h -23.44063 q -1.08605,0 -1.08605,-1.176556 v -3.348661 q 0.18101,-1.086052 1.08605,-1.086052 h 12.30859 l 1.08605,-0.543027 -0.54302,-1.086052 v -5.611269 h -12.85162 q -1.08605,0 -1.08605,-1.086052 v -2.262609 q 0.18101,-1.086052 1.08605,-1.086052 h 23.44063 V 34.23301 h -32.31005 z m -39.00738,7.783374 V 56.49708 q 0,8.95993 8.95994,8.95993 h 16.10977 q 10.58901,0 10.58901,-7.240348 v -5.068243 h -8.86943 v 3.348661 q 0,1.086052 -1.08605,1.086052 h -15.65725 q -1.08605,0 -1.08605,-1.086052 V 42.016384 q 0.181,-1.086052 1.08605,-1.086052 h 15.65725 q 1.08605,0.181008 1.08605,1.086052 v 3.348661 h 8.86943 v -4.434713 q -0.54303,-6.697322 -5.52077,-6.697322 h -24.52668 q -4.88723,0 -5.61127,7.240348 z m -237.84542,-5.61127 h 1.08605 q 7.87388,1.44807 7.87388,11.222539 v 0.543026 q 0,13.394644 -12.30859,16.652801 -5.79228,0 -7.78338,-10.589009 v -1.086052 q 2.71513,-16.743305 11.13204,-16.743305 z m -40.63646,1.176557 h 6.69733 q 2.71513,1.629078 2.71513,3.891687 -1.44807,4.434713 -5.52077,4.434713 h -5.06824 q -1.08605,0 -1.08605,-1.629079 0.54302,-6.697321 2.2626,-6.697321 z m 142.63486,3.891687 h 9.95548 q 10.04598,0 10.04598,7.783374 v 1.086052 q 0,8.416904 -13.93767,8.416904 h -6.06379 q -1.17656,0 -1.17656,-1.176556 V 42.016384 q 0.18101,-1.086052 1.17656,-1.086052 z m -261.829082,1.086052 1.629078,7.240348 -1.086052,0.543026 h -3.348661 l -1.176556,-0.543026 q 3.167652,-7.240348 3.982191,-7.240348 z M 211.27727,54.324975 h 7.24035 q 3.07715,0 4.43471,2.715131 v 1.719582 q 0,4.434713 -4.97774,4.434713 h -8.95993 v -0.543026 q 0.45252,-8.3264 2.26261,-8.3264 z m 75.75214,13.304139 v 1.719583 q 0,0.724035 2.80563,2.805635 h 2.80564 q 0.72403,0 2.71513,-2.805635 v -1.719583 q 0,-3.891687 -3.89169,-3.891687 h -0.54302 q -3.89169,0 -3.89169,3.891687 z m 2.80563,-3.34866 h 2.80564 q 0.81454,0 2.1721,2.262608 v 2.805635 q -0.90504,2.172104 -3.89168,2.172104 -2.17211,0 -3.34866,-2.172104 v -2.805635 q 0,-0.905043 2.2626,-2.262608 z m -0.54302,1.176556 v 4.434713 h 1.08605 q 0,-1.719583 1.08605,-1.719583 0.63353,1.086053 0.63353,1.719583 h 0.54303 l 0.54303,-3.891687 -1.08606,-0.543026 z m 2.1721,0.543026 h 1.17656 v 0.543026 q 0,1.086052 -1.17656,1.086052 -1.08605,0 -1.08605,-1.086052 z"
         style="fill:#0000ff;stroke-width:4.63382196"
         id="path921"
         inkscape:connector-curvature="0" /></g><g
       aria-label="HACKS"
       style="font-style:normal;font-variant:normal;font-weight:normal;font-stretch:normal;font-size:157.88580322px;line-height:1.25;font-family:'Arabic Typesetting';-inkscape-font-specification:'Arabic Typesetting';letter-spacing:0px;word-spacing:0px;fill:#ff0000;fill-opacity:1;stroke:none;stroke-width:3.94714546"
       id="text913"><path
         d="M 187.37265,120.83693 V 97.709127 q 0,-1.850224 -0.30837,-3.083707 -0.23128,-1.233483 -1.23348,-2.00441 -0.92511,-0.848019 -2.77534,-1.233483 -1.85022,-0.385463 -5.08811,-0.539648 l 0.15418,-2.775337 q 1.23348,0 2.92952,0.07709 1.77313,0 3.70045,0 2.00441,0 4.08591,0.07709 2.08151,0 3.93173,0 1.46476,0 3.23789,0 1.77313,-0.07709 3.46917,-0.07709 1.77313,0 3.31499,0 1.54185,-0.07709 2.62115,-0.07709 l 0.15418,2.621151 q -3.00661,0.231278 -4.85683,0.770927 -1.77314,0.462556 -2.77534,1.541854 -1.00221,1.002204 -1.38767,2.852429 -0.30837,1.850224 -0.30837,4.702657 v 51.88337 q 0,1.85022 0.30837,3.0837 0.30837,1.23349 1.23348,2.08151 1.00221,0.77092 2.92953,1.15639 1.92731,0.38546 5.16521,0.53965 l -0.15419,2.77533 q -1.23348,0 -3.00661,0 -1.77314,-0.0771 -3.77755,-0.0771 -2.00441,0 -4.08591,0 -2.0815,-0.0771 -3.93172,-0.0771 -1.54186,0 -3.31499,0.0771 -1.69604,0 -3.39208,0 -1.69604,0 -3.23789,0.0771 -1.46476,0 -2.54406,0 l -0.23128,-2.62115 q 3.00662,-0.23128 4.77975,-0.69383 1.77313,-0.53965 2.77534,-1.54186 1.0022,-1.07929 1.31057,-2.85243 0.30837,-1.85022 0.30837,-4.77974 v -24.2071 h -41.24458 v 27.05953 q 0,1.85022 0.23128,3.0837 0.30837,1.23349 1.23348,2.08151 1.00221,0.77092 2.85243,1.15639 1.85022,0.38546 5.08812,0.53965 l -0.15419,2.77533 q -1.23348,0 -3.00661,0 -1.69604,-0.0771 -3.70045,-0.0771 -1.92732,-0.0771 -4.00882,-0.0771 -2.0815,-0.0771 -3.93173,-0.0771 -1.46476,0 -3.23789,0.0771 -1.77313,0 -3.54626,0 -1.69604,0 -3.2379,0.0771 -1.54185,0 -2.62115,0 l -0.15418,-2.62115 q 3.00661,-0.23128 4.77974,-0.69384 1.85023,-0.53964 2.85243,-1.54185 1.00221,-1.0793 1.31058,-2.85243 0.38546,-1.85022 0.38546,-4.77974 V 97.709127 q 0,-1.850224 -0.30837,-3.083707 -0.30837,-1.233483 -1.31057,-2.00441 -0.92512,-0.848019 -2.85243,-1.233483 -1.92732,-0.385463 -5.16521,-0.539648 l 0.15418,-2.775337 h 3.39208 q 1.92732,0 3.85463,0.07709 2.00441,0 3.85464,0 h 6.78415 q 1.77314,0 3.46917,0 1.77314,-0.07709 3.31499,-0.07709 h 2.62115 l 0.23128,2.621151 q -3.00662,0.231278 -4.77975,0.770927 -1.77313,0.462556 -2.77533,1.541854 -1.00221,1.002204 -1.31058,2.852429 -0.30837,1.850224 -0.30837,4.702657 v 20.27537 z"
         style="fill:#ff0000;stroke-width:3.94714546"
         id="path924"
         inkscape:connector-curvature="0" /><path
         d="m 258.22082,134.71361 h -25.67186 l -5.93614,15.18726 q -1.54185,4.39428 -1.54185,5.55067 0,2.00441 1.85022,2.77534 1.92732,0.77093 6.78416,1.0022 l -0.23128,2.77534 q -2.85243,0 -6.39869,-0.0771 -3.54627,-0.0771 -7.01544,-0.0771 -2.85242,0 -5.93613,0.0771 -3.00662,0.0771 -5.85905,0.0771 l -0.15418,-2.62115 q 3.00661,-0.23128 4.93393,-0.69384 1.92732,-0.53964 3.31499,-1.85022 1.46476,-1.38767 2.69824,-3.70045 1.31058,-2.38987 3.00661,-6.3216 l 22.1256,-52.19174 q 0.92511,-2.312781 1.54186,-4.008819 0.69383,-1.773132 1.46476,-3.777542 l 4.85684,-0.616741 q 0.84802,3.700448 1.77313,6.784156 1.0022,3.083707 1.85022,5.627765 l 17.34585,50.264421 q 1.15639,3.39208 2.08151,5.3194 0.92511,1.92732 2.15859,3.00661 1.23348,1.00221 3.08371,1.38767 1.92732,0.38547 4.93393,0.61674 l -0.23128,2.77534 q -3.23789,0 -7.16962,-0.0771 -3.85463,-0.0771 -7.78636,-0.0771 -3.23789,0 -6.55288,0.0771 -3.31498,0.0771 -6.55287,0.0771 l -0.23128,-2.62115 q 4.31719,-0.30837 6.16741,-1.00221 1.85023,-0.77092 1.85023,-2.77533 0,-0.84802 -0.30837,-1.92732 -0.30837,-1.15639 -0.77093,-2.54406 z m -23.89873,-4.47137 h 22.43397 L 246.42564,99.713536 Z"
         style="fill:#ff0000;stroke-width:3.94714546"
         id="path926"
         inkscape:connector-curvature="0" /><path
         d="m 300.85307,123.68936 q 0,7.4009 1.85023,13.95377 1.85022,6.47579 5.55067,11.33263 3.77754,4.77974 9.40531,7.63217 5.62776,2.77534 13.25994,2.77534 4.163,0 7.94054,-1.15639 3.85464,-1.15639 6.78416,-3.77754 2.77534,-2.46697 4.77975,-6.01323 2.0815,-3.62336 4.08591,-8.4802 l 3.0837,0.77093 q -1.31057,5.08812 -2.0815,9.55949 -0.77092,4.47138 -1.31057,9.55949 -6.09032,1.77314 -12.10355,2.77534 -5.93614,1.00221 -11.94937,1.00221 -8.71147,0 -16.11237,-2.69825 -7.3238,-2.69824 -12.72029,-7.63217 -5.31939,-4.93393 -8.32601,-11.87228 -3.00661,-7.01543 -3.00661,-15.57272 0,-9.86786 3.62335,-17.19166 3.62336,-7.4009 9.79077,-12.334831 6.24451,-4.933932 14.41633,-7.323805 8.17183,-2.466965 17.26876,-2.466965 4.70266,0 10.02205,0.693834 5.39649,0.693834 10.02205,1.927317 -0.46256,4.933931 -0.61674,9.405306 -0.0771,4.394284 -0.0771,9.328214 l -3.23789,0.30837 q -0.30837,-4.54847 -1.85022,-7.86345 -1.46476,-3.39208 -4.00882,-5.550675 -2.46697,-2.235688 -5.78195,-3.237892 -3.31499,-1.079298 -7.24671,-1.079298 -7.70927,0 -13.56831,2.466966 -5.85905,2.389873 -9.86787,6.784155 -3.93172,4.317194 -6.01323,10.484604 -2.00441,6.09032 -2.00441,13.49122 z"
         style="fill:#ff0000;stroke-width:3.94714546"
         id="path928"
         inkscape:connector-curvature="0" /><path
         d="m 395.83125,90.693693 q -3.0837,0.231278 -5.01102,0.770927 -1.85022,0.462556 -2.92952,1.541854 -1.0793,1.002204 -1.46476,2.852429 -0.38547,1.773131 -0.38547,4.625557 v 21.97142 q 2.23569,-0.38547 4.00882,-1.31058 1.85023,-0.92511 4.08592,-2.92952 2.38987,-2.23569 5.08811,-4.93393 2.69825,-2.69825 5.3194,-5.47358 2.69824,-2.85243 5.16521,-5.62777 2.46696,-2.775334 4.39428,-5.165207 1.0793,-1.387668 1.54185,-2.466966 0.53965,-1.079297 0,-1.850224 -0.53965,-0.84802 -2.23568,-1.310576 -1.61895,-0.462556 -4.77975,-0.616741 l 0.15418,-2.698244 q 1.0793,0 2.77534,0.07709 1.69604,0 3.54626,0 1.92732,0 3.85464,0.07709 2.00441,0 3.70045,0 1.46476,0 3.39207,0 2.00441,-0.07709 3.93173,-0.07709 2.00441,0 3.70045,0 1.69604,-0.07709 2.77534,-0.07709 l 0.23127,2.621151 q -2.77533,0.231278 -5.08811,0.770927 -2.23569,0.539649 -4.39429,1.541854 -2.0815,1.002204 -4.163,2.544058 -2.0815,1.464761 -4.39428,3.623356 -1.69604,1.541852 -4.16301,3.931722 -2.38987,2.38988 -5.2423,5.3194 -2.77534,2.85243 -5.85904,6.01323 -3.08371,3.0837 -6.01323,6.09032 3.23789,4.00882 6.86125,8.48019 3.70045,4.47138 7.24671,8.71148 3.62335,4.163 6.70706,7.78636 3.1608,3.54626 5.2423,5.70485 2.31278,2.38988 3.85464,3.85464 1.61894,1.46476 3.0837,2.38987 1.46477,0.84802 3.1608,1.23348 1.69604,0.38547 4.31719,0.61675 l -0.15418,2.77533 q -2.92952,0 -6.47579,-0.0771 -3.46917,-0.0771 -6.93834,-0.0771 -1.07929,0 -2.31278,0.0771 -1.15639,0 -2.23569,0.0771 -0.61674,-1.15639 -2.15859,-3.23789 -1.54185,-2.0815 -3.70045,-4.77975 -2.15859,-2.69824 -4.77974,-5.78195 -2.54406,-3.1608 -5.3194,-6.39869 -2.69824,-3.31498 -5.47358,-6.47578 -2.69824,-3.2379 -5.08812,-6.09033 -1.54185,-1.77313 -2.85243,-2.46696 -1.23348,-0.77093 -2.54405,-0.77093 -0.84802,0 -1.77314,0.23128 v 26.13442 q 0,1.85022 0.30838,3.0837 0.30837,1.23349 1.31057,2.08151 1.0793,0.77092 3.00662,1.15639 2.00441,0.38546 5.31939,0.53965 l -0.15419,2.77533 q -1.23348,0 -3.0837,0 -1.77313,-0.0771 -3.85464,-0.0771 -2.0815,0 -4.24009,0 -2.08151,-0.0771 -3.93173,-0.0771 -1.54185,0 -3.39208,0.0771 -1.77313,0 -3.62335,0 -1.85023,0 -3.46917,0.0771 -1.61895,0 -2.69825,0 l -0.23128,-2.62115 q 3.2379,-0.23128 5.16521,-0.69383 1.92732,-0.53965 2.92953,-1.54186 1.07929,-1.07929 1.38766,-2.85243 0.38547,-1.85022 0.38547,-4.77974 V 97.709127 q 0,-1.850224 -0.30837,-3.083707 -0.30837,-1.233483 -1.38767,-2.00441 -1.00221,-0.848019 -3.00662,-1.233483 -2.00441,-0.385463 -5.31939,-0.539648 l 0.15418,-2.775337 q 1.23349,0 3.08371,0.07709 1.85023,0 3.93173,0 2.0815,0 4.2401,0.07709 2.15859,0 4.00881,0 1.46477,0 3.2379,0 1.85022,-0.07709 3.62335,-0.07709 1.85023,0 3.46917,0 1.61895,-0.07709 2.69825,-0.07709 z"
         style="fill:#ff0000;stroke-width:3.94714546"
         id="path930"
         inkscape:connector-curvature="0" /><path
         d="m 445.86442,140.57266 q 1.54185,4.00881 3.23789,7.40089 1.77313,3.39208 4.16301,5.93614 2.46696,2.46696 5.70485,3.93173 3.2379,1.38766 7.78636,1.38766 3.00662,0 5.55068,-1.0022 2.54406,-1.00221 4.47137,-2.85243 1.92732,-1.85022 3.00662,-4.31719 1.07929,-2.54406 1.07929,-5.55067 0,-3.77754 -1.38766,-6.47579 -1.38767,-2.69824 -3.70045,-4.62556 -2.31278,-2.00441 -5.2423,-3.46917 -2.92953,-1.46476 -6.01323,-2.85243 -3.46917,-1.54185 -7.01544,-3.39208 -3.46917,-1.85022 -6.2445,-4.39428 -2.77534,-2.54406 -4.54847,-5.85904 -1.77313,-3.31499 -1.77313,-7.86346 0,-4.85683 1.92731,-8.557282 2.00441,-3.777542 5.3194,-6.3216 3.39208,-2.544058 7.78636,-3.854634 4.47137,-1.310575 9.4824,-1.310575 4.85684,0 8.94275,0.770926 4.163,0.693835 8.86566,1.927317 -0.23128,2.466966 -0.38547,4.625561 -0.15418,2.081502 -0.23128,4.163005 0,2.004412 -0.0771,4.163002 0,2.0815 0,4.54847 l -3.23789,0.30837 q -0.69383,-8.171823 -5.01102,-12.180642 -4.2401,-4.085912 -11.48681,-4.085912 -2.77534,0 -5.08812,0.848019 -2.31278,0.84802 -4.00882,2.466966 -1.69604,1.618946 -2.69824,3.854634 -0.92511,2.235685 -0.92511,5.011025 0,3.70045 1.15639,6.24451 1.23348,2.46696 3.31498,4.31719 2.0815,1.85022 4.77975,3.23789 2.77533,1.31057 5.78195,2.62115 3.70045,1.61895 7.40089,3.54626 3.77755,1.92732 6.70707,4.54847 3.00661,2.62115 4.85684,6.09032 1.85022,3.46917 1.85022,8.17183 0,5.2423 -2.15859,9.32821 -2.1586,4.00882 -5.70486,6.86125 -3.54627,2.77533 -8.17183,4.2401 -4.62556,1.46476 -9.4824,1.46476 -4.24009,0 -8.78856,-0.84802 -4.54847,-0.84802 -9.63659,-2.31278 -0.53964,-5.08812 -1.31057,-9.5595 -0.77093,-4.47137 -2.0815,-9.55949 z"
         style="fill:#ff0000;stroke-width:3.94714546"
         id="path932"
         inkscape:connector-curvature="0" /></g></g></svg>