<?xml version="1.0" encoding="UTF-8" standalone="no"?>
<svg
   xmlns:dc="http://purl.org/dc/elements/1.1/"
   xmlns:cc="http://creativecommons.org/ns#"
   xmlns:rdf="http://www.w3.org/1999/02/22-rdf-syntax-ns#"
   xmlns:svg="http://www.w3.org/2000/svg"
   xmlns="http://www.w3.org/2000/svg"
   xmlns:sodipodi="http://sodipodi.sourceforge.net/DTD/sodipodi-0.dtd"
   xmlns:inkscape="http://www.inkscape.org/namespaces/inkscape"
   xml:space="preserve"
   enable-background="new 0 0 566.929 96.834"
   viewBox="0 0 566.92937 96.837632"
   height="96.837631"
   width="566.92938"
   y="0px"
   x="0px"
   id="Ebene_1"
   version="1.1"
   sodipodi:docname="gbch.svg"
   inkscape:version="0.92.4 (5da689c313, 2019-01-14)"><sodipodi:namedview
     pagecolor="#ffffff"
     bordercolor="#666666"
     borderopacity="1"
     objecttolerance="10"
     gridtolerance="10"
     guidetolerance="10"
     inkscape:pageopacity="0"
     inkscape:pageshadow="2"
     inkscape:window-width="1920"
     inkscape:window-height="1018"
     id="namedview15"
     showgrid="false"
     inkscape:zoom="0.67027748"
     inkscape:cx="283.46469"
     inkscape:cy="48.418816"
     inkscape:window-x="-8"
     inkscape:window-y="-8"
     inkscape:window-maximized="1"
     inkscape:current-layer="Ebene_1" /><metadata
     id="metadata27"><rdf:RDF><cc:Work
         rdf:about=""><dc:format>image/svg+xml</dc:format><dc:type
           rdf:resource="http://purl.org/dc/dcmitype/StillImage" /><dc:title></dc:title></cc:Work></rdf:RDF></metadata><defs
     id="defs25" /><text
     xml:space="preserve"
     style="font-style:normal;font-variant:normal;font-weight:normal;font-stretch:normal;font-size:40px;line-height:1.25;font-family:'Game Logos';-inkscape-font-specification:'Game Logos';letter-spacing:0px;word-spacing:0px;fill:#000000;fill-opacity:1;stroke:none"
     x="304.35156"
     y="-188.11897"
     id="text32"><tspan
       sodipodi:role="line"
       id="tspan30"
       x="304.35156"
       y="-152.14851" /></text>
<g
     id="g66"><g
       aria-label="K"
       transform="scale(1.0452663,0.95669401)"
       style="font-style:normal;font-variant:normal;font-weight:normal;font-stretch:normal;font-size:87.67604065px;line-height:1.25;font-family:'Game Logos';-inkscape-font-specification:'Game Logos';letter-spacing:0px;word-spacing:0px;fill:#0000ff;fill-opacity:1;stroke:none;stroke-width:2.19190097"
       id="text36"><path
         d="m 36.01882,6.0493322 q 5.522563,0.299674 5.736616,1.9264755 -0.642159,4.0670043 -1.155886,4.0670043 -2.183339,-0.72778 -3.596087,-0.72778 H 36.01882 Q 26.001147,12.68497 26.001147,19.705903 v 0.214053 q 0,3.981383 4.281057,5.008836 h 1.926475 q 1.45556,0 1.45556,-1.883665 l -0.513727,-0.256863 h -2.354581 q -0.513727,0 -0.513727,-0.470916 0,-3.167982 0.984643,-4.323868 l 1.198696,0.256864 h 5.736616 l 1.198695,-0.256864 0.470917,0.72778 -0.984643,5.522563 h 0.513726 q 0,-0.642158 5.479753,-13.185654 1.883665,-4.2810572 2.140528,-4.2810572 h 5.2657 q 1.027454,0 3.339224,16.9529842 h 0.513727 q 1.883665,-6.892501 5.479753,-16.9529842 h 4.323867 q 0.856211,0 1.883665,8.3480602 0.599348,2.868308 0.984643,2.868308 Q 73.007149,7.7617549 73.82055,6.7771118 h 5.2657 q 0.470916,0.085621 0.470916,0.4709163 v 1.6696121 l 0.214053,1.4555588 q 0,0.214053 -0.214053,0.214053 0.72778,11.30199 0.72778,15.326183 v 2.611445 q 0.556537,0 1.883665,-10.745453 Q 83.66698,8.4895345 84.35195,6.7771118 h 12.415064 q 0.470916,0.085621 0.470916,0.4709163 -0.513727,4.7947839 -1.412749,4.7947839 h -7.406228 q -0.513726,2.26896 -0.513726,3.339224 l 0.513726,0.256863 h 5.950669 l 0.470916,0.214053 q -0.385295,4.666352 -1.198695,5.008836 h -6.678449 v 0.256864 q 0,0.727779 -0.470916,3.125171 l 0.470916,0.214053 h 7.406228 q 0,0.256863 0.256864,0.72778 -0.813401,4.53792 -1.45556,4.53792 H 81.483642 q -0.556538,0 -0.984643,-0.214053 -0.428106,0.214053 -0.941833,0.214053 h -3.596088 q -0.342484,0 -0.727779,-0.72778 v -2.611445 q 0,-5.265699 -0.470916,-8.390871 0.256863,-0.428105 0.256863,-0.684969 L 74.54833,17.051648 q -4.709163,11.772906 -5.736616,12.671928 h -2.654255 q -0.556538,-0.08562 -2.868308,-11.473232 h -0.214053 q -0.72778,2.739876 -3.596088,11.473232 h -7.663091 q -0.72778,-0.385296 -1.926476,-6.678449 h -4.53792 q -0.299674,0 -3.339224,6.464396 l -0.470916,0.214053 h -4.067004 q -0.470916,0 -0.470916,-1.198696 -2.097718,1.455559 -5.736616,1.455559 -7.149365,0 -10.060483,-7.192175 -0.214053,-1.284317 -0.214053,-2.140529 v -2.397391 q 0,-5.2657 6.207532,-9.5467567 4.580731,-2.6542551 8.818977,-2.6542551 z m 76.28843,0.7277796 q 4.10981,0 6.20753,5.0088362 v 1.669612 q 0,1.412749 -2.39739,4.53792 2.18334,2.311771 2.18334,4.580731 0,4.53792 -5.99348,6.935312 -0.94183,0.214053 -1.92648,0.214053 h -9.54675 q -0.47092,0 -0.47092,-0.72778 2.39739,-16.139584 3.81014,-22.2186842 z m 16.26801,0 h 0.72778 q 6.16473,0 8.34807,6.9353122 0.47091,0.8134 0.72777,3.81014 0,8.776166 -8.60492,12.457875 -0.51373,0 -2.65425,0.214053 -5.00884,0 -7.87715,-6.678449 l -0.72778,-3.81014 q 0.64216,-9.8892409 8.13401,-12.4578749 0.89902,-0.4709163 1.92647,-0.4709163 z m 7.40623,0 h 4.79479 q 0.29967,0 2.8683,6.9353122 4.19544,-6.5500171 4.75198,-6.9353122 h 4.79478 q 0.47092,0.085621 0.47092,0.4709163 v 0.2568634 q -8.34806,12.5006855 -8.34806,13.8706235 -0.98465,8.348061 -1.66962,8.348061 h -4.067 q -0.47092,0 -0.47092,-0.470917 0.68497,-5.222889 1.66962,-10.274536 l -5.2657,-11.7300949 q 0.0856,-0.4709163 0.47091,-0.4709163 z M 123.78048,17.99348 v 2.868308 q 0,2.868308 2.86831,4.323868 h 0.94183 q 4.36668,0 5.77943,-8.134008 -0.72778,-5.479753 -4.32387,-5.479753 -3.21079,0 -5.2657,6.421585 z m -15.54023,-5.950668 q -0.47092,2.525823 -0.47092,3.339224 v 0.470916 h 2.39739 q 2.86831,-0.214053 2.86831,-2.397392 -0.21405,-0.813401 -1.45556,-1.412748 z m -60.962251,5.479752 v 0.256863 q 0.08562,0.470917 0.470916,0.470917 h 0.470916 l 1.198696,-0.256864 q -0.470916,-0.856211 -0.470916,-1.883665 v -0.984643 h -0.256864 q -0.256863,0 -1.412748,2.397392 z m 59.549501,3.339224 q -0.51373,2.611445 -0.51373,3.852951 l 0.51373,0.214053 h 3.08236 q 2.73987,0 3.12517,-2.354581 -0.72778,-1.712423 -2.14053,-1.712423 z m 40.15631,6.721259 h 4.79478 q 0.47092,0 0.47092,1.412749 l 1.41275,-1.412749 h 0.72778 q 0.47091,0 0.47091,0.72778 -0.55653,3.553277 -1.19869,3.553277 h -0.21406 q -0.59934,-0.470916 -0.72778,-0.470916 l -0.72778,0.470916 h -0.21405 q -0.51372,0 -0.51372,-0.684969 h -0.47092 q 0,0.684969 -0.47092,0.684969 h -0.25686 q -0.47092,0 -0.47092,-0.470916 0.47092,-2.012097 0.47092,-2.611445 l -0.47092,-0.256863 q -0.64216,0 -1.41275,3.125171 l -0.47091,0.214053 h -0.25687 q -0.47091,0 -0.47091,-0.470916 v -0.214053 q 0,-0.214053 0.47091,-1.926476 v -0.470916 q -0.94183,0 -0.94183,-0.72778 0.0428,-0.470916 0.47092,-0.470916 z M 46.079303,31.393188 q 11.601663,0.727779 14.34154,5.993479 1.669612,1.712423 1.669612,5.2657 0,5.30851 -3.810141,7.406228 -1.712422,0.941832 -3.596087,0.941832 -4.966026,0 -6.935312,-5.008836 0,-0.941833 -0.72778,-0.941833 h -1.412748 q -4.580731,0 -12.671928,9.80362 -5.736616,9.161462 -5.736616,15.754289 0,5.137268 4.53792,8.604924 3.03955,1.669612 8.348061,1.669612 h 0.727779 q 0.72778,0 0.72778,0.256863 l 1.198696,-0.256863 h 0.470916 q 10.488589,-0.470916 11.473232,-0.470916 h 0.256863 l 1.669612,0.256863 V 80.197234 Q 54.94109,76.772388 54.94109,75.145587 v -4.53792 q 0,-6.635638 6.678449,-17.209848 10.788262,-11.730095 21.747768,-11.730095 9.418324,0 17.937623,8.390871 l 4.06701,5.479752 v -0.214053 q 0,-2.782686 -3.81014,-14.127487 v -0.727779 q 0.98464,-7.620281 7.62028,-7.620281 3.85295,0 7.66309,6.678448 2.65425,4.152625 2.65425,33.477864 0.3853,3.81014 0.94184,3.81014 h 0.25686 q 8.30525,-2.868308 11.68729,-2.868308 h 2.14052 l 0.72778,-0.470916 q -0.21405,-0.470916 -0.21405,-0.72778 0,-1.49837 -0.25686,-3.553277 0,-11.473232 10.74545,-20.805935 8.30525,-5.2657 16.52488,-5.2657 11.08793,0 19.60724,8.134008 1.88366,2.26896 1.88366,2.868308 h 0.51373 v -0.470917 q -1.45556,-5.907858 -1.45556,-6.464395 0,-8.604924 12.92879,-12.671928 2.39739,-0.72778 5.47975,-0.72778 h 2.3974 q 11.13074,0 21.74776,8.604924 2.14053,2.911119 2.14053,5.736616 v 0.256864 q 0,11.002315 -15.54023,19.136323 l -0.21406,0.470916 q 17.03861,13.314086 19.60724,16.482068 0.47092,0.899022 0.47092,1.926476 v 0.72778 q 0,4.794783 -5.73662,7.877144 l -3.12517,0.470916 q -2.18334,0 -16.48207,-12.415064 l -6.20753,-5.051647 h -0.25686 v 5.051647 q 0,7.962765 -2.86831,10.017672 -2.73988,1.198696 -3.33922,1.198696 h -1.1987 q -4.19544,0 -7.40623,-5.008836 -0.72778,-2.483013 -0.72778,-4.53792 0,-0.599348 1.66961,-7.192175 l 0.25687,-2.868308 -0.47092,-0.214053 h -0.25686 q -1.96929,5.950669 -11.21637,12.415064 -9.63238,5.2657 -18.66541,5.2657 -7.44904,0 -13.87062,-5.522563 h -0.47092 q -1.28431,1.669612 -7.87714,2.868308 -5.60819,0 -13.87063,4.067004 -2.73987,0.727779 -4.32386,0.727779 h -1.92648 q -3.55327,0 -5.00883,-4.281056 -1.66962,-12.586307 -1.66962,-15.06932 0,-0.470916 -0.47091,-0.470916 -2.61145,7.962765 -10.060486,12.88598 -8.091197,5.2657 -17.680764,5.2657 -8.390871,0 -16.482068,-5.736616 0,5.137268 -6.464396,7.406228 -2.397391,0 -15.069319,0.470916 -18.365733,0 -24.402023,-13.142844 -2.140528,-4.751972 -2.140528,-9.332703 v -4.53792 q 0,-8.818977 9.803619,-22.004631 10.831074,-14.34154 22.475548,-14.34154 z M 199.598,48.388983 l -0.51373,0.684969 q 0.51373,4.366678 0.51373,7.449038 v 0.214053 q 0.0428,0.470916 0.47091,0.470916 h 0.47092 q 12.20101,-2.953929 12.20101,-6.421585 -1.49837,-2.183338 -12.92879,-2.183338 0,-0.214053 -0.21405,-0.214053 z M 69.967599,67.525306 v 2.611445 q 0,5.265699 7.192175,8.604923 2.483013,0.72778 4.53792,0.72778 7.277797,0 10.745453,-7.663091 0.513726,-1.070264 0.513726,-3.125172 V 68.467138 Q 92.6572,58.74914 86.706531,55.538347 H 82.89639 q -5.094457,0 -10.745452,6.464396 -2.183339,3.382035 -2.183339,5.522563 z m 78.428961,-0.984643 v 1.198696 q 0,7.962765 9.3327,10.531399 h 2.65426 q 7.57747,0 12.41506,-7.877144 1.1987,-3.296414 1.1987,-5.2657 0,-5.865047 -7.87715,-8.390871 -2.65425,-0.214053 -4.79478,-0.214053 -0.25686,0 -0.25686,-0.256863 -4.8376,0 -9.80362,4.323867 -2.86831,3.510467 -2.86831,5.950669 z"
         style="fill:#0000ff;stroke-width:2.19190097"
         id="path68" /></g><g
       aria-label="HACKS"
       transform="scale(0.92461871,1.0815269)"
       style="font-style:normal;font-variant:normal;font-weight:normal;font-stretch:normal;font-size:80.62857819px;line-height:1.25;font-family:'Charlemagne Std';-inkscape-font-specification:'Charlemagne Std';letter-spacing:0px;word-spacing:0px;fill:#008000;fill-opacity:1;stroke:none;stroke-width:2.01571441"
       id="text40"><path
         d="m 298.32602,49.891396 c 0,6.127772 -0.0806,19.673373 -0.40314,23.462916 -1.53194,0.322514 -6.53092,1.048172 -8.38537,1.1288 l -0.48378,1.6932 c 2.41886,-0.161257 9.99795,-0.322514 14.19063,-0.322514 3.46703,0 11.44926,0.161257 13.14246,0.322514 l -0.40314,-1.6932 c -1.61257,-0.08063 -5.644,-0.645029 -7.82097,-1.1288 -0.32252,-2.983257 -0.64503,-13.303715 -0.64503,-21.52783 v -2.822001 c 1.1288,-0.241885 29.67132,-1.773828 33.46086,-1.854457 v 4.676458 c 0,8.546629 0,18.786458 -0.48377,21.52783 -1.45132,0.322514 -6.7728,1.048172 -7.98223,1.1288 l -0.40314,1.6932 c 2.74137,-0.161257 10.32045,-0.322514 13.78748,-0.322514 3.78955,0 12.01366,0.161257 13.5456,0.322514 l -0.40314,-1.6932 c -1.61257,-0.08063 -6.53091,-0.806286 -8.14349,-1.1288 -0.5644,-2.741372 -0.72565,-16.045087 -0.72565,-25.398002 v -5.644001 c 0,-2.176971 0.16125,-18.786458 0.5644,-20.39903 2.33823,-0.322514 6.61154,-0.967543 8.22411,-1.1288 l 0.48377,-1.6932 c -1.45131,0.161257 -8.22411,0.322514 -13.46497,0.322514 -4.99897,0 -12.49743,-0.161257 -13.86811,-0.322514 l 0.40314,1.6932 c 2.33823,0.161257 6.61154,0.806286 7.98223,1.1288 0.48377,2.015715 0.48377,12.336173 0.48377,18.625202 v 3.708914 c -3.22514,0.5644 -31.44515,0.241886 -33.46086,0.241886 v -3.9508 c 0,-6.934058 0.32251,-16.44823 0.64503,-18.625202 1.29006,-0.322514 5.56337,-0.967543 7.82097,-1.1288 l 0.40314,-1.6932 c -1.29005,0.161257 -8.14348,0.322514 -13.14246,0.322514 -5.16022,0 -12.81994,-0.161257 -14.19063,-0.322514 l 0.40315,1.6932 c 2.01571,0.161257 7.01468,0.806286 8.466,1.1288 0.32251,2.660743 0.40314,17.818916 0.40314,20.39903 z"
         style="fill:#ff0000;stroke-width:2.01571441"
         id="path71" /><path
         d="m 397.31776,76.176312 c 2.17697,-0.161257 11.288,-0.322514 13.62623,-0.322514 4.27331,0 12.4168,0.161257 13.38434,0.322514 l -0.24189,-1.6932 c -2.41885,-0.322514 -4.75708,-0.645029 -7.09531,-1.1288 -3.70892,-7.095315 -8.70789,-20.640916 -10.96549,-26.849317 -3.06388,-8.466 -7.49846,-21.124687 -8.466,-24.672344 1.85446,-0.483772 4.03143,-0.806286 6.12777,-1.048172 l 0.24189,-1.6932 c -2.33823,0.161257 -10.40109,0.322514 -13.78749,0.322514 -1.37068,0 -8.06286,-0.161257 -10.48171,-0.322514 l 0.0806,1.6932 c 1.93508,0.241886 4.59582,0.5644 6.36965,1.048172 -1.1288,3.063885 -17.17388,46.442061 -20.07651,51.521661 -2.17697,0.483771 -4.59583,0.886914 -6.93406,1.1288 l -0.24189,1.6932 c 1.85446,-0.161257 7.25658,-0.322514 9.35292,-0.322514 2.33823,0 9.67543,0.161257 12.17491,0.322514 l -0.32251,-1.6932 c -2.2576,-0.241886 -4.91834,-0.5644 -6.93406,-1.1288 0.80629,-6.208401 5.16023,-21.447202 5.644,-22.576002 2.98326,-0.483771 15.8032,-1.048171 18.6252,-1.048171 1.29006,2.338228 7.01469,19.431487 8.46601,23.624173 -2.49949,0.5644 -5.32149,0.886914 -8.14349,1.1288 z m -0.48378,-28.865031 -16.932,-0.322514 c 0.80629,-2.660743 6.04715,-16.609487 8.54663,-23.785431 h 0.16126 c 1.37069,4.434572 6.45029,18.786459 8.22411,24.107945 z"
         style="fill:#008000"
         id="path73" /><path
         d="m 480.59826,37.555223 c 0.0806,-7.659715 0.5644,-16.045087 1.77382,-24.91423 l -1.85445,0.403143 c -0.24189,0.967542 -1.20943,6.127771 -1.6932,7.175943 -2.2576,-0.645029 -9.75606,-2.096343 -16.85138,-2.096343 -8.14348,0 -15.64194,1.048171 -24.02731,6.692172 -7.09532,4.757086 -12.73932,12.981201 -12.73932,24.107945 0,10.320458 6.2084,19.512116 16.69012,24.672345 6.53091,3.225143 15.31943,3.547657 18.30269,3.547657 12.65868,0 20.80217,-3.305772 22.65663,-4.837715 l 1.1288,-3.467028 c -5.72463,3.3864 -12.98121,4.353943 -19.10898,4.353943 -17.01263,0 -29.99383,-13.303716 -29.99383,-29.026288 0,-12.578059 9.27229,-23.221031 23.94669,-23.221031 10.40109,0 17.89954,5.805258 19.43149,9.352915 0.24188,1.370686 0.48377,5.160229 0.48377,6.692172 z"
         style="fill:#ffff00"
         id="path75" /><path
         d="m 499.11008,47.472538 c 0,11.529887 -0.16126,22.334117 -0.40314,25.881774 -1.93509,0.483771 -6.61155,0.967543 -8.54663,1.1288 l -0.32252,1.6932 c 2.33823,-0.161257 9.99795,-0.322514 13.78749,-0.322514 4.35394,0 12.90057,0.161257 14.43251,0.322514 l -0.16125,-1.6932 c -1.20943,-0.161257 -7.09532,-0.645029 -9.19166,-1.531943 -0.32251,-2.983257 -0.40314,-14.271258 -0.40314,-21.285945 v -1.935085 c 1.04817,-0.967543 3.54765,-3.063886 5.0796,-4.192686 2.2576,2.418857 29.42943,30.235716 35.71846,32.654574 l 2.74137,-0.886915 c -4.19269,-3.870171 -27.41372,-33.057717 -30.55823,-38.056689 3.3864,-3.063886 18.38331,-15.641944 21.85034,-17.496401 2.09635,-0.5644 4.11206,-0.806286 5.32149,-0.967543 l 0.48377,-1.6932 c -2.74137,0.161257 -6.45029,0.322514 -8.78851,0.322514 -3.14452,0 -8.86915,-0.161257 -12.25555,-0.322514 l 0.32252,1.6932 c 1.77382,0.241886 4.11205,0.645029 5.96651,1.1288 -2.33823,3.9508 -20.64092,19.592745 -25.88177,24.188574 v -2.499486 c 0,-6.611544 0.0806,-19.108973 0.40314,-21.689088 1.85446,-0.322514 7.25657,-0.967543 8.22411,-1.1288 l 0.32252,-1.6932 c -1.53194,0.161257 -10.23983,0.322514 -13.22309,0.322514 -3.30577,0 -12.57806,-0.161257 -14.19063,-0.322514 l 0.24189,1.6932 c 1.93508,0.161257 6.69217,0.806286 8.62726,1.1288 0.24188,2.176972 0.40314,13.384344 0.40314,20.96343 z"
         style="fill:#0000ff"
         id="path77" /><path
         d="m 557.46754,83.513513 c 0.5644,-2.983258 1.37068,-6.853429 1.77382,-8.385372 2.2576,1.209428 7.25658,2.015714 11.12675,2.015714 10.96548,0 19.83463,-6.369658 19.83463,-17.57703 0,-10.159201 -6.7728,-14.674401 -13.46497,-18.867087 -6.12778,-3.870172 -11.61052,-6.692172 -11.61052,-11.93303 0,-3.628286 2.90263,-8.062858 9.83669,-8.062858 5.644,0 9.83668,4.353944 10.7236,7.256572 0.16126,1.451315 0.32251,3.386401 0.32251,6.127772 l 1.85446,0.806286 c 0,-6.611543 0.80629,-14.110001 1.93509,-22.09223 l -1.85446,0.241886 c -0.48377,2.176971 -0.88692,4.595828 -1.45132,6.530914 -1.93508,-0.483771 -6.12777,-1.451314 -10.88485,-1.451314 -11.93303,0 -16.60949,7.901601 -16.60949,14.19063 0,9.111029 6.28903,13.626229 14.19063,18.786458 5.24086,3.386401 10.32046,6.611544 10.32046,13.142459 0,5.966514 -5.0796,10.159201 -11.44926,10.159201 -5.56337,0 -10.32046,-3.628287 -12.49743,-8.788516 -0.24189,-1.451314 -0.64503,-6.047143 -0.5644,-7.095314 l -1.85446,-0.483772 c 0.24189,1.935086 -0.24188,10.642972 -0.24188,12.739315 0,3.144515 -1.1288,12.094287 -1.29006,13.223087 z"
         style="fill:#c83737"
         id="path79" /></g></g></svg>