<?xml version="1.0" encoding="UTF-8" standalone="no"?>
<svg
   xmlns:dc="http://purl.org/dc/elements/1.1/"
   xmlns:cc="http://creativecommons.org/ns#"
   xmlns:rdf="http://www.w3.org/1999/02/22-rdf-syntax-ns#"
   xmlns:svg="http://www.w3.org/2000/svg"
   xmlns="http://www.w3.org/2000/svg"
   xmlns:sodipodi="http://sodipodi.sourceforge.net/DTD/sodipodi-0.dtd"
   xmlns:inkscape="http://www.inkscape.org/namespaces/inkscape"
   viewBox="0 0 600.27198 171.83996"
   height="171.83997"
   width="600.27197"
   xml:space="preserve"
   version="1.1"
   id="svg2"
   sodipodi:docname="GENH.svg"
   inkscape:version="0.92.4 (5da689c313, 2019-01-14)"><sodipodi:namedview
     pagecolor="#ffffff"
     bordercolor="#666666"
     borderopacity="1"
     objecttolerance="10"
     gridtolerance="10"
     guidetolerance="10"
     inkscape:pageopacity="0"
     inkscape:pageshadow="2"
     inkscape:window-width="1920"
     inkscape:window-height="1018"
     id="namedview52"
     showgrid="false"
     inkscape:zoom="1.1421655"
     inkscape:cx="281.23759"
     inkscape:cy="34.838317"
     inkscape:window-x="-8"
     inkscape:window-y="-8"
     inkscape:window-maximized="1"
     inkscape:current-layer="svg2" /><metadata
     id="metadata8"><rdf:RDF><cc:Work
         rdf:about=""><dc:format>image/svg+xml</dc:format><dc:type
           rdf:resource="http://purl.org/dc/dcmitype/StillImage" /><dc:title></dc:title></cc:Work></rdf:RDF></metadata><defs
     id="defs6"><clipPath
       id="clipPath16"
       clipPathUnits="userSpaceOnUse"><path
         id="path18"
         d="M 0,618.062 H 1949.984 V 0 H 0 Z"
         inkscape:connector-curvature="0" /></clipPath></defs><g
     id="g980"><g
       aria-label="HACKS"
       style="font-style:normal;font-variant:normal;font-weight:normal;font-stretch:normal;font-size:157.88580322px;line-height:1.25;font-family:'Arabic Typesetting';-inkscape-font-specification:'Arabic Typesetting';letter-spacing:0px;word-spacing:0px;fill:#ff0000;fill-opacity:1;stroke:none;stroke-width:3.94714546"
       id="text913"><path
         d="M 187.37265,120.83693 V 97.709127 q 0,-1.850224 -0.30837,-3.083707 -0.23128,-1.233483 -1.23348,-2.00441 -0.92511,-0.848019 -2.77534,-1.233483 -1.85022,-0.385463 -5.08811,-0.539648 l 0.15418,-2.775337 q 1.23348,0 2.92952,0.07709 1.77313,0 3.70045,0 2.00441,0 4.08591,0.07709 2.08151,0 3.93173,0 1.46476,0 3.23789,0 1.77313,-0.07709 3.46917,-0.07709 1.77313,0 3.31499,0 1.54185,-0.07709 2.62115,-0.07709 l 0.15418,2.621151 q -3.00661,0.231278 -4.85683,0.770927 -1.77314,0.462556 -2.77534,1.541854 -1.00221,1.002204 -1.38767,2.852429 -0.30837,1.850224 -0.30837,4.702657 v 51.88337 q 0,1.85022 0.30837,3.0837 0.30837,1.23349 1.23348,2.08151 1.00221,0.77092 2.92953,1.15639 1.92731,0.38546 5.16521,0.53965 l -0.15419,2.77533 q -1.23348,0 -3.00661,0 -1.77314,-0.0771 -3.77755,-0.0771 -2.00441,0 -4.08591,0 -2.0815,-0.0771 -3.93172,-0.0771 -1.54186,0 -3.31499,0.0771 -1.69604,0 -3.39208,0 -1.69604,0 -3.23789,0.0771 -1.46476,0 -2.54406,0 l -0.23128,-2.62115 q 3.00662,-0.23128 4.77975,-0.69383 1.77313,-0.53965 2.77534,-1.54186 1.0022,-1.07929 1.31057,-2.85243 0.30837,-1.85022 0.30837,-4.77974 v -24.2071 h -41.24458 v 27.05953 q 0,1.85022 0.23128,3.0837 0.30837,1.23349 1.23348,2.08151 1.00221,0.77092 2.85243,1.15639 1.85022,0.38546 5.08812,0.53965 l -0.15419,2.77533 q -1.23348,0 -3.00661,0 -1.69604,-0.0771 -3.70045,-0.0771 -1.92732,-0.0771 -4.00882,-0.0771 -2.0815,-0.0771 -3.93173,-0.0771 -1.46476,0 -3.23789,0.0771 -1.77313,0 -3.54626,0 -1.69604,0 -3.2379,0.0771 -1.54185,0 -2.62115,0 l -0.15418,-2.62115 q 3.00661,-0.23128 4.77974,-0.69384 1.85023,-0.53964 2.85243,-1.54185 1.00221,-1.0793 1.31058,-2.85243 0.38546,-1.85022 0.38546,-4.77974 V 97.709127 q 0,-1.850224 -0.30837,-3.083707 -0.30837,-1.233483 -1.31057,-2.00441 -0.92512,-0.848019 -2.85243,-1.233483 -1.92732,-0.385463 -5.16521,-0.539648 l 0.15418,-2.775337 h 3.39208 q 1.92732,0 3.85463,0.07709 2.00441,0 3.85464,0 h 6.78415 q 1.77314,0 3.46917,0 1.77314,-0.07709 3.31499,-0.07709 h 2.62115 l 0.23128,2.621151 q -3.00662,0.231278 -4.77975,0.770927 -1.77313,0.462556 -2.77533,1.541854 -1.00221,1.002204 -1.31058,2.852429 -0.30837,1.850224 -0.30837,4.702657 v 20.27537 z"
         style="fill:#ff0000;stroke-width:3.94714546"
         id="path924"
         inkscape:connector-curvature="0" /><path
         d="m 258.22082,134.71361 h -25.67186 l -5.93614,15.18726 q -1.54185,4.39428 -1.54185,5.55067 0,2.00441 1.85022,2.77534 1.92732,0.77093 6.78416,1.0022 l -0.23128,2.77534 q -2.85243,0 -6.39869,-0.0771 -3.54627,-0.0771 -7.01544,-0.0771 -2.85242,0 -5.93613,0.0771 -3.00662,0.0771 -5.85905,0.0771 l -0.15418,-2.62115 q 3.00661,-0.23128 4.93393,-0.69384 1.92732,-0.53964 3.31499,-1.85022 1.46476,-1.38767 2.69824,-3.70045 1.31058,-2.38987 3.00661,-6.3216 l 22.1256,-52.19174 q 0.92511,-2.312781 1.54186,-4.008819 0.69383,-1.773132 1.46476,-3.777542 l 4.85684,-0.616741 q 0.84802,3.700448 1.77313,6.784156 1.0022,3.083707 1.85022,5.627765 l 17.34585,50.264421 q 1.15639,3.39208 2.08151,5.3194 0.92511,1.92732 2.15859,3.00661 1.23348,1.00221 3.08371,1.38767 1.92732,0.38547 4.93393,0.61674 l -0.23128,2.77534 q -3.23789,0 -7.16962,-0.0771 -3.85463,-0.0771 -7.78636,-0.0771 -3.23789,0 -6.55288,0.0771 -3.31498,0.0771 -6.55287,0.0771 l -0.23128,-2.62115 q 4.31719,-0.30837 6.16741,-1.00221 1.85023,-0.77092 1.85023,-2.77533 0,-0.84802 -0.30837,-1.92732 -0.30837,-1.15639 -0.77093,-2.54406 z m -23.89873,-4.47137 h 22.43397 L 246.42564,99.713536 Z"
         style="fill:#ff0000;stroke-width:3.94714546"
         id="path926"
         inkscape:connector-curvature="0" /><path
         d="m 300.85307,123.68936 q 0,7.4009 1.85023,13.95377 1.85022,6.47579 5.55067,11.33263 3.77754,4.77974 9.40531,7.63217 5.62776,2.77534 13.25994,2.77534 4.163,0 7.94054,-1.15639 3.85464,-1.15639 6.78416,-3.77754 2.77534,-2.46697 4.77975,-6.01323 2.0815,-3.62336 4.08591,-8.4802 l 3.0837,0.77093 q -1.31057,5.08812 -2.0815,9.55949 -0.77092,4.47138 -1.31057,9.55949 -6.09032,1.77314 -12.10355,2.77534 -5.93614,1.00221 -11.94937,1.00221 -8.71147,0 -16.11237,-2.69825 -7.3238,-2.69824 -12.72029,-7.63217 -5.31939,-4.93393 -8.32601,-11.87228 -3.00661,-7.01543 -3.00661,-15.57272 0,-9.86786 3.62335,-17.19166 3.62336,-7.4009 9.79077,-12.334831 6.24451,-4.933932 14.41633,-7.323805 8.17183,-2.466965 17.26876,-2.466965 4.70266,0 10.02205,0.693834 5.39649,0.693834 10.02205,1.927317 -0.46256,4.933931 -0.61674,9.405306 -0.0771,4.394284 -0.0771,9.328214 l -3.23789,0.30837 q -0.30837,-4.54847 -1.85022,-7.86345 -1.46476,-3.39208 -4.00882,-5.550675 -2.46697,-2.235688 -5.78195,-3.237892 -3.31499,-1.079298 -7.24671,-1.079298 -7.70927,0 -13.56831,2.466966 -5.85905,2.389873 -9.86787,6.784155 -3.93172,4.317194 -6.01323,10.484604 -2.00441,6.09032 -2.00441,13.49122 z"
         style="fill:#ff0000;stroke-width:3.94714546"
         id="path928"
         inkscape:connector-curvature="0" /><path
         d="m 395.83125,90.693693 q -3.0837,0.231278 -5.01102,0.770927 -1.85022,0.462556 -2.92952,1.541854 -1.0793,1.002204 -1.46476,2.852429 -0.38547,1.773131 -0.38547,4.625557 v 21.97142 q 2.23569,-0.38547 4.00882,-1.31058 1.85023,-0.92511 4.08592,-2.92952 2.38987,-2.23569 5.08811,-4.93393 2.69825,-2.69825 5.3194,-5.47358 2.69824,-2.85243 5.16521,-5.62777 2.46696,-2.775334 4.39428,-5.165207 1.0793,-1.387668 1.54185,-2.466966 0.53965,-1.079297 0,-1.850224 -0.53965,-0.84802 -2.23568,-1.310576 -1.61895,-0.462556 -4.77975,-0.616741 l 0.15418,-2.698244 q 1.0793,0 2.77534,0.07709 1.69604,0 3.54626,0 1.92732,0 3.85464,0.07709 2.00441,0 3.70045,0 1.46476,0 3.39207,0 2.00441,-0.07709 3.93173,-0.07709 2.00441,0 3.70045,0 1.69604,-0.07709 2.77534,-0.07709 l 0.23127,2.621151 q -2.77533,0.231278 -5.08811,0.770927 -2.23569,0.539649 -4.39429,1.541854 -2.0815,1.002204 -4.163,2.544058 -2.0815,1.464761 -4.39428,3.623356 -1.69604,1.541852 -4.16301,3.931722 -2.38987,2.38988 -5.2423,5.3194 -2.77534,2.85243 -5.85904,6.01323 -3.08371,3.0837 -6.01323,6.09032 3.23789,4.00882 6.86125,8.48019 3.70045,4.47138 7.24671,8.71148 3.62335,4.163 6.70706,7.78636 3.1608,3.54626 5.2423,5.70485 2.31278,2.38988 3.85464,3.85464 1.61894,1.46476 3.0837,2.38987 1.46477,0.84802 3.1608,1.23348 1.69604,0.38547 4.31719,0.61675 l -0.15418,2.77533 q -2.92952,0 -6.47579,-0.0771 -3.46917,-0.0771 -6.93834,-0.0771 -1.07929,0 -2.31278,0.0771 -1.15639,0 -2.23569,0.0771 -0.61674,-1.15639 -2.15859,-3.23789 -1.54185,-2.0815 -3.70045,-4.77975 -2.15859,-2.69824 -4.77974,-5.78195 -2.54406,-3.1608 -5.3194,-6.39869 -2.69824,-3.31498 -5.47358,-6.47578 -2.69824,-3.2379 -5.08812,-6.09033 -1.54185,-1.77313 -2.85243,-2.46696 -1.23348,-0.77093 -2.54405,-0.77093 -0.84802,0 -1.77314,0.23128 v 26.13442 q 0,1.85022 0.30838,3.0837 0.30837,1.23349 1.31057,2.08151 1.0793,0.77092 3.00662,1.15639 2.00441,0.38546 5.31939,0.53965 l -0.15419,2.77533 q -1.23348,0 -3.0837,0 -1.77313,-0.0771 -3.85464,-0.0771 -2.0815,0 -4.24009,0 -2.08151,-0.0771 -3.93173,-0.0771 -1.54185,0 -3.39208,0.0771 -1.77313,0 -3.62335,0 -1.85023,0 -3.46917,0.0771 -1.61895,0 -2.69825,0 l -0.23128,-2.62115 q 3.2379,-0.23128 5.16521,-0.69383 1.92732,-0.53965 2.92953,-1.54186 1.07929,-1.07929 1.38766,-2.85243 0.38547,-1.85022 0.38547,-4.77974 V 97.709127 q 0,-1.850224 -0.30837,-3.083707 -0.30837,-1.233483 -1.38767,-2.00441 -1.00221,-0.848019 -3.00662,-1.233483 -2.00441,-0.385463 -5.31939,-0.539648 l 0.15418,-2.775337 q 1.23349,0 3.08371,0.07709 1.85023,0 3.93173,0 2.0815,0 4.2401,0.07709 2.15859,0 4.00881,0 1.46477,0 3.2379,0 1.85022,-0.07709 3.62335,-0.07709 1.85023,0 3.46917,0 1.61895,-0.07709 2.69825,-0.07709 z"
         style="fill:#ff0000;stroke-width:3.94714546"
         id="path930"
         inkscape:connector-curvature="0" /><path
         d="m 445.86442,140.57266 q 1.54185,4.00881 3.23789,7.40089 1.77313,3.39208 4.16301,5.93614 2.46696,2.46696 5.70485,3.93173 3.2379,1.38766 7.78636,1.38766 3.00662,0 5.55068,-1.0022 2.54406,-1.00221 4.47137,-2.85243 1.92732,-1.85022 3.00662,-4.31719 1.07929,-2.54406 1.07929,-5.55067 0,-3.77754 -1.38766,-6.47579 -1.38767,-2.69824 -3.70045,-4.62556 -2.31278,-2.00441 -5.2423,-3.46917 -2.92953,-1.46476 -6.01323,-2.85243 -3.46917,-1.54185 -7.01544,-3.39208 -3.46917,-1.85022 -6.2445,-4.39428 -2.77534,-2.54406 -4.54847,-5.85904 -1.77313,-3.31499 -1.77313,-7.86346 0,-4.85683 1.92731,-8.557282 2.00441,-3.777542 5.3194,-6.3216 3.39208,-2.544058 7.78636,-3.854634 4.47137,-1.310575 9.4824,-1.310575 4.85684,0 8.94275,0.770926 4.163,0.693835 8.86566,1.927317 -0.23128,2.466966 -0.38547,4.625561 -0.15418,2.081502 -0.23128,4.163005 0,2.004412 -0.0771,4.163002 0,2.0815 0,4.54847 l -3.23789,0.30837 q -0.69383,-8.171823 -5.01102,-12.180642 -4.2401,-4.085912 -11.48681,-4.085912 -2.77534,0 -5.08812,0.848019 -2.31278,0.84802 -4.00882,2.466966 -1.69604,1.618946 -2.69824,3.854634 -0.92511,2.235685 -0.92511,5.011025 0,3.70045 1.15639,6.24451 1.23348,2.46696 3.31498,4.31719 2.0815,1.85022 4.77975,3.23789 2.77533,1.31057 5.78195,2.62115 3.70045,1.61895 7.40089,3.54626 3.77755,1.92732 6.70707,4.54847 3.00661,2.62115 4.85684,6.09032 1.85022,3.46917 1.85022,8.17183 0,5.2423 -2.15859,9.32821 -2.1586,4.00882 -5.70486,6.86125 -3.54627,2.77533 -8.17183,4.2401 -4.62556,1.46476 -9.4824,1.46476 -4.24009,0 -8.78856,-0.84802 -4.54847,-0.84802 -9.63659,-2.31278 -0.53964,-5.08812 -1.31057,-9.5595 -0.77093,-4.47137 -2.0815,-9.55949 z"
         style="fill:#ff0000;stroke-width:3.94714546"
         id="path932"
         inkscape:connector-curvature="0" /></g><g
       aria-label="3"
       style="font-style:normal;font-variant:normal;font-weight:normal;font-stretch:normal;font-size:99.42734528px;line-height:1.25;font-family:'Game Logos';-inkscape-font-specification:'Game Logos';letter-spacing:0px;word-spacing:0px;fill:#000080;fill-opacity:1;stroke:none;stroke-width:2.48568368"
       id="text970"><path
         d="m 272.78922,5.4382562 h 0.58258 V 6.0693868 Q 262.88532,25.731533 261.52597,26.071372 H 157.63216 q -14.03052,9.661153 -16.26375,11.894385 v 21.895377 l -0.63113,1.262261 q 2.52452,1.31081 16.89488,11.263254 H 444.214 Q 460.57485,61.94872 461.10888,60.492265 V 37.334626 Q 443.92271,26.071372 441.73803,26.071372 H 339.73761 Q 337.06744,23.061365 328.47436,6.7005174 V 6.0693868 h 1.21371 q 8.39889,16.9919782 10.68067,18.7882732 h 103.21413 q 18.44844,11.894384 18.78828,13.108097 V 61.123395 Q 462.2255,61.900171 444.214,73.648911 H 157.63216 Q 141.7568,63.405175 140.10615,61.123395 V 37.334626 q 0,-0.534033 17.52601,-12.476966 h 104.47639 q 6.5055,-13.884874 10.68067,-19.4194038 z m 2.47597,3.7382351 h 50.68465 q 1.26226,0.3883881 11.89438,20.0505337 h 68.84179 q 1.4079,0 2.47597,-0.63113 1.11662,0.63113 2.52452,0.63113 1.40791,0 2.52452,-0.63113 1.06807,0.63113 2.47598,0.63113 0.48548,0 3.73823,-0.63113 0.63113,0 0.63113,0.63113 l 3.15566,-0.63113 h 16.26375 q 3.93243,0 17.52601,11.263254 v 19.419403 q -0.0485,1.019519 -15.05004,10.632123 H 158.89442 Q 143.84438,59.66694 143.84438,59.278552 V 39.859149 q 1.31081,-2.087586 14.41891,-10.632124 40.6351,-0.63113 63.21016,-0.63113 h 0.63113 q 2.23323,0 5.63162,0.63113 0.58259,0 0.58259,-0.63113 l 3.15565,0.63113 h 31.89637 Q 274.68261,9.1764913 275.26519,9.1764913 Z m 11.26326,5.0490447 h -5.0005 q -4.36936,0 -4.36936,5.000497 1.06806,3.107104 3.1071,3.107104 v 1.262261 h -3.1071 v 1.262262 q 0,0.63113 0.63113,0.63113 l -0.63113,1.213713 v 1.262261 h 6.26275 q 4.36937,0 4.36937,-3.738235 h 1.26226 q 0,3.738235 4.36937,3.738235 h 6.26275 v -1.262261 q 0,-0.631131 -0.63113,-0.631131 l 0.63113,-1.213712 v -1.262262 q -1.55355,0 -1.89339,-2.524522 0.63113,-1.213713 0.63113,-1.844843 -0.63113,0 -0.63113,-0.631131 l -1.26226,0.631131 h -1.84484 v -1.262262 h 5.00049 V 16.70151 h -7.52502 v 1.262261 h -1.26226 v -0.63113 q 0,-0.922422 1.8934,-1.893392 h 6.89388 v -0.631131 l -0.63113,-1.213712 -2.52452,0.63113 -3.1071,-0.63113 q -2.23324,0.291291 -5.0005,3.738235 l -0.63113,-1.262261 -1.26226,0.63113 h -5.63163 v -1.262261 h 7.52502 v -0.631131 l -0.63113,-1.213712 z m 14.4189,1.844844 v 10.000992 q 0.58259,1.893392 3.73824,1.893392 h 7.52502 q 0.58258,0 0.58258,-0.631131 l 1.26226,0.631131 h 1.89339 q 0,-2.475974 1.26226,-2.475974 h 0.63114 l -0.63114,1.213713 v 1.262261 h 7.47648 v -0.631131 q -3.25275,-13.739227 -6.84534,-13.739227 h -0.63114 q -2.67016,0 -5.00049,11.894384 h -1.26226 v -6.262757 h -3.78679 q -1.21371,0 -1.21371,-1.262262 h 5.0005 V 16.70151 h -7.52502 v -1.262261 h 7.52502 v -1.844843 l -1.26226,0.63113 -4.36937,-0.63113 q -4.36937,0.825324 -4.36937,2.475974 z m 1.84485,0.63113 h 0.63113 v 1.262261 h -0.63113 z m -20.63312,1.262261 h 6.89389 v 5.000497 h -1.26226 q 0,-2.718717 -2.52452,-3.738235 h -3.10711 z m 22.52651,0.631131 h 1.26226 q 0,1.844843 0.63113,1.844843 -0.63113,1.116616 -0.63113,2.524523 h -1.26226 z m -25.05103,0.631131 q 1.26226,0.194194 1.26226,1.213712 h -1.26226 z m 11.26325,1.213712 h 1.26226 v 1.262261 h -1.26226 z m -5.63162,1.893392 h 1.26226 v 1.893392 h -1.26226 z m 31.94491,0 h 1.21372 v 0.631131 h -1.21372 z m -25.68216,1.893392 q 1.26227,0.194194 1.26227,1.262261 h -1.26227 z M 155.73877,41.75254 v 21.264247 q 0.19419,1.262261 1.26226,1.262261 h 28.15813 q 9.03002,-6.262757 10.00099,-6.262757 V 46.753037 l 0.63114,-1.262261 q -0.63114,0 -0.63114,-0.631131 l -1.26226,0.631131 h -11.26325 q -6.6026,4.369365 -7.47647,4.369365 v 0.631131 h 9.36986 q 1.26226,0.194194 1.26226,1.262261 v 5.631627 q 0,1.262261 -1.26226,1.262261 h -17.52601 q -1.26226,0 -1.26226,-1.262261 V 41.12141 q 0.19419,-1.262261 1.26226,-1.262261 h 19.4194 q 2.86437,0 10.001,-5.631627 -1.26227,0 -1.26227,0.63113 l -6.26275,-0.63113 h -20.63312 q -3.39839,0 -12.52551,7.525018 z m 80.10503,-6.893888 h -21.89537 q -2.96146,0 -11.26326,6.893888 v 22.526508 h 26.26475 q 2.86436,0 10.04954,-5.631627 h -25.05103 q -1.26226,0 -1.26226,-1.262261 v -4.369366 q 0.19419,-1.262261 1.26226,-1.262261 h 8.73873 q 2.91291,0 8.78728,-5.000496 h -17.52601 q -1.26226,0 -1.26226,-1.262261 V 41.12141 q 0.19419,-1.262261 1.26226,-1.262261 h 15.00149 q 2.86436,0 10.04954,-5.631627 z m 12.52552,-0.63113 v 30.051526 h 8.73873 q 1.26226,0 1.26226,-1.262261 V 43.597384 l 0.63113,-1.213713 q 19.41941,10.486478 19.41941,11.263254 v 10.632123 h 8.73873 q 1.26226,0 1.26226,-1.262261 V 35.489783 q 0,-1.262261 -1.26226,-1.262261 h -8.73873 v 9.369862 q 0,1.262261 -1.26226,1.262261 -14.27327,-8.738731 -20.68167,-10.632123 z m 45.05302,7.525018 v 21.264247 q 0.19419,1.262261 1.26226,1.262261 h 26.89587 q 7.37937,-5.000496 8.73873,-5.000496 v -0.631131 h -25.63361 q -1.26226,0 -1.26226,-1.262261 v -3.738235 q 0.19419,-1.262261 1.26226,-1.262261 h 7.52502 q 1.84484,0 10.63212,-5.000497 v -0.63113 h -18.15714 q -1.26226,0 -1.26226,-1.262261 V 41.12141 q 0.19419,-1.262261 1.26226,-1.262261 h 15.00149 q 3.25275,0 10.00099,-5.631627 h -23.74022 q -3.44694,0 -12.52551,7.525018 z m 41.31478,-1.262261 v 10.632124 q 0.19419,1.262261 1.21371,1.262261 21.50699,-0.631131 27.527,-0.631131 l 0.63113,1.262261 v 4.369366 q 0,1.262261 -1.21371,1.262261 h -18.78827 q -7.37937,5.000497 -8.78728,5.000497 v 0.63113 h 29.42039 q 9.17567,-5.146141 10.001,-6.893888 V 46.753037 h -28.15814 q -1.21371,0 -1.21371,-1.262261 V 41.75254 q 0.19419,-1.262261 1.21371,-1.262261 h 17.52601 q 1.65065,0 10.04955,-5.000496 v -0.631131 h -28.15814 q -1.21371,0 -11.26325,5.631627 z m 47.52899,-5.631627 V 64.279048 H 392.2671 V 34.858652 Z m 18.15714,5.631627 v 11.263254 h 28.15813 q 1.26226,0.194194 1.26226,1.262261 v 4.369366 q 0,1.262261 -1.26226,1.262261 h -18.78827 q -7.57357,5.000497 -8.73873,5.000497 v 0.63113 h 27.527 q 3.44695,0 11.89439,-6.893888 V 46.753037 H 411.6865 q -1.26226,0 -1.26226,-1.262261 V 41.75254 q 0.1942,-1.262261 1.26226,-1.262261 h 19.41941 q 7.71921,-5.000496 8.73873,-5.000496 V 34.858652 H 411.6865 q -1.21371,0 -11.26325,5.631627 z m 42.52849,-5.631627 v 0.631131 h 1.26226 v -0.631131 z m 2.52452,0 v 1.262262 h 0.63113 v -1.262262 z m 1.8934,0 v 1.262262 h 1.21371 V 34.858652 Z M 304.68559,41.75254 v 3.107105 h 5.0005 v -0.631131 q -2.52453,0 -2.52453,-2.475974 z m -13.15665,3.107105 v 8.78728 h 0.63113 v -8.78728 z m 13.15665,8.78728 v 3.107105 h 0.63113 q 2.47597,-2.524523 4.36937,-2.524523 v -0.582582 z"
         style="fill:#000080;stroke-width:2.48568368"
         id="path982"
         inkscape:connector-curvature="0" /></g></g></svg>