<?xml version="1.0" encoding="UTF-8" standalone="no"?>
<!-- Created with Inkscape (http://www.inkscape.org/) -->
<!DOCTYPE svg PUBLIC "-//W3C//DTD SVG 1.1//EN" "http://www.w3.org/Graphics/SVG/1.1/DTD/svg11.dtd">
<svg
   xmlns:dc="http://purl.org/dc/elements/1.1/"
   xmlns:cc="http://creativecommons.org/ns#"
   xmlns:rdf="http://www.w3.org/1999/02/22-rdf-syntax-ns#"
   xmlns:svg="http://www.w3.org/2000/svg"
   xmlns="http://www.w3.org/2000/svg"
   version="1.1"
   width="400"
   height="122.02368"
   id="svg28838"
   xml:space="preserve"><metadata
     id="metadata28844"><rdf:RDF><cc:Work
         rdf:about=""><dc:format>image/svg+xml</dc:format><dc:type
           rdf:resource="http://purl.org/dc/dcmitype/StillImage" /><dc:title></dc:title></cc:Work></rdf:RDF></metadata><defs
     id="defs28842" /><g
     transform="matrix(1.25,0,0,-1.25,-0.62960147,203.00556)"
     id="g28846"><g
       transform="matrix(1.7297463,0,0,1.7297463,-6.2055294,-53.114947)"
       id="g28885"><path
         d="M 50.3586,107.836 36.657,91.0254 40.8199,107.481 20.2695,88.3848 c -3.5152,1.7613 -5.6199,4.1164 -5.6199,6.8019 0,6.3223 11.6668,12.1363 25.9723,12.9413 3.4402,0.193 6.7273,0.08 9.7367,-0.292 l 0,0 z m 0.9574,-21.045 5.3266,19.784 c 6.0527,-1.765 9.9512,-4.811 9.9512,-8.4656 0,-4.6406 -6.2821,-9.0051 -15.2778,-11.3184 l 0,0 z M 25.3559,72.7855 31.3035,94.3957 19.3215,82.1832 c -6.7492,2.4856 -10.85314,6.3715 -10.81759,10.8934 0,8.3194 14.29409,15.7194 31.82069,16.4734 3.8824,0.167 7.6059,-0.007 11.0504,-0.467 l 8.8742,10.888 -3.2203,-11.961 c 9.0598,-2.278 15.1164,-6.782 15.1164,-12.1963 0,-7.9942 -13.2,-15.1395 -29.7828,-16.3543 l 5.3969,19.298 -22.4035,-25.9719 0,0"
         id="path28852"
         style="fill:#d63647;fill-opacity:1;fill-rule:evenodd;stroke:none" /><path
         d="m 85.8086,105.203 -7.327,0 -5.9222,-20.3233 5.5933,0 2.3215,7.9664 0.961,4.6418 -0.57,-12.6082 4.3629,0 6.7422,12.3879 -1.7363,-4.4215 -2.3207,-7.9664 5.5652,0 5.9223,20.3233 -7.2988,0 -6.7895,-12.3569 0.4961,12.3569 0,0"
         id="path28854"
         style="fill:black;fill-opacity:1;fill-rule:evenodd;stroke:none" /><path
         d="m 101.778,105.203 -5.9225,-20.3233 6.0695,0 5.921,20.3233 -6.068,0 0,0"
         id="path28856"
         style="fill:black;fill-opacity:1;fill-rule:evenodd;stroke:none" /><path
         d="m 114.886,100.373 c 1.54,0.042 2.7,-0.298 3.477,-1.0195 0.778,-0.7215 0.896,-2.075 0.355,-4.0613 -0.341,-1.1707 -0.75,-2.1277 -1.227,-2.8699 -0.478,-0.7422 -1.015,-1.3227 -1.612,-1.7403 -0.598,-0.4183 -1.238,-0.6953 -1.921,-0.8312 -0.683,-0.1356 -1.409,-0.1832 -2.18,-0.1414 l 3.108,10.6636 0,0 z m -4.55,4.83 -5.923,-20.3233 7.915,0 c 1.417,0 2.772,0.1879 4.066,0.5641 1.293,0.3761 2.483,0.9878 3.569,1.8347 1.085,0.8465 2.049,1.9449 2.889,3.2934 0.84,1.3484 1.513,2.9844 2.017,4.909 0.511,1.9437 0.586,3.5433 0.224,4.7981 -0.361,1.255 -0.938,2.248 -1.732,2.98 -0.793,0.731 -1.7,1.239 -2.717,1.521 -1.018,0.282 -1.937,0.423 -2.757,0.423 l -7.551,0 0,0"
         id="path28858"
         style="fill:black;fill-opacity:1;fill-rule:evenodd;stroke:none" /><path
         d="m 127.423,105.203 -1.223,-20.3233 5.873,0 5.394,11.6984 -1.228,-11.6984 5.901,0 10.286,20.3233 -5.678,0 -5.614,-12.3569 1.615,12.3569 -5.509,0 -5.335,-12.3569 1.559,12.3569 -6.041,0 0,0"
         id="path28860"
         style="fill:black;fill-opacity:1;fill-rule:evenodd;stroke:none" /><path
         d="m 154.405,91.7477 3.691,6.6175 -0.138,-6.6175 -3.553,0 0,0 z m 2.607,13.4553 -12.466,-20.3233 6.124,0 1.355,2.6344 5.902,0 -0.181,-2.6344 6.124,0 -0.565,20.3233 -6.293,0 0,0"
         id="path28862"
         style="fill:black;fill-opacity:1;fill-rule:evenodd;stroke:none" /><path
         d="m 164.704,105.203 2.928,-12.9842 -2.139,-7.3391 5.901,0 2.138,7.3391 10.72,12.9842 -6.936,0 -4.856,-6.5866 -1.045,6.5866 -6.711,0 0,0"
         id="path28864"
         style="fill:black;fill-opacity:1;fill-rule:evenodd;stroke:none" /></g></g></svg>