<?xml version="1.0" encoding="UTF-8" standalone="no"?>
<!-- Generator: Adobe Illustrator 19.0.0, SVG Export Plug-In . SVG Version: 6.00 Build 0)  -->

<svg
   xmlns:dc="http://purl.org/dc/elements/1.1/"
   xmlns:cc="http://creativecommons.org/ns#"
   xmlns:rdf="http://www.w3.org/1999/02/22-rdf-syntax-ns#"
   xmlns:svg="http://www.w3.org/2000/svg"
   xmlns="http://www.w3.org/2000/svg"
   xmlns:sodipodi="http://sodipodi.sourceforge.net/DTD/sodipodi-0.dtd"
   xmlns:inkscape="http://www.inkscape.org/namespaces/inkscape"
   version="1.1"
   id="svg2"
   x="0px"
   y="0px"
   viewBox="241 249.1 602.27939 306.79376"
   xml:space="preserve"
   sodipodi:docname="msx1.svg"
   width="602.27942"
   height="306.79376"
   inkscape:version="0.92.4 (5da689c313, 2019-01-14)"><metadata
   id="metadata47"><rdf:RDF><cc:Work
       rdf:about=""><dc:format>image/svg+xml</dc:format><dc:type
         rdf:resource="http://purl.org/dc/dcmitype/StillImage" /><dc:title></dc:title></cc:Work></rdf:RDF></metadata><defs
   id="defs45" /><sodipodi:namedview
   pagecolor="#ffffff"
   bordercolor="#666666"
   borderopacity="1"
   objecttolerance="10"
   gridtolerance="10"
   guidetolerance="10"
   inkscape:pageopacity="0"
   inkscape:pageshadow="2"
   inkscape:window-width="960"
   inkscape:window-height="1016"
   id="namedview43"
   showgrid="false"
   inkscape:zoom="0.89988352"
   inkscape:cx="275.67489"
   inkscape:cy="138.14983"
   inkscape:window-x="0"
   inkscape:window-y="27"
   inkscape:window-maximized="0"
   inkscape:current-layer="svg2" />

<path
   inkscape:connector-curvature="0"
   style="fill:#231f20;stroke-width:1.23058546"
   d="M 296.58864,301.58562 H 788.8228 V 500.82325 H 296.58864 Z"
   id="path2" /><path
   inkscape:connector-curvature="0"
   style="fill:#ffffff;stroke-width:1.23058546"
   d="m 749.91286,329.4454 -46.7455,68.31005 50.89768,74.73922 h -47.21429 l -27.92676,-39.98146 -28.32858,39.98146 h -46.41065 c 1.07153,-2.61185 50.89769,-74.73922 50.89769,-74.73922 l -21.16273,-29.46708 h -90.14247 c -4.15218,0.33485 -9.37589,-1.07153 -11.38501,3.81732 -0.73667,1.54033 -1.07153,3.81733 -0.33485,5.22372 0.73668,1.87517 2.277,3.4155 4.15218,4.15218 l 3.08065,0.33485 h 36.29808 c 16.60872,0.33486 32.07894,10.91622 39.24479,25.9846 6.42918,12.45654 5.69251,29.80193 -1.54033,41.92362 -9.04102,15.06839 -25.31489,23.77458 -42.59331,23.0379 H 470.2435 l -15.47022,-55.45169 -15.53719,55.51866 h -36.63294 l -14.73354,-55.8535 -15.87204,55.51864 h -40.71814 c 0,0 37.36961,-134.00824 39.64661,-142.64745 h 34.28897 l 15.87204,59.67084 16.27387,-59.67084 h 33.61926 l 28.79737,104.20632 h 66.76972 c 4.48703,-0.33486 10.91621,1.07152 12.79139,-4.48704 0.73668,-2.61185 0,-5.22371 -1.54032,-6.76403 -1.54033,-1.54033 -3.81733,-1.87518 -6.02736,-1.87518 h -35.8293 c -16.94357,-0.33486 -33.95411,-11.71986 -40.38329,-27.92676 -6.76403,-16.27386 -3.08065,-36.2311 9.84468,-48.68764 8.63921,-8.63922 19.22058,-13.19322 31.67711,-13.99687 h 118.20317 l 23.77458,34.28896 24.57822,-34.28896 z"
   id="path4" /></svg>