<?xml version="1.0" encoding="UTF-8" standalone="no"?>
<!-- Generator: Adobe Illustrator 19.0.0, SVG Export Plug-In . SVG Version: 6.00 Build 0)  -->

<svg
   xmlns:dc="http://purl.org/dc/elements/1.1/"
   xmlns:cc="http://creativecommons.org/ns#"
   xmlns:rdf="http://www.w3.org/1999/02/22-rdf-syntax-ns#"
   xmlns:svg="http://www.w3.org/2000/svg"
   xmlns="http://www.w3.org/2000/svg"
   xmlns:sodipodi="http://sodipodi.sourceforge.net/DTD/sodipodi-0.dtd"
   xmlns:inkscape="http://www.inkscape.org/namespaces/inkscape"
   version="1.1"
   id="svg2"
   x="0px"
   y="0px"
   viewBox="241 249.1 602.27939 306.79376"
   xml:space="preserve"
   sodipodi:docname="msx2+.svg"
   width="602.27942"
   height="306.79376"
   inkscape:version="0.92.4 (5da689c313, 2019-01-14)"><metadata
   id="metadata47"><rdf:RDF><cc:Work
       rdf:about=""><dc:format>image/svg+xml</dc:format><dc:type
         rdf:resource="http://purl.org/dc/dcmitype/StillImage" /><dc:title></dc:title></cc:Work></rdf:RDF></metadata><defs
   id="defs45"><clipPath
     id="a"><path
       inkscape:connector-curvature="0"
       d="M 0,236.721 H 875.059 V 0 H 0 Z"
       id="path2" /></clipPath></defs><sodipodi:namedview
   pagecolor="#ffffff"
   bordercolor="#666666"
   borderopacity="1"
   objecttolerance="10"
   gridtolerance="10"
   guidetolerance="10"
   inkscape:pageopacity="0"
   inkscape:pageshadow="2"
   inkscape:window-width="960"
   inkscape:window-height="1016"
   id="namedview43"
   showgrid="false"
   inkscape:zoom="0.89988352"
   inkscape:cx="288.4073"
   inkscape:cy="138.14983"
   inkscape:window-x="0"
   inkscape:window-y="27"
   inkscape:window-maximized="0"
   inkscape:current-layer="svg2" />

<path
   inkscape:connector-curvature="0"
   style="fill:#221f1f;stroke-width:1.38309801"
   d="m 763.22417,371.71404 v 42.02439 H 724.8288 v 18.99915 h 38.39537 v 42.025 h 18.20507 v -42.025 h 38.39473 V 413.73843 H 781.42924 V 371.71404 Z M 266.58474,474.76245 H 636.12793 V 325.1002 H 266.58474 Z"
   id="path7" /><g
   clip-path="url(#a)"
   transform="matrix(0.63223056,0,0,-0.63223056,266.58474,474.76245)"
   id="g13"><path
     style="fill:#ffffff"
     inkscape:connector-curvature="0"
     d="m 538.2623,203.3989 -55.568,-81.16 60.44,-88.672 h -55.813 l -33.213,47.47 -33.48,-47.584 h -55.446 c 1.506,3.126 60.695,88.786 60.695,88.786 l -25.228,35.099 -107.02,-0.122 c -4.991,-0.394 -11.11,1.121 -13.614,-4.509 -0.876,-1.865 -1.252,-4.614 -0.246,-6.496 0.867,-2.119 2.872,-4.115 5.113,-4.737 l 3.371,-0.254 h 42.837 c 19.848,-0.499 38.216,-12.852 46.822,-30.713 7.626,-14.989 6.501,-35.467 -1.996,-49.711 -10.734,-18.097 -29.846,-28.218 -50.569,-27.474 h -119.138 c 0,0 -18.237,65.821 -18.36,65.935 l -18.359,-65.935 -43.452,-0.008 -17.484,66.197 -19.112,-66.058 h -48.074 c 0,0 44.204,159.09 47.076,169.587 h 40.597 l 19.104,-70.934 19.48,70.934 39.836,0.009 34.092,-123.526 h 79.425 c 5.48,0.262 13.106,-1.234 15.356,5.498 0.876,3.012 0.132,6.129 -1.996,8.248 -2.005,1.751 -4.5,2.241 -7.118,2.241 l -42.705,0.008 c -20.233,0.622 -40.335,13.86 -47.829,33.331 -8.117,19.489 -3.371,42.848 11.486,57.933 10.489,10.515 22.974,15.759 37.595,16.381 l 140.11,0.122 28.231,-40.702 29.207,40.825 z"
     id="path9" /><path
     style="fill:#221f1f"
     inkscape:connector-curvature="0"
     d="m 653.6779,33.2585 c 2.856,20.12 54.579,32.427 54.579,76.371 0,41.86 -29.125,52.521 -54.579,52.521 -25.445,0 -52.563,-19.28 -52.563,-50.9 v -11.904 h 38.197 v 8.62 c 0,10.874 5.327,17.666 14.778,17.666 9.451,0 13.936,-5.557 13.936,-16.835 0,-25.454 -43.104,-35.719 -61.148,-67.752 -7.736,-13.67 -8.225,-41.045 -8.225,-41.045 h 107.16 v 33.258 z"
     id="path11" /></g></svg>