<?xml version="1.0" encoding="UTF-8" standalone="no"?>
<svg
   xmlns:dc="http://purl.org/dc/elements/1.1/"
   xmlns:cc="http://creativecommons.org/ns#"
   xmlns:rdf="http://www.w3.org/1999/02/22-rdf-syntax-ns#"
   xmlns:svg="http://www.w3.org/2000/svg"
   xmlns="http://www.w3.org/2000/svg"
   xmlns:sodipodi="http://sodipodi.sourceforge.net/DTD/sodipodi-0.dtd"
   xmlns:inkscape="http://www.inkscape.org/namespaces/inkscape"
   viewBox="0 0 600.27198 171.83996"
   height="171.83997"
   width="600.27197"
   xml:space="preserve"
   version="1.1"
   id="svg2"
   sodipodi:docname="logo.svg"
   inkscape:version="0.92.4 (5da689c313, 2019-01-14)"><sodipodi:namedview
     pagecolor="#ffffff"
     bordercolor="#666666"
     borderopacity="1"
     objecttolerance="10"
     gridtolerance="10"
     guidetolerance="10"
     inkscape:pageopacity="0"
     inkscape:pageshadow="2"
     inkscape:window-width="1366"
     inkscape:window-height="704"
     id="namedview52"
     showgrid="false"
     inkscape:zoom="1.1421655"
     inkscape:cx="216.41752"
     inkscape:cy="34.838317"
     inkscape:window-x="0"
     inkscape:window-y="27"
     inkscape:window-maximized="1"
     inkscape:current-layer="svg2" /><metadata
     id="metadata8"><rdf:RDF><cc:Work
         rdf:about=""><dc:format>image/svg+xml</dc:format><dc:type
           rdf:resource="http://purl.org/dc/dcmitype/StillImage" /><dc:title /></cc:Work></rdf:RDF></metadata><defs
     id="defs6"><clipPath
       id="clipPath16"
       clipPathUnits="userSpaceOnUse"><path
         id="path18"
         d="M 0,618.062 H 1949.984 V 0 H 0 Z"
         inkscape:connector-curvature="0" /></clipPath></defs><g
     id="g99"
     transform="matrix(0.25432998,0,0,0.25432998,-9.8260388,-12.324863)"><g
       id="g10"
       transform="matrix(1.25,0,0,-1.25,0,772.5775)"><g
         id="g12"><g
           id="g14"
           clip-path="url(#clipPath16)"><g
             id="g20"
             transform="translate(30.908,309.0299)"><path
               d="m 0,0 c 0,149.251 121.013,270.264 270.262,270.264 149.25,0 270.264,-121.013 270.264,-270.264 0,-149.25 -121.014,-270.262 -270.264,-270.262 C 121.013,-270.262 0,-149.25 0,0"
               style="fill:#000000;fill-opacity:1;fill-rule:nonzero;stroke:none"
               id="path22"
               inkscape:connector-curvature="0" /></g><g
             id="g24"
             transform="translate(405.6829,391.9049)"><path
               d="m 0,0 c -4.763,1.051 -9.038,5.4 -9.038,5.4 l 1.801,5.4 5.437,3.6 c 0,0 5.4,-0.449 7.2,-1.8 C 7.2,11.25 9,5.4 9,5.4 L 4.95,1.8 C 4.95,1.8 4.05,-0.899 0,0 m 30.601,30.637 7.236,10.802 h 9.002 c 0,0 7.649,-11.25 7.649,-13.052 0,-1.8 -5.85,-10.386 -5.85,-10.386 L 36.9,18.45 Z m 0,-90.075 c 6.112,-3.9 12.599,-3.825 18.9,-3.75 10.538,0.114 20.661,3.414 27.936,11.851 5.888,8.549 6.04,13.876 9.488,23.549 2.025,5.663 4.5,8.888 4.5,8.888 0,0 2.025,-7.65 1.801,-16.686 -0.151,-6.039 -1.238,-12.413 -4.951,-18.452 -7.2,-11.737 -13.987,-16.236 -18.936,-17.137 -4.951,-0.899 -18.9,-2.699 -27.902,1.35 -7.049,3.187 -10.836,10.387 -10.836,10.387 M -9.038,95.475 -52.274,32.438 -21.638,-34.237 32.4,-102.713 73.837,-117.112 126.112,-54.038 118.912,0 64.838,75.676 Z"
               style="fill:#f7b210;fill-opacity:1;fill-rule:nonzero;stroke:none"
               id="path26"
               inkscape:connector-curvature="0" /></g><g
             id="g28"
             transform="translate(84.9827,291.0299)"><path
               d="m 0,0 5.4,144.114 18.001,21.637 70.274,-52.276 18.001,106.763 3.6,-31.088 9.036,16.238 1.8,-14.438 12.601,16.238 2.1,-189.489 L 39.637,95.476 C 39.637,95.476 0,0.9 0,0"
               style="fill:#f7b210;fill-opacity:1;fill-rule:nonzero;stroke:none"
               id="path30"
               inkscape:connector-curvature="0" /></g><g
             id="g32"
             transform="translate(241.6956,507.2174)"><path
               d="m 0,0 121.95,34.237 c 0,0 -24.637,-14.436 -22.837,-14.436 1.799,0 16.2,-1.8 16.2,-1.8 L 86.512,0 l 32.4,1.8 -86.475,-50.436 v -3.602 l 93.713,5.402 -93.713,-66.677 v -19.798 l 70.577,8.699 c 0,0 -23.288,-13.237 -21.903,-12.338 1.353,0.937 17.101,0.638 17.101,0.638 l -9.899,-6.038 h 17.099 L 1.838,-216.187 Z"
               style="fill:#f7b210;fill-opacity:1;fill-rule:nonzero;stroke:none"
               id="path34"
               inkscape:connector-curvature="0" /></g><g
             id="g36"
             transform="translate(232.6956,235.1549)"><path
               d="m 0,0 -29.774,65.176 c 0,0 -16.5,14.888 -45.788,13.837 -6.451,-0.225 -59.738,-0.638 -63.151,-82.613 -3.038,-73.312 45.826,-107.963 45.826,-107.963 0,0 23.662,-17.474 41.175,-28.087 17.512,-10.649 49.912,-26.1 49.912,-26.1 L -27.001,-5.398 -81.075,-21.6 l 10.838,-1.8 -18.038,-14.438 16.199,-1.799 -10.799,-10.801 28.837,-1.799 10.8,-41.437 c 0,0 -21.975,6.9 -40.463,25.274 -15.148,15.075 -27.336,39.639 -28.011,59.401 -0.638,19.761 8.624,44.7 36.037,45.037 C -48.224,36.375 0,0 0,0"
               style="fill:#1082ce;fill-opacity:1;fill-rule:nonzero;stroke:none"
               id="path38"
               inkscape:connector-curvature="0" /></g><g
             id="g40"
             transform="translate(218.2962,190.1178)"><path
               d="m 0,0 102.675,140.549 64.874,-52.275 c 0,0 -8.101,2.065 -8.999,1.8 -0.901,-0.224 14.399,-21.599 14.399,-21.599 l -19.8,7.201 10.8,-14.4 -66.675,23.399 -5.399,-5.4 43.237,-72.076 -88.275,3.6 48.639,-93.674 -18.002,3.601 8.476,-21.189 -15.225,13.238 12.149,-22.687 z"
               style="fill:#1082ce;fill-opacity:1;fill-rule:nonzero;stroke:none"
               id="path42"
               inkscape:connector-curvature="0" /></g><g
             id="g44"
             transform="translate(371.4456,148.6803)"><path
               d="M 0,0 5.4,9 21.6,16.199 34.237,0 h 10.8 l 14.401,5.4 10.799,-23.4 -27,-12.637 H 30.601 l -5.402,10.799 H 7.2 Z m 93.675,48.637 c 0,0 6.562,2.926 7.2,1.801 0.637,-1.087 9,-1.801 9,-1.801 v -9 l -7.2,-5.4 -9,5.4 z m -37.836,9.002 -7.202,10.836 7.202,14.4 18.036,1.801 5.401,-10.801 -5.401,-14.437 z m -81.077,-34.202 -1.799,-64.875 28.838,-23.437 50.773,10.687 84.338,73.987 5.4,91.914 H 45.037 Z"
               style="fill:#1082ce;fill-opacity:1;fill-rule:nonzero;stroke:none"
               id="path46"
               inkscape:connector-curvature="0" /></g><g
             id="g48"
             transform="translate(1681.4611,146.5197)"><path
               d="m 0,0 h -149.62 c -5.312,0 -10.431,0.197 -15.549,0.984 -4.922,0.591 -9.45,1.575 -13.584,2.756 -5.906,1.378 -10.237,4.331 -12.993,6.691 -2.362,2.168 -3.544,4.531 -3.544,6.893 V 43.31 c 0.591,2.166 2.166,4.922 4.725,6.89 2.557,1.969 6.103,3.741 10.237,4.922 4.331,1.181 9.056,2.166 14.371,2.756 5.512,0.591 11.222,0.984 17.521,0.984 H 0 v -7.874 h -148.436 c -6.299,0 -11.812,-0.197 -16.733,-0.788 -4.728,-0.59 -9.45,-1.574 -13.781,-2.753 -5.906,-1.774 -7.087,-3.94 -8.268,-6.893 l -0.197,-6.1 H -0.197 L 0,26.38 h -187.218 v -8.465 c 0,-2.166 1.575,-4.331 9.447,-6.497 3.94,-0.987 8.271,-1.772 13.192,-2.365 4.919,-0.785 9.844,-0.982 14.765,-0.982 H 0 Z"
               style="fill:#231f20;fill-opacity:1;fill-rule:nonzero;stroke:none"
               id="path50"
               inkscape:connector-curvature="0" /></g><g
             id="g52"
             transform="translate(1372.3838,146.5197)"><path
               d="M 0,0 H -0.394 Z"
               style="fill:#231f20;fill-opacity:1;fill-rule:nonzero;stroke:none"
               id="path54"
               inkscape:connector-curvature="0" /></g><g
             id="g56"
             transform="translate(1462.5492,197.1136)"><path
               d="m 0,0 h -94.298 v -50.594 h -8.271 V 0 H -196.67 V 8.268 H 0 Z"
               style="fill:#231f20;fill-opacity:1;fill-rule:nonzero;stroke:none"
               id="path58"
               inkscape:connector-curvature="0" /></g><g
             id="g60"
             transform="translate(992.2376,170.93)"><path
               d="M 0,0 H -54.531 V -24.411 H -62.8 V 0 h -70.477 c -10.631,0 -23.818,1.381 -23.818,17.13 v 17.324 h 8.659 V 17.915 c 0,-10.434 10.04,-9.447 16.537,-9.447 H -0.591 16.34 c 6.693,0 16.733,-0.987 16.733,9.447 v 16.539 h 8.268 V 17.13 C 41.342,1.381 28.152,0 17.521,0 Z"
               style="fill:#231f20;fill-opacity:1;fill-rule:nonzero;stroke:none"
               id="path62"
               inkscape:connector-curvature="0" /></g><g
             id="g64"
             transform="translate(813.8786,196.9186)"><path
               d="m 0,0 h -157.492 c -7.874,0 -14.961,-1.381 -20.08,-3.546 -3.937,-1.575 -6.299,-3.347 -6.299,-4.922 0,-1.575 2.362,-3.344 6.299,-4.919 5.119,-1.971 12.206,-3.349 20.08,-3.349 h 68.312 54.532 c 5.906,0 11.615,-0.588 16.34,-1.769 2.559,-0.591 4.724,-1.378 6.89,-2.169 2.165,-0.981 4.134,-1.968 5.709,-2.952 3.74,-2.754 5.906,-6.103 5.906,-9.841 v -0.2 c 0,-5.315 -4.528,-9.84 -11.615,-12.793 -6.103,-2.362 -14.371,-3.94 -23.23,-3.94 h -155.326 v 8.468 h 155.326 c 7.874,0 14.962,1.378 20.08,3.344 3.74,1.772 6.3,3.546 6.3,4.921 v 0.2 c 0,0.785 -0.985,1.769 -2.363,2.756 -1.181,0.788 -2.559,1.375 -3.937,2.166 -1.772,0.588 -3.544,1.178 -5.709,1.769 -4.134,0.984 -9.056,1.575 -14.371,1.575 h -54.532 -68.312 c -8.859,0 -17.127,1.378 -23.23,3.94 -7.087,2.95 -11.615,7.478 -11.615,12.793 0,5.515 4.528,10.04 11.615,12.993 6.103,2.365 14.371,3.94 23.23,3.94 H 0 Z"
               style="fill:#231f20;fill-opacity:1;fill-rule:nonzero;stroke:none"
               id="path66"
               inkscape:connector-curvature="0" /></g><g
             id="g68"
             transform="translate(1245.9949,196.9186)"><path
               d="m 0,0 h -157.292 c -7.875,0 -14.962,-1.381 -20.08,-3.546 -3.937,-1.575 -6.3,-3.347 -6.3,-4.922 0,-1.575 2.363,-3.344 6.3,-4.919 5.118,-1.971 12.205,-3.349 20.08,-3.349 h 68.312 54.529 c 5.908,0 11.618,-0.588 16.145,-1.769 2.557,-0.591 4.725,-1.378 6.888,-2.169 2.168,-0.981 4.134,-1.968 5.712,-2.952 h -0.197 c 3.937,-2.754 6.1,-6.103 6.1,-9.841 v -0.2 c 0,-5.315 -4.528,-9.84 -11.615,-12.793 -6.1,-2.362 -14.172,-3.94 -23.033,-3.94 h -155.324 v 8.468 h 155.324 c 7.877,0 14.767,1.378 19.689,3.344 3.934,1.772 6.496,3.546 6.496,4.921 v 0.2 c 0,0.785 -0.984,1.769 -2.362,2.756 -1.181,0.788 -2.559,1.375 -3.937,2.166 -1.772,0.588 -3.544,1.178 -5.512,1.769 -4.135,0.984 -9.056,1.575 -14.374,1.575 h -54.529 -68.312 c -8.859,0 -17.127,1.378 -23.23,3.94 -7.087,2.95 -11.615,7.478 -11.615,12.793 0,5.515 4.331,10.04 11.615,12.993 6.103,2.365 14.371,3.94 23.23,3.94 H 0 Z"
               style="fill:#231f20;fill-opacity:1;fill-rule:nonzero;stroke:none"
               id="path70"
               inkscape:connector-curvature="0" /></g><g
             id="g72"
             transform="translate(1902.3436,205.3829)"><path
               d="M 0,0 C 2.166,0 4.331,-1.575 4.331,-4.134 V -58.862 H -3.74 v 47.444 l -89.377,-45.082 -1.181,-0.397 c -4.922,-1.965 -6.3,-1.574 -9.846,0 l -1.179,0.594 -88.591,45.079 v -47.639 h -8.465 v 54.926 c 0,2.559 2.165,3.937 4.134,3.937 1.184,0 1.771,-0.197 2.759,-0.787 l 92.129,-47.448 c 3.544,-1.574 4.137,-2.359 8.468,-0.196 l 81.499,41.538 11.618,6.3 C -1.181,-0.197 -0.396,0 0,0"
               style="fill:#231f20;fill-opacity:1;fill-rule:nonzero;stroke:none"
               id="path74"
               inkscape:connector-curvature="0" /></g><g
             id="g76"
             transform="translate(1496.2117,471.5432)"><path
               d="m 0,0 v -70.281 h -5.512 c -6.497,19.293 -16.34,33.861 -29.527,43.702 -12.996,10.042 -20.871,15.161 -36.423,15.161 -14.765,0 -27.167,-4.331 -37.01,-12.599 -10.043,-8.468 -16.931,-20.081 -21.065,-35.042 -4.134,-14.962 -6.1,-30.317 -6.1,-46.067 0,-19.095 2.166,-35.829 6.691,-50.203 4.528,-14.565 11.812,-22.24 21.852,-28.939 10.04,-6.691 18.111,-10.037 31.892,-10.037 4.921,0 9.843,0.393 14.764,1.375 5.122,1.184 9.056,2.562 14.369,4.531 v 50.791 c 0,7.874 -0.588,12.993 -1.572,15.355 -1.182,2.166 -3.347,4.331 -6.694,6.103 -3.349,1.969 -7.481,2.953 -12.402,2.953 h -5.119 v 5.315 h 96.858 v -5.315 c -7.284,-0.591 -12.403,-1.578 -15.358,-3.15 -2.953,-1.381 -5.119,-3.937 -6.691,-7.481 -0.788,-1.968 -1.184,-6.496 -1.378,-13.78 l -0.394,-49.216 c -12.602,-5.513 -24.214,-10.237 -37.995,-13.19 -13.78,-2.756 -28.154,-5.116 -42.916,-5.116 -18.899,0 -30.908,1.375 -43.31,6.494 -12.597,5.118 -23.427,9.843 -33.076,18.114 -9.45,8.462 -16.928,17.909 -22.44,28.346 -6.694,13.583 -10.237,28.545 -10.237,45.478 0,29.921 10.631,55.12 31.695,75.788 20.868,20.673 47.444,30.91 79.336,30.91 14.568,0 27.561,-3.74 41.145,-8.859 9.647,-3.74 15.356,-5.512 17.127,-5.512 2.756,0 5.119,0.984 7.481,2.953 2.363,1.969 4.528,5.709 6.497,11.418 z"
               style="fill:#231f20;fill-opacity:1;fill-rule:nonzero;stroke:none"
               id="path78"
               inkscape:connector-curvature="0" /></g><g
             id="g80"
             transform="translate(1139.0996,458.7479)"><path
               d="m 0,0 h -0.394 v 11.022 c 32.483,0.787 59.257,-8.463 79.73,-27.364 20.868,-19.487 31.299,-43.704 31.299,-72.838 0,-25.001 -7.869,-46.853 -23.424,-65.949 C 66.54,-180.134 37.404,-192.73 -0.394,-192.73 v 15.158 c 10.434,0 19.49,2.756 26.38,7.478 8.859,5.906 14.568,15.555 19.49,28.745 4.921,12.993 8.268,29.727 8.268,50.791 0,25.199 -2.559,43.901 -7.678,56.304 C 41.145,-21.655 34.648,-12.993 26.97,-7.68 19.096,-2.562 10.04,0 0,0 m -0.394,0 c -18.702,-0.197 -32.679,-9.059 -42.326,-26.776 -8.071,-14.371 -12.008,-35.433 -12.008,-62.6 0,-32.483 5.709,-56.894 17.914,-72.25 8.662,-10.827 21.065,-15.946 36.42,-15.946 v -15.158 h -0.197 c -37.798,0 -67.13,12.006 -87.801,36.023 -16.34,18.902 -24.608,41.344 -24.608,67.331 0,29.135 10.63,53.547 31.892,72.837 21.261,19.492 47.444,28.745 78.549,27.561 h 2.165 z"
               style="fill:#231f20;fill-opacity:1;fill-rule:nonzero;stroke:none"
               id="path82"
               inkscape:connector-curvature="0" /></g><g
             id="g84"
             transform="translate(921.3666,455.3996)"><path
               d="m 0,0 v -78.549 h 4.331 c 13.584,0 18.899,3.937 25.002,12.009 6.103,7.874 10.04,19.492 11.615,35.042 h 6.103 v -104.339 h -6.103 c -1.181,11.419 -3.937,20.674 -7.875,27.955 -4.134,7.284 -8.859,12.206 -14.174,14.568 -5.315,2.562 -8.662,3.741 -18.899,3.741 v -58.469 c 0,-11.025 0.591,-17.718 1.575,-20.08 0.984,-2.56 2.756,-4.528 5.512,-6.103 2.756,-1.575 7.087,-2.362 13.387,-2.362 H 33.27 c 19.883,0 25.592,4.331 37.601,12.993 12.009,8.465 20.277,18.308 25.593,36.026 h 5.906 l -9.253,-60.041 H -81.896 v 5.509 h 7.284 c 6.103,0 11.222,0.985 14.962,2.953 2.756,1.378 4.922,3.741 6.3,7.087 1.181,2.363 1.772,8.466 1.772,18.506 V -22.44 c 0,8.856 -0.197,14.371 -0.788,16.534 -0.984,3.347 -2.953,6.103 -5.906,7.877 -3.937,2.756 -9.449,4.132 -16.34,4.132 h -7.284 v 5.512 H 97.645 v -58.86 h -5.906 c -3.15,14.371 -7.284,24.608 -12.993,30.902 C 73.234,-10.04 65.556,-5.512 55.319,-2.559 49.413,-0.787 38.389,0 22.049,0 Z"
               style="fill:#231f20;fill-opacity:1;fill-rule:nonzero;stroke:none"
               id="path86"
               inkscape:connector-curvature="0" /></g><g
             id="g88"
             transform="translate(688.6728,467.0146)"><path
               d="m 0,0 110.441,-123.631 v 85.639 c 0,12.006 -1.772,20.077 -5.709,24.214 -5.315,5.707 -11.615,8.465 -24.214,8.266 V 0 h 66.737 v -5.512 c -9.45,-0.985 -11.025,-2.559 -14.175,-4.132 -3.346,-1.774 -5.906,-4.53 -7.677,-8.468 -1.772,-3.74 -2.756,-10.431 -2.756,-19.88 v -165.76 h -5.513 l -151.585,165.76 v -126.584 c 0,-11.418 2.953,-19.099 8.859,-23.23 5.906,-3.94 12.599,-5.909 20.277,-5.909 H 0 v -5.509 h -79.533 v 5.509 c 12.402,0 20.867,2.363 25.789,6.694 4.725,4.331 7.284,11.812 7.284,22.445 v 140.561 l -4.922,5.313 c -4.724,5.318 -8.859,8.662 -12.402,10.436 -3.741,1.575 -0.394,2.557 -7.087,2.754 V 0 Z"
               style="fill:#231f20;fill-opacity:1;fill-rule:nonzero;stroke:none"
               id="path90"
               inkscape:connector-curvature="0" /></g><g
             id="g92"
             transform="translate(1808.2435,458.7479)"><path
               d="m 0,0 h -0.394 v 11.022 c 32.483,0.787 59.254,-8.463 79.728,-27.364 21.064,-19.487 31.498,-43.704 31.498,-72.838 0,-25.001 -7.872,-46.853 -23.427,-65.949 -20.868,-25.005 -50.004,-37.601 -87.799,-37.601 v 15.158 c 10.431,0 19.49,2.756 26.377,7.478 8.862,5.906 14.571,15.555 19.49,28.745 4.922,12.993 8.271,29.727 8.271,50.791 0,25.199 -2.562,43.901 -7.68,56.304 C 41.142,-21.655 34.645,-12.993 26.97,-7.68 19.096,-2.562 10.037,0 0,0 m -0.394,0 c -18.705,-0.197 -32.679,-9.059 -42.326,-26.776 -8.074,-14.371 -12.008,-35.433 -12.008,-62.6 0,-32.483 5.709,-56.894 17.912,-72.25 8.662,-10.827 21.064,-15.946 36.422,-15.946 v -15.158 h -0.199 c -37.798,0 -67.131,12.006 -87.802,36.023 -16.337,18.902 -24.608,41.344 -24.608,67.331 0,29.135 10.631,53.547 31.892,72.837 21.261,19.492 47.444,28.745 78.552,27.561 h 2.165 z"
               style="fill:#231f20;fill-opacity:1;fill-rule:nonzero;stroke:none"
               id="path94"
               inkscape:connector-curvature="0" /></g><g
             id="g96"
             transform="translate(1590.5078,455.3996)"><path
               d="m 0,0 v -78.549 h 4.334 c 13.583,0 18.899,3.937 25.002,12.009 6.1,7.874 10.037,19.492 11.615,35.042 h 6.102 v -104.339 h -6.102 c -1.184,11.419 -3.938,20.674 -7.875,27.955 -4.134,7.284 -8.859,12.206 -14.174,14.568 -5.316,2.562 -8.665,3.741 -18.902,3.741 v -58.469 c 0,-11.025 0.593,-17.718 1.578,-20.08 0.984,-2.56 2.756,-4.528 5.512,-6.103 2.756,-1.575 7.087,-2.362 13.387,-2.362 H 33.27 c 19.886,0 25.595,4.331 37.601,12.993 12.012,8.465 20.277,18.308 25.595,36.026 h 5.906 L 93.12,-187.609 H -81.893 v 5.509 h 7.284 c 6.1,0 11.221,0.985 14.962,2.953 2.753,1.378 4.919,3.741 6.299,7.087 1.179,2.363 1.772,8.466 1.772,18.506 V -22.44 c 0,8.856 -0.197,14.371 -0.787,16.534 -0.985,3.347 -2.953,6.103 -5.906,7.877 -3.94,2.756 -9.45,4.132 -16.34,4.132 h -7.284 v 5.512 H 97.648 v -58.86 H 91.742 C 88.589,-32.874 84.458,-22.637 78.749,-16.343 73.236,-10.04 65.559,-5.512 55.322,-2.559 49.413,-0.787 38.389,0 22.052,0 Z"
               style="fill:#231f20;fill-opacity:1;fill-rule:nonzero;stroke:none"
               id="path98"
               inkscape:connector-curvature="0" /></g><g
             id="g100"
             transform="translate(1277.2972,388.0716)"><path
               d="m 0,0 h 1.184 c 11.218,0 20.277,-8.856 20.277,-19.49 0,-10.63 -9.059,-19.292 -20.277,-19.292 H 0 c -11.219,0 -20.274,8.662 -20.274,19.292 C -20.274,-8.856 -11.219,0 0,0"
               style="fill:#231f20;fill-opacity:1;fill-rule:nonzero;stroke:none"
               id="path102"
               inkscape:connector-curvature="0" /></g></g></g></g></g></svg>