<?xml version="1.0" encoding="UTF-8" standalone="no"?>
<!-- Created with Inkscape (http://www.inkscape.org/) -->

<svg
   xmlns:dc="http://purl.org/dc/elements/1.1/"
   xmlns:cc="http://creativecommons.org/ns#"
   xmlns:rdf="http://www.w3.org/1999/02/22-rdf-syntax-ns#"
   xmlns:svg="http://www.w3.org/2000/svg"
   xmlns="http://www.w3.org/2000/svg"
   xmlns:sodipodi="http://sodipodi.sourceforge.net/DTD/sodipodi-0.dtd"
   xmlns:inkscape="http://www.inkscape.org/namespaces/inkscape"
   version="1.1"
   width="1000"
   height="246.342"
   id="svg2"
   xml:space="preserve"
   inkscape:version="0.91 r13725"
   sodipodi:docname="Nintendo old logo.svg"><defs
   id="defs19" /><sodipodi:namedview
   pagecolor="#ffffff"
   bordercolor="#666666"
   borderopacity="1"
   objecttolerance="10"
   gridtolerance="10"
   guidetolerance="10"
   inkscape:pageopacity="0"
   inkscape:pageshadow="2"
   inkscape:window-width="1366"
   inkscape:window-height="705"
   id="namedview17"
   showgrid="false"
   inkscape:zoom="0.5"
   inkscape:cx="581.19403"
   inkscape:cy="209.33099"
   inkscape:window-x="-8"
   inkscape:window-y="-8"
   inkscape:window-maximized="1"
   inkscape:current-layer="svg2" />
<path
   d="M 130.79847,246.34197 C 52.408184,246.30647 0,190.77261 0,123.37543 0,56.013786 52.514757,-0.21267524 130.6919,4.4476074e-4 l 738.6517,0 C 947.48525,-0.21264524 1000,56.013786 1000,123.37543 c 0,67.39718 -52.39045,122.93102 -130.78071,122.96654 l -738.42082,0 z"
   id="path452"
   style="fill:#ed1c24;fill-opacity:1;fill-rule:nonzero;stroke:none"
   inkscape:connector-curvature="0" /><path
   d="M 131.02933,30.280335 C 68.942238,30.386875 30.865965,71.90852 30.865965,123.21561 c 0,51.32484 37.880924,93.13063 100.163365,92.91751 l 737.92359,0 c 62.3357,0.21311 100.18112,-41.59267 100.18112,-92.91751 0,-51.30709 -38.09405,-92.828735 -100.18112,-92.935275 l -737.92359,0 z"
   id="path454"
   style="fill:#ffffff;fill-opacity:1;fill-rule:nonzero;stroke:none"
   inkscape:connector-curvature="0" /><path
   d="m 99.18662,64.964566 36.15829,0 49.99289,80.876584 -0.0185,-80.876584 35.8386,0 0,115.987054 -35.80309,0 -50.24152,-80.87659 0,80.87659 -35.927399,0 0,-115.987054 z"
   id="path456"
   style="fill:#ed1c24;fill-opacity:1;fill-rule:nonzero;stroke:none"
   inkscape:connector-curvature="0" /><path
   d="m 416.06877,76.89892 34.9151,0 0,15.610579 18.87831,0 0,11.472611 -18.87831,0 0.0355,76.96951 -34.95063,0 0.0172,-76.96951 -18.94935,0 0,-11.437109 18.94935,-0.03542 -0.0172,-15.610576 z"
   id="path458"
   style="fill:#ed1c24;fill-opacity:1;fill-rule:nonzero;stroke:none"
   inkscape:connector-curvature="0" /><path
   d="m 241.12028,103.82226 34.87959,0 0,77.14712 -34.87959,0 0,-77.14712 z"
   id="path460"
   style="fill:#ed1c24;fill-opacity:1;fill-rule:nonzero;stroke:none"
   inkscape:connector-curvature="0" /><path
   d="m 241.03148,64.929031 34.96839,0 0,23.726659 -34.96839,0 0,-23.726659 z"
   id="path462"
   style="fill:#ed1c24;fill-opacity:1;fill-rule:nonzero;stroke:none"
   inkscape:connector-curvature="0" /><path
   d="m 852.27674,98.583217 c -28.14873,0 -50.96967,19.357813 -50.96967,43.279823 0,23.90424 22.82094,43.29757 50.96967,43.29757 28.16652,0 50.95193,-19.39333 50.95193,-43.29757 0,-23.92201 -22.78541,-43.279823 -50.95193,-43.279823 m 14.01224,43.173273 c 0,0 -0.0355,11.6502 -0.0355,16.33871 0,12.28954 -7.24588,17.35099 -14.26087,17.35099 -6.99722,0 -14.29634,-5.06145 -14.29634,-17.35099 0,-4.68851 0.0172,-16.64063 0.0172,-16.64063 0,0 0.0197,-11.38381 0.0197,-16.05455 0,-12.25404 7.33464,-17.27998 14.26085,-17.27998 6.96173,0 14.26087,5.02594 14.26087,17.27998 0,4.67074 -0.0172,13.3196 0.0355,16.39198 l 0,-0.0354 z"
   id="path464"
   style="fill:#ed1c24;fill-opacity:1;fill-rule:nonzero;stroke:none"
   inkscape:connector-curvature="0" /><path
   d="m 755.77181,142.00511 0,-13.7991 c 0,-11.93435 -8.24039,-14.95346 -13.65704,-14.95346 -5.55871,0 -13.67477,3.01911 -13.67477,14.95346 l 0,13.72806 0,13.72807 c 0,11.95212 8.11609,15.02451 13.67477,15.02451 5.41665,0 13.65704,-3.07239 13.65704,-15.02451 l 0,-13.65703 z m -0.23082,-77.040544 34.40008,0 0,115.969294 -34.47113,0 c 0,0 -0.0172,-3.74724 -0.0172,-4.43986 -13.33736,8.34695 -28.39737,8.34695 -40.15414,2.91255 -3.14345,-1.4918 -23.83321,-11.41934 -23.83321,-38.27164 0,-20.35236 19.1802,-42.587196 44.32762,-40.36729 8.27594,0.72816 14.1543,3.74727 19.74853,6.90845 l 0,-42.711504 z"
   id="path466"
   style="fill:#ed1c24;fill-opacity:1;fill-rule:nonzero;stroke:none"
   inkscape:connector-curvature="0" /><path
   d="m 357.64013,100.27038 c 13.0532,-0.372957 39.47928,8.15159 39.30169,38.68012 -0.0355,5.45214 -0.0172,41.98336 -0.0172,41.98336 l -34.63098,0 0,-50.64998 c 0,-6.73084 -6.42891,-14.18983 -15.94799,-14.18983 -9.50129,0 -16.55183,7.45899 -16.55183,14.18983 0,3.28549 0.0355,50.64998 0.0355,50.64998 l -34.6132,0 -0.0355,-77.1116 34.64874,-0.0354 c 0,0 -0.0355,6.19806 0,8.11609 6.67757,-6.35788 16.30319,-11.31277 27.81131,-11.63243"
   id="path468"
   style="fill:#ed1c24;fill-opacity:1;fill-rule:nonzero;stroke:none"
   inkscape:connector-curvature="0" /><path
   d="m 641.04569,100.27038 c 13.03544,-0.372957 39.49704,8.15159 39.31943,38.68012 -0.0355,5.45214 0,41.98336 0,41.98336 l -34.66647,0 0,-50.64998 c 0,-6.73084 -6.42892,-14.18983 -15.948,-14.18983 -9.50129,0 -16.53406,7.45899 -16.53406,14.18983 0,3.28549 0.0355,50.64998 0.0355,50.64998 l -34.61322,0 0,-77.1116 34.61322,-0.0354 c 0,0 -0.0355,6.19806 0,8.11609 6.65979,-6.35788 16.2677,-11.31277 27.79358,-11.63243"
   id="path470"
   style="fill:#ed1c24;fill-opacity:1;fill-rule:nonzero;stroke:none"
   inkscape:connector-curvature="0" /><path
   d="m 531.32768,153.95723 c 0,0 0.0172,0.3552 0.0172,4.68851 0,14.10101 -9.27042,17.24444 -14.42067,17.24444 -5.13249,0 -14.59831,-3.14343 -14.59831,-17.24444 0,-4.22677 0.0355,-15.9125 0.0355,-15.9125 0,0 65.69228,0.0354 65.69228,-0.0354 0,-23.90424 -23.08731,-43.706044 -51.44917,-43.706044 -28.36186,0 -51.34263,19.357804 -51.34263,43.297584 0,23.93975 22.98077,43.27982 51.34263,43.27982 23.53127,0 43.42187,-13.42616 49.47785,-31.64736 l -34.75528,0.0354 z M 502.362,130.69234 c -0.0712,-6.7486 0.0712,-11.2595 2.29098,-15.1133 2.71718,-4.75955 7.72537,-7.015 12.27179,-7.05053 4.52865,0.0354 9.53684,2.29098 12.23628,7.05053 2.21991,3.8538 2.34424,8.3647 2.29096,15.1133 l -29.09001,0 z"
   id="path472"
   style="fill:#ed1c24;fill-opacity:1;fill-rule:nonzero;stroke:none"
   inkscape:connector-curvature="0" /><path
   d="m 910.42125,77.698083 c 3.39206,0 6.42891,-0.213086 6.42891,-4.297776 0,-3.267761 -2.96583,-3.853809 -5.75406,-3.853809 l -5.4344,0 0,8.151585 4.75955,0 z m -4.75953,14.846918 -3.99589,0 0,-26.390573 10.01632,0 c 6.25135,0 9.34149,2.290982 9.34149,7.512266 0,4.724012 -2.96581,6.766341 -6.83737,7.263615 l 7.49449,11.614692 -4.4754,0 -6.97946,-11.454848 -4.5642,0 0,11.454848 z"
   id="path474"
   style="fill:#ed1c24;fill-opacity:1;fill-rule:nonzero;stroke:none"
   inkscape:connector-curvature="0" /><path
   d="m 910.47453,98.441142 c 10.37152,0 18.54087,-8.116082 18.54087,-19.144697 0,-10.851035 -8.16935,-19.002617 -18.54087,-19.002617 -10.46035,0 -18.64743,8.151585 -18.64743,19.002617 0,11.028615 8.18708,19.144697 18.64743,19.144697 m -23.2294,-19.144697 c 0,-13.142014 10.63792,-22.82092 23.2294,-22.82092 12.48489,0 23.14057,9.678903 23.14057,22.82092 0,13.248559 -10.65568,22.962995 -23.14057,22.962995 -12.59148,0 -23.2294,-9.714439 -23.2294,-22.962995"
   id="path476"
   style="fill:#ed1c24;fill-opacity:1;fill-rule:nonzero;stroke:none"
   inkscape:connector-curvature="0" /><metadata
   id="metadata9033"><rdf:RDF><cc:Work
       rdf:about=""><dc:title></dc:title><dc:format>image/svg+xml</dc:format><dc:type
         rdf:resource="http://purl.org/dc/dcmitype/StillImage" /></cc:Work></rdf:RDF></metadata></svg>