<?xml version="1.0" encoding="utf-8"?>
<!-- Generator: Adobe Illustrator 13.0.0, SVG Export Plug-In . SVG Version: 6.00 Build 14948)  -->
<!DOCTYPE svg PUBLIC "-//W3C//DTD SVG 1.1//EN" "http://www.w3.org/Graphics/SVG/1.1/DTD/svg11.dtd">
<svg version="1.1" id="Layer_3" xmlns="http://www.w3.org/2000/svg" xmlns:xlink="http://www.w3.org/1999/xlink" x="0px" y="0px"
	 width="566.924px" height="121.752px" viewBox="0 0 566.924 121.752" enable-background="new 0 0 566.924 121.752"
	 xml:space="preserve">
<g>
	<g>
		<g>
			<g>
				
					<linearGradient id="SVGID_1_" gradientUnits="userSpaceOnUse" x1="-8.1711" y1="2.5586" x2="-8.1711" y2="118.2725" gradientTransform="matrix(1 0 0 1 155 0)">
					<stop  offset="0" style="stop-color:#B2B2B4"/>
					<stop  offset="0.3516" style="stop-color:#B2B2B4"/>
					<stop  offset="0.3571" style="stop-color:#9BA29A"/>
					<stop  offset="0.6758" style="stop-color:#9BA29A"/>
					<stop  offset="0.6813" style="stop-color:#717274"/>
					<stop  offset="1" style="stop-color:#717274"/>
				</linearGradient>
				<path fill="url(#SVGID_1_)" d="M146.829,3.073c-38.667,0-61.867,30.933-61.867,58c0,27.067,19.333,58,61.867,58
					c34.8,0,61.867-30.933,61.867-58C208.696,34.006,185.496,3.073,146.829,3.073z M146.829,99.739
					c-19.333,0-30.933-11.599-30.933-38.666c0-27.067,11.6-38.667,30.933-38.667c19.333,0,30.934,11.601,30.934,38.667
					C177.762,88.141,166.162,99.739,146.829,99.739z"/>
			</g>
		</g>
		<g>
			<linearGradient id="SVGID_2_" gradientUnits="userSpaceOnUse" x1="427.1633" y1="2.5586" x2="427.1633" y2="118.2725">
				<stop  offset="0" style="stop-color:#B2B2B4"/>
				<stop  offset="0.3516" style="stop-color:#B2B2B4"/>
				<stop  offset="0.3571" style="stop-color:#9BA29A"/>
				<stop  offset="0.6758" style="stop-color:#9BA29A"/>
				<stop  offset="0.6813" style="stop-color:#717274"/>
				<stop  offset="1" style="stop-color:#717274"/>
			</linearGradient>
			<path fill="url(#SVGID_2_)" d="M444.564,119.073c-42.534,0-69.601-23.2-69.601-58c0-34.8,23.2-58,61.866-58
				c19.334,0,34.801,11.599,42.534,23.2c-3.866,7.733-19.333,19.334-19.333,19.334c-3.867,0-7.734-3.868-7.734-3.868
				c0-7.733,3.867-19.333-15.467-19.333c-19.332,0-30.934,7.733-30.934,38.667c0,23.2,19.334,38.666,38.668,38.666
				c3.866,0,11.6,0,11.6,0c3.867-3.866,7.733-7.733,7.733-11.599c7.733,0,7.733,0,7.733,0v30.933
				C471.63,119.073,460.031,119.073,444.564,119.073z"/>
		</g>
		<g>
			<g>
				
					<linearGradient id="SVGID_3_" gradientUnits="userSpaceOnUse" x1="113.6296" y1="2.5586" x2="113.6296" y2="118.2725" gradientTransform="matrix(1 0 0 1 155 0)">
					<stop  offset="0" style="stop-color:#B2B2B4"/>
					<stop  offset="0.3516" style="stop-color:#B2B2B4"/>
					<stop  offset="0.3571" style="stop-color:#9BA29A"/>
					<stop  offset="0.6758" style="stop-color:#9BA29A"/>
					<stop  offset="0.6813" style="stop-color:#717274"/>
					<stop  offset="1" style="stop-color:#717274"/>
				</linearGradient>
				<path fill="url(#SVGID_3_)" d="M313.096,107.473c-3.866-3.866-23.2-38.666-27.066-42.533c11.601,0,27.066-11.6,27.066-30.933
					c0-19.334-15.466-30.933-30.933-30.933c-15.467,0-46.401,0-65.734,0v7.733c7.733,0,7.733,11.599,7.733,11.599s0,77.333,0,81.201
					c0,3.866-3.867,7.733-7.733,7.733v7.733h41.083c0,0,0-2.416,0-7.733c-5.317,0-6.283-3.867-6.283-7.733c0-3.867,0-27.066,0-34.8
					c3.866,0,7.733,0,11.6,3.866c3.867,3.867,11.6,27.066,15.466,34.8c3.868,7.733,7.734,11.601,11.6,11.601
					c3.867,0,15.467,0,23.2,0s7.733-7.733,7.733-7.733S316.962,111.34,313.096,107.473z M266.696,53.34c-7.733,0-15.466,0-15.466,0
					c0-15.466,0-30.934,0-30.934s7.733,0,15.466,0s15.467,3.867,15.467,15.468C282.163,49.473,274.429,53.34,266.696,53.34z"/>
			</g>
		</g>
		<g>
			<linearGradient id="SVGID_4_" gradientUnits="userSpaceOnUse" x1="347.8967" y1="2.5591" x2="347.8967" y2="118.2728">
				<stop  offset="0" style="stop-color:#B2B2B4"/>
				<stop  offset="0.3516" style="stop-color:#B2B2B4"/>
				<stop  offset="0.3571" style="stop-color:#9BA29A"/>
				<stop  offset="0.6758" style="stop-color:#9BA29A"/>
				<stop  offset="0.6813" style="stop-color:#717274"/>
				<stop  offset="1" style="stop-color:#717274"/>
			</linearGradient>
			<path fill="url(#SVGID_4_)" d="M363.363,103.606c0,3.867,3.867,7.733,7.734,7.733v7.733h-46.4v-7.733
				c3.867,0,7.733-3.866,7.733-7.733V18.54c0-3.867-3.866-7.733-7.733-7.733V3.073h46.4v7.733c-3.867,0-7.734,3.866-7.734,7.733
				V103.606z"/>
		</g>
	</g>
</g>
</svg>
