<?xml version="1.0" encoding="utf-8"?>
<!-- Generator: Adobe Illustrator 13.0.0, SVG Export Plug-In . SVG Version: 6.00 Build 14948)  -->
<svg version="1.2" baseProfile="tiny" id="Layer_1" xmlns="http://www.w3.org/2000/svg" xmlns:xlink="http://www.w3.org/1999/xlink"
	 x="0px" y="0px" width="545px" height="82px" viewBox="14.968 80.666 545 82" xml:space="preserve">
<g>
	<g>
		<path fill="#C61717" d="M37.843,133.394c-0.077,0-0.156-0.018-0.229-0.053c-7.506-3.644-11.381-7.89-11.208-12.282
			c0.142-3.616,3.092-7.03,8.534-9.874c5.162-2.697,12.444-4.838,21.058-6.19c0.288-0.046,0.557,0.15,0.602,0.438
			c0.045,0.286-0.151,0.557-0.438,0.602c-17.449,2.74-28.447,8.514-28.703,15.067c-0.153,3.886,3.616,7.896,10.615,11.294
			c0.262,0.127,0.371,0.439,0.244,0.703C38.226,133.284,38.039,133.394,37.843,133.394z"/>
	</g>
	<g>
		<path fill="#C61717" d="M103.273,106.418c-0.029,0-0.058-0.002-0.086-0.007c-5.544-0.91-11.397-1.518-17.396-1.804
			c-0.291-0.015-0.515-0.261-0.5-0.552c0.014-0.29,0.265-0.512,0.55-0.5c6.04,0.289,11.933,0.9,17.518,1.817
			c0.286,0.047,0.481,0.318,0.433,0.604C103.749,106.235,103.526,106.418,103.273,106.418z"/>
	</g>
	<g>
		<path fill="#C61717" d="M86.708,142.36c-0.147,0-0.293,0-0.441-0.001c-0.291-0.001-0.525-0.237-0.524-0.527
			s0.235-0.524,0.525-0.524c0.001,0,0.001,0,0.002,0c0.145,0,0.292,0,0.438,0c28.163,0,50.385-7.319,50.678-16.729
			c0.103-3.293-2.541-6.633-7.65-9.658c-5.085-3.015-12.375-5.583-21.079-7.429c-0.284-0.062-0.465-0.34-0.406-0.624
			c0.06-0.284,0.34-0.465,0.624-0.405c8.814,1.868,16.213,4.48,21.397,7.553c5.458,3.234,8.281,6.897,8.166,10.597
			c-0.156,5.003-5.683,9.564-15.563,12.841C113.323,140.62,100.494,142.36,86.708,142.36z"/>
	</g>
	<polygon fill="#C61717" points="96.238,114.963 110.131,104.373 93.814,110.887 89.228,106.114 90.69,112.728 76.797,123.317 
		93.116,116.801 97.7,121.575 	"/>
	<g>
		<path fill="#C61717" d="M78.839,128.183c0.199-0.979,0.563-0.838,1.557-0.996l0.926-0.145l-0.289,1.542l-0.925,0.148
			C79.114,128.89,78.676,129.156,78.839,128.183z M76.833,126.77l-0.72,3.875c-0.198,1.059,0.123,1.399,1.141,1.238l5.895-0.936
			l1.264-6.796l-5.895,0.935C77.498,125.247,77.028,125.712,76.833,126.77z M114.257,120.653l-0.069,0.374l6.082-0.964
			c0.48-0.078,0.948-0.563,1.045-1.088c0.096-0.524-0.212-0.887-0.693-0.811l-1.562,0.246l-2.492,0.397l-0.631,0.099
			C115.207,119.023,114.405,119.856,114.257,120.653z M71.592,138.178l0.049-0.271c0.209,0.016,0.49,0.097,0.734,0.06l6.32-0.99
			c-0.235,1.26-1.9,1.575-4.442,1.979l-2.893,0.46l-1.551,8.34l3.8-0.602c9.356-0.924,12.916-5.76,14.059-11.524l11.401-1.809
			l1.837-9.887l0.927-0.147c1.016-0.161,0.866-0.346,0.671,0.711l-1.682,9.044l8.185-1.298l0.112-0.6
			c0.617,0.272,1.339,0.368,2.104,0.248l14.155-2.244l1.32-7.106l-0.917-0.652c0.795-0.941,1.415-2.094,1.594-3.061l0.223-1.121
			c0.706-4.19-3.158-5.304-4.921-5.023l-8.123,1.289c-1.438,0.229-3.023,1.231-4.176,2.56c-1.066-1.056-2.711-1.466-3.668-1.314
			l-9.043,1.435l1.012,2.237l8.156-1.292c1.176-0.188,1.962,0.282,2.177,1.213c-0.086,0.246-2.177,11.379-2.177,11.379l-2.925,0.465
			l1.568-8.428c0.194-1.056-0.125-1.396-1.141-1.235l-5.604,0.89l-1.839,9.886l-3.215,0.512l2.104-11.318l-2.646-3.122l-9.526,3.443
			l4.515-0.717l0.073-0.01l-2.871,15.446c-0.73,3.923-4.917,7.675-8.63,8.266l-3.8,0.602l0.576-3.09l2.891-0.458
			c2.541-0.405,5.402-2.947,5.896-5.607l0.312-1.674l-7.527,1.193c-1.614,0.257-2.49-0.724-2.173-2.429l1.35-7.262
			c0.239-1.289,1.044-2.36,2.121-2.918l0.019-0.193l3.776-2.906l-2.206,0.37c-1.173,0.186-3.35,1.065-4.733,2.83
			c-1.046-1.247-2.875-1.736-3.905-1.573l-8.113,1.289l1.322-7.107l5.919-0.938c3.151-0.499,6.638-4.043,7.257-7.372l0.89-4.788
			c0.62-3.332-1.723-5.95-4.874-5.45l-12.936,2.052l-2.757,14.829l-11.912,1.892c-1.008,0.159-1.989,1.154-2.186,2.22l-4.452,23.942
			c-0.198,1.066,0.459,1.801,1.468,1.643l22.729-3.607l1.839-9.886l0.925-0.147c1.019-0.16,0.869-0.343,0.671,0.713l-1.681,9.043
			L71.592,138.178z M54.726,132.757l-7.6,1.206l0.286-1.543l6.138-0.977l1.494-8.032l-6.139,0.975l0.286-1.545l7.6-1.206
			L54.726,132.757z M54.266,135.229l-0.631,3.397l-13.447,2.134l4.191-22.554l11.109-1.763l-0.575,3.09l-7.893,1.254l-1.205,6.487
			l6.43-1.02l-0.574,3.088l-6.431,1.02l-1.208,6.49L54.266,135.229z M69.712,136.078l-3.216,0.509l1.567-8.427
			c0.197-1.056-0.123-1.397-1.141-1.237l-5.604,0.89l-1.836,9.887l-3.217,0.511l2.412-12.976l0.075-0.012l10.669-1.691
			c1.614-0.258,2.49,0.722,2.172,2.429L69.712,136.078z M90.613,120.168l3.144-0.498l-2.413,12.976l-3.215,0.51l2.41-12.974
			L90.613,120.168z M110.116,126.283l1.116-6.002c0.354-1.899,2.394-3.763,4.132-4.039l7.52-1.191
			c1.267-0.202,2.147,1.213,1.889,2.599l-0.369,1.931c-0.259,1.386-1.673,2.857-2.939,3.058l-7.806,1.24l-0.112,0.701
			c-0.148,0.796,0.38,1.419,1.111,1.302l8.724-1.389l-0.588,3.166l-9.842,1.56C111.213,129.493,109.765,128.183,110.116,126.283z
			 M63.595,109.462l1.091-5.871l4.092-0.647c0.537-0.085,0.811,0.221,0.704,0.786l-0.746,4.019c-0.107,0.567-0.513,0.979-1.05,1.065
			L63.595,109.462z"/>
		<g>
			<path fill="#C61717" d="M89.753,112.208l-0.869-3.44l-0.489,0.06l-0.158,0.848c-0.109,0.589-0.582,1.067-1.138,1.157
				l-3.362,0.532c-0.555,0.089-0.873-0.267-0.763-0.854l1.694-9.114c0.109-0.586,0.582-1.065,1.136-1.153l3.364-0.533
				c0.555-0.088,0.872,0.267,0.762,0.853l-0.216,1.16l6.797-1.08l0.259-1.389c0.651-3.507-1.733-6.172-5.052-5.646l-6.503,1.031
				c-3.317,0.527-6.868,4.135-7.519,7.641l-1.809,9.73c-0.651,3.508,1.732,6.173,5.051,5.646l2.174-0.343L89.753,112.208z"/>
			<path fill="#C61717" d="M94.571,110.132c0.177-0.477,0.3-0.658,0.391-1.146l0.231-1.238l-2.705,0.43L94.571,110.132z"/>
		</g>
	</g>
</g>
<g>
	<g>
		<path fill="#F9F9F9" d="M210.313,141.697c0,0-22.097,0-35.514,0c-11.838,0-19.73-7.958-19.73-15.784s7.892-15.784,19.73-15.784
			c8.944,0,22.098,0,35.514,0v-7.893c0,0-22.097,0-35.514,0c-15.784,0-27.622,10.26-27.622,23.677
			c0,13.416,11.838,23.676,27.622,23.676c17.888,0,35.514,0,35.514,0V141.697z"/>
		<path fill="#020202" d="M210.313,151.123c0,0-17.625,0-35.514,0l0,0c-8.224,0-15.491-2.674-20.73-7.178l0,0
			c-5.239-4.496-8.432-10.865-8.426-18.032l0,0c-0.006-7.168,3.187-13.537,8.426-18.033l0,0c5.24-4.504,12.507-7.179,20.73-7.179
			l0,0c13.416,0,35.514,0,35.514,0l0,0h1.535v10.962h-1.535c-13.416,0-26.57,0-35.514,0l0,0c-5.574,0.001-10.14,1.869-13.304,4.586
			l0,0c-3.167,2.723-4.896,6.275-4.891,9.664l0,0c-0.005,3.388,1.724,6.94,4.891,9.663l0,0c3.165,2.718,7.73,4.585,13.304,4.586l0,0
			c13.416,0,35.514,0,35.514,0l0,0v1.535v-1.535h1.535v10.961H210.313L210.313,151.123z M156.069,110.207
			c-4.625,3.988-7.352,9.457-7.358,15.706l0,0c0.006,6.249,2.733,11.718,7.358,15.706l0,0c4.626,3.979,11.169,6.435,18.729,6.435
			l0,0c14.75,0,29.32,0,33.98,0l0,0v-4.822c-5.235,0-22.685,0-33.98,0l0,0c-12.514-0.001-21.219-8.433-21.264-17.318l0,0
			c0.045-8.886,8.75-17.317,21.264-17.318l0,0c8.603,0,21.1,0,33.98,0l0,0v-4.823c-5.235-0.001-22.685-0.001-33.98-0.001l0,0
			C167.238,103.771,160.695,106.229,156.069,110.207L156.069,110.207z"/>
	</g>
	<g>
		<g>
			<path fill="#F9F9F9" d="M418.575,102.236h-23.676c-15.785,0-27.622,10.26-27.622,23.677c0,13.416,11.837,23.676,27.622,23.676
				h23.676c15.784,0,27.621-10.26,27.621-23.676C446.196,112.496,434.359,102.236,418.575,102.236z M418.575,141.697h-23.676
				c-11.838,0-19.73-7.958-19.73-15.784s7.893-15.784,19.73-15.784h23.676c11.838,0,19.729,7.958,19.729,15.784
				S430.413,141.697,418.575,141.697z"/>
		</g>
		<g>
			<path fill="#020202" d="M394.899,151.123c-8.224,0-15.492-2.673-20.729-7.178l0,0c-5.241-4.496-8.433-10.865-8.427-18.032l0,0
				c-0.006-7.168,3.186-13.537,8.427-18.033l0,0c5.237-4.504,12.506-7.178,20.729-7.178l0,0h23.676v1.534v1.535h-23.676
				c-7.563,0-14.104,2.457-18.73,6.435l0,0c-4.625,3.989-7.352,9.457-7.357,15.707l0,0c0.006,6.249,2.732,11.718,7.357,15.706l0,0
				c4.626,3.979,11.168,6.436,18.73,6.436l0,0h23.676c7.56,0,14.104-2.457,18.729-6.436l0,0c4.625-3.988,7.353-9.457,7.358-15.706
				l0,0c-0.006-6.25-2.733-11.718-7.358-15.707l0,0c-4.626-3.978-11.17-6.435-18.729-6.435l0,0v-1.535v-1.534
				c8.223,0,15.491,2.674,20.73,7.178l0,0c5.239,4.496,8.431,10.865,8.426,18.033l0,0c0.005,7.167-3.187,13.536-8.426,18.032l0,0
				c-5.239,4.505-12.508,7.178-20.73,7.178l0,0H394.899L394.899,151.123z M394.899,143.231
				c-12.514-0.001-21.221-8.434-21.266-17.318l0,0c0.045-8.886,8.752-17.317,21.266-17.319l0,0h23.676
				c12.514,0.002,21.219,8.434,21.264,17.319l0,0c-0.045,8.885-8.75,17.317-21.264,17.318l0,0v-1.535v-1.534
				c5.573-0.001,10.14-1.868,13.303-4.586l0,0c3.168-2.722,4.897-6.275,4.893-9.663l0,0c0.005-3.389-1.725-6.941-4.893-9.664l0,0
				c-3.163-2.717-7.729-4.585-13.303-4.586l0,0h-23.676c-5.575,0.001-10.141,1.869-13.305,4.586l0,0
				c-3.167,2.723-4.896,6.275-4.892,9.664l0,0c-0.005,3.388,1.725,6.941,4.892,9.663l0,0c3.164,2.718,7.729,4.585,13.305,4.586l0,0
				h23.676v1.534v1.535H394.899L394.899,143.231z"/>
		</g>
	</g>
	<g>
		<g>
			<path fill="#F9F9F9" d="M253.72,102.236c-17.889,0-35.515,0-35.515,0v47.353c0,0,22.098,0,35.515,0
				c15.784,0,27.621-10.26,27.621-23.676C281.341,112.496,269.504,102.236,253.72,102.236z M253.72,141.697
				c-7.26,0-15.947,0-27.622,0v-31.568c8.769,0,18.894,0,27.622,0c11.838,0,19.729,7.958,19.729,15.784
				S265.558,141.697,253.72,141.697z"/>
		</g>
		<g>
			<path fill="#020202" d="M230.931,151.123c-7.202,0-12.713,0-12.725,0l0,0h-1.535v-50.422h1.535c0.01,0,4.406,0,11.048,0l0,0
				c6.642,0,15.521,0,24.464,0l0,0v1.536v1.534c-8.944-0.001-17.822-0.001-24.464,0l0,0c-4.315-0.001-7.683-0.001-9.515-0.001l0,0
				v44.283c2.124,0.001,6.262,0.001,11.192,0.001l0,0c7.201-0.001,16.08-0.001,22.788,0l0,0c7.561-0.001,14.104-2.457,18.73-6.436
				l0,0c4.626-3.988,7.353-9.457,7.357-15.706l0,0c-0.004-6.249-2.73-11.718-7.357-15.706l0,0
				c-4.625-3.979-11.169-6.436-18.73-6.437l0,0v-1.533v-1.535c8.224-0.001,15.493,2.674,20.729,7.178l0,0
				c5.242,4.496,8.434,10.865,8.428,18.033l0,0c0.006,7.167-3.186,13.536-8.428,18.032l0,0c-5.237,4.504-12.506,7.178-20.729,7.178
				l0,0C247.011,151.123,238.132,151.123,230.931,151.123L230.931,151.123z M226.098,143.231h-1.535v-34.637h1.535
				c8.769,0,18.894,0,27.621,0l0,0c12.516,0.001,21.22,8.433,21.265,17.318l0,0c-0.045,8.886-8.749,17.317-21.265,17.318l0,0v-1.534
				v-1.535c5.574-0.001,10.142-1.868,13.304-4.586l0,0c3.167-2.723,4.896-6.275,4.892-9.663l0,0
				c0.004-3.389-1.725-6.941-4.892-9.664l0,0c-3.163-2.717-7.73-4.585-13.304-4.586l0,0c-8.222,0-17.686,0-26.087,0l0,0v28.499
				c10.908,0,19.148,0,26.087,0l0,0v1.535v1.534C246.458,143.231,237.773,143.231,226.098,143.231L226.098,143.231z"/>
		</g>
	</g>
	<g>
		<g>
			<path fill="#F9F9F9" d="M352.369,125.913c3.946,0,7.893-5.7,7.893-9.646c0-7.892-3.946-14.03-11.839-14.03
				c-7.891,0-47.352,0-47.352,0v47.353h7.893v-19.73c11.838,0,31.568,0,35.514,0s7.892,3.947,7.892,7.893c0,3.946,0,11.838,0,11.838
				h7.893c0,0,0-3.945,0-11.838S352.369,125.913,352.369,125.913z M344.478,121.967c-7.892,0-35.514,0-35.514,0v-11.838
				c0,0,27.622,0,35.514,0c3.945,0,7.892,2.192,7.892,6.138C352.369,120.213,348.423,121.967,344.478,121.967z"/>
		</g>
		<g>
			<path fill="#020202" d="M350.836,151.123v-1.534c-0.002,0-0.002-7.893,0-11.838l0,0c0.01-1.452-0.768-3.1-2.018-4.341l0,0
				c-1.241-1.249-2.889-2.028-4.341-2.018l0,0c-3.779,0-22.044,0-33.979,0l0,0v19.73h-10.962v-50.422h1.535
				c0.021,0,9.865,0,20.717,0l0,0c10.851,0,22.689,0,26.635,0l0,0c4.344-0.02,7.854,1.758,10.089,4.646l0,0
				c2.245,2.88,3.281,6.725,3.284,10.92l0,0c-0.021,2.476-1.142,5.081-2.786,7.24l0,0c-0.887,1.135-1.942,2.173-3.152,2.898l0,0
				c0.491,0.396,1.016,0.854,1.544,1.382l0,0c2.143,2.137,4.395,5.479,4.395,9.964l0,0c0,7.893,0,11.838,0,11.838l0,0v1.534H350.836
				L350.836,151.123z M358.727,148.055c0-1.819,0-5.253,0.001-10.304l0,0c-0.001-3.198-1.487-5.653-3.162-7.448l0,0
				c-1.666-1.781-3.488-2.812-3.829-2.989l0,0c-0.046-0.024-0.053-0.028-0.053-0.028l0,0l0.686-1.373l-0.686,1.373l0.686-2.907
				c1.202,0.042,2.908-1.025,4.211-2.745l0,0c1.314-1.678,2.168-3.895,2.147-5.366l0,0c0.002-3.696-0.934-6.866-2.635-9.028l0,0
				c-1.71-2.154-4.12-3.447-7.67-3.468l0,0c-6.96,0-38.471,0-45.816,0l0,0v44.284h4.822v-19.73h1.535c11.838,0,31.567,0,35.514,0
				l0,0c2.493,0.011,4.792,1.206,6.511,2.915l0,0c1.711,1.719,2.904,4.019,2.915,6.512l0,0c0,2.864,0,7.808,0,10.304l0,0H358.727
				L358.727,148.055z M323.762,123.502c-7.893,0-14.783,0-14.798,0l0,0h-1.535v-14.908h1.535c0.015,0,6.905,0,14.798,0l0,0
				c7.892,0,16.77,0,20.716,0l0,0c2.255,0.005,4.506,0.608,6.309,1.87l0,0c1.799,1.238,3.134,3.295,3.117,5.803l0,0
				c0.028,2.512-1.362,4.521-3.182,5.629l0,0c-1.822,1.138-4.047,1.6-6.244,1.606l0,0v-1.535v-1.534
				c1.748,0.005,3.471-0.409,4.608-1.135l0,0c1.14-0.755,1.724-1.597,1.75-3.031l0,0c-0.017-1.438-0.655-2.449-1.815-3.293l0,0
				c-1.158-0.823-2.852-1.315-4.543-1.311l0,0c-3.946,0-12.824,0-20.716,0l0,0c-5.657,0-10.8,0-13.264,0l0,0v8.77
				c2.464,0,7.606,0,13.264,0l0,0c7.892,0,16.77,0,20.716,0l0,0v1.534v1.535C340.531,123.502,331.653,123.502,323.762,123.502
				L323.762,123.502z"/>
		</g>
	</g>
	<g>
		<path fill="#F9F9F9" d="M289.892,129.858c-2.18,0-3.946-1.767-3.946-3.945s1.767-3.946,3.946-3.946h2.959
			c2.18,0,3.946,1.768,3.946,3.946s-1.767,3.945-3.946,3.945H289.892z"/>
		<path fill="#020202" d="M289.891,131.393v-1.534v-1.534l2.96-0.001c1.331-0.001,2.409-1.079,2.411-2.41l0,0
			c-0.002-1.332-1.08-2.41-2.411-2.412l0,0l-2.96,0.001c-1.331,0.001-2.408,1.079-2.411,2.411l0,0
			c0.003,1.331,1.08,2.409,2.411,2.41l0,0v1.535V131.393c-3.027,0-5.479-2.452-5.479-5.479l0,0c0-3.027,2.452-5.48,5.479-5.48l0,0
			h2.96c3.027,0,5.479,2.453,5.48,5.48l0,0c-0.001,3.027-2.453,5.479-5.48,5.479l0,0H289.891L289.891,131.393z"/>
	</g>
	<g>
		<path fill="#F9F9F9" d="M481.712,110.129v39.46h7.892v-39.46h7.893c3.945,0,11.837,0,11.837,7.892c0,7.893,0,31.568,0,31.568
			h7.893v-35.514c0-7.893-7.893-11.839-15.784-11.839c-3.945,0-27.622,0-31.568,0c-7.893,0-15.784,3.946-15.784,11.839
			c0,7.892,0,23.676,0,35.514h7.892c0,0,0-23.676,0-31.568c0-7.892,7.893-7.892,11.839-7.892H481.712z"/>
		<path fill="#020202" d="M507.798,151.123v-1.534c0,0,0-23.676,0-31.568l0,0c-0.004-1.723-0.413-2.84-1.003-3.664l0,0
			c-0.594-0.82-1.429-1.397-2.471-1.816l0,0c-2.078-0.843-4.871-0.887-6.828-0.876l0,0l-6.358-0.001v39.46h-10.961v-39.459h-6.358
			c-1.473-0.003-3.402,0.007-5.16,0.382l0,0c-1.775,0.376-3.263,1.088-4.139,2.311l0,0c-0.591,0.824-0.999,1.941-1.005,3.664l0,0
			c0,7.893,0,31.568,0,31.568l0,0v1.534h-10.961v-1.534c0-11.838,0-27.622,0-35.514l0,0c-0.02-4.483,2.326-7.994,5.616-10.157l0,0
			c3.291-2.185,7.504-3.211,11.703-3.216l0,0c3.945-0.001,27.623-0.001,31.568,0l0,0c4.198,0.005,8.41,1.031,11.702,3.216l0,0
			c3.29,2.163,5.637,5.674,5.616,10.157l0,0v37.048H507.798L507.798,151.123z M515.691,148.055v-33.979
			c-0.022-3.41-1.621-5.817-4.25-7.603l0,0c-2.628-1.761-6.308-2.706-10-2.702l0,0c-3.947,0-27.623,0-31.568,0l0,0
			c-3.694-0.004-7.374,0.941-10.001,2.702l0,0c-2.63,1.785-4.229,4.192-4.249,7.603l0,0c0,7.554,0,22.345,0,33.979l0,0h4.823
			c-0.002-5.372-0.002-23.355,0-30.034l0,0c-0.006-2.224,0.572-4.065,1.584-5.46l0,0c1.011-1.399,2.395-2.302,3.82-2.87l0,0
			c2.855-1.129,5.981-1.086,7.968-1.096l0,0h7.892v1.534v-1.534h1.535v39.46h4.822v-39.46h9.429
			c1.484,0.001,3.624-0.009,5.797,0.448l0,0c2.155,0.457,4.46,1.411,5.989,3.518l0,0c1.013,1.395,1.591,3.236,1.585,5.46l0,0
			c0,6.679,0,24.662,0,30.034l0,0H515.691L515.691,148.055z"/>
	</g>
	<g>
		<path fill="#F9F9F9" d="M537.763,108.902c0,0-0.946,0,2.937,0c5.259,0,9.062-2.685,9.062-8.726c0-3.883-2.46-8.39-7.766-8.39
			c-3.884,0-12.514,0-16.397,0v6.04c0,0,8.014,0,11.896,0c1.696,0,3.598,0.281,3.598,2.35c0,1.958-1.512,2.685-3.262,2.685h-4.916
			c-8.827,0-9.896,6.299-9.896,11.219v3.884h26.305v-6.479h-17.504C531.818,108.465,535.174,108.902,537.763,108.902z"/>
		<path fill="#020202" d="M522.139,118.84v-4.76c0.005-2.52,0.255-5.478,1.772-7.919l0,0c1.514-2.459,4.391-4.201,9-4.176l0,0h4.918
			c0.758,0.003,1.399-0.169,1.777-0.445l0,0c0.369-0.283,0.588-0.607,0.606-1.363l0,0c-0.039-0.757-0.219-0.902-0.664-1.159l0,0
			c-0.46-0.229-1.257-0.317-2.056-0.313l0,0c-3.883,0-11.896,0-11.896,0l0,0h-0.876V90.91h0.876c3.883,0,12.513,0,16.397,0l0,0
			c2.904-0.01,5.146,1.271,6.559,3.071l0,0c1.422,1.8,2.082,4.071,2.085,6.195l0,0c0.008,3.196-1.03,5.675-2.854,7.284l0,0
			c-1.82,1.611-4.313,2.318-7.085,2.318l0,0c-1.307,0-2.066,0-2.498,0l0,0c-0.224,0-0.357,0-0.438,0l0,0c-0.001,0-0.102,0-0.102,0
			l0,0c-0.01,0-0.017,0-0.024,0l0,0c-0.564-0.003-1.142-0.022-1.691-0.022l0,0c-1.02-0.007-1.956,0.084-2.486,0.343l0,0
			c-0.275,0.153-0.466,0.278-0.587,0.508l0,0h17.327v8.232H522.139L522.139,118.84z M525.397,107.091
			c-1.224,1.938-1.51,4.59-1.504,6.989l0,0v3.007h24.554v-4.726H530.94v-0.877c-0.043-1.423,0.749-2.54,1.778-2.975l0,0
			c1.007-0.459,2.133-0.5,3.227-0.507l0,0c0.634,0,1.255,0.022,1.817,0.022l0,0c0.236,0,0.961,0,2.937,0l0,0
			c2.488,0,4.524-0.635,5.921-1.877l0,0c1.393-1.242,2.256-3.128,2.263-5.972l0,0c0.005-1.76-0.567-3.681-1.702-5.106l0,0
			c-1.143-1.424-2.787-2.396-5.186-2.406l0,0c-3.614,0-11.336,0-15.521,0l0,0v4.287c2.185,0,7.916,0,11.019,0l0,0
			c0.896,0.005,1.896,0.057,2.813,0.483l0,0c0.929,0.401,1.698,1.431,1.661,2.742l0,0c0.017,1.202-0.518,2.221-1.34,2.79l0,0
			c-0.815,0.576-1.806,0.768-2.798,0.772l0,0h-4.918C528.694,103.764,526.624,105.171,525.397,107.091L525.397,107.091z
			 M537.763,108.902v-0.877V108.902L537.763,108.902z"/>
	</g>
</g>
</svg>
