<?xml version="1.0" encoding="UTF-8" standalone="no"?>
<!-- Created with Inkscape (http://www.inkscape.org/) -->

<svg
   xmlns:dc="http://purl.org/dc/elements/1.1/"
   xmlns:cc="http://creativecommons.org/ns#"
   xmlns:rdf="http://www.w3.org/1999/02/22-rdf-syntax-ns#"
   xmlns:svg="http://www.w3.org/2000/svg"
   xmlns="http://www.w3.org/2000/svg"
   xmlns:xlink="http://www.w3.org/1999/xlink"
   xmlns:sodipodi="http://sodipodi.sourceforge.net/DTD/sodipodi-0.dtd"
   xmlns:inkscape="http://www.inkscape.org/namespaces/inkscape"
   width="465mm"
   height="180mm"
   viewBox="0 0 465 180"
   version="1.1"
   id="svg1765"
   inkscape:version="0.92.4 (5da689c313, 2019-01-14)"
   sodipodi:docname="pspminis.svg">
  <defs
     id="defs1759">
    <linearGradient
       inkscape:collect="always"
       id="linearGradient998">
      <stop
         style="stop-color:#000000;stop-opacity:1;"
         offset="0"
         id="stop994" />
      <stop
         style="stop-color:#000000;stop-opacity:0;"
         offset="1"
         id="stop996" />
    </linearGradient>
    <clipPath
       style="clip-rule:nonzero"
       id="clp2">
      <path
         inkscape:connector-curvature="0"
         d="M 234.2,0.1382 H 5879.3 V 7919 H 234.2 Z"
         id="path5264" />
    </clipPath>
    <clipPath
       style="clip-rule:nonzero"
       id="clp3">
      <path
         inkscape:connector-curvature="0"
         d="M 234.06,0 H 5879.3 V 7919 H 234.06 Z"
         id="path5273" />
    </clipPath>
    <clipPath
       style="clip-rule:nonzero"
       id="clp4">
      <path
         inkscape:connector-curvature="0"
         d="M 437.5,278.39 H 1028 V 456.94 H 437.5 Z"
         id="path5282" />
    </clipPath>
    <clipPath
       style="clip-rule:nonzero"
       id="clp5">
      <path
         inkscape:connector-curvature="0"
         d="M 234.06,0 H 5879.3 V 7919 H 234.06 Z"
         id="path5291" />
    </clipPath>
    <clipPath
       style="clip-rule:nonzero"
       id="clp6">
      <path
         inkscape:connector-curvature="0"
         d="M 437.5,278.39 H 1028 V 456.94 H 437.5 Z"
         id="path5330" />
    </clipPath>
    <clipPath
       style="clip-rule:nonzero"
       id="clp7">
      <path
         inkscape:connector-curvature="0"
         d="M 234.06,0 H 5879.3 V 7919 H 234.06 Z"
         id="path5341" />
    </clipPath>
    <clipPath
       style="clip-rule:nonzero"
       id="clp8">
      <path
         inkscape:connector-curvature="0"
         d="m 4026.3,282.71 h 699.8 v 170.38 h -699.8 z"
         id="path5418" />
    </clipPath>
    <clipPath
       style="clip-rule:nonzero"
       id="clp9">
      <path
         inkscape:connector-curvature="0"
         d="M 234.06,0 H 5879.3 V 7919 H 234.06 Z"
         id="path5427" />
    </clipPath>
    <clipPath
       style="clip-rule:nonzero"
       id="clp10">
      <path
         inkscape:connector-curvature="0"
         d="M 2444.9,428.65 V 306.69 h 506 v 121.96"
         id="path5476" />
    </clipPath>
    <clipPath
       style="clip-rule:nonzero"
       id="clp11">
      <path
         inkscape:connector-curvature="0"
         d="M 234.06,0 H 5879.3 V 7919 H 234.06 Z"
         id="path5485" />
    </clipPath>
    <clipPath
       style="clip-rule:nonzero"
       id="clp12">
      <path
         inkscape:connector-curvature="0"
         d="M 2444.9,428.65 V 306.69 h 506 v 121.96"
         id="path5496" />
    </clipPath>
    <clipPath
       style="clip-rule:nonzero"
       id="clp13">
      <path
         inkscape:connector-curvature="0"
         d="M 234.06,0 H 5879.3 V 7919 H 234.06 Z"
         id="path5505" />
    </clipPath>
    <clipPath
       style="clip-rule:nonzero"
       id="clp14">
      <path
         inkscape:connector-curvature="0"
         d="M 2444.9,428.65 V 306.69 h 506 v 121.96"
         id="path5514" />
    </clipPath>
    <clipPath
       style="clip-rule:nonzero"
       id="clp15">
      <path
         inkscape:connector-curvature="0"
         d="M 234.06,0 H 5879.3 V 7919 H 234.06 Z"
         id="path5523" />
    </clipPath>
    <clipPath
       style="clip-rule:nonzero"
       id="clipPath5767">
      <path
         inkscape:connector-curvature="0"
         d="M 234.2,0.1382 H 5879.3 V 7919 H 234.2 Z"
         id="path5769" />
    </clipPath>
    <clipPath
       style="clip-rule:nonzero"
       id="clipPath5775">
      <path
         inkscape:connector-curvature="0"
         d="M 234.06,0 H 5879.3 V 7919 H 234.06 Z"
         id="path5777" />
    </clipPath>
    <clipPath
       style="clip-rule:nonzero"
       id="clipPath5783">
      <path
         inkscape:connector-curvature="0"
         d="M 437.5,278.39 H 1028 V 456.94 H 437.5 Z"
         id="path5785" />
    </clipPath>
    <clipPath
       style="clip-rule:nonzero"
       id="clipPath5791">
      <path
         inkscape:connector-curvature="0"
         d="M 234.06,0 H 5879.3 V 7919 H 234.06 Z"
         id="path5793" />
    </clipPath>
    <clipPath
       style="clip-rule:nonzero"
       id="clipPath5814">
      <path
         inkscape:connector-curvature="0"
         d="M 437.5,278.39 H 1028 V 456.94 H 437.5 Z"
         id="path5816" />
    </clipPath>
    <clipPath
       style="clip-rule:nonzero"
       id="clipPath5823">
      <path
         inkscape:connector-curvature="0"
         d="M 234.06,0 H 5879.3 V 7919 H 234.06 Z"
         id="path5825" />
    </clipPath>
    <clipPath
       style="clip-rule:nonzero"
       id="clipPath5865">
      <path
         inkscape:connector-curvature="0"
         d="m 4026.3,282.71 h 699.8 v 170.38 h -699.8 z"
         id="path5867" />
    </clipPath>
    <clipPath
       style="clip-rule:nonzero"
       id="clipPath5873">
      <path
         inkscape:connector-curvature="0"
         d="M 234.06,0 H 5879.3 V 7919 H 234.06 Z"
         id="path5875" />
    </clipPath>
    <clipPath
       style="clip-rule:nonzero"
       id="clipPath5901">
      <path
         inkscape:connector-curvature="0"
         d="M 2444.9,428.65 V 306.69 h 506 v 121.96"
         id="path5903" />
    </clipPath>
    <clipPath
       style="clip-rule:nonzero"
       id="clipPath5909">
      <path
         inkscape:connector-curvature="0"
         d="M 234.06,0 H 5879.3 V 7919 H 234.06 Z"
         id="path5911" />
    </clipPath>
    <clipPath
       style="clip-rule:nonzero"
       id="clipPath5918">
      <path
         inkscape:connector-curvature="0"
         d="M 2444.9,428.65 V 306.69 h 506 v 121.96"
         id="path5920" />
    </clipPath>
    <clipPath
       style="clip-rule:nonzero"
       id="clipPath5926">
      <path
         inkscape:connector-curvature="0"
         d="M 234.06,0 H 5879.3 V 7919 H 234.06 Z"
         id="path5928" />
    </clipPath>
    <clipPath
       style="clip-rule:nonzero"
       id="clipPath5934">
      <path
         inkscape:connector-curvature="0"
         d="M 2444.9,428.65 V 306.69 h 506 v 121.96"
         id="path5936" />
    </clipPath>
    <clipPath
       style="clip-rule:nonzero"
       id="clipPath5942">
      <path
         inkscape:connector-curvature="0"
         d="M 234.06,0 H 5879.3 V 7919 H 234.06 Z"
         id="path5944" />
    </clipPath>
    <clipPath
       style="clip-rule:nonzero"
       id="clipPath14221">
      <path
         inkscape:connector-curvature="0"
         id="path14223"
         d="M 234.06,0 H 5879.3 V 7919 H 234.06 Z" />
    </clipPath>
    <clipPath
       style="clip-rule:nonzero"
       id="clipPath14217">
      <path
         inkscape:connector-curvature="0"
         id="path14219"
         d="M 2444.9,428.65 V 306.69 h 506 v 121.96" />
    </clipPath>
    <clipPath
       style="clip-rule:nonzero"
       id="clipPath14213">
      <path
         inkscape:connector-curvature="0"
         id="path14215"
         d="M 234.06,0 H 5879.3 V 7919 H 234.06 Z" />
    </clipPath>
    <clipPath
       style="clip-rule:nonzero"
       id="clipPath14209">
      <path
         inkscape:connector-curvature="0"
         id="path14211"
         d="M 2444.9,428.65 V 306.69 h 506 v 121.96" />
    </clipPath>
    <clipPath
       style="clip-rule:nonzero"
       id="clipPath14205">
      <path
         inkscape:connector-curvature="0"
         id="path14207"
         d="M 234.06,0 H 5879.3 V 7919 H 234.06 Z" />
    </clipPath>
    <clipPath
       style="clip-rule:nonzero"
       id="clipPath14201">
      <path
         inkscape:connector-curvature="0"
         id="path14203"
         d="M 2444.9,428.65 V 306.69 h 506 v 121.96" />
    </clipPath>
    <clipPath
       style="clip-rule:nonzero"
       id="clipPath14197">
      <path
         inkscape:connector-curvature="0"
         id="path14199"
         d="M 234.06,0 H 5879.3 V 7919 H 234.06 Z" />
    </clipPath>
    <clipPath
       style="clip-rule:nonzero"
       id="clipPath14193">
      <path
         inkscape:connector-curvature="0"
         id="path14195"
         d="m 4026.3,282.71 h 699.8 v 170.38 h -699.8 z" />
    </clipPath>
    <clipPath
       style="clip-rule:nonzero"
       id="clipPath14189">
      <path
         inkscape:connector-curvature="0"
         id="path14191"
         d="M 234.06,0 H 5879.3 V 7919 H 234.06 Z" />
    </clipPath>
    <clipPath
       style="clip-rule:nonzero"
       id="clipPath14185">
      <path
         inkscape:connector-curvature="0"
         id="path14187"
         d="M 437.5,278.39 H 1028 V 456.94 H 437.5 Z" />
    </clipPath>
    <clipPath
       style="clip-rule:nonzero"
       id="clipPath14181">
      <path
         inkscape:connector-curvature="0"
         id="path14183"
         d="M 234.06,0 H 5879.3 V 7919 H 234.06 Z" />
    </clipPath>
    <clipPath
       style="clip-rule:nonzero"
       id="clipPath14177">
      <path
         inkscape:connector-curvature="0"
         id="path14179"
         d="M 437.5,278.39 H 1028 V 456.94 H 437.5 Z" />
    </clipPath>
    <clipPath
       style="clip-rule:nonzero"
       id="clipPath14173">
      <path
         inkscape:connector-curvature="0"
         id="path14175"
         d="M 234.06,0 H 5879.3 V 7919 H 234.06 Z" />
    </clipPath>
    <clipPath
       style="clip-rule:nonzero"
       id="clipPath14169">
      <path
         inkscape:connector-curvature="0"
         id="path14171"
         d="M 234.2,0.1382 H 5879.3 V 7919 H 234.2 Z" />
    </clipPath>
    <clipPath
       style="clip-rule:nonzero"
       id="clipPath14165">
      <path
         inkscape:connector-curvature="0"
         id="path14167"
         d="M 234.06,0 H 5879.3 V 7919 H 234.06 Z" />
    </clipPath>
    <clipPath
       style="clip-rule:nonzero"
       id="clipPath14161">
      <path
         inkscape:connector-curvature="0"
         id="path14163"
         d="M 2444.9,428.65 V 306.69 h 506 v 121.96" />
    </clipPath>
    <clipPath
       style="clip-rule:nonzero"
       id="clipPath14157">
      <path
         inkscape:connector-curvature="0"
         id="path14159"
         d="M 234.06,0 H 5879.3 V 7919 H 234.06 Z" />
    </clipPath>
    <clipPath
       style="clip-rule:nonzero"
       id="clipPath14153">
      <path
         inkscape:connector-curvature="0"
         id="path14155"
         d="M 2444.9,428.65 V 306.69 h 506 v 121.96" />
    </clipPath>
    <clipPath
       style="clip-rule:nonzero"
       id="clipPath14149">
      <path
         inkscape:connector-curvature="0"
         id="path14151"
         d="M 234.06,0 H 5879.3 V 7919 H 234.06 Z" />
    </clipPath>
    <clipPath
       style="clip-rule:nonzero"
       id="clipPath14145">
      <path
         inkscape:connector-curvature="0"
         id="path14147"
         d="M 2444.9,428.65 V 306.69 h 506 v 121.96" />
    </clipPath>
    <clipPath
       style="clip-rule:nonzero"
       id="clipPath14141">
      <path
         inkscape:connector-curvature="0"
         id="path14143"
         d="M 234.06,0 H 5879.3 V 7919 H 234.06 Z" />
    </clipPath>
    <clipPath
       style="clip-rule:nonzero"
       id="clipPath14137">
      <path
         inkscape:connector-curvature="0"
         id="path14139"
         d="m 4026.3,282.71 h 699.8 v 170.38 h -699.8 z" />
    </clipPath>
    <clipPath
       style="clip-rule:nonzero"
       id="clipPath14133">
      <path
         inkscape:connector-curvature="0"
         id="path14135"
         d="M 234.06,0 H 5879.3 V 7919 H 234.06 Z" />
    </clipPath>
    <clipPath
       style="clip-rule:nonzero"
       id="clipPath14129">
      <path
         inkscape:connector-curvature="0"
         id="path14131"
         d="M 437.5,278.39 H 1028 V 456.94 H 437.5 Z" />
    </clipPath>
    <clipPath
       style="clip-rule:nonzero"
       id="clipPath14125">
      <path
         inkscape:connector-curvature="0"
         id="path14127"
         d="M 234.06,0 H 5879.3 V 7919 H 234.06 Z" />
    </clipPath>
    <clipPath
       style="clip-rule:nonzero"
       id="clipPath14121">
      <path
         inkscape:connector-curvature="0"
         id="path14123"
         d="M 437.5,278.39 H 1028 V 456.94 H 437.5 Z" />
    </clipPath>
    <clipPath
       style="clip-rule:nonzero"
       id="clipPath14117">
      <path
         inkscape:connector-curvature="0"
         id="path14119"
         d="M 234.06,0 H 5879.3 V 7919 H 234.06 Z" />
    </clipPath>
    <clipPath
       style="clip-rule:nonzero"
       id="clipPath14113">
      <path
         inkscape:connector-curvature="0"
         id="path14115"
         d="M 234.2,0.1382 H 5879.3 V 7919 H 234.2 Z" />
    </clipPath>
    <linearGradient
       inkscape:collect="always"
       xlink:href="#linearGradient998"
       id="linearGradient1000"
       x1="6.555049"
       y1="205.70446"
       x2="459.76326"
       y2="205.70446"
       gradientUnits="userSpaceOnUse" />
  </defs>
  <sodipodi:namedview
     id="base"
     pagecolor="#ffffff"
     bordercolor="#666666"
     borderopacity="1.0"
     inkscape:pageopacity="0.0"
     inkscape:pageshadow="2"
     inkscape:zoom="0.35"
     inkscape:cx="288.29792"
     inkscape:cy="208.87367"
     inkscape:document-units="mm"
     inkscape:current-layer="layer1"
     showgrid="false"
     inkscape:pagecheckerboard="true"
     inkscape:window-width="1920"
     inkscape:window-height="1017"
     inkscape:window-x="-4"
     inkscape:window-y="-4"
     inkscape:window-maximized="1" />
  <metadata
     id="metadata1762">
    <rdf:RDF>
      <cc:Work
         rdf:about="">
        <dc:format>image/svg+xml</dc:format>
        <dc:type
           rdf:resource="http://purl.org/dc/dcmitype/StillImage" />
        <dc:title></dc:title>
      </cc:Work>
    </rdf:RDF>
  </metadata>
  <g
     inkscape:label="Ebene 1"
     inkscape:groupmode="layer"
     id="layer1"
     transform="translate(0,-117)">
    <g
       id="g1029">
      <g
         style="fill:#000080;fill-opacity:1;stroke:url(#linearGradient1000)"
         id="g976">
        <path
           id="path1788"
           transform="matrix(0.26458333,0,0,0.26458333,0,117)"
           style="fill:#000080;fill-opacity:1;stroke:url(#linearGradient1000);stroke-width:5.17267847;stroke-opacity:1"
           d="m 1735.1016,211.73438 -66.0235,2.74609 c -57.4988,2.39157 -69.7486,4.50128 -94.8808,16.34375 -39.733,18.72249 -54.7817,43.98396 -61.4629,103.17578 -2.7435,24.30569 -9.0458,51.04588 -14.0039,59.42188 -13.8133,23.33512 -43.5024,34.71611 -97.0059,37.18554 l -46.1211,2.12891 v 17.73437 17.73438 l 69.8399,-2.375 c 76.2281,-2.592 97.057,-8.23143 120.5839,-32.65039 21.6315,-22.45157 26.2771,-34.92869 30.9766,-83.17969 2.5905,-26.59672 8.1068,-51.05378 13.4981,-59.84375 12.5114,-20.39898 39.5628,-31.55054 83.666,-34.49219 59.8465,-3.99167 60.9336,-4.44763 60.9336,-25.52148 z m -985.64066,51.73242 -30.30664,1.52343 c -27.1474,1.3637 -30.48733,2.7508 -32.04102,13.3125 -0.95399,6.48507 -0.43527,15.05217 1.15234,19.03711 2.01926,5.06793 11.64813,7.2461 32.04102,7.2461 h 29.1543 v -20.5586 z m 474.37306,0 v 20.8125 20.8125 l 30.3066,-1.52149 30.3086,-1.52343 V 284.2793 266.51172 l -30.3086,-1.52149 z m -236.584,0.75586 c -16.17883,0.0338 -32.69063,1.51451 -49.01367,4.60742 -38.31753,7.26043 -58.86869,16.28272 -79.87695,35.0664 -26.49328,23.68778 -31.57545,39.1237 -34.08204,103.48633 l -2.32422,59.64649 h 31.49219 31.49024 l 2.96093,-57.88282 c 4.37265,-85.51032 19.62573,-101.68313 96.11524,-101.90234 49.03298,-0.14064 70.02418,6.90658 87.53908,29.38672 11.2251,14.40733 12.8018,22.43828 14.3789,73.28906 l 1.7715,57.10938 h 31.6152 31.6152 l -3.3867,-57.10938 c -1.8629,-31.4101 -6.9064,-66.57334 -11.207,-78.14062 -15.1264,-40.68545 -78.9796,-67.70324 -149.0879,-67.55664 z m -799.76367,0.20703 c -17.35296,-0.0136 -34.60991,1.48834 -50.61524,4.66406 -41.867895,8.30729 -54.834031,14.72953 -78.503902,38.88086 -25.652604,26.1744 -31.00586,44.56217 -31.00586,106.50977 v 52.54492 h 28.990234 28.988282 l 0.107422,-29.18946 c 0.185181,-51.00359 8.721275,-92.77001 21.675784,-106.05078 13.32577,-13.66136 54.8649,-27.21849 83.27148,-27.17578 31.1304,0.0469 59.48335,10.21004 77.85938,27.9082 16.69046,16.07479 17.37983,18.31172 17.43554,56.58594 0.0319,21.91726 1.52735,48.41671 3.32422,58.88672 l 3.26758,19.03516 h 27.7793 27.77929 l 3.86524,-59.56836 c 3.76109,-57.97399 4.31128,-59.9995 20.5332,-75.62305 28.4172,-27.36899 82.10567,-34.77739 131.50391,-18.14648 36.07018,12.14373 44.30049,28.91667 48.46289,98.76757 l 3.25195,54.57032 h 31.90039 31.90039 l -2.95312,-57.76368 c -3.05586,-59.75858 -9.17939,-79.53515 -32.17188,-103.90429 -45.96215,-48.71388 -189.89605,-54.69064 -250.01953,-10.38086 -11.72259,8.63928 -12.7676,8.52606 -30.93164,-3.3457 -26.36772,-17.2336 -71.34885,-27.17044 -115.69531,-27.20508 z M 1223.834,334.53711 v 66.24609 66.2461 h 31.7832 31.7812 l -1.4746,-64.72266 -1.4746,-64.72461 -30.3086,-1.52344 z m -537.62111,0.50586 v 65.99414 65.99219 h 31.62305 31.625 v -65.99219 -65.99414 h -31.625 z"
           inkscape:connector-curvature="0" />
        <g
           transform="matrix(0.87207952,0,0,2.0610605,59.428102,-1161.6888)"
           id="layer1-0"
           inkscape:label="Ebene 1"
           style="fill:#000080;fill-opacity:1;stroke:url(#linearGradient1000)">
          <path
             inkscape:connector-curvature="0"
             id="path6905"
             class="ps02"
             d="m 75.532272,696.74989 c 3.607489,0 5.772009,-0.31636 5.772009,-1.79356 0,-1.09308 -1.574244,-1.67777 -5.181733,-1.67777 h -4.984942 v 3.47133 z m -6.296775,4.5616 v -8.73625 h 7.411793 c 5.247267,0 6.624722,1.12981 6.624722,2.4404 0,1.95175 -4.066656,2.43756 -7.805366,2.43756 h -4.32904 v 3.85829 h -1.902109"
             style="fill:#000080;fill-opacity:1;fill-rule:nonzero;stroke:url(#linearGradient1000);stroke-width:0.35559291" />
          <path
             inkscape:connector-curvature="0"
             id="path6907"
             class="ps02"
             d="m 85.830051,701.31149 h 1.639784 v -8.73625 h -1.639784 z"
             style="fill:#000080;fill-opacity:1;fill-rule:nonzero;stroke:url(#linearGradient1000);stroke-width:0.35559291" />
          <path
             inkscape:connector-curvature="0"
             id="path6909"
             class="ps02"
             d="m 101.24394,698.00962 c -1.44297,0.25422 -2.95159,0.30505 -4.394582,0.35308 -2.558065,0.0847 -4.132223,0.48582 -4.132223,1.33316 0,0.76827 1.574158,1.12982 3.148342,1.12982 2.689263,0 5.378463,-0.55927 5.378463,-1.83313 z m -2.88599,-0.36155 c 0.65593,-0.0254 1.70538,-0.0988 2.23012,-0.209 0.59027,-0.10733 0.65587,-0.43498 0.65587,-0.65247 0,-0.74002 -1.04942,-1.27384 -3.673084,-1.27384 -2.295682,0 -3.93544,0.32764 -4.263391,1.41791 h -1.705374 c 0.262351,-1.48006 2.82039,-2.07602 6.03436,-2.07602 2.951619,0 5.247269,0.49992 5.247269,1.95455 v 3.42049 c 0,0.57056 0.39355,0.70333 1.77097,0.48583 v 0.57055 c -0.19673,0.0367 -0.78709,0.12146 -1.31183,0.12146 -0.26233,0 -0.45914,-0.0113 -0.72147,-0.0367 -1.18063,-0.0706 -1.37745,-0.49712 -1.37745,-0.93492 -1.37738,0.68073 -3.345132,1.04508 -5.444058,1.04508 -2.558012,0 -4.853754,-0.59598 -4.853754,-1.8077 0,-1.05354 1.70538,-1.69753 5.116138,-1.89241 l 2.295684,-0.13278"
             style="fill:#000080;fill-opacity:1;fill-rule:nonzero;stroke:url(#linearGradient1000);stroke-width:0.35559291" />
          <path
             inkscape:connector-curvature="0"
             id="path6911"
             class="ps02"
             d="m 107.08157,703.02031 c 0.45914,0.0367 0.91828,0.0763 1.37743,0.0763 1.96774,0 2.23006,-1.19194 2.88602,-1.73709 l -5.70641,-6.33257 h 1.9021 l 4.72259,5.40048 4.65694,-5.40048 h 1.83656 l -5.44408,6.19982 c -1.37743,1.57608 -2.29566,2.55903 -4.65696,2.55903 -0.59031,0 -1.11505,-0.0367 -1.57419,-0.0847 v -0.68073"
             style="fill:#000080;fill-opacity:1;fill-rule:nonzero;stroke:url(#linearGradient1000);stroke-width:0.35559291" />
          <path
             inkscape:connector-curvature="0"
             id="path6913"
             class="ps02"
             d="m 122.75784,698.70163 c 0.32795,1.56478 2.68929,2.13534 5.83763,2.13534 3.60748,0 5.11614,-0.84735 5.11614,-1.80769 0,-2.70589 -12.3312,-0.90949 -12.3312,-4.3413 0,-1.21453 2.29575,-2.34152 6.88711,-2.34152 4.5258,0 6.82146,1.1863 6.75587,2.60987 h -1.77092 c 0,-1.33602 -2.42688,-1.90658 -4.98495,-1.90658 -3.93549,0 -5.31286,1.03098 -4.98491,1.92916 0.85269,2.25399 12.39672,0.62989 12.39672,4.01364 0,1.60433 -2.75487,2.54772 -7.41181,2.54772 -4.26344,0 -7.41179,-0.94339 -7.41179,-2.83864 h 1.90211"
             style="fill:#000080;fill-opacity:1;fill-rule:nonzero;stroke:url(#linearGradient1000);stroke-width:0.35559291" />
          <path
             inkscape:connector-curvature="0"
             id="path6915"
             class="ps02"
             d="m 144.46855,701.3341 c -0.39359,0.0367 -1.1151,0.14686 -1.96777,0.14686 -1.63977,0 -2.55805,-0.31634 -2.55805,-1.25127 v -4.59831 h -2.09887 v -0.60445 h 2.09887 v -1.74837 h 1.70535 v 1.74837 h 2.68928 v 0.60445 h -2.68928 v 4.30739 c 0,0.6214 0,0.88691 1.44305,0.88691 0.45915,0 0.91828,-0.0367 1.37742,-0.0847 v 0.59317"
             style="fill:#000080;fill-opacity:1;fill-rule:nonzero;stroke:url(#linearGradient1000);stroke-width:0.35559291" />
          <path
             inkscape:connector-curvature="0"
             id="path6917"
             class="ps02"
             d="m 157.12762,698.00962 c -1.44303,0.25422 -2.886,0.30505 -4.32904,0.35308 -2.55802,0.0847 -4.13222,0.48582 -4.13222,1.33316 0,0.76827 1.5742,1.12982 3.14839,1.12982 2.6892,0 5.31287,-0.55927 5.31287,-1.83313 z m -2.8204,-0.36155 c 0.59028,-0.0254 1.63978,-0.0988 2.23006,-0.209 0.52474,-0.10733 0.59034,-0.43498 0.59034,-0.65247 0,-0.74002 -0.98388,-1.27384 -3.60749,-1.27384 -2.36131,0 -3.93549,0.32764 -4.26345,1.41791 h -1.70538 c 0.26237,-1.48006 2.82042,-2.07602 5.96883,-2.07602 2.95157,0 5.31287,0.49992 5.31287,1.95455 v 3.42049 c 0,0.57056 0.32795,0.70333 1.77095,0.48583 v 0.57055 c -0.26235,0.0367 -0.8527,0.12146 -1.31179,0.12146 -0.26241,0 -0.52476,-0.0113 -0.78715,-0.0367 -1.11504,-0.0706 -1.31176,-0.49712 -1.31176,-0.93492 -1.44306,0.68073 -3.34517,1.04508 -5.4441,1.04508 -2.55805,0 -4.91932,-0.59598 -4.91932,-1.8077 0,-1.05354 1.70536,-1.69753 5.11606,-1.89241 l 2.36133,-0.13278"
             style="fill:#000080;fill-opacity:1;fill-rule:nonzero;stroke:url(#linearGradient1000);stroke-width:0.35559291" />
          <path
             inkscape:connector-curvature="0"
             id="path6919"
             class="ps02"
             d="m 168.80288,701.3341 c -0.3936,0.0367 -1.11511,0.14686 -1.96779,0.14686 -1.63978,0 -2.55806,-0.31634 -2.55806,-1.25127 v -4.59831 h -2.03334 v -0.60445 h 2.03334 v -1.74837 h 1.70537 v 1.74837 h 2.68925 v 0.60445 h -2.68925 v 4.30739 c 0,0.6214 0,0.88691 1.44303,0.88691 0.45916,0 0.91832,-0.0367 1.37745,-0.0847 v 0.59317"
             style="fill:#000080;fill-opacity:1;fill-rule:nonzero;stroke:url(#linearGradient1000);stroke-width:0.35559291" />
          <path
             inkscape:connector-curvature="0"
             id="path6921"
             class="ps02"
             d="m 173.85333,701.31149 h -1.63975 v -6.28456 h 1.63975 z m -1.77092,-7.65729 v -1.07896 h 1.90215 v 1.07896 h -1.90215"
             style="fill:#000080;fill-opacity:1;fill-rule:nonzero;stroke:url(#linearGradient1000);stroke-width:0.35559291" />
          <path
             inkscape:connector-curvature="0"
             id="path6923"
             class="ps02"
             d="m 183.82322,695.51276 c -3.54192,0 -4.91935,1.29644 -4.91935,2.65504 0,1.56477 1.70539,2.65788 4.91935,2.65788 3.54194,0 4.98491,-1.3106 4.98491,-2.65788 0,-1.48004 -1.37742,-2.65504 -4.98491,-2.65504 z m -6.75592,2.65504 c 0,-1.83029 2.29571,-3.31315 6.75592,-3.31315 4.59137,0 6.82148,1.46874 6.82148,3.31315 0,1.9913 -2.68926,3.31316 -6.82148,3.31316 -3.67311,-0.0254 -6.75592,-1.11569 -6.75592,-3.31316"
             style="fill:#000080;fill-opacity:1;fill-rule:nonzero;stroke:url(#linearGradient1000);stroke-width:0.35559291" />
          <path
             inkscape:connector-curvature="0"
             id="path6925"
             class="ps02"
             d="m 194.71137,701.31149 h -1.70539 v -6.28456 h 1.70539 v 0.87279 c 1.31182,-0.61858 2.68919,-1.04507 4.65693,-1.04507 1.83657,0 3.41075,0.24289 4.46023,0.89818 0.7215,0.45194 0.78709,0.92361 0.78709,1.44335 v 4.11531 h -1.70536 v -4.1012 c 0,-1.12698 -1.11506,-1.69753 -3.80432,-1.69753 -2.09892,0 -3.54189,0.58184 -4.06663,1.22301 -0.32794,0.40109 -0.32794,0.75416 -0.32794,1.19195 v 3.38377"
             style="fill:#000080;fill-opacity:1;fill-rule:nonzero;stroke:url(#linearGradient1000);stroke-width:0.35559291" />
          <path
             inkscape:connector-curvature="0"
             id="path6927"
             class="ps02"
             d="m 211.24033,699.26937 c -0.1968,-0.0396 -0.45916,-0.0593 -0.85269,-0.0593 h -0.52474 v 0.58187 h 0.59037 c 0.26232,0 0.52467,-0.0113 0.65586,-0.0339 0.26236,-0.0452 0.39354,-0.12993 0.39354,-0.25422 0,-0.11581 -0.13118,-0.19488 -0.26234,-0.23442 z m -0.72153,-0.25703 c 0.45914,0 0.78709,0.0169 1.04948,0.0565 0.39354,0.0706 0.52472,0.20618 0.52472,0.41236 0,0.14406 -0.0656,0.24857 -0.32797,0.31636 -0.13116,0.0367 -0.32795,0.0621 -0.5247,0.0791 0.26234,0.0198 0.45916,0.0762 0.5903,0.16101 0.13119,0.0875 0.19679,0.17227 0.19679,0.25419 v 0.11864 c 0,0.0395 0,0.0819 0.0656,0.12145 0,0.0452 0,0.0734 0,0.0875 v 0.0198 h -0.59033 c 0,-0.005 0,-0.0113 0,-0.0141 0,-0.005 0,-0.0141 0,-0.0226 l -0.0656,-0.0508 v -0.12994 c 0,-0.19207 -0.1312,-0.31633 -0.32795,-0.37566 -0.13119,-0.0367 -0.39354,-0.0536 -0.72149,-0.0536 h -0.52474 v 0.64682 h -0.65588 v -1.62692 z m -2.03333,-0.0847 c -0.59028,0.24855 -0.8527,0.55079 -0.8527,0.90101 0,0.35871 0.26242,0.66095 0.8527,0.9095 0.59033,0.25138 1.24623,0.37567 2.09891,0.37567 0.8527,0 1.50862,-0.12429 2.09894,-0.37567 0.59033,-0.24855 0.85269,-0.55079 0.85269,-0.9095 0,-0.35022 -0.26236,-0.65246 -0.85269,-0.90101 -0.59032,-0.24855 -1.24624,-0.37282 -2.09894,-0.37282 -0.85268,0 -1.50858,0.12427 -2.09891,0.37282 z m 4.5258,1.94891 c -0.6559,0.28812 -1.5086,0.43498 -2.42689,0.43498 -0.91827,0 -1.77091,-0.14686 -2.42686,-0.43498 -0.65588,-0.28809 -0.98384,-0.63833 -0.98384,-1.0479 0,-0.40389 0.32796,-0.75414 0.98384,-1.03942 0.65595,-0.29092 1.50859,-0.43215 2.42686,-0.43215 0.91829,0 1.77099,0.14123 2.42689,0.43215 0.65593,0.28247 0.98388,0.63269 0.98388,1.03942 0,0.40957 -0.32795,0.75981 -0.98388,1.0479"
             style="fill:#000080;fill-opacity:1;fill-rule:nonzero;stroke:url(#linearGradient1000);stroke-width:0.35559291" />
          <path
             inkscape:connector-curvature="0"
             id="path6929"
             class="ps02"
             d="m 225.5392,696.74989 c 3.60748,0 5.83759,-0.31636 5.83759,-1.79356 0,-1.09308 -1.63974,-1.67777 -5.24727,-1.67777 h -4.98491 v 3.47133 z m -6.29679,4.5616 v -8.73625 h 7.41181 c 5.24735,0 6.62471,1.12981 6.62471,2.4404 0,1.95175 -4.00106,2.43756 -7.80533,2.43756 h -4.32899 v 3.85829 h -1.9022"
             style="fill:#000080;fill-opacity:1;fill-rule:nonzero;stroke:url(#linearGradient1000);stroke-width:0.35559291" />
          <path
             inkscape:connector-curvature="0"
             id="path6931"
             class="ps02"
             d="m 240.82192,695.51276 c -3.5419,0 -4.98492,1.29644 -4.98492,2.65504 0,1.56477 1.77097,2.65788 4.98492,2.65788 3.54191,0 4.98494,-1.3106 4.98494,-2.65788 -0.0656,-1.48004 -1.37743,-2.65504 -4.98494,-2.65504 z m -6.7559,2.65504 c 0,-1.83029 2.23012,-3.31315 6.7559,-3.31315 4.59139,0 6.75591,1.46874 6.75591,3.31315 0,1.9913 -2.68926,3.31316 -6.75591,3.31316 -3.73869,-0.0254 -6.7559,-1.11569 -6.7559,-3.31316"
             style="fill:#000080;fill-opacity:1;fill-rule:nonzero;stroke:url(#linearGradient1000);stroke-width:0.35559291" />
          <path
             inkscape:connector-curvature="0"
             id="path6933"
             class="ps02"
             d="m 251.77563,701.31149 h -1.70534 v -6.28456 h 1.70534 v 1.17784 h 0.0656 c 0.91829,-1.00837 2.29572,-1.35012 4.7226,-1.35012 v 0.79085 c -3.80431,-0.0367 -4.78818,1.175 -4.78818,2.58161 v 3.08438"
             style="fill:#000080;fill-opacity:1;fill-rule:nonzero;stroke:url(#linearGradient1000);stroke-width:0.35559291" />
          <path
             inkscape:connector-curvature="0"
             id="path6935"
             class="ps02"
             d="m 266.00893,701.3341 c -0.39354,0.0367 -1.11504,0.14686 -1.90216,0.14686 -1.70533,0 -2.62364,-0.31634 -2.62364,-1.25127 v -4.59831 h -2.0333 v -0.60445 h 2.0333 v -1.74837 h 1.70537 v 1.74837 h 2.75483 v 0.60445 h -2.75483 v 4.30739 c 0,0.6214 0.0656,0.88691 1.443,0.88691 0.45914,0 0.98389,-0.0367 1.37743,-0.0847 v 0.59317"
             style="fill:#000080;fill-opacity:1;fill-rule:nonzero;stroke:url(#linearGradient1000);stroke-width:0.35559291" />
          <path
             inkscape:connector-curvature="0"
             id="path6937"
             class="ps02"
             d="m 278.14325,698.00962 c -1.44297,0.25422 -2.88599,0.30505 -4.32899,0.35308 -2.55805,0.0847 -4.13222,0.48582 -4.13222,1.33316 0,0.76827 1.57417,1.12982 3.14835,1.12982 2.68925,0 5.31286,-0.55927 5.31286,-1.83313 z m -2.8204,-0.36155 c 0.59035,-0.0254 1.63979,-0.0988 2.23012,-0.209 0.52474,-0.10733 0.59028,-0.43498 0.59028,-0.65247 0,-0.74002 -0.98383,-1.27384 -3.60749,-1.27384 -2.36128,0 -3.93543,0.32764 -4.26339,1.41791 H 268.567 c 0.26234,-1.48006 2.82039,-2.07602 5.96876,-2.07602 2.95162,0 5.31287,0.49992 5.31287,1.95455 v 3.42049 c 0,0.57056 0.328,0.70333 1.77097,0.48583 v 0.57055 c -0.26232,0.0367 -0.8527,0.12146 -1.31183,0.12146 -0.26232,0 -0.52474,-0.0113 -0.78709,-0.0367 -1.11502,-0.0706 -1.31183,-0.49712 -1.31183,-0.93492 -1.44297,0.68073 -3.34514,1.04508 -5.444,1.04508 -2.55807,0 -4.91941,-0.59598 -4.91941,-1.8077 0,-1.05354 1.70538,-1.69753 5.11613,-1.89241 l 2.36128,-0.13278"
             style="fill:#000080;fill-opacity:1;fill-rule:nonzero;stroke:url(#linearGradient1000);stroke-width:0.35559291" />
          <path
             inkscape:connector-curvature="0"
             id="path6939"
             class="ps02"
             d="m 291.52387,700.82568 c 2.82042,0 4.91933,-0.88691 4.98493,-2.46298 0.13119,-1.5761 -1.50858,-2.84994 -4.98493,-2.84994 -3.08275,0 -4.91933,1.2117 -4.91933,2.62963 0,1.51958 1.70538,2.68329 4.91933,2.68329 z m -4.91933,0.48581 h -1.70537 v -8.73625 h 1.70537 v 3.45721 c 1.04943,-0.7626 3.14835,-1.1778 5.18168,-1.1778 4.46024,0 6.49355,1.5676 6.49355,3.32727 0,1.85289 -1.83657,3.29904 -6.55909,3.29904 -1.90219,0 -4.06671,-0.4491 -5.11614,-1.27386 v 0 1.10439"
             style="fill:#000080;fill-opacity:1;fill-rule:nonzero;stroke:url(#linearGradient1000);stroke-width:0.35559291" />
          <path
             inkscape:connector-curvature="0"
             id="path6941"
             class="ps02"
             d="m 302.01848,701.31149 h 1.70532 v -8.73625 h -1.70532 z"
             style="fill:#000080;fill-opacity:1;fill-rule:nonzero;stroke:url(#linearGradient1000);stroke-width:0.35559291" />
          <path
             inkscape:connector-curvature="0"
             id="path6943"
             class="ps02"
             d="m 318.41625,697.72999 c 0,-1.22303 -1.57418,-2.21723 -4.59139,-2.21723 -3.01721,0 -4.59138,1.03094 -4.91932,2.21723 z m -9.51071,0.61009 c 0,1.35578 1.70537,2.4856 4.91932,2.4856 2.16452,0 3.93544,-0.52257 4.39461,-1.44334 h 1.90216 c -0.85269,1.18629 -2.55807,2.09862 -6.29677,2.09862 -4.65699,0 -6.69029,-1.43203 -6.69029,-3.28774 0,-1.83312 2.49247,-3.33857 6.69029,-3.33857 4.00106,0 6.42791,1.22866 6.42791,3.48543 h -11.34723"
             style="fill:#000080;fill-opacity:1;fill-rule:nonzero;stroke:url(#linearGradient1000);stroke-width:0.35559291" />
        </g>
        <g
           transform="matrix(0.87207953,0,0,1.8577617,61.864848,-1084.418)"
           id="layer1-0-0"
           inkscape:label="Ebene 1"
           style="fill:#000080;fill-opacity:1;stroke:url(#linearGradient1000);stroke-opacity:1">
          <path
             inkscape:connector-curvature="0"
             id="path6945-5"
             class="ps02"
             d="M 5.6776741,649.86855 H 125.18472 v 15.26086 H 10.400262 v 13.22723 H 5.6776741 V 663.09575 H 120.46219 V 651.90219 H 5.6776741 v -2.03364"
             style="fill:#000080;fill-opacity:1;fill-rule:nonzero;stroke:url(#linearGradient1000);stroke-width:0.35559291;stroke-opacity:1" />
          <path
             inkscape:connector-curvature="0"
             id="path6947-2"
             class="ps02"
             d="m 274.47016,665.12941 v 13.22723 h -4.72252 V 663.09575 H 384.53215 V 651.90219 H 269.74764 v -2.03364 h 119.50703 v 15.26086 H 274.47016"
             style="fill:#000080;fill-opacity:1;fill-rule:nonzero;stroke:url(#linearGradient1000);stroke-width:0.35559291;stroke-opacity:1" />
          <path
             inkscape:connector-curvature="0"
             id="path6949-5"
             class="ps02"
             d="m 186.11894,649.86855 v 26.45442 h -60.93422 v 2.03367 h 65.9191 V 651.90219 H 252.038 v -2.03364 h -65.91906"
             style="fill:#000080;fill-opacity:1;fill-rule:nonzero;stroke:url(#linearGradient1000);stroke-width:0.35559291;stroke-opacity:1" />
        </g>
      </g>
    </g>
  </g>
</svg>
