<?xml version="1.0" encoding="UTF-8" standalone="no"?>
<!-- Generator: Adobe Illustrator 21.0.2, SVG Export Plug-In . SVG Version: 6.00 Build 0)  -->

<svg
   xmlns:dc="http://purl.org/dc/elements/1.1/"
   xmlns:cc="http://creativecommons.org/ns#"
   xmlns:rdf="http://www.w3.org/1999/02/22-rdf-syntax-ns#"
   xmlns:svg="http://www.w3.org/2000/svg"
   xmlns="http://www.w3.org/2000/svg"
   xmlns:sodipodi="http://sodipodi.sourceforge.net/DTD/sodipodi-0.dtd"
   xmlns:inkscape="http://www.inkscape.org/namespaces/inkscape"
   version="1.1"
   id="Ebene_1"
   x="0px"
   y="0px"
   viewBox="0 0 629.79999 134"
   enable-background="new 0 0 650 170"
   xml:space="preserve"
   sodipodi:docname="sfc.svg"
   width="629.79999"
   height="134"
   inkscape:version="0.92.4 (5da689c313, 2019-01-14)"><metadata
   id="metadata85"><rdf:RDF><cc:Work
       rdf:about=""><dc:format>image/svg+xml</dc:format><dc:type
         rdf:resource="http://purl.org/dc/dcmitype/StillImage" /><dc:title></dc:title></cc:Work></rdf:RDF></metadata><defs
   id="defs83" /><sodipodi:namedview
   pagecolor="#ffffff"
   bordercolor="#666666"
   borderopacity="1"
   objecttolerance="10"
   gridtolerance="10"
   guidetolerance="10"
   inkscape:pageopacity="0"
   inkscape:pageshadow="2"
   inkscape:window-width="1920"
   inkscape:window-height="1018"
   id="namedview81"
   showgrid="false"
   inkscape:pagecheckerboard="true"
   fit-margin-top="0"
   fit-margin-left="0"
   fit-margin-right="0"
   fit-margin-bottom="0"
   inkscape:zoom="0.84"
   inkscape:cx="-4.3854671"
   inkscape:cy="173.13454"
   inkscape:window-x="-8"
   inkscape:window-y="-8"
   inkscape:window-maximized="1"
   inkscape:current-layer="g78" />
<g
   id="g78"
   transform="translate(-3.2,-15.6)">
	
	
	
	
	
	
	
	
	
	
	
	
	
	
	
	
	
	
	
	
	
	
	
	
	
	
	<g
   id="g56">
		
	</g>
	
	
	<g
   id="g4578"><path
     style="fill:#ff0000;fill-opacity:1;stroke:none"
     inkscape:connector-curvature="0"
     id="path2"
     d="m 463.6,94.1 h -8.9 v -34 c 0,0 22.2,0 32.7,0 5.6,0 10.1,4.6 10.3,11 v 23.1 h -8.4 c 0,0 0,-14.7 0,-21.2 0,-3.2 -1.6,-5.4 -4.4,-5.6 -1.5,-0.1 -3,0 -4.6,0 0,8.9 0,26.8 0,26.8 h -8.8 c 0,0 0,-17.9 0,-26.9 -2.6,0 -5.2,0 -7.8,0 -0.1,8.8 -0.1,26.8 -0.1,26.8 z" /><path
     style="fill:#ff0000;fill-opacity:1;stroke:none"
     inkscape:connector-curvature="0"
     id="path4"
     d="M 598.9,94.1 H 590 v -34 c 0,0 22.2,0 32.7,0 5.6,0 10.1,4.6 10.3,11 v 23.1 h -8.4 c 0,0 0,-14.7 0,-21.2 0,-3.2 -1.6,-5.4 -4.4,-5.6 -1.5,-0.1 -3,0 -4.6,0 0,8.9 0,26.8 0,26.8 h -8.8 c 0,0 0,-17.9 0,-26.9 -2.6,0 -5.2,0 -7.8,0 -0.1,8.8 -0.1,26.8 -0.1,26.8 z" /><path
     style="fill:#ff0000;fill-opacity:1;stroke:none"
     inkscape:connector-curvature="0"
     id="path6"
     d="m 356,81.2 c 2.8,4.2 5.8,8.7 8.7,13 -3.4,0 -9.9,0 -9.9,0 l -7.7,-12.6 h -8.5 c 0,0 0,8.4 0,12.6 -2.9,0 -5.9,0 -8.8,0 0,-11.2 0,-22.7 0,-33.9 0.5,0 0.9,0 1.2,0 7.7,0 15.4,0 22.9,0 6.2,0 10.7,6.4 9.5,13.3 -0.7,3.8 -2.8,6.1 -6,7.3 -0.4,-0.1 -0.7,0 -1.4,0.3 z m -17.4,-5.8 c 3.8,0 11.5,0 11.5,0 0.6,0 1.2,-0.3 1.8,-0.6 1.2,-0.6 2.1,-1.5 2.1,-3.3 0,-1.8 -0.6,-3.2 -2.1,-4 -0.9,-0.4 -1.8,-0.6 -2.7,-0.6 h -10.6 c 0,0.1 0,5.7 0,8.5 z" /><path
     style="fill:#ff0000;fill-opacity:1;stroke:none"
     inkscape:connector-curvature="0"
     id="path8"
     d="m 449.8,94.1 h -22.4 c -1.7,0 -3.4,-0.4 -5,-0.9 -4.1,-1.4 -6.3,-5.1 -6,-9.8 0.2,-4.8 2.9,-8.5 7,-9.6 0.9,-0.3 1.9,-0.4 2.9,-0.4 h 14.2 c 0.3,0 -0.3,0 0,0 0,-3.7 -2.7,-6.8 -6.2,-6.8 h -15.6 v -6.5 h 18.2 c 7,0 12.4,5.9 12.6,13.8 v 20.2 z m -8.9,-14.3 c -3.7,0 -7.3,0 -11,0 -2.3,0 -3.8,1.5 -4,4 0,2.3 1.5,3.8 3.8,3.8 h 11.1 c 0.1,-0.2 0.1,-5.1 0.1,-7.8 z" /><path
     style="fill:#ff0000;fill-opacity:1;stroke:none"
     inkscape:connector-curvature="0"
     id="path10"
     d="m 186.6,94.1 v -6.6 h 19.6 c 1.8,0 2.9,-1 3.3,-3.1 0.3,-1.5 -0.6,-3.1 -2.1,-3.7 -0.7,-0.3 -1.5,-0.5 -2.3,-0.5 H 193 c -5,-0.1 -7.8,-3.4 -8.2,-9.3 -0.3,-4.6 2.7,-9.8 6.8,-10.7 0,0 17.5,0 25.9,0 0,2 0,4.7 0,6.9 -0.5,0 -0.8,0 -1.2,0 -5.8,0 -11.5,0 -17.3,0 -0.6,0 -1.1,0 -1.6,0.1 -1.4,0.3 -2.4,1.3 -2.6,2.7 -0.2,1.4 0.3,2.8 1.4,3.7 0.3,0.3 0.9,0.4 1.4,0.4 h 13.1 c 3.3,0.1 6.3,1 7.9,4.6 2.8,6.3 0.7,15.3 -7.8,15.4 z" /><path
     style="fill:#ff0000;fill-opacity:1;stroke:none"
     inkscape:connector-curvature="0"
     id="path12"
     d="m 567.3,59.4 c 3.4,0.1 6.7,0.5 9.7,2.2 4.3,2.2 7.5,5.7 8.4,11 1.1,6.6 0.1,12.9 -4.6,17.6 -2.7,2.7 -6.1,3.8 -9.5,4.6 -5.4,1 -10.5,0 -15.4,-2.7 -4.5,-2.6 -6.4,-7.1 -7,-12.5 -0.2,-2.8 -0.2,-5.5 0.6,-8.2 1.8,-6.3 6,-9.4 11.3,-10.8 2,-0.7 3.2,-1.1 6.5,-1.2 z m 9.7,17.7 c 0,-0.6 0,-1.3 -0.1,-1.9 -0.2,-4.6 -2.7,-8.2 -6.4,-9.2 -2.3,-0.6 -4.4,-0.6 -6.7,0 -3.2,0.8 -5.3,2.9 -6.2,6.5 -0.7,2.8 -0.7,5.7 -0.3,8.5 0.5,3.3 2.3,5.6 5.1,6.5 1.7,0.5 3.5,0.8 5.3,0.6 6.1,-0.2 9.5,-4.1 9.3,-11 z" /><path
     style="fill:#ff0000;fill-opacity:1;stroke:none"
     inkscape:connector-curvature="0"
     id="path14"
     d="m 325.1,73.8 c 0,2.2 0,4.3 0,6.5 -7,0 -13.9,0 -20.9,0 0,4.1 2.6,7 6.1,7 4.5,0 14.7,0 14.7,0 v 6.9 h -16.8 c -8.4,-0.4 -13.4,-7.1 -13.2,-15.9 0.1,-2.9 0.2,-5.7 1.2,-8.4 2,-5.9 6.8,-9.6 12.4,-9.6 5.1,0 16.6,0 16.6,0 v 6.9 c 0,0 -11.4,0 -14.1,0 -3.4,0 -6.1,2.8 -6.5,6.8 6.7,-0.2 13.6,-0.2 20.5,-0.2 z" /><path
     style="fill:#ff0000;fill-opacity:1;stroke:none"
     inkscape:connector-curvature="0"
     id="path16"
     d="m 245.8,87.2 c 0,0 0,-18.1 0,-27 2.9,0 5.6,0 8.6,0 0,11.1 0,33.9 0,33.9 h -22.6 c -2.8,0 -5.1,-1.1 -6.8,-3.6 -1.7,-2.3 -2.7,-4.7 -2.6,-7.9 0.1,-6.8 0,-22.5 0,-22.5 h 8.6 v 21.7 c -0.1,3.2 1.5,5.1 4.1,5.4 0.1,0 10.7,0 10.7,0 z" /><path
     style="fill:#ff0000;fill-opacity:1;stroke:none"
     inkscape:connector-curvature="0"
     id="path18"
     d="m 267.8,82.6 c 0,4 0,7.7 0,11.5 -2.8,0 -5.5,0 -8.4,0 0,-11.1 0,-33.9 0,-33.9 h 22.8 c 4.1,-0.1 8.1,3.3 9.3,8.3 1.8,7.4 -2.8,14.2 -9.6,14.2 -4.3,0 -8.6,0 -13,0 -0.2,-0.1 -0.5,-0.1 -1.1,-0.1 z m 0.3,-6.5 h 11.5 c 0.5,0 1,-0.4 1.4,-0.6 1.2,-1 2.1,-3.6 1.7,-5 -0.7,-2.3 -1.9,-3.3 -4,-3.3 H 268 v 8.9 z" /><path
     style="fill:#ff0000;fill-opacity:1;stroke:none"
     inkscape:connector-curvature="0"
     id="path20"
     d="m 414.1,60.1 v 6.5 h -14.7 c -2.5,0.1 -4.6,1.4 -6.1,3.7 -0.5,0.8 -0.8,1.8 -0.9,3.2 7.2,0 14.2,0 21.2,0 0,2.4 0,4.7 0,7.1 -7.1,0 -14.1,0 -21.3,0 0,4.3 0,8.9 0,13.4 -2.9,0 -8.7,0 -8.7,0 0,0 0,-13.9 0,-20 0,-7.3 4.9,-13.7 11.3,-13.9 z" /><path
     style="fill:#ff0000;fill-opacity:1;stroke:none"
     inkscape:connector-curvature="0"
     id="path22"
     d="M 546,87.4 V 94 h -15.8 c -6.5,0 -11.5,-4.3 -13.2,-11.6 -1.2,-5.6 -0.7,-11.4 2.1,-16.2 2.4,-4.1 5.8,-6.1 10.2,-6.1 h 16.9 v 6.8 h -14.3 c -2.8,0 -4.6,1.5 -5.5,4.5 -1.1,3.4 -1.2,7.4 -0.2,11 0.9,3.3 3.2,5.1 6.3,5.1 z" /><path
     style="fill:#ff0000;fill-opacity:1;stroke:none"
     inkscape:connector-curvature="0"
     id="path24"
     d="m 355.8,125.1 c 0,-2 0,-4.1 0,-6.1 7,0 13.9,0 20.9,0 0,-3.4 0,-6.8 0,-10.1 -6.9,0 -13.7,0 -20.6,0 0,-2 0,-4 0,-5.9 8.4,0 16.6,0 25.1,0 0,7.4 0,14.7 0,22.1 -8.5,0 -17,0 -25.4,0 z" /><path
     style="fill:#ff0000;fill-opacity:1;stroke:none"
     inkscape:connector-curvature="0"
     id="path26"
     d="m 185.5,108.6 c 0,-2.2 0,-4 0,-6 7,0 13.9,0 20.9,0 0.6,4.3 0.2,8.4 -1,12.5 -0.1,0.4 -0.3,1 -0.3,1 0,0 3.8,6.1 5.6,8.9 -2,0 -5.9,0 -5.9,0 0,0 -2,-3.1 -2.8,-4.3 -0.5,0.4 -0.8,0.6 -1.1,1 -2.5,2.2 -5.1,3.4 -8.4,3.3 0,0 -5.2,0 -7.8,0 v -6 c 0,0 3.6,0 5.5,0 2.4,0 4.6,-0.3 6.8,-1.1 3.4,-1.5 5.4,-5 5.2,-9.2 -5.5,-0.1 -11.1,-0.1 -16.7,-0.1 z" /><rect
     style="fill:#ff0000;fill-opacity:1;stroke:none"
     id="rect28"
     height="33.900002"
     width="9.3000002"
     y="60.099998"
     x="503" /><path
     style="fill:#ff0000;fill-opacity:1;stroke:none"
     inkscape:connector-curvature="0"
     id="path30"
     d="M 280.9,125.1 V 119 h 10.8 c 4.4,0.3 7.8,-2.9 7.7,-9.1 0,-0.4 0,-0.8 -0.1,-1.3 -6.5,0 -13.1,0 -19.8,0 0,-1.9 0,-3.8 0,-5.7 7.9,0 23.8,0 23.8,0 v 11 c 0,1 -0.3,2.2 -0.7,3.1 -1.6,4.8 -4.9,7.8 -9.4,8.2 h -12.3 z" /><path
     style="fill:#ff0000;fill-opacity:1;stroke:none"
     inkscape:connector-curvature="0"
     id="path32"
     d="m 305.5,113.2 c 0,-1.8 0,-3.6 0,-5.2 7,0 21,0 21,0 v 7.8 c 0,3.1 -1.9,4.5 -9.7,4.5 0,0 -0.1,1.4 -0.3,1.8 -0.8,2.3 -2.4,3.2 -4.7,3.2 h -5.1 c 0,-1.8 0,-3.6 0,-5.4 1.7,0 3.4,0 5,0 1.6,0 2.1,-0.4 2.4,-2.3 0.1,-0.5 0.1,-1.1 0.2,-1.8 2.1,0 4.3,0 6.4,0 1.5,0 1.9,-0.5 1.9,-2.4 -5.6,-0.2 -11.3,-0.2 -17.1,-0.2 z" /><path
     style="fill:#ff0000;fill-opacity:1;stroke:none"
     inkscape:connector-curvature="0"
     id="path34"
     d="m 408.7,103.1 v 12.5 c -0.9,7 -6.4,9.6 -10.5,9.4 h -14.5 v -6 h 14.8 c 3,0.1 6.1,-3.1 6.1,-7 0,-2.6 0,-5.1 0,-7.5 0,-0.4 0,-0.8 0,-1.1 1.5,-0.3 2.9,-0.3 4.1,-0.3 z" /><path
     style="fill:#ff0000;fill-opacity:1;stroke:none"
     inkscape:connector-curvature="0"
     id="path36"
     d="m 241.5,102.6 c 1.6,0 2.9,0 4.5,0 0,2.4 0,4.8 0,7.3 0,0.5 0,1 0,1.4 -0.3,5.7 3.3,7.4 6.5,7.4 0.5,0 0.9,0 1.4,0 0,2 0,4.1 0,6.1 -7.3,0.5 -12.2,-3.2 -12.4,-11.4 -0.1,-3.2 0,-6.4 0,-9.6 0,-0.3 0,-0.7 0,-1.2 z" /><polygon
     style="fill:#ff0000;fill-opacity:1;stroke:none"
     id="polygon38"
     points="328.7,114.6 328.7,109.1 353.4,112.4 353.4,118.1 " /><polygon
     style="fill:#ff0000;fill-opacity:1;stroke:none"
     id="polygon40"
     points="328.7,101.9 353.4,105.2 353.4,110.8 328.7,107.2 " /><path
     style="fill:#ff0000;fill-opacity:1;stroke:none"
     inkscape:connector-curvature="0"
     id="path42"
     d="m 353.4,120 c 0,1.9 0,3.7 0,5.6 -8.2,-1.1 -16.5,-2.3 -24.7,-3.6 0,-1.7 0,-3.6 0,-5.5 8.2,1 16.5,2.5 24.7,3.5 z" /><path
     style="fill:#ff0000;fill-opacity:1;stroke:none"
     inkscape:connector-curvature="0"
     id="path44"
     d="m 227.1,124.9 c 0,-2.2 0,-4.1 0,-6.1 1.1,-0.1 2.1,-0.1 3.2,-0.3 3,-0.5 4.7,-2.9 4.7,-6.4 0,-3.1 0,-6.1 0,-9.3 1.5,0 2.9,0 4.6,0 0,2.6 0,5 0,7.5 0,1.7 0,3.4 -0.2,5 -1,5.7 -4.2,8.7 -9.5,9.2 -0.8,0.3 -1.7,0.3 -2.8,0.4 z" /><path
     style="fill:#ff0000;fill-opacity:1;stroke:none"
     inkscape:connector-curvature="0"
     id="path46"
     d="m 227.5,111 c 0,1.9 0,3.8 0,5.6 -6.3,0 -12.5,0 -18.9,0 0,-1.9 0,-3.7 0,-5.6 6.2,0 12.6,0 18.9,0 z" /><path
     style="fill:#ff0000;fill-opacity:1;stroke:none"
     inkscape:connector-curvature="0"
     id="path48"
     d="m 254.2,110.8 c 6.3,0 12.6,0 18.9,0 0,1.9 0,3.7 0,5.6 -6.3,0 -12.5,0 -18.9,0 0,-1.8 0,-3.7 0,-5.6 z" /><path
     style="fill:#ff0000;fill-opacity:1;stroke:none"
     inkscape:connector-curvature="0"
     id="path50"
     d="m 398.8,102.9 c 0,1.9 0,4 0,5.9 -5,0 -9.9,0 -14.9,0 0,-1.8 0,-4 0,-5.9 4.8,0 9.8,0 14.9,0 z" /><path
     style="fill:#ff0000;fill-opacity:1;stroke:none"
     inkscape:connector-curvature="0"
     id="path52"
     d="m 254.5,106.4 c 0,2.3 -1.7,4.1 -3.6,4.1 -1.9,0 -3.6,-1.8 -3.6,-4.1 0,-2.3 1.6,-4.2 3.6,-4.2 1.9,0.2 3.6,2 3.6,4.2 z m -2.3,0 c 0,-0.9 -0.8,-1.8 -1.6,-1.8 -0.8,0 -1.6,0.9 -1.5,1.9 0.1,1 0.7,1.7 1.6,1.7 0.9,-0.1 1.4,-0.7 1.5,-1.8 z" /><g
     transform="translate(1.1904762,0.7619048)"
     style="fill:#00ff00;fill-opacity:1;stroke:none"
     id="g76">
		<path
   style="fill:#00ff00;fill-opacity:1;stroke:none"
   inkscape:connector-curvature="0"
   d="m 75,97.3 c 0,11.2 -16,20.3 -35.9,20.3 -19.9,0 -35.9,-9.1 -35.9,-20.3 v 0 C 3.2,86 19.3,77 39.1,77 58.9,77 75,86 75,97.3 Z"
   id="path2842" />
		<path
   style="fill:#00ff00;fill-opacity:1;stroke:none"
   inkscape:connector-curvature="0"
   d="m 136.9,129.3 c 0,11.2 -16,20.3 -35.9,20.3 -19.9,0 -35.9,-9.1 -35.9,-20.3 v 0 c 0,-11.2 16,-20.3 35.9,-20.3 19.9,0 35.9,9.1 35.9,20.3 z"
   id="path3624" />
		<path
   style="fill:#00ff00;fill-opacity:1;stroke:none"
   inkscape:connector-curvature="0"
   d="m 76.4,15.6 c -18.1,0 -32.9,16.3 -33.2,36.7 0.8,0 1.5,-0.1 2.3,-0.1 18.4,0 33.3,16.8 33.3,37.6 0,0.3 0,0.6 0,0.9 17.3,-1.3 30.9,-17.6 30.9,-37.5 -0.1,-20.8 -15,-37.6 -33.3,-37.6 z"
   id="path3644" />
		<path
   style="fill:#00ff00;fill-opacity:1;stroke:none"
   inkscape:connector-curvature="0"
   d="m 139.3,48.5 c -18.4,0 -33.2,16.8 -33.2,37.6 0,0.5 0,0.9 0,1.4 0.5,0 0.9,0 1.4,0 18,0 32.6,16.1 33.2,36.2 17.7,-0.8 32,-17.2 32,-37.5 -0.1,-20.8 -15,-37.7 -33.4,-37.7 z"
   id="path3897" />
	</g></g>
</g>
</svg>