<?xml version="1.0" encoding="UTF-8" standalone="no"?>
<svg
   xmlns:dc="http://purl.org/dc/elements/1.1/"
   xmlns:cc="http://creativecommons.org/ns#"
   xmlns:rdf="http://www.w3.org/1999/02/22-rdf-syntax-ns#"
   xmlns:svg="http://www.w3.org/2000/svg"
   xmlns="http://www.w3.org/2000/svg"
   xmlns:sodipodi="http://sodipodi.sourceforge.net/DTD/sodipodi-0.dtd"
   xmlns:inkscape="http://www.inkscape.org/namespaces/inkscape"
   viewBox="0 0 600.27198 171.83996"
   height="171.83997"
   width="600.27197"
   xml:space="preserve"
   version="1.1"
   id="svg2"
   sodipodi:docname="SNESH.svg"
   inkscape:version="0.92.4 (5da689c313, 2019-01-14)"><sodipodi:namedview
     pagecolor="#ffffff"
     bordercolor="#666666"
     borderopacity="1"
     objecttolerance="10"
     gridtolerance="10"
     guidetolerance="10"
     inkscape:pageopacity="0"
     inkscape:pageshadow="2"
     inkscape:window-width="1920"
     inkscape:window-height="1018"
     id="namedview52"
     showgrid="false"
     inkscape:zoom="1.1421655"
     inkscape:cx="281.23759"
     inkscape:cy="34.838317"
     inkscape:window-x="-8"
     inkscape:window-y="-8"
     inkscape:window-maximized="1"
     inkscape:current-layer="svg2" /><metadata
     id="metadata8"><rdf:RDF><cc:Work
         rdf:about=""><dc:format>image/svg+xml</dc:format><dc:type
           rdf:resource="http://purl.org/dc/dcmitype/StillImage" /><dc:title></dc:title></cc:Work></rdf:RDF></metadata><defs
     id="defs6"><clipPath
       id="clipPath16"
       clipPathUnits="userSpaceOnUse"><path
         id="path18"
         d="M 0,618.062 H 1949.984 V 0 H 0 Z"
         inkscape:connector-curvature="0" /></clipPath></defs><g
     id="g1057"><g
       transform="translate(0,2)"
       aria-label="HACKS"
       style="font-style:normal;font-variant:normal;font-weight:normal;font-stretch:normal;font-size:157.88580322px;line-height:1.25;font-family:'Arabic Typesetting';-inkscape-font-specification:'Arabic Typesetting';letter-spacing:0px;word-spacing:0px;fill:#ff0000;fill-opacity:1;stroke:none;stroke-width:3.94714546"
       id="text913"><path
         d="M 187.37265,120.83693 V 97.709127 q 0,-1.850224 -0.30837,-3.083707 -0.23128,-1.233483 -1.23348,-2.00441 -0.92511,-0.848019 -2.77534,-1.233483 -1.85022,-0.385463 -5.08811,-0.539648 l 0.15418,-2.775337 q 1.23348,0 2.92952,0.07709 1.77313,0 3.70045,0 2.00441,0 4.08591,0.07709 2.08151,0 3.93173,0 1.46476,0 3.23789,0 1.77313,-0.07709 3.46917,-0.07709 1.77313,0 3.31499,0 1.54185,-0.07709 2.62115,-0.07709 l 0.15418,2.621151 q -3.00661,0.231278 -4.85683,0.770927 -1.77314,0.462556 -2.77534,1.541854 -1.00221,1.002204 -1.38767,2.852429 -0.30837,1.850224 -0.30837,4.702657 v 51.88337 q 0,1.85022 0.30837,3.0837 0.30837,1.23349 1.23348,2.08151 1.00221,0.77092 2.92953,1.15639 1.92731,0.38546 5.16521,0.53965 l -0.15419,2.77533 q -1.23348,0 -3.00661,0 -1.77314,-0.0771 -3.77755,-0.0771 -2.00441,0 -4.08591,0 -2.0815,-0.0771 -3.93172,-0.0771 -1.54186,0 -3.31499,0.0771 -1.69604,0 -3.39208,0 -1.69604,0 -3.23789,0.0771 -1.46476,0 -2.54406,0 l -0.23128,-2.62115 q 3.00662,-0.23128 4.77975,-0.69383 1.77313,-0.53965 2.77534,-1.54186 1.0022,-1.07929 1.31057,-2.85243 0.30837,-1.85022 0.30837,-4.77974 v -24.2071 h -41.24458 v 27.05953 q 0,1.85022 0.23128,3.0837 0.30837,1.23349 1.23348,2.08151 1.00221,0.77092 2.85243,1.15639 1.85022,0.38546 5.08812,0.53965 l -0.15419,2.77533 q -1.23348,0 -3.00661,0 -1.69604,-0.0771 -3.70045,-0.0771 -1.92732,-0.0771 -4.00882,-0.0771 -2.0815,-0.0771 -3.93173,-0.0771 -1.46476,0 -3.23789,0.0771 -1.77313,0 -3.54626,0 -1.69604,0 -3.2379,0.0771 -1.54185,0 -2.62115,0 l -0.15418,-2.62115 q 3.00661,-0.23128 4.77974,-0.69384 1.85023,-0.53964 2.85243,-1.54185 1.00221,-1.0793 1.31058,-2.85243 0.38546,-1.85022 0.38546,-4.77974 V 97.709127 q 0,-1.850224 -0.30837,-3.083707 -0.30837,-1.233483 -1.31057,-2.00441 -0.92512,-0.848019 -2.85243,-1.233483 -1.92732,-0.385463 -5.16521,-0.539648 l 0.15418,-2.775337 h 3.39208 q 1.92732,0 3.85463,0.07709 2.00441,0 3.85464,0 h 6.78415 q 1.77314,0 3.46917,0 1.77314,-0.07709 3.31499,-0.07709 h 2.62115 l 0.23128,2.621151 q -3.00662,0.231278 -4.77975,0.770927 -1.77313,0.462556 -2.77533,1.541854 -1.00221,1.002204 -1.31058,2.852429 -0.30837,1.850224 -0.30837,4.702657 v 20.27537 z"
         style="fill:#ff0000;stroke-width:3.94714546"
         id="path924"
         inkscape:connector-curvature="0" /><path
         d="m 258.22082,134.71361 h -25.67186 l -5.93614,15.18726 q -1.54185,4.39428 -1.54185,5.55067 0,2.00441 1.85022,2.77534 1.92732,0.77093 6.78416,1.0022 l -0.23128,2.77534 q -2.85243,0 -6.39869,-0.0771 -3.54627,-0.0771 -7.01544,-0.0771 -2.85242,0 -5.93613,0.0771 -3.00662,0.0771 -5.85905,0.0771 l -0.15418,-2.62115 q 3.00661,-0.23128 4.93393,-0.69384 1.92732,-0.53964 3.31499,-1.85022 1.46476,-1.38767 2.69824,-3.70045 1.31058,-2.38987 3.00661,-6.3216 l 22.1256,-52.19174 q 0.92511,-2.312781 1.54186,-4.008819 0.69383,-1.773132 1.46476,-3.777542 l 4.85684,-0.616741 q 0.84802,3.700448 1.77313,6.784156 1.0022,3.083707 1.85022,5.627765 l 17.34585,50.264421 q 1.15639,3.39208 2.08151,5.3194 0.92511,1.92732 2.15859,3.00661 1.23348,1.00221 3.08371,1.38767 1.92732,0.38547 4.93393,0.61674 l -0.23128,2.77534 q -3.23789,0 -7.16962,-0.0771 -3.85463,-0.0771 -7.78636,-0.0771 -3.23789,0 -6.55288,0.0771 -3.31498,0.0771 -6.55287,0.0771 l -0.23128,-2.62115 q 4.31719,-0.30837 6.16741,-1.00221 1.85023,-0.77092 1.85023,-2.77533 0,-0.84802 -0.30837,-1.92732 -0.30837,-1.15639 -0.77093,-2.54406 z m -23.89873,-4.47137 h 22.43397 L 246.42564,99.713536 Z"
         style="fill:#ff0000;stroke-width:3.94714546"
         id="path926"
         inkscape:connector-curvature="0" /><path
         d="m 300.85307,123.68936 q 0,7.4009 1.85023,13.95377 1.85022,6.47579 5.55067,11.33263 3.77754,4.77974 9.40531,7.63217 5.62776,2.77534 13.25994,2.77534 4.163,0 7.94054,-1.15639 3.85464,-1.15639 6.78416,-3.77754 2.77534,-2.46697 4.77975,-6.01323 2.0815,-3.62336 4.08591,-8.4802 l 3.0837,0.77093 q -1.31057,5.08812 -2.0815,9.55949 -0.77092,4.47138 -1.31057,9.55949 -6.09032,1.77314 -12.10355,2.77534 -5.93614,1.00221 -11.94937,1.00221 -8.71147,0 -16.11237,-2.69825 -7.3238,-2.69824 -12.72029,-7.63217 -5.31939,-4.93393 -8.32601,-11.87228 -3.00661,-7.01543 -3.00661,-15.57272 0,-9.86786 3.62335,-17.19166 3.62336,-7.4009 9.79077,-12.334831 6.24451,-4.933932 14.41633,-7.323805 8.17183,-2.466965 17.26876,-2.466965 4.70266,0 10.02205,0.693834 5.39649,0.693834 10.02205,1.927317 -0.46256,4.933931 -0.61674,9.405306 -0.0771,4.394284 -0.0771,9.328214 l -3.23789,0.30837 q -0.30837,-4.54847 -1.85022,-7.86345 -1.46476,-3.39208 -4.00882,-5.550675 -2.46697,-2.235688 -5.78195,-3.237892 -3.31499,-1.079298 -7.24671,-1.079298 -7.70927,0 -13.56831,2.466966 -5.85905,2.389873 -9.86787,6.784155 -3.93172,4.317194 -6.01323,10.484604 -2.00441,6.09032 -2.00441,13.49122 z"
         style="fill:#ff0000;stroke-width:3.94714546"
         id="path928"
         inkscape:connector-curvature="0" /><path
         d="m 395.83125,90.693693 q -3.0837,0.231278 -5.01102,0.770927 -1.85022,0.462556 -2.92952,1.541854 -1.0793,1.002204 -1.46476,2.852429 -0.38547,1.773131 -0.38547,4.625557 v 21.97142 q 2.23569,-0.38547 4.00882,-1.31058 1.85023,-0.92511 4.08592,-2.92952 2.38987,-2.23569 5.08811,-4.93393 2.69825,-2.69825 5.3194,-5.47358 2.69824,-2.85243 5.16521,-5.62777 2.46696,-2.775334 4.39428,-5.165207 1.0793,-1.387668 1.54185,-2.466966 0.53965,-1.079297 0,-1.850224 -0.53965,-0.84802 -2.23568,-1.310576 -1.61895,-0.462556 -4.77975,-0.616741 l 0.15418,-2.698244 q 1.0793,0 2.77534,0.07709 1.69604,0 3.54626,0 1.92732,0 3.85464,0.07709 2.00441,0 3.70045,0 1.46476,0 3.39207,0 2.00441,-0.07709 3.93173,-0.07709 2.00441,0 3.70045,0 1.69604,-0.07709 2.77534,-0.07709 l 0.23127,2.621151 q -2.77533,0.231278 -5.08811,0.770927 -2.23569,0.539649 -4.39429,1.541854 -2.0815,1.002204 -4.163,2.544058 -2.0815,1.464761 -4.39428,3.623356 -1.69604,1.541852 -4.16301,3.931722 -2.38987,2.38988 -5.2423,5.3194 -2.77534,2.85243 -5.85904,6.01323 -3.08371,3.0837 -6.01323,6.09032 3.23789,4.00882 6.86125,8.48019 3.70045,4.47138 7.24671,8.71148 3.62335,4.163 6.70706,7.78636 3.1608,3.54626 5.2423,5.70485 2.31278,2.38988 3.85464,3.85464 1.61894,1.46476 3.0837,2.38987 1.46477,0.84802 3.1608,1.23348 1.69604,0.38547 4.31719,0.61675 l -0.15418,2.77533 q -2.92952,0 -6.47579,-0.0771 -3.46917,-0.0771 -6.93834,-0.0771 -1.07929,0 -2.31278,0.0771 -1.15639,0 -2.23569,0.0771 -0.61674,-1.15639 -2.15859,-3.23789 -1.54185,-2.0815 -3.70045,-4.77975 -2.15859,-2.69824 -4.77974,-5.78195 -2.54406,-3.1608 -5.3194,-6.39869 -2.69824,-3.31498 -5.47358,-6.47578 -2.69824,-3.2379 -5.08812,-6.09033 -1.54185,-1.77313 -2.85243,-2.46696 -1.23348,-0.77093 -2.54405,-0.77093 -0.84802,0 -1.77314,0.23128 v 26.13442 q 0,1.85022 0.30838,3.0837 0.30837,1.23349 1.31057,2.08151 1.0793,0.77092 3.00662,1.15639 2.00441,0.38546 5.31939,0.53965 l -0.15419,2.77533 q -1.23348,0 -3.0837,0 -1.77313,-0.0771 -3.85464,-0.0771 -2.0815,0 -4.24009,0 -2.08151,-0.0771 -3.93173,-0.0771 -1.54185,0 -3.39208,0.0771 -1.77313,0 -3.62335,0 -1.85023,0 -3.46917,0.0771 -1.61895,0 -2.69825,0 l -0.23128,-2.62115 q 3.2379,-0.23128 5.16521,-0.69383 1.92732,-0.53965 2.92953,-1.54186 1.07929,-1.07929 1.38766,-2.85243 0.38547,-1.85022 0.38547,-4.77974 V 97.709127 q 0,-1.850224 -0.30837,-3.083707 -0.30837,-1.233483 -1.38767,-2.00441 -1.00221,-0.848019 -3.00662,-1.233483 -2.00441,-0.385463 -5.31939,-0.539648 l 0.15418,-2.775337 q 1.23349,0 3.08371,0.07709 1.85023,0 3.93173,0 2.0815,0 4.2401,0.07709 2.15859,0 4.00881,0 1.46477,0 3.2379,0 1.85022,-0.07709 3.62335,-0.07709 1.85023,0 3.46917,0 1.61895,-0.07709 2.69825,-0.07709 z"
         style="fill:#ff0000;stroke-width:3.94714546"
         id="path930"
         inkscape:connector-curvature="0" /><path
         d="m 445.86442,140.57266 q 1.54185,4.00881 3.23789,7.40089 1.77313,3.39208 4.16301,5.93614 2.46696,2.46696 5.70485,3.93173 3.2379,1.38766 7.78636,1.38766 3.00662,0 5.55068,-1.0022 2.54406,-1.00221 4.47137,-2.85243 1.92732,-1.85022 3.00662,-4.31719 1.07929,-2.54406 1.07929,-5.55067 0,-3.77754 -1.38766,-6.47579 -1.38767,-2.69824 -3.70045,-4.62556 -2.31278,-2.00441 -5.2423,-3.46917 -2.92953,-1.46476 -6.01323,-2.85243 -3.46917,-1.54185 -7.01544,-3.39208 -3.46917,-1.85022 -6.2445,-4.39428 -2.77534,-2.54406 -4.54847,-5.85904 -1.77313,-3.31499 -1.77313,-7.86346 0,-4.85683 1.92731,-8.557282 2.00441,-3.777542 5.3194,-6.3216 3.39208,-2.544058 7.78636,-3.854634 4.47137,-1.310575 9.4824,-1.310575 4.85684,0 8.94275,0.770926 4.163,0.693835 8.86566,1.927317 -0.23128,2.466966 -0.38547,4.625561 -0.15418,2.081502 -0.23128,4.163005 0,2.004412 -0.0771,4.163002 0,2.0815 0,4.54847 l -3.23789,0.30837 q -0.69383,-8.171823 -5.01102,-12.180642 -4.2401,-4.085912 -11.48681,-4.085912 -2.77534,0 -5.08812,0.848019 -2.31278,0.84802 -4.00882,2.466966 -1.69604,1.618946 -2.69824,3.854634 -0.92511,2.235685 -0.92511,5.011025 0,3.70045 1.15639,6.24451 1.23348,2.46696 3.31498,4.31719 2.0815,1.85022 4.77975,3.23789 2.77533,1.31057 5.78195,2.62115 3.70045,1.61895 7.40089,3.54626 3.77755,1.92732 6.70707,4.54847 3.00661,2.62115 4.85684,6.09032 1.85022,3.46917 1.85022,8.17183 0,5.2423 -2.15859,9.32821 -2.1586,4.00882 -5.70486,6.86125 -3.54627,2.77533 -8.17183,4.2401 -4.62556,1.46476 -9.4824,1.46476 -4.24009,0 -8.78856,-0.84802 -4.54847,-0.84802 -9.63659,-2.31278 -0.53964,-5.08812 -1.31057,-9.5595 -0.77093,-4.47137 -2.0815,-9.55949 z"
         style="fill:#ff0000;stroke-width:3.94714546"
         id="path932"
         inkscape:connector-curvature="0" /></g><g
       aria-label="C"
       style="font-style:normal;font-variant:normal;font-weight:normal;font-stretch:normal;font-size:107.18832397px;line-height:1.25;font-family:'Game Logos';-inkscape-font-specification:'Game Logos';letter-spacing:0px;word-spacing:0px;fill:#ff0000;fill-opacity:1;stroke:none;stroke-width:2.679708"
       id="text1045"><path
         d="m 174.5584,7.9567555 h 9.26383 q 4.44874,0.4710424 4.44874,4.1347055 -2.09353,12.09009 -2.66924,13.660231 h -6.33291 l -0.31403,-0.157014 q 1.51781,-8.217074 1.51781,-9.420849 -0.36637,-2.355212 -2.35522,-2.355212 -4.03003,0 -4.60574,6.332904 -0.10468,0.26169 -0.57572,3.244959 0,1.727155 2.51222,4.710424 7.37967,11.933075 7.37967,13.084512 -2.66924,15.910767 -3.97769,15.910767 -1.62248,2.041184 -5.18147,2.041184 h -8.06006 q -3.14028,0 -4.44873,-2.355212 0,-0.05234 -0.26169,-1.62248 2.19819,-13.817244 2.6169,-13.817244 h 6.17589 q 0.31403,0.05234 0.31403,0.314028 -1.7795,9.002144 -1.7795,9.996567 0,1.936508 2.82626,2.512227 h 0.26169 q 2.72158,0 3.55899,-4.134706 0,-0.418705 1.15143,-6.908623 -0.62805,-2.250536 -8.68811,-15.439724 -1.15144,-2.302874 -1.15144,-4.448734 2.14586,-13.084512 3.50665,-13.084512 1.77949,-2.1981985 4.86744,-2.1981985 z m 18.37065,0 h 5.75719 q 0.31403,0 0.31403,0.4187043 L 191.04488,53.43852 q 0.31403,0.837409 1.15144,0.837409 h 4.29172 q 2.1982,0 2.1982,-3.925354 l 7.79837,-42.2368054 0.31403,-0.1570141 h 5.44315 l 0.26169,0.1570141 q -8.37409,45.1677364 -8.9498,47.5229484 -1.93651,3.506649 -6.33291,3.506649 h -8.1124 q -3.50664,0 -4.55341,-2.930931 V 55.32269 q 0,-1.62248 8.1124,-47.2089204 z m 36.95066,0 q 3.40198,0 4.3964,2.9309305 l 0.15702,1.360789 q -3.76834,20.987558 -4.3964,20.987558 -2.09352,2.669241 -4.71043,2.669241 h -8.37408 q -3.716,19.679106 -4.55341,23.238093 h -6.07122 l -0.26169,-0.157014 q 9.26384,-48.9884136 9.83956,-51.0295975 z m 22.08666,0 q 0.26169,0.052338 0.26169,0.3140283 -0.83741,6.0188752 -1.15144,6.0188752 H 244.168 l -3.24496,15.858429 h 6.90863 l 0.31402,0.157014 q -0.88974,5.181467 -1.36079,5.181467 h -6.59459 q -0.36637,0 -2.51223,13.974259 -0.15701,0 -0.57571,3.244959 h 6.7516 q 0.31403,0 0.31403,0.26169 -0.88974,6.17589 -1.20377,6.17589 h -13.97426 q -0.26169,0 -0.26169,-0.26169 8.5311,-43.545257 10.10124,-50.9249215 z m 4.3964,0 H 270.023 q 3.66366,0 4.60575,3.0879445 0,0.471043 0.10467,1.046761 -3.50665,19.365078 -4.08237,20.150149 -1.9365,1.831832 -4.86743,2.616903 v 0.314028 q 1.77949,0 3.40197,2.773916 v 0.889747 q 0,1.517804 -3.55899,20.150149 l -0.31403,0.157014 h -5.86186 l -0.31403,-0.157014 q 2.82626,-13.974259 3.55899,-19.260402 -0.31403,-3.820677 -1.04676,-3.820677 h -4.3964 l -4.39639,23.081079 -0.31403,0.157014 h -5.9142 l -0.26169,-0.157014 9.68254,-50.8725834 z m 34.43843,0 h 5.86187 q 0.47104,0 1.77949,12.8228215 0.15701,0.05234 1.77949,13.660231 h 0.10468 q 4.44873,-24.4418686 5.02445,-26.4830525 h 7.22265 q 0,1.4654653 -9.73488,51.1866115 h -6.01887 q -0.52338,0 -1.15144,-11.776061 -0.15701,-0.418704 -1.5178,-17.480908 h -0.10468 q 0,0.575718 -5.9142,29.256969 h -7.06563 q -0.26169,0 -0.26169,-0.26169 l 9.68254,-50.7679074 z m 31.35049,0 q 0.2617,0.052338 0.2617,0.3140283 -9.26384,48.9884132 -9.68254,50.8725832 h -6.07122 q -0.26169,0 -0.26169,-0.26169 8.94981,-47.679963 9.68254,-50.9249215 z m 9.99657,0 q 0.36637,0 0.88975,6.1758895 0.15701,0.05234 2.45989,19.993135 h 0.31403 q 0.88974,-5.547833 4.86743,-26.1690245 h 7.06564 q 0.26169,0.052338 0.26169,0.3140283 -9.42085,49.7211462 -9.68254,50.8725832 h -6.17589 q -0.31403,0 -0.31403,-0.26169 l -2.19819,-29.152293 h -0.15702 q -5.75718,29.047617 -6.01887,29.413983 h -7.22265 v -0.157014 q 9.00214,-48.569709 9.73487,-51.0295975 z m 18.78936,0 h 14.75933 l 0.26169,0.1570141 q -0.88974,5.9665374 -1.15144,6.1758894 h -3.716 q -7.90304,44.173314 -8.21707,44.853708 h -6.90862 l -0.31403,-0.157014 q 7.53668,-42.550834 7.95538,-44.539679 l -0.31403,-0.157015 h -3.34963 q -0.31403,0 -0.31403,-0.314028 1.04676,-6.0188755 1.30845,-6.0188755 z m 30.77477,0 0.31403,0.1570141 q -0.88974,6.1758894 -1.20377,6.1758894 h -6.75161 q -0.36637,0 -1.62248,7.641355 -0.73273,2.878593 -1.62248,8.217074 h 6.75161 l 0.31403,0.157014 q -0.94209,5.181467 -1.20378,5.181467 h -6.75161 q -0.36636,0 -2.35521,12.927498 -0.15701,0 -0.73273,4.29172 H 373.6 l 0.31403,0.104676 q -0.88975,6.071214 -1.20378,6.332904 h -13.97426 q -0.26169,0 -0.26169,-0.26169 8.37409,-43.074214 10.15358,-50.9249215 z m 9.26384,0 q 0.57572,0 0.88975,5.0244525 0.57571,3.349635 2.66924,21.301586 h 0.10467 l 5.02446,-26.3260385 h 7.06563 l 0.26169,0.1570141 q -9.10682,48.4126954 -9.68254,50.8725834 l -0.31403,0.157014 h -5.86186 q -0.31402,0 -0.31402,-0.26169 -2.1982,-28.210208 -2.1982,-29.152293 H 388.464 q -4.55341,23.081079 -6.01887,29.413983 h -7.06564 l -0.31403,-0.157014 q 9.42085,-49.5641322 9.89189,-51.0295975 z m 33.39167,0 q 3.76834,0 4.55341,3.2449585 0,0.628057 0.15702,0.889747 -7.79837,42.027454 -8.37409,43.702271 -1.88417,3.349635 -6.17589,3.349635 H 400.9728 l -0.26169,-0.157014 q 9.36851,-49.7211463 9.83955,-51.0295975 z m 14.13128,0 h 9.99656 q 3.2973,0 4.29172,2.5122265 0.2617,0.52338 0.2617,1.151437 v 0.628056 q -6.90863,38.154438 -8.21708,43.545257 -1.93651,3.349635 -6.3329,3.349635 h -8.68812 q -3.87301,0 -4.71042,-2.512226 -0.26169,-1.099099 -0.26169,-1.308451 6.43758,-38.1021 7.64135,-43.545257 2.04119,-3.8206775 6.01888,-3.8206775 z m -29.9897,46.2144975 h 2.77391 q 3.97769,0 4.55341,-5.757186 5.9142,-30.984125 5.9142,-31.769195 v -0.157015 q -0.4187,-2.512226 -2.51222,-2.512226 0,-0.157014 -0.88975,-0.157014 h -2.1982 q -0.4187,0 -3.08794,15.753753 -3.24496,16.591161 -4.55341,24.598883 z m 23.81381,-2.669241 q 0.36636,2.669241 2.04118,2.669241 h 0.73273 q 3.82068,0 4.44874,-7.955384 5.28614,-28.367222 5.28614,-29.885026 0,-1.936508 -2.82625,-2.512226 -3.82068,0.628057 -3.82068,5.181467 -0.26169,0.889747 -5.86186,32.501928 z M 217.94664,30.148088 q 0.31403,0.889747 0.62806,0.889747 h 4.39639 q 1.36079,0 2.66924,-8.06006 0.10468,0 1.46547,-6.908622 -0.62806,-1.308451 -1.7795,-1.936508 h -3.40197 q -1.30845,0 -1.30845,2.773917 -0.15701,0 -2.66924,13.241526 z m 40.35264,0.157014 q 0.26169,0.680395 0.57571,0.732733 h 3.24496 q 1.72716,0 2.77392,-3.663663 l 2.1982,-11.305019 v -0.157014 q -1.15144,-1.779494 -2.04119,-1.779494 h -2.82625 q -1.15144,0 -1.15144,1.62248 -2.1982,11.095666 -2.77391,14.549977 z m -98.13385,33.286999 h 286.44615 q 0.26169,0 0.26169,0.261691 v 16.172457 q 0,0.314028 -0.26169,0.314028 H 160.16543 q -0.31402,0 -0.31402,-0.314028 V 63.853792 q 0.0523,-0.261691 0.31402,-0.261691 z m 209.19519,5.286143 q 0.52338,1.413128 2.19819,3.977692 v 0.104676 q -0.10467,2.512226 -0.88974,2.512226 h -0.41871 q -0.20935,0 -0.47104,-0.418704 0.31403,-1.88417 0.31403,-2.355212 h -1.30845 q -0.62806,2.983269 -0.62806,3.087945 0.31403,0.680394 0.62806,0.732732 h 2.45988 q 1.36079,0 1.7795,-3.820677 0,-0.157014 -2.1982,-3.977692 0.31403,-2.198198 1.15144,-2.198198 0.62805,0.157014 0.62805,0.575719 0,0.78507 -0.31402,2.041184 h 1.20377 q 0.31403,0 0.73273,-3.349636 L 373.6,65.319257 h -2.93093 q -0.88975,0 -1.30845,3.558987 z m 13.08451,-3.558987 q 0,0.575718 0.73273,6.071214 -0.73273,4.501072 -0.73273,5.129128 h 1.30845 q 0.31403,0 1.20377,-5.024452 0.10468,0 3.50665,-6.018876 v -0.157014 h -1.62248 q -0.26169,0 -2.04118,3.820678 h -0.4187 v -0.575719 q 0,-1.046761 -0.15702,-3.244959 z m 15.02102,3.716001 q 0.52338,1.308452 2.1982,4.082368 -0.36637,2.355212 -0.88975,2.355212 h -0.57572 q -0.31403,0 -0.31403,-0.26169 V 74.89712 q 0,-0.837409 0.31403,-2.198198 h -1.46547 q -0.47104,2.302874 -0.47104,3.506649 l 0.47104,0.314028 h 2.93094 q 0.94208,0 1.30845,-3.977691 -0.57572,-1.308452 -2.1982,-3.663664 0.36636,-2.198198 0.88975,-2.198198 h 0.57571 q 0.10468,0 0.47105,0.418705 -0.31403,1.308451 -0.31403,2.041184 h 1.30845 q 0.47104,-2.616903 0.47104,-3.192621 -0.15701,-0.628057 -0.88975,-0.628057 h -2.66924 q -0.94208,0 -1.15143,3.716001 z m 13.08451,-3.716001 -0.15701,1.046761 v 0.314028 q 0.47104,0 0.73273,0.104676 -1.46547,8.635778 -1.7795,9.734877 h 1.7795 q 1.46546,-9.839553 1.93651,-9.839553 0.88974,0 0.88974,-1.360789 z m 11.04333,11.200342 h 3.24496 v -0.575718 l 0.10467,-0.732733 h -1.30845 l -0.31403,-0.157014 q 0.62806,-3.663663 0.88975,-3.663663 1.46547,0 1.46547,-0.471043 l 0.15701,-0.732732 h -1.30845 l -0.31403,-0.157015 q 0.62806,-3.349635 0.88975,-3.349635 1.46546,0 1.46546,-0.471042 0,-0.104676 0.15702,-0.889747 h -2.77392 q -0.36637,0 -2.35521,11.200342 z m 14.54998,-11.200342 q -2.04119,10.7293 -2.04119,11.200342 h 1.62248 l 0.83741,-5.286143 h 0.31403 v 0.157015 q 0,1.046761 0.15701,5.129128 h 0.88975 q 0.52338,-0.628056 2.35521,-5.129128 h 0.15702 v 0.104676 q 0,0.52338 -0.78508,5.024452 h 1.51781 l 1.72715,-11.200342 h -1.72715 q -2.30288,5.547833 -2.82626,6.071214 -0.15701,-0.314029 -0.15701,-0.471043 0,-0.942085 -0.10468,-5.600171 z m -272.31487,11.619047 0.31403,0.157014 h 2.6169 q 0.47104,-0.104676 0.47104,-1.151437 v -0.314028 h -1.20377 l -0.31403,-0.157015 q 0.52338,-3.663663 0.88974,-3.663663 h 1.36079 l 0.10468,-1.046761 V 70.6054 h -1.15144 l -0.31403,-0.104676 q 0.47105,-3.401973 0.88975,-3.401973 h 1.30845 l 0.15702,-1.046761 v -0.418705 h -2.61691 q -0.4187,0 -2.35521,11.043329 -0.15701,0 -0.15701,0.26169 z m 16.17245,-11.305019 -2.19819,11.305019 0.31402,0.157014 h 1.30846 q 1.15143,-5.600171 1.15143,-6.018876 h 0.31403 q 0,0.994423 0.41871,6.018876 h 1.20377 q 0.36637,0 2.35521,-11.462033 h -1.62248 q -0.88974,4.605749 -0.88974,5.129129 h -0.15702 q -0.26169,0 -0.88974,-5.129129 z m 14.707,1.465466 q 0.88974,0 0.88974,0.314028 -1.30845,7.222651 -1.62248,9.682539 h 1.46547 q 1.77949,-9.996567 2.09352,-9.996567 0.83741,0 0.83741,-1.308452 l -0.26169,-0.157014 h -2.82626 q -0.26169,0 -0.57571,1.465466 z m 15.02102,-1.465466 q -2.1982,10.938652 -2.1982,11.462033 h 2.93093 q 0.31403,0 0.4187,-1.465465 h -1.30845 l -0.31403,-0.157015 q 0.62806,-3.663663 0.88975,-3.663663 1.46547,0 1.46547,-0.418704 0,-0.523381 0.15701,-0.785071 -1.62248,0 -1.62248,-0.104676 0.62806,-3.401973 1.04676,-3.401973 1.30845,0 1.30845,-0.418705 l 0.15702,-1.046761 z m 14.13127,0 q -2.09352,10.938652 -2.09352,11.462033 h 1.36079 q 0.88974,-5.129129 1.15143,-5.129129 h 0.73274 q 0.31402,0 0.31402,0.418705 0,0.52338 -0.73273,4.710424 h 1.15144 q 0.31403,0 1.04676,-4.710424 l -0.57572,-0.732733 q 1.15144,0 1.46547,-3.820678 0.20935,0 0.26169,-1.308451 -0.26169,-0.889747 -1.15144,-0.889747 z m 14.39296,0 -0.26169,1.465466 q 0.83741,0 0.83741,0.314028 -1.57014,8.84513 -1.57014,9.682539 h 1.46547 q 1.67481,-9.787215 2.04118,-9.996567 0.73273,0 0.73273,-0.732733 v -0.732733 z m 12.66581,11.305019 v 0.157014 h 1.62248 q 0.78507,-2.616902 1.15144,-2.616902 h 0.62805 q 0.26169,0 0.26169,0.26169 -0.15701,1.517803 -0.15701,2.355212 h 1.62248 q 0.31403,0 0.31403,-0.26169 l 0.4187,-10.886314 q 0.15702,0 0.15702,-0.157015 l -0.26169,-0.157014 h -1.46547 q -0.57572,0.523381 -4.29172,11.305019 z m 15.28271,0 0.31403,0.157014 h 0.88975 q 0.4187,0 2.35521,-11.462033 h -1.20378 q -0.31403,0 -2.1982,11.200343 -0.15701,0 -0.15701,0.104676 z m 15.17803,-11.305019 -2.19819,11.305019 0.26169,0.157014 h 1.36079 q 1.15143,-5.600171 1.15143,-6.018876 h 0.31403 q 0,1.727156 0.41871,6.018876 h 1.20377 q 0.31403,0 2.1982,-11.043328 l 0.15701,-0.261691 -0.31402,-0.157014 h -1.30846 q -0.88974,4.710425 -0.88974,5.129129 h -0.15702 q -0.31403,0 -0.88974,-5.129129 z m 16.6435,0 q -2.09352,10.938652 -2.09352,11.462033 h 1.30845 q 0.36637,0 1.04676,-4.972115 h 0.15702 q 0.31403,0 0.31403,0.261691 v 0.314028 q 0,1.465465 0.10467,4.396396 h 1.04676 l 2.04119,-5.129129 h 0.31403 l -0.73274,5.129129 h 1.30845 q 0.62806,-2.930931 1.93651,-11.305019 h -1.62248 q -0.31403,0 -2.82625,6.17589 h -0.26169 q 0,-0.418704 -0.15702,-5.914199 -0.15701,-0.261691 -0.15701,-0.418705 z m 18.21365,0 -2.1982,11.462033 h 2.93093 q 0.31403,0 0.47104,-1.465465 h -1.36079 l -0.26169,-0.157015 q 0.57572,-3.663663 0.88975,-3.663663 h 1.46546 v -0.418704 l 0.10468,-0.785071 h -1.46547 q 0.31403,-3.506649 0.73274,-3.506649 h 1.46546 l 0.15702,-1.465466 z m 14.54997,0 q -2.04118,10.833976 -2.04118,11.462033 h 1.30845 q 0.4187,0 1.36079,-5.861862 h 0.26169 q 0.4187,5.861862 0.73273,5.861862 h 0.88975 q 0.4187,0 2.35521,-11.462033 h -1.30845 q -0.47104,0 -1.20377,5.443157 h -0.2617 q -0.57571,-5.443157 -0.88974,-5.443157 z m 14.70699,1.465466 q 0.6804,0 0.88975,0.157014 l -1.72715,9.682539 0.26169,0.157014 h 1.36079 q 1.57014,-9.996567 1.88417,-9.996567 0.73273,0 0.73273,-0.314029 0.15701,-0.78507 0.15701,-1.151437 h -3.08794 q -0.31403,0 -0.47105,1.465466 z m -120.16816,0 h 0.57572 q 0.31403,0 0.31403,0.418704 -0.36636,3.244959 -0.88975,3.244959 h -0.88974 q 0.31403,-3.663663 0.88974,-3.663663 z m 29.25697,4.134705 h 0.31403 v 0.418705 q 0,1.622479 -0.47104,1.622479 h -0.10468 q -0.31402,0 -0.31402,-0.314028 0.57571,-1.203775 0.57571,-1.727156 z m 50.87259,-149.739157 q 7.432,0 13.08451,5.338481 5.54783,5.757185 5.54783,13.241526 0,7.379665 -5.12913,12.979836 -2.6169,2.564565 -4.86743,3.663664 -4.23939,2.041184 -7.85071,2.041184 -0.10468,0 -0.10468,-0.104677 v -0.366366 q 0,-7.222651 -5.54783,-13.032174 -5.65251,-5.286143 -13.13685,-5.286143 h -0.52338 q -0.10468,0 -0.10468,-0.104676 v -0.157014 q 0,-6.646932 5.02445,-12.35178 5.86187,-5.861861 13.6079,-5.861861 z m 36.27027,19.365078 q 7.95538,0 13.71256,6.332904 4.34406,5.233805 4.34406,11.566709 v 0.418704 q 0,6.542256 -4.50107,11.880737 -2.82625,2.878593 -4.23938,3.454311 -1.57014,1.046761 -3.66367,1.727156 -3.0356,0.942085 -5.02445,0.942085 l -0.0523,-0.104676 v -0.732733 q 0,-4.867439 -3.19262,-9.682539 -5.65251,-7.850707 -15.43972,-7.850707 h -0.0523 q -0.10468,0 -0.10468,-0.104676 0,-6.489919 4.76277,-11.985414 5.65251,-5.861861 13.45088,-5.861861 z m -60.60747,12.404117 q 9.36852,0 15.70142,3.925354 3.97769,2.669241 3.97769,6.071214 0,4.658086 -7.58902,7.850707 -5.65251,2.093522 -12.09009,2.093522 -8.5311,0 -14.81166,-3.454311 -4.76277,-2.930931 -4.76277,-6.280566 v -0.418704 q 0,-4.239382 6.64694,-7.327327 5.70484,-2.459889 12.92749,-2.459889 z m 37.21236,17.847275 q 10.25825,0 16.95753,4.448734 3.716,2.826255 3.716,6.018876 0,4.972114 -8.37409,8.4264257 -5.86186,1.9888459 -11.04333,1.9888459 h -2.35521 q -7.22265,0 -13.86958,-3.1926206 -5.65251,-3.192621 -5.65251,-7.170313 0,-5.286143 8.79279,-8.635778 5.44316,-1.88417 11.8284,-1.88417 z"
         style="fill:#ff0000;stroke-width:2.679708"
         id="path1059"
         inkscape:connector-curvature="0" /></g></g></svg>