<?xml version="1.0" encoding="UTF-8" standalone="no"?>
<svg
   xmlns:dc="http://purl.org/dc/elements/1.1/"
   xmlns:cc="http://creativecommons.org/ns#"
   xmlns:rdf="http://www.w3.org/1999/02/22-rdf-syntax-ns#"
   xmlns:svg="http://www.w3.org/2000/svg"
   xmlns="http://www.w3.org/2000/svg"
   xmlns:sodipodi="http://sodipodi.sourceforge.net/DTD/sodipodi-0.dtd"
   xmlns:inkscape="http://www.inkscape.org/namespaces/inkscape"
   viewBox="0 0 282.731 50.071"
   version="1.1"
   id="svg18"
   sodipodi:docname="spectravideo.svg"
   inkscape:version="0.92.4 (5da689c313, 2019-01-14)">
  <metadata
     id="metadata24">
    <rdf:RDF>
      <cc:Work
         rdf:about="">
        <dc:format>image/svg+xml</dc:format>
        <dc:type
           rdf:resource="http://purl.org/dc/dcmitype/StillImage" />
      </cc:Work>
    </rdf:RDF>
  </metadata>
  <defs
     id="defs22" />
  <sodipodi:namedview
     pagecolor="#ffffff"
     bordercolor="#666666"
     borderopacity="1"
     objecttolerance="10"
     gridtolerance="10"
     guidetolerance="10"
     inkscape:pageopacity="0"
     inkscape:pageshadow="2"
     inkscape:window-width="640"
     inkscape:window-height="480"
     id="namedview20"
     showgrid="false"
     inkscape:zoom="2.5253687"
     inkscape:cx="157.45703"
     inkscape:cy="-10.209233"
     inkscape:current-layer="svg18" />
  <text
     transform="translate(251.129 34.972)"
     fill="#c23334"
     font-family="ArialMT"
     font-size="1"
     id="text2">I don’t like bugs!</text>
  <path
     d="M251.383 46.161H32.002l3.232 3.877 212.61.033 3.539-3.91z"
     fill="#e9e439"
     id="path4" />
  <path
     d="M256.491 40.037l-114.837.022L26.9 40.037l3.749 4.497L141.6 44.51l111.144.024 3.749-4.497h-.002z"
     fill="#d17733"
     id="path6" />
  <path
     d="M261.565 33.952H21.821l3.717 4.458 116.113-.018 116.196.018 3.718-4.458z"
     fill="#c23435"
     id="path8" />
  <g
     id="g14"
     style="fill:#9f9fa0"
     transform="translate(0,2)">
    <path
       d="m 35.656,22.216 c 0,0 -3.329,-5.555 -3.347,-5.538 -2.648,-3.89 -5.328,-5.6 -9.844,-5.6 H 11.884 L 8.186,6.118 H 25.412 L 22.445,0.534 c 0,0 -12.467,-0.2 -18.434,0 -3.483,0.016 -4.736,3.4 -3.608,5.539 -0.045,0.043 5.226,7.213 5.226,7.213 2.31,2.528 3.931,3.235 9.317,3.379 l 10.279,-0.005 3.604,5.583 H 12.066 l 5.611,6.73 c 0,0 14.461,0 14.513,-0.062 4.303,-0.012 4.42,-5.12 3.469,-6.695 z M 26.325,0.534 42.485,28.911 h 6.538 L 42.484,16.66 c 0,0 5.475,0.08 8.225,-0.101 4.763,0.1 6.506,-1.283 5.114,-5.447 L 53.593,6.11 C 51.503,1.939 50.599,0.835 44.315,0.533 h -17.99 z m 10.636,5.583 h 9.35 l 2.197,4.962 h -9.265 z m 47.192,22.795 -1.997,-6.615 c 0,0 -7.812,-0.123 -11.75,-0.053 -0.582,-1.358 -2.241,-5.583 -2.241,-5.583 H 79.924 L 78.39,11.134 H 66.187 L 63.932,6.116 H 76.559 L 75.044,0.483 61.255,0.533 c -3.421,0 -5.415,3.495 -4.772,5.62 l 7.047,16.174 c 2.205,4.204 4.294,5.94 8.317,6.438 4.505,0.549 12.306,0.147 12.306,0.147 z M 93.267,0.534 c 0,0 -5.446,-0.074 -8.995,0.072 -3.447,0.06 -5.776,2.629 -5.224,5.552 -0.013,-0.042 4.653,16.085 4.639,16.015 1.461,3.57 4.441,6.738 8.573,6.687 l 7.338,0.05 -1.243,-6.667 H 90.587 L 85.844,6.116 h 8.506 z m 2.499,5.582 h 5.356 l 4.567,22.795 h 5.475 L 107.457,6.116 h 4.181 L 110.929,0.565 94.682,0.534 Z m 36.862,10.544 c 2.542,0 5.521,-2.95 5.48,-5.307 -0.128,-1.73 -0.117,-3.581 -0.309,-5.25 -0.55,-3.583 -4.354,-5.506 -7.21,-5.57 -5.842,0.127 -17.593,0 -17.593,0 l 3.698,28.378 h 6.111 L 120.439,6.117 h 10.601 l 0.057,4.962 h -2.678 c -3.802,0 -4.138,2.819 -2.484,5.53 2.86,4.434 8.97,12.36 8.97,12.36 l 7.518,0.004 c 0.001,0 -5.578,-6.73 -9.795,-12.312 z"
       id="path10"
       inkscape:connector-curvature="0" />
    <path
       d="m 142.494,0.009 -1.23,28.91 6.238,0.057 -0.022,-6.733 h 8.57 l -0.299,6.743 5.68,-0.01 c 0,0 2.127,-10.873 2.086,-17.835 C 163.684,5 159.188,0.533 152.918,0.078 149.472,-0.036 142.494,0.008 142.494,0.008 Z m 14.266,11.07 0.105,4.988 -8.727,-0.052 -0.18,-9.897 c 6.231,-0.002 8.609,1.354 8.802,4.96 z m 17.898,17.349 c 3.535,-0.826 5.752,-3.564 8.135,-8.59 6.026,-12.7 9.053,-19.304 9.053,-19.304 h -6.761 l -9.415,19.889 c -0.854,1.41 -2.348,1.94 -3.914,1.82 1.206,-7.605 3.891,-21.71 3.891,-21.71 h -6.684 c 0,0 -4.477,26.984 -4.477,28.44 0,0.04 7.318,0.123 10.172,-0.544 z m 26.968,-27.894 -7.694,0.03 -8.208,28.409 7.246,-0.04 8.656,-28.4 z m 3.935,0.031 -8.992,28.408 h 15.093 c 4.466,0 9.829,-6.826 9.829,-6.826 l 7.777,-16.16 c 1.767,-4.004 -1.026,-5.453 -5.37,-5.375 -6.254,-0.08 -18.339,-0.047 -18.339,-0.047 z m 15.748,5.55 -6.282,16.128 c 0,0 -5.905,-0.064 -8.859,0 l 5.058,-16.127 h 10.083 z m 22.878,16.128 h -12.299 l 2.691,-5.583 h 13.267 l 2.692,-5.583 h -13.084 l 2.622,-4.962 14.046,0.012 2.841,-5.594 c 0,0 -9.93,-0.206 -15.655,0.175 -4.556,0.422 -7.722,2.858 -8.836,5.46 l -7.502,16.12 c -2.08,4.3 0.669,6.487 3.068,6.56 4.419,0.14 12.82,0.085 12.82,0.085 z m 22.8,-21.569 c -4.849,0.226 -7.487,2.116 -9.929,5.355 -3.225,4.29 -10.074,16.299 -10.074,16.299 -2.854,5.513 1.196,6.41 4.4,6.55 0.155,0.095 7.953,0.095 8.062,0.028 3.607,-0.078 4.365,-0.364 6.089,-1.38 0.898,-0.53 2.818,-2.603 5.066,-5.304 L 282.286,6.144 c 1.606,-2.2 -1.432,-5.61 -4.486,-5.517 10e-4,0 -10.642,-0.093 -10.813,0.047 z m -2.383,5.442 h 10.6 l -11.41,16.127 h -9.749 z"
       id="path12"
       inkscape:connector-curvature="0" />
  </g>
  <path
     d="M271.392 23.823v.747h1.434v3.793h.829V24.57h1.451v-.745l-3.714-.002zM276.643 23.823l-.387 4.54h.777l.387-2.959 1.105 2.958h.605l1.071-2.924.387 2.924h.795l-.387-4.54h-.967l-1.192 3.271-1.209-3.271-.985.001z"
     fill="#9f9fa0"
     id="path16" />
</svg>
