<?xml version="1.0" encoding="utf-8"?>
<!-- Generator: Adobe Illustrator 16.0.0, SVG Export Plug-In . SVG Version: 6.00 Build 0)  -->
<!DOCTYPE svg PUBLIC "-//W3C//DTD SVG 1.1//EN" "http://www.w3.org/Graphics/SVG/1.1/DTD/svg11.dtd">
<svg version="1.1"
	 id="svg3028" xmlns:dc="http://purl.org/dc/elements/1.1/" xmlns:sodipodi="http://sodipodi.sourceforge.net/DTD/sodipodi-0.dtd" xmlns:rdf="http://www.w3.org/1999/02/22-rdf-syntax-ns#" xmlns:cc="http://creativecommons.org/ns#" xmlns:inkscape="http://www.inkscape.org/namespaces/inkscape" xmlns:svg="http://www.w3.org/2000/svg" sodipodi:docname="Tecmo logo.svg" inkscape:version="0.48.0 r9654"
	 xmlns="http://www.w3.org/2000/svg" xmlns:xlink="http://www.w3.org/1999/xlink" x="0px" y="0px" width="1000.948px"
	 height="193.59px" viewBox="-250.43 -48.398 1000.948 193.59" enable-background="new -250.43 -48.398 1000.948 193.59"
	 xml:space="preserve">
<sodipodi:namedview  inkscape:current-layer="svg3028" guidetolerance="10" fit-margin-left="0" pagecolor="#ffffff" id="namedview3044" borderopacity="1" gridtolerance="10" inkscape:zoom="0.412" inkscape:cy="172.97502" objecttolerance="10" bordercolor="#666666" inkscape:cx="1611.5007" showgrid="false" fit-margin-top="0" inkscape:window-maximized="1" inkscape:window-y="0" inkscape:window-x="0" fit-margin-bottom="0" fit-margin-right="0" inkscape:pageopacity="0" inkscape:window-height="1028" inkscape:pageshadow="2" inkscape:window-width="1920">
	</sodipodi:namedview>
<g>
	<path id="path3032" inkscape:connector-curvature="0" fill="#DA2128" stroke="#E3232E" stroke-width="0.0386" d="M294.949-47.886
		c20.081-1.75,41.396,0.721,58.8,11.534c15.962-9.886,35.424-11.843,53.857-11.534c17.917,0.618,36.452,4.634,51.282,15.137
		c14.21,9.68,23.786,26.671,22.859,44.074c-0.104,43.354,0.206,86.706-0.104,130.061c-19.771-0.205-39.439,0.205-59.106-0.205
		c-0.104-43.663,0.205-87.223-0.207-130.884c0.207-10.503-12.975-12.46-21.007-12.255c-7.311,0.207-19.462,2.471-18.434,12.255
		c0,43.456,0.104,87.016-0.102,130.471c-20.184-0.205-40.366,0.413-60.552,0.206c-0.205-43.56-0.309-87.117,0.207-130.677
		c0.411-3.398-1.545-6.694-4.737-8.032c-8.032-3.811-17.813-4.016-26.156-0.927c-3.398,1.235-7.311,3.809-7.002,7.928
		c-0.412,44.073-0.207,88.046-0.207,132.119c-19.462-0.722-39.027,0-58.49-0.412c0.722-46.34-0.205-92.68,0.516-139.018
		c0.411-12.359,7.311-23.892,16.888-31.408c14.726-11.533,33.364-16.785,51.696-18.433H294.949z"/>
	<path id="path3034" fill="#DA2128" stroke="#E3232E" stroke-width="0.0386" d="M621.534-48.123
		c-4.208,0.025-8.454,0.241-12.639,0.563c-27.701,2.162-55.298,11.099-77.644,28.092c-13.593,10.607-25.292,24.209-31.471,40.48
		c-8.032,19.875-6.677,43.055,3.003,62.002c13.696,26.567,39.728,44.766,67.634,53.932c37.689,12.356,80.105,10.916,116.56-4.942
		c23.891-10.503,45.728-28.209,56.747-52.305c8.649-18.639,9.055-40.803,1.126-59.75c-7.621-18.846-22.34-34.03-39.229-45.047
		C680.662-41.047,650.987-48.299,621.534-48.123z M620.908-0.823c18.387-0.27,37.125,4.558,51.992,15.642
		c10.503,7.827,18.912,20.005,18.707,33.598c0.31,12.356-6.704,23.581-15.767,31.408c-23.786,19.771-58.647,22.74-86.966,11.824
		c-14.623-5.973-28.739-16.608-33.786-32.158c-4.221-12.255-0.623-26.358,7.821-36.038C575.267,8.83,594.282,1.57,613.025-0.385
		C615.626-0.63,618.282-0.784,620.908-0.823z"/>
	<path id="path3036" inkscape:connector-curvature="0" fill="#DA2128" stroke="#E3232E" stroke-width="0.0386" d="M-250.312-44.797
		c52.003,0,104.109,0,156.112,0c0,15.55,0,31.203,0,46.752c-16.682,0.309-33.364-0.104-50.047,0.205
		c-0.205,46.133,0.104,92.267-0.205,138.401c-19.36,0-38.823-0.104-58.182,0c-0.412-41.706,0-83.412-0.207-125.118
		c-0.103-4.634,0.515-9.268-0.514-13.798c-15.653,0.309-31.305,0.102-46.958,0.102C-250.414-13.802-250.518-29.351-250.312-44.797
		L-250.312-44.797z"/>
	<path id="path3038" inkscape:connector-curvature="0" fill="#DA2128" stroke="#E3232E" stroke-width="0.0386" d="M101.045-18.228
		c31.922-22.141,72.186-28.01,110.184-26.981c0,15.035-0.103,30.07,0,45.104c-25.332,0.104-53.136,2.575-73.113,19.978
		c-9.165,8.135-15.447,20.183-14.108,32.643c1.338,14.107,11.43,25.744,23.17,32.85c17.917,10.915,39.542,13.078,60.139,12.769
		c0,15.036,0,30.069,0,45.104c-35.424,1.03-72.496-4.839-102.565-24.716C81.994,103.49,64.488,78.364,63.973,50.457
		C62.634,22.858,78.904-2.885,101.045-18.228L101.045-18.228z"/>
	<path id="path3040" inkscape:connector-curvature="0" fill="#DA2128" stroke="#E3232E" stroke-width="0.0386" d="M-70.618-27.189
		c12.564-11.43,29.657-18.123,46.751-17.403c26.672,0.207,53.24-0.309,79.91,0.413c-0.103,14.932-0.103,29.967,0,44.898
		c-24.611,0.102-49.223,0-73.834,0.102c-2.883-0.206-5.354,1.339-7.62,2.884c-0.514,7.518-0.205,15.035-0.309,22.551
		c26.98,0,54.063,0,81.043,0c0.205,15.139,0.205,30.276,0,45.312c-27.083,0-54.167,0-81.249,0
		c-0.207,5.662-0.413,11.43-0.207,17.094c0,5.148,6.076,7.724,10.503,7.619c23.685,0,47.267,0,70.952,0
		c0.205,15.036,0.205,30.069,0,45.104c-26.774-0.205-53.549,0.309-80.219-0.309c-16.167-1.03-32.334-6.591-44.691-17.095
		c-8.444-7.313-14.932-17.815-14.726-29.245c-0.104-31.203,0-62.507,0-93.708C-84.417-9.887-78.341-19.876-70.618-27.189
		L-70.618-27.189z"/>
</g>
</svg>
