<?xml version="1.0" encoding="utf-8"?>
<!-- Generator: Adobe Illustrator 19.2.0, SVG Export Plug-In . SVG Version: 6.00 Build 0)  -->
<svg version="1.1" id="Layer_1" xmlns="http://www.w3.org/2000/svg" xmlns:xlink="http://www.w3.org/1999/xlink" x="0px" y="0px"
	 width="2363px" height="800px" viewBox="0 0 2363 800" style="enable-background:new 0 0 2363 800;" xml:space="preserve">
<g>
	<path style="fill:#8C8C8C;" d="M2363,136.1c-9.3-0.9-9.3-0.9-9.3-10.7c0-11.5,0-23,0-34.4c-0.3-0.1-0.6-0.1-0.9-0.2
		c-2.5,8.3-5.1,16.7-7.6,25c-1.7,5.5-3.6,10.9-4.9,16.5c-1,4.4-4.1,3.3-6.9,3.5c-2.9,0.3-4.2-0.9-5-3.8c-3.3-11.7-6.8-23.4-10.3-35
		c-0.5-1.6-0.5-3.4-2-4.6c-1.7,0.9-1,2.5-1,3.7c0,12-0.1,24,0.2,36c0.1,3.3-1.2,3.9-4,3.7c-2.4-0.2-5.4,0.9-5.4-3.5
		c0.1-17.4,0.1-34.8,0-52.2c0-2.5,1.1-3.2,3.5-3.3c10.8-0.7,10.7-0.8,13.8,9.6c3.5,11.8,7.2,23.6,10.8,35.5c1.9-0.4,1.6-2,2-3.2
		c3.8-12.5,7.8-24.9,11.4-37.4c1-3.5,2.6-4.8,6.2-4.5c3.1,0.3,6.2-0.1,9.4-0.2C2363,96.3,2363,116.2,2363,136.1z"/>
	<path style="fill:#8C8C8C;" d="M258.8,574.3c6.3-24.2,12.2-47,18.2-69.9c27.7-105.5,54.9-211.1,83.8-316.3c3-11.1,6.6-22,11.8-32.3
		c13.2-26.3,33.8-42.5,63.4-46.1c27.1-3.3,52.6,0.5,73.7,19.7c14.8,13.4,23.2,30.8,28.6,49.6c20.9,74.2,40.1,148.8,59.7,223.3
		c14.8,56.4,29.4,112.8,44.1,169.1c0.1,0.3,0.3,0.6,0.5,1c2.1-0.2,1.4-2.1,1.7-3.2c24-93.9,47.9-187.7,71.9-281.6
		c14.4-56.3,28.8-112.6,43-168.9c1.1-4.3,2.7-5.7,7.3-5.7c43,0.2,86,0.1,129.1,0.1c7.1,0,7,0,5.1,7c-25.1,90.3-50.1,180.7-75.4,271
		c-25.2,89.9-49.7,180.1-76.8,269.5c-9.1,29.9-25.4,55-53.2,70.9c-37.7,21.5-96.9,17-127.7-33.7c-11-18.1-17.1-38-22.8-58.1
		c-31.6-111.6-61.9-223.6-92.3-335.6c-0.3-1.2-0.7-2.3-1.2-3.8c-2.1,3.2-2.4,6.5-3.3,9.6c-28.1,103.4-56.1,206.8-85.2,310
		c-6.1,21.6-11,43.5-20.8,63.9c-10.3,21.4-24.4,39.2-46.1,50.2c-37.5,18.9-86.4,9-114.2-22.4c-17-19.2-26-42.1-33-66.2
		c-40.3-139-78.8-278.5-117.6-418C20.9,191,10.8,154.4,0.5,117.9c-1.2-4.2-0.3-4.9,3.8-4.9c43.9,0.1,87.8,0.1,131.7,0
		c4.2,0,5.5,1.5,6.5,5.3c31.2,122.7,62.5,245.4,93.8,368.1c7,27.5,14,54.9,21,82.4C257.6,570.2,258,571.5,258.8,574.3z"/>
	<path style="fill:#0196C7;" d="M1887.1,576.8c-71.7,0-143.5,0-215.2,0c-15.5,0-30.9-1.9-45.9-6.4c-42.3-12.5-65.7-41.7-73.8-84.2
		c-2.2-11.7-3.2-23.5-3.2-35.3c0-94.9,0-189.8,0-284.7c0-19.1,3.3-37.5,13.9-53.8c15-23,37.4-33.2,63.9-34.9
		c27.3-1.8,54.7-0.3,82-0.7c4.2-0.1,3.8,2.3,3.8,5c0,32.6-0.1,65.1,0,97.7c0.2,49.3-1.3,98.6,0.7,147.8
		c1.5,38.8,12.4,74.8,38.4,104.9c20,23.2,45.5,37.4,75,44.8c37,9.2,74.2,9.5,111.1,0c59.4-15.4,94.7-54.2,108.6-113.4
		c4.2-17.9,5.6-36.1,5.6-54.4c-0.1-75.4,0-150.8-0.1-226.2c0-5.1,1.4-6.3,6.3-6.2c25.9,0.5,51.9-0.9,77.8,0.7
		c48.7,2.9,79.2,35,79.5,83.9c0.3,59.7,0.1,119.5,0.1,179.2c0,38.7,0.1,77.3-0.1,116c-0.1,17.3-2.7,34.4-8.7,50.7
		c-13.3,36.7-40.2,57.4-77.5,65.6c-12.4,2.8-25.1,4-37.8,4C2023.3,576.8,1955.2,576.8,1887.1,576.8z"/>
	<path style="fill:#8C8C8C;" d="M974.1,521.1c0-70.2,0.1-140.3-0.1-210.5c0-5,1.3-6.3,6.3-6.3c40.7,0.2,81.5,0.2,122.2,0
		c4.7,0,5.7,1.4,5.7,5.9c-0.1,141-0.1,282.1,0,423.1c0,4.6-1.2,5.8-5.8,5.8c-40.9-0.2-81.8-0.2-122.7,0c-4.7,0-5.7-1.4-5.7-5.9
		C974.1,662.5,974.1,591.8,974.1,521.1z"/>
	<path style="fill:#8C8C8C;" d="M1246.8,521.1c0-70.2,0.1-140.3-0.1-210.5c0-5.1,1.3-6.3,6.3-6.3c40.6,0.2,81.1,0.2,121.7,0
		c4.5,0,6.2,0.7,6.2,5.8c-0.2,141-0.1,282.1,0,423.1c0,4.6-1.2,5.8-5.8,5.8c-40.9-0.2-81.8-0.2-122.7,0c-4.8,0-5.7-1.4-5.7-5.9
		C1246.9,662.5,1246.8,591.8,1246.8,521.1z"/>
	<path style="fill:#0196C7;" d="M1969.9,200.3c0,39.3,0.8,78.7-0.3,118c-0.7,27-10.4,51.1-30.9,69.7
		c-38.8,35.2-112.9,28.3-136.9-35.4c-4.9-13-7.4-26.5-7.5-40.3c-0.1-77-0.1-153.9-0.2-230.9c0-3.6,1-4.7,4.6-4.7
		c55.5,0.1,111.1,0.1,166.6,0c4,0,4.9,1.2,4.9,5c-0.1,39.5-0.1,79-0.1,118.6C1970.2,200.3,1970,200.3,1969.9,200.3z"/>
	<path style="fill:#8C8C8C;" d="M960.8,154.3c0.1-40.6,32.7-74.7,71.4-77.1c28.6-1.7,53.1,6.7,71.3,29.2c29.2,36,18.5,88.8-22,111.2
		c-39.7,22-88,9.8-110.5-27.9C964.1,178.3,961.1,165.8,960.8,154.3z"/>
	<path style="fill:#8C8C8C;" d="M1393,152.1c-0.1,36.2-24.8,65.6-61.8,74.4c-37.9,9-77.5-10.7-91.8-45.9
		c-18.3-44.8,10.2-92.9,56.3-101.8c33.4-6.5,62,3.3,83.2,30.8C1388.6,122.3,1392.5,137.2,1393,152.1z"/>
	<path style="fill:#8C8C8C;" d="M2281.2,110.9c0,7-0.3,13.9,0.1,20.9c0.2,4.7-2.6,3.8-5.4,4c-2.9,0.1-4.9,0-4.8-4
		c0.2-13.6-0.1-27.2,0.2-40.7c0.1-4.5-1.4-5.9-5.6-5.4c-2.4,0.3-4.9-0.1-7.3,0.1c-3.4,0.2-5.4-0.1-5.4-4.5c0-4.5,2.2-4.5,5.5-4.5
		c12.2,0.1,24.4,0.2,36.6,0c3.6-0.1,4.3,1.3,4.3,4.6c0,3.3-0.7,5-4.3,4.5c-0.3-0.1-0.7,0-1,0c-12.8,0.1-12.8,0.1-12.8,12.7
		C2281.2,102.6,2281.2,106.7,2281.2,110.9z"/>
</g>
</svg>
