<?xml version="1.0" encoding="UTF-8" standalone="no"?>
<!-- Generator: Adobe Illustrator 22.0.1, SVG Export Plug-In . SVG Version: 6.00 Build 0)  -->

<svg
   xmlns:dc="http://purl.org/dc/elements/1.1/"
   xmlns:cc="http://creativecommons.org/ns#"
   xmlns:rdf="http://www.w3.org/1999/02/22-rdf-syntax-ns#"
   xmlns:svg="http://www.w3.org/2000/svg"
   xmlns="http://www.w3.org/2000/svg"
   xmlns:sodipodi="http://sodipodi.sourceforge.net/DTD/sodipodi-0.dtd"
   xmlns:inkscape="http://www.inkscape.org/namespaces/inkscape"
   version="1.1"
   id="Calque_1"
   x="0px"
   y="0px"
   viewBox="0 0 960 960"
   style="enable-background:new 0 0 960 960;"
   xml:space="preserve"
   sodipodi:docname="splash.svg"
   inkscape:version="0.92.4 (5da689c313, 2019-01-14)"><metadata
   id="metadata4050"><rdf:RDF><cc:Work
       rdf:about=""><dc:format>image/svg+xml</dc:format><dc:type
         rdf:resource="http://purl.org/dc/dcmitype/StillImage" /><dc:title></dc:title></cc:Work></rdf:RDF></metadata><defs
   id="defs4048">
	
	
	
	
	
	
	
			
	
	
	
	
	
	

</defs><sodipodi:namedview
   pagecolor="#ffffff"
   bordercolor="#666666"
   borderopacity="1"
   objecttolerance="10"
   gridtolerance="10"
   guidetolerance="10"
   inkscape:pageopacity="0"
   inkscape:pageshadow="2"
   inkscape:window-width="1920"
   inkscape:window-height="1018"
   id="namedview4046"
   showgrid="false"
   inkscape:zoom="0.88333333"
   inkscape:cx="204.39287"
   inkscape:cy="465.51586"
   inkscape:window-x="-8"
   inkscape:window-y="-8"
   inkscape:window-maximized="1"
   inkscape:current-layer="Calque_1" />
<g
   id="g3973">
	
	
	
	
	
	
	
	
</g>

<path
   inkscape:connector-curvature="0"
   style="fill:none;stroke:#f4f4f4;stroke-width:3;stroke-miterlimit:4;stroke-dasharray:none;stroke-opacity:1"
   id="path4015"
   d="m 664.34151,436.3283 c 2.2,3.6 3.8,7.6 4.5,11.9 0.5,3.1 0.7,6.2 0.3,9.5 l -11.5,101.6 c -1.8,15.5 -16.4,26 -31.7,22.8 l -152.7,-32.5 c -13.6,-2.9 -21.7,-17 -17.3,-30.3 l 27,-80.5 2.8,-8.5 c 0.6,-1.7 1.2,-3.3 2,-4.9 1.3,-2.6 2.8,-5.1 4.5,-7.3 3.9,-5 8.9,-9 14.5,-11.7 l -45.7,-8.5 c -23.4,-4.4 -46.8,7.4 -57.3,28.7 l -33.8,69 c -13.8,-2.8 -42.4,-7.4 -62.7,-1.7 -32.1,9.1 -38.8,28.8 -44.8,46.1 -4.7,13.7 -8.8,25.6 -25.2,32.8 -8.5,3.7 -25.9,4 -39.8,4.2 -12.4,0.2 -23.1,0.4 -29.7,2.5 -23.3,7.7 -40.8,26.2 -46.8,49.5 -2.7,10.5 -2.5,19.8 0.6,27.7 8,20.4 30.6,28.2 38.1,30.7 0.4,0.2 0.8,0.3 1.1,0.4 l 0.4,0.1 59.3,14.3 3.3,-13.6 -58.3,-14.1 c -0.3,-0.1 -0.6,-0.2 -0.9,-0.3 -5.9,-2 -24,-8.1 -29.5,-22.5 -2,-5.1 -2,-11.6 -0.1,-19.2 4.8,-18.6 18.8,-33.5 37.6,-39.6 4.5,-1.5 15.2,-1.7 25.5,-1.8 16,-0.3 34.2,-0.5 45.3,-5.4 22,-9.7 27.7,-26.4 32.8,-41.1 5.5,-16.1 10.3,-30 35.3,-37.1 14.9,-4.2 36.4,-1.7 50.1,0.8 1.5,-1.9 3.2,-3.7 5.1,-5.3 2.8,-2.3 6.1,-4.4 9.7,-6 6,-2.7 13,-4.2 20.4,-4.2 22.6,0 41,14.1 41,31.5 v 12.6 c 0,0.5 0,1 0,1.5 0,0.2 0,0.3 0,0.5 0,0.3 -0.1,0.7 -0.1,1 0,0.2 -0.1,0.4 -0.1,0.6 0,0.3 -0.1,0.6 -0.2,0.9 0,0.2 -0.1,0.4 -0.1,0.6 0,0.1 0,0.2 -0.1,0.3 0,0.2 -0.1,0.4 -0.1,0.6 0,0.2 -0.1,0.4 -0.2,0.6 -0.1,0.3 -0.2,0.6 -0.3,0.9 -0.1,0.2 -0.1,0.4 -0.2,0.6 -0.1,0.3 -0.2,0.6 -0.4,1 -0.1,0.2 -0.1,0.3 -0.2,0.5 -0.2,0.5 -0.4,0.9 -0.6,1.4 0,0 0,0 0,0 -0.2,0.5 -0.5,1 -0.8,1.5 -0.1,0.2 -0.2,0.3 -0.3,0.5 -0.2,0.3 -0.4,0.7 -0.6,1 -0.1,0.2 -0.2,0.4 -0.4,0.6 -0.2,0.3 -0.4,0.6 -0.6,0.8 -0.1,0.2 -0.3,0.4 -0.4,0.6 -0.2,0.3 -0.4,0.5 -0.6,0.8 0,0 -0.1,0.1 -0.1,0.1 -0.1,0.1 -0.2,0.2 -0.3,0.3 -0.3,0.4 -0.6,0.8 -1,1.1 -0.2,0.2 -0.3,0.3 -0.4,0.5 -0.3,0.4 -0.7,0.7 -1,1.1 -0.1,0.1 -0.3,0.3 -0.4,0.4 -0.5,0.5 -1,0.9 -1.5,1.3 -0.1,0.1 -0.2,0.2 -0.3,0.2 -0.4,0.4 -0.9,0.7 -1.3,1.1 -0.2,0.1 -0.4,0.3 -0.5,0.4 -0.4,0.3 -0.8,0.6 -1.2,0.9 -0.2,0.1 -0.4,0.2 -0.5,0.3 -0.6,0.4 -1.2,0.8 -1.8,1.1 0,0 0,0 0,0 -0.6,0.4 -1.3,0.7 -1.9,1 -0.2,0.1 -0.4,0.2 -0.6,0.3 -0.5,0.2 -1,0.5 -1.4,0.7 -0.2,0.1 -0.4,0.2 -0.7,0.3 -0.5,0.2 -1.1,0.5 -1.7,0.7 -0.1,0 -0.3,0.1 -0.4,0.2 -0.7,0.3 -1.4,0.5 -2.1,0.7 -0.2,0.1 -0.4,0.1 -0.6,0.2 -0.5,0.2 -1.1,0.3 -1.7,0.5 -0.2,0.1 -0.5,0.1 -0.7,0.2 -0.6,0.1 -1.1,0.3 -1.7,0.4 -0.2,0 -0.4,0.1 -0.6,0.1 -0.8,0.1 -1.5,0.3 -2.3,0.4 -0.2,0 -0.3,0 -0.5,0.1 -0.6,0.1 -1.3,0.2 -2,0.2 -0.3,0 -0.5,0.1 -0.8,0.1 -0.6,0 -1.2,0.1 -1.8,0.1 -0.3,0 -0.5,0 -0.7,0 -0.8,0 -1.7,0.1 -2.5,0.1 -22.6,0 -41,-14.1 -41,-31.5 v -11.8 l -6.7,13.7 c -17.4,35.4 3.3,77.7 41.9,85.7 l 232.9,48.3 c 32.1,6.6 62.8,-16.2 65.7,-48.8 l 11.7,-132.5 c 2.5,-25.5 -13.2,-48.3 -36.6,-55.6 z m -213.2,96.6 0.4,-1.1 c 0.5,12.1 9,23 21.7,25.6 l 153.4,31.5 c 12.6,2.6 24.7,-3.9 30,-14.9 l -0.1,1.4 c -1.7,15.8 -16.5,26.6 -32.1,23.4 l -153.4,-31.2 c -15.8,-3.2 -25.1,-19.5 -19.9,-34.7 z m 227.8,88.2 c -1.2,5.2 -3.1,10.3 -6,15 l -1.1,1.8 -1.2,1.7 c -0.4,0.6 -0.8,1.1 -1.3,1.7 -0.4,0.5 -0.9,1.1 -1.4,1.6 -1.9,2.1 -3.9,4 -6.2,5.7 -2.3,1.7 -4.6,3.2 -7.1,4.5 -2.5,1.3 -5.1,2.4 -7.8,3.2 -10.7,3.4 -22.1,3.5 -32.9,1.5 -1.4,-0.2 -2.6,-0.5 -3.9,-0.8 l -3.8,-0.8 -7.6,-1.6 c -5.1,-1.1 -10.1,-2.2 -15.2,-3.3 -20.2,-4.4 -40.4,-9 -60.5,-13.9 -10,-2.5 -20.1,-5 -30.1,-7.6 -5,-1.3 -10,-2.6 -15,-4 -5,-1.4 -10,-2.8 -15,-4.2 5.2,0.6 10.3,1.3 15.4,2.1 5.1,0.7 10.3,1.5 15.4,2.3 10.3,1.5 20.5,3.3 30.7,5 20.4,3.5 40.8,7.3 61.1,11.3 5.1,1 10.2,2 15.2,3 l 15.1,3.1 c 9.5,1.9 19.4,2 28.6,-0.3 4.6,-1.2 9,-3 13,-5.5 2,-1.3 3.9,-2.7 5.7,-4.3 1.7,-1.6 3.5,-3.3 5,-5.3 6.2,-7.6 9.9,-17.3 12.2,-27.4 0.4,5 -0.1,10.3 -1.3,15.5 z" /><polygon
   id="polygon4021"
   points=""
   transform="translate(22.641509,80.528302)" />
<g
   id="g925"><path
     d="m 437.24151,529.3283 c 0,0.1 0,0.2 -0.1,0.4 0,0.2 -0.1,0.3 -0.1,0.5 0,-0.3 0.1,-0.6 0.2,-0.9 z"
     id="path4017"
     inkscape:connector-curvature="0" /><path
     d="m 435.84151,533.6283 c -0.1,0.2 -0.2,0.5 -0.3,0.7 v 0 c 0.1,-0.2 0.2,-0.4 0.3,-0.7 z"
     id="path4019"
     inkscape:connector-curvature="0" /><path
     d="m 621.34151,475.3283 c 0,0.1 -0.1,0.1 -0.2,0.2 -0.1,0.1 -0.2,0.3 -0.3,0.4 0.2,-0.3 0.3,-0.5 0.5,-0.6 z"
     id="path4023"
     inkscape:connector-curvature="0" /><path
     d="m 626.24151,467.8283 c 0,0.1 -0.1,0.2 -0.2,0.3 0,0.1 -0.1,0.1 -0.1,0.2 0.2,-0.2 0.2,-0.4 0.3,-0.5 z"
     id="path4025"
     inkscape:connector-curvature="0" /><path
     d="m 597.14151,413.7283 -1.4,8.1 c 0.9,0.5 1.7,1.1 2.6,1.7 5.5,3.9 9.7,9 12,14.7 1.3,3.2 2,6.6 2,10.1 0,0.3 0,0.6 0,0.8 -0.6,16.8 -17.8,30.2 -38.8,30.1 -21.4,-0.1 -40.7,-15.3 -40.6,-32.5 0,-3.2 0.7,-6.2 1.9,-9.1 1.7,-4 4.5,-7.7 8.1,-10.9 2.5,-2.2 5.3,-4.1 8.5,-5.7 0.8,-0.4 1.6,-0.9 2.5,-1.2 v -4.6 l 0.1,-8.6 0.5,-50.2 c -22.3,-12.1 -37.4,-36 -37.3,-63.5 0.2,-39.5 31.7,-71.4 70.4,-71.2 38.7,0.2 70,32.3 69.8,71.8 -0.2,32.6 -21.6,59.9 -50.8,68.5 z"
     id="path4027"
     style="fill:none;stroke:#f4f4f4;stroke-width:2.9000001;stroke-miterlimit:4;stroke-dasharray:none;stroke-opacity:1"
     inkscape:connector-curvature="0" /><path
     d="m 629.84151,454.8283 -2.6,39.9 c 0,0.7 -0.1,1.3 -0.2,2 0,0.2 0,0.4 -0.1,0.6 -0.1,0.5 -0.1,1 -0.3,1.5 0,0.2 -0.1,0.4 -0.1,0.6 -0.1,0.6 -0.3,1.2 -0.4,1.8 0,0.1 0,0.1 0,0.2 0,0 0,0 0,0 -0.2,0.6 -0.4,1.3 -0.6,1.9 -0.1,0.2 -0.1,0.4 -0.2,0.6 -0.2,0.5 -0.3,0.9 -0.5,1.3 -0.1,0.2 -0.2,0.5 -0.3,0.7 -0.2,0.4 -0.4,0.8 -0.6,1.2 -0.1,0.2 -0.2,0.4 -0.3,0.6 0,0.1 -0.1,0.2 -0.1,0.3 -0.1,0.3 -0.3,0.5 -0.4,0.7 -0.2,0.3 -0.3,0.6 -0.5,0.9 -0.2,0.3 -0.4,0.7 -0.6,1 -0.2,0.3 -0.4,0.6 -0.6,0.9 -0.2,0.3 -0.4,0.6 -0.7,1 -0.2,0.3 -0.4,0.6 -0.6,0.9 -0.2,0.3 -0.5,0.6 -0.7,0.9 -0.2,0.3 -0.5,0.6 -0.7,0.9 0,0.1 -0.1,0.1 -0.2,0.2 -0.1,0.1 -0.2,0.3 -0.3,0.4 -0.5,0.5 -1,1.1 -1.5,1.6 -0.2,0.2 -0.4,0.4 -0.6,0.6 -0.6,0.6 -1.2,1.2 -1.9,1.8 -0.1,0.1 -0.1,0.1 -0.2,0.2 -0.7,0.6 -1.5,1.3 -2.3,1.8 -0.2,0.2 -0.4,0.3 -0.7,0.5 -0.6,0.5 -1.2,0.9 -1.8,1.3 -0.2,0.2 -0.5,0.3 -0.7,0.5 -0.8,0.6 -1.7,1.1 -2.6,1.6 -0.1,0 -0.1,0.1 -0.2,0.1 -0.8,0.5 -1.7,0.9 -2.5,1.4 -0.3,0.1 -0.5,0.3 -0.8,0.4 -0.7,0.4 -1.4,0.7 -2.2,1 -0.3,0.1 -0.5,0.2 -0.8,0.3 -1,0.4 -2,0.8 -3,1.2 -0.2,0.1 -0.4,0.1 -0.5,0.2 -0.8,0.3 -1.7,0.6 -2.6,0.9 -0.3,0.1 -0.6,0.2 -0.9,0.3 -0.8,0.3 -1.7,0.5 -2.5,0.7 -0.2,0.1 -0.5,0.1 -0.7,0.2 -1.1,0.3 -2.2,0.5 -3.3,0.7 -0.3,0.1 -0.5,0.1 -0.8,0.2 -0.9,0.2 -1.8,0.3 -2.6,0.5 -0.3,0 -0.7,0.1 -1,0.1 -1,0.1 -2,0.3 -3,0.4 -0.2,0 -0.3,0 -0.5,0 -1.2,0.1 -2.3,0.2 -3.5,0.2 -0.3,0 -0.6,0 -1,0 -0.9,0 -1.8,0 -2.7,0 -0.3,0 -0.7,0 -1,0 -1.2,0 -2.4,-0.1 -3.7,-0.1 -32.1,-2.1 -56.9,-23.2 -55.4,-47.3 l 2.6,-39.9 c 0,0.7 -0.1,1.3 -0.1,2 v 0.3 c 0,2.2 0.2,4.4 0.7,6.6 0.3,1.4 0.7,2.9 1.2,4.3 1.9,5.6 5.3,10.8 9.7,15.4 10,10.4 25.8,17.6 43.9,18.7 1.2,0.1 2.4,0.1 3.7,0.1 0.3,0 0.7,0 1,0 0.9,0 1.8,0 2.7,0 0.3,0 0.6,0 1,0 1.2,-0.1 2.3,-0.1 3.5,-0.2 0.2,0 0.3,0 0.5,-0.1 1,-0.1 2,-0.2 3,-0.3 0.3,0 0.7,-0.1 1,-0.2 0.9,-0.1 1.8,-0.3 2.6,-0.4 0.3,-0.1 0.5,-0.1 0.8,-0.1 1.1,-0.2 2.2,-0.5 3.3,-0.7 0.2,-0.1 0.5,-0.1 0.7,-0.2 0.9,-0.2 1.7,-0.5 2.5,-0.7 0.3,-0.1 0.6,-0.2 0.9,-0.3 0.9,-0.3 1.7,-0.6 2.5,-0.9 0.2,-0.1 0.4,-0.1 0.5,-0.2 1,-0.4 2,-0.8 3,-1.2 0.3,-0.1 0.5,-0.2 0.8,-0.3 0.7,-0.3 1.5,-0.7 2.2,-1 0.3,-0.1 0.5,-0.3 0.8,-0.4 0.9,-0.4 1.7,-0.9 2.5,-1.4 0.1,0 0.1,-0.1 0.2,-0.1 0.9,-0.5 1.7,-1 2.6,-1.6 0.2,-0.2 0.5,-0.3 0.7,-0.5 0.6,-0.4 1.2,-0.9 1.8,-1.3 0.2,-0.2 0.5,-0.3 0.7,-0.5 0.8,-0.6 1.5,-1.2 2.3,-1.8 0.1,-0.1 0.1,-0.1 0.2,-0.2 0.7,-0.6 1.3,-1.2 1.9,-1.8 0.2,-0.2 0.4,-0.4 0.6,-0.6 0.5,-0.5 1,-1.1 1.5,-1.6 0.1,-0.1 0.2,-0.2 0.3,-0.4 0,-0.1 0.1,-0.1 0.2,-0.2 0.2,-0.3 0.5,-0.6 0.7,-0.9 0.2,-0.3 0.5,-0.6 0.7,-0.9 0.2,-0.3 0.4,-0.6 0.6,-0.9 0.2,-0.3 0.5,-0.6 0.7,-0.9 0.2,-0.3 0.4,-0.6 0.6,-0.9 0.2,-0.3 0.4,-0.7 0.6,-1 0.2,-0.3 0.4,-0.6 0.5,-0.9 0.1,-0.2 0.2,-0.4 0.3,-0.5 0,-0.1 0.1,-0.1 0.1,-0.2 0.1,-0.1 0.1,-0.2 0.2,-0.3 0.1,-0.2 0.2,-0.4 0.3,-0.6 0.2,-0.4 0.4,-0.8 0.6,-1.2 0.1,-0.2 0.2,-0.5 0.3,-0.7 0.2,-0.4 0.3,-0.9 0.5,-1.3 l 0.2,-0.6 c 0.2,-0.6 0.4,-1.3 0.6,-1.9 0,0 0,0 0,0 0,0 0,-0.1 0,-0.2 0.1,-0.6 0.3,-1.2 0.4,-1.8 0,-0.2 0.1,-0.4 0.1,-0.6 0.1,-0.5 0.2,-1 0.3,-1.5 0,-0.2 0.1,-0.4 0.1,-0.6 0.1,-0.9 0.2,-1.6 0.2,-2.2 z"
     id="path4029"
     style="fill:none;stroke:#f4f4f4;stroke-width:3;stroke-miterlimit:4;stroke-dasharray:none;stroke-opacity:1"
     inkscape:connector-curvature="0" /><path
     d="m 355.74151,524.9283 v 0 -0.7 c 0,0.3 0,0.5 0,0.7 z"
     id="path4031"
     inkscape:connector-curvature="0"
     style="fill:#831308" /><path
     d="m 437.74151,524.2283 v 12.6 c 0,0.5 0,1 0,1.5 0,0.2 0,0.3 0,0.5 0,0.3 -0.1,0.7 -0.1,1 0,0.2 -0.1,0.4 -0.1,0.6 0,0.3 -0.1,0.6 -0.2,0.9 0,0.2 -0.1,0.4 -0.1,0.6 0,0.1 0,0.2 -0.1,0.3 0,0.2 -0.1,0.4 -0.1,0.6 0,0.2 -0.1,0.4 -0.2,0.6 -0.1,0.3 -0.2,0.6 -0.3,0.9 -0.1,0.2 -0.1,0.4 -0.2,0.6 -0.1,0.3 -0.2,0.6 -0.4,1 -0.1,0.2 -0.1,0.3 -0.2,0.5 -0.2,0.5 -0.4,0.9 -0.6,1.4 0,0 0,0 0,0 -0.2,0.5 -0.5,1 -0.8,1.5 -0.1,0.2 -0.2,0.3 -0.3,0.5 -0.2,0.3 -0.4,0.7 -0.6,1 -0.1,0.2 -0.2,0.4 -0.4,0.6 -0.2,0.3 -0.4,0.6 -0.6,0.8 -0.1,0.2 -0.3,0.4 -0.4,0.6 -0.2,0.3 -0.4,0.5 -0.6,0.8 0,0 -0.1,0.1 -0.1,0.1 -0.1,0.1 -0.2,0.2 -0.3,0.3 -0.3,0.4 -0.6,0.8 -1,1.1 -0.2,0.2 -0.3,0.3 -0.4,0.5 -0.3,0.4 -0.7,0.7 -1,1.1 -0.1,0.1 -0.3,0.3 -0.4,0.4 -0.5,0.5 -1,0.9 -1.5,1.3 -0.1,0.1 -0.2,0.2 -0.3,0.2 -0.4,0.4 -0.9,0.7 -1.3,1.1 -0.2,0.1 -0.4,0.3 -0.5,0.4 -0.4,0.3 -0.8,0.6 -1.2,0.9 -0.2,0.1 -0.4,0.2 -0.5,0.3 -0.6,0.4 -1.2,0.8 -1.8,1.1 0,0 0,0 0,0 -0.6,0.4 -1.3,0.7 -1.9,1 -0.2,0.1 -0.4,0.2 -0.6,0.3 -0.5,0.2 -1,0.5 -1.4,0.7 -0.2,0.1 -0.4,0.2 -0.7,0.3 -0.5,0.2 -1.1,0.5 -1.7,0.7 -0.1,0 -0.3,0.1 -0.4,0.2 -0.7,0.3 -1.4,0.5 -2.1,0.7 -0.2,0.1 -0.4,0.1 -0.6,0.2 -0.5,0.2 -1.1,0.3 -1.7,0.5 -0.2,0.1 -0.5,0.1 -0.7,0.2 -0.6,0.1 -1.1,0.3 -1.7,0.4 -0.2,0 -0.4,0.1 -0.6,0.1 -0.8,0.1 -1.5,0.3 -2.3,0.4 -0.2,0 -0.3,0 -0.5,0.1 -0.6,0.1 -1.3,0.2 -2,0.2 -0.3,0 -0.5,0.1 -0.8,0.1 -0.6,0 -1.2,0.1 -1.8,0.1 -0.3,0 -0.5,0 -0.7,0 -0.8,0 -1.7,0.1 -2.5,0.1 -22.6,0 -41,-14.1 -41,-31.5 v -11.8 0 c 0.5,17.1 18.6,30.8 41,30.8 0.8,0 1.7,0 2.5,-0.1 0.3,0 0.5,0 0.7,0 0.6,0 1.2,-0.1 1.8,-0.1 0.3,0 0.5,0 0.8,-0.1 0.7,-0.1 1.3,-0.2 2,-0.3 0.2,0 0.3,0 0.5,-0.1 0.8,-0.1 1.5,-0.3 2.3,-0.4 0.2,0 0.4,-0.1 0.6,-0.1 0.6,-0.1 1.1,-0.3 1.7,-0.4 0.2,-0.1 0.5,-0.1 0.7,-0.2 0.6,-0.1 1.1,-0.3 1.7,-0.5 0.2,-0.1 0.4,-0.1 0.6,-0.2 0.7,-0.2 1.4,-0.5 2.1,-0.7 0.1,0 0.3,-0.1 0.4,-0.2 0.6,-0.2 1.1,-0.4 1.7,-0.7 0.2,-0.1 0.4,-0.2 0.7,-0.3 0.5,-0.2 1,-0.4 1.4,-0.7 0.2,-0.1 0.4,-0.2 0.6,-0.3 0.7,-0.3 1.3,-0.7 1.9,-1 0,0 0,0 0,0 0.6,-0.4 1.2,-0.7 1.8,-1.1 l 0.5,-0.4 c 0.4,-0.3 0.8,-0.6 1.2,-0.9 l 0.5,-0.4 c 0.5,-0.3 0.9,-0.7 1.3,-1 0.1,-0.1 0.2,-0.2 0.3,-0.2 0.5,-0.4 1,-0.9 1.5,-1.3 0.1,-0.1 0.3,-0.3 0.4,-0.4 0.4,-0.3 0.7,-0.7 1,-1 0.2,-0.2 0.3,-0.3 0.4,-0.5 0.3,-0.4 0.7,-0.7 1,-1.1 0.1,-0.1 0.2,-0.3 0.3,-0.4 0.2,-0.3 0.4,-0.5 0.6,-0.8 0.1,-0.2 0.3,-0.4 0.4,-0.6 0.2,-0.3 0.4,-0.6 0.6,-0.8 0.1,-0.2 0.3,-0.4 0.4,-0.5 0.2,-0.3 0.4,-0.7 0.6,-1 0.1,-0.2 0.2,-0.3 0.3,-0.4 0.3,-0.5 0.5,-1 0.8,-1.5 0.1,-0.2 0.2,-0.5 0.3,-0.7 0,0 0,0 0,0 0.1,-0.2 0.2,-0.5 0.3,-0.7 0.1,-0.1 0.1,-0.3 0.2,-0.5 0.1,-0.3 0.3,-0.6 0.4,-1 0.1,-0.2 0.1,-0.4 0.2,-0.6 0.1,-0.3 0.2,-0.6 0.3,-0.9 0.1,-0.2 0.1,-0.4 0.2,-0.6 0,-0.2 0.1,-0.3 0.1,-0.5 0,-0.1 0,-0.2 0.1,-0.4 0,-0.2 0.1,-0.4 0.1,-0.6 0,-0.3 0.1,-0.6 0.2,-0.9 0,-0.2 0.1,-0.4 0.1,-0.5 0,-0.3 0.1,-0.7 0.1,-1 0,-0.2 0,-0.3 0,-0.5 0.1,-0.9 0.1,-1.4 0.1,-1.9 z"
     id="path4033"
     style="fill:none;stroke:#f4f4f4;stroke-width:3;stroke-miterlimit:4;stroke-dasharray:none;stroke-opacity:1"
     inkscape:connector-curvature="0" /><path
     d="m 435.54151,534.3283 v 0 c 0.1,-0.2 0.2,-0.5 0.3,-0.7 -0.1,0.3 -0.2,0.5 -0.3,0.7 z"
     id="path4037"
     inkscape:connector-curvature="0"
     style="fill:#bf1617" /><path
     inkscape:connector-curvature="0"
     id="path863"
     style="font-style:normal;font-variant:normal;font-weight:normal;font-stretch:normal;font-size:41.53583527px;line-height:1.25;font-family:'Baskerville Old Face';-inkscape-font-specification:'Baskerville Old Face';letter-spacing:0px;word-spacing:0px;fill:#999999;fill-opacity:1;stroke:none;stroke-width:1.03839588"
     d="m 397.77275,509.13938 3.64498,5.62372 -0.39382,0.25082 q -1.08014,-1.34354 -2.16479,-2.00535 -1.08465,-0.6618 -2.51171,-0.82148 -1.18043,-0.13813 -2.44649,0.26497 -1.27621,0.38553 -3.13799,1.46044 l -4.02216,2.32219 6.08435,10.5384 1.05384,-0.60843 q 1.59832,-0.92279 2.28458,-1.60003 0.68626,-0.67723 0.88126,-1.51579 0.19771,-0.79329 0.0306,-1.61012 -0.15973,-0.84453 -0.78248,-2.28822 l 0.41413,-0.21566 5.3651,9.45487 -0.40397,0.23324 q -0.9389,-1.26117 -1.73166,-1.90414 -0.7752,-0.65312 -1.65432,-0.91838 -0.85142,-0.25782 -1.8466,-0.0345 -0.99518,0.22329 -2.29492,0.97369 l -1.00115,0.57802 2.3222,4.02216 q 1.38926,2.40627 2.15106,3.44181 0.75166,1.01798 1.52885,1.55286 1.3273,0.91983 2.884,0.81731 1.56412,-0.13023 3.56641,-1.28625 2.10768,-1.21687 3.22615,-2.56519 1.10833,-1.36586 1.35509,-3.00713 0.19626,-1.12032 0.0249,-2.30943 -0.15376,-1.19925 -0.7327,-2.97268 l 0.41413,-0.21566 3.80761,7.1223 -20.95386,12.09772 -0.23323,-0.40396 q 0.97075,-0.63067 1.45364,-1.21396 0.50047,-0.5934 0.69819,-1.38669 0.21998,-0.87641 -0.0837,-1.84859 -0.29627,-0.99989 -1.3306,-2.79141 l -7.47362,-12.94468 q -1.03434,-1.79153 -1.74199,-2.53048 -0.70023,-0.76665 -1.56922,-1.01434 -0.7683,-0.23556 -1.53243,-0.0988 -0.74657,0.1266 -1.79571,0.66205 l -0.23323,-0.40396 z" /><path
     inkscape:connector-curvature="0"
     id="path866"
     d="m 478.19139,578.56966 -1.11188,6.35736 -0.44228,-0.081 q 0.11789,-1.65596 -0.21407,-2.8337 -0.33195,-1.17775 -1.23456,-2.22541 -0.74265,-0.87089 -1.90035,-1.41586 -1.15335,-0.56403 -3.17165,-1.02515 l -4.36031,-0.9962 -2.61012,11.42438 1.14244,0.26101 q 1.73269,0.39587 2.66077,0.36749 0.92807,-0.0284 1.6151,-0.49248 0.6593,-0.43038 1.07648,-1.11641 0.44058,-0.70072 0.94691,-2.12769 l 0.43359,0.11906 -2.40785,10.18838 -0.43794,-0.10005 q 0.16361,-1.50529 0.0253,-2.4785 -0.11923,-0.96886 -0.56594,-1.73206 -0.432,-0.73981 -1.2807,-1.23422 -0.8487,-0.49442 -2.25771,-0.81634 l -1.08531,-0.24796 -0.9962,4.3603 q -0.59598,2.60857 -0.73676,3.83858 -0.13642,1.21097 0.0617,2.09768 0.33416,1.51883 1.50005,2.46638 1.18929,0.93286 3.35992,1.42878 2.28487,0.52202 3.95768,0.30317 1.67714,-0.23789 2.92663,-1.23463 0.87252,-0.66214 1.53067,-1.61367 0.6772,-0.94718 1.43049,-2.57818 l 0.43359,0.11906 -1.97891,7.52162 -22.71546,-5.18979 0.10005,-0.43794 q 1.09837,0.19084 1.82134,0.0956 0.74202,-0.0909 1.40131,-0.5213 0.72946,-0.47444 1.15207,-1.35958 0.446,-0.89983 0.88972,-2.84197 l 3.2061,-14.03294 q 0.44372,-1.94215 0.42839,-2.92734 0.008,-0.99988 -0.44299,-1.74404 -0.38793,-0.66964 -1.01685,-1.07377 -0.60986,-0.39978 -1.70117,-0.70921 l 0.10006,-0.43794 z"
     style="font-style:normal;font-variant:normal;font-weight:normal;font-stretch:normal;font-size:40px;line-height:1.25;font-family:'Baskerville Old Face';-inkscape-font-specification:'Baskerville Old Face';letter-spacing:0px;word-spacing:0px;fill:#808080;fill-opacity:1;stroke:none" /><path
     inkscape:connector-curvature="0"
     id="path868"
     d="m 484.85114,590.10847 q 0.0382,1.41115 -0.16675,2.74671 1.49103,-1.00167 3.1328,-1.34781 1.66081,-0.3418 3.27927,0.028 1.78982,0.40892 2.78057,1.59693 0.59738,0.71749 1.21717,2.30157 1.78205,-1.13551 3.40478,-1.486 1.62274,-0.35051 3.31735,0.0367 2.28487,0.52203 3.42581,2.10498 1.16432,1.56826 0.7032,3.58656 l -1.47472,6.45477 -0.31161,1.45143 q -0.29581,1.29476 -0.28269,1.93886 0.0175,0.62507 0.34501,1.12063 0.43473,0.64025 1.80187,1.23308 l -0.087,0.38082 -8.39691,-1.91844 0.087,-0.38082 q 1.17725,0.10869 1.71416,-0.0491 0.56031,-0.1725 1.03626,-0.76497 0.3095,-0.39008 0.58577,-1.24855 0.29971,-0.87314 0.67817,-2.52968 l 0.83089,-3.63676 q 0.48288,-2.11351 0.57145,-3.11503 0.0886,-1.00153 -0.13563,-1.77399 -0.52515,-1.82292 -2.71481,-2.32319 -2.36104,-0.53942 -3.82753,0.96871 -1.27667,1.29104 -2.00315,4.47082 l -0.83959,3.67484 -0.31161,1.45144 q -0.29581,1.29475 -0.28269,1.93886 0.0175,0.62506 0.345,1.12062 0.41569,0.6359 1.80187,1.23308 l -0.087,0.38082 -8.39691,-1.91844 0.087,-0.38082 q 1.17724,0.10869 1.71416,-0.0491 0.56031,-0.17251 1.03626,-0.76498 0.3095,-0.39008 0.58577,-1.24855 0.29971,-0.87314 0.67817,-2.52967 l 0.80479,-3.52252 q 0.50898,-2.22776 0.59156,-3.29075 0.10598,-1.07769 -0.14597,-1.81643 -0.26229,-0.78116 -0.93691,-1.33598 -0.67027,-0.57387 -1.6223,-0.79138 -1.08531,-0.24796 -2.1548,0.0486 -1.06948,0.29659 -1.82178,1.0463 -0.69245,0.66321 -1.17325,1.71536 -0.45741,1.03746 -0.85328,2.77017 l -0.79608,3.48443 -0.30291,1.41335 q -0.29581,1.29476 -0.28269,1.93886 0.0175,0.62506 0.36405,1.12497 0.41567,0.6359 1.78282,1.22874 l -0.087,0.38082 -8.39693,-1.91845 0.087,-0.38081 q 1.17724,0.10869 1.7332,-0.0448 0.56031,-0.17251 1.01721,-0.76932 0.30951,-0.39008 0.58578,-1.24856 0.2997,-0.87314 0.68252,-2.54871 l 1.0745,-4.70304 q 0.44807,-1.96118 0.53119,-2.76361 0.0875,-0.82147 -0.12307,-1.39047 -0.2019,-0.60709 -0.60667,-0.93998 -0.40042,-0.35193 -1.24419,-0.60482 l 0.087,-0.3808 z"
     style="font-style:normal;font-variant:normal;font-weight:normal;font-stretch:normal;font-size:40px;line-height:1.25;font-family:'Baskerville Old Face';-inkscape-font-specification:'Baskerville Old Face';letter-spacing:0px;word-spacing:0px;fill:#808080;fill-opacity:1;stroke:none" /><path
     inkscape:connector-curvature="0"
     id="path870"
     d="m 520.52355,615.92898 q 0.0135,-1.19899 0.28755,-2.39855 -2.91951,1.81727 -6.17545,1.07338 -2.38008,-0.54377 -3.5618,-2.03587 -1.148,-1.46435 -0.66948,-3.55882 l 1.51387,-6.62614 0.31161,-1.45143 q 0.29581,-1.29477 0.27834,-1.91982 -0.0175,-0.62506 -0.34065,-1.13966 -0.43473,-0.64025 -1.80622,-1.21405 l 0.0914,-0.39986 5.5789,1.27461 -2.20556,9.65361 q -0.46547,2.03734 -0.5584,3.05791 -0.0695,1.00587 0.16773,1.72121 0.27098,0.74309 0.96464,1.30226 0.69802,0.54013 1.66909,0.76199 1.06627,0.24361 2.09497,0.0379 1.02869,-0.20573 1.72714,-0.80747 0.72183,-0.61643 1.11506,-1.54835 0.41227,-0.92757 0.92124,-3.15532 l 0.85265,-3.73197 0.3029,-1.41334 q 0.29582,-1.29477 0.27834,-1.91982 0.002,-0.62072 -0.34065,-1.13967 -0.41569,-0.6359 -1.80622,-1.21404 l 0.0914,-0.39986 5.5789,1.27461 -2.36216,10.33906 q -0.44807,1.96118 -0.53554,2.78265 -0.0641,0.80677 0.12744,1.37143 0.22092,0.61144 0.62134,0.96337 0.40477,0.33289 1.24855,0.58578 l -0.087,0.38081 z"
     style="font-style:normal;font-variant:normal;font-weight:normal;font-stretch:normal;font-size:40px;line-height:1.25;font-family:'Baskerville Old Face';-inkscape-font-specification:'Baskerville Old Face';letter-spacing:0px;word-spacing:0px;fill:#808080;fill-opacity:1;stroke:none" /><path
     inkscape:connector-curvature="0"
     id="path872"
     d="m 553.66843,595.81388 -1.11188,6.35736 -0.44227,-0.081 q 0.11788,-1.65597 -0.21408,-2.83371 -0.33195,-1.17774 -1.23456,-2.2254 -0.74265,-0.87089 -1.90035,-1.41587 -1.15334,-0.56402 -3.17166,-1.02514 l -4.36029,-0.9962 -2.61013,11.42438 1.14244,0.26101 q 1.7327,0.39587 2.66076,0.36748 0.92808,-0.0284 1.61511,-0.49247 0.65929,-0.43038 1.07648,-1.11641 0.44058,-0.70072 0.94691,-2.12769 l 0.43359,0.11906 -2.40784,10.18838 -0.43794,-0.10005 q 0.1636,-1.50529 0.0253,-2.4785 -0.11923,-0.96886 -0.56593,-1.73206 -0.43201,-0.73981 -1.28071,-1.23422 -0.8487,-0.49442 -2.2577,-0.81633 l -1.08532,-0.24797 -0.99619,4.3603 q -0.59598,2.60857 -0.73676,3.83858 -0.13643,1.21097 0.0617,2.09768 0.33417,1.51883 1.50006,2.46638 1.18929,0.93286 3.35992,1.42878 2.28488,0.52203 3.95767,0.30317 1.67715,-0.23789 2.92664,-1.23463 0.87252,-0.66214 1.53067,-1.61367 0.6772,-0.94718 1.43049,-2.57818 l 0.43359,0.11907 -1.97891,7.52161 -22.71547,-5.18979 0.10006,-0.43794 q 1.09836,0.19084 1.82134,0.0956 0.74201,-0.0909 1.40131,-0.5213 0.72947,-0.47444 1.15207,-1.35958 0.44599,-0.89983 0.88972,-2.84197 l 3.2061,-14.03294 q 0.44372,-1.94215 0.4284,-2.92734 0.008,-0.99988 -0.44299,-1.74404 -0.38795,-0.66964 -1.01685,-1.07377 -0.60988,-0.39979 -1.70118,-0.70922 l 0.10005,-0.43793 z"
     style="font-style:normal;font-variant:normal;font-weight:normal;font-stretch:normal;font-size:40px;line-height:1.25;font-family:'Baskerville Old Face';-inkscape-font-specification:'Baskerville Old Face';letter-spacing:0px;word-spacing:0px;fill:#808080;fill-opacity:1;stroke:none" /><path
     inkscape:connector-curvature="0"
     id="path874"
     d="m 551.55757,622.67873 0.1044,-0.45697 q 1.9231,0.43937 3.2183,-0.4067 0.72946,-0.47444 1.15207,-1.35958 0.446,-0.89982 0.88972,-2.84197 l 3.2061,-14.03294 q 0.46112,-2.0183 0.4311,-3.02688 -0.007,-1.02328 -0.51479,-1.78049 -0.42004,-0.61686 -1.03426,-0.9976 -0.59518,-0.3764 -1.61467,-0.64939 l 0.10006,-0.43794 12.16696,2.77979 -0.10006,0.43793 q -1.06028,-0.18213 -1.77891,-0.10591 -0.71862,0.0762 -1.34582,0.45383 -0.79095,0.48044 -1.23694,1.38027 -0.446,0.89982 -0.90277,2.89909 l -2.51007,10.98644 q -0.57858,2.5324 -0.72806,3.80049 -0.14948,1.2681 0.053,2.13576 0.35321,1.52319 1.5191,2.47074 1.17024,0.9285 3.34087,1.42443 2.26584,0.51767 3.94299,0.27978 1.70054,-0.25259 2.97776,-1.28305 0.86219,-0.70458 1.52904,-1.69419 0.68589,-0.98526 1.45224,-2.67339 l 0.44827,0.14253 -2.03112,7.75011 z"
     style="font-style:normal;font-variant:normal;font-weight:normal;font-stretch:normal;font-size:40px;line-height:1.25;font-family:'Baskerville Old Face';-inkscape-font-specification:'Baskerville Old Face';letter-spacing:0px;word-spacing:0px;fill:#808080;fill-opacity:1;stroke:none" /><path
     inkscape:connector-curvature="0"
     id="path876"
     d="m 601.72697,606.7938 -1.11188,6.35736 -0.44228,-0.081 q 0.11789,-1.65596 -0.21406,-2.83371 -0.33196,-1.17774 -1.23457,-2.2254 -0.74265,-0.87089 -1.90035,-1.41587 -1.15335,-0.56402 -3.17165,-1.02514 l -4.36031,-0.9962 -2.61012,11.42438 1.14244,0.26101 q 1.73269,0.39587 2.66077,0.36749 0.92807,-0.0284 1.6151,-0.49248 0.6593,-0.43038 1.07648,-1.11641 0.44058,-0.70072 0.94691,-2.12769 l 0.43359,0.11906 -2.40785,10.18838 -0.43794,-0.10005 q 0.16361,-1.50529 0.0253,-2.4785 -0.11923,-0.96886 -0.56593,-1.73206 -0.43201,-0.73981 -1.28071,-1.23422 -0.8487,-0.49442 -2.25771,-0.81634 l -1.08531,-0.24796 -0.9962,4.3603 q -0.59598,2.60856 -0.73675,3.83858 -0.13643,1.21097 0.0617,2.09768 0.33416,1.51883 1.50005,2.46638 1.18929,0.93286 3.35992,1.42878 2.28487,0.52202 3.95768,0.30317 1.67714,-0.23789 2.92663,-1.23463 0.87252,-0.66214 1.53067,-1.61367 0.6772,-0.94718 1.43049,-2.57818 l 0.43359,0.11906 -1.97891,7.52162 -22.71546,-5.18979 0.10005,-0.43794 q 1.09837,0.19083 1.82134,0.0956 0.74202,-0.0909 1.40131,-0.5213 0.72946,-0.47444 1.15207,-1.35958 0.446,-0.89983 0.88972,-2.84197 l 3.2061,-14.03294 q 0.44372,-1.94215 0.42839,-2.92734 0.008,-0.99988 -0.44299,-1.74404 -0.38793,-0.66964 -1.01685,-1.07377 -0.60986,-0.39979 -1.70117,-0.70922 l 0.10006,-0.43793 z"
     style="font-style:normal;font-variant:normal;font-weight:normal;font-stretch:normal;font-size:40px;line-height:1.25;font-family:'Baskerville Old Face';-inkscape-font-specification:'Baskerville Old Face';letter-spacing:0px;word-spacing:0px;fill:#808080;fill-opacity:1;stroke:none" /><path
     inkscape:connector-curvature="0"
     id="path878"
     d="m 629.00456,612.88566 -1.71606,8.56337 -0.43793,-0.10006 q -0.0833,-0.60003 -0.13229,-0.91175 -0.2488,-1.98015 -0.46324,-2.97076 -0.37716,-1.76907 -1.48165,-3.42383 -0.83572,-1.25276 -1.87374,-1.97075 -1.03804,-0.71799 -2.46609,-1.04425 -2.15159,-0.49158 -3.94512,0.0803 -1.57703,0.50117 -3.12895,1.7694 -1.54758,1.24919 -2.75728,3.03636 -1.71609,2.51293 -2.52088,6.03545 -0.68298,2.98938 -0.48852,5.55816 0.19446,2.56878 1.25273,4.51349 1.94028,3.60875 6.28154,4.6006 2.17063,0.49592 4.07299,0.1492 1.9067,-0.36575 3.17195,-1.51917 1.46543,-1.32805 2.57386,-3.89968 l 0.42054,0.17619 q -1.04911,2.92576 -2.7294,4.40508 -1.60576,1.4162 -3.96181,1.81954 -2.33701,0.40769 -5.15503,-0.23615 -2.6276,-0.60032 -4.84837,-1.92912 -3.54005,-2.13108 -4.9434,-5.89763 -1.39901,-3.78561 -0.35931,-8.33632 0.79609,-3.48442 2.7227,-6.12957 1.93097,-2.66418 4.58668,-3.94068 2.04592,-0.97505 4.62774,-1.22663 2.60522,-0.26627 5.02338,0.28621 2.30391,0.52637 4.67429,1.98951 l 1.44387,0.87082 q 0.41782,0.27577 0.76056,0.35407 0.47602,0.10876 0.87202,-0.22149 0.17679,-0.15996 0.46725,-0.55439 z"
     style="font-style:normal;font-variant:normal;font-weight:normal;font-stretch:normal;font-size:40px;line-height:1.25;font-family:'Baskerville Old Face';-inkscape-font-specification:'Baskerville Old Face';letter-spacing:0px;word-spacing:0px;fill:#808080;fill-opacity:1;stroke:none" /></g></svg>