<?xml version="1.0" encoding="utf-8"?>
<svg xmlns="http://www.w3.org/2000/svg">
  <path id="path5" d="M 101.055 66.72 L 64.165 44.565 L 80.563 44.556 C 91.584 44.556 100.519 35.621 100.519 24.599 L 100.519 20.193 C 100.519 9.172 91.584 0.237 80.563 0.237 L 0.03 0.237 L 0.03 66.814 L 12.867 66.814 L 12.867 11.736 L 60.751 11.736 L 78.716 11.722 C 84.025 11.722 88.328 16.027 88.328 21.334 L 88.328 23.457 C 88.328 28.765 84.024 33.069 78.716 33.069 L 22.717 33.069 L 78.745 66.72 L 101.055 66.72 Z" style="fill: rgb(255, 255, 255);"/>
  <path id="path7" d="M 12.867 11.736 L 60.751 11.736 L 78.716 11.722" style="fill: rgb(255, 255, 255);"/>
  <path id="path9" d="M 80.563 0.237 L 0.03 0.237" style="fill: rgb(255, 255, 255);"/>
  <path d="M 220.056 11.736 L 263.132 11.722 L 263.132 0.237 L 159.333 0.237 L 159.333 66.814 L 220.056 66.814 L 263.132 66.8 L 263.132 55.313 L 172.168 55.313 L 172.168 11.736 Z" id="polygon11" style="fill: rgb(255, 255, 255);"/>
  <path d="M 496.212 0.237 L 496.212 66.814 L 556.925 66.814 L 600 66.8 L 600 55.313 L 509.048 55.313 L 509.048 0.237 Z" id="polygon13" style="fill: rgb(255, 255, 255);"/>
  <path d="M 180.848 27.776 L 246.072 27.776 L 246.072 39.261 L 180.848 39.275 Z" id="polygon15" style="fill: rgb(255, 255, 255);"/>
  <path id="path17" d="M 362.607 1.096" stroke="#000" stroke-miterlimit="10" stroke-width=".1" style="fill: rgb(255, 255, 255);"/>
  <path d="M 378.677 0 L 308.507 66.496 L 325.211 66.496 L 378.922 15.586 L 404.549 38.351 L 368.209 38.351 L 356.073 49.838 L 356.073 49.838 L 417.485 49.838 L 436.234 66.496 L 453.526 66.496 Z" id="polygon19" style="fill: rgb(255, 255, 255);"/>
  <path d="M 121.591 21.567 L 142.711 21.567 L 142.711 42.687 L 121.591 42.687 L 121.591 21.567 Z" id="rect21" style="fill: rgb(255, 255, 255);"/>
  <path d="M 284.214 21.567 L 305.334 21.567 L 305.334 42.687 L 284.214 42.687 L 284.214 21.567 Z" id="rect23" style="fill: rgb(255, 255, 255);"/>
  <path d="M 451.07 21.567 L 472.191 21.567 L 472.191 42.687 L 451.07 42.687 L 451.07 21.567 Z" id="rect25" style="fill: rgb(255, 255, 255);"/>
  <path d="M 0 78.698 L 599.967 78.698 L 599.967 82.922 L 0 82.922 L 0 78.698 Z" id="rect27" style="fill: rgb(255, 255, 255);"/>
  <path id="path31" d="M 357.084 91.715 L 365.018 91.715 L 370.858 102.559 L 376.698 91.715 L 384.632 91.715 L 384.632 108.561 L 379.606 108.561 L 379.606 96.463 L 379.56 96.463 L 372.789 108.562 L 368.926 108.562 L 362.156 96.463 L 362.109 96.463 L 362.109 108.562 L 357.084 108.562 L 357.084 91.715 Z" style="fill: rgb(255, 255, 255);"/>
  <path id="path33" d="M 389.057 91.715 L 394.223 91.715 L 394.223 101.442 C 394.223 103.582 394.99 104.42 397.108 104.42 L 402.227 104.42 C 404.344 104.42 405.112 103.582 405.112 101.442 L 405.112 91.715 L 410.277 91.715 L 410.277 102.559 C 410.277 106.747 408.113 108.748 403.366 108.748 L 395.968 108.748 C 391.221 108.748 389.056 106.746 389.056 102.559 L 389.056 91.715 Z" style="fill: rgb(255, 255, 255);"/>
  <path id="path35" d="M 414.696 91.715 L 419.861 91.715 L 419.861 104.233 L 431.473 104.233 L 431.473 108.562 L 414.695 108.562 L 414.695 91.715 Z" style="fill: rgb(255, 255, 255);"/>
  <path id="path37" d="M 430.766 91.715 L 450.451 91.715 L 450.451 95.904 L 443.192 95.904 L 443.192 108.562 L 438.026 108.562 L 438.026 95.904 L 430.767 95.904 L 430.767 91.715 Z" style="fill: rgb(255, 255, 255);"/>
  <path id="path39" d="M 453.915 91.715 L 459.08 91.715 L 459.08 108.561 L 453.915 108.561 L 453.915 91.715 Z" style="fill: rgb(255, 255, 255);"/>
  <path id="path41" d="M 463.784 91.715 L 477.861 91.715 C 482.771 91.715 483.957 94.182 483.957 97.485 L 483.957 98.928 C 483.957 101.442 482.863 104.326 479.21 104.326 L 468.949 104.326 L 468.949 108.561 L 463.784 108.561 L 463.784 91.715 Z M 468.951 100.138 L 476.978 100.138 C 478.189 100.138 478.654 99.347 478.654 98.347 L 478.654 97.695 C 478.654 96.556 478.095 95.904 476.537 95.904 L 468.952 95.904 L 468.952 100.138 Z" style="fill: rgb(255, 255, 255);"/>
  <path id="path43" d="M 487.677 91.715 L 492.843 91.715 L 492.843 104.233 L 504.453 104.233 L 504.453 108.562 L 487.676 108.562 L 487.676 91.715 Z" style="fill: rgb(255, 255, 255);"/>
  <path id="path45" d="M 515.039 91.715 L 521.763 91.715 L 531.024 108.561 L 525.276 108.561 L 523.671 105.583 L 513.2 105.583 L 511.689 108.561 L 505.918 108.561 L 515.031 91.715 Z M 515.138 101.953 L 521.747 101.953 L 518.396 95.625 L 515.14 101.953 Z" style="fill: rgb(255, 255, 255);"/>
  <path id="path47" d="M 538.543 102.698 L 529.213 91.715 L 535.448 91.715 L 541.125 98.602 L 546.802 91.715 L 553.037 91.715 L 543.707 102.698 L 543.707 108.561 L 538.541 108.561 L 538.541 102.698 Z" style="fill: rgb(255, 255, 255);"/>
  <path id="path49" d="M 555.869 91.715 L 574.297 91.715 L 574.297 95.625 L 561.035 95.625 L 561.035 98.324 L 573.599 98.324 L 573.599 101.814 L 561.035 101.814 L 561.035 104.515 L 574.598 104.515 L 574.598 108.563 L 555.868 108.563 L 555.868 91.715 Z" style="fill: rgb(255, 255, 255);"/>
  <path id="path51" d="M 578.651 91.715 L 594.241 91.715 C 598.22 91.715 599.29 93.692 599.29 96.719 L 599.29 97.789 C 599.29 100.045 598.778 101.372 596.404 101.931 L 596.404 101.977 C 597.94 102.256 599.219 102.931 599.219 105.7 L 599.219 108.562 L 594.055 108.562 L 594.055 106.538 C 594.055 104.769 593.542 104.188 591.938 104.188 L 583.817 104.188 L 583.817 108.563 L 578.651 108.563 L 578.651 91.715 Z M 583.819 99.998 L 592.359 99.998 C 593.755 99.998 594.267 99.44 594.267 98.23 L 594.267 97.671 C 594.267 96.182 593.522 95.903 591.893 95.903 L 583.819 95.903 L 583.819 99.998 Z" style="fill: rgb(255, 255, 255);"/>
  <path id="path55" d="M 101.1 91.715 L 106.265 91.715 L 106.265 108.561 L 101.1 108.561 L 101.1 91.715 Z" style="fill: rgb(255, 255, 255);"/>
  <path id="path57" d="M 110.965 91.715 L 118.969 91.715 L 128.671 103.954 L 128.717 103.954 L 128.717 91.715 L 133.882 91.715 L 133.882 108.561 L 125.878 108.561 L 116.176 96.322 L 116.129 96.322 L 116.129 108.561 L 110.964 108.561 L 110.964 91.715 Z" style="fill: rgb(255, 255, 255);"/>
  <path id="path59" d="M 137.072 91.715 L 156.756 91.715 L 156.756 95.904 L 149.497 95.904 L 149.497 108.562 L 144.332 108.562 L 144.332 95.904 L 137.072 95.904 L 137.072 91.715 Z" style="fill: rgb(255, 255, 255);"/>
  <path id="path61" d="M 159.944 91.715 L 178.37 91.715 L 178.37 95.625 L 165.107 95.625 L 165.107 98.324 L 177.672 98.324 L 177.672 101.814 L 165.107 101.814 L 165.107 104.515 L 178.672 104.515 L 178.672 108.563 L 159.942 108.563 L 159.942 91.715 Z" style="fill: rgb(255, 255, 255);"/>
  <path id="path63" d="M 182.715 91.715 L 198.305 91.715 C 202.284 91.715 203.354 93.692 203.354 96.719 L 203.354 97.789 C 203.354 100.045 202.841 101.372 200.469 101.931 L 200.469 101.977 C 202.005 102.256 203.284 102.931 203.284 105.7 L 203.284 108.562 L 198.118 108.562 L 198.118 106.538 C 198.118 104.769 197.606 104.188 196.001 104.188 L 187.881 104.188 L 187.881 108.563 L 182.715 108.563 L 182.715 91.715 Z M 187.883 99.998 L 196.421 99.998 C 197.818 99.998 198.329 99.44 198.329 98.23 L 198.329 97.671 C 198.329 96.182 197.585 95.903 195.957 95.903 L 187.883 95.903 L 187.883 99.998 Z" style="fill: rgb(255, 255, 255);"/>
  <path id="path65" d="M 215.244 91.715 L 221.969 91.715 L 231.229 108.561 L 225.483 108.561 L 223.877 105.583 L 213.406 105.583 L 211.894 108.561 L 206.123 108.561 L 215.247 91.715 Z M 215.333 101.953 L 221.941 101.953 L 218.59 95.625 L 215.323 101.953 Z" style="fill: rgb(255, 255, 255);"/>
  <path id="path67" d="M 233.625 97.625 C 233.625 92.693 236.394 91.53 241.048 91.53 L 247.122 91.53 C 254.474 91.53 255.428 93.112 255.382 97.883 L 250.217 97.883 L 250.217 97.418 C 250.217 96.207 249.333 95.858 247.797 95.858 L 242.166 95.858 C 239.444 95.858 238.932 97.139 238.932 99.232 L 238.932 101.047 C 238.932 103.49 239.444 104.421 241.887 104.421 L 247.402 104.421 C 249.729 104.421 250.427 104.188 250.427 102.094 L 255.591 102.094 L 255.591 103.677 C 255.591 106.516 254.568 108.749 249.379 108.749 L 241.048 108.749 C 236.394 108.749 233.625 107.585 233.625 102.653 L 233.625 97.625 Z" style="fill: rgb(255, 255, 255);"/>
  <path id="path69" d="M 258.408 91.715 L 278.092 91.715 L 278.092 95.904 L 270.833 95.904 L 270.833 108.562 L 265.668 108.562 L 265.668 95.904 L 258.408 95.904 L 258.408 91.715 Z" style="fill: rgb(255, 255, 255);"/>
  <path id="path71" d="M 281.557 91.715 L 286.723 91.715 L 286.723 108.561 L 281.557 108.561 L 281.557 91.715 Z" style="fill: rgb(255, 255, 255);"/>
  <path id="path73" d="M 289.793 91.715 L 295.447 91.715 L 302.032 104.233 L 308.616 91.715 L 314.271 91.715 L 305.219 108.561 L 298.843 108.561 L 289.797 91.715 Z" style="fill: rgb(255, 255, 255);"/>
  <path id="path75" d="M 317.065 91.715 L 335.494 91.715 L 335.494 95.625 L 322.231 95.625 L 322.231 98.324 L 334.796 98.324 L 334.796 101.814 L 322.231 101.814 L 322.231 104.515 L 335.797 104.515 L 335.797 108.563 L 317.066 108.563 L 317.066 91.715 Z" style="fill: rgb(255, 255, 255);"/>
  <path id="path79" d="M 0.03 102.582 L 4.915 102.582 L 4.915 103.327 C 4.915 104.746 5.358 105.118 7.149 105.118 L 13.315 105.118 C 14.921 105.118 15.108 104.677 15.108 103.536 C 15.108 102.419 14.827 101.907 13.246 101.907 L 7.942 101.907 L 7.942 98.416 L 12.758 98.416 C 14.433 98.416 14.735 97.998 14.735 96.787 C 14.735 95.484 13.922 95.158 12.386 95.158 L 7.267 95.158 C 5.592 95.158 5.08 95.507 5.08 96.763 L 5.08 97.484 L 0.193 97.484 L 0.193 96.554 C 0.193 92.016 2.404 91.528 8.733 91.528 L 12.199 91.528 C 18.203 91.528 19.622 92.459 19.622 96.182 C 19.622 99.021 19.134 99.37 16.83 100.068 L 16.83 100.138 C 19.553 100.604 19.995 101.464 19.995 104.141 C 19.995 107.467 18.832 108.749 14.155 108.749 L 5.568 108.749 C 2.566 108.749 0.03 107.889 0.03 104.373 L 0.03 102.582 Z" style="fill: rgb(255, 255, 255);"/>
  <path id="path81" d="M 24.367 91.715 L 39.957 91.715 C 45.123 91.715 46.937 93.413 46.937 97.579 L 46.937 102.696 C 46.937 106.862 45.123 108.56 39.957 108.56 L 24.367 108.56 L 24.367 91.715 Z M 29.533 104.233 L 38.701 104.233 C 40.912 104.233 41.772 103.606 41.772 101.208 L 41.772 98.928 C 41.772 96.532 40.912 95.903 38.701 95.903 L 29.533 95.903 L 29.533 104.233 Z" style="fill: rgb(255, 255, 255);"/>
  <path id="path83" d="M 50.613 97.625 C 50.613 92.693 53.381 91.53 58.035 91.53 L 66.319 91.53 C 70.973 91.53 73.742 92.694 73.742 97.625 L 73.742 102.652 C 73.742 107.584 70.973 108.748 66.319 108.748 L 58.034 108.748 C 53.38 108.748 50.611 107.584 50.611 102.652 L 50.611 97.625 Z M 55.917 101.046 C 55.917 103.489 56.429 104.42 58.872 104.42 L 65.48 104.42 C 67.923 104.42 68.435 103.489 68.435 101.046 L 68.435 99.231 C 68.435 97.138 67.924 95.857 65.201 95.857 L 59.151 95.857 C 56.429 95.857 55.917 97.138 55.917 99.231 L 55.917 101.046 Z" style="fill: rgb(255, 255, 255);"/>
</svg>