<?xml version="1.0" encoding="utf-8"?>
<svg version="1.1" xmlns="http://www.w3.org/2000/svg">
  <path d="M 53.889 54.427 C 53.889 54.888 53.57 55.208 52.931 55.386 C 52.164 55.59 49.786 55.693 45.797 55.693 C 42.14 55.693 39.788 55.59 38.739 55.386 C 37.87 55.207 37.32 54.631 37.09 53.66 C 36.22 49.979 35.543 48.009 35.057 47.754 C 34.647 47.575 31.221 47.486 24.778 47.486 C 20.431 47.486 18.117 47.601 17.835 47.83 C 17.4 48.24 16.915 49.609 16.378 51.935 C 15.892 54.057 15.304 55.208 14.613 55.387 C 13.744 55.591 10.829 55.694 5.868 55.694 C 1.956 55.694 0 55.323 0 54.581 C 0 53.917 2.889 45.747 8.668 30.072 C 14.932 13.119 18.334 3.799 18.87 2.111 C 19.177 1.14 19.535 0.653 19.944 0.653 C 20.635 0.653 21.702 0.717 23.147 0.845 C 24.592 0.974 25.673 1.036 26.388 1.036 C 27.079 1.036 28.095 0.991 29.438 0.902 C 30.781 0.813 31.784 0.768 32.449 0.768 C 32.934 0.768 33.382 1.19 33.791 2.035 C 35.044 4.72 38.701 13.925 44.761 29.651 C 50.847 45.478 53.889 53.737 53.889 54.427 Z M 26.696 19.485 C 26.159 20.61 25.251 23.052 23.973 26.81 C 22.592 30.799 21.902 33.14 21.902 33.829 C 21.902 34.29 22.669 34.545 24.204 34.596 C 24.996 34.649 26.3 34.674 28.115 34.674 C 29.803 34.674 30.736 34.468 30.916 34.061 C 30.967 33.933 30.992 33.753 30.992 33.524 C 30.992 32.68 30.404 30.353 29.228 26.542 C 28.077 22.86 27.233 20.508 26.696 19.485 Z" style="fill: rgb(255, 255, 255);"/>
  <path d="M 98.191 0.959 C 98.191 0.397 98.088 1.24 97.883 3.49 C 97.602 6.329 97.385 9.959 97.231 14.383 C 97.026 19.395 96.925 25.098 96.925 31.49 C 96.925 42.05 97.219 49.568 97.807 54.043 C 97.858 54.529 97.883 54.837 97.883 54.963 C 97.883 55.245 97.692 55.41 97.309 55.462 C 96.388 55.59 92.999 55.654 87.144 55.654 C 85.763 55.654 84.97 55.386 84.766 54.848 C 84.714 53.877 84.664 52.905 84.613 51.932 C 84.586 51.728 84.485 51.523 84.306 51.319 C 84.152 51.395 83.961 51.549 83.732 51.78 C 80.97 54.491 77.517 55.845 73.375 55.845 C 67.98 55.845 63.657 53.953 60.411 50.169 C 57.317 46.564 55.77 42.012 55.77 36.514 C 55.77 30.94 57.292 26.35 60.334 22.745 C 63.556 18.909 67.902 16.991 73.375 16.991 C 77.236 16.991 80.24 18.218 82.389 20.672 C 82.747 21.082 83.002 21.287 83.156 21.287 C 83.386 21.287 83.501 20.954 83.501 20.289 C 83.501 18.32 83.45 15.379 83.347 11.467 C 83.245 7.556 83.194 4.627 83.194 2.684 C 83.194 1.943 83.398 1.52 83.807 1.419 C 85.443 1.341 87.693 1.189 90.558 0.959 C 95.672 0.32 97.936 0 97.346 0 C 97.909 0 98.191 0.32 98.191 0.959 Z M 83.732 36.208 C 83.732 34.188 83.027 32.417 81.622 30.896 C 80.215 29.374 78.515 28.613 76.52 28.613 C 74.423 28.613 72.755 29.374 71.515 30.896 C 70.275 32.417 69.654 34.239 69.654 36.362 C 69.654 38.433 70.28 40.185 71.533 41.616 C 72.812 43.15 74.474 43.917 76.52 43.917 C 78.566 43.917 80.279 43.15 81.659 41.616 C 83.04 40.082 83.732 38.28 83.732 36.208 Z" style="fill: rgb(255, 255, 255);"/>
  <path d="M 140.767 28.767 C 140.767 33.14 140.626 35.722 140.345 36.514 C 139.757 38.33 137.993 41.412 135.052 45.758 C 132.495 49.491 130.308 52.407 128.494 54.503 C 127.828 55.296 125.821 55.691 122.471 55.691 C 119.555 55.691 117.663 55.589 116.795 55.385 C 116.258 55.257 115.81 55.001 115.452 54.618 C 113.918 52.956 111.732 50.067 108.893 45.95 C 105.849 41.526 104.035 38.495 103.445 36.859 C 102.806 35.094 102.487 32.448 102.487 28.919 C 102.487 27.921 102.499 26.42 102.526 24.411 C 102.551 22.404 102.563 20.889 102.563 19.866 C 102.563 19.202 103.01 18.869 103.906 18.869 C 105.21 18.869 107.172 18.908 109.793 18.984 C 112.415 19.062 114.377 19.099 115.681 19.099 C 116.269 19.099 116.563 19.496 116.563 20.288 C 116.563 21.004 116.512 22.085 116.409 23.529 C 116.307 24.974 116.255 26.067 116.255 26.809 C 116.255 29.468 116.332 31.642 116.486 33.33 C 116.562 34.199 117.303 35.836 118.709 38.239 C 120.167 40.77 121.228 42.037 121.893 42.037 C 122.531 42.037 123.555 40.797 124.961 38.315 C 126.316 35.989 127.045 34.403 127.147 33.559 C 127.351 31.743 127.454 29.544 127.454 26.962 C 127.454 26.221 127.376 25.102 127.224 23.605 C 127.07 22.109 126.993 21.004 126.993 20.288 C 126.993 19.496 127.261 19.099 127.799 19.099 C 128.412 19.099 129.327 19.112 130.541 19.137 C 131.756 19.163 132.669 19.176 133.284 19.176 C 133.897 19.176 134.823 19.124 136.064 19.022 C 137.304 18.919 138.232 18.868 138.845 18.868 C 139.484 18.868 139.906 19.201 140.11 19.865 C 140.549 21.326 140.767 24.292 140.767 28.767 Z" style="fill: rgb(255, 255, 255);"/>
  <path d="M 181.117 34.559 C 181.117 37.141 180.286 38.612 178.624 38.97 C 178.342 39.021 175.696 39.302 170.684 39.813 C 167.667 40.146 163.167 40.541 157.183 41.002 C 157.541 42.665 158.627 43.93 160.443 44.798 C 161.926 45.514 163.613 45.872 165.506 45.872 C 167.781 45.872 170.07 45.259 172.371 44.031 C 173.342 43.417 174.314 42.804 175.287 42.191 C 175.824 42.446 176.724 43.751 177.991 46.102 C 179.256 48.455 179.889 49.951 179.889 50.59 C 179.889 50.769 179.698 51.063 179.315 51.472 C 176.194 54.822 171.349 56.496 164.778 56.496 C 158.693 56.496 153.782 54.719 150.049 51.165 C 146.214 47.56 144.296 42.74 144.296 36.705 C 144.296 30.823 146.009 26.003 149.435 22.244 C 152.964 18.357 157.644 16.414 163.474 16.414 C 168.383 16.414 172.551 18.205 175.977 21.785 C 179.404 25.365 181.117 29.624 181.117 34.559 Z M 167.692 32.219 C 167.692 30.633 167.129 29.24 166.004 28.038 C 164.879 26.836 163.536 26.236 161.977 26.236 C 160.366 26.236 159.037 26.914 157.988 28.269 C 157.016 29.522 156.53 30.992 156.53 32.68 C 156.53 33.371 156.888 33.716 157.604 33.716 C 159.496 33.716 162.437 33.422 166.426 32.834 C 167.271 32.705 167.692 32.5 167.692 32.219 Z" style="fill: rgb(255, 255, 255);"/>
  <path d="M 223.461 54.274 C 223.461 54.963 223.103 55.361 222.387 55.462 C 221.672 55.564 219.805 55.616 216.788 55.616 C 213.565 55.616 211.571 55.539 210.804 55.386 C 210.037 55.232 209.654 54.709 209.654 53.813 C 209.654 52.612 209.691 50.796 209.769 48.366 C 209.846 45.937 209.884 44.109 209.884 42.881 C 209.884 41.935 209.858 40.522 209.808 38.643 C 209.755 36.763 209.73 35.351 209.73 34.405 C 209.73 30.902 208.208 29.15 205.166 29.15 C 204.169 29.15 203.005 29.586 201.676 30.454 C 200.244 31.426 199.528 32.385 199.528 33.331 L 199.528 54.043 C 199.528 54.887 199.131 55.361 198.339 55.462 C 197.444 55.564 195.616 55.616 192.854 55.616 C 189.862 55.616 187.919 55.539 187.024 55.386 C 186.231 55.258 185.836 54.837 185.836 54.12 C 185.836 52.125 185.848 49.121 185.874 45.106 C 185.899 41.092 185.912 38.075 185.912 36.055 C 185.912 29.688 185.414 24.689 184.417 21.058 C 184.365 20.827 184.34 20.636 184.34 20.482 C 184.34 20.073 184.532 19.791 184.915 19.639 C 186.526 19.46 188.674 19.178 191.358 18.795 C 195.423 18.003 197.712 17.607 198.224 17.607 C 198.505 17.607 198.722 18.47 198.876 20.196 C 199.03 21.921 199.246 22.785 199.528 22.785 C 199.246 22.785 200.622 21.896 203.651 20.119 C 206.681 18.342 209.333 17.454 211.61 17.454 C 214.857 17.454 217.567 18.221 219.741 19.755 C 222.17 21.519 223.385 23.975 223.385 27.119 L 223.385 39.355 C 223.385 41.018 223.397 43.504 223.424 46.816 C 223.447 50.125 223.461 52.612 223.461 54.274 Z" style="fill: rgb(255, 255, 255);"/>
  <path d="M 255.527 44.148 C 255.527 44.915 255.431 46.078 255.239 47.639 C 255.048 49.199 254.951 50.343 254.951 51.071 C 254.951 51.8 254.875 52.268 254.721 52.472 C 254.567 52.677 254.146 52.97 253.455 53.354 C 250.156 55.17 246.499 56.077 242.485 56.077 C 235.095 56.077 231.401 53.251 231.401 47.6 C 231.401 45.912 231.465 43.376 231.592 39.987 C 231.72 36.598 231.784 34.062 231.784 32.374 C 231.784 31.249 231.132 30.686 229.828 30.686 C 229.725 30.686 229.56 30.686 229.33 30.686 C 229.1 30.712 228.933 30.724 228.832 30.724 C 227.86 30.724 227.374 30.379 227.374 29.688 C 227.374 29.279 227.405 28.652 227.47 27.809 C 227.534 26.965 227.567 26.338 227.567 25.929 C 227.567 25.392 227.534 24.574 227.47 23.475 C 227.407 22.377 227.374 21.557 227.374 21.02 C 227.374 20.51 228.193 20.228 229.829 20.177 C 230.75 20.152 231.248 19.895 231.325 19.41 C 231.479 18.439 231.53 16.904 231.479 14.807 C 231.376 11.509 231.325 9.936 231.325 10.09 C 231.325 7.123 231.606 5.64 232.168 5.64 C 232.859 5.64 233.842 5.794 235.121 6.1 C 236.579 6.433 237.589 6.625 238.151 6.676 C 239.455 6.855 241.423 7.098 244.057 7.404 C 244.697 7.457 245.017 7.673 245.017 8.056 C 245.017 9.079 244.933 10.625 244.768 12.696 C 244.601 14.767 244.519 16.328 244.519 17.376 C 244.519 18.629 244.889 19.256 245.631 19.256 C 246.526 19.256 247.881 19.217 249.697 19.141 C 251.513 19.064 252.88 19.026 253.801 19.026 C 254.363 19.026 254.645 19.217 254.645 19.601 C 254.645 20.189 254.581 21.071 254.453 22.248 C 254.324 23.424 254.262 24.306 254.262 24.894 C 254.262 25.509 254.274 26.403 254.301 27.58 C 254.326 28.756 254.339 29.651 254.339 30.265 C 254.339 30.802 253.969 31.071 253.227 31.071 C 252.715 31.071 251.859 31.052 250.657 31.013 C 249.454 30.975 248.598 30.956 248.088 30.956 L 245.211 30.956 C 244.827 30.956 244.635 31.519 244.635 32.644 C 244.635 33.257 244.635 34.166 244.635 35.367 C 244.66 36.594 244.674 37.503 244.674 38.09 C 244.674 40.237 244.917 41.721 245.402 42.54 C 246.093 43.638 247.448 44.189 249.468 44.189 C 250.107 44.189 251.022 44.043 252.211 43.747 C 253.4 43.453 254.237 43.305 254.724 43.305 C 255.258 43.304 255.527 43.586 255.527 44.148 Z" style="fill: rgb(255, 255, 255);"/>
  <path d="M 299.021 20.521 C 299.021 22.414 298.931 25.252 298.752 29.036 C 298.573 32.82 298.485 35.658 298.485 37.552 C 298.485 39.393 298.548 42.154 298.676 45.837 C 298.804 49.52 298.868 52.269 298.868 54.083 C 298.868 54.774 298.548 55.208 297.909 55.387 C 296.937 55.643 294.879 55.771 291.734 55.771 C 288.946 55.771 287.003 55.694 285.904 55.541 C 285.417 55.465 285.11 55.157 284.983 54.621 C 284.906 53.854 284.829 53.087 284.752 52.32 C 284.625 51.145 284.446 50.556 284.215 50.556 C 284.573 50.556 283.281 51.425 280.341 53.164 C 277.401 54.903 274.729 55.771 272.325 55.771 C 265.548 55.771 261.534 52.716 260.281 46.604 C 259.718 43.765 259.436 39.649 259.436 34.253 C 259.436 28.423 259.909 23.821 260.855 20.446 C 261.137 19.397 261.661 18.873 262.428 18.873 C 263.603 18.873 265.394 18.885 267.798 18.912 C 270.2 18.938 271.991 18.949 273.169 18.949 C 273.961 18.949 274.357 19.282 274.357 19.947 C 274.357 20.125 274.331 20.393 274.28 20.752 C 273.743 24.23 273.474 27.759 273.474 31.339 C 273.474 35.787 273.614 38.831 273.896 40.467 C 274.356 43.28 276.03 44.687 278.921 44.687 C 280.046 44.687 281.267 44.189 282.584 43.192 C 283.9 42.194 284.585 41.158 284.636 40.085 C 284.687 39.138 284.714 32.72 284.714 20.83 C 284.714 19.987 284.777 19.487 284.905 19.335 C 285.059 19.079 285.518 18.95 286.285 18.95 C 287.538 18.95 289.424 18.964 291.943 18.989 C 294.46 19.016 296.347 19.028 297.6 19.028 C 298.367 19.028 298.814 19.219 298.943 19.604 C 298.995 19.805 299.021 20.112 299.021 20.521 Z" style="fill: rgb(255, 255, 255);"/>
  <path d="M 330.781 31.49 C 330.781 32.488 330.231 32.986 329.131 32.986 C 328.646 32.986 327.936 32.954 327.003 32.889 C 326.069 32.825 325.372 32.793 324.913 32.793 C 322.791 32.793 321.346 33.126 320.578 33.79 C 319.811 34.456 319.427 35.797 319.427 37.817 C 319.427 38.917 319.447 40.585 319.486 42.822 C 319.524 45.061 319.544 46.729 319.544 47.828 C 319.544 48.57 319.594 49.676 319.696 51.145 C 319.799 52.616 319.85 53.709 319.85 54.425 C 319.85 55.038 319.427 55.384 318.584 55.461 C 317.357 55.562 315.478 55.615 312.945 55.615 C 310.516 55.615 308.573 55.537 307.115 55.385 C 306.272 55.282 305.85 54.862 305.85 54.118 C 305.85 52.074 305.863 49.012 305.889 44.932 C 305.914 40.854 305.926 37.792 305.926 35.746 C 305.926 29.737 305.377 24.789 304.277 20.903 C 304.226 20.672 304.201 20.481 304.201 20.327 C 304.201 19.944 304.392 19.689 304.775 19.56 C 306.182 19.406 308.24 19.126 310.951 18.716 C 314.991 17.924 317.075 17.528 317.202 17.528 C 317.663 17.528 317.957 18.334 318.085 19.944 C 318.212 21.555 318.442 22.36 318.775 22.36 C 318.417 22.36 319.466 21.69 321.921 20.347 C 324.375 19.004 326.741 18.334 329.016 18.334 C 330.449 18.334 331.165 18.64 331.165 19.255 C 331.165 19.997 331.087 21.044 330.935 22.399 C 330.781 23.857 330.692 24.906 330.666 25.545 C 330.666 26.287 330.678 27.271 330.703 28.498 C 330.754 30.007 330.781 31.005 330.781 31.49 Z" style="fill: rgb(255, 255, 255);"/>
  <path d="M 370.402 34.559 C 370.402 37.141 369.57 38.612 367.908 38.97 C 367.627 39.021 364.98 39.302 359.968 39.813 C 356.951 40.146 352.45 40.541 346.468 41.002 C 346.826 42.665 347.912 43.93 349.727 44.798 C 351.21 45.514 352.897 45.872 354.79 45.872 C 357.065 45.872 359.354 45.259 361.655 44.031 C 362.626 43.417 363.599 42.804 364.571 42.191 C 365.108 42.446 366.009 43.751 367.274 46.102 C 368.54 48.455 369.173 49.951 369.173 50.59 C 369.173 50.769 368.982 51.063 368.598 51.472 C 365.478 54.822 360.633 56.496 354.062 56.496 C 347.975 56.496 343.066 54.719 339.332 51.165 C 335.497 47.56 333.579 42.74 333.579 36.705 C 333.579 30.823 335.292 26.003 338.718 22.244 C 342.246 18.357 346.927 16.414 352.756 16.414 C 357.666 16.414 361.833 18.205 365.26 21.785 C 368.688 25.366 370.402 29.624 370.402 34.559 Z M 356.977 32.219 C 356.977 30.633 356.415 29.24 355.288 28.038 C 354.163 26.836 352.819 26.236 351.26 26.236 C 349.65 26.236 348.32 26.914 347.271 28.269 C 346.3 29.522 345.813 30.992 345.813 32.68 C 345.813 33.371 346.171 33.716 346.887 33.716 C 348.779 33.716 351.72 33.422 355.709 32.834 C 356.555 32.705 356.977 32.5 356.977 32.219 Z" style="fill: rgb(255, 255, 255);"/>
  <path d="M 445.004 54.158 C 445.055 54.849 444.697 55.195 443.93 55.195 C 443.444 55.195 442.045 54.913 439.731 54.351 C 437.416 53.789 435.992 53.405 435.455 53.201 C 430.11 55.298 424.984 56.346 420.073 56.346 C 412.174 56.346 405.69 53.713 400.627 48.445 C 395.616 43.254 393.109 36.695 393.109 28.769 C 393.109 20.662 395.538 13.938 400.397 8.593 C 405.409 3.07 411.916 0.308 419.921 0.308 C 423.806 0.308 427.463 1.05 430.891 2.533 C 434.598 4.169 437.513 6.471 439.636 9.436 C 440.07 10.051 440.288 10.485 440.288 10.74 C 440.288 11.559 439.144 13.393 436.855 16.244 C 434.566 19.096 433.09 20.52 432.425 20.52 C 432.273 20.52 431.683 19.997 430.661 18.947 C 429.408 17.694 428.131 16.723 426.827 16.032 C 424.882 14.984 422.734 14.459 420.384 14.459 C 416.548 14.459 413.504 15.892 411.254 18.755 C 409.157 21.388 408.109 24.674 408.109 28.612 C 408.109 32.78 409.195 36.079 411.369 38.508 C 413.619 41.014 416.802 42.267 420.919 42.267 C 423.527 42.267 426.443 41.615 429.664 40.311 C 429.586 39.468 429.357 37.319 428.973 33.868 C 428.64 31.209 428.475 29.06 428.475 27.425 C 428.475 26.939 428.641 26.644 428.973 26.542 C 429.102 26.491 429.306 26.465 429.586 26.465 C 430.328 26.465 431.447 26.536 432.943 26.675 C 434.439 26.816 435.571 26.887 436.338 26.887 C 437.155 26.887 438.383 26.829 440.02 26.714 C 441.657 26.599 442.883 26.541 443.701 26.541 C 444.341 26.541 444.661 26.963 444.661 27.806 C 444.661 29.034 444.59 30.888 444.45 33.369 C 444.309 35.849 444.238 37.702 444.238 38.93 C 444.238 42.228 444.481 47.163 444.968 53.735 L 445.004 54.158 Z" style="fill: rgb(255, 255, 255);"/>
  <path d="M 488.652 36.208 C 488.652 38.177 488.767 41.104 488.996 44.991 C 489.228 48.878 489.342 51.793 489.342 53.737 C 489.342 54.759 488.895 55.308 487.999 55.386 C 484.829 55.616 481.197 55.731 477.106 55.731 C 476.621 55.731 476.295 54.997 476.129 53.525 C 475.962 52.055 475.765 51.308 475.534 51.282 C 475.329 51.384 475.06 51.602 474.727 51.934 C 471.864 54.824 468.796 56.268 465.524 56.268 C 460.537 56.268 456.408 54.3 453.134 50.362 C 450.039 46.679 448.494 42.282 448.494 37.168 C 448.494 31.261 450.091 26.505 453.288 22.9 C 456.611 19.167 461.164 17.3 466.943 17.3 C 470.957 17.3 474.128 18.706 476.455 21.519 C 476.557 21.648 476.647 21.711 476.724 21.711 C 476.955 21.711 477.216 21.092 477.51 19.851 C 477.803 18.611 478.156 17.991 478.565 17.991 C 479.511 17.991 481.313 18.26 483.974 18.797 C 486.504 19.308 488.321 19.743 489.421 20.1 C 489.805 20.254 489.996 20.458 489.996 20.714 C 489.996 20.816 489.957 21.084 489.88 21.519 C 489.06 26.146 488.652 31.044 488.652 36.208 Z M 476.302 36.438 C 476.302 34.264 475.617 32.468 474.249 31.049 C 472.88 29.629 471.097 28.92 468.9 28.92 C 466.7 28.92 464.923 29.623 463.568 31.03 C 462.211 32.436 461.534 34.239 461.534 36.438 C 461.534 38.509 462.25 40.287 463.683 41.769 C 465.116 43.253 466.853 43.994 468.9 43.994 C 471.072 43.994 472.849 43.284 474.231 41.865 C 475.612 40.446 476.302 38.638 476.302 36.438 Z" style="fill: rgb(255, 255, 255);"/>
  <path d="M 557.578 53.967 C 557.578 54.863 557.194 55.361 556.427 55.464 C 555.66 55.565 553.766 55.618 550.751 55.618 C 547.63 55.618 545.688 55.54 544.921 55.387 C 544.153 55.235 543.769 54.608 543.769 53.508 C 543.769 52.333 543.808 50.573 543.884 48.235 C 543.962 45.895 544 44.138 544 42.96 C 544 38.485 543.948 35.302 543.847 33.41 C 543.693 30.368 542.249 28.846 539.512 28.846 C 538.31 28.846 537.116 29.352 535.927 30.362 C 534.737 31.373 534.079 32.49 533.951 33.718 C 533.849 34.791 533.799 37.937 533.799 43.153 C 533.799 44.355 533.836 46.177 533.914 48.619 C 533.99 51.061 534.029 52.896 534.029 54.122 C 534.029 54.966 533.657 55.389 532.916 55.389 L 521.294 55.389 C 520.578 55.389 520.22 54.865 520.22 53.816 C 520.22 52.614 520.259 50.811 520.337 48.407 C 520.413 46.005 520.452 44.188 520.452 42.96 C 520.452 42.014 520.425 40.583 520.374 38.664 C 520.323 36.747 520.296 35.302 520.296 34.331 C 520.296 30.674 518.904 28.846 516.116 28.846 C 514.991 28.846 513.776 29.282 512.472 30.15 C 511.039 31.096 510.324 32.093 510.324 33.142 C 510.324 35.47 510.337 38.947 510.362 43.575 C 510.387 48.202 510.4 51.667 510.4 53.968 C 510.4 54.608 510.323 55.004 510.169 55.157 C 510.015 55.31 509.62 55.412 508.98 55.465 C 507.829 55.566 506.014 55.619 503.533 55.619 C 501.923 55.619 500.095 55.541 498.049 55.389 C 497.436 55.337 497.07 55.248 496.955 55.121 C 496.84 54.993 496.782 54.609 496.782 53.969 C 496.782 51.925 496.795 48.863 496.82 44.783 C 496.846 40.705 496.859 37.643 496.859 35.597 C 496.859 31.404 496.552 26.686 495.938 21.444 C 495.886 21.138 495.861 20.908 495.861 20.754 C 495.861 20.319 496.04 20.024 496.398 19.871 C 496.96 19.641 498.022 19.45 499.582 19.296 C 501.5 19.117 502.636 19.003 502.997 18.95 C 503.252 18.899 504.262 18.631 506.026 18.145 C 507.279 17.787 508.29 17.608 509.057 17.608 C 509.542 17.608 509.798 18.496 509.824 20.273 C 509.849 22.05 509.952 22.939 510.131 22.939 C 510.386 22.836 510.679 22.657 511.013 22.402 C 513.314 20.612 515.128 19.385 516.46 18.72 C 518.428 17.774 520.563 17.301 522.864 17.301 C 525.217 17.301 527.314 17.825 529.155 18.874 C 531.226 20.05 532.568 21.7 533.182 23.822 C 534.537 21.981 536.404 20.433 538.783 19.181 C 541.16 17.928 543.474 17.301 545.725 17.301 C 549.1 17.301 551.849 18.082 553.972 19.641 C 556.375 21.406 557.578 23.925 557.578 27.198 C 557.578 28.553 557.539 30.592 557.462 33.316 C 557.385 36.039 557.346 38.079 557.346 39.434 C 557.346 41.044 557.385 43.468 557.462 46.703 C 557.539 49.934 557.578 52.357 557.578 53.967 Z" style="fill: rgb(255, 255, 255);"/>
  <path d="M 600 34.559 C 600 37.141 599.168 38.612 597.506 38.97 C 597.224 39.021 594.578 39.302 589.566 39.813 C 586.549 40.146 582.048 40.541 576.065 41.002 C 576.423 42.665 577.509 43.93 579.325 44.798 C 580.808 45.514 582.495 45.872 584.388 45.872 C 586.663 45.872 588.952 45.259 591.253 44.031 C 592.224 43.417 593.196 42.804 594.169 42.191 C 594.706 42.446 595.607 43.751 596.872 46.102 C 598.138 48.455 598.771 49.951 598.771 50.59 C 598.771 50.769 598.58 51.063 598.196 51.472 C 595.076 54.822 590.231 56.496 583.66 56.496 C 577.573 56.496 572.664 54.719 568.93 51.165 C 565.095 47.56 563.177 42.74 563.177 36.705 C 563.177 30.823 564.89 26.003 568.316 22.244 C 571.843 18.357 576.525 16.414 582.353 16.414 C 587.264 16.414 591.431 18.205 594.858 21.785 C 598.286 25.366 600 29.624 600 34.559 Z M 586.576 32.219 C 586.576 30.633 586.014 29.24 584.887 28.038 C 583.763 26.836 582.419 26.236 580.859 26.236 C 579.249 26.236 577.919 26.914 576.87 28.269 C 575.899 29.522 575.412 30.992 575.412 32.68 C 575.412 33.371 575.77 33.716 576.486 33.716 C 578.378 33.716 581.319 33.422 585.308 32.834 C 586.154 32.705 586.576 32.5 586.576 32.219 Z" style="fill: rgb(255, 255, 255);"/>
  <path d="M 227.344 105.314 C 227.344 110.504 225.158 114.954 220.786 118.662 C 216.95 121.934 212.284 124.018 206.786 124.914 C 206.58 124.939 206.415 124.951 206.288 124.951 C 205.699 124.951 204.396 123.154 202.376 119.562 C 200.356 115.97 199.346 113.777 199.346 112.983 C 199.346 112.702 199.538 112.524 199.922 112.446 C 203.629 111.602 206.084 110.887 207.286 110.298 C 209.945 108.968 211.275 106.999 211.275 104.391 C 211.275 102.73 210.406 100.875 208.668 98.829 C 205.651 95.353 204.014 93.422 203.759 93.038 C 201.994 90.379 201.112 87.438 201.112 84.216 C 201.112 79.537 203.273 75.649 207.594 72.556 C 211.123 69.999 215.456 68.337 220.597 67.57 C 220.878 67.544 221.095 67.533 221.249 67.533 C 221.633 67.533 221.94 67.839 222.17 68.453 C 222.834 70.32 224.381 73.695 226.81 78.579 C 226.887 78.732 226.925 78.861 226.925 78.963 C 226.925 79.398 226.695 79.615 226.234 79.615 C 226.029 79.615 225.684 79.576 225.198 79.498 C 224.711 79.422 224.341 79.383 224.086 79.383 C 222.245 79.383 220.634 79.805 219.253 80.65 C 217.59 81.621 216.76 82.976 216.76 84.715 C 216.76 86.276 217.68 88.193 219.522 90.469 C 222.769 94.561 224.47 96.708 224.624 96.912 C 226.436 99.728 227.344 102.527 227.344 105.314 Z" style="fill: rgb(255, 255, 255);"/>
  <path d="M 259.103 111.721 C 259.103 112.486 259.007 113.651 258.816 115.211 C 258.624 116.77 258.528 117.915 258.528 118.643 C 258.528 119.371 258.451 119.838 258.297 120.043 C 258.144 120.247 257.722 120.541 257.031 120.924 C 253.733 122.74 250.075 123.648 246.062 123.648 C 238.671 123.648 234.977 120.823 234.977 115.172 C 234.977 113.484 235.041 110.947 235.169 107.559 C 235.296 104.171 235.36 101.633 235.36 99.945 C 235.36 98.82 234.708 98.257 233.404 98.257 C 233.302 98.257 233.137 98.257 232.906 98.257 C 232.676 98.284 232.51 98.295 232.408 98.295 C 231.436 98.295 230.95 97.951 230.95 97.26 C 230.95 96.851 230.982 96.224 231.047 95.38 C 231.111 94.536 231.143 93.91 231.143 93.501 C 231.143 92.963 231.111 92.146 231.047 91.046 C 230.983 89.946 230.95 89.129 230.95 88.591 C 230.95 88.08 231.769 87.799 233.406 87.747 C 234.327 87.721 234.825 87.466 234.901 86.98 C 235.055 86.009 235.106 84.474 235.055 82.376 C 234.952 79.078 234.901 77.505 234.901 77.659 C 234.901 74.693 235.183 73.209 235.744 73.209 C 236.435 73.209 237.419 73.362 238.698 73.67 C 240.155 74.002 241.165 74.194 241.727 74.244 C 243.031 74.424 244.999 74.667 247.633 74.973 C 248.273 75.025 248.593 75.241 248.593 75.625 C 248.593 76.648 248.509 78.196 248.344 80.267 C 248.178 82.338 248.095 83.898 248.095 84.945 C 248.095 86.199 248.466 86.825 249.208 86.825 C 250.102 86.825 251.458 86.787 253.273 86.71 C 255.089 86.632 256.457 86.595 257.378 86.595 C 257.94 86.595 258.221 86.786 258.221 87.17 C 258.221 87.758 258.157 88.641 258.03 89.817 C 257.901 90.992 257.838 91.875 257.838 92.462 C 257.838 93.075 257.851 93.971 257.877 95.148 C 257.902 96.324 257.916 97.219 257.916 97.833 C 257.916 98.371 257.545 98.64 256.803 98.64 C 256.292 98.64 255.436 98.62 254.233 98.581 C 253.032 98.544 252.175 98.524 251.664 98.524 L 248.787 98.524 C 248.403 98.524 248.212 99.087 248.212 100.212 C 248.212 100.826 248.212 101.735 248.212 102.936 C 248.237 104.162 248.25 105.071 248.25 105.659 C 248.25 107.808 248.493 109.29 248.979 110.109 C 249.669 111.209 251.025 111.758 253.044 111.758 C 253.684 111.758 254.598 111.612 255.787 111.316 C 256.976 111.024 257.813 110.875 258.3 110.875 C 258.834 110.876 259.103 111.157 259.103 111.721 Z" style="fill: rgb(255, 255, 255);"/>
  <path d="M 302.598 88.093 C 302.598 89.986 302.508 92.824 302.329 96.608 C 302.15 100.392 302.061 103.231 302.061 105.123 C 302.061 106.965 302.125 109.726 302.252 113.409 C 302.38 117.09 302.444 119.839 302.444 121.655 C 302.444 122.346 302.125 122.78 301.485 122.959 C 300.513 123.214 298.456 123.343 295.31 123.343 C 292.522 123.343 290.58 123.266 289.48 123.113 C 288.993 123.035 288.687 122.729 288.559 122.192 C 288.483 121.426 288.405 120.658 288.329 119.891 C 288.201 118.716 288.022 118.126 287.792 118.126 C 288.15 118.126 286.857 118.996 283.918 120.735 C 280.977 122.475 278.305 123.343 275.901 123.343 C 269.124 123.343 265.11 120.289 263.857 114.176 C 263.294 111.338 263.013 107.221 263.013 101.826 C 263.013 95.996 263.486 91.392 264.432 88.017 C 264.713 86.97 265.237 86.445 266.005 86.445 C 267.18 86.445 268.97 86.458 271.374 86.483 C 273.777 86.51 275.567 86.521 276.745 86.521 C 277.537 86.521 277.934 86.854 277.934 87.518 C 277.934 87.698 277.907 87.966 277.856 88.324 C 277.319 91.802 277.05 95.332 277.05 98.91 C 277.05 103.36 277.19 106.404 277.472 108.039 C 277.932 110.852 279.607 112.259 282.497 112.259 C 283.622 112.259 284.844 111.761 286.16 110.763 C 287.476 109.766 288.161 108.73 288.212 107.657 C 288.264 106.711 288.29 100.292 288.29 88.402 C 288.29 87.558 288.354 87.06 288.481 86.906 C 288.635 86.651 289.094 86.522 289.862 86.522 C 291.114 86.522 293 86.536 295.519 86.561 C 298.037 86.587 299.924 86.598 301.176 86.598 C 301.943 86.598 302.39 86.79 302.519 87.174 C 302.572 87.377 302.598 87.685 302.598 88.093 Z" style="fill: rgb(255, 255, 255);"/>
  <path d="M 349.583 68.531 C 349.583 67.97 349.481 68.813 349.277 71.062 C 348.994 73.901 348.779 77.531 348.625 81.955 C 348.42 86.968 348.318 92.67 348.318 99.062 C 348.318 109.622 348.611 117.14 349.201 121.614 C 349.252 122.101 349.278 122.407 349.278 122.535 C 349.278 122.816 349.087 122.981 348.703 123.033 C 347.783 123.16 344.394 123.224 338.538 123.224 C 337.156 123.224 336.364 122.955 336.16 122.418 C 336.109 121.447 336.058 120.475 336.008 119.503 C 335.981 119.299 335.879 119.095 335.701 118.89 C 335.547 118.967 335.356 119.12 335.125 119.35 C 332.364 122.06 328.911 123.416 324.769 123.416 C 319.373 123.416 315.052 121.522 311.805 117.738 C 308.711 114.133 307.165 109.582 307.165 104.085 C 307.165 98.51 308.686 93.92 311.729 90.315 C 314.95 86.48 319.297 84.56 324.769 84.56 C 328.631 84.56 331.635 85.788 333.783 88.243 C 334.141 88.652 334.396 88.856 334.55 88.856 C 334.78 88.856 334.894 88.523 334.894 87.859 C 334.894 85.89 334.843 82.948 334.741 79.037 C 334.639 75.124 334.587 72.197 334.587 70.252 C 334.587 69.51 334.793 69.088 335.202 68.986 C 336.837 68.909 339.087 68.755 341.953 68.526 C 347.067 67.887 349.329 67.567 348.741 67.567 C 349.302 67.572 349.583 67.892 349.583 68.531 Z M 335.124 103.779 C 335.124 101.761 334.42 99.99 333.014 98.468 C 331.607 96.947 329.907 96.186 327.913 96.186 C 325.815 96.186 324.147 96.947 322.907 98.468 C 321.667 99.99 321.048 101.811 321.048 103.933 C 321.048 106.004 321.673 107.756 322.927 109.188 C 324.205 110.723 325.868 111.489 327.913 111.489 C 329.957 111.489 331.672 110.723 333.052 109.188 C 334.433 107.654 335.124 105.85 335.124 103.779 Z" style="fill: rgb(255, 255, 255);"/>
  <path d="M 369.451 105.352 C 369.451 107.219 369.49 110.001 369.566 113.695 C 369.644 117.39 369.681 120.158 369.681 121.999 C 369.681 122.537 369.362 122.858 368.723 122.959 C 367.853 123.113 365.896 123.189 362.855 123.189 C 359.787 123.189 357.817 123.113 356.948 122.959 C 356.385 122.858 356.039 122.69 355.912 122.461 C 355.86 122.36 355.835 121.975 355.835 121.31 C 355.835 119.547 355.873 116.894 355.95 113.352 C 356.028 109.811 356.066 107.144 356.066 105.354 C 356.066 98.092 355.784 92.313 355.222 88.017 C 355.17 87.61 355.145 87.34 355.145 87.212 C 355.145 86.701 355.489 86.445 356.179 86.445 C 356.895 86.445 357.988 86.522 359.459 86.676 C 360.93 86.829 362.036 86.906 362.776 86.906 C 363.517 86.906 364.63 86.842 366.113 86.715 C 367.597 86.587 368.708 86.523 369.45 86.523 C 370.063 86.523 370.37 86.78 370.37 87.29 C 370.37 87.393 370.343 87.635 370.293 88.019 C 369.733 93.003 369.451 98.782 369.451 105.352 Z M 370.449 76.854 C 370.449 81.304 367.942 83.528 362.93 83.528 C 360.783 83.528 359.005 82.966 357.6 81.84 C 356.064 80.613 355.297 78.95 355.297 76.854 C 355.297 74.86 356.091 73.224 357.675 71.944 C 359.133 70.769 360.883 70.179 362.929 70.179 C 364.924 70.179 366.651 70.78 368.108 71.983 C 369.669 73.262 370.449 74.886 370.449 76.854 Z" style="fill: rgb(255, 255, 255);"/>
  <path d="M 413.753 104.087 C 413.753 109.916 411.97 114.647 408.403 118.279 C 404.837 121.91 400.149 123.726 394.346 123.726 C 388.721 123.726 384.092 121.935 380.461 118.356 C 376.83 114.776 375.013 110.174 375.013 104.548 C 375.013 98.616 376.753 93.802 380.23 90.107 C 383.707 86.412 388.413 84.564 394.344 84.564 C 400.123 84.564 404.802 86.373 408.383 89.992 C 411.962 93.61 413.753 98.309 413.753 104.087 Z M 401.172 104.087 C 401.172 102.068 400.545 100.283 399.292 98.737 C 398.04 97.19 396.415 96.417 394.421 96.417 C 392.401 96.417 390.739 97.21 389.435 98.794 C 388.208 100.278 387.593 102.043 387.593 104.087 C 387.593 106.157 388.206 107.935 389.435 109.418 C 390.739 111.005 392.401 111.796 394.421 111.796 C 396.415 111.796 398.065 111.004 399.368 109.418 C 400.57 107.935 401.172 106.157 401.172 104.087 Z" style="fill: rgb(255, 255, 255);"/>
</svg>