<?xml version="1.0" encoding="utf-8"?>
<svg xmlns="http://www.w3.org/2000/svg" xmlns:bx="https://boxy-svg.com">
  <path id="path5" d="M 98.393 31.43 C 104.961 24.224 108.383 14.105 108.855 0.494 L 108.866 0 L 108.382 0.099 C 85.313 4.817 73.401 19.274 72.973 43.066 L 72.965 43.529 L 73.423 43.458 C 84.409 41.737 92.574 37.802 98.383 31.43 Z" style="fill: rgb(255, 255, 255);" bx:origin="-2.032 0"/>
  <path id="path7" d="M 19.016 153.809 L 19.44 154.419 C 23.253 159.918 27.625 165.268 32.434 170.325 C 36.096 174.175 41.931 176.294 48.86 176.294 C 53.939 176.294 59.205 175.099 62.604 173.177 C 69.635 169.203 73.362 169.194 76.082 169.19 C 76.628 169.19 77.138 169.188 77.629 169.159 L 78.073 169.13 C 78.662 169.093 79.269 169.052 79.955 169.052 C 82.367 169.052 85.968 169.525 92.517 173.226 C 97.087 175.142 101.519 176.112 105.688 176.112 L 105.69 176.112 C 117.045 176.112 127 169.006 136.125 154.405 L 136.498 153.809 L 19.016 153.809 L 19.019 153.798 Z" style="fill: rgb(255, 255, 255);" bx:origin="-0.162 -6.837"/>
  <path id="path9" d="M 137.846 62.691 C 139.363 61.179 141 59.686 142.758 58.22 L 143.052 57.975 L 142.81 57.676 C 134.251 47.119 122.531 41.426 108.919 41.211 L 108.295 41.208 C 101.396 41.208 95.295 42.502 90.653 44.948 C 84.632 48.118 80.156 48.821 80.112 48.827 C 80.034 48.838 79.54 48.857 78.189 48.857 C 76.548 48.857 75.131 48.83 74.961 48.806 L 74.853 48.792 C 72.923 48.543 68.002 47.733 64.014 45.607 C 58.593 42.717 52.554 41.188 46.55 41.188 L 46.154 41.19 C 30.278 41.367 17.006 49.104 8.76 62.691 L 137.855 62.691 Z" style="fill: rgb(255, 255, 255);" bx:origin="-0.065 -1.915"/>
  <path id="path11" d="M 124.532 85.261 C 126.094 77.707 130.312 70.372 137.188 63.354 L 137.836 62.691 L 8.762 62.691 L 8.648 62.879 C 4.692 69.443 2.072 77.036 0.827 85.26 L 124.535 85.261 Z" style="fill: rgb(255, 255, 255);" bx:origin="-0.006 -2.778"/>
  <path id="path13" d="M 127.56 107.558 C 124.439 101.145 122.906 93.737 124.459 85.731 L 124.548 85.267 L 0.84 85.267 L 0.795 85.596 C -0.251 92.726 -0.251 100.108 0.717 107.556 L 127.569 107.556 Z" style="fill: rgb(255, 255, 255);" bx:origin="0 -3.825"/>
  <path id="path15" d="M 6.788 130.944 L 148.166 130.944 L 148.993 129.153 L 148.653 128.986 C 141.887 125.636 132.817 118.302 127.652 107.77 L 127.545 107.553 L 0.713 107.553 L 0.772 107.992 C 1.635 114.463 3.398 122.294 6.795 130.953 Z" style="fill: rgb(255, 255, 255);" bx:origin="-0.005 -4.596"/>
  <path id="path17" d="M 19.019 153.809 L 136.49 153.809 C 140.974 146.54 144.672 138.537 147.92 131.505 L 148.175 130.952 L 6.808 130.952 L 7.022 131.486 C 10.116 139.199 14.129 146.658 19.021 153.809 Z" style="fill: rgb(255, 255, 255);" bx:origin="-0.048 -5.729"/>
  <path id="path4012_1_" d="M 397.279 40.935 L 397.279 123.93 L 416.994 123.93 L 416.994 40.934 L 397.284 40.934 Z M 527.638 40.935 L 527.638 52.084 L 539.222 52.084 C 540.658 52.084 541.821 53.281 541.821 54.758 L 541.821 110.127 C 541.821 111.605 540.649 112.8 539.222 112.8 L 527.638 112.8 L 527.638 123.972 L 558.838 123.972 L 558.838 40.933 L 527.643 40.933 Z M 568.566 40.935 L 568.566 123.972 L 599.768 123.972 L 599.768 112.8 L 588.186 112.8 C 586.747 112.8 585.585 111.605 585.585 110.127 L 585.585 54.755 C 585.585 53.279 586.748 52.082 588.186 52.082 L 599.768 52.082 L 599.768 40.933 L 568.562 40.933 Z M 166.98 60.88 C 157.586 60.88 149.947 63.969 143.558 70.314 C 137.126 76.707 134.089 83.776 134.089 92.018 C 134.089 100.142 137.293 107.313 144.101 114.017 C 150.893 120.71 158.437 123.93 167.212 123.93 L 179.922 123.93 L 179.922 109.331 L 174.683 109.331 C 169.653 109.331 165.143 107.687 161.624 104.483 C 158.104 101.28 156.19 96.983 156.19 92.238 C 156.19 87.444 158.065 83.128 161.547 80.05 C 165.008 76.986 169.453 75.483 174.451 75.483 L 188.209 75.483 C 189.645 75.483 190.808 76.678 190.808 78.154 L 190.808 123.93 L 210.523 123.93 L 210.523 60.879 L 166.96 60.879 Z M 223.463 60.88 L 223.463 143.876 L 243.197 143.876 L 243.197 78.155 C 243.197 76.679 244.361 75.484 245.797 75.484 L 258.603 75.484 C 263.984 75.484 268.812 77.349 272.593 80.969 C 276.089 84.317 278.045 88.542 278.045 93.116 C 278.045 97.846 275.945 102.094 272.165 105.022 C 268.434 107.916 263.795 109.334 258.602 109.334 L 254.08 109.334 L 254.08 123.932 L 267.373 123.932 C 276.625 123.932 284.232 120.951 290.659 114.878 C 297.081 108.808 300.147 101.733 300.147 93.016 C 300.147 83.985 297.073 76.598 290.677 70.278 C 284.273 63.95 276.834 60.883 267.857 60.883 L 223.455 60.88 Z M 310.376 60.88 L 310.376 143.876 L 330.09 143.876 L 330.09 78.155 C 330.09 76.679 331.26 75.484 332.69 75.484 L 345.516 75.484 C 350.896 75.484 355.723 77.349 359.506 80.969 C 363.003 84.317 364.958 88.542 364.958 93.116 C 364.958 97.852 362.835 102.098 359.058 105.022 C 355.332 107.912 350.71 109.334 345.516 109.334 L 340.994 109.334 L 340.994 123.932 L 354.286 123.932 C 363.537 123.932 371.124 120.953 377.551 114.878 C 383.974 108.808 387.046 101.733 387.046 93.016 C 387.046 83.985 383.97 76.598 377.576 70.278 C 371.177 63.948 363.752 60.883 354.777 60.883 L 310.364 60.88 Z M 466.182 60.88 C 455.632 60.88 446.666 64.092 438.881 70.596 C 431.077 77.115 427.491 84.096 427.491 92.117 C 427.491 101.799 431.187 109.283 439.034 115.373 C 446.389 121.066 455.29 123.93 466.065 123.93 L 505.572 123.93 L 505.572 109.331 L 468.083 109.331 C 463.113 109.331 458.629 107.65 455.085 104.424 C 451.517 101.175 449.572 96.787 449.572 91.902 C 449.572 87.24 451.446 83.042 454.87 80.014 C 458.323 76.961 462.872 75.487 468.083 75.487 L 480.892 75.487 C 481.888 75.489 482.794 76.075 483.227 76.995 C 483.66 77.916 483.544 79.009 482.929 79.814 L 468.705 98.22 L 490.284 98.22 L 505.575 77.28 L 505.575 60.879 L 466.187 60.879 Z" style="fill: rgb(255, 255, 255);" bx:origin="-0.288 -0.398"/>
  <path id="path4019_1_" d="M 397.044 40.822 L 397.044 124.299 L 417.225 124.299 L 417.225 40.817 L 397.048 40.817 Z M 527.404 40.822 L 527.404 52.451 L 539.223 52.451 C 539.851 52.45 540.456 52.705 540.9 53.16 C 541.343 53.617 541.592 54.239 541.59 54.885 L 541.59 110.255 C 541.592 110.897 541.343 111.518 540.9 111.978 C 540.456 112.435 539.851 112.69 539.223 112.687 L 527.407 112.687 L 527.407 124.338 L 559.077 124.338 L 559.077 40.825 L 527.404 40.825 Z M 568.332 40.822 L 568.332 124.339 L 600 124.339 L 600 112.69 L 588.185 112.69 C 587.555 112.692 586.952 112.437 586.508 111.98 C 586.064 111.52 585.814 110.901 585.823 110.258 L 585.823 54.887 C 585.813 54.241 586.066 53.619 586.508 53.162 C 586.952 52.706 587.555 52.451 588.185 52.453 L 600 52.453 L 600 40.823 L 568.337 40.823 Z M 166.98 60.769 C 157.533 60.769 149.833 63.875 143.403 70.263 C 136.932 76.692 133.857 83.837 133.857 92.142 C 133.857 100.337 137.081 107.577 143.928 114.326 C 150.756 121.054 158.379 124.299 167.213 124.299 L 180.156 124.299 L 180.156 109.224 L 174.685 109.224 C 169.704 109.224 165.257 107.606 161.781 104.436 C 158.305 101.271 156.425 97.053 156.425 92.373 C 156.425 87.636 158.268 83.42 161.703 80.381 C 165.118 77.357 169.499 75.852 174.451 75.852 L 188.209 75.852 C 188.837 75.851 189.441 76.106 189.884 76.562 C 190.328 77.019 190.578 77.641 190.576 78.284 L 190.576 124.304 L 210.756 124.304 L 210.756 60.77 L 166.981 60.77 Z M 223.229 60.769 L 223.229 144.244 L 243.429 144.244 L 243.429 78.277 C 243.427 77.635 243.676 77.013 244.12 76.556 C 244.564 76.099 245.168 75.844 245.795 75.845 L 258.602 75.845 C 263.932 75.845 268.697 77.694 272.437 81.27 C 275.896 84.584 277.813 88.731 277.813 93.238 C 277.813 97.901 275.741 102.06 272.012 104.948 C 268.324 107.804 263.756 109.221 258.603 109.221 L 253.848 109.221 L 253.848 124.297 L 267.373 124.297 C 276.676 124.297 284.363 121.296 290.833 115.178 C 297.298 109.074 300.379 101.919 300.379 93.143 C 300.379 84.049 297.288 76.586 290.851 70.225 C 284.407 63.856 276.888 60.77 267.857 60.77 L 223.232 60.76 Z M 310.142 60.769 L 310.142 144.244 L 330.322 144.244 L 330.322 78.277 C 330.321 77.635 330.568 77.013 331.012 76.556 C 331.458 76.099 332.056 75.844 332.69 75.845 L 345.511 75.845 C 350.845 75.845 355.606 77.694 359.346 81.27 C 362.803 84.584 364.722 88.731 364.723 93.238 C 364.722 97.909 362.627 102.062 358.901 104.948 C 355.216 107.803 350.663 109.221 345.51 109.221 L 340.751 109.221 L 340.751 124.297 L 354.275 124.297 C 363.58 124.297 371.249 121.298 377.716 115.178 C 384.183 109.074 387.262 101.919 387.262 93.143 C 387.262 84.049 384.175 76.586 377.734 70.225 C 371.292 63.854 363.79 60.77 354.76 60.77 L 310.145 60.76 Z M 466.182 60.769 C 455.586 60.769 446.55 63.986 438.725 70.523 C 430.883 77.074 427.257 84.147 427.257 92.243 C 427.257 101.995 430.983 109.571 438.879 115.701 C 446.278 121.425 455.244 124.299 466.066 124.299 L 505.802 124.299 L 505.802 109.219 L 468.072 109.219 C 463.15 109.219 458.728 107.56 455.227 104.373 C 451.705 101.162 449.794 96.848 449.794 92.023 C 449.794 87.424 451.636 83.323 455.014 80.336 C 458.419 77.324 462.906 75.846 468.072 75.846 L 480.882 75.846 C 481.79 75.844 482.624 76.381 483.016 77.223 C 483.411 78.067 483.298 79.068 482.726 79.796 L 468.211 98.587 L 490.391 98.587 L 505.799 77.483 L 505.799 60.772 L 466.167 60.772 Z" style="fill: rgb(255, 255, 255);" bx:origin="-0.287 -0.395"/>
</svg>