<?xml version="1.0" encoding="utf-8"?>
<svg version="1.1" id="Ebene_1" x="0px" y="0px" enable-background="new 0 0 566.929 129.21" xmlns="http://www.w3.org/2000/svg">
  <g>
    <path d="M 0 99.422 L 56.548 1.164 C 63.716 13.973 72.409 30.201 82.633 49.846 L 108.217 99.123 L 0 99.422 Z M 56.544 7.562 M 5.167 96.436 M 59.234 61.194 C 59.434 62.788 59.168 64.215 58.438 65.474 C 57.574 66.936 56.347 67.664 54.754 67.664 C 52.763 67.664 51.236 66.605 50.175 64.479 C 49.976 63.218 50.076 61.991 50.473 60.795 C 51.004 59.336 51.899 58.44 53.161 58.107 C 53.559 58.041 53.957 58.007 54.356 58.007 C 56.413 58.009 58.039 59.072 59.234 61.194 Z" style="fill: rgb(255, 255, 255);"/>
    <path d="M 203.904 98.01 C 188.371 98.28 172.837 98.517 157.303 98.721 C 138.715 98.99 123.016 99.057 110.205 98.924 L 110.205 0.268 C 113.921 0.734 125.635 0.666 145.347 0.069 C 160.877 -0.329 172.59 0.999 180.488 4.052 C 191.77 8.367 198.97 16.795 202.092 29.339 C 202.156 30.202 202.191 31.098 202.191 32.028 C 202.191 41.254 197.744 49.319 188.85 56.221 C 186.459 58.08 183.373 59.606 179.59 60.8 C 176.271 61.731 172.95 62.627 169.633 63.489 L 203.904 98.01 Z M 162.669 30.533 C 162.801 30.997 162.868 31.496 162.868 32.026 C 162.868 33.486 162.402 34.697 161.475 35.659 C 160.545 36.621 159.384 37.102 157.991 37.102 C 155.999 37.102 154.439 36.043 153.311 33.918 C 152.847 30.931 153.71 28.808 155.9 27.547 C 156.498 27.282 157.095 27.148 157.692 27.148 C 160.212 27.148 161.872 28.277 162.669 30.533 Z M 185.349 90.978 C 180.509 91.044 173.379 90.843 163.962 90.376 L 163.962 89.472 C 165.82 89.204 168.607 89.102 172.325 89.172 C 176.041 89.238 178.828 89.103 180.687 88.772 L 163.962 71.648 L 166.051 71.651 L 185.349 90.978 Z M 193.529 34.416 C 193.33 37.668 192.135 40.837 189.946 43.922 C 187.755 47.009 185.101 49.248 181.982 50.642 L 173.023 54.625 L 173.023 52.433 C 184.969 48.585 191.373 42.577 192.236 34.415 L 193.529 34.415 Z" style="fill: rgb(255, 255, 255);"/>
    <path d="M 298.257 66.569 C 295.005 75.862 289.049 83.46 280.388 89.368 C 271.728 95.273 262.484 98.193 252.662 98.127 C 243.768 98.127 235.473 95.754 227.774 91.009 C 220.074 86.264 214.068 79.843 209.754 71.746 C 206.37 65.374 204.677 57.977 204.677 49.546 C 204.677 41.648 206.203 34.748 209.257 28.839 C 213.57 20.343 219.66 13.657 227.525 8.779 C 235.39 3.9 243.967 1.462 253.259 1.462 C 255.914 1.462 258.569 1.662 261.224 2.059 C 268.391 3.188 275.094 6.009 281.333 10.519 C 287.837 15.233 292.647 20.908 295.767 27.543 C 287.339 32.655 274.695 40.286 257.839 50.441 C 272.441 56.882 285.914 62.257 298.257 66.569 Z M 283.724 71.748 C 283.724 73.474 282.629 75.366 280.438 77.422 C 278.712 79.014 276.721 80.374 274.465 81.504 L 273.569 80.807 C 274.963 79.679 276.356 78.517 277.751 77.323 C 279.476 75.864 280.637 74.403 281.235 72.943 C 278.115 71.417 273.833 69.625 268.393 67.567 C 261.823 65.046 257.476 63.32 255.352 62.392 L 255.352 60.796 L 283.724 71.748 Z" style="fill: rgb(255, 255, 255);"/>
    <path d="M 283.723 99.422 L 340.27 1.164 C 347.437 13.973 356.131 30.201 366.354 49.846 L 391.939 99.123 L 283.723 99.422 Z M 342.957 61.194 C 343.156 62.788 342.889 64.215 342.16 65.474 C 341.296 66.936 340.07 67.664 338.476 67.664 C 336.485 67.664 334.958 66.605 333.895 64.479 C 333.696 63.218 333.795 61.991 334.194 60.795 C 334.724 59.336 335.621 58.44 336.882 58.107 C 337.281 58.041 337.679 58.007 338.076 58.007 C 340.134 58.009 341.762 59.072 342.957 61.194 Z M 378.598 91.459 L 358.187 91.857 L 358.187 90.563 L 375.212 90.065 C 374.48 87.675 372.856 84.19 370.332 79.612 C 367.677 74.768 365.953 71.15 365.156 68.762 L 366.35 68.065 L 378.598 91.459 Z" style="fill: rgb(255, 255, 255);"/>
    <path d="M 493.48 73.59 C 488.503 83.791 481.001 90.911 470.981 94.952 C 463.349 97.998 453.062 99.521 440.119 99.521 C 436.601 99.521 431.226 99.387 423.992 99.123 C 416.758 98.858 411.381 98.725 407.864 98.725 C 402.423 98.725 397.644 98.99 393.529 99.521 L 393.828 0.268 C 397.81 0.666 402.354 0.866 407.464 0.866 C 410.982 0.866 416.391 0.766 423.693 0.568 C 430.993 0.368 436.436 0.269 440.018 0.269 C 451.101 0.269 460.162 1.462 467.196 3.845 C 476.221 6.893 483.39 12.257 488.699 19.942 C 495.47 27.559 498.853 37.461 498.853 49.647 C 498.854 58.325 497.063 66.306 493.48 73.59 Z M 453.061 60.796 C 453.194 61.262 453.261 61.758 453.261 62.291 C 453.261 63.485 452.878 64.564 452.116 65.526 C 451.353 66.488 450.375 67.036 449.18 67.167 C 446.391 66.639 444.666 65.609 444.003 64.083 C 443.936 63.618 443.904 63.187 443.904 62.789 C 443.904 60.465 444.964 58.773 447.089 57.71 C 447.487 57.645 447.886 57.612 448.284 57.612 C 450.274 57.612 451.867 58.673 453.061 60.796 Z M 491.39 51.04 C 490.393 59.138 488.069 66.24 484.421 72.343 C 480.172 79.512 474.53 84.457 467.495 87.177 C 463.578 88.703 460.69 89.732 458.836 90.263 C 455.584 91.193 452.529 91.689 449.677 91.758 L 449.178 90.563 C 464.773 87.841 475.594 82.166 481.633 73.54 C 485.748 67.633 488.404 60.135 489.598 51.041 L 491.39 51.041 Z" style="fill: rgb(255, 255, 255);"/>
    <path d="M 600 45.764 L 545.844 45.764 C 545.246 47.372 544.948 49.249 544.948 51.391 C 544.948 53.535 545.246 55.342 545.844 56.816 L 565.057 56.816 L 565.057 69.259 L 545.844 70.155 L 545.844 79.912 L 599.702 80.31 L 599.702 99.424 L 503.434 99.424 L 503.434 0.268 L 599.702 0.268 L 600 45.764 Z M 551.916 9.725 L 512.792 10.023 L 512.494 42.478 L 511.101 42.478 L 511.101 7.934 C 520.259 7.803 533.863 7.969 551.917 8.432 L 551.917 9.725 Z" style="fill: rgb(255, 255, 255);"/>
    <path d="M 0 99.422 L 56.548 1.164 C 63.716 13.973 72.409 30.201 82.633 49.846 L 108.217 99.123 L 0 99.422 Z M 103.092 96.236 L 56.544 7.562 L 5.167 96.436 L 103.092 96.236 Z M 59.234 61.194 C 59.434 62.788 59.168 64.215 58.438 65.474 C 57.574 66.936 56.347 67.664 54.754 67.664 C 52.763 67.664 51.236 66.605 50.175 64.479 C 49.976 63.218 50.076 61.991 50.473 60.795 C 51.004 59.336 51.899 58.44 53.161 58.107 C 53.559 58.041 53.957 58.007 54.356 58.007 C 56.413 58.009 58.039 59.072 59.234 61.194 Z M 94.875 91.459 L 74.465 91.857 L 74.465 90.563 L 91.488 90.065 C 90.757 87.675 89.132 84.19 86.611 79.612 C 83.956 74.768 82.23 71.15 81.434 68.762 L 82.629 68.065 L 94.875 91.459 Z" style="fill: rgb(20, 20, 20);"/>
    <path d="M 203.904 98.01 C 188.371 98.28 172.837 98.517 157.303 98.721 C 138.715 98.99 123.016 99.057 110.205 98.924 L 110.205 0.268 C 113.921 0.734 125.635 0.666 145.347 0.069 C 160.877 -0.329 172.59 0.999 180.488 4.052 C 191.77 8.367 198.97 16.795 202.092 29.339 C 202.156 30.202 202.191 31.098 202.191 32.028 C 202.191 41.254 197.744 49.319 188.85 56.221 C 186.459 58.08 183.373 59.606 179.59 60.8 C 176.271 61.731 172.95 62.627 169.633 63.489 L 203.904 98.01 Z M 199.006 29.308 C 196.283 19.166 190.708 12.072 182.28 8.028 C 175.775 4.98 166.651 3.455 154.903 3.455 C 151.651 3.455 146.74 3.603 140.169 3.902 C 133.598 4.202 128.753 4.351 125.633 4.351 C 120.856 4.351 116.707 4.119 113.19 3.654 L 113.19 95.54 L 196.913 95.54 L 165.427 63.813 C 165.047 63.349 164.859 62.786 164.859 62.122 C 164.792 61.26 165.092 60.697 165.755 60.433 C 172.789 60.433 179.593 58.278 186.164 53.968 C 195.321 48.07 199.603 39.848 199.006 29.308 Z M 162.669 30.533 C 162.801 30.997 162.868 31.496 162.868 32.026 C 162.868 33.486 162.402 34.697 161.475 35.659 C 160.545 36.621 159.384 37.102 157.991 37.102 C 155.999 37.102 154.439 36.043 153.311 33.918 C 152.847 30.931 153.71 28.808 155.9 27.547 C 156.498 27.282 157.095 27.148 157.692 27.148 C 160.212 27.148 161.872 28.277 162.669 30.533 Z M 185.349 90.978 C 180.509 91.044 173.379 90.843 163.962 90.376 L 163.962 89.472 C 165.82 89.204 168.607 89.102 172.325 89.172 C 176.041 89.238 178.828 89.103 180.687 88.772 L 163.962 71.648 L 166.051 71.651 L 185.349 90.978 Z M 193.529 34.416 C 193.33 37.668 192.135 40.837 189.946 43.922 C 187.755 47.009 185.101 49.248 181.982 50.642 L 173.023 54.625 L 173.023 52.433 C 184.969 48.585 191.373 42.577 192.236 34.415 L 193.529 34.415 Z" style="fill: rgb(20, 20, 20);"/>
    <path d="M 298.257 66.569 C 295.005 75.862 289.049 83.46 280.388 89.368 C 271.728 95.273 262.484 98.193 252.662 98.127 C 243.768 98.127 235.473 95.754 227.774 91.009 C 220.074 86.264 214.068 79.843 209.754 71.746 C 206.37 65.374 204.677 57.977 204.677 49.546 C 204.677 41.648 206.203 34.748 209.257 28.839 C 213.57 20.343 219.66 13.657 227.525 8.779 C 235.39 3.9 243.967 1.462 253.259 1.462 C 255.914 1.462 258.569 1.662 261.224 2.059 C 268.391 3.188 275.094 6.009 281.333 10.519 C 287.837 15.233 292.647 20.908 295.767 27.543 C 287.339 32.655 274.695 40.286 257.839 50.441 C 272.441 56.882 285.914 62.257 298.257 66.569 Z M 293.044 68.455 C 277.654 62.652 263.657 56.848 251.055 51.047 C 256.235 48.063 263.042 43.95 271.477 38.707 C 281.571 32.34 288.246 28.16 291.5 26.168 C 288.38 20.457 283.867 15.708 277.959 11.922 C 272.582 8.468 266.574 6.11 259.938 4.846 C 258.146 4.715 256.386 4.647 254.661 4.647 C 245.898 4.647 237.933 6.573 230.765 10.421 C 223.198 14.537 217.322 20.377 213.141 27.943 C 209.558 34.382 207.766 41.648 207.766 49.745 C 207.766 60.763 210.851 69.921 217.019 77.221 C 221.73 82.797 227.219 87.159 233.488 90.312 C 239.756 93.465 246.307 95.041 253.142 95.041 C 257.918 95.041 262.595 94.246 267.172 92.658 C 273.209 90.61 278.583 87.534 283.293 83.432 C 288.666 78.806 291.914 73.811 293.044 68.455 Z M 283.724 71.748 C 283.724 73.474 282.629 75.366 280.438 77.422 C 278.712 79.014 276.721 80.374 274.465 81.504 L 273.569 80.807 C 274.963 79.679 276.356 78.517 277.751 77.323 C 279.476 75.864 280.637 74.403 281.235 72.943 C 278.115 71.417 273.833 69.625 268.393 67.567 C 261.823 65.046 257.476 63.32 255.352 62.392 L 255.352 60.796 L 283.724 71.748 Z" style="fill: rgb(20, 20, 20);"/>
    <path d="M 283.723 99.422 L 340.27 1.164 C 347.437 13.973 356.131 30.201 366.354 49.846 L 391.939 99.123 L 283.723 99.422 Z M 386.814 96.236 L 340.265 7.562 L 288.888 96.436 L 386.814 96.236 Z M 342.957 61.194 C 343.156 62.788 342.889 64.215 342.16 65.474 C 341.296 66.936 340.07 67.664 338.476 67.664 C 336.485 67.664 334.958 66.605 333.895 64.479 C 333.696 63.218 333.795 61.991 334.194 60.795 C 334.724 59.336 335.621 58.44 336.882 58.107 C 337.281 58.041 337.679 58.007 338.076 58.007 C 340.134 58.009 341.762 59.072 342.957 61.194 Z M 378.598 91.459 L 358.187 91.857 L 358.187 90.563 L 375.212 90.065 C 374.48 87.675 372.856 84.19 370.332 79.612 C 367.677 74.768 365.953 71.15 365.156 68.762 L 366.35 68.065 L 378.598 91.459 Z" style="fill: rgb(20, 20, 20);"/>
    <path d="M 493.48 73.59 C 488.503 83.791 481.001 90.911 470.981 94.952 C 463.349 97.998 453.062 99.521 440.119 99.521 C 436.601 99.521 431.226 99.387 423.992 99.123 C 416.758 98.858 411.381 98.725 407.864 98.725 C 402.423 98.725 397.644 98.99 393.529 99.521 L 393.828 0.268 C 399.393 0.352 403.477 0.551 408.588 0.551 C 412.105 0.551 416.471 0.534 424.08 0.551 C 431.382 0.566 436.437 0.268 440.019 0.268 C 451.102 0.268 460.163 1.461 467.197 3.844 C 476.222 6.891 483.391 12.255 488.7 19.941 C 495.471 27.557 498.854 37.46 498.854 49.646 C 498.854 58.325 497.063 66.306 493.48 73.59 Z M 494.377 36.934 C 492.052 28.921 487.357 21.851 480.29 15.726 C 473.221 9.6 465.571 5.807 457.343 4.35 L 438.274 3.548 L 396.515 3.653 L 396.515 96.434 C 399.966 96.037 403.882 95.837 408.261 95.837 C 411.978 95.837 417.652 96.037 425.285 96.434 C 432.916 96.833 438.625 97.032 442.408 97.032 C 460.128 97.032 473.203 92.761 481.631 84.218 C 491.389 74.219 496.266 62.794 496.266 49.946 C 496.267 45.576 495.635 41.239 494.377 36.934 Z M 453.061 60.796 C 453.194 61.262 453.261 61.758 453.261 62.291 C 453.261 63.485 452.878 64.564 452.116 65.526 C 451.353 66.488 450.375 67.036 449.18 67.167 C 446.391 66.639 444.666 65.609 444.003 64.083 C 443.936 63.618 443.904 63.187 443.904 62.789 C 443.904 60.465 444.964 58.773 447.089 57.71 C 447.487 57.645 447.886 57.612 448.284 57.612 C 450.274 57.612 451.867 58.673 453.061 60.796 Z M 491.39 51.04 C 490.393 59.138 488.069 66.24 484.421 72.343 C 480.172 79.512 474.53 84.457 467.495 87.177 C 463.578 88.703 460.69 89.732 458.836 90.263 C 455.584 91.193 452.529 91.689 449.677 91.758 L 449.178 90.563 C 464.773 87.841 475.594 82.166 481.633 73.54 C 485.748 67.633 488.404 60.135 489.598 51.041 L 491.39 51.041 Z" style="fill: rgb(20, 20, 20);"/>
    <path d="M 600 45.764 L 545.844 45.764 C 545.246 47.372 544.948 49.249 544.948 51.391 C 544.948 53.535 545.246 55.342 545.844 56.816 L 565.057 56.816 L 565.057 69.259 L 545.844 70.155 L 545.844 79.912 L 599.702 80.31 L 599.702 99.424 L 503.434 99.424 L 503.434 0.268 L 599.702 0.268 L 600 45.764 Z M 596.914 96.535 L 596.914 83.595 L 543.753 83.595 C 542.757 80.011 542.622 74.336 543.355 66.57 L 562.269 66.57 L 562.269 59.902 L 543.06 59.902 C 542.593 58.443 542.294 56.716 542.159 54.725 C 542.024 53.464 541.994 51.638 542.06 49.249 C 542.125 46.595 542.159 44.769 542.159 43.773 L 543.056 42.877 L 596.913 42.877 L 596.913 3.654 L 506.219 3.654 L 506.219 96.535 L 596.914 96.535 Z M 551.916 9.725 L 512.792 10.023 L 512.494 42.478 L 511.101 42.478 L 511.101 7.934 C 520.259 7.803 533.863 7.969 551.917 8.432 L 551.917 9.725 Z" style="fill: rgb(20, 20, 20);"/>
  </g>
</svg>