<?xml version="1.0" encoding="utf-8"?>
<svg version="1.1" xmlns="http://www.w3.org/2000/svg">
  <polygon points="378.807 21.061 378.807 18.417 397.125 18.417 397.125 41.838 384.12 41.838 384.12 46.449 379.646 46.449 379.646 51.62 374.49 51.62 374.49 74.119 378.946 74.119 378.946 78.87 383.84 78.87 383.84 83.901 397.125 83.901 397.125 107.611 378.946 107.611 378.946 104.694 373.352 104.694 373.352 101.96 368.878 101.96 368.878 98.133 364.822 98.133 364.822 93.058 360.068 93.058 360.068 88.06 355.596 88.06 355.596 82.049 351.258 82.049 351.258 43.707 355.596 43.707 355.596 37.925 359.929 37.925 359.929 32.697 364.964 32.697 364.964 27.699 368.878 27.699 368.878 24.092 372.934 24.092 372.934 21.061" style="fill: rgb(255, 255, 255);"/>
  <polygon points="428.499 20.625 428.499 18.305 448.074 18.305 448.074 20.625 453.668 20.625 453.668 23.561 457.866 23.561 457.866 27.757 462.34 27.757 462.34 32.233 466.955 32.233 466.955 37.405 471.71 37.405 471.71 107.554 450.104 107.554 450.104 46.773 445.42 46.773 445.42 42.441 434.095 42.441 434.095 46.494 429.061 46.494 429.061 51.39 423.884 51.39 423.884 74.044 428.777 74.044 428.777 79.076 433.254 79.076 433.254 83.131 445.279 83.131 445.279 107.554 428.499 107.554 428.499 105.646 422.626 105.646 422.626 102.709 418.849 102.709 418.849 98.654 414.376 98.654 414.376 93.9 410.038 93.9 410.038 88.446 405.704 88.446 405.704 82.433 400.949 82.433 400.949 43.838 405.005 43.838 405.005 37.925 409.901 37.925 409.901 32.791 414.376 32.791 414.376 27.617 418.57 27.617 418.57 23.84 422.905 23.84 422.905 20.618" style="fill: rgb(255, 255, 255);"/>
  <polygon points="27.549 20.625 27.549 18.305 47.125 18.305 47.125 20.625 52.719 20.625 52.719 23.561 56.915 23.561 56.915 27.757 61.39 27.757 61.39 32.233 66.006 32.233 66.006 37.406 70.761 37.406 70.761 107.554 49.155 107.554 49.155 46.774 44.47 46.774 44.47 42.441 33.145 42.441 33.145 46.494 28.111 46.494 28.111 51.391 22.933 51.391 22.933 74.043 27.828 74.043 27.828 79.076 32.304 79.076 32.304 83.132 44.329 83.132 44.329 107.554 27.549 107.554 27.549 105.647 21.676 105.647 21.676 102.709 17.9 102.709 17.9 98.654 13.425 98.654 13.425 93.902 9.09 93.902 9.09 88.446 4.755 88.446 4.755 82.434 0 82.434 0 43.838 4.055 43.838 4.055 37.925 8.953 37.925 8.953 32.791 13.425 32.791 13.425 27.617 17.621 27.617 17.621 23.84 21.955 23.84 21.955 20.618" style="fill: rgb(255, 255, 255);"/>
  <polygon points="520.349 41.506 520.349 18.304 503.352 18.304 503.352 20.739 497.985 20.753 497.985 23.615 493.336 23.615 493.336 27.552 488.684 27.552 488.684 32.56 484.569 32.56 484.569 37.57 480.095 37.57 480.095 43.831 475.445 43.831 475.445 82.117 480.275 82.117 480.275 88.2 484.569 88.2 484.569 93.745 489.044 93.745 489.044 98.934 493.515 98.934 493.515 102.87 497.985 102.87 497.985 105.552 504.07 105.552 504.07 107.555 524.462 107.555 524.462 105.732 530.01 105.732 530.01 102.511 533.767 102.511 533.767 98.039 537.884 98.039 537.884 92.851 542.891 92.851 542.891 87.841 547.364 87.841 547.364 0 524.283 0 524.283 79.075 520.349 79.075 520.349 83.191 508.182 83.191 508.182 79.075 504.07 79.075 504.07 73.708 499.238 73.708 499.238 51.347 504.426 51.347 504.426 46.694 508.9 46.694 508.9 41.506" style="fill: rgb(255, 255, 255);"/>
  <polygon points="556.546 43.241 556.546 37.611 560.443 37.611 560.443 32.703 565.063 32.703 565.063 27.649 569.108 27.649 569.108 23.606 573.727 23.606 573.727 20.286 578.924 20.286 578.924 18.304 600 18.304 600 41.942 585.275 41.942 585.275 45.551 580.512 45.551 580.512 48.294 576.178 48.294 576.178 51.471 600 51.471 600 73.559 576.323 73.559 576.323 77.024 580.801 77.024 580.801 79.765 584.986 79.765 584.986 83.232 600 83.232 600 107.555 578.924 107.555 578.924 105.606 574.012 105.606 574.012 102.577 569.536 102.577 569.536 98.534 565.354 98.534 565.354 94.057 560.443 94.057 560.443 88.284 556.546 88.284 556.546 81.931 551.348 81.931 551.348 43.225" style="fill: rgb(255, 255, 255);"/>
  <polygon points="142.447 52.029 142.447 37.683 138.02 37.683 138.02 32.373 133.463 32.373 133.463 27.491 129.348 27.491 129.348 23.709 125.013 23.709 125.013 20.728 119.663 20.728 119.663 18.305 97.525 18.305 97.525 20.728 91.621 20.728 91.621 23.709 87.654 23.709 87.654 27.491 83.504 27.491 83.504 32.373 78.707 32.373 78.707 37.404 74.739 37.404 74.739 60.787 79.166 60.787 79.166 65.352 83.687 65.352 83.687 69.544 114.774 69.544 114.774 74.202 119.386 74.202 119.386 78.768 114.589 78.768 114.589 83.519 102.69 83.519 102.69 78.582 98.447 78.582 98.447 73.923 74.739 73.923 74.739 88.177 79.166 88.177 79.166 93.021 83.779 93.021 83.779 97.867 88.393 97.867 88.393 101.686 92.45 101.686 92.45 104.666 97.985 104.666 97.985 107.555 119.94 107.555 119.94 104.666 124.922 104.666 124.922 101.686 129.348 101.686 129.348 97.867 133.776 97.867 133.776 93.115 138.112 93.115 138.112 88.27 142.447 88.27 142.447 65.912 137.098 65.912 137.098 61.532 132.577 61.532 132.577 56.315 102.597 56.315 102.597 51.657 98.078 51.657 98.078 47.092 102.597 47.092 102.597 42.155 114.497 42.155 114.497 47.465 118.925 47.465 118.925 52.029" style="fill: rgb(255, 255, 255);"/>
  <polygon points="192.156 84.167 192.156 79.237 187.645 79.237 187.645 74.589 183.503 74.589 183.503 42.315 197.219 42.315 197.219 34.038 191.88 34.038 191.88 28.922 186.908 28.922 186.908 25.017 183.503 25.017 183.503 10.415 159.934 10.415 159.934 25.017 156.895 25.017 156.895 28.922 152.292 28.922 152.292 34.038 146.493 34.038 146.493 42.315 159.934 42.315 159.934 82.027 164.537 82.027 164.537 87.606 168.404 87.606 168.404 93.002 172.914 93.002 172.914 98.488 176.874 98.488 176.874 102.58 180.832 102.58 180.832 105.557 186.816 105.557 186.816 107.51 203.481 107.51 203.481 84.167" style="fill: rgb(255, 255, 255);"/>
  <polygon points="255.625 69.154 260.647 69.154 260.647 64.125 264.839 64.125 264.839 58.444 267.354 58.444 267.354 37.489 264.279 37.489 264.279 32.832 260.367 32.832 260.367 27.896 255.802 27.896 255.802 23.984 250.771 23.984 250.771 21.005 245.927 21.005 245.927 18.304 230.929 18.304 230.929 21.005 226.738 21.005 226.738 23.984 222.08 23.984 222.08 27.896 217.05 27.896 217.05 32.832 212.578 32.832 212.578 37.395 207.548 37.395 207.548 107.526 230.464 107.526 230.464 42.145 245.927 42.145 245.927 54.626 241.177 54.626 241.177 57.978 234.003 57.978 234.003 74.649 247.976 107.526 271.638 107.526" style="fill: rgb(255, 255, 255);"/>
  <path d="M 343.428 43.738 L 343.428 37.775 L 338.817 37.775 L 338.817 32.74 L 334.118 32.74 L 334.118 27.709 L 329.968 27.709 L 329.968 24.092 L 325.729 24.092 L 325.729 21.097 L 320.378 21.097 L 320.378 18.304 L 298.164 18.304 L 298.164 21.099 L 292.916 21.099 L 292.916 23.893 L 288.307 23.893 L 288.307 27.713 L 284.529 27.713 L 284.529 32.743 L 279.643 32.743 L 279.643 37.778 L 275.404 37.778 L 275.404 43.741 L 270.887 43.741 L 270.887 43.835 L 270.887 82.026 L 270.887 82.123 L 275.404 82.123 L 275.404 88.084 L 279.643 88.084 L 279.643 93.121 L 284.529 93.121 L 284.529 98.151 L 288.307 98.151 L 288.307 101.971 L 292.916 101.971 L 292.916 104.766 L 298.17 104.766 L 298.17 107.56 L 298.262 107.56 L 320.013 107.56 L 320.383 107.56 L 320.383 104.766 L 325.73 104.766 L 325.73 101.971 L 329.969 101.971 L 329.969 98.151 L 334.122 98.151 L 334.122 93.121 L 338.822 93.121 L 338.822 88.084 L 343.433 88.084 L 343.433 82.053 L 347.579 82.053 L 347.579 81.954 L 347.579 43.831 L 347.579 43.738 L 343.428 43.738 Z M 319.741 73.829 L 319.741 78.865 L 315.132 78.865 L 315.132 83.523 L 303.34 83.523 L 303.34 78.865 L 299.098 78.865 L 299.098 73.829 L 294.121 73.829 L 294.121 52.028 L 299.098 52.028 L 299.098 46.991 L 303.34 46.991 L 303.34 42.34 L 315.132 42.34 L 315.132 46.997 L 319.741 46.997 L 319.741 52.035 L 324.35 52.035 L 324.35 73.829 L 319.741 73.829 Z" style="fill: rgb(255, 255, 255);"/>
</svg>