<?xml version="1.0" encoding="utf-8"?>
<svg id="svg2" enable-background="new 0 0 566.929 104.51" version="1.1" y="0px" x="0px" xmlns="http://www.w3.org/2000/svg" xmlns:bx="https://boxy-svg.com">
  <g>
    <polygon id="polygon12" points="472.341 59.181 416.322 79.494 472.698 79.494 494.145 67.659" style="fill: rgb(255, 255, 255);" bx:origin="-5.35 -2.913"/>
    <polygon id="polygon14" points="420.03 0.552 486.576 0.552 575.19 45.474 540.435 45.474 516.006 34.242 500.937 40.371" style="fill: rgb(255, 255, 255);" bx:origin="-2.707 -0.012"/>
    <polygon id="polygon16" points="543.969 21.132 600 0.828 543.624 0.828 522.189 12.654" style="fill: rgb(255, 255, 255);" bx:origin="-6.711 -0.041"/>
    <polygon id="polygon18" points="596.301 79.761 529.746 79.761 441.129 34.839 475.887 34.839 500.313 46.071 515.382 39.942" style="fill: rgb(255, 255, 255);" bx:origin="-2.843 -0.776"/>
    <rect id="rect20" height="53.904" width="44.112" y="0.009" style="fill: rgb(255, 255, 255);" bx:origin="-0.001 0"/>
    <rect id="rect22" height="16.503" width="113.037" y="60.513" style="fill: rgb(255, 255, 255);" bx:origin="0 -3.667"/>
    <polygon id="polygon24" points="71.679 0.009 124.071 0.009 159.915 30.255 134.007 49.263" style="fill: rgb(255, 255, 255);" bx:origin="-0.813 0"/>
    <polygon id="polygon26" points="137.856 52.257 137.856 77.013 179.211 77.013 179.211 52.257 259.161 0.009 220.566 0.009 140.616 52.257" style="fill: rgb(255, 255, 255);" bx:origin="-1.137 0"/>
    <polygon id="polygon28" points="264.684 8.253 308.79 35.757 308.79 77.013 264.684 77.013" style="fill: rgb(255, 255, 255);" bx:origin="-6.002 -0.12"/>
    <polygon id="polygon30" points="270.195 0.009 383.238 77.013 408.048 77.013 408.048 0 386.544 0 386.544 54.159 306.039 0.009" style="fill: rgb(255, 255, 255);" bx:origin="-1.96 0"/>
  </g>
</svg>