<?xml version="1.0" encoding="utf-8"?>
<svg version="1.1" xmlns="http://www.w3.org/2000/svg" xmlns:bx="https://boxy-svg.com">
  <g>
    <path id="path10" d="M 111.183 3.787 C 114.571 -0.549 121.584 -1.287 125.74 2.347 C 127.44 3.778 128.63 5.754 129.24 7.88 C 136.934 34.356 144.664 60.822 152.349 87.303 C 147.807 87.307 143.264 87.296 138.723 87.307 C 136.581 80.007 134.489 72.694 132.375 65.385 C 123.594 65.365 114.815 65.381 106.035 65.376 C 103.884 72.681 101.763 79.99 99.651 87.308 C 95.134 87.293 90.618 87.304 86.1 87.299 C 93.411 62.043 100.73 36.783 108.076 11.535 C 108.936 8.896 109.266 5.943 111.173 3.787 M 119.186 20.01 C 115.967 30.979 112.812 41.97 109.61 52.945 C 115.993 52.974 122.373 52.956 128.752 52.956 C 125.556 41.974 122.382 30.993 119.185 20.01 Z" style="fill: rgb(255, 255, 255);" bx:origin="-1.3 0"/>
    <path id="path12" d="M 206.844 4.357 C 209.21 0.925 213.786 -0.743 217.814 0.316 C 221.501 1.166 224.323 4.344 225.296 7.92 C 232.984 34.379 240.697 60.828 248.384 87.285 C 243.838 87.322 239.291 87.285 234.744 87.305 C 232.63 79.998 230.538 72.683 228.409 65.376 C 219.642 65.381 210.876 65.361 202.11 65.383 C 200.015 72.696 197.856 79.99 195.758 87.301 C 191.246 87.305 186.735 87.298 182.223 87.305 C 189.529 61.909 196.922 36.534 204.288 11.157 C 205.06 8.863 205.357 6.337 206.845 4.357 M 205.743 52.956 C 212.098 52.965 218.451 52.96 224.807 52.96 C 221.646 41.956 218.434 30.964 215.279 19.961 C 212.094 30.961 208.886 41.951 205.734 52.956 Z" style="fill: rgb(255, 255, 255);" bx:origin="-2.755 0"/>
    <path id="path14" d="M 142.177 0.184 L 191.459 0.184 L 191.459 13.476 C 185.412 13.48 179.364 13.469 173.318 13.48 C 173.318 38.087 173.323 62.697 173.315 87.303 L 160.318 87.303 C 160.318 62.697 160.314 38.088 160.322 13.48 C 154.272 13.469 148.226 13.48 142.177 13.476 L 142.177 0.184 Z" style="fill: rgb(255, 255, 255);" bx:origin="-2.885 -0.002"/>
    <path id="path16" d="M 262.825 0.724 C 264.074 0.293 265.407 0.147 266.724 0.179 C 271.903 0.197 277.082 0.182 282.263 0.185 C 290.986 0.345 299.313 5.758 303.088 13.609 C 305.702 18.708 305.971 24.637 305.312 30.229 C 304.859 36.085 302.402 41.94 297.902 45.82 C 295.523 47.941 292.562 49.224 290.018 51.109 C 288.62 52.175 288.552 54.242 289.273 55.721 C 296.148 66.334 303.296 76.779 310.314 87.304 C 305.18 87.313 300.048 87.291 294.914 87.313 C 288.194 77.219 281.544 67.075 274.852 56.968 C 272.884 54.092 272.349 50.282 273.528 46.998 C 274.447 44.48 276.648 42.636 279.099 41.687 C 283.779 39.902 288.392 37.095 290.983 32.679 C 292.954 29.362 292.854 25.267 291.967 21.634 C 290.927 16.92 286.333 13.209 281.48 13.373 C 278.122 13.396 274.767 13.355 271.415 13.389 C 269.897 13.353 268.47 14.673 268.488 16.211 C 268.473 39.91 268.497 63.611 268.482 87.308 C 264.117 87.302 259.756 87.308 255.39 87.304 C 255.382 61.792 255.398 36.275 255.382 10.763 C 255.393 6.29 258.578 2.083 262.811 0.724 Z" style="fill: rgb(255, 255, 255);" bx:origin="-4.649 -0.002"/>
    <path id="path18" d="M 317.186 0.184 L 330.962 0.184 C 330.957 29.226 330.968 58.262 330.953 87.305 C 326.366 87.294 321.776 87.305 317.186 87.301 L 317.186 0.184 Z" style="fill: rgb(255, 255, 255);" bx:origin="-23.026 -0.002"/>
    <path id="path22" d="M 556.355 87.301 C 532.287 87.301 512.703 67.719 512.703 43.65 C 512.692 19.58 532.278 0 556.35 0 C 580.421 0 600 19.581 600 43.651 C 600 67.719 580.425 87.301 556.353 87.301 Z M 556.355 3.205 C 534.053 3.205 515.909 21.349 515.909 43.65 C 515.909 65.952 534.053 84.095 556.355 84.095 C 578.655 84.095 596.798 65.952 596.798 43.65 C 596.787 21.35 578.645 3.205 556.347 3.205 Z M 556.355 73.387 C 539.962 73.387 526.621 60.048 526.621 43.654 C 526.621 27.259 539.962 13.921 556.355 13.921 C 572.748 13.921 586.087 27.259 586.087 43.654 C 586.087 60.048 572.75 73.387 556.36 73.387 Z M 556.355 17.128 C 541.727 17.128 529.827 29.029 529.827 43.654 C 529.827 58.282 541.727 70.182 556.355 70.182 C 570.981 70.182 582.881 58.282 582.881 43.654 C 582.87 29.028 570.977 17.128 556.35 17.128 Z" style="fill: rgb(255, 255, 255);" bx:origin="-5.873 0"/>
    <path id="path26" d="M 466.999 87.301 C 442.931 87.301 423.347 67.719 423.347 43.65 C 423.336 19.58 442.922 0 466.994 0 C 491.064 0 510.644 19.581 510.644 43.651 C 510.644 67.719 491.069 87.301 466.996 87.301 Z M 466.999 3.205 C 444.699 3.205 426.553 21.349 426.553 43.65 C 426.553 65.952 444.699 84.095 466.999 84.095 C 489.299 84.095 507.442 65.952 507.442 43.65 C 507.442 21.35 489.3 3.205 467.002 3.205 Z M 466.999 73.387 C 450.603 73.387 437.264 60.048 437.264 43.654 C 437.264 27.259 450.603 13.921 466.999 13.921 C 483.392 13.921 496.731 27.259 496.731 43.654 C 496.72 60.048 483.383 73.387 466.993 73.387 Z M 466.999 17.128 C 452.371 17.128 440.471 29.029 440.471 43.654 C 440.471 58.282 452.371 70.182 466.999 70.182 C 481.626 70.182 493.524 58.282 493.524 43.654 C 493.513 29.028 481.621 17.128 466.994 17.128 Z" style="fill: rgb(255, 255, 255);" bx:origin="-4.85 0"/>
    <path id="path30" d="M 392.203 87.301 C 375.344 87.301 361.632 73.588 361.632 56.727 C 361.632 46.611 366.743 37.062 375.075 31.403 C 372.946 28.118 371.832 24.338 371.832 20.371 C 371.832 9.14 380.969 0 392.201 0 C 403.432 0 412.574 9.14 412.574 20.37 C 412.574 24.337 411.454 28.115 409.326 31.402 C 417.662 37.061 422.771 46.608 422.771 56.726 C 422.782 73.588 409.071 87.301 392.207 87.301 Z M 392.203 3.205 C 382.737 3.205 375.035 10.905 375.035 20.371 C 375.035 24.206 376.277 27.836 378.623 30.869 L 379.732 32.298 L 378.178 33.225 C 369.948 38.149 364.837 47.154 364.837 56.727 C 364.837 71.816 377.115 84.095 392.203 84.095 C 407.293 84.095 419.571 71.816 419.571 56.727 C 419.571 47.151 414.457 38.147 406.228 33.225 L 404.679 32.298 L 405.783 30.869 C 408.132 27.836 409.372 24.206 409.372 20.371 C 409.361 10.906 401.656 3.205 392.188 3.205 Z M 392.203 74.612 C 382.343 74.612 374.319 66.593 374.319 56.729 C 374.319 46.869 382.34 38.845 392.203 38.845 C 402.062 38.845 410.086 46.867 410.086 56.729 C 410.086 66.593 402.073 74.612 392.208 74.612 Z M 392.203 42.05 C 384.108 42.05 377.526 48.637 377.526 56.73 C 377.526 64.824 384.111 71.409 392.203 71.409 C 400.297 71.409 406.88 64.823 406.88 56.73 C 406.88 48.637 400.289 42.05 392.198 42.05 Z M 392.203 29.362 C 387.247 29.362 383.217 25.33 383.217 20.374 C 383.217 15.42 387.247 11.39 392.203 11.39 C 397.158 11.39 401.188 15.42 401.188 20.374 C 401.188 25.33 397.165 29.362 392.205 29.362 Z M 392.203 14.593 C 389.014 14.593 386.423 17.188 386.423 20.373 C 386.423 23.563 389.015 26.155 392.203 26.155 C 395.394 26.155 397.985 23.561 397.985 20.373 C 397.985 17.187 395.384 14.593 392.198 14.593 Z" style="fill: rgb(255, 255, 255);" bx:origin="-5.915 0"/>
    <path id="path36" d="M 25.3 16.516 C 26.736 16.511 28.172 16.516 29.611 16.513 C 29.616 19.89 29.611 23.271 29.613 26.648 C 29.627 29.469 29.548 32.287 29.431 35.105 C 29.238 39.173 28.984 43.25 28.31 47.27 C 27.847 50.044 26.887 52.719 25.699 55.257 C 23.758 59.347 20.708 62.809 17.279 65.719 C 14.213 68.419 10.551 70.384 6.701 71.713 C 4.523 72.465 2.282 73.041 0 73.364 C 0.002 70.529 0.002 67.696 0 64.863 C 2.747 64.45 5.389 63.474 7.841 62.184 C 10.752 60.646 13.372 58.577 15.578 56.136 C 17.856 53.617 19.67 50.699 21.048 47.602 C 22.67 44.042 23.539 40.194 24.128 36.343 C 24.869 31.447 25.177 26.492 25.291 21.546 C 25.31 19.871 25.296 18.193 25.3 16.516 Z" style="fill: rgb(255, 255, 255);" bx:origin="-0.001 -0.29"/>
    <path id="path38" d="M 31.345 16.521 C 33.989 16.503 36.634 16.519 39.281 16.514 C 39.282 35.464 39.282 54.415 39.281 73.362 C 36.641 73.369 34.002 73.351 31.363 73.375 C 31.33 67.333 31.359 61.287 31.349 55.247 C 31.346 42.339 31.355 29.43 31.345 16.521 Z" style="fill: rgb(255, 255, 255);" bx:origin="-3.952 -0.29"/>
    <path id="path40" d="M 41.046 16.514 C 42.476 16.513 43.904 16.51 45.332 16.516 C 45.285 22.292 45.483 28.083 46.17 33.821 C 46.735 38.28 47.53 42.772 49.305 46.925 C 50.988 50.944 53.415 54.68 56.578 57.692 C 59.598 60.572 63.257 62.785 67.233 64.059 C 68.343 64.412 69.477 64.69 70.631 64.861 C 70.63 67.693 70.629 70.525 70.631 73.358 C 68.365 73.05 66.143 72.464 63.98 71.73 C 61.405 70.834 58.914 69.674 56.626 68.184 C 54.956 67.111 53.437 65.824 51.979 64.486 C 49.574 62.266 47.423 59.748 45.806 56.893 C 44.541 54.669 43.619 52.269 42.896 49.821 C 42.233 47.361 41.951 44.814 41.694 42.285 C 41.197 36.816 41.011 31.322 41.046 25.831 C 41.046 22.726 41.045 19.622 41.046 16.514 Z" style="fill: rgb(255, 255, 255);" bx:origin="-1.388 -0.29"/>
    <path id="path42" d="M 31.345 16.521 C 31.353 29.43 31.346 42.339 31.349 55.246 C 31.358 61.286 31.329 67.332 31.363 73.374 C 34.002 73.351 36.642 73.368 39.281 73.361 C 39.282 54.415 39.282 35.464 39.281 16.513 C 36.635 16.519 33.99 16.504 31.345 16.521" style="fill: rgb(255, 255, 255);" bx:origin="-3.952 -0.29"/>
    <path id="path44" d="M 41.046 16.514 C 41.045 19.62 41.046 22.726 41.046 25.831 C 41.011 31.319 41.197 36.816 41.694 42.285 C 41.951 44.814 42.233 47.361 42.896 49.821 C 43.618 52.269 44.541 54.669 45.806 56.893 C 47.423 59.748 49.574 62.266 51.979 64.486 C 53.438 65.827 54.956 67.112 56.626 68.184 C 58.914 69.674 61.405 70.831 63.98 71.73 C 66.143 72.464 68.365 73.047 70.631 73.358 C 70.629 70.525 70.63 67.693 70.631 64.861 C 69.478 64.693 68.343 64.413 67.233 64.059 C 63.257 62.785 59.598 60.572 56.578 57.692 C 53.415 54.683 50.988 50.945 49.305 46.925 C 47.53 42.772 46.735 38.28 46.17 33.821 C 45.482 28.083 45.285 22.292 45.332 16.516 C 43.903 16.511 42.475 16.513 41.046 16.514" style="fill: rgb(255, 255, 255);" bx:origin="-1.388 -0.29"/>
  </g>
</svg>