<?xml version="1.0" encoding="utf-8"?>
<svg version="1.1" xmlns="http://www.w3.org/2000/svg">
  <g>
    <path d="M 48.963 81.496 C 63.198 59.947 62.877 14.077 62.877 2.776 L 73.359 2.776 C 73.317 7.126 75.645 50.854 68.262 78.391 C 60.879 105.928 33.318 136.819 0 136.819 L 0 117.28 C 9.798 117.28 34.734 103.045 48.963 81.496 Z" id="path13" style="fill: rgb(255, 255, 255);"/>
    <rect width="18.786" height="134.319" x="76.272" y="2.776" id="rect2854" style="fill: rgb(255, 255, 255);"/>
    <path d="M 122.361 81.496 C 108.126 59.947 108.447 14.077 108.447 2.776 L 97.965 2.776 C 98.007 7.126 95.679 50.854 103.062 78.391 C 110.445 105.928 138.006 136.819 171.324 136.819 L 171.324 117.28 C 161.526 117.28 136.59 103.045 122.361 81.496 Z" id="path2858" style="fill: rgb(255, 255, 255);"/>
    <rect width="21.582" height="135.654" x="578.418" y="3.54" id="rect3" style="fill: rgb(255, 255, 255);"/>
    <path d="M 237.669 0.106 C 230.871 0.106 225.069 4.318 222.825 10.339 L 222.825 10.45 L 184.368 139.201 L 207.417 139.201 L 216.303 104.23 L 259.143 104.23 L 268.476 139.201 L 292.089 139.201 L 252.621 10.339 L 252.51 10.339 C 250.239 4.348 244.467 0.106 237.669 0.106 Z M 237.441 29.68 L 252.285 86.128 L 222.936 86.128 L 237.441 29.68 Z" id="path5" style="fill: rgb(255, 255, 255);"/>
    <path d="M 279.609 3.031 L 279.609 21.244 L 313.116 21.244 L 313.116 139.201 L 334.704 139.201 L 334.704 21.244 L 368.325 21.244 L 368.325 3.031 L 279.609 3.031 Z" id="path7" style="fill: rgb(255, 255, 255);"/>
    <path d="M 533.49 89.944 C 532.86 88.87 532.479 87.574 532.479 86.137 C 532.479 84.838 532.809 83.662 533.319 82.651 C 534.12 81.391 535.551 80.677 536.505 80.071 C 547.743 73.24 555.723 58.879 555.723 42.247 C 555.723 19.942 541.683 1.666 524.274 0.256 C 522.105 -0.029 517.212 0.001 517.212 0.001 L 492.645 0.001 L 492.66 0.001 C 484.14 0.001 477.21 9.226 477.21 20.593 L 477.243 20.626 L 477.243 139.183 L 498.219 139.183 L 498.219 29.089 L 498.21 29.089 C 498.21 25.639 500.31 22.825 502.893 22.825 L 517.047 22.825 C 518.331 22.825 522.174 22.921 522.936 23.065 L 522.936 23.077 C 529.194 23.761 534.276 29.704 535.752 37.57 C 535.833 37.891 535.89 38.209 535.932 38.533 C 535.932 38.563 535.932 38.596 535.932 38.605 C 536.016 39.088 536.055 39.544 536.097 40.012 C 536.175 40.744 536.187 41.488 536.187 42.244 C 536.187 49.486 533.193 55.822 528.765 59.11 C 527.865 59.821 526.938 60.439 525.954 60.973 C 525.261 61.393 524.454 61.783 523.608 62.161 C 517.95 64.822 515.523 66.4 513.159 69.427 C 510.51 73.126 508.836 78.121 508.791 83.641 C 508.749 88.831 510.102 93.571 512.409 97.243 L 539.055 139.201 L 564.012 139.201 L 533.49 89.941" id="path9" style="fill: rgb(255, 255, 255);"/>
    <path d="M 412.086 0.106 C 405.291 0.106 399.489 4.318 397.245 10.339 L 397.245 10.45 L 358.791 139.201 L 381.84 139.201 L 390.723 104.23 L 433.563 104.23 L 442.899 139.201 L 466.509 139.201 L 427.044 10.339 L 426.93 10.339 C 424.662 4.348 418.89 0.106 412.086 0.106 Z M 411.864 29.68 L 426.705 86.128 L 397.359 86.128 L 411.864 29.68 Z" id="path2852" style="fill: rgb(255, 255, 255);"/>
  </g>
</svg>