<?xml version="1.0" encoding="utf-8"?>
<svg version="1.1" xmlns="http://www.w3.org/2000/svg">
  <g>
    <path id="path5" d="M 93.88 94.647 C 96.745 86.099 99.307 77.449 101.981 68.835 C 102.641 66.711 103.259 64.576 103.897 62.444 C 103.978 61.983 106.33 53.758 107.225 50.059 C 108.298 45.634 109.45 41.192 109.986 36.688 C 110.317 33.897 111.545 32.456 113.955 31.714 C 115.361 31.281 116.137 30.563 117.594 30.457 C 118.79 30.369 119.622 30.069 120.174 28.97 C 120.642 28.039 121.85 27.462 122.475 26.634 C 122.939 26.019 123.527 25.289 124.202 25.084 C 126.133 24.501 128.193 24.315 130.103 23.683 C 132.512 22.885 135.298 22.31 137.05 20.695 C 138.844 19.041 140.51 18.142 142.824 17.966 C 144.968 17.801 146.832 16.972 147.524 14.727 C 147.953 13.335 149.017 12.709 150.093 12.017 C 151.078 11.817 151.624 11.423 151.745 10.242 C 151.865 9.061 147.43 9.72 147.138 9.424 C 145.774 8.037 145.905 7.762 147.701 7.083 C 148.872 6.642 150.155 6.502 151.387 6.227 C 152.135 6.048 152.884 5.869 153.629 5.691 C 155.401 5.46 157.169 5.21 158.943 5.003 C 162.016 4.639 165.096 4.328 168.162 3.932 C 168.88 3.839 169.65 3.619 170.24 3.224 C 170.784 2.86 171.529 1.583 171.548 0.958 C 171.567 0.335 170.336 -0.018 169.746 0.001 C 167.294 0.083 164.832 0.254 162.403 0.598 C 158.624 1.136 154.859 1.795 151.104 2.487 C 147.972 3.065 144.862 3.763 141.743 4.406 C 141.305 4.458 135.678 5.769 135.276 5.884 C 134.069 6.172 132.864 6.458 131.657 6.743 L 131.39 6.781 C 130.21 6.991 129.03 7.2 127.85 7.408 C 124.19 8.168 120.535 8.962 116.866 9.674 C 114.877 10.059 112.841 10.554 110.862 10.977 C 108.04 11.58 105.271 12.108 102.441 12.662 C 96.177 13.889 89.892 14.991 83.615 16.144 C 83.012 16.166 61.326 20.016 49.789 20.355 C 47.114 20.434 44.429 20.387 41.746 20.365 C 40.819 20.358 40.077 20.513 39.781 21.579 C 39.401 22.945 39.713 23.391 41.3 24.021 C 42.013 24.305 42.602 24.906 43.247 25.364 C 42.504 25.863 41.811 26.48 41.001 26.816 C 40.447 27.048 39.723 26.836 39.091 26.927 C 38.584 26.999 38.013 27.117 37.623 27.414 C 35.925 28.706 36.445 30.232 38.929 31.365 C 42.227 32.871 42.422 33.576 40.366 36.555 C 39.97 36.827 39.175 37.081 39.176 37.371 C 39.177 37.659 39.886 38.049 40.304 38.168 C 40.659 38.269 41.106 38.049 41.512 37.969 C 42.053 38.567 42.781 39.084 43.094 39.784 C 43.759 41.269 44.725 41.859 46.361 41.731 C 50.931 41.375 55.549 41.409 60.071 40.754 C 64.798 40.069 69.386 38.57 74.197 38.145 C 78.123 37.798 82.013 37.033 85.922 36.456 C 86.976 36.301 87.585 36.704 87.548 37.829 C 87.499 39.326 87.635 40.918 87.367 42.315 C 87.1 43.71 86.28 48.35 85.537 51.621 C 84.553 55.955 83.123 60.839 83.095 61.094 C 82.661 62.589 82.23 64.081 81.797 65.576 C 80.338 70.136 76.902 81.534 76.624 82.667 C 75.344 87.874 69.796 101.234 68.993 102.963 C 67.148 106.939 65.292 110.937 63.059 114.7 C 60.857 118.41 58.188 121.844 55.714 125.392 C 53.812 128.121 48.975 132.895 48.912 132.966 C 41.699 141.194 33.512 142.946 33.324 143.01 C 27.959 144.867 22.838 144.824 17.579 142.163 C 15.21 140.964 12.69 139.908 10.633 138.288 C 8.432 136.556 6.046 134.324 4.025 132.52 C 3.419 131.98 2.989 131.204 2.156 130.767 C 0.924 130.124 0.068 130.68 0.006 132.103 C -0.02 132.722 0.026 133.452 0.33 133.962 C 2.644 137.849 5.22 141.588 9.11 144.042 C 12.887 146.424 18.587 149.143 22.377 150.666 C 26.166 152.188 29.19 153.214 32.117 153.811 C 35.043 154.407 39.99 155.243 44.122 154.017 C 48.255 152.796 52.835 150.908 59.219 145.7 C 65.603 140.489 78.413 125.865 83.348 116.778 C 85.471 112.871 87.385 108.849 89.308 104.838 C 90.907 101.491 92.691 98.17 93.87 94.657 Z" style="fill: rgb(255, 255, 255);"/>
    <polygon id="polygon7" points="284.249 104.898 284.249 104.907 284.239 104.917" style="fill: rgb(255, 255, 255);"/>
    <path id="path9" d="M 173.981 28.063 L 172.032 27.571 L 171.958 27.551 C 171.828 25.756 171.751 23.954 171.546 22.167 C 171.435 21.198 171.794 19.878 170.206 19.656 L 170.192 19.674 C 169.182 18.835 166.996 19.509 166.996 19.509 C 166.996 19.509 164.799 19.917 164.353 21.07 C 162.988 21.247 161.625 21.558 160.259 21.573 C 155.634 21.626 155.648 21.591 153.953 25.867 C 153.737 26.412 153.289 26.863 152.949 27.359 C 152.563 26.915 151.934 26.516 151.837 26.015 C 151.514 24.344 150.439 24.019 149.012 24.14 C 147.604 24.261 147.587 25.298 147.292 26.398 C 146.58 29.057 145.877 31.848 143.524 33.614 C 140.685 35.747 139.552 38.78 138.62 41.983 C 137.916 44.406 137.659 47.044 135.31 48.692 C 134.98 48.924 134.668 50.505 134.772 50.712 C 132.771 53.385 126.628 62.464 125.731 64.263 C 124.748 66.233 123.568 68.201 123.112 70.307 C 122.737 72.043 122.247 73.514 121.022 74.754 C 118.641 76.057 119.213 78.389 119.038 80.459 C 118.637 81.101 118.236 81.749 117.836 82.393 C 117.537 82.819 117.239 83.248 116.939 83.676 C 116.789 83.837 116.639 84.002 116.487 84.162 C 116.083 84.632 116.025 85.223 115.272 85.574 C 114.52 85.924 111.88 86.877 110.137 87.371 C 107.491 88.117 106.921 88.479 107.006 89.904 C 107.123 91.848 108.576 91.911 110.017 92.001 C 111.222 92.076 111.473 92.817 111.024 93.782 C 109.627 96.775 108.254 99.788 106.724 102.713 C 103.117 109.612 95.574 123.93 95.479 124.226 C 94.79 125.967 94.101 127.71 93.413 129.453 L 93.397 130.123 C 93.123 130.5 92.847 130.879 92.572 131.256 C 92.418 131.507 92.263 131.76 92.108 132.011 C 92.063 132.225 92.017 132.437 91.972 132.65 C 91.211 134.047 90.083 135.37 89.785 136.861 C 89.454 138.516 88.848 139.937 87.792 141.105 C 85.559 143.579 86.371 146.274 86.989 148.974 C 87.189 149.847 87.953 149.94 88.424 149.375 C 89.228 148.416 89.915 147.326 90.48 146.206 C 91.094 144.986 91.448 143.633 92.061 142.411 C 92.24 142.053 92.954 141.728 93.353 141.794 C 93.638 141.844 94.076 142.651 93.979 142.988 C 93.637 144.189 93.058 145.321 92.659 146.509 C 92.557 146.81 92.602 147.501 92.868 147.59 C 93.135 147.677 93.765 147.392 93.889 147.138 C 94.676 145.509 95.34 143.823 96.101 142.181 C 97.439 139.3 98.801 136.429 100.204 133.578 C 100.35 133.282 100.911 132.92 101.142 132.997 C 101.438 133.096 101.658 133.59 101.795 133.953 C 101.901 134.235 101.881 134.592 101.83 134.901 C 101.28 138.221 100.708 141.534 100.16 144.85 C 100.13 145.029 100.251 145.393 100.312 145.396 C 100.596 145.407 101.042 145.414 101.139 145.248 C 101.443 144.731 101.628 144.139 101.84 143.568 C 102.791 141.008 102.99 138.076 105.614 136.353 C 106.083 136.045 106.52 135.284 106.517 134.737 C 106.506 132.35 112.067 120.453 112.729 119.181 L 112.743 119.166 C 113.266 117.852 119.529 104.982 120.759 101.683 C 120.911 101.275 122.907 96.901 123.044 96.723 C 123.925 94.796 124.807 92.867 125.688 90.941 C 127.02 90.287 128.31 89.531 129.687 88.995 C 136.71 86.268 153.196 79.498 154.017 79.696 C 154.026 79.904 154.033 81.487 154.041 81.697 C 154.056 82.129 154.072 82.56 154.088 82.993 C 154.076 85.968 154.009 88.943 154.07 91.917 C 154.119 94.264 154.715 101.908 154.538 103.352 C 154.26 105.62 154.169 107.741 155.192 109.931 C 156.143 111.964 156.547 114.219 155.91 116.505 L 155.865 116.572 C 155.853 117.439 155.839 118.312 155.826 119.183 L 155.826 119.188 C 155.982 120.768 155.97 122.341 157.254 123.629 C 158.134 124.514 158.807 124.797 159.543 123.694 C 160.073 122.902 160.387 123.024 160.952 123.653 C 162.385 125.256 163.182 126.978 162.773 129.218 C 162.64 129.948 162.972 130.841 163.314 131.553 C 163.504 131.947 163.824 132.674 164.594 132.397 C 165.364 132.119 165.291 131.383 165.354 130.844 C 165.477 129.788 165.316 128.7 165.421 127.642 C 165.514 126.712 165.704 125.76 166.062 124.905 C 166.27 124.407 166.844 123.952 167.359 123.755 C 167.544 123.685 168.11 124.374 168.378 124.794 C 168.713 125.329 168.818 126.026 169.202 126.509 C 170.124 127.673 171.402 127.46 171.825 126.05 C 172.097 125.146 172.216 124.157 172.191 123.212 C 172.084 119.256 171.738 115.298 171.778 111.345 C 171.858 103.42 172.142 95.494 172.327 87.57 C 172.508 79.75 172.636 71.93 172.856 64.111 C 172.922 61.769 173.361 59.434 173.382 57.094 C 173.452 49.477 174.136 41.924 175.342 34.406 C 175.702 32.171 175.313 30.049 174.11 28.104 L 173.993 28.089 Z M 150.836 70.051 C 149.55 70.576 148.179 70.895 146.891 71.418 C 146.35 71.637 145.127 72.501 145.127 72.501 C 145.127 72.501 144.614 73.109 144.465 73.308 C 143.539 73.752 142.61 74.567 141.686 74.565 C 139.37 74.556 137.8 75.544 136.62 77.393 C 136.332 77.845 136.125 78.381 135.746 78.735 C 135.48 78.984 134.94 79.158 134.61 79.065 C 134.314 78.979 133.92 78.459 133.948 78.166 C 134.036 77.228 134.137 76.237 134.521 75.396 C 136.078 72.001 137.65 68.607 139.387 65.303 C 142.123 60.098 144.996 54.965 147.811 49.802 C 148.275 48.952 148.617 48.048 149.97 48.415 C 150.428 48.539 151.09 48.104 151.591 47.81 C 152.073 47.525 152.464 47.092 152.895 46.726 C 153.003 47.348 153.201 47.97 153.204 48.594 C 153.225 54.5 153.148 60.408 153.246 66.312 C 153.288 68.229 152.484 69.382 150.844 70.051 Z" style="fill: rgb(255, 255, 255);"/>
    <path id="path11" d="M 296.219 22.969 C 295.575 22.726 294.93 22.479 294.288 22.235 C 294.286 22.077 294.235 21.939 294.136 21.826 C 294.107 21.795 296.064 19.427 294.952 18.276 C 294.652 18.042 292.982 17.465 292.682 17.232 C 292.531 16.296 292.356 15.364 292.235 14.425 C 292.035 12.912 291.112 12.537 289.761 12.789 C 289.324 13.099 288.888 13.408 288.45 13.718 L 288.258 13.715 L 286.217 13.554 C 284.748 13.991 285.335 14.771 283.868 15.208 C 283.533 15.453 283.2 15.697 282.865 15.941 C 281.861 16.793 281.155 17.278 279.926 18.981 C 278.697 20.684 277.284 23.462 276.427 25.007 C 275.571 26.549 272.053 35.712 271.995 35.826 C 271.713 36.084 265.833 49.092 263.892 53.451 C 262.381 56.843 260.394 60.911 258.917 64.998 C 257.441 69.086 256.022 75.32 255.689 75.705 C 255.578 75.988 255.467 76.271 255.356 76.554 L 254.918 77.855 C 254.859 78.281 254.803 78.709 254.745 79.136 C 254.327 81.48 253.697 84.684 253.249 86.114 C 252.8 87.544 251.836 89.157 251.291 90.746 C 250.845 93.778 250.327 96.802 249.98 99.846 C 249.714 102.178 249.666 104.534 249.521 106.88 C 249.613 107.729 249.705 108.576 249.798 109.429 C 250.227 110.945 250.325 111.665 251.083 113.979 C 251.842 116.291 255.038 118.46 255.038 118.46 C 258.813 120.579 265.174 120.573 268.039 118.609 C 270.905 116.645 272.873 115.331 274.108 114.247 C 275.343 113.165 281.586 108.208 284.542 104.912 C 287.496 101.615 288.608 100.032 289.482 99.159 C 289.923 100.681 289.494 102.003 288.548 103.207 C 288.347 103.785 288.144 104.363 287.941 104.941 C 287.783 107.571 287.501 110.199 287.493 112.828 C 287.48 116.365 288.894 123.781 292.583 124.424 C 296.272 125.065 296.879 125.088 299.055 123.982 C 300.747 123.122 302.681 122.679 304.552 122.252 C 305.904 121.945 306.363 122.593 305.77 123.882 C 305.098 125.338 304.321 126.752 303.508 128.138 C 300.267 133.677 297.049 139.228 293.741 144.731 C 292.424 146.92 293.173 147.22 294.955 147.245 C 295.274 147.251 294.634 149.032 294.686 149.624 C 294.856 151.511 295.777 152.078 297.342 150.986 C 298.258 150.345 298.954 149.327 299.602 148.378 C 300.257 147.417 300.674 146.293 301.327 145.329 C 301.448 145.147 302.434 145.22 302.6 145.465 C 303.012 146.06 302.378 147.496 303.756 147.244 C 304.408 147.127 304.929 146.183 305.469 145.582 C 305.825 145.182 306.083 144.701 306.426 144.289 C 307 143.593 307.544 143.335 308.137 144.341 C 308.742 145.374 309.632 145.147 310.26 144.441 C 311.253 143.325 312.256 142.167 312.963 140.867 C 314.841 137.393 316.608 133.855 318.332 130.3 C 318.957 129.012 319.633 128.051 321.232 128.469 C 322.574 128.821 323.152 128.198 323.58 126.992 C 324.186 125.277 324.854 123.563 325.723 121.973 C 328.591 116.731 331.566 111.549 334.489 106.339 C 336.838 102.15 339.169 97.947 341.503 93.751 C 342.76 91.49 343.742 89.044 345.26 86.936 C 347.253 84.17 351.099 83.592 352.294 83.718 C 353.489 83.842 354.766 83.121 355.315 82.564 C 355.865 82.009 355.997 82.082 356.776 81.579 C 357.556 81.076 358.057 80.66 358.431 80.388 C 358.802 80.117 364.526 77.855 365.731 76.678 C 368.052 74.408 371.641 73.088 374.845 72.834 C 375.148 74.309 375.227 75.908 375.242 77.412 C 375.272 80.788 375.202 84.168 375.176 87.544 C 375.154 87.987 375.13 88.431 375.107 88.874 C 374.233 91.043 375.165 93.004 375.734 95.039 C 376.005 96.002 376.284 97.225 375.927 98.057 C 374.745 100.784 375.303 103.556 375.361 106.31 C 375.383 107.401 375.809 108.513 377.279 108.365 C 378.492 108.244 378.678 108.883 378.759 109.887 C 378.917 111.805 379.209 113.712 379.449 115.622 C 379.675 117.422 379.857 119.231 380.158 121.019 C 380.318 121.967 380.709 122.713 381.822 123.14 C 383.63 123.834 383.685 124.129 382.792 125.943 C 382.289 126.97 381.766 127.873 382.802 128.823 C 384.52 130.394 384.592 132.096 383.3 133.967 C 382.525 135.092 382.661 136.018 384.135 136.347 C 385.382 136.628 385.462 137.649 385.593 138.567 C 385.701 139.295 385.557 140.056 385.502 140.802 C 385.434 141.809 385.764 142.503 386.884 142.525 C 387.863 142.548 388.12 141.919 388.163 141.056 C 388.398 136.358 388.588 131.661 388.934 126.975 C 389.079 124.974 389.927 120.239 389.955 119.854 C 390.154 117.894 390.745 113.068 390.846 112.615 C 391.043 107.468 391.509 94.303 391.799 89.461 C 392.092 84.62 393.623 61.913 393.725 58.498 C 393.61 58.277 396.56 36.921 397.553 32.076 C 398.547 27.23 398.486 22.867 398.365 22.367 C 398.246 21.869 396.13 21.288 394.953 21.094 C 392.588 20.707 390.185 20.564 387.796 20.321 C 386.24 20.128 386.558 18.223 386.428 17.887 C 386.3 17.551 381.238 16.102 380.224 16.631 C 379.212 17.159 378.969 22.045 378.724 24.303 C 378.093 25.384 377.467 26.466 376.838 27.546 C 376.374 27.967 375.911 28.392 375.446 28.814 C 375.263 29.004 375.073 29.192 374.89 29.381 C 373.642 30.163 372.398 30.945 371.151 31.726 C 369.373 33.625 367.595 35.522 365.812 37.421 C 365.695 37.549 364.784 38.692 364.524 39.037 C 363.557 40.371 361.283 43.265 361.262 43.494 C 360.906 43.984 360.547 44.473 360.189 44.96 C 360.189 44.96 359.387 45.27 359.265 45.491 C 357.74 48.269 356.251 51.07 354.755 53.866 C 354.755 53.866 353.677 54.387 353.103 54.666 C 352.607 55.051 352.11 55.435 351.615 55.819 C 351.416 55.885 348.337 59.912 346.694 61.632 C 346.357 61.987 345.745 63.248 345.752 63.45 C 343.547 64.365 343.824 67.835 343.501 68.246 C 343.177 68.658 341.688 69.35 341.302 70.072 C 340.182 72.168 338.833 75.882 338.318 76.558 C 337.807 77.236 337.028 77.913 336.536 78.372 C 336.208 78.503 335.885 78.633 335.556 78.764 C 334.144 78.911 333.49 80.724 333.306 81.105 C 333.121 81.487 332.632 81.559 332.296 81.785 C 332.054 81.951 331.81 82.117 331.566 82.286 L 331.605 82.247 C 331.112 82.462 330.619 82.678 330.128 82.892 C 327.031 84.767 323.932 86.624 320.86 88.543 C 320.598 88.707 320.352 89.38 320.481 89.62 C 321.562 91.695 320.889 93.334 319.357 94.822 C 319.226 94.947 319.131 95.343 319.176 95.374 C 319.423 95.537 319.772 95.783 319.993 95.71 C 321.314 95.275 322.591 94.713 323.916 94.295 C 324.379 94.152 325.261 94.131 325.381 94.359 C 325.632 94.827 325.651 95.543 325.492 96.08 C 325.325 96.666 324.855 97.169 324.505 97.702 C 323.28 99.574 320.103 103.776 319.865 104.101 C 318.112 106.509 316.412 108.961 314.648 111.363 C 313.612 112.774 312.472 113.52 310.854 112.284 C 309.685 111.389 308.572 110.417 307.433 109.484 C 307.355 108.83 307.275 108.178 307.193 107.522 C 307.651 105.029 307.781 102.543 308.961 100.117 C 310.62 96.711 311.63 92.987 312.884 89.387 C 314.253 85.461 315.588 81.523 316.929 77.589 C 317.614 75.581 318.285 73.561 318.936 71.539 C 321.199 67.027 323.492 62.531 325.704 57.998 C 326.87 55.616 327.892 53.166 328.981 50.744 C 329.165 50.691 329.238 50.572 329.208 50.385 C 331.204 46.524 333.364 42.734 335.108 38.764 C 335.748 37.305 335.662 35.373 335.403 33.737 C 335.281 32.962 334.005 32.332 333.194 31.708 C 332.333 31.043 332.344 30.454 332.928 29.544 C 334.115 27.685 333.94 26.539 332.664 25.006 C 331.649 23.785 330.314 23.599 328.891 23.657 C 327.096 23.726 325.39 23.704 323.571 23.187 C 322.075 22.762 319.952 22.079 318.612 24.046 L 318.484 24.175 C 317.976 25.082 310.003 38.927 309.564 39.64 L 307.308 43.1 C 306.731 43.967 308.058 45.353 307.771 46.045 C 307.484 46.738 306.785 45.708 305.689 46.805 C 305.618 46.827 304.722 49.999 303.982 52.909 C 303.92 53.155 304.884 53.411 304.818 53.669 C 304.763 53.878 303.682 54.777 303.627 54.994 C 303.076 57.157 302.46 58.907 301.875 61.16 C 301.768 61.573 302.005 61.636 301.899 62.034 C 301.796 62.425 301.352 62.121 301.254 62.492 C 300.695 64.592 300.204 67.359 299.889 68.252 C 299.799 68.51 300.055 68.765 299.965 69.023 C 299.839 69.379 299.371 69.736 299.249 70.094 C 297.763 74.378 296.355 78.679 295.059 83.024 C 294.943 83.315 294.826 83.61 294.707 83.9 C 293.658 85.308 292.609 86.714 291.56 88.12 C 290.956 88.656 290.352 89.19 289.75 89.722 C 289.752 89.841 289.75 89.957 289.74 90.065 C 289.75 89.955 289.752 89.841 289.75 89.722 C 289.284 90.256 288.82 90.788 288.367 91.323 C 288.061 91.57 287.753 91.821 287.445 92.069 C 287.236 92.121 287.108 92.253 287.066 92.467 C 286.823 92.718 286.581 92.969 286.338 93.222 C 286.336 93.195 286.34 93.174 286.336 93.148 C 285.617 93.868 284.9 94.587 284.18 95.307 C 284.353 95.3 284.515 95.286 284.673 95.265 C 284.516 95.287 284.353 95.3 284.18 95.307 C 283.886 95.568 283.591 95.828 283.296 96.088 C 282.936 96.465 282.576 96.841 282.217 97.216 C 282.025 97.287 281.081 98.183 280.669 98.46 C 280.48 98.556 280.271 98.626 280.106 98.75 C 275.347 102.343 270.591 105.938 265.837 109.536 C 265.458 109.661 265.466 109.69 264.705 109.915 C 263.943 110.139 261.763 109.825 261.694 108.898 C 261.623 107.97 262.408 102.64 263.24 99.514 C 264.92 93.217 267.136 87.189 270.106 81.41 C 271.256 79.169 272.384 76.096 273.379 74.596 C 274.372 73.095 276.371 70.424 277.083 68.994 C 277.795 67.562 278.178 64.855 279.133 62.997 C 280.882 59.596 282.868 56.308 284.916 53.073 C 286.245 50.972 287.364 48.917 287.619 46.34 C 287.787 44.607 288.505 42.869 288.906 42.278 C 289.306 41.687 290.313 40.823 290.51 40.439 C 291.81 37.892 293.017 35.296 294.254 32.717 C 294.254 32.717 296.826 28.592 297.818 26.4 C 298.824 24.145 298.719 24.097 296.211 22.94 M 289.701 90.268 C 289.696 90.29 289.695 90.317 289.691 90.338 C 289.701 90.317 289.701 90.291 289.701 90.268 Z M 309.577 39.606 L 309.686 39.751 L 309.581 39.624 L 309.581 39.606 Z M 373.904 50.364 C 373.294 52.011 372.734 53.51 372.882 55.285 C 372.949 56.1 372.676 56.961 372.458 57.773 C 372.175 58.834 371.493 59.367 370.32 59.26 C 367.231 58.979 365.094 60.661 363.16 62.778 C 362.738 63.241 362.244 63.743 361.68 63.955 C 360.503 64.393 359.255 64.65 358.04 64.981 C 358.3 63.889 358.435 62.746 358.854 61.716 C 359.45 60.25 360.075 58.74 360.997 57.474 C 364.448 52.735 368.025 48.089 371.581 43.432 C 373.152 41.376 372.882 43.401 373.626 43.579 C 373.833 43.629 374.407 42.598 374.611 42.663 C 374.873 42.748 374.955 43.01 375.073 43.231 C 375.184 43.436 375.271 43.652 375.336 43.876 C 375.49 44.403 375.533 44.965 375.505 45.513 C 375.448 46.629 375.021 47.656 374.601 48.677 C 374.357 49.239 374.103 49.796 373.892 50.364 Z" style="fill: rgb(255, 255, 255);"/>
    <path id="path13" d="M 452.05 84.243 C 453.026 84.564 455.26 85.148 456.88 85.553 C 458.888 86.058 460.653 86.898 462.078 88.498 C 463.912 90.561 465.899 92.49 467.805 94.493 C 468.235 94.943 468.723 95.404 468.969 95.958 C 470.594 99.635 472.647 102.845 476.752 104.219 C 477.615 104.505 478.319 105.287 479.069 105.873 C 479.631 106.317 480.104 106.891 480.707 107.278 C 483.213 108.9 485.799 110.402 488.261 112.091 C 490.008 113.288 491.599 114.714 493.26 116.036 C 493.489 116.212 493.714 116.384 493.942 116.558 C 495.434 117.877 496.931 119.195 498.427 120.515 C 507.287 129.358 515.822 138.587 526.826 144.943 C 527.684 145.47 528.545 145.999 529.403 146.528 C 529.999 146.884 530.588 147.238 531.18 147.594 C 531.683 147.969 532.176 148.344 532.674 148.719 C 535.235 150.641 537.855 152.493 540.343 154.504 C 544.5 157.868 548.558 161.35 552.687 164.742 C 553.925 165.759 565.743 173.726 567.06 174.641 C 567.186 174.73 570.692 175.683 567.928 173.341 C 566.147 171.831 557.7 166.684 557.619 166.613 C 555.203 164.521 552.091 162.822 549.703 160.699 C 546.511 157.864 543.372 154.977 540.215 152.102 C 536.444 148.664 533.253 144.545 528.501 142.266 C 527.95 142.003 527.408 141.507 527.111 140.978 C 524.867 136.956 521.248 134.2 517.943 131.212 C 515.673 129.157 512.806 127.772 510.344 125.903 C 507.2 123.517 504.195 120.947 501.13 118.46 C 500.852 118.171 500.576 117.88 500.297 117.59 C 498.931 116.346 497.569 115.102 496.205 113.861 C 493.811 112.094 491.44 110.296 489.013 108.576 C 487.978 107.843 486.804 107.299 485.728 106.613 C 485.369 106.383 484.55 105.991 485.518 105.54 C 487.07 104.812 486.124 104.392 485.41 103.847 C 481.083 100.54 476.86 97.146 473.248 93.003 C 471.898 91.456 469.827 90.541 468.097 89.322 C 467.498 88.899 466.846 88.5 466.368 87.961 C 463.973 85.261 462.614 81.72 459.511 79.588 C 459.198 79.372 459.025 78.876 458.911 78.474 C 458.808 78.115 458.883 77.71 458.877 77.325 C 459.258 77.362 459.776 77.253 460.004 77.459 C 461.129 78.449 462.146 79.553 463.253 80.557 C 463.865 81.111 464.537 81.873 465.263 81.975 C 466.677 82.176 467.606 82.613 468.154 84.04 C 468.381 84.627 469.28 84.971 469.898 85.387 C 471.667 86.58 473.496 87.684 475.204 88.958 C 476.165 89.677 476.889 90.628 478.274 89.766 C 478.542 89.599 479.317 89.86 479.603 90.164 C 483.079 93.926 486.492 97.747 489.961 101.518 C 491.526 103.216 492.806 105.207 495.052 106.231 C 496.265 106.782 497.469 107.531 498.409 108.46 C 500.072 110.11 501.629 111.89 503.056 113.753 C 504.682 115.884 506.67 117.356 509.281 117.978 C 509.971 118.484 510.668 118.989 511.36 119.496 C 512.294 120.196 513.229 120.899 514.162 121.598 C 516.634 123.44 519.109 125.282 521.58 127.126 C 522.012 127.495 522.447 127.86 522.882 128.228 C 523.125 128.428 523.364 128.631 523.607 128.833 C 524.005 129.149 524.407 129.466 524.805 129.781 C 525.014 129.908 525.223 130.036 525.432 130.163 C 528.425 132.562 531.452 134.92 534.399 137.368 C 538.349 140.648 542.206 144.037 546.171 147.293 C 549.129 149.724 552.461 151.702 554.983 154.663 C 555.319 155.057 555.816 155.483 556.291 155.558 C 557.072 155.675 558.18 155.832 558.646 155.411 C 559.433 154.697 558.702 153.908 558.061 153.269 C 556.938 152.137 555.539 151.114 554.865 149.743 C 554.222 148.435 553.386 147.687 552.154 147.269 C 547.108 145.554 543.526 141.834 539.77 138.348 C 536.567 135.373 533.36 132.399 530.157 129.423 C 529.254 128.577 528.356 127.731 527.454 126.888 C 527.248 126.686 527.041 126.483 526.836 126.282 C 526.34 125.783 525.844 125.284 525.35 124.783 C 525.002 124.394 524.652 124.003 524.305 123.614 C 523.047 122.484 521.866 121.247 520.514 120.248 C 518.462 118.738 516.17 117.539 514.197 115.943 C 512.239 114.357 510.226 112.666 508.823 110.622 C 507.122 108.138 505.405 106.029 502.314 105.395 C 501.717 105.272 501.216 104.753 500.654 104.446 C 497.673 102.822 495.695 100.104 493.505 97.67 C 491.376 95.303 489.561 92.653 487.61 90.128 C 487.367 89.889 487.124 89.649 486.881 89.411 C 485.808 87.975 484.895 86.371 483.621 85.138 C 481.873 83.443 479.855 82.027 477.947 80.496 C 476.205 79.1 476.184 78.364 478.099 77.15 C 479.168 76.469 480.476 76.173 481.549 75.496 C 488.162 71.321 494.518 66.831 499.079 60.283 C 500.449 58.039 502.076 55.906 503.135 53.525 C 505.076 49.166 505.342 44.578 504.97 39.772 C 504.595 34.945 502.854 30.98 499.82 27.404 C 499.794 27.193 498.229 25.663 498.069 25.489 C 497.462 24.881 496.064 23.693 492.147 20.698 C 488.233 17.701 482.674 14.734 477.795 14.097 C 472.917 13.458 466.186 14.45 463.251 14.718 C 462.76 14.762 462.137 15.026 461.85 15.399 C 460.486 17.173 458.417 17.454 456.507 18.088 C 454.915 18.053 453.321 17.947 451.732 17.999 C 450.072 18.056 448.414 18.265 446.756 18.408 C 446.159 18.444 444.592 18.646 444.406 18.708 C 443.643 18.834 440.929 19.48 440.437 19.643 C 437.521 20.971 429.263 24.079 427.553 24.752 C 425.846 25.426 425.127 25.414 422.771 25.913 C 421.765 26.128 420.601 26.871 419.555 27.512 L 419.213 27.768 C 418.078 28.348 416.942 28.929 415.803 29.509 C 415.187 29.881 414.571 30.252 413.955 30.624 C 412.865 31.096 411.774 31.571 410.682 32.043 C 410.28 32.211 409.36 32.388 408.789 32.729 C 408.217 33.072 406.714 34.515 406.538 35.268 C 406.363 36.022 406.252 36.537 406.108 37.173 C 405.961 37.68 405.815 38.188 405.665 38.695 C 405.665 38.695 405.558 38.938 405.557 38.94 C 405.218 39.733 403.997 40.083 403.286 40.384 C 402.308 40.8 401.06 41.153 400.221 41.822 C 399.45 42.438 399.309 43.431 398.959 44.299 C 398.691 44.957 398.761 45.989 399.054 46.627 C 399.34 47.25 400.562 48.4 401.221 48.501 C 401.976 48.615 403.119 48.692 403.483 48.843 C 403.847 48.995 404.949 50.209 404.879 50.717 C 404.811 51.226 405.211 52.532 406.247 52.894 C 406.988 53.016 407.732 53.137 408.474 53.262 C 409.224 53.293 409.974 53.325 410.727 53.357 C 410.905 53.56 411.083 53.762 411.262 53.963 C 411.586 54.95 412.113 55.633 413.299 55.334 C 414.165 55.336 415.795 55.682 417.518 55.323 C 419.24 54.965 420.087 54.375 421.289 53.742 C 422.577 53.062 423.763 52.191 424.992 51.404 C 425.706 50.834 426.524 50.587 426.46 51.845 C 426.323 54.41 425.688 56.882 424.265 59.083 C 424.169 59.314 424.073 59.546 423.979 59.778 C 423.319 63.231 415.624 82.378 414.597 86.233 C 413.569 90.091 412.571 94.08 412.279 94.767 C 412.213 95.048 412.153 95.326 412.086 95.604 C 411.668 96.925 411.164 98.227 410.873 99.572 C 410.681 100.454 410.185 102.59 410.854 102.274 C 412.96 101.286 411.601 103.556 409.71 104.839 C 408.576 104.913 405.481 111.869 405.103 115.479 C 404.87 117.702 403.381 120.953 403.949 121.856 C 404.064 122.04 404.467 122.428 404.239 122.522 C 402.704 123.143 401.608 129.46 401.608 129.46 C 401.608 129.46 402.115 129.736 401.863 129.991 C 401.608 130.247 401.577 130.311 401.401 130.465 C 401.094 130.772 399.376 134.33 399.054 135.151 C 398.92 135.389 397.316 138.649 397.115 139.033 C 395.995 140.613 395.617 144.663 396.037 146.653 C 396.316 147.967 396.591 146.403 396.618 147.755 C 396.624 148.075 396.542 148.264 396.544 148.569 C 396.546 149.209 396.932 152.913 397.474 153.161 C 398.485 153.625 398.557 152.535 398.885 151.929 C 398.985 151.748 399.148 151.604 399.283 151.442 C 399.222 151.21 400.2 150.171 400.409 150.058 C 400.621 150.128 399.464 153.34 400.262 153.122 C 401.061 152.908 403.415 145 403.682 144.418 C 404.144 143.537 404.604 142.659 405.066 141.779 C 405.463 141.66 405.86 141.54 406.255 141.419 C 406.663 141.541 407.071 141.662 407.472 141.784 C 407.613 141.998 407.751 142.214 407.892 142.429 C 407.901 143.056 407.831 143.696 407.951 144.301 C 408.011 144.611 408.402 144.857 408.64 145.134 C 408.892 144.853 409.146 144.577 409.398 144.295 C 409.597 143.816 409.783 143.335 409.987 142.857 C 412.127 137.798 414.271 132.738 416.405 127.68 C 416.87 126.573 417.146 125.395 417.635 124.297 C 417.714 124.115 419.387 121.457 419.677 121.909 C 419.899 122.251 420.273 122.578 420.308 122.938 C 420.366 123.558 420.107 124.213 420.187 124.826 C 420.244 125.269 420.586 125.958 420.891 126.013 C 421.272 126.079 421.873 125.703 422.156 125.341 C 422.612 124.765 423.026 124.083 423.215 123.38 C 423.638 121.77 426.364 107.595 429.58 93.759 C 432.732 80.192 437.052 65.673 437.493 65.672 C 438.484 65.671 438.95 65.198 439.134 64.305 C 439.572 62.364 440.013 60.422 440.453 58.481 C 440.683 57.693 440.911 56.905 441.136 56.117 C 441.362 55.612 441.586 55.108 441.81 54.602 C 442.47 53.382 443.083 52.132 443.803 50.951 C 444.378 50.005 445.046 49.658 445.48 51.088 C 445.803 52.157 446.517 52.341 447.001 51.413 C 448.073 49.355 449.257 47.256 449.754 45.031 C 450.119 43.398 450.883 42.603 452.186 41.992 C 459.927 38.368 467.516 38.696 474.934 42.916 C 477.999 44.662 479.313 47.096 478.576 50.024 C 477.9 52.719 476.897 55.281 475.147 57.544 C 472.729 60.676 470.443 63.917 468.177 67.164 C 466.304 69.845 461.682 70.29 459.302 67.978 C 458.152 66.858 456.974 65.752 455.703 64.781 C 454.607 63.942 453.079 64.262 452.72 65.397 C 452.375 66.484 452.048 67.698 453.21 68.644 C 454.38 69.592 455.637 70.472 456.604 71.597 C 457.152 72.233 457.508 73.366 457.35 74.156 C 457.24 74.709 456.146 75.384 455.448 75.441 C 454.086 75.552 452.691 75.204 451.308 75.175 C 450.608 75.158 449.569 75.184 449.259 75.609 C 448.571 76.555 447.498 77.82 447.44 79.038 C 447.345 80.58 451.176 83.947 452.033 84.229 Z" style="fill: rgb(255, 255, 255);"/>
    <path id="path15" d="M 557.927 175.528 C 554.539 173.504 551.102 171.563 547.71 169.546 C 545.539 168.255 543.134 167.189 541.329 165.495 C 533.065 157.739 525.031 149.737 516.795 141.951 C 513.63 138.959 510.356 136.053 506.009 134.696 C 504.09 134.096 502.268 133.1 500.518 132.08 C 499.457 131.462 498.344 130.615 497.745 129.588 C 495.421 125.593 491.617 123.193 488.215 120.35 C 484.207 117.303 481.78 112.541 477.154 110.154 C 476.787 109.965 476.466 109.629 476.208 109.295 C 473.162 105.32 469.894 101.566 466.13 98.227 C 462.253 94.789 459.017 90.645 454.513 87.887 C 453.45 87.238 452.63 86.17 451.772 85.224 C 451.677 85.12 449.798 83.315 448.599 82.639 C 447.398 81.96 444.604 81.251 442.58 80.632 C 440.078 79.863 439.04 80.585 438.654 83.256 C 438.515 84.207 438.444 85.177 438.447 86.14 C 438.455 88.134 438.785 88.439 440.865 88.723 C 441.701 88.837 442.792 88.749 443.31 89.238 C 444.598 90.463 446.031 90.415 447.514 90.177 C 448.997 89.938 449.835 90.535 450.732 91.684 C 452.431 93.857 454.122 96.171 456.287 97.801 C 459.06 99.891 461.239 102.485 463.651 104.885 C 466.446 107.664 468.79 110.877 472.515 112.701 C 473.906 113.385 474.777 115.137 475.883 116.405 C 476.998 117.681 477.927 119.205 479.255 120.185 C 481.392 121.768 483.789 122.994 486.078 124.372 C 486.904 125.032 487.75 125.67 488.554 126.358 C 490.25 127.816 492.167 129.105 493.525 130.832 C 494.705 132.328 495.844 133.331 497.719 133.916 C 499.612 134.509 501.484 135.568 503.012 136.844 C 507.781 140.825 512.398 144.985 517.043 149.117 C 520.235 151.957 523.214 155.054 527.601 156.153 C 528.553 156.391 529.372 157.275 530.188 157.936 C 531.996 159.406 533.766 160.92 535.55 162.415 C 536.06 162.805 536.571 163.196 537.079 163.586 C 537.217 163.748 537.335 163.938 537.498 164.07 C 542.621 168.272 548.505 171.445 553.375 176.011 C 554.302 176.878 556.223 176.488 557.228 177.427 C 572.804 192.001 573.135 188.67 573.672 188.422 C 573.365 187.998 558.316 175.753 557.913 175.51 Z" style="fill: rgb(255, 255, 255);"/>
    <path id="path17" d="M 533.533 172.67 C 533.022 171.131 531.953 170.444 530.885 169.693 C 529.5 168.718 527.933 168.007 526.465 167.148 C 524.368 165.914 522.14 164.861 521.252 162.25 C 521.012 161.55 520.147 160.697 519.46 160.581 C 516.515 160.074 514.937 156.926 511.832 156.774 C 511.448 156.756 511.106 156.047 510.731 155.677 C 509.971 154.929 509.141 154.245 508.451 153.441 C 506.903 151.628 504.253 150.906 503.448 148.315 C 503.335 147.946 502.424 147.748 501.849 147.621 C 498.77 146.938 496.27 145.429 495.117 142.394 C 494.284 140.205 492.682 138.717 491.19 137.059 C 489.925 135.654 488.522 135.019 486.673 135.258 C 485.147 135.455 483.989 135 483.261 133.5 C 482.952 132.861 482.273 132.4 481.763 131.857 C 481.062 131.054 480.362 130.252 479.661 129.451 C 479.483 129.208 479.307 128.964 479.13 128.722 C 479.117 128.512 479.035 128.335 478.885 128.189 C 478.587 126.333 477.698 124.879 476.021 123.957 C 473.395 121.777 470.619 119.753 468.179 117.379 C 464.887 114.174 461.716 110.851 460.627 106.052 C 460.301 104.619 459.142 103.173 457.984 102.184 C 456.047 100.53 453.905 99.052 451.667 97.839 C 448.307 96.019 445.05 93.892 441.169 93.226 C 439.945 93.017 438.694 92.529 437.842 93.858 C 437.292 94.715 437.974 95.307 438.69 95.821 C 439.115 96.125 439.635 96.49 440.114 96.495 C 442.367 96.521 443.327 98.046 443.908 99.82 C 444.7 102.249 446.224 103.365 448.771 103.713 C 450.853 103.999 453.085 104.756 453.823 107.082 C 455.115 111.15 457.887 114.029 461.107 116.515 C 464.086 118.817 466.685 121.435 468.895 124.466 C 469.33 125.061 469.741 125.71 470.301 126.164 C 472.52 127.964 474.792 129.699 477.046 131.457 C 477.273 131.668 477.498 131.878 477.727 132.09 C 478.375 132.738 479.027 133.389 479.676 134.038 C 481.378 137.151 483.991 139.042 487.449 139.795 C 487.894 139.969 488.346 140.144 488.793 140.317 C 489.565 140.981 490.414 141.575 491.097 142.323 C 492.301 143.64 493.325 145.119 494.56 146.401 C 495.438 147.316 496.527 148.029 497.538 148.819 C 500.996 151.527 504.395 154.319 507.939 156.909 C 511.549 159.546 515.331 161.952 518.992 164.521 C 520.647 165.684 522.277 166.913 523.767 168.274 C 526.294 170.576 528.767 172.893 531.867 174.454 C 533.13 175.092 534.195 176.124 535.349 176.977 C 535.548 177.002 550.35 187 551.761 188.208 C 552.588 188.916 558.597 192.76 564.067 196.983 C 567.944 199.978 571.264 203.413 573.549 204.95 C 583.888 211.91 579.978 206.825 580.308 206.868 C 580.012 206.415 541.972 178.775 541.678 178.324 C 540.642 177.265 533.964 173.942 533.54 172.672 Z" style="fill: rgb(255, 255, 255);"/>
    <path id="path19" d="M 420.649 128.431 C 419.838 128.431 418.989 129.019 418.246 129.506 C 417.951 129.698 417.834 130.247 417.743 130.655 C 417.47 131.898 417.264 133.154 417.005 134.4 C 416.648 136.118 416.897 138.03 415.11 139.255 C 414.303 139.809 414.783 140.607 415.322 141.186 C 415.998 141.905 416.796 141.736 417.229 141.041 C 418.07 139.695 418.829 138.275 419.44 136.81 C 420.288 134.777 421.449 131.636 421.803 130.364 C 422.152 129.104 421.03 128.438 420.649 128.438 Z" style="fill: rgb(255, 255, 255);"/>
    <path id="path21" d="M 205.298 124.113 C 209.884 126.019 215.066 126.585 220.181 125.53 C 222.287 125.096 222.772 124.951 226.191 122.941 C 229.611 120.929 231.947 116.089 232.645 115.837 C 233.344 115.584 235.53 115.462 236.201 116.029 C 236.597 116.36 237.649 117.731 238.971 118.756 C 240.294 119.783 238.983 119.686 239.983 121.077 C 240.984 122.469 242.414 120.944 242.439 121.639 C 242.464 122.332 242.983 122.891 244.118 122.887 C 245.255 122.884 245.017 118.463 244.778 115.908 C 244.545 114.433 244.022 108.707 244.129 107.456 C 244.236 106.205 244.586 104.062 244.815 102.363 C 244.731 100.173 246.654 92.951 246.964 91.392 C 246.824 91.176 248.33 87.03 249.207 82.998 C 250.085 78.968 250.744 74.178 250.791 72.685 C 250.878 70.354 251.317 66.428 251.054 65.689 C 250.791 64.949 249.354 65.253 248.811 65.554 C 248.269 65.858 248.53 66.055 248.391 66.306 L 248.365 66.414 C 248.261 66.398 248.168 66.425 248.097 66.526 C 246.092 66.878 245.051 64.873 244.258 64.577 C 243.465 64.28 242.896 64.214 241.932 64.366 C 240.968 64.518 237.394 68.084 235.681 68.886 C 233.969 69.688 228.204 72.263 226.214 71.968 C 226.047 72.133 225.847 72.19 225.618 72.139 C 224.848 72.935 224.143 74.337 223.297 74.426 C 219.153 74.864 216.782 77.942 213.881 80.243 C 213.373 80.903 212.655 81.49 212.394 82.237 C 211.615 84.468 210.772 85.903 208.523 87.088 C 208.4 87.154 208.29 87.497 208.354 87.595 C 208.448 87.741 208.699 87.853 208.887 87.861 C 210.31 87.908 211.998 86.693 211.998 86.693 C 211.998 86.693 218.995 83.688 222.477 82.152 C 223.983 81.487 225.402 81.105 227.048 81.9 C 227.677 82.202 228.645 81.804 229.456 81.725 L 230.412 81.172 C 230.739 81.087 231.065 81.002 231.392 80.916 L 231.999 80.855 C 232.441 80.926 232.886 81.001 233.331 81.072 C 232.526 83.487 232.15 87.754 232.032 88.523 C 231.916 89.29 231.632 89.717 231.46 90.331 C 231.205 91.241 230.92 92.154 230.78 93.087 C 230.33 96.106 229.73 99.129 229.607 102.169 C 229.531 104.048 230.652 106.945 231.24 107.634 C 231.828 108.324 232.482 109.286 231.464 110.133 C 230.445 110.98 229.653 111.763 228.748 112.581 C 227.617 113.001 225.388 114.724 222.111 115.232 C 218.831 115.738 216 115.609 211.364 113.539 C 206.727 111.471 202.96 107.706 200.401 105.391 C 197.841 103.074 194.101 94.188 193.838 90.165 C 193.574 86.142 193.955 82.062 194.079 80.429 C 194.202 78.797 195.114 73.303 196.583 69.507 C 198.052 65.713 202.316 60.45 202.91 59.783 C 205.121 57.645 207.333 55.507 209.546 53.367 C 212.059 51.456 216.033 48.012 221.704 44.865 C 222.99 44.236 230.097 40.177 235.489 39.751 C 237.06 39.627 238.593 39.005 240.094 38.473 C 241.458 37.99 242.243 37.027 241.6 35.493 C 241.157 34.434 241.169 33.408 242.357 33.113 C 243.851 32.741 242.504 30.439 241.797 30.603 C 241.034 30.78 240.275 31.11 239.186 30.404 C 237.998 29.632 237.001 28.095 236.601 26.123 C 236.437 25.307 237.714 25.35 236.908 24.264 C 236.102 23.181 234.536 23.853 233.866 23.305 C 233.642 23.225 233.42 23.147 233.198 23.067 C 232.363 22.961 231.53 22.857 230.697 22.752 C 230.567 22.637 230.435 22.522 230.306 22.406 C 229.469 21.416 228.499 21.299 227.183 21.409 C 223.295 21.729 219.729 23.219 216.002 24.107 C 214.671 24.574 213.339 25.042 212.007 25.509 C 211.427 25.964 210.867 26.446 210.265 26.867 C 208.701 27.963 207.117 29.034 205.542 30.115 C 205.35 30.317 205.155 30.519 204.963 30.722 L 204.903 30.798 C 204.405 31.435 203.907 32.071 203.41 32.709 C 203.259 32.907 203.111 33.104 202.962 33.3 C 202.531 33.721 202.101 34.142 201.67 34.563 C 201.44 34.77 201.21 34.976 200.982 35.182 C 200.592 35.429 200.203 35.674 199.812 35.921 L 199.775 35.962 C 199.529 36.379 199.282 36.795 199.035 37.213 L 198.994 37.465 C 198.655 37.815 198.317 38.166 197.978 38.516 C 197.682 38.861 197.386 39.207 197.09 39.552 C 196.868 39.825 196.645 40.098 196.424 40.371 L 195.808 40.914 C 195.437 41.4 195.066 41.887 194.694 42.373 L 194.619 42.457 C 194.134 43.042 193.652 43.625 193.167 44.212 L 192.671 45.021 L 190.376 48.841 C 190.162 48.931 190.045 49.091 190.026 49.325 C 189.82 49.811 189.614 50.297 189.409 50.782 C 189.19 51.166 188.971 51.554 188.752 51.939 L 188.752 51.94 C 186.574 53.625 185.405 55.934 184.694 58.524 C 184.545 58.71 184.395 58.896 184.247 59.079 C 183.991 59.755 183.735 60.431 183.479 61.107 C 183.087 62.154 182.696 63.2 182.305 64.246 C 179.931 68.534 179.328 73.304 179.014 78.03 C 178.604 84.216 178.684 90.439 180.172 96.532 C 180.665 98.552 184.129 106.345 185.846 108.943 C 187.562 111.537 192.167 116.657 195.104 118.667 C 198.014 120.667 200.681 122.202 205.275 124.107 Z" style="fill: rgb(255, 255, 255);"/>
    <path id="path23" d="M 572.596 163.96 C 569.675 161.8 566.715 159.693 563.754 157.587 C 563.144 157.154 562.715 155.863 561.811 156.701 C 561.499 156.988 561.923 158.271 562.251 158.995 C 562.5 159.541 563.08 159.98 563.597 160.353 C 566.716 162.618 569.829 164.9 573.02 167.059 C 573.87 167.627 574.988 167.803 576.002 168.09 C 576.177 168.139 576.449 167.839 576.746 167.656 C 576.445 167.303 576.272 167.038 576.037 166.839 C 574.905 165.866 573.794 164.85 572.598 163.961 Z" style="fill: rgb(255, 255, 255);"/>
    <path id="path25" d="M 593.424 177.03 C 593.255 176.827 589.06 174.562 588.865 174.426 C 587.985 173.803 587.441 174.043 586.563 173.412 C 584.884 172.205 583.291 170.887 581.666 169.614 C 580.814 168.943 579.521 168.44 579.378 169.768 C 579.286 170.623 579.495 171.666 580.295 172.122 C 580.582 172.287 580.868 172.454 581.156 172.617 C 582.8 173.467 584.437 174.324 586.08 175.17 C 586.804 175.541 597.435 182.997 599.168 182.674 C 600.91 182.346 599.385 180.394 599.385 180.394 C 599.385 180.394 593.703 177.368 593.427 177.019 Z" style="fill: rgb(255, 255, 255);"/>
    <path id="path27" d="M 572.045 177.792 C 572.045 177.792 579.534 182.891 582.354 184.195 C 585.175 185.496 586.804 186.582 585.826 185.062 C 584.85 183.541 585.826 183.868 582.676 182.024 C 579.529 180.18 577.797 179.529 576.386 178.117 C 574.974 176.707 572.152 175.514 572.041 176.489 C 571.935 177.463 572.052 177.791 572.052 177.791 Z" style="fill: rgb(255, 255, 255);"/>
    <path id="path29" d="M 578.343 194.398 C 581.489 196.24 583.01 197.651 581.924 194.829 C 580.843 192.008 579.103 192.552 576.715 191.359 C 574.329 190.164 574.236 191.339 574.777 191.993 L 578.344 194.396 Z" style="fill: rgb(255, 255, 255);"/>
  </g>
</svg>