<?xml version="1.0" encoding="utf-8"?>
<svg version="1.1" xmlns="http://www.w3.org/2000/svg">
  <g>
    <path d="M 172.222 5.115 C 176.004 0.275 183.829 -0.549 188.469 3.507 C 190.366 5.105 191.695 7.311 192.373 9.684 C 200.962 39.237 209.589 68.775 218.167 98.33 C 213.097 98.333 208.026 98.324 202.958 98.333 C 200.568 90.19 198.234 82.024 195.874 73.871 C 186.074 73.842 176.275 73.862 166.477 73.859 C 164.076 82.01 161.709 90.169 159.351 98.339 C 154.31 98.318 149.271 98.33 144.228 98.327 C 152.387 70.137 160.556 41.947 168.755 13.765 C 169.729 10.818 170.093 7.522 172.222 5.115 M 181.169 23.223 C 177.575 35.466 174.054 47.734 170.482 59.983 C 177.604 60.015 184.725 59.995 191.845 59.995 C 188.281 47.739 184.733 35.481 181.169 23.223 Z" id="path7" style="fill-opacity: 1; fill: rgb(255, 255, 255);"/>
    <path d="M 278.992 5.751 C 281.632 1.92 286.739 0.058 291.233 1.242 C 295.35 2.191 298.499 5.738 299.587 9.731 C 308.166 39.263 316.775 68.781 325.353 98.307 C 320.279 98.352 315.205 98.307 310.13 98.329 C 307.772 90.176 305.436 82.008 303.059 73.858 C 293.275 73.861 283.492 73.837 273.708 73.865 C 271.37 82.028 268.96 90.168 266.62 98.326 C 261.583 98.329 256.548 98.326 251.513 98.329 C 259.666 69.987 267.918 41.667 276.138 13.342 C 277.001 10.782 277.332 7.962 278.992 5.751 M 277.758 59.995 C 284.851 60.005 291.94 59.998 299.032 59.998 C 295.506 47.717 291.921 35.452 288.401 23.168 C 284.859 35.445 281.281 47.713 277.758 59.995 Z" id="path9" style="fill-opacity: 1; fill: rgb(255, 255, 255);"/>
    <path d="M 206.818 1.095 C 225.153 1.095 243.489 1.095 261.819 1.095 C 261.819 6.042 261.819 10.984 261.819 15.93 C 255.069 15.936 248.32 15.923 241.572 15.936 C 241.572 43.401 241.576 70.865 241.569 98.331 C 236.737 98.331 231.897 98.331 227.063 98.331 C 227.063 70.866 227.059 43.403 227.068 15.936 C 220.317 15.923 213.569 15.936 206.819 15.93 C 206.818 10.985 206.814 6.041 206.818 1.095 Z" id="path11" style="fill-opacity: 1; fill: rgb(255, 255, 255);"/>
    <path d="M 341.474 1.698 C 342.866 1.216 344.353 1.052 345.824 1.087 C 351.605 1.109 357.385 1.09 363.168 1.095 C 372.903 1.272 382.196 7.318 386.41 16.08 C 389.327 21.77 389.629 28.389 388.892 34.632 C 388.388 41.168 385.644 47.702 380.622 52.031 C 377.968 54.4 374.662 55.833 371.823 57.935 C 370.263 59.126 370.189 61.429 370.993 63.079 C 378.666 74.926 386.644 86.582 394.475 98.329 C 388.747 98.341 383.018 98.314 377.29 98.341 C 369.788 87.075 362.366 75.752 354.895 64.474 C 352.699 61.266 352.105 57.012 353.418 53.345 C 354.443 50.536 356.902 48.477 359.637 47.419 C 364.86 45.427 370.006 42.294 372.901 37.367 C 375.099 33.66 374.989 29.093 374 25.038 C 372.838 19.776 367.711 15.632 362.294 15.816 C 358.546 15.841 354.802 15.794 351.061 15.833 C 349.368 15.794 347.774 17.265 347.795 18.986 C 347.776 45.433 347.805 71.887 347.789 98.339 C 342.917 98.33 338.049 98.339 333.176 98.33 C 333.166 69.859 333.184 41.377 333.166 12.905 C 333.19 7.911 336.741 3.214 341.474 1.698 Z" id="path13" style="fill-opacity: 1; fill: rgb(255, 255, 255);"/>
    <path d="M 402.134 1.095 C 407.259 1.095 412.381 1.095 417.51 1.095 C 417.504 33.511 417.514 65.919 417.5 98.33 C 412.38 98.318 407.258 98.33 402.133 98.327 C 402.134 65.915 402.134 33.508 402.134 1.095 Z" id="path15" style="fill-opacity: 1; fill: rgb(255, 255, 255);"/>
    <path d="M 43.353 0.916 C 45.814 0.908 48.275 0.916 50.741 0.912 C 50.749 6.701 50.741 12.492 50.744 18.279 C 50.767 23.112 50.632 27.942 50.432 32.772 C 50.102 39.742 49.664 46.729 48.512 53.617 C 47.718 58.366 46.072 62.952 44.036 67.303 C 40.711 74.311 35.484 80.242 29.609 85.229 C 24.355 89.856 18.082 93.225 11.484 95.498 C 7.751 96.79 3.909 97.776 0 98.33 C 0.003 93.474 0.003 88.616 0 83.762 C 4.709 83.053 9.235 81.382 13.437 79.172 C 18.423 76.535 22.913 72.99 26.693 68.807 C 30.596 64.492 33.706 59.492 36.066 54.187 C 38.846 48.088 40.334 41.493 41.346 34.895 C 42.614 26.505 43.142 18.013 43.338 9.539 C 43.369 6.667 43.345 3.792 43.353 0.916 Z" id="path19" style="fill-opacity: 1; fill: rgb(255, 255, 255);"/>
    <path d="M 53.71 0.926 C 58.243 0.897 62.775 0.923 67.31 0.916 C 67.311 33.385 67.311 65.859 67.31 98.327 C 62.787 98.339 58.264 98.307 53.742 98.349 C 53.687 87.998 53.735 77.636 53.719 67.286 C 53.713 45.168 53.727 23.049 53.71 0.926 Z" id="path21" style="fill-opacity: 1; fill: rgb(255, 255, 255);"/>
    <path d="M 70.335 0.916 C 72.785 0.912 75.232 0.908 77.679 0.916 C 77.598 10.816 77.937 20.738 79.116 30.571 C 80.082 38.212 81.445 45.911 84.488 53.027 C 87.372 59.912 91.53 66.312 96.949 71.475 C 102.126 76.41 108.394 80.204 115.207 82.385 C 117.108 82.99 119.051 83.466 121.029 83.76 C 121.028 88.614 121.025 93.466 121.029 98.32 C 117.146 97.791 113.338 96.789 109.632 95.53 C 105.22 93.996 100.951 92.007 97.03 89.453 C 94.168 87.619 91.566 85.414 89.067 83.117 C 84.946 79.314 81.26 74.999 78.488 70.105 C 76.323 66.297 74.742 62.183 73.502 57.99 C 72.367 53.774 71.885 49.41 71.444 45.077 C 70.592 35.704 70.273 26.288 70.333 16.883 C 70.335 11.56 70.333 6.239 70.335 0.916 Z" id="path23" style="fill-opacity: 1; fill: rgb(255, 255, 255);"/>
    <path d="M 53.71 0.926 C 53.726 23.048 53.714 45.168 53.719 67.284 C 53.734 77.634 53.685 87.992 53.742 98.348 C 58.264 98.307 62.788 98.337 67.31 98.326 C 67.311 65.858 67.311 33.385 67.31 0.912 C 62.777 0.923 58.244 0.898 53.71 0.926" id="path25" style="fill-opacity: 1; fill: rgb(255, 255, 255);"/>
    <path d="M 70.335 0.916 C 70.333 6.237 70.335 11.56 70.335 16.881 C 70.274 26.283 70.594 35.701 71.446 45.075 C 71.887 49.408 72.369 53.772 73.504 57.987 C 74.742 62.181 76.325 66.296 78.49 70.103 C 81.261 74.997 84.948 79.312 89.069 83.114 C 91.57 85.415 94.171 87.617 97.032 89.451 C 100.953 92.004 105.222 93.991 109.634 95.528 C 113.339 96.786 117.148 97.786 121.031 98.317 C 121.027 93.464 121.03 88.611 121.031 83.758 C 119.055 83.468 117.109 82.987 115.209 82.383 C 108.396 80.202 102.127 76.408 96.951 71.473 C 91.532 66.317 87.374 59.912 84.49 53.025 C 81.447 45.909 80.084 38.21 79.118 30.569 C 77.938 20.736 77.6 10.814 77.681 0.914 C 75.231 0.908 72.783 0.912 70.335 0.916" id="path27" style="fill-opacity: 1; fill: rgb(255, 255, 255);"/>
    <path d="M 458.164 62.704 L 459.935 64.095 C 466.129 68.898 473.588 72.818 481.553 72.818 C 484.966 72.818 490.401 71.428 490.401 67.127 C 490.401 62.829 485.849 62.452 482.69 61.819 L 475.736 60.556 C 462.21 58.154 450.832 50.188 450.832 35.269 C 450.831 12.642 471.439 0 492.172 0 C 503.043 0 513.03 2.655 522.385 8.344 L 513.03 32.743 C 507.089 28.699 500.39 25.538 492.931 25.538 C 489.896 25.538 485.471 26.673 485.471 30.592 C 485.471 34.134 489.771 34.638 492.423 35.269 L 500.262 37.042 C 514.925 40.327 525.545 48.166 525.545 64.348 C 525.545 87.102 504.813 98.355 484.207 98.355 C 472.195 98.355 458.29 95.067 447.544 89.632 L 458.164 62.704 Z" id="path31" style="fill-opacity: 1; fill: rgb(255, 255, 255);"/>
    <path d="M 527.184 1.517 L 600 1.517 L 600 28.258 L 580.912 28.312 L 580.912 96.838 L 546.274 96.838 L 546.274 28.311 L 527.184 28.258 L 527.184 1.517 Z" id="path33" style="fill-opacity: 1; fill: rgb(255, 255, 255);"/>
  </g>
</svg>