<?xml version="1.0" encoding="utf-8"?>
<svg id="Ebene_1" enable-background="new 0 0 566.924 121.752" version="1.1" y="0px" x="0px" xmlns="http://www.w3.org/2000/svg">
  <g>
    <path id="path6" d="M 219.088 5.592 C 224.087 -0.804 234.435 -1.897 240.569 3.469 C 243.077 5.581 244.835 8.496 245.733 11.634 C 257.09 50.708 268.496 89.763 279.836 128.845 C 273.135 128.852 266.43 128.833 259.729 128.852 C 256.568 118.078 253.482 107.286 250.361 96.502 C 237.4 96.476 224.447 96.496 211.488 96.49 C 208.315 107.268 205.182 118.058 202.067 128.856 C 195.402 128.834 188.736 128.852 182.07 128.845 C 192.859 91.57 203.66 54.297 214.501 17.031 C 215.792 13.13 216.279 8.773 219.083 5.588 M 230.916 29.533 C 226.164 45.72 221.508 61.938 216.783 78.134 C 226.202 78.179 235.617 78.151 245.032 78.151 C 240.322 61.944 235.634 45.739 230.914 29.533 Z" style="fill: rgb(255, 255, 255);"/>
    <path id="path8" d="M 360.271 6.433 C 363.764 1.367 370.516 -1.091 376.459 0.474 C 381.901 1.727 386.063 6.416 387.502 11.696 C 398.846 50.742 410.231 89.774 421.574 128.823 C 414.862 128.875 408.155 128.823 401.444 128.85 C 398.323 118.067 395.237 107.273 392.094 96.49 C 379.156 96.496 366.221 96.468 353.283 96.5 C 350.191 107.29 347.002 118.056 343.911 128.846 C 337.251 128.853 330.596 128.84 323.936 128.853 C 334.718 91.373 345.628 53.925 356.499 16.467 C 357.631 13.077 358.076 9.349 360.266 6.426 M 358.636 78.148 C 368.017 78.16 377.392 78.154 386.771 78.154 C 382.105 61.913 377.363 45.695 372.712 29.455 C 368.024 45.688 363.293 61.906 358.636 78.148 Z" style="fill: rgb(255, 255, 255);"/>
    <path id="path10" d="M 264.84 0.278 L 337.568 0.278 L 337.568 19.892 C 328.64 19.899 319.719 19.882 310.796 19.899 C 310.796 56.213 310.803 92.529 310.791 128.844 L 291.612 128.844 C 291.612 92.532 291.606 56.216 291.617 19.899 C 282.689 19.882 273.767 19.899 264.84 19.892 C 264.84 13.348 264.829 6.815 264.84 0.273 Z" style="fill: rgb(255, 255, 255);"/>
    <path id="path12" d="M 442.895 1.076 C 444.737 0.439 446.703 0.222 448.649 0.267 C 456.293 0.294 463.937 0.274 471.58 0.278 C 484.453 0.516 496.74 8.502 502.311 20.089 C 506.169 27.613 506.566 36.363 505.594 44.617 C 504.923 53.257 501.299 61.898 494.657 67.626 C 491.15 70.751 486.78 72.646 483.024 75.431 C 480.962 76.999 480.857 80.051 481.924 82.234 C 492.069 97.896 502.616 113.314 512.975 128.842 C 505.399 128.855 497.823 128.825 490.247 128.855 C 480.33 113.96 470.516 98.99 460.639 84.073 C 457.736 79.827 456.946 74.205 458.686 69.36 C 460.042 65.643 463.29 62.925 466.907 61.522 C 473.813 58.887 480.621 54.749 484.446 48.23 C 487.355 43.333 487.204 37.291 485.896 31.932 C 484.361 24.974 477.583 19.501 470.419 19.74 C 465.464 19.773 460.513 19.718 455.566 19.762 C 453.326 19.71 451.219 21.657 451.248 23.926 C 451.225 58.901 451.259 93.878 451.237 128.851 C 444.795 128.838 438.359 128.851 431.917 128.844 C 431.905 91.193 431.929 53.539 431.905 15.887 C 431.905 9.294 436.593 3.084 442.858 1.081 Z" style="fill: rgb(255, 255, 255);"/>
    <path id="path14" d="M 523.097 0.278 L 543.427 0.278 C 543.421 43.137 543.44 85.989 543.415 128.845 C 536.646 128.826 529.872 128.845 523.097 128.839 L 523.097 0.282 Z" style="fill: rgb(255, 255, 255);"/>
    <path id="path18" d="M 57.334 0.015 C 60.589 0.005 63.846 0.015 67.101 0.007 C 67.115 7.663 67.101 15.32 67.106 22.974 C 67.14 29.365 66.959 35.755 66.695 42.137 C 66.259 51.357 65.682 60.594 64.155 69.708 C 63.106 75.991 60.933 82.051 58.236 87.804 C 53.838 97.075 46.927 104.919 39.158 111.517 C 32.207 117.633 23.912 122.086 15.187 125.1 C 10.251 126.799 5.172 128.11 0 128.839 C 0.005 122.419 0.005 115.994 0 109.574 C 6.226 108.64 12.211 106.43 17.771 103.51 C 24.367 100.022 30.306 95.33 35.303 89.801 C 40.465 84.091 44.578 77.481 47.701 70.462 C 51.377 62.392 53.345 53.676 54.682 44.946 C 56.359 33.853 57.057 22.628 57.317 11.414 C 57.354 7.622 57.322 3.82 57.334 0.023 Z" style="fill: rgb(255, 255, 255);"/>
    <path id="path20" d="M 71.032 0.028 C 77.024 -0.011 83.021 0.022 89.015 0.011 C 89.017 42.952 89.017 85.896 89.015 128.843 C 83.035 128.856 77.053 128.815 71.073 128.866 C 70.997 115.173 71.062 101.477 71.041 87.785 C 71.034 58.533 71.053 29.284 71.032 0.033 Z" style="fill: rgb(255, 255, 255);"/>
    <path id="path22" d="M 93.016 0.011 C 96.254 0.009 99.491 0.003 102.727 0.013 C 102.622 13.106 103.068 26.224 104.629 39.232 C 105.906 49.336 107.708 59.514 111.731 68.928 C 115.547 78.035 121.046 86.501 128.212 93.324 C 135.055 99.85 143.348 104.867 152.358 107.755 C 154.872 108.559 157.443 109.189 160.056 109.57 C 160.053 115.988 160.05 122.406 160.056 128.822 C 154.921 128.126 149.886 126.803 144.986 125.137 C 139.15 123.107 133.506 120.478 128.322 117.106 C 124.537 114.671 121.096 111.758 117.789 108.72 C 112.34 103.695 107.462 97.982 103.799 91.516 C 100.933 86.48 98.843 81.038 97.206 75.487 C 95.705 69.908 95.065 64.145 94.483 58.411 C 93.356 46.018 92.935 33.564 93.016 21.125 C 93.022 14.088 93.02 7.047 93.022 0.011 Z" style="fill: rgb(255, 255, 255);"/>
    <path id="path24" d="M 57.334 0.015 C 57.323 3.813 57.355 7.614 57.317 11.414 C 57.057 22.628 56.36 33.852 54.682 44.946 C 53.345 53.676 51.376 62.392 47.701 70.462 C 44.578 77.484 40.465 84.092 35.303 89.801 C 30.306 95.333 24.367 100.022 17.771 103.51 C 12.211 106.433 6.226 108.641 0 109.574 C 0.005 115.994 0.005 122.419 0 128.839 C 5.172 128.11 10.251 126.799 15.187 125.1 C 23.912 122.086 32.207 117.633 39.158 111.517 C 46.927 104.919 53.838 97.075 58.236 87.804 C 60.932 82.051 63.106 75.991 64.155 69.708 C 65.682 60.595 66.26 51.357 66.695 42.137 C 66.959 35.755 67.14 29.365 67.106 22.974 C 67.101 15.313 67.115 7.656 67.101 0 C 63.845 0.008 60.589 -0.003 57.334 0.008" style="fill: rgb(255, 255, 255);"/>
    <path id="path26" d="M 71.032 0.028 C 71.053 29.282 71.034 58.528 71.042 87.782 C 71.064 101.475 70.998 115.171 71.074 128.862 C 77.054 128.808 83.035 128.85 89.016 128.84 C 89.018 85.899 89.018 42.956 89.016 0.008 C 83.021 0.023 77.024 -0.011 71.032 0.029" style="fill: rgb(255, 255, 255);"/>
    <path id="path28" d="M 93.016 0.011 C 93.014 7.047 93.016 14.088 93.016 21.124 C 92.935 33.564 93.356 46.017 94.483 58.41 C 95.065 64.144 95.705 69.906 97.206 75.486 C 98.843 81.036 100.933 86.479 103.799 91.514 C 107.461 97.98 112.34 103.694 117.789 108.719 C 121.096 111.757 124.537 114.67 128.322 117.103 C 133.506 120.477 139.15 123.106 144.986 125.136 C 149.886 126.802 154.921 128.125 160.056 128.821 C 160.05 122.404 160.053 115.987 160.056 109.569 C 157.442 109.189 154.872 108.558 152.358 107.754 C 143.348 104.865 135.054 99.849 128.212 93.323 C 121.046 86.5 115.547 78.035 111.731 68.927 C 107.708 59.513 105.906 49.335 104.629 39.229 C 103.068 26.223 102.622 13.105 102.727 0.012 C 99.473 0.01 96.235 0.016 92.997 0.019" style="fill: rgb(255, 255, 255);"/>
    <path id="path30" d="M 595.011 105.104 L 599.205 105.104 L 599.205 128.862 L 579.447 112.762 C 577.594 111.248 575.299 109.491 572.859 109.491 C 569.005 109.491 565.835 112.909 565.835 116.712 C 565.835 120.47 568.857 123.543 572.564 123.788 L 572.564 128.374 C 566.026 127.643 561.637 123.397 561.637 116.712 C 561.637 110.469 566.272 105.1 572.663 105.1 C 575.396 105.1 578.128 106.126 580.226 107.831 L 595.01 119.932 L 594.999 105.108 Z" style="fill: rgb(255, 255, 255);"/>
    <path id="path32" d="M 563.885 84.073 L 577.155 93.88 L 577.255 93.783 C 576.717 92.707 576.377 91.49 576.377 90.171 C 576.377 84.123 581.988 79.536 587.892 79.536 C 594.623 79.536 599.992 85.001 599.992 91.685 C 599.992 98.026 594.722 103.932 588.236 103.932 C 584.525 103.932 581.405 102.078 578.524 99.933 L 561.645 87.391 L 563.888 84.073 Z M 588.375 83.926 C 583.788 83.926 580.47 87.829 580.47 91.731 C 580.47 95.733 584.13 99.539 588.129 99.539 C 592.376 99.539 595.888 95.93 595.888 91.731 C 595.888 87.632 592.481 83.926 588.374 83.926 Z" style="fill: rgb(255, 255, 255);"/>
    <path id="path34" d="M 561.641 59.545 C 561.641 70.081 570.28 78.651 580.898 78.651 C 591.432 78.651 600 70.081 600 59.545 C 600 48.706 591.576 40.211 580.822 40.211 C 570.058 40.211 561.634 48.706 561.634 59.545 Z M 580.903 44.728 C 589.216 44.728 595.723 51.341 595.723 59.781 C 595.723 67.696 589.076 74.135 580.903 74.135 C 572.647 74.135 565.931 67.696 565.931 59.781 C 565.931 51.198 572.366 44.728 580.906 44.728 Z" style="fill: rgb(255, 255, 255);"/>
    <path id="path36" d="M 561.641 19.374 C 561.641 29.907 570.28 38.478 580.898 38.478 C 591.432 38.478 600 29.907 600 19.374 C 600 8.532 591.576 0.038 580.822 0.038 C 570.058 0.038 561.634 8.532 561.634 19.374 Z M 580.903 4.555 C 589.216 4.555 595.723 11.165 595.723 19.607 C 595.723 27.523 589.076 33.962 580.903 33.962 C 572.647 33.962 565.931 27.523 565.931 19.607 C 565.931 11.026 572.366 4.555 580.906 4.555 Z" style="fill: rgb(255, 255, 255);"/>
  </g>
</svg>