<?xml version="1.0" encoding="utf-8"?>
<svg xmlns="http://www.w3.org/2000/svg">
  <g id="Group" transform="matrix(1.679275, 0, 0, 1.66353, -0.513936, -0.137842)" fill-rule="nonzero" fill="#BBA358">
    <path d="M7.38768955,0.0828612674 C4.47840652,0.0828612674 2.05102998,2.15201569 1.49639246,4.89939133 L0.430479403,4.89939133 C0.383351189,4.89939819 0.3402699,4.92602578 0.319190054,4.9681768 C0.298110207,5.01032783 0.302648611,5.06077016 0.330913843,5.0984815 L1.93642387,7.23916154 C1.95992658,7.2705029 1.99681473,7.28894853 2.03598944,7.28894853 C2.07516415,7.28894853 2.1120523,7.2705029 2.13555501,7.23916154 L3.74106502,5.0984815 C3.76933025,5.06077016 3.77386866,5.01032783 3.75278881,4.96817681 C3.73170897,4.92602579 3.68862768,4.8993982 3.64149947,4.89939133 L2.85329604,4.89939133 C3.38233657,2.88776029 5.20860885,1.40209472 7.38768955,1.40209472 C9.98079267,1.40209472 12.0797729,3.50107499 12.0797729,6.09417811 C12.0797729,8.68728123 9.98079267,10.7862615 7.38768955,10.7862615 C5.76122625,10.7862615 4.32947857,9.95942693 3.48745781,8.70345973 C3.46435422,8.66898149 3.4255835,8.64828946 3.38408018,8.64828685 L2.144081,8.64828685 C2.1007501,8.64829914 2.06054488,8.67084858 2.03794085,8.70781647 C2.01533681,8.74478436 2.01358838,8.79084822 2.03332507,8.82942322 C3.02907526,10.774459 5.05362488,12.105495 7.38768955,12.105495 C10.706092,12.105495 13.3990064,9.41258056 13.3990064,6.09417811 C13.3990064,2.77575508 10.7060916,0.0828612674 7.38768955,0.0828612674 Z" id="path4921" style="fill: rgb(204, 204, 204);"/>
    <path d="M6.98818588,2.68890476 C6.88882618,2.68890489 6.80827927,2.7694518 6.80827914,2.86881149 L6.80827914,6.7851934 C6.80828568,6.84889377 6.84197688,6.90784161 6.89685943,6.94017801 L9.68563791,8.58364503 C9.77120442,8.63405979 9.88143723,8.60560252 9.93190783,8.52006893 L10.2037969,8.05929657 C10.2541435,7.97393375 10.2259736,7.86392976 10.1407948,7.81327241 L7.70326263,6.36389456 L7.70326263,2.86881149 C7.70326249,2.7694518 7.62271558,2.68890489 7.52335589,2.68890476 L6.98818588,2.68890476 Z" id="polygon4923" style="fill: rgb(204, 204, 204);"/>
  </g>
  <path d="M 40.227 14.4 L 39.387 19.2 L 27.987 19.2 L 31.287 0.45 L 36.987 0.45 L 34.527 14.4 L 40.227 14.4 Z M 44.697 16.23 L 43.527 19.2 L 37.527 19.2 L 45.417 0.45 L 54.237 0.45 L 55.557 19.2 L 49.527 19.2 L 49.407 16.23 L 44.697 16.23 Z M 48.957 6.21 L 48.657 6.21 L 46.557 11.46 L 48.957 11.46 L 48.957 6.21 Z M 56.997 18.87 L 56.997 18.87 L 58.677 13.92 L 58.677 13.92 C 60.357 14.38 61.897 14.61 63.297 14.61 L 63.297 14.61 L 63.297 14.61 C 64.697 14.61 65.827 14.55 66.687 14.43 L 66.687 14.43 L 66.927 12.93 L 64.437 12.69 L 64.437 12.69 C 62.537 12.51 61.19 12.08 60.397 11.4 L 60.397 11.4 L 60.397 11.4 C 59.61 10.72 59.217 9.76 59.217 8.52 L 59.217 8.52 L 59.217 8.52 C 59.217 7.98 59.277 7.38 59.397 6.72 L 59.397 6.72 L 59.397 6.72 C 59.857 4.16 60.69 2.4 61.897 1.44 L 61.897 1.44 L 61.897 1.44 C 63.11 0.48 64.987 0 67.527 0 L 67.527 0 L 67.527 0 C 70.067 0 72.307 0.25 74.247 0.75 L 74.247 0.75 L 72.687 5.55 L 72.687 5.55 C 70.947 5.25 69.547 5.1 68.487 5.1 L 68.487 5.1 L 68.487 5.1 C 67.427 5.1 66.527 5.15 65.787 5.25 L 65.787 5.25 L 65.547 6.72 L 67.557 6.93 L 67.557 6.93 C 69.597 7.15 71.047 7.637 71.907 8.39 L 71.907 8.39 L 71.907 8.39 C 72.767 9.137 73.197 10.14 73.197 11.4 L 73.197 11.4 L 73.197 11.4 C 73.197 12.68 72.917 14 72.357 15.36 L 72.357 15.36 L 72.357 15.36 C 72.077 16.06 71.77 16.647 71.437 17.12 L 71.437 17.12 L 71.437 17.12 C 71.11 17.587 70.69 17.983 70.177 18.31 L 70.177 18.31 L 70.177 18.31 C 69.67 18.643 69.207 18.893 68.787 19.06 L 68.787 19.06 L 68.787 19.06 C 68.367 19.233 67.837 19.36 67.197 19.44 L 67.197 19.44 L 67.197 19.44 C 66.257 19.58 65.107 19.65 63.747 19.65 L 63.747 19.65 L 63.747 19.65 C 61.267 19.65 59.017 19.39 56.997 18.87 Z M 90.687 0.45 L 89.817 5.25 L 85.677 5.25 L 83.247 19.2 L 77.547 19.2 L 79.977 5.25 L 75.867 5.25 L 76.737 0.45 L 90.687 0.45 Z M 105.987 14.67 L 105.987 14.67 L 102.267 14.67 L 101.487 19.2 L 95.787 19.2 L 99.087 0.45 L 108.087 0.45 L 108.087 0.45 C 111.487 0.45 113.187 2.03 113.187 5.19 L 113.187 5.19 L 113.187 5.19 C 113.187 6.69 112.977 8.043 112.557 9.25 L 112.557 9.25 L 112.557 9.25 C 112.137 10.463 111.674 11.427 111.167 12.14 L 111.167 12.14 L 111.167 12.14 C 110.654 12.847 109.95 13.447 109.057 13.94 L 109.057 13.94 L 109.057 13.94 C 108.17 14.427 107.147 14.67 105.987 14.67 Z M 105.237 5.25 L 103.917 5.25 L 103.107 9.87 L 104.427 9.87 L 104.427 9.87 C 105.107 9.87 105.62 9.797 105.967 9.65 L 105.967 9.65 L 105.967 9.65 C 106.32 9.497 106.547 9.15 106.647 8.61 L 106.647 8.61 L 106.647 8.61 C 106.907 7.13 107.037 6.32 107.037 6.18 L 107.037 6.18 L 107.037 6.18 C 107.037 5.8 106.887 5.55 106.587 5.43 L 106.587 5.43 L 106.587 5.43 C 106.287 5.31 105.837 5.25 105.237 5.25 L 105.237 5.25 Z M 125.217 14.4 L 124.377 19.2 L 112.977 19.2 L 116.277 0.45 L 121.977 0.45 L 119.517 14.4 L 125.217 14.4 Z M 129.687 16.23 L 128.517 19.2 L 122.517 19.2 L 130.407 0.45 L 139.227 0.45 L 140.547 19.2 L 134.517 19.2 L 134.397 16.23 L 129.687 16.23 Z M 133.947 6.21 L 133.647 6.21 L 131.547 11.46 L 133.947 11.46 L 133.947 6.21 Z M 141.837 0.45 L 148.137 0.45 L 148.527 7.05 L 148.737 7.05 L 151.497 0.45 L 157.797 0.45 L 150.237 14.1 L 149.367 19.2 L 143.667 19.2 L 144.537 14.1 L 141.837 0.45 Z M 169.017 7.77 L 168.237 12.12 L 162.537 12.12 L 162.147 14.4 L 169.137 14.4 L 168.297 19.2 L 155.607 19.2 L 158.907 0.45 L 171.447 0.45 L 169.887 5.25 L 163.737 5.25 L 163.317 7.77 L 169.017 7.77 Z M 179.487 19.2 L 171.507 19.2 L 174.807 0.45 L 182.787 0.45 L 182.787 0.45 C 185.367 0.45 187.2 0.907 188.287 1.82 L 188.287 1.82 L 188.287 1.82 C 189.38 2.727 189.927 4.2 189.927 6.24 L 189.927 6.24 L 189.927 6.24 C 189.927 7.28 189.807 8.48 189.567 9.84 L 189.567 9.84 L 189.567 9.84 C 188.967 13.2 187.94 15.6 186.487 17.04 L 186.487 17.04 L 186.487 17.04 C 185.04 18.48 182.707 19.2 179.487 19.2 L 179.487 19.2 Z M 182.007 5.25 L 182.007 5.25 L 179.637 5.25 L 178.047 14.4 L 180.417 14.4 L 180.417 14.4 C 181.197 14.4 181.777 14.307 182.157 14.12 L 182.157 14.12 L 182.157 14.12 C 182.537 13.927 182.787 13.49 182.907 12.81 L 182.907 12.81 L 183.957 6.84 L 183.957 6.84 C 183.977 6.72 183.987 6.56 183.987 6.36 L 183.987 6.36 L 183.987 6.36 C 183.987 5.9 183.827 5.6 183.507 5.46 L 183.507 5.46 L 183.507 5.46 C 183.187 5.32 182.687 5.25 182.007 5.25 Z" style="white-space: pre; fill: rgb(255, 255, 255);"/>
</svg>