<?xml version="1.0" encoding="utf-8"?>
<svg xmlns="http://www.w3.org/2000/svg" xmlns:bx="https://boxy-svg.com">
  <path d="M 10.537 2.37 C 11.612 0.926 13.271 0 15.132 0 C 18.373 0 21 2.806 21 6.27 C 21 13.502 10.52 16.524 10.52 19.987 L 10.515 20 C 10.515 16.145 0 12.615 0 6.27 C 0 2.806 2.627 0 5.868 0 C 7.753 0 9.431 0.95 10.504 2.425 L 10.537 2.37" id="Shape" fill-rule="nonzero" style="fill: rgb(204, 204, 204);" bx:origin="0 0"/>
  <path d="M 37.57 7.77 L 36.76 12.24 L 31.9 12.24 L 30.7 19.2 L 25 19.2 L 28.3 0.45 L 40 0.45 L 38.41 5.25 L 33.13 5.25 L 32.71 7.77 L 37.57 7.77 Z M 43.63 16.23 L 42.46 19.2 L 36.46 19.2 L 44.35 0.45 L 53.17 0.45 L 54.49 19.2 L 48.46 19.2 L 48.34 16.23 L 43.63 16.23 Z M 47.89 6.21 L 47.59 6.21 L 45.49 11.46 L 47.89 11.46 L 47.89 6.21 Z M 64.03 12.36 L 68.56 0.45 L 74.59 0.45 L 66.88 19.2 L 58.54 19.2 L 57.43 0.45 L 63.76 0.45 L 63.76 12.36 L 64.03 12.36 Z M 80.8 6.72 L 80.8 6.72 L 79.42 14.52 L 81.79 14.52 L 81.79 14.52 C 82.57 14.52 83.15 14.427 83.53 14.24 L 83.53 14.24 L 83.53 14.24 C 83.91 14.047 84.16 13.61 84.28 12.93 L 84.28 12.93 L 85.66 5.13 L 83.26 5.13 L 83.26 5.13 C 82.5 5.13 81.93 5.223 81.55 5.41 L 81.55 5.41 L 81.55 5.41 C 81.17 5.603 80.92 6.04 80.8 6.72 Z M 84.25 0 L 84.25 0 L 84.25 0 C 86.79 0 88.6 0.497 89.68 1.49 L 89.68 1.49 L 89.68 1.49 C 90.76 2.477 91.3 4 91.3 6.06 L 91.3 6.06 L 91.3 6.06 C 91.3 8.12 90.973 10.277 90.32 12.53 L 90.32 12.53 L 90.32 12.53 C 89.673 14.777 88.643 16.523 87.23 17.77 L 87.23 17.77 L 87.23 17.77 C 85.823 19.023 83.763 19.65 81.05 19.65 L 81.05 19.65 L 81.05 19.65 C 78.343 19.65 76.45 19.157 75.37 18.17 L 75.37 18.17 L 75.37 18.17 C 74.29 17.177 73.75 15.65 73.75 13.59 L 73.75 13.59 L 73.75 13.59 C 73.75 12.61 73.89 11.317 74.17 9.71 L 74.17 9.71 L 74.17 9.71 C 74.45 8.097 74.82 6.707 75.28 5.54 L 75.28 5.54 L 75.28 5.54 C 75.74 4.367 76.36 3.35 77.14 2.49 L 77.14 2.49 L 77.14 2.49 C 78.64 0.83 81.01 0 84.25 0 Z M 105.79 12.96 L 107.77 19.2 L 101.5 19.2 L 100.12 13.62 L 98.89 13.62 L 97.93 19.2 L 92.23 19.2 L 95.53 0.45 L 104.53 0.45 L 104.53 0.45 C 107.95 0.45 109.66 1.98 109.66 5.04 L 109.66 5.04 L 109.66 5.04 C 109.66 6.3 109.47 7.5 109.09 8.64 L 109.09 8.64 L 109.09 8.64 C 108.39 10.8 107.29 12.24 105.79 12.96 L 105.79 12.96 Z M 101.5 5.25 L 100.36 5.25 L 99.7 9 L 101.02 9 L 101.02 9 C 101.7 9 102.213 8.927 102.56 8.78 L 102.56 8.78 L 102.56 8.78 C 102.913 8.627 103.153 8.197 103.28 7.49 L 103.28 7.49 L 103.28 7.49 C 103.413 6.777 103.48 6.34 103.48 6.18 L 103.48 6.18 L 103.48 6.18 C 103.48 5.78 103.327 5.523 103.02 5.41 L 103.02 5.41 L 103.02 5.41 C 102.707 5.303 102.2 5.25 101.5 5.25 L 101.5 5.25 Z M 115.66 19.2 L 109.96 19.2 L 113.26 0.45 L 118.96 0.45 L 115.66 19.2 Z M 135.1 0.45 L 134.23 5.25 L 130.09 5.25 L 127.66 19.2 L 121.96 19.2 L 124.39 5.25 L 120.28 5.25 L 121.15 0.45 L 135.1 0.45 Z M 147.61 7.77 L 146.83 12.12 L 141.13 12.12 L 140.74 14.4 L 147.73 14.4 L 146.89 19.2 L 134.2 19.2 L 137.5 0.45 L 150.04 0.45 L 148.48 5.25 L 142.33 5.25 L 141.91 7.77 L 147.61 7.77 Z M 149.56 18.87 L 149.56 18.87 L 151.24 13.92 L 151.24 13.92 C 152.92 14.38 154.46 14.61 155.86 14.61 L 155.86 14.61 L 155.86 14.61 C 157.26 14.61 158.39 14.55 159.25 14.43 L 159.25 14.43 L 159.49 12.93 L 157 12.69 L 157 12.69 C 155.1 12.51 153.753 12.08 152.96 11.4 L 152.96 11.4 L 152.96 11.4 C 152.173 10.72 151.78 9.76 151.78 8.52 L 151.78 8.52 L 151.78 8.52 C 151.78 7.98 151.84 7.38 151.96 6.72 L 151.96 6.72 L 151.96 6.72 C 152.42 4.16 153.253 2.4 154.46 1.44 L 154.46 1.44 L 154.46 1.44 C 155.673 0.48 157.55 0 160.09 0 L 160.09 0 L 160.09 0 C 162.63 0 164.87 0.25 166.81 0.75 L 166.81 0.75 L 165.25 5.55 L 165.25 5.55 C 163.51 5.25 162.11 5.1 161.05 5.1 L 161.05 5.1 L 161.05 5.1 C 159.99 5.1 159.09 5.15 158.35 5.25 L 158.35 5.25 L 158.11 6.72 L 160.12 6.93 L 160.12 6.93 C 162.16 7.15 163.61 7.637 164.47 8.39 L 164.47 8.39 L 164.47 8.39 C 165.33 9.137 165.76 10.14 165.76 11.4 L 165.76 11.4 L 165.76 11.4 C 165.76 12.68 165.48 14 164.92 15.36 L 164.92 15.36 L 164.92 15.36 C 164.64 16.06 164.333 16.647 164 17.12 L 164 17.12 L 164 17.12 C 163.673 17.587 163.253 17.983 162.74 18.31 L 162.74 18.31 L 162.74 18.31 C 162.233 18.643 161.77 18.893 161.35 19.06 L 161.35 19.06 L 161.35 19.06 C 160.93 19.233 160.4 19.36 159.76 19.44 L 159.76 19.44 L 159.76 19.44 C 158.82 19.58 157.67 19.65 156.31 19.65 L 156.31 19.65 L 156.31 19.65 C 153.83 19.65 151.58 19.39 149.56 18.87 Z" style="white-space: pre; fill: rgb(255, 255, 255);"/>
</svg>