<?xml version="1.0" encoding="utf-8"?>
<svg xmlns="http://www.w3.org/2000/svg">
  <path d="M 31.17 16.23 L 30 19.2 L 24 19.2 L 31.89 0.45 L 40.71 0.45 L 42.03 19.2 L 36 19.2 L 35.88 16.23 L 31.17 16.23 Z M 35.43 6.21 L 35.13 6.21 L 33.03 11.46 L 35.43 11.46 L 35.43 6.21 Z M 56.25 14.4 L 55.41 19.2 L 44.01 19.2 L 47.31 0.45 L 53.01 0.45 L 50.55 14.4 L 56.25 14.4 Z M 69.03 14.4 L 68.19 19.2 L 56.79 19.2 L 60.09 0.45 L 65.79 0.45 L 63.33 14.4 L 69.03 14.4 Z M 85.77 13.68 L 85.77 13.68 L 85.92 12.87 L 84.48 12.87 L 85.29 8.28 L 92.16 8.28 L 90.39 18.3 L 90.39 18.3 C 87.95 19.2 85.5 19.65 83.04 19.65 L 83.04 19.65 L 83.04 19.65 C 80.58 19.65 78.803 19.16 77.71 18.18 L 77.71 18.18 L 77.71 18.18 C 76.623 17.2 76.08 15.69 76.08 13.65 L 76.08 13.65 L 76.08 13.65 C 76.08 12.79 76.22 11.52 76.5 9.84 L 76.5 9.84 L 76.5 9.84 C 77.1 6.36 78.16 3.85 79.68 2.31 L 79.68 2.31 L 79.68 2.31 C 81.2 0.77 83.72 0 87.24 0 L 87.24 0 L 87.24 0 C 87.98 0 88.923 0.08 90.07 0.24 L 90.07 0.24 L 90.07 0.24 C 91.223 0.4 92.07 0.58 92.61 0.78 L 92.61 0.78 L 90.96 5.37 L 90.96 5.37 C 89.46 5.09 88.083 4.95 86.83 4.95 L 86.83 4.95 L 86.83 4.95 C 85.583 4.95 84.69 5.05 84.15 5.25 L 84.15 5.25 L 84.15 5.25 C 83.61 5.45 83.29 5.85 83.19 6.45 L 83.19 6.45 L 81.72 14.94 L 83.61 14.94 L 83.61 14.94 C 84.29 14.94 84.793 14.867 85.12 14.72 L 85.12 14.72 L 85.12 14.72 C 85.453 14.567 85.67 14.22 85.77 13.68 Z M 98.58 16.23 L 97.41 19.2 L 91.41 19.2 L 99.3 0.45 L 108.12 0.45 L 109.44 19.2 L 103.41 19.2 L 103.29 16.23 L 98.58 16.23 Z M 102.84 6.21 L 102.54 6.21 L 100.44 11.46 L 102.84 11.46 L 102.84 6.21 Z M 118.77 10.11 L 116.82 19.2 L 110.88 19.2 L 115.26 0.45 L 122.7 0.45 L 123.24 9.99 L 123.45 9.99 L 127.35 0.45 L 134.79 0.45 L 132.57 19.2 L 126.6 19.2 L 127.86 10.11 L 127.65 10.11 L 123.9 19.2 L 119.55 19.2 L 118.92 10.11 L 118.77 10.11 Z M 149.16 7.77 L 148.38 12.12 L 142.68 12.12 L 142.29 14.4 L 149.28 14.4 L 148.44 19.2 L 135.75 19.2 L 139.05 0.45 L 151.59 0.45 L 150.03 5.25 L 143.88 5.25 L 143.46 7.77 L 149.16 7.77 Z M 151.11 18.87 L 151.11 18.87 L 152.79 13.92 L 152.79 13.92 C 154.47 14.38 156.01 14.61 157.41 14.61 L 157.41 14.61 L 157.41 14.61 C 158.81 14.61 159.94 14.55 160.8 14.43 L 160.8 14.43 L 161.04 12.93 L 158.55 12.69 L 158.55 12.69 C 156.65 12.51 155.303 12.08 154.51 11.4 L 154.51 11.4 L 154.51 11.4 C 153.723 10.72 153.33 9.76 153.33 8.52 L 153.33 8.52 L 153.33 8.52 C 153.33 7.98 153.39 7.38 153.51 6.72 L 153.51 6.72 L 153.51 6.72 C 153.97 4.16 154.803 2.4 156.01 1.44 L 156.01 1.44 L 156.01 1.44 C 157.223 0.48 159.1 0 161.64 0 L 161.64 0 L 161.64 0 C 164.18 0 166.42 0.25 168.36 0.75 L 168.36 0.75 L 166.8 5.55 L 166.8 5.55 C 165.06 5.25 163.66 5.1 162.6 5.1 L 162.6 5.1 L 162.6 5.1 C 161.54 5.1 160.64 5.15 159.9 5.25 L 159.9 5.25 L 159.66 6.72 L 161.67 6.93 L 161.67 6.93 C 163.71 7.15 165.16 7.637 166.02 8.39 L 166.02 8.39 L 166.02 8.39 C 166.88 9.137 167.31 10.14 167.31 11.4 L 167.31 11.4 L 167.31 11.4 C 167.31 12.68 167.03 14 166.47 15.36 L 166.47 15.36 L 166.47 15.36 C 166.19 16.06 165.883 16.647 165.55 17.12 L 165.55 17.12 L 165.55 17.12 C 165.223 17.587 164.803 17.983 164.29 18.31 L 164.29 18.31 L 164.29 18.31 C 163.783 18.643 163.32 18.893 162.9 19.06 L 162.9 19.06 L 162.9 19.06 C 162.48 19.233 161.95 19.36 161.31 19.44 L 161.31 19.44 L 161.31 19.44 C 160.37 19.58 159.22 19.65 157.86 19.65 L 157.86 19.65 L 157.86 19.65 C 155.38 19.65 153.13 19.39 151.11 18.87 Z" style="white-space: pre; fill: rgb(255, 255, 255);"/>
  <path d="M 18.939 13.013 C 18.82 12.566 18.555 12.23 18.148 12.004 L 14.609 9.999 L 18.148 7.993 C 18.555 7.769 18.82 7.431 18.939 6.985 C 19.059 6.538 19.003 6.113 18.773 5.716 L 17.921 4.282 C 17.691 3.884 17.347 3.625 16.89 3.508 C 16.433 3.392 16.002 3.444 15.593 3.672 L 12.055 5.664 L 12.055 1.665 C 12.055 1.214 11.886 0.824 11.549 0.493 C 11.213 0.164 10.813 0 10.352 0 L 8.649 0 C 8.188 0 7.79 0.164 7.452 0.493 C 7.115 0.824 6.946 1.214 6.946 1.665 L 6.946 5.664 L 3.407 3.671 C 2.999 3.444 2.567 3.392 2.11 3.508 C 1.654 3.625 1.311 3.884 1.079 4.282 L 0.228 5.716 C -0.003 6.113 -0.058 6.538 0.062 6.985 C 0.183 7.431 0.445 7.769 0.853 7.993 L 4.393 9.999 L 0.853 12.004 C 0.445 12.23 0.182 12.566 0.062 13.013 C -0.058 13.46 -0.003 13.884 0.228 14.282 L 1.079 15.715 C 1.311 16.115 1.653 16.373 2.11 16.491 C 2.567 16.607 2.999 16.553 3.407 16.328 L 6.946 14.334 L 6.946 18.332 C 6.946 18.784 7.115 19.173 7.452 19.505 C 7.79 19.834 8.188 20 8.649 20 L 10.352 20 C 10.813 20 11.213 19.834 11.549 19.505 C 11.886 19.173 12.055 18.784 12.055 18.332 L 12.055 14.336 L 15.593 16.328 C 16.001 16.553 16.433 16.608 16.89 16.491 C 17.347 16.373 17.691 16.115 17.921 15.715 L 18.773 14.282 C 19.003 13.884 19.059 13.46 18.939 13.013 Z" id="path4676" fill-rule="nonzero" style="fill: rgb(204, 204, 204);"/>
</svg>