<?xml version="1.0" encoding="utf-8"?>
<svg xmlns="http://www.w3.org/2000/svg" xmlns:bx="https://boxy-svg.com">
  <g>
    <path d="M 403.811 36.832 L 403.691 36.649 L 403.565 36.466 L 403.385 36.343 L 403.202 36.223 L 403.079 36.04 L 402.959 35.857 L 402.776 35.734 L 402.593 35.614 L 402.47 35.428 L 402.35 35.248 L 402.164 35.128 L 401.981 35.002 L 401.861 34.822 L 401.738 34.639 L 401.555 34.516 L 401.375 34.396 L 401.252 34.213 L 401.129 34.027 L 400.949 33.907 L 400.766 33.784 L 400.643 33.601 L 400.523 33.418 L 400.337 33.298 L 400.154 33.175 L 400.034 32.992 L 402.47 32.992 L 403.691 33.298 L 404.909 33.601 L 425.627 39.391 C 439.436 43.249 452.435 47.617 464.624 52.492 C 476.81 57.367 487.331 62.179 496.187 66.934 C 505.004 71.725 513.005 76.603 520.196 81.559 C 527.426 86.554 533.927 91.633 539.693 96.793 C 545.504 101.992 550.745 107.638 555.416 113.731 C 560.087 119.824 563.744 125.512 566.384 130.792 C 569.024 136.075 570.953 141.355 572.171 146.635 C 573.392 151.918 573.899 157.198 573.698 162.481 C 573.494 167.758 572.579 173.242 570.953 178.93 C 569.327 184.618 567.095 190.303 564.251 195.991 C 561.41 201.679 557.852 207.367 553.589 213.055 C 549.32 218.743 544.814 223.981 540.062 228.775 C 535.265 233.527 528.908 238.75 520.988 244.435 C 513.068 250.123 504.74 255.301 496.004 259.972 C 487.271 264.643 477.521 269.014 466.757 273.073 C 455.99 277.138 449.696 279.472 447.866 280.081 C 446.039 280.69 444.716 281.098 443.906 281.302 L 442.688 281.605 L 441.773 281.911 L 440.858 282.214 L 439.943 282.517 L 439.031 282.823 L 438.422 283.006 L 437.813 283.129 L 437.813 281.911 L 438.422 281.788 L 439.031 281.605 L 439.154 281.422 L 439.337 281.302 L 439.517 281.179 L 439.64 280.996 L 439.76 280.813 L 439.943 280.69 L 440.129 280.57 L 440.249 280.387 L 440.372 280.201 L 440.555 280.081 L 440.738 279.958 L 440.858 279.775 L 440.981 279.595 L 441.164 279.472 L 441.347 279.349 C 441.428 279.229 441.713 278.902 442.199 278.374 C 442.73 277.888 445.571 274.558 450.731 268.384 C 455.93 262.168 460.196 255.871 463.526 249.493 C 466.898 243.076 469.193 237.022 470.411 231.334 C 471.632 225.649 472.037 220.771 471.632 216.709 C 471.224 212.647 470.309 209.092 468.89 206.044 C 467.465 203.002 465.677 200.5 463.526 198.553 C 461.414 196.642 458.834 195.079 455.789 193.858 C 452.741 192.643 448.781 192.031 443.906 192.031 C 439.031 192.031 433.547 193.045 427.454 195.079 C 421.361 197.11 415.166 200.056 408.869 203.914 C 402.572 207.775 396.782 211.936 391.502 216.403 L 383.582 223.108 L 383.459 223.291 L 383.276 223.414 L 383.093 223.534 L 382.973 223.717 L 382.058 223.9 L 381.146 224.02 L 381.02 223.414 C 380.9 223.006 379.418 220.771 376.574 216.709 C 373.73 212.647 370.946 209.641 368.225 207.691 C 365.462 205.783 362.762 204.727 360.122 204.523 C 357.482 204.319 354.536 205.03 351.284 206.656 C 348.035 208.279 345.194 210.313 342.755 212.749 C 340.319 215.188 336.866 219.553 332.396 225.85 C 327.926 232.147 321.593 242.872 313.385 258.025 L 301.016 280.69 L 300.711 281.302 L 300.405 281.911 L 300.102 282.517 L 299.796 283.129 L 299.492 283.738 L 299.19 284.347 L 298.883 283.738 L 298.578 283.129 L 298.275 282.517 L 297.969 281.911 L 297.785 281.788 L 297.663 281.605 L 297.543 281.422 L 297.359 281.302 L 297.056 280.69 C 296.849 280.285 293.805 274.495 287.916 263.326 C 282.024 252.154 276.642 242.608 271.767 234.685 C 266.892 226.762 262.485 220.609 258.543 216.223 C 254.565 211.876 251.151 208.888 248.31 207.265 C 245.466 205.642 242.823 204.727 240.387 204.523 C 237.951 204.319 236.121 204.421 234.903 204.829 C 233.682 205.234 231.753 206.452 229.113 208.483 C 226.473 210.517 223.833 213.622 221.19 217.807 L 217.233 224.02 L 216.318 223.9 L 215.403 223.717 L 215.28 223.534 L 215.1 223.414 L 214.917 223.291 L 214.794 223.108 L 206.874 216.403 C 201.591 211.936 195.801 207.775 189.507 203.914 C 183.21 200.056 177.522 197.212 172.443 195.385 C 167.367 193.555 162.693 192.439 158.43 192.031 C 154.164 191.626 150.204 191.827 146.547 192.643 C 142.89 193.456 139.947 194.53 137.712 195.871 C 135.477 197.173 134.361 198.025 134.361 198.43 C 134.361 198.835 134.157 199.039 133.752 199.039 C 133.347 199.039 132.288 200.563 130.584 203.608 C 128.835 206.656 127.659 209.602 127.047 212.446 C 126.441 215.29 126.339 219.148 126.744 224.02 C 127.149 228.895 128.37 234.178 130.401 239.866 C 132.432 245.554 135.375 251.341 139.236 257.23 C 143.094 263.122 146.994 268.261 150.936 272.647 C 154.917 276.994 156.948 279.229 157.029 279.349 L 157.212 279.472 L 157.392 279.595 L 157.515 279.775 L 157.638 279.958 L 157.821 280.081 L 158.004 280.201 L 158.124 280.387 L 158.247 280.57 L 158.43 280.69 L 158.613 280.813 L 158.736 280.996 L 158.856 281.179 L 159.039 281.302 L 159.222 281.422 L 159.345 281.605 L 159.951 281.788 L 160.563 281.911 L 160.563 283.129 L 159.951 283.006 L 159.345 282.823 L 158.43 282.517 L 157.515 282.214 L 156.603 281.911 L 155.688 281.605 L 154.773 281.302 C 154.164 281.098 151.827 280.387 147.765 279.169 C 143.706 277.948 136.494 275.206 126.135 270.943 C 115.776 266.677 106.533 262.309 98.412 257.839 C 90.285 253.372 82.872 248.701 76.167 243.826 C 69.465 238.951 63.717 234.136 58.923 229.384 C 54.159 224.578 49.683 219.49 45.519 214.15 C 41.394 208.777 37.725 203.074 34.551 197.089 C 31.422 191.077 29.046 185.125 27.42 179.236 C 25.797 173.344 24.882 167.656 24.681 162.175 C 24.474 156.691 24.984 151.408 26.202 146.332 C 27.42 141.253 29.454 135.871 32.298 130.183 C 35.139 124.498 38.937 118.645 43.689 112.633 C 48.483 106.663 54.03 100.936 60.327 95.452 C 66.621 89.968 73.02 84.991 79.521 80.521 C 86.019 76.054 93.84 71.38 102.981 66.505 C 112.119 61.633 122.886 56.758 135.276 51.883 C 147.663 47.008 160.461 42.745 173.664 39.085 L 193.467 33.601 L 194.685 33.298 L 195.903 32.992 L 198.342 32.992 L 198.219 33.175 L 198.036 33.298 L 197.853 33.418 L 197.733 33.601 L 197.61 33.784 L 197.43 33.907 L 197.244 34.027 L 197.124 34.213 L 197.001 34.396 L 196.818 34.516 L 196.635 34.639 L 196.515 34.822 L 196.392 35.002 L 196.209 35.128 L 196.026 35.248 L 195.903 35.428 L 195.783 35.614 L 195.6 35.734 L 195.414 35.857 L 195.294 36.04 L 195.171 36.223 L 194.991 36.343 L 194.808 36.466 L 194.685 36.649 L 188.469 44.143 C 184.284 49.102 181.077 53.812 178.842 58.279 C 176.61 62.749 175.083 66.607 174.273 69.859 C 173.46 73.108 173.154 76.459 173.358 79.912 C 173.562 83.365 174.414 86.758 175.917 90.088 C 177.462 93.46 179.148 96.262 180.975 98.497 C 182.802 100.732 185.748 103.168 189.813 105.811 C 193.872 108.451 198.645 110.686 204.129 112.513 C 209.616 114.34 216.012 115.255 223.323 115.255 C 230.637 115.255 235.716 114.544 238.56 113.122 C 241.401 111.7 244.002 110.035 246.357 108.127 C 248.673 106.174 251.253 103.069 254.097 98.803 C 256.941 94.537 259.377 89.764 261.411 84.481 C 263.442 79.201 264.963 68.842 265.98 53.404 C 266.994 37.972 267.846 28.462 268.539 24.889 C 269.271 21.355 271.218 22.573 274.386 28.543 C 277.515 34.558 279.426 38.68 280.116 40.915 C 280.845 43.147 283.143 43.9 287.001 43.171 C 290.859 42.478 295.632 42.235 301.32 42.439 C 307.007 42.643 311.069 43.006 313.505 43.534 C 315.944 44.023 318.137 41.83 320.087 36.955 C 321.995 32.08 323.966 27.913 325.997 24.463 C 328.028 21.01 329.654 24.97 330.872 36.343 C 332.093 47.719 332.903 57.265 333.311 64.984 C 333.716 72.703 334.934 79.201 336.968 84.481 C 338.996 89.764 341.294 94.273 343.853 98.011 C 346.37 101.788 348.746 104.794 350.981 107.026 C 353.213 109.264 355.958 111.193 359.207 112.816 C 362.459 114.442 367.739 115.255 375.05 115.255 C 382.361 115.255 388.76 114.34 394.244 112.513 C 399.728 110.686 404.195 108.655 407.651 106.42 C 411.104 104.185 414.089 101.707 416.609 98.983 C 419.168 96.223 421.157 93.115 422.579 89.662 C 424.001 86.209 424.712 82.351 424.712 78.085 C 424.712 73.819 424.001 69.655 422.579 65.593 C 421.157 61.531 419.024 57.265 416.183 52.798 C 413.339 48.328 410.594 44.572 407.954 41.524 C 405.314 38.476 403.934 36.913 403.811 36.832 Z" stroke-width=".5" style="fill: rgb(255, 255, 255);" bx:origin="-0.045 -0.088"/>
    <path d="M 569.309 90.271 L 569.432 90.577 L 569.432 91.672 C 569.432 92.365 569.471 92.77 569.552 92.893 L 569.735 93.013 L 569.735 94.84 L 569.552 94.72 C 569.471 94.597 569.225 94.477 568.823 94.354 C 568.415 94.273 568.172 94.435 568.091 94.84 C 567.968 95.248 567.359 95.554 566.264 95.755 L 564.554 96.061 L 564.86 96.793 C 565.064 97.318 565.328 97.441 565.652 97.156 C 565.937 96.832 566.138 96.973 566.264 97.582 L 566.384 98.497 L 565.166 98.497 L 565.043 99.106 L 564.86 99.715 L 564.677 99.595 L 564.554 99.412 L 564.434 99.229 L 564.251 99.106 L 563.948 98.497 C 563.744 98.092 563.501 98.053 563.216 98.377 L 562.727 98.803 L 562.607 98.983 L 562.424 99.106 L 562.238 99.229 L 562.118 99.412 L 562.118 99.715 L 561.815 99.595 C 561.608 99.472 559.274 97.177 554.807 92.71 C 550.337 88.24 545.096 83.629 539.084 78.877 C 533.114 74.083 525.923 69.088 517.514 63.886 C 509.066 58.729 499.559 53.71 488.996 48.835 C 478.436 43.96 466.859 39.391 454.265 35.128 C 441.674 30.859 428.165 27.103 413.744 23.854 C 399.323 20.602 384.392 17.962 368.957 15.931 C 353.519 13.9 336.662 12.58 318.38 11.971 C 300.102 11.362 283.752 11.464 269.328 12.277 C 254.91 13.087 240.387 14.509 225.762 16.54 C 211.137 18.571 196.515 21.313 181.89 24.769 C 167.265 28.219 153.861 32.08 141.675 36.343 C 129.486 40.609 118.314 45.181 108.159 50.056 C 98.004 54.931 88.761 59.905 80.436 64.984 C 72.105 70.063 64.491 75.445 57.585 81.13 C 50.676 86.818 44.886 92.302 40.215 97.582 C 35.544 102.865 31.485 108.085 28.029 113.242 L 22.851 121.045 L 22.728 121.045 C 22.608 121.045 22.485 121.144 22.365 121.348 L 22.242 121.654 L 21.024 121.774 L 19.803 121.957 L 19.197 122.14 L 18.585 122.26 L 18.585 121.045 L 19.5 120.922 C 20.109 120.799 19.701 120.598 18.282 120.313 C 16.857 119.986 16.107 119.215 16.026 117.997 C 15.906 116.776 15.498 115.558 14.808 114.34 L 13.71 112.513 L 14.016 112.39 C 14.22 112.27 14.322 112.147 14.322 112.027 L 14.322 111.901 L 19.074 104.896 C 22.2 100.225 26.751 94.678 32.724 88.261 C 38.733 81.883 45.396 75.85 52.71 70.162 C 60.021 64.477 68.448 58.789 77.997 53.101 C 87.543 47.416 97.497 42.235 107.856 37.564 C 118.215 32.89 128.976 28.627 140.148 24.769 C 151.32 20.908 164.118 17.254 178.539 13.798 C 192.957 10.345 207.987 7.501 223.629 5.266 C 239.268 3.034 254.502 1.51 269.328 0.697 C 284.16 -0.116 300.609 -0.218 318.686 0.394 C 336.764 1.003 353.621 2.323 369.26 4.354 C 384.902 6.385 399.932 9.025 414.353 12.277 C 428.774 15.526 442.991 19.486 457.007 24.157 C 471.02 28.828 483.716 33.805 495.092 39.085 C 506.465 44.368 516.518 49.75 525.254 55.234 C 533.987 60.718 540.629 65.227 545.177 68.764 C 549.767 72.334 554.399 76.255 559.073 80.521 C 563.744 84.787 566.588 87.427 567.602 88.444 C 568.619 89.458 569.186 90.067 569.309 90.271 Z" stroke-width=".5" style="fill: rgb(255, 255, 255);" bx:origin="-0.025 0"/>
    <path d="M 44.664 235.294 L 45.396 234.379 L 55.146 242.422 C 61.647 247.825 68.958 253.168 77.082 258.451 C 85.209 263.731 94.449 268.912 104.808 273.988 C 115.167 279.067 126.945 283.942 140.148 288.613 C 153.351 293.284 167.265 297.346 181.89 300.799 C 196.515 304.252 211.137 306.994 225.762 309.025 C 240.387 311.056 254.91 312.478 269.328 313.291 C 283.752 314.104 300.102 314.206 318.38 313.594 C 336.662 312.985 353.519 311.665 368.957 309.637 C 384.392 307.606 399.323 304.963 413.744 301.714 C 428.165 298.462 441.674 294.706 454.265 290.44 C 466.859 286.174 478.679 281.461 489.728 276.304 C 500.819 271.105 510.689 265.825 519.344 260.461 C 527.954 255.058 533.681 251.239 536.525 249.007 C 539.369 246.769 540.995 245.554 541.403 245.35 L 542.009 245.044 L 542.315 244.861 L 542.621 244.738 L 543.23 244.861 L 543.839 245.044 L 543.959 245.227 L 544.142 245.35 L 544.325 245.47 L 544.448 245.653 L 545.363 245.839 L 546.278 245.959 L 546.278 247.786 L 547.493 247.786 L 547.799 250.345 C 548.003 252.094 548.144 253.024 548.225 253.15 C 548.348 253.231 548.468 253.474 548.591 253.882 L 548.714 254.488 L 548.714 254.611 C 548.714 254.734 548.51 254.854 548.105 254.977 L 547.493 255.097 L 547.373 254.794 C 547.25 254.59 546.926 254.386 546.395 254.182 C 545.909 253.984 545.705 254.083 545.789 254.488 L 545.972 255.097 L 545.789 255.586 C 545.705 255.871 545.666 256.072 545.666 256.198 L 545.666 256.318 L 545.363 256.441 C 545.159 256.561 545.057 256.684 545.057 256.804 L 545.057 256.927 L 544.934 257.23 C 544.814 257.434 541.298 259.87 534.392 264.541 C 527.489 269.215 519.629 273.946 510.812 278.743 C 501.956 283.495 491.537 288.307 479.552 293.182 C 467.567 298.057 454.571 302.524 440.555 306.589 C 426.542 310.651 411.812 314.104 396.377 316.948 C 381.047 319.777 365.591 321.91 350.069 323.344 C 334.631 324.766 317.873 325.477 299.796 325.477 C 281.718 325.477 266.484 324.97 254.097 323.953 C 241.707 322.939 228.099 321.211 213.27 318.775 C 198.444 316.336 184.023 313.291 170.007 309.637 C 155.994 305.977 143.196 302.02 131.619 297.751 C 120.042 293.488 108.771 288.613 97.8 283.129 C 86.832 277.645 77.388 272.362 69.465 267.286 C 61.545 262.207 54.639 257.17 48.747 252.172 L 39.915 244.738 L 39.609 244.618 L 39.303 244.435 L 39.303 244.009 C 39.303 243.886 39.465 243.682 39.789 243.4 L 40.215 242.911 L 40.035 242.791 L 39.915 242.608 L 40.035 242.422 L 40.215 242.302 L 40.521 241.084 C 40.725 240.271 40.887 239.56 41.01 238.951 L 41.13 238.036 L 42.351 237.916 C 43.161 237.793 43.608 237.469 43.689 236.938 C 43.812 236.452 44.136 235.906 44.664 235.294 Z M 569.432 91.672 L 569.432 90.577 L 576.254 99.106 C 580.844 104.794 584.765 110.686 588.014 116.776 C 591.266 122.872 593.906 129.373 595.937 136.276 C 597.968 143.182 599.186 148.261 599.594 151.51 C 599.999 154.759 600.101 159.535 599.9 165.829 C 599.693 172.126 598.781 178.525 597.158 185.026 C 595.529 191.524 593.195 197.92 590.147 204.217 C 587.102 210.517 585.476 213.865 585.272 214.273 L 584.969 214.882 L 584.783 215.005 L 584.666 215.188 L 584.54 215.371 L 584.36 215.491 L 584.057 216.403 L 583.751 217.318 L 583.568 217.441 L 583.445 217.624 L 583.325 217.807 L 583.142 217.93 L 582.956 218.05 L 582.836 218.233 L 582.713 218.416 L 582.53 218.536 L 582.227 218.536 L 582.347 217.318 L 582.53 216.1 L 582.53 215.491 L 582.347 215.371 L 582.227 215.188 L 582.104 215.005 L 581.924 214.882 L 581.741 214.762 L 581.618 214.576 L 581.741 214.393 L 581.924 214.273 L 581.924 213.967 C 581.924 213.763 581.78 212.749 581.498 210.919 C 581.171 209.092 580.601 208.18 579.788 208.18 C 578.978 208.18 578.612 207.973 578.693 207.571 C 578.813 207.163 578.936 206.452 579.059 205.438 C 579.14 204.421 578.774 204.016 577.961 204.217 L 576.743 204.523 L 576.866 203.914 C 576.986 203.509 577.859 201.679 579.485 198.43 C 581.111 195.181 582.734 190.51 584.36 184.414 C 585.983 178.321 586.799 171.109 586.799 162.781 C 586.799 154.456 586.085 147.55 584.666 142.066 C 583.241 136.582 581.111 130.894 578.267 125.002 C 575.423 119.113 572.111 113.689 568.334 108.733 L 562.727 101.239 L 562.607 101.056 L 562.424 100.936 L 562.238 100.327 L 562.118 99.715 L 562.118 99.412 L 562.238 99.229 L 562.424 99.106 L 562.607 98.983 L 562.727 98.803 L 563.216 98.377 C 563.501 98.053 563.744 98.092 563.948 98.497 L 564.251 99.106 L 564.434 99.229 L 564.554 99.412 L 564.677 99.595 L 564.86 99.715 L 564.86 98.803 C 564.86 98.194 564.797 97.582 564.677 96.973 L 564.554 96.061 L 565.895 95.755 C 566.831 95.554 567.239 95.248 567.113 94.84 C 567.035 94.435 567.398 94.273 568.211 94.354 C 569.024 94.477 569.471 94.597 569.552 94.72 L 569.735 94.84 L 569.735 93.013 L 569.552 92.893 C 569.471 92.77 569.432 92.365 569.432 91.672 Z M 565.895 97.156 C 565.814 97.048 565.814 96.898 565.895 96.793 C 566.018 96.712 566.081 96.769 566.081 96.973 C 566.081 97.177 566.018 97.24 565.895 97.156 Z" stroke-width=".5" style="fill: rgb(255, 255, 255);" bx:origin="-0.07 -0.386"/>
    <path d="M 14.196 111.901 L 14.322 111.901 L 14.928 113.611 C 15.336 114.706 15.639 116.005 15.843 117.508 C 16.047 119.053 16.857 119.986 18.282 120.313 C 19.701 120.598 20.109 120.799 19.5 120.922 L 18.585 121.045 L 18.585 122.26 L 19.197 122.14 L 19.803 121.957 L 20.718 121.654 C 21.327 121.45 21.837 121.288 22.242 121.165 L 22.851 121.045 L 19.074 130.183 C 16.512 136.276 14.724 142.066 13.71 147.55 C 12.696 153.034 12.288 159.025 12.492 165.523 C 12.696 172.024 13.611 178.321 15.234 184.414 C 16.857 190.51 19.236 196.561 22.365 202.573 C 25.533 208.546 29.25 214.273 33.513 219.757 C 37.779 225.241 40.764 228.937 42.471 230.848 C 44.217 232.795 45.153 233.875 45.273 234.076 L 45.396 234.379 L 44.664 235.294 C 44.136 235.906 43.812 236.452 43.689 236.938 C 43.608 237.466 43.161 237.793 42.351 237.916 L 41.13 238.036 L 41.01 238.951 C 40.887 239.56 40.725 240.271 40.521 241.084 L 40.215 242.302 L 40.035 242.422 L 39.915 242.608 L 40.035 242.791 L 40.215 242.911 L 40.215 244.738 L 39.915 244.738 L 39.609 244.618 L 39.303 244.435 L 39.303 244.129 L 39 244.009 L 38.694 243.826 L 38.571 243.643 L 38.388 243.523 L 38.205 243.4 L 38.085 243.217 L 37.962 243.034 L 37.779 242.911 L 37.599 242.791 L 37.476 242.608 L 37.353 242.422 L 37.17 242.302 L 36.987 242.182 L 36.867 241.996 L 36.744 241.816 C 36.621 241.735 35.952 241.084 34.734 239.866 C 33.513 238.648 30.162 234.685 24.681 227.983 C 19.197 221.278 14.523 214.069 10.665 206.35 C 6.804 198.631 4.065 191.524 2.436 185.026 C 0.813 178.525 0 171.01 0 162.481 C 0 153.949 0.813 146.533 2.436 140.236 C 4.065 133.942 6.357 127.744 9.324 121.654 L 13.71 112.513 L 13.833 112.207 C 13.953 112.003 14.076 111.901 14.196 111.901 Z" stroke-width=".5" style="fill: rgb(255, 255, 255);" bx:origin="-0.002 -0.842"/>
    <path d="M 577.229 204.217 L 577.352 203.914 L 578.267 203.914 C 578.876 203.914 579.14 204.421 579.059 205.438 C 578.936 206.452 578.813 207.163 578.693 207.571 C 578.612 207.973 578.978 208.18 579.788 208.18 C 580.601 208.18 581.171 209.092 581.498 210.919 C 581.78 212.749 581.924 213.763 581.924 213.967 L 581.924 214.273 L 581.741 214.393 L 581.618 214.576 L 581.741 214.762 L 581.924 214.882 L 582.104 215.005 L 582.227 215.188 L 582.836 215.371 C 583.241 215.449 583.445 215.695 583.445 216.1 L 583.445 216.709 L 583.142 216.832 C 582.938 216.955 582.836 217.075 582.836 217.198 L 582.836 217.318 L 582.713 217.318 C 582.593 217.318 582.47 217.522 582.347 217.93 L 582.227 218.536 L 582.104 219.148 C 581.984 219.553 579.485 222.703 574.61 228.592 C 569.735 234.481 564.191 240.271 557.975 245.959 L 548.714 254.488 L 548.591 253.882 C 548.468 253.474 548.348 253.474 548.225 253.882 L 548.105 254.488 L 547.982 254.794 L 547.799 255.097 L 547.493 255.097 L 547.373 255.403 L 547.19 255.709 L 547.007 255.829 L 546.884 256.012 L 546.764 256.198 L 546.578 256.318 L 546.395 256.441 L 546.278 256.624 L 545.666 256.804 L 545.057 256.927 L 545.057 255.709 L 545.666 255.586 L 546.278 255.403 L 546.152 255.22 L 545.972 255.097 L 545.789 254.488 C 545.705 254.083 545.87 253.882 546.278 253.882 C 546.68 253.882 546.926 253.678 547.007 253.27 C 547.127 252.865 547.25 251.848 547.373 250.225 L 547.493 247.786 L 546.884 247.666 C 546.479 247.543 545.87 247.423 545.057 247.297 C 544.244 247.216 543.878 246.871 543.959 246.265 L 544.142 245.35 L 543.959 245.227 L 543.839 245.044 L 543.23 244.861 L 542.621 244.738 L 542.621 244.435 L 542.741 244.252 L 542.924 244.129 L 543.107 244.009 L 543.23 243.826 L 543.35 243.643 L 543.533 243.523 L 550.847 236.818 C 555.722 232.351 560.393 227.272 564.86 221.584 C 569.327 215.896 572.375 211.732 574.001 209.092 C 575.627 206.452 576.497 205.03 576.62 204.829 L 576.743 204.523 L 576.866 204.523 C 576.986 204.523 577.109 204.421 577.229 204.217 Z" stroke-width=".5" style="fill: rgb(255, 255, 255);" bx:origin="-13.294 -3.846"/>
  </g>
</svg>