<?xml version="1.0" encoding="utf-8"?>
<svg version="1.1" xmlns="http://www.w3.org/2000/svg">
  <path d="M 351.072 104.689 C 351.072 133.687 328.345 148.185 282.897 148.185 C 275.009 148.185 262.721 147.969 246.032 147.531 C 246.939 125.525 247.398 100.717 247.398 73.101 C 247.398 46.582 246.944 23.958 246.032 5.23 L 262.999 5.23 C 266.214 5.23 271.603 5.121 279.177 4.905 C 286.751 4.689 292.671 4.575 296.927 4.575 C 327.856 4.575 343.318 15.07 343.318 36.051 C 343.318 52.229 335.394 62.935 319.545 68.18 L 319.545 69.819 C 327.99 71.205 335.358 74.646 341.643 80.144 C 347.929 85.657 351.072 93.834 351.072 104.689 Z M 315.15 44.691 C 315.15 31.651 307.329 25.128 291.692 25.128 C 284.499 25.128 278.11 25.674 272.531 26.766 C 273.293 34.129 273.68 46.767 273.68 64.692 C 276.333 64.836 279.125 64.909 282.057 64.909 C 304.119 64.903 315.15 58.169 315.15 44.691 Z M 322.796 105.895 C 322.796 91.397 310.616 84.142 286.246 84.142 C 281.429 84.142 277.276 84.328 273.788 84.688 C 273.788 99.918 274.102 113.943 274.731 126.767 C 277.101 127.354 280.661 127.643 285.411 127.643 C 298.328 127.643 307.788 126.025 313.79 122.779 C 319.793 119.533 322.796 113.907 322.796 105.895 Z" style="fill: rgb(255, 255, 255);"/>
  <path d="M 479.256 104.689 C 479.256 133.687 456.529 148.185 411.081 148.185 C 403.193 148.185 390.905 147.969 374.221 147.531 C 375.128 125.525 375.582 100.717 375.582 73.101 C 375.582 46.582 375.128 23.958 374.221 5.23 L 391.183 5.23 C 394.393 5.23 399.787 5.121 407.361 4.905 C 414.94 4.689 420.855 4.575 425.111 4.575 C 456.04 4.575 471.502 15.07 471.502 36.051 C 471.502 52.229 463.583 62.935 447.734 68.18 L 447.734 69.819 C 456.184 71.205 463.547 74.646 469.832 80.144 C 476.113 85.657 479.256 93.834 479.256 104.689 Z M 443.334 44.691 C 443.334 31.651 435.513 25.128 419.876 25.128 C 412.683 25.128 406.294 25.674 400.709 26.766 C 401.477 34.129 401.863 46.767 401.863 64.692 C 404.517 64.836 407.309 64.909 410.241 64.909 C 432.303 64.903 443.334 58.169 443.334 44.691 Z M 450.98 105.895 C 450.98 91.397 438.795 84.142 414.435 84.142 C 409.618 84.142 405.46 84.328 401.972 84.688 C 401.972 99.918 402.286 113.943 402.914 126.767 C 405.285 127.354 408.845 127.643 413.595 127.643 C 426.512 127.643 435.972 126.025 441.974 122.779 C 447.976 119.533 450.98 113.907 450.98 105.895 Z" style="fill: rgb(255, 255, 255);"/>
  <path d="M 600 121.63 L 598.217 146.768 C 588.299 149.241 578.53 150.483 568.896 150.483 C 544.953 150.483 526.709 143.584 514.178 129.771 C 501.643 115.963 495.383 99.187 495.383 79.438 C 495.383 58.968 502.034 41.151 515.332 25.993 C 528.63 10.84 546.875 3.261 570.05 3.261 C 578.566 3.261 586.635 4.282 594.24 6.322 L 590.576 31.568 C 582.333 28.796 574.445 27.415 566.907 27.415 C 552.733 27.415 542.191 32.099 535.277 41.461 C 528.363 50.822 524.91 62.209 524.91 75.615 C 524.91 89.315 529.007 101.191 537.219 111.243 C 545.422 121.3 556.922 126.329 571.719 126.329 C 580.385 126.329 589.809 124.768 600 121.63 Z" style="fill: rgb(255, 255, 255);"/>
  <path d="M 275.637 220.451 L 259.186 173.596 C 259.093 173.385 258.908 173.179 258.537 173.179 C 258.166 173.179 257.707 173.457 257.707 173.88 L 257.707 220.451 L 250.036 220.451 L 250.036 169.124 L 264.179 169.124 L 278.595 208.982 C 278.78 209.399 279.059 209.611 279.429 209.611 C 279.986 209.611 280.45 209.327 280.537 208.91 L 294.588 169.119 L 308.916 169.119 L 308.916 220.446 L 301.244 220.446 L 301.244 174.158 C 301.244 173.735 300.873 173.524 300.595 173.524 C 300.224 173.524 299.853 173.663 299.673 174.019 L 283.407 220.451 L 275.637 220.451 Z" style="fill: rgb(255, 255, 255);"/>
  <path d="M 327.856 215.907 L 333.585 215.907 L 333.585 173.807 L 327.856 173.807 L 327.856 169.124 L 349.207 169.124 L 349.207 173.807 L 343.199 173.807 L 343.199 215.907 L 349.207 215.907 L 349.207 220.451 L 327.856 220.451 L 327.856 215.907 Z" style="fill: rgb(255, 255, 255);"/>
  <path d="M 396.706 184.024 C 395.964 179.052 392.826 174.58 385.433 174.58 C 378.683 174.58 375.819 178.563 374.345 181.294 C 371.851 185.91 371.568 193.041 371.568 193.608 C 371.568 204.865 374.252 215.84 385.433 215.84 C 390.796 215.84 393.568 212.908 394.398 211.924 C 396.242 209.544 396.613 206.607 396.799 204.932 L 406.042 206.19 C 405.671 210.244 403.734 214.65 399.669 217.726 C 393.846 222.131 387.19 222.131 384.603 222.131 C 379.054 222.131 362.33 219.962 362.33 195.277 C 362.33 183.458 366.302 168.495 385.433 168.495 C 389.776 168.495 395.418 169.469 399.576 172.689 C 404.197 176.25 405.12 180.31 405.583 182.757 L 396.706 184.024 Z" style="fill: rgb(255, 255, 255);"/>
  <path d="M 424.065 169.124 L 444.952 169.124 C 463.902 169.124 467.967 177.795 467.967 183.04 C 467.967 192.685 459.559 195.277 453.458 196.74 L 471.203 220.451 L 460.115 220.451 L 444.03 197.657 L 433.586 197.657 L 433.586 220.451 L 424.065 220.451 L 424.065 169.124 Z M 433.493 175.137 L 433.493 192.134 C 438.666 192.206 445.323 192.206 448.832 191.64 C 452.536 191.011 458.353 189.543 458.353 183.808 C 458.353 177.79 453 175.132 442.829 175.132 L 433.493 175.132 Z" style="fill: rgb(255, 255, 255);"/>
  <path d="M 523.138 180.804 C 525.173 185.349 525.725 191.361 525.725 194.932 C 525.725 207.169 521.196 221.992 502.895 221.992 C 486.258 221.992 479.972 209.333 479.972 195.627 C 479.972 187.796 481.642 180.665 485.521 175.982 C 491.163 169.129 497.902 168.361 502.895 168.361 C 514.359 168.356 520.366 174.647 523.138 180.804 Z M 503.085 174.508 C 497.263 174.508 493.662 177.584 491.719 182.412 C 490.421 185.488 489.684 190.032 489.684 195.411 C 489.684 201.924 490.88 215.623 502.714 215.623 C 512.323 215.623 516.018 208.142 516.018 195.133 C 516.023 188.352 515.193 174.508 503.085 174.508 Z" style="fill: rgb(255, 255, 255);"/>
  <circle cx="9.599" cy="9.599" r="9.599" style="fill: rgb(255, 255, 255);"/>
  <circle cx="34.933" cy="9.599" r="9.599" style="fill: rgb(255, 255, 255);"/>
  <circle cx="60.266" cy="9.599" r="9.599" style="fill: rgb(255, 255, 255);" transform="matrix(0.999999, 0, 0, 1, 0.000048, 0)"/>
  <circle cx="85.605" cy="9.599" r="9.599" style="fill: rgb(255, 255, 255);" transform="matrix(1.000001, 0, 0, 1, -0.000068, 0)"/>
  <circle cx="110.939" cy="9.599" r="9.599" style="fill: rgb(255, 255, 255);" transform="matrix(1.000001, 0, 0, 1, -0.000088, 0)"/>
  <circle cx="136.273" cy="9.599" r="9.599" style="fill: rgb(255, 255, 255);"/>
  <circle cx="161.607" cy="9.599" r="9.599" style="fill: rgb(255, 255, 255);"/>
  <circle cx="186.941" cy="9.599" r="9.599" style="fill: rgb(255, 255, 255);"/>
  <circle cx="212.274" cy="9.599" r="9.599" style="fill: rgb(255, 255, 255);"/>
  <circle cx="22.098" cy="24.102" r="9.599" style="fill: rgb(255, 255, 255);"/>
  <circle cx="98.105" cy="24.102" r="9.599" style="fill: rgb(255, 255, 255);" transform="matrix(1.000001, 0, 0, 1, -0.000078, 0.000002)"/>
  <circle cx="123.439" cy="24.102" r="9.599" style="fill: rgb(255, 255, 255);"/>
  <circle cx="199.44" cy="24.102" r="9.599" style="fill: rgb(255, 255, 255);"/>
  <circle cx="9.599" cy="38.168" r="9.599" style="fill: rgb(255, 255, 255);"/>
  <circle cx="60.266" cy="38.168" r="9.599" style="fill: rgb(255, 255, 255);" transform="matrix(0.999999, 0, 0, 1, 0.000048, 0)"/>
  <circle cx="110.939" cy="38.168" r="9.599" style="fill: rgb(255, 255, 255);" transform="matrix(1.000001, 0, 0, 1, -0.000088, 0)"/>
  <circle cx="161.607" cy="38.168" r="9.599" style="fill: rgb(255, 255, 255);"/>
  <circle cx="212.274" cy="38.168" r="9.599" style="fill: rgb(255, 255, 255);"/>
  <circle cx="47.432" cy="52.677" r="9.599" style="fill: rgb(255, 255, 255);"/>
  <circle cx="72.771" cy="52.677" r="9.599" style="fill: rgb(255, 255, 255);" transform="matrix(0.999999, 0, 0, 1, 0.000058, 0)"/>
  <circle cx="148.772" cy="52.677" r="9.599" style="fill: rgb(255, 255, 255);" transform="matrix(1.000002, 0, 0, 1, -0.000236, 0)"/>
  <circle cx="174.106" cy="52.677" r="9.599" style="fill: rgb(255, 255, 255);" transform="matrix(0.999998, 0, 0, 1, 0.000277, 0)"/>
  <circle cx="9.599" cy="66.068" r="9.599" style="fill: rgb(255, 255, 255);"/>
  <circle cx="60.266" cy="66.068" r="9.599" style="fill: rgb(255, 255, 255);" transform="matrix(0.999999, 0, 0, 1, 0.000048, 0.000026)"/>
  <circle cx="161.607" cy="66.068" r="9.599" style="fill: rgb(255, 255, 255);"/>
  <circle cx="212.274" cy="66.068" r="9.599" style="fill: rgb(255, 255, 255);"/>
  <circle cx="22.098" cy="80.577" r="9.599" style="fill: rgb(255, 255, 255);"/>
  <circle cx="98.105" cy="80.577" r="9.599" style="fill: rgb(255, 255, 255);" transform="matrix(1.000001, 0, 0, 1, -0.000078, 0)"/>
  <circle cx="123.439" cy="80.577" r="9.599" style="fill: rgb(255, 255, 255);"/>
  <circle cx="199.44" cy="80.577" r="9.599" style="fill: rgb(255, 255, 255);"/>
  <circle cx="1.863" cy="26.544" r="1.863" style="fill: rgb(255, 255, 255);" transform="matrix(5.152293, 0, 0, 5.152288, 0, -42.125008)"/>
  <circle cx="6.78" cy="26.544" r="1.863" style="fill: rgb(255, 255, 255);" transform="matrix(5.152293, 0, 0, 5.152288, 0, -42.125008)"/>
  <circle cx="21.532" cy="26.544" r="1.863" style="fill: rgb(255, 255, 255);" transform="matrix(5.152293, 0, 0, 5.152288, 0, -42.125008)"/>
  <circle cx="36.283" cy="26.544" r="1.863" style="fill: rgb(255, 255, 255);" transform="matrix(5.152293, 0, 0, 5.152288, 0, -42.125008)"/>
  <circle cx="41.2" cy="26.544" r="1.863" style="fill: rgb(255, 255, 255);" transform="matrix(5.152293, 0, 0, 5.152288, 0, -42.125008)"/>
  <circle cx="4.289" cy="29.36" r="1.863" style="fill: rgb(255, 255, 255);" transform="matrix(5.152293, 0, 0, 5.152298, 0, -42.125298)"/>
  <circle cx="9.206" cy="29.36" r="1.863" style="fill: rgb(255, 255, 255);" transform="matrix(5.152293, 0, 0, 5.152298, 0, -42.125298)"/>
  <circle cx="14.124" cy="29.36" r="1.863" style="fill: rgb(255, 255, 255);" transform="matrix(5.152293, 0, 0, 5.152298, 0, -42.125298)"/>
  <circle cx="19.041" cy="29.36" r="1.863" style="fill: rgb(255, 255, 255);" transform="matrix(5.152293, 0, 0, 5.152298, 0, -42.125298)"/>
  <circle cx="23.958" cy="29.36" r="1.863" style="fill: rgb(255, 255, 255);" transform="matrix(5.152293, 0, 0, 5.152298, 0, -42.125298)"/>
  <circle cx="28.875" cy="29.36" r="1.863" style="fill: rgb(255, 255, 255);" transform="matrix(5.152293, 0, 0, 5.152298, 0, -42.125298)"/>
  <circle cx="33.792" cy="29.36" r="1.863" style="fill: rgb(255, 255, 255);" transform="matrix(5.152293, 0, 0, 5.152298, 0, -42.125298)"/>
  <circle cx="1.863" cy="32.22" r="1.863" style="fill: rgb(255, 255, 255);" transform="matrix(5.152293, 0, 0, 5.152298, 0, -42.125313)"/>
  <circle cx="6.78" cy="32.22" r="1.863" style="fill: rgb(255, 255, 255);" transform="matrix(5.152293, 0, 0, 5.152298, 0, -42.125313)"/>
  <circle cx="11.697" cy="32.22" r="1.863" style="fill: rgb(255, 255, 255);" transform="matrix(5.152293, 0, 0, 5.152298, 0, -42.125313)"/>
  <circle cx="16.615" cy="32.22" r="1.863" style="fill: rgb(255, 255, 255);" transform="matrix(5.152293, 0, 0, 5.152298, 0, -42.125313)"/>
  <circle cx="21.532" cy="32.22" r="1.863" style="fill: rgb(255, 255, 255);" transform="matrix(5.152293, 0, 0, 5.152298, 0, -42.125313)"/>
  <circle cx="41.2" cy="32.22" r="1.863" style="fill: rgb(255, 255, 255);" transform="matrix(5.152293, 0, 0, 5.152298, 0, -42.125313)"/>
  <circle cx="22.098" cy="138.391" r="9.599" style="fill: rgb(255, 255, 255);"/>
  <circle cx="47.432" cy="138.391" r="9.599" style="fill: rgb(255, 255, 255);"/>
  <circle cx="72.771" cy="138.391" r="9.599" style="fill: rgb(255, 255, 255);" transform="matrix(0.999999, 0, 0, 1, 0.000058, 0)"/>
  <circle cx="98.105" cy="138.391" r="9.599" style="fill: rgb(255, 255, 255);" transform="matrix(1.000001, 0, 0, 1, -0.000078, 0)"/>
  <circle cx="123.439" cy="138.391" r="9.599" style="fill: rgb(255, 255, 255);"/>
  <circle cx="34.933" cy="152.451" r="9.599" style="fill: rgb(255, 255, 255);"/>
  <circle cx="60.266" cy="152.451" r="9.599" style="fill: rgb(255, 255, 255);" transform="matrix(0.999999, 0, 0, 1, 0.000048, 0)"/>
  <circle cx="85.605" cy="152.451" r="9.599" style="fill: rgb(255, 255, 255);" transform="matrix(1.000001, 0, 0, 1, -0.000068, 0)"/>
  <circle cx="110.939" cy="152.451" r="9.599" style="fill: rgb(255, 255, 255);" transform="matrix(1.000001, 0, 0, 1, -0.000088, 0)"/>
  <circle cx="212.274" cy="152.451" r="9.599" style="fill: rgb(255, 255, 255);"/>
  <circle cx="47.432" cy="166.96" r="9.599" style="fill: rgb(255, 255, 255);"/>
  <circle cx="72.771" cy="166.96" r="9.599" style="fill: rgb(255, 255, 255);" transform="matrix(0.999999, 0, 0, 1, 0.000058, 0)"/>
  <circle cx="98.105" cy="166.96" r="9.599" style="fill: rgb(255, 255, 255);" transform="matrix(1.000001, 0, 0, 1, -0.000078, 0)"/>
  <circle cx="123.439" cy="166.96" r="9.599" style="fill: rgb(255, 255, 255);"/>
  <circle cx="60.266" cy="180.356" r="9.599" style="fill: rgb(255, 255, 255);" transform="matrix(0.999999, 0, 0, 1, 0.000048, 0)"/>
  <circle cx="85.605" cy="180.356" r="9.599" style="fill: rgb(255, 255, 255);" transform="matrix(1.000001, 0, 0, 1, -0.000068, 0)"/>
  <circle cx="110.939" cy="180.356" r="9.599" style="fill: rgb(255, 255, 255);" transform="matrix(1.000001, 0, 0, 1, -0.000088, 0)"/>
  <circle cx="136.273" cy="180.356" r="9.599" style="fill: rgb(255, 255, 255);"/>
  <circle cx="212.274" cy="180.356" r="9.599" style="fill: rgb(255, 255, 255);"/>
  <circle cx="72.771" cy="194.86" r="9.599" style="fill: rgb(255, 255, 255);" transform="matrix(0.999999, 0, 0, 0.999998, 0.000058, 0.00031)"/>
  <circle cx="98.105" cy="194.86" r="9.599" style="fill: rgb(255, 255, 255);" transform="matrix(1.000001, 0, 0, 0.999998, -0.000078, 0.00031)"/>
  <circle cx="123.439" cy="194.86" r="9.599" style="fill: rgb(255, 255, 255);" transform="matrix(1, 0, 0, 0.999998, 0, 0.00031)"/>
  <circle cx="148.772" cy="194.86" r="9.599" style="fill: rgb(255, 255, 255);" transform="matrix(1.000002, 0, 0, 0.999998, -0.000236, 0.00031)"/>
  <circle cx="85.605" cy="208.925" r="9.599" style="fill: rgb(255, 255, 255);" transform="matrix(1.000001, 0, 0, 1, -0.000068, 0)"/>
  <circle cx="110.939" cy="208.925" r="9.599" style="fill: rgb(255, 255, 255);" transform="matrix(1.000001, 0, 0, 1, -0.000088, 0)"/>
  <circle cx="136.273" cy="208.925" r="9.599" style="fill: rgb(255, 255, 255);"/>
  <circle cx="161.607" cy="208.925" r="9.599" style="fill: rgb(255, 255, 255);"/>
  <circle cx="212.274" cy="208.925" r="9.599" style="fill: rgb(255, 255, 255);"/>
  <circle cx="98.105" cy="223.429" r="9.599" style="fill: rgb(255, 255, 255);" transform="matrix(1.000001, 0, 0, 0.999998, -0.000078, 0.000355)"/>
  <circle cx="148.772" cy="223.429" r="9.599" style="fill: rgb(255, 255, 255);" transform="matrix(1.000002, 0, 0, 0.999998, -0.000236, 0.000355)"/>
  <circle cx="174.106" cy="223.429" r="9.599" style="fill: rgb(255, 255, 255);" transform="matrix(0.999998, 0, 0, 0.999998, 0.000277, 0.000355)"/>
  <circle cx="85.605" cy="237.567" r="9.599" style="fill: rgb(255, 255, 255);" transform="matrix(1.000001, 0, 0, 0.999998, -0.000068, 0.000378)"/>
  <circle cx="136.273" cy="237.567" r="9.599" style="fill: rgb(255, 255, 255);" transform="matrix(1, 0, 0, 0.999998, 0, 0.000378)"/>
  <circle cx="186.941" cy="237.567" r="9.599" style="fill: rgb(255, 255, 255);" transform="matrix(1, 0, 0, 0.999998, 0, 0.000378)"/>
  <circle cx="212.274" cy="237.567" r="9.599" style="fill: rgb(255, 255, 255);" transform="matrix(1, 0, 0, 0.999998, 0, 0.000378)"/>
  <circle cx="22.098" cy="252.081" r="9.599" style="fill: rgb(255, 255, 255);" transform="matrix(1, 0, 0, 0.999998, 0.000004, 0.000401)"/>
  <circle cx="47.432" cy="252.081" r="9.599" style="fill: rgb(255, 255, 255);" transform="matrix(1, 0, 0, 0.999998, 0, 0.000401)"/>
  <circle cx="72.771" cy="252.081" r="9.599" style="fill: rgb(255, 255, 255);" transform="matrix(0.999999, 0, 0, 0.999998, 0.000058, 0.000401)"/>
  <circle cx="98.105" cy="252.081" r="9.599" style="fill: rgb(255, 255, 255);" transform="matrix(1.000001, 0, 0, 0.999998, -0.000078, 0.000401)"/>
  <circle cx="123.439" cy="252.081" r="9.599" style="fill: rgb(255, 255, 255);" transform="matrix(1, 0, 0, 0.999998, 0, 0.000401)"/>
  <circle cx="148.772" cy="252.081" r="9.599" style="fill: rgb(255, 255, 255);" transform="matrix(1.000002, 0, 0, 0.999998, -0.000236, 0.000401)"/>
  <circle cx="199.44" cy="252.081" r="9.599" style="fill: rgb(255, 255, 255);" transform="matrix(1, 0, 0, 0.999998, 0, 0.000401)"/>
  <circle cx="212.274" cy="266.137" r="9.599" style="fill: rgb(255, 255, 255);"/>
</svg>