<?xml version="1.0" encoding="utf-8"?>
<svg version="1.0" xmlns="http://www.w3.org/2000/svg">
  <g>
    <path d="M 104.061 181.851 C 88.608 180.51 71.709 173.81 58.005 163.614 C 49.248 157.122 43.789 151.662 36.678 141.873 C 30.087 133.01 23.697 118.176 23.697 111.995 C 23.697 109.935 22.668 108.594 19.884 106.739 C 6.696 98.084 0 93.141 0 92.007 C 0 91.286 5.049 87.473 11.232 83.453 L 22.461 76.143 L 24.729 69.131 C 27.303 61.406 35.235 44.51 37.605 41.936 C 38.43 41.007 39.153 39.669 39.153 39.05 C 39.153 37.194 58.83 17.723 63.879 14.528 C 81.393 3.605 96.127 -0.001 119.928 1.031 C 138.783 1.752 151.557 6.077 166.086 16.382 C 172.575 21.017 183.393 31.836 185.454 35.751 C 187.308 39.254 184.629 39.152 179.994 35.444 C 171.856 28.953 163.407 24.521 150.94 20.196 C 144.654 18.029 141.874 17.723 128.788 17.723 C 115.702 17.723 112.924 18.029 106.635 20.196 C 79.848 29.262 62.026 47.601 55.017 72.944 C 52.443 82.22 52.443 101.792 55.017 111.48 C 60.48 132.189 75.315 149.601 94.479 157.946 C 106.947 163.301 113.847 164.85 127.035 165.363 C 139.195 165.776 140.943 165.569 149.187 162.995 C 163.509 158.565 172.99 153.105 183.084 143.624 C 194.107 133.22 189.06 145.17 177.315 157.224 C 166.498 168.248 157.429 174.018 143.418 178.551 C 136.722 180.819 119.721 183.294 114.364 182.777 C 113.538 182.675 108.9 182.259 104.061 181.851 Z" style="fill: rgb(255, 255, 255);"/>
    <path d="M 161.757 143.729 C 154.957 140.124 153.517 139.709 148.261 140.022 C 144.963 140.124 142.08 140.022 141.772 139.709 C 141.459 139.4 143.212 134.558 145.687 129.095 L 150.219 119.001 L 145.789 114.569 C 135.28 103.752 137.854 89.226 152.484 76.862 C 155.367 74.387 159.387 69.855 161.344 66.972 C 163.302 63.983 165.259 61.508 165.57 61.508 C 165.981 61.508 167.424 62.642 168.867 63.983 C 172.266 67.176 177.828 68.619 181.95 67.484 C 183.808 67.074 186.897 64.91 188.854 62.849 C 191.946 59.759 192.667 59.346 193.182 60.789 C 194.418 63.776 191.533 74.285 187.926 80.262 C 185.97 83.453 184.425 86.339 184.425 86.649 C 184.425 87.059 185.97 88.709 187.824 90.254 C 196.272 97.775 197.818 107.667 192.357 119.517 C 187.516 129.819 173.502 148.158 170.617 147.951 C 170.001 147.951 165.981 146.099 161.757 143.729 Z M 181.23 122.813 C 181.23 111.068 174.945 103.548 166.911 105.812 C 162.993 106.946 158.151 111.171 155.883 115.497 C 154.134 118.898 154.545 119.415 160.725 121.163 C 165.876 122.606 177.726 128.891 178.86 130.745 C 179.994 132.6 181.23 128.688 181.23 122.813 Z M 173.092 98.601 C 174.535 97.571 176.697 94.889 178.035 92.624 L 180.405 88.4 L 176.802 89.019 C 171.648 89.843 166.086 87.578 160.521 82.322 L 155.577 77.688 L 154.032 81.498 C 152.176 85.928 153.102 90.977 156.915 96.644 C 160.419 101.897 167.217 102.722 173.092 98.601 Z" style="fill: rgb(255, 255, 255);"/>
    <path d="M 208.636 141.873 C 206.061 138.473 202.557 134.97 200.806 134.147 C 197.304 132.291 197.094 131.466 199.878 128.993 C 201.838 127.245 201.94 125.802 201.94 105.093 C 201.94 84.692 201.838 83.046 200.187 83.351 C 195.759 84.072 196.068 82.01 201.219 76.655 C 207.298 70.37 211.416 62.744 215.331 50.175 C 217.086 44.51 218.526 41.417 219.558 41.417 C 220.689 41.417 221.103 44.201 221.308 56.565 L 221.62 71.711 L 228.007 72.018 L 234.394 72.33 L 234.394 77.993 L 234.394 83.66 L 227.905 83.97 L 221.515 84.279 L 221.722 105.605 L 222.03 126.933 L 226.356 126.933 C 228.726 126.933 230.994 127.245 231.3 127.652 C 232.126 128.478 215.643 148.056 214.2 148.056 C 213.787 148.056 211.213 145.275 208.636 141.873 Z" style="fill: rgb(255, 255, 255);"/>
    <path d="M 253.042 146.303 C 252.114 145.275 248.923 141.567 245.727 138.161 C 240.783 132.705 240.264 131.675 241.605 130.538 C 242.946 129.407 243.15 124.151 243.15 93.039 L 243.15 56.772 L 239.133 48.84 C 236.868 44.51 235.425 40.698 236.044 40.388 C 237.483 39.462 238.926 40.698 241.192 45.332 L 243.357 49.559 L 244.903 46.469 C 248.716 39.05 255.514 34.518 264.892 33.177 C 271.381 32.249 271.896 33.794 266.847 38.843 L 262.728 42.965 L 262.932 86.547 L 263.242 130.026 L 266.331 130.334 C 272.722 130.953 272.62 131.364 265.2 138.885 C 256.338 147.849 255 148.673 253.042 146.303 Z" style="fill: rgb(255, 255, 255);"/>
    <path d="M 342.061 141.669 C 339.487 139.502 334.231 135.587 330.417 132.908 C 323.925 128.583 323.515 128.066 324.958 126.521 C 326.296 124.976 326.607 121.574 326.607 107.256 L 326.607 89.843 L 322.998 84.794 C 318.568 78.615 318.466 76.143 322.483 69.341 C 326.607 62.127 336.187 51.618 337.732 52.65 C 339.487 53.678 339.175 61.614 337.425 63.983 C 335.056 67.074 335.569 68.927 339.999 74.904 L 344.122 80.465 L 344.224 99.528 L 344.224 118.691 L 349.48 122.708 L 354.835 126.728 L 358.753 122.196 C 361.018 119.619 363.387 115.395 364.315 112.304 C 365.757 107.361 365.757 106.326 364.21 100.454 C 363.282 96.849 359.989 88.709 356.898 82.322 C 353.701 76.038 351.33 70.166 351.642 69.341 C 351.952 68.619 354.012 67.484 356.176 66.972 C 358.339 66.353 365.859 64.188 372.868 62.127 C 381.726 59.451 385.951 58.625 386.673 59.346 C 387.394 60.065 385.434 62.849 380.388 68.103 L 372.97 75.728 L 375.544 79.643 C 382.243 89.535 382.345 106.02 375.646 117.042 C 372.145 122.708 359.059 136.209 350.818 142.596 L 346.696 145.788 L 342.061 141.669 Z" style="fill: rgb(255, 255, 255);"/>
    <path d="M 390.792 141.152 C 387.085 137.649 385.332 135.075 384.817 132.6 C 384.508 130.643 384.303 117.765 384.508 104.06 L 384.817 79.232 L 387.394 76.449 C 388.837 74.904 393.162 72.12 397.077 70.166 C 401.097 68.208 406.66 64.497 409.648 62.025 C 412.636 59.451 415.42 57.389 415.933 57.389 C 416.347 57.389 419.023 59.654 421.702 62.438 C 424.486 65.219 429.43 68.927 432.829 70.785 C 440.041 74.594 440.662 75.317 437.98 77.171 C 434.377 79.745 433.758 83.66 433.758 104.162 C 433.758 125.802 434.17 127.347 439.321 126.006 C 440.764 125.7 442.105 125.802 442.411 126.213 C 442.72 126.728 439.011 131.262 434.17 136.311 L 425.311 145.479 L 421.291 140.843 C 419.023 138.266 416.449 134.453 415.521 132.291 L 413.872 128.274 L 404.91 137.237 L 395.943 146.099 L 390.792 141.152 Z M 411.4 124.563 C 412.944 123.225 413.151 120.753 413.151 102.309 L 413.046 81.603 L 408.514 77.688 L 403.875 73.77 L 403.875 99.32 C 403.875 116.94 404.29 125.387 405.012 126.108 C 406.353 127.449 408.721 126.83 411.4 124.563 Z" style="fill: rgb(255, 255, 255);"/>
    <path d="M 91.386 141.771 C 85.516 136.928 84.28 133.527 83.559 120.96 L 82.939 109.829 L 76.86 106.536 C 73.563 104.679 70.782 102.722 70.782 102.207 C 70.782 101.588 73.563 99.837 77.064 98.084 C 82.939 95.201 83.352 94.788 83.454 91.388 C 83.661 84.692 85.206 78.921 87.678 76.347 C 88.914 75.006 92.934 72.432 96.438 70.785 C 99.94 69.131 105.399 65.631 108.594 63.054 C 111.787 60.48 114.57 58.418 114.981 58.418 C 115.29 58.418 117.969 60.48 120.754 63.054 C 123.637 65.631 128.683 69.444 131.982 71.399 L 138.06 75.213 L 135.483 78.2 C 132.909 81.189 132.909 81.396 132.909 102.309 C 132.909 124.461 133.527 128.066 137.028 126.933 C 141.255 125.595 139.914 128.891 133.218 136.209 C 129.405 140.43 125.697 143.934 125.079 143.934 C 123.327 143.934 118.071 137.649 115.806 132.806 C 114.774 130.436 113.538 128.688 113.128 128.79 C 112.818 128.891 110.449 130.851 107.976 133.115 C 105.504 135.485 101.691 138.987 99.321 141.152 L 95.199 144.86 L 91.386 141.771 Z M 110.862 125.183 L 113.847 122.813 L 113.538 102.309 L 113.334 81.806 L 108.285 76.964 L 103.236 72.12 L 103.134 98.804 C 103.032 113.438 103.236 125.904 103.545 126.419 C 104.577 128.169 107.667 127.551 110.862 125.183 Z" style="fill: rgb(255, 255, 255);"/>
    <path d="M 291.576 141.771 C 280.141 134.147 274.063 124.049 274.063 112.716 C 274.063 108.386 273.649 107.667 269.424 104.162 C 266.847 102.105 264.787 100.044 264.787 99.528 C 264.787 99.116 266.847 97.469 269.424 95.925 C 273.027 93.86 274.063 92.624 274.063 90.567 C 274.063 89.019 274.783 85.209 275.607 82.115 C 277.356 75.213 282.715 70.061 293.329 64.704 C 297.139 62.744 301.57 60.276 303.114 59.241 L 306 57.284 L 307.957 60.48 C 308.989 62.228 312.387 68.619 315.376 74.594 L 320.836 85.413 L 318.262 87.681 C 316.819 88.811 310.636 93.965 304.659 98.909 C 298.582 103.857 293.635 108.696 293.635 109.523 C 293.635 111.171 296.829 117.659 298.992 120.342 C 302.395 124.563 310.12 126.521 314.449 124.257 C 315.787 123.534 316.921 123.534 317.538 124.151 C 318.568 125.183 299.923 144.243 297.448 144.656 C 296.724 144.86 294.15 143.522 291.576 141.771 Z M 300.127 96.332 L 304.144 92.934 L 299.508 82.424 C 292.297 66.353 292.707 66.146 292.605 84.998 C 292.605 103.857 292.192 103.235 300.127 96.332 Z" style="fill: rgb(255, 255, 255);"/>
    <path d="M 550.489 140.636 C 548.119 138.161 545.647 134.868 545.131 133.322 C 543.382 128.688 543.688 83.868 545.443 79.643 C 546.886 76.143 550.696 73.359 560.482 68.619 C 563.575 67.074 568.213 63.983 570.787 61.719 L 575.422 57.593 L 581.917 63.671 C 585.418 66.972 590.158 70.679 592.423 71.813 C 597.472 74.387 598.399 75.83 595.926 77.688 C 594.073 79.023 593.968 80.675 593.968 102.516 L 593.968 125.904 L 596.545 126.213 C 597.988 126.419 599.533 126.933 599.944 127.449 C 600.46 127.862 597.37 131.879 593.041 136.311 L 585.313 144.45 L 581.707 140.843 C 579.649 138.885 576.865 135.177 575.527 132.498 L 573.157 127.652 L 564.502 136.311 C 559.762 141.047 555.643 144.962 555.334 144.962 C 555.022 144.962 552.756 143.007 550.489 140.636 Z M 570.787 125.183 L 573.877 122.915 L 573.877 102.002 C 573.877 90.462 573.466 81.086 573.052 81.086 C 572.641 81.086 570.271 79.232 567.901 76.964 L 563.575 72.74 L 563.575 100.145 C 563.575 126.933 563.575 127.449 565.636 127.449 C 566.872 127.449 569.14 126.419 570.787 125.183 Z" style="fill: rgb(255, 255, 255);"/>
    <path d="M 487.024 139.604 C 480.328 131.466 480.121 130.232 480.121 102.722 C 480.121 81.086 479.914 77.891 478.474 77.274 C 477.646 76.964 475.588 77.583 474.145 78.717 L 471.361 80.777 L 471.055 103.235 C 470.848 118.898 471.157 126.108 471.982 127.038 C 472.909 128.169 472.288 129.305 468.993 132.498 C 466.623 134.766 464.049 138.059 463.12 139.709 C 462.295 141.462 461.265 142.902 460.957 142.902 C 460.75 142.902 457.248 139.709 453.33 135.794 C 446.428 128.891 446.326 128.688 448.284 126.83 C 450.139 125.183 450.241 123.534 450.241 102.516 C 450.241 79.232 449.728 75.933 446.122 75.933 C 445.09 75.933 443.854 75.419 443.545 74.904 C 442.825 73.668 457.144 57.389 458.896 57.389 C 461.47 57.389 467.653 65.219 468.993 70.061 C 469.612 72.74 470.538 74.904 470.953 74.904 C 471.259 74.904 472.393 73.875 473.527 72.74 C 474.556 71.504 478.987 67.586 483.418 63.983 L 491.247 57.491 L 493.926 60.893 C 495.369 62.849 498.46 66.251 500.932 68.517 L 505.261 72.638 L 502.477 75.933 L 499.696 79.232 L 499.696 100.971 C 499.696 113.025 500.212 123.534 500.728 124.359 C 501.241 125.183 502.684 125.904 503.92 125.904 C 505.159 125.904 506.392 126.419 506.599 126.933 C 506.806 127.551 503.302 131.675 498.769 136.104 L 490.735 144.141 L 487.024 139.604 Z" style="fill: rgb(255, 255, 255);"/>
    <path d="M 521.128 139.604 C 514.225 130.538 514.12 130.026 514.12 100.869 C 514.12 74.285 514.12 74.078 511.852 72.534 C 509.485 70.989 509.485 70.989 516.799 63.569 L 524.115 56.15 L 530.914 62.952 C 534.727 66.659 537.82 70.061 537.82 70.472 C 537.82 70.989 536.89 72.12 535.756 73.154 C 533.797 74.802 533.695 76.143 533.695 98.394 C 533.695 123.12 533.902 124.359 538.329 124.359 C 539.569 124.359 540.91 124.668 541.321 125.078 C 541.939 125.802 525.661 142.902 524.32 142.902 C 523.906 142.902 522.466 141.357 521.128 139.604 Z" style="fill: rgb(255, 255, 255);"/>
    <path d="M 521.023 49.971 C 519.583 47.397 517.108 44.51 515.665 43.584 C 514.225 42.656 513.091 41.522 513.091 41.007 C 513.091 40.493 515.665 37.4 518.757 34.206 L 524.425 28.439 L 530.502 34.413 L 536.581 40.493 L 532.768 44.096 C 530.707 46.056 527.928 49.247 526.381 51.207 L 523.804 54.707 L 521.023 49.971 Z" style="fill: rgb(255, 255, 255);"/>
  </g>
</svg>