<?xml version="1.0" encoding="utf-8"?>
<svg version="1.1" xmlns="http://www.w3.org/2000/svg">
  <path d="M 516.746 107.505 C 499.804 107.502 483.386 104.795 475.485 103.16 L 475.485 103.16 C 471.421 102.326 467.584 100.917 464.539 97.792 L 464.539 97.792 C 461.496 94.671 459.427 90.054 458.314 83.237 L 458.314 83.237 C 457.176 76.234 456.508 62.832 456.504 49.692 L 456.504 49.692 C 456.519 37.207 457.092 25.18 458.619 18.995 L 458.619 18.995 C 459.41 15.809 460.773 12.875 463.071 10.396 L 463.071 10.396 C 465.366 7.915 468.528 5.939 472.758 4.419 L 472.758 4.419 C 481.227 1.387 494.069 0.01 514.328 0 L 514.328 0 L 542.183 0 C 557.375 0.001 568.4 0.791 576.529 2.45 L 576.529 2.45 C 584.644 4.109 589.975 6.667 593.436 10.396 L 593.436 10.396 C 595.734 12.875 597.098 15.809 597.89 18.995 L 597.89 18.995 C 599.415 25.18 599.986 37.207 600 49.692 L 600 49.692 C 599.996 62.832 599.327 76.236 598.192 83.237 L 598.192 83.237 C 597.08 90.054 595.01 94.671 591.967 97.792 L 591.967 97.792 C 588.922 100.917 585.087 102.325 581.023 103.16 L 581.023 103.16 C 573.121 104.794 556.705 107.502 539.761 107.505 L 539.761 107.505 L 539.761 105.49 L 539.761 103.473 C 556.275 103.476 572.519 100.806 580.204 99.214 L 580.204 99.214 C 583.935 98.437 586.817 97.294 589.08 94.975 L 589.08 94.975 C 591.343 92.656 593.172 88.942 594.212 82.587 L 594.212 82.587 C 595.28 76.073 595.972 62.658 595.966 49.692 L 595.966 49.692 C 595.978 37.405 595.326 25.3 593.978 19.973 L 593.978 19.973 C 593.291 17.246 592.234 15.041 590.476 13.135 L 590.476 13.135 C 588.714 11.233 586.184 9.582 582.383 8.212 L 582.383 8.212 C 574.794 5.465 562.237 4.02 542.181 4.031 L 542.181 4.031 L 514.326 4.031 C 499.279 4.03 488.458 4.828 480.782 6.4 L 480.782 6.4 C 473.088 7.972 468.655 10.289 466.029 13.135 L 466.029 13.135 C 464.27 15.041 463.215 17.246 462.527 19.973 L 462.527 19.973 C 461.177 25.302 460.522 37.405 460.537 49.692 L 460.537 49.692 C 460.532 62.657 461.223 76.072 462.294 82.587 L 462.294 82.587 C 463.332 88.943 465.162 92.656 467.424 94.975 L 467.424 94.975 C 469.69 97.294 472.571 98.437 476.3 99.214 L 476.3 99.214 C 483.988 100.804 500.231 103.476 516.745 103.473 L 516.745 103.473 L 539.762 103.473 L 539.762 105.49 L 539.762 107.505 L 516.746 107.505 L 516.746 107.505 Z" style="fill: rgb(255, 255, 255);"/>
  <polygon points="504.134 11.49 504.134 96.151 524.156 96.151 524.156 64.034 552.376 64.034 552.376 46.161 524.156 46.161 524.156 29.363 552.109 29.363 552.109 11.356" style="fill: rgb(255, 255, 255);"/>
  <path d="M 128.385 82.704 L 128.385 14.983 L 109.035 14.983 L 109.035 44.807 L 85.661 44.807 L 85.661 14.983 L 65.503 14.983 L 65.503 93.185 L 85.661 93.185 L 85.661 63.353 L 109.841 63.353 L 109.841 93.186 L 144.512 93.186 C 152.929 77.068 153.131 76.464 160.638 63.353 C 166.161 63.425 171.136 63.297 175.949 63.353 L 175.949 93.186 L 196.106 93.186 L 196.106 14.983 L 165.467 14.983 C 152.333 36.786 141.714 61.095 128.385 82.704 Z M 173.732 33.865 L 176.151 33.865 L 176.151 44.339 L 169.7 44.339 C 171.136 40.937 172.413 38.165 173.732 33.865 Z M 0.201 49.646 L 0 54.355 L 0.201 59.321 C 3.733 84.76 28.721 101.538 57.44 91.573 L 57.44 67.384 C 53.392 70.441 48.974 75.343 40.507 75.446 C 11.199 75.792 15.206 34.624 39.702 34.334 C 48.498 34.221 51.853 37.325 57.44 43.195 L 57.44 18.209 C 30.155 6.428 3.25 24.352 0.201 49.646 Z M 250.119 55.289 C 238.864 40.518 230.938 28.956 219.489 14.983 L 202.557 14.983 L 202.557 93.185 L 222.714 93.185 L 222.714 53.677 C 234.527 65.239 241.517 81.632 253.345 93.185 L 270.278 93.185 L 270.278 14.983 L 250.121 14.983 L 250.121 55.289 Z M 420.224 76.253 L 420.224 14.983 L 400.074 14.983 L 400.074 93.185 L 442.8 93.185 L 442.8 76.253 L 420.224 76.253 Z M 350.092 93.185 L 394.431 93.185 L 394.431 75.448 L 371.047 75.448 L 371.047 64.159 L 394.43 64.159 L 394.43 44.808 L 371.047 44.808 L 371.047 33.528 L 394.43 33.528 L 394.43 14.983 L 350.09 14.983 L 350.09 93.185 Z M 323.484 55.289 C 311.293 39.978 304.714 30.303 292.845 14.983 L 275.921 14.983 L 275.921 93.185 L 296.071 93.185 L 296.071 53.677 C 307.803 67.392 314.921 79.083 326.71 93.185 L 343.642 93.185 L 343.642 14.983 L 323.484 14.983 L 323.484 55.289 Z" style="fill: rgb(255, 255, 255);"/>
</svg>