<?xml version="1.0" encoding="utf-8"?>
<svg xmlns="http://www.w3.org/2000/svg">
  <g>
    <path d="M 295.2 91.202 L 295.2 116.003 L 224.8 116.003 C 216.752 116.003 217.203 124.002 224.8 124.002 C 224.8 124.002 255.733 124.002 271.199 124.002 C 307.35 124.002 307.34 177.601 271.199 177.601 C 246.932 177.601 198.4 177.601 198.4 177.601 L 198.4 153.602 C 198.4 153.602 244.799 153.602 267.999 153.602 C 276.33 153.602 275.765 145.602 267.999 145.602 C 253.599 145.602 224.8 145.602 224.8 145.602 C 187.652 145.602 187.783 91.202 224.8 91.202 C 248.266 91.202 295.2 91.202 295.2 91.202 Z M 456.801 91.202 L 539.2 91.202 C 553.989 91.202 567.166 102.685 567.2 118.403 L 567.2 177.602 L 537.6 177.602 L 537.6 126.405 C 537.6 117.858 532.518 116.127 526.398 116.004 L 486.4 116.004 L 486.4 177.602 L 456.799 177.602 L 456.799 91.202 L 456.801 91.202 Z M 379.202 115.297 C 371.336 115.344 368.001 120.283 368.001 126.401 L 368.001 142.402 C 368.001 149.048 373.715 153.601 379.202 153.601 L 412.002 153.601 C 415.893 153.601 422.404 150.968 422.404 142.402 L 422.404 126.401 C 422.404 121.017 419.13 115.062 412.002 115.101 L 379.202 115.297 Z M 368.001 91.202 L 423.202 91.202 C 440.726 91.202 452.001 103.136 452.001 117.6 L 452.001 149.598 C 452.001 172.289 432.396 177.599 423.202 177.599 L 368.001 177.599 C 347.266 177.599 338.401 160.914 338.401 149.598 L 338.401 117.6 C 338.401 99.175 354.89 91.202 368.001 91.202 Z M 303.201 91.202 L 332.801 91.202 L 332.801 177.601 L 303.201 177.601 L 303.201 91.202 Z M 160.799 91.202 L 190.399 91.202 L 190.399 177.601 L 160.799 177.601 L 160.799 91.202 Z M 26.399 91.202 L 59.199 91.202 L 91.198 147.202 L 128.799 91.202 L 155.999 91.202 L 104.799 177.604 L 77.906 177.604 L 26.399 91.202 Z M 290.401 0.001 L 384 0.001 L 384 21.602 L 319.2 21.602 L 319.2 29.602 L 384 29.602 L 384 51.203 L 319.2 51.203 C 319.2 59.144 325.035 62.403 331.199 62.403 L 384 62.403 L 384 85.602 L 316 85.602 C 300.764 85.602 290.289 72.955 290.325 59.203 L 290.401 0.001 Z M 215.199 0.001 L 244 0.001 L 244 51.201 C 244 58.555 249.543 62.476 256 62.4 L 287.201 62.4 L 287.201 85.6 L 242.4 85.6 C 229.68 85.6 215.201 79.883 215.201 59.201 L 215.199 0.001 L 215.199 0.001 Z M 480.802 0 L 416 0 C 397.357 0 389.644 17.149 389.602 26.399 L 389.602 58.398 C 389.602 79.151 406.675 86.519 416 86.399 L 480.802 86.399 L 480.802 62.399 L 431.2 62.399 C 427.669 62.399 419.201 59.786 419.201 51.999 L 419.201 35.2 C 419.201 27.197 425.225 23.999 431.2 23.999 L 480.802 23.999 L 480.802 0 L 480.802 0 Z M 527.201 24.097 C 519.336 24.142 516 29.082 516 35.2 L 516 51.201 C 516 57.848 521.714 62.4 527.201 62.4 L 560.002 62.4 C 563.892 62.4 570.403 59.766 570.403 51.201 L 570.403 35.202 C 570.403 29.821 567.125 23.863 560.002 23.905 L 527.201 24.097 Z M 516 0.001 L 571.203 0.001 C 588.723 0.001 600 11.935 600 26.4 L 600 58.399 C 600 81.09 580.395 86.4 571.203 86.4 L 516 86.4 C 495.267 86.4 486.4 69.716 486.4 58.399 L 486.4 26.4 C 486.401 7.975 502.89 0.001 516 0.001 L 516 0.001 Z M 136.799 24.097 C 128.934 24.143 125.599 29.082 125.599 35.201 L 125.599 51.202 C 125.599 57.849 131.314 62.401 136.799 62.401 L 169.599 62.401 C 173.488 62.401 179.999 59.767 179.999 51.202 L 179.999 35.202 C 179.999 29.821 176.72 23.863 169.599 23.905 L 136.799 24.097 Z M 125.599 0.001 L 180.8 0.001 C 198.32 0.001 209.601 11.935 209.601 26.4 L 209.601 58.399 C 209.601 81.09 189.995 86.4 180.8 86.4 L 125.599 86.4 C 104.865 86.4 96.799 69.716 96.799 58.399 L 96.799 26.4 C 96.799 7.975 112.488 0.001 125.599 0.001 Z M 91.2 0.001 L 26.4 0.001 C 7.755 0.001 0.042 17.15 0 26.4 L 0 58.399 C 0 79.152 17.072 86.52 26.4 86.4 L 91.2 86.4 L 91.2 62.401 L 40.799 62.401 C 37.271 62.401 28.799 59.787 28.799 52.001 L 28.799 35.202 C 28.799 27.2 34.824 24.001 40.799 24.001 L 91.2 24.001 L 91.2 0.001 Z" id="path20" style="fill-opacity: 1; fill: rgb(255, 255, 255);"/>
  </g>
</svg>