<?xml version="1.0" encoding="utf-8"?>
<svg version="1.1" xmlns="http://www.w3.org/2000/svg">
  <g>
    <path d="M 68.607 118.395 L 531.393 118.395 C 543.876 118.395 553.992 128.511 553.992 140.994 L 553.992 144.504 C 553.992 156.981 543.876 167.1 531.393 167.1 L 68.607 167.1 C 56.124 167.1 46.008 156.981 46.008 144.504 L 46.008 140.994 C 46.008 128.511 56.124 118.395 68.607 118.395 Z" style="color: rgb(0, 0, 0); clip-rule: nonzero; display: inline; overflow: visible; visibility: visible; opacity: 1; isolation: auto; mix-blend-mode: normal; color-interpolation: sRGB; color-interpolation-filters: linearRGB; fill-opacity: 1; fill-rule: evenodd; stroke: none; stroke-width: 1px; stroke-linecap: butt; stroke-linejoin: miter; stroke-miterlimit: 4; stroke-dasharray: none; stroke-dashoffset: 0; stroke-opacity: 1; color-rendering: auto; image-rendering: auto; shape-rendering: auto; text-rendering: auto; fill: rgb(20, 20, 20);" id="rect4789"/>
    <path d="M 156 139.149 C 156 140.118 155.832 141.069 155.493 141.999 C 155.154 142.92 154.668 143.694 154.038 144.324 C 153.177 145.176 152.211 145.821 151.146 146.259 C 150.09 146.694 148.773 146.913 147.192 146.913 L 143.718 146.913 L 143.718 153.96 L 138.138 153.96 L 138.138 132.318 L 147.324 132.318 C 148.698 132.318 149.859 132.441 150.795 132.681 C 151.746 132.915 152.586 133.266 153.312 133.743 C 154.182 134.313 154.848 135.048 155.301 135.939 C 155.769 136.83 156 137.901 156 139.149 Z M 150.231 139.281 C 150.231 138.672 150.063 138.147 149.736 137.712 C 149.406 137.265 149.022 136.956 148.587 136.779 C 148.008 136.548 147.441 136.422 146.886 136.401 C 146.337 136.374 145.599 136.359 144.678 136.359 L 143.718 136.359 L 143.718 142.842 L 145.317 142.842 C 146.268 142.842 147.048 142.782 147.657 142.668 C 148.278 142.551 148.797 142.317 149.214 141.969 C 149.571 141.66 149.826 141.291 149.982 140.865 C 150.147 140.43 150.231 139.902 150.231 139.281 Z" style="font-style:normal;font-variant:normal;font-weight:bold;font-stretch:normal;font-size:medium;line-height:125%;font-family:sans-serif;-inkscape-font-specification:'sans-serif Bold';letter-spacing:7.03102636px;word-spacing:0px;fill:#ffffff;fill-opacity:1;stroke:none;stroke-width:1px;stroke-linecap:butt;stroke-linejoin:miter;stroke-opacity:1" id="path4793"/>
    <path d="M 181.104 153.96 L 165.492 153.96 L 165.492 132.318 L 171.072 132.318 L 171.072 149.775 L 181.104 149.775 L 181.104 153.96 Z" style="font-style:normal;font-variant:normal;font-weight:bold;font-stretch:normal;font-size:medium;line-height:125%;font-family:sans-serif;-inkscape-font-specification:'sans-serif Bold';letter-spacing:7.03102636px;word-spacing:0px;fill:#ffffff;fill-opacity:1;stroke:none;stroke-width:1px;stroke-linecap:butt;stroke-linejoin:miter;stroke-opacity:1" id="path4795"/>
    <path d="M 216.777 153.96 L 211.005 153.96 L 209.16 149.589 L 198.18 149.589 L 196.227 153.96 L 190.602 153.96 L 200.478 132.318 L 206.904 132.318 Z M 207.489 145.617 L 203.619 137.859 L 199.779 145.617 Z" style="font-style:normal;font-variant:normal;font-weight:bold;font-stretch:normal;font-size:medium;line-height:125%;font-family:sans-serif;-inkscape-font-specification:'sans-serif Bold';letter-spacing:7.03102636px;word-spacing:0px;fill:#ffffff;fill-opacity:1;stroke:none;stroke-width:1px;stroke-linecap:butt;stroke-linejoin:miter;stroke-opacity:1" id="path4797"/>
    <path d="M 238.083 132.318 L 229.752 145.59 L 229.752 153.96 L 224.172 153.96 L 224.172 145.851 L 215.64 132.318 L 221.976 132.318 L 227.076 140.691 L 231.948 132.318 Z" style="font-style:normal;font-variant:normal;font-weight:bold;font-stretch:normal;font-size:medium;line-height:125%;font-family:sans-serif;-inkscape-font-specification:'sans-serif Bold';letter-spacing:7.03102636px;word-spacing:0px;fill:#ffffff;fill-opacity:1;stroke:none;stroke-width:1px;stroke-linecap:butt;stroke-linejoin:miter;stroke-opacity:1" id="path4799"/>
    <path d="M 277.743 146.766 C 277.743 148.899 276.837 150.633 275.025 151.971 C 273.225 153.297 270.771 153.96 267.672 153.96 C 265.878 153.96 264.312 153.807 262.977 153.495 C 261.648 153.177 260.403 152.775 259.239 152.289 L 261.033 148.11 C 261.735 148.509 262.932 148.95 263.718 149.223 C 265.152 149.718 266.526 149.964 267.843 149.964 C 268.185 149.964 268.629 149.934 269.184 149.877 C 269.736 149.817 270.186 149.724 270.534 149.589 C 270.96 149.412 271.308 149.193 271.581 148.932 C 271.863 148.671 272.001 148.281 272.001 147.771 C 272.001 147.297 271.797 146.889 271.392 146.55 C 270.993 146.202 270.408 145.932 269.634 145.749 C 268.818 145.557 267.954 145.377 267.045 145.209 C 266.145 145.038 265.296 144.819 264.501 144.558 C 262.68 143.967 261.366 143.166 260.562 142.161 C 259.77 141.141 259.371 139.881 259.371 138.378 C 259.371 136.365 260.271 134.721 262.074 133.452 C 263.886 132.171 266.214 131.535 269.052 131.535 C 270.474 131.535 271.881 131.673 273.267 131.955 C 274.662 132.225 275.868 132.57 276.885 132.987 L 274.533 136.854 C 274.08 136.629 273.597 136.416 273.078 136.23 C 271.815 135.753 270.528 135.516 269.211 135.516 C 268.746 135.516 268.281 135.549 267.816 135.618 C 267.36 135.675 266.919 135.792 266.493 135.966 C 266.115 136.113 265.791 136.335 265.518 136.635 C 265.248 136.926 265.11 137.259 265.11 137.637 C 265.11 138.207 265.329 138.651 265.764 138.96 C 266.202 139.26 267.027 139.539 268.239 139.788 C 269.031 139.953 269.793 140.115 270.519 140.268 C 271.257 140.424 272.046 140.637 272.889 140.907 C 274.548 141.45 275.769 142.194 276.552 143.13 C 277.347 144.063 277.743 145.275 277.743 146.766 Z" style="font-style:normal;font-variant:normal;font-weight:bold;font-stretch:normal;font-size:medium;line-height:125%;font-family:sans-serif;-inkscape-font-specification:'sans-serif Bold';letter-spacing:7.03102636px;word-spacing:0px;fill:#ffffff;fill-opacity:1;stroke:none;stroke-width:1px;stroke-linecap:butt;stroke-linejoin:miter;stroke-opacity:1" id="path4801"/>
    <path d="M 356.667 136.503 L 349.908 136.503 L 349.908 153.96 L 344.328 153.96 L 344.328 136.503 L 337.566 136.503 L 337.566 132.318 L 356.667 132.318 L 356.667 136.503 Z" style="font-style:normal;font-variant:normal;font-weight:bold;font-stretch:normal;font-size:medium;line-height:125%;font-family:sans-serif;-inkscape-font-specification:'sans-serif Bold';letter-spacing:7.03102636px;word-spacing:0px;fill:#ffffff;fill-opacity:1;stroke:none;stroke-width:1px;stroke-linecap:butt;stroke-linejoin:miter;stroke-opacity:1" id="path4803"/>
    <path d="M 380.397 153.96 L 363.747 153.96 L 363.747 132.318 L 380.397 132.318 L 380.397 136.503 L 369.3 136.503 L 369.3 140.241 L 379.668 140.241 L 379.668 144.426 L 369.3 144.426 L 369.3 149.775 L 380.397 149.775 Z" style="font-style:normal;font-variant:normal;font-weight:bold;font-stretch:normal;font-size:medium;line-height:125%;font-family:sans-serif;-inkscape-font-specification:'sans-serif Bold';letter-spacing:7.03102636px;word-spacing:0px;fill:#ffffff;fill-opacity:1;stroke:none;stroke-width:1px;stroke-linecap:butt;stroke-linejoin:miter;stroke-opacity:1" id="path4805"/>
    <path d="M 417.621 153.96 L 411.771 153.96 L 411.273 143.529 L 405.231 153.957 L 401.382 153.957 L 395.34 143.529 L 394.845 153.96 L 389.283 153.96 L 390.078 132.318 L 395.517 132.318 L 403.461 147.273 L 411.387 132.318 L 416.826 132.318 Z" style="font-style:normal;font-variant:normal;font-weight:bold;font-stretch:normal;font-size:medium;line-height:125%;font-family:sans-serif;-inkscape-font-specification:'sans-serif Bold';letter-spacing:7.03102636px;word-spacing:0px;fill:#ffffff;fill-opacity:1;stroke:none;stroke-width:1px;stroke-linecap:butt;stroke-linejoin:miter;stroke-opacity:1" id="path4807"/>
    <path id="path4809" style="font-style:normal;font-variant:normal;font-weight:bold;font-stretch:normal;font-size:medium;line-height:125%;font-family:sans-serif;-inkscape-font-specification:'sans-serif Bold';letter-spacing:7.03102636px;word-spacing:0px;fill:#ffffff;fill-opacity:1;stroke:none;stroke-width:1px;stroke-linecap:butt;stroke-linejoin:miter;stroke-opacity:1" d="M 306.567 132.318 L 298.239 145.59 L 298.239 153.96 L 292.656 153.96 L 292.656 145.851 L 284.124 132.318 L 290.463 132.318 L 295.563 140.691 L 300.435 132.318 Z"/>
    <path id="path4811" style="font-style:normal;font-variant:normal;font-weight:bold;font-stretch:normal;font-size:medium;line-height:125%;font-family:sans-serif;-inkscape-font-specification:'sans-serif Bold';letter-spacing:7.03102636px;word-spacing:0px;fill:#ffffff;fill-opacity:1;stroke:none;stroke-width:1px;stroke-linecap:butt;stroke-linejoin:miter;stroke-opacity:1" d="M 330.348 146.766 C 330.348 148.899 329.442 150.633 327.63 151.971 C 325.827 153.297 323.373 153.96 320.274 153.96 C 318.483 153.96 316.917 153.807 315.579 153.495 C 314.253 153.177 313.008 152.775 311.844 152.289 L 313.638 148.11 C 314.34 148.509 315.54 148.95 316.32 149.223 C 317.754 149.718 319.131 149.964 320.451 149.964 C 320.79 149.964 321.234 149.934 321.786 149.877 C 322.338 149.817 322.788 149.724 323.139 149.589 C 323.565 149.412 323.913 149.193 324.186 148.932 C 324.468 148.671 324.606 148.281 324.606 147.771 C 324.606 147.297 324.402 146.889 323.994 146.55 C 323.601 146.202 323.013 145.932 322.236 145.749 C 321.423 145.557 320.562 145.377 319.65 145.209 C 318.747 145.038 317.901 144.819 317.106 144.558 C 315.285 143.967 313.971 143.166 313.17 142.161 C 312.372 141.141 311.973 139.881 311.973 138.378 C 311.973 136.365 312.876 134.721 314.679 133.452 C 316.491 132.171 318.816 131.535 321.657 131.535 C 323.082 131.535 324.486 131.673 325.869 131.955 C 327.267 132.225 328.473 132.57 329.49 132.987 L 327.138 136.854 C 326.685 136.629 326.199 136.416 325.683 136.23 C 324.423 135.753 323.136 135.516 321.816 135.516 C 321.351 135.516 320.886 135.549 320.421 135.618 C 319.965 135.675 319.524 135.792 319.098 135.966 C 318.72 136.113 318.396 136.335 318.126 136.635 C 317.853 136.926 317.718 137.259 317.718 137.637 C 317.718 138.207 317.934 138.651 318.372 138.96 C 318.807 139.26 319.629 139.539 320.841 139.788 C 321.636 139.953 322.398 140.115 323.124 140.268 C 323.859 140.424 324.651 140.637 325.494 140.907 C 327.15 141.45 328.371 142.194 329.154 143.13 C 329.952 144.063 330.348 145.275 330.348 146.766 Z"/>
    <path style="color: rgb(0, 0, 0); clip-rule: nonzero; display: inline; overflow: visible; visibility: visible; opacity: 1; isolation: auto; mix-blend-mode: normal; color-interpolation: sRGB; color-interpolation-filters: linearRGB; fill-opacity: 1; fill-rule: evenodd; stroke: none; stroke-width: 1px; stroke-linecap: butt; stroke-linejoin: miter; stroke-miterlimit: 4; stroke-dasharray: none; stroke-dashoffset: 0; stroke-opacity: 1; color-rendering: auto; image-rendering: auto; shape-rendering: auto; text-rendering: auto; fill: rgb(255, 255, 255);" d="M 436.605 132.372 L 436.605 133.524 L 436.638 133.524 C 436.731 133.524 441.042 133.602 441.042 135.411 L 441.042 150.972 C 441.042 152.016 439.077 152.856 436.638 152.856 L 436.605 152.856 L 436.605 154.008 L 442.434 154.008 L 443.994 154.008 L 449.823 154.008 L 449.823 152.856 L 449.793 152.856 C 447.354 152.856 445.389 152.016 445.389 150.972 L 445.389 135.411 C 445.389 133.602 449.697 133.524 449.793 133.524 L 449.823 133.524 L 449.823 132.372 L 443.994 132.372 L 442.434 132.372 L 436.605 132.372 Z" id="path4783"/>
    <path style="clip-rule: evenodd; fill-opacity: 1; fill-rule: evenodd; fill: rgb(20, 20, 20);" d="M 106.074 26.895 L 77.709 56.859 L 58.971 44.01 C 58.971 44.01 65.136 38.13 59.511 33.846 C 55.128 30.504 42.825 37.59 43.359 51.507 C 43.986 67.56 53.904 76.653 64.86 76.653 C 75.036 76.653 77.709 68.451 77.709 68.451 L 100.506 68.451 L 100.506 87.363 L 132.552 2.811 L 169.215 2.811 L 198.651 78.804 C 198.651 78.804 200.79 82.812 202.929 83.883 C 202.929 83.883 203.052 34.032 203.052 32.631 C 203.052 31.236 202.866 29.694 201.993 28.692 C 200.559 27.039 198.111 26.355 198.111 26.355 L 198.111 2.811 C 198.111 2.811 232.083 2.811 249.483 2.811 C 276.129 2.811 282.963 10.035 290.691 23.952 C 301.356 9.591 316.041 0.132 336.981 0.132 C 358.521 0.132 373.767 8.076 382.473 21.27 C 394.632 6.735 414.201 0 432.108 0 C 454.116 0 472.494 10.665 482.007 27.159 L 482.007 2.811 L 531.501 2.811 L 536.718 16.05 L 540.603 2.811 L 591.708 2.811 L 591.708 25.818 C 591.708 25.818 588.762 26.625 587.949 27.954 C 587.154 29.265 587.295 33.45 587.295 33.45 L 594.423 78.927 C 594.723 80.406 595.248 81.951 596.523 83.082 C 598.002 84.405 600 84.156 600 84.156 L 600 110.37 L 548.628 110.37 L 548.628 90.567 L 519.198 90.567 L 519.198 110.424 L 470.901 110.424 L 470.901 97.518 C 470.901 97.518 453.249 113.043 430.5 113.043 C 401.385 113.043 381.933 91.641 381.933 91.641 L 381.933 110.367 C 381.933 110.367 379.797 110.367 347.691 110.367 C 317.211 110.367 291.048 93.69 283.74 63.276 C 280.275 66.591 264.999 77.496 246.678 81.603 C 245.253 81.924 244.542 82.458 244.542 84.003 C 244.542 86.82 250.563 87.825 250.563 87.825 L 250.563 110.364 C 250.563 110.364 92.163 110.364 62.736 110.364 C 27.945 110.37 0 86.559 0 56.325 C 0 26.088 21.789 0.399 57.909 0.399 C 92.427 0.399 106.077 26.895 106.077 26.895 L 106.077 26.895 Z" id="path4815"/>
    <path style="clip-rule: evenodd; fill-opacity: 1; fill-rule: evenodd; fill: rgb(255, 255, 255);" d="M 92.556 27.363 L 77.445 43.209 C 77.445 43.209 76.644 43.614 75.975 43.614 C 75.306 43.614 74.364 42.939 74.364 42.939 L 72.495 41.343 C 72.495 41.343 71.955 41.211 71.955 40.671 C 71.955 40.143 73.431 38.796 73.431 36.255 C 73.431 33.711 72.897 23.142 56.577 23.142 C 40.257 23.142 33.03 38.394 33.03 50.973 C 33.03 63.549 40.785 86.559 66.213 86.559 C 81 86.559 84.132 78.255 84.132 78.255 L 89.214 78.255 L 89.214 99.936 L 61.389 99.936 C 28.215 99.936 9.747 73.974 9.747 55.248 C 9.747 26.532 34.719 10.596 57.378 10.596 C 79.317 10.599 92.556 27.363 92.556 27.363 L 92.556 27.363 Z" id="path4817"/>
    <path style="clip-rule: evenodd; fill-opacity: 1; fill-rule: evenodd; fill: rgb(255, 255, 255);" d="M 139.389 12.981 L 162.264 12.981 L 190.095 85.758 C 190.89 87.759 192.228 89.643 193.566 91.242 C 194.898 92.847 198.111 93.924 198.111 93.924 L 198.111 100.203 L 164.541 100.203 L 164.541 93.783 C 164.541 93.783 166.677 94.056 167.751 92.181 C 168.819 90.306 168.819 88.836 168.021 86.967 C 167.217 85.089 161.586 70.242 161.586 70.242 L 134.166 70.242 C 134.166 70.242 128.553 85.224 128.01 86.559 C 127.473 87.897 127.473 90.042 128.01 91.374 C 128.901 93.6 132.027 93.927 132.027 93.927 L 132.027 100.206 L 105.132 100.206 L 105.132 93.927 C 105.132 93.927 107.58 93.084 109.413 91.245 C 111.42 89.238 112.086 87.093 112.086 87.093 L 139.389 12.981 L 139.389 12.981 Z M 138.714 56.592 L 156.378 56.592 L 147.282 31.176 L 138.714 56.592 L 138.714 56.592 Z" id="path4819"/>
    <path style="clip-rule: evenodd; fill-opacity: 1; fill-rule: evenodd; fill: rgb(255, 255, 255);" d="M 208.815 12.981 C 208.815 12.981 235.839 12.981 251.628 12.981 C 267.414 12.981 283.197 18.594 283.197 36.786 C 283.197 54.984 271.692 61.407 261.795 65.958 C 250.368 71.208 235.308 75.327 235.308 75.327 L 235.308 89.235 C 235.308 89.235 235.443 90.174 236.775 91.767 C 238.119 93.375 239.589 93.78 239.589 93.78 L 239.589 100.2 L 208.551 100.2 L 208.551 93.921 C 208.551 93.921 210.42 93.513 211.767 92.178 C 213.099 90.84 213.372 89.235 213.372 89.235 L 213.372 26.355 C 213.372 26.355 213.495 23.679 212.433 22.614 C 211.362 21.534 208.818 20.067 208.818 20.067 L 208.818 12.981 L 208.815 12.981 L 208.815 12.981 Z M 235.572 26.088 L 235.572 63.279 C 235.572 63.279 260.721 52.848 260.721 38.13 C 260.721 19.935 235.572 26.088 235.572 26.088 L 235.572 26.088 Z" id="path4821"/>
    <path style="clip-rule: evenodd; fill-opacity: 1; fill-rule: evenodd; fill: rgb(255, 255, 255);" d="M 375.915 27.516 L 360.798 43.362 C 360.798 43.362 359.994 43.764 359.322 43.764 C 358.659 43.764 357.723 43.095 357.723 43.095 L 355.845 41.484 C 355.845 41.484 355.311 41.358 355.311 40.827 C 355.311 40.287 356.778 38.943 356.778 36.411 C 356.778 33.864 356.25 23.295 339.924 23.295 C 323.601 23.295 316.377 38.544 316.377 51.123 C 316.377 63.69 324.138 86.706 349.563 86.706 C 364.35 86.706 367.485 78.408 367.485 78.408 L 372.573 78.408 L 372.573 100.083 L 344.736 100.083 C 311.565 100.083 293.097 74.13 293.097 55.401 C 293.097 26.688 318.063 10.746 340.725 10.746 C 362.667 10.746 375.915 27.516 375.915 27.516 L 375.915 27.516 Z" id="path4823"/>
    <path style="clip-rule: evenodd; fill-opacity: 1; fill-rule: evenodd; fill: rgb(255, 255, 255);" d="M 430.098 102.714 C 401.196 102.714 380.424 81.609 380.424 55.929 C 380.424 30.231 401.733 10.329 430.098 10.329 C 458.451 10.329 479.763 30.231 479.763 55.929 C 479.763 81.606 458.988 102.714 430.098 102.714 L 430.098 102.714 Z M 404.406 56.325 C 404.406 82.011 417.516 88.434 430.098 88.434 C 442.665 88.434 456.051 80.406 456.051 56.325 C 456.051 32.247 441.066 24.216 430.098 24.216 C 419.127 24.216 404.406 30.633 404.406 56.325 L 404.406 56.325 Z" id="path4825"/>
    <path style="clip-rule: evenodd; fill-opacity: 1; fill-rule: evenodd; fill: rgb(255, 255, 255);" d="M 492.702 13.035 L 524.547 13.035 L 536.052 48.567 L 548.355 12.981 L 581.661 12.981 L 581.661 18.192 C 581.661 18.192 579.447 19.131 578.463 20.337 C 577.257 21.81 577.257 22.878 577.524 25.023 C 577.791 27.159 586.35 85.224 586.62 87.366 C 586.893 89.508 587.154 90.711 587.688 92.184 C 588.219 93.642 590.769 94.854 590.769 94.854 L 590.769 100.251 L 558.789 100.251 L 558.789 94.455 C 558.789 94.455 561.6 94.056 562.542 92.712 C 563.478 91.371 563.874 90.567 563.61 88.434 C 563.34 86.292 555.72 37.596 555.72 37.596 L 541.806 80.673 L 524.949 80.673 L 511.164 40.263 L 504.21 87.894 C 504.21 87.894 503.94 90.753 505.014 92.313 C 506.484 94.455 509.169 94.455 509.169 94.455 L 509.169 100.203 L 481.464 100.203 L 481.464 94.056 C 481.464 94.056 483.669 93.717 485.274 91.842 C 486.876 89.973 487.149 87.558 487.149 87.558 L 497.253 24.75 C 497.253 24.75 497.862 22.404 497.187 21.339 C 496.482 20.211 492.702 19.266 492.702 19.266 L 492.702 13.035 L 492.702 13.035 Z" id="path4827"/>
    <path style="color: rgb(0, 0, 0); clip-rule: nonzero; display: inline; overflow: visible; visibility: visible; opacity: 1; isolation: auto; mix-blend-mode: normal; color-interpolation: sRGB; color-interpolation-filters: linearRGB; fill-opacity: 1; fill-rule: evenodd; stroke: none; stroke-width: 1px; stroke-linecap: butt; stroke-linejoin: miter; stroke-miterlimit: 4; stroke-dasharray: none; stroke-dashoffset: 0; stroke-opacity: 1; color-rendering: auto; image-rendering: auto; shape-rendering: auto; text-rendering: auto; fill: rgb(255, 255, 255);" d="M 449.832 132.372 L 449.832 133.524 L 449.862 133.524 C 449.958 133.524 454.266 133.602 454.266 135.411 L 454.266 150.972 C 454.266 152.016 452.301 152.856 449.862 152.856 L 449.832 152.856 L 449.832 154.008 L 455.661 154.008 L 457.218 154.008 L 463.047 154.008 L 463.047 152.856 L 463.02 152.856 C 460.578 152.856 458.613 152.016 458.613 150.972 L 458.613 135.411 C 458.613 133.602 462.921 133.524 463.02 133.524 L 463.047 133.524 L 463.047 132.372 L 457.218 132.372 L 455.661 132.372 L 449.832 132.372 Z" id="path-1"/>
  </g>
</svg>