<?xml version="1.0" encoding="utf-8"?>
<svg version="1.1" xmlns="http://www.w3.org/2000/svg">
  <g>
    <path d="M 68.607 118.395 L 531.393 118.395 C 543.876 118.395 553.992 128.511 553.992 140.994 L 553.992 144.504 C 553.992 156.981 543.876 167.1 531.393 167.1 L 68.607 167.1 C 56.124 167.1 46.008 156.981 46.008 144.504 L 46.008 140.994 C 46.008 128.511 56.124 118.395 68.607 118.395 Z" style="color: rgb(0, 0, 0); clip-rule: nonzero; display: inline; overflow: visible; visibility: visible; opacity: 1; isolation: auto; mix-blend-mode: normal; color-interpolation: sRGB; color-interpolation-filters: linearRGB; fill-opacity: 1; fill-rule: evenodd; stroke: none; stroke-width: 1px; stroke-linecap: butt; stroke-linejoin: miter; stroke-miterlimit: 4; stroke-dasharray: none; stroke-dashoffset: 0; stroke-opacity: 1; color-rendering: auto; image-rendering: auto; shape-rendering: auto; text-rendering: auto; fill: rgb(20, 20, 20);" id="rect4789"/>
    <path d="M 149.388 139.149 C 149.388 140.118 149.217 141.069 148.878 141.999 C 148.539 142.92 148.056 143.697 147.426 144.324 C 146.565 145.176 145.599 145.821 144.534 146.259 C 143.478 146.694 142.161 146.913 140.577 146.913 L 137.106 146.913 L 137.106 153.96 L 131.526 153.96 L 131.526 132.318 L 140.712 132.318 C 142.086 132.318 143.247 132.438 144.183 132.681 C 145.134 132.912 145.974 133.266 146.7 133.743 C 147.573 134.316 148.233 135.048 148.689 135.936 C 149.157 136.827 149.388 137.901 149.388 139.149 Z M 143.619 139.281 C 143.619 138.672 143.451 138.147 143.124 137.712 C 142.794 137.265 142.41 136.953 141.975 136.779 C 141.393 136.545 140.826 136.422 140.271 136.401 C 139.725 136.374 138.987 136.359 138.066 136.359 L 137.106 136.359 L 137.106 142.842 L 138.705 142.842 C 139.656 142.842 140.433 142.782 141.045 142.668 C 141.663 142.551 142.182 142.32 142.602 141.969 C 142.959 141.66 143.214 141.291 143.373 140.865 C 143.535 140.427 143.619 139.899 143.619 139.281 Z" style="font-style:normal;font-variant:normal;font-weight:bold;font-stretch:normal;font-size:medium;line-height:125%;font-family:sans-serif;-inkscape-font-specification:'sans-serif Bold';letter-spacing:7.03102636px;word-spacing:0px;fill:#ffffff;fill-opacity:1;stroke:none;stroke-width:1px;stroke-linecap:butt;stroke-linejoin:miter;stroke-opacity:1" id="path4793"/>
    <path d="M 174.492 153.96 L 158.88 153.96 L 158.88 132.318 L 164.46 132.318 L 164.46 149.775 L 174.492 149.775 L 174.492 153.96 Z" style="font-style:normal;font-variant:normal;font-weight:bold;font-stretch:normal;font-size:medium;line-height:125%;font-family:sans-serif;-inkscape-font-specification:'sans-serif Bold';letter-spacing:7.03102636px;word-spacing:0px;fill:#ffffff;fill-opacity:1;stroke:none;stroke-width:1px;stroke-linecap:butt;stroke-linejoin:miter;stroke-opacity:1" id="path4795"/>
    <path d="M 210.165 153.96 L 204.393 153.96 L 202.545 149.586 L 191.568 149.586 L 189.615 153.96 L 183.99 153.96 L 193.863 132.318 L 200.292 132.318 Z M 200.877 145.617 L 197.004 137.859 L 193.164 145.617 Z" style="font-style:normal;font-variant:normal;font-weight:bold;font-stretch:normal;font-size:medium;line-height:125%;font-family:sans-serif;-inkscape-font-specification:'sans-serif Bold';letter-spacing:7.03102636px;word-spacing:0px;fill:#ffffff;fill-opacity:1;stroke:none;stroke-width:1px;stroke-linecap:butt;stroke-linejoin:miter;stroke-opacity:1" id="path4797"/>
    <path d="M 231.471 132.318 L 223.14 145.59 L 223.14 153.96 L 217.557 153.96 L 217.557 145.851 L 209.025 132.318 L 215.364 132.318 L 220.467 140.688 L 225.333 132.318 Z" style="font-style:normal;font-variant:normal;font-weight:bold;font-stretch:normal;font-size:medium;line-height:125%;font-family:sans-serif;-inkscape-font-specification:'sans-serif Bold';letter-spacing:7.03102636px;word-spacing:0px;fill:#ffffff;fill-opacity:1;stroke:none;stroke-width:1px;stroke-linecap:butt;stroke-linejoin:miter;stroke-opacity:1" id="path4799"/>
    <path d="M 271.131 146.769 C 271.131 148.896 270.222 150.633 268.413 151.971 C 266.61 153.297 264.159 153.96 261.06 153.96 C 259.263 153.96 257.7 153.807 256.365 153.495 C 255.036 153.174 253.788 152.775 252.627 152.289 L 254.418 148.107 C 255.12 148.509 256.32 148.95 257.106 149.223 C 258.537 149.718 259.914 149.964 261.231 149.964 C 261.573 149.964 262.014 149.934 262.569 149.877 C 263.121 149.817 263.574 149.724 263.922 149.586 C 264.348 149.412 264.696 149.193 264.969 148.929 C 265.251 148.671 265.389 148.281 265.389 147.771 C 265.389 147.297 265.185 146.889 264.78 146.55 C 264.381 146.202 263.796 145.932 263.022 145.749 C 262.206 145.557 261.345 145.374 260.433 145.209 C 259.533 145.035 258.684 144.819 257.889 144.558 C 256.068 143.964 254.754 143.169 253.95 142.161 C 253.158 141.141 252.759 139.884 252.759 138.378 C 252.759 136.365 253.659 134.724 255.462 133.452 C 257.274 132.171 259.602 131.535 262.437 131.535 C 263.862 131.535 265.269 131.676 266.655 131.952 C 268.05 132.225 269.259 132.57 270.273 132.987 L 267.921 136.854 C 267.468 136.626 266.982 136.416 266.463 136.227 C 265.206 135.753 263.916 135.516 262.599 135.516 C 262.131 135.516 261.666 135.549 261.204 135.618 C 260.748 135.675 260.307 135.795 259.881 135.966 C 259.503 136.113 259.179 136.335 258.906 136.635 C 258.636 136.926 258.498 137.259 258.498 137.637 C 258.498 138.21 258.717 138.651 259.152 138.96 C 259.59 139.263 260.415 139.539 261.624 139.791 C 262.419 139.953 263.178 140.112 263.907 140.268 C 264.645 140.424 265.434 140.637 266.274 140.907 C 267.933 141.45 269.157 142.194 269.937 143.133 C 270.732 144.063 271.131 145.272 271.131 146.769 Z" style="font-style:normal;font-variant:normal;font-weight:bold;font-stretch:normal;font-size:medium;line-height:125%;font-family:sans-serif;-inkscape-font-specification:'sans-serif Bold';letter-spacing:7.03102636px;word-spacing:0px;fill:#ffffff;fill-opacity:1;stroke:none;stroke-width:1px;stroke-linecap:butt;stroke-linejoin:miter;stroke-opacity:1" id="path4801"/>
    <path d="M 350.055 136.503 L 343.296 136.503 L 343.296 153.96 L 337.716 153.96 L 337.716 136.503 L 330.954 136.503 L 330.954 132.318 L 350.055 132.318 L 350.055 136.503 Z" style="font-style:normal;font-variant:normal;font-weight:bold;font-stretch:normal;font-size:medium;line-height:125%;font-family:sans-serif;-inkscape-font-specification:'sans-serif Bold';letter-spacing:7.03102636px;word-spacing:0px;fill:#ffffff;fill-opacity:1;stroke:none;stroke-width:1px;stroke-linecap:butt;stroke-linejoin:miter;stroke-opacity:1" id="path4803"/>
    <path d="M 373.782 153.96 L 357.135 153.96 L 357.135 132.318 L 373.782 132.318 L 373.782 136.503 L 362.688 136.503 L 362.688 140.238 L 373.056 140.238 L 373.056 144.423 L 362.688 144.423 L 362.688 149.775 L 373.782 149.775 Z" style="font-style:normal;font-variant:normal;font-weight:bold;font-stretch:normal;font-size:medium;line-height:125%;font-family:sans-serif;-inkscape-font-specification:'sans-serif Bold';letter-spacing:7.03102636px;word-spacing:0px;fill:#ffffff;fill-opacity:1;stroke:none;stroke-width:1px;stroke-linecap:butt;stroke-linejoin:miter;stroke-opacity:1" id="path4805"/>
    <path d="M 411.009 153.96 L 405.159 153.96 L 404.661 143.529 L 398.622 153.957 L 394.77 153.957 L 388.725 143.529 L 388.23 153.96 L 382.671 153.96 L 383.463 132.318 L 388.905 132.318 L 396.846 147.276 L 404.775 132.318 L 410.214 132.318 Z" style="font-style:normal;font-variant:normal;font-weight:bold;font-stretch:normal;font-size:medium;line-height:125%;font-family:sans-serif;-inkscape-font-specification:'sans-serif Bold';letter-spacing:7.03102636px;word-spacing:0px;fill:#ffffff;fill-opacity:1;stroke:none;stroke-width:1px;stroke-linecap:butt;stroke-linejoin:miter;stroke-opacity:1" id="path4807"/>
    <path id="path4809" style="font-style:normal;font-variant:normal;font-weight:bold;font-stretch:normal;font-size:medium;line-height:125%;font-family:sans-serif;-inkscape-font-specification:'sans-serif Bold';letter-spacing:7.03102636px;word-spacing:0px;fill:#ffffff;fill-opacity:1;stroke:none;stroke-width:1px;stroke-linecap:butt;stroke-linejoin:miter;stroke-opacity:1" d="M 299.955 132.318 L 291.627 145.59 L 291.627 153.96 L 286.041 153.96 L 286.041 145.851 L 277.512 132.318 L 283.851 132.318 L 288.951 140.688 L 293.823 132.318 Z"/>
    <path id="path4811" style="font-style:normal;font-variant:normal;font-weight:bold;font-stretch:normal;font-size:medium;line-height:125%;font-family:sans-serif;-inkscape-font-specification:'sans-serif Bold';letter-spacing:7.03102636px;word-spacing:0px;fill:#ffffff;fill-opacity:1;stroke:none;stroke-width:1px;stroke-linecap:butt;stroke-linejoin:miter;stroke-opacity:1" d="M 323.733 146.769 C 323.733 148.896 322.827 150.633 321.018 151.971 C 319.215 153.297 316.761 153.96 313.662 153.96 C 311.871 153.96 310.305 153.807 308.967 153.495 C 307.638 153.174 306.393 152.775 305.232 152.289 L 307.023 148.107 C 307.725 148.509 308.925 148.95 309.708 149.223 C 311.142 149.718 312.519 149.964 313.839 149.964 C 314.178 149.964 314.622 149.934 315.174 149.877 C 315.726 149.817 316.176 149.724 316.527 149.586 C 316.953 149.412 317.301 149.193 317.574 148.929 C 317.856 148.671 317.994 148.281 317.994 147.771 C 317.994 147.297 317.79 146.889 317.382 146.55 C 316.986 146.202 316.398 145.932 315.624 145.749 C 314.811 145.557 313.95 145.374 313.038 145.209 C 312.135 145.035 311.289 144.819 310.491 144.558 C 308.673 143.964 307.359 143.169 306.555 142.161 C 305.76 141.141 305.361 139.884 305.361 138.378 C 305.361 136.365 306.264 134.724 308.067 133.452 C 309.879 132.171 312.204 131.535 315.042 131.535 C 316.467 131.535 317.874 131.676 319.257 131.952 C 320.655 132.225 321.861 132.57 322.875 132.987 L 320.526 136.854 C 320.073 136.626 319.587 136.416 319.071 136.227 C 317.811 135.753 316.521 135.516 315.201 135.516 C 314.736 135.516 314.271 135.549 313.809 135.618 C 313.353 135.675 312.912 135.795 312.486 135.966 C 312.108 136.113 311.781 136.335 311.511 136.635 C 311.238 136.926 311.103 137.259 311.103 137.637 C 311.103 138.21 311.322 138.651 311.757 138.96 C 312.195 139.263 313.017 139.539 314.226 139.791 C 315.024 139.953 315.786 140.112 316.512 140.268 C 317.247 140.424 318.039 140.637 318.879 140.907 C 320.538 141.45 321.759 142.194 322.542 143.133 C 323.337 144.063 323.733 145.272 323.733 146.769 Z"/>
    <path style="color: rgb(0, 0, 0); clip-rule: nonzero; display: inline; overflow: visible; visibility: visible; opacity: 1; isolation: auto; mix-blend-mode: normal; color-interpolation: sRGB; color-interpolation-filters: linearRGB; fill-opacity: 1; fill-rule: evenodd; stroke: none; stroke-width: 1px; stroke-linecap: butt; stroke-linejoin: miter; stroke-miterlimit: 4; stroke-dasharray: none; stroke-dashoffset: 0; stroke-opacity: 1; color-rendering: auto; image-rendering: auto; shape-rendering: auto; text-rendering: auto; fill: rgb(255, 255, 255);" d="M 429.993 132.372 L 429.993 133.524 L 430.023 133.524 C 430.119 133.524 434.427 133.602 434.427 135.414 L 434.427 150.972 C 434.427 152.016 432.462 152.856 430.023 152.856 L 429.993 152.856 L 429.993 154.008 L 435.822 154.008 L 437.382 154.008 L 443.211 154.008 L 443.211 152.856 L 443.181 152.856 C 440.739 152.856 438.774 152.016 438.774 150.972 L 438.774 135.414 C 438.774 133.602 443.085 133.524 443.181 133.524 L 443.211 133.524 L 443.211 132.372 L 437.382 132.372 L 435.822 132.372 L 429.993 132.372 Z" id="path4783"/>
    <path style="clip-rule: evenodd; fill-opacity: 1; fill-rule: evenodd; fill: rgb(20, 20, 20);" d="M 106.074 26.892 L 77.709 56.859 L 58.971 44.01 C 58.971 44.01 65.136 38.13 59.511 33.846 C 55.125 30.504 42.825 37.59 43.359 51.504 C 43.986 67.557 53.904 76.653 64.86 76.653 C 75.036 76.653 77.709 68.451 77.709 68.451 L 100.506 68.451 L 100.506 87.363 L 132.552 2.811 L 169.215 2.811 L 198.651 78.807 C 198.651 78.807 200.79 82.812 202.929 83.88 C 202.929 83.88 203.052 34.035 203.052 32.631 C 203.052 31.236 202.866 29.694 201.993 28.692 C 200.559 27.039 198.111 26.355 198.111 26.355 L 198.111 2.811 C 198.111 2.811 232.083 2.811 249.48 2.811 C 276.129 2.811 282.963 10.035 290.688 23.952 C 301.356 9.591 316.041 0.132 336.981 0.132 C 358.521 0.132 373.767 8.076 382.473 21.27 C 394.632 6.735 414.201 0 432.108 0 C 454.116 0 472.494 10.665 482.007 27.159 L 482.007 2.811 L 531.504 2.811 L 536.718 16.05 L 540.606 2.811 L 591.708 2.811 L 591.708 25.818 C 591.708 25.818 588.762 26.625 587.949 27.954 C 587.154 29.265 587.292 33.45 587.292 33.45 L 594.423 78.927 C 594.72 80.406 595.248 81.951 596.523 83.082 C 598.002 84.402 600 84.156 600 84.156 L 600 110.373 L 548.631 110.373 L 548.631 90.57 L 519.198 90.57 L 519.198 110.424 L 470.904 110.424 L 470.904 97.518 C 470.904 97.518 453.249 113.043 430.5 113.043 C 401.385 113.043 381.933 91.638 381.933 91.638 L 381.933 110.367 C 381.933 110.367 379.794 110.367 347.691 110.367 C 317.214 110.367 291.048 93.69 283.74 63.276 C 280.275 66.591 265.002 77.496 246.678 81.606 C 245.256 81.924 244.545 82.458 244.545 84.003 C 244.545 86.82 250.563 87.822 250.563 87.822 L 250.563 110.364 C 250.563 110.364 92.163 110.364 62.736 110.364 C 27.945 110.373 0 86.559 0 56.325 C 0 26.088 21.789 0.399 57.909 0.399 C 92.427 0.399 106.077 26.892 106.077 26.892 L 106.077 26.892 Z" id="path4815"/>
    <path style="clip-rule: evenodd; fill-opacity: 1; fill-rule: evenodd; fill: rgb(255, 255, 255);" d="M 92.556 27.363 L 77.445 43.206 C 77.445 43.206 76.644 43.614 75.975 43.614 C 75.303 43.614 74.364 42.939 74.364 42.939 L 72.492 41.343 C 72.492 41.343 71.955 41.214 71.955 40.671 C 71.955 40.143 73.431 38.796 73.431 36.255 C 73.431 33.711 72.897 23.142 56.574 23.142 C 40.257 23.142 33.03 38.394 33.03 50.973 C 33.03 63.549 40.785 86.559 66.213 86.559 C 81 86.559 84.129 78.255 84.129 78.255 L 89.214 78.255 L 89.214 99.933 L 61.389 99.933 C 28.215 99.933 9.75 73.974 9.75 55.248 C 9.75 26.529 34.716 10.596 57.378 10.596 C 79.317 10.599 92.556 27.363 92.556 27.363 L 92.556 27.363 Z" id="path4817"/>
    <path style="clip-rule: evenodd; fill-opacity: 1; fill-rule: evenodd; fill: rgb(255, 255, 255);" d="M 139.389 12.981 L 162.264 12.981 L 190.092 85.761 C 190.89 87.759 192.231 89.643 193.566 91.239 C 194.898 92.847 198.111 93.924 198.111 93.924 L 198.111 100.203 L 164.541 100.203 L 164.541 93.783 C 164.541 93.783 166.677 94.059 167.751 92.178 C 168.819 90.306 168.819 88.836 168.021 86.967 C 167.217 85.089 161.586 70.242 161.586 70.242 L 134.166 70.242 C 134.166 70.242 128.553 85.224 128.01 86.562 C 127.476 87.897 127.476 90.042 128.01 91.374 C 128.901 93.6 132.027 93.927 132.027 93.927 L 132.027 100.206 L 105.132 100.206 L 105.132 93.927 C 105.132 93.927 107.577 93.084 109.413 91.242 C 111.42 89.238 112.086 87.096 112.086 87.096 L 139.389 12.981 L 139.389 12.981 Z M 138.714 56.592 L 156.378 56.592 L 147.282 31.173 L 138.714 56.592 L 138.714 56.592 Z" id="path4819"/>
    <path style="clip-rule: evenodd; fill-opacity: 1; fill-rule: evenodd; fill: rgb(255, 255, 255);" d="M 208.815 12.981 C 208.815 12.981 235.839 12.981 251.628 12.981 C 267.414 12.981 283.194 18.594 283.194 36.786 C 283.194 54.981 271.692 61.41 261.795 65.961 C 250.365 71.208 235.308 75.324 235.308 75.324 L 235.308 89.235 C 235.308 89.235 235.443 90.174 236.778 91.767 C 238.116 93.375 239.589 93.78 239.589 93.78 L 239.589 100.2 L 208.551 100.2 L 208.551 93.924 C 208.551 93.924 210.42 93.516 211.767 92.178 C 213.096 90.84 213.369 89.235 213.369 89.235 L 213.369 26.355 C 213.369 26.355 213.492 23.676 212.433 22.614 C 211.365 21.534 208.818 20.067 208.818 20.067 L 208.818 12.981 L 208.815 12.981 L 208.815 12.981 Z M 235.572 26.088 L 235.572 63.276 C 235.572 63.276 260.724 52.848 260.724 38.13 C 260.724 19.935 235.572 26.088 235.572 26.088 L 235.572 26.088 Z" id="path4821"/>
    <path style="clip-rule: evenodd; fill-opacity: 1; fill-rule: evenodd; fill: rgb(255, 255, 255);" d="M 375.912 27.516 L 360.798 43.362 C 360.798 43.362 359.994 43.764 359.322 43.764 C 358.659 43.764 357.723 43.092 357.723 43.092 L 355.845 41.484 C 355.845 41.484 355.311 41.361 355.311 40.827 C 355.311 40.287 356.778 38.94 356.778 36.411 C 356.778 33.867 356.25 23.295 339.924 23.295 C 323.598 23.295 316.377 38.541 316.377 51.12 C 316.377 63.69 324.138 86.709 349.563 86.709 C 364.35 86.709 367.485 78.411 367.485 78.411 L 372.57 78.411 L 372.57 100.08 L 344.736 100.08 C 311.565 100.08 293.097 74.133 293.097 55.398 C 293.097 26.688 318.063 10.746 340.725 10.746 C 362.667 10.746 375.912 27.516 375.912 27.516 L 375.912 27.516 Z" id="path4823"/>
    <path style="clip-rule: evenodd; fill-opacity: 1; fill-rule: evenodd; fill: rgb(255, 255, 255);" d="M 430.098 102.714 C 401.196 102.714 380.424 81.609 380.424 55.929 C 380.424 30.231 401.733 10.329 430.098 10.329 C 458.451 10.329 479.763 30.231 479.763 55.929 C 479.763 81.606 458.988 102.714 430.098 102.714 L 430.098 102.714 Z M 404.406 56.325 C 404.406 82.014 417.516 88.431 430.098 88.431 C 442.665 88.431 456.051 80.406 456.051 56.325 C 456.051 32.247 441.066 24.216 430.098 24.216 C 419.127 24.216 404.406 30.63 404.406 56.325 L 404.406 56.325 Z" id="path4825"/>
    <path style="clip-rule: evenodd; fill-opacity: 1; fill-rule: evenodd; fill: rgb(255, 255, 255);" d="M 492.699 13.035 L 524.547 13.035 L 536.052 48.567 L 548.355 12.981 L 581.664 12.981 L 581.664 18.195 C 581.664 18.195 579.447 19.131 578.463 20.337 C 577.26 21.81 577.26 22.875 577.524 25.026 C 577.791 27.159 586.35 85.224 586.62 87.366 C 586.893 89.508 587.154 90.711 587.688 92.184 C 588.222 93.642 590.769 94.854 590.769 94.854 L 590.769 100.251 L 558.789 100.251 L 558.789 94.455 C 558.789 94.455 561.597 94.056 562.542 92.712 C 563.478 91.371 563.874 90.57 563.61 88.431 C 563.34 86.292 555.72 37.596 555.72 37.596 L 541.806 80.673 L 524.949 80.673 L 511.164 40.263 L 504.21 87.894 C 504.21 87.894 503.94 90.753 505.014 92.313 C 506.484 94.455 509.169 94.455 509.169 94.455 L 509.169 100.203 L 481.464 100.203 L 481.464 94.059 C 481.464 94.059 483.672 93.72 485.274 91.839 C 486.876 89.973 487.149 87.558 487.149 87.558 L 497.253 24.75 C 497.253 24.75 497.859 22.401 497.187 21.339 C 496.482 20.211 492.702 19.263 492.702 19.263 L 492.702 13.035 L 492.699 13.035 Z" id="path4827"/>
    <path style="color: rgb(0, 0, 0); clip-rule: nonzero; display: inline; overflow: visible; visibility: visible; opacity: 1; isolation: auto; mix-blend-mode: normal; color-interpolation: sRGB; color-interpolation-filters: linearRGB; fill-opacity: 1; fill-rule: evenodd; stroke: none; stroke-width: 1px; stroke-linecap: butt; stroke-linejoin: miter; stroke-miterlimit: 4; stroke-dasharray: none; stroke-dashoffset: 0; stroke-opacity: 1; color-rendering: auto; image-rendering: auto; shape-rendering: auto; text-rendering: auto; fill: rgb(255, 255, 255);" d="M 443.22 132.372 L 443.22 133.524 L 443.25 133.524 C 443.346 133.524 447.654 133.602 447.654 135.414 L 447.654 150.972 C 447.654 152.016 445.689 152.856 443.25 152.856 L 443.22 152.856 L 443.22 154.008 L 449.046 154.008 L 450.606 154.008 L 456.435 154.008 L 456.435 152.856 L 456.405 152.856 C 453.966 152.856 452.001 152.016 452.001 150.972 L 452.001 135.414 C 452.001 133.602 456.309 133.524 456.405 133.524 L 456.435 133.524 L 456.435 132.372 L 450.606 132.372 L 449.046 132.372 L 443.22 132.372 Z" id="path-1"/>
    <path style="color: rgb(0, 0, 0); clip-rule: nonzero; display: inline; overflow: visible; visibility: visible; opacity: 1; isolation: auto; mix-blend-mode: normal; color-interpolation: sRGB; color-interpolation-filters: linearRGB; fill-opacity: 1; fill-rule: evenodd; stroke: none; stroke-width: 1px; stroke-linecap: butt; stroke-linejoin: miter; stroke-miterlimit: 4; stroke-dasharray: none; stroke-dashoffset: 0; stroke-opacity: 1; color-rendering: auto; image-rendering: auto; shape-rendering: auto; text-rendering: auto; fill: rgb(255, 255, 255);" d="M 456.444 132.372 L 456.444 133.524 L 456.474 133.524 C 456.57 133.524 460.878 133.602 460.878 135.414 L 460.878 150.972 C 460.878 152.016 458.916 152.856 456.474 152.856 L 456.444 152.856 L 456.444 154.008 L 462.273 154.008 L 463.833 154.008 L 469.659 154.008 L 469.659 152.856 L 469.632 152.856 C 467.19 152.856 465.225 152.016 465.225 150.972 L 465.225 135.414 C 465.225 133.602 469.533 133.524 469.632 133.524 L 469.659 133.524 L 469.659 132.372 L 463.833 132.372 L 462.273 132.372 L 456.444 132.372 Z" id="path-2"/>
  </g>
</svg>