<?xml version="1.0" encoding="utf-8"?>
<svg id="svg4177" version="1.1" xmlns="http://www.w3.org/2000/svg">
  <path style="fill-opacity: 1; fill: rgb(255, 255, 255);" d="M 517.363 137.264 L 496.532 116.903 L 496.428 132.541 C 496.332 146.867 496.382 148.28 497.029 149.379 C 497.471 150.129 499.368 151.57 502.101 153.23 L 506.468 155.881 L 496.994 155.988 C 491.783 156.047 483.263 156.047 478.061 155.988 L 468.602 155.881 L 472.929 153.277 C 475.308 151.845 477.627 150.164 478.081 149.542 C 478.89 148.434 478.909 147.918 479.034 123.904 C 479.104 110.425 479.045 98.276 478.903 96.908 C 478.557 93.564 477.605 92.273 473.349 89.382 L 469.81 86.979 L 480.958 86.872 L 492.106 86.766 L 499.727 94.283 C 503.919 98.419 510.458 104.864 514.259 108.607 L 521.169 115.412 L 521.169 104.96 C 521.169 92.433 521.419 93.108 515.378 89.285 L 511.419 86.778 L 530.215 86.783 L 549.01 86.787 L 546.406 88.223 C 544.974 89.012 542.938 90.205 541.882 90.875 C 538.363 93.105 538.62 90.501 538.394 126.108 L 538.194 157.626 L 517.363 137.264 Z" id="path4190"/>
  <path style="fill-opacity: 1; fill: rgb(255, 255, 255);" d="M 355.292 156.719 C 342.44 154.429 333.12 147.752 328.123 137.253 C 322.667 125.789 323.632 111.988 330.623 101.48 C 335.695 93.859 343.499 88.746 353.485 86.503 C 357.466 85.609 367.54 85.611 372.55 86.507 C 377.023 87.306 383.89 88.807 384.145 89.041 C 384.322 89.204 386.58 110.136 386.435 110.281 C 386.394 110.323 384.83 109.376 382.96 108.177 C 376.717 104.174 370.595 102.329 363.336 102.262 C 359.541 102.227 358.229 102.382 355.895 103.139 C 347.45 105.881 343.267 113.875 344.515 124.891 C 345.715 135.489 351.524 140.612 362.335 140.606 C 364.538 140.606 367.107 140.385 368.043 140.115 L 369.745 139.625 L 369.723 133.131 C 369.709 129.211 369.511 126.082 369.222 125.235 C 368.838 124.11 368.019 123.358 365.068 121.429 C 363.047 120.108 361.064 118.807 360.662 118.541 C 360.084 118.157 363.138 118.073 375.234 118.14 C 385.734 118.198 390.676 118.363 390.978 118.666 C 391.298 118.987 391.081 119.65 390.18 121.099 L 388.941 123.092 L 389.058 135.681 L 389.174 148.269 L 390.455 150.113 L 391.736 151.957 L 387.251 153.2 C 384.783 153.884 381.642 154.726 380.27 155.071 C 373.233 156.839 360.635 157.67 355.293 156.718 Z" id="path4186"/>
  <path style="fill-opacity: 1; fill: rgb(255, 255, 255);" d="M 432.857 85.915 C 421.522 85.956 413.446 89.165 405.978 96.594 C 402.64 99.914 401.632 101.22 400.089 104.229 C 399.065 106.226 397.736 109.47 397.134 111.439 C 396.131 114.721 396.04 115.572 396.04 121.63 C 396.04 127.69 396.131 128.54 397.137 131.845 C 401.446 145.999 413.219 155.298 428.819 156.873 C 432.626 157.257 436.818 157.049 441.296 156.253 C 449.159 154.855 455.813 151.319 461.323 145.61 C 465.823 140.949 468.265 136.632 470.016 130.243 C 470.749 127.574 470.89 126.033 470.867 121.03 C 470.842 115.671 470.721 114.631 469.742 111.415 C 466.927 102.169 460.895 94.896 452.35 90.45 C 446.031 87.163 440.549 85.888 432.857 85.915 Z M 433.039 102.402 C 442.272 102.402 448.817 107.436 450.863 116.114 C 453.278 126.359 448.348 136.711 439.648 139.663 C 434.95 141.257 429.123 140.935 424.797 138.841 C 418.966 136.018 415.405 129.49 415.419 121.646 C 415.44 109.632 422.059 102.402 433.039 102.402 Z" id="path4184"/>
  <path style="fill-opacity: 1; fill: rgb(255, 255, 255);" d="M 563.979 156.701 C 558.634 155.933 553.758 154.996 551.293 154.264 C 549.362 153.692 549.21 153.555 549.21 152.4 C 549.21 151.714 548.928 146.306 548.583 140.382 C 548.239 134.458 548.012 129.332 548.082 128.992 C 548.172 128.553 549.738 129.533 553.492 132.38 C 562.669 139.336 566.88 141.261 572.916 141.257 C 578.674 141.252 580.77 140.104 581.148 136.743 C 581.599 132.747 579.335 131.024 569.474 127.864 C 562.307 125.567 556.134 122.822 553.573 120.794 C 549.679 117.709 547.23 112.393 547.216 106.992 C 547.188 96.541 553.166 88.861 563.432 86.158 C 567.223 85.159 574.698 84.964 579.856 85.73 C 585.365 86.549 592.895 88.24 593.437 88.782 C 593.76 89.105 594.736 102.171 594.854 107.737 L 594.878 108.865 L 593.767 108.074 C 591.782 106.661 585.446 103.655 582.263 102.616 C 571.894 99.231 562.563 101.195 564.976 106.255 C 565.809 108.004 567.865 108.887 576.063 111.017 C 584.959 113.329 589.352 115.38 593.219 119.029 C 598.683 124.183 601.089 131.861 599.535 139.187 C 597.66 148.034 591.741 153.602 581.548 156.106 C 577.211 157.171 569.148 157.445 563.979 156.701 Z" id="path4180"/>
  <path style="fill-opacity: 1; fill: rgb(255, 255, 255);" d="M 119.095 83.79 L 119.197 84.122 C 119.533 85.211 119.911 86.214 120.359 87.173 C 120.807 88.13 121.326 89.043 121.941 89.951 C 123.17 91.767 124.786 93.562 127.006 95.655 L 131.691 100.071 L 131.691 111.868 L 131.691 123.666 L 135.757 121.088 C 136.822 120.412 137.884 119.843 138.822 119.41 C 139.76 118.977 140.572 118.681 141.137 118.548 C 141.702 118.415 142.019 118.449 141.964 118.674 C 141.91 118.9 141.484 119.318 140.564 119.959 C 140.028 120.333 139.543 120.818 139.191 121.299 C 138.837 121.78 138.617 122.256 138.617 122.612 C 138.617 123.076 138.755 123.361 139.067 123.48 C 139.38 123.598 139.865 123.551 140.564 123.352 C 141.635 123.047 144.363 122.35 146.625 121.804 L 150.621 120.839 L 150.621 103.203 L 150.739 103.203 L 150.739 102.925 L 156.741 102.925 C 158.393 102.925 160.169 103.03 161.699 103.198 C 163.229 103.365 164.513 103.595 165.184 103.849 C 165.956 104.141 166.689 104.497 167.378 104.911 C 168.067 105.325 168.714 105.798 169.316 106.326 C 169.895 106.834 170.294 107.549 170.789 108.157 C 170.895 108.278 171.11 108.388 171.202 108.508 C 171.303 108.641 171.35 108.837 171.447 108.975 C 171.736 109.387 172.127 109.686 172.38 110.134 C 172.758 110.803 172.947 111.648 173.244 112.395 C 173.415 112.822 173.587 113.221 173.732 113.669 C 173.892 114.173 174.16 114.582 174.286 115.116 C 174.438 115.763 174.418 116.538 174.517 117.225 C 174.662 118.124 174.762 118.996 174.812 119.922 C 174.83 120.336 174.942 120.682 174.942 121.106 C 174.942 121.865 174.846 122.526 174.799 123.236 C 174.761 123.811 174.76 124.366 174.685 124.934 C 174.667 125.077 174.674 125.246 174.654 125.388 C 174.462 126.718 174.177 127.952 173.793 129.091 C 173.747 129.227 173.67 129.331 173.621 129.464 C 173.549 129.676 173.544 129.917 173.465 130.125 C 172.286 133.279 169.626 136.118 166.329 137.741 C 164.311 138.735 162.99 138.938 159.945 139.06 C 158.812 139.184 157.658 139.289 156.394 139.289 L 152.899 139.289 L 150.621 139.338 L 150.621 135.362 C 150.58 134.941 150.579 134.463 150.464 134.13 C 150.263 133.547 149.933 133.084 149.419 132.703 C 148.906 132.323 148.209 132.023 147.272 131.763 C 146.337 131.504 145.162 131.285 143.693 131.065 C 141.614 130.987 139.866 130.998 138.399 131.074 C 136.932 131.15 135.744 131.291 134.789 131.479 C 133.832 131.667 133.107 131.901 132.562 132.161 C 132.098 132.381 131.823 132.626 131.589 132.87 C 131.59 133.673 131.588 134.623 131.587 135.347 C 131.589 135.35 131.614 135.394 131.614 135.394 L 131.652 141.294 C 131.662 142.917 131.571 144.58 131.416 145.953 C 131.341 146.615 131.217 146.869 131.116 147.36 C 131.058 147.684 130.986 148.041 130.913 148.313 C 130.869 148.443 130.842 148.781 130.795 148.868 C 130.783 148.893 130.709 148.944 130.693 148.969 C 129.925 151.007 128.531 151.523 125.869 153.11 C 123.695 154.405 121.921 155.511 121.662 155.722 L 141.312 155.731 C 146.935 155.733 152.558 155.638 157.088 155.484 C 161.617 155.328 165.055 155.113 166.305 154.876 C 167.742 154.604 169.149 154.248 170.523 153.817 C 171.897 153.387 173.235 152.88 174.533 152.3 C 175.83 151.721 177.087 151.069 178.295 150.352 C 179.504 149.634 180.665 148.848 181.772 148 C 182.879 147.154 183.93 146.246 184.922 145.28 C 185.914 144.314 186.846 143.29 187.71 142.214 C 188.574 141.14 189.371 140.014 190.095 138.839 C 190.788 137.714 191.404 136.54 191.956 135.332 C 192.003 135.229 192.051 135.122 192.096 135.018 C 192.552 133.993 192.926 132.915 193.267 131.82 C 193.363 131.497 193.483 131.177 193.566 130.847 C 193.633 130.601 193.671 130.343 193.733 130.095 C 194.206 127.952 194.465 125.635 194.578 122.536 C 194.668 120.087 194.689 118.545 194.597 117.203 C 194.591 117.147 194.581 117.092 194.575 117.036 C 194.476 115.744 194.279 114.629 193.913 113.045 C 191.263 101.578 183.146 92.603 171.925 88.736 C 167.293 87.14 163.515 86.778 151.27 86.765 C 131.286 86.744 124.691 86.058 120.669 83.581 C 119.902 83.109 119.457 82.849 119.225 82.853 C 118.994 82.856 119.009 83.217 119.095 83.79 Z" id="path4168"/>
  <path style="fill-opacity: 1; fill: rgb(255, 255, 255);" d="M 273.403 86.792 L 276.107 89.365 C 277.964 91.132 278.805 92.228 278.791 92.864 C 278.765 94.105 257.842 144.268 257.359 144.248 C 256.891 144.23 250.561 136.542 244.876 129.091 C 241.022 124.039 240.704 123.495 241.397 123.13 C 241.815 122.908 243.341 121.534 244.786 120.076 C 247.491 117.346 249.201 114.395 249.945 111.17 C 250.465 108.912 250.466 103.904 249.945 101.646 C 248.799 96.677 244.804 91.695 240.275 89.587 C 234.889 87.08 234.642 87.054 214.716 86.881 C 204.692 86.795 195.515 86.781 194.324 86.851 L 192.157 86.979 L 196.177 89.476 C 198.388 90.85 200.534 92.473 200.947 93.082 C 201.659 94.132 201.704 95.541 201.816 120.228 C 201.882 134.549 201.829 146.846 201.7 147.556 C 201.335 149.566 199.721 151.122 195.334 153.696 L 195.334 153.692 L 191.282 156.068 L 211.112 156.073 L 230.941 156.077 L 227.535 154.164 C 223.087 151.666 221.589 150.532 220.802 149.068 C 219.896 147.385 219.523 129.64 220.394 129.64 C 221.991 129.64 222.949 130.705 239.902 151.365 L 243.76 156.067 L 262.587 156.071 L 281.415 156.075 L 279.412 154.381 C 274.697 150.391 274.519 149.938 276.064 145.901 L 276.92 143.662 L 289.63 143.662 L 302.339 143.662 L 303.228 146.101 C 303.793 147.65 304.023 148.929 303.858 149.606 C 303.715 150.193 302.397 151.89 300.93 153.377 L 298.262 156.081 L 315.977 156.081 C 325.72 156.081 333.692 156.025 333.692 155.958 C 333.692 155.889 331.907 154.402 329.725 152.652 C 327.543 150.903 325.207 148.659 324.535 147.669 C 323.859 146.672 318.12 132.697 311.705 116.423 L 300.099 86.979 L 286.751 86.885 L 273.403 86.792 Z M 219.924 100.399 L 223.244 100.399 C 225.898 100.399 226.919 100.58 228.329 101.3 C 230.947 102.638 231.744 103.961 231.729 106.939 C 231.703 112.036 229.863 115.318 226.459 116.337 C 224.727 116.856 220.635 116.999 220.192 116.555 C 220.044 116.409 219.924 112.713 219.924 108.343 L 219.924 100.399 Z M 290.045 110.387 C 290.106 110.392 290.171 110.422 290.225 110.477 C 290.473 110.724 296.437 126.901 296.437 127.326 C 296.437 127.498 293.462 127.639 289.827 127.639 C 286.192 127.639 283.217 127.504 283.217 127.339 C 283.216 127.028 289.652 110.743 289.892 110.447 C 289.93 110.401 289.985 110.381 290.045 110.387 Z" id="path4164"/>
  <path id="path4196" d="M 196.357 54.622 L 175.411 34.142 L 175.306 49.876 C 175.21 64.287 175.26 65.711 175.91 66.821 C 176.366 67.599 178.261 69.021 181.204 70.794 L 185.789 73.554 L 166.502 73.531 C 153.817 73.515 147.422 73.373 147.819 73.114 C 148.151 72.898 150.131 71.684 152.218 70.419 C 158.281 66.74 157.667 69.988 157.813 40.797 C 157.881 27.021 157.825 14.809 157.686 13.657 C 157.36 10.952 156.225 9.317 153.215 7.217 L 150.78 5.518 L 147.788 7.435 C 146.049 8.55 144.545 9.848 144.195 10.537 C 143.692 11.526 143.556 15.163 143.374 32.467 L 143.156 53.212 L 142.068 56.466 C 139.294 64.765 132.359 70.985 123.248 73.348 C 119.689 74.271 111.168 74.6 107.227 73.967 C 98.118 72.504 89.362 66.562 86.126 59.648 C 83.79 54.657 83.677 53.45 83.48 31.569 C 83.268 8.023 83.82 10.359 77.525 6.375 L 73.522 3.841 L 88.899 3.955 C 98.698 4.028 104.426 4.219 104.689 4.482 C 104.97 4.763 104.72 5.469 103.905 6.698 L 102.708 8.501 L 102.708 28.87 C 102.705 51.534 102.743 51.899 105.32 54.911 C 107.209 57.117 109.67 58.049 113.582 58.037 C 118.74 58.022 121.524 56.439 123.3 52.51 L 124.257 50.393 L 124.257 29.446 L 124.257 8.501 L 122.966 6.643 L 121.676 4.786 L 122.684 4.327 C 123.4 4 130.516 3.869 147.367 3.869 L 171.043 3.869 L 172.02 4.917 C 172.557 5.494 179.114 11.95 186.591 19.265 L 200.186 32.565 L 200.186 22.103 C 200.186 9.561 200.435 10.232 194.363 6.389 L 190.382 3.869 L 209.281 3.873 L 228.181 3.877 L 225.563 5.321 C 224.123 6.114 222.076 7.315 221.014 7.988 C 217.475 10.23 217.734 7.612 217.506 43.412 L 217.305 75.102 L 196.359 54.622 Z" style="fill-opacity: 1; fill: rgb(255, 255, 255);"/>
  <path id="path4194" d="M 255.57 74.877 C 252.555 74.457 247.632 72.955 244.556 71.517 C 234.565 66.845 227.717 58.378 225.297 47.703 C 224.286 43.247 224.384 35.259 225.506 30.68 C 228.998 16.422 240.275 6.306 255.369 3.89 C 259.067 3.299 266.541 3.378 271.279 4.06 C 275.501 4.666 283.881 6.466 284.262 6.849 C 284.385 6.971 284.9 11.017 285.408 15.842 C 285.916 20.666 286.441 25.48 286.575 26.54 L 286.819 28.468 L 284.434 26.839 C 281.303 24.702 275.168 21.85 271.883 21.005 C 268.258 20.071 261.266 19.747 258.107 20.366 C 250.641 21.829 246.06 26.681 244.621 34.652 C 243.96 38.314 244.161 43.101 245.134 46.863 C 246.421 51.835 249.822 55.698 254.462 57.456 C 257.362 58.555 264.155 58.977 267.554 58.269 L 269.87 57.788 L 269.867 51.472 C 269.866 47.998 269.685 44.511 269.467 43.724 C 268.961 41.901 267.723 40.776 263.248 38.069 L 259.647 35.892 L 273.52 35.768 C 286.546 35.652 291.625 35.949 291.619 36.827 C 291.619 36.977 291.075 37.916 290.413 38.913 L 289.208 40.726 L 289.206 53.128 C 289.205 64.708 289.258 65.634 290.004 67.098 C 290.444 67.96 290.988 68.78 291.213 68.918 C 291.93 69.362 291.654 69.936 290.514 70.377 C 287.757 71.442 276.726 73.998 272.491 74.553 C 268.244 75.109 258.574 75.295 255.57 74.877 Z" style="fill-opacity: 1; fill: rgb(255, 255, 255);"/>
  <path id="path4192" d="M 479.934 54.533 L 458.988 34.029 L 458.882 49.592 C 458.789 63.308 458.855 65.32 459.435 66.543 C 459.951 67.629 461.113 68.543 464.777 70.742 L 469.46 73.552 L 450.137 73.552 C 433.833 73.552 430.938 73.469 431.608 73.011 C 432.045 72.714 433.762 71.692 435.424 70.741 C 437.085 69.79 438.876 68.629 439.403 68.161 C 441.487 66.308 441.466 66.602 441.456 39.227 C 441.451 25.207 441.284 13.036 441.086 12.181 C 440.624 10.194 439.237 8.739 435.225 6.036 L 432.007 3.868 L 443.282 3.873 L 454.557 3.878 L 469.107 18.157 C 477.11 26.01 483.771 32.322 483.911 32.183 C 484.316 31.777 484.197 15.581 483.769 12.968 C 483.293 10.062 482.665 9.345 478.021 6.4 C 476.082 5.171 474.496 4.098 474.496 4.016 C 474.496 3.934 482.879 3.869 493.126 3.87 L 511.755 3.873 L 508.533 5.713 C 504.579 7.97 502.887 9.238 501.979 10.623 C 501.338 11.6 501.266 14.22 501.081 43.361 L 500.879 75.036 L 479.934 54.532 Z" style="fill-opacity: 1; fill: rgb(255, 255, 255);"/>
  <path id="path4188" d="M 525.652 73.934 C 519.084 72.945 514.419 72 513.165 71.405 L 512.158 70.927 L 511.471 58.46 C 511.092 51.605 510.851 45.927 510.935 45.843 C 511.018 45.759 513.684 47.659 516.859 50.064 C 525.822 56.855 529.908 58.65 536.403 58.65 C 542.142 58.65 544.181 57.211 544.181 53.163 C 544.181 51.447 544.012 51.099 542.441 49.594 C 540.879 48.097 539.918 47.668 533.076 45.415 C 520.014 41.112 515.056 38.158 512.272 33.018 C 509.985 28.795 509.47 24.651 510.572 19.318 C 511.436 15.136 512.91 12.226 515.651 9.297 C 519.795 4.866 525.205 2.775 533.543 2.378 C 539.465 2.096 548.204 3.278 554.886 5.264 L 556.931 5.873 L 557.442 15.574 C 557.723 20.91 557.855 25.373 557.737 25.491 C 557.618 25.61 556.457 25.061 555.159 24.272 C 543.295 17.065 527.666 15.835 527.666 22.107 C 527.666 24.743 529.701 25.84 539.069 28.256 C 548.123 30.59 553.073 32.945 556.838 36.71 C 565.351 45.223 565.102 60.4 556.324 67.915 C 549.461 73.791 538.716 75.899 525.652 73.934 Z" style="fill-opacity: 1; fill: rgb(255, 255, 255);"/>
  <path id="path4178" d="M 395.786 2.824 C 392.532 2.807 389.208 3.153 385.855 3.869 C 372.317 6.759 362.13 16.574 358.809 29.929 C 358.103 32.766 357.932 34.602 357.951 39.114 C 357.981 45.977 358.751 49.303 361.696 55.276 C 366.542 65.109 376.761 72.179 388.899 74.094 C 389.564 74.198 393.007 74.234 396.552 74.172 C 403.957 74.043 407.118 73.38 412.626 70.799 C 422.51 66.167 428.732 59.159 431.997 48.983 C 433.409 44.582 433.846 35.96 432.886 31.454 C 430.997 22.594 425.959 14.951 418.7 9.932 C 411.97 5.279 404.104 2.867 395.786 2.824 Z M 394.557 19.621 C 395.127 19.619 395.726 19.632 396.361 19.658 C 400.281 19.819 400.936 19.964 403.736 21.295 C 410.285 24.405 413.672 30.248 413.672 38.436 C 413.672 47.736 408.784 55.076 401.184 57.186 C 386.177 61.353 374.618 49.581 378.007 33.585 C 379.125 28.311 381.421 24.687 385.225 22.194 C 388.018 20.363 390.562 19.634 394.557 19.621 Z" style="fill-opacity: 1; fill: rgb(255, 255, 255);"/>
  <path id="path4174" d="M 0.14 0.002 C 0.108 0.006 0.083 0.015 0.067 0.031 C -0.339 0.436 1.159 4.457 2.626 6.9 C 4.323 9.727 5.38 10.91 8.649 13.641 C 13.051 17.319 12.677 14.684 12.677 42.001 C 12.677 69.893 13.316 66.737 6.89 70.588 C 4.622 71.947 2.654 73.171 2.519 73.306 C 2.103 73.723 38.556 73.574 43.465 73.14 C 52.377 72.351 57.829 70.187 64.544 64.774 C 71.88 58.86 76.146 49.294 76.162 38.712 C 76.167 35.879 75.916 32.691 75.557 31.011 C 72.732 17.794 63.331 8.193 49.937 4.842 C 47.84 4.317 43.788 4.123 29.595 3.861 C 8.933 3.48 5.922 3.13 1.658 0.615 C 0.999 0.226 0.37 -0.024 0.14 0.002 Z M 31.81 20.299 L 38.155 20.472 C 45.946 20.684 48.166 21.373 51.35 24.574 C 54.62 27.861 56.36 32.702 56.375 38.556 C 56.396 46.571 53.157 52.625 47.436 55.263 C 45.025 56.374 44.584 56.438 38.356 56.568 L 31.81 56.706 L 31.81 38.502 L 31.81 20.299 Z" style="fill-opacity: 1; fill: rgb(255, 255, 255);"/>
  <path id="path4170" d="M 296.998 70.688 C 300.857 68.372 301.88 67.562 302.343 66.452 C 302.823 65.304 302.899 60.705 302.807 38.13 C 302.68 6.711 303.346 10.385 297.056 6.386 L 293.096 3.869 L 320.537 3.869 L 347.978 3.869 L 348.184 5.178 C 348.579 7.7 350.095 24.412 349.962 24.78 C 349.887 24.985 348.663 24.275 347.24 23.201 C 345.816 22.128 343.879 21.055 342.932 20.817 C 341.948 20.568 337.157 20.383 331.724 20.383 L 322.235 20.383 L 322.235 25.046 L 322.235 29.709 L 332.406 29.578 C 341.227 29.464 342.75 29.352 343.886 28.731 L 345.195 28.017 L 345.195 38.578 L 345.195 49.141 L 343.763 47.753 L 342.332 46.364 L 332.283 46.245 L 322.235 46.124 L 322.235 51.38 L 322.235 56.636 L 332.688 56.636 C 338.846 56.636 344 56.452 345.232 56.188 C 346.655 55.883 348.52 54.929 351.067 53.201 C 353.126 51.806 354.74 50.874 354.653 51.132 C 354.568 51.39 353.479 56.223 352.235 61.873 C 350.992 67.522 349.883 72.461 349.772 72.849 C 349.583 73.512 347.862 73.554 320.899 73.553 L 292.226 73.553 L 296.998 70.689 Z" style="fill-opacity: 1; fill: rgb(255, 255, 255);"/>
  <path d="M 138.737 208.222 C 135.659 207.746 132.564 206.474 130.309 204.74 C 126.565 201.877 123.645 196.831 123.024 192.162 C 122.937 191.454 122.807 190.89 122.749 190.89 C 122.561 190.89 121.49 192.408 121.028 193.333 C 119.352 196.687 119.756 201.472 121.969 204.377 L 122.474 205.043 L 121.896 204.84 C 118.744 203.727 115.65 200.951 114.161 197.902 C 112.846 195.212 112.601 193.391 112.876 188.288 C 113.15 183.286 112.889 181.348 111.676 179.007 C 111.401 178.486 110.823 177.648 110.388 177.172 C 109.246 175.928 103.535 171.056 98.332 166.893 C 95.673 164.767 94.906 164.088 93.879 162.917 C 92.088 160.908 91.379 159.101 91.032 155.761 C 90.888 154.431 90.684 153.246 90.511 152.769 C 90.12 151.728 89.007 150.572 86.767 148.823 C 84.05 146.697 83.342 145.859 82.806 144.066 C 82.502 143.04 82.502 141.277 82.821 140.279 L 83.066 139.499 L 83.182 140.25 C 83.427 141.869 84.397 143.17 85.986 144.009 C 87.216 144.659 88.141 144.876 90.599 145.122 C 94.934 145.556 96.034 146.423 96.67 149.907 C 97.148 152.538 97.711 153.608 98.839 154.027 C 99.07 154.113 100.27 154.243 101.512 154.316 C 103.897 154.461 104.765 154.591 105.921 154.966 C 107.483 155.486 107.135 155.227 117.906 164.117 C 121.794 167.341 125.279 170.174 125.64 170.434 C 127.663 171.866 130.006 172.415 131.942 171.894 C 134.342 171.258 136.265 169.278 136.786 166.879 C 136.973 166.054 136.917 163.842 136.699 163.148 L 136.597 162.788 L 137.089 163.134 C 140.588 165.591 142.641 170.464 142.12 175.118 C 141.816 177.792 140.905 179.831 139.272 181.436 L 138.36 182.331 L 139.199 182.447 C 140.66 182.65 143.118 182.549 144.722 182.216 C 149.16 181.32 152.284 178.92 153.308 175.638 C 153.758 174.164 153.727 172.111 153.236 170.694 C 152.298 168.049 149.998 165.779 147.224 164.767 L 146.254 164.421 L 148.494 164.492 C 150.995 164.58 152.789 164.897 154.812 165.606 C 163.688 168.742 168.575 177.272 166.19 185.498 C 165.409 188.2 164.065 190.398 161.882 192.553 C 159.149 195.27 156.055 196.904 151.95 197.785 C 151.011 197.988 150.085 198.046 147.873 198.046 L 145.011 198.046 L 145.415 198.378 C 148.394 200.821 154.74 202.253 158.065 201.24 C 158.744 201.038 158.759 201.038 158.585 201.357 C 158.283 201.934 156.633 203.423 155.289 204.321 C 152.861 205.94 149.637 207.254 146.399 207.948 C 144.752 208.31 140.255 208.469 138.737 208.222 Z" style="fill: rgb(170, 170, 170);"/>
  <path d="M 67.252 205.983 C 66.977 205.953 66.197 205.852 65.516 205.765 C 59.734 205.071 53.33 202.339 48.487 198.508 C 46.117 196.643 43.63 193.955 42.373 191.901 L 41.881 191.107 L 41.837 192.914 C 41.823 193.998 41.881 195.183 42.011 195.877 C 42.112 196.513 42.184 197.063 42.141 197.106 C 41.982 197.279 39.394 194.331 38.426 192.87 C 35.26 188.101 33.193 182.361 32.166 175.494 C 31.819 173.095 31.806 166.387 32.166 164.103 C 32.701 160.691 33.756 156.846 34.855 154.402 C 35.102 153.853 35.274 153.376 35.246 153.333 C 35.044 153.145 31.661 155.371 29.955 156.788 C 28.74 157.814 28.725 157.799 29.623 155.545 C 31.834 149.907 37.052 142.143 42.198 136.838 C 43.89 135.089 43.962 135.031 44.179 135.305 C 44.845 136.188 44.831 137.344 44.137 140.813 C 43.89 142.013 43.601 143.647 43.485 144.428 C 43.268 145.873 43.023 149.112 43.123 149.112 C 43.154 149.112 43.934 148.374 44.845 147.478 C 48.155 144.254 53.721 140.424 58.404 138.154 C 59.459 137.647 60.356 137.257 60.399 137.286 C 60.429 137.33 60.197 137.792 59.878 138.312 C 58.521 140.554 57.421 144.298 57.421 146.654 L 57.421 147.261 L 58.26 146.51 C 60.862 144.168 63.767 142.896 66.514 142.896 C 67.599 142.896 69.175 143.155 69.579 143.416 C 69.652 143.459 69.103 144.153 68.349 144.963 C 63.189 150.528 60.14 156.369 59.069 162.773 C 58.737 164.753 58.737 168.526 59.069 170.362 C 59.792 174.38 61.268 177.518 63.623 180.077 C 66.775 183.459 70.894 185.151 75.476 184.919 C 79.697 184.703 83.803 182.665 88.531 178.415 C 90.843 176.347 93.923 172.545 95.543 169.784 C 96.004 169.003 96.423 168.353 96.467 168.338 C 96.728 168.323 108.118 177.881 108.249 178.241 C 108.408 178.631 105.966 183.141 103.869 186.322 C 96.395 197.728 86.869 204.146 75.13 205.708 C 73.468 205.94 68.307 206.112 67.252 205.983 Z" style="fill: rgb(170, 170, 170);"/>
  <path d="M 112.788 156.975 C 109.333 154.142 108.625 153.637 107.237 153.073 L 106.282 152.682 L 106.674 152.161 C 114.407 141.768 123.326 134.337 132.448 130.71 C 135.484 129.495 139.88 128.439 141.888 128.439 C 142.438 128.439 142.582 128.396 142.466 128.28 C 142.352 128.164 141.513 128.136 139.575 128.193 C 137.436 128.251 136.482 128.353 135.123 128.642 C 131.423 129.422 127.259 130.998 123.775 132.921 C 119.814 135.104 115.736 138.226 113.352 140.915 C 112.195 142.216 112.181 142.143 113.106 139.788 C 115.462 133.774 121.215 126.661 126.681 123.004 C 127.215 122.657 127.693 122.368 127.736 122.368 C 127.793 122.368 127.549 122.772 127.188 123.279 C 126.392 124.406 125.553 126.025 125.437 126.734 C 125.351 127.153 125.394 127.312 125.64 127.557 C 125.813 127.731 126.102 127.862 126.276 127.862 C 126.811 127.862 128.243 127.08 129.355 126.17 C 134.906 121.66 135.744 121.053 137.884 119.998 C 139.59 119.158 141.888 118.464 142.916 118.464 C 143.001 118.464 142.466 118.826 141.729 119.274 C 140.313 120.127 138.78 121.428 138.433 122.093 C 138.173 122.613 138.173 123.235 138.463 123.639 C 138.794 124.117 139.678 124.059 141.744 123.394 C 146.471 121.861 147.309 121.717 150.953 121.717 C 154.321 121.731 155.593 121.934 158.686 122.96 C 162.85 124.333 168.156 127.629 170.83 130.463 C 171.365 131.027 171.379 131.07 171.047 130.984 C 169.269 130.535 165.554 130.535 162.546 130.969 C 158.021 131.619 153.396 133.152 150.981 134.771 C 150.258 135.277 150.085 135.335 149.941 135.161 C 149.637 134.801 147.151 133.673 145.965 133.355 C 144.303 132.906 140.674 132.791 138.896 133.123 C 135.267 133.818 132.087 135.437 129.702 137.821 C 127.519 140.02 124.107 144.659 121.419 149.068 C 119.931 151.526 116.114 158.898 116.114 159.318 C 116.114 159.433 116.069 159.521 116.011 159.521 C 115.939 159.521 114.494 158.378 112.788 156.975 Z" style="fill: rgb(170, 170, 170);"/>
  <path d="M 73.266 158.898 C 74.321 158.161 75.982 156.311 76.49 155.298 C 76.734 154.807 76.909 154.388 76.879 154.359 C 76.851 154.331 76.474 154.402 76.055 154.518 C 75.115 154.778 73.266 155.038 72.326 155.038 L 71.632 155.038 L 72.585 154.069 C 74.163 152.45 75.057 150.268 75.057 147.999 C 75.057 145.931 74.407 144.313 73.077 143.026 C 71.732 141.724 70.041 140.987 67.771 140.713 C 65.618 140.439 63.031 140.886 61.367 141.811 C 61.021 141.999 60.746 142.086 60.746 141.999 C 60.746 141.623 61.873 139.643 62.711 138.53 C 64.259 136.448 66.486 134.525 68.552 133.485 L 69.492 133.007 L 68.986 132.805 C 68.422 132.573 65.214 131.735 63.854 131.475 L 63.001 131.302 L 63.348 131.013 C 63.87 130.593 65.792 129.654 67.107 129.163 C 69.477 128.28 72.354 127.629 74.524 127.471 C 76.157 127.354 75.896 127.196 73.728 126.979 C 68.958 126.516 62.784 128.049 58.968 130.636 C 58.071 131.244 56.221 132.921 56.323 133.022 C 56.351 133.065 56.902 133.152 57.523 133.224 C 58.968 133.412 62.235 134.062 62.38 134.207 C 62.437 134.265 62.033 134.424 61.484 134.554 C 57.682 135.465 50.975 139.194 47.056 142.577 L 45.914 143.575 L 46.304 142.158 C 47.085 139.383 47.215 136.722 46.637 135.19 C 46.031 133.615 44.656 132.458 42.82 131.952 C 41.246 131.518 36.995 131.619 34.797 132.139 C 34.61 132.183 34.754 131.981 35.216 131.548 C 36.691 130.16 39.105 128.627 43.76 126.14 C 49.875 122.844 50.627 122.122 50.049 120.041 C 49.586 118.392 46.507 115.053 44.251 113.766 L 43.615 113.405 L 45.062 113.405 C 47.996 113.405 51.624 113.795 53.633 114.33 C 54.052 114.446 54.385 114.489 54.357 114.446 C 54.327 114.388 54.096 113.939 53.85 113.448 C 52.752 111.367 52.246 108.114 52.636 105.815 C 52.925 104.139 52.911 104.153 53.532 105.309 C 55.325 108.605 57.782 110.643 64.939 114.779 C 66.571 115.703 68.581 116.946 69.419 117.51 C 71.241 118.739 73.194 120.661 73.944 121.934 C 74.609 123.09 74.668 122.671 74.06 121.11 C 73.149 118.783 70.691 115.877 68.307 114.272 C 67.222 113.55 67.092 113.419 66.89 112.754 C 65.892 109.545 66.095 103.719 67.338 99.787 C 67.714 98.587 68.581 96.723 68.814 96.578 C 68.885 96.534 68.986 97.171 69.03 97.981 C 69.289 102.273 71.444 106.25 76.127 111.063 C 76.764 111.728 79.192 113.983 81.491 116.079 C 87.518 121.529 89.601 123.77 91.046 126.358 C 91.335 126.863 91.582 127.283 91.609 127.283 C 91.74 127.283 91.075 125.62 90.526 124.508 C 88.82 121.11 86.564 118.537 80.363 112.899 C 78.614 111.324 76.893 109.66 76.518 109.213 C 75.606 108.129 75.419 107.261 75.434 104.442 C 75.448 102.678 75.507 102.114 75.824 100.929 C 76.04 100.148 76.373 99.136 76.59 98.688 L 76.981 97.864 L 77.168 99.382 C 77.5 101.999 78.368 104.283 80.045 106.827 C 81.75 109.429 83.717 111.569 88.183 115.688 C 93.201 120.286 94.862 122.079 96.496 124.608 C 98.448 127.673 99.43 131.07 99.113 133.716 L 98.983 134.728 L 99.634 135.031 C 100.992 135.667 101.757 136.65 101.931 138.009 L 102.019 138.703 L 102.885 138.298 C 103.969 137.778 105.083 136.781 105.836 135.667 L 106.399 134.814 L 106.5 135.682 C 106.615 136.694 106.5 138.312 106.196 139.83 C 105.459 143.488 103.261 147.348 100.804 149.314 C 99.878 150.066 99.214 150.485 99.127 150.383 C 99.113 150.355 99.155 149.892 99.243 149.343 C 99.517 147.579 98.997 145.787 97.898 144.645 C 96.598 143.315 93.475 142.476 89.76 142.462 C 89.137 142.462 88.646 142.418 88.675 142.361 C 88.705 142.288 88.921 141.855 89.167 141.377 C 90.02 139.758 90.31 138.183 89.918 137.33 C 89.485 136.39 87.88 136.028 84.165 136.043 C 80.436 136.058 76.401 136.607 73.396 137.518 L 72.528 137.778 L 74.307 137.893 C 76.793 138.024 79.655 138.544 79.51 138.82 C 78.109 141.479 77.415 144.76 78.007 145.917 C 78.527 146.9 79.626 146.957 80.74 146.062 C 81.187 145.7 81.289 145.658 81.231 145.873 C 80.955 146.798 80.695 148.041 80.55 149.068 C 80.176 151.844 80.927 152.712 83.514 152.552 L 84.744 152.465 L 84.352 153.204 C 82.821 156.007 77.776 158.841 73.468 159.303 L 72.528 159.405 L 73.266 158.898 Z M 90.454 132.747 C 90.02 131.33 88.458 129.176 87.027 128.02 C 86.044 127.225 84.122 126.2 84.05 126.415 C 83.963 126.647 84.585 128.41 85.148 129.582 C 86.029 131.403 87.518 132.618 89.254 132.906 C 90.511 133.109 90.554 133.109 90.454 132.747 Z" style="fill: rgb(170, 170, 170);"/>
  <path d="M 93.635 117.728 C 93.315 117.395 91.567 115.747 89.73 114.055 C 85.741 110.354 83.963 108.505 82.748 106.798 C 82.416 106.321 82.416 106.321 82.691 105.931 C 83.24 105.15 84.136 103.199 84.585 101.811 C 86.767 94.959 84.772 87.673 80.031 85.186 C 77.906 84.058 74.957 83.697 72.745 84.276 C 70.62 84.811 68.509 86.227 67.18 87.977 C 66.356 89.075 65.358 91.128 65.011 92.443 C 64.65 93.831 64.563 96.708 64.837 98.27 C 65.054 99.512 65.054 99.599 64.722 101.044 C 64.186 103.416 64.028 105.439 64.114 108.389 C 64.159 109.834 64.244 111.207 64.303 111.439 L 64.403 111.872 L 63.55 111.381 C 60.948 109.935 58.232 107.637 56.641 105.555 C 55.123 103.56 54.53 102.418 52.81 98.153 C 52.708 97.893 52.665 97.922 52.391 98.442 C 51.885 99.44 51.074 101.941 50.757 103.488 C 50.221 106.119 50.266 109.689 50.858 111.96 C 50.959 112.321 50.959 112.321 50.483 111.888 C 49.672 111.121 48.386 109.314 47.634 107.825 C 45.885 104.399 45.134 101.044 45.134 96.621 C 45.134 92.14 46.088 88.208 47.778 85.62 L 48.372 84.709 L 48.559 86.3 C 48.761 88.005 49.239 89.957 49.542 90.362 C 49.702 90.593 49.745 90.477 49.904 89.538 C 50.685 84.868 54.486 78.29 58.419 74.836 C 59.618 73.78 60.891 72.841 60.891 73.029 C 60.891 73.086 60.76 73.52 60.601 73.998 C 60.269 74.98 59.937 77.279 60.081 77.64 C 60.153 77.843 60.414 77.655 61.367 76.73 C 67.844 70.413 80.508 69.226 89.659 74.113 C 91.624 75.155 93.128 76.253 94.775 77.843 C 99.373 82.266 101.975 87.991 102.524 94.843 C 102.872 99.281 101.86 104.196 99.489 109.574 C 98.203 112.509 95.962 116.311 94.617 117.858 L 94.211 118.32 L 93.635 117.728 Z" style="fill: rgb(170, 170, 170);"/>
</svg>