<?xml version="1.0" encoding="utf-8"?>
<svg version="1.1" xmlns="http://www.w3.org/2000/svg">
  <g>
    <path class="B" d="M 534.849 16.917 C 535.326 14.748 535.851 13.164 536.388 12.339 C 541.683 4.338 546.216 3.126 555.684 3.411 C 555.684 3.411 565.047 3.411 579.135 4.698 C 602.796 6.849 597.114 38.124 597.114 38.124 C 597.114 38.124 596.502 41.175 593.013 42.177 C 589.545 43.194 575.934 41.148 575.934 41.148 C 575.934 41.148 573.363 39.831 573.468 38.304 L 573.33 31.812 C 572.601 27.312 568.935 27.549 563.895 27.252 C 558.168 26.907 555.534 30.36 555.069 37.017 C 555.069 37.017 554.037 52.575 553.245 63.192 C 552.291 76.056 559.155 75.366 559.155 75.366 C 567.306 76.071 571.164 76.263 571.179 66.006 L 568.11 65.763 C 568.11 65.763 566.601 65.661 565.239 63.282 L 566.334 51.033 C 566.334 51.033 567.093 46.905 570.864 46.95 C 570.864 46.95 587.406 48.114 590.727 48.384 C 591.114 48.414 594.915 48.939 595.587 53.232 L 592.806 98.73 C 592.806 98.73 593.088 101.721 589.59 102.618 L 573.285 101.481 C 573.285 101.481 570.894 100.224 570.612 98.685 L 571.506 93.972 C 570.297 104.172 544.464 100.926 538.602 99.252 C 537.63 98.967 536.268 98.25 535.074 97.278" style="fill: rgb(255, 255, 255);"/>
    <path class="C" d="M 532.635 16.422 C 532.875 15.285 533.145 14.268 533.442 13.401 C 533.742 12.519 534.042 11.787 534.504 11.082 L 534.504 11.082 C 535.791 9.138 537.048 7.539 538.41 6.207 C 540.429 4.203 542.688 2.856 545.184 2.097 C 547.683 1.317 550.389 1.092 553.5 1.092 C 554.22 1.092 554.979 1.107 555.774 1.122 L 555.699 3.396 L 555.699 1.122 C 555.759 1.122 565.179 1.122 579.36 2.424 C 583.698 2.811 587.271 4.143 590.097 6.117 C 594.36 9.078 596.829 13.386 598.233 17.754 C 599.625 22.122 600 26.625 600 30.303 C 600 35.028 599.388 38.439 599.358 38.529 L 599.358 38.574 C 599.328 38.769 599.103 39.801 598.293 41.028 C 597.504 42.252 595.989 43.704 593.673 44.361 C 593.103 44.526 592.536 44.601 591.924 44.661 C 591.312 44.721 590.664 44.736 589.965 44.736 C 587.151 44.736 583.623 44.394 580.737 44.064 C 577.851 43.734 575.649 43.407 575.619 43.392 C 575.382 43.362 575.157 43.284 574.917 43.164 C 574.845 43.119 574.11 42.762 573.285 42.09 C 572.868 41.745 572.433 41.325 572.016 40.773 C 571.629 40.203 571.224 39.426 571.224 38.394 L 571.239 38.142 L 573.513 38.304 L 571.239 38.349 L 571.104 31.857 L 573.378 31.812 L 571.134 32.187 C 570.981 31.365 570.774 30.978 570.567 30.735 C 570.414 30.558 570.237 30.42 569.922 30.273 C 569.457 30.048 568.668 29.868 567.603 29.778 C 566.541 29.673 565.254 29.631 563.802 29.556 C 563.595 29.541 563.388 29.541 563.19 29.541 C 562.143 29.541 561.336 29.718 560.709 29.991 C 559.782 30.405 559.125 31.02 558.54 32.187 C 557.955 33.339 557.55 35.028 557.403 37.212 L 557.403 37.212 C 557.403 37.212 556.371 52.767 555.564 63.402 C 555.504 64.194 555.474 64.911 555.474 65.586 C 555.474 67.722 555.759 69.249 556.116 70.314 C 556.686 71.913 557.358 72.465 557.88 72.78 C 558.405 73.092 558.912 73.122 559.017 73.107 L 559.035 73.107 L 559.11 74.379 L 558.972 73.107 L 559.035 73.107 L 559.11 74.379 L 558.972 73.107 L 559.392 73.107 C 561.171 73.26 562.713 73.377 563.955 73.377 C 565.062 73.377 565.914 73.275 566.496 73.092 C 566.931 72.957 567.231 72.795 567.468 72.585 C 567.828 72.288 568.173 71.793 568.47 70.746 C 568.77 69.696 568.965 68.127 568.965 66.006 L 571.239 66.006 L 571.059 68.277 L 567.993 68.037 L 568.008 68.037 C 567.723 68.025 566.976 67.905 566.076 67.377 C 565.179 66.855 564.162 65.916 563.31 64.419 C 563.073 64.014 562.968 63.552 563.013 63.09 L 564.102 50.838 L 564.132 50.631 C 564.162 50.463 564.39 49.209 565.302 47.772 C 565.749 47.052 566.406 46.293 567.351 45.693 C 568.278 45.081 569.502 44.691 570.849 44.691 L 570.939 44.691 L 571.074 44.706 C 571.074 44.706 587.601 45.873 590.952 46.14 L 590.952 46.14 C 591.237 46.155 591.627 46.218 592.224 46.395 C 593.088 46.635 594.3 47.142 595.437 48.177 C 596.574 49.209 597.561 50.823 597.876 52.917 C 597.906 53.082 597.921 53.247 597.891 53.409 L 595.11 98.907 L 592.836 98.775 L 595.095 98.565 C 595.11 98.625 595.11 98.76 595.11 98.937 C 595.11 99.507 595.035 100.614 594.33 101.868 C 593.985 102.483 593.463 103.125 592.776 103.665 C 592.071 104.202 591.207 104.622 590.19 104.877 C 589.935 104.937 589.707 104.967 589.455 104.937 L 573.153 103.797 C 572.838 103.77 572.541 103.695 572.256 103.545 C 572.181 103.5 571.476 103.14 570.669 102.483 C 570.252 102.153 569.817 101.751 569.397 101.226 C 568.995 100.704 568.575 100.032 568.41 99.135 C 568.365 98.862 568.365 98.58 568.41 98.31 L 569.31 93.6 C 569.532 92.388 570.684 91.581 571.896 91.773 C 573.108 91.956 573.96 93.075 573.81 94.287 C 573.603 96.201 572.673 97.905 571.371 99.12 C 569.412 100.971 566.826 101.961 563.985 102.588 C 561.129 103.2 557.985 103.428 554.847 103.428 C 551.361 103.428 547.89 103.155 544.929 102.768 C 541.968 102.393 539.559 101.913 538.02 101.481 L 538.02 101.481 C 537.315 101.271 536.598 100.956 535.851 100.554 C 535.134 100.152 534.384 99.657 533.667 99.072 L 536.541 95.544 C 537.018 95.931 537.555 96.276 538.05 96.558 C 538.542 96.831 539.007 97.023 539.274 97.098 C 540.399 97.428 542.718 97.89 545.511 98.235 C 548.295 98.595 551.586 98.85 554.847 98.85 C 558.735 98.85 562.548 98.445 565.224 97.503 C 566.556 97.023 567.588 96.441 568.233 95.814 C 568.875 95.187 569.19 94.587 569.295 93.732 L 571.554 94.002 L 573.78 94.422 L 572.883 99.135 L 570.642 98.7 L 572.883 98.295 L 572.481 98.37 L 572.868 98.235 L 572.883 98.295 L 572.481 98.37 L 572.868 98.235 L 572.748 98.28 L 572.868 98.235 L 572.883 98.235 L 572.763 98.28 L 572.883 98.235 C 572.883 98.235 572.943 98.355 573.093 98.505 C 573.3 98.73 573.66 99.012 573.945 99.207 C 574.095 99.297 574.215 99.372 574.287 99.432 L 574.377 99.48 L 574.392 99.495 L 573.99 100.239 L 574.392 99.495 L 574.392 99.495 L 573.99 100.239 L 574.392 99.495 L 573.33 101.511 L 573.498 99.237 L 589.8 100.374 L 589.635 102.648 L 589.065 100.434 C 589.56 100.314 589.83 100.152 590.022 100.002 C 590.295 99.792 590.397 99.597 590.487 99.387 C 590.562 99.18 590.577 98.952 590.577 98.907 L 590.577 98.892 L 591.489 98.877 L 590.577 98.967 L 590.577 98.907 L 591.489 98.892 L 590.577 98.982 L 590.577 98.64 L 593.358 53.142 L 595.632 53.277 L 593.388 53.634 C 593.271 52.872 593.043 52.392 592.776 52.017 C 592.401 51.465 591.894 51.153 591.414 50.943 C 591.174 50.838 590.952 50.778 590.802 50.733 L 590.622 50.703 L 590.577 50.703 L 590.637 50.241 L 590.592 50.703 L 590.577 50.703 L 590.637 50.241 L 590.592 50.703 L 590.607 50.703 C 588.963 50.568 583.98 50.226 579.435 49.896 C 574.89 49.566 570.759 49.284 570.744 49.284 L 570.909 47.01 L 570.879 49.284 L 570.849 49.284 C 570.339 49.284 570.069 49.401 569.817 49.551 C 569.442 49.776 569.1 50.256 568.89 50.733 C 568.785 50.973 568.71 51.198 568.668 51.33 L 568.62 51.495 L 568.62 51.525 L 567.603 51.315 L 568.62 51.51 L 568.62 51.54 L 567.603 51.33 L 568.62 51.525 L 566.379 51.108 L 568.65 51.315 L 567.558 63.567 L 565.287 63.372 L 567.276 62.235 C 567.783 63.117 568.203 63.417 568.395 63.537 L 568.515 63.597 L 568.545 63.612 L 568.44 63.954 L 568.5 63.597 L 568.545 63.612 L 568.44 63.954 L 568.5 63.597 L 568.233 65.091 L 568.338 63.582 L 568.5 63.597 L 568.233 65.091 L 568.338 63.582 L 568.365 63.582 L 571.431 63.819 C 572.628 63.909 573.528 64.911 573.528 66.093 C 573.528 68.202 573.363 69.969 573.018 71.493 C 572.748 72.645 572.358 73.662 571.806 74.544 C 570.969 75.891 569.682 76.878 568.308 77.37 C 566.916 77.877 565.479 78 563.97 78 C 562.446 78 560.814 77.865 559.035 77.715 L 559.212 75.441 L 559.44 77.715 C 559.377 77.715 559.227 77.73 559.035 77.73 C 558.585 77.73 557.88 77.685 556.983 77.4 C 555.684 76.998 554.022 75.978 552.843 74.034 C 551.643 72.105 550.929 69.414 550.929 65.631 C 550.929 64.836 550.974 63.999 551.031 63.105 C 551.436 57.81 551.886 51.273 552.243 46.053 C 552.423 43.449 552.573 41.175 552.69 39.543 C 552.798 37.914 552.873 36.957 552.873 36.957 L 552.873 36.957 C 553.11 33.534 553.86 30.648 555.606 28.416 C 556.476 27.327 557.613 26.427 558.897 25.875 C 560.199 25.308 561.651 25.053 563.205 25.053 C 563.505 25.053 563.787 25.068 564.09 25.08 C 566.541 25.248 568.8 25.203 570.996 25.905 C 572.091 26.265 573.198 26.877 574.05 27.879 C 574.89 28.866 575.412 30.138 575.634 31.56 L 575.664 31.872 L 575.799 38.364 L 575.799 38.589 L 574.752 38.514 L 575.799 38.514 L 575.799 38.589 L 574.752 38.514 L 575.799 38.514 L 575.052 38.514 L 575.754 38.244 L 575.799 38.514 L 575.052 38.514 L 575.754 38.244 L 575.532 38.334 L 575.739 38.229 L 575.754 38.259 L 575.532 38.349 L 575.739 38.244 C 575.724 38.259 576.054 38.634 576.414 38.871 C 576.591 38.991 576.759 39.114 576.879 39.174 L 577.011 39.246 L 577.026 39.261 L 576.744 39.801 L 577.026 39.261 L 577.026 39.261 L 576.744 39.801 L 577.026 39.261 L 575.979 41.28 L 576.324 39.036 C 576.324 39.036 576.459 39.054 576.696 39.099 C 577.548 39.216 579.78 39.528 582.351 39.816 C 584.907 40.101 587.841 40.338 589.995 40.323 C 590.592 40.323 591.129 40.308 591.564 40.263 C 591.996 40.233 592.326 40.173 592.431 40.131 C 593.601 39.786 594.138 39.201 594.51 38.664 C 594.69 38.394 594.81 38.142 594.87 37.974 L 594.927 37.797 L 594.927 37.782 L 596.127 38.064 L 594.915 37.827 L 594.927 37.782 L 596.127 38.064 L 594.915 37.827 L 597.144 38.274 L 594.9 37.869 L 594.9 37.857 C 594.942 37.569 595.452 34.521 595.452 30.468 C 595.467 25.965 594.81 20.235 592.416 15.735 C 591.237 13.476 589.65 11.517 587.496 10.02 C 585.357 8.526 582.621 7.464 578.955 7.134 C 571.959 6.492 566.136 6.177 562.071 6.015 C 560.022 5.937 558.435 5.892 557.358 5.877 C 556.821 5.862 556.401 5.862 556.131 5.862 C 555.849 5.862 555.729 5.862 555.729 5.862 L 555.669 5.862 C 554.919 5.832 554.202 5.832 553.53 5.832 C 551.601 5.832 549.957 5.937 548.535 6.162 C 546.408 6.522 544.779 7.149 543.21 8.286 C 541.623 9.423 540.069 11.157 538.335 13.776 L 538.335 13.776 C 538.242 13.911 538.02 14.358 537.795 15.03 C 537.585 15.69 537.33 16.572 537.108 17.589 L 532.635 16.422" style="fill: rgb(20, 20, 20);"/>
    <path class="B" d="M 289.47 27.864 C 294.957 42.09 301.644 59.004 301.644 59.004 L 300.315 96.978 C 300.315 96.978 300.717 100.164 304.743 100.599 C 310.14 101.166 318.129 101.064 318.129 101.064 C 318.129 101.064 322.164 102.036 322.314 97.503 C 322.407 95.124 323.646 59.691 323.646 59.691 L 346.515 11.382 C 346.515 11.382 347.412 6.552 343.359 6.417 C 339.291 6.282 328.224 5.73 328.224 5.73 C 328.224 5.73 325.965 4.875 324.036 9.333 C 322.254 13.446 313.926 34.221 313.926 34.221 L 306.894 8.733 C 304.698 4.44 304.47 4.89 300.42 4.755 C 297.996 4.668 293.673 4.563 290.142 4.623" style="fill: rgb(255, 255, 255);"/>
    <path class="C" d="M 291.609 27.042 C 294.345 34.146 297.381 41.925 299.748 47.922 C 300.927 50.928 301.929 53.484 302.646 55.278 C 303.366 57.09 303.783 58.137 303.783 58.137 C 303.903 58.437 303.948 58.737 303.948 59.049 L 302.619 97.023 L 300.345 96.933 L 302.601 96.651 L 301.227 96.831 L 302.586 96.588 L 302.601 96.651 L 301.227 96.831 L 302.586 96.588 L 302.304 96.636 L 302.586 96.573 L 302.586 96.588 L 302.304 96.636 L 302.586 96.573 C 302.586 96.588 302.694 97.008 302.991 97.368 C 303.141 97.545 303.336 97.728 303.633 97.89 C 303.948 98.058 304.368 98.205 305.01 98.28 C 308.838 98.685 314.268 98.745 316.752 98.745 C 317.619 98.745 318.129 98.745 318.129 98.745 C 318.306 98.745 318.504 98.76 318.681 98.805 L 318.504 99.537 L 318.651 98.79 L 318.681 98.805 L 318.504 99.537 L 318.651 98.79 C 318.666 98.805 318.831 98.82 319.026 98.82 C 319.338 98.82 319.623 98.73 319.698 98.655 C 319.743 98.61 319.788 98.58 319.86 98.415 C 319.938 98.25 320.043 97.92 320.043 97.368 L 320.043 97.368 C 320.088 96.186 320.415 86.733 320.745 77.565 C 321.06 68.412 321.375 59.541 321.375 59.541 C 321.39 59.244 321.465 58.929 321.582 58.644 L 344.451 10.323 L 346.515 11.295 L 344.286 10.875 L 345.258 11.052 L 344.286 10.89 L 344.286 10.935 L 345.258 11.112 L 344.286 10.95 C 344.286 10.95 344.331 10.635 344.331 10.263 C 344.346 9.768 344.211 9.183 344.079 8.976 L 343.896 8.778 C 343.821 8.733 343.674 8.661 343.269 8.646 C 339.171 8.496 328.101 7.944 328.101 7.944 C 327.864 7.929 327.642 7.884 327.414 7.794 L 327.744 6.897 L 327.744 7.869 C 327.702 7.869 327.612 7.869 327.414 7.794 L 327.744 6.897 L 327.744 7.869 L 327.744 7.689 L 327.774 7.869 L 327.744 7.869 L 327.744 7.689 L 327.774 7.869 L 327.714 7.899 C 327.627 7.944 327.429 8.046 327.162 8.376 C 326.877 8.703 326.502 9.273 326.112 10.17 C 325.245 12.159 322.719 18.411 320.415 24.108 C 319.263 26.967 318.159 29.688 317.349 31.707 C 316.545 33.726 316.017 35.013 316.017 35.013 C 315.645 35.925 314.748 36.495 313.776 36.435 C 312.804 36.375 311.967 35.703 311.709 34.761 L 304.683 9.258 L 306.879 8.661 L 304.86 9.69 C 304.323 8.646 303.933 7.944 303.651 7.554 C 303.441 7.254 303.336 7.164 303.306 7.134 L 303.246 7.104 C 303.186 7.074 302.901 7.032 302.409 7.002 C 301.914 6.972 301.212 6.972 300.33 6.942 C 298.386 6.864 295.23 6.774 292.269 6.774 C 291.549 6.774 290.847 6.774 290.187 6.789 L 290.112 2.229 C 290.817 2.214 291.534 2.214 292.284 2.214 C 295.332 2.214 298.533 2.304 300.507 2.379 C 301.479 2.409 302.259 2.409 303.006 2.466 C 303.573 2.511 304.173 2.589 304.8 2.811 C 305.28 2.976 305.742 3.246 306.162 3.561 C 306.774 4.056 307.239 4.638 307.644 5.28 C 308.061 5.922 308.466 6.672 308.946 7.599 C 309.018 7.746 309.078 7.869 309.108 8.031 L 316.137 33.534 L 313.938 34.131 L 311.829 33.291 C 311.829 33.291 313.911 28.089 316.215 22.377 C 318.531 16.662 321.045 10.455 321.957 8.334 C 322.764 6.477 323.691 5.22 324.753 4.398 C 325.8 3.576 326.952 3.276 327.774 3.291 C 328.401 3.291 328.836 3.426 329.028 3.501 L 328.224 5.64 L 328.344 3.366 C 328.344 3.366 331.11 3.501 334.386 3.666 C 337.659 3.813 341.445 3.993 343.446 4.071 C 344.466 4.098 345.42 4.353 346.215 4.815 C 346.812 5.16 347.31 5.625 347.682 6.117 C 348.234 6.849 348.519 7.644 348.696 8.334 C 348.864 9.033 348.909 9.675 348.909 10.2 C 348.909 11.037 348.804 11.607 348.789 11.712 C 348.744 11.892 348.684 12.099 348.609 12.267 L 325.74 60.573 L 323.691 59.601 L 325.965 59.676 C 325.965 59.676 324.738 95.124 324.648 97.503 C 324.603 98.532 324.426 99.462 324.051 100.269 C 323.511 101.496 322.524 102.378 321.567 102.81 C 320.61 103.26 319.728 103.335 319.056 103.35 C 318.276 103.35 317.769 103.23 317.649 103.2 L 318.189 100.986 L 318.216 103.26 C 318.216 103.26 317.679 103.26 316.782 103.26 C 314.211 103.26 308.748 103.215 304.563 102.768 C 303.261 102.633 302.151 102.258 301.242 101.721 C 299.88 100.911 299.088 99.807 298.653 98.922 C 298.218 98.025 298.116 97.353 298.101 97.191 L 298.086 96.816 L 299.418 58.842 L 301.692 58.914 L 299.565 59.754 C 299.565 59.754 292.866 42.834 287.391 28.599 L 291.609 27.042" style="fill: rgb(20, 20, 20);"/>
    <path class="B" d="M 239.067 32.172 C 241.203 59.064 244.899 99.105 244.899 99.105 C 245.826 100.506 247.353 101.781 249.759 101.601 C 254.907 101.241 293.985 98.505 293.985 98.505 C 293.985 98.505 297.816 97.833 297.504 93.312 C 297.414 92.103 297.261 81.948 296.142 76.233 L 292.521 73.707 L 266.019 75.336 L 265.134 62.847 L 286.884 61.398 C 286.884 61.398 291.099 62.01 291.759 56.103 L 290.862 43.821 C 289.188 39.006 286.239 40.518 286.239 40.518 L 263.7 42.045 L 262.86 30.048 C 262.86 30.048 285.132 28.791 288.588 28.239 C 292.686 27.642 291.774 27.087 292.614 23.319 C 291.879 12.804 291.489 7.209 291.489 7.209 C 291.489 7.209 290.532 2.871 286.689 3.141 C 283.533 3.366 244.152 5.445 241.446 5.445 C 239.619 6.672 238.857 5.907 238.242 6.819" style="fill: rgb(255, 255, 255);"/>
    <path class="C" d="M 241.341 31.977 C 242.403 45.408 243.867 62.145 245.067 75.501 C 245.664 82.185 246.186 88.035 246.576 92.208 C 246.948 96.381 247.188 98.877 247.188 98.877 L 244.914 99.09 L 246.813 97.833 C 247.128 98.295 247.485 98.685 247.875 98.922 C 248.28 99.18 248.697 99.327 249.357 99.327 L 249.627 99.312 C 254.757 98.952 293.853 96.219 293.853 96.219 L 294 98.49 L 293.601 96.246 L 293.808 97.413 L 293.571 96.261 L 293.601 96.246 L 293.808 97.413 L 293.571 96.261 L 293.643 96.231 C 293.838 96.171 294.315 95.976 294.615 95.646 C 294.78 95.484 294.915 95.304 295.032 95.019 C 295.155 94.749 295.245 94.377 295.245 93.81 L 295.23 93.45 L 295.23 93.45 C 295.215 93.225 295.215 92.943 295.185 92.538 C 295.14 91.101 295.05 88.335 294.855 85.299 C 294.66 82.26 294.345 78.972 293.898 76.668 L 296.142 76.221 L 294.825 78.09 L 291.207 75.576 L 292.521 73.707 L 292.656 75.978 L 266.169 77.61 C 264.912 77.685 263.835 76.743 263.76 75.501 L 262.893 63.015 C 262.845 62.4 263.043 61.815 263.445 61.353 C 263.85 60.888 264.405 60.618 265.017 60.573 L 286.761 59.109 C 286.929 59.109 287.091 59.109 287.241 59.124 L 287.106 60.036 L 287.181 59.124 L 287.226 59.124 L 287.091 60.036 L 287.166 59.124 L 287.226 59.124 C 287.436 59.124 287.916 59.079 288.306 58.767 C 288.498 58.614 288.72 58.377 288.948 57.942 C 289.17 57.495 289.395 56.838 289.5 55.833 L 291.774 56.088 L 289.5 56.25 L 288.618 43.974 L 290.892 43.806 L 288.75 44.556 C 288.336 43.347 287.901 42.864 287.691 42.702 C 287.466 42.537 287.436 42.567 287.364 42.552 L 287.226 42.567 L 287.211 42.567 L 286.929 41.76 L 287.316 42.522 L 287.211 42.567 L 286.929 41.76 L 287.316 42.522 C 287.049 42.657 286.731 42.747 286.434 42.762 L 263.85 44.301 C 262.593 44.394 261.516 43.449 261.426 42.177 L 260.589 30.183 C 260.544 29.571 260.739 28.971 261.144 28.509 C 261.546 28.059 262.116 27.774 262.728 27.744 C 262.728 27.744 264.117 27.672 266.259 27.534 C 269.472 27.342 274.365 27.054 278.763 26.742 C 280.959 26.595 283.056 26.442 284.73 26.31 C 286.404 26.175 287.718 26.04 288.198 25.95 L 288.228 25.95 C 289.188 25.815 289.785 25.668 289.98 25.59 L 290.037 25.56 L 290.037 25.56 L 290.352 26.127 L 289.8 25.8 L 290.022 25.56 L 290.337 26.127 L 289.785 25.8 L 290.127 26.01 L 289.755 25.86 L 289.785 25.8 L 290.127 26.01 L 289.755 25.86 C 289.755 25.86 289.785 25.785 289.815 25.653 C 289.92 25.218 290.022 24.183 290.325 22.809 L 292.551 23.304 L 290.28 23.466 C 289.92 18.216 289.635 14.181 289.44 11.472 C 289.248 8.763 289.14 7.359 289.14 7.359 L 291.414 7.194 L 289.188 7.689 L 290.532 7.404 L 289.188 7.716 L 289.188 7.704 L 290.532 7.419 L 289.188 7.731 L 289.188 7.716 C 289.155 7.569 288.903 6.819 288.498 6.282 C 288.306 6 288.063 5.787 287.841 5.655 C 287.616 5.52 287.364 5.427 286.959 5.427 L 286.776 5.427 C 285.942 5.49 282.918 5.655 278.718 5.877 C 272.451 6.222 263.64 6.687 256.164 7.059 C 252.423 7.239 249 7.419 246.396 7.539 C 245.082 7.599 243.987 7.644 243.135 7.689 C 242.283 7.716 241.716 7.746 241.386 7.746 L 241.386 5.445 L 242.64 7.344 C 242.028 7.746 241.446 8.031 240.921 8.211 C 240.144 8.481 239.502 8.526 239.427 8.541 L 239.427 8.541 L 239.199 7.539 L 239.739 8.391 C 239.574 8.496 239.427 8.541 239.427 8.541 L 239.199 7.539 L 239.739 8.391 L 239.142 7.464 L 240.069 8.076 C 240.039 8.136 239.904 8.286 239.739 8.391 L 239.142 7.464 L 240.069 8.076 L 236.343 5.55 C 236.526 5.295 236.748 5.013 237.018 4.8 C 237.498 4.398 238.065 4.188 238.425 4.098 C 238.992 3.978 239.199 3.978 239.382 3.918 C 239.559 3.873 239.769 3.798 240.159 3.546 C 240.531 3.306 240.981 3.156 241.431 3.156 C 241.656 3.156 242.595 3.126 243.912 3.066 C 248.595 2.871 258.57 2.364 267.708 1.884 C 272.286 1.644 276.636 1.407 280.032 1.227 C 283.413 1.032 285.867 0.897 286.509 0.852 C 286.674 0.837 286.854 0.837 287.004 0.837 C 288.336 0.837 289.545 1.242 290.457 1.854 C 291.834 2.769 292.599 3.978 293.043 4.923 C 293.511 5.862 293.658 6.597 293.688 6.717 L 293.733 7.047 C 293.733 7.047 294.123 12.639 294.87 23.154 C 294.885 23.364 294.87 23.601 294.81 23.826 C 294.615 24.666 294.528 25.323 294.42 25.965 C 294.345 26.442 294.258 26.922 294.048 27.504 C 293.883 27.939 293.613 28.416 293.226 28.821 C 292.941 29.121 292.599 29.373 292.254 29.571 C 291.744 29.853 291.222 30.018 290.682 30.153 C 290.142 30.288 289.56 30.39 288.858 30.483 L 288.528 28.224 L 288.888 30.468 C 288.351 30.558 287.616 30.633 286.644 30.72 C 279.972 31.332 262.953 32.295 262.938 32.295 L 262.8 30.018 L 265.077 29.868 L 265.914 41.862 L 263.64 42.03 L 263.49 39.756 L 286.074 38.214 L 286.224 40.491 L 285.177 38.454 C 285.372 38.364 286.119 37.974 287.301 37.974 C 288.228 37.959 289.455 38.274 290.502 39.144 C 291.564 39.996 292.386 41.28 292.998 43.032 C 293.073 43.209 293.106 43.437 293.121 43.614 L 294.018 55.896 L 294.018 56.31 C 293.853 57.762 293.511 58.974 292.983 59.991 C 292.209 61.515 291.024 62.532 289.92 63.045 C 288.813 63.567 287.811 63.657 287.196 63.657 C 286.869 63.657 286.629 63.627 286.539 63.612 L 286.869 61.353 L 287.019 63.627 L 265.287 65.079 L 265.119 62.802 L 267.393 62.655 L 268.278 75.144 L 266.004 75.306 L 265.854 73.032 L 292.356 71.403 C 292.881 71.373 293.373 71.508 293.808 71.808 L 297.414 74.334 C 297.903 74.679 298.233 75.174 298.341 75.756 C 298.953 78.837 299.265 82.845 299.463 86.301 C 299.55 88.023 299.61 89.607 299.655 90.816 C 299.67 91.431 299.685 91.956 299.715 92.358 C 299.73 92.745 299.748 93.045 299.748 93.12 L 299.748 93.12 C 299.763 93.342 299.778 93.57 299.778 93.795 C 299.778 95.139 299.478 96.336 298.953 97.293 C 298.176 98.745 297.039 99.612 296.142 100.077 C 295.23 100.554 294.51 100.674 294.36 100.704 L 294.138 100.734 C 294.138 100.734 284.373 101.421 273.945 102.138 C 263.52 102.873 252.483 103.635 249.912 103.812 C 249.714 103.827 249.522 103.827 249.327 103.827 C 247.815 103.827 246.453 103.398 245.394 102.708 C 244.317 102.021 243.552 101.151 242.985 100.299 C 242.778 99.984 242.64 99.627 242.61 99.252 C 242.61 99.252 238.917 59.211 236.778 32.295 L 241.341 31.977" style="fill: rgb(20, 20, 20);"/>
    <path class="B" d="M 186.375 97.518 C 191.49 98.058 200.298 99.237 200.298 99.237 C 200.298 99.237 204.726 99.297 205.266 94.152 C 205.803 89.01 207.957 68.577 207.957 68.577 L 218.292 97.473 C 220.221 100.926 220.611 101.376 225.996 101.928 C 231.393 102.498 239.037 103.305 239.037 103.305 C 239.037 103.305 243.12 103.335 243.597 98.835 C 243.822 96.681 233.922 73.692 225.966 54.591 C 239.367 33.711 249.672 13.239 249.672 13.239 C 249.672 13.239 250.584 9.123 246.531 7.929 C 242.625 6.774 233.1 6.522 233.1 6.522 C 233.1 6.522 229.899 5.67 227.13 9.663 C 223.017 15.585 211.41 35.553 211.41 35.553 L 214.074 8.286 C 214.266 6.282 213.654 4.86 211.443 4.5 L 193.479 2.364 C 193.479 2.364 190.695 2.916 190.428 5.49 C 190.428 5.49 188.169 25.173 185.88 46.008" style="fill: rgb(255, 255, 255);"/>
    <path class="C" d="M 186.615 95.247 C 191.79 95.784 200.583 96.963 200.598 96.963 L 200.298 99.222 L 200.328 96.948 L 200.298 98.745 L 200.298 96.948 L 200.328 96.948 L 200.298 98.745 L 200.298 96.948 L 200.298 97.683 L 200.283 96.948 L 200.298 96.948 L 200.298 97.683 L 200.283 96.948 L 200.406 96.933 C 200.688 96.903 201.33 96.771 201.81 96.396 C 202.065 96.201 202.287 95.976 202.497 95.601 C 202.707 95.232 202.902 94.704 202.977 93.9 C 203.529 88.752 205.668 68.337 205.668 68.337 C 205.773 67.275 206.61 66.438 207.66 66.318 C 208.719 66.183 209.721 66.81 210.081 67.812 L 220.416 96.696 L 218.262 97.458 L 220.251 96.351 C 220.731 97.206 221.091 97.818 221.358 98.193 C 221.565 98.475 221.718 98.625 221.85 98.73 C 222.063 98.877 222.3 99.027 222.987 99.192 C 223.662 99.357 224.709 99.507 226.188 99.657 C 231.573 100.224 239.229 101.034 239.229 101.034 L 238.992 103.305 L 239.007 101.016 L 238.992 103.125 L 238.992 101.016 L 239.007 101.016 L 238.992 103.125 L 238.992 101.016 L 238.992 101.676 L 238.962 101.016 L 238.992 101.016 L 238.992 101.676 L 238.962 101.016 C 239.007 101.034 239.679 100.956 240.159 100.659 C 240.414 100.506 240.621 100.329 240.819 100.032 C 241.011 99.732 241.188 99.312 241.281 98.58 L 242.778 98.745 L 241.266 98.745 L 241.281 98.58 L 242.778 98.745 L 241.266 98.745 L 242.103 98.745 L 241.281 98.82 L 241.266 98.745 L 242.103 98.745 L 241.281 98.82 L 241.266 98.79 C 241.233 98.61 241.071 97.89 240.744 96.948 C 239.649 93.642 237.063 87.213 233.949 79.689 C 230.826 72.153 227.145 63.459 223.794 55.446 C 223.512 54.756 223.587 53.964 223.992 53.334 C 230.646 42.957 236.556 32.664 240.789 24.963 C 242.91 21.12 244.602 17.916 245.781 15.69 C 246.366 14.571 246.813 13.701 247.113 13.101 C 247.425 12.504 247.578 12.189 247.578 12.189 L 249.612 13.209 L 247.38 12.714 L 248.712 12.996 L 247.38 12.729 L 247.38 12.699 L 248.712 12.981 L 247.38 12.714 L 247.38 12.684 C 247.395 12.612 247.41 12.429 247.41 12.189 C 247.41 11.787 247.323 11.295 247.143 10.95 C 247.041 10.785 246.918 10.635 246.738 10.47 C 246.546 10.323 246.276 10.17 245.826 10.02 C 245.067 9.798 243.807 9.573 242.448 9.393 C 240.369 9.123 237.975 8.946 236.136 8.841 C 235.209 8.778 234.414 8.748 233.862 8.718 C 233.307 8.703 232.977 8.688 232.977 8.688 C 232.815 8.688 232.623 8.661 232.455 8.616 L 232.785 7.359 L 232.515 8.646 L 232.44 8.631 L 232.77 7.374 L 232.5 8.661 L 232.548 8.466 L 232.5 8.661 L 232.5 8.661 L 232.548 8.466 L 232.5 8.661 C 232.5 8.661 232.41 8.646 232.263 8.646 C 231.975 8.646 231.528 8.688 230.976 8.976 C 230.406 9.258 229.704 9.768 228.912 10.89 C 227.94 12.294 226.443 14.643 224.781 17.334 C 222.3 21.375 219.429 26.19 217.173 30.003 C 216.048 31.92 215.076 33.564 214.389 34.746 C 213.699 35.925 213.294 36.612 213.294 36.612 C 212.757 37.539 211.65 37.959 210.636 37.632 C 209.619 37.302 208.959 36.315 209.061 35.25 L 211.71 7.989 L 211.71 7.989 C 211.725 7.824 211.74 7.674 211.74 7.554 C 211.74 7.299 211.71 7.119 211.695 7.017 C 211.638 6.864 211.638 6.897 211.623 6.864 C 211.593 6.849 211.443 6.729 210.993 6.657 L 211.365 4.413 L 211.098 6.672 L 193.134 4.533 L 193.404 2.274 L 193.854 4.5 L 193.626 3.366 L 193.884 4.5 L 193.854 4.515 L 193.626 3.381 L 193.884 4.515 C 193.884 4.515 193.779 4.548 193.626 4.608 C 193.404 4.698 193.089 4.86 192.927 5.043 C 192.747 5.22 192.669 5.34 192.624 5.67 L 192.624 5.685 C 192.624 5.685 192.492 6.912 192.237 9.078 C 191.49 15.585 189.783 30.573 188.079 46.185 L 183.546 45.693 C 185.835 24.843 188.094 5.16 188.094 5.16 L 190.353 5.412 L 188.079 5.175 C 188.184 4.128 188.589 3.201 189.096 2.496 C 189.876 1.437 190.815 0.867 191.55 0.522 C 192.282 0.18 192.837 0.075 192.954 0.045 C 193.179 0 193.434 -0.015 193.671 0.015 L 211.785 2.244 C 212.457 2.349 213.117 2.556 213.714 2.871 C 214.611 3.336 215.376 4.113 215.781 4.998 C 216.213 5.862 216.348 6.774 216.348 7.629 C 216.348 7.914 216.333 8.211 216.303 8.496 L 216.303 8.496 L 213.654 35.763 L 211.38 35.538 L 209.406 34.386 C 209.406 34.386 212.307 29.388 215.736 23.646 C 217.44 20.775 219.279 17.724 220.968 15 C 222.645 12.282 224.154 9.903 225.246 8.349 C 226.413 6.657 227.745 5.565 229.029 4.938 C 230.304 4.308 231.498 4.143 232.335 4.143 C 233.037 4.143 233.517 4.248 233.667 4.293 L 233.085 6.492 L 233.145 4.218 C 233.175 4.218 235.581 4.293 238.515 4.5 C 239.979 4.608 241.563 4.743 243.075 4.953 C 244.584 5.145 245.976 5.385 247.158 5.73 C 248.115 6 248.937 6.432 249.612 6.972 C 250.644 7.776 251.271 8.808 251.601 9.753 C 251.946 10.692 252.018 11.577 252.018 12.252 C 252.018 13.056 251.901 13.608 251.886 13.731 C 251.841 13.926 251.778 14.091 251.688 14.268 C 251.673 14.313 241.341 34.821 227.865 55.833 L 225.951 54.606 L 228.057 53.724 C 231.99 63.162 236.403 73.56 239.832 81.933 C 241.548 86.121 243.03 89.799 244.077 92.625 C 244.602 94.047 245.019 95.247 245.334 96.219 C 245.481 96.711 245.619 97.131 245.709 97.518 C 245.796 97.92 245.871 98.25 245.871 98.76 L 245.856 99.072 C 245.709 100.524 245.244 101.766 244.554 102.723 C 243.537 104.172 242.145 104.907 241.086 105.234 C 240.024 105.579 239.214 105.579 239.037 105.594 L 239.007 105.594 L 238.8 105.579 C 238.8 105.579 236.883 105.387 234.294 105.099 C 231.708 104.832 228.447 104.487 225.753 104.202 C 224.379 104.055 223.287 103.92 222.315 103.71 C 221.58 103.56 220.923 103.35 220.281 103.068 C 219.324 102.633 218.502 101.913 217.902 101.151 C 217.305 100.374 216.858 99.567 216.303 98.58 L 216.153 98.235 L 205.803 69.354 L 207.957 68.592 L 210.216 68.829 C 210.216 68.829 210.081 70.101 209.871 72.105 C 209.244 78.09 207.927 90.549 207.522 94.407 C 207.36 95.976 206.88 97.308 206.19 98.34 C 205.143 99.909 203.694 100.734 202.557 101.124 C 201.423 101.511 200.553 101.526 200.298 101.526 L 200.268 101.526 L 200.001 101.511 C 200.001 101.511 197.817 101.211 194.973 100.851 C 192.147 100.491 188.664 100.062 186.15 99.792 L 186.615 95.247" style="fill: rgb(20, 20, 20);"/>
    <path class="B" d="M 125.127 89.277 L 125.337 93.21 L 125.889 97.473 C 125.889 97.473 126.249 101.823 131.289 101.736 C 136.704 101.661 145.422 100.821 145.422 100.821 C 145.422 100.821 149.79 100.179 149.535 95.019 C 149.268 89.844 148.686 78.864 148.686 78.864 L 157.074 96.558 C 159.51 99.672 159.975 100.047 165.378 99.762 C 170.79 99.48 184.311 98.775 184.311 98.775 C 184.311 98.775 188.349 98.163 188.109 93.642 C 187.869 89.127 183.594 7.449 183.594 7.449 C 183.594 7.449 182.697 3.096 178.626 3.306 C 174.576 3.516 164.508 4.041 164.508 4.041 C 164.508 4.041 160.605 3.141 160.65 8.004 C 160.695 12.849 161.652 27.054 161.652 27.054 L 152.454 8.436 C 149.895 4.368 147.861 4.923 143.793 5.13 L 123.495 6.192 C 123.495 6.192 120.834 6.942 120.969 9.528 L 121.314 15.912" style="fill: rgb(255, 255, 255);"/>
    <path class="C" d="M 127.398 89.157 L 127.611 93.09 L 125.337 93.21 L 127.596 92.928 L 128.148 97.191 L 128.163 97.278 L 127.161 97.368 L 128.163 97.248 L 128.163 97.278 L 127.161 97.368 L 128.163 97.248 C 128.148 97.263 128.283 97.965 128.658 98.46 C 128.85 98.715 129.075 98.937 129.435 99.12 C 129.792 99.297 130.32 99.462 131.154 99.462 L 131.244 99.462 C 133.863 99.417 137.376 99.192 140.202 98.982 C 141.624 98.877 142.866 98.775 143.766 98.685 C 144.66 98.61 145.197 98.547 145.197 98.547 L 145.41 100.821 L 145.08 98.565 L 145.227 99.582 L 145.05 98.565 L 145.092 98.565 L 145.242 99.582 L 145.065 98.565 C 145.08 98.565 145.752 98.415 146.262 97.995 C 146.514 97.788 146.739 97.533 146.934 97.161 C 147.114 96.786 147.264 96.276 147.264 95.469 L 147.249 95.139 C 147.114 92.553 146.904 88.527 146.724 85.131 C 146.544 81.738 146.409 79.002 146.409 79.002 C 146.352 77.907 147.066 76.935 148.128 76.668 C 149.178 76.398 150.285 76.905 150.747 77.892 L 159.141 95.586 L 157.089 96.558 L 158.868 95.154 C 159.378 95.799 159.768 96.276 160.08 96.621 C 160.56 97.131 160.755 97.233 161.04 97.353 C 161.337 97.458 161.919 97.56 163.029 97.56 C 163.626 97.56 164.373 97.533 165.255 97.488 C 167.964 97.338 172.704 97.098 176.757 96.888 C 180.813 96.681 184.191 96.501 184.191 96.501 L 184.311 98.775 L 183.966 96.516 L 184.131 97.56 L 183.936 96.531 L 183.966 96.516 L 184.131 97.56 L 183.936 96.531 C 183.936 96.531 184.563 96.381 185.001 96.036 C 185.223 95.859 185.415 95.646 185.568 95.364 C 185.718 95.064 185.835 94.674 185.85 94.017 L 185.85 93.765 C 185.613 89.247 181.335 7.569 181.335 7.569 L 183.609 7.449 L 181.38 7.914 L 182.772 7.629 L 181.395 7.944 L 181.395 7.914 L 182.787 7.629 L 181.41 7.944 L 181.395 7.914 C 181.365 7.776 181.125 7.017 180.708 6.477 C 180.495 6.207 180.255 5.985 180.003 5.832 C 179.733 5.685 179.451 5.595 178.956 5.58 L 178.791 5.58 C 174.723 5.787 164.673 6.312 164.673 6.312 C 164.463 6.327 164.253 6.297 164.046 6.252 L 164.283 5.205 L 164.091 6.267 L 164.046 6.267 L 164.283 5.22 L 164.091 6.282 L 163.848 6.267 L 163.473 6.297 C 163.326 6.36 163.311 6.36 163.221 6.462 C 163.146 6.582 162.936 6.942 162.936 7.929 L 162.936 7.989 C 162.951 10.308 163.206 15.075 163.443 19.218 C 163.566 21.297 163.686 23.214 163.773 24.621 C 163.863 26.025 163.926 26.907 163.926 26.907 C 164.001 28.002 163.296 28.971 162.249 29.256 C 161.202 29.541 160.095 29.046 159.618 28.074 L 150.402 9.453 L 152.454 8.436 L 150.525 9.648 C 149.73 8.376 149.133 7.854 148.698 7.614 C 148.473 7.494 148.251 7.419 147.966 7.359 C 147.684 7.299 147.324 7.269 146.874 7.269 C 146.124 7.269 145.137 7.344 143.928 7.419 C 141.894 7.524 140.892 7.584 140.382 7.599 C 140.13 7.614 140.01 7.629 139.932 7.629 L 139.887 7.629 L 139.872 7.629 L 123.63 8.481 L 123.51 6.207 L 124.125 8.406 L 123.78 7.194 L 124.155 8.406 L 124.11 8.421 L 123.768 7.209 L 124.14 8.421 L 124.098 8.436 C 123.96 8.481 123.645 8.646 123.48 8.823 L 123.303 9.063 C 123.273 9.138 123.243 9.213 123.243 9.393 L 123.243 9.468 L 123.57 15.855 L 119.025 16.095 L 118.695 9.705 L 118.695 9.393 C 118.695 8.391 118.98 7.464 119.4 6.729 C 120.042 5.64 120.909 4.998 121.581 4.623 C 122.256 4.233 122.766 4.086 122.883 4.056 C 123.048 4.011 123.213 3.978 123.378 3.978 L 139.62 3.126 C 139.62 3.126 139.62 3.126 143.673 2.916 C 144.795 2.856 145.812 2.769 146.859 2.769 C 147.501 2.769 148.161 2.811 148.848 2.946 C 149.88 3.141 150.942 3.606 151.869 4.353 C 152.796 5.085 153.591 6.06 154.365 7.299 L 154.473 7.494 L 163.686 26.112 L 161.637 27.117 L 159.363 27.267 C 159.363 27.267 159.126 23.709 158.883 19.548 C 158.628 15.375 158.391 10.62 158.361 8.091 L 158.361 8.091 L 158.361 8.004 C 158.361 6.912 158.523 5.937 158.853 5.085 C 159.348 3.798 160.305 2.826 161.277 2.364 C 162.249 1.869 163.146 1.797 163.803 1.782 C 164.463 1.782 164.895 1.869 165.018 1.899 L 164.508 4.113 L 164.388 1.839 C 164.388 1.839 166.902 1.707 169.923 1.539 C 172.944 1.392 176.475 1.197 178.494 1.092 L 178.896 1.077 C 180.255 1.077 181.497 1.467 182.457 2.082 C 183.891 2.991 184.686 4.233 185.163 5.205 C 185.628 6.177 185.79 6.927 185.82 7.047 L 185.865 7.386 C 185.865 7.386 186.942 27.804 188.034 48.804 C 189.141 69.789 190.263 91.338 190.383 93.6 C 190.383 93.765 190.398 93.93 190.398 94.092 C 190.398 95.484 190.068 96.711 189.516 97.713 C 188.679 99.207 187.449 100.047 186.51 100.506 C 185.538 100.971 184.803 101.094 184.656 101.109 L 184.428 101.139 C 184.428 101.139 170.895 101.838 165.48 102.126 C 164.553 102.168 163.746 102.198 163.014 102.198 C 162.117 102.198 161.337 102.153 160.56 102.006 C 159.423 101.808 158.316 101.271 157.494 100.539 C 156.654 99.822 156.042 99.012 155.262 98.043 C 155.16 97.905 155.07 97.758 154.995 97.605 L 146.604 79.914 L 148.671 78.942 L 150.942 78.822 C 150.942 78.822 151.527 89.799 151.794 94.959 C 151.809 95.154 151.809 95.334 151.809 95.529 C 151.809 97.038 151.467 98.37 150.897 99.447 C 150.045 101.064 148.728 101.991 147.726 102.483 C 146.694 102.978 145.902 103.098 145.737 103.125 L 145.632 103.14 C 145.587 103.14 136.884 103.98 131.304 104.07 L 131.139 104.07 C 129.585 104.07 128.223 103.71 127.146 103.113 C 125.502 102.213 124.605 100.836 124.155 99.762 C 123.693 98.685 123.615 97.863 123.6 97.698 L 125.874 97.503 L 123.615 97.788 L 123.063 93.525 L 123.063 93.36 L 122.853 89.424 L 127.398 89.157" style="fill: rgb(20, 20, 20);"/>
    <path class="B" d="M 475.68 86.913 L 475.95 92.193 L 476.49 96.456 C 476.49 96.456 476.847 100.809 481.887 100.734 C 487.302 100.659 496.035 99.822 496.035 99.822 C 496.035 99.822 500.403 99.18 500.136 94.017 C 499.863 88.857 499.281 77.877 499.281 77.877 L 507.675 95.574 C 510.126 98.685 510.576 99.057 515.973 98.79 C 521.388 98.505 534.909 97.803 534.909 97.803 C 534.909 97.803 538.707 97.191 538.707 92.67 C 538.707 88.065 534.207 6.477 534.207 6.477 C 534.207 6.477 533.292 2.127 529.242 2.334 C 525.171 2.541 515.136 3.066 515.136 3.066 C 515.136 3.066 511.233 2.169 511.278 7.032 C 511.32 11.877 512.28 26.082 512.28 26.082 L 503.067 7.464 C 500.508 3.381 498.477 3.948 494.406 4.158 L 474.126 5.19 C 474.126 5.19 471.462 5.937 471.597 8.526 L 472.197 19.953" style="fill: rgb(255, 255, 255);"/>
    <path class="C" d="M 477.954 86.793 L 478.221 92.073 L 475.95 92.193 L 478.206 91.911 L 478.746 96.171 L 478.761 96.276 L 477.759 96.351 L 478.761 96.231 L 478.761 96.276 L 477.759 96.351 L 478.761 96.231 C 478.746 96.246 478.881 96.948 479.253 97.443 C 479.451 97.698 479.673 97.92 480.033 98.103 C 480.393 98.28 480.915 98.445 481.755 98.445 L 481.842 98.445 C 484.458 98.415 487.977 98.178 490.803 97.965 C 492.225 97.863 493.464 97.758 494.361 97.668 C 495.258 97.59 495.798 97.533 495.798 97.533 L 496.02 99.807 L 495.693 97.545 L 495.843 98.565 L 495.648 97.56 L 495.678 97.545 L 495.828 98.565 L 495.633 97.56 C 495.633 97.56 496.32 97.398 496.83 96.993 C 497.085 96.786 497.307 96.531 497.502 96.156 C 497.697 95.784 497.847 95.274 497.847 94.467 L 497.847 94.137 L 497.847 94.137 C 497.712 91.551 497.502 87.528 497.322 84.129 C 497.145 80.736 496.992 78 496.992 78 C 496.932 76.905 497.652 75.933 498.714 75.666 C 499.761 75.396 500.865 75.918 501.33 76.905 L 509.706 94.599 L 507.645 95.574 L 509.436 94.167 C 509.931 94.812 510.333 95.289 510.651 95.631 C 511.128 96.141 511.32 96.246 511.608 96.366 C 511.905 96.486 512.49 96.588 513.597 96.588 C 514.194 96.588 514.941 96.558 515.841 96.516 C 518.544 96.381 523.272 96.126 527.34 95.916 C 531.393 95.709 534.774 95.529 534.774 95.529 L 534.894 97.803 L 534.534 95.559 L 534.714 96.696 L 534.504 95.574 L 534.534 95.574 L 534.714 96.711 L 534.504 95.586 L 534.594 95.559 C 534.819 95.499 535.326 95.289 535.686 94.917 C 535.866 94.719 536.046 94.497 536.181 94.152 C 536.313 93.81 536.418 93.36 536.418 92.685 C 536.418 92.478 536.403 91.881 536.373 91.056 C 536.136 84.717 535.011 63.582 533.949 44.064 C 533.427 34.296 532.92 24.933 532.53 18.024 C 532.335 14.553 532.188 11.712 532.083 9.72 C 531.963 7.731 531.903 6.627 531.903 6.627 L 534.177 6.492 L 531.933 6.957 L 533.322 6.672 L 531.948 6.972 L 531.933 6.957 L 533.322 6.672 L 531.948 6.972 L 531.933 6.957 C 531.903 6.819 531.66 6.06 531.246 5.52 C 531.033 5.235 530.796 5.028 530.541 4.875 C 530.274 4.728 529.989 4.638 529.494 4.623 L 529.332 4.623 C 525.276 4.83 515.211 5.37 515.211 5.37 C 515.001 5.385 514.791 5.355 514.584 5.31 L 514.821 4.263 L 514.626 5.31 L 514.584 5.31 L 514.821 4.263 L 514.626 5.31 L 514.404 5.295 L 514.059 5.34 C 513.912 5.4 513.897 5.4 513.804 5.505 C 513.729 5.61 513.522 5.985 513.522 6.972 L 513.522 7.032 C 513.537 9.348 513.789 14.121 514.029 18.261 C 514.149 20.328 514.266 22.257 514.356 23.661 C 514.449 25.068 514.509 25.95 514.509 25.95 C 514.584 27.027 513.882 28.017 512.832 28.299 C 511.785 28.584 510.678 28.074 510.201 27.102 L 500.988 8.481 L 503.037 7.479 L 501.108 8.688 C 500.313 7.419 499.716 6.897 499.281 6.657 C 499.059 6.537 498.849 6.462 498.564 6.402 C 498.279 6.342 497.919 6.312 497.472 6.312 C 496.725 6.312 495.738 6.39 494.526 6.462 C 492.492 6.567 491.475 6.627 490.983 6.642 C 490.725 6.657 490.608 6.657 490.533 6.657 L 490.488 6.657 L 490.488 6.657 L 474.246 7.509 L 474.126 5.235 L 474.738 7.434 L 474.393 6.207 L 474.768 7.419 L 474.738 7.434 L 474.393 6.207 L 474.768 7.419 L 474.723 7.434 C 474.591 7.479 474.273 7.644 474.096 7.824 L 473.916 8.061 C 473.886 8.136 473.856 8.211 473.856 8.391 L 473.856 8.451 L 473.856 8.451 L 474.453 19.86 L 469.908 20.103 L 469.311 8.676 L 469.311 8.676 L 469.311 8.361 C 469.293 7.359 469.593 6.432 470.01 5.7 C 470.655 4.608 471.522 3.978 472.197 3.591 C 472.869 3.201 473.376 3.066 473.511 3.021 C 473.676 2.976 473.841 2.946 474.006 2.946 L 494.301 1.884 C 495.423 1.824 496.44 1.737 497.487 1.737 C 498.132 1.737 498.804 1.782 499.476 1.914 C 500.508 2.127 501.57 2.571 502.497 3.321 C 503.427 4.056 504.216 5.028 504.996 6.267 L 505.113 6.462 L 514.326 25.08 L 512.28 26.082 L 510.003 26.235 C 510.003 26.235 509.766 22.674 509.526 18.519 C 509.274 14.343 509.031 9.588 509.019 7.059 L 509.019 7.074 L 509.019 6.972 C 509.019 5.877 509.184 4.905 509.511 4.056 C 510.003 2.769 510.963 1.797 511.935 1.317 C 512.907 0.822 513.804 0.735 514.464 0.735 C 515.106 0.735 515.556 0.822 515.658 0.852 L 515.151 3.081 L 515.016 0.765 C 515.031 0.765 517.53 0.63 520.548 0.48 C 523.572 0.33 527.1 0.138 529.134 0.03 L 529.539 0.015 C 530.916 0.015 532.143 0.405 533.097 1.017 C 534.552 1.929 535.326 3.171 535.806 4.143 C 536.268 5.115 536.433 5.862 536.463 5.985 L 536.511 6.327 C 536.511 6.327 537.63 26.727 538.767 47.7 C 539.334 58.182 539.889 68.814 540.324 77.118 C 540.531 81.261 540.711 84.834 540.846 87.513 C 540.906 88.842 540.951 89.967 540.981 90.831 C 541.011 91.698 541.026 92.283 541.026 92.64 C 541.026 94.092 540.711 95.364 540.186 96.396 C 539.397 97.95 538.17 98.877 537.198 99.372 C 536.226 99.879 535.479 100.002 535.311 100.032 L 535.074 100.062 C 535.074 100.062 521.538 100.764 516.138 101.049 C 515.196 101.094 514.389 101.139 513.654 101.139 C 512.757 101.139 511.965 101.094 511.203 100.941 C 510.066 100.734 508.959 100.194 508.137 99.48 C 507.315 98.76 506.688 97.95 505.923 96.978 C 505.818 96.846 505.728 96.696 505.653 96.546 L 497.262 78.852 L 499.311 77.877 L 501.585 77.76 C 501.585 77.76 502.152 88.737 502.44 93.9 L 502.44 93.9 C 502.44 94.092 502.455 94.272 502.455 94.467 C 502.455 95.976 502.125 97.308 501.54 98.385 C 500.688 100.002 499.386 100.926 498.369 101.421 C 497.337 101.928 496.545 102.051 496.395 102.066 L 496.29 102.081 C 496.26 102.081 487.557 102.918 481.962 103.008 L 481.8 103.008 C 480.243 103.008 478.881 102.663 477.804 102.051 C 476.16 101.139 475.26 99.777 474.813 98.7 C 474.363 97.62 474.273 96.801 474.261 96.636 L 476.535 96.441 L 474.273 96.741 L 473.721 92.478 L 473.706 92.295 L 473.436 87.018 L 477.954 86.793" style="fill: rgb(20, 20, 20);"/>
    <path class="B" d="M 363.282 6.687 C 363.282 6.687 360.603 7.614 360.693 10.2 L 363.687 96.141 C 363.687 96.141 364.581 102.333 369.999 102.153 C 375.411 101.961 383.532 101.691 383.532 101.691 C 383.532 101.691 387.915 101.139 387.735 95.961 C 387.555 90.786 386.838 70.266 386.838 70.266 L 401.094 97.443 C 403.482 100.599 403.935 100.986 409.335 100.794 C 414.762 100.614 422.451 100.344 422.451 100.344 C 422.451 100.344 426.489 99.792 426.339 95.274 C 426.264 93.12 413.253 71.733 402.708 53.922 C 412.353 31.155 420.879 10.005 420.879 10.005 C 420.879 10.005 420.639 4.698 416.571 4.83 C 412.518 4.983 403.068 5.31 403.068 5.31 C 403.068 5.31 399.792 4.923 397.59 9.243 C 394.344 15.69 385.626 37.062 385.626 37.062 L 384.459 9.69 C 383.127 7.119 383.745 6.102 379.866 6.102 L 363.282 6.687" style="fill: rgb(255, 255, 255);"/>
    <path class="C" d="M 363.282 6.687 L 364.029 8.841 L 363.639 7.731 L 364.059 8.841 L 364.029 8.856 L 363.639 7.746 L 364.059 8.856 L 363.999 8.886 C 363.849 8.946 363.489 9.153 363.282 9.378 L 363.042 9.705 C 362.997 9.813 362.967 9.918 362.967 10.11 L 362.967 10.155 L 365.958 96.096 L 363.687 96.171 L 365.928 95.844 L 364.941 95.976 L 365.928 95.829 L 365.928 95.844 L 364.941 95.976 L 365.928 95.829 C 365.928 95.844 366.153 97.098 366.795 98.133 C 367.11 98.655 367.5 99.105 367.947 99.402 C 368.397 99.702 368.922 99.894 369.756 99.909 L 369.906 99.909 C 375.321 99.717 383.457 99.447 383.457 99.447 L 383.532 101.721 L 383.247 99.462 L 383.385 100.479 L 383.217 99.48 L 383.262 99.462 L 383.4 100.479 L 383.232 99.48 C 383.247 99.48 383.952 99.327 384.459 98.907 C 384.729 98.7 384.954 98.445 385.146 98.058 C 385.344 97.668 385.491 97.146 385.506 96.291 L 385.506 96.066 C 385.416 93.48 385.191 87.06 384.984 81.276 C 384.789 75.501 384.609 70.371 384.609 70.371 C 384.579 69.312 385.269 68.367 386.301 68.082 C 387.333 67.812 388.407 68.277 388.902 69.234 L 403.155 96.396 L 401.139 97.458 L 402.945 96.081 C 403.452 96.756 403.857 97.263 404.172 97.605 C 404.412 97.863 404.577 98.025 404.727 98.118 C 404.934 98.265 405.084 98.34 405.489 98.43 C 405.879 98.52 406.536 98.58 407.493 98.565 C 408.003 98.565 408.615 98.547 409.305 98.52 C 412.008 98.43 415.284 98.31 417.888 98.22 C 420.489 98.133 422.406 98.073 422.421 98.073 L 422.493 100.344 L 422.196 98.088 L 422.346 99.12 L 422.166 98.088 L 422.196 98.088 L 422.346 99.12 L 422.166 98.088 C 422.166 98.103 422.808 97.95 423.258 97.59 C 423.495 97.413 423.678 97.206 423.84 96.918 C 423.99 96.621 424.125 96.219 424.125 95.529 L 424.125 95.349 L 425.202 95.304 L 424.155 95.574 C 424.155 95.574 424.14 95.544 424.125 95.334 L 425.202 95.289 L 424.155 95.559 C 424.155 95.544 424.08 95.334 423.96 95.064 C 423.51 94.002 422.406 91.866 420.894 89.157 C 416.331 80.976 408.003 67.17 400.809 55.041 C 400.434 54.414 400.389 53.649 400.674 52.992 C 405.489 41.625 410.034 30.648 413.37 22.524 C 415.047 18.456 416.406 15.108 417.366 12.774 C 418.305 10.44 418.848 9.123 418.848 9.123 L 420.954 9.978 L 418.695 10.08 L 419.742 10.035 L 418.695 10.095 L 418.695 10.08 L 419.742 10.035 L 418.695 10.095 C 418.695 10.08 418.605 9.006 418.23 8.196 C 418.053 7.794 417.828 7.479 417.633 7.329 C 417.426 7.179 417.273 7.089 416.826 7.074 L 416.751 7.074 C 412.683 7.224 403.245 7.539 403.245 7.539 L 402.9 7.524 L 403.053 6.252 L 402.975 7.524 L 402.915 7.524 L 403.068 6.252 L 402.99 7.524 L 402.99 7.449 L 402.99 7.524 L 402.99 7.524 L 402.99 7.449 L 402.99 7.524 L 402.975 7.524 C 402.87 7.524 402.408 7.539 401.838 7.854 C 401.271 8.166 400.506 8.763 399.762 10.23 C 398.982 11.772 397.833 14.298 396.573 17.187 C 394.674 21.522 392.493 26.715 390.786 30.795 C 389.949 32.847 389.217 34.608 388.692 35.883 C 388.185 37.14 387.87 37.884 387.87 37.884 C 387.465 38.871 386.418 39.456 385.374 39.276 C 384.312 39.099 383.532 38.199 383.487 37.14 L 382.323 9.768 L 384.594 9.663 L 382.575 10.707 C 382.185 9.948 381.933 9.303 381.768 8.886 C 381.633 8.571 381.543 8.406 381.528 8.376 L 381.87 8.106 L 381.633 8.481 L 381.528 8.376 L 381.87 8.106 L 381.633 8.481 L 381.81 8.226 L 381.663 8.511 L 381.618 8.496 L 381.798 8.241 L 381.648 8.526 L 381.648 8.526 C 381.588 8.481 381.051 8.361 379.989 8.376 L 379.989 6.102 L 380.079 8.376 L 363.459 8.961 L 363.282 6.687 L 364.029 8.841 L 363.282 6.687 L 363.207 4.413 L 379.824 3.828 L 379.896 3.828 C 380.976 3.828 381.81 3.888 382.65 4.098 C 383.262 4.263 383.907 4.548 384.417 4.983 C 384.804 5.295 385.101 5.685 385.299 6.03 C 385.611 6.552 385.791 6.987 385.956 7.404 C 386.118 7.809 386.286 8.196 386.523 8.646 C 386.673 8.946 386.748 9.258 386.778 9.588 L 387.945 36.957 L 385.671 37.047 L 383.562 36.198 C 383.562 36.183 385.746 30.843 388.335 24.681 C 389.637 21.597 391.023 18.321 392.31 15.39 C 393.6 12.459 394.749 9.903 395.601 8.211 C 396.708 6.015 398.193 4.623 399.594 3.873 C 400.986 3.126 402.228 3.006 402.885 3.006 C 403.125 3.006 403.29 3.021 403.365 3.036 L 403.098 5.295 L 403.023 3.021 C 403.023 3.021 405.387 2.946 408.243 2.841 C 411.111 2.739 414.48 2.619 416.529 2.556 L 416.766 2.556 C 418.245 2.541 419.607 3.096 420.534 3.903 C 421.941 5.115 422.508 6.627 422.838 7.761 C 423.15 8.916 423.18 9.783 423.198 9.903 C 423.228 10.23 423.15 10.545 423.033 10.86 C 423.033 10.875 414.495 32.022 404.829 54.801 L 402.738 53.922 L 404.697 52.752 C 409.962 61.653 415.854 71.448 420.447 79.314 C 422.736 83.25 424.71 86.691 426.129 89.322 C 426.831 90.639 427.413 91.743 427.833 92.64 C 428.043 93.09 428.208 93.495 428.358 93.87 C 428.418 94.062 428.493 94.242 428.538 94.437 C 428.583 94.644 428.643 94.857 428.643 95.187 L 428.643 95.187 L 428.658 95.514 C 428.658 96.933 428.328 98.193 427.758 99.192 C 426.906 100.704 425.652 101.556 424.68 102.006 C 423.693 102.468 422.943 102.573 422.793 102.588 L 422.568 102.603 C 422.568 102.603 414.882 102.873 409.467 103.053 C 408.732 103.083 408.09 103.098 407.493 103.098 C 406.506 103.098 405.669 103.053 404.859 102.918 C 403.65 102.738 402.48 102.198 401.616 101.439 C 400.749 100.674 400.104 99.834 399.327 98.805 L 399.135 98.49 L 384.834 71.313 L 386.853 70.251 L 389.142 70.176 C 389.142 70.176 389.859 90.696 390.024 95.874 L 390.039 96.261 C 390.039 97.803 389.694 99.165 389.112 100.239 C 388.245 101.883 386.913 102.81 385.866 103.305 C 384.819 103.797 384.012 103.92 383.832 103.935 L 383.637 103.95 C 383.637 103.95 381.603 104.025 378.894 104.112 C 376.191 104.202 372.81 104.325 370.101 104.427 L 369.786 104.427 C 368.052 104.442 366.51 103.887 365.346 103.083 C 363.594 101.853 362.685 100.179 362.157 98.892 C 361.635 97.59 361.485 96.573 361.473 96.471 L 361.458 96.219 L 358.452 10.278 L 358.452 10.278 L 358.452 10.065 C 358.452 9.048 358.734 8.106 359.154 7.374 C 359.784 6.267 360.633 5.595 361.278 5.16 C 361.95 4.743 362.46 4.548 362.562 4.515 C 362.787 4.44 362.997 4.398 363.237 4.383 L 363.282 6.687" style="fill: rgb(20, 20, 20);"/>
    <path class="B" d="M 426.099 94.152 C 423.768 88.842 402.738 53.769 402.738 53.769 L 418.68 15.825 C 425.547 8.733 434.385 4.47 444.003 4.47 C 456.249 4.47 481.857 15.345 484.011 53.679 C 485.82 85.791 466.122 103.455 444.393 102.888 C 437.331 102.693 431.349 100.464 426.054 96.711 C 426.084 96.711 426.891 95.916 426.099 94.152 M 443.943 21.657 L 435.162 43.134 L 417.618 42.522 L 430.242 57.687 L 424.695 79.404 L 443.943 68.157 L 464.718 81.246 L 457.329 58.302 L 470.565 43.449 L 452.094 43.134 L 443.943 21.657 Z" style="fill: rgb(255, 255, 255);"/>
    <path class="C" d="M 426.099 94.152 L 424.02 95.064 C 423.78 94.542 423.213 93.42 422.421 91.968 C 419.667 86.898 414.24 77.61 409.527 69.624 C 407.163 65.631 404.982 61.95 403.38 59.274 C 401.781 56.595 400.794 54.918 400.779 54.918 C 400.404 54.306 400.344 53.532 400.629 52.872 L 416.586 14.913 C 416.691 14.643 416.856 14.418 417.051 14.211 C 424.275 6.744 433.695 2.154 444.018 2.154 C 447.411 2.154 451.557 2.901 455.967 4.608 C 462.579 7.179 469.758 11.979 475.503 19.89 C 481.242 27.804 485.49 38.784 486.315 53.532 C 486.39 54.951 486.432 56.34 486.432 57.702 C 486.447 72.705 481.68 84.609 474.111 92.73 C 466.557 100.866 456.234 105.144 445.437 105.144 C 445.065 105.144 444.705 105.144 444.348 105.129 C 436.839 104.937 430.344 102.513 424.755 98.547 C 424.2 98.163 423.855 97.545 423.795 96.861 C 423.738 96.186 423.99 95.514 424.467 95.049 L 425.382 95.991 L 424.2 95.409 C 424.245 95.319 424.32 95.202 424.467 95.049 L 425.382 95.991 L 424.2 95.409 L 424.725 95.661 L 424.155 95.529 L 424.2 95.409 L 424.725 95.661 L 424.155 95.529 L 424.425 95.586 L 424.155 95.559 L 424.155 95.529 L 424.425 95.586 L 424.155 95.559 L 424.215 95.574 L 424.155 95.559 L 424.155 95.559 L 424.215 95.574 L 424.155 95.559 L 424.155 95.559 C 424.155 95.529 424.155 95.379 424.005 95.034 L 426.099 94.152 L 428.178 93.24 C 428.538 94.062 428.715 94.872 428.715 95.586 C 428.715 96.336 428.538 96.978 428.298 97.443 C 428.073 97.905 427.803 98.205 427.671 98.355 L 426.084 96.726 L 427.413 94.872 C 432.381 98.385 437.883 100.434 444.48 100.629 C 444.807 100.629 445.122 100.644 445.452 100.644 C 455.055 100.644 464.091 96.876 470.79 89.679 C 477.477 82.485 481.887 71.808 481.887 57.747 C 481.887 56.463 481.842 55.161 481.785 53.829 C 480.72 35.148 474.036 23.511 466.287 16.392 C 462.414 12.849 458.241 10.425 454.323 8.901 C 450.417 7.374 446.754 6.759 444.033 6.759 C 435.087 6.759 426.861 10.707 420.342 17.427 L 418.695 15.84 L 420.807 16.722 L 404.844 54.666 L 402.753 53.784 L 404.697 52.605 C 404.697 52.605 409.962 61.383 415.512 70.821 C 418.29 75.549 421.134 80.424 423.45 84.474 C 424.617 86.493 425.622 88.32 426.426 89.799 C 427.236 91.296 427.833 92.433 428.193 93.24 L 426.099 94.152 M 443.943 21.657 L 446.052 22.524 L 437.271 43.989 C 436.911 44.871 436.044 45.438 435.087 45.408 L 417.543 44.796 L 417.633 42.522 L 419.385 41.058 L 432.006 56.223 C 432.471 56.778 432.648 57.54 432.456 58.242 L 426.906 79.959 L 424.71 79.389 L 423.555 77.43 L 442.818 66.168 C 443.553 65.736 444.45 65.748 445.182 66.213 L 465.96 79.299 L 464.748 81.228 L 462.579 81.933 L 455.19 59.004 C 454.935 58.227 455.115 57.39 455.652 56.793 L 468.891 41.94 L 470.595 43.464 L 470.55 45.738 L 452.079 45.423 C 451.137 45.408 450.327 44.826 449.985 43.959 L 441.819 22.464 L 443.943 21.657 L 446.052 22.524 L 443.943 21.657 L 446.064 20.85 L 454.233 42.327 L 452.109 43.134 L 452.139 40.86 L 470.625 41.16 C 471.507 41.175 472.299 41.715 472.674 42.522 C 473.031 43.347 472.869 44.286 472.287 44.961 L 459.033 59.814 L 457.344 58.287 L 459.51 57.582 L 466.902 80.526 C 467.199 81.441 466.887 82.443 466.137 83.025 C 465.375 83.607 464.343 83.667 463.521 83.157 L 442.746 70.071 L 443.958 68.142 L 445.107 70.101 L 425.844 81.351 C 425.055 81.813 424.065 81.771 423.333 81.198 C 422.598 80.646 422.271 79.704 422.493 78.822 L 428.043 57.09 L 430.257 57.657 L 428.508 59.109 L 415.884 43.944 C 415.314 43.254 415.197 42.297 415.584 41.49 C 415.989 40.683 416.811 40.188 417.708 40.218 L 435.267 40.83 L 435.195 43.107 L 433.083 42.237 L 441.864 20.76 C 442.221 19.89 443.061 19.338 444.003 19.338 C 444.93 19.353 445.767 19.938 446.094 20.82 L 443.943 21.657" style="fill: rgb(20, 20, 20);"/>
    <path class="B" d="M 2.274 12.237 L 7.629 95.232 C 7.629 95.232 7.866 101.751 15.255 101.736 C 22.509 101.721 39.246 101.139 39.246 101.139 C 39.246 101.139 52.245 102.303 62.652 82.83 C 68.157 72.525 68.025 72.375 69.039 55.161 C 70.386 32.607 52.482 3.696 32.187 4.413 L 8.793 5.25 C 8.793 5.25 3.021 4.86 2.274 12.237 M 32.007 34.608 C 38.154 34.401 41.832 43.269 42.417 50.271 C 43.479 63.177 42.489 61.353 41.43 66.333 C 40.368 71.301 35.223 73.944 35.223 73.944 L 28.446 74.187 L 26.472 34.806 L 32.007 34.608 Z" style="fill: rgb(255, 255, 255);"/>
    <path class="C" d="M 2.274 12.237 L 4.545 12.084 L 9.903 95.079 L 9.903 95.154 L 8.646 95.202 L 9.903 95.124 L 9.903 95.139 L 8.646 95.187 L 9.903 95.109 L 9.918 95.304 C 9.978 95.784 10.245 96.918 10.95 97.773 C 11.31 98.205 11.739 98.595 12.399 98.892 C 13.056 99.192 13.953 99.432 15.228 99.432 L 15.243 99.432 C 18.816 99.432 24.813 99.282 29.898 99.135 C 32.442 99.057 34.758 98.982 36.435 98.922 C 38.124 98.862 39.159 98.835 39.159 98.835 L 39.441 98.835 L 39.351 99.807 L 39.411 98.835 L 39.426 98.835 L 39.336 99.807 L 39.396 98.835 C 39.396 98.835 39.486 98.835 39.633 98.835 C 40.5 98.835 43.494 98.67 47.397 96.486 C 51.288 94.302 56.118 90.084 60.603 81.723 C 61.98 79.152 62.982 77.235 63.717 75.606 C 64.806 73.152 65.331 71.358 65.721 68.427 C 66.123 65.496 66.333 61.443 66.72 54.981 C 66.765 54.234 66.795 53.454 66.795 52.692 C 66.81 42.342 62.73 30.603 56.34 21.642 C 53.157 17.157 49.416 13.371 45.411 10.737 C 41.4 8.106 37.167 6.642 32.859 6.642 C 32.649 6.642 32.427 6.642 32.217 6.657 L 8.883 7.524 L 8.661 7.524 L 8.733 6.417 L 8.688 7.524 L 8.661 7.524 L 8.733 6.417 L 8.688 7.524 L 8.661 7.524 C 8.466 7.524 7.476 7.584 6.642 8.151 C 6.207 8.436 5.802 8.823 5.412 9.483 C 5.043 10.14 4.698 11.067 4.56 12.474 L 2.274 12.237 L 4.545 12.084 L 2.274 12.237 L 0 11.994 C 0.192 10.065 0.702 8.466 1.452 7.179 C 2.571 5.25 4.188 4.128 5.58 3.576 C 6.954 3.021 8.121 2.961 8.661 2.961 C 8.808 2.961 8.898 2.961 8.961 2.976 L 8.808 5.25 L 8.733 2.976 L 32.127 2.139 C 32.397 2.139 32.679 2.127 32.937 2.127 C 38.289 2.127 43.404 3.963 47.982 6.987 C 54.861 11.517 60.663 18.666 64.806 26.817 C 68.937 34.968 71.418 44.106 71.418 52.752 C 71.418 53.604 71.403 54.459 71.343 55.308 C 70.821 63.909 70.626 68.292 69.771 72.105 C 69.354 74.004 68.754 75.711 67.935 77.538 C 67.11 79.374 66.066 81.351 64.689 83.922 C 59.871 92.943 54.381 97.89 49.686 100.506 C 44.991 103.14 41.16 103.443 39.711 103.443 C 39.366 103.443 39.144 103.413 39.081 103.413 L 39.276 101.151 L 39.366 103.428 C 39.351 103.428 22.629 104.025 15.285 104.04 L 15.255 104.04 C 13.086 104.04 11.262 103.545 9.825 102.708 C 8.748 102.096 7.914 101.301 7.299 100.479 C 6.372 99.252 5.907 98.01 5.655 97.053 C 5.412 96.096 5.385 95.439 5.37 95.319 L 7.644 95.247 L 5.37 95.394 L 0 12.384 L 0 11.994 L 2.274 12.237 M 32.007 34.608 L 31.932 32.337 L 32.232 32.322 C 34.293 32.322 36.18 33.099 37.689 34.281 C 39.948 36.06 41.505 38.634 42.642 41.418 C 43.776 44.211 44.451 47.25 44.691 50.073 C 45.021 54.024 45.153 56.64 45.153 58.554 C 45.153 59.646 45.108 60.528 45.021 61.293 C 44.886 62.445 44.631 63.327 44.409 64.104 C 44.166 64.881 43.926 65.601 43.674 66.795 C 43.329 68.367 42.687 69.726 41.922 70.866 C 40.773 72.57 39.396 73.812 38.304 74.649 C 37.2 75.486 36.375 75.903 36.285 75.948 C 35.985 76.101 35.655 76.191 35.328 76.206 L 28.551 76.443 C 27.312 76.488 26.265 75.519 26.205 74.274 L 24.213 34.911 C 24.183 34.296 24.396 33.696 24.813 33.249 C 25.233 32.802 25.8 32.532 26.412 32.517 L 31.947 32.322 L 32.007 34.608 L 32.097 36.885 L 26.547 37.077 L 26.472 34.806 L 28.746 34.683 L 30.735 74.049 L 28.461 74.157 L 28.386 71.883 L 35.163 71.64 L 35.241 73.917 L 34.191 71.898 L 34.536 72.555 L 34.191 71.898 L 34.191 71.898 L 34.536 72.555 L 34.191 71.898 C 34.221 71.883 35.358 71.271 36.525 70.191 C 37.707 69.099 38.844 67.605 39.201 65.838 L 39.201 65.838 C 39.603 63.969 40.008 62.907 40.233 62.103 C 40.338 61.683 40.428 61.308 40.488 60.771 C 40.545 60.231 40.593 59.526 40.593 58.569 C 40.593 56.868 40.458 54.351 40.146 50.463 C 39.888 47.325 38.886 43.644 37.377 40.965 C 36.627 39.636 35.745 38.559 34.881 37.884 C 33.981 37.212 33.174 36.897 32.217 36.897 L 32.082 36.897 L 32.007 34.608" style="fill: rgb(20, 20, 20);"/>
    <path class="B" d="M 63.534 80.976 C 70.266 92.745 81.168 102.453 95.721 102.825 C 117.456 103.413 137.169 85.734 135.357 53.619 C 133.206 15.27 107.598 4.413 95.334 4.413 C 81.366 4.413 69.099 13.371 62.04 26.922 C 62.04 26.922 69.369 39.831 68.724 54.144 C 68.082 68.457 69.594 63.969 66.795 73.152 C 64.029 82.353 63.534 80.976 63.534 80.976 M 103.425 43.077 L 121.896 43.392 L 108.66 58.242 L 116.049 81.183 L 95.256 68.097 L 76.008 79.359 L 81.558 57.627 L 69.756 42.462 L 86.493 43.077 L 95.274 21.597 L 103.425 43.077 Z" style="fill: rgb(255, 255, 255);"/>
    <path class="C" d="M 63.534 80.976 L 65.508 79.839 C 68.739 85.491 72.957 90.624 78.03 94.332 C 83.1 98.043 88.992 100.374 95.766 100.554 C 96.096 100.554 96.411 100.569 96.741 100.569 C 106.344 100.554 115.374 96.801 122.076 89.607 C 128.76 82.413 133.176 71.733 133.176 57.672 C 133.176 56.388 133.143 55.086 133.053 53.754 C 131.991 35.073 125.307 23.439 117.573 16.317 C 113.685 12.759 109.512 10.35 105.609 8.823 C 101.706 7.299 98.055 6.687 95.319 6.687 C 88.827 6.687 82.74 8.763 77.385 12.459 C 72.03 16.155 67.425 21.492 64.059 27.969 L 62.04 26.922 L 64.029 25.8 C 64.074 25.875 65.808 28.941 67.56 33.774 C 69.294 38.589 71.043 45.183 71.043 52.347 C 71.043 52.977 71.028 53.604 70.998 54.249 C 70.866 57.48 70.821 59.721 70.821 61.398 C 70.821 62.937 70.851 63.969 70.851 64.881 C 70.866 66.078 70.773 67.155 70.491 68.427 C 70.206 69.711 69.756 71.241 68.982 73.827 C 67.887 77.43 67.14 79.467 66.573 80.721 C 66.273 81.351 66.051 81.801 65.736 82.2 C 65.586 82.413 65.406 82.62 65.091 82.845 C 64.806 83.07 64.299 83.34 63.627 83.34 C 63.237 83.34 62.817 83.235 62.502 83.055 C 62.025 82.8 61.773 82.485 61.635 82.26 C 61.485 82.038 61.428 81.858 61.383 81.753 C 60.978 80.646 61.5 79.422 62.577 78.927 C 63.642 78.435 64.911 78.837 65.508 79.869 L 63.534 80.976 L 65.676 80.211 L 63.642 80.931 L 65.286 79.524 C 65.553 79.839 65.631 80.049 65.691 80.211 L 63.657 80.931 L 65.301 79.524 L 63.657 80.946 L 64.689 79.032 C 64.971 79.179 65.166 79.374 65.301 79.524 L 63.657 80.946 L 64.689 79.032 L 63.657 80.961 L 63.657 78.777 C 64.014 78.777 64.404 78.879 64.689 79.032 L 63.657 80.961 L 63.657 78.777 L 63.657 80.838 L 62.415 79.167 C 62.622 79.017 63.027 78.777 63.657 78.777 L 63.657 80.838 L 62.415 79.167 L 63.282 80.334 L 62.142 79.422 C 62.172 79.389 62.25 79.299 62.43 79.167 L 63.297 80.334 L 62.157 79.422 L 62.385 79.599 L 62.142 79.437 L 62.157 79.422 L 62.385 79.599 L 62.142 79.437 C 62.172 79.389 62.472 78.864 62.892 77.775 C 63.312 76.668 63.894 74.991 64.659 72.48 C 65.433 69.909 65.868 68.427 66.093 67.44 C 66.303 66.438 66.333 65.931 66.348 64.851 C 66.348 64.044 66.318 62.967 66.318 61.368 C 66.318 59.646 66.348 57.315 66.498 54.024 C 66.528 53.454 66.528 52.902 66.528 52.332 C 66.528 45.918 64.926 39.786 63.297 35.298 C 62.487 33.054 61.683 31.215 61.068 29.946 C 60.771 29.316 60.513 28.821 60.351 28.494 C 60.261 28.329 60.198 28.209 60.156 28.134 L 60.111 28.059 L 60.096 28.044 C 59.724 27.372 59.706 26.55 60.066 25.875 C 63.747 18.801 68.814 12.894 74.859 8.718 C 80.883 4.548 87.915 2.139 95.379 2.139 C 98.775 2.139 102.915 2.871 107.331 4.593 C 113.937 7.164 121.134 11.967 126.861 19.86 C 132.606 27.774 136.839 38.754 137.676 53.502 C 137.766 54.918 137.796 56.31 137.796 57.672 C 137.796 72.675 133.038 84.579 125.469 92.7 C 117.918 100.821 107.598 105.114 96.801 105.114 C 96.441 105.114 96.066 105.114 95.706 105.099 C 87.945 104.907 81.096 102.183 75.396 97.995 C 69.696 93.825 65.106 88.2 61.605 82.098 L 63.534 80.976 L 65.676 80.211 L 63.534 80.976 M 103.425 43.077 L 103.452 40.803 L 121.926 41.118 C 122.823 41.133 123.615 41.67 123.975 42.477 C 124.335 43.299 124.185 44.241 123.585 44.916 L 110.349 59.769 L 108.645 58.242 L 110.814 57.54 L 118.2 80.484 C 118.503 81.396 118.188 82.398 117.441 82.98 C 116.676 83.562 115.629 83.622 114.822 83.115 L 94.032 70.026 L 95.244 68.097 L 96.396 70.056 L 77.133 81.321 C 76.338 81.786 75.351 81.723 74.616 81.168 C 73.887 80.616 73.557 79.674 73.782 78.792 L 79.329 57.06 L 81.543 57.627 L 79.749 59.034 L 67.935 43.869 C 67.392 43.164 67.305 42.222 67.707 41.433 C 68.112 40.638 68.937 40.161 69.816 40.188 L 86.553 40.803 L 86.463 43.077 L 84.357 42.222 L 93.135 20.745 C 93.48 19.875 94.329 19.323 95.274 19.323 C 96.216 19.338 97.038 19.923 97.368 20.79 L 105.534 42.267 L 103.425 43.077 L 103.452 40.803 L 103.425 43.077 L 101.301 43.884 L 93.135 22.407 L 95.256 21.597 L 97.368 22.464 L 88.587 43.944 C 88.23 44.826 87.348 45.396 86.391 45.351 L 69.654 44.736 L 69.741 42.462 L 71.538 41.058 L 83.355 56.223 C 83.784 56.778 83.937 57.495 83.757 58.182 L 78.195 79.914 L 75.993 79.344 L 74.844 77.37 L 94.092 66.108 C 94.827 65.676 95.736 65.706 96.456 66.153 L 117.258 79.254 L 116.049 81.183 L 113.88 81.888 L 106.476 58.944 C 106.236 58.182 106.416 57.345 106.941 56.73 L 120.174 41.877 L 121.896 43.392 L 121.851 45.663 L 103.38 45.351 C 102.441 45.336 101.616 44.751 101.286 43.884 L 103.425 43.077" style="fill: rgb(20, 20, 20);"/>
  </g>
</svg>