<?xml version="1.0" encoding="utf-8"?>
<svg version="1.1" xmlns="http://www.w3.org/2000/svg">
  <g>
    <path d="M 133.461 21.019 C 133.461 18.403 132.963 15.012 131.804 13.587 C 139.384 13.587 155.754 13.635 162.772 13.635 C 178.921 13.635 203.282 22.597 203.282 52.812 C 203.282 75.238 186.083 91.941 162.772 91.941 C 157.659 91.941 138.138 91.881 131.21 91.881 C 132.63 89.259 133.461 85.703 133.461 82.895 L 133.461 21.019 L 133.461 21.019 Z M 145.072 84.263 C 152.526 85.232 159.406 85.529 165.629 84.641 C 171.654 83.78 191.889 79.42 191.763 52.554 C 191.646 27.089 175.92 21.268 163.801 20.557 C 157.479 20.182 151.373 20.422 145.072 21.514 L 145.072 84.263 L 145.072 84.263 Z" id="path11" style="fill-opacity: 1; fill: rgb(255, 255, 255);"/>
    <path d="M 209.934 37.645 L 221.536 35.832 C 221.536 38.209 221.536 45.173 221.536 46.049 C 224.51 38.695 233.772 32.784 246.926 37.906 L 243.845 45.983 C 231.801 40.267 221.536 45.281 221.536 58.654 L 221.536 86.249 C 221.536 87.563 221.821 90.213 222.608 91.914 L 210.555 91.914 C 211.773 90.414 212.337 87.563 212.337 86.249 L 212.337 46.445 C 212.334 43.556 211.746 39.088 209.934 37.645 L 209.934 37.645 Z" id="path13" style="fill-opacity: 1; fill: rgb(255, 255, 255);"/>
    <path d="M 576.725 43.181 C 576.725 43.934 576.725 76.033 576.725 78.427 C 576.725 89.493 584.353 92.451 590.005 92.451 C 592.391 92.568 595.778 92.01 598.143 91.485 L 599.595 84.656 C 596.841 85.709 593.639 85.958 591.716 85.958 C 588.175 85.958 585.613 83.606 585.613 79.927 C 585.613 76.627 585.529 44.273 585.613 43.241 L 585.574 43.241 C 586.045 43.241 593.396 43.214 594.137 43.241 C 596.546 43.325 598.398 43.472 599.991 44.114 L 600 37.681 C 600 37.681 585.889 37.663 585.613 37.663 L 585.67 21.166 L 574.979 24.119 C 576.452 25.499 576.932 29.535 576.932 32.196 C 576.932 32.196 576.923 37.123 576.923 37.717 C 576.443 37.717 571.013 37.747 570.115 37.747 L 570.115 43.181 C 571.067 43.178 576.725 43.181 576.725 43.181 L 576.725 43.181 Z" id="path15" style="fill-opacity: 1; fill: rgb(255, 255, 255);"/>
    <path d="M 530.515 80.452 C 535.112 83.735 542.322 86.651 547.612 86.651 C 554.948 86.651 560.205 83.081 560.205 76.363 C 560.205 63.959 531.925 66.014 531.925 50.277 C 531.925 39.634 541.44 35.631 550.507 35.631 C 553.421 35.631 560.076 36.265 564.307 37.9 L 564.27 45.17 C 560.514 41.956 554.777 41.182 550.999 41.182 C 545.001 41.182 540.495 44.159 540.495 49.998 C 540.495 58.567 568.75 58.072 568.75 75.667 C 568.75 87.044 558.894 92.349 548.044 92.349 C 542.757 92.349 537.242 91.413 532.655 90.099 L 530.515 80.452 L 530.515 80.452 Z" id="path17" style="fill-opacity: 1; fill: rgb(255, 255, 255);"/>
    <path d="M 359.81 43.292 C 359.81 42.65 359.834 36.886 359.834 36.148 L 348.087 37.963 C 349.503 39.448 350.589 44.075 350.589 47.381 L 350.589 85.865 C 350.589 87.179 350.028 90.366 348.807 91.866 L 361.613 91.866 C 360.398 90.366 359.834 87.179 359.834 85.865 L 359.834 56.911 C 359.834 46.316 366.387 42.608 372.913 42.608 C 378.818 42.608 384.153 45.161 384.153 56.911 L 384.153 85.868 C 384.153 87.182 383.588 90.369 382.373 91.866 L 394.792 91.866 C 393.574 90.366 393.013 87.179 393.013 85.868 L 393.013 56.911 C 393.013 45.164 400.271 42.608 406.188 42.608 C 412.09 42.608 418.262 46.313 418.262 56.911 L 418.262 85.868 C 418.262 87.182 417.704 90.369 416.48 91.866 L 428.442 91.866 C 427.215 90.366 426.66 87.179 426.66 85.868 L 426.66 51.414 C 426.66 45.539 420.665 36.13 406.674 36.13 C 398.534 36.13 393.832 39.751 390.265 42.869 C 387.228 39.325 382.286 36.004 374.347 36.004 C 366.612 36.001 362.042 40.534 359.81 43.292 L 359.81 43.292 Z" id="path19" style="fill-opacity: 1; fill: rgb(255, 255, 255);"/>
    <path d="M 332.115 61.345 C 330.438 62.924 326.928 64.148 323.306 64.625 C 313.783 65.873 305.534 67.454 305.534 76.729 C 305.534 82.229 311.535 86.561 316.285 86.561 C 328.866 86.561 332.119 77.482 332.119 70.332 L 332.119 61.345 L 332.115 61.345 L 332.115 61.345 Z M 302.393 38.653 C 307.194 36.73 314.944 35.844 319.802 35.844 C 332.211 35.844 340.457 42.046 340.457 56.437 L 340.457 80.314 C 340.457 84.737 340.523 88.926 342.101 91.866 L 332.127 91.866 L 331.767 85.586 C 327.993 90.462 323.477 92.643 315.817 92.643 C 300.704 92.643 297.403 82.316 297.403 77.356 C 297.403 59.644 314.26 59.44 321.581 58.396 C 325.631 57.823 330.84 56.677 331.626 52.881 C 332.917 46.601 328.428 41.89 319.255 41.89 C 312.519 41.89 307.005 43.94 302.396 46.694 L 302.393 38.653 L 302.393 38.653 Z M 516.8 61.345 C 515.123 62.924 511.612 64.148 507.988 64.625 C 498.467 65.873 490.222 67.454 490.222 76.729 C 490.222 82.229 496.217 86.561 500.967 86.561 C 513.545 86.561 516.8 77.482 516.8 70.332 L 516.8 61.345 L 516.8 61.345 Z M 487.078 38.653 C 491.881 36.73 499.634 35.844 504.492 35.844 C 516.893 35.844 525.141 42.046 525.141 56.437 L 525.141 80.314 C 525.141 84.737 524.175 88.836 526.78 91.866 L 516.806 91.866 L 516.443 85.586 C 512.665 90.462 508.159 92.643 500.499 92.643 C 485.391 92.643 482.088 82.316 482.088 77.356 C 482.088 59.644 498.944 59.44 506.262 58.396 C 510.313 57.823 515.528 56.677 516.305 52.881 C 517.598 46.601 513.11 41.89 503.931 41.89 C 497.201 41.89 491.686 43.94 487.074 46.694 L 487.074 38.653 L 487.078 38.653 Z" id="path21" style="fill-opacity: 1; fill: rgb(255, 255, 255);"/>
    <path d="M 476.459 45.974 C 472.717 43.79 466.812 42.058 462.693 42.058 C 448.228 42.058 441.596 50.952 441.596 63.764 C 441.596 76.456 448.077 86.177 462.228 86.177 C 467.073 86.177 473.674 83.999 478.799 80.851 L 476.714 90.189 C 471.499 91.74 467.106 92.478 461.289 92.478 C 441.407 92.478 432.088 78.379 432.088 63.704 C 432.088 47.489 444.588 36.085 461.508 36.085 C 468.901 36.085 474.299 37.897 476.477 38.515 L 476.459 45.974 L 476.459 45.974 Z" id="path23" style="fill-opacity: 1; fill: rgb(255, 255, 255);"/>
    <path d="M 253.899 64.442 C 253.908 63.104 254.088 61.826 254.238 60.586 L 292.707 60.586 C 292.707 47.363 286.091 36.019 270.426 36.019 C 254.163 36.019 244.508 48.737 244.508 64.958 C 244.508 79.624 255.256 92.733 273.666 92.733 C 279.484 92.733 284.351 91.299 289.605 89.46 L 291.453 80.08 C 286.961 83.78 279.7 85.97 273.144 85.97 C 261.365 85.97 253.848 77.44 253.899 64.442 L 253.899 64.442 Z M 255.457 54.72 C 256.705 48.287 262.658 41.734 269.784 41.734 C 280.67 41.734 283.82 50.229 283.82 54.72 C 283.817 54.72 255.457 54.741 255.457 54.72 L 255.457 54.72 Z" id="path25" style="fill-opacity: 1; fill: rgb(255, 255, 255);"/>
    <path d="M 70.697 1.399 C 75.012 2.047 79.419 3.553 81.718 4.256 C 86.347 5.672 93.864 10.07 96.519 12.18 C 97.776 13.179 100.417 15.792 101.44 17.107 C 102.436 18.388 104.338 21.163 105.55 22.873 C 107.486 25.697 109.76 29.901 111.689 33.768 C 113.844 38.092 113.994 39.343 114.645 42.956 L 116.07 49.326 C 116.205 50.427 116.316 54.468 113.943 55.032 C 111.575 55.6 109.382 54.507 108.347 52.908 C 106.919 50.697 107.117 47.555 105.496 43.961 C 104.236 41.053 103.687 36.832 101.671 33.795 L 100.093 31.122 C 97.296 26.819 94.383 23.405 92.648 21.175 C 91.115 19.303 88.256 16.762 85.549 14.952 C 83.044 13.431 78.996 11.7 76.074 10.809 C 75.144 10.506 71.159 9.332 68.687 9.002 C 65.323 8.627 63.115 8.096 59.922 7.871 C 55.98 7.592 54.092 7.241 48.977 7.841 C 47.038 8.366 43.972 8.573 41.208 9.629 C 38.979 10.539 35.88 12.009 32.84 13.794 C 29.567 15.588 24.604 19.255 21.309 22.387 C 17.991 25.931 16.332 27.836 14.045 32.328 C 13.031 34.551 11.072 37.993 10.28 40.423 C 9.74 42.887 8.71 47.486 8.881 49.719 C 8.962 53.718 8.611 54.546 8.911 57.817 C 8.923 60.76 9.89 62.801 10.292 65.21 C 10.634 66.875 12.233 72.63 13.22 73.971 C 17.706 83.642 23.734 87.831 30.449 90.855 C 32.342 91.821 38.265 93.405 39.975 93.858 C 42.901 94.384 46.744 94.738 50.444 94.81 C 54.338 94.885 59.706 94.36 62.959 93.156 C 66.484 91.86 70.562 90.018 70.517 90.072 C 72.149 89.169 74.649 87.696 75.423 87.05 C 76.926 86.087 77.832 85.715 78.72 84.788 C 80.007 83.666 80.782 83.018 81.757 81.626 C 82.297 80.842 83.161 79.642 83.995 78.58 C 84.895 77.101 85.414 75.544 86.293 73.62 C 87.347 70.77 87.182 70.908 87.383 67.883 C 87.575 67.007 87.362 64.061 87.206 63.56 C 86.731 60.841 86.896 58.444 86.275 55.804 C 85.438 52.233 84.736 49.56 83.665 46.133 C 82.654 42.274 79.692 38.701 77.469 36.148 C 76.092 34.563 71.816 30.828 65.887 28.493 C 64.216 27.932 61.486 27.296 59.751 26.978 C 56.043 26.591 55.44 26.84 51.893 27.098 C 50.672 27.311 47.839 27.89 46.795 28.256 C 43.75 29.327 42.628 30.009 39.513 31.914 C 38.064 32.757 36.969 33.402 35.487 34.791 C 34.304 35.886 33.455 37.747 32.501 38.839 C 31.187 40.624 29.726 43.007 28.744 45.578 C 27.682 48.134 27.34 51.732 27.502 54.048 C 27.502 55.81 27.982 59.044 28.171 59.749 C 28.363 60.457 28.84 62.651 28.942 63.092 C 29.048 63.533 30.188 65.855 30.347 66.191 C 30.992 67.562 32.222 69.528 34.295 71.538 C 35.829 73.209 38.787 74.851 41.004 75.487 C 42.991 76.579 46.342 76.762 48.199 76.765 C 49.109 76.711 51.44 76.567 52.658 76.276 C 55.125 75.685 55.578 75.67 58.122 74.565 C 60.402 73.506 61.951 73.125 63.538 71.952 C 63.538 71.952 65.719 70.245 66.712 68.994 C 67.234 68.337 68.132 65.189 67.973 63.242 C 67.898 60.574 68.288 59.062 67.741 56.869 C 67.195 54.675 66.268 52.134 65.26 50.568 C 64.24 48.981 62.05 47.435 59.556 46.202 C 58.155 45.512 54.845 44.873 53.441 44.708 C 50.774 44.39 48.545 45.602 47.188 46.985 C 46.012 48.329 43.69 51.117 44.614 54.003 C 45.451 56.611 46.465 59.392 50.378 59.185 C 53.066 59.743 56.172 58.936 57.207 59.41 C 58.74 60.28 59.331 62.207 58.773 63.551 C 58.383 66.14 55.902 66.449 53.258 66.65 C 50.888 67.046 44.875 65.885 43.555 64.895 C 42.667 64.37 41.307 63.107 40.353 62.252 C 39.663 61.633 38.889 60.262 38.355 59.278 C 37.707 58.069 37.374 57.178 37.209 56.392 C 37.008 55.456 36.597 53.667 36.753 51.882 C 36.861 50.679 37.182 50.163 37.5 48.401 C 38.139 46.403 38.934 44.882 40.215 43.148 C 41.88 41.458 43.996 39.445 46.06 38.509 C 47.881 37.546 51.074 37.195 53.957 37.363 C 56.301 37.585 59.067 37.873 60.9 38.485 C 64.036 39.604 64.93 39.826 67.504 41.452 C 69.677 42.797 71.864 45.272 73.085 47.321 C 75.684 52.635 77.172 58.546 76.092 66.503 C 76.002 67.847 75.585 69.162 74.745 70.944 C 73.97 72.585 72.617 74.583 70.574 76.087 C 69.755 76.846 68.462 77.782 67.408 78.328 C 65.914 79.234 64.909 79.705 63.352 80.488 C 61.981 81.133 60.384 81.869 58.302 82.448 C 56.046 83.339 54.314 83.375 51.476 83.798 C 48.686 84.5 41.043 84.002 36.489 81.992 C 33.383 80.683 29.9 78.382 27.247 75.577 C 25.777 74.031 24.334 71.235 23.911 70.662 C 21.804 66.608 21.393 62.801 21.054 61.997 C 20.595 60.91 20.367 58.471 20.058 56.803 C 19.71 54.93 19.926 47.087 21.813 42.052 C 22.882 40.048 23.506 38.26 24.223 37.324 C 25.519 35.478 26.146 34.329 27.247 33.024 C 28.906 31.011 30.116 29.366 31.733 28.208 C 35.853 24.857 39.294 23.09 43.951 20.878 C 49.736 18.52 51.476 19.009 56.952 19.096 C 59.415 19.117 63.001 19.891 64.765 20.212 C 68.039 20.647 69.914 21.436 72.125 22.054 C 74.493 22.714 75.858 23.771 77.805 24.944 C 79.401 25.973 81.283 27.389 82.525 28.538 C 85.705 30.87 87.239 33.321 89.189 36.331 C 89.543 36.835 91.856 41.767 92.225 43.139 C 92.396 43.829 92.918 45.8 93.254 46.955 C 93.687 48.785 93.897 50.406 94.383 52.473 C 94.812 54.6 95.547 58.615 95.865 62.372 C 96.402 65.594 95.541 72.168 95.037 74.184 C 93.915 77.947 91.94 82.541 88.052 86.966 C 86.401 88.926 84.646 90.441 82.615 92.091 C 81.067 93.384 79.734 94.141 77.334 95.569 C 74.078 97.513 71.6 98.755 67.036 100.541 C 65.176 101.138 62.833 101.921 60.309 102.443 C 55.422 102.89 50.396 103.322 44.914 102.671 C 39.429 102.017 33.935 100.471 30.689 99.478 C 28.897 98.806 25.429 97.351 23.977 96.565 C 23.029 96.088 19.854 93.915 19.317 93.393 C 17.142 92.049 12.275 87.473 9.133 83.207 C 8.446 81.884 5.971 77.932 5.431 76.198 C 4.006 73.269 3.009 69.723 2.427 68.207 C 1.809 64.67 0.765 62.396 0.36 58.849 C 0.405 58.015 0.192 56.05 0 54.96 C 0.276 52.533 -0.093 50.247 0.39 47.6 C 0.813 45.371 1.371 44.438 1.506 42.421 C 1.638 41.557 2.745 38.965 3.045 37.81 C 3.943 35.907 4.165 34.341 5.335 32.214 C 7.018 28.904 8.782 25.094 11.486 21.763 C 12.26 20.731 14.453 18.256 15.197 17.401 C 16.965 15.633 18 15.354 20.004 13.584 C 20.208 13.455 21.534 11.946 22.921 11.427 C 25.216 9.653 27.199 9.005 29.384 7.391 C 33.764 5.21 35.357 4.472 39.705 2.662 C 42.22 1.765 45.718 1.273 46.978 0.784 C 49.379 0.634 51.815 -0.131 54.338 0.019 C 57.171 -0.005 60.027 0.196 62.875 0.454 C 64.795 0.568 67.3 0.661 70.697 1.399 L 70.697 1.399 Z" id="path27" style="fill-opacity: 1; fill: rgb(255, 255, 255);"/>
  </g>
</svg>