<?xml version="1.0" encoding="utf-8"?>
<svg version="1.1" xmlns="http://www.w3.org/2000/svg">
  <g>
    <polygon points="0 0 31.857 0 31.857 11.103 11.16 11.103 11.16 24.573 31.857 24.573 31.857 36.027 11.16 36.027 11.16 59.964 0 59.964" style="fill: rgb(255, 255, 255);"/>
    <path d="M 68.085 59.964 L 57.234 59.964 L 57.234 50.631 L 36.21 50.631 L 29.982 59.964 L 17.205 59.964 L 59.247 0 L 68.085 0 L 68.085 59.964 Z M 57.234 39.3 L 57.234 21.804 L 44.394 39.3 L 57.234 39.3 Z" style="fill: rgb(255, 255, 255);"/>
    <polygon points="72.336 0 84.924 0 102.672 40.308 120.546 0 133.26 0 133.26 59.964 122.058 59.964 122.058 29.733 108.21 59.964 96.882 59.964 83.541 29.733 83.541 59.964 72.336 59.964" style="fill: rgb(255, 255, 255);"/>
    <polygon points="342.15 0 354.738 0 372.486 40.308 390.36 0 403.074 0 403.074 59.964 391.872 59.964 391.872 29.733 378.024 59.964 366.696 59.964 353.352 29.733 353.352 59.964 342.15 59.964" style="fill: rgb(255, 255, 255);"/>
    <rect x="136.794" width="11.595" height="59.964" style="fill: rgb(255, 255, 255);"/>
    <polygon points="151.584 0 163.176 0 163.176 49.035 178.284 49.035 178.284 59.964 151.584 59.964" style="fill: rgb(255, 255, 255);"/>
    <polygon points="165.402 0 178.284 0 190.467 24.573 202.296 0 215.061 0 195.852 38.142 195.852 59.964 184.611 59.964 184.611 38.142" style="fill: rgb(255, 255, 255);"/>
    <path d="M 278.247 44.484" style="fill: rgb(255, 255, 255);"/>
    <path d="M 278.082 16.539 C 272.991 6.837 262.818 0.219 251.103 0.219 C 234.285 0.219 220.653 13.854 220.653 30.672 C 220.653 47.487 234.285 61.122 251.103 61.122 C 262.902 61.122 273.135 54.411 278.19 44.595 L 264.393 44.709 C 260.991 47.844 256.446 49.761 251.454 49.761 C 240.912 49.761 232.365 41.214 232.365 30.669 C 232.365 20.124 240.912 11.58 251.454 11.58 C 256.374 11.58 260.862 13.443 264.249 16.5 L 278.082 16.539 Z" style="fill: rgb(255, 255, 255);"/>
    <path d="M 308.214 61.281 C 291.309 61.281 277.605 47.577 277.605 30.672 C 277.605 13.764 291.309 0.06 308.214 0.06 C 325.119 0.06 338.826 13.764 338.826 30.672 C 338.826 47.577 325.119 61.281 308.214 61.281 Z M 327.699 30.672 C 327.699 19.974 319.026 11.304 308.331 11.304 C 297.636 11.304 288.963 19.974 288.963 30.672 C 288.963 41.367 297.636 50.037 308.331 50.037 C 319.026 50.037 327.699 41.367 327.699 30.672 Z" style="fill: rgb(255, 255, 255);"/>
    <path d="M 426.957 0.006 C 437.103 0.822 445.083 9.318 445.083 19.674 C 445.083 30.03 437.103 38.526 426.957 39.339 L 418.191 39.3 L 418.191 59.964 L 406.95 59.964 L 406.95 0 L 418.191 0 L 426.957 0.006 Z M 418.191 11.541 L 418.191 27.807 L 426.957 27.798 C 430.794 27.084 433.695 23.718 433.695 19.674 C 433.695 15.63 430.794 12.267 426.957 11.55 L 418.191 11.541 Z" style="fill: rgb(255, 255, 255);"/>
    <path d="M 568.611 60.744 L 557.487 60.744 L 557.487 0.516 L 572.946 0.495 L 581.709 0.501 C 591.855 1.317 599.838 9.81 599.838 20.169 C 599.838 28.632 594.51 35.85 587.025 38.652 L 600 60.744 L 587.82 60.744 L 569.637 29.679 L 568.611 29.679 L 568.611 60.744 Z M 561.702 60.462 M 572.946 60.462 M 581.712 28.293 C 585.546 27.576 588.45 24.213 588.45 20.169 C 588.45 16.125 585.546 12.759 581.712 12.042 L 568.611 12.042 L 568.611 28.302 L 581.712 28.293 Z" style="fill: rgb(255, 255, 255);"/>
    <path d="M 476.031 23.406 M 476.031 23.406 M 459.777 23.406 M 459.738 34.65 M 459.738 34.65 L 459.744 43.416 C 460.461 47.25 463.827 50.151 467.868 50.151 C 471.912 50.151 475.278 47.25 475.995 43.416 L 476.004 34.65 L 476.031 0.516 L 487.545 0.516 L 487.545 34.65 L 487.536 43.416 C 486.72 53.562 478.227 61.542 467.868 61.542 C 457.512 61.542 449.019 53.562 448.203 43.416 L 448.245 34.65 L 448.224 0.516 L 459.777 0.516 L 459.738 34.65 Z" style="fill: rgb(255, 255, 255);"/>
    <polygon points="499.044 60.744 510.405 60.744 510.405 11.868 520.593 11.868 520.593 0.516 489.207 0.516 489.207 11.868 499.044 11.868" style="fill: rgb(255, 255, 255);"/>
    <polygon points="554.559 60.744 523.347 60.744 523.347 0.516 554.559 0.516 554.559 11.541 534.531 11.541 534.531 25.842 554.559 25.842 554.559 37.086 534.531 37.086 534.531 49.62 554.559 49.62" style="fill: rgb(255, 255, 255);"/>
    <path d="M 568.611 29.733" style="fill: rgb(255, 255, 255);"/>
  </g>
</svg>