<?xml version="1.0" encoding="utf-8"?>
<svg id="svg" version="1.1" xmlns="http://www.w3.org/2000/svg">
  <path id="path3" d="M 0 0 L 35.594 0 C 67.211 0 71.34 0.039 72.543 0.351 C 77.934 1.748 82.698 6.663 84.765 12.962 C 85.198 14.28 85.235 14.894 85.235 20.843 L 85.235 27.293 L 57.913 27.293 L 47.021 23.84 C 18.695 14.857 3.533 10.076 1.846 9.594 L 0 9.066 L 0 0 Z M 28.698 19.354 C 29.085 19.489 34.364 21.165 42.17 23.63 C 45.861 24.796 49.511 25.954 50.28 26.204 L 51.678 26.659 L 51.678 37.882 L 51.677 49.105 L 59.172 49.105 L 59.109 51.454 C 59.018 54.884 58.674 61.695 58.525 63.208 C 58.676 61.739 59.036 55.338 59.114 52.566 C 59.143 51.524 59.194 54.648 59.228 59.508 C 59.262 64.368 59.241 68.47 59.182 68.624 C 59.097 68.845 54.811 68.904 38.703 68.904 L 18.331 68.904 L 18.352 63.674 L 18.374 58.444 L 19.306 58.025 C 19.818 57.795 20.314 57.632 20.409 57.662 C 20.504 57.693 20.582 57.612 20.582 57.481 C 20.582 57.351 20.682 57.307 20.805 57.383 C 20.928 57.459 21.029 57.408 21.029 57.271 C 21.029 57.133 21.13 57.083 21.253 57.159 C 21.376 57.235 21.476 57.194 21.476 57.067 C 21.476 56.941 21.644 56.902 21.849 56.98 C 21.947 57.018 22.018 57.035 22.06 57.031 C 21.795 57.266 21.299 57.579 20.625 57.92 C 22.127 57.163 22.707 56.781 22.192 56.898 C 22.169 56.925 22.141 56.955 22.109 56.986 C 22.109 56.969 22.104 56.948 22.092 56.923 C 22.058 56.932 22.021 56.943 21.98 56.955 C 21.863 56.99 21.899 56.945 22.049 56.846 C 21.968 56.709 21.95 56.6 22.009 56.6 C 22.178 56.6 22.265 56.638 22.278 56.705 C 22.386 56.643 22.514 56.571 22.659 56.492 C 23.248 56.173 23.842 55.982 23.98 56.067 C 24.144 56.168 24.167 56.119 24.047 55.925 C 23.913 55.708 23.967 55.668 24.248 55.776 C 24.469 55.861 24.576 55.833 24.499 55.709 C 24.426 55.591 25.26 55.046 26.352 54.498 L 28.337 53.501 L 28.333 52.856 C 28.313 53.228 28.284 53.461 28.25 53.496 C 28.154 53.592 28.126 52.039 28.187 50.046 L 28.296 46.49 L 28.238 36.612 C 28.184 27.323 28.204 19.619 28.282 19.491 C 28.361 19.364 28.549 19.302 28.698 19.354 Z M 54.133 29.307 L 85.235 29.307 L 85.235 46.759 L 69.743 46.702 L 54.25 46.645 L 54.192 37.976 L 54.133 29.307 Z M 87.919 0 L 128.859 0 L 128.859 10.184 L 118.799 15.208 L 118.74 21.043 L 118.68 26.879 L 116.331 27.628 C 115.039 28.039 112.019 28.996 109.62 29.753 C 107.22 30.51 103.117 31.826 100.501 32.679 C 97.886 33.531 95.631 34.228 95.49 34.228 C 95.301 34.228 95.266 32.337 95.358 26.958 L 95.482 19.687 L 87.919 19.687 L 87.919 0 Z M 118.624 29.316 C 118.716 29.311 118.792 33.761 118.792 39.206 L 118.791 49.105 L 122.619 49.039 L 126.446 48.973 L 126.308 51.388 C 126.302 51.498 126.295 51.621 126.287 51.755 L 126.345 59.955 C 126.377 64.568 126.355 68.469 126.296 68.624 C 126.211 68.846 121.939 68.904 105.817 68.904 L 85.445 68.904 L 85.467 63.674 L 85.488 58.444 L 86.42 58.025 C 86.932 57.795 87.429 57.632 87.523 57.662 C 87.618 57.693 87.696 57.612 87.696 57.481 C 87.696 57.351 87.796 57.307 87.919 57.383 C 88.042 57.459 88.143 57.408 88.143 57.271 C 88.143 57.133 88.235 57.078 88.348 57.147 C 88.46 57.217 88.593 57.152 88.642 57.004 C 88.71 56.8 88.772 56.798 88.894 56.995 C 88.968 57.115 88.746 57.333 88.25 57.632 C 88.703 57.363 88.987 57.145 88.947 57.081 C 88.793 56.831 91.252 55.664 91.547 55.847 C 91.685 55.932 91.728 55.895 91.646 55.762 C 91.56 55.624 92.348 55.088 93.546 54.469 L 95.592 53.413 L 95.503 45.015 L 95.414 36.618 L 102.013 34.556 C 105.643 33.422 110.828 31.781 113.535 30.909 C 116.242 30.038 118.532 29.321 118.624 29.316 Z M 131.544 0 L 152.069 0.005 L 172.595 0.01 L 174.945 2.298 C 176.237 3.557 179.358 6.549 181.88 8.947 C 184.402 11.345 187.724 14.537 189.262 16.039 L 192.058 18.771 L 192.056 19.305 C 192.07 19.282 192.086 19.313 192.104 19.404 C 192.157 19.679 192.158 20.183 192.107 20.523 C 192.086 20.659 192.067 20.705 192.051 20.671 L 192.012 31.376 C 192.029 30.766 192.046 30.425 192.062 30.425 C 192.122 30.425 192.17 35.056 192.17 40.716 C 192.17 46.376 192.094 51.007 192.002 51.007 C 191.947 51.007 191.908 49.362 191.892 46.834 C 191.847 49.347 191.793 50.766 191.735 50.745 C 191.623 50.704 190.387 49.564 188.991 48.211 C 187.594 46.857 185.494 44.844 184.325 43.736 C 178.745 38.452 173.231 33.195 170.693 30.739 C 169.155 29.25 167.243 27.421 166.443 26.674 L 164.989 25.316 L 164.93 32.345 C 164.891 36.973 164.792 39.374 164.641 39.374 C 164.514 39.374 163.181 38.977 161.679 38.492 C 157.457 37.127 145.768 33.453 143.43 32.755 L 141.334 32.13 L 141.423 23.715 L 141.513 15.301 L 136.528 12.757 L 131.544 10.213 L 131.544 0 Z M 146.309 35.996 C 147.847 36.498 152.654 38.034 156.991 39.41 L 164.877 41.912 L 164.877 46.467 L 157.438 44.129 C 153.347 42.843 148.087 41.208 145.749 40.497 L 141.499 39.203 L 141.434 37.124 C 141.398 35.981 141.417 34.92 141.476 34.766 C 141.595 34.455 141.565 34.447 146.309 35.996 Z M 143.086 41.62 C 143.812 41.871 148.736 43.437 154.027 45.1 C 159.318 46.762 163.93 48.233 164.277 48.368 L 164.907 48.613 L 164.803 52.103 C 164.764 53.405 164.715 54.72 164.658 55.974 C 164.764 55.738 164.836 57.99 164.851 62.027 L 164.877 68.908 L 141.499 68.792 L 141.491 57.159 C 141.484 47.392 141.507 46.495 141.636 51.566 C 141.777 57.11 141.883 60.202 142.096 61.913 C 142.067 61.551 142.039 61.126 142.008 60.627 C 141.776 56.955 141.375 41.803 141.499 41.443 C 141.622 41.092 141.525 41.081 143.086 41.62 Z M 194.407 0 L 217.677 0 L 217.592 28.468 C 217.549 43.059 217.48 52.117 217.352 57.399 C 217.357 57.371 217.362 57.346 217.367 57.327 C 217.639 56.313 217.673 56.939 217.673 62.864 L 217.673 68.904 L 194.407 68.904 L 194.411 63.255 C 194.412 59.995 194.506 57.465 194.631 57.271 C 194.49 57.489 194.413 47.482 194.411 28.803 L 194.407 0 Z M 220.29 0 L 262.64 0 L 262.64 11.15 L 267.617 13.722 L 272.595 16.293 L 272.66 17.99 L 272.726 19.687 L 253.915 19.687 L 253.915 29.53 C 253.915 36.304 253.841 39.374 253.678 39.374 C 253.548 39.374 249.144 38.02 243.891 36.366 C 238.638 34.712 233.459 33.095 232.382 32.773 L 230.425 32.188 L 230.425 15.215 L 225.503 12.752 L 220.582 10.289 L 220.582 7.528 C 220.582 6.01 220.516 3.695 220.436 2.384 L 220.29 0 Z M 230.816 34.555 C 231.032 34.638 234.681 35.815 238.926 37.169 C 243.171 38.524 248.253 40.153 250.219 40.789 L 253.795 41.947 L 253.737 48.211 C 253.687 53.662 253.414 60.543 253.17 62.814 C 253.42 60.564 253.699 54.088 253.745 49.189 C 253.775 46.067 253.826 49.1 253.859 55.929 C 253.892 62.757 253.871 68.471 253.812 68.624 C 253.729 68.843 251.171 68.904 242.065 68.904 L 230.425 68.904 L 230.428 62.696 C 230.43 58.502 230.537 56.194 230.669 56.239 C 230.651 56.186 230.634 56.171 230.617 56.197 C 230.515 56.357 230.43 51.519 230.428 45.446 C 230.425 35.021 230.447 34.413 230.816 34.555 Z M 265.101 0 L 298.447 0 L 298.363 27.685 C 298.32 41.878 298.237 51.305 298.094 56.959 C 298.192 55.233 298.288 53.986 298.333 53.942 C 298.392 53.883 298.414 57.2 298.381 61.313 L 298.322 68.792 L 274.944 68.908 L 274.987 58.336 C 275.023 49.362 275.044 48.361 275.172 52.084 C 275.151 50.79 275.137 49.372 275.132 47.931 L 275.117 43.558 C 275.114 43.6 275.112 43.641 275.109 43.68 C 275.064 44.326 275.027 43.798 275.027 42.506 C 275.027 41.215 275.064 40.686 275.109 41.329 L 275.102 39.374 L 256.376 39.374 L 256.376 33.11 L 274.944 33.11 L 274.944 28.895 C 274.944 26.577 275.005 22.576 275.08 20.003 L 275.216 15.325 L 270.158 12.775 L 265.101 10.226 L 265.101 0 Z M 301.115 0 L 324.385 0 L 324.385 17.107 C 324.385 30.694 324.327 34.195 324.105 34.121 C 323.951 34.069 319.295 32.607 313.758 30.87 C 308.221 29.134 303.138 27.535 302.461 27.317 L 301.23 26.92 L 301.173 13.46 L 301.115 0 Z M 301.112 29.296 L 301.626 29.425 C 301.908 29.496 307.12 31.139 313.206 33.076 L 324.273 36.598 L 324.331 45.145 L 324.39 53.691 L 348.781 53.691 L 338.344 53.636 L 326.957 53.575 L 338.458 53.522 L 349.958 53.468 L 349.8 61.011 C 349.713 65.159 349.611 68.584 349.574 68.621 C 349.537 68.658 338.619 68.754 325.313 68.833 L 301.118 68.978 L 301.134 62.397 C 301.143 58.515 301.229 56 301.342 56.264 C 301.365 56.318 301.388 56.424 301.41 56.573 C 301.309 53.044 301.236 48.326 301.199 42.668 L 301.112 29.296 Z" style="fill: rgb(255, 255, 255);"/>
  <path id="path3" d="M 350.382 124.902 C 351.329 125.194 357.81 127.263 359.567 127.834 L 361.3 128.398 L 361.3 129.386 C 361.3 130.664 361.587 130.696 355.26 128.71 L 350.003 127.06 L 349.935 125.902 C 349.869 124.784 349.884 124.749 350.382 124.902 Z M 354.975 108.003 L 364.771 108.003 L 369.523 112.52 L 374.276 117.037 L 374.276 132.695 L 373.661 132.124 C 373.322 131.811 370.437 129.073 367.249 126.041 C 364.061 123.009 361.423 120.557 361.387 120.593 C 361.351 120.629 361.302 122.09 361.278 123.839 C 361.243 126.277 361.165 127.019 360.942 127.019 C 360.782 127.019 359.413 126.627 357.9 126.147 C 356.386 125.668 353.965 124.907 352.52 124.457 L 349.891 123.638 L 349.891 119.568 L 349.89 115.498 L 347.486 114.267 L 345.081 113.037 L 345.017 110.815 C 344.981 109.594 345.003 108.461 345.066 108.299 C 345.157 108.06 347.063 108.003 354.975 108.003 Z M 349.891 127.944 L 351.513 128.476 C 352.405 128.768 354.922 129.572 357.106 130.262 L 361.077 131.516 L 361.077 141.336 L 349.891 141.336 L 349.891 127.944 Z M 375.394 108.003 L 386.804 108.003 L 386.804 141.336 L 375.394 141.336 L 375.394 108.003 Z M 388.146 121.426 L 411.412 121.426 L 411.412 124.334 L 388.146 124.334 L 388.146 121.426 Z M 388.146 125.229 L 411.412 125.229 L 411.412 128.137 L 399.332 128.137 L 399.332 141.336 L 388.146 141.336 L 388.146 125.229 Z M 411.412 132.835 L 418.571 132.835 L 418.571 141.336 L 400.227 141.336 L 400.227 134.625 L 411.412 134.625 L 411.412 132.835 Z M 400.227 108.003 L 418.571 108.003 L 418.571 116.504 L 411.412 116.504 L 411.412 114.715 L 400.227 114.715 L 400.227 108.003 Z M 388.146 108.003 L 399.332 108.003 L 399.332 120.755 L 388.146 120.755 L 388.146 108.003 Z M 419.908 108 L 436.969 108.058 L 454.03 108.115 L 454.023 121.134 C 454.019 128.295 453.964 134.206 453.9 134.27 C 453.836 134.334 451.322 133.609 448.314 132.658 L 442.844 130.929 L 442.726 117.399 L 431.323 117.399 L 431.323 122.321 C 431.323 125.028 431.247 127.241 431.155 127.24 C 431.063 127.239 428.521 126.456 425.506 125.501 L 420.025 123.763 L 419.966 115.882 L 419.908 108 Z M 420.168 125.005 C 420.449 125.005 430.84 128.313 431.138 128.497 C 431.239 128.56 431.323 129.411 431.323 130.388 L 431.323 132.164 L 437.083 132.168 L 442.844 132.173 L 448.325 133.917 L 453.806 135.662 L 453.868 138.48 L 453.931 141.298 L 438.32 141.373 C 429.735 141.414 422.081 141.414 421.312 141.372 L 419.913 141.297 L 419.913 133.151 C 419.913 127.205 419.982 125.005 420.168 125.005 Z" style="fill: rgb(255, 255, 255);"/>
  <path id="path3" d="M 13.862 72.707 L 54.142 72.707 L 54.084 85.85 L 54.027 98.994 L 42.342 99.051 L 30.657 99.109 L 30.597 94.147 L 30.537 89.184 L 23.602 87.004 C 19.787 85.804 16.063 84.633 15.324 84.401 L 13.982 83.98 L 13.922 78.343 L 13.862 72.707 Z M 55.928 72.707 L 70.982 72.707 C 87.548 72.707 87.626 72.713 89.751 74.076 C 91.216 75.017 92.322 76.311 93.146 78.049 L 93.848 79.53 L 93.976 106.264 L 30.649 106.264 L 30.649 100.418 L 35.962 100.575 C 37.318 100.615 40.159 100.635 43.723 100.636 C 42.644 100.631 41.634 100.625 40.772 100.615 C 37.603 100.58 40.196 100.552 46.532 100.552 C 51.979 100.552 54.659 100.573 53.293 100.601 C 54.789 100.59 56.298 100.577 57.788 100.562 L 74.3 100.393 L 74.23 94.66 C 74.126 86.06 74.796 86.577 63.767 86.577 L 55.928 86.577 L 55.928 72.707 Z M 30.649 107.992 L 32.494 108.132 C 32.696 108.147 33.419 108.162 34.578 108.176 C 34.743 108.156 35.452 108.144 36.577 108.143 C 38.273 108.143 39.073 108.172 38.505 108.21 C 44.363 108.248 53.846 108.274 64.183 108.275 L 94.027 108.278 L 93.873 115.045 C 93.855 115.833 93.838 116.588 93.821 117.312 C 93.844 116.853 93.871 117.022 93.905 117.785 C 94.182 124.109 93.842 134.786 93.322 136.082 C 92.596 137.893 90.739 139.84 88.855 140.768 L 87.37 141.499 L 55.928 141.623 L 55.928 128.188 L 63.78 128.188 C 73.141 128.188 73.497 128.099 74.055 125.62 L 74.208 124.944 L 74.333 125.401 C 74.419 124.209 74.347 122.567 74.319 120.302 L 74.246 114.318 C 74.246 114.318 54.027 114.318 54.027 114.318 C 54.088 114.318 54.139 120.459 54.139 127.964 L 54.139 141.611 L 25.28 141.611 L 25.28 131.371 L 27.908 130.025 L 30.537 128.679 L 30.671 126.193 C 30.726 125.168 30.788 124.453 30.846 124.043 C 30.762 123.685 30.688 120.478 30.675 116.357 L 30.649 107.992 Z M 96.952 107.606 C 97.022 107.606 99.473 108.369 102.399 109.302 C 105.324 110.234 110.487 111.878 113.87 112.954 L 120.022 114.912 L 119.971 118.754 L 119.926 122.072 L 119.953 121.197 L 119.995 119.799 L 120.076 121.083 L 120.156 122.368 L 132.17 122.428 L 144.183 122.487 L 132.047 122.541 L 119.919 122.595 L 132.051 122.602 L 144.183 122.608 L 146.696 123.463 C 148.079 123.933 149.154 124.373 149.086 124.441 C 149.019 124.509 149.096 124.558 149.258 124.551 C 150.126 124.513 150.573 124.629 150.433 124.856 C 150.328 125.025 150.44 125.053 150.783 124.944 C 151.149 124.828 151.24 124.859 151.118 125.056 C 150.997 125.253 151.088 125.284 151.454 125.168 C 151.831 125.048 151.913 125.08 151.781 125.294 C 151.754 125.338 151.735 125.374 151.725 125.403 C 151.741 125.38 151.764 125.352 151.793 125.32 C 152.04 125.05 153.02 125.212 153.02 125.523 C 153.02 125.627 153.171 125.655 153.356 125.584 C 153.54 125.514 153.691 125.564 153.691 125.696 C 153.691 125.829 153.842 125.879 154.027 125.808 C 154.211 125.737 154.362 125.781 154.362 125.906 C 154.362 126.031 154.549 126.084 154.776 126.025 C 155.004 125.965 155.332 126.058 155.505 126.231 C 155.6 126.326 155.715 126.402 155.82 126.445 C 155.881 126.42 155.911 126.43 155.901 126.472 C 155.956 126.486 156.004 126.489 156.042 126.477 C 156.164 126.439 158.73 127.192 161.745 128.152 L 167.226 129.896 L 167.285 135.865 L 167.345 141.835 L 96.644 141.835 L 96.689 124.665 C 96.732 107.9 96.737 107.724 96.894 117.226 C 97.002 123.788 97.085 127.832 97.235 130.317 C 97.1 127.87 97.035 123.908 96.952 117.506 C 96.882 112.061 96.882 107.606 96.952 107.606 Z M 96.644 72.931 L 120.134 72.931 L 120.134 92.618 C 120.134 107.834 120.073 112.304 119.864 112.304 C 119.716 112.304 116.067 111.189 111.755 109.826 C 102.949 107.042 97.618 105.368 97.036 105.204 C 96.668 105.1 96.644 104.137 96.644 89.012 L 96.644 72.931 Z M 143.846 72.931 L 167.412 72.931 L 167.26 98.938 C 167.234 103.397 167.213 107.142 167.193 110.286 L 167.226 107.495 L 167.284 117.317 C 167.316 122.719 167.3 127.182 167.248 127.234 C 167.091 127.391 164.653 126.555 164.653 126.344 C 164.653 126.237 164.557 126.208 164.44 126.28 C 164.044 126.525 163.023 126.147 163.322 125.867 C 163.339 125.851 163.355 125.837 163.37 125.824 C 163.342 125.831 163.313 125.839 163.283 125.848 C 162.941 125.956 162.855 125.922 162.975 125.727 C 163.097 125.53 163.005 125.499 162.64 125.615 C 162.274 125.731 162.182 125.701 162.304 125.504 C 162.425 125.309 162.338 125.274 161.997 125.383 C 161.721 125.47 161.521 125.436 161.521 125.302 C 161.521 125.174 161.37 125.128 161.186 125.199 C 161.001 125.27 160.85 125.21 160.85 125.067 C 160.85 124.923 160.759 124.862 160.648 124.931 C 160.537 125 157.391 124.106 153.657 122.946 C 149.923 121.785 146.214 120.639 145.414 120.399 L 143.96 119.963 L 143.846 72.931 Z M 170.022 72.931 L 205.025 72.931 C 239.889 72.931 240.033 72.933 241.267 73.395 C 243.737 74.319 245.641 76.325 246.517 78.927 C 246.971 80.274 247.287 111.186 246.847 111.186 C 246.725 111.186 241.723 109.596 232.886 106.749 C 229.26 105.581 221.183 103.073 218.4 102.25 C 216.957 101.824 216.778 101.71 216.778 101.221 L 216.778 100.671 L 223.49 100.671 L 223.49 94.911 C 223.489 86.075 224.354 86.713 212.248 86.624 L 203.356 86.558 L 203.356 101.333 C 203.356 109.459 203.28 116.106 203.188 116.103 C 203.096 116.101 201.158 115.51 198.881 114.79 C 196.605 114.07 191.622 112.507 187.808 111.317 C 183.993 110.126 180.64 109.055 180.357 108.938 L 179.841 108.723 L 179.909 98.467 L 179.978 88.21 L 175 85.66 L 170.023 83.11 L 170.023 78.02 L 170.022 72.931 Z M 179.892 110.696 L 180.382 110.832 C 180.652 110.906 185.906 112.568 192.058 114.525 L 203.244 118.082 L 203.23 121.066 C 203.225 122.176 203.188 123.661 203.133 125.255 C 203.225 125.716 203.307 128.336 203.323 132.688 L 203.356 141.55 L 191.778 141.662 C 185.411 141.724 180.126 141.732 180.033 141.679 C 179.941 141.627 179.886 135.575 179.912 128.231 C 179.937 121.083 179.956 117.984 179.998 117.925 L 179.892 110.696 Z M 205.14 100.671 L 206.202 100.671 C 207.195 100.671 213.347 102.497 224.273 106.033 C 226.118 106.631 230.548 108.044 234.116 109.174 C 237.684 110.304 241.158 111.406 241.834 111.622 L 243.065 112.014 L 243.065 115.683 C 243.065 116.764 243.052 118.261 243.031 119.757 C 243.11 118.679 243.177 119.915 243.177 123.423 C 243.177 125.327 243.122 126.878 243.046 127.291 C 243.071 127.338 243.099 127.356 243.131 127.349 C 243.279 127.318 243.4 127.406 243.4 127.543 C 243.4 127.667 243.555 127.726 243.763 127.694 C 243.28 127.454 243.232 127.293 243.736 127.293 C 243.921 127.293 244.072 127.369 244.072 127.461 C 244.072 127.553 244.346 127.645 244.68 127.664 C 245.015 127.684 245.325 127.81 245.37 127.945 C 245.386 127.993 245.412 128.032 245.443 128.058 C 245.448 128.055 245.454 128.052 245.459 128.049 C 245.588 127.968 245.636 127.991 245.58 128.099 C 245.599 128.095 245.619 128.088 245.638 128.076 C 245.74 128.013 246.084 128.06 246.402 128.181 L 246.98 128.401 L 246.98 141.611 L 236.857 141.612 C 231.289 141.612 225.148 141.678 223.21 141.759 L 219.687 141.905 L 219.687 134.851 C 219.687 130.971 219.762 127.457 219.854 127.042 C 219.954 126.588 220.062 127.77 220.152 130.281 C 220.147 130.027 220.142 129.775 220.138 129.53 C 220.108 127.522 220.021 126.5 219.91 126.846 C 219.8 127.191 219.721 126.25 219.706 124.385 L 219.68 121.365 L 212.469 119.103 L 205.257 116.841 L 205.198 108.756 L 205.14 100.671 Z M 267.561 109.908 C 275.674 112.529 282.725 114.765 282.874 114.765 C 282.942 114.765 282.998 115.784 282.998 117.029 C 282.998 119.079 282.961 119.281 282.606 119.177 C 282.391 119.113 279.597 118.238 276.398 117.231 C 273.199 116.224 268.191 114.66 265.27 113.755 C 262.348 112.85 259.87 112.055 259.762 111.988 C 259.544 111.853 259.411 107.944 259.614 107.616 C 259.761 107.378 259.501 107.303 267.561 109.908 Z M 259.808 114.094 C 259.912 114.094 262.479 114.894 265.513 115.871 C 268.547 116.849 273.697 118.488 276.957 119.514 L 282.886 121.379 L 282.861 123.609 C 282.853 124.373 282.824 125.403 282.783 126.549 C 282.88 126.372 282.954 129.107 282.97 133.584 L 282.998 141.552 L 271.421 141.661 C 265.053 141.721 259.768 141.729 259.676 141.678 C 259.583 141.626 259.53 135.475 259.556 128.007 C 259.589 118.756 259.607 116.084 259.671 117.981 C 259.682 115.689 259.733 114.094 259.808 114.094 Z M 249.664 72.931 L 290.716 72.953 L 293.899 76.018 C 295.65 77.704 299.995 81.851 303.555 85.235 L 310.028 91.387 L 310.048 107.579 L 310.067 123.638 C 310.068 123.637 310.069 123.636 310.07 123.635 L 310.067 123.805 L 309.956 123.702 C 309.965 123.7 309.975 123.698 309.984 123.696 L 309.004 122.807 C 308.51 122.358 307.362 121.287 305.949 119.957 C 306.161 120.196 306.281 120.358 306.24 120.358 C 306.178 120.358 305.786 120.006 305.369 119.575 C 304.975 119.169 304.693 118.832 304.715 118.795 C 302.437 116.647 299.808 114.153 298.1 112.514 C 297.678 112.109 297.187 111.639 296.675 111.15 C 296.809 111.309 296.877 111.41 296.844 111.41 C 296.782 111.41 296.39 111.057 295.973 110.627 C 295.598 110.239 295.325 109.915 295.318 109.854 C 294.638 109.206 293.998 108.596 293.512 108.136 C 292.343 107.028 289.525 104.335 287.248 102.152 L 283.11 98.183 L 283.05 105.244 C 283.018 109.127 282.933 112.304 282.862 112.304 C 282.79 112.304 278.236 110.888 272.742 109.157 C 267.247 107.426 262.047 105.79 261.186 105.522 L 259.62 105.034 L 259.62 88.116 L 249.666 83.11 L 249.665 78.02 L 249.664 72.931 Z M 312.528 72.931 L 335.798 72.931 L 335.715 100.615 C 335.676 113.896 335.601 123.163 335.481 129.033 C 335.492 128.95 335.503 128.882 335.514 128.831 C 335.607 128.416 335.709 131.087 335.742 134.766 C 335.774 138.445 335.774 141.478 335.742 141.506 C 335.709 141.534 330.473 141.603 324.105 141.659 L 312.528 141.76 L 312.528 135.323 C 312.528 131.273 312.611 128.834 312.752 128.747 C 312.603 128.839 312.528 119.503 312.528 100.908 L 312.528 72.931 Z" style="fill: rgb(255, 255, 255);"/>
</svg>