<?xml version="1.0" encoding="utf-8"?>
<svg version="1.2" id="Layer_2" x="0px" y="0px" xmlns="http://www.w3.org/2000/svg">
  <g>
    <path d="M 170.924 37.234 C 172.682 38.449 173.999 39.769 174.878 41.185 C 175.823 42.877 176.399 44.767 176.6 46.862 L 176.6 93.588 C 176.6 96.427 176.078 98.641 175.031 100.228 C 173.984 101.815 172.817 103.081 171.533 104.029 C 170.048 105.109 168.356 105.853 166.465 106.259 L 134.941 106.259 L 134.941 35.202 L 163.423 35.202 C 166.669 35.34 169.169 36.016 170.924 37.234 Z M 173.156 46.658 C 172.952 45.172 172.514 43.822 171.839 42.604 C 171.296 41.593 170.453 40.663 169.304 39.817 C 168.155 38.971 166.597 38.617 164.641 38.752 L 138.185 38.854 L 138.185 103.015 L 165.046 103.015 C 166.465 102.745 167.75 102.274 168.899 101.596 C 169.844 101.056 170.756 100.246 171.635 99.163 C 172.511 98.083 173.021 96.598 173.156 94.704 L 173.156 46.658 Z M 158.254 50.765 C 158.863 51.338 159.334 51.965 159.673 52.64 C 160.012 53.384 160.213 54.227 160.282 55.172 L 160.282 84.569 C 160.348 86.259 160.198 87.561 159.826 88.47 C 159.454 89.385 158.998 90.042 158.458 90.447 C 157.849 90.987 157.174 91.29 156.429 91.359 L 150.348 91.359 L 150.147 49.7 L 155.619 49.7 C 156.769 49.835 157.648 50.189 158.254 50.765 Z M 157.039 55.172 C 156.904 54.632 156.7 54.194 156.432 53.855 C 155.823 53.114 154.776 52.91 153.288 53.246 L 153.288 88.116 C 153.894 88.317 154.47 88.386 155.01 88.317 C 155.484 88.251 155.907 88.05 156.276 87.711 C 156.652 87.375 156.904 86.73 157.039 85.784 L 157.039 55.172 Z" id="path7" style="fill-opacity: 1; fill: rgb(255, 255, 255);"/>
    <path d="M 200.726 35.509 L 200.726 106.057 L 181.062 106.057 L 181.062 35.509 L 200.726 35.509 Z M 197.279 39.565 L 184.305 39.565 L 184.305 102.205 L 197.279 102.205 L 197.279 39.565 Z" id="path9" style="fill-opacity: 1; fill: rgb(255, 255, 255);"/>
    <path d="M 226.573 58.62 L 226.573 55.68 C 226.639 54.329 226.336 53.519 225.661 53.246 C 225.391 53.114 225.019 53.114 224.548 53.246 C 224.005 53.246 223.618 53.366 223.381 53.603 C 223.144 53.84 222.991 54.125 222.925 54.464 C 222.787 54.8 222.787 55.205 222.925 55.68 L 222.925 59.532 L 238.533 69.67 C 240.492 70.75 241.995 71.899 243.045 73.114 C 244.092 74.332 244.818 75.481 245.223 76.562 C 245.697 77.78 245.934 79.061 245.934 80.414 L 245.934 95.919 C 245.799 98.152 245.223 99.961 244.209 101.344 C 243.198 102.73 242.049 103.795 240.765 104.536 C 239.277 105.415 237.62 106.057 235.796 106.463 L 215.322 106.463 C 212.754 106.397 210.744 105.754 209.292 104.536 C 207.84 103.324 206.774 102.037 206.099 100.687 C 205.286 99.064 204.782 97.24 204.578 95.211 L 204.578 72.1 L 223.027 83.354 L 223.027 87.306 C 223.027 87.915 223.108 88.371 223.279 88.674 C 223.447 88.977 223.666 89.199 223.936 89.334 C 224.206 89.535 224.545 89.637 224.95 89.637 C 225.964 89.568 226.54 89.163 226.675 88.419 C 226.741 88.152 226.708 87.78 226.573 87.306 L 226.573 82.643 L 213.093 74.536 C 210.726 73.252 208.953 71.881 207.771 70.429 C 206.588 68.977 205.724 67.675 205.187 66.526 C 204.578 65.175 204.275 63.822 204.275 62.472 L 204.275 45.851 C 204.407 43.282 205.016 41.29 206.099 39.871 C 207.18 38.452 208.398 37.405 209.748 36.727 C 211.302 35.986 213.024 35.545 214.917 35.41 L 233.06 35.41 C 236.168 35.545 238.569 36.121 240.258 37.135 C 241.947 38.146 243.231 39.295 244.11 40.579 C 245.055 42.067 245.664 43.723 245.934 45.548 L 245.934 71.392 L 226.573 58.62 Z M 224.95 49.802 C 226.03 49.937 226.861 50.189 227.435 50.564 C 228.011 50.936 228.467 51.356 228.803 51.83 C 229.142 52.37 229.379 52.979 229.514 53.654 L 229.514 56.592 L 242.691 64.497 L 242.487 47.168 C 242.553 45.409 242.166 43.975 241.32 42.859 C 240.477 41.743 239.547 40.882 238.533 40.276 C 237.317 39.532 235.931 39.058 234.377 38.854 L 214.713 38.854 C 213.159 38.992 211.941 39.415 211.065 40.123 C 210.186 40.831 209.511 41.557 209.037 42.301 C 208.497 43.249 208.125 44.263 207.921 45.343 L 207.921 61.764 C 207.855 63.114 208.125 64.296 208.734 65.31 C 209.34 66.325 210.018 67.201 210.759 67.945 C 211.572 68.824 212.55 69.601 213.699 70.276 L 230.324 81.02 L 230.324 87.609 C 230.324 88.893 230.051 89.892 229.511 90.6 C 228.971 91.311 228.362 91.833 227.687 92.169 C 226.942 92.577 226.066 92.847 225.052 92.982 C 223.768 92.847 222.787 92.562 222.112 92.121 C 221.437 91.683 220.93 91.194 220.591 90.651 C 220.186 90.045 219.916 89.334 219.781 88.521 L 219.781 85.28 L 207.921 78.185 L 207.72 94.806 C 207.786 96.766 208.209 98.269 208.986 99.319 C 209.763 100.366 210.624 101.158 211.569 101.701 C 212.649 102.307 213.9 102.679 215.319 102.814 L 235.085 102.814 C 237.044 102.748 238.515 102.307 239.496 101.497 C 240.474 100.687 241.2 99.808 241.674 98.863 C 242.214 97.714 242.487 96.43 242.487 95.01 L 242.487 79.907 C 242.553 79.094 242.352 78.284 241.878 77.471 C 241.404 76.661 240.864 75.953 240.258 75.343 C 239.514 74.599 238.701 73.891 237.825 73.213 L 219.781 61.557 L 219.781 54.056 C 219.847 52.907 220.168 52.064 220.744 51.524 C 221.317 50.984 221.911 50.576 222.517 50.306 C 223.264 50.039 224.074 49.871 224.95 49.802 Z" id="path11" style="fill-opacity: 1; fill: rgb(255, 255, 255);"/>
    <path d="M 289.418 62.067 L 282.121 70.477 L 289.418 79.397 L 289.418 106.057 L 270.666 106.057 L 270.666 86.394 L 268.032 83.96 L 268.032 106.259 L 249.076 106.259 L 249.076 35.41 L 268.032 35.41 L 268.032 57.708 L 270.666 54.563 L 270.666 35.41 L 289.418 35.41 L 289.418 62.067 Z M 286.174 39.463 L 274.416 39.463 L 274.314 56.391 L 264.785 66.121 L 264.38 39.058 L 252.52 39.058 L 252.52 102.103 L 264.278 102.103 L 264.278 75.95 L 273.504 84.668 L 273.504 102.202 L 285.97 102.202 L 285.97 79.802 L 277.962 70.477 L 286.174 60.951 L 286.174 39.463 Z" id="path13" style="fill-opacity: 1; fill: rgb(255, 255, 255);"/>
    <path d="M 344.458 58.62 L 344.458 55.68 C 344.524 54.329 344.221 53.519 343.546 53.246 C 343.276 53.114 342.904 53.114 342.43 53.246 C 341.887 53.246 341.5 53.366 341.263 53.603 C 341.026 53.84 340.876 54.125 340.807 54.464 C 340.672 54.8 340.672 55.205 340.807 55.68 L 340.807 59.532 L 356.417 69.67 C 358.376 70.75 359.88 71.899 360.93 73.114 C 361.977 74.332 362.703 75.481 363.108 76.562 C 363.579 77.78 363.819 79.061 363.819 80.414 L 363.819 95.919 C 363.681 98.152 363.108 99.961 362.094 101.344 C 361.08 102.73 359.931 103.795 358.646 104.536 C 357.161 105.415 355.505 106.057 353.681 106.463 L 333.207 106.463 C 330.639 106.397 328.629 105.754 327.173 104.536 C 325.721 103.324 324.659 102.037 323.981 100.687 C 323.171 99.064 322.664 97.24 322.46 95.211 L 322.46 72.1 L 340.909 83.354 L 340.909 87.306 C 340.909 87.915 340.993 88.371 341.164 88.674 C 341.329 88.977 341.551 89.199 341.821 89.334 C 342.091 89.535 342.43 89.637 342.835 89.637 C 343.849 89.568 344.422 89.163 344.557 88.419 C 344.626 88.152 344.59 87.78 344.455 87.306 L 344.455 82.643 L 330.975 74.536 C 328.611 73.252 326.834 71.881 325.652 70.429 C 324.473 68.977 323.609 67.675 323.069 66.526 C 322.463 65.175 322.157 63.822 322.157 62.472 L 322.157 45.851 C 322.292 43.282 322.901 41.29 323.984 39.871 C 325.064 38.452 326.282 37.405 327.632 36.727 C 329.187 35.986 330.909 35.545 332.802 35.41 L 350.945 35.41 C 354.053 35.545 356.45 36.121 358.142 37.135 C 359.832 38.146 361.116 39.295 361.995 40.579 C 362.94 42.067 363.549 43.723 363.819 45.548 L 363.819 71.392 L 344.458 58.62 Z M 342.835 49.802 C 343.915 49.937 344.746 50.189 345.319 50.564 C 345.892 50.936 346.351 51.356 346.687 51.83 C 347.026 52.37 347.26 52.979 347.398 53.654 L 347.398 56.592 L 360.573 64.497 L 360.372 47.168 C 360.438 45.409 360.051 43.975 359.208 42.859 C 358.361 41.743 357.431 40.882 356.417 40.276 C 355.202 39.532 353.816 39.058 352.262 38.854 L 332.598 38.854 C 331.044 38.992 329.826 39.415 328.947 40.123 C 328.07 40.831 327.392 41.557 326.921 42.301 C 326.378 43.249 326.009 44.263 325.808 45.343 L 325.808 61.764 C 325.739 63.114 326.009 64.296 326.618 65.31 C 327.224 66.325 327.899 67.201 328.644 67.945 C 329.457 68.824 330.435 69.601 331.584 70.276 L 348.208 81.02 L 348.208 87.609 C 348.208 88.893 347.935 89.892 347.395 90.6 C 346.855 91.311 346.249 91.833 345.571 92.169 C 344.827 92.577 343.951 92.847 342.937 92.982 C 341.653 92.847 340.672 92.562 339.997 92.121 C 339.322 91.683 338.815 91.194 338.475 90.651 C 338.07 90.045 337.797 89.334 337.665 88.521 L 337.665 85.28 L 325.805 78.185 L 325.604 94.806 C 325.67 96.766 326.093 98.269 326.87 99.319 C 327.647 100.366 328.508 101.158 329.454 101.701 C 330.534 102.307 331.785 102.679 333.204 102.814 L 352.97 102.814 C 354.929 102.748 356.399 102.307 357.38 101.497 C 358.358 100.687 359.085 99.808 359.559 98.863 C 360.102 97.714 360.372 96.43 360.372 95.01 L 360.372 79.907 C 360.438 79.094 360.234 78.284 359.763 77.471 C 359.289 76.661 358.749 75.953 358.142 75.343 C 357.398 74.599 356.585 73.891 355.709 73.213 L 337.665 61.557 L 337.665 54.056 C 337.731 52.907 338.052 52.064 338.629 51.524 C 339.202 50.984 339.793 50.576 340.402 50.306 C 341.146 50.039 341.956 49.871 342.835 49.802 Z" id="path15" style="fill-opacity: 1; fill: rgb(255, 255, 255);"/>
    <path d="M 409.531 35.611 L 409.531 95.82 C 409.462 98.185 408.973 100.06 408.061 101.446 C 407.149 102.832 406.12 103.894 404.971 104.638 C 403.684 105.451 402.199 106.024 400.51 106.361 L 370.609 106.361 L 370.609 89.13 L 389.664 89.13 L 389.664 85.784 L 376.69 85.784 C 374.191 85.652 372.298 85.043 371.014 83.96 C 369.73 82.88 368.818 81.662 368.277 80.312 C 367.599 78.758 367.263 77.036 367.263 75.142 L 367.263 35.611 L 386.726 35.611 L 386.726 67.945 L 390.072 67.945 L 390.072 35.611 L 409.531 35.611 Z M 406.186 39.361 L 393.924 39.361 L 393.924 67.036 C 393.855 67.912 393.618 68.689 393.213 69.364 C 392.874 69.973 392.352 70.513 391.641 70.987 C 390.93 71.461 389.901 71.731 388.55 71.797 C 387.536 71.866 386.657 71.764 385.913 71.494 C 385.238 71.224 384.632 70.75 384.089 70.075 C 383.549 69.397 383.243 68.317 383.18 66.832 L 383.18 39.364 L 371.32 39.364 L 371.32 75.346 C 371.386 76.697 371.692 77.915 372.232 78.995 C 372.703 79.94 373.429 80.801 374.41 81.578 C 375.388 82.355 376.825 82.745 378.718 82.745 L 393.822 82.745 L 393.822 88.014 C 393.684 88.893 393.381 89.67 392.907 90.345 C 392.502 90.888 391.893 91.392 391.083 91.866 C 390.27 92.34 389.189 92.577 387.839 92.577 L 374.257 92.577 L 374.257 102.61 L 400.105 102.61 C 401.254 102.475 402.268 102.139 403.147 101.599 C 403.888 101.125 404.581 100.417 405.223 99.469 C 405.865 98.524 406.186 97.24 406.186 95.616 L 406.186 39.361 Z" id="path17" style="fill-opacity: 1; fill: rgb(255, 255, 255);"/>
    <path d="M 435.277 58.62 L 435.277 55.68 C 435.346 54.329 435.04 53.519 434.365 53.246 C 434.095 53.114 433.723 53.114 433.252 53.246 C 432.709 53.246 432.322 53.366 432.085 53.603 C 431.848 53.84 431.695 54.125 431.629 54.464 C 431.494 54.8 431.494 55.205 431.629 55.68 L 431.629 59.532 L 447.236 69.67 C 449.195 70.75 450.699 71.899 451.749 73.114 C 452.796 74.332 453.522 75.481 453.93 76.562 C 454.401 77.78 454.638 79.061 454.638 80.414 L 454.638 95.919 C 454.503 98.152 453.93 99.961 452.913 101.344 C 451.902 102.73 450.753 103.795 449.468 104.536 C 447.983 105.415 446.327 106.057 444.503 106.463 L 424.026 106.463 C 421.458 106.397 419.448 105.754 417.995 104.536 C 416.543 103.324 415.478 102.037 414.803 100.687 C 413.993 99.064 413.486 97.24 413.282 95.211 L 413.282 72.1 L 431.731 83.354 L 431.731 87.306 C 431.731 87.915 431.812 88.371 431.983 88.674 C 432.151 88.977 432.37 89.199 432.64 89.334 C 432.913 89.535 433.249 89.637 433.657 89.637 C 434.668 89.568 435.241 89.163 435.379 88.419 C 435.445 88.152 435.412 87.78 435.277 87.306 L 435.277 82.643 L 421.797 74.536 C 419.43 73.252 417.656 71.881 416.474 70.429 C 415.292 68.977 414.428 67.675 413.891 66.526 C 413.282 65.175 412.979 63.822 412.979 62.472 L 412.979 45.851 C 413.111 43.282 413.723 41.29 414.803 39.871 C 415.883 38.452 417.101 37.405 418.451 36.727 C 420.006 35.986 421.728 35.545 423.621 35.41 L 441.764 35.41 C 444.872 35.545 447.272 36.121 448.961 37.135 C 450.651 38.146 451.935 39.295 452.814 40.579 C 453.759 42.067 454.368 43.723 454.638 45.548 L 454.638 71.392 L 435.277 58.62 Z M 433.657 49.802 C 434.737 49.937 435.565 50.189 436.141 50.564 C 436.714 50.936 437.17 51.356 437.509 51.83 C 437.845 52.37 438.082 52.979 438.217 53.654 L 438.217 56.592 L 451.395 64.497 L 451.191 47.168 C 451.26 45.409 450.87 43.975 450.027 42.859 C 449.18 41.743 448.253 40.882 447.239 40.276 C 446.021 39.532 444.638 39.058 443.084 38.854 L 423.417 38.854 C 421.863 38.992 420.648 39.415 419.769 40.123 C 418.892 40.831 418.214 41.557 417.743 42.301 C 417.2 43.249 416.828 44.263 416.627 45.343 L 416.627 61.764 C 416.558 63.114 416.828 64.296 417.44 65.31 C 418.046 66.325 418.721 67.201 419.465 67.945 C 420.276 68.824 421.257 69.601 422.406 70.276 L 439.027 81.02 L 439.027 87.609 C 439.027 88.893 438.757 89.892 438.217 90.6 C 437.674 91.311 437.068 91.833 436.39 92.169 C 435.649 92.577 434.77 92.847 433.756 92.982 C 432.472 92.847 431.494 92.562 430.819 92.121 C 430.141 91.683 429.637 91.194 429.297 90.651 C 428.889 90.045 428.619 89.334 428.484 88.521 L 428.484 85.28 L 416.624 78.185 L 416.423 94.806 C 416.492 96.766 416.912 98.269 417.689 99.319 C 418.466 100.366 419.327 101.158 420.276 101.701 C 421.356 102.307 422.604 102.679 424.026 102.814 L 443.792 102.814 C 445.751 102.748 447.221 102.307 448.199 101.497 C 449.18 100.687 449.906 99.808 450.381 98.863 C 450.921 97.714 451.191 96.43 451.191 95.01 L 451.191 79.907 C 451.26 79.094 451.056 78.284 450.585 77.471 C 450.111 76.661 449.567 75.953 448.961 75.343 C 448.217 74.599 447.407 73.891 446.528 73.213 L 428.487 61.557 L 428.487 54.056 C 428.553 52.907 428.874 52.064 429.451 51.524 C 430.024 50.984 430.615 50.576 431.224 50.306 C 431.965 50.039 432.778 49.871 433.657 49.802 Z" id="path19" style="fill-opacity: 1; fill: rgb(255, 255, 255);"/>
    <path d="M 495.184 35.815 L 495.184 54.26 L 486.465 54.26 L 486.465 106.259 L 465.991 106.259 L 465.991 54.26 L 457.677 54.26 L 457.677 35.41 L 495.184 35.815 Z M 491.23 39.463 L 461.329 39.463 L 461.329 50.207 L 469.843 50.207 L 469.843 102.61 L 482.208 102.61 L 482.208 50.51 L 491.23 50.51 L 491.23 39.463 Z" id="path21" style="fill-opacity: 1; fill: rgb(255, 255, 255);"/>
    <path d="M 518.295 54.059 L 518.295 62.268 L 531.269 62.268 L 531.269 80.717 L 517.89 80.717 L 517.89 88.521 L 531.269 88.521 L 531.269 106.565 L 498.325 106.361 L 498.325 35.41 L 531.674 35.41 L 531.674 54.059 L 518.295 54.059 Z M 514.341 66.019 L 514.341 50.309 L 527.719 50.309 L 527.719 39.565 L 502.076 39.565 L 502.076 103.624 L 527.719 103.624 L 527.719 92.373 L 514.137 92.373 L 514.137 76.967 L 527.92 76.967 L 527.92 66.019 L 514.341 66.019 Z" id="path23" style="fill-opacity: 1; fill: rgb(255, 255, 255);"/>
    <path d="M 596.24 37.993 C 597.59 39.109 598.538 40.273 599.078 41.491 C 599.756 42.91 600.059 44.464 599.99 46.154 L 599.99 106.664 L 580.731 106.664 L 580.731 55.782 C 580.662 55.04 580.395 54.566 579.921 54.362 C 579.648 54.296 579.378 54.26 579.108 54.26 C 578.703 54.26 578.382 54.362 578.145 54.566 C 577.908 54.767 577.725 54.971 577.59 55.172 C 577.386 55.442 577.284 55.716 577.284 55.986 L 577.284 106.463 L 558.229 106.463 L 558.229 56.085 C 558.229 55.343 557.959 54.767 557.419 54.362 C 557.149 54.161 556.879 54.026 556.606 53.957 C 556.135 53.957 555.763 54.059 555.49 54.26 C 555.22 54.464 555.019 54.701 554.884 54.971 C 554.683 55.241 554.581 55.577 554.581 55.983 L 554.581 106.157 L 536.132 106.157 L 536.132 35.509 L 559.75 35.509 C 561.236 35.374 562.538 35.491 563.651 35.863 C 564.767 36.235 565.73 36.691 566.54 37.231 C 567.419 37.84 568.229 38.551 568.973 39.361 C 569.378 38.617 569.885 38.026 570.494 37.588 C 571.101 37.147 571.71 36.793 572.319 36.523 C 572.997 36.253 573.705 36.016 574.449 35.812 L 590.362 35.812 C 592.928 36.151 594.89 36.88 596.24 37.993 Z M 596.444 45.647 C 596.375 44.497 596.105 43.483 595.634 42.604 C 595.226 41.86 594.533 41.17 593.555 40.525 C 592.574 39.886 591.206 39.565 589.447 39.565 L 575.562 39.565 C 574.482 39.631 573.468 39.901 572.523 40.375 C 571.71 40.78 570.881 41.389 570.038 42.199 C 569.192 43.012 568.532 44.092 568.061 45.442 C 567.518 44.161 566.879 43.045 566.135 42.097 C 565.391 41.287 564.479 40.543 563.399 39.868 C 562.316 39.193 560.896 38.89 559.141 38.959 L 540.188 39.16 L 540.188 102.61 L 551.44 102.61 L 551.44 55.58 C 551.371 54.632 551.539 53.789 551.944 53.045 C 552.283 52.367 552.841 51.761 553.618 51.221 C 554.395 50.678 555.562 50.408 557.116 50.408 C 557.926 50.408 558.703 50.612 559.447 51.017 C 559.987 51.353 560.512 51.944 561.016 52.79 C 561.524 53.636 561.779 54.869 561.779 56.49 L 561.779 102.61 L 573.741 102.61 L 573.741 55.577 C 573.741 54.767 573.942 53.99 574.347 53.246 C 574.683 52.637 575.226 52.079 575.97 51.575 C 576.711 51.068 577.827 50.813 579.315 50.813 C 580.125 50.747 580.902 50.846 581.644 51.116 C 582.253 51.389 582.811 51.86 583.315 52.538 C 583.822 53.213 584.077 54.293 584.077 55.779 L 584.077 102.607 L 596.444 102.607 L 596.444 45.647 Z" id="path25" style="fill-opacity: 1; fill: rgb(255, 255, 255);"/>
    <polygon points="135.151 0 147.564 0 147.564 4.326 139.499 4.326 139.499 9.574 147.564 9.574 147.564 14.038 139.499 14.038 139.499 23.366 135.151 23.366" id="polygon27" style="fill-opacity: 1; fill: rgb(255, 255, 255);"/>
    <path d="M 161.68 23.366 L 157.45 23.366 L 157.45 19.727 L 149.259 19.727 L 146.832 23.366 L 141.854 23.366 L 158.236 0 L 161.68 0 L 161.68 23.366 Z M 157.45 15.314 L 157.45 8.494 L 152.448 15.314 L 157.45 15.314 Z" id="path29" style="fill-opacity: 1; fill: rgb(255, 255, 255);"/>
    <polygon points="163.336 0 168.242 0 175.157 15.707 182.121 0 187.075 0 187.075 23.366 182.709 23.366 182.709 11.584 177.315 23.366 172.901 23.366 167.702 11.584 167.702 23.366 163.336 23.366" id="polygon31" style="fill-opacity: 1; fill: rgb(255, 255, 255);"/>
    <polygon points="268.467 0 273.372 0 280.288 15.707 287.251 0 292.208 0 292.208 23.366 287.842 23.366 287.842 11.584 282.445 23.366 278.031 23.366 272.832 11.584 272.832 23.366 268.467 23.366" id="polygon33" style="fill-opacity: 1; fill: rgb(255, 255, 255);"/>
    <rect x="188.452" width="4.518" height="23.366" id="rect35" style="fill-opacity: 1; fill: rgb(255, 255, 255);"/>
    <polygon points="194.212 0 198.731 0 198.731 19.106 204.617 19.106 204.617 23.366 194.212 23.366" id="polygon37" style="fill-opacity: 1; fill: rgb(255, 255, 255);"/>
    <polygon points="199.598 0 204.617 0 209.364 9.574 213.972 0 218.947 0 211.464 14.86 211.464 23.366 207.083 23.366 207.083 14.86" id="polygon39" style="fill-opacity: 1; fill: rgb(255, 255, 255);"/>
    <path stroke="#231F20" stroke-width="0.3451" d="M 243.567 17.333" id="path41" style="fill-opacity: 1; fill: rgb(255, 255, 255);"/>
    <path d="M 243.504 6.445 C 241.518 2.664 237.558 0.084 232.991 0.084 C 226.438 0.084 221.125 5.398 221.125 11.95 C 221.125 18.503 226.435 23.813 232.991 23.813 C 237.588 23.813 241.575 21.2 243.546 17.375 L 238.17 17.42 C 236.843 18.641 235.073 19.388 233.126 19.388 C 229.019 19.388 225.688 16.058 225.688 11.95 C 225.688 7.84 229.019 4.509 233.126 4.509 C 235.046 4.509 236.792 5.236 238.113 6.43 L 243.504 6.445 Z" id="path43" style="fill-opacity: 1; fill: rgb(255, 255, 255);"/>
    <path d="M 255.244 23.876 C 248.656 23.876 243.318 18.536 243.318 11.95 C 243.318 5.365 248.659 0.024 255.244 0.024 C 261.833 0.024 267.17 5.365 267.17 11.95 C 267.173 18.539 261.833 23.876 255.244 23.876 Z M 262.838 11.95 C 262.838 7.783 259.457 4.404 255.289 4.404 C 251.122 4.404 247.743 7.783 247.743 11.95 C 247.743 16.118 251.122 19.496 255.289 19.496 C 259.457 19.496 262.838 16.118 262.838 11.95 Z" id="path45" style="fill-opacity: 1; fill: rgb(255, 255, 255);"/>
    <path d="M 301.512 0.003 C 305.466 0.321 308.575 3.63 308.575 7.666 C 308.575 11.701 305.466 15.01 301.512 15.329 L 298.095 15.314 L 298.095 23.366 L 293.714 23.366 L 293.714 0 L 298.095 0 L 301.512 0.003 Z M 298.098 4.497 L 298.098 10.834 L 301.512 10.831 C 303.006 10.552 304.137 9.241 304.137 7.666 C 304.137 6.091 303.006 4.779 301.512 4.5 L 298.098 4.497 Z" id="path47" style="fill-opacity: 1; fill: rgb(255, 255, 255);"/>
    <path d="M 356.708 23.669 L 352.37 23.669 L 352.37 0.201 L 358.394 0.192 L 361.809 0.195 C 365.763 0.513 368.874 3.822 368.874 7.858 C 368.874 11.155 366.798 13.966 363.882 15.058 L 368.938 23.666 L 364.191 23.666 L 357.107 11.563 L 356.708 11.563 L 356.708 23.669 Z M 354.014 23.558 M 358.397 23.558 M 361.812 11.023 C 363.306 10.744 364.437 9.433 364.437 7.858 C 364.437 6.283 363.306 4.971 361.812 4.692 L 356.708 4.692 L 356.708 11.029 L 361.812 11.023 Z" id="path49" style="fill-opacity: 1; fill: rgb(255, 255, 255);"/>
    <path d="M 320.633 9.118 M 320.633 9.118 M 314.299 9.118 M 314.284 13.501 M 314.284 13.501 L 314.287 16.916 C 314.569 18.413 315.877 19.541 317.452 19.541 C 319.028 19.541 320.339 18.41 320.621 16.916 L 320.624 13.501 L 320.633 0.201 L 325.121 0.201 L 325.121 13.501 L 325.115 16.916 C 324.797 20.87 321.488 23.978 317.452 23.978 C 313.417 23.978 310.108 20.87 309.79 16.916 L 309.808 13.501 L 309.799 0.201 L 314.302 0.201 L 314.284 13.501 Z" id="path51" style="fill-opacity: 1; fill: rgb(255, 255, 255);"/>
    <polygon points="329.601 23.669 334.026 23.669 334.026 4.623 337.995 4.623 337.995 0.201 325.766 0.201 325.766 4.623 329.601 4.623" id="polygon53" style="fill-opacity: 1; fill: rgb(255, 255, 255);"/>
    <polygon points="351.23 23.669 339.07 23.669 339.07 0.201 351.23 0.201 351.23 4.497 343.429 4.497 343.429 10.069 351.23 10.069 351.23 14.452 343.429 14.452 343.429 19.334 351.23 19.334" id="polygon55" style="fill-opacity: 1; fill: rgb(255, 255, 255);"/>
    <path stroke="#231F20" stroke-width="0.3451" d="M 356.708 11.584" id="path57" style="fill-opacity: 1; fill: rgb(255, 255, 255);"/>
    <path d="M 3.159 94.524 C 3.165 89.727 5.941 85.58 9.979 83.609 L 9.979 83.609 C 9.979 81.575 9.979 79.415 9.979 77.096 L 9.979 77.096 C 4.026 73.768 0.003 67.402 0 60.099 L 0 60.099 C 0.003 52.796 4.026 46.427 9.979 43.102 L 9.979 43.102 C 9.979 28.482 9.979 16.046 9.979 13.696 L 9.979 13.696 C 9.982 6.256 16.01 0.225 23.45 0.225 L 23.45 0.225 L 95.739 0.225 C 103.18 0.225 109.211 6.256 109.211 13.696 L 109.211 13.696 C 109.211 16.046 109.211 28.482 109.211 43.102 L 109.211 43.102 C 115.163 46.427 119.187 52.796 119.19 60.099 L 119.19 60.099 C 119.187 67.402 115.163 73.768 109.211 77.096 L 109.211 77.096 C 109.211 79.415 109.211 81.575 109.211 83.609 L 109.211 83.609 C 113.252 85.58 116.027 89.727 116.03 94.524 L 116.03 94.524 C 116.027 101.23 110.597 106.664 103.888 106.664 L 103.888 106.664 L 69.133 106.664 L 69.133 104.002 C 69.124 98.77 64.887 94.533 59.655 94.524 L 59.655 94.524 L 59.655 91.86 L 59.655 89.199 C 66.922 89.202 72.961 94.437 74.215 101.344 L 74.215 101.344 L 103.891 101.344 C 107.657 101.335 110.705 98.287 110.708 94.524 L 110.708 94.524 C 110.714 91.428 108.641 88.815 105.82 87.981 L 105.82 87.981 L 104.719 87.657 L 103.891 86.022 L 103.891 85.385 C 103.891 82.409 103.891 79.166 103.891 75.532 L 103.891 75.532 L 103.891 74.938 L 104.608 73.405 L 105.511 73.003 C 110.438 70.789 113.873 65.848 113.87 60.096 L 113.87 60.096 C 113.873 54.371 110.471 49.451 105.583 47.222 L 105.583 47.222 L 105.391 47.135 L 103.891 46.142 L 103.891 44.713 C 103.891 29.406 103.891 16.13 103.891 13.693 L 103.891 13.693 C 103.882 9.193 100.24 5.554 95.739 5.545 L 95.739 5.545 L 23.45 5.545 C 18.95 5.554 15.311 9.193 15.302 13.693 L 15.302 13.693 C 15.302 16.13 15.302 29.406 15.302 44.713 L 15.302 44.713 L 15.302 46.142 L 14.107 46.931 L 13.798 47.135 L 13.609 47.222 C 8.719 49.451 5.32 54.374 5.323 60.096 L 5.323 60.096 C 5.32 65.848 8.755 70.789 13.681 73.003 L 13.681 73.003 L 14.581 73.405 L 15.302 74.938 L 15.302 75.532 C 15.302 79.166 15.302 82.412 15.302 85.385 L 15.302 85.385 L 15.302 86.022 L 14.47 87.657 L 13.369 87.981 C 10.549 88.815 8.476 91.428 8.482 94.524 L 8.482 94.524 C 8.488 98.29 11.533 101.335 15.299 101.344 L 15.299 101.344 L 44.974 101.344 C 46.232 94.437 52.271 89.202 59.538 89.199 L 59.538 89.199 L 59.649 89.199 L 59.649 91.86 L 59.649 94.524 L 59.541 94.524 C 54.305 94.533 50.072 98.77 50.06 104.002 L 50.06 104.002 L 50.06 106.664 L 15.302 106.664 C 8.596 106.661 3.162 101.23 3.159 94.524 L 3.159 94.524 Z" id="path65" style="fill-opacity: 1; fill: rgb(255, 255, 255);"/>
    <path d="M 12.64 96.964" id="path67" style="fill-opacity: 1; fill: rgb(255, 255, 255);"/>
    <path d="M 17.573 40.525 C 17.576 29.472 26.535 20.516 37.588 20.513 L 37.588 20.513 C 48.641 20.516 57.6 29.472 57.6 40.525 L 57.6 40.525 C 57.6 51.578 48.641 60.537 37.588 60.537 L 37.588 60.537 C 26.535 60.537 17.576 51.578 17.573 40.525 L 17.573 40.525 Z M 20.9 40.525 C 20.918 49.742 28.371 57.195 37.588 57.213 L 37.588 57.213 C 46.802 57.195 54.257 49.742 54.275 40.525 L 54.275 40.525 C 54.257 31.311 46.802 23.855 37.588 23.84 L 37.588 23.84 C 28.371 23.855 20.918 31.311 20.9 40.525 L 20.9 40.525 Z" id="path69" style="fill-opacity: 1; fill: rgb(255, 255, 255);"/>
    <circle cx="22.245" cy="54.787" r="1.552" id="circle71" style="fill-opacity: 1; fill: rgb(255, 255, 255);" transform="matrix(3.000294, 0, 0, 3.000291, -16.236731, -123.794456)"/>
    <path d="M 61.593 40.525 L 61.593 40.525 C 61.593 29.472 70.552 20.516 81.605 20.513 L 81.605 20.513 C 92.658 20.516 101.617 29.472 101.617 40.525 L 101.617 40.525 C 101.617 51.578 92.658 60.537 81.605 60.537 L 81.605 60.537 C 70.552 60.537 61.593 51.578 61.593 40.525 L 61.593 40.525 Z M 81.605 57.213 C 90.819 57.198 98.275 49.742 98.29 40.528 L 98.29 40.528 C 98.275 31.314 90.819 23.858 81.605 23.84 L 81.605 23.84 C 72.391 23.858 64.932 31.314 64.917 40.528 L 64.917 40.528 C 64.935 49.742 72.391 57.195 81.605 57.213 L 81.605 57.213 Z" id="path73" style="fill-opacity: 1; fill: rgb(255, 255, 255);"/>
    <circle cx="28.305" cy="54.787" r="1.552" id="circle75" style="fill-opacity: 1; fill: rgb(255, 255, 255);" transform="matrix(3.000297, 0, 0, 3.000291, -16.236814, -123.794456)"/>
  </g>
</svg>