<?xml version="1.0" encoding="utf-8"?>
<svg viewBox="0 0 200 40" xmlns="http://www.w3.org/2000/svg">
  <path d="M 64.858 17.77 L 64.048 22.24 L 59.188 22.24 L 57.988 29.2 L 52.288 29.2 L 55.588 10.45 L 67.288 10.45 L 65.698 15.25 L 60.418 15.25 L 59.998 17.77 L 64.858 17.77 Z M 71.848 29.2 L 66.148 29.2 L 69.448 10.45 L 75.148 10.45 L 71.848 29.2 Z M 85.588 23.68 L 85.588 23.68 L 85.738 22.87 L 84.298 22.87 L 85.108 18.28 L 91.978 18.28 L 90.208 28.3 L 90.208 28.3 C 87.768 29.2 85.318 29.65 82.858 29.65 L 82.858 29.65 L 82.858 29.65 C 80.398 29.65 78.621 29.16 77.528 28.18 L 77.528 28.18 L 77.528 28.18 C 76.441 27.2 75.898 25.69 75.898 23.65 L 75.898 23.65 L 75.898 23.65 C 75.898 22.79 76.038 21.52 76.318 19.84 L 76.318 19.84 L 76.318 19.84 C 76.918 16.36 77.978 13.85 79.498 12.31 L 79.498 12.31 L 79.498 12.31 C 81.018 10.77 83.538 10 87.058 10 L 87.058 10 L 87.058 10 C 87.798 10 88.741 10.08 89.888 10.24 L 89.888 10.24 L 89.888 10.24 C 91.041 10.4 91.888 10.58 92.428 10.78 L 92.428 10.78 L 90.778 15.37 L 90.778 15.37 C 89.278 15.09 87.901 14.95 86.648 14.95 L 86.648 14.95 L 86.648 14.95 C 85.401 14.95 84.508 15.05 83.968 15.25 L 83.968 15.25 L 83.968 15.25 C 83.428 15.45 83.108 15.85 83.008 16.45 L 83.008 16.45 L 81.538 24.94 L 83.428 24.94 L 83.428 24.94 C 84.108 24.94 84.611 24.867 84.938 24.72 L 84.938 24.72 L 84.938 24.72 C 85.271 24.567 85.488 24.22 85.588 23.68 Z M 108.658 29.2 L 102.958 29.2 L 104.098 22.57 L 99.808 22.57 L 98.668 29.2 L 92.968 29.2 L 96.268 10.45 L 101.968 10.45 L 100.798 17.08 L 105.088 17.08 L 106.258 10.45 L 111.958 10.45 L 108.658 29.2 Z M 128.368 10.45 L 127.498 15.25 L 123.358 15.25 L 120.928 29.2 L 115.228 29.2 L 117.658 15.25 L 113.548 15.25 L 114.418 10.45 L 128.368 10.45 Z M 132.928 29.2 L 127.228 29.2 L 130.528 10.45 L 136.228 10.45 L 132.928 29.2 Z M 152.308 29.2 L 146.938 29.2 L 143.878 22.54 L 143.878 22.54 C 143.798 22.4 143.758 22.203 143.758 21.95 L 143.758 21.95 L 143.758 21.95 C 143.758 21.703 143.778 21.42 143.818 21.1 L 143.818 21.1 L 143.578 21.1 L 142.168 29.2 L 136.468 29.2 L 139.768 10.45 L 145.138 10.45 L 148.198 17.11 L 148.198 17.11 C 148.258 17.25 148.288 17.447 148.288 17.7 L 148.288 17.7 L 148.288 17.7 C 148.288 17.947 148.268 18.23 148.228 18.55 L 148.228 18.55 L 148.468 18.55 L 149.908 10.45 L 155.608 10.45 L 152.308 29.2 Z M 166.318 23.68 L 166.318 23.68 L 166.468 22.87 L 165.028 22.87 L 165.838 18.28 L 172.708 18.28 L 170.938 28.3 L 170.938 28.3 C 168.498 29.2 166.048 29.65 163.588 29.65 L 163.588 29.65 L 163.588 29.65 C 161.128 29.65 159.351 29.16 158.258 28.18 L 158.258 28.18 L 158.258 28.18 C 157.171 27.2 156.628 25.69 156.628 23.65 L 156.628 23.65 L 156.628 23.65 C 156.628 22.79 156.768 21.52 157.048 19.84 L 157.048 19.84 L 157.048 19.84 C 157.648 16.36 158.708 13.85 160.228 12.31 L 160.228 12.31 L 160.228 12.31 C 161.748 10.77 164.268 10 167.788 10 L 167.788 10 L 167.788 10 C 168.528 10 169.471 10.08 170.618 10.24 L 170.618 10.24 L 170.618 10.24 C 171.771 10.4 172.618 10.58 173.158 10.78 L 173.158 10.78 L 171.508 15.37 L 171.508 15.37 C 170.008 15.09 168.631 14.95 167.378 14.95 L 167.378 14.95 L 167.378 14.95 C 166.131 14.95 165.238 15.05 164.698 15.25 L 164.698 15.25 L 164.698 15.25 C 164.158 15.45 163.838 15.85 163.738 16.45 L 163.738 16.45 L 162.268 24.94 L 164.158 24.94 L 164.158 24.94 C 164.838 24.94 165.341 24.867 165.668 24.72 L 165.668 24.72 L 165.668 24.72 C 166.001 24.567 166.218 24.22 166.318 23.68 Z" style="white-space: pre; fill: rgb(255, 255, 255);"/>
  <g id="g-1" fill="#000000" stroke="none" transform="matrix(0.015745, 0, 0, 0.01554, 28.143557, 9.652681)">
    <path d="M516 1238 c-79 -54 -173 -149 -226 -228 -50 -74 -55 -58 65 -205 65 -80 86 -114 104 -170 28 -87 75 -171 108 -192 13 -9 41 -17 61 -18 32 -2 37 -6 43 -33 26 -128 153 -172 295 -102 78 38 212 164 257 241 79 135 48 261 -102 414 -63 64 -130 101 -248 136 -28 8 -84 46 -158 106 -63 51 -120 93 -127 92 -7 0 -40 -19 -72 -41z m40 -83 c4 -8 -1 -30 -10 -49 -9 -19 -16 -39 -16 -45 0 -17 51 -13 71 5 34 31 76 -11 45 -45 -9 -10 -16 -29 -16 -43 0 -22 3 -25 27 -20 15 3 34 11 41 19 19 19 54 -2 50 -30 -2 -18 -10 -22 -38 -23 -99 -2 -103 -6 -102 -90 1 -47 -8 -59 -38 -49 -20 6 -29 50 -11 57 5 2 12 17 15 34 7 30 6 31 -21 26 -15 -2 -35 -11 -44 -19 -32 -28 -73 15 -44 47 8 9 15 29 15 43 0 32 -19 35 -60 11 -32 -20 -60 -13 -60 14 0 29 19 40 59 35 53 -7 78 9 83 52 2 19 1 41 -3 47 -5 7 -3 18 3 25 14 18 47 16 54 -2z" style="fill: rgb(204, 204, 204);"/>
    <path d="M543 1013 c-13 -2 -23 -12 -23 -21 0 -9 -3 -27 -6 -40 -6 -22 -5 -23 32 -16 22 3 40 7 41 8 0 0 4 18 8 39 8 40 5 41 -52 30z" style="fill: rgb(204, 204, 204);"/>
    <path d="M135 966 c-135 -66 -127 -47 -91 -215 31 -143 32 -145 19 -250 -16 -126 -11 -172 30 -271 74 -183 149 -237 311 -228 151 9 312 82 376 170 35 47 37 58 13 58 -46 0 -123 70 -144 130 -7 19 -18 30 -30 30 -23 0 -102 -39 -174 -85 l-50 -32 4 44 c2 31 -2 50 -13 62 -16 17 -15 19 16 25 35 7 88 51 88 73 0 8 -11 35 -24 61 -13 26 -31 70 -40 98 -14 45 -21 52 -54 62 -34 11 -39 10 -59 -13 -13 -15 -23 -34 -23 -44 0 -41 -52 -52 -67 -15 -4 11 6 27 33 49 46 39 40 52 -26 57 -38 3 -46 7 -48 25 -2 16 4 26 20 34 26 11 53 47 43 57 -3 3 -27 9 -53 12 -42 4 -47 8 -47 30 0 30 35 40 55 15 12 -15 40 -21 40 -8 0 3 -7 14 -15 23 -14 16 -14 21 6 54 28 47 16 46 -96 -8z" style="fill: rgb(204, 204, 204);"/>
    <path d="M265 804 c-19 -30 -12 -41 31 -50 42 -8 54 20 23 53 -28 29 -33 29 -54 -3z" style="fill: rgb(204, 204, 204);"/>
  </g>
</svg>