<?xml version="1.0" encoding="utf-8"?>
<svg version="1.0" id="Layer_1" xmlns="http://www.w3.org/2000/svg">
  <g>
    <path d="M 583.713 2.307 L 583.713 5.043 C 580.662 4.278 579.441 8.934 580.74 18.885 L 584.427 47.121 L 587.763 19.224 C 588.135 16.053 588.303 13.605 588.423 12.249 C 588.804 7.914 587.841 5.508 585.549 5.043 L 585.549 2.307 L 600 2.307 L 600 5.274 C 597.558 5.43 596.589 6.525 596.325 8.478 L 588.03 70.032 L 588.03 103.92 C 587.871 107.727 589.029 109.8 591.471 110.091 L 591.471 113.076 L 574.968 113.076 L 574.968 109.86 C 577.095 109.722 578.172 107.727 578.172 103.92 L 578.172 65.913 L 572.181 15.402 C 571.485 9.579 569.076 5.643 566.991 4.827 L 566.754 2.307 L 583.713 2.307 L 583.713 2.307 Z M 521.589 73.71 L 533.961 67.305 C 532.437 91.107 532.851 103.608 535.218 104.835 C 537.582 106.053 538.929 105.447 539.226 103.008 C 540.612 93.843 540.612 84.621 539.226 75.303 C 538.776 70.578 537.861 67.227 536.49 65.229 C 527.922 51.969 523.035 42.048 521.823 35.484 L 521.589 12.828 C 523.266 4.884 527.847 0.918 535.329 0.918 C 543.744 1.071 548.163 6.423 548.631 16.95 L 549.315 31.599 L 537.858 38.925 C 538.011 29.763 538.011 21.21 537.858 13.278 C 537.858 9.471 536.973 7.518 535.218 7.44 C 533.454 7.362 532.599 9.156 532.599 12.828 L 532.812 35.721 C 540.612 48.219 545.874 57.825 548.631 64.551 C 551.364 71.271 552.366 80.877 551.604 93.393 C 550.842 107.283 545.874 114.132 536.7 113.979 C 527.847 113.526 522.813 107.418 521.589 95.619 L 521.589 73.71 L 521.589 73.71 Z M 486.795 113.526 L 486.795 111.927 C 488.634 110.091 489.24 103.53 488.634 92.241 L 482.907 92.241 C 481.983 103.53 482.514 110.091 484.506 111.927 L 484.506 113.526 L 469.605 113.526 L 469.605 111.927 C 470.835 111.771 471.858 111.282 472.698 110.448 C 473.541 109.602 476.097 73.029 480.378 0.702 L 492.291 0.702 C 497.943 73.032 501.075 109.602 501.693 110.448 C 502.299 111.282 503.22 111.771 504.432 111.927 L 504.432 113.526 L 486.795 113.526 L 486.795 113.526 Z M 483.231 82.398 L 487.713 82.398 L 485.424 45.33 L 483.231 82.398 L 483.231 82.398 Z M 420.387 0 L 452.457 0 L 452.457 40.524 L 448.563 40.524 C 447.798 24.201 445.671 14.511 442.149 11.442 L 442.149 105.285 C 442.149 108.963 443.832 111.252 447.198 112.161 L 447.198 113.766 L 425.877 113.766 L 425.877 112.161 C 429.534 111.252 431.217 108.876 430.92 105.054 L 430.92 11.445 C 427.092 14.355 424.644 24.042 423.591 40.524 L 420.387 40.524 L 420.387 0 L 420.387 0 Z M 370.476 8.478 C 370.923 5.724 369.696 4.062 366.801 3.438 L 366.801 0.468 L 383.07 0.468 L 392.01 64.317 L 392.01 7.56 C 392.01 5.274 391.086 3.987 389.25 3.675 L 389.25 0.468 L 403.233 0.468 L 403.233 3.435 C 401.259 3.906 400.338 7.11 400.494 13.05 L 400.494 113.298 L 389.718 113.298 L 378.708 41.445 L 378.708 105.756 C 378.255 109.101 379.41 110.694 382.152 110.559 L 382.152 113.298 L 366.564 113.298 L 366.801 110.769 C 369.402 110.481 370.614 108.726 370.476 105.525 L 370.476 8.478 L 370.476 8.478 Z M 331.776 113.526 L 331.776 111.927 C 333.615 110.091 334.218 103.53 333.615 92.241 L 327.885 92.241 C 326.964 103.53 327.492 110.091 329.487 111.927 L 329.487 113.526 L 314.589 113.526 L 314.589 111.927 C 315.819 111.771 316.833 111.282 317.673 110.448 C 318.516 109.602 321.081 73.029 325.359 0.702 L 337.269 0.702 C 342.918 73.032 346.053 109.602 346.677 110.448 C 347.286 111.282 348.204 111.771 349.413 111.927 L 349.413 113.526 L 331.776 113.526 L 331.776 113.526 Z M 328.221 82.398 L 332.694 82.398 L 330.405 45.33 L 328.221 82.398 L 328.221 82.398 Z M 266.496 7.329 C 266.496 4.884 265.128 3.675 262.377 3.675 L 262.377 0.702 L 297.435 0.702 L 297.435 38.238 L 294.228 38.238 C 293.154 26.328 291.471 18.204 289.182 13.851 C 286.893 9.51 283.449 7.269 278.877 7.11 L 278.877 46.011 C 283.002 47.379 285.132 41.661 285.291 28.845 L 288.501 29.082 L 288.501 75.996 L 285.291 75.996 C 285.291 63.639 283.155 56.988 278.877 56.091 L 278.877 104.835 C 278.877 109.254 279.936 110.934 282.084 109.857 L 282.321 113.298 L 263.055 113.298 L 262.821 109.857 C 265.422 110.772 266.652 109.179 266.496 105.054 L 266.496 7.329 L 266.496 7.329 Z M 194.868 10.08 C 194.712 6.117 193.191 4.062 190.293 3.906 L 190.293 0.468 L 211.137 0.468 L 211.137 3.675 C 208.089 3.984 206.565 6.117 206.565 10.074 L 206.622 106.32 C 212.391 105.933 216.87 92.922 220.077 67.302 L 223.068 67.302 L 223.068 113.526 L 190.056 113.526 L 190.056 110.325 C 193.107 110.01 194.712 108.201 194.868 104.832 L 194.868 10.08 L 194.868 10.08 Z M 156.012 113.526 L 156.012 111.927 C 157.851 110.091 158.46 103.53 157.851 92.241 L 152.121 92.241 C 151.2 103.53 151.731 110.091 153.726 111.927 L 153.726 113.526 L 138.825 113.526 L 138.825 111.927 C 140.058 111.771 141.072 111.282 141.909 110.448 C 142.755 109.602 145.311 73.029 149.601 0.702 L 161.508 0.702 C 167.16 73.032 170.289 109.602 170.916 110.448 C 171.522 111.282 172.443 111.771 173.655 111.927 L 173.655 113.526 L 156.012 113.526 L 156.012 113.526 Z M 152.457 82.398 L 156.933 82.398 L 154.644 45.33 L 152.457 82.398 L 152.457 82.398 Z M 89.661 8.478 C 90.111 5.724 88.878 4.062 85.983 3.438 L 85.983 0.468 L 102.255 0.468 L 111.192 64.317 L 111.192 7.56 C 111.192 5.274 110.271 3.987 108.435 3.675 L 108.435 0.468 L 122.418 0.468 L 122.418 3.435 C 120.441 3.906 119.523 7.11 119.676 13.05 L 119.676 113.298 L 108.906 113.298 L 97.896 41.445 L 97.896 105.756 C 97.443 109.101 98.601 110.694 101.337 110.559 L 101.337 113.298 L 85.749 113.298 L 85.986 110.769 C 88.59 110.481 89.799 108.726 89.664 105.525 L 89.664 8.478 L 89.661 8.478 Z M 51.471 3.675 L 51.471 0.468 L 69.108 0.468 L 68.895 3.675 C 66.744 3.984 65.688 5.508 65.688 8.241 L 65.688 103.92 C 65.745 108.417 66.978 110.559 69.342 110.325 L 69.342 113.526 L 51.471 113.526 L 51.471 110.325 C 53.601 110.643 54.678 108.492 54.678 103.92 L 54.678 8.247 C 54.678 5.508 53.601 3.987 51.471 3.675 L 51.471 3.675 Z M 4.128 7.329 C 4.128 4.884 2.757 3.675 0 3.675 L 0 0.702 L 35.061 0.702 L 35.061 38.238 L 31.854 38.238 C 30.78 26.328 29.097 18.204 26.808 13.851 C 24.522 9.51 21.078 7.269 16.506 7.11 L 16.506 46.011 C 20.631 47.379 22.764 41.661 22.92 28.845 L 26.124 29.082 L 26.124 75.996 L 22.92 75.996 C 22.92 63.639 20.79 56.988 16.506 56.091 L 16.506 104.835 C 16.506 109.254 17.559 110.934 19.71 109.857 L 19.947 113.298 L 0.684 113.298 L 0.45 109.857 C 3.051 110.772 4.281 109.179 4.128 105.054 L 4.128 7.329 L 4.128 7.329 Z" id="use2190" style="fill: rgb(255, 255, 255);"/>
  </g>
</svg>