<?xml version="1.0" encoding="utf-8"?>
<svg xmlns="http://www.w3.org/2000/svg">
  <path d="M 5.128 147.789 L 5.128 139.527 L 26.817 139.217 C 44.786 139.011 48.71 138.597 49.537 137.358 C 50.363 136.015 49.021 135.705 39.932 135.189 C 33.632 134.776 27.539 133.743 24.751 132.71 C 14.423 128.579 6.678 121.35 2.237 111.746 C -0.035 106.685 -0.242 105.239 0.171 94.705 C 0.481 85.513 0.997 82.312 2.753 78.904 C 6.471 71.881 14.01 64.445 20.826 61.036 L 27.126 57.835 L 48.194 57.835 L 69.263 57.835 L 68.953 98.939 C 68.643 143.968 68.746 142.935 62.034 150.061 C 56.767 155.741 55.733 155.947 29.398 155.947 L 5.128 155.947 L 5.128 147.789 Z M 51.603 96.047 L 51.603 74.359 L 43.547 74.359 C 33.013 74.359 27.642 76.941 23.201 84.068 C 16.386 95.221 21.032 112.158 31.98 116.6 C 33.426 117.116 38.383 117.632 43.134 117.632 L 51.603 117.735 L 51.603 96.047 Z" style="fill: rgb(255, 255, 255);"/>
  <path d="M 322.806 139.836 C 321.877 139.011 321.153 137.874 321.153 137.358 C 321.153 136.118 324.149 133.226 325.388 133.226 C 325.904 133.226 325.595 131.781 324.665 129.922 C 321.464 123.622 324.769 116.082 332.308 112.881 C 334.27 112.055 336.646 111.746 337.678 112.055 C 338.71 112.365 341.396 111.746 343.668 110.609 C 350.381 107.201 355.958 107.304 356.888 110.919 C 357.61 113.811 355.441 118.251 351.724 121.763 C 350.278 123.209 349.039 125.171 349.039 126.203 C 349.039 132.401 342.532 137.668 335.509 137.255 C 332.308 136.945 331.171 137.358 329.829 139.217 C 327.97 141.902 325.078 142.109 322.806 139.836 Z M 353.169 112.881 C 353.169 111.228 352.86 111.228 347.902 112.675 L 343.978 113.914 L 346.25 116.806 L 348.522 119.698 L 350.794 116.909 C 352.137 115.36 353.169 113.501 353.169 112.881 Z" style="fill: rgb(255, 255, 255);"/>
  <path d="M 93.636 133.847 C 83.515 130.232 77.938 121.867 78.661 111.436 C 79.281 103.38 83.102 97.7 90.744 93.775 C 96.011 90.986 96.838 90.883 111.607 90.883 L 126.995 90.883 L 126.995 85.1 C 126.995 74.979 128.027 75.392 103.241 75.392 L 81.553 75.392 L 81.553 66.614 L 81.553 57.835 L 105.306 57.835 C 131.436 57.835 132.158 57.938 137.941 64.238 C 144.552 71.157 144.552 71.26 144.552 104.826 L 144.552 135.292 L 121.107 135.292 C 104.171 135.189 96.425 134.776 93.636 133.847 Z M 126.995 113.604 L 126.995 107.408 L 112.123 107.408 C 99.73 107.408 97.044 107.717 95.908 109.06 C 93.636 111.746 93.739 115.463 96.011 117.735 C 97.87 119.594 99.42 119.801 112.536 119.801 L 126.995 119.801 L 126.995 113.604 Z" style="fill: rgb(255, 255, 255);"/>
  <path d="M 156.945 96.564 L 156.945 57.835 L 196.706 57.835 C 229.548 57.835 237.087 58.145 239.463 59.281 C 243.696 61.553 248.55 67.543 249.79 71.984 C 250.513 74.359 250.926 88.095 250.926 105.652 L 250.926 135.292 L 241.631 135.292 L 232.336 135.292 L 232.336 105.342 C 232.336 82.208 232.027 75.392 231.096 75.185 C 230.374 75.082 225.726 74.979 220.769 74.979 L 211.681 74.876 L 211.681 105.135 L 211.681 135.292 L 202.902 135.292 L 194.124 135.292 L 194.124 104.826 L 194.124 74.359 L 184.313 74.359 L 174.502 74.359 L 174.502 104.826 L 174.502 135.292 L 165.723 135.292 L 156.945 135.292 L 156.945 96.564 Z" style="fill: rgb(255, 255, 255);"/>
  <path d="M 286.246 132.917 C 268.379 126.617 258.258 111.746 259.395 93.465 C 260.324 79.73 268.689 67.13 281.185 60.933 C 287.279 57.938 287.692 57.835 303.287 57.835 L 319.089 57.835 L 319.089 66.097 L 319.089 74.359 L 307.934 74.359 C 301.841 74.359 295.231 74.772 293.372 75.392 C 289.448 76.528 284.594 80.659 282.632 84.687 L 281.289 87.269 L 299.982 87.269 L 318.572 87.269 L 318.882 95.84 L 319.192 104.31 L 299.879 104.31 L 280.669 104.31 L 283.251 108.75 C 287.383 115.876 292.237 117.735 306.902 117.735 L 319.089 117.735 L 319.089 126.514 L 319.089 135.292 L 305.972 135.292 C 295.025 135.189 291.617 134.776 286.246 132.917 Z" style="fill: rgb(255, 255, 255);"/>
  <path d="M 384.05 132.917 C 356.372 123.518 348.315 90.264 368.557 68.886 C 371.45 65.89 375.993 62.276 378.678 60.83 C 383.223 58.558 384.979 58.351 400.47 58.041 L 417.201 57.732 L 417.201 65.993 L 417.201 74.359 L 406.047 74.359 C 393.137 74.359 389.007 75.289 384.875 79.214 C 379.815 84.171 378.575 87.475 378.575 96.667 C 378.575 106.065 380.641 110.609 386.528 114.844 C 389.523 117.013 391.278 117.219 403.568 117.529 L 417.201 117.942 L 417.201 126.617 L 417.201 135.292 L 404.085 135.292 C 393.137 135.292 389.729 134.879 384.05 132.917 Z" style="fill: rgb(255, 255, 255);"/>
  <path d="M 450.146 133.433 C 434.448 128.166 424.017 115.257 422.674 99.352 C 421.331 83.241 430.627 67.233 445.498 60.314 C 449.939 58.248 452.418 57.835 460.886 57.835 C 469.665 57.835 471.834 58.145 476.688 60.52 C 492.18 67.853 501.371 85.513 498.685 102.45 C 495.071 124.861 470.904 140.249 450.146 133.433 Z M 467.083 116.289 C 479.167 111.228 482.162 89.851 472.247 79.936 C 463.262 70.847 449.939 74.566 444.569 87.475 C 437.753 103.689 452.418 122.589 467.083 116.289 Z" style="fill: rgb(255, 255, 255);"/>
  <path d="M 507.051 96.564 L 507.051 57.835 L 547.432 57.835 C 586.678 57.835 588.02 57.938 591.324 60.004 C 593.287 61.139 595.972 64.135 597.418 66.511 L 600 70.951 L 600 103.07 L 600 135.292 L 591.738 135.292 L 583.475 135.292 L 583.475 105.961 C 583.475 83.55 583.166 76.322 582.236 75.702 C 581.514 75.289 576.866 74.876 571.909 74.876 L 562.82 74.876 L 562.82 105.135 L 562.82 135.292 L 553.525 135.292 L 544.128 135.292 L 544.437 104.826 L 544.747 74.359 L 534.936 74.359 L 525.125 74.359 L 525.434 104.826 L 525.744 135.292 L 516.346 135.292 L 507.051 135.292 L 507.051 96.564 Z" style="fill: rgb(255, 255, 255);"/>
  <path d="M 51.603 38.006 C 51.603 22.927 51.5 22.411 49.744 24.064 C 47.265 26.336 44.064 26.232 41.998 23.961 C 39.726 21.482 39.726 18.797 41.998 16.318 C 43.547 14.562 43.547 14.459 41.998 14.459 C 40.552 14.459 40.242 13.219 40.242 7.23 L 40.242 0 L 60.381 0 L 80.52 0 L 80.52 7.23 C 80.52 13.736 80.313 14.459 78.454 14.459 C 76.389 14.459 76.389 14.459 78.557 16.628 C 80.004 18.073 80.417 19.416 80.004 20.965 C 78.454 26.025 72.464 27.472 69.779 23.547 C 68.23 21.379 68.127 22.514 68.127 37.49 L 68.127 53.703 L 59.865 53.703 L 51.603 53.703 L 51.603 38.006 Z M 70.089 16.318 C 71.329 14.769 71.225 14.459 69.779 14.459 C 68.746 14.459 68.127 15.285 68.127 16.731 C 68.127 17.97 68.23 18.693 68.436 18.486 C 68.54 18.28 69.366 17.248 70.089 16.318 Z M 51.603 16.008 C 51.603 15.182 50.879 14.459 50.053 14.459 C 48.71 14.459 48.607 14.769 49.744 16.008 C 51.397 17.867 51.603 17.867 51.603 16.008 Z" style="fill: rgb(255, 255, 255);"/>
  <path d="M 83.618 26.852 L 83.618 0 L 91.881 0 L 100.142 0 L 99.936 26.646 L 99.626 53.187 L 91.674 53.497 L 83.618 53.808 L 83.618 26.852 Z" style="fill: rgb(255, 255, 255);"/>
  <path d="M 117.699 52.361 C 112.639 50.709 104.997 42.757 103.447 37.593 C 101.589 31.189 101.898 20.552 104.171 15.285 C 106.443 9.915 111.297 4.854 116.77 2.066 C 120.178 0.207 122.863 0 137.838 0 L 154.879 0 L 154.879 7.23 L 154.879 14.459 L 141.04 14.459 C 128.44 14.459 126.995 14.666 123.793 16.835 C 119.765 19.52 117.699 23.031 117.699 27.369 C 117.699 34.701 123.483 39.246 132.778 39.246 C 137.838 39.246 138.045 39.142 137.529 36.664 C 137.116 34.288 136.599 34.082 131.539 34.082 L 125.961 34.082 L 125.961 26.336 L 125.961 18.59 L 140.42 18.59 L 154.879 18.59 L 154.879 36.147 L 154.879 53.703 L 138.148 53.6 C 128.854 53.497 119.662 52.981 117.699 52.361 Z" style="fill: rgb(255, 255, 255);"/>
  <path d="M 163.038 51.536 C 160.972 50.296 158.596 48.024 157.667 46.475 C 154.466 41.207 155.911 31.706 160.456 27.988 C 161.902 26.852 161.799 26.336 159.836 23.65 C 158.287 21.689 157.461 18.693 157.151 14.459 C 156.738 8.365 156.738 8.159 160.869 4.132 L 165 0 L 181.628 0 L 198.255 0 L 198.255 7.23 L 198.255 14.459 L 187.411 14.459 C 178.322 14.459 176.361 14.769 175.844 16.111 C 174.811 18.797 177.6 19.623 188.237 19.623 L 198.255 19.623 L 198.255 27.369 L 198.255 35.114 L 186.792 35.114 C 176.464 35.114 175.431 35.321 175.74 36.973 C 176.05 38.522 178.013 38.728 197.532 39.039 L 218.911 39.246 L 218.911 46.475 L 218.911 53.703 L 192.885 53.703 C 168.305 53.703 166.55 53.497 163.038 51.536 Z" style="fill: rgb(255, 255, 255);"/>
  <path d="M 227.998 44.203 L 227.689 34.598 L 224.384 34.288 L 220.975 33.979 L 220.975 26.232 L 220.975 18.59 L 226.139 18.59 C 230.58 18.59 231.303 18.28 231.303 16.525 C 231.303 14.666 230.58 14.459 225.107 14.459 L 218.911 14.459 L 218.911 25.819 L 218.911 37.18 L 210.132 37.18 L 201.354 37.18 L 201.354 18.59 L 201.354 0 L 219.014 0 C 235.021 0 237.087 0.207 240.495 2.169 C 245.555 5.061 248.034 8.675 248.653 14.046 C 249.274 19.726 248.447 22.824 245.349 26.543 C 243.18 29.125 243.077 29.744 244.317 31.5 C 245.142 32.532 245.762 34.701 245.762 36.354 L 245.762 39.246 L 282.735 39.246 C 325.182 39.246 324.562 39.349 322.187 32.016 C 320.534 27.059 321.361 24.993 325.698 22.927 C 327.867 21.895 329.21 21.792 331.998 22.721 C 337.059 24.374 340.053 29.125 340.57 36.043 C 341.086 43.066 338.401 47.714 331.998 51.329 C 327.867 53.703 327.763 53.703 278.087 53.703 L 228.308 53.703 L 227.998 44.203 Z" style="fill: rgb(255, 255, 255);"/>
  <path d="M 343.978 51.018 C 342.739 49.47 341.809 47.404 341.809 46.269 C 341.809 43.79 346.354 39.246 348.831 39.246 C 352.24 39.246 356.267 43.169 356.267 46.578 C 356.267 53.291 348.005 56.182 343.978 51.018 Z" style="fill: rgb(255, 255, 255);"/>
</svg>