<?xml version="1.0" encoding="utf-8"?>
<svg id="svg2" version="1.1" enable-background="new 0 0 566.929 98.574" y="0px" x="0px" xmlns="http://www.w3.org/2000/svg">
  <g id="g4" fill="#fff" transform="translate(.0055519 -.00064086)">
    <polygon id="_43443024" points="542.31 0.917 566.93 0.917 532.22 54.913 526.59 97.041 504.34 97.041 510.86 48.973 488.61 0.917 512.64 0.917 524.51 28.215"/>
    <polygon id="_43441624" points="283.03 59.066 312.39 59.066 315.36 37.706 286.29 37.706 288.37 22.276 322.18 22.276 325.45 0.917 269.38 0.917 256.03 97.041 311.8 97.041 314.77 75.671 280.95 75.671"/>
    <path id="_43775888" d="m112.15 49.565 7.416-19.874 2.375 19.874h-9.79zm-8.01 18.987h20.172l3.563 28.48h36.488l16.91-52.213 8.309 52.213h19.283l21.359-55.179 3.561 55.179h21.359l-5.934-96.119h-25.514l-19.88 50.727-7.715-50.727h-22.842l-26.105 78.912-9.791-78.912h-28.48l-31.744 79.8 4.154-31.149h-38.571l-2.672 18.987h16.912l-1.188 6.526c-2.967 1.778-9.789 2.076-12.459 2.076s-22.545-1.779-21.656-23.14c0.882-21.358 29.362-41.234 63.181-30.258l3.266-20.47c-22.548-7.712-81.766-3.396-87.815 49.543-3.559 31.149 24.921 45.983 43.906 45.688 10.977 0.594 23.438-3.561 27.887-5.935l-1.482 4.451h22.547l10.977-28.48z"/>
    <path id="_44102912" d="m464.58 0.028c-15.428-0.594-37.678 8.306-45.094 44.204-7.416 35.894 12.459 50.431 30.852 52.804 18.396 2.373 44.205-9.196 48.951-43.609 4.75-34.414-12.17-52.508-34.71-53.399zm-2.37 20.47c6.229 0 19.578 4.154 16.314 29.071-3.262 24.92-18.688 27.887-24.326 27.293-5.637-0.594-17.207-4.448-13.943-27.293 3.27-22.841 15.43-29.368 21.96-29.071z"/>
    <path id="_44104296" d="m370.83 37.706h12.461c9.197 0 10.977-5.934 11.271-8.305 0.297-2.375-2.371-7.122-7.117-7.122h-14.537l-2.07 15.427zm-5.34 37.971h16.912c9.195 0 11.271-7.119 11.566-9.493 0.299-2.373-2.371-7.118-7.117-7.118h-18.986l-2.37 16.611zm-24.91 21.361 13.35-96.118h40.938c9.793 0 24.031 11.274 22.252 26.403-1.779 15.13-6.527 16.02-9.791 18.393 5.045 4.447 10.088 11.568 8.012 24.918-2.078 13.352-13.055 26.403-32.338 26.403l-42.42 0.001z"/>
  </g>
</svg>