<?xml version="1.0" encoding="utf-8"?>
<svg id="svgRoot" version="1.0" xmlns="http://www.w3.org/2000/svg">
  <g>
    <path d="M 0 2.331 L 0 47.487 L 9.672 47.487 L 9.672 124.944 L 0 124.944 L 0 169.827 L 45.867 169.827 L 45.867 125.325 L 40.569 125.325 L 40.569 93.411 L 57.363 93.411 L 57.363 125.391 L 52.128 125.391 L 52.128 169.827 L 100.446 169.827 L 100.446 124.884 L 89.64 124.884 L 89.64 47.487 L 99.318 47.487 L 99.318 2.331 L 52.152 2.331 L 52.152 47.487 L 57.399 47.487 L 57.399 75.339 L 40.626 75.339 L 40.626 47.487 L 45.858 47.487 L 45.858 2.262 L 0 2.331 Z" class="ps00 ps10" id="path61" style="fill-rule: nonzero; stroke: none; stroke-width: 1; stroke-linecap: butt; stroke-linejoin: miter; stroke-miterlimit: 10; stroke-dasharray: none; fill: rgb(255, 255, 255);"/>
    <path d="M 108.645 2.526 L 155.076 2.526 L 155.076 47.487 L 147.987 47.487 L 147.987 117.66 C 147.987 131.589 167.979 130.56 167.979 117.66 L 167.979 47.487 L 161.352 47.487 L 161.352 2.526 L 201.525 2.526 L 201.525 47.487 L 191.193 47.487 L 191.193 149.136 C 191.184 179.169 117.672 179.502 117.672 149.136 L 117.672 47.487 L 108.645 47.487 L 108.645 2.526" class="ps00 ps10" id="path63" style="fill-rule: nonzero; stroke: none; stroke-width: 1; stroke-linecap: butt; stroke-linejoin: miter; stroke-miterlimit: 10; stroke-dasharray: none; fill: rgb(255, 255, 255);"/>
    <path d="M 490.263 47.487 L 490.263 2.526 L 534.765 2.526 L 567.594 113.268 L 567.594 47.409 L 556.677 47.409 L 556.677 2.526 L 600 2.526 L 600 47.487 L 588.915 47.487 L 588.915 169.827 L 557.946 169.827 L 521.82 46.71 L 521.82 124.884 L 534.087 124.884 L 534.087 169.827 L 488.826 169.827 L 488.826 124.944 L 499.23 124.944 L 499.23 47.487 L 490.263 47.487 Z" class="ps00 ps10" id="path65" style="fill-rule: nonzero; stroke: none; stroke-width: 1; stroke-linecap: butt; stroke-linejoin: miter; stroke-miterlimit: 10; stroke-dasharray: none; fill: rgb(255, 255, 255);"/>
    <path d="M 316.176 72.252 C 313.332 68.124 311.082 62.295 311.082 53.421 L 311.082 25.293 C 311.082 0.141 337.377 -8.556 358.191 9.81 L 358.191 2.526 L 385.857 2.526 L 385.857 61.413 L 360.138 61.413 L 360.138 54.705 C 360.138 42.297 341.439 42.327 340.764 54.189 C 340.086 66.051 351.084 70.701 358.785 74.832 C 366.567 78.96 391.02 87.48 391.02 116.367 L 391.02 147.069 C 391.02 173.145 360.138 181.515 340.764 159.195 L 340.764 169.827 L 312.378 169.827 L 312.378 106.821 L 338.817 106.821 L 338.817 116.619 C 338.817 129.3 359.463 128.97 359.463 117.141 L 359.376 111.981 C 358.698 105.789 356.838 101.661 348.465 96.498 C 340.425 91.521 325.278 81.54 320.754 77.412 C 319.221 76.017 317.631 74.358 316.176 72.252" class="ps00" id="path73" style="fill-rule: nonzero; stroke: none; fill: rgb(255, 255, 255);"/>
    <path d="M 210.867 2.448 L 268.176 2.448 C 285.609 2.448 301.716 16.53 301.716 30.201 L 301.716 140.595 C 301.716 160.431 282.309 169.767 268.755 169.767 L 210.138 169.767 L 210.138 125.391 L 219.81 125.391 L 219.81 47.487 L 210.783 47.487 L 210.867 2.448 M 250.86 47.487 L 250.773 124.362 L 261.105 124.362 C 266.139 124.362 269.478 117.927 269.478 114.645 L 269.478 57.285 C 269.478 53.676 265.134 47.487 261.336 47.487 L 250.86 47.487" class="ps00 ps10" id="path75" style="fill-rule: nonzero; stroke: none; stroke-width: 1; stroke-linecap: butt; stroke-linejoin: miter; stroke-miterlimit: 10; stroke-dasharray: none; fill: rgb(255, 255, 255);"/>
    <path d="M 400.41 32.7 C 400.41 -10.899 479.604 -10.233 479.604 32.496 L 479.604 137.952 C 479.604 182.85 400.323 183.186 400.323 138.99 L 400.41 32.7 M 429.852 115.215 C 429.852 129.435 450.246 129.435 450.246 115.215 L 450.246 63.993 L 450.246 57.621 C 450.246 43.224 429.852 43.224 429.852 57.621 L 429.852 115.215" class="ps00" id="path93" style="fill-rule: nonzero; stroke: none; fill: rgb(255, 255, 255);"/>
  </g>
</svg>