<?xml version="1.0" encoding="utf-8"?>
<svg version="1.1" xmlns="http://www.w3.org/2000/svg">
  <g>
    <path d="M 446.823 0 C 446.151 0 445.767 0.573 445.767 1.284 L 445.626 15.132 C 445.626 15.804 446.199 16.155 446.91 16.155 L 453.27 16.101 C 453.984 16.101 454.554 15.72 454.554 15.045 L 454.554 12.48 C 454.554 11.805 453.984 11.439 453.27 11.439 L 449.163 11.457 C 448.455 11.457 447.864 11.106 447.864 10.434 L 447.864 1.284 C 447.864 0.573 447.498 0 446.823 0 L 446.823 0 Z M 477.936 0 C 477.849 0 477.768 0.018 477.693 0.036 C 477.168 0.156 476.877 0.66 476.877 1.284 L 476.721 15.132 C 476.721 15.552 476.952 15.834 477.294 15.996 C 477.36 16.029 477.444 16.062 477.519 16.083 C 477.597 16.107 477.678 16.125 477.762 16.137 C 477.846 16.146 477.933 16.155 478.023 16.155 L 484.365 16.101 C 485.076 16.101 485.646 15.72 485.646 15.045 L 485.646 12.48 C 485.646 11.805 485.076 11.439 484.365 11.439 L 480.255 11.457 C 479.547 11.457 478.974 11.106 478.974 10.434 L 478.956 1.284 C 478.956 0.573 478.608 0 477.936 0 L 477.936 0 Z M 378.45 0.018 C 377.739 0.018 377.151 0.417 377.151 1.092 L 377.22 3.171 L 377.151 14.802 C 377.151 15.513 377.517 16.083 378.189 16.083 C 378.273 16.083 378.339 16.083 378.414 16.068 C 378.939 15.948 379.248 15.423 379.248 14.802 L 379.248 5.652 C 379.248 4.977 379.821 4.593 380.529 4.593 L 381.414 4.593 C 382.125 4.593 382.695 4.977 382.695 5.652 L 383.562 10.521 C 383.562 11.232 383.91 11.805 384.585 11.805 L 386.856 11.805 C 386.94 11.805 387.024 11.802 387.099 11.787 C 387.621 11.682 387.915 11.229 388.242 10.59 C 388.242 10.59 390.855 4.347 390.963 4.11 C 391.197 3.597 391.848 3.681 391.848 4.179 L 391.848 13.482 L 391.881 14.853 C 391.881 15.564 392.229 16.155 392.904 16.155 L 395.52 16.17 C 395.607 16.17 395.676 16.17 395.748 16.155 C 395.817 16.137 395.88 16.113 395.937 16.083 C 396.279 15.906 396.438 15.477 396.771 14.889 L 398.73 10.608 C 399.048 9.987 399.474 9.561 400.011 9.549 L 403.254 9.549 C 403.965 9.549 404.535 9.933 404.535 10.608 L 404.709 15.165 C 404.7 15.627 404.943 15.885 405.315 16.032 C 405.441 16.083 405.582 16.125 405.732 16.155 C 406.332 16.266 407.1 16.221 407.727 16.239 C 408.324 16.257 409.251 15.861 409.251 15.201 L 409.284 1.059 C 409.284 0.384 408.714 0.018 408.003 0.018 L 401.139 0.018 C 400.431 0.018 400.059 0.378 399.858 1.059 C 399.858 1.059 395.343 12.462 395.229 12.723 C 395.214 12.753 395.193 12.78 395.163 12.81 C 395.097 12.864 394.989 12.906 394.884 12.93 C 394.626 12.99 394.314 12.93 394.314 12.6 C 394.314 12.075 394.293 1.44 394.293 1.44 C 394.293 0.729 393.999 0.069 393.324 0.069 L 390.897 0.069 C 390.222 0.069 389.976 0.522 389.493 1.353 C 389.493 1.353 386.631 8.412 386.46 8.736 C 386.418 8.817 386.346 8.892 386.268 8.943 C 386.196 8.997 386.124 9.036 386.043 9.048 C 385.881 9.072 385.722 8.997 385.677 8.772 C 385.593 8.316 384.276 1.095 384.276 1.095 C 384.276 0.42 383.703 0.018 382.995 0.018 L 378.45 0.018 L 378.45 0.018 Z M 503.739 0.018 C 503.028 0.018 502.44 0.384 502.44 1.059 L 502.371 15.06 C 502.371 15.312 502.458 15.519 502.596 15.687 C 502.737 15.852 502.92 15.978 503.151 16.05 C 503.226 16.071 503.307 16.089 503.394 16.101 C 503.475 16.113 503.562 16.119 503.652 16.119 L 505.836 16.137 L 505.836 16.155 L 511.173 16.155 C 511.263 16.155 511.353 16.146 511.434 16.137 C 511.518 16.125 511.599 16.107 511.677 16.083 C 512.139 15.954 512.457 15.636 512.457 15.132 C 512.457 14.457 511.884 14.055 511.173 14.055 L 505.836 14.055 L 505.836 14.091 C 505.152 14.073 504.606 13.674 504.606 13.017 L 504.693 5.634 C 504.693 4.959 505.263 4.611 505.974 4.611 L 511.245 4.611 C 511.956 4.611 512.544 4.26 512.544 3.588 L 512.544 1.125 C 512.544 0.453 511.953 0.069 511.245 0.069 L 503.739 0.018 L 503.739 0.018 Z M 526.635 0.018 C 526.545 0.018 526.458 0.024 526.377 0.036 C 525.789 0.111 525.339 0.468 525.339 1.059 C 525.336 1.41 525.342 1.749 525.339 2.097 C 525.312 6.078 525.228 10.077 525.285 14.055 C 525.288 14.301 525.246 14.562 525.231 14.82 C 525.225 14.949 525.231 15.078 525.252 15.201 C 525.27 15.324 525.309 15.438 525.372 15.546 C 525.54 15.831 525.783 16.014 526.047 16.119 C 526.314 16.227 526.617 16.251 526.914 16.242 C 527.382 16.23 527.826 16.278 528.249 16.257 C 528.39 16.251 528.534 16.23 528.666 16.206 C 529.188 16.113 529.623 15.855 529.914 15.168 L 530.088 10.608 C 530.088 9.936 530.658 9.552 531.369 9.552 L 534.834 9.552 C 535.545 9.552 536.118 9.933 536.118 10.608 L 536.172 14.889 C 536.172 15.6 536.517 16.173 537.192 16.173 C 537.276 16.173 537.36 16.173 537.435 16.155 C 537.96 16.035 538.266 15.51 538.266 14.889 L 538.266 11.145 L 538.266 9.015 C 538.266 8.004 537.381 7.677 536.724 7.35 C 536.526 7.251 536.349 7.152 536.22 7.038 C 536.094 6.924 536.028 6.792 536.028 6.621 C 536.028 5.73 536.013 1.059 536.013 1.059 C 536.013 0.384 535.437 0.018 534.729 0.018 L 526.635 0.018 L 526.635 0.018 Z M 542.01 0.018 C 541.92 0.018 541.833 0.024 541.749 0.036 C 541.164 0.111 540.711 0.468 540.711 1.059 L 540.642 15.063 C 540.642 15.399 540.792 15.66 541.023 15.84 C 541.083 15.888 541.143 15.927 541.215 15.963 C 541.419 16.068 541.659 16.119 541.926 16.119 L 550.851 16.119 C 551.562 16.119 552.135 15.735 552.135 15.063 L 552.066 1.059 C 552.066 0.384 551.493 0.018 550.782 0.018 L 542.01 0.018 L 542.01 0.018 Z M 555.891 0.018 C 555.804 0.018 555.714 0.024 555.633 0.036 C 555.465 0.06 555.318 0.105 555.18 0.174 C 554.838 0.345 554.61 0.672 554.61 1.092 L 554.676 3.171 L 554.61 14.802 C 554.61 15.423 554.886 15.948 555.408 16.068 C 555.48 16.083 555.549 16.083 555.633 16.083 C 555.717 16.083 555.801 16.083 555.876 16.068 C 556.401 15.948 556.707 15.423 556.707 14.802 L 556.707 5.652 C 556.707 4.977 557.28 4.593 557.988 4.593 L 562.686 4.593 C 563.397 4.593 563.97 4.977 563.97 5.652 L 564.021 14.766 C 564.021 15.477 564.369 16.05 565.044 16.05 C 565.128 16.05 565.209 16.05 565.287 16.032 C 565.809 15.912 566.118 15.39 566.118 14.766 L 566.097 4.629 L 566.118 1.092 C 566.118 0.417 565.527 0.018 564.816 0.018 L 555.891 0.018 L 555.891 0.018 Z M 577.938 0.018 C 577.404 0.018 576.936 0.222 576.741 0.609 C 576.675 0.735 576.654 0.891 576.654 1.059 L 576.567 15.063 C 576.567 15.315 576.654 15.519 576.795 15.687 C 577.026 15.963 577.407 16.119 577.851 16.119 L 585.372 16.155 C 586.08 16.155 586.653 15.807 586.653 15.132 C 586.653 14.46 586.08 14.058 585.372 14.058 L 580.101 14.094 C 579.393 14.094 578.802 13.692 578.802 13.017 L 578.889 5.634 C 578.889 4.962 579.459 4.611 580.17 4.611 L 585.441 4.611 C 586.152 4.611 586.74 4.263 586.74 3.588 L 586.74 1.128 C 586.74 0.453 586.152 0.069 585.441 0.069 L 577.938 0.018 L 577.938 0.018 Z M 571.629 0.036 C 571.209 0.036 570.906 0.249 570.747 0.591 C 570.681 0.726 570.63 0.891 570.606 1.059 C 570.594 1.143 570.588 1.23 570.588 1.317 L 570.657 10.557 C 570.657 11.061 570.393 11.394 569.964 11.529 C 569.892 11.55 569.817 11.568 569.739 11.58 C 569.658 11.592 569.568 11.58 569.478 11.58 L 568.992 11.58 C 568.284 11.58 567.591 11.928 567.591 12.603 L 567.591 15.063 C 567.591 15.399 567.762 15.66 568.023 15.843 C 568.089 15.888 568.155 15.93 568.23 15.963 C 568.455 16.068 568.728 16.119 568.992 16.119 L 573.222 16.119 C 573.933 16.119 574.506 15.735 574.506 15.063 L 574.506 12.603 C 574.506 12.495 574.5 12.408 574.485 12.324 C 574.392 11.739 573.984 11.667 573.585 11.595 C 573.411 11.565 573.246 11.532 573.099 11.457 C 572.853 11.334 572.682 11.103 572.682 10.557 L 572.682 1.317 C 572.685 0.609 572.304 0.036 571.629 0.036 Z M 412.404 0.069 C 411.693 0.069 411.102 0.453 411.102 1.128 L 411.102 3.588 C 411.102 4.263 411.693 4.611 412.404 4.611 L 414.015 4.611 C 414.723 4.611 415.296 4.962 415.296 5.634 L 415.23 14.871 C 415.23 15.582 415.596 16.155 416.268 16.155 C 416.352 16.155 416.418 16.155 416.493 16.137 C 417.018 16.017 417.324 15.495 417.324 14.871 L 417.324 5.634 C 417.324 5.043 417.759 4.707 418.347 4.629 C 418.431 4.617 418.518 4.611 418.608 4.611 L 423.045 4.611 C 423.753 4.611 424.326 4.962 424.326 5.634 L 424.326 14.871 C 424.326 15.582 424.71 16.155 425.382 16.155 C 425.469 16.155 425.553 16.155 425.625 16.137 C 426.144 16.017 426.405 15.495 426.405 14.871 L 426.336 5.634 C 426.336 5.043 426.792 4.707 427.374 4.629 C 427.458 4.617 427.545 4.611 427.635 4.611 L 429.246 4.611 C 429.957 4.611 430.527 4.263 430.527 3.588 L 430.527 1.128 C 430.527 0.453 429.957 0.069 429.246 0.069 L 412.404 0.069 L 412.404 0.069 Z M 514.815 0.069 C 514.638 0.069 514.467 0.093 514.314 0.138 C 514.236 0.162 514.155 0.189 514.089 0.225 C 513.747 0.396 513.516 0.705 513.516 1.125 L 513.516 3.588 C 513.516 4.26 514.107 4.611 514.815 4.611 L 516.429 4.611 C 517.137 4.611 517.71 4.959 517.71 5.634 L 517.641 14.871 C 517.641 15.225 517.728 15.558 517.902 15.789 C 517.944 15.849 518.004 15.9 518.055 15.945 C 518.163 16.038 518.289 16.101 518.436 16.134 C 518.511 16.152 518.595 16.152 518.679 16.152 C 518.763 16.152 518.829 16.152 518.904 16.134 C 519.429 16.014 519.735 15.492 519.735 14.871 L 519.735 5.631 C 519.735 5.043 520.173 4.704 520.758 4.626 C 520.842 4.617 520.929 4.608 521.019 4.608 L 522.63 4.608 C 523.338 4.608 523.911 4.26 523.911 3.588 L 523.911 1.125 C 523.911 0.45 523.338 0.069 522.63 0.069 L 514.815 0.069 L 514.815 0.069 Z M 597.816 0.069 L 590.208 0.123 C 590.121 0.123 590.034 0.126 589.95 0.138 C 589.362 0.222 588.927 0.591 588.927 1.179 L 589.014 8.25 C 589.014 8.922 589.587 9.288 590.295 9.288 L 594.021 9.357 C 594.732 9.357 595.305 9.759 595.305 10.431 L 595.218 13.014 C 595.218 13.182 595.179 13.335 595.113 13.464 C 594.984 13.722 594.744 13.896 594.438 13.983 C 594.36 14.007 594.279 14.007 594.195 14.019 C 594.111 14.031 594.024 14.037 593.934 14.037 L 588.63 14.055 C 588.54 14.055 588.456 14.061 588.372 14.07 C 587.784 14.148 587.349 14.505 587.349 15.093 C 587.349 15.432 587.481 15.693 587.712 15.873 C 587.946 16.056 588.276 16.152 588.63 16.152 L 598.629 16.152 C 598.986 16.152 599.301 16.065 599.532 15.891 C 599.766 15.72 599.913 15.468 599.913 15.129 L 600 8.178 C 600 7.506 599.409 7.158 598.701 7.158 L 592.53 7.158 C 591.819 7.158 591.249 6.807 591.249 6.132 L 591.162 3.204 C 591.162 2.532 591.75 2.148 592.461 2.148 L 597.819 2.166 C 598.53 2.166 599.1 1.779 599.1 1.107 C 599.1 0.435 598.527 0.069 597.816 0.069 L 597.816 0.069 Z M 435.333 0.192 C 434.625 0.192 434.052 0.54 434.052 1.215 L 434.052 6.087 C 434.052 6.795 433.704 7.368 433.029 7.368 L 431.64 7.404 C 430.932 7.404 430.356 7.752 430.356 8.427 L 430.272 15.063 C 430.272 15.57 430.608 15.909 431.07 16.05 C 431.145 16.074 431.211 16.089 431.295 16.101 C 431.379 16.113 431.466 16.119 431.553 16.119 L 441.972 16.155 C 442.68 16.155 443.253 15.804 443.253 15.132 C 443.253 14.46 442.68 14.058 441.972 14.058 L 433.809 14.094 C 433.095 14.094 432.525 13.692 432.525 13.017 L 432.591 10.539 C 432.591 9.867 433.164 9.516 433.875 9.516 L 441.969 9.534 C 442.056 9.534 442.146 9.528 442.227 9.516 C 442.311 9.504 442.377 9.486 442.452 9.465 C 442.917 9.333 443.25 9 443.25 8.493 C 443.25 7.905 442.815 7.539 442.227 7.455 C 442.146 7.443 442.056 7.437 441.969 7.437 L 440.166 7.419 C 440.076 7.419 439.989 7.413 439.905 7.401 C 439.572 7.356 439.296 7.227 439.11 7.002 C 438.969 6.837 438.882 6.615 438.882 6.363 L 438.951 3.33 C 438.951 2.655 439.542 2.289 440.253 2.289 L 441.969 2.289 C 442.68 2.289 443.25 1.923 443.25 1.251 C 443.25 0.576 442.68 0.192 441.969 0.192 L 435.333 0.192 L 435.333 0.192 Z M 466.428 0.192 C 465.984 0.192 465.6 0.321 465.369 0.591 C 465.324 0.642 465.279 0.717 465.249 0.78 C 465.183 0.906 465.144 1.044 465.144 1.212 L 465.144 6.084 C 465.144 6.792 464.796 7.365 464.124 7.365 L 462.735 7.401 C 462.024 7.401 461.451 7.749 461.451 8.424 L 461.364 15.06 C 461.364 15.312 461.451 15.519 461.589 15.684 C 461.73 15.852 461.931 15.978 462.162 16.047 C 462.24 16.071 462.321 16.089 462.405 16.101 C 462.486 16.11 462.573 16.119 462.663 16.119 L 473.061 16.152 C 473.772 16.152 474.345 15.804 474.345 15.129 C 474.345 14.457 473.772 14.055 473.061 14.055 L 464.898 14.091 C 464.187 14.091 463.617 13.689 463.617 13.017 L 463.683 10.536 C 463.683 9.864 464.274 9.516 464.985 9.516 L 473.061 9.531 C 473.151 9.531 473.238 9.525 473.322 9.516 C 473.406 9.504 473.487 9.483 473.565 9.462 C 474.024 9.333 474.342 8.997 474.342 8.493 C 474.342 7.902 473.907 7.536 473.319 7.452 C 473.235 7.44 473.148 7.434 473.058 7.434 L 471.258 7.416 C 471.168 7.416 471.081 7.413 470.997 7.401 C 470.664 7.353 470.385 7.224 470.199 7.002 C 470.061 6.834 469.974 6.612 469.974 6.36 L 470.061 3.327 C 470.061 2.655 470.634 2.286 471.342 2.286 L 473.058 2.286 C 473.769 2.286 474.342 1.92 474.342 1.248 C 474.342 0.573 473.769 0.192 473.058 0.192 L 466.428 0.192 L 466.428 0.192 Z M 492.234 0.192 C 491.787 0.192 491.388 0.321 491.157 0.591 C 491.112 0.642 491.07 0.717 491.037 0.78 C 490.971 0.906 490.932 1.044 490.932 1.212 L 490.95 6.084 C 490.95 6.792 490.584 7.365 489.912 7.365 L 488.541 7.401 C 487.83 7.401 487.26 7.749 487.26 8.424 L 487.173 15.06 C 487.173 15.312 487.26 15.519 487.398 15.684 C 487.539 15.852 487.722 15.978 487.953 16.047 C 488.028 16.071 488.112 16.089 488.193 16.101 C 488.277 16.11 488.364 16.119 488.454 16.119 L 498.852 16.152 C 499.563 16.152 500.151 15.804 500.151 15.129 C 500.151 14.457 499.56 14.055 498.852 14.055 L 490.707 14.091 C 489.996 14.091 489.405 13.689 489.405 13.017 L 489.492 10.536 C 489.492 9.864 490.065 9.516 490.776 9.516 L 498.852 9.531 C 498.942 9.531 499.026 9.525 499.113 9.516 C 499.194 9.504 499.278 9.483 499.353 9.462 C 499.818 9.333 500.151 8.997 500.151 8.493 C 500.151 7.902 499.695 7.536 499.113 7.452 C 499.029 7.44 498.942 7.434 498.852 7.434 L 497.067 7.416 C 496.98 7.416 496.89 7.413 496.806 7.401 C 496.473 7.353 496.176 7.224 495.99 7.002 C 495.852 6.834 495.786 6.612 495.786 6.36 L 495.852 3.327 C 495.852 2.655 496.425 2.286 497.136 2.286 L 498.852 2.286 C 499.56 2.286 500.151 1.92 500.151 1.248 C 500.151 0.573 499.56 0.192 498.852 0.192 L 492.234 0.192 L 492.234 0.192 Z M 402.855 2.322 L 405.714 2.322 C 406.422 2.322 406.998 2.673 406.998 3.345 L 407.085 6.36 C 407.085 7.035 406.509 7.419 405.801 7.419 L 401.553 7.419 C 400.095 7.398 400.287 6.378 400.377 6.033 L 401.571 3.345 C 401.916 2.757 402.144 2.322 402.855 2.322 L 402.855 2.322 Z M 528.906 2.322 L 532.443 2.322 C 533.154 2.322 533.727 2.673 533.727 3.345 L 533.814 6.36 C 533.814 7.035 533.22 7.419 532.512 7.419 L 528.837 7.419 C 528.126 7.419 527.556 7.035 527.556 6.36 L 527.625 3.345 C 527.625 2.673 528.198 2.322 528.906 2.322 Z M 544.056 2.322 L 548.715 2.322 C 549.426 2.322 549.999 2.673 549.999 3.345 L 550.068 10.746 C 550.068 11.421 549.495 11.805 548.784 11.805 L 543.984 11.805 C 543.273 11.805 542.703 11.421 542.703 10.746 L 542.772 3.345 C 542.772 2.673 543.345 2.322 544.056 2.322 L 544.056 2.322 Z" id="path5" style="fill-opacity: 1; fill: rgb(255, 255, 255);"/>
    <path d="M 353.442 6.165 C 353.442 6.165 337.041 69.168 336.603 70.596 C 336.03 72.459 334.257 73.068 333.327 70.92 C 332.184 68.628 319.764 26.073 319.764 26.073 L 297.135 26.073 C 297.135 26.073 314.031 81.498 314.796 83.139 C 322.815 100.32 340.485 93.456 344.115 80.859 C 347.85 67.89 363.819 6.165 363.819 6.165 L 353.442 6.165 L 353.442 6.165 Z M 119.802 10.872 L 84.693 33.264 C 84.69 28.932 84.693 26.19 84.693 26.19 L 73.524 26.19 L 73.524 57.093 C 73.524 57.864 72.072 59.277 70.776 57.384 C 70.776 57.384 55.905 36.057 50.514 29.61 C 46.041 24.252 30.432 24.528 30.375 37.212 C 30.333 45.261 30.402 92.406 30.402 92.406 L 41.571 92.406 L 41.571 53.439 C 41.571 51.279 43.482 52.038 44.67 53.376 C 45.219 54 69.141 90.423 70.218 91.881 C 72.66 95.169 84.72 97.602 84.72 85.155 C 84.72 76.236 84.696 49.827 84.69 35.574 L 95.595 35.574 C 96.738 35.574 98.196 36.858 98.196 36.861 C 98.187 37.941 98.019 71.931 98.019 76.416 C 98.019 86.499 106.377 93.312 115.416 93.312 L 135.558 93.312 L 135.558 83.517 L 126.291 83.517 C 122.97 83.517 120.357 81.078 120.357 77.76 L 120.357 39.549 C 120.357 37.494 122.007 34.581 125.298 34.581 C 128.589 34.581 135.615 34.491 135.615 34.491 L 135.615 26.073 L 121.758 26.073 C 120.471 26.073 119.799 25.059 119.799 24.114 L 119.802 10.872 L 119.802 10.872 Z M 0.177 11.25 C 0.177 11.25 0 88.827 0 93.456 L 21.663 93.429 L 21.663 11.253 L 0.177 11.25 L 0.177 11.25 Z M 506.772 25.284 C 496.359 25.284 487.014 29.625 480.519 36.54 C 480.138 36.948 479.769 37.371 479.409 37.797 C 474.345 43.734 471.282 51.333 471.282 59.634 C 471.282 64.377 472.29 68.916 474.087 73.023 C 474.312 73.536 474.54 74.043 474.786 74.544 C 479.025 83.055 486.768 89.622 496.215 92.466 C 496.773 92.634 497.346 92.763 497.913 92.904 C 500.748 93.612 503.709 93.984 506.772 93.984 C 526.377 93.984 542.292 78.609 542.292 59.634 C 542.292 40.659 526.38 25.284 506.772 25.284 L 506.772 25.284 Z M 412.026 25.779 C 399 25.779 388.902 35.097 388.902 48.348 C 388.902 61.998 403.959 66.339 411.909 67.176 C 416.91 67.701 421.731 71.16 421.731 76.062 C 421.731 80.007 418.323 83.196 414.654 83.196 L 391.413 83.106 L 391.413 92.901 L 417.141 92.901 C 417.546 92.901 417.936 92.892 418.338 92.871 C 430.8 92.259 440.703 82.245 440.703 69.894 C 440.703 67.857 440.589 66.051 440.325 64.428 C 440.256 64.023 440.169 63.642 440.091 63.258 C 437.862 52.929 429.765 50.931 417.141 47.589 C 417.141 47.589 410.445 45.507 410.445 41.481 C 410.445 38.961 411.903 37.233 413.895 36.306 C 414.096 36.213 414.3 36.12 414.51 36.042 C 415.551 35.658 416.694 35.487 417.843 35.487 L 433.599 35.544 L 433.599 25.779 L 412.026 25.779 L 412.026 25.779 Z M 270.417 25.869 C 270.417 25.869 270.24 32.757 270.24 37.386 L 291.903 37.326 L 291.903 25.866 L 270.417 25.866 L 270.417 25.869 Z M 362.415 25.869 C 362.415 25.869 362.268 32.757 362.268 37.386 L 383.901 37.326 L 383.901 25.866 L 362.415 25.866 L 362.415 25.869 Z M 445.263 25.869 C 445.263 25.869 445.119 32.757 445.119 37.386 L 466.749 37.326 L 466.749 25.866 L 445.263 25.866 L 445.263 25.869 Z M 154.65 25.926 C 148.437 25.926 143.916 29.145 141.699 34.434 C 141.498 34.917 141.336 35.412 141.174 35.928 C 140.52 37.983 140.181 40.305 140.181 42.828 L 140.181 75.834 C 140.181 85.917 145.614 93.108 154.65 93.108 L 187.101 93.108 L 187.101 83.343 L 167.775 83.343 C 164.457 83.343 161.874 80.532 161.901 77.205 L 161.901 64.284 L 184.089 64.284 L 184.089 54.519 L 161.871 54.459 L 161.814 41.478 C 161.814 38.157 164.457 35.721 167.775 35.721 L 187.101 35.721 L 187.101 25.926 L 154.65 25.926 L 154.65 25.926 Z M 191.661 26.043 C 191.661 26.043 191.484 71.784 191.484 76.413 C 191.484 78.303 191.775 80.067 192.273 81.705 C 192.438 82.251 192.612 82.797 192.828 83.313 C 195.192 88.971 200.43 92.646 206.511 93.225 C 207.063 93.276 207.642 93.312 208.206 93.312 L 228.348 93.312 L 228.348 83.517 L 219.462 83.517 C 216.141 83.517 213.528 81.078 213.528 77.76 L 213.528 26.043 L 191.661 26.043 L 191.661 26.043 Z M 230.016 26.043 C 230.016 26.043 229.869 71.784 229.869 76.413 C 229.869 85.869 236.604 92.439 244.893 93.225 C 245.445 93.276 245.997 93.312 246.561 93.312 L 266.703 93.312 L 266.703 83.517 L 257.463 83.517 C 254.145 83.517 251.499 81.078 251.499 77.76 L 251.499 26.043 L 230.016 26.043 L 230.016 26.043 Z M 588.804 26.19 L 588.804 57.093 C 588.804 57.864 587.355 59.277 586.056 57.384 C 586.056 57.384 571.215 36.057 565.827 29.61 C 561.351 24.252 545.718 24.528 545.652 37.212 C 545.616 45.261 545.682 92.406 545.682 92.406 L 556.851 92.406 L 556.851 53.439 C 556.851 51.279 558.759 52.038 559.95 53.376 C 560.502 54 584.451 90.423 585.528 91.881 C 585.987 92.496 586.761 93.081 587.751 93.546 C 588.084 93.699 588.435 93.861 588.804 93.984 C 593.217 95.469 600 94.491 600 85.155 C 600 72.708 599.97 26.19 599.97 26.19 L 588.804 26.19 L 588.804 26.19 Z M 506.772 33.294 C 515.376 33.294 518.817 45.087 518.817 59.634 C 518.817 74.178 514.773 85.956 506.772 85.974 C 504.588 85.98 502.758 85.26 501.219 83.928 C 501.027 83.76 500.847 83.586 500.664 83.4 C 500.115 82.848 499.608 82.212 499.143 81.501 C 498.99 81.264 498.819 81.021 498.675 80.769 C 495.906 75.966 494.76 68.268 494.76 59.634 C 494.76 58.725 494.772 57.831 494.787 56.943 C 494.94 48.978 495.831 42.057 498.558 37.794 C 498.711 37.557 498.864 37.344 499.026 37.122 C 500.82 34.704 503.31 33.294 506.772 33.294 L 506.772 33.294 Z M 270.417 41.598 C 270.417 41.598 270.24 88.827 270.24 93.456 L 291.903 93.429 L 291.903 41.598 L 270.417 41.598 L 270.417 41.598 Z M 362.415 41.598 C 362.415 41.598 362.268 88.827 362.268 93.456 L 383.901 93.429 L 383.901 41.598 L 362.415 41.598 L 362.415 41.598 Z M 445.263 41.598 C 445.263 41.598 445.119 88.827 445.119 93.456 L 466.749 93.429 L 466.749 41.598 L 445.263 41.598 L 445.263 41.598 Z" id="path7" style="fill-opacity: 1; fill: rgb(255, 255, 255);"/>
  </g>
</svg>