<?xml version="1.0" encoding="utf-8"?>
<svg version="1.0" xmlns="http://www.w3.org/2000/svg">
  <path d="M 365.088 0.013 C 355.328 0.132 345.666 1.15 336.735 5.461 C 326.91 10.5 323.478 22.291 323.329 32.596 C 307.1 22.132 288.509 13.64 268.809 14.207 C 251.555 15.784 234.367 17.911 217.121 19.584 C 208.075 20.099 199.166 24.492 193.5 31.592 C 189.061 37.115 188.682 44.427 187.119 51.056 C 179.854 47.67 172.383 43.907 164.179 43.815 C 157.173 43.24 149.775 45.027 144.572 49.944 C 137.327 56.028 135.702 66.354 136.722 75.287 C 138.446 93.679 147.074 110.363 151.561 128.086 C 157.557 150.134 164.5 171.947 169.878 194.147 C 152.358 175.376 135.292 156.164 117.831 137.334 C 116.808 135.926 114.921 134.47 115.573 132.495 C 118.746 118.062 122.243 103.691 125.466 89.266 C 128.661 76.284 131.484 62.745 129.194 49.371 C 128.529 44.066 126.707 38.635 122.635 34.961 C 113.527 25.86 99.536 23.732 87.292 26.036 C 78.97 28.336 71.982 35.204 69.549 43.492 C 67.239 52.745 66.978 62.5 63.778 71.523 C 60.598 64.939 58.358 57.843 54.279 51.737 C 48.428 45.018 39.682 40.764 30.765 40.446 C 22.723 40.466 14.559 43.346 8.505 48.69 C 1.166 55.946 -1.858 67.429 1.157 77.33 C 16.814 133.964 32.579 190.564 48.114 247.233 C 51.334 255.922 57.043 265.156 66.645 267.557 C 76.107 269.834 86.493 268.736 95.214 264.367 C 104.426 259.691 108.641 248.464 107.006 238.595 C 105.317 226.878 100.738 215.805 98.224 204.256 C 105.957 211.298 112.858 219.213 120.233 226.623 C 127.034 233.634 132.717 242.034 141.31 247.054 C 151.282 253.049 164.368 251.578 174.036 245.692 C 181.421 241.353 185.406 233.338 186.582 225.081 C 197.075 232.911 212.43 233.585 223.322 226.193 C 228.738 222.858 231.439 216.804 233.108 210.923 C 238.928 213.081 243.638 218.155 250.134 218.343 C 260.598 219.032 271.33 214.325 278.487 206.801 C 285.982 195.363 281.26 181.012 282.107 168.268 C 288.724 176.877 291.962 187.449 298.166 196.298 C 305.09 205.615 315.569 213.372 327.523 213.862 C 339.475 214.714 351.83 207.52 356.055 196.119 C 363.796 202.24 373.53 205.373 383.369 205.295 C 395.861 205.512 408.351 204.517 420.826 203.969 C 434.583 203.585 448.345 199.365 459.718 191.567 C 480.589 176.411 488.023 146.55 479.217 122.745 C 474.103 113.217 466.879 105.003 460.076 96.65 C 466.517 90.604 470.186 82.564 474.808 75.215 C 479.898 91.805 483.147 108.88 488.178 125.469 C 486.547 147.716 480.693 169.701 482.156 192.14 C 482.987 199.137 487.183 205.595 493.448 208.915 C 502.217 214.549 513.493 215.066 523.234 211.926 C 531.702 208.974 537.086 200.998 540.01 192.893 C 547.407 173.481 544.757 152.006 551.086 132.387 C 557.807 118.094 567.323 105.274 574.385 91.13 C 581.935 77.275 590.105 63.746 597.684 49.909 C 603.065 39.898 598.411 27.392 590.479 20.193 C 584.91 13.819 576.385 11.224 568.219 10.444 C 557.445 9.754 546.675 15.654 541.121 24.853 C 537.362 31.15 534.758 38.172 530.117 43.923 C 527.815 32.403 525.467 20.236 518.288 10.623 C 509.537 1.244 494.837 -0.48 482.945 2.773 C 473.373 5.24 468.71 14.722 464.055 22.523 C 457.665 17.083 451.231 11.477 443.408 8.185 C 426.002 0.353 406.443 0.983 387.777 0.264 C 380.333 0.377 372.68 -0.08 365.088 0.013 Z M 409.213 51.342 C 413.034 53.575 416.237 57.535 416.059 62.167 C 416.08 66.556 412.905 69.989 409.786 72.67 C 409.349 65.567 408.827 58.461 409.213 51.342 Z M 334.62 54.425 C 338.699 56.216 343.386 57.529 346.413 60.985 C 346.747 93.189 346.823 125.45 346.341 157.658 C 337.801 145.521 331.097 132.129 323.257 119.519 C 332.32 106.583 338.171 91.075 337.918 75.143 C 337.774 68.102 335.952 61.297 334.62 54.425 Z M 200.095 72.67 C 204.931 74.454 209.962 75.744 215.114 76.147 C 216.148 97.404 217.468 118.679 218.017 139.95 C 211.779 117.605 206.127 95.079 200.095 72.67 Z M 275.906 74.641 C 279.216 77.966 278.859 83.644 276.229 87.259 C 275.653 83.072 275.561 78.851 275.906 74.641 Z M 409.213 117.404 C 415.695 121.011 421.401 127.687 421.149 135.47 C 420.558 143.171 415.224 149.334 409.643 154.181 C 409.755 141.917 408.688 129.663 409.213 117.404 Z" id="blue" style="fill-rule: nonzero; stroke: none; fill: rgb(20, 20, 20);"/>
  <path d="M 158.909 49.99 C 166.81 47.323 176.116 50.065 181.279 56.607 C 185.711 62.259 188.371 69.068 190.382 75.902 C 199.884 111.58 210.269 147.016 220.185 182.581 C 222.78 191.438 225.753 201.237 221.985 210.217 C 218.146 220.422 205.714 224.452 195.709 222.525 C 186.51 221.022 179.074 213.349 176.632 204.528 C 165.516 164.478 154.739 124.334 143.556 84.301 C 141.641 78.329 140.979 71.921 142.047 65.722 C 144.223 57.932 150.77 51.296 158.909 49.99 Z M 87.83 31.992 C 97.195 29.828 107.88 31.473 115.19 38.065 C 117.754 40.8 119.387 44.485 119.28 48.273 C 119.373 54.371 119.548 60.542 118.386 66.561 C 113.166 88.905 109.739 111.63 104.677 134.004 C 126.398 157.871 148.773 181.169 170.384 205.129 C 178.899 215.713 174.523 232.516 163.29 239.27 C 154.574 244.241 142.799 242.505 135.586 235.648 C 131.485 231.614 128.021 226.981 123.851 223.012 C 109.721 209.095 96.535 194.264 82.589 180.174 C 86.708 193.727 89.808 207.569 94.078 221.081 C 96.616 229.235 99.357 237.901 97.443 246.488 C 89.931 257.703 73.029 262.548 61.12 255.63 C 54.794 251.863 52.041 244.632 50.517 237.795 C 36.797 186.779 23.293 135.708 9.618 84.681 C 7.398 75.705 4.812 65.511 9.585 56.894 C 13.578 50.128 21.237 44.93 29.331 45.63 C 36.752 45.147 42.968 50.385 47.106 56.012 C 51.069 62.447 52.429 70.019 54.748 77.118 C 57.637 86.117 59.494 95.395 61.781 104.55 C 62.125 104.603 62.811 104.706 63.154 104.758 C 66.453 85.7 70.246 66.718 73.725 47.688 C 74.979 40.315 81.122 34.656 87.83 31.992 Z M 274.723 18.688 C 274.167 18.699 273.597 18.728 273.039 18.76 C 257.28 20.383 241.491 21.213 225.724 22.631 C 217.503 22.467 209.448 24.892 202.102 28.438 C 196.232 31.158 192.053 37.297 191.887 43.779 C 191.66 50.458 191.261 57.982 196.08 63.314 C 201.45 70.413 210.914 72.329 219.344 71.559 C 218.804 79.488 220.795 87.296 220.562 95.216 C 220.33 107.595 222.456 119.862 222.139 132.244 C 223.793 152.874 223.762 173.628 225.796 194.219 C 229.214 213.291 259.079 217.649 268.881 201.46 C 273.753 192.655 271.373 182.258 271.354 172.712 C 271.525 160.131 269.206 147.714 269.024 135.147 C 274.265 141.714 277.904 149.343 281.964 156.654 C 287.722 167.475 294.283 177.829 300.209 188.556 C 303.779 194.742 308.049 201.014 314.583 204.363 C 325.865 212.07 342.841 204.29 346.234 191.531 C 348.833 181.387 345.183 170.711 339.387 162.353 C 332.628 153.036 327.305 142.799 321.25 133.032 C 318.108 127.736 314.54 122.673 312.217 116.938 C 327.124 104.437 327.498 83.172 326.913 65.286 C 325.505 56.885 322.784 48.585 318.705 41.091 C 308.643 27.215 291.968 18.329 274.723 18.688 Z M 264.938 62.454 C 271.93 62.891 279.105 67.148 280.889 74.283 C 283.48 80.227 280.94 87.24 276.659 91.703 C 273.802 94.906 269.49 95.871 265.691 97.474 C 264.475 85.841 265.616 74.118 264.938 62.454 Z M 357.059 5.461 C 346.712 5.589 335.242 9.153 330.319 18.939 C 326.736 28.389 329.088 39.704 334.907 47.794 C 338.58 53.215 345.068 55.348 351.288 56.074 C 351.751 58.587 352.284 61.106 352.363 63.673 C 352.264 103.638 352.805 143.635 352.793 183.573 C 354.687 192.907 365.303 196.031 373.619 196.298 C 394.843 196.747 416.534 198.506 437.315 193.144 C 462.022 185.457 476.411 157.402 471.977 132.566 C 470.3 116.628 459.827 102.752 445.953 95.145 C 455.055 85.547 463.519 74.303 465.56 60.877 C 468.475 40.542 456.196 19.66 437.602 11.304 C 425.651 5.441 412.056 7.16 399.212 6.716 C 385.902 5.137 372.506 5.888 359.138 5.497 C 358.461 5.476 357.748 5.453 357.059 5.461 Z M 400.717 44.388 C 405.645 44.417 410.78 45.158 414.733 48.296 C 423.135 55.523 421.39 71.217 411.077 75.824 C 407.304 78.087 402.762 77.188 398.603 77.473 C 398.577 66.459 398.565 55.437 398.638 44.424 C 399.331 44.404 400.013 44.384 400.717 44.388 Z M 398.818 110.414 C 409.927 111.457 420.435 118.855 423.801 129.699 C 427.346 144.323 414.321 160.964 398.782 158.697 C 398.038 149.988 398.884 141.284 398.746 132.566 C 398.634 125.185 398.431 117.791 398.818 110.414 Z M 473.975 15.191 C 482.294 2.738 503.108 1.716 512.022 14.025 C 516.167 18.767 516.514 25.236 517.416 31.162 C 518.805 42.654 521.471 53.958 522.536 65.494 C 524.133 64.08 525.551 62.447 526.545 60.542 C 532.654 49.431 538.731 38.298 544.972 27.263 C 548.895 21.749 554.032 15.653 561.257 15.062 C 570.88 14.007 580.556 18.02 587.009 25.15 C 590.836 29.945 589.636 36.623 589.19 42.284 C 586.851 48.762 582.795 54.406 579.39 60.339 C 565.984 83.667 552.026 106.672 538.665 130.024 C 536.239 133.868 536.159 138.479 535.594 142.844 C 533.996 157.507 532.052 172.134 530.508 186.801 C 528.819 198.552 517.079 207.563 505.279 206.048 C 496.196 205.286 487.92 198.374 485.977 189.414 C 484.343 181.444 486.456 173.426 487.319 165.509 C 488.491 155.011 489.953 144.55 491.311 134.076 C 491.635 128.423 492.45 122.586 490.755 117.067 C 483.833 90.525 477.266 63.885 470.368 37.343 C 469.48 29.89 468.837 21.366 473.975 15.191 Z" id="KIRBY" style="fill-opacity: 1; fill-rule: nonzero; stroke: none; fill: rgb(255, 255, 255);"/>
</svg>