<?xml version="1.0" encoding="utf-8"?>
<svg version="1.1" xmlns="http://www.w3.org/2000/svg">
  <g>
    <path fill-rule="evenodd" clip-rule="evenodd" d="M 0 78.873 C 14.724 80.538 29.445 82.206 37.005 79.932 C 44.562 77.658 44.958 71.442 45.354 65.226 C 46.797 60.723 48.924 56.211 52.167 51.693 C 53.256 50.136 54.516 48.702 55.92 47.424 C 57.324 46.143 58.872 45.021 60.525 44.082 C 62.178 43.143 63.942 42.384 65.76 41.829 L 65.76 41.829 L 72.729 40.491 L 79.758 39.51 L 79.758 39.51 C 82.74 39.096 85.776 38.175 88.71 36.645 C 90.108 35.916 91.443 35.076 92.961 33.861 C 94.482 32.643 96.183 31.056 97.695 29.31 C 99.21 27.558 100.533 25.647 101.652 23.625 C 102.768 21.597 103.674 19.458 104.352 17.25 C 106.122 12.348 107.778 7.428 109.323 2.493 C 96.522 -0.717 81.456 -0.738 73.548 1.914 C 65.64 4.566 64.884 9.888 64.158 13.515 C 63.429 17.139 62.733 19.065 61.938 20.955 C 61.146 22.842 60.258 24.696 59.325 26.337 C 58.395 27.981 57.42 29.421 56.298 30.738 C 55.179 32.052 53.91 33.249 52.536 34.299 C 51.093 35.277 49.647 36.255 48.156 36.978 C 45.192 38.439 42.039 39 38.949 39.882 C 34.581 40.695 30.123 41.235 25.743 42.516 C 23.574 43.143 21.48 44.031 19.521 45.153 C 17.565 46.272 15.747 47.634 14.115 49.188 C 12.486 50.742 11.049 52.494 9.84 54.39 C 9.132 55.488 8.424 56.586 7.542 58.326 C 6.657 60.066 5.598 62.448 4.545 64.83 C 2.787 69.474 1.275 74.157 0 78.873 L 0 78.873 Z" style="fill: rgb(255, 255, 255);"/>
    <path fill-rule="evenodd" clip-rule="evenodd" d="M 27.546 116.922 C 42.267 118.587 56.991 120.255 64.551 117.981 C 72.108 115.707 72.504 109.494 72.9 103.275 C 74.343 98.772 76.473 94.257 79.716 89.739 C 80.802 88.185 82.062 86.751 83.469 85.473 C 84.87 84.195 86.421 83.073 88.074 82.131 C 89.73 81.189 91.488 80.433 93.309 79.878 L 93.309 79.878 L 100.278 78.54 L 107.307 77.556 L 107.307 77.556 C 110.286 77.148 113.325 76.224 116.259 74.697 C 117.654 73.968 118.989 73.128 120.507 71.91 C 122.025 70.695 123.729 69.105 125.244 67.356 C 126.756 65.607 128.082 63.693 129.198 61.671 C 130.314 59.646 131.22 57.507 131.901 55.299 C 133.668 50.397 135.324 45.477 136.869 40.542 C 124.068 37.332 109.005 37.311 101.094 39.966 C 93.183 42.615 92.427 47.94 91.701 51.564 C 90.975 55.188 90.276 57.114 89.484 59.001 C 88.692 60.891 87.804 62.742 86.871 64.386 C 85.941 66.03 84.963 67.464 83.844 68.784 C 82.725 70.098 81.456 71.295 80.082 72.348 C 78.639 73.326 77.193 74.301 75.702 75.024 C 72.738 76.488 69.585 77.046 66.495 77.928 C 62.124 78.744 57.669 79.284 53.286 80.562 C 51.117 81.192 49.023 82.077 47.067 83.199 C 45.111 84.321 43.29 85.68 41.661 87.237 C 37.986 90.693 35.571 95.196 33.612 99.279 C 31.02 105.114 29.166 110.991 27.546 116.922 L 27.546 116.922 Z" style="fill: rgb(255, 255, 255);"/>
    <polygon fill-rule="evenodd" clip-rule="evenodd" points="151.41 98.544 171.651 98.553 187.338 58.197 197.73 98.544 221.469 98.544 211.302 58.089 247.641 23.451 223.356 23.451 188.883 54.672 200.001 23.457 179.46 23.451 151.41 98.544" style="fill: rgb(255, 255, 255);"/>
    <path fill-rule="evenodd" clip-rule="evenodd" d="M 304.179 36.174 C 303.471 34.17 302.421 32.28 301.11 30.591 C 299.796 28.905 298.218 27.42 296.445 26.22 C 294.675 25.02 292.71 24.108 290.463 23.385 C 285.888 21.936 280.494 21.27 275.421 21.375 C 272.844 21.429 270.276 21.678 267.237 22.26 C 264.198 22.839 260.691 23.754 257.4 25.176 C 254.112 26.598 251.031 28.53 248.325 30.873 C 245.619 33.21 243.279 35.961 241.557 38.355 C 239.835 40.746 238.725 42.777 237.663 44.829 C 236.604 46.881 235.587 48.948 234.657 51.057 C 232.866 55.224 231.207 59.262 229.911 63.174 C 229.296 65.115 228.816 67.098 228.468 69.105 C 228.12 71.109 227.907 73.137 227.805 74.661 C 227.7 76.182 227.703 77.196 227.76 78.21 C 227.811 79.221 227.91 80.232 228.042 81.237 C 228.171 82.251 228.333 83.259 228.9 84.879 C 229.467 86.502 230.436 88.728 231.798 90.708 C 233.16 92.685 234.912 94.404 236.91 95.76 C 238.911 97.116 241.155 98.106 243.711 98.826 C 248.889 100.263 254.976 100.689 260.679 100.35 C 263.568 100.173 266.442 99.786 269.589 98.985 C 272.736 98.181 276.15 96.954 279.294 95.229 C 282.441 93.504 285.315 91.278 287.766 88.674 C 290.217 86.073 292.248 83.088 294.027 79.815 C 295.806 76.542 297.336 72.984 298.794 69.402 C 300.246 65.817 301.629 62.211 302.589 59.532 C 303.549 56.853 304.089 55.104 304.497 53.322 C 304.908 51.54 305.19 49.731 305.355 47.907 C 305.691 44.31 305.58 40.227 304.179 36.174 L 304.179 36.174 L 304.179 36.174 L 304.179 36.174 Z M 284.364 47.331 C 283.266 51.417 282.168 55.506 280.836 59.52 C 279.507 63.534 277.947 67.47 276.387 71.406 C 275.247 74.106 273.681 76.857 271.662 79.389 C 270.321 81.069 268.932 82.236 267.402 83.103 C 265.647 84.099 263.814 84.642 262.023 84.867 C 259.296 85.206 256.503 84.801 254.307 83.799 C 253.107 83.244 251.88 82.407 250.89 81.336 C 249.387 79.674 248.907 77.94 248.811 76.281 C 248.721 74.397 248.943 72.519 249.417 70.698 C 251.658 61.857 254.979 53.064 259.614 44.4 C 260.244 43.146 261.057 41.976 262.017 40.947 C 262.977 39.918 264.09 39.024 265.302 38.313 C 267.795 36.888 270.306 36.255 272.427 36.102 C 275.607 35.94 278.985 36.216 281.7 38.508 C 282.519 39.216 283.2 40.08 283.701 41.04 C 284.202 41.997 284.52 43.05 284.631 44.124 C 284.745 45.198 284.652 46.287 284.364 47.331 L 284.364 47.331 L 284.364 47.331 L 284.364 47.331 Z" style="fill: rgb(255, 255, 255);"/>
    <polygon fill-rule="evenodd" clip-rule="evenodd" points="315.255 98.553 335.253 42.459 337.074 98.553 366.246 98.553 394.275 23.451 375.189 23.451 355.395 78.063 353.835 23.451 323.589 23.451 296.094 98.553 315.255 98.553" style="fill: rgb(255, 255, 255);"/>
    <path fill-rule="evenodd" clip-rule="evenodd" d="M 425.745 83.631 L 425.322 98.562 L 444.969 98.562 L 446.307 23.445 L 419.886 23.445 L 370.56 98.556 L 390.954 98.556 L 401.142 83.676 L 425.745 83.631 L 425.745 83.631 Z M 427.662 41.187 L 426.648 68.508 L 411.129 68.547 L 427.662 41.187 L 427.662 41.187 Z" style="fill: rgb(255, 255, 255);"/>
    <polygon fill-rule="evenodd" clip-rule="evenodd" points="510.126 23.466 476.559 23.466 448.506 98.55 467.631 98.55 488.4 42.855 484.08 98.562 504.312 98.562 539.952 43.641 519.177 98.556 538.893 98.556 567.081 23.472 533.13 23.472 503.535 71.934 510.126 23.466" style="fill: rgb(255, 255, 255);"/>
    <polygon fill-rule="evenodd" clip-rule="evenodd" points="580.272 23.466 552.135 98.559 571.59 98.559 600 23.466 580.272 23.466" style="fill: rgb(255, 255, 255);"/>
  </g>
</svg>