<?xml version="1.0" encoding="utf-8"?>
<svg version="1.0" xmlns="http://www.w3.org/2000/svg">
  <g>
    <path d="M 24.027 165.009 C 7.878 146.517 -0.003 121.62 0 94.779 L 0 94.779 C 0.006 76.86 3.489 57.951 10.512 38.976 L 10.512 38.976 C 13.266 31.527 21.543 27.723 28.989 30.48 L 28.989 30.48 C 36.435 33.234 40.242 41.508 37.482 48.957 L 37.482 48.957 C 31.545 64.998 28.758 80.61 28.764 94.779 L 28.764 94.779 C 28.767 116.115 35.004 133.908 45.669 146.073 L 45.669 146.073 C 56.406 158.178 71.487 165.663 93.378 165.789 L 93.378 165.789 C 100.512 165.789 108.342 164.94 116.874 163.05 L 116.874 163.05 C 124.629 161.34 132.306 166.239 134.016 173.994 L 134.016 173.994 C 135.726 181.752 130.833 189.426 123.078 191.136 L 123.078 191.136 C 112.71 193.425 102.804 194.55 93.381 194.55 L 93.381 194.55 C 93.219 194.55 93.063 194.556 92.904 194.556 L 92.904 194.556 C 64.251 194.55 40.011 183.456 24.027 165.009 L 24.027 165.009 Z" id="path3350" style="fill-opacity: 1; fill: rgb(255, 255, 255);"/>
    <path d="M 123.552 114.24 C 123.564 69.192 160.065 32.685 205.122 32.679 L 205.122 32.679 C 250.167 32.685 286.674 69.192 286.686 114.24 L 286.686 114.24 L 286.683 114.24 C 286.674 159.3 250.167 195.798 205.122 195.81 L 205.122 195.81 C 160.065 195.798 123.564 159.297 123.552 114.24 L 123.552 114.24 Z M 152.316 114.24 C 152.367 143.403 175.959 166.992 205.122 167.049 L 205.122 167.049 C 234.273 166.995 257.871 143.403 257.922 114.24 L 257.922 114.24 L 257.919 114.24 C 257.871 85.089 234.273 61.497 205.122 61.44 L 205.122 61.44 C 175.965 61.497 152.367 85.089 152.316 114.24 L 152.316 114.24 Z" id="path3352" style="fill-opacity: 1; fill: rgb(255, 255, 255);"/>
    <path d="M 350.358 188.766 C 345.45 185.991 341.262 182.367 337.374 178.197 L 337.374 178.197 C 329.652 169.83 322.947 159.141 316.11 146.415 L 316.11 146.415 C 302.544 121.014 288.786 87.324 272.73 50.298 L 272.73 50.298 L 272.73 50.304 C 269.571 43.017 272.919 34.548 280.206 31.386 L 280.206 31.386 C 287.496 28.227 295.962 31.575 299.124 38.862 L 299.124 38.862 C 309.729 63.345 319.278 86.148 328.134 105.525 L 328.134 105.525 C 336.96 124.887 345.213 140.877 352.551 151.224 L 352.551 151.224 C 357.384 158.16 361.881 162.333 364.452 163.689 L 364.452 163.689 C 365.739 164.397 366.399 164.529 366.849 164.559 L 366.849 164.559 C 366.882 164.547 366.921 164.532 366.975 164.511 L 366.975 164.511 C 367.335 164.376 368.094 164.007 369.105 163.284 L 369.105 163.284 C 371.148 161.862 374.097 159.054 377.268 155.16 L 377.268 155.16 C 383.685 147.36 391.035 135.417 398.181 121.959 L 398.181 121.959 C 412.557 94.953 426.396 61.965 436.278 39.93 L 436.278 39.93 C 439.533 32.685 448.041 29.451 455.289 32.703 L 455.289 32.703 C 462.534 35.955 465.774 44.463 462.519 51.711 L 462.519 51.711 C 456.189 65.796 447.936 85.161 438.735 104.85 L 438.735 104.85 C 429.51 124.563 419.406 144.582 408.822 160.626 L 408.822 160.626 C 401.673 171.336 394.602 180.354 385.74 186.747 L 385.74 186.747 C 380.676 190.32 374.514 193.287 367.041 193.332 L 367.041 193.332 C 367.017 193.332 366.993 193.332 366.975 193.332 L 366.975 193.332 C 360.942 193.335 355.206 191.514 350.358 188.766 L 350.358 188.766 Z" id="path3354" style="fill-opacity: 1; fill: rgb(255, 255, 255);"/>
    <path d="M 470.097 168.258 C 456.339 152.481 451.119 132.402 451.113 113.316 L 451.113 113.316 C 451.149 90.54 461.448 70.929 474.972 56.955 L 474.972 56.955 C 488.655 43.008 505.497 33.768 522.933 32.7 L 522.933 32.7 C 524.175 32.631 525.405 32.604 526.614 32.601 L 526.614 32.601 C 537.996 32.631 550.155 35.049 561.642 39.789 L 561.642 39.789 C 573.066 44.577 584.007 51.687 591.654 62.505 L 591.654 62.505 C 596.721 69.672 600.036 78.738 600 88.548 L 600 88.548 C 600.018 97.017 598.617 104.991 595.206 112.119 L 595.206 112.119 C 591.828 119.262 586.512 125.085 580.476 129.516 L 580.476 129.516 C 568.278 138.36 553.515 143.205 534.573 149.826 L 534.573 149.826 L 534.579 149.826 C 527.064 152.409 518.88 148.419 516.291 140.913 L 516.291 140.913 C 513.708 133.404 517.701 125.208 525.213 122.628 L 525.213 122.628 C 539.319 117.789 550.257 113.85 557.427 110.046 L 557.427 110.046 C 564.732 106.137 567.57 103.158 569.247 99.729 L 569.247 99.729 C 570.381 97.338 571.227 94.008 571.236 88.548 L 571.236 88.548 C 571.2 84.96 570.228 82.134 568.086 78.999 L 568.086 78.999 C 565.944 75.912 562.446 72.747 557.937 70.038 L 557.937 70.038 C 548.994 64.536 536.127 61.287 526.614 61.368 L 526.614 61.368 C 525.846 61.368 525.117 61.389 524.418 61.425 L 524.418 61.425 C 517.137 61.587 504.87 67.206 495.645 76.953 L 495.645 76.953 C 486.264 86.655 479.841 99.552 479.88 113.316 L 479.88 113.316 C 479.871 127.299 483.783 140.295 491.739 149.313 L 491.739 149.313 C 499.734 158.268 511.968 164.928 534.072 165.069 L 534.072 165.069 C 538.677 165.069 543.69 164.751 549.135 164.064 L 549.135 164.064 C 557.016 163.065 564.213 168.639 565.215 176.517 L 565.215 176.517 C 566.214 184.395 560.637 191.595 552.762 192.594 L 552.762 192.594 C 546.216 193.422 539.997 193.833 534.072 193.833 L 534.072 193.833 C 533.862 193.833 533.655 193.833 533.445 193.833 L 533.445 193.833 C 505.536 193.842 483.708 183.996 470.097 168.258 L 470.097 168.258 Z" id="path3356" style="fill-opacity: 1; fill: rgb(255, 255, 255);"/>
    <circle cx="93.587" cy="146.41" r="6.411" id="circle3358" style="fill-opacity: 1; fill: rgb(255, 255, 255);" transform="matrix(2.559629, 0, 0, 2.559626, -53.006214, -358.345123)"/>
    <circle cx="109.312" cy="146.41" r="6.411" id="circle3360" style="fill-opacity: 1; fill: rgb(255, 255, 255);" transform="matrix(2.559623, 0, 0, 2.559626, -53.005581, -358.345123)"/>
  </g>
</svg>