<?xml version="1.0" encoding="utf-8"?>
<svg version="1.1" xmlns="http://www.w3.org/2000/svg">
  <g>
    <path d="M 188.001 109.716 C 188.001 108.065 189.513 107.651 193.09 107.24 C 197.492 106.826 197.766 104.902 197.766 98.573 C 197.766 83.719 196.805 56.483 196.253 41.766 C 196.118 39.702 196.118 39.015 195.566 39.015 C 195.017 39.015 194.879 39.84 194.326 41.079 C 191.713 47.957 187.451 61.434 176.858 95.272 C 173.008 108.065 173.419 110.679 170.805 110.679 C 169.155 110.679 168.744 109.578 167.366 103.801 C 162.829 86.744 152.236 51.943 148.797 41.214 C 148.383 39.978 148.11 39.291 147.419 39.291 C 146.873 39.291 146.873 40.389 146.597 42.316 C 145.634 55.244 144.812 77.39 144.812 89.358 C 144.812 98.435 144.671 106.55 149.349 107.24 C 151.825 107.651 155.402 107.789 155.402 109.716 C 155.402 110.814 154.58 111.642 152.65 111.642 C 149.898 111.642 147.702 111.09 142.471 111.09 C 137.658 111.09 134.909 111.642 132.982 111.642 C 131.605 111.642 130.783 111.366 130.783 109.716 C 130.783 107.651 132.844 107.927 135.182 107.378 C 139.173 106.55 139.722 103.387 140.133 96.647 C 140.959 81.93 142.471 49.743 142.471 38.324 C 142.609 30.897 142.471 29.523 137.796 28.836 C 135.458 28.56 133.258 28.286 133.258 26.633 C 133.258 24.706 135.044 24.571 136.97 24.571 C 139.86 24.571 143.71 24.982 146.738 24.982 C 149.076 24.982 152.65 24.571 154.853 24.571 C 156.365 24.571 156.917 24.982 157.605 27.047 C 162.697 43.828 167.787 60.606 172.738 77.252 C 173.836 81.243 174.662 84.406 175.625 84.406 C 176.45 84.406 177.137 82.48 178.374 78.488 C 183.604 61.71 188.829 44.929 194.056 28.283 C 194.879 25.67 195.707 24.568 197.219 24.568 C 199.281 24.568 202.72 24.979 205.334 24.979 C 208.086 24.979 212.071 24.568 214.964 24.568 C 216.479 24.568 217.851 25.118 217.851 26.495 C 217.851 28.283 216.065 28.698 212.074 28.971 C 209.598 29.244 208.911 31.032 208.911 37.223 C 208.911 50.841 210.564 83.026 210.975 99.945 C 210.975 105.034 212.212 106.961 214.964 107.237 C 218.403 108.062 219.915 108.338 219.915 109.851 C 219.915 111.363 218.679 111.639 216.755 111.639 C 213.868 111.639 210.564 111.087 204.238 111.087 C 198.735 111.087 194.197 111.639 191.17 111.639 C 189.381 111.639 188.007 111.087 188.007 109.851 L 188.007 109.716 L 188.001 109.716 Z" id="path7" style="fill-opacity: 1; fill: rgb(255, 255, 255);"/>
    <path d="M 253.612 60.336 C 253.612 53.872 252.097 51.255 247.835 51.255 C 241.231 51.255 238.206 56.21 236.003 62.95 C 235.04 65.837 233.389 68.174 231.328 69.552 C 229.812 70.65 227.889 71.475 225.827 71.475 C 223.213 71.475 222.25 70.374 222.25 67.898 C 222.25 59.922 234.079 47.405 251.136 47.405 C 256.226 47.405 260.214 48.092 262.549 50.157 C 264.89 51.946 265.442 54.559 265.442 58.824 L 265.442 98.162 C 265.442 101.601 266.54 104.077 269.292 104.077 C 271.495 104.077 272.731 102.841 273.418 101.601 C 273.97 100.362 274.516 98.988 275.342 98.988 C 276.167 98.988 276.443 99.675 276.443 101.325 C 276.443 104.35 271.768 112.465 263.785 112.465 C 258.009 112.465 256.358 107.789 255.257 105.037 C 254.843 103.936 254.434 103.111 253.747 103.111 C 252.643 103.111 250.443 105.728 247.004 108.203 C 243.841 110.679 239.577 112.879 234.076 112.879 C 227.609 112.879 222.52 108.479 222.52 100.5 C 222.52 93.211 227.609 88.256 238.752 81.381 C 243.154 78.491 246.452 76.568 248.931 74.917 C 252.643 72.718 253.606 71.475 253.606 68.315 L 253.606 60.336 L 253.612 60.336 Z M 234.902 98.021 C 234.902 103.114 237.791 105.728 241.78 105.728 C 244.808 105.728 247.694 103.939 250.311 101.322 C 252.787 98.85 253.612 96.923 253.612 93.484 L 253.612 79.455 C 253.612 77.801 253.336 77.39 252.649 77.39 C 251.965 77.39 251.275 77.666 249.486 78.768 C 246.596 80.691 243.844 82.891 241.507 85.231 C 237.656 88.809 234.905 92.932 234.905 97.886 L 234.902 98.021 L 234.902 98.021 Z" id="path9" style="fill-opacity: 1; fill: rgb(255, 255, 255);"/>
    <path d="M 274.931 82.207 C 274.931 62.125 287.996 47.405 304.639 47.405 C 308.355 47.405 313.306 48.092 316.469 50.019 C 319.359 51.669 319.635 52.219 319.773 55.523 L 319.773 60.474 C 319.773 61.71 319.635 63.775 319.359 65.011 C 319.08 67.49 318.12 68.315 316.334 68.315 C 313.855 68.315 313.168 64.738 310.554 58.962 C 308.631 54.421 306.839 52.084 302.854 52.084 C 294.878 52.084 287.858 62.536 287.858 77.252 C 287.858 96.788 295.289 105.452 304.501 105.452 C 309.459 105.452 313.168 103.39 315.92 99.399 C 317.57 96.923 318.672 93.487 319.773 93.487 C 320.595 93.487 321.147 94.309 321.147 95.411 C 321.147 101.877 314.272 112.882 300.378 112.882 C 285.11 112.882 274.931 100.365 274.931 82.345 L 274.931 82.207 L 274.931 82.207 Z" id="path11" style="fill-opacity: 1; fill: rgb(255, 255, 255);"/>
    <path d="M 330.639 64.324 C 330.639 59.922 329.676 58.821 325.409 58.133 C 323.761 57.857 323.074 57.446 323.074 56.483 C 323.074 55.244 324.31 54.694 327.476 53.734 C 331.876 52.492 335.729 50.43 338.616 48.78 C 339.99 47.954 340.815 47.402 341.367 47.402 C 342.19 47.402 342.466 47.954 342.466 49.467 L 342.466 55.931 L 342.466 100.224 C 342.466 104.902 342.421 107.252 344.197 107.789 C 346.628 108.524 347.639 108.614 347.639 109.992 C 347.639 111.228 347.087 111.642 345.437 111.642 C 342.55 111.642 342.604 111.09 336.554 111.09 C 329.952 111.09 330.144 111.642 327.533 111.642 C 326.429 111.642 325.466 111.09 325.466 109.992 C 325.466 108.614 326.429 108.197 328.221 107.789 C 330.408 107.288 330.639 106.136 330.639 100.635 L 330.639 64.324 L 330.639 64.324 Z M 336.554 38.742 C 332.974 38.742 329.676 35.849 329.676 30.624 C 329.676 25.535 332.701 22.372 336.692 22.372 C 340.542 22.372 343.567 25.397 343.567 30.486 C 343.567 35.849 340.542 38.742 336.692 38.742 L 336.554 38.742 Z" id="path13" style="fill-opacity: 1; fill: rgb(255, 255, 255);"/>
    <path d="M 358.698 64.324 C 358.698 59.649 358.145 59.097 354.709 58.686 C 352.234 58.409 351.405 58.271 351.405 57.17 C 351.405 55.796 352.783 55.52 355.67 54.556 C 360.621 52.768 364.474 50.568 366.536 48.918 C 367.775 47.954 368.463 47.405 369.153 47.405 C 369.975 47.405 370.254 48.504 370.254 49.743 L 370.254 55.244 C 370.254 57.17 370.389 57.584 370.803 57.584 C 372.043 57.584 374.242 55.244 377.267 52.906 C 380.433 50.568 384.694 48.092 389.784 48.092 C 394.459 48.092 398.862 49.605 402.022 52.906 C 404.914 55.934 406.565 60.336 406.565 66.11 L 406.565 101.187 C 406.565 106.001 407.786 107.516 410.952 107.924 C 410.952 107.924 412.987 108.614 412.987 109.992 C 412.987 111.228 412.024 111.642 410.511 111.642 C 408.858 111.642 406.979 111.09 400.512 111.09 C 394.324 111.09 393.661 111.642 391.464 111.642 C 389.946 111.642 389.265 111.228 389.265 109.854 C 389.265 108.891 390.243 108.419 391.602 108.065 C 392.872 107.732 394.735 106.28 394.735 102.427 L 394.735 67.487 C 394.735 64.186 394.051 61.296 392.398 59.097 C 390.474 56.621 387.584 55.244 384.145 55.244 C 380.565 55.244 377.132 56.621 374.515 58.959 C 372.043 61.296 370.662 64.048 370.662 67.349 L 370.662 102.427 C 370.662 106.001 371.331 107.483 374.653 108.065 C 375.236 108.164 375.869 108.461 375.869 109.698 C 375.869 111.075 374.905 111.486 373.804 111.486 C 372.154 111.486 372.592 111.09 364.477 111.09 C 357.461 111.09 357.35 111.639 355.151 111.639 C 353.5 111.639 352.534 111.09 352.534 109.851 C 352.534 108.614 353.641 107.963 355.013 107.789 C 357.989 107.411 358.698 105.587 358.698 100.086 L 358.698 64.324 L 358.698 64.324 Z" id="path15" style="fill-opacity: 1; fill: rgb(255, 255, 255);"/>
    <path d="M 431.568 97.751 C 431.568 103.111 433.084 105.452 436.385 105.452 C 438.999 105.452 440.649 103.663 441.75 102.012 C 442.987 100.359 443.812 98.709 444.913 98.709 C 445.736 98.709 446.288 99.123 446.288 100.086 C 446.288 102.151 442.573 112.879 431.844 112.879 C 427.856 112.879 424.831 111.78 422.77 109.578 C 420.57 107.102 419.745 103.801 419.745 98.573 L 419.745 56.207 C 419.745 54.694 419.055 54.142 418.091 54.007 C 417.131 53.869 415.889 53.869 414.793 53.869 C 413.551 53.869 412.45 53.731 412.45 52.216 C 412.45 51.255 413.275 50.292 415.066 48.642 C 419.331 45.338 422.908 41.625 427.583 33.373 C 428.823 31.035 429.234 30.21 430.197 30.21 C 431.157 30.21 431.571 30.759 431.571 33.097 L 431.571 46.166 C 431.571 48.23 432.259 49.053 434.326 49.053 L 441.753 49.053 C 444.091 49.053 444.64 49.605 444.64 51.531 C 444.64 53.731 444.091 54.418 441.477 54.418 C 439.14 54.418 436.664 54.28 434.326 54.28 C 432.124 54.28 431.571 54.832 431.571 57.305 L 431.568 97.751 L 431.568 97.751 Z" id="path17" style="fill-opacity: 1; fill: rgb(255, 255, 255);"/>
    <path d="M 472.15 112.879 C 456.194 112.879 445.186 98.021 445.186 80.139 C 445.186 62.533 455.777 47.405 472.285 47.405 C 489.066 47.405 499.383 62.674 499.383 80.004 C 499.383 98.021 488.378 112.879 472.285 112.879 L 472.15 112.879 Z M 472.696 109.029 C 482.191 109.029 486.59 94.585 486.59 81.519 C 486.59 66.248 481.776 51.255 472.009 51.255 C 462.52 51.255 457.982 65.011 457.982 78.768 C 457.982 94.033 462.934 109.029 472.561 109.029 L 472.696 109.029 Z" id="path19" style="fill-opacity: 1; fill: rgb(255, 255, 255);"/>
    <path d="M 500.472 64.873 C 500.472 53.32 510.513 47.405 522.343 47.405 C 526.742 47.405 531.699 48.23 534.31 49.605 C 534.997 50.019 535.276 50.982 535.408 52.906 C 535.549 54.145 535.549 55.658 535.549 57.722 L 535.549 61.299 C 535.408 63.499 535.138 64.738 533.896 64.738 C 532.11 64.738 531.834 62.125 529.632 57.446 C 527.981 53.869 525.644 51.117 521.244 51.117 C 515.879 51.117 511.611 54.832 511.611 59.922 C 511.611 66.524 518.213 69.687 525.094 73.675 C 531.834 77.666 538.847 82.48 538.847 92.383 C 538.847 105.725 528.119 112.879 515.188 112.879 C 511.062 112.879 507.074 112.192 504.319 111.225 C 503.359 110.952 502.396 110.676 501.705 110.127 C 501.021 109.713 500.469 109.026 500.331 106.274 C 500.193 104.347 500.193 101.736 500.193 98.159 C 500.193 92.656 500.604 91.143 501.981 91.143 C 503.905 91.143 504.04 93.346 506.108 99.123 C 508.169 104.485 511.332 109.026 516.974 109.026 C 523.165 109.026 527.564 104.899 527.564 98.709 C 527.564 90.594 521.1 87.017 514.771 83.164 C 507.896 79.314 500.466 74.911 500.466 65.008 L 500.466 64.87 L 500.472 64.87 Z" id="path21" style="fill-opacity: 1; fill: rgb(255, 255, 255);"/>
    <path d="M 544.156 29.385 C 544.156 25.397 543.607 24.433 539.892 24.022 C 537.554 23.47 536.729 23.332 536.729 22.096 C 536.729 20.718 537.692 20.58 540.582 19.758 C 546.083 18.107 549.525 16.868 551.724 15.632 C 553.51 14.803 554.338 14.392 555.163 14.392 C 555.986 14.392 556.124 14.941 556.124 16.868 L 556.124 55.934 C 556.124 56.756 556.4 57.17 556.949 57.17 C 557.501 57.17 558.185 56.756 558.734 56.207 C 562.176 53.044 567.536 48.092 575.515 48.092 C 585.83 48.092 591.882 55.105 592.158 65.975 L 592.158 101.187 C 592.158 105.863 593.401 107.651 596.702 108.062 C 598.901 108.338 600 108.753 600 109.989 C 600 111.225 599.039 111.642 597.938 111.642 C 596.702 111.642 592.573 111.09 586.523 111.09 C 579.921 111.09 577.445 111.642 575.518 111.642 C 574.006 111.642 573.181 111.09 573.181 109.854 C 573.181 108.614 574.144 108.338 575.654 108.065 C 579.096 107.516 580.197 106.277 580.197 102.427 L 580.197 67.487 C 580.197 64.048 579.645 61.023 577.997 58.959 C 576.071 56.348 573.181 55.105 569.463 55.105 C 565.889 55.105 562.45 56.483 559.836 58.821 C 557.36 61.161 556.121 63.913 556.121 67.352 L 556.121 102.012 C 556.121 105.59 557.36 107.378 561.486 108.065 C 563.551 108.482 564.097 108.753 564.097 109.992 C 564.097 111.228 563.137 111.642 562.038 111.642 C 560.385 111.642 558.32 111.093 549.933 111.093 C 543.193 111.093 540.993 111.642 538.652 111.642 C 537.416 111.642 536.453 111.228 536.453 109.854 C 536.453 108.617 537.692 107.93 539.067 107.792 C 543.466 107.378 544.156 105.728 544.156 100.089 L 544.156 29.385 L 544.156 29.385 Z" id="path23" style="fill-opacity: 1; fill: rgb(255, 255, 255);"/>
    <path d="M 70.215 22.429 C 74.903 17.285 77.343 10.065 77.682 0.354 L 77.694 0 L 77.349 0.072 C 60.889 3.439 52.387 13.753 52.084 30.732 L 52.078 31.062 L 52.402 31.011 C 60.243 29.784 66.071 26.975 70.215 22.429 Z" id="path27" style="fill-opacity: 1; fill: rgb(255, 255, 255);"/>
    <path d="M 13.573 109.752 L 13.874 110.187 C 16.595 114.109 19.716 117.929 23.146 121.539 C 25.76 124.285 29.922 125.798 34.868 125.798 C 38.493 125.798 42.25 124.942 44.678 123.571 C 49.692 120.735 52.354 120.729 54.293 120.726 C 54.686 120.726 55.049 120.726 55.397 120.705 L 55.715 120.684 C 56.135 120.657 56.57 120.63 57.059 120.63 C 58.779 120.63 61.351 120.966 66.023 123.607 C 69.285 124.972 72.445 125.663 75.422 125.663 L 75.422 125.663 C 83.527 125.663 90.63 120.594 97.139 110.178 L 97.407 109.752 L 13.573 109.752 L 13.573 109.752 Z" id="path29" style="fill-opacity: 1; fill: rgb(255, 255, 255);"/>
    <path d="M 98.37 44.734 C 99.453 43.654 100.62 42.592 101.875 41.544 L 102.085 41.37 L 101.911 41.157 C 95.804 33.622 87.441 29.559 77.727 29.406 L 77.279 29.403 C 72.358 29.403 68.007 30.327 64.691 32.071 C 60.396 34.333 57.197 34.837 57.167 34.84 C 57.113 34.849 56.762 34.861 55.799 34.861 C 54.629 34.861 53.617 34.843 53.494 34.825 L 53.419 34.816 C 52.042 34.639 48.528 34.06 45.683 32.545 C 41.815 30.48 37.503 29.391 33.22 29.391 L 32.938 29.391 C 21.613 29.52 12.139 35.038 6.254 44.734 L 98.37 44.734 Z" id="path31" style="fill-opacity: 1; fill: rgb(255, 255, 255);"/>
    <path d="M 88.872 60.84 C 89.985 55.451 92.995 50.217 97.902 45.209 L 98.364 44.734 L 6.254 44.734 L 6.173 44.869 C 3.352 49.554 1.48 54.97 0.595 60.84 L 88.872 60.84 L 88.872 60.84 Z" id="path33" style="fill-opacity: 1; fill: rgb(255, 255, 255);"/>
    <path d="M 91.027 76.751 C 88.8 72.175 87.708 66.887 88.815 61.17 L 88.878 60.84 L 0.604 60.84 L 0.568 61.08 C -0.18 66.167 -0.18 71.433 0.511 76.751 L 91.027 76.751 L 91.027 76.751 Z" id="path35" style="fill-opacity: 1; fill: rgb(255, 255, 255);"/>
    <path d="M 4.847 93.442 L 105.731 93.442 L 106.322 92.164 L 106.079 92.044 C 101.248 89.652 94.778 84.421 91.093 76.907 L 91.018 76.751 L 0.508 76.751 L 0.55 77.066 C 1.165 81.666 2.425 87.26 4.847 93.442 Z" id="path37" style="fill-opacity: 1; fill: rgb(255, 255, 255);"/>
    <path d="M 13.576 109.752 L 97.398 109.752 C 100.599 104.566 103.234 98.853 105.554 93.835 L 105.734 93.439 L 4.862 93.439 L 5.015 93.823 C 7.221 99.33 10.083 104.653 13.576 109.752 Z" id="path39" style="fill-opacity: 1; fill: rgb(255, 255, 255);"/>
  </g>
</svg>