<?xml version="1.0" encoding="utf-8"?>
<svg version="1.1" id="TEXT" x="0px" y="0px" enable-background="new 0 -0.001 566.929 157.78" xmlns="http://www.w3.org/2000/svg">
  <g>
    <polygon points="526.69 24.184 576.75 24.496 600 0.312 514.344 0 433.86 80.8 422.59 81.42 422.904 3.69 377.654 49.872 366.832 51.156 366.832 4.098 274.184 95.76 262.668 96.986 263.646 2.672 182.678 84.888 172.044 84.94 170.798 5.982 127.116 49.978 114.966 50.598 115.426 3.622 0 119.978 38.016 119.358 87.86 70.98 97.422 70.98 96.96 119.59 136.662 78.96 146.154 78.96 146.154 120.348 102.462 163.726 144.332 163.104 226.712 79.792 237.81 79.792 237.81 120.72 289.158 121.032 338.814 71.064 348.4 70.444 348.252 117.678 387.93 77.996 397.304 77.996 397.926 118.012 397.116 120.092 517.008 120.092 539.96 96.832 465.418 95.562 464.738 84.744 476.356 72.51 504.48 72.508 528.912 47.76 514.142 47.136 514.142 36.724" id="polygon8" style="fill-opacity: 1; fill: rgb(255, 255, 255);"/>
  </g>
</svg>