<?xml version="1.0" encoding="utf-8"?>
<svg version="1.1" xmlns="http://www.w3.org/2000/svg">
  <path fill="#FFFFFF" d="M 521.368 39.418 L 521.368 0.029 L 411.764 0.029 L 393.74 131.617 L 375.903 0.03 L 336.378 0.03 L 340.806 35.142 C 336.241 26.147 320.059 0.03 284.447 0.03 C 284.212 0.015 244.868 0.03 244.868 0.03 L 244.716 191.829 L 215.908 0.03 L 164.143 0 L 134.34 198.73 L 134.356 0.029 L 84.814 0.029 L 66.954 111.656 L 49.558 0.03 L 0 0.03 L 0 216.083 L 39.026 216.083 L 39.026 111.946 L 56.778 216.08 L 77.525 216.08 L 95.028 111.946 L 95.028 216.08 L 170.262 216.08 L 174.828 182.835 L 205.118 182.835 L 209.668 216.08 L 283.53 216.126 L 283.59 216.126 L 283.59 216.08 L 283.636 216.08 L 283.682 216.08 L 283.682 145.949 L 292.738 144.63 L 311.484 216.126 L 311.53 216.126 L 349.644 216.126 L 349.688 216.126 L 349.673 216.08 L 349.741 216.08 L 349.787 216.08 L 325.186 132.284 C 337.653 123.063 351.729 99.645 347.983 77.243 L 347.983 77.228 C 348.028 77.531 371.203 216.218 371.203 216.218 L 416.641 216.08 L 447.689 20.246 L 447.689 216.081 L 521.369 216.081 L 521.369 177.223 L 486.395 177.223 L 486.395 127.673 L 521.369 127.673 L 521.369 88.225 L 486.395 88.225 L 486.395 39.418 L 521.368 39.418 Z M 179.425 148.574 L 190.14 56.208 L 201.265 148.574 L 179.425 148.574 Z M 292.864 105.925 C 289.861 107.381 286.729 108.109 283.681 108.109 L 283.681 38.614 C 283.734 38.614 283.795 38.6 283.87 38.6 C 286.927 38.584 309.714 39.524 309.714 72.982 C 309.714 90.484 301.964 101.512 292.864 105.925 M 600 177.193 L 600 216.05 L 528.124 216.05 L 528.124 0 L 566.823 0 L 566.823 177.193 L 600 177.193 Z"/>
</svg>