<?xml version="1.0" encoding="utf-8"?>
<svg version="1.1" id="svg5331" xmlns="http://www.w3.org/2000/svg">
  <g>
    <path id="path951" d="M 436.694 0.124 L 391.483 0.248 L 389.968 1.748 L 389.721 2.63 L 389.583 4.006 L 418.232 68.092 L 418.742 68.836 L 420.118 69.593 L 438.085 69.593 L 439.723 69.084 L 440.342 68.202 L 440.728 67.335 L 440.466 65.449 L 431.435 49.741 L 454.288 49.493 L 470.492 68.973 L 472.007 69.593 L 503.41 69.469 L 503.919 69.084 L 505.172 67.707 L 505.296 66.33 L 504.539 64.816 L 437.823 0.496 Z M 406.461 9.678 L 424.042 9.678 L 448.919 39.539 L 423.34 39.539 Z" style="fill-opacity: 1; fill-rule: evenodd; stroke-width: 0.0378593; stroke-linecap: butt; stroke-linejoin: miter; stroke-miterlimit: 4; stroke-dasharray: none; stroke-opacity: 1; fill: rgb(255, 255, 255);"/>
    <path id="path949" d="M 409.944 65.573 L 410.068 67.459 L 409.187 68.836 L 407.934 69.717 L 346.877 69.469 L 342.362 68.34 L 337.46 66.33 L 333.317 63.935 L 330.164 61.553 L 327.658 58.91 L 325.387 55.647 L 324.01 53.004 L 323.005 18.71 L 323.638 14.442 L 325.896 8.783 L 328.539 5.273 L 335.065 0.496 L 370.364 0.496 L 371.754 1.005 L 372.512 2.134 L 374.522 5.892 L 374.136 7.283 L 373.393 8.164 L 372.374 8.783 L 347.001 8.783 L 358.442 53.265 L 360.066 56.528 L 362.2 57.905 L 364.595 58.91 L 368.106 58.91 L 370.364 57.781 L 371.507 54.766 L 371.878 50.498 L 370.997 46.23 L 369.497 41.577 L 367.487 37.805 L 365.477 35.423 L 360.19 34.542 L 358.937 34.032 L 357.932 33.027 L 356.17 26.502 L 356.432 24.987 L 357.808 23.239 L 384.434 23.239 L 385.315 23.735 Z" style="fill-opacity: 1; fill-rule: evenodd; stroke-width: 0.0378593; stroke-linecap: butt; stroke-linejoin: miter; stroke-miterlimit: 4; stroke-dasharray: none; stroke-opacity: 1; fill: rgb(255, 255, 255);"/>
    <path id="path945" d="M 129.301 69.29 L 110.289 69.469 L 108.416 67.955 L 107.893 66.275 L 108.595 64.94 L 174.154 0 L 193.167 0 L 194.943 1.156 L 195.48 2.313 L 195.48 29.489 L 237.58 0.083 L 241.145 0.083 L 261.576 0.083 L 263.021 0.936 L 263.71 1.996 L 263.903 3.442 L 263.765 4.199 L 233.684 70.061 L 198.412 69.469 L 197.338 69.249 L 196.43 68.381 L 196.058 67.555 L 195.852 65.587 L 217.727 28.388 L 171.002 63.687 L 170.313 64.003 L 167.312 64.003 L 166.734 63.632 L 165.591 62.186 L 167.106 28.76 L 147.253 50.25 Z" style="fill-opacity: 1; fill-rule: evenodd; stroke-width: 0.0378593; stroke-linecap: butt; stroke-linejoin: miter; stroke-miterlimit: 4; stroke-dasharray: none; stroke-opacity: 1; fill: rgb(255, 255, 255);"/>
    <path id="path947" d="M 314.965 69.717 L 250.273 69.717 L 248.759 68.34 L 248.387 67.583 L 247.878 66.33 L 274.393 1.377 L 275.522 0.124 L 315.213 0.124 L 316.975 0.743 L 317.484 2.134 L 317.608 8.66 L 316.727 9.912 L 315.474 10.546 L 291.093 10.546 L 288.215 22.606 L 315.089 22.73 L 316.603 23.487 L 317.236 24.616 L 317.236 33.027 L 316.851 34.17 L 315.213 35.299 L 284.815 35.299 L 279.418 56.528 L 314.965 56.528 L 316.218 57.533 L 316.975 58.662 L 316.727 67.955 L 315.97 68.836 Z" style="fill-rule: evenodd; stroke-width: 0.0378593; stroke-linecap: butt; stroke-linejoin: miter; stroke-miterlimit: 4; stroke-dasharray: none; stroke-opacity: 1; fill: rgb(255, 255, 255);"/>
    <path id="path941" d="M 598.238 168.964 L 600 167.464 L 600 164.944 L 513.57 76.752 L 476.385 76.504 L 474.623 78.005 L 475.118 80.276 L 514.823 128.516 L 412.051 76.504 L 370.102 76.256 L 368.092 77.757 L 367.831 79.767 L 395.971 167.216 L 399 169.721 L 452.265 169.721 L 454.275 167.711 L 455.28 166.197 L 431.407 112.932 L 546.735 169.212 Z" style="fill-opacity: 1; fill-rule: evenodd; stroke-width: 0.0378593; stroke-linecap: butt; stroke-linejoin: miter; stroke-miterlimit: 4; stroke-dasharray: none; stroke-opacity: 1; fill: rgb(255, 255, 255);"/>
    <path id="path934" d="M 274.366 76.504 L 222.353 166.197 L 222.615 167.89 L 223.358 168.964 L 224.556 169.653 L 269.093 170.479 L 278.386 153.394 L 331.403 153.132 L 339.704 168.964 L 340.957 169.46 L 384.42 169.46 L 386.182 167.711 L 386.182 165.454 L 332.146 76.504 Z M 305.273 94.085 L 325.621 135.304 L 280.643 135.304 Z" style="fill-opacity: 1; fill-rule: evenodd; stroke-width: 0.0378593; stroke-linecap: butt; stroke-linejoin: miter; stroke-miterlimit: 4; stroke-dasharray: none; stroke-opacity: 1; fill: rgb(255, 255, 255);"/>
    <path id="path925" d="M 90.615 76.49 L 130.76 76.834 L 133.954 79.684 L 135.744 114.501 L 194.723 76.132 L 237.015 76.49 C 237.015 76.49 238.722 76.463 239.906 77.702 C 241.09 78.941 240.925 80.042 240.925 80.042 L 211.064 167.092 C 210.899 167.588 210.445 168.235 210.032 168.758 C 209.495 169.446 208.49 169.942 208.49 169.942 L 156.009 169.267 C 155.266 169.267 154.633 168.455 154.357 167.753 C 154.041 166.982 154.206 166.018 154.55 165.261 L 179.097 111.665 L 100.211 161.062 C 100.211 161.062 97.334 162.012 94.869 160.346 C 94.002 159.754 93.451 157.51 93.451 157.51 L 85.274 110.949 L 29.489 169.584 L 1.776 169.584 L 0 167.808 L 0 164.614 Z" style="fill-rule: evenodd; stroke-width: 0.0378593; stroke-linecap: butt; stroke-linejoin: miter; stroke-miterlimit: 4; stroke-dasharray: none; stroke-opacity: 1; fill: rgb(255, 255, 255);"/>
  </g>
</svg>