<?xml version="1.0" encoding="utf-8"?>
<svg version="1.2" xmlns="http://www.w3.org/2000/svg">
  <path style="fill:#ffffff;fill-opacity:1;fill-rule:nonzero;stroke:none" d="M 147.503 2.294 C 148.8 0.128 150.823 0.128 150.823 0.128 L 211.151 0.128 L 211.151 13.551 L 163.235 13.551 L 160.635 17.16 L 160.635 26.252 L 211.151 26.252 L 201.625 40.684 L 160.635 40.684 L 160.635 53.673 L 211.151 53.673 L 211.151 66.951 L 135.091 66.951 C 135.091 52.519 135.091 35.778 135.091 21.344 Z" id="path4170"/>
  <path style="fill:#ffffff;fill-opacity:1;fill-rule:nonzero;stroke:none" d="M 351.436 0.128 C 353.025 0.128 353.025 0.274 354.179 1.571 C 369.334 22.355 385.641 45.447 401.227 67.24 C 392.856 67.385 387.516 67.096 379.146 67.24 L 369.188 53.673 L 340.756 53.673 L 331.664 41.55 L 331.664 67.24 L 310.16 67.24 C 309.437 67.24 308.715 66.519 308.715 65.797 L 308.86 0.128 M 331.664 40.684 L 359.231 40.684 L 339.458 13.551 L 331.809 13.551 Z" id="path4172"/>
  <path style="fill:#ffffff;fill-opacity:1;fill-rule:nonzero;stroke:none" d="M 235.541 0.128 L 295.582 0.128 L 295.582 13.551 L 247.521 13.551 C 245.355 13.551 244.778 13.551 244.346 14.272 L 242.324 16.726 L 242.035 50.065 C 242.035 53.385 242.324 53.673 244.058 53.673 L 276.964 53.673 L 276.964 40.684 L 260.799 40.684 L 270.47 26.252 L 299.768 26.252 L 299.768 67.528 C 278.262 67.385 245.212 67.528 223.706 67.385 C 222.263 67.385 218.8 65.942 218.8 62.188 L 218.654 21.344 L 231.5 2.148 C 232.8 -0.015 235.541 0.128 235.541 0.128 Z" id="path4174"/>
  <path style="fill-opacity: 1; fill-rule: nonzero; stroke: none; fill: rgb(255, 255, 255);" d="M 529.535 5.757 C 543.535 2.437 558.401 0.705 572.401 4.314 C 583.225 6.911 593.183 14.417 597.08 24.952 C 603.143 41.261 598.812 59.159 592.751 74.745 C 582.793 98.703 567.35 120.207 549.598 138.971 C 549.884 114.724 549.598 90.621 549.741 66.374 C 549.598 62.188 550.03 58.004 549.164 53.962 C 547.575 44.725 538.627 37.653 529.391 37.653 C 506.442 37.509 483.639 37.653 460.692 37.653 C 481.907 23.655 504.854 11.963 529.535 5.757 Z" id="path4176"/>
  <path style="fill-opacity: 1; fill-rule: nonzero; stroke: none; fill: rgb(255, 255, 255);" d="M 406.567 83.26 C 422.588 66.519 440.197 51.219 459.535 38.519 C 459.681 75.757 459.535 113.136 459.681 150.517 C 459.969 150.805 460.403 151.528 460.692 151.817 C 483.927 151.817 507.02 151.817 530.112 151.817 C 532.423 151.817 534.732 151.383 537.04 150.951 C 531.989 156.723 526.071 161.486 520.299 166.392 C 494.319 187.753 464.878 205.793 432.548 215.319 C 413.207 220.66 391.124 224.123 372.795 214.165 C 371.065 212.865 366.159 210.845 369.188 208.391 C 395.744 183.424 425.185 159.032 452.032 134.353 L 452.032 126.413 C 420.279 148.785 387.372 174.475 358.076 194.97 L 355.333 196.124 L 356.922 194.104 C 385.784 166.971 415.95 141.425 444.814 114.29 L 452.032 108.084 L 452.032 101.589 C 419.845 123.961 385.495 150.228 356.345 170.001 C 358.653 166.103 362.262 163.217 365.725 160.186 C 393.867 134.496 423.599 109.529 452.032 83.983 L 452.032 77.92 C 423.311 96.826 393.146 120.787 367.457 138.394 C 368.756 135.362 370.343 132.333 373.083 130.311 C 399.496 107.507 426.197 84.415 452.032 61.034 L 452.032 55.262 C 440.051 62.045 430.671 71.571 419.268 79.22 C 411.619 84.126 405.27 91.054 396.898 94.663 C 399.641 90.477 403.247 87.014 406.567 83.26 Z" id="path4178"/>
  <path style="fill-opacity: 1; fill-rule: nonzero; stroke: none; fill: rgb(255, 255, 255);" d="M 490.422 67.096 C 490.422 65.219 490.567 63.345 490.999 61.611 C 499.227 61.468 507.597 61.611 515.825 61.468 C 516.402 63.054 516.834 64.642 516.834 66.374 C 516.691 85.569 516.834 104.909 516.834 124.25 C 516.979 125.693 515.968 126.991 515.248 128.147 C 508.031 127.859 500.67 128.147 493.453 128.002 C 491.722 128.002 490.133 126.847 490.422 124.97 C 490.279 105.63 490.422 86.435 490.422 67.096 Z" id="path4180"/>
  <path style="fill-opacity: 1; fill-rule: nonzero; stroke: none; fill: rgb(255, 255, 255);" d="M 307.129 86.437 C 321.417 81.529 336.427 78.065 351.582 78.497 C 361.828 78.786 372.363 81.385 380.589 88.023 C 353.602 113.858 324.592 139.116 297.169 164.806 L 297.169 171.3 C 324.881 151.671 355.045 129.302 379.146 111.549 C 383.186 108.661 387.084 105.632 391.413 103.178 C 389.249 106.93 385.641 109.241 382.609 112.127 C 356.922 135.939 330.798 159.32 304.963 182.99 C 302.22 185.587 299.623 188.041 297.169 191.073 L 297.169 194.825 C 328.632 173.032 360.674 150.228 392.278 128.724 C 390.258 131.176 387.804 133.342 385.495 135.508 C 356.488 162.063 326.178 187.898 297.169 214.599 L 297.169 220.371 C 322.283 202.33 349.559 182.558 371.497 166.826 C 374.815 164.517 377.992 162.063 381.598 160.186 C 380.732 161.486 379.867 162.786 378.857 163.94 C 351.582 189.052 324.447 213.299 297.169 238.412 L 297.169 242.743 C 316.509 230.186 336.138 214.02 353.456 202.33 C 349.705 207.67 345.087 212.288 340.613 217.196 C 314.489 244.186 283.891 267.278 249.396 282.721 C 230.489 290.948 209.994 297.297 189.067 296.431 C 177.667 295.999 165.398 292.534 157.606 283.731 C 149.523 274.782 147.646 261.793 149.089 250.103 C 151.109 233.36 158.038 217.628 166.409 203.196 C 175.79 187.176 187.19 172.166 200.325 158.888 C 199.605 182.413 200.182 206.082 200.036 229.608 C 200.036 237.112 199.316 245.483 203.934 252.123 C 207.397 256.886 212.882 260.638 219.088 260.638 C 242.181 260.638 265.273 260.638 288.365 260.638 C 288.365 246.349 288.511 232.206 288.365 218.062 C 279.128 217.628 269.602 217.051 260.51 218.351 C 260.365 224.123 260.799 229.897 260.365 235.669 C 257.767 237.546 254.159 236.246 251.273 236.68 C 244.778 236.246 238.14 237.546 231.932 235.814 C 232.077 214.308 231.932 192.948 231.932 171.444 C 240.738 169.423 250.118 171.155 259.067 170.578 C 259.499 171.012 260.076 171.444 260.51 172.021 C 260.51 177.361 260.51 182.701 260.51 188.187 C 269.17 189.484 278.262 188.473 287.065 188.764 C 287.354 188.475 288.077 187.898 288.365 187.609 C 288.365 174.186 288.365 160.763 288.365 147.342 C 270.756 146.188 252.861 147.197 235.109 146.908 C 227.171 146.62 219.088 146.908 211.294 148.208 C 213.603 145.611 216.057 143.011 218.8 140.702 C 244.635 117.61 274.365 98.126 307.129 86.437 Z" id="path4182"/>
  <path style="fill:#ffffff;fill-opacity:1;fill-rule:nonzero;stroke:none" d="M 40.844 5.757 C 43.299 2.294 46.907 -0.015 51.525 0.128 C 60.328 -0.16 69.132 0.128 78.08 0.128 C 77.937 2.871 77.937 4.603 77.792 7.345 C 81.4 3.591 85.297 -0.16 91.215 0.128 C 103.484 -0.16 115.607 0.128 127.873 0.128 C 127.873 22.789 127.873 44.581 127.873 67.385 C 119.647 67.385 111.276 67.385 103.05 67.385 C 103.05 51.076 103.05 34.767 103.05 18.458 C 98.432 18.026 96.121 22.209 94.101 25.386 C 85.009 39.386 75.628 53.096 67.111 67.385 C 58.308 67.53 49.648 67.53 40.99 67.385 C 51.382 50.499 62.639 34.19 73.317 17.592 C 67.834 17.88 60.762 16.149 56.72 20.623 C 46.473 36.066 36.37 51.798 26.124 67.385 C 17.464 67.385 8.66 67.385 0 67.385 C 13.566 46.747 27.278 26.252 40.844 5.757 Z" id="path4184"/>
</svg>