<?xml version="1.0" encoding="utf-8"?>
<svg version="1.1" id="Layer_1" x="0px" y="0px" enable-background="new 0 0 566.932 90.32" xmlns="http://www.w3.org/2000/svg">
  <g>
    <path d="M 323.556 3.618 C 323.055 5.268 322.551 6.927 322.053 8.595 C 321.549 10.263 321.045 11.943 320.544 13.629 C 320.037 15.315 319.536 17.007 319.032 18.708 C 318.531 20.409 318.027 22.119 317.523 23.829 C 317.775 23.82 318.021 23.808 318.273 23.802 C 318.522 23.79 318.768 23.778 319.02 23.772 C 319.269 23.76 319.515 23.748 319.764 23.736 C 320.013 23.727 320.262 23.715 320.511 23.706 C 321.018 22.059 321.519 20.421 322.023 18.789 C 322.53 17.163 323.034 15.537 323.535 13.926 C 324.039 12.315 324.543 10.71 325.047 9.117 C 325.548 7.524 326.052 5.94 326.556 4.365 C 326.61 4.152 326.697 3.948 326.802 3.771 C 326.907 3.591 327.036 3.435 327.18 3.306 C 327.324 3.174 327.489 3.072 327.66 3.006 C 327.837 2.937 328.023 2.907 328.218 2.91 C 328.416 2.919 328.605 2.964 328.779 3.042 C 328.956 3.12 329.121 3.231 329.265 3.366 C 329.409 3.504 329.541 3.666 329.646 3.846 C 329.751 4.026 329.832 4.23 329.889 4.443 C 330.315 5.772 330.744 7.095 331.17 8.406 C 331.596 9.72 332.022 11.022 332.445 12.315 C 332.871 13.608 333.3 14.892 333.726 16.17 C 334.149 17.442 334.578 18.705 335.004 19.962 C 334.335 20.004 333.666 20.049 332.997 20.088 C 332.328 20.13 331.659 20.172 330.987 20.208 C 330.321 20.247 329.652 20.286 328.98 20.322 C 328.311 20.355 327.642 20.391 326.973 20.424 C 326.973 20.67 326.973 20.91 326.973 21.156 C 326.973 21.402 326.973 21.639 326.973 21.885 C 326.973 22.128 326.973 22.371 326.973 22.617 C 326.973 22.86 326.973 23.103 326.973 23.349 C 327.966 23.283 328.965 23.217 329.958 23.148 C 330.951 23.079 331.953 23.004 332.943 22.926 C 333.939 22.851 334.935 22.77 335.928 22.686 C 336.918 22.602 337.917 22.515 338.91 22.428 C 338.406 20.943 337.902 19.443 337.401 17.928 C 336.897 16.41 336.396 14.88 335.892 13.329 C 335.388 11.784 334.884 10.221 334.386 8.646 C 333.882 7.068 333.378 5.478 332.874 3.87 C 332.73 3.339 332.505 2.844 332.214 2.388 C 331.92 1.935 331.566 1.53 331.155 1.182 C 330.747 0.84 330.285 0.558 329.79 0.357 C 329.295 0.153 328.761 0.03 328.206 0.006 C 327.657 -0.021 327.123 0.054 326.628 0.219 C 326.136 0.381 325.677 0.63 325.269 0.951 C 324.864 1.272 324.504 1.665 324.216 2.115 C 323.928 2.562 323.703 3.069 323.556 3.618 L 323.556 3.618 L 323.556 3.618 L 323.556 3.618 L 323.556 3.618 Z M 327.105 15.891 C 327.192 15.612 327.279 15.33 327.366 15.048 C 327.453 14.766 327.543 14.487 327.63 14.205 C 327.714 13.926 327.804 13.644 327.891 13.365 C 327.975 13.086 328.065 12.807 328.152 12.528 C 328.242 12.804 328.338 13.08 328.428 13.353 C 328.521 13.629 328.614 13.905 328.704 14.178 C 328.794 14.451 328.887 14.727 328.98 15 C 329.07 15.273 329.163 15.546 329.253 15.819 C 329.076 15.828 328.893 15.831 328.716 15.837 C 328.536 15.843 328.353 15.852 328.176 15.858 C 327.999 15.861 327.816 15.867 327.639 15.873 C 327.462 15.879 327.285 15.888 327.105 15.891 Z M 326.664 6.273 C 326.211 7.689 325.761 9.117 325.311 10.551 C 324.861 11.988 324.411 13.428 323.961 14.877 C 323.511 16.326 323.061 17.79 322.605 19.251 C 322.158 20.718 321.708 22.188 321.258 23.664 C 321.549 23.649 321.84 23.637 322.134 23.622 C 322.422 23.607 322.713 23.592 323.004 23.577 C 323.298 23.559 323.589 23.547 323.88 23.529 C 324.171 23.511 324.462 23.496 324.753 23.478 C 324.942 22.872 325.125 22.266 325.314 21.663 C 325.503 21.063 325.683 20.457 325.875 19.857 C 326.058 19.26 326.244 18.657 326.43 18.06 C 326.616 17.463 326.799 16.866 326.988 16.272 C 326.988 16.551 326.988 16.83 326.988 17.106 C 326.988 17.388 326.988 17.664 326.988 17.943 C 326.988 18.219 326.988 18.498 326.988 18.777 C 326.988 19.056 326.988 19.335 326.988 19.614 C 327.576 19.584 328.158 19.557 328.749 19.527 C 329.334 19.5 329.919 19.47 330.504 19.44 C 331.089 19.41 331.674 19.377 332.259 19.347 C 332.847 19.314 333.429 19.281 334.017 19.248 C 333.669 18.195 333.321 17.136 332.97 16.071 C 332.622 15.009 332.274 13.938 331.923 12.861 C 331.578 11.784 331.227 10.698 330.882 9.609 C 330.528 8.517 330.18 7.425 329.835 6.318 C 329.781 6.135 329.703 5.865 329.601 5.562 C 329.502 5.256 329.379 4.923 329.238 4.611 C 329.097 4.302 328.944 4.011 328.776 3.792 C 328.611 3.579 328.431 3.438 328.242 3.432 C 328.056 3.426 327.876 3.555 327.708 3.762 C 327.54 3.969 327.384 4.254 327.246 4.563 C 327.105 4.875 326.988 5.208 326.883 5.511 C 326.793 5.814 326.712 6.087 326.664 6.273 L 326.664 6.273 L 326.664 6.273 L 326.664 6.273 L 326.664 6.273 L 326.664 6.273 L 326.664 6.273 L 326.664 6.273 L 326.664 6.273 Z M 307.545 3.378 C 308.421 3.381 309.288 3.387 310.164 3.396 C 311.04 3.402 311.907 3.411 312.783 3.42 C 313.656 3.429 314.526 3.441 315.399 3.45 C 316.275 3.459 317.145 3.474 318.018 3.483 C 318.018 3.21 318.015 2.937 318.015 2.661 C 318.015 2.388 318.015 2.115 318.015 1.839 C 318.015 1.563 318.015 1.29 318.015 1.014 C 318.015 0.738 318.015 0.465 318.015 0.192 C 317.124 0.168 316.23 0.15 315.336 0.129 C 314.442 0.108 313.551 0.096 312.654 0.081 C 311.763 0.066 310.869 0.051 309.975 0.045 C 309.081 0.033 308.19 0.024 307.293 0.018 C 306.57 0.015 305.88 0.174 305.256 0.471 C 304.626 0.765 304.065 1.197 303.591 1.731 C 303.114 2.265 302.733 2.901 302.469 3.609 C 302.205 4.314 302.058 5.088 302.058 5.898 C 302.058 6.927 302.058 7.956 302.058 8.985 C 302.058 10.011 302.058 11.04 302.058 12.066 C 302.058 13.092 302.058 14.124 302.058 15.15 C 302.058 16.179 302.058 17.208 302.058 18.234 C 302.055 19.047 302.202 19.821 302.469 20.526 C 302.733 21.234 303.12 21.864 303.594 22.398 C 304.065 22.929 304.626 23.358 305.259 23.652 C 305.88 23.949 306.573 24.105 307.296 24.096 C 308.187 24.084 309.081 24.069 309.978 24.054 C 310.872 24.036 311.763 24.018 312.66 23.994 C 313.554 23.967 314.445 23.94 315.342 23.91 C 316.233 23.88 317.127 23.844 318.024 23.808 C 318.024 22.527 318.024 21.243 318.024 19.962 C 318.021 18.681 318.021 17.394 318.021 16.116 C 318.021 14.832 318.021 13.548 318.021 12.27 C 318.021 10.989 318.018 9.702 318.018 8.424 C 317.313 8.421 316.605 8.421 315.897 8.421 C 315.189 8.418 314.487 8.418 313.776 8.415 C 313.071 8.415 312.366 8.415 311.661 8.415 C 310.953 8.415 310.248 8.412 309.54 8.412 C 309.54 8.67 309.54 8.925 309.54 9.18 C 309.54 9.435 309.54 9.69 309.54 9.945 C 309.54 10.2 309.54 10.458 309.54 10.713 C 309.54 10.968 309.54 11.226 309.54 11.478 C 309.996 11.478 310.455 11.475 310.911 11.475 C 311.367 11.472 311.826 11.472 312.285 11.469 C 312.741 11.469 313.197 11.466 313.653 11.463 C 314.109 11.46 314.565 11.457 315.021 11.457 C 315.021 12.219 315.021 12.978 315.021 13.74 C 315.024 14.502 315.021 15.261 315.021 16.026 C 315.021 16.788 315.024 17.547 315.024 18.306 C 315.024 19.071 315.024 19.83 315.024 20.592 C 314.4 20.61 313.782 20.622 313.155 20.637 C 312.531 20.649 311.91 20.664 311.286 20.673 C 310.662 20.679 310.041 20.694 309.417 20.7 C 308.793 20.709 308.169 20.718 307.548 20.724 C 307.203 20.73 306.876 20.652 306.576 20.517 C 306.276 20.376 306.009 20.172 305.787 19.92 C 305.562 19.668 305.376 19.368 305.25 19.032 C 305.124 18.699 305.052 18.327 305.052 17.943 C 305.052 16.959 305.052 15.978 305.052 15 C 305.055 14.016 305.052 13.038 305.052 12.057 C 305.052 11.073 305.052 10.092 305.052 9.111 C 305.055 8.127 305.055 7.149 305.055 6.168 C 305.055 5.781 305.121 5.412 305.25 5.076 C 305.373 4.74 305.559 4.44 305.784 4.188 C 306.009 3.933 306.273 3.732 306.573 3.591 C 306.87 3.453 307.197 3.375 307.545 3.378 Z M 309.54 12.327 C 309.54 12.606 309.54 12.885 309.54 13.167 C 309.54 13.443 309.54 13.725 309.54 14.004 C 309.54 14.283 309.54 14.562 309.54 14.844 C 309.54 15.123 309.54 15.402 309.54 15.684 C 309.684 15.681 309.834 15.681 309.978 15.678 C 310.122 15.678 310.269 15.678 310.41 15.675 C 310.554 15.675 310.704 15.672 310.845 15.672 C 310.989 15.669 311.136 15.669 311.277 15.666 C 311.277 15.738 311.28 15.807 311.277 15.873 C 311.277 15.945 311.28 16.017 311.28 16.083 C 311.28 16.152 311.28 16.224 311.28 16.29 C 311.28 16.362 311.28 16.431 311.28 16.5 C 311.136 16.503 310.989 16.503 310.845 16.506 C 310.704 16.506 310.554 16.509 310.41 16.509 C 310.269 16.512 310.122 16.512 309.978 16.515 C 309.834 16.515 309.684 16.518 309.54 16.518 C 309.438 16.518 309.342 16.494 309.249 16.455 C 309.159 16.416 309.078 16.35 309.009 16.275 C 308.94 16.2 308.889 16.11 308.847 16.011 C 308.811 15.912 308.79 15.801 308.79 15.687 C 308.79 15.081 308.79 14.472 308.79 13.866 C 308.79 13.26 308.79 12.654 308.79 12.048 C 308.79 11.442 308.79 10.833 308.79 10.227 C 308.79 9.624 308.79 9.015 308.79 8.409 C 308.79 8.295 308.811 8.184 308.847 8.085 C 308.886 7.986 308.94 7.893 309.009 7.818 C 309.078 7.743 309.156 7.68 309.249 7.638 C 309.336 7.599 309.435 7.572 309.54 7.572 C 310.248 7.575 310.953 7.575 311.658 7.578 C 312.366 7.578 313.071 7.581 313.782 7.584 C 314.487 7.584 315.192 7.587 315.9 7.59 C 316.608 7.593 317.313 7.596 318.018 7.599 C 318.018 7.326 318.018 7.053 318.018 6.78 C 318.018 6.504 318.021 6.231 318.018 5.958 C 318.018 5.682 318.021 5.409 318.018 5.136 C 318.018 4.86 318.018 4.587 318.018 4.314 C 317.208 4.302 316.401 4.293 315.588 4.287 C 314.778 4.278 313.971 4.266 313.161 4.26 C 312.351 4.254 311.541 4.245 310.728 4.239 C 309.918 4.236 309.111 4.23 308.301 4.224 C 307.956 4.224 307.626 4.302 307.329 4.44 C 307.029 4.581 306.762 4.785 306.534 5.037 C 306.309 5.289 306.126 5.589 305.997 5.925 C 305.871 6.258 305.799 6.63 305.799 7.014 C 305.799 7.854 305.799 8.694 305.799 9.534 C 305.799 10.374 305.799 11.214 305.799 12.057 C 305.799 12.897 305.799 13.737 305.799 14.58 C 305.802 15.42 305.799 16.26 305.799 17.1 C 305.799 17.487 305.871 17.856 305.997 18.189 C 306.126 18.525 306.309 18.825 306.534 19.077 C 306.762 19.332 307.032 19.533 307.329 19.671 C 307.629 19.812 307.959 19.884 308.304 19.881 C 308.802 19.875 309.297 19.869 309.801 19.863 C 310.296 19.854 310.797 19.848 311.298 19.836 C 311.799 19.827 312.294 19.818 312.798 19.809 C 313.296 19.8 313.794 19.788 314.295 19.776 C 314.295 19.155 314.295 18.534 314.295 17.907 C 314.295 17.286 314.295 16.659 314.295 16.038 C 314.295 15.414 314.295 14.79 314.295 14.166 C 314.292 13.545 314.295 12.921 314.292 12.297 C 313.899 12.3 313.503 12.3 313.107 12.303 C 312.714 12.306 312.318 12.309 311.925 12.312 C 311.529 12.315 311.136 12.315 310.74 12.318 C 310.344 12.318 309.936 12.327 309.54 12.327 L 309.54 12.327 L 309.54 12.327 L 309.54 12.327 L 309.54 12.327 Z M 290.349 3.447 C 291.222 3.435 292.092 3.423 292.968 3.417 C 293.841 3.408 294.711 3.399 295.584 3.393 C 296.457 3.387 297.33 3.381 298.203 3.375 C 299.076 3.372 299.943 3.369 300.819 3.366 C 300.819 3.087 300.819 2.805 300.819 2.523 C 300.819 2.244 300.819 1.965 300.819 1.683 C 300.819 1.404 300.819 1.122 300.819 0.84 C 300.819 0.561 300.819 0.279 300.819 0 C 299.925 0.003 299.034 0.006 298.137 0.015 C 297.246 0.021 296.352 0.03 295.461 0.042 C 294.567 0.054 293.673 0.066 292.779 0.078 C 291.882 0.093 290.994 0.108 290.097 0.129 C 289.377 0.144 288.687 0.324 288.06 0.63 C 287.436 0.939 286.872 1.374 286.398 1.905 C 285.924 2.436 285.54 3.063 285.279 3.753 C 285.015 4.443 284.862 5.196 284.865 5.985 C 284.865 6.975 284.865 7.962 284.865 8.952 C 284.865 9.942 284.865 10.926 284.862 11.913 C 284.862 12.903 284.862 13.89 284.862 14.877 C 284.862 15.867 284.862 16.854 284.862 17.841 C 284.862 18.633 285.009 19.389 285.273 20.079 C 285.537 20.778 285.924 21.408 286.395 21.948 C 286.869 22.485 287.433 22.935 288.057 23.247 C 288.681 23.562 289.371 23.751 290.094 23.778 C 290.988 23.808 291.879 23.835 292.776 23.862 C 293.67 23.886 294.561 23.904 295.461 23.922 C 296.349 23.94 297.243 23.955 298.14 23.964 C 299.034 23.979 299.928 23.985 300.822 23.991 C 300.822 23.709 300.822 23.43 300.822 23.151 C 300.822 22.869 300.822 22.59 300.822 22.308 C 300.822 22.029 300.825 21.747 300.825 21.468 C 300.825 21.186 300.825 20.907 300.825 20.625 C 299.949 20.622 299.079 20.616 298.206 20.607 C 297.333 20.598 296.46 20.586 295.587 20.574 C 294.714 20.562 293.844 20.547 292.971 20.529 C 292.095 20.511 291.222 20.49 290.349 20.469 C 290.007 20.46 289.683 20.373 289.383 20.223 C 289.083 20.076 288.813 19.866 288.588 19.614 C 288.363 19.359 288.183 19.056 288.057 18.726 C 287.928 18.393 287.856 18.03 287.856 17.649 C 287.856 16.698 287.856 15.747 287.859 14.793 C 287.859 13.842 287.859 12.891 287.859 11.937 C 287.859 10.986 287.859 10.035 287.859 9.081 C 287.859 8.127 287.862 7.182 287.859 6.225 C 287.859 5.847 287.931 5.484 288.057 5.154 C 288.183 4.824 288.369 4.524 288.594 4.275 C 288.819 4.02 289.086 3.819 289.386 3.675 C 289.677 3.531 290.004 3.453 290.349 3.447 L 290.349 3.447 L 290.349 3.447 L 290.349 3.447 L 290.349 3.447 Z M 298.566 11.496 C 298.566 11.238 298.566 10.98 298.566 10.725 C 298.566 10.47 298.566 10.212 298.569 9.957 C 298.569 9.702 298.569 9.441 298.569 9.186 C 298.569 8.931 298.569 8.673 298.569 8.418 C 297.987 8.418 297.408 8.418 296.826 8.418 C 296.241 8.418 295.662 8.421 295.08 8.421 C 294.501 8.421 293.919 8.421 293.34 8.421 C 292.758 8.421 292.179 8.421 291.594 8.424 C 291.594 8.307 291.615 8.199 291.651 8.1 C 291.69 8.001 291.744 7.911 291.813 7.836 C 291.882 7.758 291.96 7.698 292.05 7.656 C 292.14 7.614 292.242 7.59 292.344 7.587 C 293.049 7.587 293.754 7.584 294.462 7.584 C 295.17 7.584 295.875 7.581 296.583 7.578 C 297.291 7.578 297.993 7.578 298.704 7.575 C 299.409 7.575 300.114 7.575 300.822 7.575 C 300.819 7.296 300.819 7.014 300.819 6.735 C 300.822 6.453 300.822 6.174 300.822 5.895 C 300.822 5.613 300.822 5.334 300.822 5.055 C 300.822 4.776 300.822 4.497 300.822 4.215 C 300.012 4.218 299.205 4.218 298.392 4.224 C 297.582 4.224 296.775 4.23 295.962 4.236 C 295.152 4.242 294.345 4.245 293.532 4.254 C 292.722 4.26 291.915 4.269 291.105 4.278 C 290.76 4.281 290.433 4.362 290.133 4.503 C 289.836 4.644 289.569 4.851 289.341 5.103 C 289.116 5.358 288.933 5.652 288.807 5.982 C 288.681 6.312 288.609 6.675 288.609 7.053 C 288.609 7.422 288.609 7.788 288.609 8.157 C 288.609 8.526 288.609 8.892 288.609 9.258 C 288.609 9.627 288.609 9.993 288.609 10.362 C 288.609 10.731 288.609 11.097 288.609 11.466 C 289.44 11.472 290.274 11.478 291.099 11.481 C 291.93 11.484 292.764 11.487 293.589 11.493 C 294.42 11.496 295.254 11.499 296.082 11.499 C 296.907 11.49 297.735 11.493 298.566 11.496 L 298.566 11.496 L 298.566 11.496 L 298.566 11.496 L 298.566 11.496 Z M 298.566 12.615 C 298.566 12.873 298.566 13.131 298.566 13.386 C 298.566 13.644 298.566 13.902 298.566 14.157 C 298.566 14.412 298.569 14.67 298.566 14.925 C 298.566 15.18 298.569 15.438 298.566 15.693 C 297.984 15.69 297.405 15.687 296.823 15.681 C 296.241 15.678 295.662 15.672 295.08 15.666 C 294.501 15.66 293.919 15.654 293.337 15.645 C 292.755 15.639 292.176 15.633 291.591 15.624 C 291.591 15.741 291.615 15.849 291.648 15.948 C 291.687 16.047 291.744 16.14 291.81 16.215 C 291.876 16.29 291.957 16.356 292.047 16.398 C 292.137 16.44 292.239 16.467 292.341 16.467 C 293.046 16.476 293.751 16.488 294.459 16.494 C 295.167 16.503 295.872 16.512 296.58 16.518 C 297.288 16.524 297.993 16.53 298.704 16.533 C 299.409 16.539 300.114 16.542 300.822 16.545 C 300.822 16.824 300.822 17.103 300.822 17.385 C 300.822 17.664 300.822 17.943 300.822 18.222 C 300.822 18.504 300.822 18.783 300.822 19.062 C 300.822 19.341 300.822 19.62 300.822 19.902 C 300.012 19.899 299.205 19.893 298.392 19.887 C 297.579 19.878 296.775 19.869 295.959 19.86 C 295.149 19.848 294.342 19.833 293.529 19.821 C 292.719 19.806 291.912 19.791 291.099 19.77 C 290.757 19.761 290.43 19.677 290.13 19.53 C 289.833 19.383 289.566 19.173 289.341 18.918 C 289.113 18.663 288.933 18.366 288.804 18.033 C 288.681 17.7 288.609 17.334 288.609 16.956 C 288.609 16.59 288.609 16.221 288.609 15.855 C 288.609 15.486 288.609 15.12 288.609 14.751 C 288.609 14.385 288.609 14.016 288.609 13.647 C 288.609 13.281 288.609 12.912 288.609 12.543 C 289.44 12.552 290.271 12.561 291.099 12.567 C 291.93 12.573 292.761 12.579 293.589 12.585 C 294.42 12.588 295.254 12.597 296.079 12.6 C 296.907 12.612 297.735 12.615 298.566 12.615 L 298.566 12.615 L 298.566 12.615 L 298.566 12.615 L 298.566 12.615 L 298.566 12.615 L 298.566 12.615 L 298.566 12.615 L 298.566 12.615 Z M 272.964 16.224 C 272.442 16.203 271.917 16.185 271.395 16.164 C 270.873 16.14 270.348 16.119 269.829 16.098 C 269.304 16.074 268.785 16.053 268.26 16.032 C 267.741 16.008 267.213 15.984 266.694 15.96 C 266.694 16.188 266.694 16.416 266.694 16.644 C 266.694 16.872 266.694 17.1 266.694 17.328 C 266.694 17.556 266.694 17.781 266.694 18.009 C 266.694 18.237 266.694 18.465 266.694 18.69 C 267.492 18.744 268.29 18.792 269.088 18.84 C 269.886 18.888 270.687 18.933 271.485 18.981 C 272.283 19.026 273.081 19.071 273.879 19.113 C 274.677 19.158 275.475 19.2 276.273 19.236 C 276.285 19.236 276.294 19.239 276.303 19.239 C 276.315 19.239 276.324 19.239 276.333 19.239 C 276.339 19.239 276.354 19.239 276.363 19.242 C 276.372 19.242 276.384 19.245 276.393 19.245 C 276.84 19.248 277.269 19.158 277.656 18.99 C 278.043 18.816 278.394 18.567 278.685 18.258 C 278.979 17.946 279.213 17.571 279.375 17.154 C 279.537 16.737 279.63 16.278 279.63 15.789 C 279.63 15.294 279.537 14.817 279.366 14.382 C 279.198 13.95 278.952 13.557 278.649 13.224 C 278.346 12.891 277.986 12.627 277.581 12.438 C 277.179 12.249 276.738 12.144 276.273 12.135 C 275.961 12.132 275.643 12.129 275.331 12.123 C 275.016 12.117 274.701 12.114 274.386 12.108 C 274.071 12.102 273.756 12.099 273.441 12.093 C 273.129 12.09 272.814 12.084 272.502 12.078 C 272.118 11.922 271.749 11.709 271.413 11.442 C 271.077 11.181 270.774 10.872 270.516 10.527 C 270.261 10.179 270.048 9.798 269.901 9.39 C 269.76 8.985 269.676 8.553 269.676 8.106 C 269.676 7.53 269.808 6.978 270.042 6.471 C 270.273 5.967 270.603 5.508 271.008 5.115 C 271.41 4.725 271.884 4.401 272.397 4.17 C 272.913 3.942 273.468 3.804 274.035 3.786 C 274.815 3.762 275.592 3.741 276.372 3.72 C 277.152 3.696 277.929 3.678 278.709 3.657 C 279.489 3.636 280.266 3.618 281.046 3.6 C 281.823 3.582 282.6 3.567 283.383 3.552 C 283.383 3.282 283.383 3.012 283.383 2.739 C 283.383 2.469 283.383 2.196 283.383 1.923 C 283.383 1.653 283.383 1.383 283.383 1.11 C 283.383 0.837 283.383 0.57 283.383 0.294 C 282.573 0.321 281.763 0.348 280.953 0.378 C 280.143 0.408 279.333 0.438 278.523 0.468 C 277.713 0.498 276.906 0.534 276.093 0.57 C 275.28 0.606 274.473 0.642 273.663 0.681 C 272.703 0.726 271.788 0.978 270.954 1.38 C 270.123 1.782 269.37 2.34 268.74 3.003 C 268.107 3.666 267.6 4.44 267.243 5.286 C 266.892 6.132 266.7 7.05 266.7 8.007 C 266.7 8.967 266.907 9.882 267.285 10.719 C 267.66 11.556 268.203 12.321 268.863 12.972 C 269.523 13.626 270.306 14.172 271.161 14.559 C 272.019 14.946 272.946 15.18 273.909 15.21 C 273.909 15.207 273.909 15.204 273.909 15.201 C 273.909 15.201 273.909 15.195 273.909 15.192 C 273.909 15.189 273.909 15.186 273.909 15.183 C 273.909 15.18 273.909 15.177 273.909 15.174 C 273.909 15.177 273.912 15.18 273.915 15.183 C 273.918 15.186 273.918 15.189 273.921 15.195 C 273.921 15.198 273.924 15.201 273.927 15.201 C 273.927 15.204 273.93 15.207 273.93 15.21 C 274.116 15.216 274.296 15.225 274.485 15.231 C 274.668 15.234 274.854 15.243 275.037 15.246 C 275.226 15.255 275.409 15.258 275.595 15.264 C 275.778 15.273 275.964 15.279 276.15 15.285 C 276.216 15.285 276.282 15.303 276.342 15.33 C 276.399 15.357 276.456 15.399 276.498 15.444 C 276.543 15.492 276.582 15.552 276.606 15.615 C 276.633 15.678 276.645 15.747 276.645 15.819 C 276.645 15.891 276.63 15.96 276.606 16.023 C 276.576 16.083 276.543 16.14 276.498 16.185 C 276.45 16.23 276.399 16.269 276.339 16.293 C 276.279 16.317 276.216 16.329 276.147 16.326 C 275.883 16.314 275.616 16.305 275.352 16.296 C 275.088 16.284 274.821 16.275 274.557 16.266 C 274.29 16.26 274.026 16.248 273.762 16.239 C 273.492 16.245 273.231 16.233 272.964 16.224 L 272.964 16.224 L 272.964 16.224 L 272.964 16.224 L 272.964 16.224 L 272.964 16.224 L 272.964 16.224 L 272.964 16.224 L 272.964 16.224 Z M 277.083 7.404 C 277.608 7.401 278.13 7.395 278.655 7.389 C 279.18 7.386 279.702 7.383 280.227 7.377 C 280.752 7.374 281.274 7.368 281.799 7.365 C 282.324 7.362 282.846 7.356 283.371 7.353 C 283.371 7.104 283.371 6.858 283.371 6.609 C 283.371 6.36 283.371 6.111 283.371 5.862 C 283.371 5.613 283.371 5.367 283.371 5.118 C 283.371 4.869 283.371 4.623 283.371 4.374 C 282.57 4.386 281.772 4.401 280.974 4.416 C 280.173 4.431 279.372 4.446 278.574 4.464 C 277.776 4.482 276.975 4.497 276.177 4.521 C 275.376 4.542 274.578 4.557 273.777 4.581 C 273.768 4.581 273.756 4.581 273.747 4.581 C 273.738 4.581 273.726 4.581 273.717 4.581 C 273.705 4.581 273.696 4.581 273.687 4.581 C 273.678 4.581 273.663 4.581 273.657 4.581 C 273.207 4.611 272.778 4.728 272.388 4.923 C 272.004 5.115 271.656 5.379 271.362 5.694 C 271.071 6.012 270.834 6.384 270.672 6.795 C 270.51 7.2 270.417 7.641 270.417 8.106 C 270.417 8.583 270.51 9.033 270.681 9.444 C 270.849 9.855 271.098 10.227 271.401 10.545 C 271.707 10.857 272.067 11.115 272.469 11.298 C 272.871 11.478 273.315 11.583 273.78 11.589 C 274.095 11.592 274.41 11.598 274.725 11.601 C 275.037 11.604 275.352 11.607 275.667 11.613 C 275.979 11.616 276.297 11.619 276.612 11.622 C 276.924 11.625 277.242 11.628 277.554 11.634 C 277.935 11.793 278.304 12.015 278.637 12.285 C 278.976 12.558 279.279 12.882 279.537 13.248 C 279.792 13.614 280.005 14.016 280.146 14.448 C 280.29 14.877 280.371 15.339 280.371 15.813 C 280.371 16.425 280.239 17.004 280.008 17.523 C 279.777 18.045 279.444 18.504 279.042 18.885 C 278.637 19.263 278.166 19.563 277.65 19.761 C 277.134 19.956 276.576 20.049 276.009 20.016 C 275.232 19.974 274.455 19.929 273.678 19.884 C 272.904 19.839 272.124 19.794 271.347 19.743 C 270.57 19.695 269.79 19.647 269.016 19.596 C 268.242 19.545 267.459 19.491 266.685 19.437 C 266.685 19.689 266.685 19.935 266.685 20.184 C 266.685 20.433 266.685 20.682 266.685 20.931 C 266.685 21.18 266.685 21.429 266.685 21.678 C 266.685 21.924 266.685 22.173 266.685 22.422 C 267.492 22.494 268.302 22.563 269.106 22.632 C 269.916 22.704 270.723 22.77 271.533 22.83 C 272.34 22.896 273.147 22.959 273.957 23.019 C 274.767 23.079 275.574 23.136 276.384 23.193 C 277.344 23.262 278.262 23.109 279.096 22.785 C 279.93 22.458 280.686 21.948 281.316 21.297 C 281.949 20.649 282.462 19.854 282.816 18.96 C 283.17 18.069 283.365 17.073 283.365 16.026 C 283.365 14.979 283.155 13.974 282.777 13.065 C 282.402 12.153 281.859 11.334 281.196 10.647 C 280.536 9.963 279.753 9.414 278.898 9.036 C 278.04 8.655 277.107 8.454 276.147 8.457 C 276.147 8.46 276.147 8.463 276.147 8.469 C 276.147 8.472 276.147 8.478 276.147 8.481 C 276.147 8.484 276.147 8.487 276.147 8.49 C 276.147 8.493 276.147 8.499 276.147 8.502 C 276.144 8.499 276.141 8.496 276.141 8.49 C 276.138 8.487 276.135 8.484 276.135 8.481 C 276.132 8.478 276.129 8.475 276.129 8.472 C 276.126 8.469 276.123 8.463 276.123 8.46 C 275.937 8.46 275.754 8.463 275.568 8.463 C 275.382 8.463 275.199 8.463 275.013 8.466 C 274.83 8.466 274.644 8.469 274.461 8.469 C 274.275 8.469 274.092 8.469 273.906 8.469 C 273.837 8.469 273.768 8.457 273.708 8.433 C 273.648 8.406 273.597 8.37 273.555 8.325 C 273.51 8.28 273.471 8.223 273.447 8.16 C 273.423 8.097 273.411 8.028 273.411 7.956 C 273.411 7.887 273.423 7.818 273.447 7.758 C 273.474 7.698 273.51 7.641 273.555 7.593 C 273.597 7.545 273.648 7.509 273.708 7.482 C 273.768 7.452 273.834 7.44 273.903 7.44 C 274.17 7.437 274.434 7.431 274.698 7.428 C 274.962 7.425 275.229 7.425 275.493 7.422 C 275.757 7.416 276.024 7.413 276.288 7.41 C 276.555 7.41 276.822 7.407 277.083 7.404 L 277.083 7.404 L 277.083 7.404 L 277.083 7.404 L 277.083 7.404 L 277.083 7.404 L 277.083 7.404 L 277.083 7.404 L 277.083 7.404 Z" id="path37" style="fill-opacity: 1; fill: rgb(255, 255, 255);"/>
    <path id="rect7344" d="M 474.768 49.851 L 480.795 58.881 L 497.265 58.881 L 491.241 49.851 L 474.768 49.851 L 474.768 49.851 Z M 524.784 49.851 L 518.76 58.881 L 535.23 58.881 L 541.254 49.851 L 524.784 49.851 L 524.784 49.851 Z M 0 50.625 L 0 58.884 L 73.194 58.884 L 80.505 58.884 C 80.505 54.372 77.241 50.703 73.194 50.625 L 0 50.625 Z M 88.89 50.625 L 88.89 58.884 L 141.87 58.884 L 141.87 50.625 L 88.89 50.625 Z M 156.837 50.625 C 152.751 50.652 149.442 54.339 149.442 58.884 L 156.837 58.884 L 164.322 58.884 L 212.055 58.884 L 212.055 50.625 L 156.879 50.625 L 156.837 50.625 Z M 226.848 50.625 C 222.783 50.676 219.495 54.354 219.495 58.884 L 226.848 58.884 L 234.333 58.884 L 271.143 58.884 L 278.799 58.884 C 278.799 54.324 275.463 50.625 271.359 50.625 C 271.284 50.625 271.218 50.622 271.146 50.625 L 226.848 50.625 Z M 313.629 50.625 L 313.629 58.884 L 368.202 58.884 L 375.555 58.884 C 375.555 54.357 372.264 50.679 368.202 50.625 L 313.629 50.625 Z M 392.16 50.625 L 392.16 50.667 C 388.332 51.006 385.32 54.543 385.32 58.884 L 392.16 58.884 L 400.158 58.884 L 427.467 58.884 L 430.992 58.884 L 443.076 58.884 L 445.872 58.884 C 445.872 54.354 442.584 50.676 438.519 50.625 L 392.16 50.625 Z M 454.686 50.625 L 454.686 58.884 L 469.527 58.884 L 469.527 50.625 L 454.686 50.625 Z M 547.017 50.625 L 547.017 58.884 L 599.997 58.884 L 599.997 50.625 L 547.017 50.625 Z M 0 61.632 L 0 86.148 L 14.709 86.148 L 14.709 61.632 L 0 61.632 Z M 32.727 61.632 L 32.727 86.148 L 47.475 86.148 L 47.475 61.632 L 32.727 61.632 Z M 65.496 61.632 L 65.496 86.148 L 80.376 86.148 L 80.376 61.632 L 65.496 61.632 Z M 88.89 61.632 L 88.89 77.331 C 89.088 82.233 93.588 86.145 99.084 86.145 L 141.873 86.145 L 141.873 77.889 L 107.04 77.889 C 105.213 77.889 103.773 76.401 103.773 74.58 L 103.773 72.516 L 139.296 72.516 L 139.296 64.947 L 107.04 64.947 C 105.213 64.947 103.773 63.459 103.773 61.638 L 102.393 61.638 L 88.89 61.632 L 88.89 61.632 Z M 149.442 61.632 L 149.442 77.589 L 149.484 77.589 C 149.805 82.086 153.732 85.689 158.685 86.103 L 158.685 86.145 L 202.161 86.145 L 202.161 86.103 C 207.687 85.743 212.052 81.183 212.052 75.564 C 212.052 69.711 207.33 64.944 201.474 64.944 C 201.417 64.944 201.36 64.941 201.303 64.944 L 175.887 64.944 L 175.887 72.51 L 194.247 72.51 C 195.735 72.51 196.917 73.734 196.917 75.222 C 196.917 76.71 195.735 77.886 194.247 77.886 L 166.983 77.886 C 165.498 77.886 164.316 76.707 164.316 75.222 L 164.316 61.632 L 149.442 61.632 L 149.442 61.632 Z M 219.495 61.632 L 219.495 86.148 L 234.333 86.148 L 234.333 61.632 L 219.495 61.632 Z M 263.919 61.632 L 263.919 68.946 L 236.955 68.946 L 236.955 78.582 L 263.919 78.582 L 263.919 86.148 L 278.799 86.148 L 278.799 61.632 L 263.919 61.632 Z M 313.629 61.632 L 313.629 86.148 L 328.467 86.148 L 328.467 61.632 L 313.629 61.632 Z M 360.681 61.632 L 360.681 75.225 C 360.681 76.713 359.502 77.892 358.011 77.892 L 330.531 77.892 L 330.531 86.148 L 366.228 86.148 L 366.228 86.106 C 371.442 85.71 375.561 81.786 375.561 76.989 L 375.561 61.632 L 360.681 61.632 Z M 385.32 61.632 L 385.32 86.148 L 400.158 86.148 L 400.158 61.632 L 385.32 61.632 Z M 430.989 61.632 L 430.989 66.279 C 430.989 66.309 430.995 66.336 430.989 66.366 C 430.95 67.809 429.777 68.943 428.325 68.943 L 425.058 68.943 L 403.47 68.943 L 403.47 78.579 L 424.2 78.579 L 431.724 86.145 L 449.487 86.145 L 439.251 75.867 C 443.127 74.295 445.878 70.5 445.878 66.06 L 445.878 61.629 L 444.888 61.629 L 430.989 61.632 L 430.989 61.632 Z M 454.686 61.632 L 454.686 86.148 L 469.527 86.148 L 469.527 61.632 L 454.686 61.632 Z M 482.598 61.632 L 498.936 86.148 L 500.613 86.148 L 515.406 86.148 L 517.083 86.148 L 533.424 61.632 L 516.951 61.632 L 508.005 75.051 L 499.059 61.632 L 482.598 61.632 L 482.598 61.632 Z M 547.017 61.632 L 547.017 77.331 C 547.215 82.233 551.715 86.145 557.208 86.145 L 600 86.145 L 600 77.889 L 565.167 77.889 C 563.343 77.889 561.855 76.401 561.855 74.58 L 561.855 72.516 L 597.381 72.516 L 597.381 64.947 L 565.167 64.947 C 563.343 64.947 561.855 63.459 561.855 61.638 L 547.017 61.632 L 547.017 61.632 Z" style="fill-opacity: 1; fill: rgb(255, 255, 255);"/>
  </g>
</svg>