<?xml version="1.0" encoding="utf-8"?>
<svg id="svg2985" version="1.1" xmlns="http://www.w3.org/2000/svg">
  <g>
    <path id="path2999" style="fill-opacity: 1; fill-rule: evenodd; stroke: none; fill: rgb(255, 255, 255);" d="M 142.892 41.43 L 96.116 98.817 L 110.324 42.642 L 40.169 107.835 C 28.166 101.82 20.981 93.783 20.981 84.615 C 20.981 63.027 60.812 43.179 109.652 40.434 C 121.394 39.771 132.617 40.158 142.892 41.43 L 142.892 41.43 Z M 146.159 113.277 L 164.345 45.732 C 185.009 51.756 198.317 62.16 198.317 74.634 C 198.317 90.48 176.87 105.378 146.159 113.277 L 146.159 113.277 Z M 57.53 161.092 L 77.837 87.312 L 36.932 129.006 C 13.889 120.522 -0.121 107.256 0.002 91.818 C 0.002 63.414 48.8 38.151 108.635 35.58 C 121.889 35.01 134.603 35.598 146.363 37.173 L 176.657 0 L 165.665 40.839 C 196.595 48.612 217.271 63.987 217.271 82.473 C 217.271 109.767 172.205 134.158 115.595 138.307 L 134.018 72.423 L 57.53 161.092 L 57.53 161.092"/>
    <path id="path3001" style="fill-opacity: 1; fill-rule: evenodd; stroke: none; fill: rgb(255, 255, 255);" d="M 263.915 50.421 L 238.904 50.421 L 218.684 119.802 L 237.782 119.802 L 245.705 92.604 L 248.987 76.758 L 247.04 119.802 L 261.935 119.802 L 284.955 77.511 L 279.03 92.604 L 271.104 119.802 L 290.103 119.802 L 310.323 50.421 L 285.402 50.421 L 262.223 92.604 L 263.915 50.421 L 263.915 50.421"/>
    <path id="path3003" style="fill-opacity: 1; fill-rule: evenodd; stroke: none; fill: rgb(255, 255, 255);" d="M 318.435 50.421 L 298.218 119.802 L 318.936 119.802 L 339.156 50.421 L 318.435 50.421 L 318.435 50.421"/>
    <path id="path3005" style="fill-opacity: 1; fill-rule: evenodd; stroke: none; fill: rgb(255, 255, 255);" d="M 363.186 66.909 C 368.445 66.765 372.402 67.923 375.057 70.389 C 377.715 72.849 378.12 77.472 376.272 84.255 C 375.108 88.251 373.71 91.515 372.078 94.05 C 370.452 96.585 368.616 98.568 366.579 99.993 C 364.536 101.421 362.352 102.366 360.018 102.828 C 357.69 103.293 355.209 103.458 352.578 103.314 L 363.186 66.909 L 363.186 66.909 Z M 347.655 50.421 L 327.435 119.802 L 354.453 119.802 C 359.295 119.802 363.918 119.16 368.334 117.873 C 372.75 116.592 376.812 114.501 380.523 111.612 C 384.225 108.72 387.516 104.97 390.384 100.368 C 393.252 95.763 395.55 90.183 397.269 83.61 C 399.015 76.971 399.27 71.511 398.037 67.23 C 396.801 62.943 394.833 59.556 392.121 57.057 C 389.412 54.558 386.319 52.827 382.848 51.864 C 379.371 50.898 376.233 50.421 373.434 50.421 L 347.655 50.421 L 347.655 50.421"/>
    <path id="path3007" style="fill-opacity: 1; fill-rule: evenodd; stroke: none; fill: rgb(255, 255, 255);" d="M 405.99 50.421 L 401.814 119.802 L 421.863 119.802 L 440.277 79.863 L 436.089 119.802 L 456.234 119.802 L 491.349 50.421 L 471.963 50.421 L 452.799 92.604 L 458.313 50.421 L 439.503 50.421 L 421.29 92.604 L 426.615 50.421 L 405.99 50.421 L 405.99 50.421"/>
    <path id="path3009" style="fill-opacity: 1; fill-rule: evenodd; stroke: none; fill: rgb(255, 255, 255);" d="M 498.105 96.354 L 510.708 73.761 L 510.234 96.354 L 498.105 96.354 L 498.105 96.354 Z M 507.006 50.421 L 464.445 119.802 L 485.355 119.802 L 489.981 110.808 L 510.129 110.808 L 509.511 119.802 L 530.422 119.802 L 528.489 50.421 L 507.006 50.421 L 507.006 50.421"/>
    <path id="path3011" style="fill-opacity: 1; fill-rule: evenodd; stroke: none; fill: rgb(255, 255, 255);" d="M 533.266 50.421 L 543.262 94.746 L 535.963 119.802 L 556.108 119.802 L 563.407 94.746 L 600.001 50.421 L 576.325 50.421 L 559.744 72.903 L 556.18 50.421 L 533.266 50.421 L 533.266 50.421"/>
  </g>
</svg>