<?xml version="1.0" encoding="utf-8"?>
<svg version="1.0" xmlns="http://www.w3.org/2000/svg">
  <g>
    <path d="M 426.971 53.017 L 422.116 35.965 L 422.116 47.899 C 421.986 58.919 422.249 60.099 425.003 61.936 C 427.755 63.904 427.101 64.033 415.426 64.033 C 403.755 64.033 403.097 63.904 405.985 61.936 C 408.869 59.969 408.869 59.444 408.869 31.898 C 408.869 5.142 408.737 3.96 406.247 3.172 C 401.13 1.6 405.327 -0.238 413.592 0.025 L 421.853 0.287 L 423.821 6.977 C 424.871 10.649 427.101 18.389 428.676 24.161 C 430.248 29.93 431.56 34.785 431.823 35.045 C 431.953 35.178 433.398 30.455 434.97 24.553 C 436.545 18.519 438.775 10.782 439.825 7.11 L 441.66 0.55 L 469.99 0.55 L 498.324 0.55 L 500.946 3.697 C 503.176 6.585 503.438 8.29 502.783 16.814 C 502.388 22.324 502.125 27.963 502.258 29.405 C 503.046 53.804 502.651 60.491 500.158 62.328 C 498.061 63.771 491.371 64.166 466.713 64.033 C 438.25 64.033 436.02 63.904 438.775 61.936 C 441.397 60.099 441.66 58.919 441.53 47.899 L 441.397 35.965 L 439.43 43.18 C 438.38 47.115 436.15 54.851 434.578 60.231 L 431.693 70.068 L 426.971 53.017 Z M 463.696 32.16 L 463.303 3.172 L 459.366 3.172 L 455.431 3.172 L 455.039 31.373 C 454.776 55.772 455.039 59.836 456.744 61.016 C 457.923 61.936 460.023 62.328 461.466 61.936 C 463.958 61.278 463.958 60.099 463.696 32.16 Z M 488.617 45.54 L 488.224 34.653 L 482.714 34.26 L 477.075 33.865 L 477.075 45.014 L 477.075 56.294 L 482.977 56.294 L 489.009 56.294 L 488.617 45.54 Z M 488.879 17.601 L 488.879 9.077 L 482.977 9.077 L 477.075 9.077 L 477.075 17.601 L 477.075 26.129 L 482.977 26.129 L 488.879 26.129 L 488.879 17.601 Z" style="fill: rgb(255, 255, 255);"/>
    <path d="M 26.919 67.443 C 26.527 66.655 24.559 59.706 22.459 51.704 L 18.657 37.275 L 18.262 48.424 C 17.87 58.656 18.132 59.706 20.887 61.803 C 23.772 64.033 23.639 64.166 11.443 64.033 C -0.232 64.033 -0.886 63.904 1.998 61.936 C 4.883 59.969 4.883 59.444 4.883 31.898 C 4.883 5.142 4.753 3.96 2.261 3.172 C -2.724 1.6 0.948 0.158 9.213 0.42 L 17.345 0.55 L 20.229 9.732 C 21.805 14.846 24.164 22.716 25.477 27.176 L 27.836 35.57 L 32.559 17.994 L 37.281 0.55 L 46.071 0.42 C 54.595 0.287 58.529 1.6 53.415 2.913 C 50.923 3.567 50.793 4.747 50.793 31.898 C 50.793 55.901 51.052 60.491 52.76 61.016 C 57.612 62.983 53.807 64.166 43.316 64.166 L 31.904 64.166 L 34.788 61.541 C 37.414 59.048 37.676 57.606 37.543 47.377 L 37.414 35.965 L 35.446 42.522 C 34.396 46.194 32.296 53.542 30.591 58.919 C 29.019 64.296 27.444 68.101 26.919 67.443 Z" style="fill: rgb(255, 255, 255);"/>
    <path d="M 61.284 62.853 C 58.4 61.149 57.612 7.11 60.367 3.305 C 61.939 1.075 64.039 0.812 79.516 0.683 C 95.257 0.55 97.092 0.812 98.797 3.042 C 101.685 6.977 101.422 59.181 98.534 62.066 C 96.962 63.771 93.29 64.166 79.911 64.166 C 70.729 64.166 62.334 63.508 61.284 62.853 Z M 86.205 52.754 C 86.468 24.421 86.338 10.387 85.813 9.469 C 85.418 8.815 82.403 8.552 79.123 8.815 L 73.089 9.34 L 73.089 32.815 L 73.089 56.294 L 79.648 56.294 C 85.943 56.294 86.205 56.164 86.205 52.754 Z" style="fill: rgb(255, 255, 255);"/>
    <path d="M 104.569 62.983 C 104.569 62.328 105.486 61.541 106.537 61.016 C 108.241 60.491 108.504 55.901 108.504 32.031 C 108.504 8.157 108.241 3.567 106.537 3.042 C 101.027 0.812 106.404 0.158 123.98 0.55 C 148.246 1.205 147.854 0.945 147.854 19.701 C 147.854 31.635 147.591 33.078 144.837 35.703 L 141.952 38.587 L 148.509 49.474 C 153.623 58.001 155.853 60.491 158.741 61.149 C 165.56 62.591 163.723 64.166 155.461 64.166 C 150.346 64.166 146.149 63.378 144.441 62.199 C 142.869 61.149 138.539 55.247 134.605 49.082 C 129.098 40.425 126.868 37.933 124.901 38.195 C 122.538 38.587 122.275 39.637 122.275 49.344 C 122.275 58.523 122.671 60.361 124.901 62.066 C 127.26 63.904 126.605 64.033 116.111 64.166 C 109.684 64.166 104.569 63.641 104.569 62.983 Z M 133.687 20.619 C 134.079 15.371 134.079 10.649 133.817 10.124 C 133.554 9.469 130.67 9.077 127.39 9.077 L 121.621 9.077 L 121.621 19.569 L 121.621 30.063 L 127.39 30.063 L 133.162 30.063 L 133.687 20.619 Z" style="fill: rgb(255, 255, 255);"/>
    <path d="M 169.887 61.936 C 172.775 59.969 172.775 59.311 172.775 34.523 L 172.775 9.077 L 167.135 9.077 C 161.493 9.077 157.033 11.829 157.033 15.371 C 157.033 16.289 156.378 16.947 155.591 16.947 C 154.673 16.947 154.544 15.109 155.066 11.437 C 157.033 -0.238 155.328 0.55 179.464 0.55 L 200.976 0.55 L 201.76 5.797 C 202.155 8.682 202.943 12.354 203.465 14.059 C 204.777 17.994 201.893 17.864 200.451 13.796 C 199.008 10.257 196.646 9.077 190.351 9.077 L 185.892 9.077 L 185.892 34.26 C 185.892 55.772 186.154 59.706 188.121 61.803 C 190.089 64.033 189.826 64.166 178.544 64.033 C 167.528 64.033 167.003 63.904 169.887 61.936 Z" style="fill: rgb(255, 255, 255);"/>
    <path d="M 194.811 61.803 C 197.171 59.969 199.793 53.146 206.22 31.898 C 213.697 7.239 214.352 4.355 212.384 2.913 C 211.205 1.992 210.55 1.205 210.942 1.075 C 214.089 0.683 230.486 0.55 230.486 0.945 C 230.486 1.337 229.698 2.255 228.651 3.042 C 227.076 4.222 227.731 7.632 232.716 24.161 C 243.21 59.836 243.732 60.886 248.192 60.886 L 252.127 60.886 L 252.522 33.34 C 252.785 7.239 252.785 5.664 250.292 3.697 C 248.85 2.517 247.93 1.337 248.192 1.075 C 248.85 0.287 269.836 0.812 270.623 1.6 C 271.016 1.992 270.098 2.65 268.656 3.172 C 266.031 3.96 265.901 4.88 265.901 30.193 L 265.901 56.294 L 274.296 56.294 C 281.903 56.294 283.345 55.901 288.722 51.704 C 292.002 49.212 294.757 47.769 294.757 48.424 C 294.757 49.082 293.182 52.884 291.214 56.951 L 287.675 64.166 L 257.507 64.166 C 229.961 64.166 227.468 64.033 229.436 62.066 C 231.141 60.361 231.273 59.181 229.831 54.589 L 228.256 49.082 L 220.649 49.082 L 213.042 49.082 L 211.337 54.851 C 209.762 60.099 209.892 60.886 211.859 62.328 C 213.697 63.771 212.384 64.033 202.943 64.033 C 191.923 64.166 191.794 64.033 194.811 61.803 Z M 225.109 38.983 C 225.109 38.062 223.929 34.39 222.746 30.718 L 220.387 24.161 L 218.286 31.635 C 216.977 35.703 216.057 39.375 216.057 39.767 C 216.057 40.162 218.157 40.555 220.649 40.555 C 223.534 40.555 225.239 39.9 225.109 38.983 Z" style="fill: rgb(255, 255, 255);"/>
    <path d="M 303.939 62.983 C 303.939 62.328 304.856 61.541 305.906 61.016 C 307.611 60.491 307.873 56.031 307.873 32.948 C 307.873 10.124 307.478 5.142 305.906 3.83 C 302.496 0.945 303.676 0.42 314.168 0.55 C 327.284 0.812 327.284 0.812 323.875 3.305 C 321.253 5.142 320.99 6.452 320.99 16.026 L 320.99 26.783 L 328.202 15.634 C 335.679 4.092 336.466 2.517 333.844 2.517 C 333.057 2.517 332.794 2.125 333.187 1.6 C 334.499 0.42 355.093 0.158 355.748 1.337 C 356.14 1.862 354.96 2.65 353.126 3.042 C 350.763 3.697 347.221 7.765 341.189 16.814 L 332.662 29.668 L 342.106 45.014 C 349.846 57.739 352.205 60.491 355.223 61.149 C 361.65 62.458 359.42 64.166 351.288 64.166 C 341.714 64.166 338.696 61.936 331.219 49.474 L 325.842 40.292 L 323.483 43.439 C 320.332 47.377 320.07 59.969 322.958 61.016 C 327.68 62.853 324.137 64.166 314.43 64.166 C 308.661 64.166 303.939 63.641 303.939 62.983 Z" style="fill: rgb(255, 255, 255);"/>
    <path d="M 361.387 62.721 C 359.29 61.541 359.028 58.656 359.028 32.815 C 359.028 7.765 359.29 3.96 361.258 2.387 C 364.012 0.025 394.835 0.158 397.72 2.517 C 399.295 3.83 399.687 9.207 399.687 32.556 C 399.687 52.884 399.295 61.411 398.112 62.591 C 396.145 64.558 364.667 64.688 361.387 62.721 Z M 386.571 32.685 L 386.571 9.077 L 379.356 9.077 L 372.144 9.077 L 372.144 31.768 C 372.144 44.36 372.537 54.984 373.062 55.376 C 373.454 55.901 376.734 56.294 380.276 56.294 L 386.571 56.294 L 386.571 32.685 Z" style="fill: rgb(255, 255, 255);"/>
    <path d="M 503.308 62.853 C 503.308 62.199 504.226 61.541 505.276 61.541 C 508.028 61.541 508.815 59.574 517.605 30.718 C 524.949 6.585 525.474 4.355 523.374 2.913 C 522.194 1.992 521.407 1.205 521.802 1.075 C 524.819 0.55 541.346 0.42 541.346 0.945 C 541.346 1.337 540.558 2.255 539.508 3.042 C 536.886 5.142 553.15 58.523 557.477 61.803 C 560.232 64.033 559.969 64.166 549.215 64.033 C 539.508 64.033 538.328 63.904 540.426 62.328 C 542.655 60.624 542.655 60.099 540.951 54.722 L 538.983 49.082 L 531.769 48.687 L 524.557 48.294 L 522.59 54.064 C 520.752 59.444 520.882 60.099 522.719 62.066 C 524.687 64.033 524.032 64.166 514.062 64.166 C 507.768 64.166 503.308 63.641 503.308 62.853 Z M 536.099 39.767 C 536.099 39.375 535.181 35.703 533.998 31.635 L 531.769 24.161 L 529.409 31.373 C 526.262 40.817 526.262 40.555 531.506 40.555 C 533.998 40.555 536.099 40.162 536.099 39.767 Z" style="fill: rgb(255, 255, 255);"/>
    <path d="M 564.954 62.983 C 564.954 62.328 565.871 61.541 566.921 61.016 C 568.626 60.491 568.889 56.294 568.889 34.653 L 568.889 9.077 L 563.642 9.077 C 558.527 9.077 554.33 11.699 552.887 15.767 C 551.183 20.356 550.92 15.504 552.362 8.419 L 553.938 0.55 L 575.449 0.55 L 596.957 0.55 L 598.007 5.797 C 598.532 8.682 599.319 12.354 599.712 14.059 C 600.762 18.126 598.794 17.601 596.172 13.012 C 594.205 9.599 593.285 9.077 587.908 9.077 L 582.005 9.077 L 582.005 34.523 C 582.005 59.311 582.005 59.969 585.023 61.936 C 587.778 63.904 587.253 64.033 576.496 64.033 C 570.069 64.166 564.954 63.641 564.954 62.983 Z" style="fill: rgb(255, 255, 255);"/>
  </g>
</svg>