<?xml version="1.0" encoding="utf-8"?>
<svg xmlns="http://www.w3.org/2000/svg">
  <path style="fill-opacity: 1; fill-rule: evenodd; stroke: rgb(0, 0, 0); stroke-width: 0; stroke-miterlimit: 4; stroke-opacity: 1; stroke-dasharray: none; fill: rgb(255, 255, 255);" d="M 140.625 0 L 0 140.625 L 37.5 140.625 L 131.25 46.875 L 131.25 140.625 L 150 140.625 L 243.75 46.875 L 243.75 140.625 L 271.875 140.625 L 271.875 0 L 253.125 0 L 159.375 93.75 L 159.375 0 L 140.625 0 Z M 323.438 0 C 300.141 0 281.25 18.891 281.25 42.188 C 281.25 65.484 300.141 84.375 323.438 84.375 L 360.938 84.375 C 368.7 84.375 375 90.675 375 98.438 C 375 106.2 368.7 112.5 360.938 112.5 L 281.25 112.5 L 281.25 140.625 L 360.938 140.625 C 384.234 140.625 403.125 121.734 403.125 98.438 C 403.125 75.141 384.234 56.25 360.938 56.25 L 323.438 56.25 C 315.675 56.25 309.375 49.95 309.375 42.188 C 309.375 34.425 315.675 28.125 323.438 28.125 L 403.125 28.125 L 403.125 0 L 323.438 0 Z M 412.5 0 L 412.5 98.438 C 412.5 121.734 431.391 140.625 454.688 140.625 L 492.188 140.625 C 515.484 140.625 534.375 121.734 534.375 98.438 L 534.375 0 L 506.25 0 L 506.25 98.438 C 506.25 106.2 499.95 112.5 492.188 112.5 L 454.688 112.5 C 446.925 112.5 440.625 106.2 440.625 98.438 L 440.625 0 L 412.5 0 Z M 581.25 0 L 543.75 37.5 L 543.75 56.25 L 571.875 56.25 L 571.875 140.625 L 600 140.625 L 600 0 L 581.25 0 Z" id="path3758"/>
  <path style="fill-opacity: 1; stroke: rgb(0, 0, 0); stroke-width: 0; stroke-linecap: butt; stroke-linejoin: miter; stroke-miterlimit: 4; stroke-opacity: 1; stroke-dasharray: none; fill: rgb(255, 255, 255);" d="M 0 150 L 0 168.75 L 600 168.75 L 600 150 Z" id="path3798"/>
  <path d="M 38.897 177.544 L 27.366 177.544 L 20.456 207 L 13.416 177.544 L 1.744 177.544 L 1.744 214.641 L 9.178 214.641 L 9.178 183.178 L 16.284 214.641 L 24.169 214.641 L 31.462 183.178 L 31.462 214.641 L 38.897 214.641 L 38.897 177.544" id="path3806" style="fill: rgb(255, 255, 255);"/>
  <path d="M 74.85 177.544 L 46.631 177.544 L 46.631 214.641 L 75.759 214.641 L 75.759 208.078 L 54.45 208.078 L 54.45 198.469 L 73.219 198.469 L 73.219 191.906 L 54.45 191.906 L 54.45 184.106 L 74.85 184.106 L 74.85 177.544" id="path3808" style="fill: rgb(255, 255, 255);"/>
  <path d="M 82.266 214.641 L 98.888 214.641 C 103.125 214.641 106.838 213.244 109.378 210.769 C 112.903 207.206 114.853 201.722 114.853 195.319 C 114.853 184.059 109.125 177.544 99.216 177.544 L 82.266 177.544 L 82.266 214.641 M 90.094 183.9 L 97.781 183.9 C 100.388 183.9 102.347 184.575 103.716 185.859 C 105.666 187.772 106.706 191.138 106.706 195.525 C 106.706 203.587 103.453 208.284 97.913 208.284 L 90.094 208.284 L 90.094 183.9" id="path3810" style="fill: rgb(255, 255, 255);"/>
  <path d="M 128.203 177.544 L 120.188 177.544 L 120.188 214.641 L 128.203 214.641 L 128.203 177.544" id="path3812" style="fill: rgb(255, 255, 255);"/>
  <path d="M 143.878 207 L 158.025 207 L 160.5 214.641 L 169.238 214.641 L 155.681 177.544 L 146.419 177.544 L 132.731 214.641 L 141.206 214.641 L 143.878 207 M 150.984 185.756 L 155.813 200.644 L 146.034 200.644 L 150.984 185.756" id="path3814" style="fill: rgb(255, 255, 255);"/>
  <path d="M 217.416 177.544 L 189.197 177.544 L 189.197 214.641 L 218.334 214.641 L 218.334 208.078 L 197.016 208.078 L 197.016 198.469 L 215.794 198.469 L 215.794 191.906 L 197.016 191.906 L 197.016 184.106 L 217.416 184.106 L 217.416 177.544" id="path3816" style="fill: rgb(255, 255, 255);"/>
  <path d="M 248.306 203.587 L 232.922 177.544 L 224.512 177.544 L 224.512 214.641 L 231.947 214.641 L 231.947 188.034 L 247.781 214.641 L 255.731 214.641 L 255.731 177.544 L 248.306 177.544 L 248.306 203.587" id="path3818" style="fill: rgb(255, 255, 255);"/>
  <path d="M 286.163 197.953 L 286.163 214.641 L 294.178 214.641 L 294.178 177.544 L 286.163 177.544 L 286.163 191.597 L 271.172 191.597 L 271.172 177.544 L 263.147 177.544 L 263.147 214.641 L 271.172 214.641 L 271.172 197.953 L 286.163 197.953" id="path3820" style="fill: rgb(255, 255, 255);"/>
  <path d="M 310.125 207 L 324.272 207 L 326.747 214.641 L 335.484 214.641 L 321.928 177.544 L 312.675 177.544 L 298.987 214.641 L 307.453 214.641 L 310.125 207 M 317.231 185.756 L 322.059 200.644 L 312.281 200.644 L 317.231 185.756" id="path3822" style="fill: rgb(255, 255, 255);"/>
  <path d="M 364.012 203.587 L 348.638 177.544 L 340.228 177.544 L 340.228 214.641 L 347.653 214.641 L 347.653 188.034 L 363.497 214.641 L 371.447 214.641 L 371.447 177.544 L 364.012 177.544 L 364.012 203.587" id="path3824" style="fill: rgb(255, 255, 255);"/>
  <path d="M 411.647 189.684 C 411.253 186.741 410.672 185.194 409.238 183.122 C 406.303 178.941 401.288 176.559 395.222 176.559 C 384.272 176.559 377.428 184.106 377.428 196.2 C 377.428 208.238 384.141 215.625 395.025 215.625 C 400.106 215.625 404.409 213.975 407.344 210.816 C 409.566 208.444 410.606 206.325 411.647 201.928 L 403.631 201.928 C 403.041 204 402.656 204.928 401.803 206.016 C 400.238 207.928 397.959 208.913 395.156 208.913 C 389.166 208.913 385.575 204.15 385.575 196.247 C 385.575 188.081 389.222 183.281 395.419 183.281 C 398.091 183.281 400.369 184.209 401.738 185.756 C 402.591 186.844 403.041 187.669 403.631 189.684 L 411.647 189.684" id="path3826" style="fill: rgb(255, 255, 255);"/>
  <path d="M 445.913 177.544 L 417.694 177.544 L 417.694 214.641 L 446.831 214.641 L 446.831 208.078 L 425.513 208.078 L 425.513 198.469 L 444.291 198.469 L 444.291 191.906 L 425.513 191.906 L 425.513 184.106 L 445.913 184.106 L 445.913 177.544" id="path3828" style="fill: rgb(255, 255, 255);"/>
  <path d="M 490.163 177.544 L 478.622 177.544 L 471.713 207 L 464.681 177.544 L 453.009 177.544 L 453.009 214.641 L 460.444 214.641 L 460.444 183.178 L 467.55 214.641 L 475.434 214.641 L 482.728 183.178 L 482.728 214.641 L 490.163 214.641 L 490.163 177.544" id="path3830" style="fill: rgb(255, 255, 255);"/>
  <path d="M 526.116 177.544 L 497.888 177.544 L 497.888 214.641 L 527.025 214.641 L 527.025 208.078 L 505.716 208.078 L 505.716 198.469 L 524.484 198.469 L 524.484 191.906 L 505.716 191.906 L 505.716 184.106 L 526.116 184.106 L 526.116 177.544" id="path3832" style="fill: rgb(255, 255, 255);"/>
  <path d="M 556.997 203.587 L 541.612 177.544 L 533.213 177.544 L 533.213 214.641 L 540.638 214.641 L 540.638 188.034 L 556.472 214.641 L 564.431 214.641 L 564.431 177.544 L 556.997 177.544 L 556.997 203.587" id="path3834" style="fill: rgb(255, 255, 255);"/>
  <path d="M 588.403 184.106 L 600 184.106 L 600 177.544 L 568.781 177.544 L 568.781 184.106 L 580.378 184.106 L 580.378 214.641 L 588.403 214.641 L 588.403 184.106" id="path3836" style="fill: rgb(255, 255, 255);"/>
</svg>