<?xml version="1.0" encoding="utf-8"?>
<svg version="1.1" xmlns="http://www.w3.org/2000/svg">
  <g>
    <polygon id="polygon3518" points="33.122 85.023 62.473 85.023 62.473 19.803 42.615 19.803 42.615 57.202 42.444 57.202 29.347 19.803 0 19.803 0 85.023 19.846 85.023 19.846 47.375 20.025 47.375" style="fill-opacity: 1; fill: rgb(255, 255, 255);"/>
    <polygon id="polygon3520" points="143.849 85.023 173.2 85.023 173.2 19.803 153.354 19.803 153.354 57.202 153.175 57.202 140.078 19.803 110.731 19.803 110.731 85.023 130.589 85.023 130.589 47.375 130.76 47.375" style="fill-opacity: 1; fill: rgb(255, 255, 255);"/>
    <polygon id="polygon3522" points="334.517 85.023 363.872 85.023 363.872 19.803 344.018 19.803 344.018 57.202 343.843 57.202 330.75 19.803 301.399 19.803 301.399 85.023 321.249 85.023 321.249 47.375 321.424 47.375" style="fill-opacity: 1; fill: rgb(255, 255, 255);"/>
    <polygon id="polygon3524" points="74.46 19.803 98.942 19.803 98.942 85.023 74.46 85.023" style="fill-opacity: 1; fill: rgb(255, 255, 255);"/>
    <polygon id="polygon3526" points="195.856 37.52 180.299 37.52 180.299 19.803 235.941 19.803 235.941 37.52 220.33 37.52 220.33 85.023 195.856 85.023" style="fill-opacity: 1; fill: rgb(255, 255, 255);"/>
    <polygon id="polygon3536" points="243.169 19.783 291.583 19.783 291.583 37.037 267.265 37.037 267.265 43.856 289.657 43.856 289.657 60.577 267.265 60.577 267.265 67.894 292.362 67.894 292.362 85.004 243.169 85.004" style="fill-opacity: 1; fill: rgb(255, 255, 255);"/>
    <path id="path3528" d="M 374.408 19.803 L 403.412 19.803 C 428.147 19.803 436.02 33.803 436.02 53.135 C 436.02 72.829 423.873 85.023 404.876 85.023 L 374.408 85.023 L 374.408 19.803 L 374.408 19.803 Z M 398.372 70.202 L 400.758 70.202 C 404.697 70.202 407.335 68.996 408.877 66.376 C 410.5 63.663 410.687 58.728 410.687 52.411 C 410.687 46.09 410.5 41.159 408.877 38.442 C 407.335 35.819 404.697 34.612 400.758 34.612 L 398.372 34.612 L 398.372 70.202 L 398.372 70.202 Z" style="fill-opacity: 1; fill: rgb(255, 255, 255);"/>
    <path id="path3530" d="M 474.397 18.09 C 495.706 18.09 506.312 32.086 506.312 52.411 C 506.312 72.74 495.702 86.74 474.397 86.74 C 453.08 86.74 442.477 72.74 442.477 52.411 C 442.477 32.086 453.076 18.09 474.397 18.09 L 474.397 18.09 Z M 474.397 70.214 C 478.157 70.214 480.986 68.365 480.986 52.411 C 480.986 36.815 478.324 34.612 474.397 34.612 C 470.462 34.612 467.804 36.815 467.804 52.411 C 467.804 68.365 470.629 70.214 474.397 70.214 L 474.397 70.214 Z" style="fill-opacity: 1; fill: rgb(255, 255, 255);"/>
    <polygon id="polygon3566" points="33.122 85.023 62.473 85.023 62.473 19.803 42.615 19.803 42.615 57.202 42.444 57.202 29.347 19.803 0 19.803 0 85.023 19.846 85.023 19.846 47.375 20.025 47.375" style="fill-opacity: 1; fill: rgb(255, 255, 255);"/>
    <polygon id="polygon3568" points="143.849 85.023 173.2 85.023 173.2 19.803 153.354 19.803 153.354 57.202 153.175 57.202 140.078 19.803 110.731 19.803 110.731 85.023 130.589 85.023 130.589 47.375 130.76 47.375" style="fill-opacity: 1; fill: rgb(255, 255, 255);"/>
    <polygon id="polygon3570" points="334.517 85.023 363.872 85.023 363.872 19.803 344.018 19.803 344.018 57.202 343.843 57.202 330.75 19.803 301.399 19.803 301.399 85.023 321.249 85.023 321.249 47.375 321.424 47.375" style="fill-opacity: 1; fill: rgb(255, 255, 255);"/>
    <polygon id="polygon3572" points="74.46 19.803 98.942 19.803 98.942 85.023 74.46 85.023" style="fill-opacity: 1; fill: rgb(255, 255, 255);"/>
    <polygon id="polygon3574" points="195.856 37.52 180.299 37.52 180.299 19.803 235.941 19.803 235.941 37.52 220.33 37.52 220.33 85.023 195.856 85.023" style="fill-opacity: 1; fill: rgb(255, 255, 255);"/>
    <polygon id="polygon3576" points="243.169 19.783 291.583 19.783 291.583 37.037 267.265 37.037 267.265 43.856 289.657 43.856 289.657 60.577 267.265 60.577 267.265 67.894 292.362 67.894 292.362 85.004 243.169 85.004" style="fill-opacity: 1; fill: rgb(255, 255, 255);"/>
    <path id="path3532" d="M 550.095 11.131 C 548.791 11.018 547.526 11.069 545.759 11.151 C 535.433 11.629 531.257 16.027 529.84 21.002 L 530.089 21.002 C 532.662 18.752 535.838 17.705 540.096 17.705 C 548.289 17.705 555.77 23.66 555.77 34.834 C 555.77 45.526 547.55 53.855 536.519 53.855 C 521.986 53.855 515.669 42.755 515.669 30.853 C 515.669 21.188 519.098 12.999 524.726 7.718 C 530.086 2.755 536.99 0.249 545.448 0.054 C 547.686 -0.074 549.017 0.054 550.095 0.151 L 550.095 11.131 L 550.095 11.131 Z M 536.336 43.339 C 539.684 43.339 541.715 39.917 541.715 35.547 C 541.688 31.861 539.999 27.84 535.507 27.84 C 532.767 27.84 530.627 29.58 529.821 31.678 C 529.51 32.324 529.389 33.238 529.389 34.795 C 529.677 38.964 531.685 43.339 536.255 43.339 L 536.336 43.339 L 536.336 43.339 Z" style="fill-opacity: 1; fill: rgb(255, 255, 255);"/>
    <path id="path3534" d="M 581.376 52.976 L 581.376 41.272 L 559.619 41.272 L 559.619 31.919 L 577.087 0.79 L 594.469 0.79 L 594.469 30.549 L 600 30.549 L 600 41.272 L 594.469 41.272 L 594.469 52.976 L 581.376 52.976 L 581.376 52.976 Z M 581.376 30.549 L 581.376 21.582 C 581.376 18.265 581.575 14.821 581.746 11.193 L 581.462 11.193 C 579.843 14.716 578.434 18.067 576.597 21.706 L 572.319 30.393 L 572.272 30.553 L 581.376 30.549 L 581.376 30.549 Z" style="fill-opacity: 1; fill: rgb(255, 255, 255);"/>
  </g>
</svg>