<?xml version="1.0" encoding="utf-8"?>
<svg version="1.1" xmlns="http://www.w3.org/2000/svg">
  <g>
    <path d="M 35.961 115.284 L 35.889 71.271 L 41.589 71.271 L 41.589 123.972 L 35.889 123.972 L 5.556 79.602 L 5.697 123.972 L 0 123.972 L 0 71.271 L 5.982 71.271 L 35.961 115.284 Z" id="path7" style="fill-opacity: 1; fill: rgb(255, 255, 255);"/>
    <path d="M 47.952 71.271 L 75.912 71.271 L 75.912 76.47 L 53.793 76.47 L 53.793 94.773 L 75.771 94.773 L 75.771 99.972 L 53.793 99.972 L 53.793 118.773 L 75.912 118.773 L 75.912 123.972 L 47.952 123.972 L 47.952 71.271 Z" id="path9" style="fill-opacity: 1; fill: rgb(255, 255, 255);"/>
    <path d="M 78.573 97.764 C 78.573 81.528 91.179 70.344 106.065 70.344 C 121.518 70.344 133.554 82.167 133.554 97.62 C 133.554 113.076 121.59 124.899 106.065 124.899 C 90.468 124.899 78.573 112.863 78.573 97.836 L 78.573 97.764 Z M 84.483 97.62 C 84.483 110.013 93.813 119.7 106.134 119.7 C 118.599 119.7 127.716 109.659 127.716 97.62 C 127.716 85.584 118.599 75.543 106.065 75.543 C 93.672 75.543 84.483 85.371 84.483 97.548 L 84.483 97.62 Z" id="path11" style="fill-opacity: 1; fill: rgb(255, 255, 255);"/>
    <path d="M 182.202 84.945 C 180.564 82.665 178.569 80.742 176.292 79.248 C 172.872 76.896 168.741 75.543 164.043 75.543 C 152.505 75.543 142.464 84.375 142.464 97.548 C 142.464 110.937 152.577 119.769 164.112 119.769 C 169.668 119.769 174.582 117.849 178.215 114.999 C 181.92 112.077 184.482 108.09 185.337 103.956 L 156.651 103.956 L 156.651 99.114 L 192.174 99.114 C 192.102 102.177 191.391 106.023 189.822 109.299 C 185.265 119.199 174.723 124.968 164.112 124.968 C 148.731 124.968 136.551 113.145 136.551 97.548 C 136.551 81.738 148.944 70.341 164.184 70.341 C 174.867 70.341 184.767 76.326 188.898 84.942 L 182.202 84.942 L 182.202 84.945 Z" id="path13" style="fill-opacity: 1; fill: rgb(255, 255, 255);"/>
    <path d="M 195 71.271 L 224.199 71.271 L 224.199 76.47 L 200.841 76.47 L 200.841 94.773 L 224.055 94.773 L 224.055 99.972 L 200.841 99.972 L 200.841 118.773 L 224.199 118.773 L 224.199 123.972 L 195 123.972 L 195 71.271 Z" id="path15" style="fill-opacity: 1; fill: rgb(255, 255, 255);"/>
    <path d="M 226.548 97.764 C 226.548 81.528 239.154 70.344 254.04 70.344 C 269.493 70.344 281.529 82.167 281.529 97.62 C 281.529 113.076 269.565 124.899 254.04 124.899 C 238.443 124.899 226.548 112.863 226.548 97.836 L 226.548 97.764 Z M 232.461 97.62 C 232.461 110.013 241.788 119.7 254.109 119.7 C 266.574 119.7 275.688 109.659 275.688 97.62 C 275.688 85.584 266.574 75.543 254.04 75.543 C 241.647 75.543 232.461 85.371 232.461 97.548 L 232.461 97.62 L 232.461 97.62 Z" id="path17" style="fill-opacity: 1; fill: rgb(255, 255, 255);"/>
    <path d="M 346.569 97.764 C 346.569 81.528 359.175 70.344 374.061 70.344 C 389.517 70.344 401.553 82.167 401.553 97.62 C 401.553 113.076 389.589 124.899 374.061 124.899 C 358.464 124.899 346.569 112.863 346.569 97.836 L 346.569 97.764 Z M 352.479 97.62 C 352.479 110.013 361.809 119.7 374.133 119.7 C 386.595 119.7 395.712 109.659 395.712 97.62 C 395.712 85.584 386.598 75.543 374.061 75.543 C 361.671 75.543 352.479 85.371 352.479 97.548 L 352.479 97.62 Z" id="path21" style="fill-opacity: 1; fill: rgb(255, 255, 255);"/>
    <path d="M 460.377 109.8 C 456.96 117.921 447.774 124.902 436.164 124.902 C 420.567 124.902 408.675 112.863 408.675 97.623 C 408.675 82.596 420.282 70.347 436.092 70.347 C 449.124 70.347 457.314 79.035 460.377 85.731 L 454.038 85.731 C 452.256 82.596 446.274 75.546 436.092 75.546 C 423.771 75.546 414.513 85.302 414.513 97.551 C 414.513 110.016 423.84 119.7 436.092 119.7 C 447.132 119.7 452.757 111.795 454.038 109.8 L 460.377 109.8 Z" id="path23" style="fill-opacity: 1; fill: rgb(255, 255, 255);"/>
    <path d="M 518.208 71.271 L 547.41 71.271 L 547.41 76.47 L 524.052 76.47 L 524.052 94.773 L 547.266 94.773 L 547.266 99.972 L 524.052 99.972 L 524.052 118.773 L 547.41 118.773 L 547.41 123.972 L 518.208 123.972 L 518.208 71.271 L 518.208 71.271 Z" id="path25" style="fill-opacity: 1; fill: rgb(255, 255, 255);"/>
    <path d="M 577.035 76.47 L 560.052 76.47 L 560.052 71.271 L 600 71.271 L 600 76.47 L 582.948 76.47 L 582.948 123.972 L 577.035 123.972 L 577.035 76.47 Z" id="path27" style="fill-opacity: 1; fill: rgb(255, 255, 255);"/>
    <path d="M 503.319 123.972 L 510.654 123.972 L 483.273 97.548 L 508.443 71.268 L 502.035 71.268 L 474.408 99.843 L 474.408 93.072 L 474.408 71.271 L 468.567 71.271 L 468.567 123.972 L 474.408 123.972 L 474.408 106.797 L 479.784 101.181 L 503.319 123.972 Z" id="path29" style="fill-opacity: 1; fill: rgb(255, 255, 255);"/>
    <path d="M 320.457 128.001 C 308.988 105.189 297.549 82.44 286.104 59.673 C 286.167 59.628 286.218 59.586 286.275 59.556 C 289.131 58.095 291.987 56.637 294.84 55.176 C 298.872 53.118 302.91 51.069 306.939 48.999 C 311.175 46.821 315.627 45.513 320.433 45.669 C 323.706 45.774 326.703 46.725 329.337 48.732 C 331.659 50.505 333.3 52.806 334.56 55.407 C 335.754 57.873 336.606 60.444 336.654 63.213 C 336.723 67.062 335.559 70.542 333.495 73.773 C 332.115 75.933 330.537 77.922 328.686 79.683 C 327.411 80.895 326.049 82.014 324.729 83.175 C 319.893 79.743 315.162 76.389 310.41 73.02 C 311.31 69.726 312.201 66.462 313.095 63.189 C 317.712 63.189 322.263 63.189 326.79 63.189 C 326.79 59.721 326.79 56.28 326.79 52.791 C 319.719 52.86 312.726 52.926 305.733 52.995 C 303.186 60.195 300.651 67.353 298.113 74.526 C 306.3 81.297 314.457 88.044 322.623 94.8 C 325.869 93.561 328.947 92.037 331.845 90.156 C 336.462 87.156 340.311 83.388 343.137 78.642 C 345.765 74.229 347.082 69.423 347.154 64.29 C 347.199 61.11 346.716 58.002 345.78 54.954 C 344.541 50.913 342.621 47.259 339.69 44.196 C 334.2 38.445 327.465 35.355 319.497 35.07 C 314.787 34.905 310.332 35.967 306.129 38.079 C 304.236 39.03 302.382 40.059 300.474 40.983 C 296.232 43.035 291.966 45.045 287.709 47.067 C 283.956 48.852 280.2 50.628 276.447 52.407 C 275.178 53.01 273.906 53.613 272.637 54.219 C 285.384 80.211 298.119 106.176 310.845 132.138 C 314.073 130.749 317.235 129.387 320.457 128.001 Z" id="path31" style="fill-opacity: 1; fill: rgb(255, 255, 255);"/>
    <path d="M 320.457 128.001 C 317.232 129.387 314.073 130.749 310.842 132.138 C 298.116 106.176 285.381 80.211 272.631 54.219 C 273.903 53.616 275.172 53.01 276.441 52.41 C 280.197 50.628 283.95 48.852 287.706 47.067 C 291.96 45.045 296.226 43.035 300.471 40.983 C 302.376 40.062 304.23 39.033 306.123 38.079 C 310.326 35.967 314.781 34.905 319.491 35.073 C 327.459 35.355 334.194 38.445 339.687 44.196 C 342.615 47.259 344.535 50.913 345.777 54.954 C 346.713 58.002 347.196 61.113 347.151 64.293 C 347.076 69.423 345.762 74.229 343.134 78.642 C 340.305 83.388 336.459 87.156 331.839 90.159 C 328.941 92.037 325.863 93.561 322.62 94.8 C 314.454 88.044 306.294 81.297 298.107 74.526 C 300.645 67.353 303.18 60.195 305.73 52.998 C 312.723 52.929 319.716 52.86 326.787 52.794 C 326.787 56.28 326.787 59.721 326.787 63.189 C 322.26 63.189 317.709 63.189 313.092 63.189 C 312.198 66.462 311.307 69.726 310.404 73.023 C 315.156 76.392 319.89 79.746 324.726 83.175 C 326.046 82.017 327.408 80.895 328.683 79.683 C 330.531 77.922 332.109 75.936 333.492 73.773 C 335.553 70.542 336.717 67.062 336.651 63.213 C 336.6 60.444 335.751 57.876 334.557 55.407 C 333.3 52.806 331.653 50.505 329.331 48.732 C 326.7 46.728 323.7 45.777 320.43 45.669 C 315.624 45.513 311.172 46.821 306.936 48.999 C 302.907 51.069 298.869 53.118 294.834 55.179 C 291.981 56.637 289.125 58.098 286.272 59.559 C 286.215 59.589 286.161 59.631 286.098 59.673 C 297.549 82.44 308.988 105.189 320.457 128.001 Z" id="path33" style="fill-opacity: 1; fill: rgb(255, 255, 255);"/>
    <path d="M 328.548 28.074 C 326.262 27.603 324.036 27.144 321.75 26.673 C 323.082 17.787 324.411 8.904 325.746 0 C 329.91 0.606 334.035 1.212 338.223 1.824 C 334.992 10.596 331.776 19.317 328.548 28.074 Z" id="path35" style="fill-opacity: 1; fill: rgb(255, 255, 255);"/>
    <path d="M 365.697 20.826 C 367.908 24.405 370.086 27.939 372.303 31.53 C 365.085 35.997 357.87 40.461 350.637 44.94 C 349.119 42.675 347.631 40.452 346.107 38.175 C 352.632 32.397 359.145 26.631 365.697 20.826 Z" id="path37" style="fill-opacity: 1; fill: rgb(255, 255, 255);"/>
    <path d="M 348.267 6.861 C 351.459 9.066 354.594 11.235 357.741 13.41 C 352.053 20.196 346.377 26.964 340.665 33.774 C 338.667 32.541 336.687 31.317 334.65 30.06 C 339.171 22.362 343.698 14.643 348.267 6.861 Z" id="path39" style="fill-opacity: 1; fill: rgb(255, 255, 255);"/>
  </g>
</svg>