<?xml version="1.0" encoding="utf-8"?>
<svg version="1.1" xmlns="http://www.w3.org/2000/svg">
  <g>
    <path d="M 35.961 115.284 L 35.889 71.271 L 41.589 71.271 L 41.589 123.972 L 35.889 123.972 L 5.556 79.602 L 5.697 123.972 L 0 123.972 L 0 71.271 L 5.982 71.271 L 35.961 115.284 Z" id="path7" style="fill-opacity: 1; fill: rgb(255, 255, 255);"/>
    <path d="M 47.952 71.271 L 75.912 71.271 L 75.912 76.47 L 53.793 76.47 L 53.793 94.773 L 75.771 94.773 L 75.771 99.972 L 53.793 99.972 L 53.793 118.773 L 75.912 118.773 L 75.912 123.972 L 47.952 123.972 L 47.952 71.271 Z" id="path9" style="fill-opacity: 1; fill: rgb(255, 255, 255);"/>
    <path d="M 78.573 97.764 C 78.573 81.528 91.179 70.344 106.065 70.344 C 121.518 70.344 133.554 82.167 133.554 97.62 C 133.554 113.076 121.59 124.899 106.065 124.899 C 90.468 124.899 78.573 112.86 78.573 97.833 L 78.573 97.764 Z M 84.483 97.62 C 84.483 110.013 93.813 119.7 106.134 119.7 C 118.599 119.7 127.716 109.659 127.716 97.62 C 127.716 85.584 118.599 75.543 106.065 75.543 C 93.672 75.543 84.483 85.371 84.483 97.548 L 84.483 97.62 Z" id="path11" style="fill-opacity: 1; fill: rgb(255, 255, 255);"/>
    <path d="M 182.202 84.945 C 180.564 82.665 178.569 80.742 176.292 79.248 C 172.872 76.896 168.741 75.543 164.043 75.543 C 152.505 75.543 142.464 84.375 142.464 97.548 C 142.464 110.937 152.577 119.769 164.112 119.769 C 169.668 119.769 174.582 117.849 178.215 114.999 C 181.92 112.077 184.482 108.09 185.337 103.956 L 156.651 103.956 L 156.651 99.114 L 192.174 99.114 C 192.102 102.177 191.391 106.023 189.822 109.299 C 185.265 119.199 174.723 124.968 164.112 124.968 C 148.731 124.968 136.551 113.145 136.551 97.548 C 136.551 81.738 148.944 70.341 164.184 70.341 C 174.867 70.341 184.767 76.326 188.898 84.942 L 182.202 84.942 L 182.202 84.945 L 182.202 84.945 Z" id="path13" style="fill-opacity: 1; fill: rgb(255, 255, 255);"/>
    <path d="M 195 71.271 L 224.199 71.271 L 224.199 76.47 L 200.841 76.47 L 200.841 94.773 L 224.055 94.773 L 224.055 99.972 L 200.841 99.972 L 200.841 118.773 L 224.199 118.773 L 224.199 123.972 L 195 123.972 L 195 71.271 Z" id="path15" style="fill-opacity: 1; fill: rgb(255, 255, 255);"/>
    <path d="M 226.548 97.764 C 226.548 81.528 239.154 70.344 254.04 70.344 C 269.493 70.344 281.529 82.167 281.529 97.62 C 281.529 113.076 269.565 124.899 254.04 124.899 C 238.443 124.899 226.548 112.86 226.548 97.833 L 226.548 97.764 Z M 232.461 97.62 C 232.461 110.013 241.788 119.7 254.109 119.7 C 266.574 119.7 275.688 109.659 275.688 97.62 C 275.688 85.584 266.574 75.543 254.04 75.543 C 241.647 75.543 232.461 85.371 232.461 97.548 L 232.461 97.62 L 232.461 97.62 Z" id="path17" style="fill-opacity: 1; fill: rgb(255, 255, 255);"/>
    <path d="M 346.569 97.764 C 346.569 81.528 359.175 70.344 374.061 70.344 C 389.517 70.344 401.553 82.167 401.553 97.62 C 401.553 113.076 389.589 124.899 374.061 124.899 C 358.464 124.899 346.569 112.86 346.569 97.833 L 346.569 97.764 Z M 352.479 97.62 C 352.479 110.013 361.809 119.7 374.133 119.7 C 386.595 119.7 395.712 109.659 395.712 97.62 C 395.712 85.584 386.598 75.543 374.061 75.543 C 361.671 75.543 352.479 85.371 352.479 97.548 L 352.479 97.62 L 352.479 97.62 Z" id="path21" style="fill-opacity: 1; fill: rgb(255, 255, 255);"/>
    <path d="M 460.377 109.8 C 456.96 117.921 447.774 124.902 436.164 124.902 C 420.567 124.902 408.672 112.863 408.672 97.626 C 408.672 82.596 420.282 70.347 436.089 70.347 C 449.121 70.347 457.314 79.038 460.374 85.731 L 454.035 85.731 C 452.253 82.599 446.274 75.546 436.089 75.546 C 423.768 75.546 414.51 85.302 414.51 97.551 C 414.51 110.016 423.837 119.703 436.089 119.703 C 447.132 119.703 452.754 111.795 454.035 109.803 L 460.377 109.8 L 460.377 109.8 Z" id="path23" style="fill-opacity: 1; fill: rgb(255, 255, 255);"/>
    <path d="M 518.208 71.271 L 547.41 71.271 L 547.41 76.47 L 524.052 76.47 L 524.052 94.773 L 547.266 94.773 L 547.266 99.972 L 524.052 99.972 L 524.052 118.773 L 547.41 118.773 L 547.41 123.972 L 518.208 123.972 L 518.208 71.271 L 518.208 71.271 Z" id="path25" style="fill-opacity: 1; fill: rgb(255, 255, 255);"/>
    <path d="M 577.035 76.47 L 560.052 76.47 L 560.052 71.271 L 600 71.271 L 600 76.47 L 582.948 76.47 L 582.948 123.972 L 577.035 123.972 L 577.035 76.47 Z" id="path27" style="fill-opacity: 1; fill: rgb(255, 255, 255);"/>
    <path d="M 226.743 164.583 C 224.571 171.972 217.614 177.237 209.259 177.237 C 198.342 177.237 190.518 168.591 190.518 158.643 C 190.518 149.13 197.907 140.145 209.211 140.145 C 219.498 140.196 225.342 147.777 226.743 152.994 L 219.159 152.994 C 218.049 150.531 214.863 146.523 209.163 146.475 C 202.206 146.475 197.715 152.316 197.715 158.646 C 197.715 165.165 202.401 170.916 209.211 170.916 C 215.586 170.916 218.484 165.891 219.159 164.586 L 226.743 164.583 L 226.743 164.583 Z" id="path29" style="fill-opacity: 1; fill: rgb(255, 255, 255);"/>
    <path d="M 246.015 158.979 C 246.015 147.534 254.805 140.142 264.756 140.142 C 275.574 140.142 283.545 148.545 283.545 158.688 C 283.545 168.831 275.622 177.234 264.708 177.234 C 253.743 177.234 246.015 168.588 246.015 159.027 L 246.015 158.979 L 246.015 158.979 Z M 253.212 158.691 C 253.212 165.213 257.898 170.91 264.852 170.91 C 272.1 170.91 276.348 164.631 276.348 158.739 C 276.348 152.751 272.1 146.469 264.804 146.469 C 257.655 146.469 253.212 152.361 253.212 158.643 L 253.212 158.691 Z" id="path31" style="fill-opacity: 1; fill: rgb(255, 255, 255);"/>
    <path d="M 304.797 140.82 L 311.994 140.82 L 311.994 170.235 L 323.73 170.235 L 323.73 176.562 L 304.797 176.562 L 304.797 140.82 Z" id="path33" style="fill-opacity: 1; fill: rgb(255, 255, 255);"/>
    <path d="M 341.427 158.979 C 341.427 147.534 350.217 140.142 360.165 140.142 C 370.986 140.142 378.957 148.545 378.957 158.688 C 378.957 168.831 371.034 177.234 360.117 177.234 C 349.155 177.234 341.427 168.588 341.427 159.027 L 341.427 158.979 Z M 348.624 158.691 C 348.624 165.213 353.31 170.91 360.261 170.91 C 367.509 170.91 371.757 164.631 371.757 158.739 C 371.757 152.751 367.506 146.469 360.216 146.469 C 353.067 146.469 348.624 152.361 348.624 158.643 L 348.624 158.691 L 348.624 158.691 Z" id="path35" style="fill-opacity: 1; fill: rgb(255, 255, 255);"/>
    <path d="M 503.319 123.972 L 510.654 123.972 L 483.273 97.548 L 508.443 71.268 L 502.035 71.268 L 474.408 99.843 L 474.408 93.072 L 474.408 71.271 L 468.567 71.271 L 468.567 123.972 L 474.408 123.972 L 474.408 106.797 L 479.784 101.181 L 503.319 123.972 Z" id="path37" style="fill-opacity: 1; fill: rgb(255, 255, 255);"/>
    <path d="M 408.315 140.82 C 412.335 140.922 415.887 141.129 419.085 143.808 C 419.907 144.48 420.684 145.353 421.248 146.229 C 422.898 148.758 423.051 151.587 423.051 152.568 C 423.051 153.441 422.949 155.865 421.611 158.082 C 421.248 158.646 420.786 159.42 419.703 160.398 C 418.518 161.43 417.282 161.994 416.817 162.201 C 415.941 162.561 415.065 162.819 413.16 163.233 L 423.672 177.195 L 415.581 177.195 L 405.48 163.437 L 405.48 177.195 L 398.217 177.195 L 398.217 140.817 L 408.315 140.82 L 408.315 140.82 Z M 405.48 158.082 L 409.089 158.082 C 409.5 158.082 409.86 158.082 410.274 158.031 C 411.045 158.031 413.622 157.926 415.323 155.868 C 415.734 155.349 416.457 154.269 416.457 152.517 C 416.457 151.95 416.406 150.558 415.476 149.274 C 413.877 147.108 411.405 146.901 408.93 146.85 L 405.477 146.85 L 405.477 158.082 L 405.48 158.082 Z" id="path39" style="fill-opacity: 1; fill: rgb(255, 255, 255);"/>
    <path d="M 320.457 128.001 C 308.988 105.189 297.549 82.44 286.104 59.673 C 286.167 59.628 286.218 59.583 286.275 59.556 C 289.131 58.095 291.987 56.634 294.84 55.176 C 298.872 53.118 302.91 51.066 306.939 48.996 C 311.175 46.821 315.627 45.513 320.433 45.666 C 323.706 45.774 326.703 46.725 329.337 48.732 C 331.659 50.502 333.3 52.803 334.56 55.404 C 335.754 57.873 336.606 60.441 336.654 63.213 C 336.723 67.059 335.559 70.539 333.495 73.77 C 332.115 75.933 330.537 77.922 328.686 79.68 C 327.411 80.895 326.049 82.014 324.729 83.172 C 319.893 79.743 315.162 76.389 310.41 73.02 C 311.313 69.726 312.201 66.459 313.095 63.186 C 317.712 63.186 322.263 63.186 326.79 63.186 C 326.79 59.718 326.79 56.28 326.79 52.791 C 319.719 52.86 312.726 52.926 305.733 52.995 C 303.186 60.192 300.651 67.353 298.113 74.523 C 306.3 81.294 314.457 88.044 322.623 94.797 C 325.869 93.561 328.947 92.037 331.845 90.156 C 336.462 87.156 340.311 83.385 343.137 78.639 C 345.765 74.229 347.085 69.423 347.157 64.29 C 347.199 61.11 346.719 57.999 345.783 54.951 C 344.541 50.913 342.621 47.259 339.69 44.193 C 334.2 38.445 327.465 35.355 319.497 35.07 C 314.787 34.902 310.332 35.967 306.129 38.079 C 304.236 39.03 302.382 40.059 300.477 40.983 C 296.232 43.035 291.966 45.042 287.709 47.064 C 283.956 48.849 280.2 50.628 276.447 52.407 C 275.178 53.01 273.909 53.613 272.637 54.216 C 285.387 80.211 298.119 106.173 310.848 132.138 C 314.073 130.749 317.235 129.387 320.457 128.001 Z" id="path41" style="fill-opacity: 1; fill: rgb(255, 255, 255);"/>
    <path d="M 320.457 128.001 C 317.232 129.387 314.073 130.749 310.842 132.138 C 298.116 106.176 285.381 80.211 272.631 54.219 C 273.903 53.613 275.172 53.01 276.441 52.407 C 280.197 50.628 283.95 48.849 287.706 47.067 C 291.96 45.045 296.226 43.035 300.471 40.983 C 302.376 40.059 304.23 39.03 306.123 38.079 C 310.326 35.967 314.781 34.905 319.491 35.07 C 327.459 35.355 334.194 38.445 339.687 44.196 C 342.615 47.259 344.535 50.913 345.777 54.954 C 346.713 57.999 347.196 61.11 347.151 64.29 C 347.079 69.423 345.762 74.229 343.134 78.642 C 340.305 83.385 336.456 87.156 331.836 90.156 C 328.941 92.037 325.863 93.561 322.617 94.797 C 314.454 88.044 306.294 81.297 298.107 74.526 C 300.645 67.353 303.18 60.195 305.727 52.995 C 312.72 52.926 319.716 52.86 326.787 52.791 C 326.787 56.28 326.787 59.721 326.787 63.189 C 322.257 63.189 317.706 63.189 313.092 63.189 C 312.195 66.462 311.304 69.726 310.404 73.02 C 315.156 76.389 319.887 79.743 324.723 83.175 C 326.046 82.014 327.408 80.895 328.68 79.683 C 330.531 77.922 332.109 75.933 333.489 73.773 C 335.553 70.542 336.717 67.062 336.651 63.213 C 336.6 60.444 335.748 57.873 334.554 55.407 C 333.297 52.806 331.653 50.505 329.331 48.732 C 326.7 46.725 323.7 45.774 320.43 45.669 C 315.624 45.513 311.169 46.821 306.933 48.999 C 302.907 51.069 298.869 53.118 294.834 55.176 C 291.978 56.637 289.125 58.095 286.272 59.556 C 286.212 59.586 286.161 59.631 286.098 59.673 C 297.549 82.44 308.988 105.189 320.457 128.001 Z" id="path43" style="fill-opacity: 1; fill: rgb(255, 255, 255);"/>
    <path d="M 328.548 28.074 C 326.262 27.603 324.036 27.144 321.75 26.673 C 323.082 17.787 324.411 8.904 325.746 0 C 329.91 0.606 334.035 1.212 338.223 1.824 C 334.992 10.596 331.776 19.317 328.548 28.074 Z" id="path45" style="fill-opacity: 1; fill: rgb(255, 255, 255);"/>
    <path d="M 365.697 20.826 C 367.908 24.405 370.086 27.939 372.303 31.53 C 365.085 35.997 357.87 40.461 350.637 44.94 C 349.119 42.675 347.631 40.452 346.107 38.175 C 352.632 32.397 359.145 26.631 365.697 20.826 Z" id="path47" style="fill-opacity: 1; fill: rgb(255, 255, 255);"/>
    <path d="M 348.267 6.861 C 351.459 9.066 354.594 11.235 357.741 13.41 C 352.053 20.196 346.377 26.964 340.665 33.774 C 338.667 32.541 336.687 31.317 334.65 30.06 C 339.171 22.362 343.698 14.643 348.267 6.861 Z" id="path49" style="fill-opacity: 1; fill: rgb(255, 255, 255);"/>
  </g>
</svg>