<?xml version="1.0" encoding="utf-8"?>
<svg version="1.1" xmlns="http://www.w3.org/2000/svg">
  <g>
    <polygon class="logo" points="59.52 38.994 81.201 38.994 111.192 87.519 111.177 38.994 132.69 38.994 132.69 108.579 111.207 108.579 81.057 60.054 81.057 108.579 59.511 108.579" style="fill: rgb(255, 255, 255);"/>
    <polygon class="logo" points="249.642 46.149 270.582 46.149 270.582 55.512 281.913 55.512 281.913 62.397 270.582 62.397 270.597 108.579 249.642 108.579 249.651 62.397 238.272 62.397 238.272 55.53 249.66 55.521" style="fill: rgb(255, 255, 255);"/>
    <polygon class="logo" points="144.666 62.301 165.588 62.31 165.588 108.579 144.666 108.579" style="fill: rgb(255, 255, 255);"/>
    <polygon class="logo" points="144.618 38.979 165.588 38.979 165.588 53.202 144.618 53.202" style="fill: rgb(255, 255, 255);"/>
    <path class="logo" d="M 519.762 85.074 C 519.762 85.074 519.756 92.07 519.756 94.875 C 519.756 102.252 515.397 105.297 511.206 105.297 C 507.006 105.297 502.632 102.252 502.632 94.875 C 502.632 92.07 502.641 84.897 502.641 84.897 C 502.641 84.897 502.656 78.054 502.656 75.249 C 502.656 67.902 507.039 64.884 511.206 64.884 C 515.382 64.884 519.756 67.902 519.756 75.249 C 519.756 78.054 519.747 83.241 519.771 85.098 L 519.762 85.074 L 519.762 85.074 Z M 511.356 59.145 C 494.466 59.145 480.777 70.779 480.777 85.128 C 480.777 99.48 494.472 111.114 511.356 111.114 C 528.249 111.114 541.938 99.48 541.938 85.128 C 541.938 70.779 528.249 59.145 511.356 59.145 L 511.356 59.145 Z" style="fill: rgb(255, 255, 255);"/>
    <path class="logo" d="M 453.312 38.994 L 473.964 38.994 L 473.964 108.579 L 453.279 108.579 C 453.279 108.579 453.27 106.332 453.27 105.903 C 445.263 110.931 436.227 110.922 429.192 107.64 C 427.302 106.761 414.882 100.803 414.882 84.699 C 414.882 72.483 426.402 59.145 441.486 60.468 C 446.451 60.906 449.979 62.715 453.327 64.596 C 453.312 53.886 453.312 38.994 453.312 38.994 L 453.312 38.994 Z M 453.462 85.209 C 453.462 85.209 453.462 79.41 453.462 76.938 C 453.462 69.783 448.521 67.959 445.272 67.959 C 441.939 67.959 437.064 69.783 437.064 76.938 C 437.064 79.314 437.073 85.185 437.073 85.185 C 437.073 85.185 437.064 90.954 437.064 93.417 C 437.064 100.563 441.939 102.435 445.263 102.435 C 448.521 102.435 453.471 100.563 453.471 93.417 C 453.471 90.444 453.462 85.209 453.462 85.209 L 453.462 85.209 Z" style="fill: rgb(255, 255, 255);"/>
    <path class="logo" d="M 214.575 60.165 C 222.399 59.943 238.272 65.067 238.161 83.385 C 238.146 86.634 238.152 108.564 238.152 108.564 L 217.365 108.564 C 217.365 108.564 217.365 81.066 217.365 78.174 C 217.365 74.142 213.507 69.657 207.804 69.657 C 202.107 69.657 197.868 74.142 197.868 78.174 C 197.868 80.151 197.892 108.564 197.892 108.564 L 177.12 108.564 L 177.111 62.292 L 197.898 62.277 C 197.898 62.277 197.874 65.997 197.898 67.146 C 201.9 63.33 207.66 60.366 214.575 60.165 L 214.575 60.165 Z" style="fill: rgb(255, 255, 255);"/>
    <path class="logo" d="M 384.627 60.165 C 392.451 59.943 408.324 65.067 408.213 83.385 C 408.195 86.634 408.204 108.564 408.204 108.564 L 387.417 108.564 C 387.417 108.564 387.417 81.066 387.417 78.174 C 387.417 74.142 383.559 69.657 377.853 69.657 C 372.156 69.657 367.917 74.142 367.917 78.174 C 367.917 80.151 367.941 108.564 367.941 108.564 L 347.169 108.564 L 347.187 62.292 L 367.95 62.277 C 367.95 62.277 367.926 65.997 367.95 67.146 C 371.949 63.33 377.718 60.366 384.627 60.165 L 384.627 60.165 Z" style="fill: rgb(255, 255, 255);"/>
    <path class="logo" d="M 301.401 78.435 C 301.371 74.382 301.458 71.673 302.79 69.36 C 304.422 66.507 307.425 65.154 310.152 65.139 L 310.143 65.139 C 312.867 65.154 315.873 66.507 317.505 69.36 C 318.837 71.679 318.891 74.388 318.861 78.444 L 301.401 78.435 L 301.401 78.435 Z M 318.789 92.388 C 318.789 92.388 318.804 92.595 318.804 95.193 C 318.804 103.656 313.236 105.534 310.143 105.534 C 307.053 105.534 301.386 103.656 301.386 95.193 C 301.386 92.658 301.401 85.638 301.401 85.638 C 301.401 85.638 340.821 85.656 340.821 85.632 C 340.821 71.28 326.964 59.394 309.945 59.394 C 292.923 59.394 279.132 71.025 279.132 85.377 C 279.132 99.726 292.923 111.351 309.945 111.351 C 324.063 111.351 335.991 103.296 339.633 92.373 L 318.789 92.388 L 318.789 92.388 Z" style="fill: rgb(255, 255, 255);"/>
    <path class="logo" d="M 78.477 147.813 C 31.434 147.798 0 114.459 0 74.037 L 0 74.037 C 0 33.618 31.506 -0.102 78.405 0 L 521.595 0 C 568.494 -0.102 600 33.618 600 74.037 L 600 74.037 C 600 114.459 568.566 147.798 521.523 147.813 L 78.477 147.813 L 78.477 147.813 Z M 78.618 18.183 C 41.376 18.255 18.516 43.146 18.516 73.944 L 18.516 73.944 C 18.516 104.73 41.235 129.828 78.618 129.693 L 521.382 129.693 C 558.765 129.822 581.49 104.73 581.49 73.944 L 581.49 73.944 C 581.49 43.155 558.63 18.264 521.388 18.192 L 78.618 18.183 L 78.618 18.183 Z" style="fill: rgb(255, 255, 255);"/>
  </g>
</svg>