<?xml version="1.0" encoding="utf-8"?>
<svg xmlns="http://www.w3.org/2000/svg">
  <path d="M 100.2 14.67 L 100.2 14.67 L 96.48 14.67 L 95.7 19.2 L 90 19.2 L 93.3 0.45 L 102.3 0.45 L 102.3 0.45 C 105.7 0.45 107.4 2.03 107.4 5.19 L 107.4 5.19 L 107.4 5.19 C 107.4 6.69 107.19 8.043 106.77 9.25 L 106.77 9.25 L 106.77 9.25 C 106.35 10.463 105.887 11.427 105.38 12.14 L 105.38 12.14 L 105.38 12.14 C 104.867 12.847 104.163 13.447 103.27 13.94 L 103.27 13.94 L 103.27 13.94 C 102.383 14.427 101.36 14.67 100.2 14.67 Z M 99.45 5.25 L 98.13 5.25 L 97.32 9.87 L 98.64 9.87 L 98.64 9.87 C 99.32 9.87 99.833 9.797 100.18 9.65 L 100.18 9.65 L 100.18 9.65 C 100.533 9.497 100.76 9.15 100.86 8.61 L 100.86 8.61 L 100.86 8.61 C 101.12 7.13 101.25 6.32 101.25 6.18 L 101.25 6.18 L 101.25 6.18 C 101.25 5.8 101.1 5.55 100.8 5.43 L 100.8 5.43 L 100.8 5.43 C 100.5 5.31 100.05 5.25 99.45 5.25 L 99.45 5.25 Z M 119.43 14.4 L 118.59 19.2 L 107.19 19.2 L 110.49 0.45 L 116.19 0.45 L 113.73 14.4 L 119.43 14.4 Z M 123.9 16.23 L 122.73 19.2 L 116.73 19.2 L 124.62 0.45 L 133.44 0.45 L 134.76 19.2 L 128.73 19.2 L 128.61 16.23 L 123.9 16.23 Z M 128.16 6.21 L 127.86 6.21 L 125.76 11.46 L 128.16 11.46 L 128.16 6.21 Z M 136.05 0.45 L 142.35 0.45 L 142.74 7.05 L 142.95 7.05 L 145.71 0.45 L 152.01 0.45 L 144.45 14.1 L 143.58 19.2 L 137.88 19.2 L 138.75 14.1 L 136.05 0.45 Z M 155.28 19.2 L 149.58 19.2 L 152.88 0.45 L 158.58 0.45 L 155.28 19.2 Z M 174.66 19.2 L 169.291 19.2 L 166.231 12.54 L 166.231 12.54 C 166.151 12.4 166.11 12.203 166.11 11.95 L 166.11 11.95 L 166.11 11.95 C 166.11 11.703 166.131 11.42 166.17 11.1 L 166.17 11.1 L 165.931 11.1 L 164.52 19.2 L 158.82 19.2 L 162.12 0.45 L 167.491 0.45 L 170.55 7.11 L 170.55 7.11 C 170.61 7.25 170.64 7.447 170.64 7.7 L 170.64 7.7 L 170.64 7.7 C 170.64 7.947 170.621 8.23 170.58 8.55 L 170.58 8.55 L 170.821 8.55 L 172.261 0.45 L 177.961 0.45 L 174.66 19.2 Z M 188.67 13.68 L 188.67 13.68 L 188.821 12.87 L 187.381 12.87 L 188.19 8.28 L 195.06 8.28 L 193.291 18.3 L 193.291 18.3 C 190.851 19.2 188.401 19.65 185.94 19.65 L 185.94 19.65 L 185.94 19.65 C 183.481 19.65 181.703 19.16 180.61 18.18 L 180.61 18.18 L 180.61 18.18 C 179.524 17.2 178.981 15.69 178.981 13.65 L 178.981 13.65 L 178.981 13.65 C 178.981 12.79 179.121 11.52 179.401 9.84 L 179.401 9.84 L 179.401 9.84 C 180 6.36 181.06 3.85 182.58 2.31 L 182.58 2.31 L 182.58 2.31 C 184.101 0.77 186.621 0 190.14 0 L 190.14 0 L 190.14 0 C 190.881 0 191.823 0.08 192.97 0.24 L 192.97 0.24 L 192.97 0.24 C 194.123 0.4 194.97 0.58 195.511 0.78 L 195.511 0.78 L 193.86 5.37 L 193.86 5.37 C 192.36 5.09 190.983 4.95 189.731 4.95 L 189.731 4.95 L 189.731 4.95 C 188.483 4.95 187.591 5.05 187.05 5.25 L 187.05 5.25 L 187.05 5.25 C 186.511 5.45 186.19 5.85 186.091 6.45 L 186.091 6.45 L 184.621 14.94 L 186.511 14.94 L 186.511 14.94 C 187.19 14.94 187.694 14.867 188.02 14.72 L 188.02 14.72 L 188.02 14.72 C 188.354 14.567 188.571 14.22 188.67 13.68 Z" style="white-space: pre; fill: rgb(255, 255, 255);"/>
  <path d="M 38.937 19.2 L 33.567 19.2 L 30.507 12.54 L 30.507 12.54 C 30.427 12.4 30.387 12.203 30.387 11.95 L 30.387 11.95 L 30.387 11.95 C 30.387 11.703 30.407 11.42 30.447 11.1 L 30.447 11.1 L 30.207 11.1 L 28.797 19.2 L 23.097 19.2 L 26.397 0.45 L 31.767 0.45 L 34.827 7.11 L 34.827 7.11 C 34.887 7.25 34.917 7.447 34.917 7.7 L 34.917 7.7 L 34.917 7.7 C 34.917 7.947 34.897 8.23 34.857 8.55 L 34.857 8.55 L 35.097 8.55 L 36.537 0.45 L 42.237 0.45 L 38.937 19.2 Z M 50.217 6.72 L 50.217 6.72 L 48.837 14.52 L 51.207 14.52 L 51.207 14.52 C 51.987 14.52 52.567 14.427 52.947 14.24 L 52.947 14.24 L 52.947 14.24 C 53.327 14.047 53.577 13.61 53.697 12.93 L 53.697 12.93 L 55.077 5.13 L 52.677 5.13 L 52.677 5.13 C 51.917 5.13 51.347 5.223 50.967 5.41 L 50.967 5.41 L 50.967 5.41 C 50.587 5.603 50.337 6.04 50.217 6.72 Z M 53.667 0 L 53.667 0 L 53.667 0 C 56.207 0 58.017 0.497 59.097 1.49 L 59.097 1.49 L 59.097 1.49 C 60.177 2.477 60.717 4 60.717 6.06 L 60.717 6.06 L 60.717 6.06 C 60.717 8.12 60.39 10.277 59.737 12.53 L 59.737 12.53 L 59.737 12.53 C 59.09 14.777 58.06 16.523 56.647 17.77 L 56.647 17.77 L 56.647 17.77 C 55.24 19.023 53.18 19.65 50.467 19.65 L 50.467 19.65 L 50.467 19.65 C 47.76 19.65 45.867 19.157 44.787 18.17 L 44.787 18.17 L 44.787 18.17 C 43.707 17.177 43.167 15.65 43.167 13.59 L 43.167 13.59 L 43.167 13.59 C 43.167 12.61 43.307 11.317 43.587 9.71 L 43.587 9.71 L 43.587 9.71 C 43.867 8.097 44.237 6.707 44.697 5.54 L 44.697 5.54 L 44.697 5.54 C 45.157 4.367 45.777 3.35 46.557 2.49 L 46.557 2.49 L 46.557 2.49 C 48.057 0.83 50.427 0 53.667 0 Z M 77.427 10.92 L 80.637 0.45 L 86.607 0.45 L 80.517 19.2 L 72.957 19.2 L 72.957 12.3 L 72.627 12.3 L 70.137 19.2 L 63.207 19.2 L 63.207 0.45 L 69.177 0.45 L 68.637 10.92 L 68.817 10.92 L 72.717 0.45 L 77.247 0.45 L 77.247 10.92 L 77.427 10.92 Z" style="white-space: pre; fill: rgb(255, 255, 255);"/>
  <path d="M 11.969 8.647 L 8.231 5.93 C 8.094 5.83 7.912 5.816 7.762 5.893 C 7.61 5.97 7.515 6.125 7.515 6.294 L 7.515 11.726 C 7.515 11.896 7.61 12.051 7.762 12.128 C 7.826 12.16 7.896 12.176 7.967 12.176 C 8.059 12.176 8.152 12.146 8.231 12.089 L 11.969 9.374 C 12.087 9.287 12.155 9.153 12.155 9.011 C 12.156 8.866 12.086 8.732 11.969 8.647 Z" style="fill: rgb(204, 204, 204);"/>
  <path d="M 9 0 C 4.028 0 0 4.028 0 9 C 0 13.97 4.028 17.997 9 17.997 C 13.971 17.997 18 13.97 18 9 C 18.001 4.028 13.971 0 9 0 Z M 9 16.496 C 4.86 16.496 1.503 13.141 1.503 9 C 1.503 4.861 4.86 1.502 9 1.502 C 13.14 1.502 16.496 4.861 16.496 9 C 16.497 13.141 13.14 16.496 9 16.496 Z" style="fill: rgb(204, 204, 204);"/>
</svg>