<?xml version="1.0" encoding="utf-8"?>
<svg version="1.1" baseProfile="tiny" id="Calque_1" x="0px" y="0px" xmlns="http://www.w3.org/2000/svg">
  <path id="XMLID_733_" d="M 446.44 8.699 C 453.176 9.59 451.336 2.345 454.678 0.019 C 455.498 0.019 456.319 0.019 457.139 0.019 C 458.566 0.202 460.518 -0.712 460.833 1.791 C 460.732 4.233 460.867 6.713 460.484 9.111 C 459.63 14.498 461.784 16.712 467.123 15.981 C 467.123 15.981 467.051 15.809 467.051 15.809 C 467.64 18.315 465.298 22.346 470.535 22.424 C 475.758 22.503 473.821 18.641 474.117 16.004 C 475.121 2.559 475.121 2.559 488.165 2.379 C 488.086 13.591 487.966 24.803 487.933 36.015 C 487.891 50 487.921 50 474.267 50.52 C 474.267 50.52 474.27 50.599 474.27 50.599 C 474.315 48.16 474.094 45.684 474.454 43.294 C 475.319 37.585 473.285 34.847 467.321 35.615 C 466.55 33.284 468.494 29.175 463.553 29.55 C 458.735 29.913 460.885 33.753 460.604 36.177 C 460.278 39.001 460.327 41.904 460.574 44.744 C 460.938 48.913 459.507 50.689 455.09 50.431 C 450.419 50.157 445.71 50.535 441.016 50.629 C 440.544 50.648 440.072 50.663 439.6 50.682 C 439.6 50.682 439.746 50.667 439.746 50.667 C 439.806 40.751 439.828 30.831 439.959 20.915 C 439.982 19.248 439.195 16.404 441.619 16.386 C 447.77 16.352 445.878 11.883 446.44 8.699 Z" style="fill: rgb(255, 255, 255);"/>
  <path id="XMLID_720_" d="M 26.8 362.941 C 24.216 355.876 9.72 358.04 8.42 357.279 C -1.379 351.536 -1.831 351.867 3.009 342.697 C 4.144 341.689 26.05 320.963 26.194 318.676 C 27.412 299.338 32.065 249.121 27.531 242.562 C 26.548 241.141 24.508 236.486 23.388 235.861 C 21.095 234.576 18.724 233.392 16.285 232.414 C 8.538 229.316 5.092 219.202 14.225 213.957 C 17.93 211.829 21.488 209.45 25.089 207.146 C 26.958 205.951 30.056 204.94 30.389 203.378 C 31.963 195.994 34.353 143.994 35.728 140.394 C 38.432 133.299 40.126 125.466 45.88 119.708 C 50.221 115.366 54.301 110.747 58.354 106.132 C 59.68 104.622 60.913 102.802 59.838 100.546 C 58.759 98.284 56.654 98.235 54.571 98.22 C 47.269 98.171 40.459 100.434 33.637 102.659 C 26.647 104.937 19.672 107.282 12.205 107.387 C 5.961 107.477 5.039 105.649 6.096 99.52 C 7.07 93.86 19.63 80.444 23.923 78.736 C 33.881 74.775 69.38 63.939 74.673 64.04 C 77.88 62.167 111.584 63.062 126.275 67.311 C 138.053 70.717 192.519 97.583 189.42 106.221 C 184.087 121.084 185.646 134.455 173.26 144.264 C 163.051 152.349 152.514 159.958 141.459 167.34 C 136.271 170.804 87.397 200.436 76.591 208.345 C 74.832 209.632 73.515 211.267 73.223 213.537 C 73.212 214.163 73.2 214.789 73.189 215.414 C 71.822 219.329 74.715 221.898 77.302 222.416 C 87.68 224.491 156.957 251.432 157.871 256.768 C 170.311 281.429 143.95 315.627 137.891 318.463 C 124.146 324.897 75.335 350.468 59.961 352.144 C 53.466 351.028 48.764 352.796 47.03 359.831 C 46.599 361.581 45.707 363.312 44.67 364.795 C 42.208 368.309 38.526 369.429 34.439 369.133 C 30.55 368.848 28.029 366.297 26.8 362.941 Z M 71.054 248.365 C 66.292 245.81 58.223 262.069 58.515 263.732 C 58.47 264.286 56.676 277.671 56.32 280.485 C 56.215 284.647 54.492 310.832 52.409 319.609 C 51.66 322.763 53.245 324.153 56.665 323.146 C 61.711 321.658 66.776 320.126 71.934 319.141 C 75.489 318.463 101.933 307.798 111.726 303.482 C 112.857 302.984 133.483 290.476 134.521 285.487 C 135.592 280.336 136.413 276.566 132.918 274.315 C 122.406 267.545 111.01 262.601 99.285 258.319 C 89.904 254.898 79.932 253.127 71.054 248.365 Z M 73.983 184.168 C 79.278 189.521 132.223 151.739 137.278 146.264 C 140.87 142.374 156.538 120.297 151.334 111.047 C 144.866 99.551 100.249 91.092 89.148 97.651 C 87.168 98.82 85.619 100.43 84.742 102.539 C 83.409 105.735 82.204 109.008 81.093 112.264 C 76.284 126.365 69.044 169.287 70.361 176.458 C 70.944 179.638 70.389 180.534 73.983 184.168 Z" style="fill: rgb(255, 255, 255);"/>
  <path id="XMLID_719_" d="M 508.293 142.863 C 497.994 167.073 583.598 295.822 586.501 292.397 C 588.332 290.238 593.916 301.092 595.559 304.149 C 597.893 308.487 594.886 308.113 591.903 311.428 C 584.029 320.178 503.044 357.142 495.68 360 C 484.692 364.259 455.708 354.849 454.419 352.186 C 451.411 345.956 481.007 325.717 486.689 320.838 C 493.501 314.988 505.319 311.33 516.047 307.423 C 521 305.619 524.899 304.014 529.53 306.884 C 530.006 307.198 529.9 308.754 529.518 309.191 C 525.662 313.526 518.502 314.87 515.409 319.165 C 514.414 320.546 512.481 321.677 514.227 324.273 C 515.691 326.446 518.022 324.73 519.587 323.558 C 524.768 319.677 529.081 317.022 533.778 312.037 C 535.981 308.987 536.211 306.222 538.945 303.311 C 538.945 303.311 542.411 297.478 542.415 297.478 C 552.49 283.801 482.69 201.852 472.461 194.657 C 468.36 191.772 467.951 185.685 466.789 180.624 C 461.927 159.447 469.79 141.304 480.957 124.499 C 492.964 106.432 510.574 94.328 528.885 83.217 C 533.819 80.224 557.66 68.491 562.035 66.31 C 568.257 63.216 574.472 60.039 581.204 58.264 C 592.788 55.203 595.97 61.077 599.897 72.368 C 602.863 80.895 540.664 139.011 533.017 132.861 C 529.23 124.698 529.736 122.356 536.823 116.112 C 539.416 113.826 542.154 111.71 544.788 109.47 C 546.005 108.436 546.279 107.072 545.679 105.607 C 545.309 104.701 544.475 104.561 543.664 104.888 C 533.184 109.116 509.817 139.281 508.293 142.863 Z" style="fill: rgb(255, 255, 255);"/>
  <path id="XMLID_716_" d="M 257.174 135.127 C 258.65 134.891 272.293 134.179 276.11 133.973 C 278.015 133.485 282.758 135.515 283.254 136.963 C 284.502 140.019 285.273 143.106 284.925 146.5 C 284.101 154.532 271.671 153.232 270.3 153.356 C 260.725 154.236 251.105 154.85 241.608 156.278 C 232.588 157.634 223.151 160.024 220.218 170.003 C 217.648 178.747 215.287 206.653 215.546 209.345 C 216.037 214.437 252.079 209.94 264.407 205.337 C 265.247 205.024 274.436 202.577 277.85 201.153 C 280.546 200.029 282.567 198.558 286.03 195.612 L 285.978 195.668 C 289.99 194.844 291.893 197.747 294.601 201.936 C 295.295 197.945 299.894 191.381 291.687 190.708 C 290.137 190.581 290.035 188.667 290.215 187.153 C 291.016 180.433 290.364 173.394 294.631 167.452 C 296.444 167.161 307.686 156.303 308.188 153.989 C 310.898 141.503 334.734 90.87 333.835 87.203 C 332.055 79.943 332.273 79.231 339.57 76.893 C 340.892 76.47 353.476 64.804 358.683 59.811 C 362.579 57.642 366.509 54.81 369.97 60.436 C 369.94 61.572 367.322 70.251 366.906 71.072 C 363.789 78.276 374.78 84.356 376.754 85.798 C 378.691 87.214 381.579 87.648 382.175 90.409 C 384.067 99.142 383.115 150.958 387.768 154.255 C 391.866 157.158 391.166 160.323 388.041 162.695 C 384.872 165.1 378.389 231.384 375.297 233.692 C 373.426 235.089 371.757 236.797 369.356 235.947 C 366.958 235.096 367.145 232.718 367.243 230.691 C 367.363 228.256 367.415 195.342 369.438 181.369 C 369.959 177.777 370.023 173.198 367.415 170.835 C 363.889 167.639 314.866 182.886 312.906 189.665 C 311.396 194.883 298.108 237.558 296.059 241.105 C 294.197 244.334 291.057 244.544 287.982 243.772 C 284.936 243.008 284.828 240.165 285.142 237.734 C 285.667 233.695 290.762 215.759 291.099 209.315 C 285.014 215.2 278.698 219.739 272.83 220.843 C 272.83 220.843 222.724 235.278 212.291 231.676 C 208.167 230.253 198.569 219.209 198.655 215.635 C 199.052 199.1 200.11 182.567 202.851 166.291 C 204.972 153.694 204.499 142.697 207.687 128.343 C 208.789 123.38 210.126 118.412 211.096 113.392 C 212.838 104.352 215.677 96.076 221.387 88.401 C 226.59 81.407 234.192 75.488 240.054 71.836 C 247.494 67.2 269.289 62.104 271.952 61.937 C 279.217 61.48 291.053 58.838 296.077 69.851 C 296.189 70.096 295.163 79.137 293.699 83.509 C 292.447 87.251 289.39 88.78 285.895 86.547 C 276.137 80.306 265.883 82.336 255.507 83.988 C 246.224 85.468 238.739 88.945 236.439 99.074 C 235.761 102.052 235.45 105.12 234.682 108.072 C 231.898 118.771 228.958 129.429 226.148 140.124 C 225.534 142.458 224.657 145.077 226.86 146.995 C 228.725 148.617 230.404 147.092 231.651 145.785 C 238.619 138.48 247.808 136.629 257.174 135.127 Z M 346.643 109.264 C 341.773 120.832 324.338 159.533 324.713 161.211 C 325.046 162.695 326.485 162.758 327.702 162.657 C 339.173 161.698 367.243 157.705 367.606 153.846 C 368.606 143.234 366.622 132.936 365.764 122.376 C 365.363 117.453 358.001 106.986 357.334 106.372 C 353.506 102.861 349.037 103.573 346.643 109.264 Z" style="fill: rgb(255, 255, 255);"/>
  <path id="XMLID_715_" d="M 437.449 227.181 C 435.58 230.054 423.278 233.152 423.694 228.964 C 424.278 223.03 421.772 217.407 422.57 211.556 C 421.513 207.611 422.51 203.636 422.603 199.68 C 422.877 187.906 422.326 176.125 423.967 164.369 C 425.495 153.419 429.084 111.695 430.223 105.54 C 431.235 100.082 431.774 94.496 432.014 88.948 C 432.19 84.85 429.672 82.891 425.6 83.906 C 419.648 85.386 413.474 86.498 407.937 88.978 C 403.921 90.776 399.729 90.692 395.744 92.039 C 392.053 93.286 394.163 82.234 394.492 79.1 C 396.053 64.257 471.85 61.512 474.364 64.67 C 477.822 69.011 475.997 75.459 475.375 80.782 C 474.915 84.73 452.861 80.647 447.489 81.774 C 444.492 82.404 448.01 99.582 446.388 108.034 C 442.694 127.24 443.902 143.58 440.474 162.836 C 438.833 172.047 438.599 184.894 437.689 194.196 C 436.618 205.15 436.112 216.178 437.449 227.181 Z" style="fill: rgb(255, 255, 255);"/>
  <path id="XMLID_711_" d="M 151.933 2.458 C 152.78 2.3 153.626 2.147 154.469 1.986 C 162.231 1.997 169.989 2.012 177.752 2.027 C 178.4 2.461 179.617 2.892 179.617 3.323 C 179.613 9.332 183.378 9.347 187.701 8.575 L 187.6 8.553 C 187.525 17.749 187.454 26.946 187.375 36.139 C 187.345 39.675 188.454 43.894 182.344 43.377 C 180.486 43.219 180.235 45.081 180.363 46.542 C 180.677 50.168 178.475 50.378 175.725 50.371 C 165.708 50.337 155.694 50.427 145.677 50.468 L 145.707 50.562 C 145.681 47.194 147.647 42.811 141.365 42.807 C 139.473 42.807 139.507 40.949 139.503 39.526 C 139.485 32.797 139.488 26.069 139.507 19.341 C 139.511 17.865 139.698 16.622 141.567 16.187 C 145.602 15.248 145.354 11.968 145.291 8.887 C 148.622 7.673 153.124 8.676 151.933 2.458 Z M 167.54 42.927 C 168.63 42.53 174.14 42.268 174.047 39.514 C 173.784 31.64 173.702 23.758 173.552 15.88 C 174.758 10.366 172.87 8.635 166.978 8.478 C 160.452 8.305 158.912 10.493 159.388 16.476 C 159.886 22.765 159.497 29.126 159.5 35.457 C 159.508 43.538 159.508 43.538 167.54 42.927 Z" style="fill: rgb(255, 255, 255);"/>
  <path id="XMLID_710_" d="M 352.407 2.121 C 362.199 3.215 372.326 1.869 382.13 2.177 C 384.426 2.248 387.281 1.39 387.341 5.398 C 387.401 9.429 384.569 8.687 382.235 8.71 C 376.709 8.766 371.15 9.126 365.669 8.616 C 360.118 8.099 359.706 10.984 359.945 15.191 C 360.163 19 359.009 23.578 365.527 22.447 C 366.127 22.342 376.586 22.678 381.216 23.005 C 381.216 23.005 380.969 23.046 380.969 23.05 C 381.624 28.501 379.081 30.205 373.9 29.553 C 370.701 29.153 367.404 29.46 364.152 29.497 C 362.766 29.512 360.638 29.201 360.451 30.767 C 360.017 34.363 359.005 38.431 360.429 41.612 C 361.426 43.843 364.964 42.657 367.415 42.927 C 374.14 43.668 380.943 43.009 387.708 43.054 L 387.588 43.013 C 388.836 48.479 387.161 50.738 381.092 50.479 C 370.259 50.015 359.391 50.258 348.542 50.408 C 345.579 50.449 339.363 50.795 339.434 50.342 C 339.371 38.687 338.978 27.538 338.915 15.887 L 338.885 15.944 C 342.255 16.622 344.613 16.226 345.579 14.436 C 346.298 13.102 346.373 11.073 346.399 8.594 L 346.294 8.665 C 348.039 7.889 350.139 8.682 352.108 7.129 C 352.297 5.548 352.175 4.454 352.407 2.121 Z" style="fill: rgb(255, 255, 255);"/>
  <path id="XMLID_598_" d="M 239.342 16.064 C 243.493 16.404 246.759 16.157 246.943 10.444 C 247.025 7.923 254.154 2.604 255.39 2.027 C 263.13 2.015 270.873 2.004 278.617 1.993 C 279.991 6.237 279.541 9.394 287.364 8.717 C 287.735 12.101 287.341 14.445 287.412 17.303 C 287.484 20.113 287.589 22.777 283.487 22.488 C 281.595 22.357 280.302 23.391 280.351 25.414 C 280.418 28.126 279.538 29.726 276.511 29.538 C 275.185 29.456 273.776 30.052 273.87 31.471 C 274.278 37.709 270.214 36.645 266.531 36.087 C 261.534 35.33 259.159 37.132 260.043 42.369 C 261.092 48.572 258.983 50.405 252.259 50.468 C 248.112 50.507 243.687 50.476 239.394 50.535 C 239.376 39.039 239.357 27.549 239.342 16.064 Z M 260.039 19.03 C 260.047 19.03 260.054 19.03 260.062 19.03 C 260.062 21.473 260.069 23.912 260.058 26.354 C 260.051 28.208 260.601 29.505 262.789 29.531 C 264.782 29.553 266.655 29.381 266.58 26.804 C 266.479 23.368 268.247 22.66 271.368 22.031 C 275.792 21.14 273.271 17.026 273.623 14.378 C 273.878 12.467 274.765 9.83 271.574 8.807 C 263.943 6.365 260.043 9.156 260.039 17.199 C 260.039 17.809 260.039 18.42 260.039 19.03 Z" style="fill: rgb(255, 255, 255);"/>
  <path id="XMLID_552_" fill="#FBFBFB" d="M 313.126 305.404 C 313.95 306.122 319.595 314.902 322.27 317.642 C 323.361 319.152 324.698 323.157 326.421 319.265 C 329.86 311.506 333.595 303.741 335.18 295.259 C 338.105 287.981 341.027 280.698 343.953 273.419 C 345.189 272.427 353.408 267.632 356.057 272.438 C 357.357 275.543 358.657 278.649 359.957 281.755 C 363.707 294.697 368.52 307.224 374.522 319.291 C 375.196 321.482 377.811 324.786 374.612 325.588 C 371.304 326.416 366.692 328.177 363.721 324.262 C 362.249 322.325 361.56 319.793 360.515 317.526 C 360.305 314.102 358.709 312.525 355.072 312.78 C 351.254 313.05 347.403 312.821 343.563 312.855 C 342.001 312.87 339.599 312.919 339.453 315.361 C 339.453 315.361 336.39 321.789 336.307 324.895 C 328.178 324.85 320.049 324.805 311.916 324.76 C 308.087 318.665 304.236 312.585 300.445 306.468 C 299.127 304.344 297.599 304.383 294.912 304.055 C 291.541 303.55 292.695 306.172 292.653 307.61 C 292.477 313.424 292.503 319.25 292.451 325.067 C 288.701 326.787 284.925 326.532 281.134 325.206 C 281.209 308.813 281.273 292.42 281.374 276.03 C 281.389 273.85 280.748 271.471 282.846 269.759 C 283.85 269.654 284.854 269.553 285.858 269.448 C 292.399 269.441 298.939 269.437 305.48 269.43 C 308.421 269.827 311.478 269.857 313.849 272.071 C 319.195 275.821 321.499 280.874 320.532 287.4 C 319.892 291.742 307.64 300.62 313.126 305.404 Z M 354.727 301.336 C 354.827 298.61 352.652 288.636 350.254 288.172 C 347.684 287.673 346.017 296.863 345.189 299.271 C 342.991 305.099 354.575 305.498 354.727 301.336 Z M 292.56 287.243 C 293.754 290.957 289.994 295.324 297.22 295.08 C 304.812 294.822 308.912 292.03 308.739 286.332 C 308.589 281.384 305.158 279.511 298.085 278.971 C 290.896 278.428 293.147 283.249 292.56 287.243 Z"/>
  <path id="XMLID_549_" fill="#FBFBFB" d="M 175.204 271.812 C 187.248 265.152 203.783 268.07 209.927 277.941 C 217.168 291.116 216.404 304.273 209.852 317.418 C 203.446 325.378 194.731 326.868 185.036 326.58 C 183.211 326.295 174.008 322.822 172.96 321.141 C 172.463 321.346 168.681 316.627 168.027 315.799 C 163.366 309.904 164.301 303.162 164.393 296.158 C 164.442 292.385 168.533 274.499 175.204 271.812 Z M 197.584 312.69 L 198.809 311.473 C 203.07 307.783 202.703 295.71 202.487 293.54 C 200.623 274.819 184.011 276.371 179.227 284.07 C 175.333 290.337 175.343 304.849 179.647 310.941 C 183.772 316.781 191.47 317.53 197.584 312.69 Z"/>
  <path id="XMLID_548_" fill="#FBFBFB" d="M 417.542 280.417 C 413.47 280.316 409.398 280.222 405.322 280.114 C 399.014 279.949 393.623 281.71 391.143 288.052 C 388.158 295.686 387.438 303.235 393.372 310.109 C 397.628 315.039 402.79 316.597 409.016 314.919 C 415.958 313.274 413.036 309.019 411.601 305.16 L 411.631 305.194 C 409.335 302.459 406.023 303.505 403.176 303.107 C 400.584 302.748 399.692 301.733 399.767 299.208 C 399.842 296.739 401.097 296.132 403.262 296.155 C 408.364 296.215 413.47 296.207 418.573 296.155 C 420.715 296.132 422.139 296.687 422.034 299.193 C 421.716 306.902 422.869 314.661 421.236 322.325 L 421.21 322.164 C 418.57 324.794 416.975 324.766 415.16 324.843 L 415.205 324.82 C 408.162 326.446 400.64 324.726 393.552 325.561 C 386.622 322.003 380.931 318.017 378.391 310.176 C 375.979 298.515 376.099 287.228 383.333 277.001 C 383.782 275.239 400.658 269.352 407.766 269.205 C 418.913 268.976 418.824 271.089 417.542 280.417 Z"/>
  <path id="XMLID_547_" fill="#FBFBFB" d="M 464.38 293.225 C 464.384 295.877 464.388 298.533 464.388 301.186 C 458.574 302.605 452.648 301.957 446.807 301.751 C 440.705 301.534 442.458 305.629 442.338 308.704 C 442.218 311.821 441.323 315.185 446.834 315.024 C 453.479 314.833 460.215 314.02 466.83 315.608 C 466.834 318.575 466.838 321.546 466.838 324.513 C 455.008 324.629 443.181 324.741 431.351 324.854 C 430.95 306.468 430.778 288.082 431.441 269.699 C 442.829 269.673 454.217 269.643 465.609 269.617 C 467.628 279.387 467.321 279.799 457.963 279.803 C 453.91 279.807 449.853 279.754 445.803 279.833 C 444.331 279.863 442.289 279.316 442.439 281.998 C 442.447 284.437 442.454 286.875 442.462 289.31 C 442.155 293.195 445.107 291.966 447.043 292.161 C 452.812 292.746 458.713 291.052 464.38 293.225 Z"/>
  <path id="XMLID_546_" fill="#FBFBFB" d="M 234.401 325.888 C 230.718 325.895 226.976 326.884 223.402 325.191 C 223.421 306.801 223.436 288.415 223.455 270.033 C 235.225 269.939 246.995 269.849 258.769 269.756 C 259.144 279.814 259.144 279.814 249.048 279.814 C 247.209 279.814 245.369 279.814 243.53 279.814 C 233.637 279.814 233.76 279.807 234.337 289.524 C 234.494 292.184 235.304 293.143 237.907 293.087 C 243.013 292.978 248.134 293.24 253.233 293.015 C 257.574 292.824 256.866 295.694 256.99 298.305 C 257.117 301.047 256.896 303.104 253.199 302.86 C 249.131 302.591 245.006 303.074 240.945 302.729 C 236.278 302.332 234.307 303.669 234.648 308.753 C 235.034 314.428 234.524 320.171 234.401 325.888 Z"/>
</svg>