<?xml version="1.0" encoding="utf-8"?>
<svg version="1.1" xmlns="http://www.w3.org/2000/svg">
  <path d="M 94.118 0 C 35.294 0 0 47.058 0 88.235 C 0 129.412 29.411 176.47 94.118 176.47 C 147.059 176.47 188.236 129.412 188.236 88.235 C 188.236 47.058 152.942 0 94.118 0 Z M 94.118 147.057 C 64.707 147.057 47.06 129.412 47.06 88.235 C 47.06 47.058 64.707 29.411 94.118 29.411 C 123.529 29.411 141.178 47.06 141.178 88.235 C 141.176 129.413 123.529 147.057 94.118 147.057 Z" style="fill: rgb(255, 255, 255);"/>
  <path d="M 547.06 176.47 C 482.354 176.47 441.177 141.176 441.177 88.235 C 441.177 35.294 476.471 0 535.293 0 C 564.706 0 588.236 17.645 600 35.294 C 594.119 47.058 570.589 64.707 570.589 64.707 C 564.706 64.707 558.823 58.822 558.823 58.822 C 558.823 47.058 564.706 29.411 535.293 29.411 C 505.884 29.411 488.234 41.175 488.234 88.235 C 488.234 123.529 517.646 147.057 547.059 147.057 C 552.94 147.057 564.706 147.057 564.706 147.057 C 570.589 141.176 576.47 135.293 576.47 129.412 C 588.234 129.412 588.234 129.412 588.234 129.412 L 588.234 176.47 C 588.236 176.47 570.59 176.47 547.06 176.47 Z" style="fill: rgb(255, 255, 255);"/>
  <path d="M 347.059 158.823 C 341.178 152.942 311.765 100.001 305.884 94.118 C 323.532 94.118 347.059 76.471 347.059 47.06 C 347.059 17.647 323.531 0.002 300.001 0.002 C 276.471 0.002 229.411 0.002 200 0.002 L 200 11.766 C 211.764 11.766 211.764 29.411 211.764 29.411 C 211.764 29.411 211.764 147.057 211.764 152.942 C 211.764 158.823 205.881 164.706 200 164.706 L 200 176.47 L 262.499 176.47 C 262.499 176.47 262.499 172.795 262.499 164.706 C 254.411 164.706 252.941 158.823 252.941 152.942 C 252.941 147.059 252.941 111.766 252.941 100.001 C 258.822 100.001 264.705 100.001 270.588 105.882 C 276.471 111.765 288.235 147.057 294.116 158.823 C 300.001 170.587 305.882 176.472 311.763 176.472 C 317.646 176.472 335.293 176.472 347.057 176.472 C 358.822 176.472 358.822 164.707 358.822 164.707 C 358.822 164.707 352.94 164.706 347.059 158.823 Z M 276.471 76.471 C 264.707 76.471 252.943 76.471 252.943 76.471 C 252.943 52.943 252.943 29.411 252.943 29.411 C 252.943 29.411 264.707 29.411 276.471 29.411 C 288.235 29.411 300.001 35.294 300.001 52.943 C 300.001 70.588 288.235 76.471 276.471 76.471 Z" style="fill: rgb(255, 255, 255);"/>
  <path d="M 423.53 152.94 C 423.53 158.823 429.413 164.704 435.296 164.704 L 435.296 176.469 L 364.707 176.469 L 364.707 164.704 C 370.59 164.704 376.472 158.823 376.472 152.94 L 376.472 23.53 C 376.472 17.647 370.59 11.766 364.707 11.766 L 364.707 0 L 435.296 0 L 435.296 11.764 C 429.413 11.764 423.53 17.645 423.53 23.528 L 423.53 152.94 Z" style="fill: rgb(255, 255, 255);"/>
</svg>