<?xml version="1.0" encoding="utf-8"?>
<svg version="1.0" xmlns="http://www.w3.org/2000/svg">
  <g>
    <path d="M 192.557 84.291 C 179.156 80.499 167.444 70.134 162.725 58.167 C 156.572 42.747 160.196 25.725 172.079 13.926 C 176.24 9.822 180.977 6.621 186.032 4.329 C 203.606 -3.636 225.032 -0.63 239.495 13.506 C 242.192 16.119 244.382 18.645 244.382 18.984 C 244.382 19.404 234.269 24.882 221.966 31.119 C 209.663 37.353 199.466 42.747 199.214 42.999 C 199.046 43.254 209.495 47.973 222.473 53.535 C 236.291 59.349 246.068 63.984 246.068 64.572 C 246.068 65.163 243.287 68.448 239.999 71.904 C 233.426 78.477 226.769 82.353 218.258 84.63 C 211.937 86.316 198.875 86.145 192.557 84.291 Z M 222.641 75.192 C 227.696 72.831 235.112 66.849 235.112 65.163 C 235.112 64.32 206.798 52.185 204.944 52.185 C 201.74 52.185 205.703 54.462 217.415 59.433 C 224.579 62.466 230.816 65.331 231.236 65.667 C 232.247 66.594 224.579 72.072 219.521 74.01 C 217.163 74.853 213.119 75.864 210.422 76.203 C 203.51 77.046 204.269 78.645 211.433 78.141 C 215.477 77.802 218.933 76.962 222.641 75.192 Z M 219.185 26.82 C 226.685 23.028 232.499 19.488 232.331 18.984 C 231.827 17.634 231.404 17.802 216.995 25.302 C 205.28 31.371 201.995 33.645 204.86 33.645 C 205.364 33.645 211.853 30.528 219.185 26.82 Z" style="fill: rgb(255, 255, 255);"/>
    <path d="M 0.591 82.86 C 0.252 82.521 0 64.656 0 43.167 L 0 4.068 L 26.799 4.32 L 53.442 4.644 L 57.726 6.849 C 67.08 11.82 71.967 19.827 72.051 30.276 C 72.051 35.499 71.631 37.437 69.69 41.4 C 64.971 51.006 57.219 55.641 44.916 56.229 L 37.08 56.568 L 36.909 69.798 L 36.657 82.944 L 18.876 83.196 C 9.186 83.28 0.927 83.112 0.591 82.86 Z M 29.664 64.236 L 29.916 51.765 L 41.292 51.342 C 50.646 50.922 53.259 50.499 56.04 49.068 C 60.336 46.875 63.792 43.422 65.814 39.375 C 67.5 36.006 68.007 31.119 66.573 31.119 C 66.153 31.119 65.73 31.791 65.73 32.634 C 65.73 35.667 61.434 42.747 58.314 44.853 C 53.175 48.393 50.646 48.984 39.018 49.488 L 27.81 49.911 L 27.81 61.962 L 27.81 74.01 L 18.792 74.265 C 12.555 74.433 9.69 74.853 9.438 75.612 C 9.186 76.371 11.544 76.623 19.299 76.623 L 29.409 76.623 L 29.664 64.236 Z M 49.299 43.422 C 52.248 42.156 54.777 38.448 54.777 35.331 C 54.777 32.634 52.836 33.729 52.08 36.849 C 51.069 40.725 48.54 42.072 42.387 42.072 C 38.259 42.072 37.08 42.327 37.08 43.338 C 37.08 45.021 45.252 45.108 49.299 43.422 Z M 42.471 32.298 C 44.073 30.696 44.157 30.192 42.726 28.254 C 40.956 25.809 37.584 26.82 37.248 29.769 C 36.825 33.393 39.945 34.911 42.471 32.298 Z" style="fill: rgb(255, 255, 255);"/>
    <path d="M 61.686 82.608 C 62.865 79.152 109.298 0.192 109.802 0.696 C 111.236 2.13 157.331 82.437 156.911 82.944 C 156.068 83.703 61.35 83.448 61.686 82.608 Z M 141.995 68.448 C 137.78 60.78 135.674 58.167 135.674 60.612 C 135.674 61.203 137.192 64.488 139.13 67.86 L 142.499 74.094 L 134.072 74.094 C 126.404 74.094 123.875 74.685 125.309 76.119 C 125.561 76.371 130.448 76.623 136.178 76.623 L 146.459 76.623 L 141.995 68.448 Z M 116.375 61.875 C 119.072 60.444 122.192 56.061 122.192 53.703 C 122.192 51.681 120.758 51.765 120.083 53.787 C 119.072 56.988 116.123 59.769 112.838 60.612 C 111.068 61.119 109.55 61.875 109.55 62.298 C 109.55 63.561 113.594 63.309 116.375 61.875 Z M 113.594 52.437 C 115.28 50.079 114.86 45.696 112.751 44.265 C 110.225 42.495 108.539 42.579 105.842 44.685 C 102.893 47.046 102.893 50.583 105.926 53.028 C 108.455 55.05 111.74 54.714 113.594 52.437 Z" style="fill: rgb(255, 255, 255);"/>
    <path d="M 335.392 42.072 C 335.392 19.404 335.731 0.78 336.067 0.78 C 336.487 0.78 345.505 9.798 356.122 20.838 C 366.742 31.791 375.589 40.893 375.928 41.061 C 376.18 41.145 385.027 32.214 395.731 21.09 C 406.348 10.05 415.282 0.948 415.702 0.864 C 416.038 0.78 416.293 19.404 416.293 42.072 L 416.293 83.364 L 375.841 83.364 L 335.392 83.364 L 335.392 42.072 Z M 409.549 68.196 C 409.549 63.141 409.213 59.769 408.709 59.769 C 408.202 59.769 407.866 62.718 407.866 66.933 L 407.866 74.094 L 398.173 74.094 C 390.085 74.094 388.483 74.349 388.483 75.36 C 388.483 76.455 390.253 76.623 399.016 76.623 L 409.549 76.623 L 409.549 68.196 Z" style="fill: rgb(255, 255, 255);"/>
    <path d="M 428.68 82.776 C 428.341 82.521 428.089 80.499 428.089 78.309 C 428.089 74.769 429.859 71.316 449.242 37.776 C 460.87 17.634 470.647 0.948 470.983 0.612 C 471.49 0.021 519.099 81.426 519.099 82.86 C 519.099 83.535 429.355 83.535 428.68 82.776 Z M 503.763 68.196 C 501.318 63.561 498.792 59.769 498.285 59.769 C 496.683 59.769 496.938 60.444 500.562 67.185 C 502.416 70.557 503.931 73.506 503.931 73.758 C 503.931 73.926 500.139 74.094 495.504 74.094 C 488.596 74.094 487.078 74.349 487.078 75.36 C 487.078 76.455 488.848 76.623 497.61 76.623 L 508.23 76.623 L 503.763 68.196 Z M 478.735 61.203 C 482.107 59.01 485.224 53.364 483.877 52.017 C 483.286 51.426 482.611 52.017 481.771 53.955 C 480.337 57.411 477.892 59.685 474.775 60.528 C 473.512 60.864 472.33 61.539 472.078 62.13 C 471.574 63.813 475.702 63.309 478.735 61.203 Z M 475.534 52.017 C 477.556 49.656 477.304 47.382 474.859 45.021 C 471.742 41.82 467.527 42.663 466.012 46.791 C 463.651 52.86 471.235 56.988 475.534 52.017 Z" style="fill: rgb(255, 255, 255);"/>
    <path d="M 525.588 82.776 C 524.916 82.101 524.832 2.13 525.504 1.455 C 525.759 1.203 534.522 10.134 545.055 21.258 L 564.186 41.568 L 564.438 22.86 L 564.606 4.152 L 582.303 4.152 L 600 4.152 L 599.832 43.59 L 599.577 82.944 L 562.836 83.196 C 542.697 83.28 525.843 83.112 525.588 82.776 Z M 593.931 68.448 C 593.763 62.889 593.343 60.192 592.668 59.937 C 591.825 59.685 591.573 61.455 591.573 66.849 L 591.573 74.094 L 581.88 74.094 C 573.792 74.094 572.19 74.349 572.19 75.36 C 572.19 76.455 573.96 76.623 583.146 76.623 L 594.186 76.623 L 593.931 68.448 Z" style="fill: rgb(255, 255, 255);"/>
    <path d="M 269.156 49.404 C 268.904 48.729 268.82 44.853 268.988 40.725 L 269.243 33.225 L 288.455 32.973 L 307.669 32.802 L 307.414 41.4 L 307.162 50.079 L 288.371 50.331 C 273.287 50.499 269.579 50.331 269.156 49.404 Z" style="fill: rgb(255, 255, 255);"/>
  </g>
</svg>