<?xml version="1.0" encoding="utf-8"?>
<svg version="1.1" xmlns="http://www.w3.org/2000/svg">
  <path opacity="1.00" d="M 28.908 -0.513 C 37.65 -11.778 51.581 -17.94 65.463 -19.73 C 71.066 -19.744 76.678 -19.491 82.282 -19.843 C 95.387 -18.574 108.423 -13.047 117.307 -3.121 C 124.857 5.135 129.002 16.055 130.165 27.089 C 120.196 27.229 110.22 27.532 100.253 27.469 C 98.992 20.193 94.253 13.658 87.746 10.175 C 80.838 6.452 72.335 5.275 64.849 7.892 C 60.802 9.28 56.898 11.507 54.26 14.947 C 50.741 19.41 51.228 26.222 54.724 30.549 C 58.328 34.927 63.856 37.022 69.1 38.713 C 81.62 42.457 94.725 44.05 107.013 48.618 C 115.523 51.741 123.842 56.549 129.038 64.19 C 134.981 72.961 136.235 84.15 134.804 94.442 C 133.324 105.243 127.543 115.317 119.069 122.147 C 107.691 131.468 92.689 135.486 78.15 135.338 C 64.101 135.141 49.735 131.482 38.314 123.043 C 30.615 117.389 24.63 109.331 21.922 100.138 C 20.47 95.654 20.076 90.931 19.843 86.25 C 29.642 86.124 39.441 86.392 49.248 86.243 C 52.06 94.415 58.143 101.513 66.223 104.806 C 74.367 108.203 83.905 108.647 92.117 105.207 C 96.058 103.558 99.837 101.062 102.12 97.368 C 104.659 93.3 104.969 87.773 102.339 83.67 C 99.816 79.687 95.423 77.452 91.18 75.753 C 83.115 72.673 74.592 71.101 66.251 68.985 C 55.409 66.279 44.313 63.183 35.12 56.583 C 28.599 51.981 23.67 45.129 21.683 37.373 C 18.362 24.543 20.597 10.014 28.908 -0.513 Z" style="fill: rgb(255, 255, 255);" transform="matrix(0, -1, 1, 0, 19.843441, 135.342377)"/>
  <path opacity="1.00" d="M 12.721 116.969 C 27.019 116.871 41.314 116.956 55.613 116.92 C 63.268 145.584 70.529 174.356 78.257 202.992 C 84.094 174.342 89.368 145.564 95.14 116.9 C 111.321 116.969 127.506 116.893 143.687 116.933 C 143.706 167.433 143.657 217.93 143.714 268.429 C 133.957 268.464 124.208 268.513 114.457 268.4 C 113.858 240.363 113.401 212.319 112.54 184.296 C 106.866 212.361 100.908 240.377 95.183 268.436 C 84.82 268.471 74.456 268.479 64.094 268.436 C 57.107 241.76 50.268 215.048 43.17 188.398 C 42.929 190.837 42.945 193.291 42.965 195.738 C 42.993 219.975 42.945 244.205 42.986 268.443 C 35.491 268.479 27.999 268.449 20.504 268.464 C 17.91 268.457 15.295 268.612 12.721 268.168 L 12.721 116.969 Z" style="fill: rgb(255, 255, 255);" transform="matrix(0, -1, 1, 0, -114.474824, 270.909835)"/>
  <path opacity="1.00" d="M 318.232 22.551 C 339.929 5.803 367.998 -0.948 395.084 0.107 C 407.602 0.735 420.003 3.044 432.059 6.431 C 432.498 6.691 433.362 7.201 433.8 7.45 C 419.067 17.824 406.407 31.539 398.471 47.801 C 383.513 46.106 368.022 49.873 355.799 58.755 C 340.509 69.486 329.411 86.612 327.363 105.337 C 324.995 124.251 322.792 143.188 320.446 162.102 C 319.76 167.337 319.535 172.797 317.165 177.617 C 313.862 184.581 308.875 190.609 303.629 196.2 C 298.867 201.174 291.631 201.979 285.117 202.051 C 269.957 168.604 266.866 130.184 274.801 94.453 C 280.901 66.679 295.267 39.925 318.232 22.551 Z" style="fill: rgb(255, 255, 255);"/>
  <path opacity="1.00" d="M 432.32 18.038 C 454.68 3.53 482.548 0.391 508.569 3.079 C 531.592 5.389 555.137 13.75 571.055 31.208 C 584.166 45.183 590.313 64.263 591.663 83.095 C 575.094 83.402 558.513 83.26 541.944 83.165 C 540.143 73.217 535.074 63.719 526.974 57.512 C 515.236 48.417 499.533 45.893 485.071 47.741 C 474.199 49.329 462.793 52.799 455.107 61.089 C 450.511 66.217 447.563 73.998 450.547 80.631 C 453.449 88.791 456.268 96.987 459.098 105.17 C 463.457 118.234 461.431 132.257 460.046 145.652 C 441.83 140.76 422.999 132.813 411.44 117.192 C 400.307 102.02 398.885 81.91 401.953 63.884 C 405.092 45.218 416.355 28.2 432.32 18.038 Z" style="fill: rgb(255, 255, 255);"/>
  <path opacity="1.00" d="M 177.187 9.689 C 207.577 8.871 237.98 8.101 268.382 7.378 C 283.435 7.331 298.464 9.581 312.796 14.248 C 312.866 16.332 312.464 18.358 310.605 19.577 C 298.133 30.497 288.789 44.365 280.332 58.472 C 262.816 58.389 245.299 58.791 227.771 58.803 C 228.126 108.617 227.853 158.455 228.197 208.28 C 238.821 209.133 249.468 209.903 260.103 210.495 C 270.395 210.459 280.688 210.317 290.98 210.14 C 300.892 209.808 308.84 202.655 314.714 195.312 C 322.567 185.079 328.618 172.963 329.637 159.947 C 330.963 144.053 332.455 128.171 333.889 112.289 C 334.481 105.538 335.819 98.799 338.46 92.533 C 344.228 78.368 356.036 67.141 369.904 60.97 C 389.636 94.334 392.538 135.597 383.43 172.738 C 376.822 199.22 361.235 223.925 338.2 239.026 C 315.709 254.103 287.959 259.515 261.217 258.354 C 233.207 257.182 205.173 256.412 177.187 254.932 L 177.187 9.689 Z" style="fill: rgb(255, 255, 255);"/>
  <path opacity="1.00" d="M 469.805 60.532 C 480.749 55.381 493.172 55.475 504.945 56.849 C 517.072 78.89 524.226 103.749 524.379 128.964 C 524.972 157.045 517.345 184.913 504.258 209.642 C 491.064 211.206 477.255 208.6 465.98 201.458 C 461.218 198.474 457.12 193.073 458.648 187.163 C 461.739 174.823 465.944 162.766 469.319 150.495 C 471.096 143.449 470.349 136.141 470.255 128.964 C 470.03 120.508 468.372 112.146 465.956 104.057 C 463.007 93.895 458.624 83.923 458.186 73.217 C 458.447 66.821 464.534 62.877 469.805 60.532 Z" style="fill: rgb(255, 255, 255);"/>
  <path opacity="1.00" d="M 531.237 115.474 C 549.382 120.413 568.2 126.442 582.283 139.481 C 593.937 150.117 599.432 165.951 600 181.431 L 600 190.29 C 599.195 204.917 593.972 219.425 584.308 230.546 C 571.457 245.564 552.792 254.376 533.807 258.792 C 508.533 264.525 481.826 263.246 456.895 256.376 C 436.785 250.692 416.888 239.44 406.383 220.716 C 399.218 207.818 392.953 192.741 396.813 177.795 C 413.016 177.606 429.229 177.914 445.443 178.032 C 447.242 189.141 451.838 200.487 461.088 207.439 C 472.6 216.156 487.701 217.483 501.664 217.624 C 514.36 217.353 527.933 216.038 538.687 208.636 C 548.031 202.453 551.703 189.023 546.432 179.062 C 542.631 172.098 535.572 167.859 528.833 164.163 C 529.271 147.914 530.48 131.7 531.237 115.474 Z" style="fill: rgb(255, 255, 255);"/>
  <path opacity="1.00" d="M 375.519 213.657 C 381.89 212.662 388.547 213.634 395.025 213.764 C 403.434 232.95 419.576 247.376 436.904 258.497 C 424.171 262.82 410.765 264.892 397.335 265.176 L 396.588 265.176 C 377.165 264.975 357.942 260.7 339.869 253.736 C 339.846 253.499 339.799 253.037 339.775 252.8 C 346.419 246.298 353.301 240.02 360.051 233.614 C 366.553 228.094 370.236 220.206 375.519 213.657 Z" style="fill: rgb(255, 255, 255);"/>
</svg>