<?xml version="1.0" encoding="utf-8"?>
<svg version="1.2" xmlns="http://www.w3.org/2000/svg">
  <g>
    <path d="M 13.119 46.69 C 13.031 46.69 12.939 46.668 12.857 46.627 C 4.251 42.448 -0.192 37.583 0.006 32.547 C 0.17 28.403 3.552 24.489 9.791 21.227 C 15.709 18.136 24.057 15.681 33.934 14.131 C 34.261 14.08 34.57 14.304 34.624 14.635 C 34.674 14.962 34.45 15.271 34.119 15.322 C 14.118 18.467 1.51 25.085 1.213 32.597 C 1.04 37.05 5.36 41.648 13.384 45.546 C 13.683 45.691 13.809 46.047 13.664 46.35 C 13.557 46.564 13.343 46.69 13.119 46.69 Z" style="fill: rgb(255, 255, 255);"/>
    <path d="M 88.13 15.763 C 88.095 15.763 88.064 15.76 88.032 15.753 C 81.676 14.71 74.964 14.014 68.088 13.686 C 67.754 13.67 67.498 13.387 67.514 13.053 C 67.53 12.722 67.82 12.467 68.144 12.479 C 75.068 12.81 81.824 13.513 88.228 14.562 C 88.555 14.616 88.779 14.928 88.726 15.256 C 88.675 15.552 88.42 15.763 88.13 15.763 Z" style="fill: rgb(255, 255, 255);"/>
    <path d="M 69.14 56.967 C 68.97 56.967 68.803 56.967 68.633 56.967 C 68.299 56.967 68.031 56.696 68.034 56.361 C 68.034 56.031 68.302 55.76 68.636 55.76 C 68.636 55.76 68.636 55.76 68.636 55.76 C 68.803 55.76 68.973 55.76 69.14 55.76 C 101.425 55.76 126.901 47.371 127.238 36.584 C 127.355 32.808 124.326 28.98 118.468 25.51 C 112.638 22.053 104.281 19.11 94.3 16.995 C 93.976 16.923 93.768 16.604 93.837 16.28 C 93.906 15.952 94.225 15.744 94.552 15.813 C 104.656 17.956 113.139 20.95 119.082 24.473 C 125.338 28.179 128.574 32.38 128.445 36.622 C 128.265 42.357 121.928 47.585 110.602 51.345 C 99.651 54.972 84.944 56.967 69.14 56.967 Z" style="fill: rgb(255, 255, 255);"/>
    <polygon points="80.066 25.557 95.993 13.418 77.286 20.887 72.027 15.413 73.703 22.995 57.776 35.137 76.486 27.665 81.742 33.139" style="fill: rgb(255, 255, 255);"/>
    <path d="M 60.118 40.715 C 60.345 39.593 60.764 39.754 61.902 39.571 L 62.964 39.407 L 62.633 41.175 L 61.574 41.345 C 60.433 41.525 59.932 41.831 60.118 40.715 Z M 57.817 39.095 L 56.992 43.539 C 56.765 44.752 57.134 45.14 58.3 44.957 L 65.059 43.882 L 66.509 36.092 L 59.749 37.164 C 58.58 37.35 58.041 37.882 57.817 39.095 Z M 100.723 32.084 L 100.644 32.512 L 107.615 31.406 C 108.166 31.315 108.702 30.76 108.812 30.158 C 108.922 29.559 108.57 29.14 108.018 29.229 L 106.228 29.512 L 103.373 29.966 L 102.648 30.079 C 101.81 30.215 100.893 31.167 100.723 32.084 Z M 51.811 52.173 L 51.868 51.861 C 52.107 51.88 52.429 51.975 52.706 51.931 L 59.954 50.796 C 59.683 52.24 57.773 52.602 54.861 53.065 L 51.543 53.591 L 49.766 63.153 L 54.121 62.462 C 64.848 61.404 68.929 55.86 70.24 49.252 L 83.309 47.179 L 85.417 35.843 L 86.479 35.676 C 87.645 35.49 87.471 35.279 87.248 36.489 L 85.319 46.857 L 94.704 45.37 L 94.833 44.683 C 95.539 44.995 96.368 45.105 97.244 44.966 L 113.473 42.395 L 114.986 34.249 L 113.933 33.499 C 114.844 32.421 115.556 31.1 115.761 29.991 L 116.016 28.705 C 116.826 23.903 112.395 22.627 110.375 22.948 L 101.063 24.426 C 99.415 24.687 97.597 25.835 96.276 27.36 C 95.053 26.15 93.166 25.68 92.069 25.853 L 81.704 27.498 L 82.864 30.064 L 92.214 28.583 C 93.56 28.365 94.464 28.904 94.71 29.972 C 94.612 30.256 92.214 43.019 92.214 43.019 L 88.858 43.551 L 90.657 33.889 C 90.881 32.679 90.516 32.288 89.35 32.474 L 82.924 33.492 L 80.816 44.828 L 77.132 45.414 L 79.543 32.44 L 76.511 28.86 L 65.589 32.805 L 70.766 31.986 L 70.848 31.973 L 67.555 49.681 C 66.72 54.178 61.92 58.479 57.663 59.157 L 53.308 59.847 L 53.967 56.305 L 57.282 55.778 C 60.194 55.315 63.474 52.4 64.041 49.353 L 64.397 47.434 L 55.769 48.801 C 53.919 49.095 52.914 47.969 53.28 46.016 L 54.827 37.69 C 55.101 36.212 56.021 34.986 57.256 34.343 L 57.279 34.123 L 61.608 30.792 L 59.078 31.217 C 57.735 31.428 55.24 32.437 53.651 34.46 C 52.454 33.032 50.358 32.471 49.176 32.657 L 39.874 34.135 L 41.393 25.986 L 48.178 24.911 C 51.789 24.341 55.788 20.276 56.497 16.463 L 57.518 10.973 C 58.227 7.15 55.542 4.15 51.931 4.724 L 37.097 7.075 L 33.937 24.076 L 20.282 26.244 C 19.125 26.427 18 27.568 17.777 28.791 L 12.672 56.239 C 12.445 57.461 13.198 58.303 14.354 58.123 L 40.413 53.989 L 42.521 42.653 L 43.58 42.483 C 44.749 42.3 44.576 42.092 44.349 43.302 L 42.423 53.67 L 51.811 52.173 Z M 32.474 45.959 L 23.761 47.339 L 24.089 45.571 L 31.126 44.453 L 32.84 35.244 L 25.8 36.36 L 26.128 34.592 L 34.841 33.209 L 32.474 45.959 Z M 31.945 48.792 L 31.223 52.687 L 15.807 55.132 L 20.613 29.276 L 33.347 27.256 L 32.689 30.798 L 23.638 32.235 L 22.258 39.672 L 29.629 38.503 L 28.97 42.042 L 21.599 43.214 L 20.216 50.654 L 31.945 48.792 Z M 49.655 49.766 L 45.968 50.349 L 47.765 40.69 C 47.988 39.477 47.623 39.086 46.457 39.269 L 40.031 40.29 L 37.926 51.625 L 34.239 52.211 L 37.003 37.337 L 37.088 37.321 L 49.321 35.383 C 51.171 35.087 52.177 36.209 51.811 38.169 L 49.655 49.766 Z M 73.615 31.526 L 77.22 30.955 L 74.453 45.833 L 70.769 46.416 L 73.53 31.542 L 73.615 31.526 Z M 95.974 38.538 L 97.253 31.655 C 97.66 29.478 99.998 27.341 101.99 27.026 L 110.612 25.658 C 112.064 25.428 113.073 27.051 112.777 28.639 L 112.354 30.851 C 112.058 32.443 110.435 34.129 108.986 34.359 L 100.036 35.78 L 99.91 36.584 C 99.736 37.498 100.345 38.21 101.183 38.077 L 111.182 36.483 L 110.508 40.113 L 99.226 41.903 C 97.234 42.215 95.573 40.715 95.974 38.538 Z M 42.641 19.251 L 43.892 12.52 L 48.584 11.78 C 49.199 11.682 49.514 12.032 49.391 12.681 L 48.534 17.288 C 48.414 17.937 47.947 18.41 47.333 18.511 L 42.641 19.251 Z" style="fill: rgb(255, 255, 255);"/>
    <path d="M 72.629 22.4 L 71.633 18.457 L 71.072 18.527 L 70.892 19.497 C 70.766 20.172 70.224 20.72 69.588 20.824 L 65.734 21.435 C 65.097 21.536 64.731 21.126 64.857 20.455 L 66.799 10.005 C 66.925 9.334 67.467 8.786 68.103 8.685 L 71.961 8.074 C 72.594 7.973 72.96 8.379 72.833 9.051 L 72.585 10.38 L 80.378 9.142 L 80.674 7.551 C 81.421 3.529 78.689 0.476 74.882 1.078 L 67.426 2.26 C 63.625 2.865 59.554 6.999 58.807 11.02 L 56.733 22.176 C 55.987 26.197 58.719 29.251 62.526 28.646 L 65.018 28.255 L 72.629 22.4 Z" style="fill: rgb(255, 255, 255);"/>
    <path d="M 78.153 20.02 C 78.358 19.475 78.496 19.267 78.604 18.706 L 78.868 17.288 L 75.767 17.78 L 78.153 20.02 Z" style="fill: rgb(255, 255, 255);"/>
    <path d="M 210.846 57.219 C 210.846 57.219 185.512 57.219 170.134 57.219 C 156.561 57.219 147.514 48.096 147.514 39.124 C 147.514 30.152 156.561 21.029 170.134 21.029 C 180.385 21.029 195.467 21.029 210.846 21.029 L 210.846 11.981 C 210.846 11.981 185.512 11.981 170.134 11.981 C 152.036 11.981 138.466 23.742 138.466 39.124 C 138.466 54.505 152.036 66.266 170.134 66.266 C 190.64 66.266 210.846 66.266 210.846 66.266 L 210.846 57.219 Z" style="fill: rgb(255, 255, 255);"/>
    <path d="M 449.603 11.981 L 422.461 11.981 C 404.366 11.981 390.793 23.742 390.793 39.124 C 390.793 54.505 404.366 66.266 422.461 66.266 L 449.603 66.266 C 467.698 66.266 481.271 54.505 481.271 39.124 C 481.271 23.742 467.698 11.981 449.603 11.981 Z M 449.603 57.219 L 422.461 57.219 C 408.891 57.219 399.84 48.096 399.84 39.124 C 399.84 30.152 408.891 21.029 422.461 21.029 L 449.603 21.029 C 463.176 21.029 472.22 30.152 472.22 39.124 C 472.22 48.096 463.176 57.219 449.603 57.219 Z" style="fill: rgb(255, 255, 255);"/>
    <path d="M 260.608 11.981 C 240.103 11.981 219.893 11.981 219.893 11.981 L 219.893 66.266 C 219.893 66.266 245.227 66.266 260.608 66.266 C 278.703 66.266 292.276 54.505 292.276 39.124 C 292.276 23.742 278.703 11.981 260.608 11.981 Z M 260.608 57.219 C 252.286 57.219 242.328 57.219 228.944 57.219 L 228.944 21.029 C 238.997 21.029 250.603 21.029 260.608 21.029 C 274.181 21.029 283.229 30.152 283.229 39.124 C 283.229 48.096 274.181 57.219 260.608 57.219 Z" style="fill: rgb(255, 255, 255);"/>
    <path d="M 373.703 39.124 C 378.225 39.124 382.751 32.591 382.751 28.066 C 382.751 19.018 378.229 11.981 369.181 11.981 C 360.134 11.981 314.893 11.981 314.893 11.981 L 314.893 66.269 L 323.944 66.269 L 323.944 43.649 C 337.513 43.649 360.134 43.649 364.656 43.649 C 369.181 43.649 373.706 48.174 373.706 52.696 C 373.706 57.222 373.706 66.269 373.706 66.269 L 382.754 66.269 C 382.754 66.269 382.754 61.747 382.754 52.696 C 382.754 43.649 373.703 39.124 373.703 39.124 Z M 364.656 34.602 C 355.608 34.602 323.944 34.602 323.944 34.602 L 323.944 21.029 C 323.944 21.029 355.608 21.029 364.656 21.029 C 369.181 21.029 373.706 23.54 373.706 28.066 C 373.703 32.591 369.181 34.602 364.656 34.602 Z" style="fill: rgb(255, 255, 255);"/>
    <path d="M 302.077 43.646 C 299.578 43.646 297.555 41.623 297.555 39.124 C 297.555 36.628 299.581 34.602 302.077 34.602 L 305.471 34.602 C 307.97 34.602 309.993 36.628 309.993 39.124 C 309.993 41.623 307.97 43.646 305.471 43.646 L 302.077 43.646 Z" style="fill: rgb(255, 255, 255);"/>
    <path d="M 521.986 21.029 L 521.986 66.266 L 531.033 66.266 L 531.033 21.029 L 540.084 21.029 C 544.603 21.029 553.653 21.029 553.653 30.076 C 553.653 39.127 553.653 66.266 553.653 66.266 L 562.701 66.266 L 562.701 25.554 C 562.701 16.503 553.653 11.981 544.606 11.981 C 540.084 11.981 512.938 11.981 508.416 11.981 C 499.366 11.981 490.321 16.503 490.321 25.554 C 490.321 34.602 490.321 52.696 490.321 66.266 L 499.369 66.266 C 499.369 66.266 499.369 39.124 499.369 30.076 C 499.369 21.029 508.416 21.029 512.941 21.029 L 521.986 21.029 Z" style="fill: rgb(255, 255, 255);"/>
    <path d="M 586.244 19.623 C 586.244 19.623 585.16 19.623 589.61 19.623 C 595.638 19.623 600 16.544 600 9.618 C 600 5.168 597.18 0 591.097 0 C 586.645 0 576.749 0 572.3 0 L 572.3 6.923 C 572.3 6.923 581.486 6.923 585.936 6.923 C 587.88 6.923 590.061 7.248 590.061 9.618 C 590.061 11.865 588.327 12.697 586.323 12.697 L 580.685 12.697 C 570.567 12.697 569.341 19.92 569.341 25.557 L 569.341 30.013 L 599.499 30.013 L 599.499 22.582 L 579.431 22.582 C 579.428 19.122 583.276 19.623 586.244 19.623 Z" style="fill: rgb(255, 255, 255);"/>
  </g>
</svg>