<?xml version="1.0" encoding="utf-8"?>
<svg version="1.1" id="Layer_1" x="0px" y="0px" enable-background="new 0 0 566.936 274.332" xmlns="http://www.w3.org/2000/svg">
  <g>
    <path d="M 61.278 213.427 C 60.863 213.427 60.445 213.333 60.048 213.138 C 19.855 193.631 -0.899 170.889 0.03 147.367 C 0.785 128.005 16.586 109.725 45.726 94.495 C 73.371 80.05 112.366 68.585 158.495 61.337 C 160.035 61.097 161.476 62.149 161.716 63.686 C 161.96 65.223 160.907 66.664 159.37 66.907 C 65.927 81.581 7.031 112.498 5.663 147.592 C 4.839 168.398 25.028 189.878 62.511 208.07 C 63.909 208.75 64.493 210.431 63.813 211.839 C 63.326 212.84 62.321 213.427 61.278 213.427 Z" id="path7" style="fill-opacity: 1; fill: rgb(255, 255, 255);"/>
    <path d="M 411.664 68.967 C 411.511 68.967 411.357 68.955 411.201 68.931 C 381.508 64.056 350.169 60.802 318.046 59.265 C 316.488 59.193 315.288 57.873 315.364 56.315 C 315.439 54.763 316.783 53.575 318.314 53.638 C 350.654 55.184 382.214 58.459 412.118 63.37 C 413.652 63.62 414.695 65.07 414.44 66.606 C 414.211 67.99 413.02 68.967 411.664 68.967 Z" id="path11" style="fill-opacity: 1; fill: rgb(255, 255, 255);"/>
    <path d="M 322.955 261.439 C 322.167 261.439 321.385 261.439 320.594 261.435 C 319.036 261.432 317.785 260.169 317.788 258.611 C 317.794 257.057 319.048 255.802 320.603 255.802 C 320.606 255.802 320.609 255.802 320.615 255.802 C 321.388 255.805 322.179 255.805 322.958 255.805 C 473.772 255.808 592.779 216.606 594.349 166.224 C 594.899 148.591 580.737 130.705 553.383 114.501 C 526.148 98.36 487.11 84.603 440.503 74.718 C 438.981 74.396 438.01 72.898 438.328 71.376 C 438.65 69.855 440.151 68.886 441.673 69.205 C 488.873 79.217 528.496 93.202 556.256 109.653 C 585.48 126.97 600.601 146.594 599.982 166.398 C 599.149 193.192 569.549 217.616 516.641 235.162 C 465.483 252.124 396.78 261.439 322.955 261.439 Z" id="path15" style="fill-opacity: 1; fill: rgb(255, 255, 255);"/>
    <polygon points="373.989 114.726 448.389 58.014 361.006 92.895 336.449 67.334 344.278 102.754 269.881 159.463 357.267 124.573 381.82 150.134" id="polygon17" style="fill-opacity: 1; fill: rgb(255, 255, 255);"/>
    <path d="M 280.816 185.52 C 281.884 180.269 283.83 181.033 289.153 180.185 L 294.11 179.406 L 292.567 187.67 L 287.61 188.461 C 282.287 189.307 279.941 190.729 280.816 185.52 Z M 270.071 177.953 L 266.215 198.705 C 265.159 204.371 266.871 206.194 272.323 205.331 L 303.893 200.323 L 310.66 163.932 L 279.087 168.934 C 273.635 169.797 271.117 172.29 270.071 177.953 Z M 470.485 145.199 L 470.115 147.204 L 502.68 142.035 C 505.251 141.623 507.754 139.024 508.28 136.215 C 508.794 133.406 507.14 131.46 504.569 131.872 L 496.205 133.193 L 482.861 135.316 L 479.48 135.845 C 475.567 136.471 471.276 140.931 470.485 145.199 Z M 242.008 239.039 L 242.272 237.592 C 243.391 237.676 244.892 238.109 246.203 237.914 L 280.047 232.606 C 278.789 239.357 269.872 241.051 256.26 243.207 L 240.772 245.667 L 232.465 290.332 L 252.817 287.105 C 302.922 282.16 321.983 256.263 328.103 225.394 L 389.156 215.703 L 398.993 162.765 L 403.959 161.971 C 409.399 161.108 408.596 160.125 407.553 165.779 L 398.548 214.218 L 442.38 207.261 L 442.978 204.052 C 446.286 205.511 450.154 206.025 454.244 205.382 L 530.048 193.358 L 537.116 155.31 L 532.205 151.812 C 536.46 146.768 539.778 140.6 540.74 135.421 L 541.934 129.421 C 545.717 106.979 525.026 101.018 515.582 102.519 L 472.082 109.421 C 464.376 110.645 455.895 116.014 449.721 123.126 C 444.013 117.472 435.204 115.274 430.079 116.089 L 381.649 123.77 L 387.072 135.752 L 430.747 128.832 C 437.047 127.827 441.255 130.341 442.41 135.331 C 441.943 136.651 430.747 196.266 430.747 196.266 L 415.086 198.753 L 423.483 153.62 C 424.524 147.968 422.816 146.14 417.378 147.006 L 387.366 151.773 L 377.52 204.711 L 360.305 207.451 L 371.571 146.838 L 357.4 130.122 L 306.386 148.564 L 330.564 144.726 L 330.955 144.672 L 315.58 227.388 C 311.673 248.398 289.253 268.491 269.364 271.649 L 249.015 274.873 L 252.101 258.32 L 267.58 255.872 C 281.189 253.706 296.51 240.085 299.153 225.842 L 300.822 216.879 L 260.513 223.273 C 251.869 224.648 247.178 219.397 248.877 210.266 L 256.107 171.382 C 257.385 164.471 261.698 158.735 267.466 155.752 L 267.559 154.714 L 287.785 139.15 L 275.971 141.138 C 269.683 142.131 258.029 146.844 250.621 156.29 C 245.021 149.607 235.226 146.991 229.71 147.866 L 186.261 154.768 L 193.343 116.708 L 225.042 111.677 C 241.914 109.006 260.585 90.026 263.905 72.203 L 268.669 46.555 C 271.986 28.721 259.445 14.697 242.57 17.374 L 173.295 28.363 L 158.534 107.779 L 94.745 117.902 C 89.347 118.76 84.093 124.083 83.037 129.788 L 59.197 258.007 C 58.141 263.715 61.66 267.652 67.058 266.801 L 188.775 247.487 L 198.621 194.549 L 203.578 193.755 C 209.03 192.901 208.227 191.92 207.169 197.571 L 198.167 245.995 L 242.008 239.039 Z M 151.686 210.013 L 110.986 216.47 L 112.517 208.209 L 145.389 202.982 L 153.389 159.965 L 120.517 165.189 L 122.047 156.919 L 162.748 150.459 L 151.686 210.013 Z M 149.223 223.252 L 145.843 241.448 L 73.834 252.87 L 96.276 132.098 L 155.764 122.66 L 152.691 139.208 L 110.423 145.92 L 103.969 180.66 L 138.405 175.198 L 135.332 191.737 L 100.893 197.198 L 94.426 231.95 L 149.223 223.252 Z M 231.939 227.8 L 214.715 230.521 L 223.102 185.403 C 224.161 179.746 222.45 177.911 216.997 178.774 L 186.988 183.541 L 177.151 236.479 L 159.927 239.216 L 172.841 169.737 L 173.241 169.671 L 230.375 160.606 C 239.018 159.232 243.707 164.474 242.008 173.613 L 231.939 227.8 Z M 343.866 142.6 L 360.699 139.935 L 347.776 209.418 L 330.561 212.146 L 343.472 142.672 L 343.866 142.6 Z M 448.307 175.346 L 454.283 143.205 C 456.178 133.039 467.104 123.054 476.409 121.575 L 516.68 115.193 C 523.465 114.113 528.178 121.692 526.794 129.105 L 524.818 139.451 C 523.432 146.868 515.856 154.75 509.077 155.83 L 467.276 162.465 L 466.674 166.218 C 465.88 170.483 468.71 173.815 472.623 173.192 L 519.345 165.752 L 516.196 182.708 L 463.489 191.063 C 454.181 192.537 446.425 185.52 448.307 175.346 Z M 199.181 85.268 L 205.024 53.831 L 226.94 50.354 C 229.815 49.9 231.283 51.539 230.711 54.57 L 226.718 76.086 C 226.146 79.127 223.972 81.334 221.096 81.791 L 199.181 85.268 Z" id="path21" style="fill-opacity: 1; fill: rgb(255, 255, 255);"/>
    <path d="M 339.258 99.975 L 334.609 81.548 L 331.983 81.863 L 331.141 86.408 C 330.558 89.56 328.025 92.122 325.054 92.6 L 307.048 95.454 C 304.074 95.93 302.374 94.026 302.961 90.877 L 312.034 42.071 C 312.618 38.934 315.15 36.366 318.119 35.891 L 336.127 33.037 C 339.099 32.564 340.798 34.465 340.212 37.602 L 339.051 43.816 L 375.451 38.035 L 376.834 30.595 C 380.323 11.819 367.559 -2.455 349.785 0.354 L 314.958 5.882 C 297.195 8.703 278.179 28.02 274.69 46.796 L 265.003 98.91 C 261.517 117.686 274.281 131.959 292.056 129.138 L 303.695 127.301 L 339.258 99.975 Z" id="path25" style="fill-opacity: 1; fill: rgb(255, 255, 255);"/>
    <path d="M 365.063 88.859 C 366.013 86.303 366.669 85.331 367.156 82.709 L 368.392 76.083 L 353.908 78.387 L 365.063 88.859 Z" id="path27" style="fill-opacity: 1; fill: rgb(255, 255, 255);"/>
  </g>
</svg>