<?xml version="1.0" encoding="utf-8"?>
<svg version="1.0" preserveAspectRatio="xMidYMid meet" xmlns="http://www.w3.org/2000/svg">
  <path d="M 366.298 169.637 C 352.921 157.158 361.127 132.652 378.552 132.652 C 384.06 132.652 388.782 134.9 391.367 138.722 C 393.84 142.657 393.616 144.006 390.58 143.331 C 388.894 142.882 387.433 143.331 386.421 144.455 C 383.948 147.491 387.882 153.674 393.278 155.247 C 400.248 157.383 405.082 155.809 408.342 150.189 C 414.413 139.846 411.49 128.829 398.787 114.103 C 393.053 107.47 384.397 97.24 379.451 91.17 C 376.978 88.135 377.09 80.49 379.676 74.645 C 382.936 67.338 385.859 64.302 392.604 61.155 C 402.384 56.546 411.265 58.119 419.359 66.101 C 422.844 69.473 423.518 69.811 423.518 68.012 C 423.518 66.775 422.394 61.155 422.394 59.918 C 422.507 55.759 427.79 63.853 429.139 70.26 C 431.05 79.591 428.914 86.898 422.057 94.205 C 417.223 99.151 415.199 99.039 417.448 93.755 C 419.696 88.359 418.572 83.975 413.738 78.579 C 409.241 73.633 403.958 72.621 400.698 76.218 C 395.976 81.502 399.461 88.359 413.513 101.287 C 426.778 113.541 430.151 119.274 431.05 131.865 C 432.287 148.165 425.317 162.217 412.726 168.625 C 408.342 170.873 405.532 171.435 399.236 171.435 C 392.379 171.435 390.693 170.986 386.308 168.175 C 381.137 164.803 376.641 160.419 374.392 156.709 C 373.268 154.685 373.043 154.685 371.132 156.484 C 368.996 158.507 368.434 163.903 369.896 168.962 C 370.907 172.672 369.783 172.784 366.298 169.637 Z" style="fill: rgb(255, 255, 255);"/>
  <path d="M 15.109 167.388 C 0.157 159.519 -4.564 142.769 4.879 131.527 C 6.565 129.616 9.375 127.256 11.399 126.244 C 13.31 125.232 15.221 123.883 15.671 123.209 C 16.12 122.534 16.57 94.542 16.57 61.042 C 16.57 7.869 16.795 0 18.256 0 C 19.156 0 20.167 1.124 20.392 2.586 C 24.664 21.921 28.823 32.151 32.084 31.139 C 33.095 30.802 37.03 29.228 40.74 27.654 C 51.756 22.933 61.199 24.17 69.406 31.139 C 75.027 35.973 75.589 39.233 70.305 35.973 C 66.258 33.5 62.099 33.05 60.975 34.962 C 60.525 35.636 62.211 39.009 64.684 42.493 C 75.027 57.332 73.116 64.864 53.892 83.413 C 43.887 93.081 40.852 94.205 37.03 89.371 C 35.793 87.797 34.444 86.561 34.107 86.561 C 33.77 86.561 33.433 98.927 33.433 113.99 C 33.433 129.167 32.983 141.757 32.421 142.095 C 31.859 142.432 29.835 141.87 27.812 140.97 C 23.09 138.61 15.671 139.509 12.973 142.769 C 8.701 148.053 11.286 156.821 19.38 164.69 C 24.102 169.187 24.327 169.749 21.966 169.749 C 20.617 169.637 17.469 168.625 15.109 167.388 Z M 47.822 68.462 C 53.668 61.942 54.117 60.143 51.419 54.522 C 48.159 47.665 45.461 45.529 42.426 47.215 C 39.391 48.789 36.805 54.859 36.805 60.03 C 36.805 65.202 39.953 73.071 41.976 73.071 C 42.876 73.071 45.461 70.935 47.822 68.462 Z" style="fill: rgb(255, 255, 255);"/>
  <path d="M 285.696 143.444 C 281.986 141.757 275.578 132.539 274.341 135.799 L 273.217 138.835 L 271.306 134.675 C 270.294 132.314 269.508 127.593 269.508 124.22 C 269.508 118.712 269.957 117.475 272.768 114.553 C 277.826 109.494 285.133 110.056 288.056 115.902 C 290.529 120.511 290.192 121.073 285.583 120.96 C 281.986 120.848 281.199 121.298 280.974 123.321 C 280.524 126.244 284.347 130.403 287.494 130.403 C 291.092 130.403 294.239 126.356 294.239 121.972 C 294.239 115.789 291.316 110.843 278.164 95.104 C 270.744 86.111 268.833 81.165 269.957 73.633 C 271.643 62.953 281.986 56.658 290.979 61.155 C 292.89 62.166 294.801 62.953 295.026 62.953 C 296.038 62.953 295.139 57.895 293.227 52.836 C 290.642 46.091 291.878 45.641 297.949 51.15 C 304.469 57.108 308.291 66.213 308.291 75.881 C 308.291 81.727 307.729 84.537 306.155 86.898 C 305.031 88.584 303.795 89.933 303.345 89.933 C 302.895 89.933 301.996 87.685 301.209 84.987 C 298.848 75.881 287.494 70.373 286.595 77.905 C 286.145 81.614 288.618 85.437 298.848 96.453 C 308.516 106.796 312.226 114.103 312.226 122.534 C 312.226 129.841 308.404 138.722 303.682 141.982 C 299.972 144.68 290.192 145.58 285.696 143.444 Z" style="fill: rgb(255, 255, 255);"/>
  <path d="M 568.536 142.657 C 556.058 140.184 540.881 128.605 538.071 119.386 C 535.823 111.855 533.125 113.878 531.888 123.771 C 531.326 128.829 531.663 130.853 533.574 134.675 C 537.621 142.544 537.396 142.769 525.255 142.769 C 513.452 142.769 513.339 142.657 516.262 135.687 C 517.611 132.314 517.948 125.232 517.948 96.791 C 517.948 75.432 518.398 61.717 519.073 61.267 C 519.635 60.93 521.658 61.379 523.457 62.391 C 528.403 64.864 539.195 65.764 545.94 64.077 C 552.573 62.504 556.957 63.628 559.43 67.675 C 561.903 71.722 562.24 82.963 560.105 88.809 C 559.093 91.62 557.856 95.442 557.294 97.24 C 556.844 99.151 555.608 102.412 554.596 104.66 C 550.549 114.103 559.318 125.345 573.595 129.167 C 579.777 130.853 585.848 128.829 590.007 123.771 C 594.617 118.15 594.504 110.843 589.895 102.412 C 585.96 95.442 586.073 95.554 587.984 95.554 C 590.12 95.554 594.841 100.95 597.652 106.459 C 600.687 112.529 600.799 122.422 597.877 128.717 C 594.167 137.036 583.6 144.118 575.843 143.781 C 574.606 143.668 571.346 143.219 568.536 142.657 Z M 536.722 96.341 C 537.846 94.88 547.177 84.65 547.177 81.952 C 547.177 80.378 534.361 80.715 532.787 82.289 C 531.438 83.638 530.876 93.98 532.113 97.128 C 533.012 99.601 534.249 99.376 536.722 96.341 Z" style="fill: rgb(255, 255, 255);"/>
  <path d="M 58.164 140.858 C 58.164 139.734 59.176 137.373 60.413 135.462 C 62.436 132.427 62.661 130.178 62.661 113.316 C 62.661 102.861 62.324 94.43 61.874 94.43 C 60.413 94.43 51.307 97.802 47.934 99.489 C 44.225 101.4 42.426 101.625 42.426 100.051 C 42.426 98.365 72.778 68.574 74.577 68.574 C 75.814 68.574 76.151 71.497 76.151 84.875 C 76.151 99.714 76.376 101.175 78.287 102.299 C 81.322 103.873 82.446 103.761 84.47 101.625 C 85.931 100.163 86.268 96.678 86.268 80.715 L 86.268 61.492 L 90.653 52.948 C 93.013 48.227 95.824 41.482 96.948 37.884 C 98.072 34.399 99.196 31.701 99.534 32.039 C 99.871 32.264 99.983 54.522 99.871 81.39 C 99.646 121.86 99.871 130.741 101.22 133.439 C 102.119 135.125 103.131 137.935 103.581 139.734 L 104.255 142.769 L 93.575 142.769 C 83.233 142.769 82.896 142.657 82.896 140.296 C 83.008 138.835 83.683 136.474 84.582 134.9 C 86.83 130.965 86.718 120.96 84.47 118.712 C 82.446 116.576 81.322 116.464 78.287 118.037 C 76.601 119.049 76.151 120.511 76.151 125.794 C 76.151 129.392 76.938 134.225 77.837 136.361 C 78.736 138.61 79.523 140.97 79.523 141.645 C 79.523 142.319 75.476 142.769 68.844 142.769 C 59.401 142.769 58.164 142.544 58.164 140.858 Z" style="fill: rgb(255, 255, 255);"/>
  <path d="M 108.864 139.846 C 105.267 135.35 104.03 129.841 103.468 116.464 C 102.794 103.198 103.805 96.566 108.302 83.975 C 111.899 73.858 111.787 70.598 107.628 65.989 C 105.829 63.853 104.255 61.829 104.255 61.379 C 104.255 61.042 113.698 60.705 125.165 60.705 C 144.613 60.705 146.074 60.817 145.512 62.728 C 145.175 63.74 143.713 67.675 142.364 71.385 C 140.341 77.118 139.891 80.603 139.891 94.992 C 139.779 115.002 141.015 130.965 143.151 135.125 C 144.051 136.811 144.725 139.172 144.725 140.521 C 144.725 142.657 144.051 142.769 134.045 142.769 C 124.153 142.769 123.366 142.657 123.366 140.521 C 123.366 139.284 124.378 136.361 125.614 134.113 C 129.212 127.368 128.649 122.647 123.591 117.7 C 121.23 115.452 118.42 113.541 117.295 113.541 C 115.497 113.541 115.272 114.328 115.722 119.724 C 116.396 127.368 117.52 128.717 121.567 126.918 C 123.141 126.131 124.827 125.907 125.165 126.244 C 126.176 127.256 115.047 142.095 113.024 142.544 C 112.012 142.769 110.213 141.533 108.864 139.846 Z M 124.94 96.453 C 125.277 94.992 125.727 90.158 125.951 85.774 C 126.514 76.106 125.052 74.982 121.455 82.401 C 117.745 89.933 117.183 94.205 119.544 96.791 C 122.129 99.601 124.378 99.489 124.94 96.453 Z" style="fill: rgb(255, 255, 255);"/>
  <path d="M 148.098 140.296 C 148.21 138.835 148.884 136.474 149.784 134.9 C 151.133 132.652 151.358 124.22 151.47 88.584 C 151.47 61.717 151.92 44.967 152.594 44.967 C 153.156 44.967 154.618 47.215 155.854 50.138 C 157.091 52.948 159.901 57.22 162.037 59.806 C 164.848 62.953 167.208 68.012 170.019 76.556 C 172.267 83.301 174.628 88.584 175.19 88.135 C 175.752 87.797 176.202 81.614 176.202 74.42 C 176.202 59.468 177.438 56.208 184.521 51.712 C 188.68 49.238 202.058 47.103 202.058 49.014 C 202.058 49.576 199.697 51.262 196.886 52.723 C 188.568 57.22 188.568 56.995 188.568 97.016 C 188.568 126.244 188.792 132.539 190.254 134.45 C 191.153 135.574 191.94 137.935 191.94 139.734 L 191.94 142.769 L 181.823 142.769 C 172.829 142.769 171.705 142.544 171.705 140.746 C 171.705 139.621 172.492 137.71 173.391 136.474 C 174.291 135.35 175.078 133.101 175.078 131.527 C 175.078 127.368 166.759 103.086 165.072 102.524 C 163.161 101.849 163.723 132.652 165.635 135.012 C 166.309 135.912 167.208 137.935 167.433 139.734 L 167.995 142.769 L 158.103 142.769 C 148.435 142.769 148.098 142.657 148.098 140.296 Z" style="fill: rgb(255, 255, 255);"/>
  <path d="M 195.313 141.083 C 195.313 140.071 196.212 137.935 197.336 136.361 C 198.91 133.888 199.36 129.392 200.146 111.855 C 200.596 100.163 201.046 87.685 201.271 84.312 C 201.495 79.141 201.158 78.13 199.472 77.792 C 198.348 77.567 196.437 78.242 195.2 79.254 C 192.277 81.952 191.715 80.153 192.165 69.698 L 192.502 61.604 L 209.927 61.379 L 227.351 61.267 L 227.689 70.036 L 228.026 78.804 L 224.316 78.467 C 220.719 78.13 220.606 78.242 219.932 83.526 C 219.482 86.561 218.583 90.495 217.908 92.406 C 217.234 94.318 216.672 103.648 216.672 113.204 C 216.672 128.38 216.897 130.965 218.808 133.551 C 219.932 135.237 221.168 137.935 221.618 139.734 L 222.293 142.769 L 208.803 142.769 C 197.448 142.769 195.313 142.544 195.313 141.083 Z" style="fill: rgb(255, 255, 255);"/>
  <path d="M 234.883 140.184 C 230.274 135.237 228.7 128.605 228.7 113.541 C 228.7 100.051 228.813 99.039 232.86 87.91 C 237.581 75.207 237.581 71.834 232.86 65.651 C 231.398 63.74 230.611 61.829 230.949 61.379 C 232.185 60.143 270.632 60.593 270.632 61.829 C 270.632 62.504 269.957 64.415 269.058 66.213 C 265.461 72.958 263.662 87.123 264.336 101.512 C 265.348 122.647 266.585 134.113 268.159 136.811 C 271.194 142.207 270.294 142.769 258.828 142.769 C 252.982 142.769 248.148 142.432 248.148 141.982 C 248.148 141.42 249.497 138.61 250.959 135.462 C 252.533 132.427 253.769 128.605 253.769 127.031 C 253.769 123.321 250.172 117.588 246.35 115.115 C 243.539 113.204 243.314 113.204 241.741 115.227 C 239.043 118.937 242.303 128.942 245.675 127.593 C 252.87 124.558 253.095 125.682 246.912 133.214 C 244.439 136.249 241.853 139.621 241.291 140.746 C 239.83 143.444 237.806 143.331 234.883 140.184 Z M 250.509 94.767 C 250.509 91.732 250.959 86.898 251.521 83.75 C 252.533 77.343 252.308 76.668 249.835 78.692 C 247.361 80.715 245.113 85.324 244.214 90.046 C 243.652 93.081 243.989 94.655 245.9 97.016 C 249.273 101.287 250.397 100.838 250.509 94.767 Z" style="fill: rgb(255, 255, 255);"/>
  <path d="M 311.102 141.083 C 311.102 140.071 313.125 137.373 315.598 134.9 C 323.13 127.48 323.018 120.96 315.036 110.73 C 308.516 102.299 307.167 98.252 308.853 91.957 C 310.54 85.774 317.06 73.408 320.657 69.361 C 327.065 62.616 333.135 60.817 327.627 67.338 C 321.219 74.982 317.622 92.406 321.556 96.341 C 323.13 98.027 323.805 98.027 328.189 96.229 C 340.442 91.507 346.288 80.378 343.703 66.438 C 342.466 59.356 335.721 44.967 329.763 36.648 C 327.627 33.5 326.053 30.802 326.278 30.577 C 328.414 28.329 348.649 49.014 353.932 58.681 C 357.193 64.752 357.755 66.775 357.642 73.071 C 357.53 81.952 355.169 87.797 346.288 100.5 C 335.046 116.464 332.348 126.918 336.958 136.024 C 338.194 138.497 339.206 140.97 339.206 141.645 C 339.206 142.319 334.147 142.769 325.154 142.769 C 313.238 142.769 311.102 142.544 311.102 141.083 Z" style="fill: rgb(255, 255, 255);"/>
  <path d="M 437.008 140.746 C 437.008 139.621 437.795 137.71 438.695 136.474 C 439.931 134.9 440.268 130.741 440.381 119.499 C 440.381 110.618 442.629 98.252 442.517 90.833 L 442.404 78.467 L 439.482 79.141 C 432.849 80.715 433.074 80.94 432.737 71.834 C 432.512 65.539 432.849 62.953 433.973 61.942 C 435.097 61.042 440.606 60.705 451.735 60.93 L 467.923 61.267 L 468.935 67.675 C 469.384 71.272 469.497 75.432 469.16 77.005 C 468.597 79.366 467.923 79.703 465.675 79.141 C 462.302 78.242 459.492 80.265 459.492 83.638 C 459.492 84.875 459.042 95.329 458.592 106.796 C 457.693 126.694 458.143 133.326 460.616 134.9 C 461.178 135.237 462.077 137.148 462.414 139.172 L 463.201 142.769 L 450.049 142.769 C 438.245 142.769 437.008 142.544 437.008 140.746 Z" style="fill: rgb(255, 255, 255);"/>
  <path d="M 475.342 139.846 C 471.408 134.9 470.171 128.492 470.284 112.979 C 470.284 99.601 470.621 97.465 473.881 87.797 C 478.265 75.094 478.265 72.396 474.556 66.888 C 472.869 64.415 472.082 62.279 472.757 61.604 C 473.319 61.042 481.975 60.817 492.205 60.93 C 513.339 61.267 512.103 60.48 507.831 72.509 C 504.458 82.064 503.559 104.098 506.032 115.789 C 507.044 120.398 507.831 126.244 507.831 128.717 C 507.943 131.19 508.618 134.45 509.517 136.024 C 513.002 142.207 512.215 142.769 500.524 142.769 C 493.891 142.769 489.844 142.319 489.844 141.645 C 489.844 140.97 490.856 138.497 492.092 136.024 C 493.329 133.551 494.341 129.392 494.341 126.694 C 494.341 122.309 493.779 121.185 489.732 117.588 C 485.91 114.103 484.898 113.653 483.436 114.777 C 482.2 115.789 481.863 117.475 482.312 120.511 C 483.099 126.806 484.673 128.267 488.832 126.806 C 490.743 126.131 492.43 125.907 492.767 126.244 C 493.104 126.469 491.306 129.167 488.945 132.202 C 486.584 135.237 483.999 138.835 483.212 140.296 C 481.413 143.668 478.153 143.444 475.342 139.846 Z M 491.418 98.702 C 491.755 97.915 492.205 92.744 492.542 87.348 C 492.992 80.041 492.767 77.567 491.868 77.792 C 489.619 78.579 485.348 87.797 485.348 91.957 C 485.348 97.353 490.181 102.636 491.418 98.702 Z" style="fill: rgb(255, 255, 255);"/>
</svg>