<?xml version="1.0" encoding="utf-8"?>
<svg xmlns="http://www.w3.org/2000/svg">
  <path id="path0" d="M 10.081 0.144 C 10.02 0.206 9.97 2.26 9.97 4.709 C 9.97 10.57 10.607 9.927 4.694 10.033 L 0.054 10.117 L 0.011 29.69 C -0.022 45.238 0.012 49.29 0.178 49.396 C 0.54 49.625 19.038 49.565 19.27 49.333 C 19.421 49.182 19.47 46.792 19.47 39.595 C 19.47 31.146 19.5 30.027 19.732 29.795 C 19.966 29.561 21.538 29.533 34.532 29.533 C 45.617 29.533 49.118 29.486 49.27 29.333 C 49.482 29.121 49.579 0.843 49.369 0.297 C 49.264 0.022 10.355 -0.129 10.081 0.144 M 60.081 0.144 C 59.813 0.413 59.959 9.327 60.234 9.432 C 60.379 9.488 62.479 9.533 64.901 9.533 C 69.081 9.533 69.32 9.55 69.637 9.867 C 70.148 10.378 70.163 38.925 69.652 39.557 C 69.334 39.949 69.323 39.95 64.694 40.033 L 60.054 40.117 L 60.009 44.688 C 59.975 48.235 60.012 49.29 60.176 49.394 C 60.542 49.626 99.037 49.567 99.27 49.333 C 99.482 49.122 99.573 40.827 99.369 40.297 C 99.28 40.065 98.712 40.033 94.703 40.033 C 90.359 40.033 90.121 40.017 89.804 39.7 C 89.341 39.237 89.271 10.256 89.732 9.795 C 89.958 9.57 90.629 9.533 94.532 9.533 C 97.84 9.533 99.125 9.479 99.27 9.333 C 99.482 9.122 99.573 0.827 99.369 0.297 C 99.264 0.022 60.355 -0.129 60.081 0.144 M 120.081 0.144 C 120.02 0.206 119.97 2.26 119.97 4.709 C 119.97 10.57 120.607 9.927 114.694 10.033 L 110.054 10.117 L 110.011 29.69 C 109.978 45.238 110.012 49.29 110.178 49.396 C 110.542 49.627 149.038 49.566 149.27 49.333 C 149.482 49.122 149.573 40.827 149.369 40.297 C 149.279 40.061 148.271 40.033 139.703 40.033 C 130.359 40.033 130.129 40.026 129.804 39.7 C 129.341 39.237 129.271 10.256 129.732 9.795 C 129.964 9.563 131.083 9.533 139.532 9.533 C 146.729 9.533 149.119 9.484 149.27 9.333 C 149.482 9.122 149.573 0.827 149.369 0.297 C 149.264 0.022 120.355 -0.129 120.081 0.144 M 170.081 0.144 C 170.02 0.206 169.97 2.26 169.97 4.709 C 169.97 10.57 170.607 9.927 164.694 10.033 L 160.054 10.117 L 160.011 29.69 C 159.978 45.238 160.012 49.29 160.178 49.396 C 160.542 49.627 199.038 49.566 199.27 49.333 C 199.416 49.188 199.47 47.903 199.47 44.595 C 199.47 40.692 199.507 40.021 199.732 39.795 C 199.958 39.57 200.629 39.533 204.532 39.533 C 207.84 39.533 209.125 39.479 209.27 39.333 C 209.482 39.121 209.579 0.845 209.369 0.297 C 209.264 0.022 170.355 -0.129 170.081 0.144 M 260.081 0.144 C 260.02 0.206 259.97 4.51 259.97 9.709 C 259.97 18.767 259.957 19.18 259.652 19.557 C 259.334 19.949 259.323 19.95 254.694 20.033 L 250.054 20.117 L 250.011 34.69 C 249.977 46.238 250.012 49.29 250.178 49.395 C 250.543 49.627 299.038 49.566 299.27 49.333 C 299.482 49.121 299.58 0.846 299.369 0.297 C 299.264 0.022 260.355 -0.129 260.081 0.144 M 29.637 9.867 C 29.954 10.184 29.97 10.422 29.97 14.708 L 29.97 19.215 L 29.561 19.624 L 29.152 20.033 L 24.645 20.033 C 20.359 20.033 20.121 20.017 19.804 19.7 C 19.345 19.242 19.28 10.247 19.732 9.795 C 20.184 9.343 29.179 9.408 29.637 9.867 M 189.637 9.867 C 189.965 10.195 189.97 10.422 189.97 24.708 L 189.97 39.215 L 189.561 39.624 L 189.152 40.033 L 184.645 40.033 C 180.359 40.033 180.121 40.017 179.804 39.7 C 179.341 39.237 179.271 10.256 179.732 9.795 C 180.184 9.343 189.179 9.408 189.637 9.867 M 289.637 9.867 C 289.954 10.184 289.97 10.422 289.97 14.708 L 289.97 19.215 L 289.561 19.624 L 289.152 20.033 L 279.645 20.033 C 270.359 20.033 270.129 20.026 269.804 19.7 C 269.345 19.242 269.28 10.247 269.732 9.795 C 270.191 9.337 289.175 9.405 289.637 9.867 M 220.081 20.144 C 219.813 20.413 219.959 29.327 220.234 29.432 C 220.776 29.64 239.058 29.545 239.27 29.333 C 239.482 29.122 239.573 20.827 239.369 20.297 C 239.264 20.022 220.353 19.872 220.081 20.144 M 289.637 29.867 C 289.954 30.184 289.97 30.422 289.97 34.708 L 289.97 39.215 L 289.561 39.624 L 289.152 40.033 L 279.645 40.033 C 270.359 40.033 270.129 40.026 269.804 39.7 C 269.345 39.242 269.28 30.247 269.732 29.795 C 270.191 29.337 289.175 29.405 289.637 29.867" stroke="none" fill-rule="evenodd" style="fill: rgb(255, 255, 255);"/>
</svg>