<?xml version="1.0" encoding="utf-8"?>
<svg viewBox="0 0 200 40" xmlns="http://www.w3.org/2000/svg">
  <path d="M 55.916 24.22 L 55.916 24.22 L 52.196 24.22 L 51.416 28.75 L 45.716 28.75 L 49.016 10 L 58.016 10 L 58.016 10 C 61.416 10 63.116 11.58 63.116 14.74 L 63.116 14.74 L 63.116 14.74 C 63.116 16.24 62.906 17.593 62.486 18.8 L 62.486 18.8 L 62.486 18.8 C 62.066 20.013 61.603 20.977 61.096 21.69 L 61.096 21.69 L 61.096 21.69 C 60.583 22.397 59.879 22.997 58.986 23.49 L 58.986 23.49 L 58.986 23.49 C 58.099 23.977 57.076 24.22 55.916 24.22 Z M 55.166 14.8 L 53.846 14.8 L 53.036 19.42 L 54.356 19.42 L 54.356 19.42 C 55.036 19.42 55.549 19.347 55.896 19.2 L 55.896 19.2 L 55.896 19.2 C 56.249 19.047 56.476 18.7 56.576 18.16 L 56.576 18.16 L 56.576 18.16 C 56.836 16.68 56.966 15.87 56.966 15.73 L 56.966 15.73 L 56.966 15.73 C 56.966 15.35 56.816 15.1 56.516 14.98 L 56.516 14.98 L 56.516 14.98 C 56.216 14.86 55.766 14.8 55.166 14.8 L 55.166 14.8 Z M 68.366 28.75 L 62.666 28.75 L 65.966 10 L 71.666 10 L 68.366 28.75 Z M 87.746 28.75 L 82.376 28.75 L 79.316 22.09 L 79.316 22.09 C 79.236 21.95 79.196 21.753 79.196 21.5 L 79.196 21.5 L 79.196 21.5 C 79.196 21.253 79.216 20.97 79.256 20.65 L 79.256 20.65 L 79.016 20.65 L 77.606 28.75 L 71.906 28.75 L 75.206 10 L 80.576 10 L 83.636 16.66 L 83.636 16.66 C 83.696 16.8 83.726 16.997 83.726 17.25 L 83.726 17.25 L 83.726 17.25 C 83.726 17.497 83.706 17.78 83.666 18.1 L 83.666 18.1 L 83.906 18.1 L 85.346 10 L 91.046 10 L 87.746 28.75 Z M 101.816 28.75 L 91.556 28.75 L 94.856 10 L 104.096 10 L 104.096 10 C 105.536 10 106.579 10.25 107.226 10.75 L 107.226 10.75 L 107.226 10.75 C 107.879 11.25 108.206 12.02 108.206 13.06 L 108.206 13.06 L 108.206 13.06 C 108.206 14.58 107.869 15.83 107.196 16.81 L 107.196 16.81 L 107.196 16.81 C 106.529 17.79 105.716 18.4 104.756 18.64 L 104.756 18.64 L 104.726 18.82 L 104.726 18.82 C 106.526 19.16 107.426 20.35 107.426 22.39 L 107.426 22.39 L 107.426 22.39 C 107.426 24.19 106.936 25.7 105.956 26.92 L 105.956 26.92 L 105.956 26.92 C 104.976 28.14 103.596 28.75 101.816 28.75 L 101.816 28.75 Z M 100.796 21.28 L 100.796 21.28 L 98.546 21.28 L 98.006 24.34 L 100.226 24.34 L 100.226 24.34 C 100.726 24.34 101.106 24.14 101.366 23.74 L 101.366 23.74 L 101.366 23.74 C 101.626 23.34 101.756 22.83 101.756 22.21 L 101.756 22.21 L 101.756 22.21 C 101.756 21.59 101.436 21.28 100.796 21.28 Z M 101.636 14.11 L 101.636 14.11 L 99.836 14.11 L 99.326 16.9 L 101.096 16.9 L 101.096 16.9 C 102.016 16.9 102.476 16.25 102.476 14.95 L 102.476 14.95 L 102.476 14.95 C 102.476 14.39 102.196 14.11 101.636 14.11 Z M 114.326 25.78 L 113.156 28.75 L 107.156 28.75 L 115.046 10 L 123.866 10 L 125.186 28.75 L 119.156 28.75 L 119.036 25.78 L 114.326 25.78 Z M 118.586 15.76 L 118.286 15.76 L 116.186 21.01 L 118.586 21.01 L 118.586 15.76 Z M 139.406 23.95 L 138.566 28.75 L 127.166 28.75 L 130.466 10 L 136.166 10 L 133.706 23.95 L 139.406 23.95 Z M 152.186 23.95 L 151.346 28.75 L 139.946 28.75 L 143.246 10 L 148.946 10 L 146.486 23.95 L 152.186 23.95 Z" style="white-space: pre; fill: rgb(255, 255, 255);"/>
  <path d="M 52.224 32.074 C 51.999 32.042 51.862 32.006 50.65 31.659 C 46.603 30.505 42.006 29.109 40.111 28.46 C 38.908 28.048 38.6 27.919 38.199 27.652 C 37.931 27.474 37.766 27.338 37.541 27.112 C 36.912 26.484 36.525 25.732 36.364 24.831 C 36.331 24.638 36.33 24.624 36.33 24.173 C 36.33 23.79 36.334 23.689 36.352 23.57 C 36.466 22.835 36.748 22.19 37.214 21.591 C 37.34 21.429 37.655 21.105 37.816 20.972 C 38.454 20.443 39.205 20.121 40.031 20.022 C 40.264 19.993 40.72 19.993 40.954 20.022 C 41.452 20.082 41.886 20.212 42.333 20.435 C 42.743 20.639 43.408 21.079 44.716 22.012 C 46.521 23.302 49.837 25.782 52.328 27.707 C 52.477 27.822 52.685 27.983 52.79 28.064 C 52.894 28.145 53.097 28.302 53.238 28.413 C 53.954 28.975 54.366 29.551 54.481 30.155 C 54.511 30.306 54.511 30.574 54.482 30.719 C 54.441 30.927 54.357 31.124 54.239 31.293 C 54.15 31.421 53.901 31.666 53.773 31.751 C 53.512 31.922 53.231 32.028 52.914 32.073 C 52.747 32.096 52.39 32.097 52.224 32.074 Z M 40.849 25.633 C 41.322 25.505 41.683 25.192 41.876 24.742 C 42.117 24.184 41.972 23.51 41.522 23.082 C 41.224 22.8 40.786 22.637 40.4 22.666 C 39.616 22.724 39.015 23.337 38.984 24.112 C 38.953 24.879 39.508 25.545 40.277 25.666 C 40.298 25.668 40.409 25.669 40.523 25.667 C 40.701 25.664 40.749 25.66 40.849 25.633 Z" style="fill: rgb(204, 204, 204);"/>
  <path d="M 117.794 22.03 C 117.447 21.997 117.009 21.899 116.677 21.779 C 115.354 21.299 114.317 20.236 113.874 18.905 C 113.537 17.89 113.565 16.778 113.957 15.791 C 114.189 15.207 114.505 14.723 114.947 14.267 C 115.312 13.894 115.683 13.619 116.138 13.384 C 117.652 12.603 119.487 12.736 120.876 13.725 C 121.094 13.882 121.259 14.022 121.465 14.229 C 122.187 14.95 122.634 15.853 122.775 16.877 C 122.801 17.075 122.812 17.649 122.794 17.861 C 122.672 19.207 121.974 20.416 120.864 21.208 C 120.221 21.666 119.426 21.96 118.637 22.031 C 118.475 22.044 117.952 22.044 117.794 22.03 Z M 115.784 19.183 C 115.733 19.033 115.679 18.804 115.651 18.633 C 115.623 18.443 115.623 17.98 115.651 17.785 C 115.768 17.016 116.103 16.359 116.647 15.829 C 117.193 15.298 117.852 14.98 118.604 14.884 C 118.79 14.86 119.218 14.864 119.394 14.891 C 119.571 14.918 119.799 14.972 119.944 15.022 C 120.006 15.043 120.057 15.058 120.061 15.055 C 120.068 15.046 119.885 14.914 119.772 14.845 C 119.419 14.631 119.026 14.496 118.588 14.437 C 118.434 14.418 118.006 14.418 117.856 14.439 C 116.953 14.563 116.181 15.045 115.68 15.798 C 115.582 15.944 115.42 16.268 115.357 16.44 C 115.035 17.32 115.153 18.324 115.671 19.11 C 115.724 19.191 115.812 19.304 115.816 19.298 C 115.819 19.295 115.804 19.244 115.784 19.183 Z" style="fill: rgb(20, 20, 20);"/>
  <path d="M 161.39 20.017 C 161.165 20.049 161.028 20.085 159.816 20.432 C 155.769 21.586 151.172 22.982 149.277 23.631 C 148.074 24.043 147.766 24.172 147.365 24.439 C 147.097 24.617 146.932 24.753 146.707 24.979 C 146.078 25.607 145.691 26.359 145.53 27.26 C 145.497 27.453 145.496 27.467 145.496 27.918 C 145.496 28.301 145.5 28.402 145.518 28.521 C 145.632 29.256 145.914 29.901 146.38 30.5 C 146.506 30.662 146.821 30.986 146.982 31.119 C 147.62 31.648 148.371 31.97 149.197 32.069 C 149.43 32.098 149.886 32.098 150.12 32.069 C 150.618 32.009 151.052 31.879 151.499 31.656 C 151.909 31.452 152.574 31.012 153.882 30.079 C 155.687 28.789 159.003 26.309 161.494 24.384 C 161.643 24.269 161.851 24.108 161.956 24.027 C 162.06 23.946 162.263 23.789 162.404 23.678 C 163.12 23.116 163.532 22.54 163.647 21.936 C 163.677 21.785 163.677 21.517 163.648 21.372 C 163.607 21.164 163.523 20.967 163.405 20.798 C 163.316 20.67 163.067 20.425 162.939 20.34 C 162.678 20.169 162.397 20.063 162.08 20.018 C 161.913 19.995 161.556 19.994 161.39 20.017 Z M 150.015 26.458 C 150.488 26.586 150.849 26.899 151.042 27.349 C 151.283 27.907 151.138 28.581 150.688 29.009 C 150.39 29.291 149.952 29.454 149.566 29.425 C 148.782 29.367 148.181 28.754 148.15 27.979 C 148.119 27.212 148.674 26.546 149.443 26.425 C 149.464 26.423 149.575 26.422 149.689 26.424 C 149.867 26.427 149.915 26.431 150.015 26.458 Z" style="fill: rgb(204, 204, 204);" transform="matrix(-1, 0, 0, -1, 309.165644, 52.090991)"/>
</svg>