<?xml version="1.0" encoding="utf-8"?>
<svg viewBox="0 0 200 40" xmlns="http://www.w3.org/2000/svg">
  <path d="M 37.7 24.67 L 37.7 24.67 L 33.98 24.67 L 33.2 29.2 L 27.5 29.2 L 30.8 10.45 L 39.8 10.45 L 39.8 10.45 C 43.2 10.45 44.9 12.03 44.9 15.19 L 44.9 15.19 L 44.9 15.19 C 44.9 16.69 44.69 18.043 44.27 19.25 L 44.27 19.25 L 44.27 19.25 C 43.85 20.463 43.387 21.427 42.88 22.14 L 42.88 22.14 L 42.88 22.14 C 42.367 22.847 41.663 23.447 40.77 23.94 L 40.77 23.94 L 40.77 23.94 C 39.883 24.427 38.86 24.67 37.7 24.67 Z M 36.95 15.25 L 35.63 15.25 L 34.82 19.87 L 36.14 19.87 L 36.14 19.87 C 36.82 19.87 37.333 19.797 37.68 19.65 L 37.68 19.65 L 37.68 19.65 C 38.033 19.497 38.26 19.15 38.36 18.61 L 38.36 18.61 L 38.36 18.61 C 38.62 17.13 38.75 16.32 38.75 16.18 L 38.75 16.18 L 38.75 16.18 C 38.75 15.8 38.6 15.55 38.3 15.43 L 38.3 15.43 L 38.3 15.43 C 38 15.31 37.55 15.25 36.95 15.25 L 36.95 15.25 Z M 56.93 24.4 L 56.09 29.2 L 44.69 29.2 L 47.99 10.45 L 53.69 10.45 L 51.23 24.4 L 56.93 24.4 Z M 61.4 26.23 L 60.23 29.2 L 54.23 29.2 L 62.12 10.45 L 70.94 10.45 L 72.26 29.2 L 66.23 29.2 L 66.11 26.23 L 61.4 26.23 Z M 65.66 16.21 L 65.36 16.21 L 63.26 21.46 L 65.66 21.46 L 65.66 16.21 Z M 89.09 10.45 L 88.22 15.25 L 84.08 15.25 L 81.65 29.2 L 75.95 29.2 L 78.38 15.25 L 74.27 15.25 L 75.14 10.45 L 89.09 10.45 Z M 100.76 17.77 L 99.95 22.24 L 95.09 22.24 L 93.89 29.2 L 88.19 29.2 L 91.49 10.45 L 103.19 10.45 L 101.6 15.25 L 96.32 15.25 L 95.9 17.77 L 100.76 17.77 Z M 109.76 16.72 L 109.76 16.72 L 108.38 24.52 L 110.75 24.52 L 110.75 24.52 C 111.53 24.52 112.11 24.427 112.49 24.24 L 112.49 24.24 L 112.49 24.24 C 112.87 24.047 113.12 23.61 113.24 22.93 L 113.24 22.93 L 114.62 15.13 L 112.22 15.13 L 112.22 15.13 C 111.46 15.13 110.89 15.223 110.51 15.41 L 110.51 15.41 L 110.51 15.41 C 110.13 15.603 109.88 16.04 109.76 16.72 Z M 113.21 10 L 113.21 10 L 113.21 10 C 115.75 10 117.56 10.497 118.64 11.49 L 118.64 11.49 L 118.64 11.49 C 119.72 12.477 120.26 14 120.26 16.06 L 120.26 16.06 L 120.26 16.06 C 120.26 18.12 119.933 20.277 119.28 22.53 L 119.28 22.53 L 119.28 22.53 C 118.633 24.777 117.603 26.523 116.19 27.77 L 116.19 27.77 L 116.19 27.77 C 114.783 29.023 112.723 29.65 110.01 29.65 L 110.01 29.65 L 110.01 29.65 C 107.303 29.65 105.41 29.157 104.33 28.17 L 104.33 28.17 L 104.33 28.17 C 103.25 27.177 102.71 25.65 102.71 23.59 L 102.71 23.59 L 102.71 23.59 C 102.71 22.61 102.85 21.317 103.13 19.71 L 103.13 19.71 L 103.13 19.71 C 103.41 18.097 103.78 16.707 104.24 15.54 L 104.24 15.54 L 104.24 15.54 C 104.7 14.367 105.32 13.35 106.1 12.49 L 106.1 12.49 L 106.1 12.49 C 107.6 10.83 109.97 10 113.21 10 Z M 134.75 22.96 L 136.73 29.2 L 130.46 29.2 L 129.08 23.62 L 127.85 23.62 L 126.89 29.2 L 121.19 29.2 L 124.49 10.45 L 133.49 10.45 L 133.49 10.45 C 136.91 10.45 138.62 11.98 138.62 15.04 L 138.62 15.04 L 138.62 15.04 C 138.62 16.3 138.43 17.5 138.05 18.64 L 138.05 18.64 L 138.05 18.64 C 137.35 20.8 136.25 22.24 134.75 22.96 L 134.75 22.96 Z M 130.46 15.25 L 129.32 15.25 L 128.66 19 L 129.98 19 L 129.98 19 C 130.66 19 131.173 18.927 131.52 18.78 L 131.52 18.78 L 131.52 18.78 C 131.873 18.627 132.113 18.197 132.24 17.49 L 132.24 17.49 L 132.24 17.49 C 132.373 16.777 132.44 16.34 132.44 16.18 L 132.44 16.18 L 132.44 16.18 C 132.44 15.78 132.287 15.523 131.98 15.41 L 131.98 15.41 L 131.98 15.41 C 131.667 15.303 131.16 15.25 130.46 15.25 L 130.46 15.25 Z M 146.51 20.11 L 144.56 29.2 L 138.62 29.2 L 143 10.45 L 150.44 10.45 L 150.98 19.99 L 151.19 19.99 L 155.09 10.45 L 162.53 10.45 L 160.31 29.2 L 154.34 29.2 L 155.6 20.11 L 155.39 20.11 L 151.64 29.2 L 147.29 29.2 L 146.66 20.11 L 146.51 20.11 Z M 176.9 17.77 L 176.12 22.12 L 170.42 22.12 L 170.03 24.4 L 177.02 24.4 L 176.18 29.2 L 163.49 29.2 L 166.79 10.45 L 179.33 10.45 L 177.77 15.25 L 171.62 15.25 L 171.2 17.77 L 176.9 17.77 Z M 192.95 22.96 L 194.93 29.2 L 188.66 29.2 L 187.28 23.62 L 186.05 23.62 L 185.09 29.2 L 179.39 29.2 L 182.69 10.45 L 191.69 10.45 L 191.69 10.45 C 195.11 10.45 196.82 11.98 196.82 15.04 L 196.82 15.04 L 196.82 15.04 C 196.82 16.3 196.63 17.5 196.25 18.64 L 196.25 18.64 L 196.25 18.64 C 195.55 20.8 194.45 22.24 192.95 22.96 L 192.95 22.96 Z M 188.66 15.25 L 187.52 15.25 L 186.86 19 L 188.18 19 L 188.18 19 C 188.86 19 189.373 18.927 189.72 18.78 L 189.72 18.78 L 189.72 18.78 C 190.073 18.627 190.313 18.197 190.44 17.49 L 190.44 17.49 L 190.44 17.49 C 190.573 16.777 190.64 16.34 190.64 16.18 L 190.64 16.18 L 190.64 16.18 C 190.64 15.78 190.487 15.523 190.18 15.41 L 190.18 15.41 L 190.18 15.41 C 189.867 15.303 189.36 15.25 188.66 15.25 L 188.66 15.25 Z" style="white-space: pre; fill: rgb(255, 255, 255);"/>
  <g id="layer2" fill="#d4d4d4" stroke="none" transform="matrix(0.008929, 0, 0, 0.008929, 3.038644, 9)">
    <path d="M0 1120 l0 -1120 1120 0 1120 0 0 1120 0 1120 -1120 0 -1120 0 0 -1120z m300 920 l0 -100 -100 0 -100 0 0 100 0 100 100 0 100 0 0 -100z m1840 0 l0 -100 -100 0 -100 0 0 100 0 100 100 0 100 0 0 -100z m-780 -285 l0 -155 -160 0 -160 0 0 155 0 155 160 0 160 0 0 -155z m0 -485 l0 -160 160 0 160 0 0 -315 0 -315 -85 0 -85 0 0 -80 0 -80 -400 0 -400 0 0 80 0 80 -75 0 -75 0 0 240 0 240 160 0 160 0 0 -240 0 -240 240 0 240 0 0 240 0 240 -85 0 -85 0 0 75 0 75 -75 0 -75 0 0 160 0 160 160 0 160 0 0 -160z m-1060 -1070 l0 -100 -100 0 -100 0 0 100 0 100 100 0 100 0 0 -100z m1840 0 l0 -100 -100 0 -100 0 0 100 0 100 100 0 100 0 0 -100z" style="fill: rgb(204, 204, 204);"/>
  </g>
</svg>