<?xml version="1.0" encoding="utf-8"?>
<svg id="svg3336" version="1.1" xmlns="http://www.w3.org/2000/svg">
  <g>
    <path d="M 552.813 65.277 L 548.328 83.757 L 544.188 63.294 L 488.736 51.087 L 489.126 81.921 L 497.481 83.793 L 496.878 89.355 C 496.77 89.313 496.704 89.247 496.644 89.199 C 486.285 83.733 473.442 83.175 461.355 87.738 C 457.302 89.289 453.537 91.329 450.123 93.807 L 441.759 41.001 L 404.88 41.001 L 403.866 47.073 L 365.052 47.073 L 360.618 74.22 L 357.399 70.242 C 347.994 58.689 334.359 52.323 319.254 52.008 L 352.209 34.293 L 329.229 0 L 287.709 47.841 L 294.876 56.58 C 288.384 59.232 282.714 62.889 278.016 67.308 L 242.415 35.724 L 229.968 59.58 L 230.448 36.654 L 174.789 54.435 L 176.217 84.336 L 185.685 81.879 L 187.086 97.035 C 176.265 92.175 163.26 92.295 151.2 97.392 C 147.624 98.949 144.294 100.863 141.222 103.089 C 143.307 93.858 142.815 84.756 139.296 76.638 C 135.141 67.047 127.83 59.121 118.869 54.12 C 112.584 49.935 105.096 47.325 97.257 46.44 C 78 43.071 54.873 46.53 32.112 56.226 C 23.742 59.796 15.939 63.846 8.898 68.331 L 0 73.974 L 5.373 83.046 L 22.05 111.231 C 22.05 111.231 27.153 119.868 27.186 119.862 L 36.204 115.431 L 37.461 114.852 L 78.9 207.336 L 82.896 216.225 L 92.148 213.243 L 114.57 206.061 L 124.395 202.941 L 121.803 192.939 L 109.896 147.228 C 113.319 144.693 116.517 142.002 119.469 139.188 C 118.803 144.651 119.151 150.18 120.657 155.472 C 123.768 166.554 131.025 175.305 141.096 180.156 C 151.971 185.382 165.24 185.397 177.516 180.189 C 183.675 177.579 189.15 173.766 193.788 169.23 L 195.48 187.434 L 234.744 181.653 L 234.681 146.448 L 316.725 186.996 L 316.725 147.735 C 320.016 147.459 323.376 146.94 326.754 146.109 C 335.79 143.928 343.524 140.934 350.394 136.818 L 346.947 157.902 L 391.182 164.865 L 393.609 148.947 L 405.165 170.289 L 412.227 156.681 L 414.807 179.025 L 464.961 187.866 L 462.3 170.994 C 469.167 171.771 476.403 170.85 483.393 168.213 C 485.049 167.601 486.681 166.854 488.247 166.056 L 486.249 184.008 L 519.627 188.718 L 519.876 202.407 L 554.682 213.333 L 600 76.746 L 552.813 65.277 Z M 356.85 85.575 L 359.148 83.127 L 356.37 100.35 L 349.119 93.819 L 356.85 85.575 Z M 327.456 15.228 L 339.609 31.737 L 304.866 48.96 L 302.466 45.312 L 327.456 15.228 Z M 97.41 142.518 L 111.27 195.702 L 88.836 202.866 L 42.801 100.059 C 40.299 101.376 35.673 103.584 31.428 105.666 L 14.757 77.505 C 21.387 73.272 28.656 69.522 36.39 66.252 C 58.092 57.024 78.798 54.27 95.358 57.195 C 101.217 57.855 107.421 59.583 112.854 63.186 C 120.306 67.386 126.006 73.359 129.294 80.967 C 137.313 99.495 123.918 126.159 97.41 142.518 Z M 200.55 133.053 C 200.292 140.973 197.382 148.905 192.516 155.619 C 187.884 162.108 181.416 167.466 173.805 170.742 C 154.341 178.989 134.88 170.742 129.681 152.265 C 124.644 134.4 136.362 113.13 155.22 105.006 C 167.265 99.921 179.349 101.127 188.004 107.01 C 193.35 110.634 197.427 116.088 199.332 122.919 C 199.572 123.645 199.728 124.407 199.89 125.151 C 200.433 127.755 200.652 130.422 200.55 133.053 Z M 306.444 170.652 L 225.036 129.939 L 225.183 172.596 L 204.123 175.47 L 202.656 157.884 C 209.157 146.736 211.536 133.596 208.143 121.551 C 206.28 114.927 202.839 109.179 198.162 104.574 L 195.141 68.721 L 185.685 71.172 L 185.268 62.109 L 219.084 52.038 L 221.157 86.916 L 246.072 51.915 L 270.426 75.108 L 236.367 110.991 L 268.365 123.648 C 271.938 130.422 277.392 136.176 284.232 140.415 C 290.847 144.498 298.422 146.913 306.438 147.705 L 306.444 170.652 L 306.444 170.652 Z M 264.174 111.666 L 252.852 107.295 L 263.406 97.038 C 262.956 101.745 263.187 106.671 264.174 111.666 Z M 352.764 122.331 C 344.952 128.793 336.048 133.005 324.282 135.849 C 321.711 136.437 319.191 136.866 316.725 137.085 C 298.05 138.918 282.384 130.344 276.438 116.436 C 275.697 114.75 275.127 113.046 274.695 111.228 C 271.944 99.513 274.293 89.043 280.08 80.841 C 281.748 78.447 283.725 76.266 285.945 74.304 C 291.396 69.438 298.356 65.904 306.267 64.002 C 324.057 59.712 339.723 65.142 349.329 76.929 L 315.429 113.01 C 317.727 113.445 321.384 112.842 324.081 112.197 C 332.154 110.226 336.672 105.942 340.653 101.271 L 354.201 113.46 L 358.305 117.168 C 356.526 119.007 354.657 120.744 352.764 122.331 Z M 424.683 170.484 L 417.309 121.635 L 406.881 148.584 L 391.266 114.903 L 391.089 114.903 L 384.918 153.906 L 358.893 149.376 L 362.553 127.611 C 363.534 126.69 364.5 125.763 365.451 124.785 L 373.887 116.1 L 365.688 108.756 L 374.4 56.925 L 400.656 56.925 L 407.229 92.805 L 414.594 51.222 L 433.377 51.222 L 441.171 101.883 C 431.253 113.181 426.435 128.37 429.75 142.266 C 432.312 153.036 438.933 161.712 448.422 166.779 C 449.376 167.259 450.366 167.736 451.386 168.147 L 452.379 174.714 L 424.683 170.484 Z M 489.537 154.569 C 486.669 156.612 483.51 158.349 480.114 159.6 C 473.412 162.153 466.743 162.684 460.803 161.505 C 456.663 160.686 452.886 159.072 449.601 156.735 C 444.378 152.955 440.529 147.375 438.834 140.367 C 436.857 131.946 438.678 122.955 443.208 115.08 C 445.467 111.231 448.362 107.613 451.791 104.496 C 455.613 101.07 460.044 98.262 464.976 96.366 C 476.451 92.085 487.77 93.561 495.738 99.291 C 498.669 101.367 501.102 104.01 503.019 107.085 C 504.471 109.512 505.602 112.188 506.286 115.107 C 508.725 125.22 505.821 136.047 499.44 144.771 C 496.71 148.491 493.38 151.833 489.537 154.569 Z M 548.139 200.61 L 528.894 194.877 L 527.217 123.924 L 517.539 178.659 L 496.542 175.308 L 498.045 159.549 C 511.755 147.963 519.024 129.69 515.04 113.127 C 513.291 105.795 509.52 99.411 504.204 94.554 L 505.977 75.969 L 498.039 73.857 L 498.57 63.933 L 534.741 71.202 L 546.906 128.88 L 559.38 77.169 L 586.899 83.25 L 548.139 200.61 Z" id="path3522" style="fill-opacity: 1; fill: rgb(255, 255, 255);"/>
    <path d="M 489.996 109.038 C 490.212 109.893 490.323 110.742 490.296 111.642 C 490.059 117.03 484.995 121.188 478.959 120.906 C 472.926 120.699 468.186 116.118 468.423 110.745 C 468.627 105.708 473.115 101.721 478.659 101.466 C 477.606 101.229 476.505 101.103 475.359 101.064 C 465.261 100.629 457.005 107.781 456.657 116.685 C 456.27 126.21 463.902 133.974 473.841 134.406 C 483.954 134.808 492.204 127.632 492.606 118.155 C 492.723 114.867 491.754 111.717 489.996 109.038" id="path3500" style="fill-opacity: 1; fill: rgb(255, 255, 255);"/>
    <path d="M 183.621 119.916 C 183.621 125.325 178.701 129.66 172.677 129.66 C 166.635 129.66 161.733 125.322 161.733 119.916 C 161.733 114.873 166.044 110.715 171.573 110.235 C 170.514 110.04 169.41 109.929 168.273 109.929 C 158.178 109.929 150.21 117.42 150.21 126.336 C 150.21 135.855 158.178 143.319 168.111 143.319 C 178.218 143.319 186.174 135.849 186.174 126.336 C 186.174 123.045 185.088 119.94 183.216 117.384 C 183.468 118.155 183.621 119.007 183.621 119.916" id="path3509" style="fill-opacity: 1; fill: rgb(255, 255, 255);"/>
    <path style="fill:#7d7f68" d="M 335.766 106.185 C 335.616 106.32 335.478 106.485 335.361 106.656 C 335.517 106.515 335.667 106.392 335.829 106.257 L 335.766 106.185 Z" id="path3414"/>
    <path style="fill:#7d7f68" d="M 252.852 107.295 L 252.969 107.343 L 252.852 107.295 Z" id="path3420"/>
    <path d="M 318.657 83.649 C 318.657 89.061 313.737 93.393 307.71 93.393 C 301.668 93.393 296.769 89.058 296.769 83.649 C 296.769 78.609 301.08 74.451 306.606 73.968 C 305.547 73.776 304.446 73.665 303.306 73.665 C 293.211 73.665 285.246 81.153 285.246 90.075 C 285.246 99.591 293.214 107.055 303.144 107.055 C 313.251 107.055 321.21 99.585 321.21 90.075 C 321.21 86.778 320.121 83.673 318.249 81.117 C 318.504 81.888 318.657 82.743 318.657 83.649" id="path3509-8" style="fill-opacity: 1; fill: rgb(255, 255, 255);"/>
    <path d="M 107.247 92.526 C 107.247 97.935 102.327 102.27 96.3 102.27 C 90.258 102.27 85.356 97.932 85.356 92.526 C 85.356 87.483 89.67 83.328 95.196 82.845 C 94.137 82.653 93.036 82.542 91.896 82.542 C 81.801 82.542 73.836 90.03 73.836 98.949 C 73.836 108.465 81.804 115.932 91.734 115.932 C 101.841 115.932 109.8 108.462 109.8 98.949 C 109.8 95.655 108.711 92.55 106.839 89.994 C 107.091 90.765 107.247 91.617 107.247 92.526" id="path3509-2" style="fill-opacity: 1; fill: rgb(255, 255, 255);"/>
  </g>
</svg>