<?xml version="1.0" encoding="utf-8"?>
<svg version="1.1" xmlns="http://www.w3.org/2000/svg">
  <g>
    <path d="M 84.453 80.481 C 93.252 70.194 106.32 63.669 120.918 63.669 C 123.846 63.669 126.711 63.948 129.495 64.446 C 131.373 59.313 132.396 53.769 132.396 47.982 C 132.396 21.483 110.907 0 84.408 0 C 57.903 0 36.42 21.483 36.42 47.985 C 36.42 53.778 37.452 59.328 39.333 64.464 C 42.141 63.954 45.03 63.669 47.988 63.669 C 62.586 63.672 75.651 70.197 84.453 80.481 Z M 129.495 64.449 C 123.735 80.217 109.941 92.106 93.072 95.187 C 94.947 100.323 95.976 105.876 95.976 111.657 C 95.976 123.564 91.632 134.448 84.453 142.833 C 93.255 153.12 106.32 159.648 120.918 159.648 C 147.423 159.648 168.906 138.162 168.906 111.657 C 168.906 88.083 151.905 68.496 129.495 64.449 Z M 75.834 95.196 C 58.929 92.145 45.105 80.244 39.333 64.467 C 16.965 68.541 0 88.113 0 111.657 C 0 138.162 21.486 159.648 47.988 159.648 C 62.586 159.648 75.651 153.12 84.453 142.836 C 77.277 134.448 72.933 123.564 72.933 111.66 C 72.933 105.876 73.959 100.329 75.834 95.196 Z M 75.834 95.196 C 78.618 95.7 81.48 95.97 84.408 95.97 C 87.369 95.97 90.261 95.697 93.072 95.184 C 91.089 89.751 88.14 84.792 84.453 80.478 C 80.763 84.792 77.817 89.766 75.834 95.196 Z" id="path9" style="fill-opacity: 1; fill: rgb(255, 255, 255);"/>
    <path d="M 267.966 59.187 C 267.966 68.61 264.765 75.834 258.366 80.859 C 251.964 85.881 242.898 88.392 231.162 88.392 L 216.096 88.392 L 216.096 128.661 L 209.295 128.661 L 209.295 31.185 L 233.163 31.185 C 256.365 31.185 267.966 40.518 267.966 59.187 Z M 216.096 82.524 L 229.497 82.524 C 240.474 82.524 248.409 80.712 253.299 77.088 C 258.186 73.467 260.631 67.587 260.631 59.454 C 260.631 51.942 258.321 46.377 253.698 42.753 C 249.075 39.132 241.92 37.32 232.23 37.32 L 216.096 37.32 L 216.096 82.524 L 216.096 82.524 Z" id="path13" style="fill-opacity: 1; fill: rgb(255, 255, 255);"/>
    <path d="M 371.109 79.791 C 371.109 95.259 367.245 107.493 359.508 116.493 C 351.771 125.499 341.106 129.999 327.507 129.999 C 313.947 129.999 303.303 125.499 295.569 116.493 C 287.835 107.493 283.968 95.217 283.968 79.656 C 283.968 64.146 287.868 51.933 295.668 43.02 C 303.471 34.107 314.127 29.652 327.639 29.652 C 341.244 29.652 351.885 34.131 359.577 43.086 C 367.263 52.044 371.109 64.278 371.109 79.791 Z M 291.369 79.791 C 291.369 93.747 294.48 104.535 300.702 112.161 C 306.924 119.784 315.861 123.597 327.507 123.597 C 339.24 123.597 348.21 119.82 354.408 112.26 C 360.606 104.703 363.708 93.885 363.708 79.791 C 363.708 65.745 360.606 54.978 354.408 47.49 C 348.21 39.999 339.285 36.255 327.639 36.255 C 316.038 36.255 307.092 40.032 300.804 47.589 C 294.513 55.143 291.369 65.88 291.369 79.791 Z" id="path15" style="fill-opacity: 1; fill: rgb(255, 255, 255);"/>
    <path d="M 400.314 86.19 L 400.314 128.661 L 393.51 128.661 L 393.51 31.185 L 416.712 31.185 C 428.805 31.185 437.739 33.417 443.52 37.884 C 449.298 42.351 452.187 49.077 452.187 58.053 C 452.187 64.59 450.465 70.101 447.021 74.589 C 443.574 79.08 438.345 82.302 431.319 84.258 L 457.788 128.664 L 449.655 128.664 L 424.515 86.19 L 400.314 86.19 L 400.314 86.19 Z M 400.314 80.322 L 418.914 80.322 C 427.137 80.322 433.515 78.492 438.051 74.823 C 442.584 71.157 444.855 65.748 444.855 58.587 C 444.855 51.165 442.629 45.768 438.186 42.387 C 433.74 39.009 426.492 37.32 416.445 37.32 L 400.314 37.32 L 400.314 80.322 Z" id="path17" style="fill-opacity: 1; fill: rgb(255, 255, 255);"/>
    <path d="M 500.055 128.661 L 493.191 128.661 L 493.191 37.587 L 461.517 37.587 L 461.517 31.185 L 531.726 31.185 L 531.726 37.587 L 500.055 37.587 L 500.055 128.661 L 500.055 128.661 Z" id="path19" style="fill-opacity: 1; fill: rgb(255, 255, 255);"/>
    <path d="M 600 103.524 C 600 111.663 597.009 118.107 591.03 122.862 C 585.051 127.617 577.107 129.996 567.195 129.996 C 555.282 129.996 546.147 128.682 539.79 126.057 L 539.79 119.256 C 546.816 122.235 555.768 123.726 566.658 123.726 C 574.662 123.726 581.007 121.893 585.696 118.23 C 590.385 114.558 592.728 109.746 592.728 103.791 C 592.728 100.104 591.951 97.047 590.391 94.623 C 588.837 92.202 586.305 89.991 582.795 87.99 C 579.279 85.989 574.128 83.832 567.324 81.522 C 557.37 78.102 550.491 74.4 546.69 70.425 C 542.886 66.444 540.987 61.143 540.987 54.522 C 540.987 47.232 543.843 41.289 549.558 36.687 C 555.27 32.085 562.611 29.787 571.59 29.787 C 580.746 29.787 589.347 31.521 597.393 34.986 L 594.927 40.854 C 586.836 37.476 579.102 35.784 571.725 35.784 C 564.525 35.784 558.792 37.452 554.526 40.788 C 550.254 44.121 548.124 48.657 548.124 54.39 C 548.124 57.99 548.775 60.948 550.086 63.258 C 551.394 65.571 553.545 67.647 556.518 69.495 C 559.497 71.337 564.609 73.551 571.854 76.128 C 579.453 78.753 585.165 81.294 588.987 83.763 C 592.803 86.229 595.596 89.031 597.351 92.163 C 599.121 95.292 600 99.081 600 103.524 Z" id="path21" style="fill-opacity: 1; fill: rgb(255, 255, 255);"/>
  </g>
</svg>