<?xml version="1.0" encoding="utf-8"?>
<svg version="1.1" xmlns="http://www.w3.org/2000/svg">
  <g>
    <path id="path788" d="M 152.385 139.422 L 152.385 175.818 L 158.067 175.818 L 158.067 142.917 L 163.329 142.917 C 163.329 142.917 167.145 142.899 168.456 144.615 C 169.563 146.07 169.764 148.698 169.764 150.477 C 169.764 152.385 169.65 155.319 169.005 156.399 C 168.039 158.04 166.455 158.367 164.994 158.367 L 161.523 158.367 L 161.523 161.592 L 166.509 161.592 C 166.509 161.592 171.012 161.79 172.956 159.819 C 175.329 157.395 175.929 154.158 175.929 149.82 C 175.929 145.866 174.501 141.888 171.573 140.547 C 169.152 139.422 164.784 139.422 164.784 139.422 L 152.385 139.422 L 152.385 139.422 Z" style="fill: rgb(255, 255, 255);"/>
    <polygon id="polygon790" points="180.39 175.818 186.084 175.818 186.084 139.422 180.39 139.422" style="fill: rgb(255, 255, 255);"/>
    <polygon id="polygon792" points="216.282 147.9 226.677 175.146 220.713 189.75 225.426 189.75 242.601 147.9 237.342 147.9 229.857 168.3 222.891 147.9" style="fill: rgb(255, 255, 255);"/>
    <path id="path794" d="M 246.882 175.581 L 246.882 172.149 C 246.882 172.149 252.888 172.383 254.136 172.383 C 256.911 172.383 258.291 171.789 259.329 170.682 C 259.947 170.019 260.505 167.043 260.505 165.99 C 260.505 164.922 260.307 162.642 259.893 161.715 C 259.467 160.797 258.501 159.942 257.043 159.825 C 256.014 159.729 254.406 159.531 252.543 159.441 C 249.921 159.321 248.187 157.944 247.347 156.969 C 246.525 155.976 245.412 154.512 245.412 149.952 C 245.412 145.416 246.588 142.878 247.761 141.69 C 248.946 140.505 250.674 139.986 251.994 139.755 C 253.509 139.488 256.005 139.47 256.005 139.47 L 263.961 139.707 L 263.961 143.142 C 263.961 143.142 258.156 142.917 256.911 142.917 C 254.136 142.917 253.305 143.502 252.264 144.615 C 251.658 145.287 251.178 147.117 251.178 148.179 C 251.178 149.226 251.301 151.356 251.712 152.274 C 252.129 153.201 253.101 154.047 254.55 154.179 C 255.579 154.254 257.19 154.464 259.053 154.557 C 261.687 154.686 263.418 156.045 264.246 157.035 C 265.077 158.025 266.19 160.104 266.19 164.643 C 266.19 169.182 265.008 172.425 263.832 173.595 C 262.656 174.792 260.931 175.314 259.608 175.542 C 258.084 175.818 255.588 175.818 255.588 175.818 L 246.882 175.581 L 246.882 175.581 Z" style="fill: rgb(255, 255, 255);"/>
    <path id="path796" d="M 277.866 142.917 L 272.19 142.917 L 272.19 169.617 C 272.19 169.617 272.328 172.053 272.463 172.902 C 272.607 173.763 273.855 175.812 277.107 175.812 L 282.993 175.686 L 282.993 172.26 C 282.993 172.26 281.391 172.38 280.434 172.38 C 279.459 172.38 278.274 172.308 278.073 170.655 C 277.863 169.023 277.863 167.049 277.863 167.049 L 277.863 151.326 L 284.274 151.326 L 284.274 147.9 L 277.863 147.9 L 277.866 142.917 L 277.866 142.917 Z" style="fill: rgb(255, 255, 255);"/>
    <polygon id="polygon798" points="332.661 175.818 338.343 175.818 338.343 147.9 332.661 147.9" style="fill: rgb(255, 255, 255);"/>
    <polygon id="polygon800" points="332.661 144.489 338.343 144.489 338.343 139.422 332.661 139.422" style="fill: rgb(255, 255, 255);"/>
    <path id="path802" d="M 356.289 147.669 C 360.153 147.669 363.15 148.539 364.761 149.841 C 366.384 151.149 368.379 153.894 368.379 161.856 C 368.379 169.821 366.384 172.56 364.761 173.883 C 363.15 175.185 360.153 176.052 356.289 176.052 C 352.416 176.052 349.428 175.185 347.811 173.883 C 346.194 172.56 344.199 169.821 344.199 161.856 C 344.199 153.897 346.194 151.152 347.811 149.841 C 349.428 148.542 352.416 147.669 356.289 147.669 Z M 352.404 153.024 C 351.618 153.981 350.67 156.012 350.67 161.856 C 350.67 167.718 351.618 169.731 352.404 170.688 C 353.175 171.642 354.606 172.29 356.466 172.29 C 358.332 172.29 359.757 171.645 360.549 170.688 C 361.323 169.734 362.28 167.718 362.28 161.856 C 362.28 156.012 361.326 153.984 360.549 153.024 C 359.757 152.07 358.329 151.434 356.466 151.434 C 354.606 151.434 353.172 152.07 352.404 153.024 Z" style="fill: rgb(255, 255, 255);"/>
    <path id="path804" d="M 380.148 151.833 L 385.71 151.593 C 387.174 151.593 388.881 151.989 389.709 153.036 C 390.489 154.032 390.975 155.211 390.975 157.119 L 390.975 175.773 L 396.66 175.773 L 396.66 156.654 C 396.66 153.036 395.55 150.942 393.879 149.622 C 391.494 147.729 387.234 147.897 387.234 147.897 L 374.502 148.14 L 374.502 175.77 L 380.148 175.77 L 380.148 151.833 L 380.148 151.833 Z" style="fill: rgb(255, 255, 255);"/>
    <path id="path806" d="M 321.372 142.917 L 315.684 142.917 L 315.684 169.617 C 315.684 169.617 315.819 172.053 315.96 172.902 C 316.098 173.763 317.337 175.812 320.595 175.812 L 326.487 175.686 L 326.487 172.26 C 326.487 172.26 324.888 172.38 323.922 172.38 C 322.962 172.38 321.774 172.308 321.567 170.655 C 321.369 169.023 321.369 167.049 321.369 167.049 L 321.369 151.326 L 327.762 151.326 L 327.762 147.9 L 321.369 147.9 L 321.369 142.917 L 321.372 142.917 Z" style="fill: rgb(255, 255, 255);"/>
    <path id="path808" d="M 207.624 157.122 C 207.624 155.214 207.135 154.035 206.358 153.039 C 205.527 151.992 203.811 151.599 202.353 151.599 L 194.862 151.836 L 194.862 148.146 L 203.883 147.903 C 203.883 147.903 208.146 147.735 210.531 149.628 C 212.19 150.945 213.306 153.042 213.306 156.66 L 213.306 175.512 L 202.419 175.746 C 202.419 175.746 197.484 175.77 195.009 174.756 C 192.585 173.772 191.265 171.069 191.265 167.325 C 191.265 163.71 192.378 161.598 194.04 160.278 C 196.428 158.391 200.682 158.574 200.682 158.574 L 204.162 158.574 L 204.162 161.799 L 202.209 161.799 C 200.754 161.799 199.251 162.069 198.423 163.107 C 197.637 164.106 197.223 164.958 197.223 166.866 C 197.223 169.365 197.709 170.487 198.885 171.339 C 199.923 172.095 201.786 172.26 203.871 172.26 L 207.624 172.026 L 207.624 157.122 L 207.624 157.122 Z" style="fill: rgb(255, 255, 255);"/>
    <path id="path810" d="M 303.381 157.122 C 303.381 155.214 302.904 154.035 302.124 153.039 C 301.287 151.992 299.577 151.599 298.122 151.599 L 290.637 151.836 L 290.637 148.146 L 299.64 147.903 C 299.64 147.903 303.906 147.735 306.291 149.628 C 307.953 150.945 309.057 153.042 309.057 156.66 L 309.057 175.512 L 298.185 175.746 C 298.185 175.746 293.25 175.77 290.763 174.756 C 288.351 173.772 287.025 171.069 287.025 167.325 C 287.025 163.71 288.144 161.598 289.797 160.278 C 292.185 158.391 296.451 158.574 296.451 158.574 L 299.919 158.574 L 299.919 161.799 L 297.969 161.799 C 296.523 161.799 295.005 162.069 294.18 163.107 C 293.403 164.106 292.98 164.958 292.98 166.866 C 292.98 169.365 293.478 170.487 294.642 171.339 C 295.68 172.095 297.552 172.26 299.631 172.26 L 303.381 172.026 L 303.381 157.122 L 303.381 157.122 Z" style="fill: rgb(255, 255, 255);"/>
    <path id="path816" d="M 447.603 144.129 C 447.675 148.323 447.471 150.531 446.061 152.628 C 444.819 154.473 442.359 156.153 436.923 156.153 L 430.179 155.955 C 429.111 155.973 426.36 156.285 425.055 157.68 C 423.939 158.886 423.852 159.789 423.738 162.999 L 423.738 172.416 L 446.661 172.416 L 446.661 177.027 L 421.602 177.027 L 420.399 177.018 C 418.695 177.018 417.021 175.863 417.021 173.55 L 417.021 166.527 C 417.141 158.322 417.729 157.146 419.511 154.995 C 420.747 153.507 423.651 151.842 427.173 151.665 C 427.866 151.635 429.168 151.545 430.998 151.596 C 432.33 151.656 433.662 151.692 434.247 151.704 C 437.37 151.734 438.507 151.158 439.362 150.042 C 440.337 148.782 440.862 147.294 440.862 144.858 C 440.862 142.578 440.394 140.427 439.524 139.428 C 438.471 138.273 437.463 137.499 434.532 137.499 C 427.116 137.481 418.464 137.676 418.464 137.676 L 418.464 133.32 C 418.464 133.32 426.921 132.96 435.546 132.834 C 440.916 132.741 443.877 134.169 445.383 136.134 C 446.973 138.18 447.531 140.115 447.603 144.129 L 447.603 144.129 Z" style="fill: rgb(255, 255, 255);"/>
    <polygon points="592.596 7.395 592.596 48.036 413.076 48.036 413.076 103.464 600 103.464 600 96.072 420.474 96.072 420.474 55.431 600 55.431 600 0 413.076 0 413.076 7.395" style="fill: rgb(255, 255, 255);"/>
    <polygon points="385.374 0 385.374 7.395 290.025 7.395 290.025 103.464 186.924 103.464 186.924 96.072 282.273 96.072 282.273 0" style="fill: rgb(255, 255, 255);"/>
    <polygon points="7.395 103.464 7.395 55.431 186.924 55.431 186.924 0 0 0 0 7.275 179.535 7.395 179.535 48.036 0 48.036 0 103.464" style="fill: rgb(255, 255, 255);"/>
  </g>
</svg>