<?xml version="1.0" encoding="utf-8"?>
<svg version="1.2" xmlns="http://www.w3.org/2000/svg">
  <g>
    <path id="path6905" d="M 109.269 170.297 C 114.912 170.297 118.296 169.148 118.296 163.784 C 118.296 159.812 115.836 157.688 110.193 157.688 L 102.396 157.688 L 102.396 170.297 L 109.269 170.297 Z M 99.42 186.866 L 99.42 155.132 L 111.015 155.132 C 119.22 155.132 121.377 159.236 121.377 163.997 C 121.377 171.086 115.014 172.85 109.167 172.85 L 102.396 172.85 L 102.396 186.866 L 99.42 186.866" style="fill-opacity: 1; fill: rgb(255, 255, 255);"/>
    <path id="path6907" d="M 125.376 186.866 L 127.941 186.866 L 127.941 155.132 L 125.376 155.132 L 125.376 186.866 Z" style="fill-opacity: 1; fill: rgb(255, 255, 255);"/>
    <path id="path6909" d="M 149.487 174.872 C 147.231 175.796 144.87 175.979 142.614 176.156 C 138.612 176.462 136.152 177.92 136.152 180.998 C 136.152 183.788 138.615 185.102 141.078 185.102 C 145.284 185.102 149.49 183.071 149.49 178.442 L 149.487 174.872 L 149.487 174.872 Z M 144.975 173.558 C 145.998 173.465 147.642 173.201 148.461 172.799 C 149.385 172.409 149.487 171.218 149.487 170.429 C 149.487 167.741 147.846 165.803 143.742 165.803 C 140.151 165.803 137.589 166.991 137.073 170.954 L 134.406 170.954 C 134.817 165.575 138.816 163.412 143.844 163.412 C 148.461 163.412 152.052 165.227 152.052 170.51 L 152.052 182.936 C 152.052 185.009 152.667 185.492 154.824 184.7 L 154.824 186.773 C 154.515 186.908 153.591 187.214 152.772 187.214 C 152.361 187.214 152.052 187.175 151.644 187.082 C 149.796 186.827 149.487 185.276 149.487 183.683 C 147.333 186.158 144.255 187.481 140.973 187.481 C 136.971 187.481 133.38 185.315 133.38 180.917 C 133.38 177.089 136.047 174.749 141.381 174.041 L 144.975 173.558" style="fill-opacity: 1; fill: rgb(255, 255, 255);"/>
    <path id="path6911" d="M 158.619 193.073 C 159.336 193.205 160.053 193.349 160.773 193.349 C 163.851 193.349 164.262 189.023 165.288 187.04 L 156.36 164.039 L 159.336 164.039 L 166.725 183.656 L 174.009 164.039 L 176.88 164.039 L 168.366 186.557 C 166.209 192.281 164.775 195.854 161.079 195.854 C 160.158 195.854 159.336 195.722 158.619 195.548 L 158.619 193.073" style="fill-opacity: 1; fill: rgb(255, 255, 255);"/>
    <path id="path6913" d="M 183.138 177.386 C 183.654 183.071 187.347 185.141 192.27 185.141 C 197.913 185.141 200.274 182.066 200.274 178.577 C 200.274 168.746 180.984 175.274 180.984 162.809 C 180.984 158.396 184.575 154.301 191.757 154.301 C 198.837 154.301 202.428 158.609 202.326 163.784 L 199.554 163.784 C 199.554 158.93 195.759 156.857 191.757 156.857 C 185.601 156.857 183.447 160.601 183.96 163.865 C 185.292 172.052 203.352 166.151 203.352 178.442 C 203.352 184.271 199.041 187.7 191.757 187.7 C 185.088 187.7 180.162 184.271 180.162 177.386 L 183.138 177.386" style="fill-opacity: 1; fill: rgb(255, 255, 255);"/>
    <path id="path6915" d="M 217.101 186.95 C 216.486 187.082 215.358 187.484 214.023 187.484 C 211.458 187.484 210.021 186.335 210.021 182.939 L 210.021 166.235 L 206.736 166.235 L 206.736 164.039 L 210.021 164.039 L 210.021 157.688 L 212.688 157.688 L 212.688 164.039 L 216.897 164.039 L 216.897 166.235 L 212.688 166.235 L 212.688 181.883 C 212.688 184.139 212.688 185.102 214.944 185.102 C 215.664 185.102 216.381 184.97 217.101 184.796 L 217.101 186.95" style="fill-opacity: 1; fill: rgb(255, 255, 255);"/>
    <path id="path6917" d="M 236.901 174.872 C 234.645 175.796 232.389 175.979 230.13 176.156 C 226.128 176.462 223.665 177.92 223.665 180.998 C 223.665 183.788 226.128 185.102 228.594 185.102 C 232.797 185.102 236.901 183.071 236.901 178.442 L 236.901 174.872 L 236.901 174.872 Z M 232.488 173.558 C 233.412 173.465 235.056 173.201 235.98 172.799 C 236.799 172.409 236.901 171.218 236.901 170.429 C 236.901 167.741 235.362 165.803 231.258 165.803 C 227.565 165.803 225.102 166.991 224.589 170.954 L 221.922 170.954 C 222.333 165.575 226.332 163.412 231.258 163.412 C 235.875 163.412 239.568 165.227 239.568 170.51 L 239.568 182.936 C 239.568 185.009 240.084 185.492 242.34 184.7 L 242.34 186.773 C 241.929 186.908 241.005 187.214 240.288 187.214 C 239.877 187.214 239.469 187.175 239.055 187.082 C 237.312 186.827 237.003 185.276 237.003 183.683 C 234.747 186.158 231.774 187.481 228.489 187.481 C 224.487 187.481 220.794 185.315 220.794 180.917 C 220.794 177.089 223.461 174.749 228.798 174.041 L 232.488 173.558" style="fill-opacity: 1; fill: rgb(255, 255, 255);"/>
    <path id="path6919" d="M 255.165 186.95 C 254.55 187.082 253.419 187.484 252.087 187.484 C 249.522 187.484 248.085 186.335 248.085 182.939 L 248.085 166.235 L 244.905 166.235 L 244.905 164.039 L 248.085 164.039 L 248.085 157.688 L 250.755 157.688 L 250.755 164.039 L 254.961 164.039 L 254.961 166.235 L 250.755 166.235 L 250.755 181.883 C 250.755 184.139 250.755 185.102 253.011 185.102 C 253.728 185.102 254.448 184.97 255.165 184.796 L 255.165 186.95" style="fill-opacity: 1; fill: rgb(255, 255, 255);"/>
    <path id="path6921" d="M 263.067 186.866 L 260.499 186.866 L 260.499 164.039 L 263.067 164.039 L 263.067 186.866 Z M 260.295 159.05 L 260.295 155.132 L 263.271 155.132 L 263.271 159.05 L 260.295 159.05" style="fill-opacity: 1; fill: rgb(255, 255, 255);"/>
    <path id="path6923" d="M 278.661 165.803 C 273.12 165.803 270.966 170.51 270.966 175.445 C 270.966 181.13 273.633 185.102 278.661 185.102 C 284.199 185.102 286.458 180.341 286.458 175.445 C 286.458 170.069 284.304 165.803 278.661 165.803 Z M 268.092 175.445 C 268.092 168.797 271.683 163.412 278.661 163.412 C 285.84 163.412 289.329 168.746 289.329 175.445 C 289.329 182.681 285.123 187.481 278.661 187.481 C 272.916 187.391 268.092 183.428 268.092 175.445" style="fill-opacity: 1; fill: rgb(255, 255, 255);"/>
    <path id="path6925" d="M 295.692 186.866 L 293.025 186.866 L 293.025 164.039 L 295.692 164.039 L 295.692 167.207 C 297.744 164.963 299.898 163.412 302.976 163.412 C 305.847 163.412 308.313 164.294 309.954 166.676 C 311.079 168.317 311.184 170.03 311.184 171.917 L 311.184 186.866 L 308.514 186.866 L 308.514 171.968 C 308.514 167.876 306.771 165.803 302.565 165.803 C 299.28 165.803 297.024 167.915 296.202 170.243 C 295.689 171.701 295.689 172.985 295.689 174.575 L 295.689 186.866" style="fill-opacity: 1; fill: rgb(255, 255, 255);"/>
    <path id="path6927" d="M 321.546 179.45 C 321.237 179.306 320.829 179.234 320.214 179.234 L 319.392 179.234 L 319.392 181.346 L 320.316 181.346 C 320.727 181.346 321.135 181.307 321.342 181.226 C 321.75 181.061 321.957 180.755 321.957 180.302 C 321.957 179.879 321.75 179.591 321.546 179.45 Z M 320.418 178.514 C 321.138 178.514 321.651 178.577 322.059 178.718 C 322.674 178.976 322.881 179.468 322.881 180.218 C 322.881 180.74 322.776 181.121 322.368 181.367 C 322.161 181.499 321.855 181.595 321.549 181.655 C 321.957 181.724 322.266 181.931 322.47 182.24 C 322.674 182.558 322.779 182.867 322.779 183.164 L 322.779 183.593 C 322.779 183.737 322.779 183.89 322.881 184.037 C 322.881 184.199 322.881 184.301 322.881 184.352 L 322.881 184.424 L 321.957 184.424 C 321.957 184.403 321.957 184.382 321.957 184.373 C 321.957 184.349 321.957 184.319 321.957 184.289 L 321.855 184.106 L 321.855 183.635 C 321.855 182.936 321.651 182.483 321.342 182.27 C 321.138 182.135 320.727 182.075 320.214 182.075 L 319.395 182.075 L 319.395 184.424 L 318.369 184.424 L 318.369 178.514 L 320.418 178.514 L 320.418 178.514 L 320.418 178.514 Z M 317.238 178.208 C 316.314 179.111 315.903 180.209 315.903 181.478 C 315.903 182.783 316.314 183.881 317.238 184.784 C 318.162 185.696 319.188 186.149 320.523 186.149 C 321.858 186.149 322.881 185.696 323.808 184.784 C 324.729 183.881 325.143 182.783 325.143 181.478 C 325.143 180.209 324.729 179.111 323.808 178.208 C 322.884 177.305 321.858 176.852 320.523 176.852 C 319.188 176.852 318.162 177.302 317.238 178.208 Z M 324.318 185.285 C 323.292 186.332 321.96 186.866 320.523 186.866 C 319.083 186.866 317.751 186.332 316.728 185.285 C 315.699 184.241 315.189 182.969 315.189 181.478 C 315.189 180.011 315.699 178.739 316.728 177.704 C 317.751 176.648 319.083 176.135 320.523 176.135 C 321.957 176.135 323.292 176.645 324.318 177.704 C 325.344 178.73 325.857 180.002 325.857 181.478 C 325.857 182.969 325.341 184.241 324.318 185.285" style="fill-opacity: 1; fill: rgb(255, 255, 255);"/>
    <path id="path6929" d="M 343.914 170.297 C 349.557 170.297 353.043 169.148 353.043 163.784 C 353.043 159.812 350.481 157.688 344.838 157.688 L 337.038 157.688 L 337.038 170.297 L 343.914 170.297 Z M 334.065 186.866 L 334.065 155.132 L 345.66 155.132 C 353.868 155.132 356.019 159.236 356.019 163.997 C 356.019 171.086 349.761 172.85 343.812 172.85 L 337.038 172.85 L 337.038 186.866 L 334.065 186.866" style="fill-opacity: 1; fill: rgb(255, 255, 255);"/>
    <path id="path6931" d="M 367.818 165.803 C 362.28 165.803 360.024 170.51 360.024 175.445 C 360.024 181.13 362.793 185.102 367.818 185.102 C 373.359 185.102 375.618 180.341 375.618 175.445 C 375.516 170.069 373.461 165.803 367.818 165.803 Z M 357.252 175.445 C 357.252 168.797 360.741 163.412 367.818 163.412 C 375.003 163.412 378.387 168.746 378.387 175.445 C 378.387 182.681 374.181 187.481 367.818 187.481 C 361.971 187.391 357.252 183.428 357.252 175.445" style="fill-opacity: 1; fill: rgb(255, 255, 255);"/>
    <path id="path6933" d="M 384.954 186.866 L 382.287 186.866 L 382.287 164.039 L 384.954 164.039 L 384.954 168.32 L 385.059 168.32 C 386.493 164.654 388.65 163.412 392.445 163.412 L 392.445 166.289 C 386.493 166.154 384.957 170.555 384.957 175.664 L 384.957 186.866" style="fill-opacity: 1; fill: rgb(255, 255, 255);"/>
    <path id="path6935" d="M 407.22 186.95 C 406.602 187.082 405.474 187.484 404.241 187.484 C 401.574 187.484 400.137 186.335 400.137 182.939 L 400.137 166.235 L 396.957 166.235 L 396.957 164.039 L 400.137 164.039 L 400.137 157.688 L 402.804 157.688 L 402.804 164.039 L 407.115 164.039 L 407.115 166.235 L 402.804 166.235 L 402.804 181.883 C 402.804 184.139 402.909 185.102 405.063 185.102 C 405.783 185.102 406.602 184.97 407.217 184.796 L 407.217 186.95" style="fill-opacity: 1; fill: rgb(255, 255, 255);"/>
    <path id="path6937" d="M 426.198 174.872 C 423.942 175.796 421.683 175.979 419.427 176.156 C 415.425 176.462 412.965 177.92 412.965 180.998 C 412.965 183.788 415.428 185.102 417.888 185.102 C 422.097 185.102 426.201 183.071 426.201 178.442 L 426.201 174.872 L 426.198 174.872 Z M 421.785 173.558 C 422.706 173.465 424.35 173.201 425.274 172.799 C 426.096 172.409 426.198 171.218 426.198 170.429 C 426.198 167.741 424.659 165.803 420.555 165.803 C 416.865 165.803 414.399 166.991 413.886 170.954 L 411.219 170.954 C 411.627 165.575 415.632 163.412 420.555 163.412 C 425.172 163.412 428.868 165.227 428.868 170.51 L 428.868 182.936 C 428.868 185.009 429.378 185.492 431.637 184.7 L 431.637 186.773 C 431.226 186.908 430.302 187.214 429.585 187.214 C 429.174 187.214 428.763 187.175 428.355 187.082 C 426.612 186.827 426.303 185.276 426.303 183.683 C 424.044 186.158 421.071 187.481 417.783 187.481 C 413.784 187.481 410.088 185.315 410.088 180.917 C 410.088 177.089 412.755 174.749 418.092 174.041 L 421.785 173.558" style="fill-opacity: 1; fill: rgb(255, 255, 255);"/>
    <path id="path6939" d="M 447.129 185.102 C 451.542 185.102 454.824 181.88 454.929 176.156 C 455.13 170.429 452.568 165.803 447.129 165.803 C 442.308 165.803 439.434 170.204 439.434 175.355 C 439.431 180.875 442.104 185.102 447.129 185.102 Z M 439.431 186.866 L 436.764 186.866 L 436.764 155.132 L 439.431 155.132 L 439.431 167.69 C 441.078 164.918 444.357 163.412 447.54 163.412 C 454.512 163.412 457.698 169.106 457.698 175.496 C 457.698 182.228 454.824 187.481 447.438 187.481 C 444.462 187.481 441.078 185.849 439.437 182.855 L 439.437 182.855 L 439.437 186.866" style="fill-opacity: 1; fill: rgb(255, 255, 255);"/>
    <path id="path6941" d="M 463.545 186.866 L 466.212 186.866 L 466.212 155.132 L 463.545 155.132 L 463.545 186.866 Z" style="fill-opacity: 1; fill: rgb(255, 255, 255);"/>
    <path id="path6943" d="M 489.195 173.858 C 489.195 169.415 486.732 165.803 482.013 165.803 C 477.294 165.803 474.831 169.547 474.318 173.858 L 489.195 173.858 Z M 474.318 176.072 C 474.318 180.998 476.985 185.102 482.013 185.102 C 485.397 185.102 488.169 183.203 488.886 179.861 L 491.862 179.861 C 490.527 184.166 487.86 187.484 482.013 187.484 C 474.726 187.484 471.546 182.282 471.546 175.544 C 471.546 168.884 475.446 163.412 482.013 163.412 C 488.271 163.412 492.066 167.876 492.066 176.072 L 474.318 176.072" style="fill-opacity: 1; fill: rgb(255, 255, 255);"/>
    <path id="path6945" d="M 0 0.002 L 186.936 0.002 L 186.936 55.436 L 7.386 55.436 L 7.386 103.484 L 0 103.484 L 0 48.047 L 179.55 48.047 L 179.55 7.385 L 0 7.385 L 0 0.002" style="fill-opacity: 1; fill: rgb(255, 255, 255);"/>
    <path id="path6947" d="M 420.453 55.436 L 420.453 103.484 L 413.067 103.484 L 413.067 48.047 L 592.614 48.047 L 592.614 7.385 L 413.067 7.385 L 413.067 -0.001 L 600 -0.001 L 600 55.436 L 420.453 55.436" style="fill-opacity: 1; fill: rgb(255, 255, 255);"/>
    <path id="path6949" d="M 282.252 0.002 L 282.252 96.095 L 186.936 96.095 L 186.936 103.484 L 290.049 103.484 L 290.049 7.385 L 385.365 7.385 L 385.365 -0.001 L 282.252 -0.001" style="fill-opacity: 1; fill: rgb(255, 255, 255);"/>
  </g>
</svg>