<?xml version="1.0" encoding="utf-8"?>
<svg viewBox="0 0 200 40" xmlns="http://www.w3.org/2000/svg">
  <path d="M 61.75 24.22 L 61.75 24.22 L 58.03 24.22 L 57.25 28.75 L 51.55 28.75 L 54.85 10 L 63.85 10 L 63.85 10 C 67.25 10 68.95 11.58 68.95 14.74 L 68.95 14.74 L 68.95 14.74 C 68.95 16.24 68.74 17.593 68.32 18.8 L 68.32 18.8 L 68.32 18.8 C 67.9 20.013 67.437 20.977 66.93 21.69 L 66.93 21.69 L 66.93 21.69 C 66.417 22.397 65.713 22.997 64.82 23.49 L 64.82 23.49 L 64.82 23.49 C 63.933 23.977 62.91 24.22 61.75 24.22 Z M 61 14.8 L 59.68 14.8 L 58.87 19.42 L 60.19 19.42 L 60.19 19.42 C 60.87 19.42 61.383 19.347 61.73 19.2 L 61.73 19.2 L 61.73 19.2 C 62.083 19.047 62.31 18.7 62.41 18.16 L 62.41 18.16 L 62.41 18.16 C 62.67 16.68 62.8 15.87 62.8 15.73 L 62.8 15.73 L 62.8 15.73 C 62.8 15.35 62.65 15.1 62.35 14.98 L 62.35 14.98 L 62.35 14.98 C 62.05 14.86 61.6 14.8 61 14.8 L 61 14.8 Z M 71.62 10 L 77.32 10 L 74.83 24.07 L 76.87 24.07 L 76.87 24.07 C 77.57 24.07 78.07 23.977 78.37 23.79 L 78.37 23.79 L 78.37 23.79 C 78.67 23.597 78.88 23.16 79 22.48 L 79 22.48 L 81.22 10 L 86.92 10 L 85.06 20.53 L 85.06 20.53 C 84.76 22.23 84.413 23.6 84.02 24.64 L 84.02 24.64 L 84.02 24.64 C 83.633 25.68 83.09 26.56 82.39 27.28 L 82.39 27.28 L 82.39 27.28 C 81.69 28 80.823 28.5 79.79 28.78 L 79.79 28.78 L 79.79 28.78 C 78.763 29.06 77.46 29.2 75.88 29.2 L 75.88 29.2 L 75.88 29.2 C 73.46 29.2 71.763 28.833 70.79 28.1 L 70.79 28.1 L 70.79 28.1 C 69.823 27.373 69.34 26.12 69.34 24.34 L 69.34 24.34 L 69.34 24.34 C 69.34 23.36 69.48 22.09 69.76 20.53 L 69.76 20.53 L 71.62 10 Z M 101.41 23.95 L 100.57 28.75 L 85.21 28.75 L 85.87 25 L 94.9 14.98 L 94.84 14.8 L 88.87 14.8 L 89.2 10 L 103.75 10 L 103.09 13.75 L 94.12 23.77 L 94.15 23.95 L 101.41 23.95 Z M 117.85 23.95 L 117.01 28.75 L 101.65 28.75 L 102.31 25 L 111.34 14.98 L 111.28 14.8 L 105.31 14.8 L 105.64 10 L 120.19 10 L 119.53 13.75 L 110.56 23.77 L 110.59 23.95 L 117.85 23.95 Z M 146.02 17.32 L 145.24 21.67 L 139.54 21.67 L 139.15 23.95 L 146.14 23.95 L 145.3 28.75 L 132.61 28.75 L 135.91 10 L 148.45 10 L 146.89 14.8 L 140.74 14.8 L 140.32 17.32 L 146.02 17.32 Z" style="white-space: pre; fill: rgb(255, 255, 255);"/>
  <path d="M 125.745 23.242 L 131.37 23.242 L 131.37 28.896 L 125.745 28.896 L 125.745 23.242 Z" style="fill: rgb(204, 204, 204);" transform="matrix(0.995987, 0.089497, -0.089497, 0.995987, 2.848988, -11.400902)"/>
  <path d="M 120.177 16.517 L 125.803 16.517 L 125.803 22.169 L 120.177 22.169 L 120.177 16.517 Z" style="fill: rgb(204, 204, 204);" transform="matrix(0.995987, 0.089497, -0.089497, 0.995987, 2.224689, -10.92962)"/>
  <path d="M 119.615 22.771 L 125.24 22.771 L 125.24 28.425 L 119.615 28.425 L 119.615 22.771 Z" style="fill: rgb(204, 204, 204);" transform="matrix(0.995987, 0.089497, -0.089497, 0.995987, 2.782236, -10.854176)"/>
  <path d="M 120.74 10.26 L 126.366 10.26 L 126.366 15.913 L 120.74 15.913 L 120.74 10.26 Z" style="fill: rgb(204, 204, 204);" transform="matrix(0.995987, 0.089497, -0.089497, 0.995987, 1.66701, -11.005111)"/>
</svg>