<?xml version="1.0" encoding="utf-8"?>
<svg viewBox="0 0 200 40" xmlns="http://www.w3.org/2000/svg">
  <path d="M 47.779 29.945 C 46.26 29.758 44.788 29.211 43.518 28.367 C 41.549 27.058 40.116 25.143 39.444 22.917 C 39.283 22.4 39.127 21.615 39.069 21.088 C 39.017 20.599 39.017 19.404 39.069 18.916 C 39.491 14.954 42.292 11.57 46.116 10.413 C 46.632 10.252 47.416 10.096 47.944 10.038 C 48.432 9.987 49.627 9.987 50.115 10.038 C 52.428 10.284 54.573 11.335 56.222 13.031 C 57.351 14.2 58.152 15.551 58.617 17.086 C 58.906 18.036 59.03 18.916 59.03 20.002 C 59.03 20.818 58.992 21.267 58.851 21.975 C 58.143 25.57 55.464 28.524 51.944 29.59 C 51.428 29.75 50.643 29.907 50.115 29.965 C 49.604 30.02 48.284 30.008 47.779 29.945 Z M 47.467 25.581 C 47.467 23.432 47.46 23.37 47.206 22.878 C 47.011 22.502 46.53 22.022 46.154 21.826 C 45.651 21.565 45.639 21.565 43.471 21.565 L 41.526 21.565 L 41.553 21.713 C 41.6 21.982 41.908 22.87 42.084 23.244 C 42.468 24.061 42.955 24.753 43.616 25.418 C 44.452 26.249 45.389 26.847 46.472 27.226 C 46.819 27.351 47.327 27.496 47.42 27.5 C 47.456 27.504 47.467 27.093 47.467 25.581 Z M 51.393 27.289 C 52.593 26.898 53.55 26.308 54.444 25.418 C 55.105 24.753 55.593 24.061 55.976 23.244 C 56.152 22.87 56.46 21.982 56.507 21.713 L 56.534 21.565 L 54.608 21.565 C 52.46 21.565 52.448 21.565 51.944 21.831 C 51.566 22.025 51.054 22.538 50.858 22.917 C 50.593 23.42 50.593 23.432 50.593 25.581 L 50.593 27.508 L 50.741 27.48 C 50.819 27.468 51.116 27.378 51.393 27.289 Z M 49.577 21.745 C 50.144 21.569 50.627 21.068 50.792 20.49 C 50.862 20.24 50.862 19.763 50.792 19.513 C 50.623 18.916 50.115 18.408 49.519 18.239 C 49.268 18.169 48.792 18.169 48.542 18.239 C 47.944 18.408 47.436 18.916 47.268 19.513 C 47.237 19.623 47.213 19.842 47.213 20.002 C 47.213 20.162 47.237 20.384 47.268 20.49 C 47.397 20.935 47.733 21.366 48.135 21.592 C 48.319 21.693 48.436 21.732 48.776 21.815 C 48.905 21.846 49.39 21.803 49.577 21.745 Z M 42.897 18.673 C 43.416 18.595 44.136 18.435 44.596 18.291 C 44.987 18.165 45.303 18.036 46.12 17.665 C 47.546 17.024 47.897 16.934 49.03 16.934 C 50.074 16.934 50.538 17.036 51.566 17.489 C 51.835 17.607 52.268 17.798 52.53 17.912 C 53.651 18.404 54.874 18.693 56.171 18.774 L 56.608 18.802 L 56.585 18.67 C 56.378 17.505 55.854 16.313 55.116 15.34 C 54.807 14.93 54.101 14.223 53.69 13.914 C 52.584 13.078 51.295 12.554 49.928 12.383 C 49.503 12.331 48.557 12.331 48.131 12.383 C 46.764 12.554 45.475 13.078 44.369 13.914 C 43.96 14.223 43.253 14.93 42.944 15.34 C 42.206 16.313 41.682 17.505 41.475 18.67 L 41.452 18.802 L 41.908 18.774 C 42.163 18.759 42.608 18.713 42.897 18.673 Z" style="fill: rgb(204, 204, 204);"/>
  <path d="M 77.6 22.96 L 79.58 29.2 L 73.31 29.2 L 71.93 23.62 L 70.7 23.62 L 69.74 29.2 L 64.04 29.2 L 67.34 10.45 L 76.34 10.45 L 76.34 10.45 C 79.76 10.45 81.47 11.98 81.47 15.04 L 81.47 15.04 L 81.47 15.04 C 81.47 16.3 81.28 17.5 80.9 18.64 L 80.9 18.64 L 80.9 18.64 C 80.2 20.8 79.1 22.24 77.6 22.96 L 77.6 22.96 Z M 73.31 15.25 L 72.17 15.25 L 71.51 19 L 72.83 19 L 72.83 19 C 73.51 19 74.023 18.927 74.37 18.78 L 74.37 18.78 L 74.37 18.78 C 74.723 18.627 74.963 18.197 75.09 17.49 L 75.09 17.49 L 75.09 17.49 C 75.223 16.777 75.29 16.34 75.29 16.18 L 75.29 16.18 L 75.29 16.18 C 75.29 15.78 75.137 15.523 74.83 15.41 L 74.83 15.41 L 74.83 15.41 C 74.517 15.303 74.01 15.25 73.31 15.25 L 73.31 15.25 Z M 87.44 26.23 L 86.27 29.2 L 80.27 29.2 L 88.16 10.45 L 96.98 10.45 L 98.3 29.2 L 92.27 29.2 L 92.15 26.23 L 87.44 26.23 Z M 91.7 16.21 L 91.4 16.21 L 89.3 21.46 L 91.7 21.46 L 91.7 16.21 Z M 113.18 23.83 L 113.18 23.83 L 112.7 28.87 L 112.7 28.87 C 111.42 29.39 109.8 29.65 107.84 29.65 L 107.84 29.65 L 107.84 29.65 C 105.32 29.65 103.513 29.16 102.42 28.18 L 102.42 28.18 L 102.42 28.18 C 101.333 27.2 100.79 25.69 100.79 23.65 L 100.79 23.65 L 100.79 23.65 C 100.79 22.79 100.93 21.52 101.21 19.84 L 101.21 19.84 L 101.21 19.84 C 101.81 16.4 102.843 13.9 104.31 12.34 L 104.31 12.34 L 104.31 12.34 C 105.783 10.78 108.11 10 111.29 10 L 111.29 10 L 111.29 10 C 112.03 10 112.877 10.077 113.83 10.23 L 113.83 10.23 L 113.83 10.23 C 114.777 10.377 115.47 10.56 115.91 10.78 L 115.91 10.78 L 114.23 15.37 L 114.23 15.37 C 113.05 15.09 111.947 14.95 110.92 14.95 L 110.92 14.95 L 110.92 14.95 C 109.887 14.95 109.15 15.05 108.71 15.25 L 108.71 15.25 L 108.71 15.25 C 108.27 15.45 108 15.85 107.9 16.45 L 107.9 16.45 L 106.52 24.31 L 106.52 24.31 C 107.24 24.47 107.98 24.55 108.74 24.55 L 108.74 24.55 L 108.74 24.55 C 110.36 24.55 111.84 24.31 113.18 23.83 Z M 120.74 29.2 L 115.04 29.2 L 118.34 10.45 L 124.04 10.45 L 120.74 29.2 Z M 140.12 29.2 L 134.75 29.2 L 131.69 22.54 L 131.69 22.54 C 131.61 22.4 131.57 22.203 131.57 21.95 L 131.57 21.95 L 131.57 21.95 C 131.57 21.703 131.59 21.42 131.63 21.1 L 131.63 21.1 L 131.39 21.1 L 129.98 29.2 L 124.28 29.2 L 127.58 10.45 L 132.95 10.45 L 136.01 17.11 L 136.01 17.11 C 136.07 17.25 136.1 17.447 136.1 17.7 L 136.1 17.7 L 136.1 17.7 C 136.1 17.947 136.08 18.23 136.04 18.55 L 136.04 18.55 L 136.28 18.55 L 137.72 10.45 L 143.42 10.45 L 140.12 29.2 Z M 154.13 23.68 L 154.13 23.68 L 154.28 22.87 L 152.84 22.87 L 153.65 18.28 L 160.52 18.28 L 158.75 28.3 L 158.75 28.3 C 156.31 29.2 153.86 29.65 151.4 29.65 L 151.4 29.65 L 151.4 29.65 C 148.94 29.65 147.163 29.16 146.07 28.18 L 146.07 28.18 L 146.07 28.18 C 144.983 27.2 144.44 25.69 144.44 23.65 L 144.44 23.65 L 144.44 23.65 C 144.44 22.79 144.58 21.52 144.86 19.84 L 144.86 19.84 L 144.86 19.84 C 145.46 16.36 146.52 13.85 148.04 12.31 L 148.04 12.31 L 148.04 12.31 C 149.56 10.77 152.08 10 155.6 10 L 155.6 10 L 155.6 10 C 156.34 10 157.283 10.08 158.43 10.24 L 158.43 10.24 L 158.43 10.24 C 159.583 10.4 160.43 10.58 160.97 10.78 L 160.97 10.78 L 159.32 15.37 L 159.32 15.37 C 157.82 15.09 156.443 14.95 155.19 14.95 L 155.19 14.95 L 155.19 14.95 C 153.943 14.95 153.05 15.05 152.51 15.25 L 152.51 15.25 L 152.51 15.25 C 151.97 15.45 151.65 15.85 151.55 16.45 L 151.55 16.45 L 150.08 24.94 L 151.97 24.94 L 151.97 24.94 C 152.65 24.94 153.153 24.867 153.48 24.72 L 153.48 24.72 L 153.48 24.72 C 153.813 24.567 154.03 24.22 154.13 23.68 Z" style="white-space: pre; fill: rgb(255, 255, 255);"/>
</svg>