<?xml version="1.0" encoding="utf-8"?>
<svg version="1.1" xmlns="http://www.w3.org/2000/svg" xmlns:xlink="http://www.w3.org/1999/xlink">
  <path style="fill-opacity: 1; stroke: none; stroke-opacity: 1; fill: rgb(255, 255, 255);" id="path5729" d="M 485.131 8.061 C 485.142 8.107 485.218 8.241 485.334 8.416 C 485.215 8.11 485.113 7.985 485.131 8.061 Z M 483.396 9.719 C 483.372 9.697 483.234 10.002 483.152 10.351 C 483.327 9.963 483.412 9.735 483.396 9.719 Z M 485.859 12.034 C 484.691 12.102 483.683 12.247 482.935 12.419 C 482.876 13.239 482.817 14.229 482.759 15.405 C 482.536 20.001 482.336 27.291 482.128 38.02 C 481.903 49.658 481.729 58.428 481.442 65.014 C 481.154 71.6 481.006 75.627 479.767 79.839 C 479.148 81.946 478.429 85.241 473.752 87.569 C 471.413 88.732 468.398 88.834 466.392 88.307 C 464.386 87.78 463.158 86.95 462.212 86.238 C 458.429 83.39 457.281 81.031 454.981 77.906 C 448.71 69.387 443.442 59.401 433.057 36.99 C 430.625 31.742 428.681 27.746 427.216 24.918 L 427.45 27.028 C 427.867 27.929 428.221 28.788 428.678 29.929 C 429.848 32.844 431.474 37.08 433.464 42.052 C 437.446 51.998 442.909 64.859 448.155 74.112 C 452.507 81.785 458.189 91.245 463.021 98.985 C 465.437 102.854 467.647 106.303 469.341 108.847 C 469.951 109.761 470.588 110.606 471.143 111.332 C 471.303 111.324 471.409 111.325 471.584 111.313 C 473.505 111.174 476.338 110.678 478.523 110.107 C 478.627 110.079 478.706 110.052 478.807 110.025 C 479.338 107.327 480.015 103.321 480.762 98.328 C 485.454 66.968 487.174 43.806 486.449 23.419 C 486.27 18.376 486.071 14.635 485.859 12.034 Z M 489.809 12.102 C 490.078 12.149 490.254 12.121 490.35 12.145 C 490.598 12.208 490.444 12.163 490.155 12.129 C 490.076 12.119 489.909 12.111 489.809 12.102 Z M 481.632 12.855 C 481.551 12.907 481.55 12.918 481.632 12.855 Z M 481.471 109.05 C 481.44 109.059 481.334 109.127 481.145 109.276 C 481.365 109.174 481.527 109.034 481.471 109.05 Z M 478.315 112.261 C 478.096 112.7 478.168 112.886 478.146 113.016 C 478.149 113.004 478.149 113.004 478.153 112.991 C 478.185 112.873 478.269 112.45 478.315 112.261 Z" xlink:href="#path5719"/>
  <path style="font-style: normal; font-variant-ligatures: normal; font-variant-caps: normal; font-weight: bold; font-stretch: normal; font-size: 205.444px; line-height: 125%; font-family: &quot;Comic Sans MS&quot;; text-align: start; writing-mode: lr-tb; text-anchor: start; display: inline; fill-opacity: 1; stroke: none; fill: rgb(255, 255, 255);" d="M 16.063 23.482 C 5.617 24.44 -2.984 27.974 0.988 40.546 C 3.804 62.984 3.732 88.663 0.505 111.397 C -1.517 121.376 25.435 119.799 26.764 115.278 C 26.272 107.587 24.33 103.116 30.353 98.734 C 36.07 96.27 38.253 98.88 40.727 100.965 C 45.487 107.224 42.461 111.414 46.048 115.953 C 48.052 119.122 67.471 120.303 71.746 116.614 C 76.535 112.481 73.711 106.047 70.94 101.293 C 67.205 94.228 59.14 88.516 58.972 82.287 C 60.076 73.214 72.844 71.384 73.459 57.049 C 72.619 36.192 61.999 32.08 47.539 27.153 C 38.418 24.148 26.503 23.807 16.063 23.482 Z M 34.003 48.509 C 41.713 48.638 43.434 55.37 43.388 58.692 C 43.668 62.243 42.798 70.797 34.292 70.84 C 26.594 70.379 25.228 62.231 25.276 58.768 C 25.451 55.116 26.917 48.746 34.003 48.509 Z" id="path4525"/>
  <path style="font-style: normal; font-variant-ligatures: normal; font-variant-caps: normal; font-weight: bold; font-stretch: normal; font-size: 176.147px; line-height: 125%; font-family: &quot;Comic Sans MS&quot;; text-align: start; writing-mode: lr-tb; text-anchor: start; display: inline; fill-opacity: 1; stroke: none; fill: rgb(255, 255, 255);" id="path4701" d="M 109.235 56.417 C 107.326 56.364 105.306 56.396 103.195 56.487 C 82.217 56.919 73.412 72.078 72.278 91.5 C 73.186 105.237 78.203 111.904 87.344 117.535 C 91.61 119.583 95.103 120.707 98.52 121.006 C 102.902 121.388 107.159 120.396 112.753 118.229 C 126.573 112.931 137.031 105.151 126.614 94.971 C 122.008 92.897 116.381 96.196 102.894 100.202 C 99.213 101.317 96.347 97.67 101.968 96.082 C 122.244 90.565 130.694 88.359 131.059 74.468 C 130.818 61.051 122.601 56.788 109.235 56.417 Z M 104.19 70.533 C 107.239 70.373 110.064 71.485 110.971 74.306 C 114.465 83.11 96.732 89.13 94.795 79.813 C 93.376 74.594 99.108 70.802 104.19 70.533 Z"/>
  <path style="font-style: normal; font-variant-ligatures: normal; font-variant-caps: normal; font-weight: bold; font-stretch: normal; font-size: 182.188px; line-height: 125%; font-family: &quot;Comic Sans MS&quot;; text-align: start; writing-mode: lr-tb; text-anchor: start; display: inline; fill-opacity: 1; stroke: none; fill: rgb(255, 255, 255);" id="path4705" d="M 161.374 58.523 C 149.97 59.147 135.076 63.883 134.992 77.152 C 136.147 93.357 160.865 96.248 162.068 100.202 C 161.698 106.872 143.052 91.977 138.834 95.666 C 131.277 103.177 134.103 109.085 140.037 113.438 C 143.979 116.33 149.284 118.532 153.806 120.057 C 163.699 122.649 172.978 119.869 178.545 117.118 C 184.761 114.694 186.996 106.624 186.737 99.877 C 183.878 86.547 163.161 83.56 161.327 78.61 C 161.558 70.754 179.867 88.115 184.723 82.683 C 193.838 66.101 182.091 62.78 170.932 59.102 C 168.584 58.562 165.174 58.316 161.374 58.523 Z"/>
  <path style="font-style: normal; font-variant-ligatures: normal; font-variant-caps: normal; font-weight: bold; font-stretch: normal; font-size: 179.688px; line-height: 125%; font-family: &quot;Comic Sans MS&quot;; text-align: start; writing-mode: lr-tb; text-anchor: start; display: inline; fill-opacity: 1; stroke: none; fill: rgb(255, 255, 255);" id="path4707" d="M 204.325 37.024 C 196.463 37.353 192.47 41.405 192.245 47.669 C 193.297 54.888 197.076 57.851 204.325 58.269 C 211.408 57.751 214.266 55.367 215.41 47.669 C 214.731 41.594 211.008 37.441 204.325 37.024 Z M 202.242 61.809 C 196.436 62.105 190.692 65.229 191.504 70.278 C 193.477 82.494 193.412 98.61 190.787 112.513 C 187.743 124.267 216.382 123.596 212.679 112.513 C 209.522 99.894 210.374 85.845 213.396 70.278 C 213.909 64.043 208.048 61.513 202.242 61.809 Z"/>
  <path style="font-style: normal; font-variant-ligatures: normal; font-variant-caps: normal; font-weight: bold; font-stretch: normal; font-size: 167.257px; line-height: 125%; font-family: &quot;Comic Sans MS&quot;; text-align: start; writing-mode: lr-tb; text-anchor: start; display: inline; fill-opacity: 1; stroke: none; fill: rgb(255, 255, 255);" id="path4709" d="M 265.997 27.675 C 263.383 27.516 260.66 28.236 258.476 29.989 C 256.594 31.805 254.697 32.143 257.111 43.157 C 257.403 51.402 258.287 55.091 246.026 54.705 C 225.764 55.189 216.427 71.647 215.387 90.019 C 215.627 107.672 227.516 119.646 244.776 120.913 C 250.815 121.653 253.838 120.132 258.199 117.025 C 259.958 118.536 262.489 120.797 264.747 120.797 C 271.921 120.556 275.324 116.899 274.907 110.29 C 266.595 91.106 285.069 39.816 272.848 30.637 C 271.118 28.866 268.611 27.835 265.997 27.675 Z M 244.684 76.412 C 256.969 76.031 255.704 97.775 244.961 98.397 C 233.638 98.618 233.132 76.751 244.684 76.412 Z"/>
  <path style="font-style: normal; font-variant-ligatures: normal; font-variant-caps: normal; font-weight: bold; font-stretch: normal; font-size: 166.083px; line-height: 125%; font-family: &quot;Comic Sans MS&quot;; text-align: start; writing-mode: lr-tb; text-anchor: start; display: inline; fill-opacity: 1; stroke: none; fill: rgb(255, 255, 255);" d="M 279.825 60.091 C 277.598 81.995 272.93 116.121 302.645 118.318 C 306.489 118.318 310.258 116.434 313.925 115.32 C 315.968 117.231 316.344 119.227 322.16 118.856 C 334.4 119.13 332.538 110.055 332.329 101.502 C 329.144 89.02 330.319 72.676 331.849 58.733 C 331.279 51.308 312.853 50.444 309.401 57.62 C 307.034 65.139 312.509 91.6 305.788 93.275 C 299.646 91.446 305.948 62.392 304.606 57.927 C 303.896 50.133 282.729 50.398 279.825 60.091 Z" id="path4518"/>
  <path style="font-style: normal; font-variant-ligatures: normal; font-variant-caps: normal; font-weight: bold; font-stretch: normal; font-size: 162.064px; line-height: 125%; font-family: &quot;Comic Sans MS&quot;; text-align: start; writing-mode: lr-tb; text-anchor: start; display: inline; fill-opacity: 1; stroke: none; fill: rgb(255, 255, 255);" id="path4711" d="M 365.993 54.936 C 357.56 54.936 349.954 58.427 343.893 65.072 C 337.82 71.691 334.613 80.145 334.613 89.533 C 334.81 108.105 341.498 118.586 360.392 120.543 C 364.76 120.42 368.81 118.513 372.658 116.609 C 374.668 118.848 376.864 120.812 379.971 121.099 C 385.94 120.861 389.381 116.095 389.829 110.499 C 388.015 102.233 386.628 95.044 386.172 86.409 C 385.969 80.726 386.405 75.063 386.727 69.816 C 386.073 59.661 374.529 56.011 365.993 54.936 Z M 361.874 76.735 C 373.714 77.411 372.847 98.848 361.99 98.627 C 351.104 98.444 351.523 77.222 361.874 76.735 Z"/>
  <path style="font-style: normal; font-variant-ligatures: normal; font-variant-caps: normal; font-weight: bold; font-stretch: normal; font-size: 168px; line-height: 125%; font-family: &quot;Comic Sans MS&quot;; text-align: start; writing-mode: lr-tb; text-anchor: start; display: inline; fill-opacity: 1; stroke: none; stroke-opacity: 1; fill: rgb(255, 255, 255);" id="path4713" d="M 402.742 30.521 C 396.868 30.338 390.88 32.509 390.569 37.464 C 393.091 65.853 393.318 90.426 391.75 107.399 L 391.773 114.155 C 393.493 123.521 413.915 123.026 414.707 114.897 C 413.327 101.598 411.557 65.992 414.266 37.695 C 414.381 33.242 408.616 30.705 402.742 30.521 Z"/>
  <path style="display: inline; fill-opacity: 1; stroke: none; stroke-opacity: 1; fill: rgb(255, 255, 255);" d="M 516.92 109.133 C 514.279 98.185 503.282 35.182 502.045 25.386 C 500.056 16.673 509.926 11.838 516.205 14.894 C 521.019 17.425 528.473 26.473 541.558 45.669 C 548.248 55.482 550.009 57.205 551.27 55.165 C 551.568 54.683 552.99 47.826 554.43 39.927 C 557.383 23.72 560.338 13.574 563.616 8.379 C 566.698 3.499 573.579 0.905 577.606 3.366 C 579.164 4.318 582.003 7.62 586.197 29.429 C 594.228 71.186 601.964 95.469 599.552 103.672 C 598.017 108.892 584.657 109.617 581.989 106.911 C 577.439 102.294 578.527 100.18 576.817 85.249 C 575.388 72.778 572.486 57.679 570.972 54.834 C 568.608 50.392 566.398 58.647 563.686 82.046 C 562.877 89.023 561.885 93.952 561.136 94.701 C 559.404 96.432 552.93 97.165 551.302 95.814 C 550.579 95.214 546.347 88.165 541.898 80.15 C 533.032 64.176 530.306 60.359 528.813 61.824 C 527.606 63.01 528.98 74.495 531.413 83.538 C 536.78 103.49 540.356 108.077 539.589 112.768 C 538.84 117.356 538.152 118.906 529.989 121.402 C 521.995 122.728 518.912 116.587 516.92 109.133 Z" id="path5747"/>
  <path style="display: inline; fill-opacity: 1; stroke: none; stroke-opacity: 1; fill: rgb(255, 255, 255);" d="M 463.026 114.738 C 454.125 102.402 450.482 94.233 441.51 78.366 C 429.665 57.418 416.618 23.896 416.618 17.279 C 416.618 13.123 419.138 11.484 425.528 11.484 C 433.792 11.484 432.716 10.004 447.946 42.336 C 459.101 66.02 462.241 71.713 467.164 77.178 C 469.751 80.051 470.625 80.565 471.27 79.595 C 472.303 78.041 473.094 64.465 473.95 33.567 C 474.567 11.259 474.775 8.977 476.506 5.618 C 478.576 1.597 481.661 0 487.353 0 C 489.935 0 491.132 0.551 492.634 2.429 C 494.562 4.84 494.573 5.054 494.055 29.592 C 493.768 43.196 493.693 61.894 493.109 70.41 C 491.526 93.506 493.625 98.042 488.527 113.801 C 482.44 121.705 467.923 123.425 463.026 114.738 Z" id="path5745"/>
</svg>