<?xml version="1.0" encoding="utf-8"?>
<svg viewBox="0 0 200 40" xmlns="http://www.w3.org/2000/svg">
  <path d="M 46.527 29.045 L 48.207 24.095 C 49.887 24.555 51.427 24.785 52.827 24.785 C 54.227 24.785 55.357 24.725 56.217 24.605 L 56.457 23.105 L 53.967 22.865 C 52.067 22.685 50.72 22.255 49.927 21.575 C 49.14 20.895 48.747 19.935 48.747 18.695 C 48.747 18.155 48.807 17.555 48.927 16.895 C 49.387 14.335 50.22 12.575 51.427 11.615 C 52.64 10.655 54.517 10.175 57.057 10.175 C 59.597 10.175 61.837 10.425 63.777 10.925 L 62.217 15.725 C 60.477 15.425 59.077 15.275 58.017 15.275 C 56.957 15.275 56.057 15.325 55.317 15.425 L 55.077 16.895 L 57.087 17.105 C 59.127 17.325 60.577 17.812 61.437 18.565 C 62.297 19.312 62.727 20.315 62.727 21.575 C 62.727 22.855 62.447 24.175 61.887 25.535 C 61.607 26.235 61.3 26.822 60.967 27.295 C 60.64 27.762 60.22 28.158 59.707 28.485 C 59.2 28.818 58.737 29.068 58.317 29.235 C 57.897 29.408 57.367 29.535 56.727 29.615 C 55.787 29.755 54.637 29.825 53.277 29.825 C 50.797 29.825 48.547 29.565 46.527 29.045 Z M 77.727 17.945 L 76.947 22.295 L 71.247 22.295 L 70.857 24.575 L 77.847 24.575 L 77.007 29.375 L 64.317 29.375 L 67.617 10.625 L 80.157 10.625 L 78.597 15.425 L 72.447 15.425 L 72.027 17.945 L 77.727 17.945 Z M 96.117 10.625 L 95.247 15.425 L 91.107 15.425 L 88.677 29.375 L 82.977 29.375 L 85.407 15.425 L 81.297 15.425 L 82.167 10.625 L 96.117 10.625 Z M 111.117 10.625 L 110.247 15.425 L 106.107 15.425 L 103.677 29.375 L 97.977 29.375 L 100.407 15.425 L 96.297 15.425 L 97.167 10.625 L 111.117 10.625 Z M 115.677 29.375 L 109.977 29.375 L 113.277 10.625 L 118.977 10.625 L 115.677 29.375 Z M 135.057 29.375 L 129.687 29.375 L 126.627 22.715 C 126.547 22.575 126.507 22.378 126.507 22.125 C 126.507 21.878 126.527 21.595 126.567 21.275 L 126.327 21.275 L 124.917 29.375 L 119.217 29.375 L 122.517 10.625 L 127.887 10.625 L 130.947 17.285 C 131.007 17.425 131.037 17.622 131.037 17.875 C 131.037 18.122 131.017 18.405 130.977 18.725 L 131.217 18.725 L 132.657 10.625 L 138.357 10.625 L 135.057 29.375 Z M 149.067 23.855 L 149.217 23.045 L 147.777 23.045 L 148.587 18.455 L 155.457 18.455 L 153.687 28.475 C 151.247 29.375 148.797 29.825 146.337 29.825 C 143.877 29.825 142.1 29.335 141.007 28.355 C 139.92 27.375 139.377 25.865 139.377 23.825 C 139.377 22.965 139.517 21.695 139.797 20.015 C 140.397 16.535 141.457 14.025 142.977 12.485 C 144.497 10.945 147.017 10.175 150.537 10.175 C 151.277 10.175 152.22 10.255 153.367 10.415 C 154.52 10.575 155.367 10.755 155.907 10.955 L 154.257 15.545 C 152.757 15.265 151.38 15.125 150.127 15.125 C 148.88 15.125 147.987 15.225 147.447 15.425 C 146.907 15.625 146.587 16.025 146.487 16.625 L 145.017 25.115 L 146.907 25.115 C 147.587 25.115 148.09 25.042 148.417 24.895 C 148.75 24.742 148.967 24.395 149.067 23.855 Z M 155.907 29.045 L 157.587 24.095 C 159.267 24.555 160.807 24.785 162.207 24.785 C 163.607 24.785 164.737 24.725 165.597 24.605 L 165.837 23.105 L 163.347 22.865 C 161.447 22.685 160.1 22.255 159.307 21.575 C 158.52 20.895 158.127 19.935 158.127 18.695 C 158.127 18.155 158.187 17.555 158.307 16.895 C 158.767 14.335 159.6 12.575 160.807 11.615 C 162.02 10.655 163.897 10.175 166.437 10.175 C 168.977 10.175 171.217 10.425 173.157 10.925 L 171.597 15.725 C 169.857 15.425 168.457 15.275 167.397 15.275 C 166.337 15.275 165.437 15.325 164.697 15.425 L 164.457 16.895 L 166.467 17.105 C 168.507 17.325 169.957 17.812 170.817 18.565 C 171.677 19.312 172.107 20.315 172.107 21.575 C 172.107 22.855 171.827 24.175 171.267 25.535 C 170.987 26.235 170.68 26.822 170.347 27.295 C 170.02 27.762 169.6 28.158 169.087 28.485 C 168.58 28.818 168.117 29.068 167.697 29.235 C 167.277 29.408 166.747 29.535 166.107 29.615 C 165.167 29.755 164.017 29.825 162.657 29.825 C 160.177 29.825 157.927 29.565 155.907 29.045 Z" style="white-space: pre; fill: rgb(255, 255, 255);"/>
  <path d="M 41.293 23.356 L 41.293 21.623 L 39.72 21.045 C 39.583 20.516 39.4 20.017 39.128 19.557 L 39.144 19.555 L 39.892 17.996 L 38.67 16.771 L 37.113 17.513 L 37.111 17.515 C 36.652 17.243 36.153 17.071 35.624 16.934 L 35.047 15.345 L 33.313 15.345 L 32.736 16.934 C 32.206 17.071 31.707 17.262 31.248 17.534 L 31.245 17.522 L 29.686 16.775 L 28.461 17.998 L 29.203 19.556 L 29.205 19.558 C 28.933 20.017 28.664 20.517 28.527 21.046 L 26.842 21.623 L 26.842 23.356 L 28.527 23.934 C 28.664 24.463 28.904 24.963 29.176 25.422 L 29.188 25.424 L 28.454 26.983 L 29.683 28.209 L 31.244 27.467 L 31.247 27.465 C 31.706 27.736 32.206 27.99 32.735 28.127 L 33.313 29.797 L 35.047 29.797 L 35.624 28.127 C 36.154 27.99 36.653 27.758 37.112 27.486 L 37.115 27.478 L 38.674 28.214 L 39.899 26.986 L 39.157 25.425 L 39.155 25.423 C 39.427 24.963 39.583 24.463 39.72 23.934 L 41.293 23.356 Z M 34.18 25.378 C 32.585 25.378 31.291 24.085 31.291 22.49 C 31.291 20.895 32.585 19.601 34.18 19.601 C 35.776 19.601 37.069 20.895 37.069 22.49 C 37.069 24.085 35.776 25.378 34.18 25.378 Z" style="fill: rgb(204, 204, 204);"/>
  <path d="M 46.833 12.884 L 46.454 11.969 L 45.473 12.018 C 45.285 11.768 45.067 11.55 44.823 11.367 L 44.824 11.365 L 44.876 10.38 L 43.961 10 L 43.3 10.733 L 43.3 10.735 C 42.998 10.692 42.688 10.689 42.379 10.733 L 41.718 10 L 40.803 10.379 L 40.854 11.364 C 40.605 11.552 40.388 11.773 40.204 12.017 L 40.203 12.016 L 39.217 11.965 L 38.839 12.88 L 39.571 13.54 L 39.573 13.541 C 39.538 13.824 39.523 14.155 39.567 14.464 L 38.829 15.127 L 39.208 16.042 L 40.198 15.989 C 40.386 16.239 40.609 16.455 40.853 16.638 L 40.853 16.64 L 40.803 17.625 L 41.806 18.004 L 42.554 17.271 L 42.554 17.269 C 42.748 17.305 43.079 17.314 43.388 17.271 L 44.005 18.004 L 44.898 17.625 L 44.836 16.64 C 45.086 16.452 45.298 16.231 45.481 15.987 L 45.48 15.988 L 46.464 16.038 L 46.842 15.123 L 46.109 14.463 L 46.107 14.462 C 46.15 14.16 46.148 13.852 46.105 13.543 L 46.833 12.884 Z M 43.471 15.527 C 42.629 15.875 41.664 15.476 41.315 14.633 C 40.966 13.791 41.366 12.826 42.208 12.477 C 43.051 12.128 44.016 12.528 44.365 13.37 C 44.713 14.213 44.313 15.178 43.471 15.527 Z" style="fill: rgb(204, 204, 204);"/>
</svg>