<?xml version="1.0" encoding="utf-8"?>
<svg viewBox="0 0 200 40" xmlns="http://www.w3.org/2000/svg">
  <path d="M 0.342 29.495 C 0.342 29.491 0.395 29.17 0.459 28.781 C 0.524 28.395 0.616 27.833 0.664 27.536 L 0.751 26.996 L 4.349 23.335 L 7.944 19.674 L 6.272 17.972 L 4.6 16.271 L 4.233 16.643 L 3.867 17.013 L 3.49 17.142 C 3.285 17.213 2.739 17.399 2.28 17.56 C 1.381 17.869 1.265 17.909 1.25 17.909 C 1.246 17.909 1.905 17.233 2.717 16.406 L 4.195 14.904 L 3.696 14.397 C 3.421 14.116 3.19 13.89 3.183 13.896 C 3.176 13.9 3.172 13.896 3.173 13.883 C 3.177 13.871 3.169 13.864 3.158 13.867 C 3.148 13.869 3.141 13.86 3.143 13.851 C 3.145 13.84 3.137 13.833 3.127 13.835 C 3.118 13.837 3.11 13.829 3.111 13.819 C 3.114 13.808 3.107 13.8 3.096 13.804 C 3.086 13.805 3.078 13.798 3.08 13.788 C 3.083 13.777 3.075 13.768 3.064 13.771 C 3.054 13.774 3.048 13.766 3.049 13.756 C 3.052 13.745 3.044 13.737 3.033 13.74 C 3.024 13.742 3.016 13.733 3.018 13.723 C 3.02 13.712 3.013 13.706 3.002 13.708 C 2.993 13.709 2.984 13.702 2.986 13.692 C 2.99 13.681 2.982 13.673 2.97 13.677 C 2.961 13.678 2.954 13.67 2.955 13.66 C 2.958 13.65 2.95 13.641 2.939 13.644 C 2.93 13.647 2.922 13.638 2.924 13.629 C 2.927 13.618 2.919 13.61 2.909 13.613 C 2.899 13.614 2.891 13.607 2.892 13.597 C 2.896 13.586 2.888 13.578 2.877 13.581 C 2.867 13.582 2.86 13.574 2.862 13.564 C 2.865 13.554 2.856 13.545 2.845 13.549 C 2.837 13.551 2.829 13.542 2.83 13.533 C 2.833 13.522 2.826 13.514 2.815 13.518 C 2.805 13.519 2.797 13.511 2.798 13.502 C 2.802 13.49 2.794 13.483 2.783 13.485 C 2.773 13.486 2.766 13.48 2.768 13.47 C 2.77 13.459 2.763 13.451 2.751 13.453 C 2.743 13.455 2.735 13.448 2.736 13.438 C 2.739 13.426 2.732 13.419 2.721 13.422 C 2.711 13.423 2.703 13.415 2.705 13.406 C 2.709 13.395 2.7 13.387 2.689 13.391 C 2.68 13.392 2.673 13.384 2.674 13.374 C 2.677 13.363 2.669 13.355 2.658 13.359 C 2.648 13.36 2.641 13.352 2.642 13.342 C 2.645 13.332 2.638 13.323 2.627 13.326 C 2.618 13.328 2.609 13.32 2.611 13.311 C 2.615 13.3 2.606 13.292 2.596 13.295 C 2.586 13.296 2.579 13.288 2.58 13.28 C 2.583 13.267 2.575 13.26 2.564 13.263 C 2.554 13.264 2.547 13.257 2.548 13.247 C 2.551 13.236 2.545 13.227 2.533 13.231 C 2.524 13.233 2.516 13.225 2.517 13.215 C 2.521 13.204 2.513 13.196 2.502 13.199 C 2.493 13.202 2.484 13.193 2.487 13.184 C 2.49 13.172 2.481 13.165 2.47 13.168 C 2.462 13.169 2.454 13.162 2.455 13.152 C 2.458 13.14 2.451 13.133 2.44 13.136 C 2.43 13.137 2.422 13.129 2.423 13.119 C 2.427 13.109 2.419 13.1 2.408 13.104 C 2.399 13.106 2.39 13.097 2.393 13.088 C 2.396 13.077 2.387 13.069 2.376 13.073 C 2.367 13.074 2.36 13.066 2.361 13.057 C 2.364 13.045 2.357 13.037 2.346 13.04 C 2.336 13.041 2.328 13.034 2.329 13.024 C 2.332 13.014 2.325 13.005 2.314 13.008 C 2.305 13.01 2.296 13.003 2.299 12.992 C 2.302 12.981 2.293 12.974 2.283 12.977 C 2.273 12.978 2.266 12.97 2.267 12.961 C 2.27 12.949 2.262 12.941 2.252 12.945 C 2.242 12.947 2.234 12.939 2.236 12.929 C 2.24 12.918 2.232 12.91 2.221 12.912 C 2.211 12.915 2.203 12.907 2.205 12.897 C 2.208 12.886 2.2 12.878 2.189 12.881 C 2.18 12.882 2.172 12.876 2.174 12.866 C 2.177 12.855 2.168 12.847 2.158 12.85 C 2.149 12.851 2.141 12.843 2.142 12.833 C 2.145 12.822 2.138 12.814 2.127 12.818 C 2.117 12.82 2.109 12.811 2.112 12.801 C 2.114 12.791 2.106 12.783 2.095 12.786 C 2.086 12.788 2.079 12.78 2.08 12.77 C 2.083 12.759 2.074 12.751 2.061 12.754 C 2.048 12.758 2.044 12.754 2.05 12.748 C 2.057 12.74 1.873 12.543 1.644 12.309 L 1.225 11.883 L 1.115 11.883 C 0.94 11.883 0.675 11.795 0.527 11.691 C 0.475 11.652 0.456 11.652 0.484 11.689 C 0.504 11.713 0.503 11.714 0.48 11.694 C 0.464 11.682 0.455 11.666 0.459 11.66 C 0.47 11.643 0.425 11.607 0.408 11.62 C 0.4 11.624 0.381 11.614 0.365 11.596 C 0.35 11.579 0.343 11.565 0.35 11.565 C 0.355 11.565 0.35 11.551 0.335 11.533 C 0.318 11.515 0.301 11.505 0.295 11.509 C 0.289 11.512 0.267 11.498 0.246 11.474 C 0.226 11.453 0.219 11.437 0.231 11.446 C 0.245 11.454 0.249 11.45 0.245 11.436 C 0.241 11.423 0.23 11.416 0.221 11.417 C 0.212 11.418 0.194 11.409 0.182 11.394 C 0.145 11.354 0.03 11.131 0.03 11.104 C 0.03 11.091 0.048 11.12 0.07 11.167 C 0.12 11.276 0.203 11.41 0.214 11.398 C 0.219 11.395 0.211 11.377 0.197 11.363 C 0.153 11.311 0.062 11.108 0.027 10.983 C 0 10.88 -0.003 10.828 0.001 10.653 C 0.007 10.478 0.014 10.423 0.051 10.317 C 0.107 10.146 0.198 9.997 0.324 9.858 C 0.381 9.795 0.413 9.756 0.397 9.768 C 0.373 9.786 0.375 9.779 0.404 9.747 C 0.442 9.704 0.47 9.687 0.436 9.728 C 0.423 9.743 0.422 9.753 0.433 9.753 C 0.449 9.753 0.475 9.721 0.475 9.698 C 0.475 9.69 0.492 9.675 0.514 9.66 L 0.553 9.638 L 0.514 9.671 C 0.456 9.719 0.484 9.713 0.588 9.65 C 0.756 9.549 0.901 9.509 1.132 9.501 C 1.301 9.497 1.355 9.501 1.457 9.528 C 1.577 9.561 1.731 9.631 1.814 9.69 C 1.866 9.728 1.884 9.728 1.857 9.691 C 1.836 9.668 1.838 9.666 1.861 9.687 C 1.876 9.698 1.886 9.714 1.881 9.72 C 1.87 9.738 1.916 9.773 1.932 9.762 C 1.941 9.757 1.961 9.768 1.977 9.789 L 2.007 9.824 L 1.967 9.793 L 1.928 9.76 L 1.966 9.803 C 1.986 9.827 2.009 9.843 2.018 9.838 C 2.025 9.833 2.028 9.838 2.026 9.851 C 2.023 9.862 2.03 9.869 2.039 9.868 C 2.048 9.867 2.074 9.884 2.094 9.908 C 2.129 9.947 2.129 9.95 2.097 9.921 C 2.077 9.904 2.061 9.897 2.061 9.906 C 2.061 9.927 2.116 9.978 2.127 9.967 C 2.131 9.962 2.144 9.972 2.156 9.986 C 2.177 10.012 2.175 10.013 2.15 9.993 C 2.116 9.964 2.116 9.983 2.153 10.035 C 2.257 10.184 2.342 10.462 2.342 10.646 L 2.342 10.746 L 3.827 12.256 L 5.311 13.767 L 6.788 12.265 C 7.601 11.437 8.265 10.767 8.265 10.772 C 8.265 10.777 8.209 10.953 8.139 11.161 C 8.07 11.37 7.999 11.581 7.984 11.628 C 7.752 12.332 7.388 13.414 7.376 13.436 C 7.368 13.452 7.332 13.493 7.297 13.527 C 7.263 13.562 7.238 13.596 7.242 13.603 C 7.248 13.611 7.242 13.614 7.23 13.613 C 7.219 13.61 7.212 13.618 7.215 13.629 C 7.216 13.638 7.208 13.647 7.2 13.644 C 7.188 13.641 7.18 13.65 7.183 13.66 C 7.185 13.67 7.178 13.678 7.168 13.677 C 7.157 13.673 7.149 13.681 7.153 13.692 C 7.154 13.702 7.146 13.709 7.136 13.708 C 7.126 13.706 7.118 13.712 7.121 13.723 C 7.123 13.733 7.115 13.742 7.106 13.74 C 7.095 13.737 7.087 13.745 7.09 13.756 C 7.091 13.766 7.084 13.774 7.075 13.771 C 7.063 13.768 7.055 13.777 7.059 13.788 C 7.061 13.798 7.052 13.805 7.043 13.804 C 7.032 13.8 7.025 13.808 7.027 13.819 C 7.029 13.829 7.021 13.837 7.012 13.835 C 7.001 13.833 6.993 13.84 6.996 13.851 C 6.997 13.86 6.99 13.869 6.98 13.867 C 6.97 13.864 6.961 13.871 6.965 13.883 C 6.967 13.893 6.958 13.9 6.949 13.899 C 6.938 13.896 6.931 13.904 6.934 13.915 C 6.935 13.925 6.927 13.933 6.918 13.93 C 6.907 13.927 6.899 13.936 6.902 13.946 C 6.903 13.956 6.897 13.964 6.887 13.963 C 6.876 13.959 6.868 13.967 6.87 13.978 C 6.873 13.988 6.865 13.996 6.855 13.994 C 6.844 13.992 6.837 13.999 6.84 14.011 C 6.842 14.019 6.833 14.027 6.825 14.026 C 6.813 14.023 6.806 14.031 6.808 14.042 C 6.81 14.052 6.803 14.059 6.793 14.057 C 6.782 14.055 6.774 14.063 6.778 14.074 C 6.779 14.083 6.771 14.092 6.762 14.09 C 6.751 14.086 6.743 14.094 6.746 14.106 C 6.748 14.115 6.74 14.123 6.731 14.122 C 6.72 14.118 6.712 14.126 6.715 14.137 C 6.716 14.15 6.712 14.155 6.704 14.15 C 6.697 14.145 6.682 14.15 6.675 14.162 C 6.661 14.177 7.048 14.579 8.328 15.882 L 9.999 17.583 L 11.672 15.882 C 12.592 14.946 13.344 14.175 13.344 14.17 C 13.344 14.162 13.335 14.156 13.327 14.156 C 13.319 14.156 13.313 14.163 13.319 14.17 C 13.323 14.177 12.58 14.942 11.667 15.871 L 10.008 17.56 L 8.343 15.863 L 6.679 14.165 L 8.343 15.854 L 10.008 17.543 L 11.661 15.861 L 13.312 14.181 L 12.95 13.808 C 12.75 13.604 12.595 13.443 12.606 13.448 C 12.616 13.453 12.626 13.455 12.626 13.452 C 12.626 13.449 12.577 13.307 12.522 13.137 C 12.466 12.967 12.285 12.432 12.125 11.947 C 11.964 11.462 11.81 10.996 11.781 10.915 C 11.744 10.802 11.737 10.762 11.75 10.747 C 11.764 10.735 11.767 10.736 11.763 10.754 C 11.76 10.767 11.765 10.776 11.775 10.774 C 11.782 10.773 12.444 11.439 13.243 12.254 L 14.696 13.736 L 13.235 12.256 L 11.774 10.777 L 13.235 12.269 L 14.696 13.759 L 16.175 12.254 L 17.657 10.746 L 17.657 10.643 C 17.657 10.468 17.748 10.177 17.843 10.04 C 17.879 9.99 17.885 9.967 17.857 9.984 C 17.846 9.993 17.845 9.99 17.85 9.976 C 17.859 9.965 17.868 9.961 17.872 9.965 C 17.883 9.978 17.938 9.927 17.938 9.906 C 17.938 9.897 17.922 9.904 17.904 9.921 C 17.883 9.937 17.893 9.924 17.92 9.891 C 17.98 9.827 18.009 9.809 17.96 9.868 C 17.944 9.887 17.956 9.878 17.99 9.849 C 18.05 9.793 18.068 9.765 18.021 9.802 C 18.006 9.813 18.013 9.799 18.038 9.772 C 18.065 9.743 18.088 9.72 18.091 9.72 C 18.096 9.72 18.087 9.735 18.071 9.753 C 18.055 9.769 18.048 9.784 18.058 9.784 C 18.079 9.784 18.129 9.728 18.117 9.717 C 18.113 9.713 18.123 9.7 18.136 9.687 C 18.162 9.666 18.163 9.668 18.142 9.694 C 18.115 9.728 18.134 9.728 18.185 9.69 C 18.268 9.631 18.422 9.561 18.542 9.528 C 18.644 9.501 18.698 9.497 18.867 9.501 C 19.097 9.509 19.242 9.549 19.412 9.65 C 19.515 9.713 19.529 9.716 19.499 9.678 C 19.479 9.652 19.481 9.65 19.506 9.671 C 19.519 9.684 19.529 9.697 19.524 9.701 C 19.514 9.713 19.547 9.753 19.567 9.753 C 19.576 9.753 19.573 9.739 19.562 9.724 C 19.551 9.709 19.561 9.714 19.584 9.735 C 19.631 9.777 19.641 9.799 19.599 9.767 C 19.584 9.754 19.618 9.795 19.676 9.858 C 19.801 9.997 19.892 10.146 19.948 10.317 C 19.985 10.423 19.992 10.478 19.998 10.653 C 20.002 10.828 19.999 10.88 19.971 10.983 C 19.937 11.108 19.846 11.311 19.803 11.363 C 19.788 11.377 19.78 11.395 19.785 11.398 C 19.797 11.41 19.879 11.276 19.929 11.167 C 19.951 11.12 19.97 11.091 19.97 11.104 C 19.97 11.131 19.854 11.354 19.819 11.394 C 19.805 11.409 19.787 11.418 19.779 11.417 C 19.769 11.416 19.758 11.423 19.754 11.436 C 19.749 11.45 19.754 11.454 19.768 11.446 C 19.78 11.437 19.773 11.453 19.752 11.474 C 19.732 11.498 19.71 11.512 19.704 11.509 C 19.697 11.505 19.681 11.515 19.664 11.533 C 19.649 11.551 19.643 11.565 19.649 11.565 C 19.656 11.565 19.649 11.579 19.634 11.596 C 19.618 11.614 19.599 11.624 19.591 11.62 C 19.574 11.607 19.529 11.643 19.54 11.66 C 19.547 11.672 19.504 11.71 19.442 11.746 C 19.397 11.773 19.427 11.74 19.479 11.707 C 19.509 11.689 19.531 11.668 19.526 11.665 C 19.521 11.66 19.499 11.672 19.474 11.689 C 19.324 11.795 19.058 11.883 18.877 11.883 L 18.774 11.883 L 17.293 13.391 L 15.813 14.896 L 17.269 16.375 L 18.727 17.853 L 17.282 16.375 L 15.836 14.896 L 17.295 16.375 C 18.094 17.187 18.751 17.855 18.751 17.858 C 18.751 17.861 18.745 17.858 18.735 17.853 C 18.727 17.849 18.72 17.852 18.72 17.859 C 18.72 17.876 18.742 17.883 18.771 17.879 C 18.778 17.877 18.775 17.891 18.767 17.909 C 18.746 17.947 18.728 17.947 18.665 17.915 C 18.64 17.902 18.63 17.896 18.646 17.901 C 18.72 17.921 18.758 17.928 18.749 17.918 C 18.745 17.914 18.553 17.846 18.327 17.768 C 17.687 17.546 16.266 17.057 16.188 17.028 C 16.105 17 16.084 17.007 16.159 17.041 C 16.195 17.058 16.198 17.062 16.172 17.057 C 16.149 17.05 15.984 16.894 15.769 16.68 L 15.406 16.311 L 13.753 17.994 L 12.102 19.674 L 15.692 23.327 C 17.666 25.336 19.282 26.983 19.282 26.988 C 19.282 26.992 17.663 25.348 15.685 23.335 L 12.085 19.674 L 13.742 17.988 C 14.747 16.967 15.406 16.306 15.418 16.311 C 15.431 16.316 15.437 16.311 15.435 16.3 C 15.431 16.29 15.422 16.279 15.413 16.276 C 15.405 16.272 14.645 17.036 13.727 17.972 L 12.055 19.674 L 15.652 23.335 L 19.249 26.996 L 19.304 27.322 C 19.333 27.501 19.426 28.059 19.509 28.562 C 19.591 29.064 19.663 29.479 19.668 29.485 C 19.673 29.489 19.673 29.449 19.668 29.397 L 19.658 29.301 L 19.676 29.377 C 19.699 29.491 19.688 29.507 19.59 29.495 C 19.546 29.489 18.988 29.396 18.353 29.288 L 17.199 29.09 L 14.921 26.772 C 13.668 25.496 12.639 24.457 12.634 24.461 C 12.63 24.466 13.655 25.515 14.911 26.794 C 16.167 28.072 17.193 29.118 17.188 29.118 C 17.183 29.118 15.564 27.474 13.591 25.466 L 9.999 21.812 L 6.407 25.468 C 4.116 27.799 2.808 29.12 2.794 29.114 C 2.776 29.107 2.776 29.104 2.796 29.104 C 2.808 29.103 4.435 27.458 6.408 25.45 L 9.999 21.796 L 10.156 21.956 C 10.242 22.042 10.312 22.11 10.312 22.105 C 10.312 22.1 10.241 22.023 10.153 21.934 L 9.994 21.771 L 6.397 25.428 L 2.804 29.085 L 2.241 29.18 C 1.931 29.233 1.405 29.323 1.068 29.381 C 0.343 29.507 0.342 29.507 0.342 29.495 Z M 11.477 23.276 C 10.845 22.632 10.323 22.107 10.317 22.107 C 10.308 22.107 10.825 22.635 11.461 23.283 C 12.095 23.928 12.619 24.456 12.622 24.452 C 12.626 24.449 12.111 23.92 11.477 23.276 Z M 16.109 16.994 C 16.109 16.982 15.454 16.319 15.442 16.319 C 15.436 16.319 15.581 16.473 15.766 16.661 C 15.951 16.849 16.104 17.002 16.105 17.002 C 16.108 17.002 16.109 17 16.109 16.994 Z M 12.978 13.8 C 12.792 13.611 12.635 13.456 12.63 13.456 C 12.623 13.456 12.772 13.614 12.961 13.807 C 13.148 13.997 13.307 14.153 13.31 14.148 C 13.312 14.145 13.165 13.988 12.978 13.8 Z M 0.405 11.606 C 0.405 11.603 0.392 11.591 0.378 11.579 C 0.353 11.558 0.351 11.561 0.372 11.585 C 0.392 11.611 0.405 11.62 0.405 11.606 Z M 19.627 11.585 C 19.648 11.561 19.646 11.558 19.623 11.579 C 19.606 11.591 19.594 11.603 19.594 11.606 C 19.594 11.62 19.606 11.611 19.627 11.585 Z M 0.295 11.495 C 0.295 11.492 0.282 11.479 0.269 11.468 C 0.244 11.447 0.243 11.449 0.262 11.474 C 0.282 11.499 0.295 11.508 0.295 11.495 Z M 19.737 11.474 C 19.757 11.449 19.755 11.447 19.732 11.468 C 19.716 11.479 19.704 11.492 19.704 11.495 C 19.704 11.508 19.716 11.499 19.737 11.474 Z" style="fill: rgb(204, 204, 204);"/>
  <path d="M 36.56 22.96 L 38.54 29.2 L 32.27 29.2 L 30.89 23.62 L 29.66 23.62 L 28.7 29.2 L 23 29.2 L 26.3 10.45 L 35.3 10.45 L 35.3 10.45 C 38.72 10.45 40.43 11.98 40.43 15.04 L 40.43 15.04 L 40.43 15.04 C 40.43 16.3 40.24 17.5 39.86 18.64 L 39.86 18.64 L 39.86 18.64 C 39.16 20.8 38.06 22.24 36.56 22.96 L 36.56 22.96 Z M 32.27 15.25 L 31.13 15.25 L 30.47 19 L 31.79 19 L 31.79 19 C 32.47 19 32.983 18.927 33.33 18.78 L 33.33 18.78 L 33.33 18.78 C 33.683 18.627 33.923 18.197 34.05 17.49 L 34.05 17.49 L 34.05 17.49 C 34.183 16.777 34.25 16.34 34.25 16.18 L 34.25 16.18 L 34.25 16.18 C 34.25 15.78 34.097 15.523 33.79 15.41 L 33.79 15.41 L 33.79 15.41 C 33.477 15.303 32.97 15.25 32.27 15.25 L 32.27 15.25 Z M 48.44 16.72 L 48.44 16.72 L 47.06 24.52 L 49.43 24.52 L 49.43 24.52 C 50.21 24.52 50.79 24.427 51.17 24.24 L 51.17 24.24 L 51.17 24.24 C 51.55 24.047 51.8 23.61 51.92 22.93 L 51.92 22.93 L 53.3 15.13 L 50.9 15.13 L 50.9 15.13 C 50.14 15.13 49.57 15.223 49.19 15.41 L 49.19 15.41 L 49.19 15.41 C 48.81 15.603 48.56 16.04 48.44 16.72 Z M 51.89 10 L 51.89 10 L 51.89 10 C 54.43 10 56.24 10.497 57.32 11.49 L 57.32 11.49 L 57.32 11.49 C 58.4 12.477 58.94 14 58.94 16.06 L 58.94 16.06 L 58.94 16.06 C 58.94 18.12 58.613 20.277 57.96 22.53 L 57.96 22.53 L 57.96 22.53 C 57.313 24.777 56.283 26.523 54.87 27.77 L 54.87 27.77 L 54.87 27.77 C 53.463 29.023 51.403 29.65 48.69 29.65 L 48.69 29.65 L 48.69 29.65 C 45.983 29.65 44.09 29.157 43.01 28.17 L 43.01 28.17 L 43.01 28.17 C 41.93 27.177 41.39 25.65 41.39 23.59 L 41.39 23.59 L 41.39 23.59 C 41.39 22.61 41.53 21.317 41.81 19.71 L 41.81 19.71 L 41.81 19.71 C 42.09 18.097 42.46 16.707 42.92 15.54 L 42.92 15.54 L 42.92 15.54 C 43.38 14.367 44 13.35 44.78 12.49 L 44.78 12.49 L 44.78 12.49 C 46.28 10.83 48.65 10 51.89 10 Z M 72.11 24.4 L 71.27 29.2 L 59.87 29.2 L 63.17 10.45 L 68.87 10.45 L 66.41 24.4 L 72.11 24.4 Z M 86.06 17.77 L 85.28 22.12 L 79.58 22.12 L 79.19 24.4 L 86.18 24.4 L 85.34 29.2 L 72.65 29.2 L 75.95 10.45 L 88.49 10.45 L 86.93 15.25 L 80.78 15.25 L 80.36 17.77 L 86.06 17.77 Z M 104.75 24.67 L 104.75 24.67 L 101.03 24.67 L 100.25 29.2 L 94.55 29.2 L 97.85 10.45 L 106.85 10.45 L 106.85 10.45 C 110.25 10.45 111.95 12.03 111.95 15.19 L 111.95 15.19 L 111.95 15.19 C 111.95 16.69 111.74 18.043 111.32 19.25 L 111.32 19.25 L 111.32 19.25 C 110.9 20.463 110.437 21.427 109.93 22.14 L 109.93 22.14 L 109.93 22.14 C 109.417 22.847 108.713 23.447 107.82 23.94 L 107.82 23.94 L 107.82 23.94 C 106.933 24.427 105.91 24.67 104.75 24.67 Z M 104 15.25 L 102.68 15.25 L 101.87 19.87 L 103.19 19.87 L 103.19 19.87 C 103.87 19.87 104.383 19.797 104.73 19.65 L 104.73 19.65 L 104.73 19.65 C 105.083 19.497 105.31 19.15 105.41 18.61 L 105.41 18.61 L 105.41 18.61 C 105.67 17.13 105.8 16.32 105.8 16.18 L 105.8 16.18 L 105.8 16.18 C 105.8 15.8 105.65 15.55 105.35 15.43 L 105.35 15.43 L 105.35 15.43 C 105.05 15.31 104.6 15.25 104 15.25 L 104 15.25 Z M 123.98 24.4 L 123.14 29.2 L 111.74 29.2 L 115.04 10.45 L 120.74 10.45 L 118.28 24.4 L 123.98 24.4 Z M 128.45 26.23 L 127.28 29.2 L 121.28 29.2 L 129.17 10.45 L 137.99 10.45 L 139.31 29.2 L 133.28 29.2 L 133.16 26.23 L 128.45 26.23 Z M 132.71 16.21 L 132.41 16.21 L 130.31 21.46 L 132.71 21.46 L 132.71 16.21 Z M 140.6 10.45 L 146.9 10.45 L 147.29 17.05 L 147.5 17.05 L 150.26 10.45 L 156.56 10.45 L 149 24.1 L 148.13 29.2 L 142.43 29.2 L 143.3 24.1 L 140.6 10.45 Z M 159.83 29.2 L 154.13 29.2 L 157.43 10.45 L 163.13 10.45 L 159.83 29.2 Z M 179.21 29.2 L 173.84 29.2 L 170.78 22.54 L 170.78 22.54 C 170.7 22.4 170.66 22.203 170.66 21.95 L 170.66 21.95 L 170.66 21.95 C 170.66 21.703 170.68 21.42 170.72 21.1 L 170.72 21.1 L 170.48 21.1 L 169.07 29.2 L 163.37 29.2 L 166.67 10.45 L 172.04 10.45 L 175.1 17.11 L 175.1 17.11 C 175.16 17.25 175.19 17.447 175.19 17.7 L 175.19 17.7 L 175.19 17.7 C 175.19 17.947 175.17 18.23 175.13 18.55 L 175.13 18.55 L 175.37 18.55 L 176.81 10.45 L 182.51 10.45 L 179.21 29.2 Z M 193.22 23.68 L 193.22 23.68 L 193.37 22.87 L 191.93 22.87 L 192.74 18.28 L 199.61 18.28 L 197.84 28.3 L 197.84 28.3 C 195.4 29.2 192.95 29.65 190.49 29.65 L 190.49 29.65 L 190.49 29.65 C 188.03 29.65 186.253 29.16 185.16 28.18 L 185.16 28.18 L 185.16 28.18 C 184.073 27.2 183.53 25.69 183.53 23.65 L 183.53 23.65 L 183.53 23.65 C 183.53 22.79 183.67 21.52 183.95 19.84 L 183.95 19.84 L 183.95 19.84 C 184.55 16.36 185.61 13.85 187.13 12.31 L 187.13 12.31 L 187.13 12.31 C 188.65 10.77 191.17 10 194.69 10 L 194.69 10 L 194.69 10 C 195.43 10 196.373 10.08 197.52 10.24 L 197.52 10.24 L 197.52 10.24 C 198.673 10.4 199.52 10.58 200.06 10.78 L 200.06 10.78 L 198.41 15.37 L 198.41 15.37 C 196.91 15.09 195.533 14.95 194.28 14.95 L 194.28 14.95 L 194.28 14.95 C 193.033 14.95 192.14 15.05 191.6 15.25 L 191.6 15.25 L 191.6 15.25 C 191.06 15.45 190.74 15.85 190.64 16.45 L 190.64 16.45 L 189.17 24.94 L 191.06 24.94 L 191.06 24.94 C 191.74 24.94 192.243 24.867 192.57 24.72 L 192.57 24.72 L 192.57 24.72 C 192.903 24.567 193.12 24.22 193.22 23.68 Z" style="white-space: pre; fill: rgb(255, 255, 255);"/>
</svg>