<?xml version="1.0" encoding="utf-8"?>
<svg version="1.1" xmlns="http://www.w3.org/2000/svg">
  <g>
    <path id="path27" d="M 462.264 14.97 L 443.933 138.004 C 443.786 139.001 444.045 139.98 444.659 140.76 C 445.27 141.537 446.165 142.016 447.164 142.103 L 464.149 143.585 C 466.169 143.762 468.048 142.269 468.326 140.257 C 468.326 140.257 477.646 73.226 478.242 68.908 C 479.468 73.115 500.171 144.205 500.171 144.205 C 500.704 146.027 502.598 147.614 504.486 147.816 L 515.812 149.02 C 517.689 149.219 519.899 148.096 520.841 146.46 C 520.841 146.46 557.03 83.7 559.053 80.194 C 558.707 84.203 553.145 148.852 553.145 148.852 C 553.133 148.96 553.127 149.068 553.127 149.18 C 553.127 151.089 554.593 152.745 556.524 152.947 L 576.875 155.049 C 577.868 155.154 578.838 154.859 579.612 154.227 C 580.383 153.591 580.856 152.694 580.943 151.7 L 591.974 27.992 C 592.061 26.998 591.757 26.028 591.116 25.263 C 590.471 24.495 589.574 24.026 588.58 23.938 L 569.476 22.279 C 567.594 22.113 565.41 23.285 564.501 24.941 L 517.159 111.408 C 517.155 111.414 517.153 111.414 517.149 111.417 C 517.149 111.414 517.149 111.414 517.146 111.408 L 491.811 17.446 C 491.315 15.6 489.435 14.007 487.535 13.814 L 466.48 11.694 C 464.45 11.489 462.562 12.959 462.264 14.97 Z" style="fill: rgb(255, 255, 255);"/>
    <path id="path29" d="M 597.253 20.108 C 595.232 17.702 592.398 16.223 589.27 15.952 L 570.168 14.29 C 565.118 13.85 559.902 16.648 557.472 21.087 C 557.472 21.087 531.872 67.83 519.694 90.078 C 513.132 65.749 499.545 15.356 499.545 15.356 C 498.175 10.279 493.57 6.364 488.33 5.84 L 467.275 3.72 C 460.951 3.081 455.268 7.505 454.332 13.79 L 436.007 136.827 C 435.537 139.986 436.39 143.229 438.365 145.723 C 440.328 148.213 443.283 149.803 446.469 150.083 L 463.447 151.565 C 469.759 152.116 475.381 147.632 476.258 141.356 C 476.258 141.356 478.649 124.146 481.019 107.107 C 486.746 126.772 492.474 146.442 492.474 146.442 C 493.916 151.396 498.503 155.239 503.631 155.778 L 514.96 156.988 C 519.983 157.521 525.253 154.841 527.774 150.466 C 527.774 150.466 537.88 132.936 547.971 115.443 C 546.571 131.711 545.156 148.162 545.156 148.162 C 545.125 148.499 545.11 148.836 545.11 149.168 C 545.11 155.124 549.673 160.286 555.699 160.909 L 576.047 163.017 C 579.19 163.342 582.265 162.415 584.704 160.4 C 587.147 158.392 588.643 155.552 588.92 152.399 L 599.951 28.693 C 600.234 25.568 599.274 22.52 597.253 20.108 Z M 565.437 25.447 C 566.142 24.158 567.919 23.207 569.382 23.336 L 575.673 23.881 L 569.223 43.226 L 555.705 43.226 L 565.437 25.447 Z M 466.371 12.754 L 487.427 14.871 C 488.89 15.019 490.399 16.301 490.779 17.72 L 496.594 39.281 L 472.174 39.281 L 471.587 39.281 L 471.409 39.839 L 468.256 49.758 L 458.159 49.758 L 463.321 15.127 C 463.534 13.676 464.908 12.606 466.371 12.754 Z M 456.253 108.848 L 459.951 110.86 L 460.132 110.959 L 460.333 110.959 L 471.316 110.959 L 469.771 122.056 L 447.776 119.439 L 449.363 108.803 L 456.253 108.848 Z M 464.239 142.522 L 447.255 141.04 C 445.791 140.91 444.77 139.619 444.987 138.164 L 447.541 121.026 L 469.551 123.646 L 467.263 140.112 C 467.064 141.564 465.703 142.648 464.239 142.522 Z M 478.619 66.378 C 478.203 64.969 477.706 65.005 477.501 66.459 L 471.536 109.357 L 460.535 109.357 L 456.837 107.348 L 456.662 107.249 L 456.461 107.246 L 449.604 107.204 L 457.915 51.36 L 468.837 51.36 L 469.422 51.36 L 469.599 50.803 L 472.752 40.884 L 497.018 40.884 L 508.711 84.251 L 497.313 84.251 L 496.506 84.251 L 496.506 85.049 L 496.506 114.296 L 492.564 114.296 L 478.619 66.378 Z M 576.983 153.983 L 567.145 152.968 L 568.139 138.884 L 573.234 138.215 L 573.656 138.158 L 573.845 137.776 L 575.143 135.153 L 581.347 135.153 L 579.88 151.601 C 579.748 153.061 578.444 154.134 576.983 153.983 Z M 581.488 133.548 L 574.637 133.548 L 574.14 133.548 L 573.921 133.993 L 572.596 136.682 L 567.277 137.384 L 566.633 137.468 L 566.585 138.122 L 565.552 152.8 L 556.632 151.878 C 555.174 151.724 554.081 150.402 554.205 148.939 L 557.813 107.011 L 568.846 107.011 L 569.647 107.011 L 569.65 106.21 L 569.717 80.67 L 574.282 64.156 L 587.665 64.21 L 581.488 133.548 Z M 587.812 62.605 L 573.68 62.548 L 573.071 62.548 L 572.912 63.138 L 568.148 80.348 L 568.121 80.453 L 568.121 80.562 L 568.051 105.409 L 557.951 105.409 L 560.3 78.159 C 560.423 76.695 559.924 76.539 559.192 77.809 L 519.914 145.927 C 519.185 147.201 517.384 148.111 515.924 147.957 L 504.601 146.753 C 503.137 146.596 501.608 145.316 501.198 143.907 L 493.04 115.898 L 497.316 115.898 L 498.117 115.898 L 498.117 115.094 L 498.117 85.85 L 509.151 85.85 L 516.117 111.676 C 516.499 113.091 517.387 113.2 518.095 111.914 L 554.828 44.829 L 569.801 44.829 L 570.376 44.829 L 570.563 44.28 L 577.314 24.026 L 588.487 24.998 C 589.95 25.125 591.04 26.426 590.911 27.889 L 587.812 62.605 Z" style="fill: rgb(20, 20, 20);"/>
    <path id="path50" d="M 446.484 8.562 L 446.484 8.562 L 426.937 12.501 C 425.049 12.88 423.368 14.669 423.106 16.575 C 423.106 16.575 412.199 95.8 412.063 96.79 C 411.573 95.92 372.201 25.866 372.201 25.866 C 371.253 24.179 369.024 23.164 367.13 23.556 L 344.617 28.209 C 343.587 28.419 342.786 29.031 342.41 29.88 C 342.033 30.729 342.123 31.735 342.66 32.635 L 407.998 142.723 C 408.983 144.374 411.223 145.388 413.102 145.033 L 424.507 142.874 C 426.386 142.519 428.108 140.763 428.43 138.875 L 449.923 11.89 C 450.1 10.848 449.82 9.881 449.158 9.24 C 448.495 8.601 447.52 8.354 446.484 8.562 Z" style="fill: rgb(255, 255, 255);"/>
    <path id="path52" d="M 455.632 2.56 C 453.488 0.48 450.453 -0.412 447.517 0.178 L 422.736 5.174 C 418.951 5.936 416.057 9.011 415.53 12.835 C 415.53 12.835 410.871 46.699 407.375 72.094 C 394.766 49.659 377.878 19.614 377.878 19.614 C 375.945 16.169 371.997 14.371 368.124 15.172 L 340.38 20.906 C 337.501 21.499 335.095 23.445 333.908 26.131 C 332.725 28.817 332.912 31.91 334.408 34.433 L 402.478 149.108 C 404.423 152.393 408.218 154.103 411.973 153.396 L 428.617 150.252 C 432.351 149.547 435.254 146.59 435.884 142.844 L 458.267 10.595 C 458.764 7.65 457.78 4.641 455.632 2.56 Z M 424.166 16.72 C 424.365 15.266 425.708 13.838 427.145 13.546 L 434.568 12.052 L 434.568 17.723 L 432.707 19.367 L 432.436 19.608 L 432.436 19.969 L 432.436 24.101 L 430.523 26.143 L 430.307 26.375 L 430.307 26.691 L 430.307 39.233 L 427.816 41.32 L 420.775 41.32 L 424.166 16.72 Z M 361.454 49.319 L 362.258 49.319 L 362.258 48.514 L 362.258 38.652 L 369.413 38.652 L 369.822 38.652 L 370.063 38.324 L 371.476 36.391 L 376.893 36.391 L 401.105 79.472 L 381.44 95.875 L 353.802 49.319 L 361.454 49.319 L 361.454 49.319 Z M 344.837 29.26 L 367.347 24.607 C 368.78 24.309 370.548 25.113 371.271 26.393 L 375.99 34.791 L 371.072 34.791 L 370.663 34.791 L 370.419 35.12 L 369.003 37.053 L 361.451 37.053 L 360.647 37.053 L 360.647 37.854 L 360.647 47.716 L 352.85 47.716 L 343.578 32.096 C 342.831 30.831 343.394 29.555 344.837 29.26 Z M 427.379 138.697 C 427.136 140.146 425.753 141.555 424.311 141.826 L 412.91 143.982 C 411.47 144.253 409.669 143.443 408.919 142.181 L 400.861 128.597 L 417.023 122.631 L 417.544 122.438 L 417.544 121.878 L 417.544 114.633 L 421.558 111.561 L 427.232 111.606 L 427.515 111.609 L 427.735 111.435 L 432.643 107.58 L 427.379 138.697 Z M 429.773 70.609 L 431.881 68.546 L 432.122 68.311 L 432.122 67.974 L 432.122 64.183 L 439.988 64.183 L 436.236 86.359 L 429.728 86.359 L 429.773 70.609 Z M 448.869 11.715 L 440.259 62.581 L 431.321 62.581 L 430.517 62.581 L 430.517 63.382 L 430.517 67.64 L 428.409 69.7 L 428.171 69.935 L 428.168 70.272 L 428.117 87.16 L 428.114 87.964 L 428.918 87.964 L 435.959 87.964 L 433.035 105.231 L 426.964 110.001 L 421.293 109.953 L 421.019 109.953 L 420.802 110.119 L 416.255 113.603 L 415.939 113.841 L 415.939 114.238 L 415.939 121.321 L 400.024 127.197 L 382.263 97.275 L 401.897 80.893 L 411.38 97.757 C 412.1 99.037 412.852 98.895 413.051 97.441 L 420.556 42.925 L 428.111 42.925 L 428.4 42.925 L 428.626 42.736 L 431.626 40.221 L 431.912 39.983 L 431.912 39.607 L 431.912 27.01 L 433.827 24.968 L 434.044 24.736 L 434.044 24.42 L 434.044 20.331 L 435.902 18.683 L 436.17 18.446 L 436.17 18.084 L 436.17 11.73 L 446.695 9.61 C 448.134 9.318 449.113 10.267 448.869 11.715 Z" style="fill: rgb(20, 20, 20);"/>
    <path id="path2689" d="M 374.105 70.242 C 390.167 76.656 394.392 97.694 391.809 121.538 C 390.688 131.876 390.463 144.852 380.353 146.277 C 376.914 146.759 373.027 145.933 369.416 145.494 C 366.173 145.099 362.463 143.804 359.258 144.193 C 357.313 144.431 355.831 146.015 354.049 146.536 C 350.095 147.698 345.174 147.057 339.729 147.057 C 336.399 147.057 333.02 147.111 330.096 146.536 C 328.331 146.189 326.527 144.852 324.627 144.714 C 322.89 144.584 321.131 145.542 319.159 145.753 C 313.855 146.319 306.745 146.491 301.189 146.015 C 299.199 145.837 297.001 144.684 295.203 144.714 C 293.426 144.741 291.435 146.057 289.472 146.277 C 282.513 147.048 275.195 143.591 269.166 144.196 C 266.353 144.476 263.511 146.969 259.792 147.319 C 254.422 147.825 245.602 147.511 240.263 146.539 C 238.26 146.174 236.203 144.846 234.273 144.714 C 232.523 144.596 230.527 145.575 228.545 145.756 C 223.483 146.229 217.159 146.271 211.88 146.018 C 210.359 145.94 208.836 145.41 207.45 145.497 C 205.053 145.65 202.686 147.31 200.422 147.581 C 194.378 148.309 187.647 148.415 181.935 147.84 C 179.905 147.635 177.845 146.56 175.686 146.539 C 172.759 146.506 170.049 147.891 167.612 148.105 C 153.54 149.33 142.946 142.57 135.845 134.824 C 132.704 136.333 130.693 139.122 127.772 141.073 C 114.72 149.812 92.448 147.295 80.902 138.206 C 79.264 136.917 76.927 132.969 74.915 133 C 73.199 133.03 70.211 137.023 68.664 138.206 C 62.517 142.919 54.239 146.367 43.928 147.06 C 28.413 148.102 16.015 142.302 7.993 134.824 C 3.882 130.985 -2.047 124.679 0.702 116.858 C 2.121 112.829 6.264 108.716 9.297 105.141 C 10.414 103.822 12.088 102.536 12.158 101.235 C 12.29 98.892 8.46 95.402 7.472 93.683 C 2.997 85.877 1.563 72.991 5.909 63.216 C 11.092 51.565 24.778 43.133 43.407 44.467 C 50.508 44.979 57.798 47.162 63.978 50.716 C 72.804 55.79 81.959 60.482 79.08 73.892 C 82.802 73.094 84.937 70.447 88.193 68.944 C 99.506 63.722 117.617 64.089 128.031 70.769 C 129.337 71.606 131.34 73.615 132.46 73.63 C 134.532 73.657 137.074 69.483 138.968 68.682 C 143.211 66.893 156.85 66.797 162.927 67.381 C 165.345 67.619 167.823 69.308 169.693 69.206 C 171.735 69.091 174.364 66.565 175.945 66.08 C 180.796 64.595 195.745 63.987 201.202 65.559 C 202.996 66.074 204.912 68.185 206.932 68.426 C 208.851 68.652 211.35 67.736 213.44 67.643 C 217.319 67.465 221.673 67.2 225.416 67.384 C 228.118 67.516 230.671 69.055 233.228 69.206 C 235.601 69.347 238.441 68.143 241.04 68.167 C 243.12 68.182 245.515 68.679 247.547 69.206 C 249.484 69.709 251.42 71.04 253.016 71.031 C 255.395 71.013 257.94 69.227 260.048 68.685 C 267.338 66.815 275.448 67.227 282.961 69.989 C 284.642 70.606 287.692 73.383 289.469 73.374 C 291.58 73.362 294.067 69.694 295.98 68.947 C 301.31 66.869 309.176 67.14 315.506 67.381 C 318.36 67.492 320.92 69.07 323.579 69.206 C 325.94 69.326 328.467 68.203 330.87 68.164 C 333.146 68.128 335.342 68.679 337.381 69.206 C 339.431 69.736 341.599 71.007 343.111 71.031 C 345.126 71.055 347.11 69.444 348.839 68.944 C 356.711 66.676 366.061 67.029 374.105 70.242 Z" style="fill: rgb(20, 20, 20);"/>
    <path id="SVGID_1_" d="M 68.965 100.609 C 70.606 103.852 71.431 107.713 71.431 112.194 C 71.431 116.515 70.528 120.255 68.724 123.417 C 66.92 126.576 64.574 129.175 61.686 131.217 C 58.801 133.258 55.531 134.776 51.884 135.779 C 48.234 136.779 44.563 137.279 40.877 137.279 C 33.499 137.279 27.305 135.918 22.291 133.198 C 17.28 130.482 12.769 126.359 8.761 120.836 L 17.307 110.05 C 18.096 109.053 19.442 109.014 20.288 109.959 C 20.288 109.959 21.27 111.055 22.953 112.374 C 24.64 113.699 26.462 114.856 28.428 115.856 C 30.389 116.858 32.397 117.677 34.442 118.319 C 36.487 118.957 38.39 119.28 40.155 119.28 C 41.916 119.28 43.265 118.957 44.184 118.319 C 45.105 117.677 45.569 116.479 45.569 114.717 C 45.569 113.196 44.744 111.757 43.103 110.396 C 41.459 109.038 39.414 107.616 36.969 106.135 C 34.52 104.659 31.873 103.057 29.027 101.335 C 26.182 99.615 23.538 97.594 21.092 95.273 C 18.644 92.954 16.599 90.292 14.955 87.292 C 13.311 84.29 12.489 80.83 12.489 76.909 C 12.489 73.066 13.212 69.706 14.654 66.827 C 16.097 63.945 18.042 61.527 20.49 59.563 C 22.932 57.606 25.76 56.124 28.97 55.122 C 32.174 54.125 35.583 53.622 39.194 53.622 C 45.608 53.622 51.36 54.805 56.455 57.163 C 61.548 59.524 66.378 63.026 70.952 67.664 L 64.029 78.324 C 63.339 79.393 61.981 79.586 61.018 78.749 C 61.018 78.749 59.28 77.246 57.356 76.003 C 55.435 74.765 53.546 73.705 51.703 72.826 C 49.857 71.943 48.132 71.284 46.53 70.844 C 44.925 70.404 43.524 70.182 42.32 70.182 C 40.877 70.182 39.814 70.543 39.134 71.263 C 38.447 71.985 38.11 72.904 38.11 74.024 C 38.11 75.464 38.929 76.804 40.576 78.044 C 42.217 79.285 44.283 80.565 46.771 81.887 C 49.255 83.209 51.923 84.688 54.772 86.326 C 57.615 87.967 60.283 89.948 62.77 92.267 C 65.255 94.592 67.318 97.372 68.965 100.609 Z M 100.497 95.965 C 101.413 94.968 102.452 94.213 103.611 93.695 C 104.767 93.18 105.906 92.918 107.029 92.918 C 110.384 92.918 112.877 93.755 114.518 95.429 C 116.154 97.104 116.897 98.814 116.897 98.814 C 117.4 99.976 118.819 100.678 120.05 100.374 L 134.589 96.745 C 133.072 90.129 129.994 84.787 125.362 80.721 C 120.728 76.656 114.494 74.623 106.668 74.623 C 101.873 74.623 97.6 75.361 93.842 76.837 C 90.087 78.312 86.934 80.423 84.377 83.176 C 81.82 85.925 79.884 89.235 78.565 93.098 C 77.246 96.968 76.587 101.289 76.587 106.071 C 76.587 110.218 77.186 114.166 78.384 117.912 C 79.583 121.662 81.441 124.947 83.959 127.778 C 86.473 130.608 89.647 132.861 93.484 134.535 C 97.32 136.207 101.913 137.044 107.264 137.044 C 110.299 137.044 113.257 136.58 116.132 135.668 C 119.008 134.752 121.646 133.355 124.043 131.482 C 126.44 129.609 128.536 127.239 130.334 124.366 C 132.132 121.496 133.677 116.41 133.677 116.41 C 134.047 115.196 133.349 113.919 132.132 113.567 L 118.051 109.538 C 117.81 110.814 117.292 111.968 116.494 113.004 C 115.693 114.04 114.795 114.937 113.796 115.693 C 112.796 116.455 111.778 117.054 110.739 117.491 C 109.7 117.93 108.742 118.147 107.863 118.147 C 104.749 118.147 102.211 116.952 100.256 114.561 C 98.296 112.167 97.32 109.023 97.32 105.111 C 97.32 103.042 97.618 101.247 98.218 99.729 C 98.817 98.221 99.576 96.965 100.497 95.965 Z M 200.377 106.099 C 200.175 101.139 199.976 96.086 199.774 90.927 C 199.576 85.772 199.304 76.632 199.304 76.632 C 199.265 75.361 198.193 74.343 196.922 74.37 L 177.24 74.798 C 177.481 78.638 177.701 81.956 177.902 84.754 C 178.101 87.554 178.264 90.231 178.381 92.788 C 178.502 95.345 178.583 97.986 178.625 100.702 C 178.661 103.421 178.685 106.62 178.685 110.297 C 178.685 113.097 177.764 115.314 175.921 116.952 C 174.078 118.593 171.877 119.409 169.311 119.409 C 166.589 119.409 164.544 118.59 163.18 116.952 C 161.815 115.314 161.138 113.335 161.138 111.016 C 161.138 106.867 161.328 102.976 161.737 98.907 C 162.138 94.911 162.538 91.234 162.942 87.871 C 163.424 84.034 164.243 79.122 164.243 79.122 C 164.45 77.867 163.583 76.849 162.309 76.864 L 141.787 77.078 C 141.223 81.077 140.745 85.073 140.344 89.072 C 139.944 92.511 139.603 96.149 139.323 99.985 C 139.04 103.822 138.905 107.261 138.905 110.297 C 138.905 114.615 139.426 118.506 140.468 121.966 C 141.507 125.429 143.112 128.371 145.274 130.792 C 147.436 133.213 150.222 135.08 153.627 136.39 C 157.033 137.697 161.099 138.357 165.827 138.357 C 167.188 138.357 168.588 138.176 170.034 137.815 C 171.473 137.456 172.855 136.956 174.18 136.315 C 175.499 135.674 176.719 134.939 177.845 134.099 C 178.348 133.722 179.233 132.527 179.959 132.777 C 180.899 133.108 180.369 135.219 180.369 135.921 C 180.369 137.191 181.408 138.209 182.682 138.182 L 201.521 137.761 C 201.361 131.882 201.181 126.377 200.979 121.24 C 200.774 116.103 200.572 111.055 200.377 106.099 Z M 287.68 85.922 C 285.843 83.094 283.326 80.881 280.134 79.285 C 276.936 77.692 272.783 76.894 267.669 76.894 C 263.833 76.894 260.538 77.731 257.78 79.405 C 257.048 79.851 256.328 80.327 255.639 80.839 C 255.019 81.3 254.416 81.791 253.856 82.321 C 253.438 82.715 253.076 83.317 252.468 83.426 C 252.314 83.45 252.152 83.492 251.989 83.474 C 251.435 83.423 251.281 83.052 250.995 82.637 C 250.197 81.48 249.164 80.505 248.014 79.704 C 246.014 78.312 243.5 77.611 240.464 77.611 C 238.947 77.611 237.507 77.852 236.149 78.33 C 234.788 78.806 233.574 79.427 232.496 80.182 C 231.584 80.821 230.798 81.595 229.927 82.281 C 229.5 82.619 229.331 83.082 228.729 83.046 C 228.112 83.004 228.199 82.215 228.157 81.794 C 228.103 81.291 228.048 80.791 228 80.288 C 227.961 79.92 227.922 79.553 227.883 79.189 C 227.753 77.927 226.609 76.918 225.338 76.948 L 208.11 77.373 C 208.351 82.236 208.531 86.898 208.652 91.364 C 208.772 95.827 208.851 100.35 208.89 104.933 C 208.929 109.517 208.929 114.359 208.89 119.46 C 208.851 124.562 208.836 134.014 208.836 134.014 C 208.833 135.282 209.869 136.303 211.136 136.285 L 227.856 135.999 C 229.123 135.978 230.183 134.921 230.208 133.656 L 230.882 100.808 C 230.882 99.69 231.162 98.555 231.719 97.399 C 232.276 96.242 233.595 95.664 235.673 95.664 C 236.634 95.664 237.393 96.019 237.953 96.742 C 238.507 97.459 238.968 98.417 239.329 99.612 C 239.69 100.805 239.928 102.181 240.049 103.735 C 240.166 105.289 240.227 106.903 240.227 108.577 C 240.227 112.721 240.227 116.109 240.227 118.74 C 240.227 121.369 240.205 123.661 240.166 125.613 C 240.127 127.573 240.067 129.404 239.989 131.114 C 239.907 132.831 239.835 134.731 239.835 134.731 C 239.79 135.996 240.784 137.056 242.054 137.089 L 261.68 137.514 C 261.517 136.318 261.379 134.845 261.261 133.09 C 261.141 131.337 261.059 129.542 261.02 127.708 C 260.981 125.878 260.942 124.122 260.9 122.448 C 260.858 120.773 260.84 119.418 260.84 118.379 C 260.84 110.73 261.159 105.033 261.8 101.283 C 262.439 97.537 264.116 95.661 266.832 95.661 C 268.51 95.661 269.808 96.36 270.729 97.757 C 271.645 99.151 272.108 101.482 272.108 104.749 C 272.108 107.86 271.726 111.826 270.967 116.648 C 270.208 121.472 267.823 131.918 267.823 131.918 C 267.543 133.153 268.341 134.291 269.603 134.454 L 289.364 136.917 C 290.24 131.976 290.981 127.194 291.58 122.568 C 292.179 117.948 292.48 113.44 292.48 109.053 C 292.48 104.352 292.14 100.028 291.463 96.08 C 290.779 92.141 289.517 88.75 287.68 85.922 Z M 381.934 96.086 C 381.254 92.141 379.998 88.75 378.164 85.922 C 376.327 83.094 373.806 80.881 370.611 79.285 C 367.413 77.692 363.264 76.894 358.15 76.894 C 354.317 76.894 351.022 77.731 348.261 79.405 C 347.556 79.836 346.869 80.288 346.201 80.776 C 345.575 81.236 344.972 81.724 344.406 82.254 C 343.939 82.691 343.334 83.742 342.59 83.528 C 342.063 83.372 341.599 82.784 341.289 82.357 C 340.53 81.318 339.552 80.438 338.498 79.707 C 336.498 78.312 333.981 77.611 330.948 77.611 C 329.424 77.611 327.991 77.852 326.633 78.33 C 325.275 78.809 324.055 79.427 322.98 80.182 C 321.899 80.941 321.02 81.739 320.342 82.573 C 320.234 82.709 320.125 82.842 320.008 82.965 C 319.836 83.143 319.568 83.384 319.297 83.317 C 318.993 83.248 318.812 82.79 318.746 82.522 C 318.622 82.053 318.61 81.553 318.562 81.068 C 318.499 80.441 318.436 79.812 318.366 79.189 C 318.234 77.927 317.09 76.918 315.825 76.948 L 298.597 77.373 C 298.835 82.236 299.018 86.898 299.136 91.364 C 299.256 95.827 299.334 100.35 299.377 104.933 C 299.416 109.517 299.416 114.362 299.377 119.463 C 299.337 124.565 299.319 134.014 299.319 134.014 C 299.316 135.282 300.352 136.306 301.626 136.285 L 318.345 136.002 C 319.613 135.978 320.67 134.927 320.697 133.656 L 321.369 100.811 C 321.369 99.693 321.652 98.558 322.209 97.402 C 322.766 96.245 324.085 95.667 326.163 95.667 C 327.121 95.667 327.88 96.022 328.44 96.742 C 328.994 97.462 329.458 98.417 329.819 99.612 C 330.177 100.808 330.412 102.184 330.536 103.738 C 330.656 105.292 330.716 106.906 330.716 108.58 C 330.716 112.727 330.716 116.112 330.716 118.743 C 330.716 121.369 330.695 123.664 330.656 125.616 C 330.617 127.573 330.554 129.404 330.475 131.117 C 330.397 132.834 330.322 134.731 330.322 134.731 C 330.274 135.999 331.27 137.059 332.544 137.089 C 332.556 137.089 332.568 137.089 332.58 137.089 C 333.216 137.104 333.845 137.116 334.484 137.131 C 335.851 137.158 337.221 137.191 338.591 137.221 C 340.265 137.255 341.94 137.291 343.617 137.33 C 345.198 137.363 346.779 137.396 348.357 137.435 C 349.327 137.456 350.462 137.667 351.417 137.447 C 352.221 137.261 352.043 136.625 352.019 135.981 C 351.995 135.008 351.817 134.063 351.745 133.093 C 351.63 131.34 351.546 129.545 351.504 127.711 C 351.465 125.881 351.426 124.125 351.384 122.451 C 351.344 120.776 351.323 119.424 351.323 118.385 C 351.323 110.733 351.643 105.036 352.281 101.286 C 352.922 97.54 354.597 95.664 357.316 95.664 C 358.993 95.664 360.291 96.366 361.213 97.757 C 362.128 99.151 362.592 101.485 362.592 104.753 C 362.592 107.86 362.216 111.829 361.451 116.651 C 360.692 121.478 358.31 131.918 358.31 131.918 C 358.027 133.156 358.825 134.297 360.087 134.454 C 360.629 134.52 361.165 134.59 361.698 134.656 C 364.402 134.996 367.1 135.33 369.801 135.668 C 371.515 135.881 373.231 136.062 374.948 136.264 C 375.987 136.381 377.017 136.613 378.056 136.731 C 378.697 136.8 379.513 137.128 380.031 136.556 C 380.525 136.005 380.495 135.002 380.609 134.325 C 380.784 133.301 380.889 132.271 380.974 131.238 C 381.1 129.657 381.305 128.106 381.525 126.534 C 381.717 125.215 381.889 123.893 382.061 122.571 C 382.66 117.948 382.961 113.443 382.961 109.059 C 382.955 104.355 382.615 100.031 381.934 96.086 Z" style="fill: rgb(255, 255, 255);"/>
  </g>
</svg>