<?xml version="1.0" encoding="utf-8"?>
<svg version="1.1" id="Ebene_1" x="0px" y="0px" enable-background="new 0 0 566.929 194.629" xmlns="http://www.w3.org/2000/svg">
  <g>
    <path d="M 242.055 20.455 C 242.055 25.587 242.083 30.717 242.046 35.847 C 242.022 38.783 241.572 39.206 238.69 39.3 C 237.781 39.33 236.856 39.228 235.956 39.321 C 233.334 39.596 231.415 38.496 229.666 36.608 C 222.24 28.59 214.736 20.645 207.262 12.672 C 206.951 12.34 206.664 11.975 206.307 11.7 C 205.721 11.25 205.226 11.355 205.141 12.153 C 205.06 12.941 205.093 13.745 205.093 14.543 C 205.09 21.497 205.105 28.454 205.087 35.409 C 205.075 38.947 204.73 39.258 201.138 39.306 C 195.682 39.379 195.682 39.379 195.682 33.832 C 195.682 24.482 195.682 15.132 195.682 5.781 C 195.682 4.984 195.676 4.186 195.7 3.389 C 195.74 2.202 196.305 1.389 197.546 1.365 C 200.165 1.316 202.803 1.189 205.401 1.437 C 206.38 1.531 207.41 2.431 208.171 3.205 C 211.926 7.017 215.63 10.881 219.292 14.787 C 223.186 18.935 226.998 23.162 230.883 27.322 C 231.306 27.775 231.953 28.022 232.497 28.364 C 232.596 27.717 232.787 27.071 232.79 26.421 C 232.811 19.696 232.802 12.969 232.802 6.241 C 232.802 5.443 232.75 4.64 232.826 3.848 C 232.998 2.008 233.542 1.365 235.37 1.334 C 243.227 1.196 241.998 0.939 242.049 7.455 C 242.086 11.79 242.058 16.123 242.055 20.455 Z" id="path7" style="fill-opacity: 1; fill: rgb(255, 255, 255);"/>
    <path d="M 36.107 17.745 C 38.727 17.745 41.346 17.745 43.968 17.745 C 45.506 17.745 46.27 18.506 46.27 20.05 C 46.264 24.609 46.27 29.164 46.27 33.723 C 46.267 35.487 45.373 36.216 43.642 36.732 C 41.908 37.252 36.557 38.348 30.561 38.874 C 24.564 39.397 19.939 38.663 14.821 37.197 C 12.462 36.521 10.208 35.297 8.081 34.025 C -2.456 27.714 -2.952 13.095 8.151 5.691 C 12.492 2.797 17.298 1.383 22.44 0.537 C 28.156 -0.403 33.757 0.211 39.397 0.767 C 40.406 0.863 41.418 1.117 42.382 1.434 C 44.24 2.047 44.675 2.709 44.751 4.691 C 44.856 7.491 44.062 8.077 41.288 7.316 C 34.941 5.573 28.509 5.256 22.075 6.636 C 18.824 7.337 15.866 8.83 13.443 11.228 C 7.927 16.684 8.812 25.971 15.326 30.179 C 18.038 31.932 21.005 32.762 24.319 32.956 C 27.63 33.146 28.18 33.146 31.497 32.92 C 32.615 32.844 33.727 32.566 34.845 32.424 C 36.397 32.225 36.905 31.327 36.884 29.829 C 36.769 22.346 37.742 23.702 30.848 23.563 C 29.935 23.545 29.017 23.63 28.114 23.527 C 25.812 23.273 24.655 21.074 25.667 18.996 C 26.204 17.896 27.168 17.727 28.247 17.733 C 30.866 17.745 33.485 17.736 36.107 17.736 C 36.107 17.739 36.107 17.742 36.107 17.745 Z" id="path9" style="fill-opacity: 1; fill: rgb(255, 255, 255);"/>
    <path d="M 105.48 19.866 C 105.48 15.077 105.468 10.283 105.48 5.491 C 105.495 1.558 105.715 1.316 109.48 1.307 C 117.008 1.289 124.536 1.277 132.065 1.313 C 134.847 1.328 135.213 1.709 135.267 4.102 C 135.328 6.742 134.881 7.247 132.107 7.274 C 127.545 7.319 122.981 7.268 118.419 7.292 C 115.325 7.31 115.316 7.337 115.265 10.283 C 115.241 11.651 115.232 13.02 115.268 14.388 C 115.34 16.914 115.413 17.011 118.074 17.035 C 122.295 17.071 126.515 17.011 130.736 17.059 C 133.572 17.089 134.868 19.295 133.675 21.911 C 133.131 23.098 132.056 23.017 131.041 23.023 C 127.503 23.041 123.966 23.032 120.431 23.032 C 119.633 23.032 118.833 23.014 118.035 23.035 C 115.395 23.107 115.331 23.159 115.268 25.726 C 115.229 27.322 115.229 28.923 115.268 30.518 C 115.325 32.877 115.346 32.92 117.845 32.935 C 122.407 32.968 126.968 32.944 131.533 32.944 C 132.216 32.944 132.902 32.917 133.585 32.953 C 136.038 33.086 136.606 33.672 136.633 36.034 C 136.663 38.602 136.095 39.273 133.424 39.288 C 125.325 39.333 117.226 39.333 109.126 39.288 C 106.22 39.273 105.519 38.548 105.492 35.605 C 105.443 30.364 105.48 25.113 105.48 19.866 Z" id="path11" style="fill-opacity: 1; fill: rgb(255, 255, 255);"/>
    <path d="M 304.679 19.902 C 304.679 14.884 304.651 9.863 304.691 4.842 C 304.715 1.757 305.162 1.322 308.304 1.31 C 315.947 1.283 323.587 1.277 331.231 1.313 C 334.146 1.328 335.403 3.38 334.276 6.096 C 333.774 7.307 332.714 7.277 331.687 7.277 C 327.581 7.292 323.473 7.28 319.367 7.289 C 313.899 7.298 314.479 6.824 314.467 12.301 C 314.452 17.515 314.041 17.032 319.291 17.044 C 322.941 17.05 326.593 17.035 330.24 17.053 C 331.255 17.059 332.575 16.929 332.808 18.183 C 333.049 19.47 333.01 20.917 332.635 22.156 C 332.49 22.639 331.101 22.968 330.27 22.989 C 326.85 23.083 323.427 23.032 320.004 23.032 C 319.322 23.032 318.633 23.026 317.953 23.032 C 314.497 23.059 314.491 23.059 314.458 26.373 C 314.446 27.856 314.415 29.343 314.47 30.823 C 314.542 32.835 314.582 32.911 316.663 32.929 C 321.454 32.974 326.246 32.944 331.034 32.947 C 331.832 32.947 332.638 32.889 333.427 32.98 C 335.366 33.21 335.889 33.977 335.826 36.342 C 335.768 38.43 335.246 39.134 333.333 39.264 C 331.629 39.385 329.91 39.306 328.201 39.306 C 321.696 39.306 315.195 39.327 308.697 39.297 C 305.337 39.279 304.7 38.641 304.679 35.3 C 304.651 30.167 304.679 25.035 304.679 19.902 Z" id="path13" style="fill-opacity: 1; fill: rgb(255, 255, 255);"/>
    <path d="M 432.357 4.537 C 432.315 6.939 431.72 7.561 429.484 6.869 C 425.131 5.525 420.711 5.63 416.285 5.963 C 414.741 6.078 413.131 6.531 411.742 7.216 C 408.853 8.642 408.748 11.76 411.527 13.373 C 413.285 14.391 415.24 15.08 417.131 15.857 C 420.913 17.41 424.738 18.851 428.481 20.494 C 429.81 21.077 431.103 21.941 432.131 22.959 C 436.034 26.829 435.457 31.578 431.457 34.738 C 428.297 37.234 424.512 38.064 420.672 38.59 C 415.255 39.33 409.838 39.022 404.464 38.058 C 403.684 37.916 402.911 37.714 402.156 37.472 C 399.923 36.756 398.893 34.551 399.857 32.394 C 400.041 31.983 400.688 31.521 401.117 31.524 C 401.999 31.527 402.89 31.796 403.763 32.007 C 408.872 33.261 413.998 34.152 419.255 32.947 C 419.475 32.895 419.717 32.923 419.935 32.862 C 422.052 32.273 424.457 31.675 424.793 29.186 C 425.107 26.859 423.161 25.575 421.225 24.726 C 419.155 23.817 417.044 22.983 414.896 22.276 C 410.998 20.995 407.065 19.736 403.748 17.277 C 402.255 16.168 400.896 14.582 400.08 12.917 C 398.73 10.159 399.938 6.715 402.5 4.691 C 405.056 2.676 407.999 1.431 411.162 0.866 C 417.246 -0.215 423.361 -0.324 429.466 0.77 C 431.85 1.196 432.406 1.902 432.357 4.537 Z" id="path15" style="fill-opacity: 1; fill: rgb(255, 255, 255);"/>
    <path d="M 597.581 4.537 C 597.539 6.939 596.944 7.561 594.705 6.869 C 590.355 5.525 585.935 5.63 581.506 5.963 C 579.963 6.078 578.355 6.531 576.966 7.216 C 574.078 8.642 573.969 11.76 576.751 13.373 C 578.51 14.391 580.461 15.08 582.355 15.857 C 586.135 17.41 589.962 18.851 593.702 20.494 C 595.035 21.077 596.328 21.941 597.355 22.959 C 601.258 26.829 600.681 31.578 596.681 34.738 C 593.521 37.234 589.736 38.064 585.896 38.59 C 580.479 39.33 575.063 39.022 569.688 38.058 C 568.909 37.916 568.135 37.714 567.383 37.472 C 565.147 36.756 564.12 34.551 565.081 32.394 C 565.262 31.983 565.912 31.521 566.341 31.524 C 567.223 31.527 568.117 31.796 568.987 32.007 C 574.096 33.261 579.226 34.152 584.479 32.947 C 584.703 32.895 584.941 32.923 585.159 32.862 C 587.277 32.273 589.681 31.675 590.017 29.186 C 590.334 26.859 588.382 25.575 586.449 24.726 C 584.379 23.817 582.268 22.983 580.12 22.276 C 576.22 20.995 572.289 19.736 568.972 17.277 C 567.48 16.168 566.12 14.582 565.305 12.917 C 563.957 10.159 565.163 6.715 567.724 4.691 C 570.28 2.676 573.226 1.431 576.386 0.866 C 582.47 -0.215 588.585 -0.324 594.693 0.77 C 597.074 1.196 597.63 1.902 597.581 4.537 Z" id="path17" style="fill-opacity: 1; fill: rgb(255, 255, 255);"/>
    <path d="M 504.449 1.319 C 506.841 1.319 509.237 1.241 511.624 1.347 C 513.333 1.419 513.744 1.99 513.814 3.736 C 513.892 5.688 513.463 6.268 511.723 6.579 C 508.914 7.084 508.886 7.084 508.88 9.899 C 508.865 16.851 508.865 23.802 508.883 30.75 C 508.886 33.21 508.917 33.21 511.34 33.645 C 513.336 34.004 513.865 34.633 513.814 36.596 C 513.762 38.487 513.134 39.237 511.08 39.273 C 506.524 39.351 501.962 39.351 497.406 39.264 C 495.542 39.228 494.944 38.496 494.836 36.771 C 494.712 34.796 495.231 34.089 497.129 33.651 C 499.57 33.092 499.606 33.092 499.615 30.669 C 499.636 23.606 499.636 16.542 499.615 9.476 C 499.603 7.056 499.56 7.056 497.023 6.582 C 495.171 6.238 494.784 5.76 494.833 3.83 C 494.878 1.936 495.313 1.404 497.271 1.331 C 499.663 1.244 502.062 1.31 504.449 1.31 C 504.449 1.316 504.449 1.316 504.449 1.319 Z" id="path19" style="fill-opacity: 1; fill: rgb(255, 255, 255);"/>
    <path d="M 369.773 220.182 C 367.042 217.303 359.698 217.043 358.556 217.043 C 307.117 217.043 255.68 217.04 204.238 217.043 C 199.008 217.043 198.069 217.687 198.709 211.059 C 199.758 200.213 203.742 190.135 211.618 182.353 C 213.126 180.818 213.63 180.298 217.077 177.175 C 231.681 163.939 260.78 153.33 260.78 153.33 C 260.78 153.33 285.126 144.339 298.8 138.958 C 304.941 136.542 310.938 133.753 316.409 129.968 C 336.24 114.334 325.944 98.818 299.794 95.202 C 281.48 92.582 264.795 97.053 249.369 106.89 C 247.357 108.177 245.656 109.458 243.711 110.854 C 240.264 113.769 237.303 117.171 236.663 120.929 C 236.318 122.956 236.648 124.355 236.69 124.687 C 236.82 125.738 237.14 127.406 236.361 128.17 C 235.421 129.089 233.469 128.167 232.602 127.345 C 224.654 119.835 216.694 112.34 208.736 104.839 C 208.238 104.367 207.319 103.364 207.319 103.364 C 207.319 103.364 206.449 102.355 206.419 101.664 C 206.386 100.887 207.15 100.156 208.062 99.872 C 212.398 99.071 214.398 98.818 216.999 96.914 C 224.002 91.797 231.318 87.22 239.134 83.41 C 249.581 78.314 260.568 75.287 272.072 73.737 C 280.921 72.544 306.908 68.495 337.264 81.993 C 345.269 85.504 352.136 90.477 357.311 97.491 C 360.375 101.642 371.918 124.403 348.393 142.584 C 339.983 149.333 329.944 153.502 319.799 157.045 C 311.116 160.076 304.745 162.353 290.537 166.459 C 279.749 169.667 272.006 172.178 259.662 178.036 C 249.844 182.691 243.397 188.353 243.397 188.353 C 243.397 188.353 240.182 190.833 240.805 192.772 C 241.342 194.458 244.028 194.289 245.605 194.292 C 283.586 194.316 321.569 194.307 359.55 194.31 C 363.48 194.31 367.29 194.035 370.29 190.948 C 370.728 190.497 371.882 190.256 372.405 190.516 C 372.906 190.766 373.253 191.8 373.259 192.488 C 373.317 201.385 373.32 210.479 373.269 219.373 C 373.262 220.237 372.979 220.545 372.55 220.796 C 371.9 221.173 370.522 220.974 369.773 220.182 Z" id="path21" style="fill-opacity: 1; fill: rgb(255, 255, 255);"/>
    <path d="M 86.807 219.065 C 80.577 218.684 74.33 217.883 68.173 216.796 C 43.125 212.379 31.473 206.464 24.482 203.718 C 21.141 202.406 17.875 201.165 14.244 202.497 C 13.83 202.651 13.344 202.642 12.891 202.651 C 10.583 202.675 9.876 201.778 10.879 199.718 C 12.072 197.265 13.474 194.905 14.884 192.561 C 18.709 186.217 22.585 179.903 26.443 173.577 C 26.621 173.287 26.824 173.009 26.999 172.713 C 27.784 171.395 28.648 170.178 30.452 170.429 C 32.147 170.667 32.512 172.066 32.866 173.389 C 33.642 176.274 35.403 178.422 37.718 180.211 C 43.195 184.452 49.385 187.304 55.874 189.57 C 64.294 192.507 72.958 194.343 81.758 195.724 C 92.178 197.361 102.652 197.57 113.114 196.963 C 121.984 196.446 130.721 194.845 139.08 191.579 C 144.17 189.591 148.028 186.081 151.122 181.791 C 155.221 176.102 153.542 168.278 147.953 163.831 C 140.364 157.789 131.536 155.399 122.186 153.795 C 113.779 152.354 105.383 152.508 96.969 152.617 C 93.018 152.668 83.574 153.043 79.952 156.402 C 78.62 157.577 77.562 157.665 76.928 157.094 C 76.293 156.52 76.266 155.61 76.26 154.816 C 76.188 146.602 76.179 138.384 76.233 130.173 C 76.251 127.484 77.508 126.669 79.592 128.131 C 82.224 129.974 85.148 130.78 88.199 131.173 C 93.266 131.823 109.809 131.249 113.189 130.808 C 122.225 129.626 121.434 129.768 126.709 128.355 C 132.352 126.844 137.738 122.88 140.548 119.609 C 140.593 119.554 140.639 119.5 140.684 119.445 C 144.602 114.727 143.285 109.295 139.642 105.404 C 136.14 101.67 131.742 99.28 126.842 97.836 C 118.812 95.467 110.588 94.171 102.244 94.564 C 87.136 95.274 72.321 97.582 58.662 104.609 C 55.536 106.219 52.602 108.243 49.714 110.271 C 47.249 111.999 46.007 114.533 45.938 117.584 C 45.902 119.171 46.155 120.983 44.27 121.675 C 42.37 122.373 41.388 120.72 40.304 119.621 C 33.346 112.554 26.419 105.458 19.483 98.368 C 19.084 97.96 18.64 97.57 18.344 97.093 C 17.507 95.739 18.023 94.612 19.628 94.428 C 21.425 94.22 23.352 94.504 25.02 93.96 C 27.488 93.156 29.793 91.842 32.141 90.691 C 38.379 87.631 44.455 84.184 50.865 81.546 C 61.016 77.371 71.701 75.127 82.613 73.773 C 93.057 72.477 111.489 71.936 124.82 73.906 C 133.73 75.254 142.563 77.042 150.835 80.731 C 158.131 83.981 165.257 87.613 170.704 93.748 C 174.641 98.183 177.287 103.141 178.172 109.15 C 179.021 114.911 178.076 120.174 175.61 125.343 C 173.916 128.901 171.378 131.206 167.889 133.3 C 161.043 137.406 156.992 138.43 156.125 138.958 C 154.747 139.795 154.687 140.913 156.091 141.717 C 157.354 142.439 158.807 142.868 160.215 143.306 C 168.453 145.877 175.529 150.399 181.426 156.595 C 185.737 161.118 188.287 166.538 189.145 172.945 C 190.024 179.507 188.483 185.307 185.646 191.011 C 183.441 195.449 179.782 198.573 175.934 201.403 C 168.148 207.134 159.481 211.01 150.185 213.763 C 143.27 215.808 136.258 217.195 129.159 218.134 C 104.888 220.787 92.489 219.412 86.807 219.065 Z" id="path23" style="fill-opacity: 1; fill: rgb(255, 255, 255);"/>
    <path d="M 421.155 73.816 C 429.252 73.816 437.351 73.816 445.45 73.819 C 446.248 73.819 447.055 73.758 447.843 73.852 C 449.65 74.066 449.928 74.831 448.795 76.305 C 446.771 78.942 446.789 79.226 449.091 81.664 C 449.169 81.746 449.254 81.824 449.332 81.906 C 460.634 93.338 471.936 104.772 483.241 116.204 C 483.803 116.772 484.331 117.388 484.978 117.847 C 486.111 118.663 487.328 118.681 488.443 117.781 C 489.065 117.285 489.615 116.696 490.174 116.128 C 501.337 104.872 512.497 93.615 523.656 82.356 C 524.058 81.951 524.478 81.558 524.835 81.114 C 526.324 79.265 526.288 78.613 524.901 76.631 C 523.65 74.942 523.65 73.912 526.2 73.849 C 526.756 73.834 527.333 73.819 527.904 73.819 C 544.332 73.819 560.758 73.816 577.183 73.825 C 578.201 73.825 579.25 73.812 580.235 74.027 C 580.654 74.121 581.165 74.752 581.235 75.202 C 581.304 75.643 580.996 76.42 580.627 76.604 C 579.519 77.16 578.328 77.637 577.117 77.903 C 572.519 78.909 568.773 81.178 565.45 84.564 C 551.151 99.135 536.704 113.56 522.336 128.061 C 518.732 131.705 515.188 135.421 511.657 139.137 C 509.421 141.487 509.415 142.596 511.681 144.913 C 515.66 148.973 519.75 152.925 523.711 157 C 526.644 160.021 529.372 163.245 532.33 166.238 C 540.191 174.187 548.148 182.039 556.021 189.975 C 561.32 195.316 566.57 200.703 571.779 206.134 C 574.776 209.264 578.268 211.448 582.482 212.527 C 584.017 212.914 585.518 213.5 586.969 214.143 C 587.361 214.318 587.772 215.065 587.715 215.482 C 587.651 215.911 587.089 216.463 586.636 216.608 C 585.896 216.841 585.065 216.844 584.277 216.844 C 567.507 216.856 550.74 216.853 533.97 216.844 C 533.29 216.844 532.584 216.859 531.937 216.675 C 530.871 216.373 530.469 215.729 531.127 214.624 C 531.683 213.693 532.559 212.633 532.46 211.72 C 532.348 210.754 531.354 209.805 530.578 209.014 C 517.569 195.739 504.539 182.489 491.512 169.235 C 491.035 168.746 490.552 168.26 490.059 167.785 C 487.18 165.003 486.126 164.967 483.244 167.837 C 474.915 176.12 466.577 184.401 458.323 192.766 C 452.964 198.198 447.74 203.766 442.466 209.288 C 440.478 211.367 440.481 211.5 441.988 214.258 C 442.849 215.832 442.526 216.527 440.726 216.784 C 439.946 216.898 439.136 216.853 438.336 216.853 C 422.14 216.856 405.941 216.874 389.745 216.826 C 388.289 216.82 385.854 217.216 385.727 215.445 C 385.474 213.593 387.709 213.5 389.023 213.189 C 394.92 211.808 399.425 208.446 403.597 204.165 C 416.892 190.528 430.409 177.111 443.792 163.559 C 447.946 159.35 451.919 154.961 456.024 150.701 C 457.607 149.064 459.362 147.599 460.982 145.997 C 464.362 142.641 464.374 141.747 461.121 138.463 C 451.26 128.487 441.375 118.536 431.52 108.555 C 423.509 100.446 415.467 92.362 407.557 84.151 C 404.512 80.991 400.935 79.024 396.727 78.042 C 395.951 77.861 395.189 77.619 394.425 77.383 C 393.343 77.048 392.005 76.794 392.153 75.317 C 392.304 73.816 393.624 73.816 394.797 73.819 C 395.482 73.822 396.168 73.816 396.851 73.816 C 404.953 73.816 413.056 73.816 421.155 73.816 Z" id="path25" style="fill-opacity: 1; fill: rgb(255, 255, 255);"/>
    <polygon points="588.231 31.485 588.331 31.276 588.183 31.433" id="polygon27" style="fill-opacity: 1; fill: rgb(255, 255, 255);"/>
    <polygon points="588.183 31.433 588.014 31.584 588.231 31.485" id="polygon29" style="fill-opacity: 1; fill: rgb(255, 255, 255);"/>
  </g>
</svg>