<?xml version="1.0" encoding="utf-8"?>
<svg version="1.1" xmlns="http://www.w3.org/2000/svg">
  <g>
    <path d="M 0.033 181.398 L 79.314 181.317 C 111.75 181.317 138.036 155.112 138.036 122.82 C 138.036 90.468 111.75 64.26 79.314 64.26 L 58.722 64.371 C 57.099 64.371 55.785 63.042 55.785 61.404 C 55.785 59.766 57.099 58.434 58.722 58.434 L 137.859 58.449 L 137.892 33.624 L 58.707 33.624 C 43.395 33.624 30.942 46.059 30.942 61.341 C 30.942 76.635 43.395 89.022 58.707 89.022 L 79.392 89.295 C 97.977 89.295 113.016 104.283 113.016 122.775 C 113.016 141.279 97.98 156.3 79.392 156.3 L 0.063 156.3 L 0.033 181.398" style="fill: rgb(255, 255, 255);"/>
    <path d="M 0.063 150.471 L 79.392 150.471 C 94.752 150.471 107.172 138.084 107.172 122.772 C 107.172 107.478 94.752 95.103 79.392 95.103 L 58.707 94.881 C 40.152 94.881 25.101 79.875 25.101 61.338 C 25.101 42.852 40.152 27.843 58.707 27.843 L 137.892 27.828 L 137.859 2.904 L 58.722 2.904 C 26.319 2.904 0 29.082 0 61.404 C 0 93.726 26.319 119.916 58.722 119.916 L 79.2 119.949 C 80.757 119.949 82.074 121.218 82.074 122.82 C 82.074 124.395 80.757 125.661 79.2 125.661 L 0.033 125.727 L 0.063 150.471" style="fill: rgb(255, 255, 255);"/>
    <path d="M 199.503 156.459 C 185.748 156.459 174.48 145.497 174.48 131.502 L 174.48 52.302 C 174.48 38.838 185.748 27.762 199.503 27.762 L 284.127 27.777 L 284.127 2.904 L 199.503 2.904 C 171.963 2.904 149.655 25.131 149.655 52.575 L 149.655 131.502 C 149.655 158.949 171.963 181.209 199.503 181.209 L 283.773 181.242 L 283.758 156.429 L 199.503 156.459" style="fill: rgb(255, 255, 255);"/>
    <path d="M 180.549 52.575 C 180.549 42.081 188.991 33.573 199.503 33.573 L 284.127 33.573 L 284.127 58.482 L 211.218 58.482 C 205.377 58.482 205.296 64.275 205.296 64.275 L 266.121 64.275 L 266.121 89.07 L 180.519 89.07 L 180.549 52.575" style="fill: rgb(255, 255, 255);"/>
    <path d="M 199.503 150.426 C 189.021 150.426 180.516 141.969 180.516 131.502 L 180.516 94.974 L 266.121 94.974 L 266.121 119.82 L 205.293 119.82 C 205.374 125.661 211.215 125.691 211.215 125.691 L 283.77 125.691 L 283.755 150.393 L 199.503 150.426" style="fill: rgb(255, 255, 255);"/>
    <path d="M 343.428 156.396 C 329.724 156.396 318.522 145.227 318.522 131.502 L 318.522 52.572 C 318.522 38.835 329.643 27.762 343.365 27.762 L 425.328 27.762 L 425.328 2.904 L 343.173 2.904 C 315.648 2.904 293.34 25.131 293.34 52.575 L 293.34 131.502 C 293.34 158.949 315.84 181.209 343.365 181.209 L 425.328 181.242 L 425.328 64.275 L 354.888 64.275 L 354.888 89.07 L 400.434 89.07 L 400.434 156.396 L 343.428 156.396" style="fill: rgb(255, 255, 255);"/>
    <path d="M 324.363 131.502 C 324.363 142.017 332.868 150.57 343.365 150.57 L 394.56 150.57 L 394.56 94.944 L 354.951 94.944 L 354.951 119.82 L 369.651 119.82 L 369.696 125.661 L 355.062 125.661 C 351.867 125.661 349.254 123.015 349.254 119.82 L 349.122 64.26 C 349.122 64.26 349.104 58.482 354.996 58.338 L 425.355 58.338 L 425.322 33.558 L 343.359 33.573 C 332.865 33.573 324.357 42.081 324.357 52.575 L 324.357 131.502" style="fill: rgb(255, 255, 255);"/>
    <path d="M 502.344 33.204 C 503.448 30.045 506.451 27.765 509.997 27.765 C 513.549 27.765 516.579 30.045 517.653 33.204 L 557.442 150.744 L 499.182 150.744 L 499.245 123.093 L 518.715 123.093 L 509.949 97.047 L 481.398 181.221 L 452.031 181.221 L 502.344 33.204" style="fill: rgb(255, 255, 255);"/>
    <path d="M 565.464 156.396 L 499.278 156.396 L 499.278 181.221 L 600 181.221 L 547.617 26.238 C 543.027 11.121 527.895 0 509.982 0 C 492.039 0 476.955 11.073 472.329 26.178 L 419.466 181.224 L 445.836 181.224 L 497.16 30.51 C 499.245 25.518 504.159 22.002 509.937 22.002 C 515.682 22.002 520.623 25.518 522.726 30.477 L 565.464 156.396" style="fill: rgb(255, 255, 255);"/>
  </g>
</svg>