<?xml version="1.0" encoding="utf-8"?>
<svg viewBox="0 0 200 40" xmlns="http://www.w3.org/2000/svg">
  <g transform="matrix(0.813603, 0, 0, 0.813603, -1.485158, 4.533937)">
    <g id="g-1" fill="#6d6d6d" stroke="none" transform="matrix(0.001266, 0, 0, 0.001266, 1.82541, 8.982631)">
      <path d="M3960 13860 l0 -990 495 0 495 0 0 -495 0 -495 495 0 495 0 0 1485 0 1485 -990 0 -990 0 0 -990z" style="fill: rgb(119, 119, 119);"/>
      <path d="M8910 13365 l0 -1485 495 0 495 0 0 495 0 495 495 0 495 0 0 990 0 990 -990 0 -990 0 0 -1485z" style="fill: rgb(119, 119, 119);"/>
      <path d="M0 8910 l0 -990 495 0 495 0 0 990 0 990 -495 0 -495 0 0 -990z" style="fill: rgb(119, 119, 119);"/>
      <path d="M2970 9405 l0 -495 495 0 495 0 0 -495 0 -495 495 0 495 0 0 495 0 495 -495 0 -495 0 0 495 0 495 -495 0 -495 0 0 -495z" style="fill: rgb(119, 119, 119);"/>
      <path d="M10890 9405 l0 -495 -495 0 -495 0 0 -495 0 -495 495 0 495 0 0 495 0 495 495 0 495 0 0 495 0 495 -495 0 -495 0 0 -495z" style="fill: rgb(119, 119, 119);"/>
      <path d="M13860 8910 l0 -990 495 0 495 0 0 990 0 990 -495 0 -495 0 0 -990z" style="fill: rgb(119, 119, 119);"/>
      <path d="M2970 5940 l0 -990 495 0 495 0 0 990 0 990 -495 0 -495 0 0 -990z" style="fill: rgb(119, 119, 119);"/>
      <path d="M10890 5940 l0 -990 495 0 495 0 0 990 0 990 -495 0 -495 0 0 -990z" style="fill: rgb(119, 119, 119);"/>
    </g>
    <g id="layer2" fill="#bfbfbf" stroke="none" transform="matrix(0.001266, 0, 0, 0.001266, 1.82541, 8.982631)">
      <path d="M0 12870 l0 -2970 495 0 495 0 0 990 0 990 495 0 495 0 0 -495 0 -495 495 0 495 0 0 -495 0 -495 495 0 495 0 0 -495 0 -495 -495 0 -495 0 0 -990 0 -990 495 0 495 0 0 990 0 990 495 0 495 0 0 -990 0 -990 495 0 495 0 0 -1980 0 -1980 495 0 495 0 0 -1485 0 -1485 495 0 495 0 0 1485 0 1485 495 0 495 0 0 1980 0 1980 495 0 495 0 0 990 0 990 495 0 495 0 0 -990 0 -990 495 0 495 0 0 990 0 990 -495 0 -495 0 0 495 0 495 495 0 495 0 0 495 0 495 495 0 495 0 0 495 0 495 495 0 495 0 0 -990 0 -990 495 0 495 0 0 2970 0 2970 -495 0 -495 0 0 -495 0 -495 -495 0 -495 0 0 -495 0 -495 -495 0 -495 0 0 -495 0 -495 -990 0 -990 0 0 -495 0 -495 -495 0 -495 0 0 990 0 990 -495 0 -495 0 0 990 0 990 -495 0 -495 0 0 -990 0 -990 -495 0 -495 0 0 -990 0 -990 -495 0 -495 0 0 495 0 495 -990 0 -990 0 0 495 0 495 -495 0 -495 0 0 495 0 495 -495 0 -495 0 0 495 0 495 -495 0 -495 0 0 -2970z m6930 -2475 l0 -495 495 0 495 0 0 495 0 495 495 0 495 0 0 -990 0 -990 -495 0 -495 0 0 -495 0 -495 -495 0 -495 0 0 495 0 495 -495 0 -495 0 0 990 0 990 495 0 495 0 0 -495z" style="fill: rgb(204, 204, 204);"/>
    </g>
  </g>
  <path d="M 20.217 28.97 L 20.217 28.97 L 21.897 24.02 L 21.897 24.02 C 23.577 24.48 25.117 24.71 26.517 24.71 L 26.517 24.71 L 26.517 24.71 C 27.917 24.71 29.047 24.65 29.907 24.53 L 29.907 24.53 L 30.147 23.03 L 27.657 22.79 L 27.657 22.79 C 25.757 22.61 24.41 22.18 23.617 21.5 L 23.617 21.5 L 23.617 21.5 C 22.83 20.82 22.437 19.86 22.437 18.62 L 22.437 18.62 L 22.437 18.62 C 22.437 18.08 22.497 17.48 22.617 16.82 L 22.617 16.82 L 22.617 16.82 C 23.077 14.26 23.91 12.5 25.117 11.54 L 25.117 11.54 L 25.117 11.54 C 26.33 10.58 28.207 10.1 30.747 10.1 L 30.747 10.1 L 30.747 10.1 C 33.287 10.1 35.527 10.35 37.467 10.85 L 37.467 10.85 L 35.907 15.65 L 35.907 15.65 C 34.167 15.35 32.767 15.2 31.707 15.2 L 31.707 15.2 L 31.707 15.2 C 30.647 15.2 29.747 15.25 29.007 15.35 L 29.007 15.35 L 28.767 16.82 L 30.777 17.03 L 30.777 17.03 C 32.817 17.25 34.267 17.737 35.127 18.49 L 35.127 18.49 L 35.127 18.49 C 35.987 19.237 36.417 20.24 36.417 21.5 L 36.417 21.5 L 36.417 21.5 C 36.417 22.78 36.137 24.1 35.577 25.46 L 35.577 25.46 L 35.577 25.46 C 35.297 26.16 34.99 26.747 34.657 27.22 L 34.657 27.22 L 34.657 27.22 C 34.33 27.687 33.91 28.083 33.397 28.41 L 33.397 28.41 L 33.397 28.41 C 32.89 28.743 32.427 28.993 32.007 29.16 L 32.007 29.16 L 32.007 29.16 C 31.587 29.333 31.057 29.46 30.417 29.54 L 30.417 29.54 L 30.417 29.54 C 29.477 29.68 28.327 29.75 26.967 29.75 L 26.967 29.75 L 26.967 29.75 C 24.487 29.75 22.237 29.49 20.217 28.97 Z M 53.696 29.3 L 47.996 29.3 L 49.136 22.67 L 44.846 22.67 L 43.706 29.3 L 38.006 29.3 L 41.306 10.55 L 47.006 10.55 L 45.836 17.18 L 50.126 17.18 L 51.296 10.55 L 56.996 10.55 L 53.696 29.3 Z M 64.975 16.82 L 64.975 16.82 L 63.595 24.62 L 65.965 24.62 L 65.965 24.62 C 66.745 24.62 67.325 24.527 67.705 24.34 L 67.705 24.34 L 67.705 24.34 C 68.085 24.147 68.335 23.71 68.455 23.03 L 68.455 23.03 L 69.835 15.23 L 67.435 15.23 L 67.435 15.23 C 66.675 15.23 66.105 15.323 65.725 15.51 L 65.725 15.51 L 65.725 15.51 C 65.345 15.703 65.095 16.14 64.975 16.82 Z M 68.425 10.1 L 68.425 10.1 L 68.425 10.1 C 70.965 10.1 72.775 10.597 73.855 11.59 L 73.855 11.59 L 73.855 11.59 C 74.935 12.577 75.475 14.1 75.475 16.16 L 75.475 16.16 L 75.475 16.16 C 75.475 18.22 75.149 20.377 74.495 22.63 L 74.495 22.63 L 74.495 22.63 C 73.849 24.877 72.819 26.623 71.405 27.87 L 71.405 27.87 L 71.405 27.87 C 69.999 29.123 67.939 29.75 65.225 29.75 L 65.225 29.75 L 65.225 29.75 C 62.519 29.75 60.625 29.257 59.545 28.27 L 59.545 28.27 L 59.545 28.27 C 58.465 27.277 57.925 25.75 57.925 23.69 L 57.925 23.69 L 57.925 23.69 C 57.925 22.71 58.065 21.417 58.345 19.81 L 58.345 19.81 L 58.345 19.81 C 58.625 18.197 58.995 16.807 59.455 15.64 L 59.455 15.64 L 59.455 15.64 C 59.915 14.467 60.535 13.45 61.315 12.59 L 61.315 12.59 L 61.315 12.59 C 62.815 10.93 65.185 10.1 68.425 10.1 Z M 83.875 16.82 L 83.875 16.82 L 82.495 24.62 L 84.865 24.62 L 84.865 24.62 C 85.645 24.62 86.225 24.527 86.605 24.34 L 86.605 24.34 L 86.605 24.34 C 86.985 24.147 87.235 23.71 87.355 23.03 L 87.355 23.03 L 88.735 15.23 L 86.335 15.23 L 86.335 15.23 C 85.575 15.23 85.005 15.323 84.625 15.51 L 84.625 15.51 L 84.625 15.51 C 84.245 15.703 83.995 16.14 83.875 16.82 Z M 87.325 10.1 L 87.325 10.1 L 87.325 10.1 C 89.865 10.1 91.675 10.597 92.755 11.59 L 92.755 11.59 L 92.755 11.59 C 93.835 12.577 94.375 14.1 94.375 16.16 L 94.375 16.16 L 94.375 16.16 C 94.375 18.22 94.048 20.377 93.395 22.63 L 93.395 22.63 L 93.395 22.63 C 92.748 24.877 91.718 26.623 90.305 27.87 L 90.305 27.87 L 90.305 27.87 C 88.898 29.123 86.838 29.75 84.125 29.75 L 84.125 29.75 L 84.125 29.75 C 81.418 29.75 79.525 29.257 78.445 28.27 L 78.445 28.27 L 78.445 28.27 C 77.365 27.277 76.825 25.75 76.825 23.69 L 76.825 23.69 L 76.825 23.69 C 76.825 22.71 76.965 21.417 77.245 19.81 L 77.245 19.81 L 77.245 19.81 C 77.525 18.197 77.895 16.807 78.355 15.64 L 78.355 15.64 L 78.355 15.64 C 78.815 14.467 79.435 13.45 80.215 12.59 L 80.215 12.59 L 80.215 12.59 C 81.715 10.93 84.085 10.1 87.325 10.1 Z M 111.204 10.55 L 110.334 15.35 L 106.194 15.35 L 103.764 29.3 L 98.064 29.3 L 100.494 15.35 L 96.384 15.35 L 97.254 10.55 L 111.204 10.55 Z M 118.373 10.43 L 118.373 10.43 L 118.043 12.35 L 118.043 12.35 C 118.023 12.43 117.073 15.08 115.193 20.3 L 115.193 20.3 L 112.343 20.3 L 112.343 13.37 L 112.343 13.37 C 112.343 12.65 112.443 11.73 112.643 10.61 L 112.643 10.61 L 112.643 10.61 C 112.723 10.07 113.123 9.8 113.843 9.8 L 113.843 9.8 L 117.443 9.8 L 117.443 9.8 C 118.063 9.8 118.373 10.01 118.373 10.43 Z M 131.573 17.87 L 130.793 22.22 L 125.093 22.22 L 124.703 24.5 L 131.693 24.5 L 130.853 29.3 L 118.163 29.3 L 121.463 10.55 L 134.003 10.55 L 132.443 15.35 L 126.293 15.35 L 125.873 17.87 L 131.573 17.87 Z M 141.411 20.21 L 139.462 29.3 L 133.522 29.3 L 137.902 10.55 L 145.342 10.55 L 145.881 20.09 L 146.092 20.09 L 149.992 10.55 L 157.432 10.55 L 155.212 29.3 L 149.242 29.3 L 150.501 20.21 L 150.292 20.21 L 146.542 29.3 L 142.191 29.3 L 141.562 20.21 L 141.411 20.21 Z M 167.271 10.55 L 172.971 10.55 L 170.48 24.62 L 172.521 24.62 L 172.521 24.62 C 173.221 24.62 173.721 24.527 174.021 24.34 L 174.021 24.34 L 174.021 24.34 C 174.32 24.147 174.531 23.71 174.651 23.03 L 174.651 23.03 L 176.871 10.55 L 182.57 10.55 L 180.711 21.08 L 180.711 21.08 C 180.411 22.78 180.064 24.15 179.671 25.19 L 179.671 25.19 L 179.671 25.19 C 179.284 26.23 178.741 27.11 178.04 27.83 L 178.04 27.83 L 178.04 27.83 C 177.341 28.55 176.474 29.05 175.441 29.33 L 175.441 29.33 L 175.441 29.33 C 174.414 29.61 173.111 29.75 171.531 29.75 L 171.531 29.75 L 171.531 29.75 C 169.111 29.75 167.414 29.383 166.441 28.65 L 166.441 28.65 L 166.441 28.65 C 165.474 27.923 164.991 26.67 164.991 24.89 L 164.991 24.89 L 164.991 24.89 C 164.991 23.91 165.131 22.64 165.411 21.08 L 165.411 21.08 L 167.271 10.55 Z M 192.799 24.77 L 192.799 24.77 L 189.079 24.77 L 188.299 29.3 L 182.6 29.3 L 185.9 10.55 L 194.9 10.55 L 194.9 10.55 C 198.299 10.55 200 12.13 200 15.29 L 200 15.29 L 200 15.29 C 200 16.79 199.79 18.143 199.37 19.35 L 199.37 19.35 L 199.37 19.35 C 198.95 20.563 198.487 21.527 197.98 22.24 L 197.98 22.24 L 197.98 22.24 C 197.467 22.947 196.764 23.547 195.87 24.04 L 195.87 24.04 L 195.87 24.04 C 194.984 24.527 193.96 24.77 192.799 24.77 Z M 192.049 15.35 L 190.73 15.35 L 189.92 19.97 L 191.24 19.97 L 191.24 19.97 C 191.92 19.97 192.434 19.897 192.78 19.75 L 192.78 19.75 L 192.78 19.75 C 193.134 19.597 193.359 19.25 193.46 18.71 L 193.46 18.71 L 193.46 18.71 C 193.72 17.23 193.85 16.42 193.85 16.28 L 193.85 16.28 L 193.85 16.28 C 193.85 15.9 193.7 15.65 193.4 15.53 L 193.4 15.53 L 193.4 15.53 C 193.1 15.41 192.65 15.35 192.049 15.35 L 192.049 15.35 Z" style="white-space: pre; fill: rgb(255, 255, 255);"/>
</svg>