<?xml version="1.0" encoding="utf-8"?>
<svg version="1.2" baseProfile="tiny" id="Ebene_1" x="0px" y="0px" xmlns="http://www.w3.org/2000/svg">
  <g>
    <path id="polyline2177" d="M 29.219 0 C 23.576 0 18.087 4.642 17.081 10.39 L 17.081 10.495 L 17.081 10.597 L 17.081 10.699 L 16.979 10.801 L 16.979 11.009 L 16.979 11.111 L 16.873 11.318 L 16.873 11.525 L 16.771 11.73 L 16.771 12.039 L 16.669 12.246 L 16.669 12.556 L 16.564 12.862 L 16.462 13.172 L 16.36 13.788 L 16.152 14.506 L 16.053 15.227 L 15.846 15.945 L 15.741 16.768 L 15.533 17.591 L 15.329 18.517 L 15.122 19.34 L 14.815 21.089 L 14.608 22.014 L 14.401 22.837 L 14.302 23.661 L 14.094 24.481 L 13.89 25.307 L 13.785 26.13 L 13.683 26.848 L 13.475 27.464 L 13.37 28.185 L 13.37 28.495 L 13.271 28.699 L 13.271 29.009 L 13.271 29.216 L 13.169 29.525 L 13.169 29.73 L 13.169 29.937 L 13.064 30.144 L 13.064 30.246 L 13.064 30.349 C 12.958 32.863 13.31 36.295 14.094 36.935 C 15.092 42.472 33.554 68.112 33.023 72.015 C 32.527 75.93 30.349 87.45 30.349 87.45 C 29.679 91.331 27.029 94.441 23.15 94.441 C 19.265 94.441 16.615 91.343 17.285 87.45 L 20.782 68.314 L 6.995 68.314 L 2.365 94.859 C 1.421 100.246 5.072 104.527 10.492 104.527 L 30.144 104.527 C 35.589 104.527 40.771 100.246 41.769 94.859 C 41.769 94.859 46.831 70.065 46.807 68.314 C 46.789 66.55 46.297 66.358 46.297 66.358 C 46.297 64.342 29.868 37.22 28.188 36.21 C 27.467 35.79 26.872 33.104 26.848 31.481 C 26.818 29.868 29.012 19.031 29.012 19.031 C 29.679 15.149 33.356 12.036 37.241 12.036 C 41.123 12.036 42.745 15.149 42.075 19.031 L 39.095 36.21 L 52.982 36.21 L 57.819 10.387 C 58.913 4.642 55.232 0 49.59 0 L 29.219 0 Z M 67.079 0 L 50.62 94.862 C 49.677 100.249 53.324 104.53 58.747 104.53 L 78.4 104.53 C 83.841 104.53 89.12 100.249 90.127 94.862 L 107.718 0 L 95.372 0 L 78.601 92.185 C 78.358 93.525 77.057 94.654 75.723 94.654 L 65.946 94.654 C 64.579 94.654 63.666 93.534 63.888 92.185 L 80.248 0 L 67.079 0 Z M 114.406 0 L 94.549 104.53 L 107.718 104.53 L 116.774 57.203 L 133.542 57.203 C 138.998 57.203 144.169 52.889 145.166 47.531 L 152.368 10.39 C 153.456 4.63 149.784 0 144.142 0 L 127.575 0 L 114.406 0 Z M 161.424 0 L 140.849 104.53 L 170.479 104.53 L 172.534 91.566 L 157.926 91.566 L 163.896 56.278 L 178.504 56.278 L 180.56 45.371 L 165.955 45.371 L 172.435 12.964 L 187.046 12.964 L 189.098 0 L 161.424 0 Z M 196.817 0 L 177.065 104.53 L 190.234 104.53 L 199.185 57.203 L 208.55 57.203 C 209.778 58.351 209.926 60.463 210.088 61.524 C 210.331 63.062 210.59 65.027 210.4 66.565 C 210.229 68.091 203.196 104.527 203.196 104.527 L 216.367 104.527 C 216.367 104.527 223.774 64.835 223.774 64.198 C 223.798 63.549 223.774 61.515 223.058 60.391 C 222.575 59.67 221.745 58.014 220.79 57.41 C 218.951 56.23 216.878 55.451 216.878 55.451 L 215.95 55.451 C 219.72 53.967 226.823 51.521 227.58 47.531 L 234.779 10.39 C 235.873 4.63 232.195 0 226.55 0 L 196.817 0 Z M 267.294 0 L 247.434 104.53 L 262.559 104.53 L 274.799 43.932 L 279.637 104.53 L 292.808 104.53 L 312.665 0 L 297.54 0 L 287.253 54.631 L 280.46 0 L 267.294 0 Z M 319.555 0 L 299.701 104.53 L 312.87 104.53 L 332.723 0 L 319.555 0 Z M 339.613 0 L 319.759 104.53 L 334.989 104.53 L 347.232 43.932 L 352.066 104.53 L 365.238 104.53 L 385.092 0 L 369.865 0 L 359.68 54.631 L 352.89 0 L 339.613 0 Z M 390.65 0 L 388.178 12.964 L 396.407 12.964 L 380.153 104.53 L 395.175 104.53 L 411.739 12.964 L 419.659 12.964 L 421.717 0 L 390.65 0 Z M 426.864 0 L 406.289 104.53 L 435.917 104.53 L 437.975 91.566 L 423.367 91.566 L 429.439 56.278 L 444.044 56.278 L 446.105 45.371 L 431.494 45.371 L 437.87 12.964 L 452.48 12.964 L 454.539 0 L 426.864 0 Z M 460.301 0 L 440.444 104.53 L 455.668 104.53 L 467.915 43.932 L 472.752 104.53 L 485.921 104.53 L 505.778 0 L 490.551 0 L 480.362 54.631 L 473.572 0 L 460.301 0 Z M 512.673 0 L 492.81 104.53 L 522.852 104.53 C 528.309 104.53 533.572 100.249 534.585 94.862 L 550.527 10.393 C 551.609 4.63 547.943 0 542.298 0 L 512.673 0 Z M 569.152 0 C 563.503 0 558.122 4.642 557.113 10.39 L 542.397 94.859 C 541.444 100.249 545.011 104.53 550.428 104.53 L 572.135 104.53 C 577.577 104.53 582.853 100.246 583.865 94.859 L 599.807 10.39 C 600.904 4.642 597.214 0 591.581 0 L 569.152 0 Z M 523.883 12.039 L 529.955 12.039 C 533.837 12.039 536.487 15.149 535.817 19.034 L 522.852 87.453 C 522.176 91.334 518.403 94.552 514.518 94.552 L 508.551 94.552 L 523.883 12.039 Z M 576.868 12.039 L 577.279 12.039 C 581.161 12.039 583.709 15.149 583.039 19.034 L 570.696 87.453 C 570.023 91.322 566.445 94.552 562.569 94.552 C 558.681 94.552 557.062 91.334 557.729 87.453 L 569.972 19.034 L 570.071 18.724 L 570.176 18.415 L 570.276 18.003 L 570.378 17.694 L 570.483 17.282 L 570.582 16.973 L 570.687 16.663 L 570.889 16.357 L 570.991 16.047 L 571.201 15.738 L 571.303 15.431 L 571.508 15.122 L 571.718 14.914 L 571.919 14.608 L 572.129 14.299 L 572.436 14.091 L 572.643 13.884 L 572.851 13.677 L 573.154 13.469 L 573.466 13.265 L 573.674 13.061 L 573.98 12.853 L 574.29 12.751 L 574.599 12.544 L 574.806 12.442 L 575.215 12.337 L 575.522 12.237 L 575.831 12.237 L 576.137 12.132 L 576.552 12.132 L 576.868 12.039 Z M 127.058 12.451 L 133.44 12.451 C 134.84 12.451 137.811 15.657 137.556 17.081 L 132.1 42.905 C 131.847 44.242 130.045 47.324 128.711 47.324 L 120.989 47.324 L 120.887 47.324 L 120.785 47.324 L 120.682 47.225 L 120.58 47.225 L 120.478 47.225 L 120.373 47.225 L 120.271 47.225 L 120.271 47.12 L 120.166 47.12 L 120.064 47.12 L 119.958 47.021 L 119.856 47.021 L 119.754 46.916 L 119.652 46.813 L 119.55 46.813 L 119.55 46.708 L 119.448 46.606 L 119.342 46.504 L 119.342 46.402 L 119.24 46.3 L 119.135 46.194 L 119.135 46.095 L 119.135 45.99 L 119.033 45.888 L 119.033 45.786 L 119.033 45.684 L 118.928 45.582 L 118.928 45.479 C 118.928 45.308 118.91 45.05 118.928 44.86 L 125.102 13.274 C 125.67 12.808 126.361 12.451 127.058 12.451 Z M 209.054 12.451 L 209.16 12.451 L 209.262 12.451 L 209.364 12.451 L 209.466 12.451 L 215.436 12.451 C 216.839 12.451 219.826 15.657 219.549 17.081 L 214.093 42.799 C 213.856 44.148 210.506 47.327 209.16 47.327 L 203.499 47.327 C 202.33 47.327 201.525 46.558 201.441 45.479 C 201.441 45.308 201.417 45.062 201.441 44.86 L 207.513 13.274 L 207.612 13.172 L 207.717 13.073 L 207.919 12.968 L 208.021 12.968 L 208.123 12.865 L 208.225 12.763 L 208.327 12.763 L 208.429 12.661 L 208.535 12.661 L 208.739 12.559 L 208.841 12.559 L 208.94 12.559 L 209.042 12.559 L 209.042 12.457 L 209.054 12.457 Z M 0 113.583 L 0 147.846 L 587.257 147.846 L 587.257 113.583 L 0 113.583 Z M 431.704 117.185 L 431.803 117.185 L 431.903 117.185 L 432.008 117.185 L 432.107 117.185 L 432.209 117.185 L 436.737 117.185 C 437.96 117.185 438.834 118.162 438.588 119.448 L 437.455 125.21 L 434.679 125.21 L 435.292 121.404 C 435.433 120.544 434.925 119.859 434.06 119.859 C 433.201 119.859 432.35 120.541 432.209 121.404 L 431.698 124.186 C 431.608 124.348 431.866 125.129 432.002 125.213 C 432.383 125.433 436.016 131.454 436.016 131.898 C 436.1 132.121 436.151 132.229 436.115 132.313 C 436.013 133.064 434.982 138.175 434.982 138.175 C 434.763 139.347 433.621 140.332 432.413 140.332 L 428.09 140.332 C 426.891 140.332 426.119 139.347 426.341 138.175 L 427.375 132.313 L 430.355 132.313 L 429.64 136.531 C 429.502 137.388 430.001 138.175 430.869 138.175 C 431.704 138.175 432.591 137.394 432.726 136.531 L 433.342 133.133 C 432.792 131.715 429.15 126.541 428.916 125.312 C 428.757 125.174 428.691 124.432 428.712 123.873 C 428.745 123.263 429.535 119.448 429.535 119.448 L 429.64 119.448 L 429.64 119.345 L 429.64 119.246 L 429.64 119.144 L 429.739 118.937 L 429.739 118.838 L 429.838 118.733 L 429.838 118.63 L 429.941 118.531 L 429.941 118.426 L 430.043 118.327 L 430.148 118.222 L 430.148 118.123 L 430.247 118.123 L 430.352 118.02 L 430.451 117.915 L 430.554 117.816 L 430.554 117.711 L 430.656 117.711 L 430.755 117.612 L 430.854 117.51 L 430.959 117.51 L 431.061 117.408 L 431.163 117.408 L 431.266 117.308 L 431.368 117.308 L 431.575 117.308 L 431.704 117.185 Z M 455.362 117.185 L 459.066 117.185 L 459.58 125.931 L 464.312 117.185 L 468.02 117.185 L 460.406 130.561 L 458.556 140.332 L 455.263 140.332 L 456.912 129.837 L 455.362 117.185 Z M 489.006 117.185 L 489.106 117.185 L 489.211 117.185 L 489.31 117.185 L 489.415 117.185 L 489.514 117.185 L 494.042 117.185 C 495.262 117.185 496.115 118.162 495.893 119.448 L 494.76 125.21 L 491.981 125.21 L 492.6 121.404 C 492.738 120.544 492.236 119.859 491.365 119.859 C 490.506 119.859 489.649 120.541 489.514 121.404 L 489 124.186 C 488.892 124.348 489.139 125.129 489.307 125.213 C 489.67 125.433 493.321 131.454 493.321 131.898 C 493.429 132.121 493.426 132.229 493.426 132.313 C 493.285 133.064 492.396 138.175 492.396 138.175 C 492.173 139.347 491.019 140.332 489.818 140.332 L 485.398 140.332 C 484.199 140.332 483.424 139.347 483.643 138.175 L 484.674 132.313 L 487.66 132.313 L 486.942 136.531 C 486.801 137.391 487.336 138.178 488.174 138.178 C 489.03 138.178 489.857 137.397 490.025 136.531 L 490.641 133.136 C 490.079 131.718 486.456 126.544 486.218 125.315 C 486.062 125.174 485.996 124.435 486.014 123.876 C 486.044 123.263 486.837 119.451 486.837 119.451 L 486.936 119.348 L 486.936 119.249 L 486.936 119.147 L 487.038 118.94 L 487.038 118.838 L 487.141 118.733 L 487.141 118.633 L 487.243 118.531 L 487.243 118.426 L 487.345 118.327 L 487.447 118.222 L 487.447 118.123 L 487.552 118.123 L 487.648 118.02 L 487.751 117.915 L 487.853 117.816 L 487.955 117.711 L 488.057 117.612 L 488.159 117.51 L 488.261 117.51 L 488.366 117.408 L 488.466 117.408 L 488.568 117.308 L 488.667 117.308 L 488.871 117.308 L 489.006 117.185 Z M 512.976 117.185 L 519.875 117.185 L 519.358 119.964 L 517.606 119.964 L 514.007 140.335 L 510.612 140.335 L 514.211 119.964 L 512.463 119.964 L 512.976 117.185 Z M 539.93 117.185 L 546.104 117.185 L 545.588 119.964 L 542.397 119.964 L 540.961 127.268 L 544.25 127.268 L 543.734 129.633 L 540.543 129.633 L 539.209 137.454 L 542.394 137.454 L 541.985 140.332 L 535.399 140.332 L 539.93 117.185 Z M 565.345 117.185 L 569.152 117.185 L 569.765 130.561 L 575.63 117.287 L 579.331 117.185 L 575.428 140.332 L 572.547 140.332 L 574.395 128.092 L 569.248 140.332 L 567.19 140.332 L 566.577 127.779 L 564.312 140.332 L 560.914 140.332 L 565.345 117.185 Z M 12.757 118.011 L 18.829 118.011 L 18.415 120.887 L 15.125 120.887 L 13.788 128.092 L 16.979 128.092 L 16.564 130.564 L 13.271 130.564 L 12.039 138.382 L 15.227 138.382 L 14.713 141.263 L 8.127 141.263 L 12.757 118.011 Z M 41.153 118.011 L 44.034 118.011 L 45.576 130.15 L 47.838 118.011 L 51.236 118.011 L 46.807 141.257 L 43.929 141.257 L 42.796 127.776 L 40.122 141.257 L 36.727 141.257 L 41.153 118.011 Z M 72.018 118.011 L 78.809 118.011 L 78.4 120.887 L 76.648 120.887 L 72.944 141.26 L 69.657 141.26 L 73.253 120.887 L 71.402 120.887 L 72.018 118.011 Z M 101.958 118.011 L 108.13 118.011 L 107.616 120.887 L 104.425 120.887 L 102.986 128.092 L 106.174 128.092 L 105.762 130.564 L 102.574 130.564 L 101.237 138.382 L 104.428 138.382 L 104.016 141.263 L 97.434 141.263 L 101.958 118.011 Z M 130.973 118.011 L 137.556 118.011 C 138.776 118.011 139.548 119.09 139.305 120.373 L 137.763 128.602 C 137.592 129.495 136.024 130.222 135.188 130.561 L 135.396 130.561 L 135.498 130.561 L 135.603 130.561 L 135.603 130.66 L 135.705 130.66 L 135.81 130.66 L 135.909 130.66 L 136.015 130.66 L 136.117 130.763 L 136.219 130.763 L 136.321 130.763 L 136.426 130.763 L 136.426 130.862 L 136.528 130.862 L 136.633 130.862 L 136.633 130.967 L 136.736 130.967 C 136.874 131.216 136.94 131.955 136.94 132.097 C 136.94 132.235 135.29 141.254 135.29 141.254 L 132.307 141.254 C 132.307 141.254 133.902 133.154 133.956 132.821 C 133.99 132.46 133.917 132.025 133.854 131.691 C 133.83 131.442 133.818 131.015 133.545 130.763 L 131.487 130.763 L 129.531 141.254 L 126.547 141.254 L 130.973 118.011 Z M 160.393 118.011 L 167.286 118.011 L 166.877 120.887 L 165.128 120.887 L 161.424 141.26 L 158.131 141.26 L 161.733 120.887 L 159.882 120.887 L 160.393 118.011 Z M 194.654 118.011 L 198.566 118.011 L 197.331 141.257 L 193.419 141.257 L 193.933 135.906 L 191.568 135.906 L 189.612 141.257 L 186.118 141.257 L 194.654 118.011 Z M 222.025 118.011 L 225.005 118.011 L 220.58 141.257 L 217.698 141.257 L 222.025 118.011 Z M 248.567 118.011 L 251.448 118.011 L 252.989 130.15 L 255.258 118.011 L 258.548 118.011 L 254.227 141.257 L 251.244 141.257 L 250.213 127.776 L 247.536 141.257 L 244.144 141.257 L 248.567 118.011 Z M 282.623 118.011 L 286.43 118.011 L 287.043 131.49 L 292.914 118.117 L 296.612 118.117 L 292.703 141.263 L 289.822 141.263 L 291.673 129.02 L 286.526 141.263 L 284.468 141.263 L 283.852 128.714 L 281.592 141.263 L 278.297 141.263 L 282.623 118.011 Z M 319.969 118.011 L 326.038 118.011 L 325.624 120.887 L 322.334 120.887 L 321 128.092 L 324.188 128.092 L 323.773 130.564 L 320.486 130.564 L 319.149 138.382 L 322.436 138.382 L 321.922 141.263 L 315.444 141.263 L 319.969 118.011 Z M 349.801 118.011 L 352.682 118.011 L 354.227 130.15 L 356.489 118.011 L 359.779 118.011 L 355.462 141.257 L 352.58 141.257 L 351.448 127.776 L 348.771 141.257 L 345.375 141.257 L 349.801 118.011 Z M 380.36 118.011 L 387.252 118.011 L 386.739 120.887 L 384.99 120.887 L 381.391 141.26 L 378.095 141.26 L 381.7 120.887 L 379.849 120.887 L 380.36 118.011 Z M 133.749 120.785 C 133.587 120.785 133.452 120.881 133.335 120.992 L 131.998 127.986 C 131.998 128.044 131.998 128.035 131.998 128.092 C 131.998 128.314 132.154 128.5 132.409 128.5 L 133.644 128.5 C 133.95 128.5 134.72 127.884 134.777 127.575 L 135.906 121.812 C 135.96 121.482 135.393 120.782 135.083 120.782 L 133.749 120.785 L 133.749 120.785 Z M 194.654 127.779 L 192.493 133.644 L 194.14 133.644 L 194.654 127.779 Z" style="fill: rgb(255, 255, 255);"/>
  </g>
</svg>