<?xml version="1.0" encoding="utf-8"?>
<svg id="logo" version="1.1" xmlns="http://www.w3.org/2000/svg">
  <g>
    <path id="S" d="M 0.39 44.646 C 0.39 69.321 16.839 89.295 37.206 89.295 L 139.422 89.295 C 141.774 89.295 144.123 91.644 144.123 94.776 C 144.123 97.908 142.164 100.26 139.422 100.26 L 0 100.26 L 0 139.815 L 155.871 139.815 C 176.238 139.815 192.684 119.451 192.684 94.779 C 192.684 70.104 176.238 49.74 155.871 49.74 L 54.045 49.74 C 51.696 49.74 49.347 47.388 49.347 44.256 C 49.347 41.124 51.303 38.772 54.045 38.772 L 192.294 38.772 L 192.294 0 L 37.212 0 C 16.848 0 0.399 19.974 0.399 44.646 Z" class="st0" style="fill: rgb(255, 255, 255);"/>
    <polygon id="N" class="st0" points="203.655 0 203.655 139.035 252.612 139.035 252.612 51.696 345.822 139.035 396.738 139.035 396.738 0 347.781 0 347.781 86.946 254.568 0" style="fill: rgb(255, 255, 255);"/>
    <polygon id="K" class="st0" points="457.05 61.098 457.05 0 407.31 0 407.31 139.035 457.05 139.035 457.05 77.547 536.16 139.035 600 139.035 509.922 69.714 600 0 536.16 0" style="fill: rgb(255, 255, 255);"/>
  </g>
</svg>