<?xml version="1.0" encoding="utf-8"?>
<svg version="1.1" xmlns="http://www.w3.org/2000/svg">
  <g>
    <path id="path9" d="M 46.296 15.186 L 57.039 7.41 C 57.039 7.41 42.225 -1.479 25.926 12.594 C 25.926 12.594 20.001 20.001 31.113 25.188 C 31.113 25.188 46.668 31.854 38.52 36.297 C 38.52 36.297 25.929 47.412 13.335 34.818 L 0 44.445 C 0 44.445 17.037 60.003 40.002 50.373 C 40.002 50.373 60.741 44.445 58.521 27.408 C 58.521 27.408 59.259 20.742 46.296 15.186 Z M 188.148 39.261 L 200.001 6.669 L 181.482 6.669 L 171.852 34.815 C 171.852 34.815 172.593 40.743 161.481 40.743 C 161.481 40.743 152.592 42.222 155.556 32.595 L 164.445 6.669 L 147.408 6.669 L 136.296 40.743 C 136.296 40.743 140.001 52.596 148.89 52.596 L 167.409 52.596 C 167.409 52.596 180.741 51.111 188.148 39.261 Z M 178.515 53.334 L 187.404 54.075 L 219.999 20.742 L 229.629 52.593 L 247.407 52.593 L 233.331 0 L 178.515 53.334 Z M 317.037 21.483 C 317.037 11.112 304.443 6.669 304.443 6.669 L 265.923 6.669 L 249.627 53.334 L 267.405 53.334 L 271.11 42.966 L 281.478 42.966 L 288.888 54.075 L 308.886 54.075 L 297.033 38.52 C 317.778 32.595 317.037 21.483 317.037 21.483 Z M 292.59 30.372 L 275.553 30.372 L 279.999 17.781 L 296.295 17.781 C 300.738 18.522 301.479 23.706 301.479 23.706 C 297.033 31.113 292.59 30.372 292.59 30.372 Z M 332.592 35.556 L 348.888 35.556 L 359.259 24.447 L 339.258 24.447 L 339.258 18.519 L 364.443 18.519 L 368.148 7.41 L 325.923 7.41 L 308.886 54.075 L 351.849 54.075 L 357.036 41.484 L 331.848 41.484 L 332.592 35.556 Z M 541.482 20.004 L 547.407 7.41 L 502.962 7.41 L 486.666 54.819 L 505.923 54.819 L 511.851 37.782 L 526.665 37.782 L 537.777 26.67 L 516.297 26.67 L 518.52 20.004 L 541.482 20.004 L 541.482 20.004 Z M 549.63 7.41 L 544.443 20.004 L 561.48 20.004 L 548.889 54.078 L 567.408 54.819 L 579.999 19.263 L 595.557 19.263 L 600 7.41 L 549.63 7.41 Z M 403.71 17.778 L 414.45 10.002 C 414.45 10.002 399.636 1.113 383.34 15.186 C 383.34 15.186 377.412 22.593 388.524 27.78 C 388.524 27.78 404.082 34.446 395.934 38.892 C 395.934 38.892 383.34 50.004 370.746 37.41 L 357.414 47.037 C 357.414 47.037 374.451 62.595 397.413 52.965 C 397.413 52.965 418.155 47.037 415.932 30 C 415.932 30 416.673 23.334 403.71 17.778 Z M 493.722 24.894 C 491.373 11.829 472.29 4.332 451.095 8.139 C 429.903 11.952 414.624 25.626 416.973 38.688 C 419.322 51.75 438.405 59.25 459.597 55.44 C 480.792 51.633 496.071 37.953 493.722 24.894 Z M 459.264 44.346 C 447.378 47.043 436.407 43.317 434.754 36.033 C 433.101 28.746 441.396 20.655 453.279 17.961 C 465.165 15.267 476.136 18.99 477.789 26.274 C 479.442 33.561 471.147 41.652 459.264 44.346 Z M 138.162 21.93 C 135.813 8.868 116.73 1.368 95.535 5.178 C 74.34 8.988 59.064 22.665 61.413 35.724 C 63.759 48.786 82.842 56.286 104.037 52.476 C 125.232 48.669 140.508 34.989 138.162 21.93 Z M 103.701 41.385 C 91.818 44.079 80.844 40.356 79.191 33.069 C 77.541 25.785 85.836 17.691 97.719 14.997 C 109.605 12.303 120.576 16.026 122.229 23.31 C 123.879 30.597 115.584 38.688 103.701 41.385 Z" style="fill: rgb(255, 255, 255);"/>
    <polygon id="polygon11" points="127.041 53.154 87.78 53.154 120.372 45.006 135.93 45.006 127.041 53.154" style="fill: rgb(255, 255, 255);"/>
  </g>
</svg>