<?xml version="1.0" encoding="utf-8"?>
<svg version="1.1" id="svg2" xmlns="http://www.w3.org/2000/svg">
  <path d="M 252.975 57.348 L 217.332 110.054 L 246.529 136.975 L 308.335 90.716 L 252.975 57.348 Z" id="path8078" style="fill-opacity: 1; fill-rule: evenodd; stroke: none; fill: rgb(255, 255, 255);"/>
  <circle r="44.538" cy="56.976" cx="293.671" id="path4144" style="opacity: 1; fill-opacity: 1; stroke: none; stroke-width: 0.2; stroke-miterlimit: 4; stroke-dasharray: none; stroke-opacity: 1; fill: rgb(255, 255, 255);"/>
  <path style="opacity: 1; fill-opacity: 1; fill-rule: evenodd; stroke: none; stroke-width: 7.53281; stroke-linecap: round; stroke-linejoin: bevel; stroke-miterlimit: 4; stroke-dasharray: none; stroke-dashoffset: 0; stroke-opacity: 1; fill: rgb(20, 20, 20);" id="path7107" d="M 327.769 56.976 C 327.799 83.225 299.403 99.664 276.657 86.566 C 266.075 80.473 259.559 69.186 259.573 56.976 C 259.542 30.727 287.938 14.289 310.685 27.387 C 321.267 33.48 327.783 44.766 327.769 56.976 Z"/>
  <path style="fill-opacity: 1; fill-rule: evenodd; stroke: none; fill: rgb(255, 255, 255);" id="path10018" d="M 320.866 56.995 C 320.854 77.93 298.184 91.001 280.059 80.523 C 271.658 75.665 266.48 66.698 266.476 56.995 C 266.463 36.059 289.118 22.961 307.254 33.418 C 315.681 38.278 320.872 47.267 320.866 56.995 Z"/>
  <path style="fill-opacity: 1; fill-rule: evenodd; stroke: none; stroke-width: 5.53849; stroke-linecap: round; stroke-linejoin: bevel; stroke-miterlimit: 4; stroke-dasharray: none; stroke-dashoffset: 0; stroke-opacity: 1; fill: rgb(255, 255, 255);" id="path5167" d="M 249.575 131.702 C 249.582 152.718 226.836 165.861 208.631 155.359 C 200.177 150.482 194.969 141.462 194.974 131.702 C 194.966 110.685 217.712 97.542 235.916 108.045 C 244.371 112.922 249.578 121.941 249.575 131.702 Z"/>
  <path style="fill-opacity: 1; fill-rule: evenodd; stroke: none; stroke-width: 5.53849; stroke-linecap: round; stroke-linejoin: bevel; stroke-miterlimit: 4; stroke-dasharray: none; stroke-dashoffset: 0; stroke-opacity: 1; fill: rgb(20, 20, 20);" id="path5167-9" d="M 242.656 131.702 C 242.656 147.869 225.671 157.974 212.082 149.89 C 205.776 146.138 201.891 139.206 201.891 131.702 C 201.891 115.534 218.877 105.43 232.466 113.513 C 238.772 117.265 242.656 124.198 242.656 131.702 Z"/>
  <path style="color: rgb(0, 0, 0); clip-rule: nonzero; display: inline; overflow: visible; visibility: visible; opacity: 1; isolation: auto; mix-blend-mode: normal; color-interpolation: sRGB; color-interpolation-filters: linearRGB; fill-opacity: 1; fill-rule: evenodd; stroke: none; stroke-width: 5.53849; stroke-linecap: round; stroke-linejoin: bevel; stroke-miterlimit: 4; stroke-dasharray: none; stroke-dashoffset: 0; stroke-opacity: 1; color-rendering: auto; image-rendering: auto; shape-rendering: auto; text-rendering: auto; fill: rgb(255, 255, 255);" id="path2252" d="M 74.76 60.381 C 74.765 81.398 52.017 94.538 33.813 84.035 C 25.361 79.157 20.154 70.139 20.157 60.381 C 20.153 39.365 42.9 26.224 61.103 36.729 C 69.555 41.605 74.762 50.623 74.76 60.381 Z"/>
  <path d="M 67.955 60.381 C 67.959 75.682 50.882 85.249 37.215 77.603 C 30.87 74.052 26.96 67.487 26.963 60.381 C 26.958 45.08 44.036 35.513 57.701 43.159 C 64.048 46.71 67.956 53.277 67.955 60.381 Z" id="path4188" style="color: rgb(0, 0, 0); clip-rule: nonzero; display: inline; overflow: visible; visibility: visible; opacity: 1; isolation: auto; mix-blend-mode: normal; color-interpolation: sRGB; color-interpolation-filters: linearRGB; fill-opacity: 1; fill-rule: evenodd; stroke: none; stroke-width: 5.53849; stroke-linecap: round; stroke-linejoin: bevel; stroke-miterlimit: 4; stroke-dasharray: none; stroke-dashoffset: 0; stroke-opacity: 1; color-rendering: auto; image-rendering: auto; shape-rendering: auto; text-rendering: auto; fill: rgb(20, 20, 20);"/>
  <rect width="219.515" height="35.283" rx="13.681" x="51.308" y="20.625" transform="matrix(0.925867, 0.377849, -0.377849, 0.925867, 0.000009, 0)" id="rect4196" style="fill-opacity: 1; fill-rule: evenodd; stroke: none; fill: rgb(255, 255, 255);"/>
  <path d="M 387.513 43.184 L 387.513 53.757 C 385.033 52.53 382.612 51.603 380.253 50.979 C 377.892 50.355 375.664 50.042 373.565 50.042 C 370.783 50.042 368.724 50.466 367.393 51.314 C 366.062 52.161 365.396 53.478 365.396 55.263 C 365.396 56.599 365.839 57.648 366.727 58.407 C 367.635 59.143 369.269 59.778 371.629 60.314 L 376.592 61.417 C 381.614 62.533 385.184 64.229 387.303 66.503 C 389.42 68.779 390.478 72.013 390.478 76.205 C 390.478 81.716 388.996 85.819 386.031 88.518 C 383.086 91.195 378.578 92.533 372.507 92.533 C 369.643 92.533 366.767 92.231 363.883 91.63 C 360.998 91.028 358.114 90.135 355.229 88.953 L 355.229 78.08 C 358.114 79.775 360.898 81.057 363.581 81.928 C 366.284 82.775 368.887 83.198 371.387 83.198 C 373.929 83.198 375.875 82.73 377.227 81.793 C 378.578 80.856 379.253 79.519 379.253 77.778 C 379.253 76.218 378.79 75.013 377.862 74.165 C 376.954 73.318 375.128 72.559 372.386 71.89 L 367.878 70.787 C 363.359 69.716 360.05 68.009 357.953 65.667 C 355.875 63.326 354.837 60.169 354.837 56.198 C 354.837 51.226 356.289 47.399 359.194 44.722 C 362.098 42.047 366.273 40.708 371.72 40.708 C 374.202 40.708 376.753 40.921 379.374 41.344 C 381.997 41.745 384.71 42.358 387.513 43.184 Z" style="fill-opacity: 1; fill: rgb(255, 255, 255);" id="path4150"/>
  <path d="M 399.471 41.612 L 441.104 41.612 L 441.104 51.348 L 426.127 51.348 L 426.127 91.564 L 414.478 91.564 L 414.478 51.348 L 399.471 51.348 L 399.471 41.612 Z" style="fill-opacity: 1; fill: rgb(255, 255, 255);" id="path4152"/>
  <path d="M 451.216 41.612 L 482.652 41.612 L 482.652 51.348 L 462.865 51.348 L 462.865 60.649 L 481.472 60.649 L 481.472 70.385 L 462.865 70.385 L 462.865 81.827 L 483.319 81.827 L 483.319 91.564 L 451.216 91.564 L 451.216 41.612 Z" style="fill-opacity: 1; fill: rgb(255, 255, 255);" id="path4154"/>
  <path d="M 525.108 82.462 L 506.893 82.462 L 504.02 91.564 L 492.31 91.564 L 509.042 41.612 L 522.93 41.612 L 539.662 91.564 L 527.953 91.564 L 525.108 82.462 Z M 509.798 73.195 L 522.174 73.195 L 516.001 53.321 L 509.798 73.195 Z" style="fill-opacity: 1; fill: rgb(255, 255, 255);" id="path4156"/>
  <path d="M 549.743 41.612 L 564.57 41.612 L 574.856 68.344 L 585.204 41.612 L 600 41.612 L 600 91.564 L 588.986 91.564 L 588.986 55.027 L 578.578 81.961 L 571.195 81.961 L 560.787 55.027 L 560.787 91.564 L 549.743 91.564 L 549.743 41.612 Z" style="fill-opacity: 1; fill: rgb(255, 255, 255);" id="path4158"/>
  <g id="g4215" transform="matrix(1.549143, 0, 0, 1.549143, 0, 0)">
    <g id="g4199">
      <g id="g4186"/>
    </g>
    <g id="g4206">
      <g id="g4191"/>
      <g id="g4195"/>
    </g>
  </g>
  <g transform="matrix(1.473188, 0, 0, 1.629013, 0, 0)" style="font-style:normal;font-variant:normal;font-weight:bold;font-stretch:normal;font-size:42.06233215px;line-height:125%;font-family:'Bitstream Vera Sans';-inkscape-font-specification:'Bitstream Vera Sans Bold';letter-spacing:2.79714489px;word-spacing:0px;fill:#171a21;fill-opacity:1;stroke:none;stroke-width:1px;stroke-linecap:butt;stroke-linejoin:miter;stroke-opacity:1" id="text4156"/>
</svg>