<?xml version="1.0" encoding="utf-8"?>
<svg viewBox="0 0 200 40" xmlns="http://www.w3.org/2000/svg">
  <g transform="matrix(0.033284, 0, 0, 0.035943, 21.600298, 8.201198)">
    <g>
      <path d="M573.864,323.679l25.6-201.737L409.988,50.046L197.993,151.289L0,67.678l27.935,220.105L2.223,506.009l208.665,39.135&#10;&#9;&#9;&#9;l200.136-38.125l189.865,43.823L573.864,323.679z M210.855,522.625L26.64,488.076l23.732-199.335L26.803,103.007l171.761,72.543&#10;&#9;&#9;&#9;L410.987,74.083l164.331,62.361l-23.755,187.142l23.648,198.602l-163.764-37.782L210.855,522.625z" style="fill: rgb(204, 204, 204);"/>
      <path d="M506.021,405.449c-5.509,0-10.604,1.596-15.049,4.167c-17.531-12.832-35.583-27.904-36.47-47.735&#10;&#9;&#9;&#9;c-1.217-27.195,15.439-53.227-3.623-78.182c-18.625-24.382-66.301-7.944-84.73-26.264c2.873-4.617,4.593-10.01,4.593-15.844&#10;&#9;&#9;&#9;c0-16.671-13.519-30.192-30.187-30.192c-16.68,0-30.192,13.515-30.192,30.192c0,9.561,4.534,17.98,11.467,23.513&#10;&#9;&#9;&#9;c-2.907,7.358-4.729,15.167-5.048,23.141c-0.496,12.596,3.121,25.126,0.391,37.634c-2.252,10.391-16.875,9.729-24.757,9.788&#10;&#9;&#9;&#9;c-19.875,0.177-48.202-3.57-61.023,10.462c-3.783-2.843-8.207-4.812-13.077-5.621c-2.87-25.848,2.098-51.102-20.824-70.985&#10;&#9;&#9;&#9;c-14.736-12.794-38.846-18.344-52.438-32.719c2.873-4.619,4.61-10.031,4.61-15.871c0-16.674-13.515-30.198-30.189-30.198&#10;&#9;&#9;&#9;c-16.668,0-30.192,13.515-30.192,30.198c0,16.668,13.515,30.183,30.192,30.183c5.562,0,10.707-1.604,15.179-4.229&#10;&#9;&#9;&#9;c10.048,10.083,23.915,16.784,36.892,23.56c16.529,8.627,28.844,19.698,31.108,39.283c1.241,10.734,0.762,21.291,1.46,31.854&#10;&#9;&#9;&#9;c-12.135,3.918-20.978,15.16-20.978,28.602c0,16.681,13.515,30.192,30.195,30.192c16.668,0,30.189-13.512,30.189-30.192&#10;&#9;&#9;&#9;c0-3.942-0.81-7.701-2.189-11.159c10.024-18.063,56.066-5.745,73.423-11.55c12.644-4.238,17.13-16.083,18.247-28.365&#10;&#9;&#9;&#9;c1.063-11.473-2.637-22.757-0.91-34.283c0.686-4.69,1.867-9.224,3.439-13.55c1.644,0.271,3.311,0.502,5.024,0.502&#10;&#9;&#9;&#9;c5.308,0,10.22-1.489,14.559-3.904c18.684,18.713,55.768,6.174,79.328,20.271c28.017,16.754-0.792,64.046,8.051,89.309&#10;&#9;&#9;&#9;c6.123,17.472,22.13,30.499,37.994,42.232c-2.902,4.64-4.664,10.084-4.664,15.953c0,16.681,13.507,30.192,30.198,30.192&#10;&#9;&#9;&#9;c16.657,0,30.192-13.512,30.192-30.192C536.213,418.979,522.689,405.449,506.021,405.449z" style="fill: rgb(204, 204, 204);"/>
    </g>
  </g>
  <path d="M 45.32 28.87 L 45.32 28.87 L 47 23.92 L 47 23.92 C 48.68 24.38 50.22 24.61 51.62 24.61 L 51.62 24.61 L 51.62 24.61 C 53.02 24.61 54.15 24.55 55.01 24.43 L 55.01 24.43 L 55.25 22.93 L 52.76 22.69 L 52.76 22.69 C 50.86 22.51 49.513 22.08 48.72 21.4 L 48.72 21.4 L 48.72 21.4 C 47.933 20.72 47.54 19.76 47.54 18.52 L 47.54 18.52 L 47.54 18.52 C 47.54 17.98 47.6 17.38 47.72 16.72 L 47.72 16.72 L 47.72 16.72 C 48.18 14.16 49.013 12.4 50.22 11.44 L 50.22 11.44 L 50.22 11.44 C 51.433 10.48 53.31 10 55.85 10 L 55.85 10 L 55.85 10 C 58.39 10 60.63 10.25 62.57 10.75 L 62.57 10.75 L 61.01 15.55 L 61.01 15.55 C 59.27 15.25 57.87 15.1 56.81 15.1 L 56.81 15.1 L 56.81 15.1 C 55.75 15.1 54.85 15.15 54.11 15.25 L 54.11 15.25 L 53.87 16.72 L 55.88 16.93 L 55.88 16.93 C 57.92 17.15 59.37 17.637 60.23 18.39 L 60.23 18.39 L 60.23 18.39 C 61.09 19.137 61.52 20.14 61.52 21.4 L 61.52 21.4 L 61.52 21.4 C 61.52 22.68 61.24 24 60.68 25.36 L 60.68 25.36 L 60.68 25.36 C 60.4 26.06 60.093 26.647 59.76 27.12 L 59.76 27.12 L 59.76 27.12 C 59.433 27.587 59.013 27.983 58.5 28.31 L 58.5 28.31 L 58.5 28.31 C 57.993 28.643 57.53 28.893 57.11 29.06 L 57.11 29.06 L 57.11 29.06 C 56.69 29.233 56.16 29.36 55.52 29.44 L 55.52 29.44 L 55.52 29.44 C 54.58 29.58 53.43 29.65 52.07 29.65 L 52.07 29.65 L 52.07 29.65 C 49.59 29.65 47.34 29.39 45.32 28.87 Z M 79.01 10.45 L 78.14 15.25 L 74 15.25 L 71.57 29.2 L 65.87 29.2 L 68.3 15.25 L 64.19 15.25 L 65.06 10.45 L 79.01 10.45 Z M 91.67 22.96 L 93.65 29.2 L 87.38 29.2 L 86 23.62 L 84.77 23.62 L 83.81 29.2 L 78.11 29.2 L 81.41 10.45 L 90.41 10.45 L 90.41 10.45 C 93.83 10.45 95.54 11.98 95.54 15.04 L 95.54 15.04 L 95.54 15.04 C 95.54 16.3 95.35 17.5 94.97 18.64 L 94.97 18.64 L 94.97 18.64 C 94.27 20.8 93.17 22.24 91.67 22.96 L 91.67 22.96 Z M 87.38 15.25 L 86.24 15.25 L 85.58 19 L 86.9 19 L 86.9 19 C 87.58 19 88.093 18.927 88.44 18.78 L 88.44 18.78 L 88.44 18.78 C 88.793 18.627 89.033 18.197 89.16 17.49 L 89.16 17.49 L 89.16 17.49 C 89.293 16.777 89.36 16.34 89.36 16.18 L 89.36 16.18 L 89.36 16.18 C 89.36 15.78 89.207 15.523 88.9 15.41 L 88.9 15.41 L 88.9 15.41 C 88.587 15.303 88.08 15.25 87.38 15.25 L 87.38 15.25 Z M 101.51 26.23 L 100.34 29.2 L 94.34 29.2 L 102.23 10.45 L 111.05 10.45 L 112.37 29.2 L 106.34 29.2 L 106.22 26.23 L 101.51 26.23 Z M 105.77 16.21 L 105.47 16.21 L 103.37 21.46 L 105.77 21.46 L 105.77 16.21 Z M 129.2 10.45 L 128.33 15.25 L 124.19 15.25 L 121.76 29.2 L 116.06 29.2 L 118.49 15.25 L 114.38 15.25 L 115.25 10.45 L 129.2 10.45 Z M 141.71 17.77 L 140.93 22.12 L 135.23 22.12 L 134.84 24.4 L 141.83 24.4 L 140.99 29.2 L 128.3 29.2 L 131.6 10.45 L 144.14 10.45 L 142.58 15.25 L 136.43 15.25 L 136.01 17.77 L 141.71 17.77 Z M 154.4 23.68 L 154.4 23.68 L 154.55 22.87 L 153.11 22.87 L 153.92 18.28 L 160.79 18.28 L 159.02 28.3 L 159.02 28.3 C 156.58 29.2 154.13 29.65 151.67 29.65 L 151.67 29.65 L 151.67 29.65 C 149.21 29.65 147.433 29.16 146.34 28.18 L 146.34 28.18 L 146.34 28.18 C 145.253 27.2 144.71 25.69 144.71 23.65 L 144.71 23.65 L 144.71 23.65 C 144.71 22.79 144.85 21.52 145.13 19.84 L 145.13 19.84 L 145.13 19.84 C 145.73 16.36 146.79 13.85 148.31 12.31 L 148.31 12.31 L 148.31 12.31 C 149.83 10.77 152.35 10 155.87 10 L 155.87 10 L 155.87 10 C 156.61 10 157.553 10.08 158.7 10.24 L 158.7 10.24 L 158.7 10.24 C 159.853 10.4 160.7 10.58 161.24 10.78 L 161.24 10.78 L 159.59 15.37 L 159.59 15.37 C 158.09 15.09 156.713 14.95 155.46 14.95 L 155.46 14.95 L 155.46 14.95 C 154.213 14.95 153.32 15.05 152.78 15.25 L 152.78 15.25 L 152.78 15.25 C 152.24 15.45 151.92 15.85 151.82 16.45 L 151.82 16.45 L 150.35 24.94 L 152.24 24.94 L 152.24 24.94 C 152.92 24.94 153.423 24.867 153.75 24.72 L 153.75 24.72 L 153.75 24.72 C 154.083 24.567 154.3 24.22 154.4 23.68 Z M 162.44 10.45 L 168.74 10.45 L 169.13 17.05 L 169.34 17.05 L 172.1 10.45 L 178.4 10.45 L 170.84 24.1 L 169.97 29.2 L 164.27 29.2 L 165.14 24.1 L 162.44 10.45 Z" style="white-space: pre; fill: rgb(255, 255, 255);"/>
</svg>