<?xml version="1.0" encoding="utf-8"?>
<svg version="1.1" xmlns="http://www.w3.org/2000/svg">
  <path id="path4994-4" style="color: rgb(0, 0, 0); display: inline; overflow: visible; visibility: visible; fill-opacity: 1; fill-rule: evenodd; stroke: none; fill: rgb(255, 255, 255);" d="M 442.942 179.277 C 441.776 178.588 438.937 176.203 436.638 173.976 C 431.635 169.127 430.051 168.591 427.239 170.797 C 425.489 172.168 425.212 172.82 425.356 175.191 C 425.448 176.722 425.257 177.977 424.94 177.977 C 423.692 177.977 419.91 173.424 418.225 169.89 C 414.782 162.671 414.222 155.777 416.899 153.622 C 417.649 153.018 419.639 152.762 422.826 152.855 C 429.578 153.053 433.088 155.079 440.897 163.285 C 447.408 170.129 448.376 170.639 452.177 169.239 C 454.673 168.32 454.91 166.365 453.359 159.445 C 451.853 152.742 450.414 148.978 448.878 147.745 C 448.048 147.077 447.612 147.33 446.453 149.147 C 445.674 150.363 444.098 152.234 442.946 153.299 L 440.854 155.238 L 433.706 150.958 C 429.774 148.602 424.088 145.713 421.073 144.534 C 418.059 143.356 415.313 142.123 414.973 141.793 C 414.077 140.925 414.14 138.829 415.324 130.134 C 416.76 119.546 416.792 91.17 415.394 87.348 C 414.846 85.865 414.387 84.437 414.382 84.175 C 414.312 83.402 417.647 80.556 426.531 73.637 C 434.282 67.604 443.063 59.666 445.787 56.233 C 447.648 53.89 449.588 54.937 451.953 59.559 C 454.974 65.458 458.374 69.812 466.001 77.55 C 469.729 81.331 472.78 84.974 472.78 85.642 C 472.78 86.31 471.949 87.384 470.935 88.027 L 469.087 89.2 L 469.558 103.436 C 469.818 111.264 470.325 120.701 470.685 124.407 C 471.742 135.324 471.552 148.212 470.277 152.417 C 466.329 165.382 456.281 177.536 447.579 179.862 C 445.551 180.404 444.699 180.299 442.97 179.28 L 442.942 179.277 Z M 448.764 110.931 C 448.764 86.927 448.695 86.641 447.151 83.504 C 445.593 80.439 441.461 76.23 440.011 76.23 C 439.624 76.23 438.789 77.368 438.16 78.758 C 437.187 80.903 436.975 84.834 436.751 104.866 L 436.484 128.451 L 438.3 130.804 C 440.554 133.722 443.929 135.551 446.674 135.346 L 448.761 135.185 L 448.764 110.931 Z M 63.36 162.111 C 62.515 161.541 60.819 159.644 59.592 157.899 C 57.261 154.599 52.79 150.031 48.82 146.718 C 47.21 145.375 45.685 144.236 44.419 143.471 C 38.27 139.764 28.35 136.911 24.695 137.801 C 20.704 138.772 19.216 142.378 20.712 147.442 C 21.499 150.095 20.369 150.733 17.795 149.095 C 11.977 145.398 5.48 132.693 5.478 125.014 C 5.478 118.385 6.374 116.792 11.324 114.617 C 19.342 111.094 25.479 110.635 38.441 112.591 C 44.263 113.467 45.33 113.188 47.165 110.313 C 49.781 106.209 49.382 105.694 41.115 102.507 C 18.632 93.84 4.387 82.786 1.038 71.41 C -0.505 66.171 -0.381 64.037 1.771 58.826 C 6.265 47.933 14.921 35.96 39.361 6.826 L 44.166 1.101 L 48.767 0.897 C 52.516 0.736 54.696 1.127 60.539 3.019 C 64.484 4.295 69.127 5.934 70.853 6.662 C 81.007 10.944 90.259 12.696 93.593 10.966 C 94.412 10.545 99.462 3.512 100.279 2.399 C 102.316 -0.373 105.484 -1.057 108.286 2.034 C 113.345 9.719 102.138 35.332 93.456 47.225 C 91.29 50.072 91.239 51.587 93.266 52.96 C 106.949 62.235 110.885 65.174 115.361 69.466 C 118.269 72.255 121.97 76.697 123.585 79.334 C 127.6 85.895 128.364 90.181 127.268 99.991 C 125.747 113.599 122.373 122.174 116.596 127.115 C 100.249 141.096 77.974 157.374 69.643 161.429 C 65.505 163.441 65.358 163.459 63.36 162.104 L 63.36 162.111 Z M 95.361 133.134 C 98.254 131.076 100.8 128.935 101.024 128.374 C 101.55 127.036 99.7 123.627 97.375 121.666 C 96.358 120.809 93.644 119.209 91.342 118.115 C 87.351 116.217 84.132 115.195 68.5 110.873 L 61.638 108.976 L 58.939 111.781 C 56.182 114.644 55.479 117.237 57.108 118.533 C 57.585 118.913 59.635 119.748 61.661 120.389 C 67.054 122.091 79.893 130.61 84.336 135.434 C 86.624 137.92 89.464 137.329 95.361 133.134 L 95.361 133.134 Z M 114.231 109.855 C 115.316 103.282 112.475 97.509 104.307 89.688 C 97.526 83.194 89.261 78.05 83.656 76.833 C 79.13 75.852 78.304 76.151 76.087 79.552 C 73.585 83.394 73.758 85.155 76.776 86.549 C 78.127 87.175 79.81 87.684 80.514 87.684 C 83.327 87.684 96.782 93.997 101.791 97.665 C 104.492 99.641 105.967 101.536 108.603 106.403 C 110.452 109.82 112.374 112.614 112.872 112.614 C 113.392 112.614 113.969 111.445 114.231 109.855 L 114.231 109.855 Z M 62.152 81.106 C 64.225 79.63 67.365 75.296 67.365 73.908 C 67.365 71.814 62.983 69.71 56.078 68.491 C 49.37 67.305 45.845 66.163 39.35 63.071 C 32.643 59.876 23.027 52.488 21.219 49.14 C 19.416 45.806 17.677 46.598 17.049 51.041 C 16.458 55.203 18.252 58.204 25.087 64.495 C 29.627 68.673 40.342 75.556 42.308 75.556 C 42.717 75.556 43.59 75.845 44.255 76.196 C 48.093 78.234 57.224 81.185 60.758 81.53 C 61.139 81.6 61.767 81.375 62.152 81.102 L 62.152 81.106 Z M 81.076 47.087 C 83.084 44.975 85.444 40.479 85.444 38.774 C 85.444 37.432 84.986 37.326 77.62 36.938 C 68.502 36.458 66.765 35.982 53.898 30.441 C 42.477 25.522 38.714 24.836 35.084 27.009 C 30.658 29.662 30.849 33.777 35.527 36.562 C 40.8 39.7 51.28 42.717 70.389 46.595 C 73.775 47.283 76.722 48.016 76.936 48.226 C 77.79 49.053 79.708 48.528 81.075 47.087 L 81.076 47.087 Z M 319.477 158.05 C 318.908 157.501 315.826 153.797 312.627 149.824 C 301.736 136.298 300.329 133.563 303.032 131.193 C 304.455 129.946 304.478 129.446 304.478 100.338 C 304.478 81.231 304.225 70.289 303.758 69.448 C 303.294 68.608 302.303 68.145 300.978 68.145 C 296.778 68.145 298.354 65.516 313.161 47.833 C 315.843 44.628 318.947 40.725 320.057 39.159 L 322.075 36.309 L 323.282 37.86 C 324.822 39.838 325.339 43.586 325.339 52.764 C 325.339 60.879 325.423 61.044 330.901 64.34 C 334.383 66.434 335.784 69.708 336.262 76.875 C 336.742 84.047 336.348 84.333 330.779 80.871 C 325.09 77.334 325.259 76.547 325.488 105.364 L 325.686 130.254 L 327.638 131.878 C 328.71 132.771 330.352 133.505 331.287 133.505 C 332.339 133.505 332.987 133.89 332.987 134.52 C 332.987 135.412 330.275 141.556 324.156 154.528 C 322.171 158.735 321.054 159.578 319.477 158.049 L 319.477 158.05 Z M 151.794 155.907 C 150.718 154.517 149.654 153.23 149.433 153.044 C 148.511 152.274 139.834 141.071 138.47 138.887 C 135.533 134.189 135.338 132.965 137.26 131.348 L 138.985 129.891 L 138.985 101.545 C 138.985 83.973 138.703 72.238 138.257 70.671 C 137.595 68.374 137.316 68.145 135.133 68.145 C 133.812 68.145 132.731 67.954 132.731 67.722 C 132.731 66.339 137.779 59.269 143.999 51.945 C 147.947 47.294 152.249 41.874 153.558 39.896 L 155.94 36.299 L 157.547 38.11 C 159.069 39.825 159.155 40.445 159.155 49.872 C 159.155 61.002 159.007 60.632 164.979 64.101 C 168.458 66.12 169.988 69.563 170.599 76.741 C 171.183 83.615 170.507 84.145 165.224 80.963 C 159.262 77.369 159.504 76.383 159.504 104.337 C 159.504 123.698 159.7 128.937 160.465 130.327 C 161.332 131.896 162.48 132.575 166.281 133.757 C 167.421 134.109 167.409 134.363 166.069 137.844 C 165.282 139.884 163.459 143.912 162.017 146.793 C 160.579 149.676 158.798 153.474 158.062 155.232 C 156.366 159.294 154.577 159.488 151.805 155.907 L 151.794 155.907 Z M 568.022 154.456 C 563.039 149.427 559.948 148.373 556.015 150.361 C 554.561 151.097 553.078 151.697 552.723 151.697 C 551.683 151.697 549.157 148.845 548.115 146.496 C 547.178 144.38 547.305 144.034 553.29 132.345 C 556.667 125.756 559.611 119.672 559.837 118.827 C 560.372 116.827 558.618 115.705 552.708 114.266 C 546.204 112.679 546.134 112.565 547.616 105.813 C 548.958 99.687 549.4 81.739 548.304 77.834 C 547.616 75.386 547.678 75.316 554.108 71.35 C 559.514 68.02 568.029 59.912 569.336 56.857 C 570.558 53.995 571.602 54.095 574.243 57.321 C 575.766 59.185 577.582 60.402 580.331 61.399 C 585.077 63.118 587.587 62.96 588.528 60.876 C 589.623 58.46 591.091 59.382 593.581 64.046 C 595.365 67.384 595.785 68.838 595.43 70.441 C 595.085 72.007 587.645 87.756 585.621 91.205 C 585.459 91.481 586.366 92.309 587.626 93.056 C 589.365 94.084 591.136 94.412 594.96 94.413 L 600 94.413 L 599.931 96.604 C 599.861 97.808 599.453 99.381 598.89 100.102 C 598.114 101.096 597.867 103.509 597.867 110.163 C 597.867 114.978 597.514 121.608 597.076 124.899 C 596.486 129.374 596.486 131.076 597.076 131.65 C 599.44 133.94 596.633 137.932 588.879 143.311 C 585.648 145.554 581.373 149.432 578.457 152.769 C 575.737 155.88 573.153 158.426 572.715 158.426 C 572.281 158.426 570.145 156.635 567.977 154.447 L 568.022 154.456 Z M 577.456 132.47 C 578.231 130.675 578.437 127.825 578.291 120.918 C 578.128 113.046 577.925 111.644 576.88 111.007 C 576.027 110.486 575.321 110.472 574.51 110.937 C 573.436 111.592 569.384 118.463 568.481 121.156 C 568.263 121.81 566.972 124.325 565.617 126.733 C 564.262 129.142 563.153 131.782 563.15 132.6 C 563.15 133.975 563.523 134.104 568.189 134.32 C 570.963 134.447 573.949 134.607 574.829 134.685 C 576.063 134.791 576.667 134.27 577.456 132.437 L 577.456 132.47 Z M 573.037 96.275 C 574.926 94.849 581.227 83.472 581.227 81.486 C 581.227 79.829 580.691 79.378 576.612 77.585 C 571.879 75.506 570.42 75.175 569.868 76.061 C 569.7 76.335 569.335 80.681 569.055 85.709 C 568.612 93.786 568.691 94.983 569.724 95.985 C 571.121 97.341 571.572 97.38 573.035 96.274 L 573.037 96.275 Z M 249.286 154.036 C 247.161 152.36 245.176 150.571 244.877 150.061 C 244.574 149.548 242.675 147.414 240.653 145.311 C 235.985 140.464 235.64 138.819 235.635 121.452 C 235.634 114.183 235.303 107.109 234.913 105.735 C 234.443 104.074 233.152 102.403 231.093 100.769 C 228.003 98.313 226.888 95.348 228.859 94.824 C 229.338 94.697 231.448 94.211 233.553 93.746 C 241.073 92.082 241.454 90.559 234.838 88.59 C 231.747 87.671 230.405 86.883 229.691 85.566 C 228.808 83.937 228.904 83.436 230.781 79.838 C 236.215 69.411 252.091 52.647 256.531 52.647 C 259.156 52.647 265.911 57.251 271.45 62.812 C 276.544 67.929 283.38 72.703 286.484 73.311 C 289.079 73.818 291.587 78.278 290.901 81.162 C 290.62 82.341 290.17 93.16 289.9 105.203 C 289.633 117.248 289.166 127.785 288.867 128.619 C 288.395 129.929 288.558 130.134 290.067 130.134 C 294.287 130.134 292.732 134.22 284.42 144.959 C 278.197 153 275.061 156.109 273.882 155.403 C 273.439 155.136 271.993 153.284 270.675 151.286 C 269.29 149.189 267.773 147.658 267.082 147.662 C 266.427 147.662 263.261 149.787 260.052 152.378 C 256.842 154.968 253.978 157.086 253.684 157.086 C 253.388 157.086 251.411 155.716 249.286 154.036 L 249.286 154.036 Z M 265.816 135.97 L 267.972 133.381 L 268.176 112.11 C 268.288 100.411 268.107 90.586 267.797 90.278 C 266.995 89.501 258.327 92.838 256.745 94.53 C 255.585 95.771 255.432 97.448 255.224 111.158 C 254.921 130.584 255.154 132.544 258.364 136.16 C 261.379 139.573 262.843 139.535 265.816 135.97 L 265.816 135.97 Z M 257.636 82.674 C 261.473 80.912 264.147 79.281 264.147 78.702 C 261.516 73.324 250.522 68.469 246.088 71.501 C 243.438 73.329 242.886 75.435 244.005 79.459 C 245.076 83.318 247.122 85.662 249.414 85.662 C 250.353 85.662 254.055 84.319 257.636 82.674 L 257.636 82.674 Z M 364.963 155.414 C 363.628 154.494 359.908 150.978 356.696 147.605 C 352.08 142.755 350.739 140.881 350.296 138.664 C 349.987 137.123 349.72 129.799 349.705 122.386 C 349.636 114.974 349.346 107.777 348.949 106.392 C 348.506 104.848 346.875 102.583 344.732 100.539 C 341.679 97.629 341.335 97.028 342.006 95.813 C 342.427 95.049 343.419 94.424 344.207 94.424 C 344.995 94.424 347.332 93.945 349.397 93.365 C 354.735 91.859 354.568 90.262 348.9 88.614 C 346.151 87.817 344.263 86.823 343.581 85.814 C 342.609 84.376 342.658 83.964 344.193 80.763 C 347.515 73.815 359.694 59.261 365.846 54.885 C 368.629 52.904 369.596 52.565 371.426 52.919 C 374.712 53.558 378.499 56.276 385.647 63.134 C 391.54 68.785 398.659 73.536 401.238 73.536 C 402.769 73.536 405.582 79.289 404.933 81.097 C 404.63 81.94 404.156 92.486 403.881 104.53 C 403.607 116.575 403.159 127.237 402.885 128.227 C 402.464 129.769 402.625 130.055 404.024 130.249 C 407.07 130.67 406.538 133.593 402.296 139.76 C 397.443 146.817 389.455 155.894 388.394 155.559 C 387.951 155.418 386.393 153.656 384.942 151.646 C 383.491 149.636 381.85 147.892 381.296 147.774 C 380.135 147.52 377.765 149.069 372.114 153.755 C 369.911 155.581 367.95 157.077 367.755 157.081 C 367.557 157.081 366.308 156.334 364.971 155.414 L 364.963 155.414 Z M 378.677 137.378 C 382.275 133.566 382.356 132.979 382.356 111.003 C 382.356 99.704 382.096 90.299 381.759 90.103 C 381.07 89.688 372.861 92.69 371.063 94.009 C 369.25 95.339 368.172 106.69 368.687 119.017 C 369.194 131.234 369.754 133.671 372.701 136.619 C 375.368 139.284 376.714 139.456 378.674 137.378 L 378.677 137.378 Z M 366.2 85.055 C 366.862 84.717 369.665 83.449 372.426 82.231 C 375.185 81.012 377.586 79.655 377.762 79.21 C 375.98 73.013 363.451 68.649 359.463 71.909 C 357.071 73.862 356.718 76.234 358.224 80.273 C 359.869 84.684 360.723 85.662 362.92 85.662 C 364.061 85.662 365.535 85.389 366.2 85.051 L 366.2 85.055 Z M 192.037 154.898 C 190.132 152.878 177.229 134.122 177.229 133.375 C 177.229 133.051 177.899 130.903 178.715 128.597 C 180.083 124.738 180.228 122.624 180.545 101.786 L 180.891 79.163 L 179.06 77.768 C 178.055 77.001 177.23 76.005 177.23 75.556 C 177.23 74.793 183.092 66.297 189.185 58.228 C 190.697 56.226 192.225 54.857 192.734 55.046 C 193.226 55.229 194.239 56.926 194.99 58.819 C 196.624 62.953 200.872 67.873 202.335 67.328 C 203.747 66.802 207.082 62 208.177 58.914 C 208.676 57.506 209.447 56.353 209.889 56.353 C 210.748 56.353 222.364 77.262 222.403 78.877 C 222.473 79.407 220.638 82.106 218.45 84.874 C 212.294 92.663 211.816 92.962 210.458 89.875 C 210.014 88.855 208.094 85.956 206.204 83.432 C 203.748 80.157 202.55 79.052 202.016 79.568 C 201.509 80.061 201.26 89.082 201.243 107.741 L 201.174 135.188 L 203.086 137.872 C 205.742 141.599 205.545 143.015 201.977 145.847 C 199.713 147.644 198.569 149.269 197.42 152.329 C 195.714 156.863 194.419 157.474 191.991 154.898 L 192.037 154.898 Z M 499.87 151.114 C 497.001 148.285 491.884 143.544 488.496 140.579 L 482.339 135.188 L 482.446 109.583 C 482.516 95.5 482.84 82.765 483.187 81.284 C 483.723 79.032 483.608 78.382 482.54 77.335 C 481.461 76.279 481.367 75.69 481.957 73.628 C 484.131 65.985 493.004 53.206 495.273 54.449 C 496.748 55.258 502.314 59.611 504.919 61.992 C 508.08 64.88 508.219 66.678 505.608 70.839 L 503.704 73.87 L 503.508 100.645 C 503.36 119.388 503.577 127.841 504.076 128.822 C 505.01 130.51 510.787 134.177 512.512 134.177 C 513.187 134.177 514.068 133.594 514.464 132.874 C 514.927 132.031 515.177 121.147 515.166 102.047 L 515.097 72.523 L 513.03 70.558 C 509.713 67.404 510.199 65.872 516.472 59.722 C 519.495 56.757 522.292 54.331 522.686 54.331 C 523.394 54.331 531.235 63.47 535.812 69.63 C 537.63 72.077 538.012 73.074 537.497 74.008 C 536.189 76.378 535.3 90.208 535.3 108.21 C 535.3 124.933 535.413 126.697 536.643 129.033 C 537.969 131.552 537.969 131.627 536.643 134.603 C 534.889 138.568 530.13 146.392 526.672 150.995 L 523.909 154.673 L 521.612 149.984 C 520.348 147.405 518.682 144.878 517.91 144.367 C 516.634 143.523 516.292 143.655 514.251 145.755 C 513.013 147.029 511.06 149.934 509.912 152.207 C 508.367 155.269 507.465 156.331 506.435 156.3 C 505.656 156.231 502.746 153.993 499.828 151.114 L 499.87 151.114 Z"/>
</svg>