<?xml version="1.0" encoding="utf-8"?>
<svg version="1.1" xmlns="http://www.w3.org/2000/svg">
  <g>
    <path d="M 501.492 135.357 C 497.265 136.764 492.591 137.706 487.899 138.645 C 478.977 140.523 468.621 143.346 457.827 146.166 C 446.559 148.98 434.349 152.274 422.151 155.562 C 416.514 157.44 411.375 159.291 405.729 160.698 C 365.352 172.908 326.841 186.552 308.055 194.532 C 303.828 196.41 301.005 198.291 299.127 199.23 C 295.371 202.047 290.199 210.006 290.199 210.006 L 285.501 219.405 C 285.501 219.405 295.845 213.762 308.055 208.599 C 322.137 202.494 338.568 196.89 343.26 201.582 C 349.833 207.684 333.396 276.681 339.501 334.902 C 341.379 328.8 343.26 330.237 343.26 330.237 L 350.778 345.243 L 354.537 338.664 L 363.936 357.93 L 364.404 346.653 L 367.224 349.005 C 363.816 315.321 366.621 202.248 378.852 189.018 C 382.608 185.262 392.955 180.555 405.636 176.325 C 410.802 174.447 416.412 172.566 422.055 171.156 C 434.736 167.4 447.879 164.109 457.731 161.76 L 476.526 157.092 C 476.526 157.092 479.352 149.571 487.806 145.815 C 489.213 145.347 490.155 144.876 491.094 144.876 C 491.094 144.876 487.782 139.704 501.399 135.477 L 501.492 135.357 Z M 487.899 164.928 C 479.916 165.399 469.095 167.28 457.827 170.097 C 445.146 172.914 432.003 176.679 422.151 179.964 C 418.863 180.906 415.569 182.316 413.223 182.784 C 424.491 187.479 421.68 193.59 421.68 193.59 L 422.151 194.061 L 429.201 198.759 C 429.201 198.759 435.783 196.881 441.891 196.41 C 445.176 232.095 440.01 271.53 440.01 271.53 L 422.187 275.76 L 422.157 275.76 L 420.309 276.231 L 422.157 278.988 L 422.157 279.048 L 432.963 291.699 L 431.553 297.81 L 435.312 297.339 C 435.312 297.339 433.425 312.825 422.16 333.015 L 422.16 333.078 C 419.82 337.752 417.003 342.441 413.265 347.583 C 415.605 348.519 418.881 348.045 422.16 347.112 C 422.169 347.109 422.181 347.115 422.19 347.112 C 428.283 345.234 433.908 341.943 433.908 341.943 L 454.551 334.896 L 454.551 340.065 L 457.839 338.184 L 462.537 335.367 C 462.537 335.367 474.285 309.093 474.285 280.455 C 474.285 280.455 480.87 278.571 487.908 274.344 C 491.196 272.937 494.46 270.585 497.745 267.768 C 522.636 295.935 540.006 323.652 540.006 323.652 L 548.934 322.713 L 551.283 316.602 L 559.743 317.544 L 561.621 313.785 L 562.563 315.192 L 571.02 321.771 L 575.718 316.134 L 582.267 317.541 C 582.267 317.541 574.77 309.546 562.56 296.4 C 551.292 284.193 535.323 267.291 517.95 249.909 C 525.465 243.336 534.402 235.353 535.332 214.233 C 535.803 191.226 521.721 167.742 494.013 164.925 L 487.899 164.928 Z M 478.938 188.364 C 482.124 188.313 485.127 188.751 487.899 189.369 C 497.76 192.183 503.847 199.683 503.847 210.006 C 502.908 223.62 495.885 233.505 487.899 240.081 C 484.143 243.366 479.907 246.159 476.622 247.569 C 476.622 247.569 475.209 212.844 473.802 188.895 C 475.095 188.661 476.328 188.499 477.561 188.424 C 478.023 188.397 478.485 188.37 478.941 188.364 L 478.938 188.364 Z M 280.359 194.97 C 278.013 195.912 275.661 196.38 273.312 197.322 L 273.312 197.352 C 256.881 202.518 241.383 207.657 228.702 212.358 C 209.457 219.873 196.785 225.51 196.785 225.51 L 198.165 216.582 C 198.165 216.582 185.976 224.571 174.228 226.452 C 169.917 226.932 165.606 226.932 162.399 225.057 C 144.054 231.633 68.934 278.085 53.937 301.14 C 51.588 310.533 42.189 326.04 42.189 326.04 L 35.61 346.68 L 40.308 346.209 L 35.142 356.544 L 39.372 355.137 L 39.372 361.245 C 39.372 361.245 62.376 330.249 83.508 312.408 C 80.691 328.836 80.688 345.267 80.688 345.267 L 73.641 352.785 L 66.624 367.35 L 72.231 367.35 L 71.76 372.99 L 76.458 370.638 L 74.58 377.187 L 78.339 377.187 C 78.339 377.187 79.281 400.221 82.098 413.364 L 97.134 418.5 L 99.486 415.713 L 107.943 422.259 L 114.489 417.09 C 114.489 417.09 112.14 372.504 113.082 353.247 C 120.594 345.264 146.913 330.252 146.913 330.252 L 149.262 321.792 L 145.503 312.396 L 155.337 297.831 C 136.554 307.692 113.547 321.798 113.547 321.798 C 113.547 321.798 115.899 290.814 119.187 285.18 C 122.472 279.543 144.075 265.902 174.129 248.529 C 190.56 239.139 208.884 229.755 228.6 219.429 C 243.156 212.388 258.18 205.356 273.207 198.321 L 273.207 198.288 C 275.556 197.349 277.908 195.939 280.257 195 L 280.359 194.97 Z M 430.623 203.898 L 382.728 217.992 L 379.908 324.549 L 405.75 317.034 L 420.285 312.333 L 420.285 283.704 L 400.116 286.524 L 400.587 271.485 L 405.756 270.075 L 418.878 265.848 L 418.407 260.208 L 422.637 244.731 L 405.756 248.931 L 400.587 250.338 L 401.997 234.861 L 405.756 233.922 L 411.018 232.386 L 424.521 228.753 L 429.222 222.645 L 424.521 220.764 L 430.623 203.898 Z M 325.368 227.385 C 325.368 227.385 320.667 237.72 315.972 230.205 C 314.562 235.368 310.8 237.255 307.983 237.723 C 306.102 237.723 304.692 237.723 304.692 237.723 L 303.285 271.995 L 292.479 276.693 L 295.767 239.133 L 290.598 243.834 L 286.368 239.133 L 278.883 250.38 L 276.531 246.15 L 273.243 248.97 L 270.894 251.319 C 270.894 251.319 262.908 319.887 265.725 349.938 C 269.013 346.182 270.426 352.758 270.426 352.758 L 273.243 348.999 L 274.182 347.589 L 282.171 366.384 L 285.429 355.107 L 290.598 357.456 L 290.598 303.918 L 302.817 300.159 L 303.288 346.65 L 307.986 349.002 L 313.098 351.306 L 314.1 345.192 L 326.733 358.824 C 326.733 358.824 321.57 280.875 329.55 229.212 C 326.733 232.029 325.353 227.331 325.353 227.331 L 325.368 227.385 Z M 260.112 247.995 C 260.112 247.995 244.623 251.292 228.654 260.214 C 212.226 269.604 194.853 286.047 193.449 312.342 C 190.632 355.074 223.02 351.306 228.654 350.844 C 229.125 350.844 230.064 350.373 230.064 350.373 L 230.064 371.514 L 231.945 366.348 L 235.704 368.697 L 241.311 365.406 L 247.887 370.575 L 248.892 366.465 L 253.119 367.407 L 255 311.991 L 263.457 308.703 L 261.579 290.85 L 228.717 304.944 L 221.67 307.764 L 228.717 319.512 L 229.188 319.98 L 232.947 319.041 L 232.947 327.498 C 232.947 327.498 231.066 327.969 228.717 327.969 C 224.022 327.03 216.027 324.198 216.972 309.645 C 217.44 299.319 222.612 292.284 228.717 287.121 C 238.581 279.138 251.715 275.373 257.349 270.672 L 253.119 268.791 L 259.227 265.971 L 260.112 247.995 Z M 180.759 270.549 C 178.881 276.183 176.529 280.419 174.18 283.239 C 169.485 290.754 164.313 293.076 164.313 293.076 C 164.313 293.076 153.978 337.224 157.734 386.052 L 161.493 384.171 L 165.255 387.459 L 169.014 386.052 C 169.014 386.052 171.363 391.221 174.18 394.509 C 176.997 397.326 180.291 398.736 183.579 396.858 C 185.925 395.451 180.297 327.381 191.568 283.686 C 191.568 283.686 185.454 288.84 180.759 270.534 L 180.759 270.549 Z" stroke-miterlimit="4" stroke-dasharray="none" stroke-width="1.87399995" style="fill: rgb(255, 255, 255);"/>
    <path d="M 533.571 0 C 531.282 0.021 529.032 0.072 526.773 0.219 C 488.268 2.568 449.274 8.682 411.693 16.668 C 368.028 25.59 326.247 37.32 290.601 48.585 C 274.632 53.751 259.134 58.932 245.523 63.624 C 225.333 71.136 207.981 77.697 195.783 83.331 C 183.573 88.026 176.514 91.788 175.113 92.727 C 175.113 92.727 171.81 107.274 154.902 119.484 L 163.83 118.104 L 142.719 137.34 C 142.719 137.34 182.637 115.758 195.789 111.999 C 197.196 111.531 198.576 111.531 199.518 111.531 C 202.332 114.816 199.545 129.834 195.789 147.678 C 191.094 171.624 184.512 201.195 187.8 216.222 L 195.789 208.704 L 196.728 208.233 C 209.16 211.092 211.965 200.787 211.965 200.787 L 217.134 202.665 L 218.544 199.848 L 226.062 199.848 C 226.062 199.848 225.6 111.093 238.752 96.096 C 239.22 95.157 242.013 93.744 245.769 91.395 C 255.159 87.171 271.131 80.61 290.847 73.104 C 326.535 59.952 373.479 43.992 411.942 33.195 C 426.024 28.971 439.206 25.677 450.003 23.328 C 455.637 22.389 454.671 28.032 456.549 33.195 C 457.959 37.89 453.291 43.512 452.352 51.018 C 451.881 57.594 449.064 121.44 449.064 121.44 L 454.2 119.559 L 460.776 120.03 L 463.128 113.013 L 468.297 116.301 L 470.646 112.542 L 473.934 115.362 L 478.635 113.952 C 478.635 113.952 477.234 27.555 490.854 18.633 C 498.366 12.999 520.905 12.054 535.461 12.522 C 560.349 13.932 585.672 15.822 584.268 28.974 C 582.861 42.126 567.849 47.739 567.849 47.739 L 571.137 51.969 L 566.907 52.437 L 566.907 59.016 L 558.921 61.365 L 561.126 63.66 L 545.619 69.768 L 551.256 71.178 L 538.608 77.256 C 538.608 77.256 593.058 72.09 599.634 34.992 C 604.035 13.422 567.978 -0.27 533.664 0.03 Z M 218.307 32.178 C 210.327 34.527 202.83 36.378 195.783 38.256 C 103.278 63.144 68.073 93.186 68.073 124.182 C 68.073 157.524 102.348 168.789 103.752 174.423 C 114.588 218.079 0 238.758 0 238.758 L 6.579 244.869 L 7.047 250.005 L 16.446 260.811 L 26.751 262.692 L 30.039 269.268 L 48.363 266.919 L 46.953 273.966 C 63.384 276.783 139.437 246.72 156.819 213.852 C 169.5 189.903 162.459 172.533 162.459 172.533 C 154.038 143.832 118.854 142.449 118.854 117.099 C 117.915 94.563 159.732 73.422 195.879 58.866 C 218.415 49.476 241.449 42.468 248.025 40.593 C 246.321 40.383 229.881 41.565 223.164 41.946 L 223.164 38.658 L 216.117 38.658 Z M 441.348 32.178 L 389.691 45.771 L 388.281 61.749 L 385.932 68.799 L 381.234 136.872 L 435.243 123.72 L 436.653 101.196 L 411.753 108.369 L 411.753 108.243 L 405.675 110.124 L 407.556 92.271 L 431.493 84.753 L 434.313 65.985 L 408.972 71.625 L 409.911 57.531 L 411.759 57.531 L 411.759 57.06 L 439.014 49.542 Z M 378.396 48.618 L 331.902 63.654 L 331.431 80.073 L 328.614 87.591 L 326.733 134.544 L 312.669 121.392 C 312.669 121.392 316.899 114.366 316.899 101.226 C 316.899 87.612 305.61 76.353 294.345 76.353 C 293.406 76.353 291.993 76.794 290.586 76.794 C 278.847 79.611 254.427 90.897 245.505 95.589 L 245.163 95.778 C 243.282 96.714 241.872 97.185 241.872 97.185 L 244.221 99.066 L 245.163 101.883 L 245.976 102.636 L 249.267 104.985 L 250.206 111.564 L 258.663 108.744 C 258.663 108.744 254.907 127.521 256.314 136.902 L 245.538 141.132 L 245.508 141.132 L 242.721 142.542 L 245.508 143.481 L 245.538 143.481 L 246.918 143.952 L 246.918 149.589 L 248.796 151.938 L 248.796 156.168 L 253.026 154.758 L 251.616 186.216 L 254.436 182.925 L 258.663 181.047 L 264.771 181.518 L 264.771 177.288 L 271.35 178.227 L 272.76 174.468 L 279.339 174.468 L 280.278 149.598 C 280.278 149.598 284.949 148.656 290.583 145.839 C 293.868 143.961 297.162 141.138 299.979 136.911 L 321.591 159.939 L 329.55 157.587 L 330.018 151.95 L 335.658 154.767 L 345.483 154.266 L 344.079 151.911 L 371.343 143.925 L 374.634 118.113 L 346.476 127.011 L 347.886 109.659 L 371.352 101.199 L 372.291 82.875 L 348.354 89.922 L 349.764 74.916 L 377.451 65.049 Z M 290.592 95.109 C 295.287 95.58 300.459 96.996 299.052 104.037 C 298.113 109.203 294.348 113.907 290.592 116.727 C 285.897 120.954 280.755 122.805 280.755 122.805 C 280.755 108.72 284.484 95.58 284.484 95.58 C 284.484 95.58 287.304 95.109 290.592 95.109 Z" stroke-miterlimit="4" stroke-dasharray="none" stroke-width="1.87399995" style="fill: rgb(254, 254, 254);"/>
  </g>
</svg>