<?xml version="1.0" encoding="utf-8"?>
<svg style="shape-rendering:geometricPrecision; text-rendering:geometricPrecision; image-rendering:optimizeQuality; fill-rule:evenodd; clip-rule:evenodd" xmlns="http://www.w3.org/2000/svg">
  <g>
    <path id="_48001888" class="fil1" d="M 100.89 0.003 L 52.245 0.003 C 7.266 8.301 62.16 79.674 45.087 80.673 L 0 80.739 L 0.003 106.374 L 63.588 106.311 C 106.89 100.338 49.524 28.461 71.442 27.459 C 90.828 27.912 100.89 27.498 100.89 27.498 L 100.89 0.003 Z" style="fill: rgb(255, 255, 255);"/>
    <path id="_47451944" class="fil1" d="M 133.95 0.015 L 106.41 0.003 L 106.389 86.034 C 106.314 100.002 121.851 107.319 144.123 107.37 C 170.073 107.256 183.426 102.033 183.435 86.172 L 183.486 0.003 L 157.803 0.003 L 157.707 71.391 C 157.683 75.324 155.682 77.004 152.244 76.977 L 141.201 76.98 C 136.116 76.998 133.857 75.021 133.869 71.436 L 133.95 0.015 Z" style="fill: rgb(255, 255, 255);"/>
    <path id="_48536336" class="fil1" d="M 385.026 0.003 L 336.378 0.003 C 291.402 8.301 346.293 79.674 329.22 80.673 L 284.133 80.739 L 284.139 106.374 L 347.724 106.311 C 391.026 100.338 333.66 28.461 355.578 27.459 C 374.964 27.912 385.026 27.498 385.026 27.498 L 385.026 0.003 Z" style="fill: rgb(255, 255, 255);"/>
    <path id="_47587320" class="fil1" d="M 218.355 0.003 L 192.66 0 L 192.66 106.431 L 218.346 106.413 L 218.346 58.725 C 218.337 43.302 234.861 106.311 251.382 106.419 L 277.068 106.419 L 277.053 0.006 L 251.379 0.009 L 251.349 47.715 C 251.325 64.074 231.648 -0.09 218.355 0.003 Z" style="fill: rgb(255, 255, 255);"/>
    <path id="_4167544" class="fil1" d="M 406.197 0.123 L 450.606 0.123 C 460.104 0.123 467.868 5.667 467.868 12.441 L 467.868 94.083 C 467.868 100.86 460.104 106.401 450.606 106.401 L 406.197 106.401 C 396.699 106.401 388.932 100.86 388.932 94.083 L 388.932 12.441 C 388.932 5.667 396.699 0.123 406.197 0.123 Z M 422.841 28.074 L 432.174 28.074 C 436.683 28.074 440.367 32.124 440.367 37.08 L 440.367 71.307 C 440.367 76.266 436.683 80.313 432.174 80.313 L 422.841 80.313 C 418.335 80.313 414.651 76.266 414.651 71.307 L 414.651 37.08 C 414.651 32.124 418.335 28.074 422.841 28.074 Z" style="fill: rgb(255, 255, 255);"/>
    <path id="_48324760" class="fil1" d="M 473.382 22.023 C 473.394 10.359 482.703 0.003 497.247 0.009 L 526.605 0.003 L 526.605 29.346 L 500.916 29.352 L 500.91 45.882 L 526.605 45.876 L 526.605 73.395 L 500.916 73.398 L 500.916 106.428 L 473.394 106.428 L 473.382 22.023 Z" style="fill: rgb(255, 255, 255);"/>
    <polygon id="_49004288" class="fil1" points="535.782 0.006 535.758 25.674 554.112 25.674 554.127 106.428 581.652 106.428 581.652 25.689 600 25.695 600 0.006" style="fill: rgb(255, 255, 255);"/>
  </g>
</svg>