<?xml version="1.0" encoding="utf-8"?>
<svg version="1.2" xmlns="http://www.w3.org/2000/svg">
  <g>
    <polygon points="85.185 0 25.926 0 0 29.631 0 92.595 29.628 122.223 55.554 122.223 55.554 81.483 44.445 81.483 44.445 37.038 74.073 37.038 74.073 66.669 114.813 66.669 114.813 29.631" style="fill: rgb(255, 255, 255);"/>
    <polygon points="29.628 207.408 92.592 207.408 118.518 177.78 118.518 111.114 88.89 81.483 62.964 81.483 62.964 122.223 74.073 122.223 74.073 166.668 44.445 166.668 44.445 137.037 0 137.037 0 177.78" style="fill: rgb(255, 255, 255);"/>
    <polygon points="125.925 177.78 157.407 207.408 181.482 207.408 181.482 170.373 170.37 170.373 170.37 0 125.925 0" style="fill: rgb(255, 255, 255);"/>
    <polygon points="244.443 177.78 212.964 207.408 188.889 207.408 188.889 170.373 199.998 170.373 199.998 0 244.443 0" style="fill: rgb(255, 255, 255);"/>
    <polygon points="307.407 0 307.407 37.038 322.221 37.038 322.221 100.002 307.407 100.002 307.407 140.742 337.035 140.742 366.666 111.114 366.666 31.482 335.184 0" style="fill: rgb(255, 255, 255);"/>
    <rect x="255.555" width="44.445" height="207.408" style="fill: rgb(255, 255, 255);"/>
    <polygon points="422.22 40.743 470.37 40.743 470.37 0 381.48 0 381.48 207.408 470.37 207.408 470.37 170.373 422.22 170.373" style="fill: rgb(255, 255, 255);"/>
    <rect x="429.63" y="81.483" width="29.631" height="37.038" style="fill: rgb(255, 255, 255);"/>
    <polygon points="537.036 0 570.372 0 600 29.631 600 85.185 579.63 105.555 600 125.928 600 207.408 559.257 207.408 559.257 125.928 537.036 125.928 537.036 85.185 555.555 85.185 555.555 37.038 537.036 37.038" style="fill: rgb(255, 255, 255);"/>
    <rect x="485.184" width="44.442" height="207.408" style="fill: rgb(255, 255, 255);"/>
    <polygon points="88.89 229.629 79.629 238.89 79.629 281.484 91.665 293.52 159.258 293.52 159.258 255.555 122.223 255.555 122.223 266.67 148.146 266.67 148.146 281.484 96.297 281.484 96.297 240.741 159.258 240.741 159.258 229.629" style="fill: rgb(255, 255, 255);"/>
    <polygon points="255.555 292.593 285.186 229.629 314.814 229.629 348.15 292.593 329.628 292.593 303.705 244.446 296.295 244.446 274.074 292.593" style="fill: rgb(255, 255, 255);"/>
    <path d="M 248.148 257.409 L 248.148 240.741 L 237.039 229.629 L 174.075 229.629 L 174.075 292.593 L 188.889 292.593 L 188.889 266.67 L 214.815 266.67 L 233.331 292.593 L 248.148 292.593 L 229.629 266.67 L 237.039 266.67 L 248.148 257.409 Z M 233.331 255.555 L 188.889 255.555 L 188.889 240.744 L 233.331 240.744 L 233.331 255.555 Z" style="fill: rgb(255, 255, 255);"/>
    <polygon points="351.849 229.629 351.849 292.593 366.666 292.593 366.666 266.67 414.813 266.67 414.813 255.555 366.666 255.555 366.666 240.741 422.22 240.741 422.22 229.629" style="fill: rgb(255, 255, 255);"/>
    <polygon points="429.63 229.629 459.261 259.26 425.925 292.593 448.146 292.593 470.37 270.369 492.591 292.593 514.812 292.593 481.479 259.26 514.812 229.629 492.591 229.629 470.37 251.853 448.146 229.629" style="fill: rgb(255, 255, 255);"/>
  </g>
</svg>