<?xml version="1.0" encoding="utf-8"?>
<svg version="1.1" id="Ebene_1" x="0px" y="0px" enable-background="new 0 0 566.926 121.783" xmlns="http://www.w3.org/2000/svg">
  <g>
    <polygon points="0 0 29.718 0 29.718 8.745 21.021 8.745 21.021 127.449 10.509 127.449 10.509 8.745 0 8.745" id="polygon5" style="fill:#ffffff;fill-opacity:1"/>
    <path d="M 56.64 118.761 L 68.241 118.761 L 68.241 35.595 L 78.387 35.595 L 78.387 118.761 C 78.387 124.146 73.497 127.956 68.481 127.956 L 56.64 127.956 C 51.342 127.956 46.614 123.645 46.614 118.653 L 46.614 35.595 L 56.64 35.595 L 56.64 118.761 Z" id="path7" style="fill:#ffffff;fill-opacity:1"/>
    <path d="M 274.824 55.908 L 290.319 55.908 L 290.319 128.04 L 268.482 128.04 C 263.814 128.04 258.063 124.464 258.063 119.043 L 258.063 10.008 C 258.063 5.427 262.863 0.549 268.254 0.549 L 280.17 0.549 C 285.456 0.549 290.25 5.385 290.25 9.903 L 290.25 35.733 L 279.807 35.733 L 279.807 10.263 L 267.939 10.263 L 267.939 119.124 L 280.08 119.124 L 280.08 64.737 L 274.824 64.737 L 274.824 55.908 Z" id="path9" style="fill:#ffffff;fill-opacity:1"/>
    <path d="M 424.662 83.772 L 424.662 127.491 L 414.879 127.491 L 414.879 43.758 C 414.879 39.975 418.641 35.853 423.396 35.853 L 439.524 35.853 L 439.524 43.923 L 424.662 43.923 L 424.662 74.862 L 436.899 74.862 L 436.899 83.811 L 424.662 83.772 Z" id="path11" style="fill:#ffffff;fill-opacity:1"/>
    <path d="M 459.366 35.877 L 469.635 35.877 L 469.635 69.228 L 475.434 75.057 L 481.11 69.39 L 481.11 35.877 L 491.256 35.877 L 491.256 67.608 C 491.256 71.481 481.233 81.69 481.233 81.69 C 481.233 81.69 491.379 91.893 491.379 96.027 L 491.379 127.677 L 481.833 127.677 L 481.833 94.725 L 475.674 88.494 L 469.512 94.644 L 469.512 127.677 L 459.366 127.677 L 459.366 96.102 C 459.366 92.22 470.112 81.609 470.112 81.609 C 470.112 81.609 459.366 71.517 459.366 67.449 L 459.366 35.877 Z" id="path13" style="fill:#ffffff;fill-opacity:1"/>
    <path d="M 122.361 83.979 C 125.802 83.979 130.38 79.863 130.38 74.355 L 130.38 44.259 C 130.38 39.93 125.442 35.898 119.823 35.898 L 98.985 35.898 L 98.985 127.86 L 108.591 127.86 L 108.591 84.654 L 112.215 84.654 L 122.904 127.698 L 132.327 127.698 L 122.361 83.979 Z M 120.459 74.985 L 108.951 74.985 L 108.951 44.808 L 120.459 44.808 L 120.459 74.985 Z" id="path15" style="fill:#ffffff;fill-opacity:1"/>
    <path d="M 334.917 83.739 C 338.361 83.739 342.942 79.617 342.942 74.112 L 342.942 44.016 C 342.942 39.687 337.998 35.649 332.385 35.649 L 311.547 35.649 L 311.547 127.62 L 321.144 127.62 L 321.144 84.408 L 324.771 84.408 L 335.466 127.449 L 344.886 127.449 L 334.917 83.739 Z M 332.877 74.643 L 321.378 74.643 L 321.378 44.466 L 332.877 44.466 L 332.877 74.643 Z" id="path17" style="fill:#ffffff;fill-opacity:1"/>
    <path d="M 181.728 86.145 C 181.686 82.023 177.384 79.419 177.384 79.419 C 177.384 79.419 181.728 76.605 181.728 72.693 L 181.728 44.619 C 181.728 39.321 177.063 35.874 172.308 35.874 L 150.381 35.874 L 150.381 127.677 L 172.308 127.677 C 176.748 127.677 181.728 124.905 181.728 118.935 C 181.728 118.935 181.779 90.261 181.728 86.145 Z M 171.855 118.683 L 160.35 118.683 L 160.35 84.465 L 171.855 84.465 L 171.855 118.683 Z M 171.855 74.964 L 160.35 74.964 L 160.35 44.787 L 171.855 44.787 L 171.855 74.964 Z" id="path19" style="fill:#ffffff;fill-opacity:1"/>
    <path d="M 223.725 35.196 L 217.926 35.196 L 212.307 35.196 C 206.553 35.196 202.365 40.113 202.365 43.854 L 202.365 118.413 C 202.365 123.231 207.732 127.602 212.262 127.602 L 224.676 127.602 C 229.524 127.602 234.369 122.598 234.369 118.605 L 234.369 43.602 C 234.369 40.242 229.794 35.196 223.725 35.196 Z M 224.085 118.125 L 212.97 118.125 L 212.97 44.277 L 224.085 44.277 L 224.085 118.125 Z" id="path21" style="fill:#ffffff;fill-opacity:1"/>
    <path d="M 384.909 35.853 L 372.231 35.853 C 366.519 35.853 363.168 40.56 363.168 44.259 L 363.168 127.491 L 372.771 127.491 L 372.771 83.772 L 384.909 83.772 L 384.909 127.491 L 394.515 127.491 L 394.515 44.763 C 394.512 39.273 390.714 35.853 384.909 35.853 Z M 384.633 74.694 L 373.134 74.694 L 373.134 45.102 L 384.633 45.102 L 384.633 74.694 Z" id="path23" style="fill:#ffffff;fill-opacity:1"/>
    <rect x="549.174" y="84.606" width="29.733" height="11.091" id="rect29" style="fill:#ffffff;fill-opacity:1"/>
    <path d="M 552.843 34.578 C 526.8 34.578 505.695 55.689 505.695 81.732 C 505.695 107.775 526.8 128.889 552.843 128.889 C 578.883 128.889 600 107.775 600 81.732 C 600 55.689 578.886 34.578 552.843 34.578 Z M 536.796 101.106 L 521.844 101.106 L 521.844 95.868 L 526.665 95.868 L 526.665 68.196 L 521.934 68.196 L 521.934 62.787 L 532.071 62.787 L 532.071 95.781 L 536.796 95.781 L 536.796 101.106 L 536.796 101.106 Z M 584.061 72.837 L 579.255 72.837 L 579.255 68.025 L 548.913 68.025 L 548.913 79.539 L 581.316 79.539 L 584.061 82.293 L 584.061 97.506 L 580.626 100.941 L 547.455 100.941 L 544.017 97.506 L 544.017 66.138 L 547.203 62.955 L 581.145 62.955 L 584.061 65.877 L 584.061 72.837 Z" id="path31" style="fill:#ffffff;fill-opacity:1"/>
  </g>
</svg>