<?xml version="1.0" encoding="utf-8"?>
<svg viewBox="0 0 200 40" xmlns="http://www.w3.org/2000/svg">
  <path d="M 35.363 20 C 35.363 27.686 27.031 32.49 20.362 28.647 C 17.268 26.865 15.363 23.567 15.363 20 C 15.363 12.314 23.695 7.509 30.364 11.352 C 33.457 13.136 35.363 16.434 35.363 20 Z" style="opacity: 1; fill: none; fill-opacity: 1; fill-rule: evenodd; stroke-linecap: round; stroke-linejoin: round; stroke-miterlimit: 4; stroke-dasharray: none; stroke-dashoffset: 0; stroke-opacity: 1; stroke: rgb(204, 204, 204);" id="path2923"/>
  <path d="M 56.426 10.45 L 55.556 15.25 L 51.416 15.25 L 48.986 29.2 L 43.286 29.2 L 45.716 15.25 L 41.606 15.25 L 42.476 10.45 L 56.426 10.45 Z M 69.085 22.96 L 71.065 29.2 L 64.795 29.2 L 63.415 23.62 L 62.185 23.62 L 61.225 29.2 L 55.525 29.2 L 58.825 10.45 L 67.825 10.45 L 67.825 10.45 C 71.245 10.45 72.955 11.98 72.955 15.04 L 72.955 15.04 L 72.955 15.04 C 72.955 16.3 72.765 17.5 72.385 18.64 L 72.385 18.64 L 72.385 18.64 C 71.685 20.8 70.585 22.24 69.085 22.96 L 69.085 22.96 Z M 64.795 15.25 L 63.655 15.25 L 62.995 19 L 64.315 19 L 64.315 19 C 64.995 19 65.508 18.927 65.855 18.78 L 65.855 18.78 L 65.855 18.78 C 66.208 18.627 66.448 18.197 66.575 17.49 L 66.575 17.49 L 66.575 17.49 C 66.708 16.777 66.775 16.34 66.775 16.18 L 66.775 16.18 L 66.775 16.18 C 66.775 15.78 66.622 15.523 66.315 15.41 L 66.315 15.41 L 66.315 15.41 C 66.002 15.303 65.495 15.25 64.795 15.25 L 64.795 15.25 Z M 78.924 26.23 L 77.754 29.2 L 71.754 29.2 L 79.644 10.45 L 88.464 10.45 L 89.784 29.2 L 83.754 29.2 L 83.634 26.23 L 78.924 26.23 Z M 83.184 16.21 L 82.884 16.21 L 80.784 21.46 L 83.184 21.46 L 83.184 16.21 Z M 104.663 23.83 L 104.663 23.83 L 104.183 28.87 L 104.183 28.87 C 102.903 29.39 101.283 29.65 99.323 29.65 L 99.323 29.65 L 99.323 29.65 C 96.803 29.65 94.996 29.16 93.903 28.18 L 93.903 28.18 L 93.903 28.18 C 92.816 27.2 92.273 25.69 92.273 23.65 L 92.273 23.65 L 92.273 23.65 C 92.273 22.79 92.413 21.52 92.693 19.84 L 92.693 19.84 L 92.693 19.84 C 93.293 16.4 94.326 13.9 95.793 12.34 L 95.793 12.34 L 95.793 12.34 C 97.266 10.78 99.593 10 102.773 10 L 102.773 10 L 102.773 10 C 103.513 10 104.359 10.077 105.313 10.23 L 105.313 10.23 L 105.313 10.23 C 106.259 10.377 106.953 10.56 107.393 10.78 L 107.393 10.78 L 105.713 15.37 L 105.713 15.37 C 104.533 15.09 103.429 14.95 102.403 14.95 L 102.403 14.95 L 102.403 14.95 C 101.369 14.95 100.633 15.05 100.193 15.25 L 100.193 15.25 L 100.193 15.25 C 99.753 15.45 99.483 15.85 99.383 16.45 L 99.383 16.45 L 98.003 24.31 L 98.003 24.31 C 98.723 24.47 99.463 24.55 100.223 24.55 L 100.223 24.55 L 100.223 24.55 C 101.843 24.55 103.323 24.31 104.663 23.83 Z M 114.082 21.61 L 114.082 21.61 L 114.112 21.04 L 113.872 21.04 L 112.462 29.2 L 106.762 29.2 L 110.062 10.45 L 115.762 10.45 L 114.412 18.1 L 114.652 18.1 L 114.652 18.1 C 114.812 17.46 114.992 16.98 115.192 16.66 L 115.192 16.66 L 118.972 10.45 L 125.122 10.45 L 119.242 19.66 L 121.972 29.2 L 115.822 29.2 L 114.172 22.48 L 114.172 22.48 C 114.112 22.28 114.082 21.99 114.082 21.61 Z M 134.27 29.2 L 124.01 29.2 L 127.31 10.45 L 136.55 10.45 L 136.55 10.45 C 137.99 10.45 139.034 10.7 139.68 11.2 L 139.68 11.2 L 139.68 11.2 C 140.334 11.7 140.66 12.47 140.66 13.51 L 140.66 13.51 L 140.66 13.51 C 140.66 15.03 140.324 16.28 139.65 17.26 L 139.65 17.26 L 139.65 17.26 C 138.984 18.24 138.17 18.85 137.21 19.09 L 137.21 19.09 L 137.18 19.27 L 137.18 19.27 C 138.98 19.61 139.881 20.8 139.881 22.84 L 139.881 22.84 L 139.881 22.84 C 139.881 24.64 139.39 26.15 138.411 27.37 L 138.411 27.37 L 138.411 27.37 C 137.43 28.59 136.05 29.2 134.27 29.2 L 134.27 29.2 Z M 133.251 21.73 L 133.251 21.73 L 131 21.73 L 130.46 24.79 L 132.68 24.79 L 132.68 24.79 C 133.18 24.79 133.56 24.59 133.82 24.19 L 133.82 24.19 L 133.82 24.19 C 134.08 23.79 134.21 23.28 134.21 22.66 L 134.21 22.66 L 134.21 22.66 C 134.21 22.04 133.89 21.73 133.251 21.73 Z M 134.09 14.56 L 134.09 14.56 L 132.29 14.56 L 131.781 17.35 L 133.55 17.35 L 133.55 17.35 C 134.471 17.35 134.93 16.7 134.93 15.4 L 134.93 15.4 L 134.93 15.4 C 134.93 14.84 134.65 14.56 134.09 14.56 Z M 146.779 26.23 L 145.609 29.2 L 139.609 29.2 L 147.499 10.45 L 156.319 10.45 L 157.639 29.2 L 151.609 29.2 L 151.489 26.23 L 146.779 26.23 Z M 151.039 16.21 L 150.739 16.21 L 148.639 21.46 L 151.039 21.46 L 151.039 16.21 Z M 171.858 24.4 L 171.018 29.2 L 159.618 29.2 L 162.918 10.45 L 168.618 10.45 L 166.158 24.4 L 171.858 24.4 Z M 184.637 24.4 L 183.797 29.2 L 172.397 29.2 L 175.697 10.45 L 181.397 10.45 L 178.937 24.4 L 184.637 24.4 Z" style="white-space: pre; fill: rgb(255, 255, 255);"/>
  <path d="M 24.709 26.984 C 24.179 26.933 23.51 26.783 23.002 26.6 C 20.981 25.867 19.396 24.242 18.719 22.208 C 18.204 20.657 18.247 18.958 18.846 17.45 C 19.201 16.557 19.683 15.818 20.359 15.121 C 20.917 14.551 21.483 14.131 22.179 13.772 C 24.492 12.578 27.296 12.782 29.418 14.293 C 29.751 14.533 30.004 14.747 30.318 15.063 C 31.422 16.165 32.105 17.545 32.32 19.109 C 32.36 19.412 32.377 20.289 32.349 20.613 C 32.163 22.67 31.096 24.517 29.4 25.728 C 28.417 26.427 27.203 26.877 25.997 26.985 C 25.75 27.005 24.95 27.005 24.709 26.984 Z M 21.638 22.633 C 21.56 22.404 21.477 22.054 21.435 21.793 C 21.392 21.502 21.392 20.795 21.435 20.497 C 21.613 19.322 22.125 18.318 22.956 17.508 C 23.791 16.697 24.798 16.211 25.947 16.064 C 26.231 16.027 26.885 16.033 27.154 16.075 C 27.424 16.116 27.773 16.198 27.994 16.275 C 28.089 16.307 28.167 16.33 28.173 16.325 C 28.184 16.311 27.904 16.11 27.731 16.004 C 27.192 15.677 26.592 15.471 25.922 15.381 C 25.687 15.352 25.033 15.352 24.804 15.384 C 23.424 15.573 22.244 16.31 21.479 17.461 C 21.329 17.684 21.082 18.179 20.985 18.442 C 20.493 19.786 20.674 21.321 21.465 22.522 C 21.546 22.645 21.681 22.818 21.687 22.809 C 21.691 22.804 21.668 22.726 21.638 22.633 Z" style="fill: rgb(204, 204, 204);"/>
</svg>