<?xml version="1.0" encoding="utf-8"?>
<svg version="1.1" xmlns="http://www.w3.org/2000/svg">
  <path d="M 434.546 87.273 C 429.525 87.273 425.455 91.343 425.455 96.365 C 425.455 101.385 429.525 105.456 434.546 105.456 C 439.565 105.456 443.637 101.385 443.637 96.365 C 443.637 91.343 439.567 87.273 434.546 87.273 Z M 118.182 87.273 C 113.162 87.273 109.091 91.343 109.091 96.365 C 109.091 101.385 113.162 105.456 118.182 105.456 C 123.203 105.456 127.274 101.385 127.274 96.365 C 127.274 91.343 123.203 87.273 118.182 87.273 Z M 170.91 96.365 C 170.91 101.385 174.98 105.456 180.001 105.456 C 185.021 105.456 189.092 101.385 189.092 96.365 C 189.092 91.344 185.021 87.273 180.001 87.273 C 174.98 87.273 170.91 91.343 170.91 96.365 Z M 263.637 87.273 C 258.617 87.273 254.546 91.343 254.546 96.365 C 254.546 101.385 258.617 105.456 263.637 105.456 C 268.658 105.456 272.728 101.385 272.728 96.365 C 272.728 91.343 268.657 87.273 263.637 87.273 Z M 582.627 0 L 17.374 0 C 7.779 0 0 7.778 0 17.374 L 0 153.536 C 0 163.13 7.779 170.91 17.374 170.91 L 582.626 170.91 C 592.221 170.91 600 163.132 600 153.536 L 600 17.374 C 600.001 7.778 592.222 0 582.627 0 Z M 76.364 116.365 L 65.454 98.183 L 65.454 116.365 L 43.636 116.365 L 43.636 47.272 L 76.363 47.272 C 87.272 47.272 98.182 54.545 98.182 69.091 C 98.182 83.636 87.272 87.273 83.636 87.273 L 101.818 116.365 L 76.364 116.365 Z M 112.728 116.365 C 105.456 116.365 98.183 109.091 98.183 98.183 C 98.183 85.789 109.091 83.636 112.728 83.683 C 114.054 83.701 118.924 83.636 120.001 83.636 C 127.274 83.636 123.638 76.363 120.001 76.363 C 116.365 76.363 105.456 76.363 105.456 76.363 L 105.456 61.818 L 134.547 61.818 C 141.82 61.818 144.547 69.091 144.547 76.363 C 144.547 83.636 145.456 116.363 145.456 116.363 L 112.728 116.363 L 112.728 116.365 Z M 207.273 116.365 C 207.273 116.365 192.728 116.365 178.182 116.365 C 156.364 116.365 152.728 98.183 152.728 87.273 C 152.728 80.584 156.364 61.818 178.182 61.818 L 185.455 61.818 L 185.455 47.272 L 207.274 47.272 L 207.274 116.365 L 207.273 116.365 Z M 232.728 116.365 L 214.546 116.365 L 214.546 61.818 L 232.728 61.818 L 232.728 116.365 Z M 263.637 116.365 C 248.575 116.365 236.364 104.155 236.364 89.092 C 236.364 74.03 248.574 61.818 263.637 61.818 C 278.7 61.818 290.91 74.028 290.91 89.092 C 290.91 104.153 278.7 116.365 263.637 116.365 Z M 356.364 69.091 C 349.092 69.091 345.455 72.727 345.455 80 C 345.455 87.272 345.455 83.636 345.455 94.545 C 345.455 109.091 341.819 116.365 312.728 116.365 C 312.728 101.818 312.728 94.545 312.728 94.545 C 320.001 94.545 327.273 94.545 327.273 83.636 C 327.273 72.727 327.273 72.727 327.273 65.454 C 327.273 58.181 330.91 47.272 356.364 47.272 C 356.364 54.545 356.364 69.091 356.364 69.091 Z M 410.909 116.365 L 389.092 116.365 L 389.092 83.636 C 389.092 80 381.818 80 381.818 83.636 C 381.818 87.273 381.818 116.365 381.818 116.365 L 363.636 116.365 L 363.636 47.272 L 381.818 47.272 L 381.818 65.454 C 389.092 58.181 410.909 61.818 410.909 76.363 C 410.909 90.909 410.909 116.365 410.909 116.365 Z M 429.091 116.365 C 421.818 116.365 414.546 109.091 414.546 98.183 C 414.546 85.789 425.455 83.636 429.091 83.683 C 430.416 83.701 435.288 83.636 436.365 83.636 C 443.638 83.636 440.001 76.363 436.365 76.363 C 432.728 76.363 421.818 76.363 421.818 76.363 L 421.818 61.818 L 450.909 61.818 C 458.182 61.818 460.909 69.091 460.909 76.363 C 460.909 83.636 461.818 116.363 461.818 116.363 L 429.091 116.363 L 429.091 116.365 Z M 519.842 92.048 L 500.721 92.03 C 499.181 89.197 496.179 87.273 492.728 87.273 C 487.708 87.273 483.637 91.342 483.637 96.364 C 483.637 101.385 487.707 105.455 492.728 105.455 C 496.231 105.455 499.271 103.473 500.789 100.57 L 517.474 100.568 C 513.142 109.897 503.689 116.364 492.728 116.364 C 477.665 116.364 465.455 104.154 465.455 89.092 C 465.455 74.03 477.665 61.818 492.728 61.818 C 507.79 61.818 520 74.028 520 89.092 C 520.001 90.09 519.947 91.077 519.842 92.048 Z M 549.092 116.365 L 541.819 94.545 L 538.182 94.545 L 538.182 116.365 L 523.637 116.365 L 523.637 47.272 L 538.182 47.272 L 538.182 76.364 L 541.819 76.364 L 549.092 65.455 L 567.274 65.455 L 556.364 83.637 L 570.91 116.365 L 549.092 116.365 L 549.092 116.365 Z M 67.273 72.727 C 62.252 72.727 58.182 76.798 58.182 81.818 C 58.182 86.839 62.252 90.909 67.273 90.909 C 72.294 90.909 76.364 86.839 76.364 81.818 C 76.364 76.798 72.294 72.727 67.273 72.727 Z" style="fill: rgb(255, 255, 255);"/>
  <path d="M 130.842 190 C 130.842 190 184.109 190 184.109 190 L 184.109 200.654 L 162.803 200.654 L 162.803 237.941 L 152.149 237.941 L 152.149 200.654 L 130.842 200.654 L 130.842 190 C 130.842 190 130.842 190 130.842 190 Z" style="fill: rgb(255, 255, 255);"/>
  <path d="M 207.945 219.297 L 207.945 237.94 L 197.292 237.94 L 197.292 190 L 234.578 190 C 245.233 190 250.56 194.865 250.56 204.595 C 250.56 209.212 249.796 212.603 248.269 214.769 C 249.796 217.291 250.56 220.575 250.56 224.624 L 250.56 237.94 L 239.907 237.94 L 239.907 224.624 C 239.907 221.072 238.131 219.297 234.578 219.297 L 207.945 219.297 Z M 207.945 208.643 L 239.905 208.643 L 239.905 200.653 L 207.945 200.653 L 207.945 208.643 Z" style="fill: rgb(255, 255, 255);"/>
  <path d="M 328.976 219.297 L 328.976 211.307 L 347.379 211.307 L 347.379 219.297 L 328.976 219.297 Z" style="fill: rgb(255, 255, 255);"/>
  <path d="M 412.296 200.654 L 370.001 200.654 L 370.001 208.644 L 396.637 208.644 C 407.29 208.644 412.617 213.527 412.617 223.293 C 412.617 233.059 407.29 237.941 396.637 237.941 L 375.33 237.941 C 366.31 237.941 361.108 234.39 359.723 227.287 L 401.962 227.287 L 401.962 219.297 L 375.329 219.297 C 364.675 219.297 359.347 214.486 359.347 204.862 C 359.347 194.954 364.675 190.001 375.329 190.001 L 396.636 190.001 C 405.726 190 410.947 193.552 412.296 200.654 Z M 359.723 227.287 C 359.473 226.009 359.35 224.607 359.35 223.079 C 359.35 219.315 360.165 216.279 361.799 213.97 C 364.356 217.522 368.865 219.297 375.33 219.297 L 370.002 219.297 L 370.002 227.287 L 359.723 227.287 L 359.723 227.287 Z M 410.112 213.97 C 411.781 211.627 412.616 208.52 412.616 204.649 C 412.616 203.229 412.51 201.897 412.296 200.654 L 401.962 200.654 L 401.962 208.644 L 396.634 208.644 C 403.063 208.643 407.555 210.419 410.112 213.97 Z" style="fill: rgb(255, 255, 255);"/>
  <path d="M 421.217 221.961 L 421.217 205.981 C 421.217 195.327 426.543 190 437.196 190 L 453.178 190 C 463.832 190 469.158 195.327 469.158 205.981 L 469.158 221.961 C 469.158 232.614 463.832 237.941 453.178 237.941 L 437.196 237.941 C 426.543 237.94 421.217 232.614 421.217 221.961 Z M 453.178 227.287 C 456.726 227.287 458.503 225.512 458.503 221.961 L 458.503 205.981 C 458.503 202.429 456.727 200.654 453.178 200.654 L 437.196 200.654 C 433.644 200.654 431.869 202.429 431.869 205.981 L 431.869 221.961 C 431.869 225.512 433.644 227.287 437.196 227.287 L 453.178 227.287 Z" style="fill: rgb(255, 255, 255);"/>
  <path d="M 261.829 222.026 L 275.584 222.026 C 275.584 225.464 277.519 227.829 280.204 227.829 C 282.89 227.829 303.04 227.829 304.975 227.829 C 306.909 227.829 307.553 226.432 307.553 224.497 C 307.553 222.564 308.412 218.373 304.545 218.373 C 300.676 218.373 278.054 218.373 274.294 218.373 C 270.534 218.373 261.722 215.257 261.722 204.727 C 261.722 194.196 268.598 190.328 273.435 190.328 C 278.269 190.328 305.563 190.328 309.968 190.328 C 314.374 190.328 318.455 192.369 318.455 203.652 C 315.231 203.652 305.456 203.652 305.456 203.652 C 305.456 201.181 304.165 199.436 299.653 199.436 C 295.141 199.436 283.479 199.436 280.256 199.436 C 277.032 199.436 275.851 199.677 275.851 204.727 C 275.851 209.777 278.752 209.372 280.899 209.372 C 283.049 209.372 306.315 209.372 311.579 209.372 C 316.844 209.372 321.788 214.719 321.788 222.993 C 321.788 231.267 317.812 238.307 309.323 238.307 C 300.835 238.307 277.197 238.307 272.896 238.307 C 268.6 238.308 261.829 236.21 261.829 222.026 Z" style="fill: rgb(255, 255, 255);"/>
</svg>