<?xml version="1.0" encoding="utf-8"?>
<svg version="1.1" xmlns="http://www.w3.org/2000/svg">
  <g>
    <path id="path3904" d="M 55.377 59.865 L 43.719 81.609 L 0 0 L 23.316 0 Z" style="font-size: 40px; font-style: normal; font-weight: normal; line-height: 125%; letter-spacing: 0px; word-spacing: 0px; fill-opacity: 1; stroke-opacity: 1; font-family: Videopac; fill: rgb(255, 255, 255);"/>
    <path id="path2987" d="M 46.635 32.643 L 64.122 0 L 87.438 0 L 58.293 54.387 Z" style="font-size: 40px; font-style: normal; font-weight: normal; line-height: 125%; letter-spacing: 0px; word-spacing: 0px; fill-opacity: 1; stroke-opacity: 1; font-family: Videopac; fill: rgb(255, 255, 255);"/>
    <path d="M 93.384 0 L 113.844 0 L 113.787 81.609 L 93.384 81.609 Z" id="path2989" style="font-size: 40px; font-style: normal; font-weight: normal; line-height: 125%; letter-spacing: 0px; word-spacing: 0px; fill-opacity: 1; stroke-opacity: 1; font-family: Videopac; fill: rgb(255, 255, 255);"/>
    <path id="path3908" d="M 122.529 0 L 142.992 0 L 142.932 81.609 L 122.529 81.609 Z" style="font-size: 40px; font-style: normal; font-weight: normal; line-height: 125%; letter-spacing: 0px; word-spacing: 0px; fill-opacity: 1; stroke-opacity: 1; font-family: Videopac; fill: rgb(255, 255, 255);"/>
    <path id="path2991" d="M 148.761 20.403 L 148.761 0 L 157.506 0 C 168.774 0 178.392 3.984 186.36 11.949 C 194.325 19.917 198.309 29.535 198.309 40.806 C 198.309 52.074 194.325 61.692 186.36 69.66 C 178.392 77.625 168.774 81.609 157.506 81.609 L 148.761 81.609 L 148.761 61.206 L 157.506 61.206 C 163.14 61.206 167.949 59.214 171.933 55.233 C 175.917 51.249 177.909 46.44 177.909 40.806 C 177.909 35.169 175.917 30.36 171.933 26.376 C 167.949 22.395 163.14 20.403 157.506 20.403 Z" style="font-size: 40px; font-style: normal; font-weight: normal; line-height: 125%; letter-spacing: 0px; word-spacing: 0px; fill-opacity: 1; stroke-opacity: 1; font-family: Videopac; fill: rgb(255, 255, 255);"/>
    <path id="path3916" d="M 207.171 0 L 227.631 0 L 227.574 81.609 L 207.171 81.609 Z" style="font-size: 40px; font-style: normal; font-weight: normal; line-height: 125%; letter-spacing: 0px; word-spacing: 0px; fill-opacity: 1; stroke-opacity: 1; font-family: Videopac; fill: rgb(255, 255, 255);"/>
    <path id="path3914" d="M 233.403 0 L 265.461 0 L 265.461 20.403 L 233.403 20.403 Z" style="font-size: 40px; font-style: normal; font-weight: normal; line-height: 125%; letter-spacing: 0px; word-spacing: 0px; fill-opacity: 1; stroke-opacity: 1; font-family: Videopac; fill: rgb(255, 255, 255);"/>
    <path id="path3912" d="M 233.403 61.206 L 265.461 61.206 L 265.461 81.609 L 233.403 81.609 Z" style="font-size: 40px; font-style: normal; font-weight: normal; line-height: 125%; letter-spacing: 0px; word-spacing: 0px; fill-opacity: 1; stroke-opacity: 1; font-family: Videopac; fill: rgb(255, 255, 255);"/>
    <path id="path2993" d="M 233.403 30.603 L 265.461 30.603 L 265.461 51.006 L 233.403 51.006 Z" style="font-size: 40px; font-style: normal; font-weight: normal; line-height: 125%; letter-spacing: 0px; word-spacing: 0px; fill-opacity: 1; stroke-opacity: 1; font-family: Videopac; fill: rgb(255, 255, 255);"/>
    <path id="path3920" d="M 335.355 43.719 L 355.872 43.719 C 355.251 53.745 351.288 62.391 343.983 69.66 C 336.015 77.625 326.397 81.609 315.126 81.609 C 303.858 81.609 294.24 77.625 286.272 69.66 C 279.006 62.391 275.061 53.745 274.44 43.719 L 294.957 43.719 C 295.542 48.111 297.465 51.939 300.729 55.203 C 304.692 59.205 309.492 61.206 315.126 61.206 C 320.763 61.206 325.581 59.205 329.583 55.203 C 332.847 51.939 334.773 48.111 335.355 43.719 Z" style="font-size: 40px; font-style: normal; font-weight: normal; line-height: 125%; letter-spacing: 0px; word-spacing: 0px; fill-opacity: 1; stroke-opacity: 1; font-family: Videopac; fill: rgb(255, 255, 255);"/>
    <path id="path2995" d="M 294.957 37.89 L 274.44 37.89 C 275.061 27.864 279.006 19.218 286.272 11.949 C 294.24 3.984 303.858 0 315.126 0 C 326.397 0 336.015 3.984 343.983 11.949 C 351.288 19.218 355.251 27.864 355.872 37.89 L 335.355 37.89 C 334.773 33.498 332.847 29.652 329.583 26.349 C 325.581 22.383 320.763 20.403 315.126 20.403 C 309.492 20.403 304.692 22.383 300.729 26.349 C 297.465 29.652 295.542 33.498 294.957 37.89 Z" style="font-size: 40px; font-style: normal; font-weight: normal; line-height: 125%; letter-spacing: 0px; word-spacing: 0px; fill-opacity: 1; stroke-opacity: 1; font-family: Videopac; fill: rgb(255, 255, 255);"/>
    <path id="path3924" d="M 364.791 0 L 385.194 0 L 385.194 81.609 L 364.791 81.609 Z" style="font-size: 40px; font-style: normal; font-weight: normal; line-height: 125%; letter-spacing: 0px; word-spacing: 0px; fill-opacity: 1; stroke-opacity: 1; font-family: Videopac; fill: rgb(255, 255, 255);"/>
    <path id="path2997" d="M 391.023 20.403 L 391.023 0 L 401.982 0 C 409.017 0 415.02 2.487 419.994 7.461 C 424.968 12.435 427.455 18.441 427.455 25.473 C 427.455 32.547 424.968 38.571 419.994 43.545 C 415.02 48.519 409.017 51.006 401.982 51.006 L 391.023 51.006 L 391.023 30.603 L 401.982 30.603 C 403.38 30.603 404.577 30.108 405.567 29.118 C 406.557 28.125 407.055 26.913 407.055 25.473 C 407.055 24.075 406.557 22.881 405.567 21.888 C 404.577 20.898 403.38 20.403 401.982 20.403 Z" style="font-size: 40px; font-style: normal; font-weight: normal; line-height: 125%; letter-spacing: 0px; word-spacing: 0px; fill-opacity: 1; stroke-opacity: 1; font-family: Videopac; fill: rgb(255, 255, 255);"/>
    <path id="path3928" d="M 472.632 48.966 L 455.145 81.609 L 431.829 81.609 L 460.974 27.222 Z" style="font-size: 40px; font-style: normal; font-weight: normal; line-height: 125%; letter-spacing: 0px; word-spacing: 0px; fill-opacity: 1; stroke-opacity: 1; font-family: Videopac; fill: rgb(255, 255, 255);"/>
    <path id="path2999" d="M 481.143 53.919 L 463.89 21.744 L 475.548 0 L 519.267 81.609 L 495.948 81.609 L 492.045 74.322 L 464.88 74.322 L 475.779 53.919 Z" style="font-size: 40px; font-style: normal; font-weight: normal; line-height: 125%; letter-spacing: 0px; word-spacing: 0px; fill-opacity: 1; stroke-opacity: 1; font-family: Videopac; fill: rgb(255, 255, 255);"/>
    <path id="path3934" d="M 563.103 61.032 L 563.103 81.492 C 553.077 80.871 544.428 76.926 537.162 69.66 C 529.194 61.692 525.213 52.074 525.213 40.806 C 525.213 29.535 529.194 19.917 537.162 11.949 C 544.428 4.683 553.077 0.738 563.103 0.117 L 563.103 20.577 C 558.711 21.159 554.883 23.085 551.619 26.349 C 547.617 30.351 545.613 35.169 545.613 40.806 C 545.613 46.44 547.617 51.24 551.619 55.203 C 554.883 58.506 558.711 60.45 563.103 61.032 Z" style="font-size: 40px; font-style: normal; font-weight: normal; line-height: 125%; letter-spacing: 0px; word-spacing: 0px; fill-opacity: 1; stroke-opacity: 1; font-family: Videopac; fill: rgb(255, 255, 255);"/>
    <path id="path3932" d="M 583.038 29.439 C 582.3 28.35 581.445 27.321 580.473 26.349 C 577.17 23.085 573.321 21.159 568.932 20.577 L 568.932 0.117 C 578.958 0.738 587.604 4.683 594.87 11.949 C 596.814 13.893 598.524 15.954 600 18.129 Z" style="font-size: 40px; font-style: normal; font-weight: normal; line-height: 125%; letter-spacing: 0px; word-spacing: 0px; fill-opacity: 1; stroke-opacity: 1; font-family: Videopac; fill: rgb(255, 255, 255);"/>
    <path id="path3001" d="M 600 63.48 C 598.524 65.658 596.814 67.716 594.87 69.66 C 587.604 76.926 578.958 80.871 568.932 81.492 L 568.932 61.032 C 573.321 60.45 577.17 58.506 580.473 55.203 C 581.445 54.231 582.3 53.22 583.038 52.173 Z" style="font-size: 40px; font-style: normal; font-weight: normal; line-height: 125%; letter-spacing: 0px; word-spacing: 0px; fill-opacity: 1; stroke-opacity: 1; font-family: Videopac; fill: rgb(255, 255, 255);"/>
  </g>
</svg>