<?xml version="1.0" encoding="utf-8"?>
<svg version="1.1" xmlns="http://www.w3.org/2000/svg">
  <g>
    <path id="path2952" d="M 0 0.018 L 32.286 154.818 L 64.404 0.018 L 47.022 0.018 L 32.286 87.024 L 17.385 0.018 L 0 0.018 L 0 0.018 Z" style="fill-opacity: 1; fill: rgb(255, 255, 255);"/>
    <path id="path3726" d="M 71.523 0.018 L 88.908 0.018 L 88.908 154.818 L 71.523 154.818 L 71.523 0.018 L 71.523 0.018 Z" style="fill-opacity: 1; fill: rgb(255, 255, 255);"/>
    <path id="path3728" d="M 104.46 0 L 104.46 154.827 L 121.851 154.827 L 121.851 74.832 L 146.034 154.824 L 162.066 154.824 L 142.719 81.624 C 153.468 75.177 156.633 66.735 156.633 66.735 L 156.633 17.553 C 149.511 1.743 137.229 0 137.229 0 L 104.46 0 Z M 121.851 15.759 L 139.242 15.759 L 139.242 69.561 L 121.851 69.561 L 121.851 15.759 Z" style="fill-opacity: 1; fill: rgb(255, 255, 255);"/>
    <path id="path3733" d="M 162.087 0.018 L 214.074 0.018 L 214.074 15.744 L 196.689 15.744 L 196.689 154.818 L 179.304 154.818 L 179.304 15.747 L 162.087 15.747 L 162.087 0.018 L 162.087 0.018 Z" style="fill-opacity: 1; fill: rgb(255, 255, 255);"/>
    <path id="path3735" d="M 310.26 0 L 276.675 154.662 L 276.675 154.824 L 293.901 154.824 L 297.543 133.956 L 321.834 133.956 L 325.311 154.824 L 342.702 154.824 L 310.26 0 L 310.26 0 Z M 310.26 66.732 L 318.195 120.045 L 301.02 120.045 L 310.26 66.732 Z" style="fill-opacity: 1; fill: rgb(255, 255, 255);"/>
    <path id="path2882" d="M 349.668 0.018 L 367.056 0.018 L 367.056 139.089 L 393.051 139.089 L 393.051 154.818 L 349.671 154.818 L 349.668 0.018 L 349.668 0.018 Z" style="fill-opacity: 1; fill: rgb(255, 255, 255);"/>
    <path id="path3660" d="M 535.599 0.018 L 551.493 0.018 L 567.717 66.741 L 582.453 0.018 L 600 0.018 L 575.664 91.077 L 575.664 154.818 L 558.279 154.818 L 558.279 91.08 L 535.599 0.018 L 535.599 0.018 L 535.599 0.018 Z" style="fill-opacity: 1; fill: rgb(255, 255, 255);"/>
    <path id="path3662" d="M 504.402 0.018 C 484.641 0.018 478.29 17.556 478.29 17.556 C 478.452 17.802 478.29 133.962 478.29 137.274 C 480.909 156.09 504.402 154.818 504.402 154.818 L 504.402 154.818 C 530.466 154.818 530.457 137.274 530.457 137.274 L 530.457 17.553 C 523.719 -0.849 504.402 0.018 504.402 0.018 L 504.402 0.018 Z M 495.678 17.553 L 513.072 17.553 L 513.072 139.065 L 495.678 139.065 L 495.678 17.553 Z" style="fill-opacity: 1; fill: rgb(255, 255, 255);"/>
    <path id="path3667" d="M 220.86 0.018 L 238.413 0.018 L 238.413 137.271 L 255.963 137.271 L 255.963 0.018 L 273.18 0.018 L 273.18 137.271 C 273.18 137.271 267.552 154.818 247.848 154.818 C 228.147 154.818 220.86 137.271 220.86 137.271 L 220.86 0.018 L 220.86 0.018 Z" style="fill-opacity: 1; fill: rgb(255, 255, 255);"/>
    <path id="path3669" d="M 412.263 0 L 412.263 154.827 L 447.207 154.827 C 463.425 150.603 464.43 139.065 464.43 139.065 C 464.43 139.065 464.406 97.713 464.406 87.024 C 463.188 80.274 457.641 80.049 457.641 80.049 C 457.641 80.049 457.617 78.168 457.641 76.68 C 463.77 76.209 464.433 69.558 464.433 69.558 C 464.433 69.558 464.406 28.245 464.433 17.55 C 461.778 4.926 447.207 0 447.207 0 L 412.263 0 Z M 429.705 17.661 L 447.204 17.661 L 447.204 69.558 L 429.705 69.558 L 429.705 17.661 Z M 429.654 85.266 L 447.204 85.266 L 447.204 139.065 L 429.654 139.065 L 429.654 85.266 L 429.654 85.266 Z" style="fill-opacity: 1; fill: rgb(255, 255, 255);"/>
  </g>
</svg>