<?xml version="1.0" encoding="utf-8"?>
<svg version="1.1" xmlns="http://www.w3.org/2000/svg">
  <g>
    <path d="M 414.066 32.676 C 414.066 50.694 429.234 65.316 447.906 65.316 C 467.316 65.316 482.556 50.994 482.556 32.676 C 482.553 14.355 467.316 0 447.906 0 C 429.234 0 414.066 14.643 414.066 32.676" style="fill: rgb(255, 255, 255);"/>
    <rect x="419.682" y="98.031" width="57.774" height="186.927" style="fill: rgb(255, 255, 255);"/>
    <path d="M 531.51 32.676 C 531.51 50.694 546.708 65.316 565.371 65.316 C 584.79 65.316 600 50.994 600 32.676 C 600 14.355 584.79 0 565.371 0 C 546.708 0 531.51 14.643 531.51 32.676" style="fill: rgb(255, 255, 255);"/>
    <rect x="537.108" y="98.031" width="57.789" height="186.927" style="fill: rgb(255, 255, 255);"/>
    <path d="M 327.81 15.72 L 277.149 214.341 C 277.149 214.341 238.413 65.253 232.113 44.106 C 225.813 22.923 212.841 13.644 194.451 13.644 C 176.049 13.644 163.059 22.923 156.759 44.106 C 150.48 65.253 111.738 214.341 111.738 214.341 L 61.041 15.72 L 0 15.72 C 0 15.72 58.626 227.64 66.597 252.177 C 72.795 271.335 87.48 286.998 109.251 286.998 C 134.139 286.998 145.779 268.851 151.167 252.177 C 156.501 235.605 194.451 95.64 194.451 95.64 C 194.451 95.64 232.398 235.605 237.717 252.177 C 243.105 268.851 254.745 286.998 279.627 286.998 C 301.413 286.998 316.071 271.335 322.311 252.177 C 330.261 227.64 388.848 15.72 388.848 15.72 L 327.81 15.72 Z" style="fill: rgb(255, 255, 255);"/>
  </g>
</svg>