<?xml version="1.0" encoding="utf-8"?>
<svg version="1.0" xmlns="http://www.w3.org/2000/svg">
  <g>
    <path d="M 7.172 40.206 C 3.278 21.039 -0.151 4.518 0.005 3.585 C 0.005 0.468 21.668 0.78 22.757 3.741 C 23.225 4.986 24.473 11.532 25.562 18.234 L 27.59 30.39 L 29.303 24.312 C 30.239 20.883 31.952 14.493 32.888 9.819 L 34.757 1.557 L 43.64 1.557 L 52.523 1.557 L 56.264 15.741 C 58.29 23.532 60.162 29.142 60.474 28.362 C 60.783 27.429 61.875 21.195 62.811 14.493 L 64.68 2.337 L 76.836 1.869 C 90.549 1.404 89.928 0.624 86.499 15.429 C 85.095 20.883 84.474 25.713 84.939 26.181 C 85.407 26.649 85.719 26.181 85.719 25.092 C 85.719 20.883 95.538 9.195 102.393 5.142 C 111.9 -0.312 126.705 -0.78 136.524 4.365 C 143.07 7.635 152.733 17.454 152.733 20.571 C 152.733 24.468 155.226 19.635 157.563 11.22 L 160.056 2.337 L 171.588 1.869 L 183.12 1.404 L 190.602 13.557 L 197.925 25.713 L 197.925 13.557 L 197.925 1.557 L 208.836 1.557 L 219.744 1.557 L 219.744 37.401 L 219.744 73.401 L 209.457 72.933 L 199.173 72.468 L 190.758 57.663 L 182.343 43.014 L 182.343 55.635 C 182.343 73.401 182.499 73.245 169.719 73.245 L 158.964 73.245 L 158.964 49.245 C 158.964 29.61 158.499 25.092 156.627 24.468 C 154.914 23.688 154.758 24.312 155.85 27.429 C 159.432 36.78 156.471 51.429 148.836 61.557 C 139.641 73.401 119.226 78.234 105.201 71.844 C 91.641 65.766 81.045 46.908 83.538 33.663 C 84.006 30.546 84.162 28.053 83.85 28.053 C 83.382 28.053 80.733 38.493 77.928 51.429 L 72.627 74.805 L 61.407 74.805 L 50.03 74.805 L 47.381 62.805 C 45.044 51.273 42.083 44.571 42.083 50.181 C 42.083 51.429 40.991 57.663 39.59 63.741 L 37.094 74.805 L 25.874 74.805 L 14.654 74.805 L 7.172 40.206 Z M 128.421 47.532 C 133.719 42.702 134.031 33.819 129.045 28.518 C 124.212 23.376 115.017 23.532 110.811 28.986 C 100.524 42.078 116.265 58.752 128.421 47.532 Z" style="fill: rgb(255, 255, 255);"/>
    <path d="M 502.911 72.624 C 492.624 68.883 484.989 62.649 480.936 54.858 L 477.042 47.532 L 476.886 52.674 C 476.886 60.312 472.833 66.546 465.975 70.128 C 460.833 72.78 456.78 73.245 441.042 73.245 L 422.34 73.245 L 422.34 48.468 C 422.34 24.624 422.184 23.688 419.379 24.468 C 416.574 25.248 416.418 24.78 417.663 20.103 C 418.443 17.142 419.847 11.844 420.78 8.259 L 422.496 1.557 L 443.379 1.557 C 464.418 1.557 464.418 1.557 469.404 6.078 C 473.925 10.131 474.546 11.688 474.546 18.39 C 474.546 24 473.613 27.585 471.12 30.858 L 467.691 35.532 L 470.964 38.337 C 472.677 40.053 474.702 42.702 475.482 44.415 C 476.574 46.596 476.73 45.039 476.106 39.585 C 475.17 30.078 477.195 23.376 484.209 13.713 C 491.067 4.209 499.794 0 512.418 0 C 524.262 0 530.805 2.493 538.131 9.819 C 555.741 27.585 551.223 58.284 529.404 69.039 C 518.961 74.181 510.39 75.273 502.911 72.624 Z M 452.418 49.557 C 453.507 45.975 451.794 43.635 447.897 43.635 C 444.936 43.635 444.159 44.415 444.159 47.532 C 444.159 50.649 444.936 51.429 447.897 51.429 C 449.925 51.429 451.95 50.493 452.418 49.557 Z M 522.078 46.44 C 529.872 38.025 524.106 23.376 512.883 23.376 C 510.39 23.376 506.652 24.78 504.312 26.649 C 501.039 29.142 500.262 31.17 500.262 36.624 C 500.262 42.078 501.039 44.103 504.312 46.596 C 509.769 50.961 517.872 50.805 522.078 46.44 Z M 451.95 24.936 C 451.95 22.596 450.858 21.819 448.053 21.819 C 445.248 21.819 444.159 22.596 444.159 24.936 C 444.159 27.273 445.248 28.053 448.053 28.053 C 450.858 28.053 451.95 27.273 451.95 24.936 Z" style="fill: rgb(255, 255, 255);"/>
    <path d="M 227.535 48.312 C 227.535 25.869 227.226 23.532 224.886 24.468 C 222.705 25.248 222.549 24.624 223.329 19.326 C 223.953 16.053 225.198 10.596 226.134 7.17 L 227.847 1.248 L 244.368 1.713 C 259.641 2.337 261.666 2.805 268.368 7.014 C 272.262 9.507 276.939 14.025 278.652 16.986 L 281.769 22.44 L 284.262 14.025 C 285.666 9.507 286.758 4.674 286.758 3.585 C 286.758 2.181 289.407 1.557 295.794 1.557 C 300.627 1.557 311.535 1.092 319.95 0.468 C 331.794 -0.312 335.067 0 335.067 1.557 C 335.067 2.649 333.666 8.415 331.95 14.181 L 328.677 24.936 L 319.482 24.936 C 314.34 24.936 310.134 25.557 310.134 26.493 C 310.134 27.429 315.12 28.053 321.822 28.053 C 334.911 28.053 334.755 27.897 331.794 39.897 L 329.925 47.064 L 320.106 46.44 C 312.939 46.128 310.134 46.44 310.134 48 C 310.134 49.245 313.716 49.869 322.446 49.869 L 334.755 49.869 L 333.51 55.014 C 332.73 57.663 331.329 62.961 330.393 66.702 L 328.677 73.245 L 307.794 73.245 L 286.758 73.245 L 286.758 49.089 C 286.758 30.858 286.29 24.936 284.886 24.936 C 283.485 24.936 283.017 27.429 283.485 33.819 C 284.106 45.351 281.925 52.362 274.758 60.624 C 266.34 70.44 259.329 73.245 242.031 73.245 L 227.535 73.245 L 227.535 48.312 Z M 254.808 48.936 C 258.705 47.376 262.29 39.273 261.042 34.44 C 259.641 29.142 255.9 24.936 252.159 24.936 C 249.666 24.936 249.354 26.337 249.354 37.401 C 249.354 49.713 249.822 50.805 254.808 48.936 Z" style="fill: rgb(255, 255, 255);"/>
    <path d="M 338.184 49.089 C 338.184 28.209 337.872 24.936 335.691 24.936 C 334.134 24.936 333.51 24 334.134 22.287 C 334.599 20.727 336.003 15.429 337.404 10.596 L 339.9 1.557 L 357.666 1.557 C 381.354 1.557 387.744 4.209 394.443 17.454 C 399.276 26.805 397.404 38.337 389.613 47.22 L 385.248 52.206 L 391.326 62.337 L 397.404 72.468 L 384.471 72.933 C 375.276 73.245 371.379 72.78 370.443 71.376 C 369.822 70.284 367.482 66.546 365.457 63.117 C 362.808 58.908 361.716 57.975 361.872 60 C 362.028 61.713 361.872 65.454 361.872 68.259 L 361.56 73.245 L 349.872 73.245 L 338.184 73.245 L 338.184 49.089 Z M 371.691 29.61 C 371.691 26.493 370.755 25.557 367.482 25.248 C 363.588 24.78 363.12 25.248 363.12 29.61 C 363.12 33.975 363.588 34.44 367.482 33.975 C 370.755 33.663 371.691 32.727 371.691 29.61 Z" style="fill: rgb(255, 255, 255);"/>
    <path d="M 557.922 56.883 L 557.922 40.518 L 548.571 21.819 C 543.429 11.532 539.223 2.493 539.223 1.557 C 539.223 0.624 544.209 0 551.379 0 L 563.532 0 L 566.493 7.947 L 569.61 15.897 L 573.039 7.947 L 576.624 0 L 588.312 0 C 595.17 0 600 0.624 600 1.557 C 600 2.493 595.794 11.532 590.649 21.819 L 581.298 40.518 L 581.298 56.883 L 581.298 73.245 L 569.61 73.245 L 557.922 73.245 L 557.922 56.883 Z" style="fill: rgb(255, 255, 255);"/>
  </g>
</svg>