<?xml version="1.0" encoding="utf-8"?>
<svg xmlns="http://www.w3.org/2000/svg">
  <path d="M 144.165 299.801 L 0 299.801 L 91.171 210.339 Z M 29.815 287.617 L 122.786 287.617 L 88.61 229.924 Z M 419.087 110 L 376.979 154.053 L 428.145 154.053 L 352.988 287.617 L 304.774 287.617 L 202.61 110 L 56.346 110 L 166.521 299.801 L 490.827 299.801 L 600 110 Z M 173.537 287.617 L 77.507 122.185 L 195.561 122.185 L 290.717 287.617 Z M 483.778 287.617 L 366.97 287.617 L 448.983 141.868 L 405.481 141.868 L 424.296 122.185 L 578.935 122.185 Z" style="fill: rgb(255, 255, 255);"/>
  <path d="M 274.123 195.498 L 226.175 110 L 358.465 110 Z M 246.979 122.185 L 276.826 175.407 L 329.329 122.185 Z" style="fill: rgb(255, 255, 255);"/>
  <path d="M 205.086 33.321 L 152.226 33.321 L 152.226 2.572 L 124.91 2.572 L 124.91 82.989 L 152.226 82.989 L 152.226 50.679 L 205.086 50.679 L 205.086 82.989 L 232.401 82.989 L 232.401 2.573 L 205.086 2.573 L 205.086 33.321 M 278.016 50.676 L 297.038 19.451 L 315.476 50.676 L 278.016 50.676 M 286.442 2.57 L 237.451 82.986 L 258.334 82.986 L 268.354 66.533 L 324.834 66.533 L 334.554 82.986 L 367.901 82.986 L 318.922 2.57 L 286.442 2.57 M 476.253 37.422 C 482.759 28.9 481.879 16.415 469.384 9.266 C 457.743 2.582 435.521 0.123 421.636 0.123 C 399.422 0.123 385.123 1.633 372.959 3.712 L 372.959 82.989 L 400.266 82.989 L 400.266 15.743 C 410.103 13.793 420.091 13.75 423.823 13.925 C 434.665 14.404 440.769 16.09 445.644 19.549 C 450.682 23.144 452.052 31.09 445.516 36.606 C 440.617 40.719 430.684 43.95 408.469 40.559 L 405.331 45.711 L 447.333 82.989 L 484.522 82.989 L 447.16 50.679 C 456.137 49.516 469.748 45.927 476.253 37.422 M 65.046 30.36 C 49.274 27.294 35.87 25.39 35.87 20.271 C 35.87 14.607 46.709 13.146 62.067 14.775 C 76.591 16.312 90.286 20.113 103.06 25.548 L 112.763 9.632 C 102.438 5.701 81.16 0.664 61.839 0.092 C 40.674 -0.521 4.937 1.377 3.392 22.781 C 1.982 42.372 29.9 47.054 48.206 51.312 C 66.06 55.468 82.798 56.971 82.798 63.152 C 82.798 67.498 76.899 70.89 61.295 69.72 C 42.513 68.316 26.533 63.184 10.593 55.261 L 0 72.655 C 17.68 79.565 40.867 85.116 61.756 85.461 C 86.593 85.875 114.633 81.869 115.269 60.596 C 115.788 42.845 97.398 36.645 65.046 30.36 M 564.512 36.763 C 559.793 40.629 552.897 41.999 542.015 41.967 C 533.991 41.939 525.687 40.464 518.919 38.93 L 518.919 15.743 C 528.749 13.793 538.916 13.767 542.648 13.922 C 553.548 14.383 559.908 16.229 564.633 19.549 C 569.55 23.001 571.191 31.288 564.512 36.763 M 588.386 9.264 C 577.265 2.682 556.442 0.123 540.459 0.123 C 518.239 0.123 503.77 1.633 491.606 3.71 L 491.606 82.989 L 518.919 82.989 L 518.919 53.945 C 527.365 55.355 537.944 56.173 547.098 56.105 C 569.448 55.915 586.058 50.664 593.618 42.433 C 604.392 30.724 600.775 16.583 588.386 9.266" style="fill: rgb(255, 255, 255);"/>
</svg>