<?xml version="1.0" encoding="utf-8"?>
<svg version="1.1" xmlns="http://www.w3.org/2000/svg">
  <g>
    <path d="M 25.334 64.783 L 84.442 166.111 L 164.661 166.111 L 105.553 64.783 L 25.334 64.783 Z M 38 71.115 L 99.219 71.115 L 149.703 157.668 L 88.481 157.668 L 38 71.115 Z" style="fill: rgb(255, 255, 255);"/>
    <path d="M 46.467 119.1 L 0 166.111 L 73.888 166.111 L 46.467 119.1 Z M 43.981 132.337 L 61.222 159.779 L 16.888 159.779 L 43.981 132.337 Z" style="fill: rgb(255, 255, 255);"/>
    <path d="M 141.517 111.76 L 187.984 64.753 L 114.096 64.753 L 141.517 111.76 Z M 144.003 98.53 L 126.761 71.087 L 171.092 71.087 L 144.003 98.53 Z" style="fill: rgb(255, 255, 255);"/>
    <path d="M 200.725 130.76 C 200.613 130.609 200.374 131.905 200.009 134.636 C 199.643 137.366 199.438 139.399 199.402 140.722 C 199.782 143.553 200.746 143.574 202.311 145.002 C 203.613 145.803 204.724 145.579 207.853 145.93 C 210.986 146.289 229.626 146.295 232.78 145.945 C 235.924 145.601 238.555 145.172 240.274 144.039 C 243.624 141.937 245.895 138.907 247.086 130.733 C 247.937 126.32 248.309 125.187 248.209 123.106 C 248.082 120.318 246.663 118.445 243.947 117.503 C 241.232 116.56 237.269 117.016 232.864 117.016 L 224.165 117.016 C 214.813 117.016 209.149 117.058 206.349 118.995 C 203.159 121.124 201.894 123.961 200.725 130.76 Z M 267.596 98.189 L 254.353 98.189 C 254.797 94.999 254.676 92.866 254.586 90.918 C 254.495 88.933 254.29 87.193 253.39 86.556 C 251.505 84.931 243.82 85.076 235.643 85.076 L 227.995 85.076 C 219.861 85.076 215.103 85.028 212.632 86.858 C 209.439 89.341 207.509 93.141 206.842 98.252 L 204.688 107.039 C 204.688 107.039 206.123 104.885 209.346 104.541 C 215.003 103.928 224.425 104.499 227.965 104.499 C 236.592 104.647 243.721 104.139 248.357 104.897 C 252.994 105.668 258.042 106.664 260.455 109.283 C 262.588 111.47 263.754 114.829 263.965 119.351 C 264.107 122.336 263.515 127.214 262.198 133.968 C 261.461 137.227 260.603 140.169 259.618 142.779 C 258.64 145.395 257.286 147.824 255.555 150.062 C 253.834 152.3 251.78 156.176 249.393 157.472 C 245.63 159.393 240.803 159.266 236.438 159.779 C 232.076 160.293 225.08 159.779 218.151 159.779 C 211.965 159.779 205.688 159.921 201.184 159.387 C 196.674 158.852 192.959 157.547 190.038 155.481 C 186.47 152.883 184.465 148.591 184.036 142.61 C 184.015 139.52 184.359 136.01 185.069 132.062 L 192.451 93.325 C 193.853 84.843 196.448 78.231 202.619 74.289 C 206.053 72.151 210.219 70.737 215.118 70.048 C 220.021 69.35 228.107 69.006 235.163 69.006 L 246.013 69.006 C 253.39 69.006 255.444 69.991 260.615 71.954 C 265.786 73.918 268.511 77.835 268.786 83.714 C 268.871 85.429 268.469 93.072 267.596 98.189 Z" style="fill: rgb(255, 255, 255);"/>
    <path d="M 318.479 81.388 C 309.776 81.388 301.85 81.783 298.932 82.572 C 296.08 83.366 294.292 83.297 293.005 85.336 C 291.725 87.378 290.909 89.516 290.559 91.761 C 290.205 93.999 289.888 97.01 289.613 100.783 C 289.888 103.049 290.613 104.61 291.788 105.453 C 294.039 106.876 301.928 107.003 312.174 107.003 C 321.351 107.003 328.196 106.812 331.784 105.257 C 333.304 104.659 334.615 103.309 335.711 101.212 C 336.817 99.107 337.484 97.572 338.267 93.612 C 338.702 91.214 338.892 89.187 338.859 87.52 C 338.807 85.399 338.152 83.992 336.892 83.288 C 335.509 82.53 333.388 82.022 330.54 81.768 C 327.682 81.515 323.665 81.388 318.479 81.388 Z M 340.692 112.814 C 346.148 115.053 346.148 120.318 346.29 126.374 C 346.311 127.229 346.513 131.835 346.232 133.433 C 345.951 135.022 346.042 136.249 345.945 136.762 C 344.74 142.32 344.347 144.77 342.468 148.056 C 340.59 151.349 339.484 153.705 336.207 155.466 C 333.349 157.085 329.724 158.209 325.341 158.837 C 320.949 159.462 313.259 159.779 306.484 159.779 L 297.73 159.779 C 290.151 159.779 284.224 159.505 279.947 158.958 C 275.676 158.408 273.157 156.436 270.644 154.137 C 268.272 152.068 266.022 147.044 265.632 142.202 C 265.759 139.943 266.161 138.789 266.829 134.533 C 267.711 130.6 267.919 127.431 268.617 125.32 C 269.315 123.218 270.707 120.738 272.242 118.804 C 273.767 116.877 276.026 115.461 278.703 113.935 C 280.349 112.993 280.841 112.633 279.159 111.226 C 277.307 109.685 276.815 108.241 276.295 106.356 C 276.026 105.767 275.887 100.025 275.857 99.835 C 276.676 86.725 280.107 80.047 286.251 75.002 C 289.861 71.906 291.453 70.069 299.461 69.498 C 303.569 69.166 314.836 69.006 320.59 69.006 C 328.528 69.006 336.246 69.175 339.532 69.514 C 342.42 69.933 344.924 70.553 347.063 71.362 C 349.205 72.178 348.984 73.564 350.615 75.528 C 352.047 77.337 352.805 80.207 352.899 84.133 C 352.959 86.843 352.784 89.667 352.364 92.612 C 351.947 95.555 351.18 98.391 350.062 101.131 C 348.951 103.864 347.507 106.048 345.734 107.688 C 343.511 110.108 343.822 111.806 340.877 112.769 C 340.245 112.981 339.907 112.833 339.922 112.733 C 339.928 112.654 340.182 112.603 340.692 112.814 Z M 309.598 118.662 C 304.004 118.662 298.283 118.641 295.265 118.98 C 292.247 119.318 289.776 119.964 287.84 120.916 C 286.061 121.716 284.632 123.166 283.548 125.266 C 282.457 127.368 281.5 130.295 280.663 134.047 C 279.953 138.396 280.044 139.26 279.911 140.526 C 280.18 142.834 280.663 144.193 282.409 144.96 C 284.161 145.727 286.68 147.066 290.148 147.214 C 292.794 147.498 299.699 147.643 306.632 147.643 C 313.83 147.643 319.472 148.141 323.378 146.685 C 325.221 145.875 327.253 145.649 328.422 143.568 C 329.598 141.489 330.105 139.339 330.999 135.327 C 331.709 132.258 332.047 129.854 332.005 128.108 C 331.957 126.123 331.401 122.499 330.322 121.463 C 329.431 120.457 327.438 119.711 324.357 119.218 C 321.273 118.72 315.89 118.662 309.598 118.662 Z" style="fill: rgb(255, 255, 255);"/>
    <path d="M 385.488 159.779 C 377.596 159.779 369.222 159.278 364.583 158.281 C 359.946 157.281 356.578 155.526 354.457 153.016 C 351.842 150.074 352.325 145.872 351.959 140.124 C 352.113 135.524 352.693 130.914 353.43 126.58 L 358.209 101.472 C 359.209 96.089 360.623 91.22 362.459 86.858 C 364.29 82.502 366.872 78.868 370.192 75.972 C 372.095 74.135 374.59 72.685 377.68 71.607 C 380.764 70.538 384.283 69.834 388.222 69.505 C 392.155 69.172 396.997 69.003 402.73 69.003 C 407.065 69.003 410.965 69.151 414.42 69.447 C 417.882 69.743 420.915 70.278 423.524 71.06 C 426.137 71.839 428.351 73.008 430.167 74.555 C 433.462 77.548 435.184 82.255 435.332 88.68 C 435.396 91.268 435.003 95.715 434.157 102.022 L 429.282 127.241 C 426.645 141.574 423.488 150.983 415.607 155.472 C 412.408 157.245 408.557 158.405 404.047 158.955 C 399.534 159.505 391.944 159.779 385.488 159.779 Z M 400.444 82.001 C 394.427 82.001 390.122 82.116 387.53 82.339 C 384.942 82.557 382.712 83.037 380.84 83.777 C 379.402 84.36 378.115 85.203 376.967 86.293 C 375.828 87.393 374.69 89.229 373.554 91.797 C 372.424 94.373 371.43 95.733 370.585 100.079 L 365.181 128.754 C 364.564 132.998 364.175 134.334 364.027 136.989 C 364.19 139.366 364.583 141.106 365.223 142.208 C 365.863 143.314 366.815 144.193 368.059 144.848 C 369.648 145.67 371.678 146.199 374.146 146.431 C 376.617 146.664 380.692 146.782 386.371 146.782 C 393.273 146.782 398.402 146.57 401.779 146.162 C 405.159 145.749 407.717 144.797 409.463 143.32 C 412.686 140.423 414.544 136.089 416.444 127.06 L 421.44 100.623 C 422.165 95.57 422.494 93.854 422.44 91.247 C 422.355 87.637 422.229 85.753 420.661 84.641 C 419.154 83.499 417.042 82.777 414.333 82.466 C 411.617 82.155 406.995 82.001 400.444 82.001 Z" style="fill: rgb(255, 255, 255);"/>
    <path d="M 467.819 159.779 C 459.926 159.779 451.553 159.278 446.913 158.281 C 442.277 157.281 438.909 155.526 436.788 153.016 C 434.172 150.074 434.656 145.872 434.29 140.124 C 434.447 135.524 435.021 130.914 435.761 126.58 L 440.54 101.472 C 441.54 96.089 442.953 91.22 444.79 86.858 C 446.62 82.502 449.203 78.868 452.526 75.972 C 454.426 74.135 456.924 72.685 460.011 71.607 C 463.095 70.538 466.611 69.834 470.553 69.505 C 474.486 69.172 479.328 69.003 485.061 69.003 C 489.396 69.003 493.295 69.151 496.751 69.447 C 500.213 69.743 503.245 70.278 505.858 71.06 C 508.468 71.839 510.682 73.008 512.497 74.555 C 515.793 77.548 517.515 82.255 517.666 88.68 C 517.729 91.268 517.334 95.715 516.488 102.022 L 511.612 127.241 C 508.975 141.574 505.822 150.983 497.941 155.472 C 494.736 157.245 490.891 158.405 486.378 158.955 C 481.865 159.505 474.274 159.779 467.819 159.779 Z M 482.774 82.001 C 476.757 82.001 472.45 82.116 469.861 82.339 C 467.272 82.557 465.04 83.037 463.167 83.777 C 461.733 84.36 460.446 85.203 459.298 86.293 C 458.159 87.393 457.02 89.229 455.885 91.797 C 454.755 94.373 453.761 95.733 452.915 100.079 L 447.511 128.754 C 446.892 132.998 446.505 134.334 446.357 136.989 C 446.521 139.366 446.913 141.106 447.554 142.208 C 448.194 143.314 449.146 144.193 450.39 144.848 C 451.979 145.67 454.006 146.199 456.477 146.431 C 458.948 146.664 463.022 146.782 468.701 146.782 C 475.603 146.782 480.732 146.57 484.109 146.162 C 487.487 145.749 490.048 144.797 491.794 143.32 C 495.017 140.423 496.875 136.089 498.775 127.06 L 503.771 100.623 C 504.496 95.57 504.825 93.854 504.771 91.247 C 504.686 87.637 504.559 85.753 502.992 84.641 C 501.484 83.499 499.373 82.777 496.663 82.466 C 493.948 82.155 489.326 82.001 482.774 82.001 Z" style="fill: rgb(255, 255, 255);"/>
    <path d="M 550.15 159.779 C 542.257 159.779 533.881 159.278 529.244 158.281 C 524.607 157.281 521.236 155.526 519.119 153.016 C 516.503 150.074 516.986 145.872 516.621 140.124 C 516.775 135.524 517.352 130.914 518.092 126.58 L 522.87 101.472 C 523.87 96.089 525.284 91.22 527.12 86.858 C 528.951 82.502 531.531 78.868 534.853 75.972 C 536.753 74.135 539.251 72.685 542.341 71.607 C 545.422 70.538 548.942 69.834 552.88 69.505 C 556.816 69.172 561.655 69.003 567.392 69.003 C 571.726 69.003 575.623 69.151 579.078 69.447 C 582.543 69.743 585.573 70.278 588.186 71.06 C 590.796 71.839 593.013 73.008 594.828 74.555 C 598.121 77.548 599.845 82.255 599.993 88.68 C 600.057 91.268 599.661 95.715 598.818 102.022 L 593.943 127.241 C 591.303 141.574 588.15 150.983 580.269 155.472 C 577.067 157.245 573.218 158.405 568.706 158.955 C 564.196 159.505 556.605 159.779 550.15 159.779 Z M 565.105 82.001 C 559.088 82.001 554.78 82.116 552.192 82.339 C 549.603 82.557 547.374 83.037 545.501 83.777 C 544.063 84.36 542.776 85.203 541.629 86.293 C 540.49 87.393 539.351 89.229 538.215 91.797 C 537.086 94.373 536.092 95.733 535.246 100.079 L 529.842 128.754 C 529.223 132.998 528.836 134.334 528.688 136.989 C 528.851 139.366 529.244 141.106 529.884 142.208 C 530.525 143.314 531.476 144.193 532.721 144.848 C 534.31 145.67 536.336 146.199 538.807 146.431 C 541.275 146.664 545.353 146.782 551.029 146.782 C 557.934 146.782 563.063 146.57 566.44 146.162 C 569.82 145.749 572.379 144.797 574.125 143.32 C 577.348 140.423 579.205 136.089 581.105 127.06 L 586.102 100.623 C 586.826 95.57 587.156 93.854 587.101 91.247 C 587.017 87.637 586.89 85.753 585.322 84.641 C 583.815 83.499 581.703 82.777 578.994 82.466 C 576.278 82.155 571.654 82.001 565.105 82.001 Z" style="fill: rgb(255, 255, 255);"/>
    <polygon points="201.833 1.909 201.833 48.139 217.665 48.139 217.665 29.774 248.064 29.774 248.064 48.139 263.895 48.139 263.895 1.909 248.064 1.909 248.064 19.64 217.665 19.64 217.665 1.909" style="fill: rgb(255, 255, 255);"/>
    <path d="M 299.678 11.886 L 309.691 28.508 L 289.659 28.508 L 299.678 11.886 Z M 315.422 38.005 L 321.529 48.139 L 339.895 48.139 L 312.029 1.906 L 305.695 1.906 L 293.661 1.906 L 265.795 48.139 L 277.83 48.139 L 283.937 38.008 L 315.422 38.008 Z" style="fill: rgb(255, 255, 255);"/>
    <path d="M 408.291 1.909 L 408.291 48.139 L 423.491 48.139 L 423.491 31.399 C 428.508 32.42 434.224 32.94 440.274 32.94 C 460.385 32.94 469.553 25.705 469.722 16.791 C 469.918 6.095 457.851 0.009 437.74 0.009 C 432.52 0.009 430.689 0.226 423.491 0.64 C 416.293 1.057 408.291 1.909 408.291 1.909 Z M 423.491 9.218 C 423.491 9.218 427.201 8.784 430.541 8.563 C 433.876 8.355 434.764 8.394 437.184 8.394 C 446.515 8.394 452.082 11.366 451.991 16.855 C 451.912 21.428 447.656 25.143 438.326 25.143 C 435.516 25.143 431.287 24.748 428.436 24.349 C 425.588 23.953 423.491 23.047 423.491 23.047 L 423.491 9.218 Z" style="fill: rgb(255, 255, 255);"/>
    <path d="M 341.795 1.909 L 341.795 48.139 L 356.995 48.139 L 356.995 9.218 C 356.995 9.218 360.704 8.784 364.045 8.563 C 367.38 8.355 368.268 8.394 370.687 8.394 C 380.018 8.394 386.216 11.366 386.126 16.855 C 386.047 21.428 381.157 23.875 371.826 23.875 C 369.02 23.875 365.564 23.488 362.713 23.095 C 362.559 23.074 359.526 27.992 359.526 27.992 L 382.326 48.139 L 405.126 48.139 L 384.99 30.813 C 397.595 28.705 403.851 22.975 403.857 16.791 C 403.872 4.787 391.928 -0.233 371.243 0.009 C 366.02 0.072 364.19 0.226 356.992 0.64 C 349.797 1.057 341.795 1.909 341.795 1.909 Z" style="fill: rgb(255, 255, 255);"/>
    <path d="M 191.699 15.84 C 191.699 15.84 197.006 6.101 196.765 5.709 C 196.526 5.313 186.057 -0.23 165.099 0.009 C 132.627 0.374 132.803 13.94 132.803 13.94 C 132.803 13.94 129.558 26.551 154.799 29.14 C 170.289 30.722 181.32 33.311 181.257 37.078 C 181.193 40.851 174.693 40.624 171.778 40.385 C 146.441 38.331 137.385 31.23 137.385 31.23 L 131.887 42.615 C 131.887 42.615 144.118 50.272 169.534 50.039 C 194.98 49.807 198.462 43.769 198.928 35.643 C 199.504 25.524 185.368 21.54 185.368 21.54 C 185.368 21.54 177.611 19.839 169.546 18.685 C 160.281 17.353 150.624 15.87 151.83 12.209 C 151.83 12.085 154.566 6.841 173.995 10.487 C 183.438 12.251 191.699 15.84 191.699 15.84 Z" style="fill: rgb(255, 255, 255);"/>
  </g>
</svg>