<?xml version="1.0" encoding="utf-8"?>
<svg id="svg2" version="1.1" xmlns="http://www.w3.org/2000/svg">
  <g>
    <path style="fill-opacity: 1; fill: rgb(255, 255, 255);" d="M 220.698 219.519 C 214.317 217.893 187.341 216.981 152.598 217.212 L 126.087 217.386 L 125.895 215.718 C 125.724 214.224 126.024 213.942 128.772 213.021 C 133.083 211.578 137.217 208.785 138.756 206.274 C 141.072 202.491 141.453 197.229 141.825 163.872 C 142.191 130.908 141.825 122.79 139.836 119.73 C 138.174 117.168 134.778 115.092 130.524 114.033 C 126.429 113.016 124.725 111.645 125.319 109.848 C 125.508 109.278 134.364 109.083 162.048 109.041 C 200.562 108.981 213.006 108.396 220.26 106.296 C 222.594 105.621 224.883 105.213 225.348 105.393 C 226.617 105.885 226.86 108.309 227.322 125.211 L 227.748 140.697 L 226.254 141.099 C 222.948 141.99 222.741 141.777 218.211 132.771 C 212.379 121.188 210.045 118.026 205.71 115.854 C 202.35 114.171 202.026 114.132 191.034 114.132 C 180.498 114.132 179.652 114.222 177.558 115.536 C 176.328 116.304 174.975 117.711 174.546 118.656 C 173.277 121.467 172.491 131.118 172.716 141.207 C 172.896 149.355 173.1 150.951 174.204 152.853 C 176.346 156.537 178.038 156.786 195.585 155.994 C 212.502 155.229 212.586 155.244 212.568 159.069 C 212.55 163.269 212.763 163.212 199.989 162.396 C 180.024 161.121 177.267 161.454 174.312 165.519 C 172.671 167.781 171.783 179.4 172.131 194.091 C 172.503 209.949 173.385 211.461 182.805 212.391 C 188.619 212.967 200.016 211.776 203.478 210.231 C 208.902 207.813 213.408 202.104 223.293 185.121 C 226.572 179.487 227.259 178.668 228.711 178.677 C 232.185 178.692 233.187 179.316 233.187 181.452 C 233.187 183.477 227.802 218.595 227.268 220.062 C 226.914 221.034 226.521 221.001 220.698 219.519 Z M 108.6 218.532 C 103.692 217.011 103.125 216.978 76.128 216.678 C 61.014 216.51 38.394 216.612 25.857 216.906 C 12.897 217.209 2.568 217.203 1.914 216.888 C 0 215.97 1.107 213.801 7.92 205.134 C 11.43 200.667 18.099 192.126 22.734 186.159 C 32.799 173.199 39.279 165.204 54.309 147.177 C 71.493 126.57 78.315 117.711 78.315 115.995 C 78.315 113.367 76.665 113.067 64.692 113.514 C 44.208 114.279 40.359 115.131 35.328 120.021 C 32.718 122.559 29.055 128.019 23.868 137.112 C 20.769 142.545 20.268 143.112 18.432 143.295 C 15.528 143.583 14.601 142.551 14.943 139.413 C 15.693 132.543 17.109 117.333 17.463 112.359 C 17.766 108.105 18.09 106.716 18.855 106.422 C 19.404 106.209 21.696 106.581 23.949 107.247 C 27.798 108.387 30.708 108.468 72.693 108.612 C 97.251 108.696 117.696 108.768 118.125 108.774 C 118.581 108.78 118.905 109.599 118.905 110.742 C 118.905 112.347 117.24 114.699 109.695 123.753 C 96.675 139.368 77.499 162.909 73.941 167.631 C 73.083 168.774 68.703 174.486 64.209 180.324 C 48.51 200.727 43.968 207.159 43.968 208.986 C 43.968 211.377 45.945 211.599 63.915 211.2 C 82.806 210.78 85.53 210.42 91.224 207.612 C 97.476 204.525 103.32 196.923 110.355 182.724 C 111.564 180.279 113.004 177.906 113.55 177.447 C 114.582 176.583 118.629 176.877 119.631 177.888 C 119.916 178.176 119.751 181.797 119.262 185.937 C 118.773 190.077 117.903 198.279 117.33 204.165 C 115.983 217.974 115.647 219.873 114.516 219.987 C 114.009 220.038 111.348 219.384 108.6 218.532 Z M 329.982 219.276 C 325.437 218.139 304.524 217.545 266.169 217.458 L 235.371 217.386 L 235.176 215.661 C 235.017 214.269 235.32 213.795 236.736 213.21 C 242.868 210.687 245.007 209.334 246.648 206.949 C 249.684 202.53 249.99 199.209 250.443 165.444 C 251.043 121.053 250.929 120.525 239.589 114.822 C 235.569 112.8 235.059 112.344 235.059 110.766 L 235.059 108.987 L 265.815 109.041 L 296.571 109.098 L 296.571 110.949 C 296.571 112.623 296.223 112.935 292.92 114.225 C 284.427 117.543 281.892 121.353 280.626 132.705 C 279.6 141.921 279.099 197.154 279.993 202.458 C 281.373 210.627 283.794 212.034 296.457 212.034 C 312.126 212.034 317.322 209.37 325.296 197.241 C 328.335 192.618 330.036 189.651 334.143 181.815 C 336.288 177.717 337.587 176.793 340.326 177.417 C 341.562 177.696 342.702 178.059 342.865 178.221 C 343.189 178.548 342.405 183.561 339.054 202.593 C 335.823 220.962 336.093 219.888 334.665 220.02 C 333.978 220.083 331.872 219.75 329.982 219.276 Z M 344.397 217.701 C 343.461 217.056 343.164 215.169 343.9 214.515 C 344.316 214.143 346.344 212.916 348.406 211.788 C 351.723 209.976 352.384 209.277 354.16 205.695 C 356.911 200.145 357.457 193.185 357.457 163.491 C 357.46 136.35 356.782 124.971 354.946 121.341 C 353.434 118.35 350.452 116.004 346.461 114.666 C 342.48 113.328 341.847 112.77 341.847 110.595 L 341.847 108.783 L 367.297 108.651 C 434.581 108.303 437.8 108.354 444.184 109.881 C 458.05 113.193 467.266 120.174 473.08 131.763 C 479.188 143.94 479.56 167.115 473.92 184.017 C 469.318 197.817 459.121 209.481 447.499 214.242 C 438.484 217.935 437.932 217.971 389.407 217.995 C 364.903 218.007 344.65 217.875 344.397 217.701 Z M 418.225 212.019 C 422.443 210.699 427.378 207.612 430.816 204.144 C 436.042 198.879 440.686 188.16 442.678 176.778 C 444.091 168.717 443.602 146.964 441.838 139.317 C 438.895 126.546 432.088 117.471 423.196 114.459 C 415.354 111.801 398.716 112.167 392.968 115.122 C 390.58 116.352 388.687 119.172 387.826 122.787 C 387.085 125.892 387.229 202.659 387.979 205.455 C 388.666 208.002 390.88 210.609 393.526 211.98 C 397.672 214.131 411.418 214.155 418.225 212.019 Z M 461.155 215.892 C 460.243 214.248 461.539 212.835 465.232 211.443 C 475.753 207.474 478.9 204.132 487.204 188.112 C 489.628 183.435 494.188 174.654 497.338 168.594 C 505.003 153.849 510.691 141.972 515.728 130.188 C 518.023 124.821 520.171 119.862 520.504 119.169 C 520.837 118.479 521.884 115.785 522.832 113.19 L 524.554 108.468 L 536.71 108.081 C 545.365 107.808 549.088 107.901 549.637 108.408 C 550.06 108.801 551.386 112.728 552.586 117.135 C 560.206 145.167 579.742 197.13 585.64 205.053 C 587.761 207.9 591.526 210.345 595.453 211.422 C 598.852 212.355 599.485 213.072 598.918 215.343 L 598.567 216.756 L 567.472 216.756 L 536.377 216.756 L 536.377 215.184 C 536.377 213.852 537.139 213.216 541.351 211.047 C 546.769 208.254 548.545 206.193 548.551 202.695 C 548.557 198.522 544.237 183.363 542.209 180.444 C 540.187 177.531 537.661 177.096 522.949 177.126 C 501.892 177.171 500.266 178.041 496.036 191.496 C 492.439 202.947 493.066 206.46 499.285 209.634 C 501.139 210.579 503.581 211.689 504.715 212.1 C 506.521 212.751 506.755 213.09 506.59 214.8 L 506.401 216.756 L 484.054 216.819 C 464.344 216.873 461.641 216.762 461.155 215.889 Z M 534.436 171.762 C 537.055 170.892 538.213 168.789 537.613 165.993 C 537.124 163.698 528.334 137.211 526.099 131.289 C 523.972 125.649 522.088 126.396 518.506 134.31 C 513.574 145.197 504.838 167.241 504.838 168.795 C 504.838 170.916 506.554 171.942 510.835 172.38 C 516.79 172.992 531.94 172.593 534.436 171.762 Z" id="path3044"/>
    <path id="path3042" style="fill: rgb(255, 255, 255);"/>
    <path id="path3040" style="fill: rgb(255, 255, 255);"/>
    <path style="fill-opacity: 1; fill: rgb(255, 255, 255);" d="M 260.793 101.487 C 259.917 100.803 258.759 98.958 258.222 97.389 C 257.385 94.95 257.361 94.182 258.069 92.148 C 259.77 87.249 262.647 83.502 271.122 75.168 L 279.831 66.603 L 281.445 59.442 C 283.785 49.05 283.002 48.183 276.57 54.057 C 268.203 61.698 266.826 62.532 263.463 61.998 C 261.702 61.719 260.895 61.887 260.253 62.658 C 259.782 63.228 257.334 64.626 254.811 65.769 C 248.133 68.796 245.028 68.544 239.4 64.521 C 237.873 63.426 237.699 63.423 235.734 64.443 C 228.06 68.424 224.577 69.915 222.381 70.164 C 215.487 70.944 212.304 65.349 214.833 56.898 C 215.337 55.206 220.503 44.433 226.308 32.958 C 232.113 21.48 237.687 10.269 238.692 8.043 C 241.545 1.737 242.82 0.684 243.645 3.951 C 243.942 5.13 241.173 11.22 231.54 30.588 C 215.73 62.37 214.881 64.839 219.636 65.232 C 221.355 65.376 223.239 64.731 227.346 62.598 C 235.575 58.323 236.802 57.219 237.609 53.364 C 237.984 51.564 238.479 48.714 238.704 47.028 C 239.028 44.613 239.637 43.419 241.566 41.421 C 242.916 40.023 244.956 37.554 246.099 35.931 C 250.824 29.238 258.192 22.686 261.654 22.101 C 264.246 21.663 265.617 22.596 266.916 25.686 C 269.436 31.671 266.55 39.723 259.239 47.109 C 254.823 51.57 248.568 55.389 245.676 55.389 C 244.407 55.389 243.765 55.944 242.745 57.927 C 241.206 60.924 241.722 61.989 245.013 62.601 C 248.004 63.159 253.053 61.839 257.931 59.223 C 261.486 57.315 262.23 56.619 262.917 54.552 C 265.473 46.86 282.291 29.784 288.738 28.338 C 290.079 28.035 290.832 28.302 292.032 29.49 C 293.952 31.398 294.027 33.753 292.218 35.424 C 290.955 36.594 290.766 36.612 289.734 35.685 C 288.699 34.755 288.411 34.785 285.924 36.06 C 282.615 37.758 273.51 46.563 273.51 48.063 C 273.51 49.698 274.314 49.419 277.677 46.626 C 279.354 45.231 281.529 43.671 282.507 43.155 C 284.106 42.312 284.403 42.315 285.384 43.197 C 287.385 44.994 287.784 47.808 286.839 53.415 C 285.642 60.516 286.374 61.986 289.536 58.842 C 290.718 57.672 291.078 56.655 291.078 54.504 C 291.078 48.315 296.121 37.722 302.334 30.855 C 304.902 28.017 309.615 24.864 311.286 24.864 C 313.008 24.864 315.045 28.515 314.586 30.78 C 314.379 31.809 314.091 33.489 313.944 34.515 C 313.191 39.876 311.547 43.041 306.729 48.414 C 304.059 51.393 300.39 55.179 298.578 56.832 C 295.572 59.568 295.371 59.919 296.277 60.816 C 297.513 62.046 299.496 61.344 305.505 57.549 C 313.152 52.719 323.868 42.288 326.76 36.855 C 328.257 34.05 330.6 35.877 330.6 39.843 C 330.6 40.935 329.475 44.346 328.095 47.427 C 325.659 52.881 325.464 54.141 327.054 54.141 C 328.014 54.141 332.064 49.965 338.382 42.459 C 344.721 34.932 346.276 34.092 347.188 37.698 C 347.496 38.928 346.836 40.887 344.511 45.645 C 340.758 53.322 340.191 54.774 339.078 59.487 C 338.319 62.706 338.328 63.357 339.147 64.614 C 340.275 66.336 340.059 68.781 338.781 68.781 C 338.277 68.781 337.191 67.8 336.369 66.6 C 335.043 64.671 334.905 63.9 335.151 59.904 C 335.406 55.782 335.328 55.389 334.236 55.389 C 333.579 55.389 330.762 57.63 327.978 60.372 C 322.413 65.844 320.799 66.444 318.996 63.711 C 317.931 62.097 317.931 59.109 318.996 56.484 C 319.284 55.776 319.101 55.269 318.468 55.029 C 317.853 54.795 315.705 56.109 312.57 58.644 C 306.753 63.345 301.347 66.54 298.404 67.014 C 296.649 67.299 295.899 67.014 293.985 65.346 L 291.678 63.336 L 289.317 64.959 C 284.367 68.367 282.483 70.947 280.851 76.569 C 276.531 91.449 269.445 102.732 264.423 102.732 C 263.304 102.732 261.669 102.174 260.793 101.487 Z M 267.444 94.623 C 269.742 92.082 276.021 80.979 276.021 79.452 C 276.021 79.236 275.373 79.059 274.581 79.059 C 271.707 79.059 261.687 92.094 261.612 95.931 C 261.552 98.847 264.144 98.265 267.444 94.623 Z M 302.697 47.133 C 307.194 42.564 309.642 38.553 310.011 35.142 C 310.179 33.576 309.969 33.237 308.718 33.063 C 306.504 32.751 300.906 38.898 298.227 44.583 C 296.085 49.122 295.74 50.466 296.514 51.234 C 297.423 52.137 298.419 51.477 302.697 47.133 Z M 250.167 47.904 C 256.314 44.955 263.076 36.741 264.393 30.624 C 264.819 28.644 264.78 28.599 262.638 28.599 C 259.068 28.599 253.482 33.477 248.232 41.175 C 244.854 46.125 244.185 47.859 245.37 48.603 C 246.618 49.389 247.272 49.293 250.167 47.904 Z M 404.992 95.31 C 403.258 93.408 403.972 91.416 406.978 89.772 C 410.647 87.768 419.305 79.551 422.167 75.36 C 424.801 71.505 427.858 65.7 429.709 61.032 C 430.864 58.125 430.873 57.891 429.856 56.727 C 427.621 54.162 426.364 54.465 423.16 58.332 C 419.119 63.216 412.981 68.322 410.098 69.201 C 408.016 69.837 407.518 69.774 406.06 68.691 C 402.631 66.15 401.806 64.362 401.839 59.544 C 401.863 55.941 402.253 54.201 403.852 50.553 C 406.081 45.468 408.712 41.382 412.264 37.491 C 413.587 36.042 414.667 34.611 414.667 34.311 C 414.667 34.011 415.36 33.024 416.206 32.118 C 417.358 30.885 418.354 30.468 420.16 30.468 C 422.983 30.468 424.078 31.341 424.078 33.585 C 424.078 34.476 424.345 35.469 424.675 35.796 C 425.683 36.798 427.216 43.635 427.216 47.127 C 427.216 50.946 427.933 51.537 431.491 50.652 L 433.747 50.094 L 436.357 41.37 C 443.479 17.583 450.235 7.317 459.691 5.928 C 462.919 5.451 465.658 6.87 465.358 8.862 C 465.211 9.852 464.197 10.377 460.573 11.34 C 456.712 12.366 455.503 13.032 453.043 15.48 C 451.432 17.085 448.768 20.763 447.124 23.655 C 443.704 29.673 438.223 45.42 438.859 47.409 C 439.291 48.756 439.474 48.759 447.103 47.55 C 449.602 47.154 449.761 47.223 450.175 48.867 C 450.739 51.099 449.623 51.933 443.839 53.586 C 436.27 55.749 435.724 56.118 434.104 60.159 C 431.875 65.73 426.217 76.905 423.97 80.181 C 420.58 85.119 408.265 96.504 406.309 96.504 C 406.183 96.504 405.589 95.967 404.992 95.31 Z M 413.416 60.993 C 420.496 56.217 424.09 50.364 424.069 43.635 C 424.051 37.488 420.673 35.379 417.391 39.465 C 416.41 40.686 415.327 41.682 414.982 41.682 C 413.908 41.682 410.746 46.092 407.944 51.501 C 405.76 55.713 405.259 57.312 405.259 60.033 C 405.259 64.968 407.185 65.193 413.416 60.993 Z M 143.997 69.576 C 143.46 68.817 143.019 67.686 143.019 67.068 C 143.019 64.932 150.348 51.105 162.252 30.78 C 169.497 18.414 169.638 17.175 163.602 18.915 C 159.873 19.992 159.945 19.92 153.864 28.911 C 150.51 33.873 133.863 61.215 130.926 66.591 C 129.843 68.571 129.774 68.598 128.574 67.521 C 126.072 65.271 125.916 65.586 143.094 38.448 C 153.261 22.389 153.564 21.837 152.589 21.228 C 152.157 20.961 149.757 20.979 147.255 21.273 C 141.423 21.957 136.434 22.293 130.197 22.428 C 125.358 22.533 125.169 22.482 123.471 20.592 C 121.014 17.862 121.644 16.518 125.067 17.19 C 129.09 17.982 145.896 17.742 151.698 16.812 C 155.334 16.227 157.446 15.54 158.622 14.556 C 159.927 13.464 160.578 13.284 161.451 13.767 C 162.777 14.505 167.226 13.953 170.328 12.666 C 172.008 11.97 172.935 10.896 174.453 7.881 C 178.113 0.615 179.913 0 178.104 6.63 C 177.462 8.976 177.096 11.814 177.279 13.026 C 177.564 14.928 177.378 15.333 175.839 16.2 C 174.87 16.746 173.511 18.288 172.821 19.626 C 172.131 20.964 169.791 25.278 167.619 29.214 C 165.45 33.147 163.521 36.972 163.335 37.71 C 162.687 40.263 164.319 39.849 167.622 36.618 C 169.446 34.833 172.17 32.286 173.679 30.957 C 176.256 28.683 176.484 28.599 177.564 29.568 C 179.724 31.509 179.592 33.549 176.889 40.134 L 174.336 46.356 L 176.088 47.754 C 177.051 48.522 178.008 49.152 178.215 49.155 C 178.422 49.158 179.451 47.784 180.504 46.104 C 186.765 36.105 195.753 26.082 199.239 25.212 C 201.357 24.684 203.622 26.661 204.498 29.799 C 207.21 39.486 200.565 48.552 185.031 56.361 C 179.658 59.061 179.334 59.388 179.556 61.929 C 179.718 63.765 179.79 63.801 183.621 63.984 C 187.038 64.146 188.097 63.888 192.201 61.902 C 194.778 60.654 197.37 59.1 197.967 58.446 C 199.341 56.937 199.899 56.949 200.736 58.503 C 201.474 59.871 200.715 61.89 198.909 63.363 C 196.707 65.16 185.892 69.822 183.189 70.143 C 179.127 70.62 176.658 68.541 175.575 63.735 C 175.053 61.431 174.288 59.892 173.253 59.085 C 170.19 56.694 168.366 57.939 166.809 63.486 C 165.768 67.188 165.12 67.842 163.995 66.327 C 162.177 63.882 162.975 60.879 169.395 45.996 C 171.105 42.03 172.506 38.316 172.506 37.743 C 172.506 35.463 169.722 36.684 165.93 40.626 C 162.33 44.373 160.032 47.718 154.998 56.535 C 151.767 62.193 151.761 62.205 148.749 66.789 C 147.243 69.084 145.776 70.962 145.491 70.962 C 145.206 70.962 144.534 70.338 143.997 69.576 Z M 192.645 46.248 C 196.869 43.257 200.547 39.036 201.315 36.297 C 202.365 32.535 202.203 31.716 200.409 31.716 C 198.39 31.716 194.238 35.484 189.837 41.307 C 184.872 47.88 184.56 48.462 185.622 49.119 C 186.726 49.8 188.85 48.933 192.645 46.248 Z M 345.69 66.189 C 342.957 62.736 343.173 59.625 346.651 52.416 C 348.549 48.483 350.086 46.515 355.036 41.682 C 361.69 35.184 365.551 32.871 369.973 32.736 L 372.856 32.649 L 375.211 28.329 C 376.507 25.953 378.433 21.609 379.492 18.672 C 382.006 11.709 386.002 4.044 387.247 3.801 C 387.79 3.693 388.546 4.182 388.924 4.887 C 389.791 6.495 386.773 17.259 383.515 24.177 C 381.016 29.481 374.614 40.812 370.825 46.632 C 368.161 50.724 366.166 56.028 366.736 57.504 C 367.231 58.779 369.895 59.748 372.913 59.748 C 376.111 59.748 382.741 57.81 385.669 56.022 C 388.207 54.468 388.945 54.441 388.945 55.902 C 388.945 58.359 382.534 62.481 376.576 63.852 C 371.05 65.124 368.662 64.626 365.614 61.572 C 364.273 60.225 362.881 59.127 362.521 59.127 C 362.158 59.127 359.979 60.771 357.682 62.781 C 352.789 67.062 351.423 67.848 348.883 67.848 C 347.595 67.848 346.59 67.326 345.69 66.189 Z M 352.741 60.33 C 357.706 57.063 364.549 49.233 366.769 44.277 C 368.38 40.683 368.593 39.738 367.915 39.18 C 365.875 37.497 357.25 44.367 352.132 51.756 C 348.186 57.447 346.848 60.801 348.186 61.641 C 349.486 62.46 349.516 62.451 352.741 60.33 Z" id="path3046"/>
    <rect style="fill-opacity: 1; stroke: none; fill: rgb(255, 255, 255);" id="rect3059" width="253.866" height="2.502" x="-59.706" y="513.062" transform="matrix(1, 0, 0, 0.999991, 61.673212, -430.227492)"/>
    <rect y="513.062" x="223.908" height="2.502" width="116.895" id="rect3829" style="fill-opacity: 1; stroke: none; fill: rgb(255, 255, 255);" transform="matrix(1, 0, 0, 0.999991, 61.673326, -430.227492)"/>
    <rect style="fill-opacity: 1; stroke: none; fill: rgb(255, 255, 255);" id="rect3831" width="171.567" height="2.502" x="366.76" y="513.062" transform="matrix(1, 0, 0, 0.999991, 61.673218, -430.227492)"/>
    <rect y="241.167" x="1.965" height="2.502" width="596.005" id="rect3833" style="fill-opacity: 1; stroke: none; fill: rgb(255, 255, 255);"/>
  </g>
</svg>