<?xml version="1.0" encoding="utf-8"?>
<svg version="1.2" xmlns="http://www.w3.org/2000/svg">
  <path d="M 13.3 87.048 C 5.956 87.048 0 81.094 0 73.748 L 0 13.3 C 0 5.954 5.956 0 13.3 0 C 20.646 0 26.602 5.954 26.602 13.3 L 26.602 73.746 C 26.602 81.094 20.646 87.048 13.3 87.048 Z" style="fill: rgb(255, 255, 255);"/>
  <path d="M 193.676 31.176 L 153.526 31.176 L 153.526 23.942 L 193.676 23.942 C 200.286 23.942 205.644 18.582 205.644 11.972 C 205.644 5.36 200.286 0.002 193.676 0.002 L 138.894 0.002 C 132.284 0.002 126.924 5.36 126.924 11.972 C 126.924 12.196 126.924 73.748 126.924 73.748 C 126.924 81.094 132.88 87.048 140.226 87.048 C 147.57 87.048 153.526 81.094 153.526 73.748 L 153.526 55.116 L 193.676 55.116 C 200.286 55.116 205.644 49.756 205.644 43.146 C 205.646 36.536 200.286 31.176 193.676 31.176 Z" style="fill: rgb(255, 255, 255);"/>
  <path d="M 599.484 69.86 L 582.266 9.808 C 581.248 6.252 578.864 3.462 575.852 1.834 C 574.012 0.68 571.84 0.002 569.508 0.002 L 506.33 0.002 C 505.916 0.002 505.508 0.024 505.104 0.064 C 498.336 0.684 493.028 6.368 493.028 13.302 L 493.028 73.75 C 493.028 81.094 498.982 87.05 506.33 87.05 C 513.674 87.05 519.63 81.094 519.63 73.75 L 519.63 23.942 L 525.52 23.942 L 525.52 73.75 C 525.52 81.096 531.476 87.05 538.82 87.05 C 546.164 87.05 552.12 81.096 552.12 73.75 L 552.12 23.942 L 558.816 23.942 L 574.074 77.146 C 575.736 82.946 581.024 86.728 586.772 86.728 C 587.978 86.728 589.204 86.562 590.422 86.212 C 597.438 84.196 601.498 76.878 599.484 69.86 Z" style="fill: rgb(255, 255, 255);"/>
  <path d="M 277.662 0.002 L 232.494 0.002 C 219.926 0.002 209.644 10.282 209.644 22.85 L 209.644 64.2 C 209.644 76.766 219.926 87.048 232.494 87.048 L 277.662 87.048 C 290.23 87.048 300.51 76.766 300.51 64.2 L 300.51 22.85 C 300.51 10.284 290.23 0.002 277.662 0.002 Z M 274.724 59.686 C 274.724 61.148 273.528 62.346 272.064 62.346 L 238.09 62.346 C 236.626 62.346 235.43 61.148 235.43 59.686 L 235.43 27.362 C 235.43 25.902 236.626 24.704 238.09 24.704 L 272.064 24.704 C 273.528 24.704 274.724 25.902 274.724 27.362 L 274.724 59.686 Z" style="fill: rgb(255, 255, 255);"/>
  <path d="M 464.774 0.002 L 419.604 0.002 C 407.04 0.002 396.754 10.282 396.754 22.85 L 396.754 64.2 C 396.754 76.766 407.04 87.048 419.604 87.048 L 464.774 87.048 C 477.34 87.048 487.62 76.766 487.62 64.2 L 487.62 22.85 C 487.62 10.284 477.34 0.002 464.774 0.002 Z M 461.836 59.686 C 461.836 61.148 460.638 62.346 459.178 62.346 L 425.202 62.346 C 423.74 62.346 422.542 61.148 422.542 59.686 L 422.542 27.362 C 422.542 25.902 423.74 24.704 425.202 24.704 L 459.178 24.704 C 460.638 24.704 461.836 25.902 461.836 27.362 L 461.836 59.686 Z" style="fill: rgb(255, 255, 255);"/>
  <path d="M 116.896 0.002 L 38.508 0.002 C 35.178 0.002 32.478 2.702 32.478 6.03 L 32.478 73.748 C 32.478 81.094 38.432 87.048 45.778 87.048 C 53.124 87.048 58.924 81.094 58.924 73.748 L 58.924 27.352 C 58.924 25.89 60.122 24.694 61.584 24.694 L 93.568 24.694 C 95.03 24.694 96.324 25.89 96.324 27.352 L 96.324 73.746 C 96.324 81.092 102.28 87.048 109.626 87.048 C 116.97 87.048 122.926 81.092 122.926 73.746 L 122.926 23.364 L 122.926 6.032 C 122.926 2.702 120.226 0.002 116.896 0.002 Z" style="fill: rgb(255, 255, 255);"/>
  <path d="M 382.442 62.348 L 334.892 62.348 C 333.43 62.348 332.232 61.15 332.232 59.686 L 332.232 27.362 C 332.232 25.902 333.43 24.704 334.892 24.704 L 382.442 24.704 C 389.262 24.704 394.796 19.176 394.796 12.352 C 394.796 5.532 389.264 0 382.442 0 L 365.212 0 L 331.346 0 L 328.504 0 C 316.002 0 305.774 10.228 305.774 22.73 L 305.774 64.318 C 305.774 76.816 316.002 87.048 328.504 87.048 L 331.346 87.048 L 365.212 87.048 L 382.442 87.048 C 389.262 87.048 394.796 81.518 394.796 74.694 C 394.796 67.872 389.264 62.348 382.442 62.348 Z" style="fill: rgb(255, 255, 255);"/>
</svg>