<?xml version="1.0" encoding="utf-8"?>
<svg version="1.1" xmlns="http://www.w3.org/2000/svg">
  <g>
    <path d="M 0.6 55.395 L 0.6 47.211 L 64.698 47.211 L 64.698 37.869 L 0.6 37.869 L 0.195 12.66 L 73.02 12.66 L 73.02 20.823 L 8.922 20.823 L 9.324 29.706 L 73.422 29.706 L 73.422 55.398 L 0.6 55.398 L 0.6 55.395 Z" id="path5" style="fill-opacity: 1; stroke-opacity: 1; fill: rgb(255, 255, 255);"/>
    <path d="M 78.696 55.395 L 78.696 12.819 L 87.42 12.819 L 87.42 55.395 L 78.696 55.395 L 78.696 55.395 Z" id="path7" style="fill-opacity: 1; stroke-opacity: 1; fill: rgb(255, 255, 255);"/>
    <path d="M 92.103 55.395 L 92.103 12.819 L 164.928 12.819 L 164.928 55.395 L 156.201 55.395 L 156.201 20.982 L 100.827 20.982 L 100.827 55.401 L 92.103 55.395 L 92.103 55.395 L 92.103 55.395 Z" id="path9" style="fill-opacity: 1; stroke-opacity: 1; fill: rgb(255, 255, 255);"/>
    <path d="M 169.584 55.395 L 169.584 12.819 L 242.46 12.819 L 242.46 20.985 L 178.365 20.985 L 178.365 47.211 L 242.46 47.211 L 242.46 55.401 L 169.584 55.401 L 169.584 55.395 Z" id="path11" style="fill-opacity: 1; stroke-opacity: 1; fill: rgb(255, 255, 255);"/>
    <path d="M 248.268 55.395 L 248.268 0 L 256.995 0 L 256.995 55.398 L 248.268 55.398 L 248.268 55.395 Z" id="path13" style="fill-opacity: 1; stroke-opacity: 1; fill: rgb(255, 255, 255);"/>
    <path d="M 339.72 55.395 L 339.72 12.819 L 348.498 12.819 L 348.498 55.395 L 339.72 55.395 L 339.72 55.395 Z" id="path15" style="fill-opacity: 1; stroke-opacity: 1; fill: rgb(255, 255, 255);"/>
    <path d="M 353.769 55.395 L 353.769 12.819 L 426.591 12.819 L 426.591 20.985 L 362.496 20.985 L 362.496 55.401 L 353.769 55.401 L 353.769 55.395 L 353.769 55.395 Z" id="path17" style="fill-opacity: 1; stroke-opacity: 1; fill: rgb(255, 255, 255);"/>
    <path d="M 261.651 12.819 L 261.651 20.985 L 325.746 20.985 L 325.746 30.321 L 261.651 30.321 L 261.651 55.398 L 334.527 55.398 L 334.527 12.819 L 261.651 12.819 Z M 325.746 47.211 L 270.426 47.211 L 270.426 37.869 L 325.746 37.869 L 325.746 47.211 Z" id="path19" style="fill-opacity: 1; stroke-opacity: 1; fill: rgb(255, 255, 255);"/>
    <path d="M 78.696 8.19 L 78.696 0 L 87.42 0 L 87.42 8.19 L 78.696 8.19 L 78.696 8.19 Z" id="path21" style="fill-opacity: 1; stroke-opacity: 1; fill: rgb(255, 255, 255);"/>
    <path d="M 339.72 8.19 L 339.72 0 L 348.498 0 L 348.498 8.19 L 339.72 8.19 L 339.72 8.19 Z" id="path23" style="fill-opacity: 1; stroke-opacity: 1; fill: rgb(255, 255, 255);"/>
    <path d="M 0 84.9 L 10.254 72.639 L 0.804 72.639 L 0.804 69.108 L 15.849 69.108 L 15.849 72.426 L 5.595 84.687 L 16.116 84.687 L 16.116 88.221 L 0 88.221 L 0 84.9 L 0 84.9 Z" id="path27" style="fill-opacity: 1; stroke-opacity: 1; fill: rgb(255, 255, 255);"/>
    <path d="M 23.268 78.207 L 17.109 69.105 L 21.981 69.105 L 25.731 75.21 L 29.613 69.105 L 34.218 69.105 L 28.086 78.234 L 34.752 88.221 L 29.748 88.221 L 25.569 81.609 L 21.312 88.221 L 16.572 88.221 L 23.268 78.207 Z" id="path29" style="fill-opacity: 1; stroke-opacity: 1; fill: rgb(255, 255, 255);"/>
    <path d="M 46.749 81.879 C 46.749 84.42 48.729 85.41 50.979 85.41 C 52.452 85.41 54.702 84.984 54.702 83.028 C 54.702 80.967 51.837 80.619 49.026 79.869 C 46.188 79.119 43.323 78.024 43.323 74.433 C 43.323 70.524 47.019 68.652 50.472 68.652 C 54.462 68.652 58.128 70.389 58.128 74.808 L 54.06 74.808 C 53.925 72.504 52.293 71.919 50.286 71.919 C 48.945 71.919 47.394 72.48 47.394 74.088 C 47.394 75.561 48.306 75.747 53.097 76.977 C 54.489 77.325 58.773 78.21 58.773 82.545 C 58.773 86.052 56.016 88.677 50.82 88.677 C 46.59 88.677 42.63 86.589 42.684 81.879 L 46.749 81.879 L 46.749 81.879 Z" id="path31" style="fill-opacity: 1; stroke-opacity: 1; fill: rgb(255, 255, 255);"/>
    <path d="M 60.858 74.382 L 64.473 74.382 L 64.473 76.149 L 64.527 76.149 C 65.436 74.676 66.936 74.007 68.649 74.007 C 72.987 74.007 74.94 77.514 74.94 81.447 C 74.94 85.143 72.906 88.596 68.865 88.596 C 67.203 88.596 65.625 87.873 64.713 86.508 L 64.659 86.508 L 64.659 93.096 L 60.858 93.096 L 60.858 74.382 L 60.858 74.382 Z M 71.139 81.339 C 71.139 79.146 70.254 76.869 67.818 76.869 C 65.328 76.869 64.527 79.092 64.527 81.339 C 64.527 83.589 65.382 85.731 67.848 85.731 C 70.335 85.731 71.139 83.589 71.139 81.339 Z" id="path33" style="fill-opacity: 1; stroke-opacity: 1; fill: rgb(255, 255, 255);"/>
    <path d="M 80.352 82.224 C 80.457 84.633 81.636 85.731 83.751 85.731 C 85.275 85.731 86.508 84.795 86.748 83.937 L 90.093 83.937 C 89.022 87.201 86.748 88.593 83.616 88.593 C 79.251 88.593 76.548 85.596 76.548 81.312 C 76.548 77.16 79.413 74.001 83.616 74.001 C 88.326 74.001 90.603 77.967 90.336 82.221 L 80.352 82.224 L 80.352 82.224 Z M 86.535 79.815 C 86.187 77.886 85.356 76.872 83.508 76.872 C 81.099 76.872 80.403 78.744 80.349 79.815 L 86.535 79.815 Z" id="path35" style="fill-opacity: 1; stroke-opacity: 1; fill: rgb(255, 255, 255);"/>
    <path d="M 102.009 79.251 C 101.766 77.7 100.779 76.872 99.198 76.872 C 96.762 76.872 95.958 79.332 95.958 81.366 C 95.958 83.349 96.732 85.731 99.117 85.731 C 100.884 85.731 101.901 84.606 102.141 82.923 L 105.807 82.923 C 105.324 86.589 102.783 88.596 99.141 88.596 C 94.965 88.596 92.151 85.653 92.151 81.501 C 92.151 77.193 94.722 74.004 99.219 74.004 C 102.489 74.004 105.486 75.717 105.726 79.254 L 102.009 79.251 L 102.009 79.251 Z" id="path37" style="fill-opacity: 1; stroke-opacity: 1; fill: rgb(255, 255, 255);"/>
    <path d="M 112.773 74.382 L 115.557 74.382 L 115.557 76.923 L 112.773 76.923 L 112.773 83.778 C 112.773 85.065 113.094 85.386 114.378 85.386 C 114.783 85.386 115.155 85.359 115.557 85.275 L 115.557 88.248 C 114.915 88.356 114.084 88.383 113.337 88.383 C 111.006 88.383 108.972 87.846 108.972 85.089 L 108.972 76.926 L 106.668 76.926 L 106.668 74.382 L 108.972 74.382 L 108.972 70.23 L 112.773 70.23 L 112.773 74.382 L 112.773 74.382 Z" id="path39" style="fill-opacity: 1; stroke-opacity: 1; fill: rgb(255, 255, 255);"/>
    <path d="M 117.378 74.382 L 120.993 74.382 L 120.993 76.953 L 121.047 76.953 C 121.743 75.21 123.618 74.007 125.466 74.007 C 125.733 74.007 126.054 74.061 126.294 74.145 L 126.294 77.676 C 125.946 77.595 125.385 77.541 124.929 77.541 C 122.148 77.541 121.182 79.548 121.182 81.984 L 121.182 88.224 L 117.381 88.224 L 117.378 74.382 L 117.378 74.382 Z" id="path41" style="fill-opacity: 1; stroke-opacity: 1; fill: rgb(255, 255, 255);"/>
    <path d="M 140.778 88.221 L 137.163 88.221 L 137.163 86.292 L 137.082 86.292 C 136.119 87.846 134.457 88.596 132.852 88.596 C 128.808 88.596 127.791 86.322 127.791 82.896 L 127.791 74.382 L 131.595 74.382 L 131.595 82.2 C 131.595 84.474 132.264 85.599 134.031 85.599 C 136.092 85.599 136.974 84.447 136.974 81.636 L 136.974 74.382 L 140.775 74.382 L 140.778 88.221 L 140.778 88.221 Z" id="path43" style="fill-opacity: 1; stroke-opacity: 1; fill: rgb(255, 255, 255);"/>
    <path d="M 143.778 74.382 L 147.366 74.382 L 147.366 76.254 L 147.42 76.254 C 148.41 74.832 149.856 74.004 151.65 74.004 C 153.39 74.004 154.941 74.646 155.691 76.308 C 156.495 75.102 157.941 74.004 159.867 74.004 C 162.813 74.004 164.928 75.369 164.928 78.957 L 164.928 88.221 L 161.127 88.221 L 161.127 80.376 C 161.127 78.531 160.968 77.004 158.799 77.004 C 156.657 77.004 156.255 78.771 156.255 80.511 L 156.255 88.221 L 152.451 88.221 L 152.451 80.457 C 152.451 78.849 152.559 77.004 150.147 77.004 C 149.4 77.004 147.579 77.484 147.579 80.19 L 147.579 88.221 L 143.778 88.221 L 143.778 74.382 L 143.778 74.382 Z" id="path45" style="fill-opacity: 1; stroke-opacity: 1; fill: rgb(255, 255, 255);"/>
    <polygon points="455.04 2.301 391.431 65.919 427.632 65.919 491.244 2.301" id="polygon49" style="fill-opacity: 1; stroke-opacity: 1; fill: rgb(204, 204, 204);"/>
    <polygon points="491.325 2.301 427.713 65.919 463.917 65.919 527.529 2.301" id="polygon51" style="fill-opacity: 1; stroke-opacity: 1; fill: rgb(221, 221, 221);"/>
    <polygon points="527.58 2.301 463.971 65.919 500.175 65.919 563.784 2.301" id="polygon53" style="fill-opacity: 1; stroke-opacity: 1; fill: rgb(238, 238, 238);"/>
    <polygon points="563.799 2.301 500.187 65.919 536.391 65.919 600 2.301" id="polygon55" style="fill-opacity: 1; stroke-opacity: 1; fill: rgb(255, 255, 255);"/>
  </g>
</svg>